<svg xmlns="http://www.w3.org/2000/svg" width="197" height="125" fill="none" viewBox="0 0 197 125">
    <mask id="9q5s57j0wa" width="197" height="125" x="0" y="0" maskUnits="userSpaceOnUse">
        <rect width="197" height="124" y=".938" fill="#fff" rx="3"/>
    </mask>
    <g mask="url(#9q5s57j0wa)">
        <path fill="#EDF6F9" d="M-58.906 -59.375H307.713V184.726H-58.906z"/>
        <path fill="#FF9985" d="M107.926 38.337s-4.013-9-9.611-8.75V42.42l7.215 1.314 2.396-5.396z"/>
        <path fill="#FF9985" d="M102.392 41.157c.507 1.296.926 2.57 1.438 3.88 4.775 12.192 9.712 24.8 12.957 36.446l.647 2.32c.253.905-.567 1.721-1.478 1.46-2.939-.844-8.109-2.318-9.138-2.536l-2.833 16.582c23.023 5.137 33.637 8.065 30.65-3.348-5.794-22.183-16.084-38.332-24.423-53.526-.762-1.388-1.576-2.792-2.288-4.1-1.574 1.74-2.739 2.344-5.532 2.822z"/>
        <path fill="#fff" d="M97.628 47.156c-3.007 0-5.445-3.479-5.445-7.77 0-4.29 2.438-7.769 5.445-7.769 3.008 0 5.446 3.479 5.446 7.77 0 4.29-2.438 7.769-5.446 7.769z"/>
        <path fill="#91B4DE" d="M95.421 47.156c-3.007 0-5.446-3.479-5.446-7.77 0-4.29 2.439-7.769 5.446-7.769 3.008 0 5.446 3.479 5.446 7.77 0 4.29-2.438 7.769-5.446 7.769z"/>
        <path fill="#000543" d="M30.65 21.525c-.435 2.091-.459 4.335-1.462 6.201-.862 1.595-2.357 2.737-3.343 4.256-.986 1.518-1.299 3.823.1 5.05.664.584 1.58.798 2.242 1.378 1.865 1.638.617 4.566.347 6.993-.303 2.72.998 5.61 3.251 7.23 1.62 1.163 3.842 1.92 4.41 3.829.445 1.504-.361 3.258.48 4.591 1.234 1.958 4.375.869 6.318 2.109 1.369.874 1.783 2.646 2.549 4.08 1.429 2.676 4.496 4.397 7.454 4.185 1.58-.115 3.16-.729 4.712-.326 2.003.522 3.455 2.627 5.503 2.831 4.256.417 4.44-4.645 6.813-7.686 2.984-3.83 9.832-4.428 10.67-9.276.198-1.135.022-2.438.737-3.323.726-.9 2.103-1 2.923-1.814 1.536-1.528.33-4.4.788-6.444.095-.18.562-1.229.684-1.344 5.512-11.644 4.65-24.395-3.217-31.398-6.52-5.802-16.289-6.26-25.554-2.22-.1-.065-.162-.146-.264-.21-2.412-1.522-5.1-1.594-7.804-1.013-4.96 1.066-5.8 5.902-9.8 7.39-1.532.567-3.305-.212-4.9.153-2.066.472-3.2 2.687-3.636 4.778z"/>
        <path fill="#000543" d="M78.588 42.091c-2.76-1.06-7.801-1.428-9.96-2.377-1.456-.64-2.948-1.339-4.175-2.323-.623-.502-1.485-1.363-2.205-2.99.01.019.466-2.03.063-.508.955-3.6.539-6.736-.74-9.3-.063-1.652.115-3.57 1.386-6.098 2.828-5.624 5.254-5.746 7.637-7.573 2.338-1.793 2.296-1.475 5.538-2.968 2.835-1.305 6.216-1.244 9.063.018 0 0 1.672.87 2.293 1.367.668.534 1.289 1.128 1.925 1.702.868.211 4.119 1.218 5.057 3.188 1.842 3.872 1.141 5.948 1.141 5.948-2.138.277-4.813-1.932-6.465-1.056-.72.465-1.027.69-1.401 1.108-2.012 2.257-3.68 4.103-3.628 7.36.044 2.672 1.809 5.43.552 7.854-1.123 2.166-4.179 2.94-5.477 5.022-.319.51-.493 1.06-.604 1.626z"/>
        <path fill="#FF9985" d="M108.908 117.787c-.023-.001-.046.006-.069.003-.175-.023-.455-.09-.386-.243.558-1.243 1.107-1.948 1.678-2.486.476-.448.192-1.211-.489-1.071-1.516.312-2.928.898-4.204 1.714-2.325 1.487-1.617 1.086-4.863 4.006-2.218 1.995-.932 3.447.618 4.583 2.988 2.191 10.868 3.352 14.111 1.499 1.688-.965 3.513-3.598 4.195-5.666.176-.536.005-1.365-.275-2.177-.48-1.394-1.975-2.155-3.401-1.815l-6.915 1.653z"/>
        <path fill="#EF4949" d="M86.608 101.048l20.814 4.934c2.924.693 5.29-1.228 5.167-4.195l-.711-17.2c-.113-2.723-1.241-3.424-3.924-4.052-9.821-2.296-30.643-9.156-30.643-9.156l-1.837 14.294c-.849 6.606 4.334 13.763 11.134 15.375z"/>
        <path fill="#EF4949" d="M91.236 148.994c.088 4.021.241 7.447.437 10.408H33.054c4.664-6.545 9.193-12.717 9.577-23.963.397-11.702-2.623-16.757-3.723-27.262-.002.006-3.907-21.553 10.68-30.973l3.097-2c8.982-5.523 21.835-10.381 34.168 1.093 3.445 3.206 5.864 7.386 6.995 12.04.5 2.056.905 4.118 1.274 5.876.016.036.016.065.021.092.135.657.246 1.32.307 1.997.04.468.069.936.085 1.407l-.056.043c.212 12.35-4.758 27.495-4.243 51.242z"/>
        <path fill="#FF9985" d="M72.09 70.898c-3.31-.37-6.297.77-8.72 2.549-1.748 1.282-1.713 3.721.086 5.34 2.79 2.51 5.536 5.055 8.24 7.635 1.57 1.498 4.179 1.315 5.008-.36 3.256-6.58 2.37-4.612 4.071-8.8 1.404-3.451-5.004-5.952-8.684-6.364z"/>
        <path fill="#000543" d="M73.872 50.03c-2.848-2.152-8.571-4.265-10.76-6.086-1.477-1.23-2.975-2.538-4.073-4.09-.556-.79-1.27-2.075-1.567-4.202.005.025 1.209-2.197.24-.567 2.295-3.854 2.847-7.627 2.213-11.028.473-1.935 1.31-4.1 3.62-6.605 5.135-5.572 7.987-4.903 11.353-6.224 3.303-1.296 3.15-.942 7.4-1.588 2.794-.426 6.133.168 8.843 1.515 1.385.689 2.528 1.794 3.35 3.11.18.285.357.56.512.778.093.131.184.262.273.395.909 1.347 2.04 2.522 3.3 3.544 1.25 1.017 2.527 2.5 2.905 4.064 1.494 6.165-.641 10.202-.641 10.202-2.57-.394-4.942-6.776-7.146-6.312-.988.298-1.419.454-1.99.815-3.078 1.943-5.62 3.525-6.636 7.319-.832 3.11.303 6.9-1.954 9.288-2.018 2.135-5.815 2.01-8.008 3.99-.535.484-.918 1.063-1.234 1.683z"/>
        <path fill="#FFA27F" d="M91.559 31.866l-16.261-.256c-.73-.011-1.316-.622-1.305-1.355l.135-8.72c.022-1.449 1.219-2.615 2.66-2.593l14.967.235c3.467.055 6.26 2.954 6.205 6.444-.052 3.489-2.933 6.3-6.401 6.245z"/>
        <path fill="#000543" d="M67.575 48.889c.791 2.402 1.86 4.401 3.175 5.913.012.014.008.073.021.06 3.72-3.822 3.503-8.3 3.503-8.3-1.018-.78-1.71-2.581-1.67-4.668.052-2.77 1.373-4.988 2.951-4.951.12.003.222.09.336.128L65.42 27.3c-1.325 4.87-1.08 11.77 2.155 21.588z"/>
        <path fill="#FF9985" d="M95.451 20.297c3.386 2.8 5.56 7.017 5.464 11.732L100.671 44c-.167 8.176-6.974 14.729-15.128 14.56-8.154-.168-14.689-6.996-14.523-15.172l.236-11.574L95.45 20.297z"/>
        <path fill="#FF9985" d="M63.9 76.579l8.15 2.78c1.119.383 2.438-.498 2.93-1.956l9.217-27.35c.491-1.459-.025-2.965-1.144-3.346l-8.149-2.782c-1.12-.382-2.439.498-2.93 1.956l-9.217 27.35c-.492 1.459.023 2.965 1.144 3.348z"/>
        <path fill="#000543" d="M86.953 30.478l-3.606-.056c-.527-.008-.965.42-.973.949-.008.53.416.97.943.978l3.605.057c.526.008.964-.42.972-.95.01-.528-.415-.968-.941-.978zM100.454 30.689l-2.8-.044c-.408-.006-.75.422-.757.952-.008.53.319.969.729.975l2.799.044c.409.006.75-.422.758-.952.009-.53-.32-.968-.729-.975z"/>
        <path fill="#FA694F" d="M95.053 42.176l-.112-.324c-.101.73-.53 1.38-1.193 1.586l-1.618.502c-.557.172-1.056-.131-1.346-.618l-.037.183c-.218 1.1.639 2.074 1.571 1.785l1.619-.502c.967-.299 1.493-1.528 1.116-2.612z"/>
        <path fill="#000543" d="M86.32 36.638c-.014.92-.508 1.66-1.103 1.65-.595-.01-1.065-.764-1.051-1.685.014-.92.509-1.66 1.103-1.65.595.01 1.065.764 1.051 1.685z"/>
        <path fill="#000543" d="M85.265 34.953l1.833.03L85.95 36.1l-.686-1.148zM99.265 36.84c-.014.921-.508 1.661-1.102 1.65-.596-.008-1.066-.763-1.052-1.684.014-.92.509-1.66 1.103-1.65.595.01 1.065.764 1.051 1.685z"/>
        <path fill="#000543" d="M98.211 35.156l1.832.03-1.147 1.118-.685-1.148z"/>
        <path fill="#FF9985" d="M71.418 37.141c-2.315-.048-4.238 2.19-4.296 4.997-.057 2.807 1.774 5.122 4.089 5.17 2.315.047 4.238-2.19 4.296-4.997.057-2.808-1.773-5.122-4.089-5.17z"/>
        <path fill="#000543" d="M68.032 26.2c1.728-3.44 2.285-7.806 5.398-10.015 1.928-1.367 4.43-1.554 6.772-1.388 2.82.2 5.588.843 8.344 1.483l6.012 1.397c.23.053.47.112.652.267.2.172.296.436.384.688.342.976 1.69 3.35 1.411 4.355-.313 1.128-1.738 1.145-2.682 1.19-9.714.486-15.467 6.056-17.649 9.28-1.8 2.659-2.791 5.822-4.654 8.434-1.208 1.695-2.77 3.127-4.55 4.174-.075.043-.157.079-.233.12L62.254 33.81c2.033-2.457 4.345-4.757 5.778-7.61z"/>
        <path fill="#fff" d="M86.355 47.957c.113 1.02.21 2.037 2.408 2.371 0 0 3.676.588 3.363-1.822l-5.772-.549zM68.332 46.972c-3.008 0-5.446-3.478-5.446-7.77 0-4.29 2.438-7.768 5.446-7.768 3.007 0 5.445 3.478 5.445 7.769 0 4.29-2.438 7.769-5.445 7.769z"/>
        <path fill="#D7E1FC" d="M66.099 31.45h2.612v1.032h-2.612v-1.033zM66.21 45.938h2.173v1.032H66.21v-1.032z"/>
        <path fill="#91B4DE" d="M66.124 46.972c-3.007 0-5.445-3.478-5.445-7.77 0-4.29 2.438-7.768 5.445-7.768 3.008 0 5.446 3.478 5.446 7.769 0 4.29-2.438 7.769-5.445 7.769z"/>
        <path fill="#91B4DE" d="M66.456 33.515c.257 0 .471-.202.483-.462.343-7.346 2.68-13.027 6.948-16.885 6.515-5.888 15.404-5.473 15.492-5.468.267.014.496-.19.51-.457.016-.267-.188-.496-.455-.511-.38-.02-9.367-.448-16.188 5.71-4.47 4.038-6.919 9.947-7.273 17.565-.012.267.194.494.46.507l.023.001zM81.894 54.859c.13 0 .238-.103.243-.234.004-.134-.101-.245-.234-.25-13.178-.458-14.867-9.658-14.883-9.75-.023-.132-.15-.222-.28-.2-.131.022-.22.147-.199.28.016.096 1.776 9.683 15.344 10.153l.009.001z"/>
        <path fill="#D7E1FC" d="M81.155 55.342h1.506c.244 0 .445-.2.445-.444v-.489c0-.244-.2-.444-.445-.444h-1.506c-.245 0-.444.2-.444.444v.489c0 .244.2.444.444.444z"/>
        <path fill="#FF9985" d="M102.375 118.232c-1.226.384-3.274.999-4.512 1.389-11.522 3.625-23.436 7.373-34.586 9.491l-2.221.422c-.867.164-1.765-.759-1.608-1.663.509-2.92 1.392-8.058 1.494-9.089l-16.704-4.614c-2.527 23.029-3.426 32.559 7.523 30.683 21.283-3.636 35.285-11.467 49.379-18.429 1.287-.636 2.585-1.325 3.798-1.918-1.893-1.792-1.782-3.366-2.563-6.272z"/>
        <path fill="#EF4949" d="M39.455 95.891l-2.57 20.791c-.36 2.92 1.801 5.541 4.72 5.722l16.922 1.052c2.678.166 3.245-.917 3.569-3.597 1.18-9.814 5.654-30.412 5.654-30.412l-14.332-3.358c-6.623-1.552-13.123 3.011-13.963 9.802z"/>
        <path fill="#B70808" d="M60.028 124.038c1.06-.327 1.91-1.221 2.129-2.37l5.42-28.408c.055-.292-.134-.574-.424-.63-.286-.051-.57.133-.626.425l-5.42 28.409c-.195 1.018-1.147 1.737-2.173 1.619l-16.247-1.557c-.287-.024-.557.181-.588.48-.03.295.183.559.477.592l16.248 1.557c.414.044.822-.001 1.204-.117z"/>
    </g>
    <circle cx="169" cy="97" r="18" fill="#fff" opacity=".7"/>
    <path fill="#03A9F4" d="M171.195 88.073l-6.859 5.5c-.129.097-.259.129-.388.129h-4.012c-.356 0-.647.291-.647.647v5.176c0 .356.291.647.647.647h3.979c.162 0 .292.065.389.13l6.858 5.5c.421.323 1.036.032 1.036-.518V88.59c.032-.55-.583-.841-1.003-.517zM175.303 93.053c-.259-.258-.647-.258-.906 0-.259.26-.259.648 0 .906.809.81 1.23 1.844 1.23 2.977 0 1.132-.453 2.167-1.23 2.976-.259.259-.259.647 0 .906.13.129.291.194.453.194.162 0 .324-.065.453-.194 1.035-1.035 1.618-2.426 1.618-3.882s-.583-2.847-1.618-3.883z"/>
    <path fill="#03A9F4" d="M177.018 91.339c-.259-.26-.647-.26-.906 0-.259.258-.259.647 0 .906 1.262 1.261 1.941 2.911 1.941 4.69 0 1.78-.679 3.43-1.941 4.692-.259.259-.259.647 0 .906.129.129.291.194.453.194.162 0 .324-.065.453-.194 1.521-1.489 2.329-3.495 2.329-5.597 0-2.103-.808-4.11-2.329-5.597z"/>
</svg>
