<svg xmlns="http://www.w3.org/2000/svg" width="20" height="25" fill="none" viewBox="0 0 20 25">
    <path fill="#3D888D" d="M18.995 0H4.422v24.723h14.573c.555 0 1.005-.45 1.005-1.005V1.005C20 .45 19.55 0 18.995 0z"/>
    <path fill="#166262" d="M18.995 0h-1.408c.555 0 1.005.45 1.005 1.005v22.713c0 .555-.45 1.005-1.005 1.005h1.408c.554 0 1.004-.45 1.004-1.005V1.005C20 .45 19.55 0 18.995 0z"/>
    <path fill="#516065" d="M1.508.497v23.729c0 .274.222.497.497.497h2.417V0H2.005c-.275 0-.497.223-.497.497z"/>
    <path fill="#fff" d="M7.487 7.643v-4.03c0-.275.223-.497.497-.497h8.05c.275 0 .498.222.498.497v4.03c0 .275-.223.498-.498.498h-8.05c-.274 0-.497-.223-.497-.498z"/>
    <path fill="#EFECEF" d="M2.211 3.417H.804C.36 3.417 0 3.057 0 2.613c0-.444.36-.804.804-.804h1.407c.444 0 .804.36.804.804 0 .444-.36.804-.804.804zM2.211 13.167H.804c-.444 0-.804-.36-.804-.804 0-.444.36-.804.804-.804h1.407c.444 0 .804.36.804.804 0 .444-.36.804-.804.804zM2.211 9.917H.804C.36 9.917 0 9.557 0 9.113c0-.444.36-.804.804-.804h1.407c.444 0 .804.36.804.804 0 .444-.36.804-.804.804zM2.211 6.667H.804C.36 6.667 0 6.307 0 5.863c0-.444.36-.804.804-.804h1.407c.444 0 .804.36.804.804 0 .444-.36.804-.804.804zM2.211 21.306H.804c-.444 0-.804.36-.804.804 0 .445.36.804.804.804h1.407c.444 0 .804-.36.804-.804 0-.444-.36-.804-.804-.804zM2.211 14.807H.804c-.444 0-.804.36-.804.804 0 .444.36.804.804.804h1.407c.444 0 .804-.36.804-.804 0-.444-.36-.804-.804-.804zM2.211 18.056H.804c-.444 0-.804.36-.804.804 0 .445.36.805.804.805h1.407c.444 0 .804-.36.804-.805 0-.444-.36-.803-.804-.803z"/>
    <path fill="#D84C71" d="M14.925 5.096H9.096c-.206 0-.373-.167-.373-.373s.167-.373.373-.373h5.829c.206 0 .373.167.373.373s-.167.373-.373.373zM14.925 6.905H9.096c-.206 0-.373-.167-.373-.373s.167-.373.373-.373h5.829c.206 0 .373.167.373.373s-.167.373-.373.373z"/>
    <path fill="#fff" d="M7.235 21.428H6.23c-.206 0-.373-.167-.373-.373s.167-.373.373-.373h1.005c.207 0 .374.167.374.373s-.167.373-.374.373zM8.24 23.237H6.23c-.206 0-.373-.167-.373-.373s.167-.373.373-.373h2.01c.207 0 .374.167.374.373s-.168.373-.373.373z"/>
</svg>
