<svg xmlns="http://www.w3.org/2000/svg" width="42" height="42" fill="none" viewBox="0 0 42 42">
    <path fill="#3A878B" d="M36.076 34.695h-3.652V42h3.652v-7.305zM15.076 34.695h-3.652V42h3.652v-7.305z"/>
    <path fill="#D84C71" d="M3.652 13.25c0-5.292 4.306-9.598 9.598-9.598V0C5.932 0 0 5.932 0 13.25S5.932 26.5 13.25 26.5v-3.652c-5.292 0-9.598-4.306-9.598-9.598z"/>
    <path fill="#B94171" d="M13.25 0v3.652c5.292 0 9.598 4.306 9.598 9.598 0 5.292-4.306 9.598-9.598 9.598V26.5c7.318 0 13.25-5.932 13.25-13.25S20.568 0 13.25 0z"/>
    <path fill="#fff" d="M3.652 13.25c0 5.292 4.306 9.598 9.598 9.598V17h-1.37v-2.585c-.261-.316-.42-.722-.42-1.165 0-.443.159-.849.42-1.165V6h1.37V3.652c-5.292 0-9.598 4.306-9.598 9.598z"/>
    <path fill="#A7E8EE" d="M14.62 6v6.005c.305.326.493.763.493 1.245 0 .482-.188.919-.493 1.246V17h-1.37v5.848c5.292 0 9.598-4.306 9.598-9.598 0-5.292-4.306-9.598-9.598-9.598V6h1.37z"/>
    <path fill="#7A8589" d="M32.424 28.783h-3.652v3.652h3.652v-3.652z"/>
    <path fill="#516065" d="M32.424 26.26v8.435h3.652V26.26c-.586.141-1.197.218-1.826.218-.63 0-1.24-.077-1.826-.218zM18.728 26.5H13.25v8.196h5.478V26.5z"/>
    <path fill="#7A8589" d="M13.25 26.5H7.77v8.196h5.479V26.5z"/>
    <path fill="#11516D" d="M34.25 0v26.478c.63 0 1.24-.076 1.826-.218C39.474 25.44 42 22.38 42 18.728V7.75C42 3.47 38.53 0 34.25 0z" opacity=".7"/>
    <path fill="#79C5CF" d="M34.25 0c-4.28 0-7.75 3.47-7.75 7.75v10.978c0 3.65 2.526 6.71 5.924 7.532.586.142 1.197.218 1.826.218V0z"/>
    <path fill="#B94171" d="M13.287 11.424c.527 0 1 .225 1.333.581V6h-2.74v6.085c.336-.403.84-.66 1.407-.66zM14.62 14.494c-.333.357-.806.581-1.333.581-.566 0-1.071-.257-1.406-.66v2.584h2.739v-2.505z"/>
    <path fill="#B94171" d="M13.287 15.076c.527 0 1-.225 1.333-.58.305-.327.493-.764.493-1.246s-.188-.919-.493-1.245c-.333-.357-.806-.581-1.333-.581-.566 0-1.071.257-1.406.66-.262.317-.42.723-.42 1.166 0 .443.158.85.42 1.165.335.404.84.661 1.406.661z"/>
</svg>
