<svg xmlns="http://www.w3.org/2000/svg" width="215" height="135" fill="none" viewBox="0 0 215 135">
    <path fill="#EFEAE4" d="M193.201 126.697c-4.949-1.282-12.363-2.071-19.845-2.688-13.107-1.06-27.125-1.677-41.262-1.825v.124H92.691v-5.228c-11.823-.197-23.966-.271-35.722-.222-8.259.025-16.77.173-24.152.912-6.13.617-11.654 1.998-8.951 3.28 2.111.986 8.124 1.356 13.46 1.48 5.338.123 11.148.123 15.404.764 1.267.197 2.415.518 1.757.814-.423.197-1.47.296-2.45.37-15.048 1.159-32.748.665-46.935 2.194-1.875.198-3.75.469-4.611.863-1.96.888 2.314 1.825 6.367 2.368 20.622 2.786 46.126 3.625 70.801 4.216 33.695.839 68.555 1.357 100.983-.665 6.705-.42 13.748-1.012 17.312-2.22 4.087-1.405 2.195-3.255-2.753-4.537z"/>
    <path fill="#547C66" d="M50.968 125.926h144.473c-2.914-1.037-5.704-3.161-7.606-5.186-4.915 4.815-16.67 3.951-20.276-1.457-3.037 3.284-11.261 2.049-12.372-1.853-6.668 1.778-14.917-1.358-16.917-6.421.765 4.372-7.928 6.693-12.892 4.297-4.964-2.395-6.766-7.063-8.372-11.31-1.605-4.248-3.828-8.891-9.113-10.891-6.149-2.322-13.978.246-18.053 4.395-4.075 4.125-5.334 9.41-6.47 14.472-3.705-3.877-12.694-3.902-16.423-.024-1.531 1.58-2.544 3.803-5.087 4.272-4.866.889-6.965-3.433-10.892-3.902-3.926-.469-6.526 2.388-6.526 6.928s6.526 6.68 6.526 6.68z"/>
    <path fill="#6D9C7C" d="M159.928 104.193c-.148 4.446-.766 9.459 1.778 12.818 2.964 3.926 8.619 3.358 12.447 6.174 1.21.889 2.05 1.951 2.667 3.111h5.359c-.42-4.395-2.222-8.964-4.322-10.841-1.877-1.704-4.346-2.519-6.025-4.445-3.013-3.458-2.569-9.089-3.804-13.756-1.975-7.41-8.248-12.25-14.595-15.213 4.742 5.853 6.742 14.126 6.495 22.152z"/>
    <path fill="#547C66" d="M174.524 118.937c1.358 1.606 2.618 4.248 3.705 7.335h6.519c.198-2.346.371-4.396.47-5.779.617-8.075 1.012-16.892-3.754-23.436-2.667-3.655-6.718-6.2-9.014-10.101-1.778-3.013-2.322-6.619-2.421-10.1-.098-3.113.149-6.249.84-9.287.494-2.124 1.383-5.112 2.025-7.68-4.42 5.137-7.952 11.73-10.175 18.127-2.692 7.78-3.26 16.546-.148 24.177 2.593 6.372 7.483 11.484 11.953 16.744z"/>
    <path fill="#A8DAA8" d="M178.944 126.297h7.483c.938-7.385 4.396-14.398 7.977-21.042 3.037-5.606 6.297-11.557 5.803-17.904-.642-8.348-7.483-14.695-13.854-20.128 3.358 5.73 2.272 13.064-.198 19.239-2.47 6.173-6.174 11.829-8.076 18.201-1.827 6.149-1.753 12.792 0 18.966.247.889.544 1.778.865 2.668z"/>
    <path fill="#6D9C7C" d="M187.538 126.297c.494-.444 1.062-.864 1.729-1.235 4.396-2.469 10.471-1.506 14.027-5.112 3.013-3.062 2.717-7.952 2.914-12.249.346-7.755 3.162-15.608 8.792-20.942-7.112 2.444-14.323 6.667-17.015 13.681-1.704 4.421-1.655 9.879-5.211 13.015-1.976 1.754-4.717 2.371-6.915 3.877-2.174 1.507-4.297 5.162-5.261 8.965h6.94z"/>
    <path fill="#FF5941" d="M143.726 94.29l-7.631-2.667c-.296-.098-.667-.098-.963.05-.198.099-.321.247-.371.42l-1.284 4.198c-.049.173-.025.37.099.519.173.222.469.37.815.37l8.224.148c1.457.025 2.272-.716 2.395-1.407.099-.52-.173-1.26-1.284-1.63z"/>
    <path fill="#B1D394" d="M123.772 19.19l-.049-.198h-.198c-.123 0-12.372.568-17.361 8.002-2.618 3.901-2.791 8.989-.543 15.089l.074.222.222-.099c.222-.049 20.646-8.248 17.855-23.017z"/>
    <path fill="#263954" d="M140.294 34.895c-4.223-10.768-4.272-10.792-4.297-10.842-1.013-1.235-2.741-1.457-4.396-.543-1.679.914-3.038 2.914-2.396 4.964.321 1.012 3.063 6.15 4.347 8.545.37.691 1.21.963 1.926.642l5.063-2.248-.247-.518z"/>
    <path fill="#F78C57" d="M140.492 35.44l-4.989 2.124c1.704 3.062 3.951 6.89 4.643 7.804.691.84 8.076 3.062 14.299 3.185 1.358.025 2.494-.074 3.408-.246l.099-.544-14.176-6.026c-.617-.247-1.086-.74-1.333-1.358l-1.951-4.94z"/>
    <path fill="#374D78" d="M192.057 103.427c0 .42-.025.815-.049 1.235 0 .099-.025.197-.025.296l-.025.321c-.024.198-.025.395-.049.593l-.074.445-.05.321-.074.444c-.024.173-.074.346-.099.543l-.049.247c-.025.124-.049.272-.074.396-.049.172-.074.345-.124.543l-.049.222c-.025.148-.074.296-.123.445l-.149.518c-.098.297-.148.494-.197.667-.049.124-.099.272-.124.395l-.024.099c-.074.222-.148.445-.247.667-.025.099-.074.197-.124.296l-.049.099c-.099.247-.198.519-.321.766l-.124.271c-.123.297-.271.568-.395.84l-.074.173c-.148.321-.321.617-.494.913-1.21 2.124-2.667 4.026-4.371 5.656-.049.049-.099.074-.148.123l-.099.099c-.321.297-.642.593-.988.865l-.099.074c-.123.123-.271.222-.395.321-.37.296-.765.592-1.161.864-.197.148-.395.272-.592.395-.297.198-.618.395-.939.593-.247.148-.518.296-.765.444-.321.173-.642.346-.988.519l-.074.049c-.173.075-.321.173-.494.247-.469.223-.939.42-1.383.593-.099.05-.198.074-.296.124l-.124.049c-.444.173-.889.321-1.358.469l-.247.074c-.519.149-1.062.297-1.68.42l-.247.05c-1.16.246-2.37.419-3.58.493h-.099c-.716.05-1.359.05-1.927.05-6.198-.099-12.101-2.519-16.62-6.792-.272-.247-.543-.518-.79-.765-1.655-1.704-3.038-3.631-4.149-5.73l-.05-.098c-.148-.297-.296-.618-.444-.914l-.099-.198c-.124-.271-.247-.568-.37-.839l-.124-.297c-.099-.247-.198-.494-.272-.741l-.049-.099c-.049-.098-.074-.197-.099-.321l-.222-.666-.025-.099c-.049-.148-.074-.272-.123-.42-.05-.173-.099-.346-.148-.543l-.05-.173c-.049-.173-.074-.321-.123-.494-.025-.148-.05-.272-.099-.42l-.049-.198c-.05-.197-.075-.37-.124-.568-.025-.123-.049-.271-.074-.395l-.049-.247c-.025-.172-.05-.37-.075-.543-.024-.148-.024-.272-.049-.42l-.025-.321c-.024-.148-.024-.296-.049-.444-.025-.198-.025-.395-.025-.593l-.024-.296c0-.099-.025-.198-.025-.321-.025-.42-.025-.815 0-1.235 0-.371.025-.766.049-1.136l.025-.247.074-.889.025-.272c.024-.296.074-.593.123-.89l.025-.221c.049-.321.123-.667.198-.988l.024-.124c.173-.765.371-1.506.593-2.247l.049-.148.297-.89.123-.32c.099-.223.173-.47.272-.692.049-.148.123-.271.173-.395.074-.198.173-.395.271-.568.173-.37.371-.74.568-1.136l.074-.148c.124-.222.247-.445.396-.692l.123-.222c.148-.247.296-.47.445-.691 1.111-1.73 2.321-3.186 3.679-4.52 4.47-4.297 10.323-6.767 16.522-6.94.371-.024.766-.024 1.161-.024 3.63.074 7.137.914 10.397 2.494.37.198.716.346 1.037.544.395.222.716.395 1.037.592l.099.05c.321.197.642.395.939.617l.098.05c.321.222.667.469.988.716 1.68 1.284 3.211 2.766 4.495 4.445.272.346.494.642.716.963l.148.222c.173.247.346.519.519.766l.148.222.074.124c.148.222.272.469.42.691l.222.395c.124.223.247.445.371.692l.148.296.049.099c.124.247.223.47.346.716l.148.37c.099.248.223.52.321.766l.124.321c.099.272.197.544.296.84l.099.272c.099.296.173.592.272.889l.074.246c.074.297.173.618.222.914l.049.247c.074.321.124.618.198.939l.049.271c.05.297.099.618.149.914l.024.346c.025.296.074.568.099.864 0 .124.025.223.025.346l.024.346c0 .173.025.345.025.518 0 .346.025.717 0 1.062l-.074.099zm-20.177 19.757l-.074-.321c.445-.099.889-.222 1.358-.37l.272-.099c.346-.124.692-.222 1.037-.371l.148-.049c.075-.025.124-.049.198-.074.37-.148.741-.321 1.087-.469.173-.074.345-.173.543-.272.247-.124.469-.247.691-.37.272-.149.544-.322.815-.47.198-.123.396-.247.568-.37.198-.124.371-.247.568-.395.297-.223.593-.42.865-.667.173-.124.321-.272.494-.42.222-.173.42-.37.617-.568 2.272-2.099 4.05-4.717 5.162-7.582.123-.321.222-.617.321-.889l.049-.123c.099-.272.173-.544.247-.79l.05-.173c.074-.272.148-.519.197-.791l.049-.173c.075-.271.124-.568.173-.839l.025-.148.148-.964c.074-.716.124-1.407.148-2.099 0-.666 0-1.358-.074-2.049l-.024-.272c-.025-.247-.05-.469-.075-.692-.024-.098-.024-.222-.049-.32l-.025-.198-.074-.445c-.024-.148-.049-.32-.098-.469l-.025-.148c-.025-.124-.05-.222-.074-.346-.05-.173-.074-.346-.124-.519l-.024-.123c-.025-.099-.05-.198-.074-.321-.05-.173-.099-.37-.173-.543l-.025-.075c-.025-.098-.074-.222-.099-.32-.049-.173-.123-.346-.197-.544-.075-.197-.099-.296-.149-.395-.074-.173-.148-.346-.197-.519-.074-.197-.124-.296-.173-.42-.074-.148-.148-.32-.222-.469l-.05-.099c-.049-.123-.099-.222-.173-.345-.074-.173-.172-.321-.247-.494l-.049-.074c-.049-.099-.099-.198-.173-.297l-.296-.518-.198-.321c-.123-.198-.271-.395-.395-.593l-.148-.222c-.173-.247-.37-.519-.568-.766-.445-.568-.914-1.086-1.383-1.58-4.149-4.297-9.953-6.545-15.929-6.2-.469.025-.963.075-1.433.15l-.296.048c-1.136.149-2.247.42-3.334.766l-.247.099c-4.396 1.506-8.199 4.495-10.693 8.421-.272.42-.519.84-.741 1.284l-.099.173c-.198.37-.37.741-.543 1.136l-.099.223c-.173.395-.321.79-.469 1.21-.05.148-.099.296-.148.42-.124.345-.223.691-.321 1.062-.05.172-.099.345-.124.493-.074.322-.148.642-.222.988-.025.198-.074.346-.099.494-.074.42-.124.815-.173 1.26l-.049.42c-.025.419-.074.839-.074 1.284v1.037l-.321.074h.321c0 .247.024.469.049.716l.025.297.074.666.024.321c.025.198.05.42.099.618l.05.37c.024.173.074.371.098.544l.099.444c.025.148.074.321.124.469l.049.149c.025.123.074.247.099.345.025.124.074.223.099.346l.024.099c.05.197.124.37.173.543l.124.346c.074.222.148.42.222.617l.099.223c.099.247.197.469.296.716l.05.123c.123.272.246.544.395.791.963 1.827 2.173 3.506 3.63 4.963.617.643 1.309 1.235 2.099 1.828l.247.173c.914.691 1.877 1.309 2.914 1.827l.247.099c4.149 2.05 8.94 2.618 13.484 1.63l.099.247z"/>
    <path fill="#F78C57" d="M164.174 49.195c-.025-.346-.272-.667-.593-.79l-2.025-.717c-.098-.05-.222-.05-.321-.05l-3.062.075c-.445 0-.815.346-.864.765l-.396 2.52.173.098c.025 0 2.223 1.112 4.199-.864l1.234-.173c.075.494.346 1.432 1.087 1.704.049.025.124.025.173.025.123 0 .247-.05.346-.124.148-.099.222-.271.197-.469l-.148-2z"/>
    <path fill="#0959A5" d="M107.053 60.752h-1.976l3.309 6.594 2.1.025-3.433-6.62z"/>
    <path fill="#A3CFF3" d="M113.819 56.48l-9.755-.173c-1.457-.024-2.692 1.136-2.717 2.618-.024 1.457 1.136 2.692 2.618 2.717l9.755.173c1.457.024 2.692-1.136 2.717-2.618.024-1.457-1.136-2.667-2.618-2.717z"/>
    <path fill="#374D78" d="M139.011 99.253l-4.569-.049c-.618 0-1.112-.519-1.112-1.136 0-.617.519-1.111 1.136-1.111l4.569.05c.618 0 1.112.518 1.112 1.135 0 .618-.494 1.111-1.136 1.111zM107.2 103.328c-.642 13.459-12.002 24.178-25.511 23.931-13.83-.247-24.87-11.682-24.622-25.512.247-13.83 11.706-24.869 25.51-24.622 7.632.124 14.695 3.68 19.387 9.755l1.68 2.495c1.901 3.185 3.062 6.668 3.408 10.323l.148 3.63zm-4.47-.198l-.049-.222-.099-3.334c-.321-2.716-1.186-5.285-2.569-7.68l-.148-.148-1.877-2.742c-3.828-4.667-9.458-7.384-15.484-7.483-11.36-.197-20.77 8.89-20.992 20.251-.198 11.36 8.89 20.77 20.25 20.992 11.09.222 20.449-8.57 20.968-19.634z"/>
    <path fill="#6D443B" d="M140.27 56.504c-2.346-4.544-12.546-3.951-13.657-3.877l-12.151.198-1.136 10.125 12.793-.05 5.581-.172c.914-.025 1.704.691 1.729 1.605.642 14.151-1.309 21.486-1.186 24.77l7.656-.37c.05-4.816 2.618-27.882.371-32.229z"/>
    <path fill="#FFB288" d="M134.464 88.93v1.754c.099 2.247 1.21 3.309 2.248 3.309.864-.025 1.852-.815 1.852-2.964 0-.296.123-1.975.123-2.272l-4.223.173z"/>
    <path fill="#FFC973" d="M158.469 66.605l-31.389 34.13-20.251-.543-.494.025.124 3.383 21.93.494 13.756-14.521c.074-.099.148-.198.197-.272l17.065-18.547-.938-4.149z"/>
    <path fill="#EDE5DA" d="M161.164 77.423l4.223 19.288 2.667-.692-4.1-19.139-2.79.543z"/>
    <path fill="#374D78" d="M168.621 95.797l-3.779.939.963 4.445 3.779-.938-.963-4.446z"/>
    <path fill="#FFC973" d="M115.746 77.965l2.001 3.902 28.45-1.186 3.63-3.976-34.081 1.26z"/>
    <path fill="#FFC973" d="M108.311 70.236L89.394 99.995l18.498.247 1.136 3.408-20.523-.272c-.642 2.593-2.988 4.396-5.655 4.347-3.161-.05-5.68-2.668-5.631-5.829.05-3.16 2.667-5.68 5.828-5.63 1.186.024 2.322.42 3.31 1.136l.098-.05 20.128-30.82-.124-.272c-.099-.173-.074-.395.025-.568.099-.173.296-.272.494-.272l3.285-.074 17.904 36.871-3.433 1.853-16.423-33.834zM85.443 97.97c-.025-.05-.074-.074-.099-.1-.198-.123-.444-.049-.543.124l-.37.618 1.012-.642zm.025 5.877l1.061.642c.1.05.198.075.297.05.099-.025.197-.099.247-.173.123-.198.05-.42-.148-.543l-.815-.494h-.297c-.099.173-.222.37-.346.518zm-4.322.544l-.692 1.16c-.123.198-.05.42.148.544.1.049.198.074.297.049.099-.025.197-.099.247-.173l.716-1.185c-.272-.099-.519-.222-.716-.395zm-1.334-2.618v-.173l-1.235-.025c-.222 0-.395.173-.395.395 0 .223.173.396.395.396l1.285.024c-.025-.197-.05-.42-.05-.617zm1.828-2.816l-.519-.938c-.05-.099-.148-.148-.247-.198-.099-.024-.197-.024-.296.025-.198.099-.272.346-.148.543l.543.988c.197-.148.444-.296.667-.42zm-2.668 1.186l1.038.617c.098-.247.222-.494.37-.716l-.988-.593c-.197-.123-.42-.049-.543.124-.124.222-.05.469.123.568zm-.123 4.198c.099.198.346.272.543.148l1.186-.642c-.173-.197-.321-.444-.42-.666l-1.136.642c-.223.098-.297.345-.173.518zm4.495-6.717c0-.222-.173-.395-.395-.395-.223 0-.396.173-.396.395l-.024 1.062c.296-.05.543-.05.79-.025l.025-1.037zm-.79 8.693c0 .222.172.395.394.395.1 0 .198-.049.272-.099.074-.074.124-.173.124-.271l.024-1.359c-.271.025-.543.025-.79 0l-.025 1.334zm2.79-.222c.099-.05.148-.148.198-.247.024-.099.024-.198-.025-.297l-.642-1.136c-.222.149-.445.272-.692.371l.642 1.161c.075.197.321.246.519.148z"/>
    <path fill="#EDE5DA" d="M157.803 51.022l3.531 17.608c.099.543-.197 1.087-.667 1.186l-.098.024c-.47.099-.939-.247-1.038-.79l-3.63-18.053 1.902.025z"/>
    <path fill="#EDE5DA" d="M162.915 51.196l-7.853-.148c-.395 0-.716-.346-.716-.741s.345-.716.741-.716l7.853.148c.395 0 .716.346.716.74 0 .42-.346.742-.741.717zM170.967 102.242c-.025 1.704-1.433 3.063-3.137 3.013-1.704-.024-3.062-1.432-3.013-3.136.025-1.704 1.433-3.063 3.137-3.013 1.704.025 3.037 1.432 3.013 3.136z"/>
    <path fill="#374D78" d="M133.378 103.971c-.049 3.26-2.741 5.853-6.001 5.803-3.26-.049-5.853-2.741-5.803-6.001.049-3.26 2.741-5.853 6.001-5.803 3.26.049 5.853 2.741 5.803 6.001z"/>
    <path fill="#fff" d="M128.364 99.699c0 .494-.419.914-.938.889-.494 0-.914-.42-.889-.938 0-.495.42-.914.938-.89.494.025.914.445.889.939zM124.339 101.008c.445.272.568.815.321 1.26-.247.444-.815.568-1.259.321-.445-.272-.568-.815-.321-1.26.247-.444.815-.592 1.259-.321zM123.425 105.156c.445-.247.988-.074 1.235.346.247.444.074.988-.346 1.235-.444.247-.988.074-1.235-.346-.247-.445-.098-.988.346-1.235zM126.56 107.996c0-.494.42-.914.939-.889.494 0 .914.42.889.938 0 .494-.42.914-.939.889-.493 0-.889-.419-.889-.938zM130.611 106.713c-.444-.272-.568-.815-.321-1.26.272-.444.815-.568 1.26-.321.444.272.568.815.321 1.26-.272.444-.815.568-1.26.321zM131.525 102.564c-.445.247-.988.074-1.235-.345-.247-.445-.074-.988.346-1.235.444-.247.988-.074 1.235.346.247.419.074.987-.346 1.234z"/>
    <path fill="#fff" d="M128.043 103.032c-.518-.469-1.358-.445-1.827.099l-9.977 11.014c-.173.173-.247.395-.297.642.865.198 1.63.544 2.297.988l9.878-10.891c.494-.543.445-1.358-.074-1.852z"/>
    <path fill="#374D78" d="M118.464 116.838l-4.075-2.025c-.568-.271-.79-.963-.519-1.506.272-.568.963-.79 1.507-.519l4.075 2.025c.568.272.79.963.518 1.507-.271.568-.938.79-1.506.518z"/>
    <path fill="#FF5941" d="M119.45 111.652l-5.705-5.729c-.223-.223-.568-.371-.889-.371-.223 0-.396.074-.519.223l-2.988 3.235c-.124.148-.173.321-.148.518.049.272.271.544.568.692l7.334 3.729c.494.247.964.37 1.383.37.642 0 1.136-.247 1.408-.592.321-.469.37-1.235-.444-2.075z"/>
    <path fill="#936052" d="M137.43 80.262c-3.507 7.434-7.532 14.99-18.003 25.882l-.494.518-5.508-3.803c-.716-.494-.889-1.506-.345-2.198 2.938-3.828 11.632-15.287 13.879-20.053 1.012-2.149-.494-4.322-2.247-5.927-19.412-17.707-21.634-12.67-22.474-20.498 1.63.148 3.186 1.531 7.755-.914 1.284-.691 2.025-1.087 2.543-1.235l.05-.197.765.123c.494.099.963-.024 1.284-.32l.544-.52.667.346c7.507 4.001 14.052 9.681 18.942 16.399 2.296 3.136 5.161 7.087 2.642 12.397z"/>
    <path fill="#FFB288" d="M114.337 103.304c-.098.099-.197.198-.271.297-2.223 2.272-2.692 4.568-1.852 5.408.197.198.493.321.815.321.864 0 1.951-.642 3.111-1.778.593-.593 1.161-1.185 1.729-1.753l-3.532-2.495z"/>
    <path fill="#374D78" d="M136.096 24.648c-.272-1.112-.593-2.198-1.408-3.236-.42-.518-.864-1.037-1.334-1.53l-.074-.05c-5.112-2.396-8.471-2.1-13.237 1.235-4.297 2.988-8.594 10.718-12.743 18.2-1.679 3.014-3.408 6.125-5.088 8.842-1.185 1.926-1.432 4.248-.666 6.372.765 2.123 2.42 3.729 4.544 4.445 1.58.519 6.52-.222 7.236-.37 2.667-.52 9.063-2.964 9.829-5.532 3.112-10.299 8.298-9.459 11.508-16.028 2.618-5.285 2.149-9.459 1.433-12.348z"/>
    <path fill="#FFB288" d="M151.653 51.492c1.581.172 3.063-.223 3.853-1.507l1.309-.518c.222.518.741 1.481 1.655 1.58.197.025.419-.074.543-.222.123-.148.173-.37.099-.568l-.667-2.075c-.148-.444-.544-.765-.988-.815l-2.223-.247c-.197-.024-.395 0-.568.075l-3.358 1.358c-.47.197-.766.642-.741 1.136l.024.667c.05.592.494 1.086 1.062 1.136z"/>
    <path fill="#FFB288" d="M132.564 41.318l-1.852-4.668-5.976 2.593c1.901 3.112 3.778 5.63 4.494 6.594 1.556 2.124 14.275 4.495 22.227 5.581l-.074-2.494-18.819-7.606z"/>
    <path fill="#FFC973" d="M166.767 85.672l-5.581-24.671c-.198-.89-1.037-1.482-1.951-1.359l-.84.124c-.469.074-.914.345-1.185.74-.272.396-.371.89-.272 1.384l5.31 24.795c.222 1.086 1.185 1.827 2.247 1.827.173 0 .346-.025.519-.05.617-.123 1.136-.493 1.481-1.012.297-.543.42-1.185.272-1.778z"/>
    <path fill="#B1D394" d="M108.683 36.821c-.148 0-.296-.123-.321-.271-.024-.173.099-.346.272-.37 15.139-2.298 19.016-5.977 19.584-8.67.84-3.975-5.433-8.05-5.482-8.075-.149-.099 0-.099.098-.247.099-.148.494-.173.667-.074.247.173 6.322 4.124 5.384 8.52-.889 4.199-7.656 7.26-20.103 9.163-.074 0-.074.024-.099.024z"/>
    <path fill="#374D78" d="M156.446 50.258c0 .592-.518 1.086-1.111 1.061-.593 0-1.087-.518-1.062-1.11 0-.594.519-1.088 1.111-1.063.593.025 1.087.519 1.062 1.111z"/>
    <path fill="#FFB288" d="M132.119 19.313c1.655 1.457 2.84 3.803 1.976 4.791-.864.988-3.433.223-5.112-1.21-1.655-1.457-2.297-3.408-1.457-4.42.889-.988 2.939-.618 4.593.84z"/>
    <path fill="#374D78" d="M130.638 36.45c-4.371-10.989-5.186-13.261-5.186-13.261 0-.025-.123-.123-.123-.123-4.125-3.804-9.953.987-7.409 5.482 0 .618 3.753 7.434 5.26 10.126.321.592 1.062.84 1.679.568l5.878-2.544-.099-.247z"/>
    <path fill="#263954" d="M124.389 39.637c.197 0 .42-.05.617-.124l6.051-2.642-.149-.395c-3.976-9.978-4.988-12.719-5.161-13.188l-.395.148c.173.445 1.185 3.21 5.161 13.188.025.024-5.68 2.519-5.68 2.519-.518.222-1.136.024-1.407-.47-2.1-3.729-5.187-9.483-5.236-10.026h-.42c0 .815 5.211 10.125 5.285 10.224.272.494.79.766 1.334.766z"/>
    <path fill="#FFB288" d="M132.984 10.768c-3.41 0-6.174-2.41-6.174-5.384S129.574 0 132.984 0c3.41 0 6.174 2.41 6.174 5.384 0 2.973-2.764 5.384-6.174 5.384z"/>
    <path fill="#F78C57" d="M140.813 9.68l-1.037-2.42-.79 3.655 1.407-.395c.371-.074.568-.494.42-.84z"/>
    <path fill="#FFB288" d="M129.873 12.472c0-.025-2.198 8.026-2.198 8.026-.124.494.148.89.642.89l3.556.024c.494 0 .988-.395 1.136-.889l1.383-5.137c.074 0-3.679-3.926-3.679-3.926l-.84 1.012z"/>
    <path fill="#FFB288" d="M139.405 4.717c-.321-.864-.741-1.827-1.433-2.42l-2.692 1.58c-2.864 1.853-3.185 3.557-3.185 3.557-.05.025-.124 0-.173 0-.766 0-1.359.74-1.383 1.63 0 .667.321 1.26.815 1.506l-.371.667-.642 1.087 4.791 3.926c2.569-.222 4.618-2.47 4.618-5.26l.025-4.297c.025-.716-.123-1.383-.37-1.976z"/>
    <path fill="#EDE5DA" d="M132.07 7.087l-.149 3.902c-.049 1.284.272 2.692 1.161 3.63.445.47 1.482 1.26 2.025 1.606.469.271 1.111.345 2.173.271 1.013-.049 2.174-1.136 2.347-2.123l.172-3.655s-.963.222-1.728.197c-1.803-.025-3.507-.766-4.05-2.47l-1.062-3.408-.889 2.05z"/>
    <path fill="#fff" d="M137.355 11.681c.025.346.148.766.716.89 0 0 .815.147.741-.668l-1.457-.222z"/>
    <path fill="#EDE5DA" d="M138.394 6.051h-1.186c-.173 0-.321.149-.321.322 0 .172.148.32.321.32h1.186c.172 0 .321-.148.321-.32 0-.173-.149-.322-.321-.322zM135.972 2.05c-.024-.717-.568-1.285-1.284-1.334-3.482-.222-11.286 1.136-6.47 10.644.395.79.913 1.432 1.556 1.926 1.753-1.26 1.629-2.716 1.629-2.716-.493-.247-.839-.84-.839-1.531 0-.914.617-1.63 1.383-1.63.049 0 .123.024.173.049.247-1.334 2.222-3.087 3.457-3.73.222-.468.42-.74.395-1.678z"/>
    <path fill="#F78C57" d="M139.381 4.742h-1.852c-.099 0-.173-.074-.173-.173 0-.099.074-.173.173-.173h1.852c.099 0 .173.074.173.173 0 .099-.074.173-.173.173zM138.962 3.902h-2.371c-.099 0-.173-.074-.173-.173 0-.099.074-.173.173-.173h2.371c.098 0 .172.074.172.173 0 .099-.074.173-.172.173z"/>
    <path fill="#693523" d="M138.517 7.384c0 .322-.173.568-.371.568-.197 0-.37-.246-.37-.568 0-.32.173-.568.37-.568.198 0 .371.247.371.568z"/>
    <path fill="#EDE5DA" d="M126.291 4.593c-.469.592-.889 1.309-.741 2.05.074.296.223.568.272.889.049.494-.247.963-.494 1.407-.247.445-.445 1.013-.173 1.433.247.42.815.543 1.111.914.42.568.173 1.58.791 1.926.271.148.592.098.839.296.321.247.297.79.593 1.062.247.222.617.198.889.025.272-.173.469-.445.618-.716.296-.544.494-1.161.345-1.754-.173-.691-.815-1.16-1.234-1.729-.692-.913-.84-2.247-.223-3.21.198-.321.469-.568.692-.89.222-.296.37-.69.321-1.036-.05-.346-.297-.593-.469-.89-.173-.296-.297-.666-.149-.963.074-.148.223-.247.297-.37.197-.395-.124-.741-.494-.79-.371-.05-.544.123-.815.345-.716.568-1.383 1.26-1.976 2z"/>
</svg>
