<svg xmlns="http://www.w3.org/2000/svg" width="197" height="125" fill="none" viewBox="0 0 197 125">
    <mask id="pbg5vojmba" width="197" height="125" x="0" y="0" maskUnits="userSpaceOnUse">
        <rect width="197" height="124" y=".938" fill="#fff" rx="3"/>
    </mask>
    <g mask="url(#pbg5vojmba)">
        <rect width="197" height="124" y=".938" fill="#EDF6F9" rx="3"/>
        <path fill="#FF9985" d="M139.132 33.127c-2.914-2.314-4.058-2.582 25.595-25.073 22.516-17.075 23.788-21.99 32.238-20.342 6.457 1.26 6.972 8.446 5.255 10.465-10.694 12.54-42.384 26.56-53.085 32.03-6.788 3.475-9.57 3.267-10.003 2.92zM134.16 18.055c-.617.543-.725 1.388-.243 1.876l4.361 4.404c.481.488 1.382.439 2-.105.618-.543.725-1.388.243-1.876l-4.361-4.404c-.481-.487-1.382-.439-2 .105z"/>
        <path fill="#FF9985" d="M131.673 33.753c-1.036-.34-2.025-.787-2.46-1.489-.339-.548-.314-1.19-.241-1.819.185-1.625.646-3.27 1.378-4.905.665-1.493 1.863-3.194 4.123-3.822 2.181-.609 4.307-.225 5.841.624 2.918 1.605 3.932 2.208 4.822 4.737 1.114 3.166-.327 5.926-5.693 6.478-2.77.282-5.521.935-7.77.196z"/>
        <path fill="#FF9985" d="M134.316 23.962l-10.478 1.222c-.711.085-1.232-.39-1.16-1.05.072-.66.711-1.264 1.422-1.35l10.478-1.22c.711-.086 1.232.389 1.16 1.05-.071.66-.711 1.263-1.422 1.348zM132.906 27.318l-10.478 1.222c-.711.085-1.232-.39-1.16-1.05.072-.661.711-1.264 1.422-1.35l10.478-1.221c.711-.085 1.232.39 1.161 1.044-.073.666-.713 1.276-1.423 1.355zM133.953 30.76l-10.478 1.22c-.711.086-1.232-.389-1.16-1.05.071-.66.711-1.263 1.422-1.348l10.478-1.222c.711-.085 1.232.39 1.16 1.05-.072.66-.711 1.264-1.422 1.35zM136.277 33.243l-10.478 1.222c-.711.085-1.232-.39-1.16-1.05.072-.66.711-1.264 1.422-1.349l10.478-1.222c.711-.085 1.232.39 1.16 1.05-.072.661-.711 1.264-1.422 1.35z"/>
        <path fill="#FF9985" d="M125.91 30.714c-.748.48-1.008 1.373-.571 1.972l3.949 5.437c.437.6 1.411.7 2.159.22.749-.48 1.008-1.372.571-1.972l-3.949-5.436c-.436-.61-1.406-.705-2.159-.22z"/>
        <path fill="#486670" fill-rule="evenodd" d="M131.555 28.77l-3.696-.99.745-2.78.199-.743-.594-.16-6.155-1.649-.595-.16-.199.744-.745 2.78-4.966-1.33.745-2.78.2-.744-.595-.16-6.155-1.648-.595-.16-.199.744-.745 2.78-3.101-.83-.595-.16-.199.743-5.112 19.076-.199.744.595.16 26.451 7.087 5.51-20.563z" clip-rule="evenodd"/>
        <path fill="#FF9985" d="M130.298 50.017c-2.99-3.22-4.276-3.744 34.367-24.675 29.338-15.893 31.701-21.403 41.268-17.963 7.308 2.625 6.624 11.11 4.255 13.153-14.726 12.72-54.222 23.4-67.688 27.864-8.547 2.838-11.752 2.101-12.202 1.62z"/>
        <path fill="#FF9985" d="M121.479 49.41c-1.145-.58-2.222-1.28-2.608-2.18-.298-.695-.152-1.448.047-2.17.507-1.866 1.343-3.706 2.483-5.473 1.051-1.626 2.75-3.388 5.499-3.722 2.661-.319 5.066.507 6.708 1.772 3.115 2.394 4.197 3.278 4.778 6.388.732 3.9-1.438 6.854-7.805 6.54-3.278-.162-6.608.105-9.102-1.155z"/>
        <path fill="#FF9985" d="M126.3 38.447l-12.447-.455c-.847-.032-1.365-.675-1.166-1.427.204-.758 1.056-1.35 1.903-1.318l12.447.455c.847.031 1.365.674 1.166 1.427-.199.753-1.056 1.349-1.903 1.318zM124.073 42.126l-12.447-.455c-.847-.03-1.364-.674-1.165-1.427.203-.758 1.056-1.349 1.902-1.317l12.448.455c.846.031 1.364.674 1.165 1.427-.204.747-1.061 1.343-1.903 1.317zM124.687 46.33l-12.447-.456c-.847-.03-1.365-.674-1.166-1.427.204-.758 1.056-1.348 1.903-1.317l12.447.455c.847.031 1.364.674 1.166 1.427-.199.753-1.056 1.349-1.903 1.317zM126.929 49.638l-12.447-.455c-.847-.031-1.365-.674-1.166-1.427.204-.758 1.056-1.349 1.903-1.317l12.447.454c.847.032 1.364.675 1.166 1.428-.204.747-1.061 1.343-1.903 1.317z"/>
        <path fill="#FFBB61" fill-rule="evenodd" d="M133.996 104.707h-3.826v-3.648H122.567v3.648h-5.141v-3.648h-7.603v3.648H102.17v-3.648H94.566v3.648h-5.14v-3.648H81.822v3.648h-3.826v21.288h84.001V104.707h-3.827v-3.648H150.567v3.648h-5.141v-3.648H137.823v3.648h-3.827z" clip-rule="evenodd"/>
        <path fill="#A6CE39" fill-rule="evenodd" d="M134 83.422h-3.826v-3.649H122.57v3.649h-5.14v-3.649H109.826v3.649H106v21.288h28V83.422z" clip-rule="evenodd"/>
        <path fill="#00AEEF" fill-rule="evenodd" d="M78 104.707h-3.826v-3.648H66.57v3.648h-5.14v-3.648h-7.603v3.648H46.174v-3.648H38.57v3.648h-5.14v-3.648H25.826v3.648H22v21.288h56v-21.288z" clip-rule="evenodd"/>
        <path fill="#00A651" fill-rule="evenodd" d="M106 83.422h-3.826v-3.649H94.57v3.649h-5.14v-3.649h-7.603v3.649H74.173v-3.649H66.57v3.649h-5.14v-3.649H53.826v3.649H50v21.288h56V83.422z" clip-rule="evenodd"/>
        <path fill="#00984A" fill-rule="evenodd" d="M81.828 104.707h7.604v-3.648H81.828v3.648zm12.744 0h7.604v-3.648H94.572v3.648z" clip-rule="evenodd"/>
        <path fill="#ED1C24" fill-rule="evenodd" d="M92.035 62.133H88.21v-3.649h-7.603v3.649h-5.141v-3.649H67.861v3.649h-3.826V83.42h28V62.133z" clip-rule="evenodd"/>
        <path fill="#DA2128" fill-rule="evenodd" d="M66.57 83.422h7.604v-3.649H66.57v3.649zm15.256 0h7.604v-3.649H81.826v3.649z" clip-rule="evenodd"/>
        <path fill="#00984A" fill-rule="evenodd" d="M74.176 104.707v-3.648H66.572v3.648h7.604zm-12.744 0v-3.648H53.828v3.648h7.604z" clip-rule="evenodd"/>
        <path fill="#8DC63F" fill-rule="evenodd" d="M130.176 104.707v-3.648H122.572v3.648h7.604zm-12.744 0v-3.648H109.828v3.648h7.604z" clip-rule="evenodd"/>
    </g>
</svg>
