<svg xmlns="http://www.w3.org/2000/svg" width="14" height="11" fill="none" viewBox="0 0 14 11">
    <path fill="#D8F0F2" d="M10.903 4.025c-1.71 0-3.097 1.386-3.097 3.097 0 1.71 1.386 3.097 3.097 3.097 1.71 0 3.097-1.387 3.097-3.097s-1.386-3.097-3.097-3.097z"/>
    <path stroke="#D8F0F2" stroke-linecap="round" stroke-miterlimit="7.547" stroke-width="2" d="M8.594 7.476S7.214 2.08 12.54 1.005"/>
    <path fill="#D8F0F2" d="M3.474 4.025C1.764 4.025.377 5.41.377 7.122c0 1.71 1.387 3.097 3.097 3.097s3.097-1.387 3.097-3.097-1.386-3.097-3.097-3.097z"/>
    <path stroke="#D8F0F2" stroke-linecap="round" stroke-miterlimit="7.547" stroke-width="2" d="M1.165 7.476S-.215 2.08 5.112 1.005"/>
</svg>
