<svg xmlns="http://www.w3.org/2000/svg" width="76" height="72" fill="none" viewBox="0 0 76 72">
    <path fill="#0C0C0C" d="M38.5 71.432c19.606 0 35.5-3.134 35.5-7s-15.894-7-35.5-7-35.5 3.134-35.5 7 15.894 7 35.5 7z" opacity=".05"/>
    <path fill="#FFD633" stroke="#FDC00F" stroke-miterlimit="10" stroke-width="5" d="M65.077 28.932c0 14.597-12.123 26.432-27.078 26.432-14.954 0-27.077-11.835-27.077-26.432C10.922 14.335 23.045 2.5 37.999 2.5c14.955 0 27.078 11.835 27.078 26.432z"/>
    <path stroke="#FDC00F" stroke-dasharray="2.12 2.12" stroke-linecap="round" stroke-linejoin="round" stroke-width="2.14" d="M61.813 28.933c0 12.84-10.663 23.25-23.818 23.25-13.154 0-23.813-10.41-23.813-23.25S24.845 5.682 37.995 5.682c13.16.004 23.818 10.41 23.818 23.25z"/>
    <path stroke="#FDC00F" stroke-miterlimit="10" stroke-width="2" d="M56.08 28.931c0 9.749-8.094 17.65-18.08 17.65-9.985 0-18.08-7.901-18.08-17.65 0-9.748 8.095-17.65 18.08-17.65 9.986 0 18.08 7.906 18.08 17.65z"/>
    <path fill="#F9B233" d="M54.245 28.933c0 8.76-7.274 15.858-16.245 15.858-8.972 0-16.246-7.102-16.246-15.858 0-8.761 7.274-15.859 16.246-15.859 8.97 0 16.245 7.102 16.245 15.859z"/>
    <path fill="#FFD633" d="M31.438 38.594l1.303-7.46-5.47-5.294 7.569-1.078 3.393-6.79 3.376 6.799 7.564 1.099-5.483 5.276 1.282 7.47-6.76-3.536-6.774 3.514z"/>
    <path fill="#B84370" d="M3.838 55.684L0 49.938h15.162V61.43H0l3.838-5.746zM72.162 55.684L76 49.938H60.838V61.43H76l-3.838-5.746z"/>
    <path fill="#D84C71" d="M66.495 52.975H9.508v11.493h56.987V52.975z"/>
</svg>
