<svg xmlns="http://www.w3.org/2000/svg" width="40" height="40" fill="none" viewBox="0 0 40 40">
    <path fill="#53D0EF" d="M20 40c11.046 0 20-8.954 20-20S31.046 0 20 0 0 8.954 0 20s8.954 20 20 20z"/>
    <path fill="#7FB241" d="M20.026 13.19c-3.737.33-6.492-2.427-6.163-6.163 3.737-.33 6.492 2.426 6.163 6.162z"/>
    <path fill="#8E6D53" d="M20.169 15.793c-.322-.08-.576-.353-.614-.703-.177-1.6.28-3.174 1.287-4.43 1.008-1.256 2.444-2.046 4.044-2.222.449-.048.852.275.9.723.05.448-.273.851-.722.901-1.166.129-2.213.703-2.947 1.62-.734.915-1.067 2.061-.94 3.228.05.45-.273.852-.722.902-.099.012-.195.004-.286-.019z"/>
    <path fill="#E14B4B" d="M26.223 13.18c-.892-.237-1.813-.188-2.718.103-2.323.75-4.794.75-7.118 0-.904-.291-1.826-.34-2.717-.103-3.559.948-5.276 6.096-3.836 11.5 1.44 5.402 5.49 9.012 9.05 8.064.004 0 .007-.001.011-.003.692-.187 1.412-.187 2.103 0l.012.003c3.558.948 7.61-2.663 9.05-8.065 1.438-5.403-.28-10.55-3.837-11.499z"/>
    <path fill="#D03F3F" d="M30.059 24.677c-1.44 5.402-5.493 9.012-9.053 8.066h-.008c-.69-.189-1.415-.189-2.105 0h-.008c-1.34.354-2.747.066-4.054-.715 6.98-2.697 12.21-9.505 13.304-17.801 2.211 1.981 3.075 6.133 1.924 10.45z"/>
</svg>
