<svg xmlns="http://www.w3.org/2000/svg" width="71" height="73" fill="none" viewBox="0 0 71 73">
    <path fill="#CFEFFA" d="M35.479 73c19.594 0 35.478-15.884 35.478-35.479 0-19.594-15.884-35.478-35.478-35.478C15.884 2.043 0 17.927 0 37.52 0 57.116 15.884 73 35.479 73z"/>
    <path fill="#743931" d="M35.544 0h-.902v23.264h.902V0z"/>
    <path fill="#B94171" d="M35.506.977s8.342-.848 7.772.768c-.57 1.615 5.314 1.77 8.102.996 0 0-.62 2.477-1.239 5.884-.62 3.406-10.065 1.393-9.29 0 .774-1.394-5.305-.774-5.305-.774l-.04-6.874z"/>
    <mask id="prefix__a" width="71" height="71" x="0" y="2" maskUnits="userSpaceOnUse">
        <path fill="#CFEFFA" d="M35.479 73c19.594 0 35.478-15.884 35.478-35.479 0-19.594-15.884-35.478-35.478-35.478C15.884 2.043 0 17.927 0 37.52 0 57.116 15.884 73 35.479 73z"/>
    </mask>
    <g mask="url(#prefix__a)">
        <path fill="#FFD633" d="M53.581 38.005L33.295 78.284h40.572L53.581 38.005z"/>
        <path fill="#FDC00F" d="M73.866 78.284L53.58 38.005v40.279h20.286z"/>
        <path fill="#F0CB6D" d="M35.173 18.605v58.22H59.82l-24.647-58.22z"/>
        <path fill="#FFD633" d="M15.192 34.55L-5.095 74.826h40.573L15.192 34.549z"/>
        <path fill="#F9B233" d="M35.478 74.828L15.192 34.55v40.28h20.286z"/>
        <path fill="#FFD633" d="M35.106 18.446L10.393 76.825h24.78v-58.22l-.067-.159z"/>
        <path fill="#FDC00F" d="M35.173 18.605v58.22H59.82l-24.647-58.22z"/>
    </g>
</svg>
