<svg xmlns="http://www.w3.org/2000/svg" width="46" height="46" fill="none" viewBox="0 0 46 46">
    <path fill="#517E91" d="M27.87 1.27c-3.195-.803-6.539-.803-9.734 0-2.735.687-5.043 2.66-6.376 5.436-.181.375-.342.85-.482 1.352-.48 1.718-.63 3.511-.48 5.288l.931 11.076c.37 4.4 4.05 7.784 8.467 7.784h5.615c4.417 0 8.097-3.383 8.467-7.784l.932-11.076c.15-1.777 0-3.57-.48-5.288-.14-.501-.302-.977-.482-1.352-1.334-2.776-3.642-4.75-6.377-5.436z"/>
    <path fill="#516065" d="M26.62 32.165c-.267.025-.537.038-.81.038h-5.615c-.274 0-.544-.013-.812-.038l.578-2.548h6.083l.577 2.548z"/>
    <path fill="#A7E8EE" d="M31.023 19.867H14.99c-.288 0-.52-.233-.52-.52V7.712c0-.288.232-.52.52-.52h16.034c.288 0 .52.232.52.52v11.634c0 .288-.232.521-.52.521z"/>
    <path fill="#7A8589" d="M31.544 7.712v.035H15.545c-.287 0-.52.233-.52.52v11.601h-.035c-.288 0-.521-.233-.521-.521V7.712c0-.287.233-.52.52-.52h16.035c.286 0 .52.233.52.52z" opacity=".11"/>
    <path fill="#E5E5E5" d="M24.563 29.617h-3.114v14.086l.54.89h1.844l.73-.89V29.617z"/>
    <path fill="#7A8589" d="M24.563 29.625h-3.114v1.228h3.114v-1.228z" opacity=".11"/>
    <path fill="#D84C71" d="M23.554 40h-1.097v4.597h1.097V40z"/>
    <path fill="#79C5CF" d="M19.426 27.357h-3.128c-.434 0-.786-.352-.786-.786v-3.128c0-.435.352-.787.786-.787h3.128c.435 0 .787.352.787.787v3.128c0 .435-.352.786-.787.786zM29.704 27.357h-3.128c-.435 0-.787-.352-.787-.786v-3.128c0-.435.352-.787.787-.787h3.128c.434 0 .786.352.786.787v3.128c0 .435-.352.786-.786.786z"/>
    <path fill="#fff" d="M19.369 24.337l-1.342 1.828c-.08.108-.242.108-.322 0l-1.342-1.828c-.096-.131-.003-.317.162-.317h2.683c.163 0 .257.186.16.317zM29.507 25.08c.006-.557-.32-1.038-.792-1.257-.022-.01-.046.006-.046.03v.383c0 .015.007.028.019.036.28.195.453.533.41.91-.052.438-.41.794-.849.843-.583.064-1.075-.39-1.075-.96 0-.328.165-.619.416-.793.011-.008.019-.021.019-.036v-.383c0-.024-.025-.04-.046-.03-.469.218-.793.692-.793 1.242 0 .778.648 1.404 1.433 1.367.716-.032 1.297-.635 1.304-1.353z"/>
    <path fill="#fff" d="M27.966 23.586h.336c.033 0 .06.027.06.06v.758c0 .034-.027.06-.06.06h-.336c-.033 0-.06-.026-.06-.06v-.759c0-.032.028-.06.06-.06z"/>
    <path fill="#D84C71" d="M29.512 9.536c0-.392.721-1.423.721-1.423s.722 1.03.722 1.423-.323.711-.721.711c-.4 0-.722-.318-.722-.71z"/>
    <path fill="#B94171" d="M30.959 9.538c0 .392-.324.71-.722.71-.32 0-.592-.205-.686-.489.132.166.337.273.568.273.399 0 .722-.318.722-.711 0-.134-.085-.343-.195-.56.163.287.313.598.313.777z"/>
    <path fill="#071E26" d="M17.775 13.967l.552-.52.127-1.975-.972-1.038-.193 3.014.486.52zM21.126 13.959l-.477-.59.142-1.974 1.104-.898-.217 3.013-.552.449zM17.68 10.246l.971 1.04h1.976l1.106-1.04H17.68zM20.257 16.895H18.28l-1.105 1.039h4.053l-.972-1.04zM18.236 14.734l-.486-.52-.552.52-.194 3.015 1.105-1.039.127-1.976zM21.137 14.215l-.553.52-.127 1.975.972 1.039.193-3.015-.485-.52zM24.685 13.967l.553-.52.127-1.975-.973-1.038-.193 3.014.486.52zM28.036 13.959l-.477-.59.142-1.974 1.104-.898-.217 3.013-.552.449zM24.59 10.246l.971 1.04h1.976l1.106-1.04H24.59zM27.167 16.895h-1.976l-1.105 1.039h4.053l-.972-1.04zM25.146 14.734l-.486-.52-.552.52-.194 3.015 1.105-1.039.127-1.976zM28.047 14.215l-.553.52-.127 1.975.973 1.039.193-3.015-.486-.52zM23.255 16.895l-.067 1.038h-1.032l.067-1.038h1.032z"/>
</svg>
