<svg xmlns="http://www.w3.org/2000/svg" width="43" height="43" fill="none" viewBox="0 0 43 43">
    <path fill="#79C5CF" d="M12.603 3.676H4.45C1.99 3.676 0 5.666 0 8.123V38.52c0 2.458 1.991 4.449 4.449 4.449H38.55c2.458 0 4.449-1.991 4.449-4.449V8.123c0-2.456-1.991-4.448-4.449-4.448H12.603z"/>
    <path fill="#516065" d="M38.55 3.675h-1.742c-4.233 11.81-12.433 28.439-27.282 39.292H38.55c2.457 0 4.449-1.991 4.449-4.448V8.123c0-2.457-1.992-4.448-4.449-4.448z" opacity=".4"/>
    <path fill="#D84C71" d="M30.396 3.676c-4.93-4.913-12.91-4.9-17.824.03-4.913 4.932-4.898 12.91.031 17.824 4.93 4.913 12.91 4.9 17.824-.031 2.362-2.37 3.684-5.582 3.676-8.928-.004-3.339-1.338-6.54-3.707-8.895z"/>
    <path fill="#E5E5E5" d="M21.5 22.21c5.323 0 9.638-4.315 9.638-9.638 0-5.323-4.315-9.638-9.637-9.638-5.323 0-9.638 4.315-9.638 9.638 0 5.323 4.315 9.638 9.638 9.638z"/>
    <path fill="#B94171" d="M22.242 10.482V7.385H20.76v3.098c-1.159.41-1.766 1.68-1.356 2.838.41 1.158 1.68 1.766 2.838 1.356 1.158-.41 1.765-1.68 1.355-2.838-.224-.634-.722-1.132-1.355-1.355z"/>
    <path fill="#CFCFCF" d="M22.241 19.244H20.76v2.966h1.482v-2.966zM22.241 2.934H20.76V5.9h1.482V2.934zM31.138 11.83h-2.965v1.483h2.965v-1.482zM14.828 11.83h-2.965v1.483h2.965v-1.482zM26.744 16.765l-1.048 1.048 2.097 2.097 1.048-1.048-2.097-2.097zM15.208 5.235L14.16 6.283l2.097 2.097 1.048-1.049-2.097-2.096zM27.793 5.233L25.696 7.33l1.048 1.048 2.097-2.097-1.048-1.048zM16.257 16.765l-2.097 2.097 1.048 1.048 2.097-2.097-1.048-1.048z"/>
    <path fill="#071E26" d="M15.939 29.622c-.614 0-1.112-.498-1.112-1.112 0-.614.498-1.112 1.112-1.112.614 0 1.112.498 1.112 1.112 0 .614-.498 1.112-1.112 1.112zM15.939 34.814c-.614 0-1.112-.498-1.112-1.112 0-.614.498-1.112 1.112-1.112.614 0 1.112.498 1.112 1.112 0 .614-.498 1.112-1.112 1.112zM15.939 40.002c-.614 0-1.112-.498-1.112-1.112 0-.614.498-1.112 1.112-1.112.614 0 1.112.498 1.112 1.112 0 .615-.498 1.112-1.112 1.112zM12.232 26.658c-.614 0-1.112-.498-1.112-1.112 0-.614.498-1.112 1.112-1.112.614 0 1.112.498 1.112 1.112 0 .614-.498 1.112-1.112 1.112zM12.232 31.848c-.614 0-1.112-.498-1.112-1.112 0-.614.498-1.112 1.112-1.112.614 0 1.112.498 1.112 1.112 0 .614-.498 1.112-1.112 1.112zM12.232 37.038c-.614 0-1.112-.498-1.112-1.112 0-.614.498-1.112 1.112-1.112.614 0 1.112.498 1.112 1.112 0 .614-.498 1.112-1.112 1.112zM8.525 29.622c-.614 0-1.112-.498-1.112-1.112 0-.614.498-1.112 1.112-1.112.614 0 1.112.498 1.112 1.112 0 .614-.498 1.112-1.112 1.112zM8.525 34.814c-.614 0-1.112-.498-1.112-1.112 0-.614.498-1.112 1.112-1.112.614 0 1.112.498 1.112 1.112 0 .614-.498 1.112-1.112 1.112zM8.525 40.002c-.614 0-1.112-.498-1.112-1.112 0-.614.498-1.112 1.112-1.112.614 0 1.112.498 1.112 1.112 0 .615-.498 1.112-1.112 1.112zM4.819 26.658c-.614 0-1.112-.498-1.112-1.112 0-.614.498-1.112 1.112-1.112.614 0 1.112.498 1.112 1.112 0 .614-.498 1.112-1.112 1.112zM4.819 21.468c-.614 0-1.112-.498-1.112-1.112 0-.614.498-1.112 1.112-1.112.614 0 1.112.498 1.112 1.112 0 .615-.498 1.112-1.112 1.112zM4.819 31.848c-.614 0-1.112-.498-1.112-1.112 0-.614.498-1.112 1.112-1.112.614 0 1.112.498 1.112 1.112 0 .614-.498 1.112-1.112 1.112zM4.819 37.038c-.614 0-1.112-.498-1.112-1.112 0-.614.498-1.112 1.112-1.112.614 0 1.112.498 1.112 1.112 0 .614-.498 1.112-1.112 1.112zM8.525 24.434c-.614 0-1.112-.498-1.112-1.112 0-.613.498-1.111 1.112-1.111.614 0 1.112.498 1.112 1.111 0 .615-.498 1.112-1.112 1.112zM25.947 28.51c0-.614.498-1.112 1.112-1.112.614 0 1.112.498 1.112 1.112 0 .614-.498 1.112-1.112 1.112-.614 0-1.112-.497-1.112-1.112zM25.947 33.702c0-.614.498-1.112 1.112-1.112.614 0 1.112.498 1.112 1.112 0 .614-.498 1.112-1.112 1.112-.614 0-1.112-.498-1.112-1.112zM25.947 38.89c0-.614.498-1.112 1.112-1.112.614 0 1.112.498 1.112 1.112 0 .614-.498 1.112-1.112 1.112-.614 0-1.112-.497-1.112-1.112zM29.654 25.546c0-.614.498-1.112 1.112-1.112.614 0 1.112.498 1.112 1.112 0 .614-.498 1.112-1.112 1.112-.614 0-1.112-.497-1.112-1.112zM29.654 30.736c0-.614.498-1.112 1.112-1.112.614 0 1.112.498 1.112 1.112 0 .614-.498 1.112-1.112 1.112-.614 0-1.112-.498-1.112-1.112zM29.654 35.926c0-.614.498-1.112 1.112-1.112.614 0 1.112.498 1.112 1.112 0 .614-.498 1.112-1.112 1.112-.614 0-1.112-.498-1.112-1.112zM33.36 28.51c0-.614.498-1.112 1.112-1.112.614 0 1.112.498 1.112 1.112 0 .614-.498 1.112-1.112 1.112-.614 0-1.111-.497-1.111-1.112zM33.36 33.702c0-.614.498-1.112 1.112-1.112.614 0 1.112.498 1.112 1.112 0 .614-.498 1.112-1.112 1.112-.614 0-1.111-.498-1.111-1.112zM33.36 38.89c0-.614.498-1.112 1.112-1.112.614 0 1.112.498 1.112 1.112 0 .614-.498 1.112-1.112 1.112-.614 0-1.111-.497-1.111-1.112zM37.07 25.546c0-.614.497-1.112 1.111-1.112s1.112.498 1.112 1.112c0 .614-.498 1.112-1.112 1.112-.614 0-1.112-.497-1.112-1.112zM37.07 20.356c0-.614.497-1.112 1.111-1.112s1.112.498 1.112 1.112c0 .614-.498 1.112-1.112 1.112-.614 0-1.112-.497-1.112-1.112zM37.07 30.736c0-.614.497-1.112 1.111-1.112s1.112.498 1.112 1.112c0 .614-.498 1.112-1.112 1.112-.614 0-1.112-.498-1.112-1.112zM37.07 35.926c0-.614.497-1.112 1.111-1.112s1.112.498 1.112 1.112c0 .614-.498 1.112-1.112 1.112-.614 0-1.112-.498-1.112-1.112zM33.36 23.322c0-.613.498-1.111 1.112-1.111.614 0 1.112.498 1.112 1.111 0 .614-.498 1.112-1.112 1.112-.614 0-1.111-.497-1.111-1.112zM21.499 39.26c-.41 0-.742-.33-.742-.74v-8.897c0-.41.333-.742.742-.742s.741.332.741.742v8.896c0 .41-.332.742-.741.742z"/>
</svg>
