<svg xmlns="http://www.w3.org/2000/svg" width="46" height="46" fill="none" viewBox="0 0 46 46">
    <mask id="crjfixlgia" width="44" height="45" x="1" y="0" maskUnits="userSpaceOnUse">
        <path fill="#C4C4C4" d="M1.82 0.691H44.181V44.591H1.82z"/>
    </mask>
    <g mask="url(#crjfixlgia)">
        <path fill="#79C5CF" d="M9.265 7.787c-.135-1.518-.51-4.615-.63-7.096h14.337v47.835c-.375.015-.945-.076-1.305-.166-.015.977.12 1.985.015 3.803-.073 1.407-1 9.036-1.783 15.475l-.062.505-15.386.421c-.59-5.467-1.771-17.75-1.771-23.15 0-5.4 1.18-12.132 1.771-14.823.42-2.525 1.515-6.9 3.014-10.086.69-1.474 2.115-3.368 2.4-5.487.42-3.052-.39-4.991-.6-7.231z"/>
        <path fill="#79C5CF" d="M36.716 7.787c.136-1.518.511-4.615.632-7.096H22.97v47.835c.376.015.948-.076 1.309-.166.015.977-.12 1.985-.015 3.803.073 1.407 1.003 9.036 1.788 15.475l.061.505 15.43.421c.593-5.467 1.777-17.75 1.777-23.15 0-5.4-1.184-12.132-1.776-14.823-.421-2.525-1.52-6.9-3.023-10.086-.692-1.474-2.12-3.368-2.406-5.487-.422-3.052.39-4.991.601-7.231z"/>
        <path fill="#517E91" d="M36.747 7.787c.136-1.518.512-4.615.632-7.096h-4.378l1.678 47.835c.419.253-.165.096-.368-.042l-.001-.124c-.097.025-.074.073 0 .124.004.94-.116 1.937-.015 3.68.073 1.406 1.003 9.035 1.788 15.474l.062.505 5.43.421c.592-5.467 1.777-17.75 1.777-23.15 0-5.4-1.185-12.132-1.777-14.823-.421-2.525-1.519-6.9-3.023-10.086-.692-1.474-2.12-3.368-2.406-5.487-.421-3.052.39-4.991.601-7.231z" opacity=".43"/>
    </g>
    <path fill="#D84C71" d="M41.548 19.408v-3.016c-.761.533-2.05.988-3.706 1.362v2.143c0 .205-.166.37-.371.37s-.37-.165-.37-.37v-1.986c-.583.116-1.203.224-1.854.322v.923c0 .205-.166.37-.37.37-.206 0-.371-.165-.371-.37v-.817c-.597.081-1.215.156-1.853.223v2.447c0 .204-.166.37-.371.37s-.37-.166-.37-.37v-2.373c-.605.058-1.223.11-1.854.154v1.107c0 .205-.166.37-.37.37-.206 0-.371-.165-.371-.37v-1.058c-.49.03-.984.058-1.483.081v2.458c0 .205-.166.37-.37.37-.205 0-.371-.165-.371-.37v-2.426c-.613.025-1.231.044-1.853.058v.886c0 .205-.166.37-.371.37s-.37-.165-.37-.37v-.872c-.544.008-1.09.013-1.633.013h-.22v2.341c0 .206-.167.371-.372.371s-.37-.165-.37-.37v-2.346c-.745-.007-1.487-.022-2.224-.044v.908c0 .205-.166.37-.37.37-.206 0-.372-.165-.372-.37v-.932c-.624-.023-1.242-.052-1.853-.086v2.5c0 .204-.166.37-.37.37-.205 0-.371-.165-.371-.37v-2.544c-.505-.032-1.004-.068-1.494-.108.003.02.011.037.011.058v1.112c0 .205-.165.37-.37.37s-.371-.165-.371-.37v-1.112c0-.042.011-.08.024-.118-.643-.058-1.27-.124-1.877-.195v2.537c0 .204-.166.37-.37.37-.206 0-.372-.166-.372-.37v-2.594c0-.012.006-.023.008-.035-3.462-.451-6.194-1.133-7.42-2.036v3.064c0 1.312 7.12 3.141 18.716 3.141s18.719-1.829 18.719-3.14z"/>
    <path fill="#B94171" d="M9.25 17.27c.357-1.154.705-2.542.89-4.188-4.711.762-5.984 1.718-5.984 2.172 0 .64 1.813 1.41 5.095 2.016zM41.551 15.397v-.268c-.205-.473-1.572-1.31-5.696-2.004.185 1.606.524 2.965.871 4.1 2.896-.553 4.587-1.234 4.825-1.828z"/>
    <path fill="#D84C71" d="M32.65 38.31c.442.875 1.098 1.185 1.32 1.27l3.647-.605c-.32-.28-.66-.67-.938-1.211-.15-.291-.26-.61-.354-.942l-1.46.14c-.015.002-.028.002-.042.002-.216 0-.4-.164-.421-.383-.023-.233.148-.44.381-.462l1.372-.132c-.07-.527-.082-1.095-.035-1.705l-1.99-.167c-.232-.02-.406-.225-.386-.458.02-.233.229-.403.458-.386l2.014.17c.097-.627.244-1.29.451-1.993l-1.275-.138c-.233-.025-.4-.234-.376-.467.026-.233.235-.4.467-.376l1.45.157c.03-.088.053-.171.084-.26.223-.627.391-1.226.522-1.803l-2.255-.05c-.234-.005-.42-.199-.414-.432.005-.234.212-.415.432-.415l2.4.053c.125-.772.174-1.494.162-2.17l-1.298.16c-.017.003-.035.004-.053.004-.21 0-.393-.157-.42-.372-.028-.233.136-.444.368-.473l1.355-.168c-.063-.66-.18-1.269-.335-1.825l-2.241.48c-.03.006-.06.01-.089.01-.196 0-.37-.136-.413-.335-.05-.23.096-.455.325-.503l2.154-.462c-.182-.488-.39-.927-.604-1.317-1.255.165-2.594.302-3.985.413 1.388 2.111 2.528 5.61.586 10.657-1.373 3.569-1.064 5.5-.563 6.493z"/>
</svg>
