<svg xmlns="http://www.w3.org/2000/svg" width="15" height="15" fill="none" viewBox="0 0 15 15">
    <path fill="#FF5757" d="M7.5 15c4.142 0 7.5-3.358 7.5-7.5C15 3.358 11.642 0 7.5 0 3.358 0 0 3.358 0 7.5 0 11.642 3.358 15 7.5 15z"/>
    <path fill="#fff" d="M9.559 4.495c.273-.272.717-.264.981.016.256.271.249.696-.016.958l-5.083 5.036c-.274.272-.717.264-.981-.016-.256-.27-.249-.696.016-.958l5.083-5.036z"/>
    <path fill="#fff" d="M4.51 4.46c.272-.256.697-.249.959.016l5.036 5.083c.272.274.264.717-.016.981-.27.256-.696.249-.958-.016L4.495 5.441c-.272-.274-.264-.717.016-.981z"/>
</svg>
