<svg version="1.1" id="Layer_1" xmlns="http://www.w3.org/2000/svg" xmlns:xlink="http://www.w3.org/1999/xlink" x="0px" y="0px"
	 width="100%" viewBox="0 0 1088 502" enable-background="new 0 0 1088 502" xml:space="preserve">
<path fill="#202020" opacity="0.000000" stroke="none" 
	d="
M842.000000,503.000000 
	C561.333313,503.000000 281.166656,503.000000 1.000000,503.000000 
	C1.000000,335.666656 1.000000,168.333328 1.000000,1.000000 
	C363.666656,1.000000 726.333313,1.000000 1089.000000,1.000000 
	C1089.000000,168.333328 1089.000000,335.666656 1089.000000,503.000000 
	C1006.833313,503.000000 924.666687,503.000000 842.000000,503.000000 
M407.694183,387.989807 
	C412.203827,384.328217 416.713440,380.666626 421.863892,376.942871 
	C422.605103,376.215118 423.346283,375.487366 424.759766,374.593140 
	C433.180298,371.089478 441.002502,366.759918 446.936310,358.805084 
	C448.862457,357.233276 450.721222,355.569427 452.724823,354.103485 
	C482.074127,332.629852 483.213745,291.610535 455.241943,268.353302 
	C453.490051,266.896698 452.173737,264.013336 452.012115,261.698944 
	C451.188354,249.903305 447.032410,239.709244 438.678772,231.294601 
	C421.931671,214.425156 401.206818,210.273926 378.454315,212.251404 
	C376.103485,212.455734 373.142120,211.740433 371.264832,210.361588 
	C347.798248,193.125381 317.599182,191.868591 292.882324,207.051376 
	C290.810181,208.324203 287.670349,208.251190 285.048645,208.160889 
	C278.122131,207.922379 270.930420,205.924744 264.356201,207.221954 
	C255.388855,208.991364 246.895813,213.164658 237.458267,216.671906 
	C220.796814,221.887436 208.209167,232.031509 199.708755,247.365845 
	C198.422165,249.686783 196.150787,251.818497 193.826431,253.150177 
	C177.531845,262.485687 167.042633,276.349884 161.579453,294.093109 
	C153.183075,321.362732 163.869659,348.978699 187.546127,361.380157 
	C202.593033,369.261566 219.002884,371.239502 235.545197,370.466217 
	C246.643188,369.947418 256.548950,370.471527 266.198669,377.208740 
	C276.734924,384.564941 288.986725,387.522461 302.187042,386.891327 
	C306.867615,386.667511 312.015717,388.579956 316.355957,390.721771 
	C322.439240,393.723755 328.037659,397.745239 333.715881,401.522491 
	C342.680542,407.485901 350.325531,414.734772 356.076111,424.002930 
	C360.474396,431.091583 366.482452,436.214264 375.521667,435.936401 
	C381.995270,435.737396 388.464325,435.356506 394.931213,434.984283 
	C399.903656,434.698090 401.097473,432.997253 399.593781,428.147827 
	C397.675049,421.959808 395.484741,415.855011 393.613251,409.653442 
	C390.560822,399.538574 390.750244,399.217346 400.498138,394.388306 
	C400.766388,395.681488 400.746490,397.140289 401.371918,398.228119 
	C402.260040,399.772888 403.623077,401.044647 404.783203,402.433044 
	C405.789917,400.799011 407.498779,399.227142 407.650177,397.517365 
	C407.924744,394.416199 407.271851,391.232941 407.694183,387.989807 
M488.461029,354.499817 
	C488.461029,369.590851 488.461029,384.681885 488.461029,399.862579 
	C490.415649,400.003967 491.564575,400.159332 492.713562,400.159729 
	C529.540894,400.171875 566.370544,400.393280 603.194153,400.023712 
	C613.450562,399.920837 623.870178,398.926880 633.897888,396.827454 
	C653.649902,392.692108 668.927307,382.305664 673.237671,361.278168 
	C675.111816,352.135254 675.288940,342.360199 674.495544,333.020142 
	C673.247253,318.324127 665.138245,307.702362 651.624878,301.418549 
	C650.223999,300.767120 648.906616,299.936249 647.083740,298.931335 
	C648.739624,297.947357 649.701599,297.321747 650.710693,296.784302 
	C662.290710,290.616516 668.649719,281.013611 670.653870,268.030823 
	C675.089478,239.296555 660.884155,215.968185 633.085754,208.301224 
	C624.349365,205.891693 615.073669,204.443024 606.024048,204.337921 
	C568.701843,203.904526 531.371643,204.156296 494.044373,204.156204 
	C492.418488,204.156204 490.792603,204.156189 488.461426,204.156189 
	C488.461426,254.282196 488.461426,303.890961 488.461029,354.499817 
M697.475159,205.094604 
	C697.370056,206.249954 697.173279,207.405273 697.172974,208.560638 
	C697.158081,270.886597 697.157410,333.212555 697.174438,395.538513 
	C697.174866,396.969940 697.394043,398.401306 697.508118,399.794678 
	C714.571594,399.794678 731.147278,399.794678 748.372559,399.794678 
	C748.372559,375.710449 748.372559,351.993713 748.372559,328.002350 
	C757.681213,328.002350 766.339478,328.114960 774.993896,327.977936 
	C790.809082,327.727570 806.694214,328.164856 822.419434,326.804199 
	C848.288147,324.565887 866.662354,308.627533 871.400940,284.811035 
	C873.036865,276.588806 873.270081,267.893524 872.818237,259.485565 
	C871.361145,232.367355 855.456360,213.284042 829.300110,207.244354 
	C821.253296,205.386276 812.841248,204.372528 804.583801,204.293182 
	C770.924194,203.969742 737.259705,204.153732 703.596985,204.171265 
	C701.773926,204.172211 699.951050,204.359421 697.475159,205.094604 
M749.593567,99.500114 
	C749.593567,85.894325 749.593567,72.288536 749.593567,58.144844 
	C736.343018,58.144844 723.882507,58.275959 711.427856,58.062504 
	C707.834412,58.000923 706.177734,59.179409 704.962524,62.575886 
	C696.832458,85.299393 688.485291,107.945305 680.188171,130.608932 
	C679.657410,132.058716 678.955933,133.446014 677.888611,135.876144 
	C676.740479,132.960220 675.983582,131.167786 675.322937,129.340561 
	C667.286682,107.112785 659.257080,84.882584 651.250000,62.644276 
	C650.393860,60.266521 649.854431,58.034000 646.388550,58.085453 
	C634.562012,58.261005 622.730896,58.205517 610.902527,58.111935 
	C608.103638,58.089794 607.110107,59.125511 607.114197,61.912918 
	C607.169128,99.566116 607.175842,137.219467 607.102600,174.872604 
	C607.096619,177.936356 608.190613,178.969208 611.188660,178.897171 
	C617.516052,178.745132 623.868774,178.554123 630.174438,178.954941 
	C634.800964,179.249008 635.711304,177.424591 635.676636,173.220139 
	C635.497803,151.562653 635.594055,129.902878 635.594299,108.243912 
	C635.594360,106.542816 635.594360,104.841713 635.594360,103.140617 
	C637.478577,104.584793 638.236084,106.177231 638.860596,107.820213 
	C645.839172,126.178818 652.757446,144.560471 659.786011,162.899857 
	C661.795715,168.143631 662.764099,175.259567 666.660034,177.895004 
	C670.593506,180.555832 677.584045,178.509842 683.205322,178.928162 
	C687.053894,179.214539 688.748230,177.637726 690.056091,174.160156 
	C698.551880,151.570190 707.250061,129.056305 715.899048,106.524063 
	C716.478088,105.015305 717.197693,103.560448 717.851990,102.080536 
	C718.178955,102.214806 718.505981,102.349068 718.832947,102.483337 
	C718.832947,104.306984 718.832947,106.130638 718.832947,107.954292 
	C718.833069,129.613266 718.980469,151.273987 718.721436,172.929855 
	C718.662598,177.850998 720.204041,179.243210 724.940063,178.951462 
	C731.247253,178.562881 737.618408,178.531281 743.920288,178.960327 
	C748.768311,179.290375 749.709290,177.355057 749.677490,172.973770 
	C749.502014,148.816971 749.593140,124.658218 749.593567,99.500114 
M780.337769,62.726860 
	C766.680481,69.952286 761.277222,81.688301 762.152283,96.628235 
	C762.997681,111.061920 770.943604,120.604042 784.175110,125.226746 
	C792.906921,128.277420 802.140625,129.952133 811.215393,131.943085 
	C819.646790,133.792847 828.209351,135.051254 836.626526,136.957169 
	C840.624329,137.862411 842.638184,141.108246 842.711670,145.159210 
	C842.784424,149.174057 840.843994,152.242172 837.116638,153.839432 
	C834.996460,154.747986 832.719421,155.547729 830.446472,155.802155 
	C811.140808,157.963120 793.165161,155.438705 778.825745,140.620193 
	C778.648376,140.436920 778.222717,140.493912 777.564941,140.376770 
	C771.088440,146.188004 764.453247,152.141693 757.092407,158.746460 
	C762.377380,162.861816 766.691223,167.186768 771.820496,170.052094 
	C797.470642,184.380936 824.506531,185.155289 851.980286,176.543350 
	C861.815674,173.460327 868.636108,166.342606 871.807495,156.223785 
	C878.656067,134.372498 869.786011,116.100632 848.007568,109.217354 
	C838.250916,106.133690 827.865662,105.043518 817.770203,103.025871 
	C811.098999,101.692589 804.249512,100.864594 797.864441,98.684189 
	C795.435913,97.854881 793.109497,94.091934 792.485046,91.278030 
	C791.697571,87.729424 793.941528,84.539406 797.606995,83.041489 
	C799.446228,82.289864 801.355713,81.487602 803.299744,81.249580 
	C820.779053,79.109428 837.302185,80.537292 850.327332,94.406822 
	C850.497192,94.587730 850.938538,94.513680 852.579651,94.748146 
	C857.707336,88.845955 863.358093,82.341667 869.075867,75.760254 
	C852.638245,55.848206 810.215515,49.067284 780.337769,62.726860 
M383.500000,58.147175 
	C373.879669,58.147175 364.259369,58.147175 354.398499,58.147175 
	C354.398499,98.637573 354.398499,138.496170 354.398499,178.852753 
	C356.599518,178.852753 358.400146,178.852753 360.200745,178.852753 
	C374.867279,178.852829 389.533813,178.853104 404.200348,178.852890 
	C421.533508,178.852646 438.867157,178.906906 456.199097,178.761551 
	C457.825867,178.747925 460.813660,177.540405 460.850342,176.775909 
	C461.205048,169.384735 461.063202,161.969727 461.063202,154.147125 
	C458.227814,154.147125 456.253754,154.147125 454.279724,154.147110 
	C433.613251,154.147018 412.946777,154.150452 392.280304,154.144836 
	C385.616364,154.143021 385.609863,154.132126 385.592560,147.734726 
	C385.580872,143.401459 385.826111,139.051712 385.525269,134.739410 
	C385.216736,130.316879 386.530457,128.635696 391.313202,128.740616 
	C405.639496,129.054916 419.977173,128.863007 434.310303,128.839828 
	C436.079193,128.836975 437.847809,128.659592 439.612732,128.563293 
	C439.612732,120.442223 439.612732,112.872589 439.612732,104.835686 
	C437.417847,104.835686 435.613434,104.835701 433.809021,104.835686 
	C419.809143,104.835510 405.802551,104.585716 391.812897,104.963615 
	C386.552979,105.105698 385.052826,103.331154 385.518433,98.418243 
	C385.878571,94.618980 385.817719,90.741486 385.531281,86.929787 
	C385.227905,82.892624 386.873993,81.897568 390.711914,81.928764 
	C411.043701,82.094017 431.377563,82.005829 451.710693,82.005478 
	C453.656464,82.005447 455.602203,82.005470 458.164337,82.005470 
	C458.164337,75.746635 457.863708,70.107109 458.254944,64.515984 
	C458.597412,59.621193 457.285309,57.935066 451.997406,58.010662 
	C429.502228,58.332256 406.999786,58.147308 383.500000,58.147175 
M594.094482,178.850281 
	C595.527588,178.745636 596.960693,178.640991 598.763916,178.509308 
	C598.471741,177.323532 598.360596,176.521774 598.080139,175.784424 
	C583.578308,137.656845 569.103027,99.518921 554.399292,61.469311 
	C553.805969,59.933884 551.066650,58.356609 549.278931,58.299038 
	C539.624573,57.988129 529.949036,58.347206 520.293640,58.052185 
	C516.516052,57.936760 515.123169,59.558510 513.921143,62.756374 
	C500.097931,99.531105 486.147858,136.258133 472.256927,173.007462 
	C471.639099,174.641968 471.264862,176.368546 470.558838,178.805801 
	C480.460815,178.805801 489.580078,178.915436 498.689270,178.662308 
	C499.785858,178.631821 501.295135,176.821945 501.812622,175.518875 
	C503.838440,170.418076 505.649475,165.223770 507.323822,159.994873 
	C508.214905,157.212189 509.665558,156.068344 512.716003,156.101196 
	C526.544434,156.250153 540.376038,156.237579 554.204834,156.108673 
	C557.052917,156.082123 558.366882,157.166641 559.205383,159.768372 
	C560.889587,164.994324 562.980286,170.090240 564.629517,175.326050 
	C565.477295,178.017395 566.909119,178.952927 569.687744,178.899796 
	C577.516296,178.750107 585.349609,178.849411 594.094482,178.850281 
M309.827454,83.165977 
	C320.569824,83.165977 331.312164,83.165977 342.130554,83.165977 
	C342.130554,74.395676 342.130554,66.501060 342.130554,58.573936 
	C306.125946,58.573936 270.580231,58.573936 234.827698,58.573936 
	C234.827698,66.892639 234.827698,74.782707 234.827698,83.163383 
	C245.874878,83.163383 256.513733,83.158989 267.152588,83.164986 
	C273.826813,83.168747 273.834442,83.175751 273.835327,90.046005 
	C273.838867,117.870605 273.873657,145.695312 273.791412,173.519669 
	C273.781158,176.980850 274.105957,179.177353 278.534058,178.941422 
	C285.179749,178.587372 291.858276,178.855377 298.522858,178.850128 
	C305.154694,178.844894 305.161224,178.840179 305.162018,171.968918 
	C305.165222,144.144318 305.161560,116.319717 305.168518,88.495117 
	C305.169189,85.868446 304.580658,82.788254 309.827454,83.165977 
z"/>
<path fill="#ED463B" opacity="1.000000" stroke="none" 
	d="
M488.461243,353.999786 
	C488.461426,303.890961 488.461426,254.282196 488.461426,204.156189 
	C490.792603,204.156189 492.418488,204.156204 494.044373,204.156204 
	C531.371643,204.156296 568.701843,203.904526 606.024048,204.337921 
	C615.073669,204.443024 624.349365,205.891693 633.085754,208.301224 
	C660.884155,215.968185 675.089478,239.296555 670.653870,268.030823 
	C668.649719,281.013611 662.290710,290.616516 650.710693,296.784302 
	C649.701599,297.321747 648.739624,297.947357 647.083740,298.931335 
	C648.906616,299.936249 650.223999,300.767120 651.624878,301.418549 
	C665.138245,307.702362 673.247253,318.324127 674.495544,333.020142 
	C675.288940,342.360199 675.111816,352.135254 673.237671,361.278168 
	C668.927307,382.305664 653.649902,392.692108 633.897888,396.827454 
	C623.870178,398.926880 613.450562,399.920837 603.194153,400.023712 
	C566.370544,400.393280 529.540894,400.171875 492.713562,400.159729 
	C491.564575,400.159332 490.415649,400.003967 488.461029,399.862579 
	C488.461029,384.681885 488.461029,369.590851 488.461243,353.999786 
M608.806030,357.736786 
	C615.834106,356.557190 622.518616,354.348511 624.629517,346.704987 
	C627.927002,334.764923 626.861450,321.393921 608.119568,319.296570 
	C606.632996,319.130249 605.131653,319.021027 603.636719,319.015778 
	C583.654602,318.945679 563.672363,318.890350 543.690186,318.866486 
	C542.423462,318.864960 541.156433,319.153625 539.847168,319.312408 
	C539.847168,332.300293 539.847168,344.893585 539.847168,357.864990 
	C562.742065,357.864990 585.331360,357.864990 608.806030,357.736786 
M581.500000,279.833344 
	C590.977051,279.565216 600.485779,279.684753 609.921448,278.911621 
	C618.113220,278.240417 621.704407,273.981659 622.385498,265.941254 
	C623.428650,253.626038 619.318604,248.443069 607.037659,246.629074 
	C605.559265,246.410721 604.062622,246.193512 602.573669,246.187469 
	C582.591431,246.106262 562.609009,246.054703 542.626648,246.035294 
	C541.704773,246.034393 540.782471,246.405762 539.565186,246.667145 
	C539.565186,256.842438 539.596619,266.821045 539.547729,276.799225 
	C539.531128,280.187744 541.866028,279.827942 544.029053,279.828888 
	C556.186035,279.834259 568.343018,279.832581 581.500000,279.833344 
z"/>
<path fill="#EE463B" opacity="1.000000" stroke="none" 
	d="
M697.801636,204.777252 
	C699.951050,204.359421 701.773926,204.172211 703.596985,204.171265 
	C737.259705,204.153732 770.924194,203.969742 804.583801,204.293182 
	C812.841248,204.372528 821.253296,205.386276 829.300110,207.244354 
	C855.456360,213.284042 871.361145,232.367355 872.818237,259.485565 
	C873.270081,267.893524 873.036865,276.588806 871.400940,284.811035 
	C866.662354,308.627533 848.288147,324.565887 822.419434,326.804199 
	C806.694214,328.164856 790.809082,327.727570 774.993896,327.977936 
	C766.339478,328.114960 757.681213,328.002350 748.372559,328.002350 
	C748.372559,351.993713 748.372559,375.710449 748.372559,399.794678 
	C731.147278,399.794678 714.571594,399.794678 697.508118,399.794678 
	C697.394043,398.401306 697.174866,396.969940 697.174438,395.538513 
	C697.157410,333.212555 697.158081,270.886597 697.172974,208.560638 
	C697.173279,207.405273 697.370056,206.249954 697.801636,204.777252 
M797.434998,245.999878 
	C781.188110,245.999878 764.941223,245.999878 748.576172,245.999878 
	C748.576172,259.990845 748.576172,273.344849 748.576172,286.837006 
	C767.608215,286.837006 786.251526,287.385742 804.845032,286.658813 
	C819.045654,286.103638 824.898254,278.172333 823.803711,263.592255 
	C823.098267,254.194946 818.149109,248.606522 808.815796,247.011078 
	C805.389648,246.425400 801.880615,246.324356 797.434998,245.999878 
z"/>
<path fill="#019597" opacity="1.000000" stroke="none" 
	d="
M749.593140,100.000122 
	C749.593140,124.658218 749.502014,148.816971 749.677490,172.973770 
	C749.709290,177.355057 748.768311,179.290375 743.920288,178.960327 
	C737.618408,178.531281 731.247253,178.562881 724.940063,178.951462 
	C720.204041,179.243210 718.662598,177.850998 718.721436,172.929855 
	C718.980469,151.273987 718.833069,129.613266 718.832947,107.954292 
	C718.832947,106.130638 718.832947,104.306984 718.832947,102.483337 
	C718.505981,102.349068 718.178955,102.214806 717.851990,102.080536 
	C717.197693,103.560448 716.478088,105.015305 715.899048,106.524063 
	C707.250061,129.056305 698.551880,151.570190 690.056091,174.160156 
	C688.748230,177.637726 687.053894,179.214539 683.205322,178.928162 
	C677.584045,178.509842 670.593506,180.555832 666.660034,177.895004 
	C662.764099,175.259567 661.795715,168.143631 659.786011,162.899857 
	C652.757446,144.560471 645.839172,126.178818 638.860596,107.820213 
	C638.236084,106.177231 637.478577,104.584793 635.594360,103.140617 
	C635.594360,104.841713 635.594360,106.542816 635.594299,108.243912 
	C635.594055,129.902878 635.497803,151.562653 635.676636,173.220139 
	C635.711304,177.424591 634.800964,179.249008 630.174438,178.954941 
	C623.868774,178.554123 617.516052,178.745132 611.188660,178.897171 
	C608.190613,178.969208 607.096619,177.936356 607.102600,174.872604 
	C607.175842,137.219467 607.169128,99.566116 607.114197,61.912918 
	C607.110107,59.125511 608.103638,58.089794 610.902527,58.111935 
	C622.730896,58.205517 634.562012,58.261005 646.388550,58.085453 
	C649.854431,58.034000 650.393860,60.266521 651.250000,62.644276 
	C659.257080,84.882584 667.286682,107.112785 675.322937,129.340561 
	C675.983582,131.167786 676.740479,132.960220 677.888611,135.876144 
	C678.955933,133.446014 679.657410,132.058716 680.188171,130.608932 
	C688.485291,107.945305 696.832458,85.299393 704.962524,62.575886 
	C706.177734,59.179409 707.834412,58.000923 711.427856,58.062504 
	C723.882507,58.275959 736.343018,58.144844 749.593567,58.144844 
	C749.593567,72.288536 749.593567,85.894325 749.593140,100.000122 
z"/>
<path fill="#009698" opacity="1.000000" stroke="none" 
	d="
M780.661011,62.541245 
	C810.215515,49.067284 852.638245,55.848206 869.075867,75.760254 
	C863.358093,82.341667 857.707336,88.845955 852.579651,94.748146 
	C850.938538,94.513680 850.497192,94.587730 850.327332,94.406822 
	C837.302185,80.537292 820.779053,79.109428 803.299744,81.249580 
	C801.355713,81.487602 799.446228,82.289864 797.606995,83.041489 
	C793.941528,84.539406 791.697571,87.729424 792.485046,91.278030 
	C793.109497,94.091934 795.435913,97.854881 797.864441,98.684189 
	C804.249512,100.864594 811.098999,101.692589 817.770203,103.025871 
	C827.865662,105.043518 838.250916,106.133690 848.007568,109.217354 
	C869.786011,116.100632 878.656067,134.372498 871.807495,156.223785 
	C868.636108,166.342606 861.815674,173.460327 851.980286,176.543350 
	C824.506531,185.155289 797.470642,184.380936 771.820496,170.052094 
	C766.691223,167.186768 762.377380,162.861816 757.092407,158.746460 
	C764.453247,152.141693 771.088440,146.188004 777.564941,140.376770 
	C778.222717,140.493912 778.648376,140.436920 778.825745,140.620193 
	C793.165161,155.438705 811.140808,157.963120 830.446472,155.802155 
	C832.719421,155.547729 834.996460,154.747986 837.116638,153.839432 
	C840.843994,152.242172 842.784424,149.174057 842.711670,145.159210 
	C842.638184,141.108246 840.624329,137.862411 836.626526,136.957169 
	C828.209351,135.051254 819.646790,133.792847 811.215393,131.943085 
	C802.140625,129.952133 792.906921,128.277420 784.175110,125.226746 
	C770.943604,120.604042 762.997681,111.061920 762.152283,96.628235 
	C761.277222,81.688301 766.680481,69.952286 780.661011,62.541245 
z"/>
<path fill="#009698" opacity="1.000000" stroke="none" 
	d="
M384.000000,58.147243 
	C406.999786,58.147308 429.502228,58.332256 451.997406,58.010662 
	C457.285309,57.935066 458.597412,59.621193 458.254944,64.515984 
	C457.863708,70.107109 458.164337,75.746635 458.164337,82.005470 
	C455.602203,82.005470 453.656464,82.005447 451.710693,82.005478 
	C431.377563,82.005829 411.043701,82.094017 390.711914,81.928764 
	C386.873993,81.897568 385.227905,82.892624 385.531281,86.929787 
	C385.817719,90.741486 385.878571,94.618980 385.518433,98.418243 
	C385.052826,103.331154 386.552979,105.105698 391.812897,104.963615 
	C405.802551,104.585716 419.809143,104.835510 433.809021,104.835686 
	C435.613434,104.835701 437.417847,104.835686 439.612732,104.835686 
	C439.612732,112.872589 439.612732,120.442223 439.612732,128.563293 
	C437.847809,128.659592 436.079193,128.836975 434.310303,128.839828 
	C419.977173,128.863007 405.639496,129.054916 391.313202,128.740616 
	C386.530457,128.635696 385.216736,130.316879 385.525269,134.739410 
	C385.826111,139.051712 385.580872,143.401459 385.592560,147.734726 
	C385.609863,154.132126 385.616364,154.143021 392.280304,154.144836 
	C412.946777,154.150452 433.613251,154.147018 454.279724,154.147110 
	C456.253754,154.147125 458.227814,154.147125 461.063202,154.147125 
	C461.063202,161.969727 461.205048,169.384735 460.850342,176.775909 
	C460.813660,177.540405 457.825867,178.747925 456.199097,178.761551 
	C438.867157,178.906906 421.533508,178.852646 404.200348,178.852890 
	C389.533813,178.853104 374.867279,178.852829 360.200745,178.852753 
	C358.400146,178.852753 356.599518,178.852753 354.398499,178.852753 
	C354.398499,138.496170 354.398499,98.637573 354.398499,58.147175 
	C364.259369,58.147175 373.879669,58.147175 384.000000,58.147243 
z"/>
<path fill="#92D3D9" opacity="1.000000" stroke="none" 
	d="
M399.928955,393.853577 
	C390.750244,399.217346 390.560822,399.538574 393.613251,409.653442 
	C395.484741,415.855011 397.675049,421.959808 399.593781,428.147827 
	C401.097473,432.997253 399.903656,434.698090 394.931213,434.984283 
	C388.464325,435.356506 381.995270,435.737396 375.521667,435.936401 
	C366.482452,436.214264 360.474396,431.091583 356.076111,424.002930 
	C350.325531,414.734772 342.680542,407.485901 333.715881,401.522491 
	C328.037659,397.745239 322.439240,393.723755 316.355957,390.721771 
	C312.015717,388.579956 306.867615,386.667511 302.187042,386.891327 
	C288.986725,387.522461 276.734924,384.564941 266.198669,377.208740 
	C256.548950,370.471527 246.643188,369.947418 235.545197,370.466217 
	C219.002884,371.239502 202.593033,369.261566 187.546127,361.380157 
	C163.869659,348.978699 153.183075,321.362732 161.579453,294.093109 
	C167.042633,276.349884 177.531845,262.485687 193.826431,253.150177 
	C196.150787,251.818497 198.422165,249.686783 199.708755,247.365845 
	C208.209167,232.031509 220.796814,221.887436 237.709473,216.855103 
	C230.917648,224.381119 224.228165,231.933640 221.038910,241.943344 
	C220.707733,242.982742 218.753418,243.567429 217.484848,244.235046 
	C211.465256,247.403076 204.979706,249.896255 199.460999,253.770615 
	C168.517227,275.494537 166.306381,315.241821 194.940842,339.035980 
	C215.276337,355.933960 238.943893,359.868896 264.524994,354.711945 
	C266.524750,354.308838 269.666992,354.968811 270.962646,356.359985 
	C294.515564,381.649017 338.403046,377.930450 358.413666,347.231415 
	C360.996765,343.268616 362.365295,343.693329 365.317902,346.740967 
	C380.750671,362.670563 399.786652,369.135620 421.578033,366.065491 
	C429.991577,364.880096 438.082550,361.405365 446.320496,358.973633 
	C441.002502,366.759918 433.180298,371.089478 424.458069,374.304382 
	C424.095856,370.336426 421.753113,370.229126 418.971558,370.614624 
	C398.505310,373.450958 379.101868,371.595306 362.077942,358.245789 
	C360.933136,357.348083 357.651886,357.934845 356.135559,358.965698 
	C349.597992,363.410339 343.311401,368.230072 337.026123,373.034515 
	C335.840424,373.940765 334.216003,375.510956 334.353577,376.572723 
	C334.499939,377.702576 336.352112,379.118805 337.714081,379.499786 
	C345.351227,381.636017 351.808441,385.779175 356.892334,391.617371 
	C362.772034,398.369446 367.879059,405.789246 373.548248,412.734039 
	C374.671936,414.110504 376.822449,414.648773 378.499420,415.573578 
	C378.598724,413.536438 379.420441,411.155029 378.647644,409.533508 
	C377.017242,406.112335 374.643341,403.023560 372.412872,399.914337 
	C365.393707,390.129669 357.097412,381.663086 346.374329,375.849213 
	C350.109802,372.788483 353.737244,370.329773 356.698090,367.233582 
	C359.232208,364.583679 361.053528,364.782074 363.906860,366.627777 
	C373.229340,372.658112 383.154388,377.234497 394.529388,377.682251 
	C397.150604,377.785431 399.770691,377.916748 402.097260,378.021820 
	C401.661774,381.452667 401.288544,384.545349 400.870697,387.632019 
	C400.589355,389.710266 400.245056,391.780029 399.928955,393.853577 
z"/>
<path fill="#5A5A5D" opacity="1.000000" stroke="none" 
	d="
M446.628418,358.889343 
	C438.082550,361.405365 429.991577,364.880096 421.578033,366.065491 
	C399.786652,369.135620 380.750671,362.670563 365.317902,346.740967 
	C362.365295,343.693329 360.996765,343.268616 358.413666,347.231415 
	C338.403046,377.930450 294.515564,381.649017 270.962646,356.359985 
	C269.666992,354.968811 266.524750,354.308838 264.524994,354.711945 
	C238.943893,359.868896 215.276337,355.933960 194.940842,339.035980 
	C166.306381,315.241821 168.517227,275.494537 199.460999,253.770615 
	C204.979706,249.896255 211.465256,247.403076 217.484848,244.235046 
	C218.753418,243.567429 220.707733,242.982742 221.038910,241.943344 
	C224.228165,231.933640 230.917648,224.381119 238.080048,216.672821 
	C246.895813,213.164658 255.388855,208.991364 264.356201,207.221954 
	C270.930420,205.924744 278.122131,207.922379 285.048645,208.160889 
	C287.670349,208.251190 290.810181,208.324203 292.882324,207.051376 
	C317.599182,191.868591 347.798248,193.125381 371.264832,210.361588 
	C373.142120,211.740433 376.103485,212.455734 378.454315,212.251404 
	C401.206818,210.273926 421.931671,214.425156 438.678772,231.294601 
	C447.032410,239.709244 451.188354,249.903305 452.012115,261.698944 
	C452.173737,264.013336 453.490051,266.896698 455.241943,268.353302 
	C483.213745,291.610535 482.074127,332.629852 452.724823,354.103485 
	C450.721222,355.569427 448.862457,357.233276 446.628418,358.889343 
M439.205750,268.641510 
	C438.579468,268.446686 437.965515,268.149353 437.325073,268.072296 
	C426.378448,266.755493 417.102142,270.022949 409.268951,277.866272 
	C408.153717,278.982880 405.671967,278.734711 403.822662,279.118164 
	C404.194672,277.251740 403.940521,274.755646 405.060760,273.641632 
	C407.966827,270.751770 411.123108,267.405090 414.822906,266.173340 
	C421.940735,263.803650 429.502930,262.768768 437.425110,261.525879 
	C439.918732,262.042999 442.412323,262.560150 445.368744,263.173248 
	C445.368744,261.368195 445.458832,260.402679 445.355377,259.458313 
	C443.451324,242.077820 432.829895,231.209305 417.899323,224.227356 
	C407.635590,219.427734 396.738647,216.310226 384.368835,218.843735 
	C382.977875,218.738937 381.586884,218.634155 379.714935,218.493118 
	C380.379120,221.272675 380.925354,223.326950 381.355957,225.405167 
	C382.535065,231.095840 381.332153,236.421097 377.932434,240.972229 
	C376.875885,242.386627 374.288849,242.657745 372.402466,243.452255 
	C372.504181,241.572845 371.976196,239.333496 372.810944,237.873077 
	C377.813873,229.120499 375.789062,221.036835 366.717438,215.297806 
	C362.353851,212.633240 358.229706,209.410004 353.578461,207.416687 
	C342.832825,202.811584 331.578156,201.372131 319.233551,204.222900 
	C310.595062,204.981628 302.895691,208.088959 295.669281,213.225677 
	C302.930328,223.013260 302.886353,232.599121 296.081421,242.046005 
	C297.535614,243.981140 299.240753,245.540878 300.005402,247.472855 
	C300.729004,249.301254 301.378998,252.546097 300.457489,253.366547 
	C298.113220,255.453735 296.495148,253.103333 295.041992,251.110672 
	C288.579529,242.248871 279.017883,238.698792 269.241699,241.405945 
	C259.753021,244.033463 253.412415,251.966995 251.901382,262.481079 
	C251.668167,264.103912 249.754959,265.485291 248.618652,266.978302 
	C247.719772,265.291779 246.038452,263.601471 246.046524,261.919312 
	C246.108047,249.113876 256.708069,236.672058 269.969452,235.132782 
	C276.787170,234.341431 283.885468,235.967224 291.748352,236.568939 
	C295.460968,232.257278 296.313507,226.498688 293.025726,220.740799 
	C289.907196,215.279175 285.132294,213.776901 279.032349,214.878525 
	C276.322723,215.367859 273.326904,215.113251 270.604523,214.528290 
	C263.420563,212.984711 256.857727,214.272644 250.283447,217.373413 
	C232.110413,225.944748 226.752609,243.507431 220.441711,260.147675 
	C218.522766,265.207489 221.676147,270.420380 225.038742,274.881958 
	C226.012619,276.174103 225.592545,278.516846 225.811478,280.377991 
	C223.959122,279.840759 221.561630,279.842041 220.378128,278.644043 
	C218.452118,276.694397 216.501663,274.114410 216.015594,271.527222 
	C214.852478,265.336243 214.536270,258.986115 213.815155,252.098404 
	C209.343643,255.061111 203.808197,258.060699 199.046783,261.996674 
	C175.754211,281.251129 174.871368,312.208405 197.102661,332.633179 
	C212.177643,346.483154 230.455673,351.501068 250.587906,350.333221 
	C255.121872,350.070221 259.614258,349.090759 264.621246,348.369751 
	C263.380280,345.637787 262.553833,343.838593 261.743744,342.032043 
	C246.549988,308.150452 271.486755,268.682800 307.965759,268.873932 
	C320.590424,268.940063 323.725220,266.444550 327.147552,254.145096 
	C327.488098,252.921219 329.280457,252.101273 330.399017,251.093857 
	C331.300232,252.292358 332.922455,253.457535 332.979645,254.695053 
	C333.248230,260.507385 330.794922,265.347656 326.689758,269.375000 
	C325.554749,270.488464 324.323517,271.503815 322.990601,272.694397 
	C327.928162,277.246887 331.281647,282.355896 331.239899,288.924957 
	C331.231323,290.277405 329.544861,291.619202 328.631775,292.965881 
	C327.511444,291.967773 325.735077,291.164398 325.372009,289.941467 
	C321.654297,277.418396 316.098145,273.560608 303.648102,275.202545 
	C278.132965,278.567505 260.765228,301.344452 263.985168,327.350677 
	C266.927795,351.117371 290.409058,368.686981 315.163300,366.415985 
	C337.967407,364.323914 352.329865,351.018280 360.011841,329.888611 
	C365.045837,316.042267 374.942963,307.928009 389.572357,306.525635 
	C403.145416,305.224548 413.935028,310.780609 421.506378,322.114868 
	C423.095947,324.494476 426.371155,327.905121 422.638855,330.319550 
	C418.645782,332.902618 417.959229,327.973846 416.556854,325.797791 
	C404.982758,307.838898 378.786987,308.220367 368.306427,326.590210 
	C363.730011,334.611603 363.940338,336.544464 370.458160,343.070282 
	C372.569885,345.184601 374.782928,347.244629 377.178680,349.020477 
	C389.239655,357.960480 398.811951,354.316254 402.249329,339.563873 
	C402.286896,339.402588 402.226868,339.161713 402.319977,339.078888 
	C403.445953,338.076843 404.592224,337.097595 405.733215,336.112457 
	C406.618958,337.317230 408.491089,338.831055 408.226562,339.675385 
	C406.771484,344.319702 405.085388,348.950104 402.866241,353.270721 
	C401.834076,355.280304 399.418701,356.579498 397.221497,358.571289 
	C410.668457,362.062866 423.252838,361.434845 435.434875,356.332214 
	C444.956635,352.343842 447.322083,347.177856 445.650299,336.847351 
	C445.426300,335.463440 446.687805,333.839111 447.261414,332.326111 
	C448.703369,333.336426 450.922150,334.058777 451.425690,335.416992 
	C452.477692,338.254639 452.624512,341.427887 453.207031,344.837311 
	C454.002716,344.291473 454.627655,344.033142 455.002899,343.571777 
	C455.935486,342.425018 456.754211,341.185699 458.219788,339.612610 
	C472.364838,325.149139 472.947357,298.692200 459.333435,281.861633 
	C454.265442,275.596191 448.579254,270.019958 439.205750,268.641510 
z"/>
<path fill="#009698" opacity="1.000000" stroke="none" 
	d="
M593.637817,178.850433 
	C585.349609,178.849411 577.516296,178.750107 569.687744,178.899796 
	C566.909119,178.952927 565.477295,178.017395 564.629517,175.326050 
	C562.980286,170.090240 560.889587,164.994324 559.205383,159.768372 
	C558.366882,157.166641 557.052917,156.082123 554.204834,156.108673 
	C540.376038,156.237579 526.544434,156.250153 512.716003,156.101196 
	C509.665558,156.068344 508.214905,157.212189 507.323822,159.994873 
	C505.649475,165.223770 503.838440,170.418076 501.812622,175.518875 
	C501.295135,176.821945 499.785858,178.631821 498.689270,178.662308 
	C489.580078,178.915436 480.460815,178.805801 470.558838,178.805801 
	C471.264862,176.368546 471.639099,174.641968 472.256927,173.007462 
	C486.147858,136.258133 500.097931,99.531105 513.921143,62.756374 
	C515.123169,59.558510 516.516052,57.936760 520.293640,58.052185 
	C529.949036,58.347206 539.624573,57.988129 549.278931,58.299038 
	C551.066650,58.356609 553.805969,59.933884 554.399292,61.469311 
	C569.103027,99.518921 583.578308,137.656845 598.080139,175.784424 
	C598.360596,176.521774 598.471741,177.323532 598.763916,178.509308 
	C596.960693,178.640991 595.527588,178.745636 593.637817,178.850433 
M540.029846,106.411499 
	C537.936584,100.544418 535.843323,94.677330 533.216431,87.314613 
	C527.582520,103.206390 522.467407,117.634903 517.213440,132.455170 
	C528.216248,132.455170 538.386475,132.455170 549.275391,132.455170 
	C546.143127,123.637436 543.214661,115.393410 540.029846,106.411499 
z"/>
<path fill="#009698" opacity="1.000000" stroke="none" 
	d="
M309.364319,83.169746 
	C304.580658,82.788254 305.169189,85.868446 305.168518,88.495117 
	C305.161560,116.319717 305.165222,144.144318 305.162018,171.968918 
	C305.161224,178.840179 305.154694,178.844894 298.522858,178.850128 
	C291.858276,178.855377 285.179749,178.587372 278.534058,178.941422 
	C274.105957,179.177353 273.781158,176.980850 273.791412,173.519669 
	C273.873657,145.695312 273.838867,117.870605 273.835327,90.046005 
	C273.834442,83.175751 273.826813,83.168747 267.152588,83.164986 
	C256.513733,83.158989 245.874878,83.163383 234.827698,83.163383 
	C234.827698,74.782707 234.827698,66.892639 234.827698,58.573936 
	C270.580231,58.573936 306.125946,58.573936 342.130554,58.573936 
	C342.130554,66.501060 342.130554,74.395676 342.130554,83.165977 
	C331.312164,83.165977 320.569824,83.165977 309.364319,83.169746 
z"/>
<path fill="#5A5B5E" opacity="1.000000" stroke="none" 
	d="
M400.213562,394.120941 
	C400.245056,391.780029 400.589355,389.710266 400.870697,387.632019 
	C401.288544,384.545349 401.661774,381.452667 402.097260,378.021820 
	C399.770691,377.916748 397.150604,377.785431 394.529388,377.682251 
	C383.154388,377.234497 373.229340,372.658112 363.906860,366.627777 
	C361.053528,364.782074 359.232208,364.583679 356.698090,367.233582 
	C353.737244,370.329773 350.109802,372.788483 346.374329,375.849213 
	C357.097412,381.663086 365.393707,390.129669 372.412872,399.914337 
	C374.643341,403.023560 377.017242,406.112335 378.647644,409.533508 
	C379.420441,411.155029 378.598724,413.536438 378.499420,415.573578 
	C376.822449,414.648773 374.671936,414.110504 373.548248,412.734039 
	C367.879059,405.789246 362.772034,398.369446 356.892334,391.617371 
	C351.808441,385.779175 345.351227,381.636017 337.714081,379.499786 
	C336.352112,379.118805 334.499939,377.702576 334.353577,376.572723 
	C334.216003,375.510956 335.840424,373.940765 337.026123,373.034515 
	C343.311401,368.230072 349.597992,363.410339 356.135559,358.965698 
	C357.651886,357.934845 360.933136,357.348083 362.077942,358.245789 
	C379.101868,371.595306 398.505310,373.450958 418.971558,370.614624 
	C421.753113,370.229126 424.095856,370.336426 424.121948,374.387634 
	C423.346283,375.487366 422.605103,376.215118 421.133118,376.957367 
	C410.565582,378.532623 407.096405,381.410278 407.006104,388.083954 
	C407.271851,391.232941 407.924744,394.416199 407.650177,397.517365 
	C407.498779,399.227142 405.789917,400.799011 404.783203,402.433044 
	C403.623077,401.044647 402.260040,399.772888 401.371918,398.228119 
	C400.746490,397.140289 400.766388,395.681488 400.213562,394.120941 
z"/>
<path fill="#8ECAD0" opacity="1.000000" stroke="none" 
	d="
M407.350159,388.036865 
	C407.096405,381.410278 410.565582,378.532623 420.812683,376.988464 
	C416.713440,380.666626 412.203827,384.328217 407.350159,388.036865 
z"/>
<path fill="#202020" opacity="0.000000" stroke="none" 
	d="
M608.363281,357.800903 
	C585.331360,357.864990 562.742065,357.864990 539.847168,357.864990 
	C539.847168,344.893585 539.847168,332.300293 539.847168,319.312408 
	C541.156433,319.153625 542.423462,318.864960 543.690186,318.866486 
	C563.672363,318.890350 583.654602,318.945679 603.636719,319.015778 
	C605.131653,319.021027 606.632996,319.130249 608.119568,319.296570 
	C626.861450,321.393921 627.927002,334.764923 624.629517,346.704987 
	C622.518616,354.348511 615.834106,356.557190 608.363281,357.800903 
z"/>
<path fill="#222020" opacity="0.000000" stroke="none" 
	d="
M581.000000,279.833313 
	C568.343018,279.832581 556.186035,279.834259 544.029053,279.828888 
	C541.866028,279.827942 539.531128,280.187744 539.547729,276.799225 
	C539.596619,266.821045 539.565186,256.842438 539.565186,246.667145 
	C540.782471,246.405762 541.704773,246.034393 542.626648,246.035294 
	C562.609009,246.054703 582.591431,246.106262 602.573669,246.187469 
	C604.062622,246.193512 605.559265,246.410721 607.037659,246.629074 
	C619.318604,248.443069 623.428650,253.626038 622.385498,265.941254 
	C621.704407,273.981659 618.113220,278.240417 609.921448,278.911621 
	C600.485779,279.684753 590.977051,279.565216 581.000000,279.833313 
z"/>
<path fill="#212020" opacity="0.000000" stroke="none" 
	d="
M797.922241,246.001053 
	C801.880615,246.324356 805.389648,246.425400 808.815796,247.011078 
	C818.149109,248.606522 823.098267,254.194946 823.803711,263.592255 
	C824.898254,278.172333 819.045654,286.103638 804.845032,286.658813 
	C786.251526,287.385742 767.608215,286.837006 748.576172,286.837006 
	C748.576172,273.344849 748.576172,259.990845 748.576172,245.999878 
	C764.941223,245.999878 781.188110,245.999878 797.922241,246.001053 
z"/>
<path fill="#93D5DA" opacity="1.000000" stroke="none" 
	d="
M366.979767,215.913284 
	C375.789062,221.036835 377.813873,229.120499 372.810944,237.873077 
	C371.976196,239.333496 372.504181,241.572845 372.402466,243.452255 
	C374.288849,242.657745 376.875885,242.386627 377.932434,240.972229 
	C381.332153,236.421097 382.535065,231.095840 381.355957,225.405167 
	C380.925354,223.326950 380.379120,221.272675 379.714935,218.493118 
	C381.586884,218.634155 382.977875,218.738937 385.097412,218.914368 
	C409.047058,225.544937 426.941925,238.549377 436.880829,261.180298 
	C429.502930,262.768768 421.940735,263.803650 414.822906,266.173340 
	C411.123108,267.405090 407.966827,270.751770 405.060760,273.641632 
	C403.940521,274.755646 404.194672,277.251740 403.822662,279.118164 
	C405.671967,278.734711 408.153717,278.982880 409.268951,277.866272 
	C417.102142,270.022949 426.378448,266.755493 437.325073,268.072296 
	C437.965515,268.149353 438.579468,268.446686 439.626465,269.184387 
	C442.538818,273.617737 444.977692,277.543365 447.537079,281.388794 
	C450.015533,285.112579 453.044617,288.532166 455.090607,292.470428 
	C463.087952,307.864502 462.481567,323.839813 457.618683,339.983551 
	C456.754211,341.185699 455.935486,342.425018 455.002899,343.571777 
	C454.627655,344.033142 454.002716,344.291473 453.207031,344.837311 
	C452.624512,341.427887 452.477692,338.254639 451.425690,335.416992 
	C450.922150,334.058777 448.703369,333.336426 447.261414,332.326111 
	C446.687805,333.839111 445.426300,335.463440 445.650299,336.847351 
	C447.322083,347.177856 444.956635,352.343842 435.434875,356.332214 
	C423.252838,361.434845 410.668457,362.062866 397.221497,358.571289 
	C399.418701,356.579498 401.834076,355.280304 402.866241,353.270721 
	C405.085388,348.950104 406.771484,344.319702 408.226562,339.675385 
	C408.491089,338.831055 406.618958,337.317230 405.733215,336.112427 
	C404.592224,337.097595 403.445953,338.076843 402.319977,339.078888 
	C402.226868,339.161713 402.286896,339.402588 402.249329,339.563873 
	C398.811951,354.316254 389.239655,357.960480 377.178680,349.020477 
	C374.782928,347.244629 372.569885,345.184601 370.458160,343.070282 
	C363.940338,336.544464 363.730011,334.611603 368.306427,326.590210 
	C378.786987,308.220367 404.982758,307.838898 416.556854,325.797791 
	C417.959229,327.973846 418.645782,332.902618 422.638855,330.319550 
	C426.371155,327.905121 423.095947,324.494476 421.506378,322.114868 
	C413.935028,310.780609 403.145416,305.224548 389.572357,306.525635 
	C374.942963,307.928009 365.045837,316.042267 360.011841,329.888611 
	C352.329865,351.018280 337.967407,364.323914 315.163300,366.415985 
	C290.409058,368.686981 266.927795,351.117371 263.985168,327.350677 
	C260.765228,301.344452 278.132965,278.567505 303.648102,275.202545 
	C316.098145,273.560608 321.654297,277.418396 325.372009,289.941467 
	C325.735077,291.164398 327.511444,291.967773 328.631775,292.965881 
	C329.544861,291.619202 331.231323,290.277405 331.239899,288.924957 
	C331.281647,282.355896 327.928162,277.246887 322.990601,272.694397 
	C324.323517,271.503815 325.554749,270.488464 326.689758,269.375000 
	C330.794922,265.347656 333.248230,260.507385 332.979645,254.695053 
	C332.922455,253.457535 331.300232,252.292358 330.399017,251.093842 
	C329.280457,252.101273 327.488098,252.921219 327.147552,254.145096 
	C323.725220,266.444550 320.590424,268.940063 307.965759,268.873932 
	C271.486755,268.682800 246.549988,308.150452 261.743744,342.032043 
	C262.553833,343.838593 263.380280,345.637787 264.621246,348.369751 
	C259.614258,349.090759 255.121872,350.070221 250.587906,350.333221 
	C230.455673,351.501068 212.177643,346.483154 197.102661,332.633179 
	C174.871368,312.208405 175.754211,281.251129 199.046783,261.996674 
	C203.808197,258.060699 209.343643,255.061111 213.815155,252.098404 
	C214.536270,258.986115 214.852478,265.336243 216.015594,271.527222 
	C216.501663,274.114410 218.452118,276.694397 220.378128,278.644043 
	C221.561630,279.842041 223.959122,279.840759 225.811478,280.377991 
	C225.592545,278.516846 226.012619,276.174103 225.038742,274.881958 
	C221.676147,270.420380 218.522766,265.207489 220.441711,260.147675 
	C226.752609,243.507431 232.110413,225.944748 250.283447,217.373413 
	C256.857727,214.272644 263.420563,212.984711 270.604523,214.528290 
	C273.326904,215.113251 276.322723,215.367859 279.032349,214.878525 
	C285.132294,213.776901 289.907196,215.279175 293.025726,220.740799 
	C296.313507,226.498688 295.460968,232.257278 291.748352,236.568939 
	C283.885468,235.967224 276.787170,234.341431 269.969452,235.132782 
	C256.708069,236.672058 246.108047,249.113876 246.046524,261.919312 
	C246.038452,263.601471 247.719772,265.291779 248.618668,266.978333 
	C249.754959,265.485291 251.668167,264.103912 251.901382,262.481079 
	C253.412415,251.966995 259.753021,244.033463 269.241699,241.405945 
	C279.017883,238.698792 288.579529,242.248871 295.041992,251.110672 
	C296.495148,253.103333 298.113220,255.453735 300.457489,253.366547 
	C301.378998,252.546097 300.729004,249.301254 300.005402,247.472855 
	C299.240753,245.540878 297.535614,243.981140 296.081421,242.046005 
	C302.886353,232.599121 302.930328,223.013260 295.669281,213.225677 
	C302.895691,208.088959 310.595062,204.981628 320.020264,204.162933 
	C334.490845,204.170639 347.447510,206.937790 359.410583,213.933578 
	C361.578247,215.201202 364.438995,215.283676 366.979767,215.913284 
M370.005341,283.273254 
	C370.670990,280.541290 371.809296,277.821960 371.882935,275.074127 
	C371.975525,271.619476 372.910767,270.336823 376.616119,269.852356 
	C387.743317,268.397552 396.577179,262.756042 402.690338,253.297592 
	C403.496277,252.050583 402.779358,249.819382 402.767761,248.043991 
	C401.112152,248.559509 399.436737,249.022110 397.815308,249.628937 
	C397.425995,249.774658 397.222992,250.404709 396.922516,250.803131 
	C387.479431,263.324249 371.969391,267.573730 358.278198,261.392578 
	C344.027008,254.958633 336.856781,240.306839 340.045319,224.720795 
	C340.413818,222.919601 339.760773,219.503326 338.686401,219.073669 
	C335.308685,217.722855 334.688293,220.917725 334.092712,223.301529 
	C329.109497,243.246002 341.219208,263.671997 361.156921,269.059143 
	C362.713470,269.479675 364.246277,269.987976 365.667023,270.418182 
	C366.354309,283.888428 358.349426,291.475555 345.443909,290.302979 
	C343.749359,290.149048 341.907684,291.614532 340.134125,292.329956 
	C341.669952,293.703979 343.011414,295.898010 344.773926,296.315765 
	C354.503693,298.621887 363.698303,293.899872 370.005341,283.273254 
M300.427673,341.240204 
	C319.855286,349.663269 340.891418,338.135406 341.919373,318.334900 
	C342.014099,316.510254 340.630737,313.265900 339.396240,312.976959 
	C336.196930,312.228027 336.177002,315.151703 335.907623,317.572083 
	C334.576324,329.533722 325.141083,338.021515 313.362762,337.990723 
	C301.608459,337.959991 292.464783,329.404907 290.905701,317.370605 
	C290.690582,315.709991 288.964386,313.035309 287.769653,312.940094 
	C284.296844,312.663391 284.759552,315.781982 284.934967,318.014313 
	C285.742035,328.287842 291.009552,335.742218 300.427673,341.240204 
M235.271500,307.797333 
	C238.601578,302.910919 242.189362,298.170074 245.087433,293.039612 
	C245.848160,291.692932 244.471115,289.138672 244.075806,287.138977 
	C242.509628,288.436523 240.190735,289.417969 239.492737,291.080109 
	C231.820587,309.349487 212.128433,315.640564 195.295090,305.193207 
	C193.733170,304.223816 190.140198,303.780975 189.462738,304.643311 
	C187.365250,307.313110 189.924210,309.009338 192.024551,310.471497 
	C204.592957,319.221008 221.596024,318.340881 235.271500,307.797333 
z"/>
<path fill="#232424" opacity="0.000000" stroke="none" 
	d="
M437.152954,261.353088 
	C426.941925,238.549377 409.047058,225.544937 385.462158,218.887863 
	C396.738647,216.310226 407.635590,219.427734 417.899323,224.227356 
	C432.829895,231.209305 443.451324,242.077820 445.355377,259.458313 
	C445.458832,260.402679 445.368744,261.368195 445.368744,263.173248 
	C442.412323,262.560150 439.918732,262.042999 437.152954,261.353088 
z"/>
<path fill="#232424" opacity="0.000000" stroke="none" 
	d="
M457.919250,339.798096 
	C462.481567,323.839813 463.087952,307.864502 455.090607,292.470428 
	C453.044617,288.532166 450.015533,285.112579 447.537079,281.388794 
	C444.977692,277.543365 442.538818,273.617737 439.998383,269.369751 
	C448.579254,270.019958 454.265442,275.596191 459.333435,281.861633 
	C472.947357,298.692200 472.364838,325.149139 457.919250,339.798096 
z"/>
<path fill="#2A2E2E" opacity="1.000000" stroke="none" 
	d="
M366.848602,215.605545 
	C364.438995,215.283676 361.578247,215.201202 359.410583,213.933578 
	C347.447510,206.937790 334.490845,204.170639 320.405090,204.044785 
	C331.578156,201.372131 342.832825,202.811584 353.578461,207.416687 
	C358.229706,209.410004 362.353851,212.633240 366.848602,215.605545 
z"/>
<path fill="#1F2323" opacity="0.000000" stroke="none" 
	d="
M540.157959,106.780441 
	C543.214661,115.393410 546.143127,123.637436 549.275391,132.455170 
	C538.386475,132.455170 528.216248,132.455170 517.213440,132.455170 
	C522.467407,117.634903 527.582520,103.206390 533.216431,87.314613 
	C535.843323,94.677330 537.936584,100.544418 540.157959,106.780441 
z"/>
<path fill="#5B5C5E" opacity="1.000000" stroke="none" 
	d="
M369.860718,283.627441 
	C363.698303,293.899872 354.503693,298.621887 344.773926,296.315765 
	C343.011414,295.898010 341.669952,293.703979 340.134125,292.329956 
	C341.907684,291.614532 343.749359,290.149048 345.443909,290.302979 
	C358.349426,291.475555 366.354309,283.888428 365.667023,270.418182 
	C364.246277,269.987976 362.713470,269.479675 361.156921,269.059143 
	C341.219208,263.671997 329.109497,243.246002 334.092712,223.301529 
	C334.688293,220.917725 335.308685,217.722855 338.686401,219.073669 
	C339.760773,219.503326 340.413818,222.919601 340.045319,224.720795 
	C336.856781,240.306839 344.027008,254.958633 358.278198,261.392578 
	C371.969391,267.573730 387.479431,263.324249 396.922516,250.803131 
	C397.222992,250.404709 397.425995,249.774658 397.815308,249.628937 
	C399.436737,249.022110 401.112152,248.559509 402.767761,248.044006 
	C402.779358,249.819382 403.496277,252.050583 402.690338,253.297592 
	C396.577179,262.756042 387.743317,268.397552 376.616119,269.852356 
	C372.910767,270.336823 371.975525,271.619476 371.882935,275.074127 
	C371.809296,277.821960 370.670990,280.541290 369.860718,283.627441 
z"/>
<path fill="#5A5B5D" opacity="1.000000" stroke="none" 
	d="
M300.090027,341.077820 
	C291.009552,335.742218 285.742035,328.287842 284.934967,318.014313 
	C284.759552,315.781982 284.296844,312.663391 287.769653,312.940094 
	C288.964386,313.035309 290.690582,315.709991 290.905701,317.370605 
	C292.464783,329.404907 301.608459,337.959991 313.362762,337.990723 
	C325.141083,338.021515 334.576324,329.533722 335.907623,317.572083 
	C336.177002,315.151703 336.196930,312.228027 339.396240,312.976959 
	C340.630737,313.265900 342.014099,316.510254 341.919373,318.334900 
	C340.891418,338.135406 319.855286,349.663269 300.090027,341.077820 
z"/>
<path fill="#5B5C5E" opacity="1.000000" stroke="none" 
	d="
M234.996460,308.026428 
	C221.596024,318.340881 204.592957,319.221008 192.024551,310.471497 
	C189.924210,309.009338 187.365250,307.313110 189.462738,304.643311 
	C190.140198,303.780975 193.733170,304.223816 195.295090,305.193207 
	C212.128433,315.640564 231.820587,309.349487 239.492737,291.080109 
	C240.190735,289.417969 242.509628,288.436523 244.075806,287.138977 
	C244.471115,289.138672 245.848160,291.692932 245.087433,293.039612 
	C242.189362,298.170074 238.601578,302.910919 234.996460,308.026428 
z"/>
</svg>