<svg xmlns="http://www.w3.org/2000/svg" width="256" height="200" fill="none" viewBox="0 0 256 200">
    <g clip-path="url(#a)">
        <path fill="#2B93A1" d="M89.8 196.126c24.663 0 44.656-3.781 44.656-8.446 0-4.665-19.993-8.446-44.655-8.446-24.663 0-44.656 3.781-44.656 8.446 0 4.665 19.993 8.446 44.656 8.446zM148.738 28.205c-16.412-.567-32.043-5.859-46.968-11.647C86.844 10.771 72.06 4.36 56.041 1.294 45.738-.68 33.955-.96 25.655 4.55c-7.99 5.317-10.572 14.47-11.959 22.969-1.045 6.395-1.659 13.128 1.202 19.116 1.988 4.157 5.513 7.65 7.952 11.634 8.488 13.854 2.488 30.939-6.707 44.467-4.31 6.345-9.32 12.406-12.649 19.153-3.33 6.748-4.868 14.505-1.955 21.407 2.886 6.836 9.766 11.961 17.218 15.569 15.137 7.329 32.966 9.426 50.364 10.616 38.501 2.628 77.205 1.491 115.808.349 14.287-.42 28.634-.848 42.688-3.053 7.805-1.226 15.861-3.17 21.529-7.864 7.191-5.958 8.974-16.045 4.153-23.514-8.084-12.532-30.429-15.644-36.087-29.091-3.109-7.403.084-15.647 4.605-22.51 9.697-14.729 25.949-27.649 26.804-44.48.588-11.561-7.225-23.14-19.305-28.61-12.662-5.735-30.222-5.014-39.559 4.478-9.623 9.763-26.527 13.523-41.019 13.019z" opacity=".1"/>
        <path fill="url(#b)" d="M135.696 91.588l-7.767-5.228 3.918-5.824-20.515-1.633-7.372 5.692-9.227-5.165-7.697.924-.09-2.025a57.097 57.097 0 0 0-.637-6.305c.033-.633.055-1.36.053-2.15 0-3.329-.451-7.742-2.434-10.684l.456-4.096-3.702-4.368a27.937 27.937 0 0 1 2.028-3.408c.127-.182.254-.36.39-.532 4.806-.346 8.597-4.291 8.597-9.114 0-.223 0-.446-.025-.666 0-.089-.018-.18-.028-.269.47.254.943.507 1.417.76.09.127.19.253.302.403l.023.027.142.175.046.053c.05.061.104.12.157.18l.035.04a9.942 9.942 0 0 0 .48.5l.19.177.053.048c.162.144.335.283.507.415l.056.04.218.15.071.045c.084.051.17.104.254.152l.03.018c.1.053.2.104.302.152l.05.02.254.107.079.027c.089.03.175.059.266.084l.056.015c.111.028.223.05.337.069h.013c.107.017.216.028.324.032h.074c.097.005.194.005.292 0h.063c.122-.007.243-.021.363-.043a4.004 4.004 0 0 0 1.597-.572 1.4 1.4 0 0 0 .325-.301c.507-.663-.051-1.39-.051-1.39-.198-.471-1.48-.803-1.48-.803s-4.058-1.691-4.058-3.038c0-1.347-1.014-8.335-11.485-9.933 0 0-6.811-.382-8.726 3.259l-.04.425c-.563.352-1.03 1.059-1.585 1.266a2.59 2.59 0 0 0-.687.253v-.048a.653.653 0 0 0-.155.2c-.12.237-.19.495-.21.76-.058.323-.17.634-.333.919a2.042 2.042 0 0 1-.152.233l-.043.068c.294.023.59-.024.862-.139a4.279 4.279 0 0 1-.253 1.013.843.843 0 0 0 .78-.466v-.02l.034-.046a2.13 2.13 0 0 0 .157-.367l-.028.03c.05-.164.096-.331.152-.493a.775.775 0 0 1 .125-.254.612.612 0 0 1 .524-.174l-.104 2.195h.046c-.061.16-.136.314-.223.46-.36.583-1.014.98-1.255 1.619a2.376 2.376 0 0 0-.117.957c0 .19.023.382.038.572v-.015c.036.506.046.987-.228 1.395-.188.278-.49.488-.594.805a.783.783 0 0 0-.038.273c.02.278.079.551.173.813a.035.035 0 0 0 0-.015c.063.192.078.398.043.597-.114.507-.73.93-.7 1.413a.542.542 0 0 0 .028.188c.118.236.324.417.573.506.391.222.84.32 1.288.283.168-.03.33-.085.482-.164-.177.407-.36.81-.545 1.192-.028.061-.058.122-.089.183 0 0-1.567-1.046-2.457 1.086-.26.443-.446.925-.55 1.428a3.398 3.398 0 0 1-.188.587 3.784 3.784 0 0 1-1.694 1.52c-1.816.83-9.15 9.962-9.279 12.327a13.77 13.77 0 0 1-.466 2.73 16.217 16.217 0 0 0-.436 6.453c.09.698.24 1.386.449 2.058.778 2.363 1.298 6.77 1.298 6.77l.842 7.652a21.737 21.737 0 0 0 .137 3.162c-.86.98-4.311 5.064-2.992 6.176 1.014.876 2.789.731 3.785.551-.839 2.074-2.16 5.679-2.335 8.156-.254 3.663.434 8.517 1.522 10.38 1.087 1.864 4.714 6.644 4.714 6.644s-.17 6.558 1.126 8.94c1.295 2.382 1.818 7.325 1.818 7.325s1.21 4.172.603 5.707c-.606 1.534 1.123 2.81-.692 3.83-1.816 1.021-4.139 24.018-4.139 24.018s-.935 15.072 0 15.839c.05.036.104.068.16.094v5.063s-.649 1.064 1.99 1.279c1.809.144 6.934.471 9.974.661l2.356.147s5.579 1.109 8.044 0c2.464-1.109 6.834-1.084 6.184-4.013a8.321 8.321 0 0 0-.344-1.173c-.713-1.818-1.923-2.025-4.152-2.532-.129-.027-.253-.053-.367-.073-2.349-.408-3.12.684-4.436-.737-1.143-1.228-4.784-2.602-6.024-3.038.03-.091.068-.18.098-.273a1.86 1.86 0 0 1-.94-.459l3.36.213 2 .124s4.742.944 6.847 0c2.105-.944 5.807-.919 5.254-3.408a7.121 7.121 0 0 0-.291-.997c-.606-1.545-1.636-1.714-3.53-2.142-.11-.023-.21-.046-.312-.064-1.996-.347-2.65.58-3.768-.625-.959-1.028-3.984-2.18-5.072-2.572 0-.562-.76-1.363-1.24-2.165-.563-.937.477-4.216.477-4.216l.593-13.603c.226-.101.465-.169.71-.203 0 0 2.683-2.557 2.077-5.281a17.474 17.474 0 0 1-.193-2.489c.883-.818 2.097-2.026 2.442-2.77.563-1.213 0-7.089 0-7.089v-22.471l4.489.453 4.072.418 1.24.127 4.073.41 9.359.944 8.434-1.595 3.649-.688 7.504-1.418V92.869l7.767-1.281zM73.921 30.846l-.522-.056c.172.008.355.04.522.056z"/>
        <path fill="#EFB7B9" d="M117.491 103.49c-2.535 3.623-11.652 1.704-11.652 1.704l-7.064-6.6-.951-.894 1.595-3.383s.507.14 1.377.388c4.567 1.324 18.836 5.739 16.695 8.785z"/>
        <path fill="#000" d="M100.791 94.705c-.312 1.083-1.167 2.706-2.016 3.889l-.951-.894 1.595-3.383s.512.14 1.372.388z" opacity=".1"/>
        <path fill="#DCE6F2" d="M76.561 56.56s-6.512 2.883-6.192 9.965c.23 4.562.728 9.107 1.49 13.611 0 0-1.33 10.657 4.213 13.404a293.335 293.335 0 0 0 10.673 5.005s8.672.932 9.75 1.317c1.078.385 4.446-5.5 3.824-6.416-.621-.916-8.58-2.838-9.595-4.367-1.015-1.53-3.36-2.474-3.36-2.474s-2.422-1.463-2.587-2.785c-.165-1.322.474-2.306.637-2.886.162-.58.573-6.178.573-6.178S88.72 54.83 76.56 56.559z"/>
        <path fill="#000" d="M80.86 79.845s-8.934 1.494-8.07 4.616c0 0 3.244-3.37 8.07-4.616zM80.928 81.109s-4.912 4.002-3.95 4.207c.96.206 3.95-4.207 3.95-4.207zM83.289 82.504s-1.317 2.69-.508 2.509c.81-.183.508-2.51.508-2.51z" opacity=".1"/>
        <path fill="#000" d="M101.12 94.99l-.542-.154c.154-.506.198-.916.071-1.106-.622-.917-8.576-2.836-9.588-4.368-1.012-1.531-3.36-2.473-3.36-2.473s-2.422-1.464-2.587-2.785c-.164-1.322.475-2.307.637-2.887.162-.58.573-6.18.573-6.18s2.726-19.923-9.433-18.194c0 0-6.512 2.886-6.195 9.968.23 4.562.728 9.107 1.493 13.611 0 0-1.33 10.657 4.212 13.404 5.544 2.747 10.674 5.006 10.674 5.006s8.67.929 9.75 1.316c.408.147 1.146-.61 1.869-1.65l.41.382 7.065 6.598s9.116 1.921 11.652-1.702c2.143-3.048-12.123-7.464-16.701-8.785z" opacity=".1"/>
        <path fill="#965D7B" d="M72.813 29.98c-.248.048-.486.14-.702.27-.254.21-.254.57-.317.884-.075.437-.248.851-.507 1.21.288.022.578-.026.844-.139a4.335 4.335 0 0 1-.254 1.013.822.822 0 0 0 .761-.463c.134-.286.24-.583.317-.889a.731.731 0 0 1 .122-.253c.233-.276.667-.152 1.027-.116a1.69 1.69 0 0 0 1.542-.74c.383-.58.405-2.063-.508-2.22-.953-.157-1.546 1.154-2.325 1.443z"/>
        <g fill="#000" opacity=".1">
            <path d="M72.084 30.562c.023-.124.038-.253.066-.377-.24.21-.253.567-.317.884a2.788 2.788 0 0 1-.149.534c.2-.318.335-.671.4-1.04zM72.167 32.654c.126-.326.211-.666.253-1.013a1.818 1.818 0 0 1-.804.139c-.08.178-.177.348-.291.506a1.81 1.81 0 0 0 .842-.136 4.201 4.201 0 0 1-.254 1.012.825.825 0 0 0 .76-.463c.064-.115.115-.236.153-.362a.76.76 0 0 1-.66.316zM74.393 30.932c-.36-.036-.796-.16-1.03.116a.784.784 0 0 0-.121.254 2.65 2.65 0 0 0-.06.202c.24-.19.63-.089.958-.056a1.697 1.697 0 0 0 1.541-.739c.077-.123.135-.257.17-.397a1.69 1.69 0 0 1-1.458.62z" opacity=".1"/>
        </g>
        <path fill="#DCE6F2" d="M80.446 50.89l3.867 4.644-.504 4.687-4.674-7.305 1.311-2.025z"/>
        <path fill="#000" d="M84.31 55.534l-.473 4.408-.03.279-4.218-6.593-.454-.712.132-.205 1.177-1.82.26.314 3.607 4.329z" opacity=".1"/>
        <path fill="#EFB7B9" d="M86.32 44.604c-1.31.375-2.56 1.66-3.647 3.223a27.518 27.518 0 0 0-1.968 3.378c-.358.714-.672 1.4-.933 1.997l-.183.425a33.691 33.691 0 0 0-.687 1.737s-10.017-7.52-8.432-8.026c.533-.17 1.233-1.309 1.925-2.744l.086-.183c.439-.921.87-1.949 1.253-2.916.784-1.988 1.364-3.714 1.364-3.714s15.215 5.684 11.221 6.823z"/>
        <path fill="#444053" d="M92.311 37.358s2.313 4.177 5.42 3.608c3.105-.57 1.827-2.244 1.827-2.244l-7.247-1.364z"/>
        <path fill="#A36468" d="M87.83 181.965c-2.049.935-6.682 0-6.682 0l-1.952-.121c-2.536-.162-6.781-.436-8.282-.557-2.191-.18-1.654-1.076-1.654-1.076v-5.416l10.63-2.689s4.202 1.436 5.354 2.689c1.093 1.195 1.732.276 3.682.621.096.017.197.038.304.063 1.851.423 2.855.59 3.449 2.122.119.321.215.651.286.987.548 2.466-3.089 2.448-5.135 3.377z"/>
        <path fill="#000" d="M92.679 177.601c-.381.237-.782.442-1.197.612-1.395.636-2.721 1.411-4.131 2.011-1.41.6-2.929 1.028-4.456.914-.798-.059-1.615-.254-2.378-.026a5.478 5.478 0 0 0-1.321.732c-2.536-.162-6.781-.436-8.282-.557-2.191-.18-1.654-1.076-1.654-1.076v-.633c.079 0 .168-.023.27-.03a4.775 4.775 0 0 1 1.546.23c1.1.299 2.196.592 3.297.886a2.601 2.601 0 0 1 1.267-1.615 4.048 4.048 0 0 1 2.044-.469c1.707.023 3.322.831 5.026.912.477.044.956-.037 1.393-.233.233-.117.438-.286.666-.415a4.858 4.858 0 0 1 1.15-.388 25.208 25.208 0 0 0 3.283-1.058c.304-.119.66-.334.619-.658-.053-.431-.73-.481-.908-.876a.508.508 0 0 1 .02-.448c.097.017.198.038.304.063 1.844.423 2.848.59 3.442 2.122z" opacity=".1"/>
        <path fill="#A36468" d="M85.665 193.815c-2.41 1.098-7.861 0-7.861 0l-2.295-.135c-2.972-.189-7.978-.506-9.745-.655-2.58-.213-1.945-1.266-1.945-1.266v-6.383l12.509-3.165s4.945 1.689 6.299 3.165c1.286 1.405 2.029.324 4.334.729.114.02.233.046.357.073 2.178.507 3.36.697 4.058 2.499.14.379.253.767.337 1.163.629 2.901-3.64 2.878-6.048 3.975z"/>
        <path fill="#000" d="M91.37 188.677a9.41 9.41 0 0 1-1.407.722c-1.64.747-3.203 1.658-4.861 2.365-1.659.706-3.446 1.207-5.244 1.076-.938-.069-1.9-.304-2.79-.031a6.472 6.472 0 0 0-1.559.871c-2.972-.189-7.978-.506-9.745-.655-2.58-.213-1.945-1.266-1.945-1.266v-.745c.105-.017.21-.029.317-.035a5.57 5.57 0 0 1 1.82.271l3.878 1.043a3.056 3.056 0 0 1 1.504-1.901 4.73 4.73 0 0 1 2.406-.552c2.008.027 3.908.977 5.913 1.073a3.272 3.272 0 0 0 1.634-.271c.276-.139.507-.339.786-.488.429-.21.883-.363 1.351-.456a30.48 30.48 0 0 0 3.845-1.246c.357-.142.776-.395.727-.775-.063-.506-.86-.567-1.07-1.033a.61.61 0 0 1 .026-.526c.114.02.233.045.357.073 2.178.486 3.36.684 4.057 2.486z" opacity=".1"/>
        <path fill="#444053" d="M80.213 150.016l-.677 15.908s-1.015 3.248-.464 4.177c.55.929 1.478 1.856 1.14 2.405-.337.55-4.394 6.49-5.705 4.211-1.31-2.279-2.604-12.153-2.604-12.153l1.21-12.196 7.1-2.352zM83.15 110.382l1.881 2.512v21.845s.55 5.823 0 7.025c-.55 1.203-3.34 3.608-3.34 3.608l-2.345-12.026.507-12.723 3.296-10.241z"/>
        <path fill="#000" d="M80.213 150.016l-.677 15.908s-1.015 3.248-.464 4.177c.55.929 1.478 1.856 1.14 2.405-.337.55-4.394 6.49-5.705 4.211-1.31-2.279-2.604-12.153-2.604-12.153l1.21-12.196 7.1-2.352zM83.15 110.382l1.881 2.512v21.845s.55 5.823 0 7.025c-.55 1.203-3.34 3.608-3.34 3.608l-2.345-12.026.507-12.723 3.296-10.241z" opacity=".1"/>
        <path fill="#444053" d="M85.03 101.065v11.816l-2.112 9.198s-.677 22.197-.086 24.896c.591 2.699-2.028 5.233-2.028 5.233s-1.522.17-1.522 1.35c0 1.18-2.536 4.557-2.536 4.557l.084 6.583s1.1 12.323-.591 14.685.59 2.702.59 2.702c-2.111 6.919-12.255 5.316-13.17 4.557-.916-.76 0-15.698 0-15.698s2.267-22.787 4.042-23.799c1.775-1.013.086-2.279.677-3.798.59-1.519-.59-5.654-.59-5.654s-.508-4.896-1.776-7.259c-1.268-2.362-1.1-8.861-1.1-8.861s-3.55-4.727-4.606-6.583c-1.054-1.856-1.734-6.666-1.48-10.297.172-2.454 1.463-6.026 2.282-8.082.393-.985.677-1.623.677-1.623l.24.064 13.851 3.62 9.155 2.393z"/>
        <path fill="#000" d="M86.32 44.604c-1.31.375-2.56 1.66-3.647 3.223h-.284a9.068 9.068 0 0 1-8.658-6.35c.784-1.987 1.365-3.714 1.365-3.714s15.217 5.702 11.223 6.841z" opacity=".1"/>
        <path fill="#EFB7B9" d="M91.454 38.274a9.041 9.041 0 0 1-3.52 7.176 9.072 9.072 0 0 1-7.843 1.595 9.069 9.069 0 0 1-6.051-5.229 9.038 9.038 0 0 1 .455-7.978 9.17 9.17 0 0 1 3.043-3.21 9.075 9.075 0 0 1 12.401 2.614 9.042 9.042 0 0 1 1.503 4.369c.005.223.012.443.012.663z"/>
        <path fill="#000" d="M83.837 59.942l-.03.279-4.218-6.583c-.441 1.04-.687 1.736-.687 1.736s-10.017-7.53-8.432-8.036c.533-.17 1.233-1.309 1.925-2.744l.086-.183c.736 2.188 5.008 6.56 6.786 8.313.205.202.375.37.507.49l.272.254.141.142c.647.666 3.376 3.603 3.65 6.332z" opacity=".1"/>
        <path fill="#DCE6F2" d="M86.988 82.278l-.461 14.83-.082 2.64s-5.467-.506-10.569-1.063c-4.108-.448-7.98-.932-8.576-1.216-.76-.357-2.391-.632-3.677-.807-.994-.134-1.775-.205-1.775-.205s-.291.086-.74.167c-.98.177-2.698.321-3.7-.547-1.28-1.112 2.084-5.15 2.924-6.12l.185-.21-.317-2.924-.824-7.583s-.507-4.367-1.268-6.71a12.353 12.353 0 0 1-.439-2.038 16.3 16.3 0 0 1 .426-6.395c.241-.885.394-1.792.457-2.707.126-2.342 7.29-11.393 9.065-12.216a3.76 3.76 0 0 0 1.816-1.808c.123-.25.216-.514.276-.787.76-3.292 2.686-1.985 2.686-1.985.464 2.575 7.648 9.39 7.648 9.39l.142.142c.712.73 3.887 4.153 3.661 7.074a8.564 8.564 0 0 0 .48 3.2 54.042 54.042 0 0 1 2.497 14.18l.165 3.698z"/>
        <path fill="#000" d="M76.81 64.669s-1.776 4.304-3.107 5c-1.331.697 3.74 1.469 3.107-5zM78.14 72.708s-4.056.506-4.056 1.266 4.057-1.266 4.057-1.266zM82.388 77.645s-5.895 12.533-7.544 12.912c-1.648.38 7.544-12.912 7.544-12.912zM79.931 54.62l-4.876 2.117-5.886-8.877c.124-.25.217-.515.277-.788.76-3.29 2.685-1.984 2.685-1.984.464 2.575 7.648 9.39 7.648 9.39l.152.142z" opacity=".1"/>
        <path fill="#DCE6F2" d="M80.185 54.114l-4.877 2.116-5.885-8.876c.123-.25.216-.515.276-.788.761-3.291 2.686-1.985 2.686-1.985.464 2.575 7.648 9.39 7.648 9.39l.152.143z"/>
        <path fill="#000" d="M86.446 99.748s-5.467-.506-10.57-1.063l9.155 2.392v2.785c-.4.362-.748.55-.974.454-1.055-.443-9.664-1.836-9.664-1.836s-5-2.532-10.397-5.57a5.99 5.99 0 0 1-1.978-1.836c-.996-1.44-1.483-3.291-1.694-5.106a22.042 22.042 0 0 1-.131-3.135 25.67 25.67 0 0 1 .324-3.542 116.314 116.314 0 0 1-.76-13.672c.063-7.09 6.72-9.621 6.72-9.621 12.235-1.076 8.441 18.672 8.441 18.672s-.707 5.57-.9 6.14c-.193.57-.885 1.52-.791 2.848.093 1.33 2.431 2.92 2.431 2.92s2.283 1.068 3.224 2.65c.684 1.168 5.132 2.75 7.645 3.88l-.081 2.64zM90.544 32.654c.005.417-.082.83-.254 1.21-.13.31-.28.611-.451.901a4.152 4.152 0 0 1-1.11 1.377c-.587.418-1.327.535-2.03.704-.702.17-1.432.44-1.833 1.038a3.628 3.628 0 0 0-.428 1.241 2.667 2.667 0 0 1-.508 1.2.997.997 0 0 1-1.186.284 1.198 1.198 0 0 1-.46-.59c-.288-.651-.362-1.372-.479-2.074-.116-.701-.281-1.423-.712-1.987-.431-.565-1.195-.937-1.872-.717a1.804 1.804 0 0 0-1.014.983 5.622 5.622 0 0 0-.383 1.397 79.81 79.81 0 0 1-1.113 5.125.472.472 0 0 1-.084.192.365.365 0 0 1-.253.106c-.568.076-1.114-.321-1.687-.278a.968.968 0 0 0-.175.028 9.035 9.035 0 0 1 .916-10.33l.046-.013a2.734 2.734 0 0 0 1.014-.638 10.68 10.68 0 0 0 1.014-1.172l.203-.253a11.561 11.561 0 0 1 1.978-1.877c.2-.163.428-.287.674-.364.211-.041.427-.048.64-.02.875.105 1.758.138 2.64.098a16.97 16.97 0 0 1 1.853-.187c1.605.046 2.974 1.177 3.989 2.418.545.635 1.032 1.367 1.065 2.198z" opacity=".1"/>
        <path fill="#965D7B" d="M73.31 34.079c-.352.577-.989.97-1.227 1.603-.35.919.24 2.063-.302 2.883-.18.276-.477.482-.578.798-.172.534.3 1.104.177 1.653-.121.55-.846 1.013-.654 1.55.114.234.314.415.558.506.384.22.827.318 1.268.281.692-.114 1.207-.792 1.91-.843.57-.04 1.115.355 1.683.281a.38.38 0 0 0 .254-.109.438.438 0 0 0 .084-.192 82.868 82.868 0 0 0 1.115-5.125c.065-.48.193-.95.38-1.397a1.818 1.818 0 0 1 1.015-.983c.677-.217 1.438.152 1.871.717.434.565.599 1.286.715 1.987.117.702.19 1.423.477 2.074.087.241.249.449.462.593.38.22.892.045 1.184-.284.267-.352.442-.766.507-1.203.066-.435.212-.855.429-1.238.4-.597 1.133-.868 1.833-1.038.7-.17 1.438-.289 2.029-.706a4.169 4.169 0 0 0 1.11-1.375c.376-.653.726-1.362.695-2.114-.033-.82-.52-1.552-1.04-2.19-1.014-1.24-2.386-2.373-3.99-2.416-.622.026-1.24.089-1.855.188-.88.04-1.764.005-2.64-.102a2.079 2.079 0 0 0-.638.023c-.247.075-.475.2-.672.365a11.566 11.566 0 0 0-1.98 1.873c-.377.499-.785.972-1.223 1.418a2.752 2.752 0 0 1-1.014.64c-.254.072-.507.021-.748.1-.748.235-.847 1.21-1.195 1.782z"/>
        <path fill="#000" d="M97.73 40.963c-2.029.372-3.71-1.266-4.64-2.46a9.953 9.953 0 0 1-.779-1.145l6.963 1.311.282.053s1.28 1.674-1.826 2.241z" opacity=".1"/>
        <g fill="#000" opacity=".1">
            <path d="M71.38 40.292a2.108 2.108 0 0 0-.147-.972c0 .025-.023.05-.03.076-.11.34.037.691.13 1.043a.756.756 0 0 0 .046-.147zM71.984 36.148c-.026.35-.019.701.02 1.05a5.64 5.64 0 0 0-.02-1.05zM89.595 33.78a4.155 4.155 0 0 1-1.11 1.378c-.586.417-1.324.534-2.029.703-.705.17-1.433.441-1.833 1.039a3.643 3.643 0 0 0-.429 1.24c-.066.437-.24.85-.507 1.203-.292.329-.804.506-1.184.283a1.21 1.21 0 0 1-.462-.592c-.286-.65-.362-1.37-.477-2.074-.114-.704-.284-1.423-.715-1.987-.43-.565-1.194-.937-1.871-.717a1.81 1.81 0 0 0-1.014.983 5.51 5.51 0 0 0-.38 1.397 80.415 80.415 0 0 1-1.117 5.125.437.437 0 0 1-.083.192.38.38 0 0 1-.254.109c-.568.073-1.113-.322-1.684-.281-.702.05-1.217.73-1.91.84a2.145 2.145 0 0 1-1.267-.28 1.356 1.356 0 0 1-.464-.33.683.683 0 0 0-.094.59.988.988 0 0 0 .558.507c.383.222.826.32 1.268.28.692-.11 1.207-.79 1.91-.84.57-.04 1.115.355 1.683.281a.38.38 0 0 0 .254-.109.437.437 0 0 0 .083-.192 80.14 80.14 0 0 0 1.116-5.125c.065-.48.193-.95.38-1.397a1.806 1.806 0 0 1 1.015-.983c.677-.22 1.438.152 1.871.717.434.564.599 1.286.715 1.987.117.702.19 1.423.477 2.074.087.241.249.449.462.593.38.22.892.045 1.184-.284.267-.352.441-.766.507-1.203.067-.436.212-.856.429-1.24.4-.598 1.133-.866 1.833-1.038.7-.173 1.438-.286 2.029-.704a4.155 4.155 0 0 0 1.11-1.378c.376-.65.726-1.36.695-2.111a2.712 2.712 0 0 0-.03-.289 4.968 4.968 0 0 1-.665 1.633z" opacity=".1"/>
        </g>
        <path fill="#000" d="M90.3 33.856a8.936 8.936 0 0 1 1.129 3.76c-2.26-1.266-4.385-2.656-5.457-3.14-1.87-.843-8.858-.716-11.485-.637.275-.49.596-.954.958-1.383a9.08 9.08 0 0 1 14.867 1.395l-.012.005zM98.364 39.89c-1.22.374-3.21-.35-5.275-1.388a9.953 9.953 0 0 1-.778-1.144l6.963 1.311c.462.314.579.762-.91 1.22z" opacity=".1"/>
        <path fill="#444053" d="M82.928 25.078s-6.656-.38-8.527 3.228l-.302 3.198-.507-.056-.102 2.175s10.174-.443 12.49.6c2.314 1.043 9.508 6.3 12.392 5.413 2.883-.886-.254-1.709-.254-1.709s-3.968-1.678-3.968-2.995c0-1.316-.984-8.271-11.222-9.854z"/>
        <path fill="#000" d="M70.09 143.62s4.247 4.115 6.086 3.798c0 0-5.199-.443-6.086-3.798zM69.202 145.527s.38 2.116 1.395 1.909c1.014-.208-1.395-1.909-1.395-1.909zM75.859 180.902s-6.03 4.684-5.013 4.811c1.016.126 5.013-4.811 5.013-4.811z" opacity=".1"/>
        <path fill="#2B93A1" d="M83.925 87.94l19.526-3.173v18.457l-18.552-.969-.974-14.316z"/>
        <path fill="#000" d="M83.925 87.94l19.526-3.173v18.457l-18.552-.969-.974-14.316z" opacity=".05"/>
        <path fill="#2B93A1" d="M103.451 84.767l23.415 1.75-1.295 16.062-22.12.645V84.767z"/>
        <path fill="#000" d="M103.451 84.767l23.415 1.75-1.295 16.062-22.12.645V84.767z" opacity=".1"/>
        <path fill="#2B93A1" d="M110.65 79.134l-7.199 5.633 23.415 1.75 3.827-5.766-20.043-1.617zM76.855 81.787l17.578-2.137 9.018 5.117-19.526 3.172-7.07-6.152z"/>
        <path fill="#2B93A1" d="M107.731 89.56v25.235l-9.146-.937-3.979-.405-1.212-.126-3.976-.408-5.493-.562V87.939l19.523 1.327 4.283.294zM126.867 86.516v24.61l-7.331 1.406-3.566.683-8.239 1.58V89.56l19.136-3.044z"/>
        <path fill="#000" d="M126.867 86.516v24.61l-7.331 1.406-3.566.683-8.239 1.58V89.56l19.136-3.044z" opacity=".05"/>
        <path fill="#2B93A1" d="M76.855 93.251l7.07-5.312 23.806 1.62-3.505 5.895-27.371-2.203z"/>
        <path fill="#fff" d="M76.855 93.251l7.07-5.312 23.806 1.62-3.505 5.895-27.371-2.203z" opacity=".1"/>
        <path fill="#2B93A1" d="M126.867 86.516l-19.136 3.044 6.228 5.57 20.497-3.433-7.589-5.18z"/>
        <path fill="#fff" d="M126.867 86.516l-19.136 3.044 6.228 5.57 20.497-3.433-7.589-5.18zM119.536 112.531l-3.566.684v-5.259l3.34-.84.226 5.415zM98.585 110.379v3.479l-3.979-.405v-3.074h3.979zM93.394 111.476v1.851l-3.977-.408v-1.443h3.977z" opacity=".1"/>
        <path fill="#000" d="M105.338 108.534c-2.726 3.481-11.728 1.076-11.728 1.076l-6.69-6.968-.908-.944 1.775-3.292s.507.167 1.354.461c4.484 1.565 18.492 6.737 16.197 9.667z" opacity=".1"/>
        <path fill="#EFB7B9" d="M105.084 108.027c-2.726 3.482-11.728 1.076-11.728 1.076l-6.69-6.967-.907-.945 1.775-3.291s.507.167 1.354.46c4.483 1.565 18.491 6.738 16.196 9.667z"/>
        <path fill="#000" d="M88.878 98.36c-.37 1.064-1.311 2.639-2.222 3.776l-.907-.945 1.775-3.291s.51.167 1.354.46z" opacity=".1"/>
        <path fill="#DCE6F2" d="M66.73 58.985s-6.657 2.532-6.72 9.621c-.015 4.568.239 9.134.76 13.672 0 0-1.901 10.57 3.487 13.609a293.965 293.965 0 0 0 10.397 5.57s8.61 1.393 9.667 1.836c1.057.443 4.731-5.254 4.161-6.203-.57-.95-8.409-3.292-9.34-4.874-.93-1.583-3.222-2.649-3.222-2.649s-2.338-1.592-2.432-2.921c-.094-1.33.596-2.279.79-2.849.196-.57.904-6.14.904-6.14s3.783-19.76-8.452-18.672z"/>
        <path fill="#000" d="M69.773 82.455s-9.002 1.013-8.305 4.178c0 0 3.421-3.193 8.305-4.178zM69.773 83.721s-5.11 3.735-4.172 3.988c.939.253 4.172-3.988 4.172-3.988zM72.055 85.24s-1.458 2.618-.634 2.482c.824-.137.634-2.481.634-2.481z" opacity=".1"/>
        <path fill="#2B93A1" d="M165.784 28.456s-9.636-.58-8.51 6.17c0 0-.226 1.192.857 1.734 0 0 .017-.506.989-.331a4.45 4.45 0 0 0 1.047.05 2.175 2.175 0 0 0 1.283-.529s2.711-1.117 3.766-5.542c0 0 .781-.967.761-1.216l-1.628.697s.555 1.172.116 2.147c0 0-.051-2.104-.365-2.056-.063 0-.844.408-.844.408s.956 2.04.233 3.526c0 0 .274-2.516-.533-3.38l-1.146.669s1.118 2.109.36 3.83c0 0 .196-2.64-.601-3.668l-1.039.807s1.052 2.082.41 3.51c0 0-.083-3.074-.636-3.307 0 0-.908.8-1.045 1.13 0 0 .718 1.518.272 2.306 0 0-.274-2.049-.508-2.059 0 0-.905 1.357-.999 2.279.044-.86.312-1.692.779-2.415a2.72 2.72 0 0 0-1.385.716s.14-.96 1.608-1.043c0 0 .761-1.03.948-1.094 0 0-1.46-.121-2.345.271 0 0 .778-.904 2.614-.506l1.014-.836s-1.922-.253-2.738.028c0 0 .938-.8 3.015-.218l1.116-.665s-1.639-.355-2.615-.226c0 0 1.03-.554 2.942.046l.798-.357s-1.202-.236-1.551-.274c-.35-.038-.371-.134-.371-.134a4.156 4.156 0 0 1 2.255.253s1.711-.615 1.676-.721z"/>
        <path fill="#2B93A1" d="M195.062 62.216s-9.636-.58-8.51 6.17c0 0-.226 1.192.857 1.734 0 0 .018-.506.992-.332.345.059.697.076 1.047.051a2.176 2.176 0 0 0 1.268-.526s2.713-1.12 3.768-5.545c0 0 .778-.965.748-1.213l-1.628.694s.555 1.172.119 2.147c0 0-.053-2.104-.365-2.056-.063 0-.847.407-.847.407s.959 2.044.236 3.527c0 0 .274-2.516-.535-3.38l-1.134.661s1.119 2.11.36 3.83c0 0 .196-2.64-.601-3.668l-1.037.81s1.05 2.079.411 3.507c0 0-.084-3.074-.636-3.307 0 0-.908.8-1.048 1.13 0 0 .721 1.519.274 2.306 0 0-.274-2.048-.507-2.058 0 0-.905 1.357-.999 2.278.045-.859.314-1.691.781-2.415a2.729 2.729 0 0 0-1.387.716s.142-.96 1.61-1.043c0 0 .748-1.03.949-1.093 0 0-1.461-.122-2.346.27 0 0 .778-.903 2.612-.493l1.014-.836s-1.925-.253-2.739.028c0 0 .939-.8 3.015-.218l1.116-.666s-1.64-.351-2.617-.225c0 0 1.032-.554 2.944.046l.799-.357s-1.202-.236-1.554-.274c-.353-.038-.371-.134-.371-.134a4.162 4.162 0 0 1 2.257.253s1.715-.62 1.684-.726zM136.523 56.223s2.219-9.391-4.638-9.424c0 0-1.139-.425-1.856.547 0 0 .489.104.157 1.03a4.455 4.455 0 0 0-.228 1.013c-.05.47.056.945.301 1.35 0 0 .642 2.86 4.818 4.653 0 0 .822.932 1.07.942l-.405-1.719s-1.253.347-2.14-.253c0 0 2.086.306 2.089 0 0-.064-.254-.902-.254-.902s-2.178.593-3.522-.372c0 0 2.437.7 3.429.053l-.457-1.245s-2.282.742-3.844-.299c0 0 2.574.643 3.725.035l-.621-1.16s-2.232.68-3.533-.194c0 0 3.043.44 3.373-.06 0 0-.634-1.031-.936-1.224 0 0-1.613.45-2.323-.124 0 0 2.067.079 2.115-.14 0 0-1.184-1.12-2.087-1.374a4.97 4.97 0 0 1 2.255 1.18 2.74 2.74 0 0 0-.472-1.486s.923.304.761 1.772c0 0 .887.911.915 1.12 0 0 .368-1.416.132-2.355 0 0 .761.921.043 2.655l.649 1.152s.589-1.848.439-2.698c0 0 .631 1.058-.299 3.002l.469 1.213s.626-1.555.667-2.532c0 0 .373 1.11-.548 2.889l.218.846s.436-1.142.533-1.481c.096-.34.195-.342.195-.342a4.151 4.151 0 0 1-.631 2.177s.332 1.767.441 1.755zM115.42 59.423s-7.74-5.78-10.506.481c0 0-.845.874-.239 1.92 0 0 .29-.408 1.015.268.257.238.541.446.847.617.414.23.892.32 1.362.254 0 0 2.88.554 6.197-2.563 0 0 1.184-.38 1.296-.602l-1.747-.307s-.183 1.284-1.083 1.859c0 0 1.113-1.788.824-1.917-.058-.028-.931-.127-.931-.127s-.324 2.234-1.744 3.077c0 0 1.615-1.952 1.415-3.117l-1.327-.07s-.225 2.377-1.808 3.4c0 0 1.616-2.1 1.522-3.396l-1.314.106s-.266 2.312-1.587 3.153c0 0 1.62-2.613 1.288-3.11 0 0-1.199.17-1.496.368 0 0-.231 1.656-1.042 2.076 0 0 .9-1.861.717-1.99 0 0-1.503.635-2.094 1.36a4.953 4.953 0 0 1 1.983-1.59 2.736 2.736 0 0 0-1.552-.163s.644-.724 1.917.013c0 0 1.192-.448 1.395-.392 0 0-1.154-.904-2.11-1.061 0 0 1.151-.33 2.457 1.013l1.316-.135s-1.463-1.266-2.302-1.478c0 0 1.224-.155 2.637 1.47l1.298.059s-1.174-1.195-2.059-1.626c0 0 1.164.102 2.432 1.654l.865.139s-.875-.856-1.149-1.079c-.274-.222-.236-.316-.236-.316a4.156 4.156 0 0 1 1.747 1.448s1.763.408 1.796.304zM141.186 5.72s-7.739-5.783-10.506.48c0 0-.844.874-.238 1.92 0 0 .289-.408 1.014.268.259.237.544.444.85.615.414.23.892.32 1.362.254 0 0 2.88.554 6.197-2.565 0 0 1.184-.378 1.293-.603l-1.747-.301s-.18 1.284-1.083 1.858c0 0 1.116-1.787.827-1.916-.058-.028-.931-.127-.931-.127s-.334 2.238-1.754 3.076c0 0 1.612-1.952 1.415-3.116l-1.327-.071s-.228 2.377-1.808 3.397c0 0 1.616-2.099 1.522-3.395l-1.311.107s-.269 2.314-1.59 3.154c0 0 1.623-2.613 1.291-3.109 0 0-1.2.17-1.496.367 0 0-.231 1.656-1.043 2.076 0 0 .901-1.86.718-1.992 0 0-1.504.638-2.095 1.362a4.932 4.932 0 0 1 1.983-1.59 2.716 2.716 0 0 0-1.554-.162s.647-.724 1.92.013c0 0 1.191-.451 1.394-.393 0 0-1.154-.904-2.11-1.063 0 0 1.149-.327 2.455 1.012l1.316-.134s-1.46-1.266-2.302-1.48c0 0 1.224-.153 2.639 1.473l1.299.055s-1.174-1.195-2.062-1.623c0 0 1.167.102 2.435 1.654l.862.139s-.878-.846-1.152-1.063c-.273-.218-.235-.314-.235-.314.705.311 1.31.813 1.747 1.448 0 0 1.762.385 1.805.289zM170.759 13.044s-3.094-9.142-8.928-5.55c0 0-1.192.254-1.286 1.446 0 0 .469-.172.677.79.077.342.194.674.347.99.21.425.552.77.974.985 0 0 2.059 2.089 6.563 1.397 0 0 1.189.36 1.407.236l-1.268-1.243s-.877.954-1.947.916c0 0 1.935-.84 1.775-1.111-.033-.053-.695-.628-.695-.628s-1.537 1.653-3.185 1.544c0 0 2.437-.693 2.934-1.772l-1.05-.808s-1.537 1.828-3.421 1.773c0 0 2.536-.813 3.178-1.937l-1.141-.656s-1.522 1.755-3.099 1.699c0 0 2.82-1.233 2.827-1.83 0 0-1.083-.54-1.44-.545 0 0-1.131 1.233-2.029 1.122 0 0 1.796-1.026 1.72-1.236 0 0-1.598-.327-2.498-.063a4.95 4.95 0 0 1 2.536-.19 2.738 2.738 0 0 0-1.19-1.013s.944-.23 1.575 1.096c0 0 1.238.307 1.369.466 0 0-.436-1.395-1.133-2.068 0 0 1.133.382 1.443 2.233l1.161.633s-.479-1.876-1.057-2.532c0 0 1.098.567 1.336 2.707l1.04.782s-.289-1.65-.776-2.507c0 0 .903.745 1.065 2.742l.631.603s-.233-1.2-.329-1.54c-.097-.339-.018-.361-.018-.361.403.656.616 1.412.616 2.182 0 0 1.227 1.314 1.316 1.248zM150.569 13.495s-9.611-1.069-8.817 5.74c0 0-.287 1.18.76 1.772 0 0 .044-.506 1.015-.279.343.074.693.109 1.044.104a2.18 2.18 0 0 0 1.306-.463s2.767-.98 4.058-5.347c0 0 .826-.925.809-1.175l-1.661.613s.507 1.197 0 2.15c0 0 .053-2.105-.254-2.072-.063 0-.865.365-.865.365s.852 2.088.056 3.544c0 0 .401-2.501-.362-3.403l-1.18.608s1.015 2.165.165 3.846c0 0 .33-2.628-.413-3.694l-1.078.76s.944 2.129.231 3.524c0 0 .073-3.074-.467-3.335 0 0-.948.76-1.103 1.074 0 0 .642 1.544.158 2.317 0 0-.17-2.059-.394-2.08 0 0-.973 1.31-1.115 2.234a4.93 4.93 0 0 1 .902-2.375 2.734 2.734 0 0 0-1.42.646s.188-.95 1.659-.96c0 0 .799-.99 1.014-1.043 0 0-1.453-.195-2.358.152 0 0 .824-.866 2.635-.362l1.067-.783s-1.93-.39-2.746-.136c0 0 .979-.76 3.023-.063l1.148-.61s-1.62-.436-2.601-.358c0 0 1.057-.506 2.936.195l.817-.316s-1.19-.296-1.54-.352c-.35-.056-.362-.152-.362-.152a4.176 4.176 0 0 1 2.241.365s1.709-.545 1.692-.651zM234.656 87.975s-9.605-1.069-8.812 5.732c0 0-.286 1.18.761 1.772 0 0 .043-.506 1.015-.28a4.38 4.38 0 0 0 1.044.103c.475-.007.934-.17 1.306-.463 0 0 2.767-.98 4.045-5.345 0 0 .827-.927.809-1.175l-1.661.61s.507 1.2 0 2.153c0 0 .053-2.107-.254-2.072-.063 0-.864.362-.864.362s.852 2.09.055 3.545c0 0 .401-2.499-.362-3.403l-1.179.61s1.014 2.165.167 3.846c0 0 .327-2.628-.416-3.696l-1.078.76s.944 2.129.231 3.521c0 0 .074-3.074-.466-3.332 0 0-.946.76-1.104 1.074 0 0 .645 1.544.158 2.317 0 0-.17-2.059-.393-2.08 0 0-.974 1.31-1.116 2.234a4.921 4.921 0 0 1 .903-2.375 2.704 2.704 0 0 0-1.42.646s.187-.952 1.658-.963c0 0 .801-.99 1.014-1.04 0 0-1.453-.198-2.358.15 0 0 .824-.864 2.637-.36l1.065-.783s-1.907-.36-2.736-.111c0 0 .979-.76 3.023-.066l1.149-.607s-1.621-.436-2.602-.357c0 0 1.057-.507 2.936.195l.817-.32s-1.19-.296-1.539-.349c-.35-.053-.363-.152-.363-.152a4.164 4.164 0 0 1 2.242.362s1.714-.554 1.688-.663zM249.341 96.933s-9.606-1.066-8.812 5.732c0 0-.284 1.18.761 1.772 0 0 .043-.506 1.014-.278.342.074.692.108 1.042.101.472-.01.929-.171 1.301-.461 0 0 2.764-.98 4.042-5.347 0 0 .829-.924.809-1.175l-1.661.61s.507 1.2 0 2.152c0 0 .053-2.104-.253-2.07-.064 0-.865.361-.865.361s.852 2.089.056 3.545c0 0 .4-2.5-.363-3.4l-1.179.607s1.014 2.165.167 3.846c0 0 .327-2.628-.416-3.694l-1.077.76s.943 2.129.233 3.524c0 0 .071-3.076-.469-3.334 0 0-.946.759-1.103 1.073 0 0 .644 1.545.157 2.317 0 0-.17-2.059-.393-2.079 0 0-.974 1.309-1.113 2.233a4.943 4.943 0 0 1 .9-2.375 2.73 2.73 0 0 0-1.42.646s.19-.952 1.661-.96c0 0 .799-.99 1.014-1.043 0 0-1.453-.195-2.358.152 0 0 .824-.866 2.637-.362l1.065-.782s-1.907-.36-2.736-.112c0 0 .979-.76 3.023-.063l1.148-.61s-1.62-.436-2.601-.357c0 0 1.057-.506 2.936.195l.817-.317s-1.19-.296-1.537-.352c-.347-.055-.365-.151-.365-.151a4.175 4.175 0 0 1 2.241.364s1.722-.56 1.697-.668zM216.738 21.48s-7.739-5.78-10.506.481c0 0-.844.874-.238 1.92 0 0 .289-.408 1.014.268.257.239.541.446.847.618.414.23.892.319 1.362.253 0 0 2.881.554 6.2-2.562 0 0 1.182-.38 1.293-.603l-1.742-.314s-.183 1.284-1.083 1.858c0 0 1.113-1.787.824-1.916-.058-.028-.928-.127-.928-.127s-.327 2.233-1.747 3.076c0 0 1.615-1.951 1.415-3.116l-1.326-.071s-.226 2.377-1.808 3.4c0 0 1.618-2.099 1.521-3.395l-1.313.106s-.254 2.312-1.588 3.152c0 0 1.623-2.612 1.289-3.109 0 0-1.2.17-1.497.367 0 0-.228 1.656-1.039 2.077 0 0 .897-1.861.715-1.99 0 0-1.504.635-2.095 1.36a4.953 4.953 0 0 1 1.983-1.59 2.735 2.735 0 0 0-1.552-.163s.647-.724 1.92.013c0 0 1.189-.448 1.392-.393 0 0-1.154-.903-2.11-1.06 0 0 1.152-.33 2.458 1.012l1.316-.134s-1.461-1.266-2.303-1.479c0 0 1.225-.154 2.637 1.471l1.301.059s-1.176-1.195-2.061-1.626c0 0 1.166.101 2.431 1.654l.865.139s-.875-.856-1.149-1.079c-.273-.223-.233-.296-.233-.296a4.17 4.17 0 0 1 1.745 1.448s1.757.395 1.79.291zM222.717 63.21s-2.667-9.274-8.667-5.944c0 0-1.202.185-1.352 1.385 0 0 .477-.15.642.82.061.349.163.688.304 1.013.188.436.514.799.928 1.033 0 0 1.963 2.177 6.492 1.691 0 0 1.171.41 1.395.299l-1.2-1.301s-.92.916-1.985.83c0 0 1.967-.76 1.815-1.03-.03-.056-.664-.661-.664-.661s-1.608 1.585-3.251 1.4c0 0 2.467-.582 3.01-1.63l-1.014-.857s-1.618 1.758-3.497 1.62c0 0 2.556-.7 3.261-1.792l-1.111-.706s-1.61 1.684-3.172 1.557c0 0 2.873-1.106 2.908-1.701 0 0-1.06-.588-1.417-.608 0 0-1.184 1.18-2.085 1.028 0 0 1.841-.944 1.775-1.157 0 0-1.582-.398-2.492-.177a4.955 4.955 0 0 1 2.536-.074 2.722 2.722 0 0 0-1.142-1.063s.954-.19 1.522 1.164c0 0 1.22.36 1.346.527 0 0-.372-1.415-1.039-2.116 0 0 1.116.43 1.341 2.293l1.131.687s-.395-1.9-.943-2.568c0 0 1.07.615 1.215 2.762l1.014.828s-.216-1.66-.662-2.532c0 0 .87.785.941 2.786l.603.633s-.177-1.21-.253-1.555c-.076-.344 0-.392 0-.392a4.15 4.15 0 0 1 .52 2.207s1.156 1.362 1.247 1.302zM163.273 84.109s-5.181-8.148-9.991-3.271c0 0-1.101.506-.908 1.709 0 0 .419-.279.85.607.155.314.347.608.573.876.302.366.716.622 1.179.73 0 0 2.498 1.539 6.707-.203 0 0 1.24.066 1.423-.104l-1.522-.911s-.626 1.139-1.673 1.354c0 0 1.678-1.266 1.453-1.499-.043-.045-.824-.445-.824-.445s-1.098 1.97-2.726 2.256c0 0 2.203-1.254 2.431-2.413l-1.214-.535s-1.058 2.14-2.899 2.532c0 0 2.257-1.39 2.625-2.635l-1.268-.365s-1.07 2.069-2.604 2.385c0 0 2.444-1.868 2.31-2.45 0 0-1.182-.267-1.522-.186 0 0-.804 1.466-1.711 1.573 0 0 1.501-1.423 1.377-1.61 0 0-1.631.063-2.442.531a4.937 4.937 0 0 1 2.419-.785 2.726 2.726 0 0 0-1.392-.701s.859-.448 1.775.691c0 0 1.268 0 1.443.127 0 0-.761-1.266-1.595-1.74 0 0 1.191.102 1.932 1.826l1.28.34s-.915-1.71-1.628-2.199c0 0 1.2.289 1.943 2.312l1.197.506s-.675-1.531-1.352-2.248c0 0 1.055.507 1.686 2.408l.761.438s-.507-1.112-.687-1.418c-.18-.306-.109-.377-.109-.377a4.145 4.145 0 0 1 1.118 1.972s1.517 1.008 1.585.922z" opacity=".1"/>
        <path fill="#2B93A1" d="M197.321 42.48s-4.927-8.302-9.889-3.578c0 0-1.116.481-.959 1.681 0 0 .424-.268.829.63.145.32.329.621.546.897.291.373.697.64 1.156.76 0 0 2.447 1.615 6.71 0 0 0 1.237.104 1.425-.061l-1.489-.957s-.659 1.116-1.714 1.301c0 0 1.717-1.223 1.501-1.453-.045-.048-.811-.474-.811-.474s-1.159 1.937-2.79 2.173c0 0 2.242-1.185 2.503-2.335l-1.197-.562s-1.123 2.11-2.977 2.446c0 0 2.3-1.319 2.706-2.552l-1.253-.405s-1.136 2.025-2.677 2.304c0 0 2.5-1.793 2.383-2.378 0 0-1.171-.303-1.521-.232 0 0-.85 1.44-1.76 1.519 0 0 1.544-1.373 1.427-1.565 0 0-1.633.013-2.457.456a4.957 4.957 0 0 1 2.442-.71 2.725 2.725 0 0 0-1.372-.744s.875-.422 1.775.745c0 0 1.268.043 1.438.172 0 0-.717-1.266-1.539-1.788 0 0 1.187.137 1.874 1.884l1.268.38s-.86-1.737-1.56-2.248c0 0 1.192.326 1.872 2.37l1.179.549s-.626-1.552-1.268-2.279c0 0 1.037.54 1.613 2.459l.743.46s-.477-1.126-.644-1.438c-.168-.311-.097-.38-.097-.38a4.156 4.156 0 0 1 1.058 2.006s1.453 1.03 1.526.947zM166.149 59.937s.253-9.646-6.459-8.287c0 0-1.202-.185-1.709.914 0 0 .507 0 .365.975-.046.347-.051.7-.015 1.048.046.473.246.918.57 1.266 0 0 1.21 2.669 5.676 3.575 0 0 .991.747 1.24.706l-.761-1.6s-1.154.593-2.145.19c0 0 2.104-.124 2.046-.433 0-.063-.436-.833-.436-.833s-2.014 1.026-3.522.352c0 0 2.535.19 3.365-.643l-.708-1.122s-2.074 1.185-3.824.487c0 0 2.65.106 3.654-.722l-.844-1.013s-2.047 1.12-3.497.527c0 0 3.073-.185 3.296-.744 0 0-.831-.879-1.166-1.013 0 0-1.486.76-2.297.35 0 0 2.028-.34 2.041-.565 0 0-1.387-.859-2.323-.922a4.94 4.94 0 0 1 2.447.699 2.716 2.716 0 0 0-.761-1.36s.967.109 1.098 1.57c0 0 1.058.714 1.126.911 0 0 .074-1.46-.35-2.331 0 0 .934.746.584 2.59l.869.997s.198-1.93-.119-2.732c0 0 .832.91.32 3l.702 1.092s.299-1.648.14-2.618c0 0 .588 1.013.05 2.94l.386.784s.195-1.208.22-1.56c.026-.351.122-.374.122-.374a4.148 4.148 0 0 1-.175 2.26s.682 1.672.794 1.639z"/>
        <path fill="#2B93A1" d="M177.245 182.51c3.772 0 6.829-.516 6.829-1.152 0-.636-3.057-1.152-6.829-1.152-3.771 0-6.828.516-6.828 1.152 0 .636 3.057 1.152 6.828 1.152zM152.351 200c3.772 0 6.829-.516 6.829-1.152 0-.636-3.057-1.152-6.829-1.152-3.771 0-6.829.516-6.829 1.152 0 .636 3.058 1.152 6.829 1.152zM23.619 191.04c3.771 0 6.828-.516 6.828-1.152 0-.637-3.057-1.152-6.828-1.152-3.772 0-6.83.515-6.83 1.152 0 .636 3.058 1.152 6.83 1.152zM204.148 198.848c3.771 0 6.829-.516 6.829-1.152 0-.636-3.058-1.152-6.829-1.152-3.772 0-6.829.516-6.829 1.152 0 .636 3.057 1.152 6.829 1.152z" opacity=".1"/>
        <path fill="#2B93A1" d="M211.258 184.801c5.631 0 10.196-.771 10.196-1.721 0-.951-4.565-1.722-10.196-1.722-5.631 0-10.196.771-10.196 1.722 0 .95 4.565 1.721 10.196 1.721z"/>
        <path fill="#2B93A1" d="M215.486 180.262c.465-.378.804-.889.971-1.464.127-.582-.122-1.278-.677-1.491-.624-.238-1.291.192-1.798.628-.507.435-1.083.934-1.745.843a2.657 2.657 0 0 0 .822-2.484 1.047 1.047 0 0 0-.228-.506c-.348-.37-.974-.21-1.39.081-1.319.926-1.686 2.714-1.694 4.324-.132-.58-.02-1.185-.023-1.772-.002-.588-.167-1.266-.672-1.575a2.005 2.005 0 0 0-1.014-.253c-.593-.02-1.255.038-1.658.471-.508.537-.373 1.44.063 2.025s1.103.962 1.717 1.373c.491.292.91.691 1.227 1.167.036.066.066.136.089.207h3.717a10.24 10.24 0 0 0 2.293-1.574z"/>
        <path fill="#A8A8A8" d="M19.034 184.533s3.892-.119 5.071-.955c1.18-.835 5.992-1.83 6.284-.491.292 1.339 5.853 6.656 1.456 6.692-4.397.035-10.217-.684-11.389-1.398-1.171-.714-1.422-3.848-1.422-3.848z"/>
        <path fill="#000" d="M31.918 189.313c-4.397.035-10.217-.684-11.388-1.398-.893-.541-1.248-2.488-1.367-3.387h-.13s.254 3.137 1.418 3.848c1.164.712 6.991 1.433 11.389 1.398 1.267 0 1.706-.461 1.683-1.129-.177.407-.662.66-1.605.668z" opacity=".2"/>
    </g>
    <defs>
        <linearGradient id="b" x1="56.546" x2="135.696" y1="109.736" y2="109.736" gradientUnits="userSpaceOnUse">
            <stop stop-color="gray" stop-opacity=".25"/>
            <stop offset=".54" stop-color="gray" stop-opacity=".12"/>
            <stop offset="1" stop-color="gray" stop-opacity=".1"/>
        </linearGradient>
        <clipPath id="a">
            <path fill="#fff" d="M0 0h256v200H0z"/>
        </clipPath>
    </defs>
</svg>
