<svg xmlns="http://www.w3.org/2000/svg" width="20" height="14" fill="none" viewBox="0 0 20 14">
    <path stroke="#fff" stroke-miterlimit="10" d="M18.265 13.5H1.26a.755.755 0 0 1-.76-.748V1.248C.5.845.831.5 1.26.5h17.005c.409 0 .76.326.76.748v11.504c0 .403-.351.748-.76.748z"/>
    <path stroke="#fff" stroke-miterlimit="10" d="M9.772 7.652a.709.709 0 0 1-.429-.135L.831 1.861a.731.731 0 0 1-.292-.824.753.753 0 0 1 .72-.518h17.005c.332 0 .624.21.721.518a.722.722 0 0 1-.292.824l-8.512 5.656a.654.654 0 0 1-.41.135z"/>
</svg>
