<svg xmlns="http://www.w3.org/2000/svg" width="24" height="24" fill="none" viewBox="0 0 24 24">
    <g fill="#fff" clip-path="url(#a)">
        <path d="M5.513 18.81a.648.648 0 0 1-.648-.648v-2.594h-.973a2.273 2.273 0 0 1-2.27-2.27V3.891a2.273 2.273 0 0 1 2.27-2.27h13.622a2.273 2.273 0 0 1 2.27 2.27v9.405a2.273 2.273 0 0 1-2.27 2.27h-6.94l-4.7 3.135a.649.649 0 0 1-.36.109zM3.892 2.92a.974.974 0 0 0-.973.973v9.405c0 .537.436.973.973.973h1.621c.359 0 .65.29.65.649v2.031l3.856-2.57a.648.648 0 0 1 .36-.11h7.135a.974.974 0 0 0 .972-.973V3.892a.974.974 0 0 0-.973-.973H3.893z"/>
        <path d="M19.405 22.425a.648.648 0 0 1-.36-.11l-3.304-2.207h-5.085c-1.065 0-1.9-.743-1.9-1.691v-2.525a.649.649 0 0 1 1.298 0v2.525c0 .243.313.394.602.394h5.282c.128 0 .254.038.36.109l2.463 1.645.003-1.108a.649.649 0 0 1 .649-.646h1.158c.085 0 .51-.02.51-.394v-6.718c0-.303-.32-.348-.51-.348h-1.436a.649.649 0 0 1 0-1.297h1.436c1.047 0 1.807.692 1.807 1.645v6.718c0 .964-.777 1.691-1.806 1.691h-.512l-.006 1.67a.65.65 0 0 1-.649.647z"/>
    </g>
    <defs>
        <clipPath id="a">
            <path fill="#fff" d="M0 0h24v24H0z"/>
        </clipPath>
    </defs>
</svg>
