<svg xmlns="http://www.w3.org/2000/svg" width="60" height="61" fill="none" viewBox="0 0 60 61">
    <circle cx="30.009" cy="30.499" r="29.892" fill="#A4E7F8"/>
    <path fill="#90DFF3" d="M23.617 59.782l-10.04-22.91 10.04 2.003 18.675-22.57 15.449 24.832C52.7 54.628 36.804 63.419 23.617 59.782z"/>
    <path fill="#FFE1A0" d="M30.009 48.115c9.729 0 17.616-7.887 17.616-17.616 0-9.73-7.887-17.616-17.616-17.616-9.73 0-17.616 7.887-17.616 17.616 0 9.73 7.887 17.616 17.616 17.616z"/>
    <path fill="#F7D291" d="M30.009 12.883c-.466 0-.927.018-1.383.053 4.044.314 7.704 1.995 10.521 4.579l-.618.618c-.55.55-.773 1.348-.587 2.103l.56 2.272-8.851 8.85-.852-.85v2.219h.001c.004.304.122.607.354.839.236.236.545.354.855.354.309 0 .618-.118.854-.354l8.678-8.678 2.272.56c.755.185 1.553-.037 2.103-.587l.016-.016c.6 1.775.928 3.676.928 5.654 0 9.264-7.151 16.857-16.234 17.562.456.036.917.054 1.383.054 9.729 0 17.616-7.887 17.616-17.616 0-9.73-7.887-17.616-17.616-17.616z"/>
    <path fill="url(#paint0_linear)" d="M30.009 32.572c1.145 0 2.072-.928 2.072-2.073 0-1.144-.927-2.072-2.072-2.072s-2.073.928-2.073 2.072c0 1.145.928 2.073 2.073 2.073z"/>
    <path fill="#fff" d="M30.008 18.064c-6.867 0-12.435 5.567-12.435 12.435s5.568 12.435 12.435 12.435c6.868 0 12.435-5.567 12.435-12.435s-5.567-12.435-12.435-12.435zm0 19.689c-4.006 0-7.253-3.248-7.253-7.254 0-4.006 3.247-7.254 7.253-7.254s7.254 3.248 7.254 7.254c0 4.006-3.248 7.254-7.254 7.254z"/>
    <path fill="url(#paint1_linear)" d="M29.652 31.36l-.851-.853v1.675c.34.245.758.39 1.209.39 1.144 0 2.072-.928 2.072-2.073 0-.443-.14-.855-.378-1.192l-2.052 2.052z"/>
    <path fill="#EDEBED" d="M38.156 21.104l.346 1.404-3.118 3.119c.554.611 1.006 1.318 1.327 2.092l2.83-2.83 1.78.437c-.746-1.626-1.83-3.064-3.165-4.222z"/>
    <path fill="url(#paint2_linear)" d="M46.89 17.607l-3.201-.789-.789-3.202c-.179-.728-1.085-.981-1.616-.45l-3.426 3.425c-.55.55-.772 1.348-.586 2.104l.897 3.643 3.643.897c.756.186 1.553-.036 2.103-.586l3.426-3.426c.53-.53.278-1.437-.45-1.616z"/>
    <path fill="#9C969E" d="M46.89 17.607l-3.201-.789-.789-3.202c-.179-.728-1.085-.981-1.616-.45l-3.426 3.425c-.55.55-.772 1.348-.586 2.104l.897 3.643 3.643.897c.756.186 1.553-.036 2.103-.586l3.426-3.426c.53-.53.278-1.437-.45-1.616z"/>
    <path fill="#9C969E" d="M46.892 17.607l-3.202-.789-.789-3.202c-.179-.728-1.085-.98-1.616-.45l-1.929 1.929c-.55.55-.772 1.347-.586 2.103l.897 3.643 3.643.897c.756.186 1.553-.036 2.103-.586l1.93-1.93c.53-.53.277-1.436-.451-1.615z"/>
    <path fill="#867E88" d="M46.891 17.607l-3.202-.789-.788-3.202c-.18-.728-1.086-.98-1.616-.45l-.433.432c-.55.55-.772 1.347-.586 2.103l.897 3.643 3.643.898c.756.186 1.553-.037 2.104-.587l.432-.432c.53-.53.278-1.437-.45-1.616z"/>
    <path fill="#FF8087" d="M30.009 31.708c-.31 0-.619-.118-.855-.354-.472-.472-.472-1.238 0-1.71L42.759 16.04c.472-.473 1.238-.473 1.71 0 .472.472.472 1.237 0 1.71L30.864 31.353c-.236.236-.546.354-.855.354z"/>
    <defs>
        <linearGradient id="paint0_linear" x1="17.505" x2="42.108" y1="30.499" y2="30.499" gradientUnits="userSpaceOnUse">
            <stop stop-color="#F2FBFF"/>
            <stop offset=".593" stop-color="#FAF7F7"/>
            <stop offset="1" stop-color="#F3EAE6"/>
        </linearGradient>
        <linearGradient id="paint1_linear" x1="26.694" x2="42.179" y1="30.939" y2="30.939" gradientUnits="userSpaceOnUse">
            <stop stop-color="#F3EAE6"/>
            <stop offset="1" stop-color="#CDBFBA"/>
        </linearGradient>
        <linearGradient id="paint2_linear" x1="37.054" x2="47.695" y1="18.091" y2="18.091" gradientUnits="userSpaceOnUse">
            <stop stop-color="#FFF9DF"/>
            <stop offset=".593" stop-color="#FFE177"/>
            <stop offset="1" stop-color="#FEB137"/>
        </linearGradient>
    </defs>
</svg>
