<?xml version="1.0" encoding="utf-8"?>
<!-- Generator: Adobe Illustrator 23.0.1, SVG Export Plug-In . SVG Version: 6.00 Build 0)  -->
<svg version="1.1" id="Layer_1" xmlns="http://www.w3.org/2000/svg" xmlns:xlink="http://www.w3.org/1999/xlink" x="0px" y="0px"
	 viewBox="0 0 100 100" style="enable-background:new 0 0 100 100;" xml:space="preserve">
<style type="text/css">
	.st0{display:none;}
	.st1{display:inline;}
	.st2{fill:#FFFFFF;}
</style>
<g class="st0">
	<path class="st1" d="M74.5,20.5h-49c-0.3,0-0.5,0.2-0.5,0.5v16.8c0,0.3,0.2,0.5,0.5,0.5s0.5-0.2,0.5-0.5V21.5h48v57H26v-33
		c0-0.3-0.2-0.5-0.5-0.5S25,45.2,25,45.5V79c0,0.3,0.2,0.5,0.5,0.5h49c0.3,0,0.5-0.2,0.5-0.5V21C75,20.7,74.8,20.5,74.5,20.5z"/>
</g>
<g id="Layer_2">
</g>
<path class="st2" d="M77,18h-50c-1.6,0-2.9,1.3-2.9,2.9v62.1c0,1.6,1.3,2.9,2.9,2.9h50c1.6,0,2.9-1.3,2.9-2.9V20.9
	C79.9,19.3,78.6,18,77,18z M57.8,63.6H43.2v-7.1h14.6c2.8,0,5.2-2.3,5.2-5.2c0-2.8-2.3-5.2-5.2-5.2h-8.1v5.6l-15.9-9.2l15.9-9.2v5.6
	h8.1c6.7,0,12.2,5.5,12.2,12.2C70.1,58.1,64.6,63.6,57.8,63.6z"/>
</svg>
