<svg xmlns="http://www.w3.org/2000/svg" width="24" height="25" fill="none" viewBox="0 0 24 25">
    <path fill="#fff" d="M23.144 24.023h-1.07V8.473c0-.723-.587-1.312-1.31-1.312h-2.39c-.722 0-1.31.589-1.31 1.312v15.55H14.35V15.52c0-.724-.588-1.313-1.31-1.313h-2.39c-.723 0-1.31.59-1.31 1.313v8.504H6.624V19.62c0-.724-.588-1.313-1.31-1.313h-2.39c-.723 0-1.31.59-1.31 1.313v4.404H.486a.488.488 0 0 0 0 .977h22.657a.488.488 0 0 0 0-.977zm-17.494 0H2.59V19.62c0-.185.15-.336.335-.336h2.39c.184 0 .335.15.335.336v4.404zm7.725 0h-3.06V15.52c0-.185.15-.336.335-.336h2.39c.184 0 .335.15.335.336v8.504zm7.725 0h-3.06V8.473c0-.185.15-.336.335-.336h2.39c.184 0 .335.151.335.336v15.55zM22.074.513a.487.487 0 0 0-.512-.512L21.54 0h-2.95a.488.488 0 0 0 0 .977h1.822l-4.82 4.827-1.816-1.82a.487.487 0 0 0-.69 0L4.322 12.76a.489.489 0 0 0 .69.69L13.43 5.02l1.817 1.82c.19.191.5.191.69 0L21.1 1.667v1.651a.488.488 0 1 0 .975 0V.538l-.001-.025zM3.024 15.298a.488.488 0 1 0 0-.975.488.488 0 0 0 0 .975z"/>
</svg>
