<svg xmlns="http://www.w3.org/2000/svg" width="26" height="31" fill="none" viewBox="0 0 26 31">
    <path fill="#4CBBCA" d="M21.474.221H4.599C2.536.221.849 1.91.849 3.971v22.5c0 2.063 1.687 3.75 3.75 3.75h16.875c2.062 0 3.75-1.687 3.75-3.75v-22.5c0-2.062-1.688-3.75-3.75-3.75zm1.875 26.25c0 1.031-.844 1.875-1.875 1.875H4.599c-1.032 0-1.875-.844-1.875-1.875v-22.5c0-1.031.843-1.875 1.875-1.875h16.875c1.03 0 1.875.844 1.875 1.875v22.5z"/>
    <path fill="#4CBBCA" d="M11.067 9.69c.563.562 1.313.844 1.97.844.655 0 1.405-.282 1.968-.844.562-.563.844-1.219.844-1.969s-.282-1.5-.844-1.969c-1.125-1.125-2.906-1.125-3.938 0-.562.47-.843 1.22-.843 1.97s.28 1.5.843 1.968zm1.313-2.625c.187-.188.469-.281.656-.281.188 0 .469.093.656.28.188.188.282.376.282.657s-.094.469-.282.656c-.375.375-.937.375-1.312 0-.188-.187-.281-.375-.281-.656s.093-.469.28-.656zM18.661 18.034H7.411c-.562 0-.937.375-.937.937 0 .563.375.938.937.938h11.25c.563 0 .938-.375.938-.938 0-.562-.375-.937-.938-.937zM7.411 22.721h6.563c.562 0 .937-.375.937-.937 0-.563-.375-.938-.937-.938H7.41c-.562 0-.937.375-.937.938 0 .562.375.937.937.937zM16.786 23.659H7.411c-.562 0-.937.375-.937.937 0 .563.375.938.937.938h9.375c.563 0 .938-.375.938-.938 0-.562-.375-.937-.938-.937zM8.348 17.096c.562 0 .937-.375.937-.937 0-1.594 1.219-2.813 2.813-2.813h1.875c1.593 0 2.812 1.219 2.812 2.813 0 .562.375.937.938.937.562 0 .937-.375.937-.937 0-2.625-2.062-4.688-4.687-4.688h-1.875c-2.625 0-4.688 2.063-4.688 4.688 0 .562.375.937.938.937z"/>
</svg>
