<svg width="14" height="14" viewBox="0 0 14 14" fill="none" xmlns="http://www.w3.org/2000/svg">
<path d="M13.149 10.2109V12.0174C13.1497 12.1851 13.1153 12.3511 13.048 12.5047C12.9807 12.6584 12.8819 12.7963 12.7581 12.9097C12.6343 13.023 12.4881 13.1094 12.3289 13.1631C12.1697 13.2168 12.0011 13.2368 11.8337 13.2217C9.9771 13.0203 8.19367 12.3872 6.62676 11.373C5.16894 10.4485 3.93297 9.215 3.00662 7.76007C1.98693 6.18916 1.35236 4.40061 1.15431 2.53933C1.13923 2.37282 1.15906 2.20499 1.21254 2.04654C1.26601 1.88809 1.35195 1.74249 1.4649 1.619C1.57784 1.49552 1.71532 1.39686 1.86856 1.3293C2.0218 1.26175 2.18746 1.22678 2.35499 1.22662H4.16506C4.45787 1.22374 4.74174 1.32723 4.96376 1.51779C5.18578 1.70834 5.33079 1.97297 5.37177 2.26234C5.44817 2.84045 5.58986 3.40809 5.79412 3.95441C5.8753 4.16994 5.89287 4.40417 5.84475 4.62936C5.79663 4.85455 5.68483 5.06125 5.52261 5.22497L4.75635 5.98972C5.61526 7.49725 6.86596 8.74547 8.37649 9.60268L9.14275 8.83794C9.3068 8.67604 9.51391 8.56447 9.73955 8.51644C9.96518 8.46842 10.1999 8.48595 10.4158 8.56697C10.9632 8.77083 11.532 8.91223 12.1113 8.98848C12.4044 9.02975 12.672 9.17708 12.8634 9.40246C13.0547 9.62785 13.1564 9.91555 13.149 10.2109Z" stroke="#2BA7F1" stroke-width="0.8" stroke-linecap="round" stroke-linejoin="round"/>
</svg>
