<svg xmlns="http://www.w3.org/2000/svg" width="25" height="26" fill="none" viewBox="0 0 25 26">
    <path fill="#fff" d="M20.395 2.669h3.947c.175 0 .342.07.465.196A.677.677 0 0 1 25 3.34v21.457c0 .178-.07.348-.193.474a.651.651 0 0 1-.465.197H.658a.651.651 0 0 1-.465-.197.677.677 0 0 1-.193-.474V3.34c0-.178.07-.349.193-.475a.652.652 0 0 1 .465-.196h3.947v-.657A2.045 2.045 0 0 1 5.183.589a1.941 1.941 0 0 1 2.791 0 2.045 2.045 0 0 1 .578 1.423v.657h7.895v-.657a2.045 2.045 0 0 1 .578-1.423A1.97 1.97 0 0 1 18.421 0a1.941 1.941 0 0 1 1.396.59 2.016 2.016 0 0 1 .578 1.422v.657zm0 1.341v.657a2.045 2.045 0 0 1-.578 1.423 1.941 1.941 0 0 1-2.791 0 2.015 2.015 0 0 1-.579-1.423V4.01H8.553v.657a2.045 2.045 0 0 1-.578 1.423 1.941 1.941 0 0 1-2.791 0 2.015 2.015 0 0 1-.579-1.423V4.01h-3.29v20.117h22.37V4.01h-3.29zM3.289 10.716a.651.651 0 0 1-.465-.197.677.677 0 0 1 0-.948.652.652 0 0 1 .465-.196H21.71c.175 0 .342.07.466.196a.677.677 0 0 1 0 .948.651.651 0 0 1-.465.197H3.288zm12.693 2.878a.653.653 0 0 1 .931 0 .678.678 0 0 1 0 .95l-5.263 5.363a.658.658 0 0 1-.466.197.647.647 0 0 1-.466-.197l-2.631-2.682a.678.678 0 0 1 0-.95.653.653 0 0 1 .931 0l2.166 2.21 4.798-4.891zM7.237 4.669V2.01a.677.677 0 0 0-.193-.475.652.652 0 0 0-.93 0 .677.677 0 0 0-.193.475v2.658c0 .177.07.348.193.474a.652.652 0 0 0 .93 0 .677.677 0 0 0 .193-.474zm11.842 0V2.01a.677.677 0 0 0-.193-.475.652.652 0 0 0-.93 0 .677.677 0 0 0-.193.475v2.658c0 .177.07.348.193.474a.651.651 0 0 0 .93 0 .677.677 0 0 0 .193-.474z"/>
</svg>
