<svg xmlns="http://www.w3.org/2000/svg" width="26" height="32" fill="none" viewBox="0 0 26 32">
    <path fill="#4CBBCA" stroke="#4CBBCA" stroke-width=".6" d="M23.225 3.364c-.116-.797-.516-1.525-1.126-2.05-.61-.524-1.39-.81-2.195-.804H6.276c-.882.002-1.727.353-2.35.976-.624.624-.975 1.47-.977 2.351v4.197h-1.63c-.16 0-.312.063-.425.176-.112.112-.175.265-.175.424 0 .159.063.311.175.424.113.112.265.175.424.175h4.197c.159 0 .312-.063.424-.175.112-.113.176-.265.176-.424 0-.16-.064-.312-.176-.424-.112-.113-.265-.176-.424-.176H4.148V3.837c.002-.564.226-1.104.625-1.503.399-.399.94-.623 1.503-.625h13.628c.282-.003.561.05.823.155.261.105.499.262.7.46.2.197.36.433.469.693.109.26.165.539.166.82V25.14c0 .282-.057.56-.166.82-.11.26-.269.496-.47.694-.2.198-.438.354-.7.46-.26.105-.54.157-.822.154H6.276c-.564-.001-1.104-.226-1.503-.625-.399-.399-.623-.94-.625-1.503v-4.197h1.367c.159 0 .312-.063.424-.175.112-.113.176-.265.176-.424 0-.16-.064-.312-.176-.424-.112-.113-.265-.176-.424-.176H4.148v-1.355c0-.159-.063-.311-.176-.424-.112-.112-.264-.175-.423-.175-.16 0-.312.063-.424.175-.113.113-.176.265-.176.424v1.355h-1.63c-.16 0-.312.063-.425.176-.112.112-.175.265-.175.424 0 .159.063.311.175.424.113.112.265.175.424.175H2.95v4.197c0 .672.204 1.328.584 1.882.38.554.918.98 1.544 1.223.12.79.516 1.51 1.12 2.03.604.522 1.374.81 2.172.812H22.02c.883 0 1.73-.35 2.355-.974s.977-1.47.979-2.353V6.457c0-.67-.204-1.325-.584-1.877s-.919-.976-1.545-1.216zm.93 24.395c-.002.565-.228 1.106-.628 1.505-.4.4-.942.623-1.507.623H8.37c-.439-.002-.866-.14-1.223-.394-.358-.255-.628-.613-.774-1.027h13.532c.882-.001 1.727-.352 2.351-.976.624-.624.975-1.47.976-2.351V4.707c.274.195.498.453.652.753.155.299.235.63.236.967l.036 21.332z"/>
    <path fill="#4CBBCA" stroke="#4CBBCA" stroke-width=".6" d="M3.549 9.989c-.16 0-.312.063-.424.175-.113.113-.176.265-.176.424v1.349h-1.63c-.16 0-.312.063-.425.176-.112.112-.175.265-.175.424 0 .159.063.311.175.423.113.113.265.176.424.176h4.197c.159 0 .312-.063.424-.175.112-.113.176-.265.176-.424 0-.16-.064-.312-.176-.424-.112-.113-.265-.176-.424-.176H4.148v-1.349c0-.159-.063-.311-.176-.424-.112-.112-.264-.175-.423-.175zM1.318 17.04h4.197c.159 0 .312-.064.424-.177.112-.112.176-.264.176-.423 0-.16-.064-.312-.176-.424-.112-.113-.265-.176-.424-.176H4.148v-1.349c0-.159-.063-.311-.176-.424-.112-.112-.264-.175-.423-.175-.16 0-.312.063-.424.175-.113.113-.176.265-.176.424v1.349h-1.63c-.16 0-.312.063-.425.176-.112.112-.175.265-.175.424 0 .159.063.311.175.423.113.113.265.176.424.176zM16.366 12.135c0-.459-.136-.908-.391-1.29-.255-.38-.617-.678-1.041-.854-.424-.175-.89-.221-1.34-.132-.45.09-.864.31-1.189.635-.324.325-.545.738-.635 1.188-.09.45-.043.917.132 1.34.176.425.473.787.855 1.042.381.255.83.391 1.289.391.615-.002 1.204-.246 1.639-.681.434-.435.68-1.024.681-1.64zm-3.447 0c0-.222.065-.439.189-.623.123-.184.298-.328.503-.413.205-.085.43-.107.647-.064.218.044.418.15.575.307.156.157.263.357.306.574.044.218.021.443-.063.648-.085.205-.229.38-.413.503-.185.123-.402.189-.623.189-.297 0-.583-.118-.793-.328-.21-.21-.328-.496-.328-.793zM8.723 20.109c0 .159.063.311.175.424.113.112.265.175.424.175.16 0 .312-.063.424-.175.113-.113.176-.265.176-.424.04-1.066.492-2.075 1.261-2.815.768-.74 1.794-1.153 2.86-1.153 1.067 0 2.093.413 2.861 1.153.769.74 1.22 1.749 1.261 2.815 0 .159.064.311.176.424.112.112.265.175.424.175.159 0 .311-.063.424-.175.112-.113.175-.265.175-.424 0-1.412-.56-2.765-1.558-3.763-.998-.998-2.351-1.558-3.763-1.558-1.41 0-2.764.56-3.762 1.558-.998.998-1.558 2.352-1.558 3.763z"/>
</svg>
