<svg xmlns="http://www.w3.org/2000/svg" width="27" height="27" fill="none" viewBox="0 0 27 27">
    <path fill="#03A9F4" d="M8.094 3.197c-.355 0-.642.287-.642.642v1.284H4.67c-.946 0-1.712.766-1.712 1.712v15.192c0 .947.766 1.713 1.712 1.713H21.79c.945 0 1.711-.766 1.711-1.713V6.835c0-.946-.766-1.712-1.711-1.712h-2.782V3.839c0-.355-.287-.642-.642-.642-.355 0-.642.287-.642.642v1.284h-3.852V3.839c0-.355-.287-.642-.642-.642-.354 0-.642.287-.642.642v1.284H8.735V3.839c0-.355-.287-.642-.641-.642zM4.67 6.407h2.782V7.69c0 .355.287.642.642.642.354 0 .641-.287.641-.642V6.407h3.852V7.69c0 .355.288.642.642.642.355 0 .642-.287.642-.642V6.407h3.852V7.69c0 .355.287.642.642.642.355 0 .642-.287.642-.642V6.407h2.782c.236 0 .427.191.427.428v15.192c0 .237-.191.428-.427.428H4.67c-.236 0-.428-.191-.428-.428V6.835c0-.237.192-.428.428-.428zM7.452 10.9v1.926h2.567V10.9H7.452zm4.494 0v1.926h2.567V10.9h-2.567zm4.493 0v1.926h2.568V10.9h-2.568zm-8.987 3.21v1.926h2.567V14.11H7.452zm4.494 0v1.926h2.567V14.11h-2.567zm4.493 0v1.926h2.568V14.11h-2.568zm-8.987 3.21v1.926h2.567V17.32H7.452zm4.494 0v1.926h2.567V17.32h-2.567zm4.493 0v1.926h2.568V17.32h-2.568z"/>
</svg>
