<svg width="20" height="20" viewBox="0 0 20 20" fill="none" xmlns="http://www.w3.org/2000/svg">
<path d="M4.33707 10.6549C3.9678 10.6549 3.65105 10.526 3.38684 10.2681C3.1258 10.0071 2.99687 9.69036 3.00006 9.31791C2.99687 8.95501 3.1258 8.64463 3.38684 8.38678C3.65105 8.12893 3.9678 8 4.33707 8C4.68723 8 4.99602 8.12893 5.26342 8.38678C5.53401 8.64463 5.67089 8.95501 5.67407 9.31791C5.67089 9.56621 5.60563 9.79223 5.4783 9.99596C5.35415 10.1965 5.1918 10.3573 4.99124 10.4782C4.79069 10.596 4.57263 10.6549 4.33707 10.6549Z" fill="#FDC00F"/>
<path d="M8.53909 10.6549C8.16982 10.6549 7.85308 10.526 7.58886 10.2681C7.32783 10.0071 7.1989 9.69036 7.20208 9.31791C7.1989 8.95501 7.32783 8.64463 7.58886 8.38678C7.85308 8.12893 8.16982 8 8.53909 8C8.88926 8 9.19804 8.12893 9.46545 8.38678C9.73603 8.64463 9.87292 8.95501 9.8761 9.31791C9.87292 9.56621 9.80766 9.79223 9.68032 9.99596C9.55617 10.1965 9.39382 10.3573 9.19327 10.4782C8.99272 10.596 8.77466 10.6549 8.53909 10.6549Z" fill="#FDC00F"/>
<path d="M12.7411 10.6549C12.3718 10.6549 12.0551 10.526 11.7909 10.2681C11.5299 10.0071 11.4009 9.69036 11.4041 9.31791C11.4009 8.95501 11.5299 8.64463 11.7909 8.38678C12.0551 8.12893 12.3718 8 12.7411 8C13.0913 8 13.4001 8.12893 13.6675 8.38678C13.9381 8.64463 14.0749 8.95501 14.0781 9.31791C14.0749 9.56621 14.0097 9.79223 13.8823 9.99596C13.7582 10.1965 13.5958 10.3573 13.3953 10.4782C13.1947 10.596 12.9767 10.6549 12.7411 10.6549Z" fill="#FDC00F"/>
<path d="M10 2C11.4567 2 12.8858 2.39776 14.1331 3.15038C15.3804 3.90299 16.3985 4.98188 17.0776 6.27066C17.7567 7.55944 18.071 9.00918 17.9866 10.4635C17.9022 11.9178 17.4223 13.3214 16.5987 14.523C15.7751 15.7246 14.639 16.6785 13.313 17.2817C11.9871 17.885 10.5216 18.1148 9.07459 17.9463C7.62763 17.7778 6.25413 17.2174 5.1023 16.3255C3.95046 15.4337 3.06399 14.2443 2.53855 12.8856" stroke="#FDC00F"/>
</svg>
