<svg width="45" height="45" viewBox="0 0 45 45" fill="none" xmlns="http://www.w3.org/2000/svg">
<circle cx="22.998" cy="22.9688" r="22" fill="#F6F9FC"/>
<path d="M30.5337 28.7877C31.0374 28.9266 31.672 29.0098 31.9972 28.6886C32.3939 28.292 32.3026 27.4353 32.2233 27.0506L31.089 25.821L31.0573 25.7853L30.7241 25.4284L30.6527 25.3491L30.3315 25L30.2204 24.8811L29.9269 24.5558L29.7762 24.3932L29.4787 24.072L29.3439 23.9212L29.0345 23.592L28.8679 23.4136L28.5506 23.1002L28.3761 22.9178L28.0588 22.5727L27.924 22.43L27.5274 22.0333L27.4401 21.9421L26.5438 20.9863C26.3516 20.7902 26.1476 20.6061 25.933 20.435C24.3029 19.1301 23.2955 19.8797 22.296 20.8316L22.0699 21.0458C20.7611 22.2991 19.591 22.4974 18.5995 21.6367C17.6912 20.8435 17.7706 18.6304 17.7825 18.3805V18.2734L19.2381 16.0325L15.3433 15.8461L13.3879 24.5558C14.6175 25.5632 21.4432 31.1516 22.5538 32.0003C23.1884 32.4842 24.2235 32.3573 24.9335 32.163C24.1878 31.4927 23.2915 30.6439 22.6886 30.0609L22.4427 29.8229L22.3634 29.7476L22.0858 29.4779L22.641 28.9107C22.6648 28.9305 24.8581 31.0802 26.0638 32.1114C26.1227 32.1754 26.197 32.2233 26.2796 32.2504C26.3623 32.2775 26.4505 32.2829 26.5358 32.2661C26.9324 32.1749 27.3727 31.572 27.6305 31.0762L23.4898 27.3004L24.0252 26.7134L28.2413 30.5487C29.09 30.8383 29.7127 30.866 29.9507 30.6241C30.1887 30.3821 30.0935 29.6682 29.9983 29.3589L25.4531 24.9961L26.0004 24.4249L30.5337 28.7877Z" fill="#2B93A1"/>
<path d="M24.4258 15.4575L20.3367 15.8025L18.5599 18.5392C18.5361 19.3324 18.663 20.669 19.1112 21.0537C19.5593 21.4385 20.2296 21.7201 21.5147 20.4905L21.7606 20.2565L22.0422 20.0027C22.2448 19.8242 22.4595 19.6599 22.6847 19.5109C22.9127 19.3608 23.1576 19.2383 23.4145 19.146C23.5438 19.1015 23.6764 19.067 23.8111 19.0429C23.9499 19.0189 24.0906 19.007 24.2315 19.0072H24.2553C24.3425 19.0026 24.4299 19.0026 24.5171 19.0072H24.5567C24.6515 19.0193 24.7455 19.0365 24.8383 19.0587H24.8939C24.9932 19.0841 25.0912 19.1145 25.1874 19.15C25.2865 19.1857 25.3896 19.2333 25.4927 19.2848L25.5602 19.3166C25.6633 19.3681 25.7664 19.4276 25.8695 19.495L25.9211 19.5268C26.0189 19.5902 26.1168 19.659 26.2146 19.733L26.2741 19.7766C26.3812 19.8599 26.4922 19.9511 26.6033 20.0503L26.6786 20.1217C26.7937 20.2248 26.9087 20.3319 27.0237 20.4509L27.4679 20.907L27.5353 20.9784L27.9319 21.375L28.0509 21.4979L28.3841 21.847L28.5269 21.9977L28.868 22.3546L28.983 22.4736L29.8833 23.4295L30.0301 23.5881L30.3117 23.8896L30.4782 24.068L30.7321 24.3417L30.8828 24.5043L31.1287 24.7661L31.2675 24.9168L31.5213 25.1905L31.7236 25.3491L31.9933 25.6426L32.0687 25.7259L32.2511 25.9242L32.382 26.067L32.4732 26.1661L32.5922 26.297L33.5163 25.4443L30.1371 17.1153L24.4258 15.4575Z" fill="#2B93A1"/>
<path d="M12.6384 24.2822L14.562 15.6875L9.59633 13.6013L5.72534 23.6239L12.6384 24.2822Z" fill="#2B93A1"/>
<path d="M40.2708 24.3813L35.7652 14.6483L30.978 17.0439L34.266 25.1191L40.2708 24.3813Z" fill="#2B93A1"/>
</svg>
