<svg xmlns="http://www.w3.org/2000/svg" width="61" height="61" fill="none" viewBox="0 0 61 61">
    <circle cx="30.256" cy="30.606" r="30" fill="#FEF3C4"/>
    <path fill="#FAE89C" d="M19.54 58.64l-4.987-31.978 9.802 11.347 1.955-7.248 6.687 8.845 19.874 10.707c-6.34 5.838-10.036 9.103-21.595 10.293-7.647 0-11.176-1.706-11.737-1.965z"/>
    <path fill="#76E2F8" d="M47.766 38.445v5.5c0 2.393-1.953 4.126-4.106 4.126-7.922 0-15.65-3.745-21.398-9.47-5.748-5.726-9.516-13.43-9.516-21.353 0-2.275 1.851-4.106 4.126-4.106h5.5c.592 0 1.118.379 1.304.94l2.75 8.232c.135.403.075.845-.16 1.198l-2.332 3.499c.884 1.854 2.448 3.88 4.254 5.664 1.807 1.783 3.856 3.324 5.71 4.208l3.499-2.333c.355-.233.795-.295 1.198-.16l8.25 2.751c.562.186.921.712.921 1.304z"/>
    <path fill="#EB5757" d="M47.765 39.135v5.106c0 2.221-1.85 3.83-3.888 3.83-7.5 0-15.182-3.288-20.625-8.603l6.006-5.778c1.746 1.352 3.62 3.175 5.375 3.995l3.314-2.165c.336-.217.752-.274 1.134-.148l7.813 2.553c.531.173.871.66.871 1.21z"/>
</svg>
