<svg width="45" height="45" viewBox="0 0 45 45" fill="none" xmlns="http://www.w3.org/2000/svg">
<circle cx="22.998" cy="22.9691" r="22" fill="#F6F9FC"/>
<path d="M35.1146 28.5753H32.8609V22.7908C32.8609 22.763 32.8554 22.7354 32.8447 22.7097C32.8341 22.684 32.8185 22.6606 32.7988 22.6409C32.7791 22.6212 32.7557 22.6056 32.73 22.5949C32.7043 22.5843 32.6767 22.5788 32.6488 22.5788H23.546V17.3631H25.7996C25.8275 17.3631 25.8551 17.3576 25.8808 17.347C25.9065 17.3363 25.9299 17.3207 25.9496 17.301C25.9693 17.2813 25.9849 17.258 25.9955 17.2322C26.0062 17.2065 26.0117 17.1789 26.0117 17.1511V11.5478C26.0117 11.52 26.0062 11.4924 25.9955 11.4667C25.9849 11.441 25.9693 11.4176 25.9496 11.3979C25.9299 11.3782 25.9065 11.3626 25.8808 11.352C25.8551 11.3413 25.8275 11.3358 25.7996 11.3358H20.1964C20.1685 11.3358 20.141 11.3413 20.1153 11.352C20.0895 11.3626 20.0662 11.3782 20.0465 11.3979C20.0268 11.4176 20.0112 11.441 20.0005 11.4667C19.9898 11.4924 19.9844 11.52 19.9844 11.5478V17.1511C19.9844 17.1789 19.9898 17.2065 20.0005 17.2322C20.0112 17.258 20.0268 17.2813 20.0465 17.301C20.0662 17.3207 20.0895 17.3363 20.1153 17.347C20.141 17.3576 20.1685 17.3631 20.1964 17.3631H22.4501V22.5788H13.3472C13.3193 22.5788 13.2918 22.5843 13.266 22.5949C13.2403 22.6056 13.2169 22.6212 13.1972 22.6409C13.1776 22.6606 13.1619 22.684 13.1513 22.7097C13.1406 22.7354 13.1351 22.763 13.1351 22.7908V28.5753H10.8815C10.8536 28.5753 10.826 28.5808 10.8003 28.5914C10.7746 28.6021 10.7512 28.6177 10.7315 28.6374C10.7118 28.6571 10.6962 28.6805 10.6856 28.7062C10.6749 28.7319 10.6694 28.7595 10.6694 28.7873V34.3906C10.6694 34.4184 10.6749 34.446 10.6856 34.4717C10.6962 34.4974 10.7118 34.5208 10.7315 34.5405C10.7512 34.5602 10.7746 34.5758 10.8003 34.5865C10.826 34.5971 10.8536 34.6026 10.8815 34.6026H16.4847C16.5126 34.6026 16.5401 34.5971 16.5659 34.5865C16.5916 34.5758 16.615 34.5602 16.6346 34.5405C16.6543 34.5208 16.6699 34.4974 16.6806 34.4717C16.6913 34.446 16.6967 34.4184 16.6967 34.3906V28.7873C16.6967 28.7595 16.6913 28.7319 16.6806 28.7062C16.6699 28.6805 16.6543 28.6571 16.6346 28.6374C16.615 28.6177 16.5916 28.6021 16.5659 28.5914C16.5401 28.5808 16.5126 28.5753 16.4847 28.5753H14.231V23.6747H31.765V28.5753H29.5113C29.4835 28.5753 29.4559 28.5808 29.4302 28.5914C29.4045 28.6021 29.3811 28.6177 29.3614 28.6374C29.3417 28.6571 29.3261 28.6805 29.3154 28.7062C29.3048 28.7319 29.2993 28.7595 29.2993 28.7873V34.3906C29.2993 34.4184 29.3048 34.446 29.3154 34.4717C29.3261 34.4974 29.3417 34.5208 29.3614 34.5405C29.3811 34.5602 29.4045 34.5758 29.4302 34.5865C29.4559 34.5971 29.4835 34.6026 29.5113 34.6026H35.1146C35.1424 34.6026 35.17 34.5971 35.1957 34.5865C35.2214 34.5758 35.2448 34.5602 35.2645 34.5405C35.2842 34.5208 35.2998 34.4974 35.3105 34.4717C35.3211 34.446 35.3266 34.4184 35.3266 34.3906V28.7873C35.3266 28.7595 35.3211 28.7319 35.3105 28.7062C35.2998 28.6805 35.2842 28.6571 35.2645 28.6374C35.2448 28.6177 35.2214 28.6021 35.1957 28.5914C35.17 28.5808 35.1424 28.5753 35.1146 28.5753Z" fill="#2BA7F1" stroke="#2BA7F1" stroke-width="1.5"/>
</svg>
