<svg width="45" height="45" viewBox="0 0 45 45" fill="none" xmlns="http://www.w3.org/2000/svg">
<circle cx="22.998" cy="22.9691" r="22" fill="#F6F9FC"/>
<path d="M19.0447 11.1094C19.0447 10.6727 19.3987 10.3188 19.8353 10.3188H26.1605C26.5972 10.3188 26.9512 10.6727 26.9512 11.1094V14.272C26.9512 14.7087 26.5972 15.0626 26.1605 15.0626H19.8353C19.3987 15.0626 19.0447 14.7087 19.0447 14.272V11.1094Z" fill="#3EBA75"/>
<path fill-rule="evenodd" clip-rule="evenodd" d="M15.8822 11.9001H17.4635V15.5897C17.4635 16.172 17.9591 16.6439 18.5704 16.6439H27.4256C28.037 16.6439 28.5326 16.172 28.5326 15.5897V11.9001H30.1138C32.2971 11.9001 34.0671 13.67 34.0671 15.8533V31.6662C34.0671 33.8495 32.2971 35.6195 30.1138 35.6195H15.8822C13.6989 35.6195 11.929 33.8495 11.929 31.6662V15.8533C11.929 13.67 13.6989 11.9001 15.8822 11.9001ZM27.7419 30.0849C27.7419 30.5216 27.3879 30.8756 26.9513 30.8756C26.5146 30.8756 26.1606 30.5216 26.1606 30.0849V20.5972C26.1606 20.1605 26.5146 19.8065 26.9513 19.8065C27.3879 19.8065 27.7419 20.1605 27.7419 20.5972V30.0849ZM22.998 30.8756C23.4347 30.8756 23.7887 30.5216 23.7887 30.0849V23.7598C23.7887 23.3231 23.4347 22.9691 22.998 22.9691C22.5613 22.9691 22.2074 23.3231 22.2074 23.7598V30.0849C22.2074 30.5216 22.5613 30.8756 22.998 30.8756ZM19.8354 30.0849C19.8354 30.5216 19.4814 30.8756 19.0448 30.8756C18.6081 30.8756 18.2541 30.5216 18.2541 30.0849V26.9224C18.2541 26.4857 18.6081 26.1317 19.0448 26.1317C19.4814 26.1317 19.8354 26.4857 19.8354 26.9224V30.0849Z" fill="#3EBA75"/>
</svg>
