<svg xmlns="http://www.w3.org/2000/svg" width="18" height="27" fill="none" viewBox="0 0 18 27">
    <path fill="#fff" d="M13.132 1.106H4.868a.553.553 0 1 1 0-1.106h8.264a.553.553 0 1 1 0 1.106z"/>
    <path fill="#fff" d="M9 26.556c-4.962 0-9-4.037-9-9a8.947 8.947 0 0 1 5.978-8.478V.553a.553.553 0 1 1 1.107 0v8.925a.553.553 0 0 1-.392.53 7.85 7.85 0 0 0-5.586 7.548c0 4.352 3.54 7.893 7.893 7.893 4.352 0 7.893-3.54 7.893-7.893a7.849 7.849 0 0 0-5.586-7.549.553.553 0 0 1-.392-.529V.553a.553.553 0 1 1 1.107 0v8.525A8.946 8.946 0 0 1 18 17.556c0 4.963-4.037 9-9 9z"/>
    <path fill="#fff" d="M12.087 16.408a2.73 2.73 0 0 1-1.935-.8 1.63 1.63 0 0 0-2.305 0 2.74 2.74 0 0 1-3.87 0c-.632-.632-2.072-.632-2.704 0a.553.553 0 1 1-.782-.783c1.076-1.076 3.191-1.077 4.269 0 .635.636 1.67.636 2.305 0a2.74 2.74 0 0 1 3.87 0 1.633 1.633 0 0 0 2.305 0c1.077-1.077 3.192-1.076 4.268 0a.553.553 0 1 1-.782.783c-.631-.63-2.072-.632-2.704 0-.533.533-1.234.8-1.935.8z"/>
</svg>
