<svg xmlns="http://www.w3.org/2000/svg" width="33" height="23" fill="none" viewBox="0 0 33 23">
    <path fill="#fff" d="M26.719 17.764a.532.532 0 0 1-.364-.142l-6.123-5.631a.514.514 0 0 1-.024-.737.537.537 0 0 1 .753-.023l6.123 5.631a.514.514 0 0 1 .023.737.536.536 0 0 1-.388.165zM6.28 17.764a.538.538 0 0 1-.388-.165.514.514 0 0 1 .023-.736l6.125-5.631a.54.54 0 0 1 .753.023c.2.21.19.54-.024.736l-6.125 5.631a.532.532 0 0 1-.364.142z"/>
    <path fill="#fff" d="M30.34 23H2.66C1.194 23 0 21.83 0 20.392V2.608C0 1.17 1.194 0 2.66 0h27.68C31.806 0 33 1.17 33 2.608v17.784C33 21.83 31.806 23 30.34 23zM2.66 1.043c-.88 0-1.596.702-1.596 1.565v17.784c0 .863.716 1.565 1.596 1.565h27.68c.88 0 1.596-.702 1.596-1.565V2.608c0-.863-.716-1.565-1.596-1.565H2.66z"/>
    <path fill="#fff" d="M16.5 14.12c-.708 0-1.415-.23-1.954-.69L.883 1.745a.516.516 0 0 1-.052-.736.543.543 0 0 1 .751-.05l13.663 11.684c.68.58 1.83.58 2.509 0L31.4.977a.54.54 0 0 1 .75.05.516.516 0 0 1-.05.737L18.454 13.429c-.54.461-1.246.692-1.954.692z"/>
</svg>
