<?xml version="1.0" encoding="utf-8"?>
<!-- Generator: Adobe Illustrator 23.0.1, SVG Export Plug-In . SVG Version: 6.00 Build 0)  -->
<svg version="1.1" id="Layer_1" xmlns="http://www.w3.org/2000/svg" xmlns:xlink="http://www.w3.org/1999/xlink" x="0px" y="0px"
	 viewBox="0 0 48 48" style="enable-background:new 0 0 48 48;" xml:space="preserve">
<style type="text/css">
	.st0{fill:#FFFFFF;}
	.st1{display:none;}
	.st2{display:inline;}
</style>
<g id="Layer_3">
	<g>
		<path class="st0" d="M34,5.7c-5.4,0-9.8,4.4-9.8,9.8s4.4,9.8,9.8,9.8s9.8-4.4,9.8-9.8S39.4,5.7,34,5.7z M34,23.7
			c-4.3,0-7.7-3.3-8.1-7.3h16.3C41.6,20.5,38.2,23.7,34,23.7z"/>
		<path class="st0" d="M33.4,34l-8.9-8.9l-8.9-8.9c-1.3-1.3-3-2-4.9-2c-1.8,0-3.6,0.8-4.9,2c-1.2,1.3-1.9,3-1.9,4.9
			c0,1.8,0.8,3.6,2,4.9l8.9,8.9l8.9,8.9c1.3,1.3,3,2,4.9,2s3.6-0.8,4.9-2C36,41,36,36.7,33.4,34z M6.9,24.7c-0.9-1-1.5-2.3-1.5-3.7
			c0-1.4,0.6-2.8,1.5-3.7c1-1,2.3-1.5,3.7-1.5s2.8,0.6,3.7,1.5l8.3,8.3L15.2,33L6.9,24.7z"/>
		<path class="st0" d="M15.3,30.2c0.3,0,0.4-0.1,0.6-0.3c0.3-0.3,0.3-0.8,0-1.2l-6-6c-0.4-0.4-0.6-0.9-0.6-1.5s0.3-1.1,0.6-1.5
			c0.3-0.3,0.3-0.8,0-1.2c-0.3-0.3-0.8-0.3-1.2,0c-0.8,0.8-1.1,1.7-1.1,2.7s0.4,2,1.1,2.7l6,6C14.9,30.1,15.1,30.2,15.3,30.2z"/>
	</g>
</g>
<g id="Layer_4" class="st1">
	<path class="st2" d="M6.5,34.1l7.4,7.4c1.4,1.4,3.6,1.4,4.9,0l5.2-5.2l5.2,5.2c1.4,1.4,3.6,1.4,4.9,0l7.4-7.4
		c1.4-1.4,1.4-3.6,0-4.9L36.3,24l5.2-5.2c1.4-1.4,1.4-3.6,0-4.9l-7.4-7.4c-1.4-1.4-3.6-1.4-4.9,0L24,11.7l-5.2-5.2
		c-1.4-1.4-3.6-1.4-4.9,0l-7.4,7.4c-1.4,1.4-1.4,3.6,0,4.9l5.2,5.2l-5.2,5.2C5.2,30.5,5.2,32.7,6.5,34.1z M40.3,30.3
		c0.7,0.7,0.7,1.9,0,2.6l0,0L33,40.3c-0.7,0.7-1.9,0.7-2.7,0l-5.2-5.2l10-10L40.3,30.3z M7.7,17.7C7,17,7,15.8,7.7,15.1l0,0L15,7.7
		c0.7-0.7,1.9-0.7,2.7,0l5.2,5.2l-10,10L7.7,17.7z M7.7,30.3L30.3,7.7C31,7,32.2,7,32.9,7.7l0,0l7.3,7.4c0.7,0.7,0.7,1.9,0,2.6l0,0
		L23.4,34.6l0,0l-5.8,5.8c-0.7,0.7-1.9,0.7-2.7,0L7.7,33C6.9,32.2,6.9,31.1,7.7,30.3C7.6,30.3,7.6,30.3,7.7,30.3L7.7,30.3z"/>
	<circle class="st2" cx="24" cy="24" r="1.5"/>
	<circle class="st2" cx="18.7" cy="24" r="1.5"/>
	<circle class="st2" cx="24" cy="29.3" r="1.5"/>
	<circle class="st2" cx="24" cy="18.7" r="1.5"/>
	<circle class="st2" cx="29.3" cy="24" r="1.5"/>
</g>
</svg>
