<svg xmlns="http://www.w3.org/2000/svg" width="25" height="25" fill="none" viewBox="0 0 25 25">
    <path fill="#2B93A1" d="M23.756 0h-1.679c-.686 0-1.244.558-1.244 1.244v19.7l1.667 2.917v.722a.416.416 0 1 0 .833 0v-.722L25 20.944V1.244C25 .558 24.442 0 23.756 0zm-2.09 3.75h2.5v.833h-2.5V3.75zm1.25 19.16l-.948-1.66h1.897l-.949 1.66zm1.25-2.493h-2.5v-15h2.5v15zm-2.5-17.5V1.244c0-.226.184-.41.41-.41h1.68c.226 0 .41.184.41.41v1.673h-2.5zM0 0v25h19.167V0H0zm.833 24.167V.833h2.5v23.334h-2.5zM18.333.833v23.334H4.167V.833h14.166z"/>
    <path fill="#2B93A1" d="M16.25 10V4.167h-10V10h10zM7.083 5h8.334v4.167H7.083V5z"/>
    <path fill="#2B93A1" d="M14.166 5.833H8.333v.834h5.833v-.834zM14.166 7.5H8.333v.833h5.833V7.5z"/>
</svg>
