<svg xmlns="http://www.w3.org/2000/svg" width="23" height="24" fill="none" viewBox="0 0 23 24">
    <path fill="#fff" d="M20.96 2.603a2.105 2.105 0 0 0-.146 0h-1.84v-1.59C18.974.375 18.37 0 17.738 0h-1.696c-.633 0-1.093.376-1.093 1.012v1.59H8.051v-1.59C8.05.376 7.59 0 6.958 0H5.262C4.63 0 4.026.376 4.026 1.012v1.59h-1.84A2.133 2.133 0 0 0 .002 4.83v16.713C.002 22.814.922 24 2.186 24h18.627c1.265 0 2.185-1.186 2.185-2.458V4.83a2.135 2.135 0 0 0-2.038-2.226zm-4.918-1.446h1.782v3.18h-1.782v-3.18zm-10.78 0h1.639v3.18H5.262v-3.18zm16.586 20.385c0 .636-.402 1.301-1.034 1.301H2.186c-.632 0-1.034-.665-1.034-1.3V9.252h20.696v12.29zm0-16.713v3.267H1.152V4.83a.982.982 0 0 1 1.034-1.07h1.84v.636c0 .636.604 1.099 1.236 1.099h1.696a1.066 1.066 0 0 0 1.093-1.099V3.76h6.898v.636a1.067 1.067 0 0 0 1.093 1.099h1.696c.632 0 1.236-.463 1.236-1.099V3.76h1.84a.98.98 0 0 1 1.034 1.07z"/>
    <path fill="#fff" d="M8.31 17.147l-.518 2.892a.573.573 0 0 0 .834.607l2.586-1.36 2.587 1.36.26.058a.544.544 0 0 0 .344-.116.58.58 0 0 0 .23-.55l-.517-2.891 2.098-2.024a.639.639 0 0 0 .144-.607.604.604 0 0 0-.46-.376l-2.875-.434-1.293-2.631a.573.573 0 0 0-1.035 0l-1.294 2.631-2.874.434a.604.604 0 0 0-.46.376.639.639 0 0 0 .144.607l2.098 2.024zm1.58-2.342a.518.518 0 0 0 .402-.318l.92-1.85.92 1.85c.07.17.222.29.403.318l2.04.289-1.465 1.417a.61.61 0 0 0-.173.52l.345 2.053-1.811-.983-.259-.058-.258.058-1.811.983.345-2.053a.61.61 0 0 0-.173-.52L7.85 15.094l2.041-.29z"/>
</svg>
