<svg xmlns="http://www.w3.org/2000/svg" width="60" height="61" fill="none" viewBox="0 0 60 61">
    <circle cx="29.993" cy="30.599" r="29.993" fill="#55C483"/>
    <path fill="#47B876" d="M25.952 60.323l-11.44-14.475 10.675-7.479 20.716-12.534 12.374 14.758C53.8 52.978 43.271 59.557 32.106 60.54c-2.461.217-5.4-.155-6.154-.216z"/>
    <path fill="#FD646F" d="M46.204 47.082l-4.953-1.09-1.535 4.847c-.11.348-.583.4-.765.082l-6.128-10.644c3.019-.654 5.704-2.205 7.767-4.359l6.069 10.544c.182.317-.098.699-.455.62z"/>
    <path fill="#F2F2F2" d="M46.205 47.082l-4.578-1.008c-.213-.046-.425.077-.491.284l-1.42 4.48c-.11.349-.582.4-.764.083l-5.25-9.12-.878-1.525c3.019-.654 5.704-2.204 7.767-4.358l.871 1.513 5.198 9.031c.182.317-.098.699-.455.62z"/>
    <path fill="#CDD6E0" d="M46.205 47.082l-4.578-1.008c-.213-.046-.426.077-.491.284l.492-1.532c.067-.206.28-.328.492-.281l3.94.876.6 1.042c.182.316-.1.698-.455.619z"/>
    <path fill="#F2F2F2" d="M27.26 40.149L21.033 50.96c-.182.317-.654.266-.764-.083l-1.42-4.48c-.065-.207-.278-.33-.49-.284l-4.579 1.008c-.356.078-.636-.304-.454-.62l5.789-10.058c2.161 2.05 5.077 3.201 8.143 3.706z"/>
    <path fill="#CDD6E0" d="M19.935 37.94L14.776 46.9l-.995.22c-.356.078-.636-.304-.454-.62l4.928-8.562 1.332-2.321c.359.34.734.663 1.125.966l-.777 1.355zM21.642 49.905l-.608 1.055c-.182.317-.654.267-.764-.082l-1.42-4.48c-.065-.208-.278-.331-.49-.285l1.57-.345c.211-.047.424.076.49.283l1.222 3.854z"/>
    <path fill="#CDD6E0" d="M19.256 36.187l4.094 1.846 3.91 2.116-1.049 1.82c-2.922-.594-5.634-1.955-7.875-3.958l-.081-.072 1.001-1.752zM41.461 37.431l-.871-1.513-4.612 2.035-3.155 2.324.355.615.87 1.513 4.903 8.516c.182.317.654.266.765-.082l.312-.986-4.873-8.488c2.36-.82 4.506-2.156 6.306-3.934z"/>
    <path fill="#FFD15C" d="M45.244 25.324c0 4.111-1.618 7.845-4.25 10.594-2.063 2.154-4.749 3.705-7.767 4.359-1.043.225-2.124.344-3.235.344-.847 0-1.677-.069-2.486-.202-2.91-.479-5.542-1.783-7.65-3.666-.114-.102-.226-.204-.337-.31-.393-.372-.766-.766-1.119-1.178-.338-.396-.655-.81-.952-1.24-.89-1.289-1.59-2.722-2.054-4.258-.424-1.406-.653-2.897-.653-4.443 0-8.448 6.829-15.297 15.251-15.297 1.54 0 3.028.229 4.429.656 1.532.464 2.96 1.165 4.246 2.059.429.297.841.616 1.236.955.527.452 1.023.94 1.484 1.46 2.4 2.703 3.857 6.265 3.857 10.167z"/>
    <path fill="#FFD15C" d="M29.993 36.28c6.033 0 10.924-4.905 10.924-10.956 0-6.051-4.891-10.957-10.924-10.957-6.033 0-10.924 4.906-10.924 10.957 0 6.051 4.891 10.957 10.924 10.957z"/>
    <path fill="#40596B" fill-rule="evenodd" d="M29.993 14.368c-6.033 0-10.924 4.905-10.924 10.956 0 6.051 4.891 10.957 10.924 10.957 6.033 0 10.923-4.906 10.923-10.957 0-6.05-4.89-10.956-10.923-10.956zm0 20.648c-5.329 0-9.663-4.347-9.663-9.692 0-5.344 4.334-9.692 9.663-9.692 5.328 0 9.663 4.348 9.663 9.692 0 5.345-4.335 9.692-9.663 9.692z" clip-rule="evenodd"/>
    <path fill="#E39D2C" d="M30.37 19.265l1.501 3.065c.061.125.18.212.318.232l3.372.484c.345.05.483.474.234.717l-2.446 2.382c-.1.096-.145.236-.121.372l.583 3.368c.06.344-.303.606-.611.443l-3.01-1.595c-.123-.065-.27-.065-.393 0l-3.01 1.595c-.309.163-.67-.099-.611-.443l.583-3.368c.023-.136-.022-.276-.121-.372l-2.446-2.382c-.25-.243-.112-.667.233-.717l3.373-.484c.137-.02.256-.107.317-.232l1.5-3.065c.155-.314.602-.314.756 0z"/>
</svg>
