<svg xmlns="http://www.w3.org/2000/svg" width="14" height="17" fill="none" viewBox="0 0 14 17">
    <path fill="#4CBBCA" stroke="#4CBBCA" stroke-width=".5" d="M12.161.97H1.503c-.434 0-.79.355-.79.79v13.42c0 .435.356.79.79.79h7.303c.434 0 1.048-.243 1.364-.54l2.206-2.077c.316-.297.574-.896.574-1.33V1.76c0-.435-.355-.79-.789-.79zM9.764 14.998c-.087.082-.22.161-.366.226v-2.116c0-.135.055-.257.145-.348.09-.09.213-.145.348-.145h2.294c-.064.124-.14.236-.215.307l-2.206 2.076zm2.594-2.975H9.891c-.599 0-1.084.486-1.085 1.085v2.27H1.503c-.107 0-.197-.09-.197-.197V1.76c0-.107.09-.198.197-.198h10.658c.107 0 .198.09.198.198v10.263z"/>
    <path fill="#4CBBCA" stroke="#4CBBCA" stroke-width=".5" d="M9.891 4.328H5.55c-.163 0-.296.132-.296.296 0 .163.133.296.296.296h4.342c.164 0 .296-.133.296-.296 0-.164-.132-.296-.296-.296zM4.715 3.183c-.14-.084-.322-.038-.406.102l-.99 1.648-.52-.521c-.116-.116-.304-.116-.42 0-.115.116-.115.303 0 .419l.79.79c.064.063.155.095.246.084.09-.012.17-.064.217-.142l1.184-1.974c.085-.14.04-.322-.101-.406zM9.891 7.286H5.55c-.163 0-.296.133-.296.296 0 .163.133.296.296.296h4.342c.164 0 .296-.133.296-.296 0-.163-.132-.296-.296-.296zM4.715 6.144c-.14-.084-.322-.039-.406.102l-.99 1.648-.52-.521c-.116-.116-.304-.116-.42 0-.115.115-.115.303 0 .418l.79.79c.064.064.155.095.246.084.09-.01.17-.063.217-.141L4.816 6.55c.085-.14.04-.322-.101-.406z"/>
</svg>
