<svg xmlns="http://www.w3.org/2000/svg" width="12" height="17" fill="none" viewBox="0 0 12 17">
    <path fill="#4CBBCA" fill-rule="evenodd" stroke="#4CBBCA" stroke-width=".5" d="M8.769 7.063c-.179.174-.26.425-.218.671l.481 2.804c.013.075-.03.119-.056.138-.02.014-.054.032-.098.027l-.022-.005h-.003l-.02-.009-.005-.002-2.521-1.324c-.221-.117-.485-.117-.707 0l-2.52 1.324-.025.01-.024.005H3.03c-.044.006-.078-.012-.098-.026-.026-.02-.069-.063-.056-.138l.482-2.804c.042-.246-.04-.497-.219-.67l-2.04-1.987c-.054-.053-.045-.113-.035-.144.01-.031.038-.085.114-.096l2.818-.409c.248-.036.461-.19.572-.414l1.26-2.552c.034-.068.094-.078.127-.078.032 0 .092.01.126.078v0l1.26 2.552c.111.223.325.378.572.414l2.818.41c.076.01.104.064.114.095.01.031.019.091-.035.144l-2.04 1.986zm-.172 7.91c-.107-.035-.226-.009-.308.07-.004.003-.3.284-.668.623l-1.232-5.563.255.134 1.896.996h.002l.037.019.887 4.004-.869-.283zm-4.302.693c-.369-.34-.664-.62-.668-.623-.059-.056-.135-.085-.213-.085-.032 0-.065.005-.096.015l-.868.283.887-4.008.03-.015 2.16-1.135-1.232 5.568zM11.24 5.519c.208-.203.282-.5.192-.777-.09-.276-.325-.474-.613-.516l-2.818-.409c-.046-.006-.086-.035-.106-.077L6.634 1.19v0c-.129-.26-.39-.423-.68-.423-.291 0-.552.162-.68.423L4.011 3.74c-.02.042-.06.07-.105.077l-2.82.41c-.287.041-.522.239-.612.515-.09.277-.016.574.192.777l2.04 1.986c.033.033.048.08.04.125l-.481 2.804c-.05.286.066.57.302.741.043.031.088.057.135.078l-.974 4.398c-.024.108.012.22.095.295.082.074.198.1.303.065l1.208-.394c.193.181.567.53.939.866.057.052.131.08.207.08.031 0 .063-.005.094-.015.105-.033.184-.12.207-.227l1.176-5.308 1.175 5.308c.024.107.103.194.208.227.03.01.062.015.094.015.075 0 .15-.028.207-.08.372-.336.745-.685.938-.866l1.208.394c.106.034.221.01.304-.065.082-.074.118-.187.094-.295l-.975-4.4c.045-.021.088-.046.128-.076.236-.17.351-.455.302-.741L9.16 7.63c-.008-.046.007-.092.04-.125l2.04-1.986z" clip-rule="evenodd"/>
</svg>
