<svg xmlns="http://www.w3.org/2000/svg" width="13" height="16" fill="none" viewBox="0 0 13 16">
    <path fill="#4CBBCA" stroke="#4CBBCA" stroke-width=".8" d="M5.486 6.243v1.614H3.87c-.104 0-.187.084-.187.188v2.353c0 .103.083.187.187.187h1.615V12.2c0 .104.084.188.187.188h2.353c.103 0 .187-.084.187-.188v-1.614h1.615c.103 0 .187-.084.187-.187V8.045c0-.104-.084-.188-.187-.188H8.213V6.243c0-.104-.084-.188-.187-.188H5.673c-.103 0-.187.084-.187.188zm.375 1.802V6.431h1.977v1.614c0 .104.084.188.188.188H9.64v1.977H8.026c-.104 0-.188.084-.188.188v1.614H5.861v-1.614c0-.104-.084-.188-.188-.188H4.06V8.233h1.614c.104 0 .188-.084.188-.188z"/>
    <path fill="#4CBBCA" stroke="#4CBBCA" stroke-width=".8" d="M6.966.487C6.898.435 6.802.436 6.735.49 6.68.533 5.38 1.58 4.059 3.272c-1.224 1.57-2.684 4.007-2.684 6.702 0 3.019 2.456 5.475 5.475 5.475 3.018 0 5.474-2.456 5.474-5.475 0-5.296-5.304-9.445-5.358-9.487zM6.85 15.073c-2.812 0-5.1-2.287-5.1-5.1 0-4.546 4.336-8.44 5.104-9.094.77.636 5.095 4.413 5.095 9.095 0 2.812-2.288 5.1-5.1 5.1z"/>
</svg>
