<svg xmlns="http://www.w3.org/2000/svg" width="47" height="48" fill="none" viewBox="0 0 47 48">
    <g filter="url(#filter0_d)">
        <circle cx="23.5" cy="24.221" r="12.5" stroke="#91DC5A" stroke-dasharray="1 6" stroke-linecap="round" stroke-width="2"/>
    </g>
    <g filter="url(#filter1_d)">
        <path stroke="#91DC5A" stroke-linecap="round" stroke-width="2" d="M36 24.221c0 6.904-5.596 12.5-12.5 12.5S11 31.125 11 24.221"/>
    </g>
    <g filter="url(#filter2_d)">
        <path stroke="#91DC5A" stroke-linecap="round" stroke-width="2" d="M11 24.221c0-6.903 5.596-12.5 12.5-12.5"/>
    </g>
    <path fill="#91DC5A" fill-rule="evenodd" d="M21.711 28.977c.053-.026.102-.061.145-.105l7.819-7.818c.22-.221.222-.58 0-.802l-.401-.402c-.22-.22-.58-.22-.802.001l-7.017 7.017-3.107-3.106c-.223-.223-.58-.223-.802-.001l-.402.401c-.22.22-.22.58.001.803l3.908 3.907c.179.179.445.214.658.105zm-9.269-4.756c0-6.107 4.95-11.057 11.058-11.057 6.107 0 11.058 4.949 11.058 11.057 0 6.107-4.95 11.058-11.058 11.058-6.107 0-11.058-4.95-11.058-11.058z" clip-rule="evenodd"/>
    <defs>
        <filter id="filter0_d" width="47" height="47" x="0" y=".721" color-interpolation-filters="sRGB" filterUnits="userSpaceOnUse">
            <feFlood flood-opacity="0" result="BackgroundImageFix"/>
            <feColorMatrix in="SourceAlpha" values="0 0 0 0 0 0 0 0 0 0 0 0 0 0 0 0 0 0 127 0"/>
            <feOffset/>
            <feGaussianBlur stdDeviation="5"/>
            <feColorMatrix values="0 0 0 0 0.802361 0 0 0 0 0.89576 0 0 0 0 0.908333 0 0 0 0.5 0"/>
            <feBlend in2="BackgroundImageFix" result="effect1_dropShadow"/>
            <feBlend in="SourceGraphic" in2="effect1_dropShadow" result="shape"/>
        </filter>
        <filter id="filter1_d" width="47" height="34.5" x="0" y="13.221" color-interpolation-filters="sRGB" filterUnits="userSpaceOnUse">
            <feFlood flood-opacity="0" result="BackgroundImageFix"/>
            <feColorMatrix in="SourceAlpha" values="0 0 0 0 0 0 0 0 0 0 0 0 0 0 0 0 0 0 127 0"/>
            <feOffset/>
            <feGaussianBlur stdDeviation="5"/>
            <feColorMatrix values="0 0 0 0 0.802361 0 0 0 0 0.89576 0 0 0 0 0.908333 0 0 0 0.5 0"/>
            <feBlend in2="BackgroundImageFix" result="effect1_dropShadow"/>
            <feBlend in="SourceGraphic" in2="effect1_dropShadow" result="shape"/>
        </filter>
        <filter id="filter2_d" width="34.5" height="34.5" x="0" y=".721" color-interpolation-filters="sRGB" filterUnits="userSpaceOnUse">
            <feFlood flood-opacity="0" result="BackgroundImageFix"/>
            <feColorMatrix in="SourceAlpha" values="0 0 0 0 0 0 0 0 0 0 0 0 0 0 0 0 0 0 127 0"/>
            <feOffset/>
            <feGaussianBlur stdDeviation="5"/>
            <feColorMatrix values="0 0 0 0 0.802361 0 0 0 0 0.89576 0 0 0 0 0.908333 0 0 0 0.5 0"/>
            <feBlend in2="BackgroundImageFix" result="effect1_dropShadow"/>
            <feBlend in="SourceGraphic" in2="effect1_dropShadow" result="shape"/>
        </filter>
    </defs>
</svg>
