<svg width="16" height="16" viewBox="0 0 16 16" fill="none" xmlns="http://www.w3.org/2000/svg">
<path d="M14.9952 1.21104C13.6758 -0.111852 11.53 -0.111852 10.2105 1.21104L1.43798 9.98135C1.3694 10.0499 1.32694 10.1381 1.31387 10.2329L0.663936 15.0476C0.64434 15.1847 0.69333 15.3219 0.788045 15.4167C0.869696 15.4983 0.984006 15.5473 1.09832 15.5473C1.11791 15.5473 1.13751 15.5473 1.15711 15.5441L4.05733 15.1521C4.29902 15.1194 4.46885 14.8973 4.43619 14.6556C4.40353 14.4139 4.18144 14.244 3.93976 14.2767L1.61435 14.5903L2.06833 11.2324L5.60216 14.7666C5.68381 14.8483 5.79812 14.8973 5.91243 14.8973C6.02674 14.8973 6.14106 14.8516 6.22271 14.7666L14.9952 5.99633C15.6354 5.35612 15.9881 4.50685 15.9881 3.60206C15.9881 2.69726 15.6354 1.84799 14.9952 1.21104ZM10.3804 2.28896L11.8533 3.76211L3.84831 11.7681L2.37533 10.2949L10.3804 2.28896ZM5.9157 13.8325L4.47538 12.392L12.4804 4.38599L13.9207 5.82648L5.9157 13.8325ZM14.5347 5.19606L11.0107 1.67161C11.4581 1.3025 12.0166 1.09999 12.6045 1.09999C13.274 1.09999 13.9011 1.3613 14.3747 1.83166C14.8483 2.30202 15.1063 2.93244 15.1063 3.60206C15.1063 4.19328 14.9038 4.74857 14.5347 5.19606Z" fill="#03A9F4"/>
</svg>
