<svg width="15" height="15" viewBox="0 0 15 15" fill="none" xmlns="http://www.w3.org/2000/svg">
<g clip-path="url(#clip0_456:387)">
<path d="M3.84244 9.68944C5.22329 11.3401 6.88554 12.6397 8.78276 13.5593C9.5051 13.9016 10.4711 14.3078 11.5474 14.3774C11.6141 14.3803 11.6779 14.3832 11.7446 14.3832C12.467 14.3832 13.0472 14.1337 13.52 13.6202C13.5229 13.6173 13.5287 13.6115 13.5316 13.6057C13.6999 13.4027 13.8913 13.2199 14.0915 13.0255C14.2278 12.895 14.3671 12.7586 14.5005 12.6194C15.1184 11.9754 15.1184 11.1573 14.4947 10.5336L12.7513 8.79014C12.4554 8.48264 12.1014 8.32019 11.7301 8.32019C11.3588 8.32019 11.002 8.48264 10.6974 8.78724L9.65885 9.82578C9.56312 9.77066 9.46448 9.72135 9.37165 9.67493C9.25561 9.61691 9.14828 9.56179 9.05255 9.50087C8.10684 8.90038 7.24816 8.11712 6.42719 7.11049C6.01235 6.58542 5.73386 6.14447 5.53949 5.69482C5.81218 5.44824 6.06747 5.19006 6.31405 4.93768C6.40108 4.84775 6.49101 4.75782 6.58094 4.66789C6.89424 4.35458 7.06249 3.99196 7.06249 3.62354C7.06249 3.25512 6.89714 2.8925 6.58094 2.5792L5.71645 1.71472C5.61492 1.61318 5.51919 1.51455 5.42056 1.41302C5.22909 1.21575 5.02893 1.01269 4.83166 0.829926C4.53286 0.536929 4.18185 0.383179 3.81053 0.383179C3.4421 0.383179 3.08819 0.536929 2.77779 0.832826L1.69283 1.91778C1.2983 2.31231 1.07493 2.79097 1.02851 3.34505C0.973394 4.03838 1.10104 4.77522 1.43174 5.66581C1.93941 7.04377 2.70526 8.32309 3.84244 9.68944ZM1.73634 3.40597C1.77116 3.02015 1.9191 2.69814 2.1976 2.41965L3.27675 1.34049C3.44501 1.17804 3.63067 1.09391 3.81053 1.09391C3.98748 1.09391 4.16734 1.17804 4.3327 1.3463C4.52706 1.52615 4.70982 1.71472 4.90709 1.91488C5.00572 2.01642 5.10725 2.11795 5.20879 2.22238L6.07327 3.08687C6.25313 3.26673 6.34596 3.44949 6.34596 3.62935C6.34596 3.8092 6.25313 3.99196 6.07327 4.17182C5.98334 4.26175 5.89341 4.35458 5.80348 4.44451C5.53369 4.7172 5.28131 4.97539 5.00282 5.22197C4.99702 5.22777 4.99411 5.23067 4.98831 5.23647C4.74753 5.47725 4.78525 5.70643 4.84327 5.88049C4.84617 5.88919 4.84907 5.89499 4.85197 5.90369C5.07534 6.44037 5.38574 6.95094 5.8702 7.56014C6.74049 8.63349 7.65719 9.46606 8.66672 10.1072C8.79146 10.1884 8.92491 10.2522 9.04965 10.316C9.16568 10.3741 9.27302 10.4292 9.36875 10.4901C9.38035 10.4959 9.38906 10.5017 9.40066 10.5075C9.49639 10.5568 9.58922 10.58 9.68206 10.58C9.91413 10.58 10.065 10.4321 10.1143 10.3828L11.1993 9.29781C11.3675 9.12955 11.5503 9.03962 11.7301 9.03962C11.9506 9.03962 12.1305 9.17597 12.2436 9.29781L13.9929 11.0442C14.341 11.3923 14.3381 11.7694 13.9842 12.1378C13.8623 12.2684 13.7347 12.3931 13.5983 12.5237C13.3953 12.7209 13.1835 12.924 12.992 13.1532C12.6584 13.5129 12.261 13.6811 11.7475 13.6811C11.6982 13.6811 11.646 13.6782 11.5967 13.6753C10.6452 13.6144 9.76038 13.2431 9.09606 12.9269C7.29167 12.0537 5.70775 10.815 4.39362 9.24269C3.31156 7.94016 2.58342 6.72756 2.10186 5.42794C1.80307 4.63017 1.68993 3.98906 1.73634 3.40597Z" fill="#2BA7F1"/>
</g>
<defs>
<clipPath id="clip0_456:387">
<rect width="14" height="14" fill="white" transform="translate(0.989746 0.383179)"/>
</clipPath>
</defs>
</svg>
