<svg width="18" height="18" viewBox="0 0 18 18" fill="none" xmlns="http://www.w3.org/2000/svg">
<path d="M8.98986 0.383301C4.38392 0.383301 0.636719 4.13051 0.636719 8.73644C0.636719 13.3424 4.38392 17.0896 8.98986 17.0896C13.5958 17.0896 17.343 13.3424 17.343 8.73644C17.343 4.13051 13.5958 0.383301 8.98986 0.383301ZM8.98986 16.7563C4.56773 16.7563 0.970011 13.1586 0.970011 8.73644C0.970011 4.31432 4.56773 0.716593 8.98986 0.716593C13.412 0.716593 17.0097 4.31432 17.0097 8.73644C17.0097 13.1586 13.412 16.7563 8.98986 16.7563Z" fill="#2BA7F1" stroke="#2BA7F1" stroke-width="0.4"/>
<path d="M10.8628 9.08028C10.5512 8.76682 10.0261 8.61026 9.21781 8.59176V4.88355C10.196 4.88963 10.8849 4.99228 10.8849 6.73707C10.8849 6.82906 10.9595 6.90372 11.0515 6.90372C11.1435 6.90372 11.2182 6.82906 11.2182 6.73707C11.2182 4.67641 10.2312 4.55717 9.21781 4.55026V3.40706C9.21781 3.31507 9.14316 3.24042 9.05117 3.24042C8.95918 3.24042 8.88452 3.31507 8.88452 3.40706V4.55434C6.86127 4.60908 6.86035 5.6912 6.86035 6.7389V6.76482C6.86027 7.33216 6.86027 7.86818 7.14299 8.27188C7.43795 8.69316 7.9938 8.90189 8.88461 8.92413V12.6292C7.92047 12.6213 7.24397 12.5049 7.24397 10.776C7.24397 10.684 7.16932 10.6093 7.07733 10.6093C6.98534 10.6093 6.91068 10.684 6.91068 10.776C6.91068 12.8187 7.88056 12.9536 8.88461 12.9625V14.2113C8.88461 14.3033 8.95926 14.378 9.05125 14.378C9.14324 14.378 9.2179 14.3033 9.2179 14.2113V12.9626C10.0199 12.9439 10.5426 12.7871 10.8552 12.4731C11.2431 12.0834 11.2407 11.5226 11.2381 10.9287L11.2376 10.7774C11.2376 10.718 11.238 10.6593 11.2384 10.6012C11.2418 10.0168 11.2452 9.46515 10.8628 9.08028ZM7.41587 8.08065C7.19348 7.76303 7.19348 7.3005 7.19356 6.76482V6.73882C7.19356 5.69512 7.19373 4.93229 8.88444 4.88705V8.59084C8.1137 8.57126 7.64484 8.4077 7.41587 8.08065ZM10.9046 10.9301C10.907 11.4753 10.9091 11.9463 10.6188 12.2378C10.3744 12.4833 9.9149 12.6116 9.21773 12.6288V8.9253C9.92098 8.94246 10.3829 9.07028 10.6263 9.31525C10.911 9.60172 10.9082 10.0638 10.9049 10.5989C10.9045 10.6577 10.9042 10.7172 10.9042 10.7772L10.9046 10.9301Z" fill="#2BA7F1" stroke="#2BA7F1" stroke-width="0.4"/>
</svg>
