<svg width="22" height="23" viewBox="0 0 22 23" fill="none" xmlns="http://www.w3.org/2000/svg">
<path d="M4.49426 3.71741L3.49707 4.7146L5.94774 7.16527L6.94493 6.16807L4.49426 3.71741Z" fill="#DCA900"/>
<path d="M2.63243 4.78054C3.69687 4.78054 4.55978 3.91764 4.55978 2.85319C4.55978 1.78875 3.69687 0.925842 2.63243 0.925842C1.56798 0.925842 0.705078 1.78875 0.705078 2.85319C0.705078 3.91764 1.56798 4.78054 2.63243 4.78054Z" fill="#DCA900"/>
<path d="M2.63248 5.48566C1.18095 5.48566 0 4.30476 0 2.85318C0 1.4016 1.18095 0.220703 2.63248 0.220703C4.08401 0.220703 5.26496 1.4016 5.26496 2.85318C5.26496 4.30476 4.08401 5.48566 2.63248 5.48566ZM2.63248 1.63096C1.95856 1.63096 1.41026 2.17922 1.41026 2.85318C1.41026 3.52714 1.95856 4.0754 2.63248 4.0754C3.30639 4.0754 3.8547 3.52714 3.8547 2.85318C3.8547 2.17922 3.30639 1.63096 2.63248 1.63096Z" fill="#DCA900"/>
<path d="M17.5064 3.71793L15.0557 6.1687L16.0529 7.16589L18.5036 4.71513L17.5064 3.71793Z" fill="#DCA900"/>
<path d="M19.3678 5.48566C17.9163 5.48566 16.7354 4.30476 16.7354 2.85318C16.7354 1.4016 17.9163 0.220703 19.3678 0.220703C20.8194 0.220703 22.0003 1.4016 22.0003 2.85318C22.0003 4.30476 20.8194 5.48566 19.3678 5.48566ZM19.3678 1.63096C18.6939 1.63096 18.1456 2.17922 18.1456 2.85318C18.1456 3.52714 18.6939 4.0754 19.3678 4.0754C20.0417 4.0754 20.5901 3.52714 20.5901 2.85318C20.5901 2.17922 20.0417 1.63096 19.3678 1.63096Z" fill="#DCA900"/>
<path d="M16.0519 15.2761L15.0547 16.2733L17.5054 18.7239L18.5025 17.7267L16.0519 15.2761Z" fill="#DCA900"/>
<path d="M19.3668 21.5157C20.4312 21.5157 21.2942 20.6527 21.2942 19.5883C21.2942 18.5239 20.4312 17.6609 19.3668 17.6609C18.3024 17.6609 17.4395 18.5239 17.4395 19.5883C17.4395 20.6527 18.3024 21.5157 19.3668 21.5157Z" fill="#DCA900"/>
<path d="M19.3669 22.2207C17.9153 22.2207 16.7344 21.0398 16.7344 19.5882C16.7344 18.1367 17.9153 16.9557 19.3669 16.9557C20.8184 16.9557 21.9993 18.1367 21.9993 19.5882C21.9993 21.0398 20.8184 22.2207 19.3669 22.2207ZM19.3669 18.366C18.6929 18.366 18.1446 18.9143 18.1446 19.5882C18.1446 20.2622 18.6929 20.8105 19.3669 20.8105C20.0408 20.8105 20.5891 20.2622 20.5891 19.5882C20.5891 18.9143 20.0408 18.366 19.3669 18.366Z" fill="#DCA900"/>
<path d="M5.94686 15.2763L3.49609 17.7271L4.49329 18.7242L6.94405 16.2735L5.94686 15.2763Z" fill="#DCA900"/>
<path d="M2.63248 22.2207C1.18095 22.2207 0 21.0398 0 19.5882C0 18.1367 1.18095 16.9557 2.63248 16.9557C4.08401 16.9557 5.26496 18.1367 5.26496 19.5882C5.26496 21.0398 4.08401 22.2207 2.63248 22.2207ZM2.63248 18.366C1.95856 18.366 1.41026 18.9143 1.41026 19.5882C1.41026 20.2622 1.95856 20.8105 2.63248 20.8105C3.30639 20.8105 3.8547 20.2622 3.8547 19.5882C3.8547 18.9143 3.30639 18.366 2.63248 18.366Z" fill="#DCA900"/>
<path d="M10.9998 18.366C7.05986 18.366 3.85449 15.1607 3.85449 11.2207C3.85449 7.28081 7.05986 4.07544 10.9998 4.07544C14.9397 4.07544 18.1451 7.28081 18.1451 11.2207C18.1451 15.1607 14.9397 18.366 10.9998 18.366ZM10.9998 5.4857C7.83748 5.4857 5.26475 8.05843 5.26475 11.2207C5.26475 14.3831 7.83748 16.9558 10.9998 16.9558C14.1621 16.9558 16.7348 14.3831 16.7348 11.2207C16.7348 8.05843 14.1621 5.4857 10.9998 5.4857Z" fill="#DCA900"/>
<path d="M10.4175 11.5485C9.12982 11.5485 8.08594 12.5924 8.08594 13.88V14.4629V15.0458H8.66883H13.332H13.9149V14.4629V13.88C13.9149 12.5924 12.871 11.5485 11.5833 11.5485H10.4175Z" fill="#DCA900"/>
<path d="M11.0005 11.23C12.2451 11.23 13.254 10.2211 13.254 8.97653C13.254 7.73199 12.2451 6.72308 11.0005 6.72308C9.75597 6.72308 8.74707 7.73199 8.74707 8.97653C8.74707 10.2211 9.75597 11.23 11.0005 11.23Z" fill="#DCA900"/>
</svg>
