<svg width="22" height="24" viewBox="0 0 22 24" fill="none" xmlns="http://www.w3.org/2000/svg">
<path d="M6.01212 11.7681C3.07896 11.7681 0.701172 14.1459 0.701172 17.079V18.4068V19.7345H2.02891H12.6508H13.9785V18.4068V17.079C13.9785 14.1459 11.6007 11.7681 8.6676 11.7681H6.01212Z" fill="#FF5757"/>
<path d="M7.34001 11.0428C10.1749 11.0428 12.473 8.74469 12.473 5.90983C12.473 3.07497 10.1749 0.776855 7.34001 0.776855C4.50515 0.776855 2.20703 3.07497 2.20703 5.90983C2.20703 8.74469 4.50515 11.0428 7.34001 11.0428Z" fill="#FF5757"/>
<circle cx="15.5264" cy="17.3931" r="5.77147" fill="#FF5757" stroke="#F6F9FC"/>
<path d="M17.9766 14.9449C17.8525 14.8209 17.6536 14.8209 17.5295 14.9449L15.526 16.9464L13.5225 14.9449C13.3985 14.8209 13.1995 14.8209 13.0755 14.9449C12.9514 15.0688 12.9514 15.2675 13.0755 15.3915L15.079 17.393L13.0755 19.3945C12.9514 19.5184 12.9514 19.7172 13.0755 19.8411C13.1363 19.9019 13.2182 19.9346 13.2978 19.9346C13.3774 19.9346 13.4593 19.9042 13.5202 19.8411L15.5237 17.8396L17.5272 19.8411C17.5881 19.9019 17.67 19.9346 17.7496 19.9346C17.8315 19.9346 17.9111 19.9042 17.9719 19.8411C18.096 19.7172 18.096 19.5184 17.9719 19.3945L15.9731 17.393L17.9766 15.3915C18.1006 15.2675 18.1006 15.0688 17.9766 14.9449Z" fill="white" stroke="white" stroke-width="0.7"/>
</svg>
