<svg width="23" height="31" viewBox="0 0 23 31" fill="none" xmlns="http://www.w3.org/2000/svg">
<path d="M11.5007 16.6532C12.8192 16.6532 13.888 15.5843 13.888 14.2658C13.888 12.9473 12.8192 11.8784 11.5007 11.8784C10.1821 11.8784 9.11328 12.9473 9.11328 14.2658C9.11328 15.5843 10.1821 16.6532 11.5007 16.6532Z" fill="#2BA7F1"/>
<path d="M11.5 22.8604L12.9324 30.0226H15.3198L13.8874 22.383V18.5632H17.2297C18.2844 18.5632 19.1396 17.708 19.1396 16.6532V12.8334H17.2297V16.6532H5.77026V12.8334H3.86035V16.6532C3.86035 17.708 4.71551 18.5632 5.77026 18.5632H9.1126V22.383L7.68017 30.0226H10.0675L11.5 22.8604Z" fill="#2BA7F1"/>
<path d="M5.76214 24.6629C5.48902 24.5044 5.21925 24.3329 4.96046 24.1529L5.50621 23.3689C5.74352 23.5341 5.99085 23.6912 6.242 23.8368L5.76214 24.6629ZM3.84316 23.2677C3.60872 23.0571 3.37953 22.8337 3.16276 22.6035L3.85749 21.9484C4.05659 22.1595 4.26621 22.3643 4.48107 22.5572L3.84316 23.2677ZM2.2503 21.5077C2.06361 21.2527 1.88503 20.9873 1.7203 20.718L2.53488 20.2195C2.68576 20.4663 2.84906 20.7094 3.02047 20.9433L2.2503 21.5077ZM1.05327 19.4574C0.922915 19.169 0.803068 18.872 0.697546 18.5746L1.59759 18.2551C1.69404 18.5273 1.80386 18.7995 1.92323 19.064L1.05327 19.4574ZM0.305538 17.2028C0.238213 16.8943 0.182826 16.5792 0.141286 16.2655L1.08764 16.1394C1.12584 16.4274 1.17693 16.7162 1.23853 16.9984L0.305538 17.2028ZM0.0414933 14.8431L0.0410156 14.7433C0.0410156 14.4573 0.0515199 14.1741 0.0720514 13.8939L1.02414 13.9636C1.00552 14.2214 0.995969 14.4812 0.995969 14.7433L0.996447 14.8359L0.0414933 14.8431ZM1.20081 12.6682L0.264475 12.4805C0.326069 12.1711 0.402465 11.8603 0.490321 11.5566L1.40755 11.8221C1.32686 12.1005 1.25715 12.385 1.20081 12.6682ZM1.84779 10.5926L0.970662 10.2149C1.09528 9.92508 1.23423 9.63668 1.3832 9.35784L2.22595 9.80762C2.08939 10.0631 1.9619 10.3271 1.84779 10.5926ZM2.91161 8.69462L2.13141 8.14409C2.31333 7.88626 2.50862 7.63271 2.71107 7.39063L3.44304 8.00371C3.2573 8.22574 3.07872 8.45779 2.91161 8.69462ZM4.34308 7.05497L3.69228 6.35642C3.92386 6.1406 4.16689 5.93242 4.41422 5.73761L5.00486 6.48773C4.77806 6.6663 4.55556 6.85729 4.34308 7.05497Z" fill="#2BA7F1"/>
<path d="M17.228 24.6701L16.75 23.8436C17.0012 23.6984 17.2485 23.5413 17.4858 23.3761L18.0311 24.1606C17.7718 24.3402 17.5015 24.5116 17.228 24.6701ZM19.1488 23.2759L18.5114 22.5649C18.7268 22.372 18.9368 22.1672 19.136 21.9566L19.8297 22.6126C19.6125 22.8423 19.3833 23.0658 19.1488 23.2759ZM20.7436 21.5178L19.9739 20.9525C20.1458 20.7185 20.3096 20.475 20.46 20.2291L21.2741 20.7285C21.1098 20.9969 20.9308 21.2619 20.7436 21.5178ZM21.9426 19.4694L21.0731 19.075C21.1929 18.811 21.3027 18.5388 21.3997 18.2676L22.2992 18.588C22.1932 18.884 22.0734 19.1805 21.9426 19.4694ZM22.6922 17.2167L21.7597 17.0114C21.8218 16.7277 21.8728 16.4389 21.911 16.1533L22.8574 16.2803C22.8159 16.5921 22.7605 16.9068 22.6922 17.2167ZM22.9596 14.8599L22.0046 14.8479L22.0051 14.7433C22.0051 14.4855 21.9956 14.2301 21.9774 13.9775L22.93 13.9082C22.95 14.1842 22.9601 14.4626 22.9601 14.7433L22.9596 14.8599ZM21.8027 12.6821C21.7458 12.3966 21.6766 12.1115 21.5969 11.835L22.5146 11.5705C22.602 11.8728 22.6774 12.1841 22.7395 12.4959L21.8027 12.6821ZM21.1581 10.6036C21.0444 10.3386 20.9174 10.0741 20.7809 9.81722L21.6241 9.36887C21.7731 9.64915 21.9115 9.93802 22.0357 10.2269L21.1581 10.6036ZM20.0957 8.70375C19.929 8.46692 19.7505 8.23439 19.5647 8.01236L20.2972 7.39976C20.4996 7.64184 20.6944 7.89538 20.8764 8.15417L20.0957 8.70375ZM18.6661 7.06266C18.4541 6.86451 18.2316 6.67352 18.0048 6.49494L18.5964 5.7453C18.8437 5.94059 19.0863 6.14925 19.3179 6.36507L18.6661 7.06266Z" fill="#2BA7F1"/>
<path d="M16.3099 8.33652L16.2807 8.31934C16.582 7.65708 16.7525 6.92319 16.7525 6.14873C16.7525 5.37426 16.582 4.64038 16.2812 3.9786L16.3103 3.96141C16.8862 3.61667 17.2299 3.00645 17.2299 2.32891C17.2299 1.2756 16.3734 0.419006 15.32 0.419006C14.6425 0.419006 14.0323 0.76279 13.688 1.3391L13.6708 1.36823C13.0086 1.06694 12.2747 0.896483 11.5002 0.896483C10.7258 0.896483 9.99188 1.06694 9.3301 1.36775L9.31291 1.33863C8.96817 0.76279 8.35795 0.419006 7.68041 0.419006C6.6271 0.419006 5.77051 1.2756 5.77051 2.32891C5.77051 3.00645 6.11429 3.61667 6.69061 3.96093L6.71973 3.97812C6.41844 4.64038 6.24798 5.37426 6.24798 6.14873C6.24798 6.92319 6.41844 7.65708 6.71925 8.31886L6.69013 8.33605C6.11429 8.68079 5.77051 9.291 5.77051 9.96854C5.77051 11.0219 6.6271 11.8784 7.68041 11.8784C8.35795 11.8784 8.96817 11.5347 9.31243 10.9583L9.32962 10.9292C9.99188 11.2305 10.7258 11.401 11.5002 11.401C12.2747 11.401 13.0086 11.2305 13.6704 10.9297L13.6875 10.9588C14.0323 11.5347 14.6425 11.8784 15.32 11.8784C16.3734 11.8784 17.2299 11.0219 17.2299 9.96854C17.2299 9.291 16.8862 8.68079 16.3099 8.33652ZM15.32 10.9235C14.9815 10.9235 14.6778 10.7535 14.5074 10.4685L14.5012 10.458C14.6248 10.3715 14.7447 10.2803 14.8602 10.1839L12.8152 8.13885C12.438 8.38905 11.9868 8.53611 11.5002 8.53611C11.0137 8.53611 10.5625 8.38905 10.1853 8.13885L8.14022 10.1839C8.25577 10.2803 8.37562 10.3715 8.49929 10.458L8.49308 10.4685C8.32262 10.7535 8.01895 10.9235 7.68041 10.9235C7.15376 10.9235 6.72546 10.4952 6.72546 9.96854C6.72546 9.63001 6.89544 9.32633 7.1805 9.15588L7.191 9.14967C7.27742 9.27333 7.36862 9.39318 7.46507 9.50873L9.51011 7.4637C9.25991 7.08649 9.11284 6.63528 9.11284 6.14873C9.11284 5.66218 9.25991 5.21096 9.51011 4.83376L7.46507 2.78872C7.36862 2.90427 7.27742 3.02412 7.191 3.14779L7.1805 3.14158C6.89544 2.97112 6.72546 2.66744 6.72546 2.32891C6.72546 1.80226 7.15376 1.37396 7.68041 1.37396C8.01895 1.37396 8.32262 1.54394 8.49308 1.82899L8.49929 1.8395C8.37562 1.92592 8.25577 2.01712 8.14022 2.11357L10.1853 4.1586C10.5625 3.90841 11.0137 3.76134 11.5002 3.76134C11.9868 3.76134 12.438 3.90841 12.8152 4.1586L14.8602 2.11357C14.7447 2.01712 14.6248 1.92592 14.5012 1.8395L14.5074 1.82899C14.6778 1.54394 14.9815 1.37396 15.32 1.37396C15.8467 1.37396 16.275 1.80226 16.275 2.32891C16.275 2.66744 16.105 2.97112 15.82 3.14158L15.8095 3.14779C15.723 3.02412 15.6318 2.90427 15.5354 2.78872L13.4904 4.83376C13.7405 5.21096 13.8876 5.66218 13.8876 6.14873C13.8876 6.63528 13.7405 7.08649 13.4904 7.4637L15.5354 9.50873C15.6318 9.39318 15.723 9.27333 15.8095 9.14967L15.82 9.15588C16.105 9.32633 16.275 9.63001 16.275 9.96854C16.275 10.4952 15.8467 10.9235 15.32 10.9235Z" fill="#2BA7F1"/>
</svg>
