<svg width="31" height="22" viewBox="0 0 31 22" fill="none" xmlns="http://www.w3.org/2000/svg">
<path d="M9.01729 16.5107C10.6109 16.5107 11.9027 15.2188 11.9027 13.6252C11.9027 12.0316 10.6109 10.7397 9.01729 10.7397C7.4237 10.7397 6.13184 12.0316 6.13184 13.6252C6.13184 15.2188 7.4237 16.5107 9.01729 16.5107Z" fill="#3EBA75"/>
<path d="M30.1773 5.44971H17.1927C16.9042 5.44971 16.7118 5.64207 16.7118 5.93062V7.37334H15.75V5.93062C15.75 5.64207 15.5576 5.44971 15.2691 5.44971H9.01725C7.43025 5.44971 5.93943 5.93062 4.68907 6.70007C4.59289 6.0268 3.96771 5.44971 3.24634 5.44971C2.4288 5.44971 1.80362 6.07489 1.80362 6.89243C1.80362 7.56571 2.23643 8.09471 2.86161 8.28707C1.61125 9.7298 0.841797 11.5573 0.841797 13.6252C0.841797 18.1457 4.49671 21.8006 9.01725 21.8006C13.5378 21.8006 17.1927 18.1457 17.1927 13.6252C17.1927 13.2885 17.1927 12.9519 17.1446 12.6633L30.2734 10.2588C30.5139 10.2107 30.6582 10.0183 30.6582 9.77789V5.93062C30.6582 5.64207 30.4658 5.44971 30.1773 5.44971ZM3.24634 7.37334C2.9578 7.37334 2.76543 7.18098 2.76543 6.89243C2.76543 6.60389 2.9578 6.41153 3.24634 6.41153C3.53489 6.41153 3.72725 6.60389 3.72725 6.89243C3.72725 7.18098 3.53489 7.37334 3.24634 7.37334ZM9.01725 17.4724C6.90125 17.4724 5.16998 15.7412 5.16998 13.6252C5.16998 11.5092 6.90125 9.77789 9.01725 9.77789C11.1333 9.77789 12.8645 11.5092 12.8645 13.6252C12.8645 15.7412 11.1333 17.4724 9.01725 17.4724Z" fill="#3EBA75"/>
<path d="M16.2309 4.00699C16.5195 4.00699 16.7118 3.81463 16.7118 3.52608V1.12153C16.7118 0.832989 16.5195 0.640625 16.2309 0.640625C15.9424 0.640625 15.75 0.832989 15.75 1.12153V3.52608C15.75 3.81463 15.9424 4.00699 16.2309 4.00699Z" fill="#3EBA75"/>
<path d="M14.211 4.58413C14.3071 4.68031 14.4514 4.7284 14.5476 4.7284C14.6438 4.7284 14.7881 4.68031 14.8842 4.58413C15.0766 4.39177 15.0766 4.10322 14.8842 3.91086L12.8644 1.89104C12.6721 1.69867 12.3835 1.69867 12.1911 1.89104C11.9988 2.0834 11.9988 2.37195 12.1911 2.56431L14.211 4.58413Z" fill="#3EBA75"/>
<path d="M17.9145 4.7284C18.0588 4.7284 18.155 4.68031 18.2511 4.58413L20.271 2.56431C20.4633 2.37195 20.4633 2.0834 20.271 1.89104C20.0786 1.69867 19.79 1.69867 19.5977 1.89104L17.5779 3.91086C17.3855 4.10322 17.3855 4.39177 17.5779 4.58413C17.674 4.68031 17.8183 4.7284 17.9145 4.7284Z" fill="#3EBA75"/>
</svg>
