<svg width="45" height="45" fill="none" xmlns="http://www.w3.org/2000/svg">
    <circle cx="22.75" cy="22.25" r="22" fill="#F6F9FC"/>
    <path fill-rule="evenodd" clip-rule="evenodd" d="M11.25 22.258c0-6.351 5.147-11.5 11.5-11.5 6.35 0 11.5 5.147 11.5 11.5 0 6.351-5.148 11.5-11.5 11.5s-11.5-5.148-11.5-11.5z" fill="#53D0EF"/>
    <path d="M30.358 18.114h-5.074a.507.507 0 1 0 0 1.014h3.849l-5.818 5.818a1.56 1.56 0 0 1-2.152 0l-5.67-5.669a.507.507 0 0 0-.717.718l5.67 5.669a2.539 2.539 0 0 0 3.587 0l5.817-5.818v3.85a.507.507 0 1 0 1.015 0V18.62a.508.508 0 0 0-.507-.507z" fill="#F6F9FC" stroke="#F6F9FC" stroke-width=".5"/>
</svg>
