<svg width="21" height="21" fill="none" xmlns="http://www.w3.org/2000/svg">
    <path fill-rule="evenodd" clip-rule="evenodd" d="M.39 10.407c0-5.523 4.476-10 10-10 5.523 0 10 4.476 10 10 0 5.523-4.476 10-10 10-5.523 0-10-4.476-10-10z" fill="#53D0EF"/>
    <path d="M17.006 6.804h-4.412a.441.441 0 1 0 0 .882h3.347l-5.059 5.059a1.356 1.356 0 0 1-1.872 0l-4.93-4.93a.441.441 0 0 0-.623.624l4.93 4.93a2.207 2.207 0 0 0 3.12 0l5.058-5.059v3.347a.441.441 0 1 0 .882 0V7.245a.443.443 0 0 0-.44-.441z" fill="#F6F9FC" stroke="#F6F9FC" stroke-width=".5"/>
</svg>
