<svg width="31" height="22" fill="none" xmlns="http://www.w3.org/2000/svg">
    <path d="M10.186 1.629A3 3 0 0 1 12.307.75h7a3 3 0 0 1 3 3v14a3 3 0 0 1-3 3h-7a3 3 0 0 1-3-3v-14a3 3 0 0 1 .879-2.121z" stroke="#2B93A1"/>
    <path d="M28.861 4.825a.778.778 0 0 1 .192.235 12.392 12.392 0 0 1 1.435 5.808 12.392 12.392 0 0 1-1.435 5.807M26.174 7.25a.46.46 0 0 1 .113.14 7.32 7.32 0 0 1 .848 3.43 7.32 7.32 0 0 1-.848 3.43M2.627 4.824a.778.778 0 0 0-.192.236A12.391 12.391 0 0 0 1 10.867a12.391 12.391 0 0 0 1.435 5.808M5.314 7.25a.46.46 0 0 0-.113.139 7.32 7.32 0 0 0-.848 3.43 7.32 7.32 0 0 0 .848 3.43" stroke="#2B93A1" stroke-linecap="round"/>
    <path d="M16.691 16.884a1.25 1.25 0 1 1-1.768-1.768 1.25 1.25 0 0 1 1.768 1.768z" stroke="#2B93A1"/>
</svg>
