<svg width="44" height="45" fill="none" xmlns="http://www.w3.org/2000/svg">
    <circle cx="22" cy="22.25" r="22" fill="#F6F9FC"/>
    <path fill-rule="evenodd" clip-rule="evenodd" d="M10.499 22.258c0-6.351 5.147-11.5 11.5-11.5 6.351 0 11.5 5.147 11.5 11.5 0 6.351-5.147 11.5-11.5 11.5-6.351 0-11.5-5.148-11.5-11.5z" fill="#FF674F"/>
    <path d="M29.607 26.406h-5.074a.508.508 0 0 1 0-1.015h3.85l-5.818-5.818a1.56 1.56 0 0 0-2.153 0l-5.669 5.67a.508.508 0 0 1-.717-.718l5.669-5.67a2.539 2.539 0 0 1 3.587 0l5.818 5.819v-3.85a.507.507 0 1 1 1.015 0v5.074a.506.506 0 0 1-.508.508z" fill="#F6F9FC" stroke="#F6F9FC" stroke-width=".5"/>
</svg>
