<svg width="21" height="21" fill="none" xmlns="http://www.w3.org/2000/svg">
    <path fill-rule="evenodd" clip-rule="evenodd" d="M1.55 10.645a8.845 8.845 0 0 1 8.847-8.846 8.845 8.845 0 0 1 8.846 8.846 8.846 8.846 0 0 1-8.846 8.846 8.845 8.845 0 0 1-8.846-8.846z" fill="#FF674F"/>
    <path d="M16.25 13.836h-3.904a.39.39 0 0 1 0-.781h2.961L10.832 8.58a1.2 1.2 0 0 0-1.655 0l-4.361 4.36a.39.39 0 0 1-.552-.551l4.36-4.361a1.953 1.953 0 0 1 2.76 0l4.475 4.475V9.542a.39.39 0 1 1 .781 0v3.903a.39.39 0 0 1-.39.39z" fill="#F6F9FC" stroke="#F6F9FC" stroke-width=".5"/>
</svg>
