<svg width="18" height="18" viewBox="0 0 18 18" fill="none" xmlns="http://www.w3.org/2000/svg">
<path d="M11.584 3.14807H3.21623C2.43106 3.14807 1.79333 3.78579 1.79333 4.57096V16.5771C1.79333 17.3623 2.43106 18 3.21623 18H11.584C12.3692 18 13.0069 17.3623 13.0069 16.5771V4.57096C13.0032 3.78579 12.3655 3.14807 11.584 3.14807ZM12.008 16.5734C12.008 16.8093 11.8163 17.001 11.5804 17.001H3.21254C2.97662 17.001 2.78494 16.8093 2.78494 16.5734V4.57096C2.78494 4.33504 2.97662 4.14336 3.21254 4.14336H11.5804C11.8163 4.14336 12.008 4.33504 12.008 4.57096V16.5734Z" fill="#2D9CDB"/>
<path d="M14.7837 0H6.41585C5.63067 0 4.99295 0.637723 4.99295 1.4229C4.99295 1.69937 5.21413 1.92054 5.4906 1.92054C5.76706 1.92054 5.98824 1.69937 5.98824 1.4229C5.98824 1.18698 6.17993 0.99529 6.41585 0.99529H14.7837C15.0196 0.99529 15.2113 1.18698 15.2113 1.4229V13.429C15.2113 13.665 15.0196 13.8566 14.7837 13.8566C14.5072 13.8566 14.286 14.0778 14.286 14.3543C14.286 14.6308 14.5072 14.8519 14.7837 14.8519C15.5688 14.8519 16.2065 14.2142 16.2065 13.429V1.4229C16.2065 0.637723 15.5688 0 14.7837 0Z" fill="#2D9CDB"/>
</svg>
