<svg width="14" height="16" viewBox="0 0 14 16" fill="none" xmlns="http://www.w3.org/2000/svg">
<path d="M7 0.1875C7.6226 0.187459 8.22162 0.425666 8.67417 0.853254C9.12673 1.28084 9.3985 1.8654 9.43375 2.487L9.4375 2.625H13.375C13.5175 2.62504 13.6547 2.67918 13.7588 2.77648C13.863 2.87378 13.9263 3.00697 13.936 3.14916C13.9457 3.29135 13.9011 3.43192 13.8112 3.54247C13.7212 3.65303 13.5927 3.72532 13.4515 3.74475L13.375 3.75H12.778L11.818 13.515C11.7699 14.0018 11.5503 14.4557 11.1985 14.7956C10.8466 15.1355 10.3854 15.3392 9.89725 15.3705L9.76525 15.375H4.23475C3.74535 15.375 3.27189 15.2009 2.899 14.884C2.52611 14.567 2.27809 14.1278 2.19925 13.6447L2.182 13.5142L1.22125 3.75H0.625C0.489072 3.74999 0.357743 3.70077 0.255302 3.61142C0.152861 3.52208 0.0862362 3.39867 0.06775 3.264L0.0625 3.1875C0.0625057 3.05157 0.111732 2.92024 0.201075 2.8178C0.290419 2.71536 0.413835 2.64874 0.5485 2.63025L0.625 2.625H4.5625C4.5625 1.97853 4.81931 1.35855 5.27643 0.901427C5.73355 0.444307 6.35353 0.1875 7 0.1875ZM11.6478 3.75H2.3515L3.30175 13.404C3.32279 13.6194 3.41772 13.8209 3.57042 13.9743C3.72312 14.1277 3.92419 14.2235 4.1395 14.2455L4.23475 14.25H9.76525C10.2153 14.25 10.597 13.9312 10.684 13.4985L10.699 13.404L11.647 3.75H11.6478ZM8.3125 5.8125C8.44843 5.81251 8.57976 5.86173 8.6822 5.95107C8.78464 6.04042 8.85126 6.16383 8.86975 6.2985L8.875 6.375V11.625C8.87496 11.7675 8.82082 11.9047 8.72352 12.0088C8.62622 12.113 8.49303 12.1763 8.35084 12.186C8.20865 12.1957 8.06808 12.1511 7.95753 12.0612C7.84697 11.9712 7.77468 11.8427 7.75525 11.7015L7.75 11.625V6.375C7.75 6.22582 7.80926 6.08274 7.91475 5.97725C8.02024 5.87176 8.16332 5.8125 8.3125 5.8125ZM5.6875 5.8125C5.82343 5.81251 5.95476 5.86173 6.0572 5.95107C6.15964 6.04042 6.22626 6.16383 6.24475 6.2985L6.25 6.375V11.625C6.24996 11.7675 6.19582 11.9047 6.09852 12.0088C6.00122 12.113 5.86803 12.1763 5.72584 12.186C5.58365 12.1957 5.44308 12.1511 5.33253 12.0612C5.22197 11.9712 5.14968 11.8427 5.13025 11.7015L5.125 11.625V6.375C5.125 6.22582 5.18426 6.08274 5.28975 5.97725C5.39524 5.87176 5.53832 5.8125 5.6875 5.8125ZM7 1.3125C6.67061 1.31251 6.35326 1.43638 6.11096 1.65951C5.86865 1.88264 5.7191 2.18872 5.692 2.517L5.6875 2.625H8.3125C8.3125 2.2769 8.17422 1.94306 7.92808 1.69692C7.68194 1.45078 7.3481 1.3125 7 1.3125Z" fill="#03A9F4"/>
</svg>
