<svg width="19" height="22" viewBox="0 0 19 22" fill="none" xmlns="http://www.w3.org/2000/svg">
<path d="M6.29297 8.11133H7.79297V17.1113H6.29297V8.11133Z" fill="#4CBBCA"/>
<path d="M10.793 8.11133H12.293V17.1113H10.793V8.11133Z" fill="#4CBBCA"/>
<path d="M0.292969 3.61133V5.11133H1.79297V20.1113C1.79297 20.5092 1.951 20.8907 2.23231 21.172C2.51361 21.4533 2.89514 21.6113 3.29297 21.6113H15.293C15.6908 21.6113 16.0723 21.4533 16.3536 21.172C16.6349 20.8907 16.793 20.5092 16.793 20.1113V5.11133H18.293V3.61133H0.292969ZM3.29297 20.1113V5.11133H15.293V20.1113H3.29297Z" fill="#4CBBCA"/>
<path d="M6.29297 0.611328H12.293V2.11133H6.29297V0.611328Z" fill="#4CBBCA"/>
</svg>
