<svg width="158" height="172" viewBox="0 0 158 172" fill="none" xmlns="http://www.w3.org/2000/svg">
<path d="M92.381 20.6122C86.9201 21.6777 81.5924 18.0816 80.5269 12.6207C79.4614 7.15985 83.0576 1.83219 88.5184 0.766658C93.9793 -0.298874 99.3069 3.2973 100.372 8.75815C101.438 14.219 97.9084 19.5467 92.381 20.6122ZM88.7848 1.7656C83.8567 2.69794 80.6601 7.49283 81.5924 12.3543C82.5248 17.2824 87.3197 20.479 92.1812 19.5467C97.1093 18.6143 100.306 13.8194 99.3735 8.95794C98.4412 4.02985 93.7129 0.833254 88.7848 1.7656Z" fill="#262626"/>
<path d="M93.0138 19.6123L91.6406 19.8775L94.368 34.0018L95.7412 33.7367L93.0138 19.6123Z" fill="#262626"/>
<path d="M93.8086 19.9871L90.5391 20.6184L90.8168 22.057L94.0864 21.4257L93.8086 19.9871Z" fill="#262626"/>
<path d="M94.8244 22.1879L90.9668 22.9332L93.0639 33.7869L96.9215 33.0416L94.8244 22.1879Z" fill="#FF6700"/>
<path d="M93.8583 22.3954L92.0273 22.749L94.1234 33.6038L95.9543 33.2502L93.8583 22.3954Z" fill="#F2501D"/>
<path d="M96.7399 32.2461L92.8818 32.991L93.1596 34.4296L97.0176 33.6846L96.7399 32.2461Z" fill="#262626"/>
<path opacity="0.05" d="M86.2542 13.2887C85.5217 9.55934 87.9857 5.96316 91.7151 5.23061C94.1791 4.76444 96.5766 5.63019 98.1083 7.36168C96.6432 3.8321 92.8472 1.76763 88.9847 2.50018C84.5227 3.36593 81.5925 7.69466 82.4583 12.1566C83.324 16.4853 87.453 19.4155 91.7817 18.7495C89.0513 18.2168 86.787 16.0857 86.2542 13.2887Z" fill="white"/>
<path opacity="0.1" d="M90.0499 7.82352C90.3829 9.6216 89.1842 11.3531 87.3861 11.7527C85.588 12.0856 83.8565 10.8869 83.4569 9.08884C83.1239 7.29075 84.3227 5.55926 86.1207 5.15968C87.9854 4.8933 89.7169 6.02543 90.0499 7.82352Z" fill="white"/>
<path d="M4.8238 162.413C8.72277 160.994 14.5599 160.12 20.4653 159.437C30.7942 158.263 42.5823 152.72 53.732 152.584V152.42L84.0574 151.956V151.765C93.383 151.546 102.937 151.464 112.217 151.519C118.738 151.546 125.418 151.71 131.256 152.529C136.089 153.212 140.444 154.741 138.324 156.161C136.659 157.253 131.917 157.663 127.699 157.799C123.48 157.936 118.92 157.936 115.546 158.645C114.542 158.864 113.63 159.219 114.155 159.547C114.497 159.765 115.318 159.874 116.093 159.956C127.949 161.239 141.904 160.693 153.076 162.386C154.558 162.605 156.04 162.905 156.702 163.342C158.252 164.325 154.877 165.362 151.685 165.963C135.428 169.048 115.34 169.977 95.8911 170.632C69.3507 171.56 41.8527 172.134 16.2927 169.895C11.0029 169.431 5.46223 168.775 2.6577 167.437C-0.557248 165.908 0.947621 163.833 4.8238 162.413Z" fill="#EFEAE4"/>
<path d="M94.9112 30.3975C94.9112 30.3975 90.0497 26.1354 90.7822 24.9367C91.3816 23.9377 95.2441 23.9377 95.2441 23.9377L96.909 30.3309H94.9112V30.3975Z" fill="#E7B29C"/>
<path d="M56.2188 69.8873C56.2188 69.8873 59.4154 73.0839 60.8139 73.0839C61.613 73.0839 63.1447 71.4856 62.9449 70.6865C62.5454 69.0882 56.6183 68.622 56.6183 68.622L56.2188 69.8873Z" fill="#E7B29C"/>
<path d="M93.2461 151.197V157.857H103.901L95.9099 155.193L94.578 149.199L93.2461 151.197Z" fill="#061323"/>
<path d="M67.273 150.532L69.2709 158.523H62.6113L64.6092 151.863L67.273 150.532Z" fill="#061323"/>
<path d="M77.9284 93.2611L72.6007 130.555L69.4707 154.529H62.6113L64.6092 128.557L62.6113 88.5994L77.9284 93.2611Z" fill="#061323"/>
<path d="M88.5839 84.5993L95.9095 117.231V153.859H92.5797L87.918 119.895L76.9297 93.7229L88.5839 84.5993Z" fill="#09213D"/>
<path d="M80.2601 35.9843C84.122 35.9843 87.2527 32.8536 87.2527 28.9917C87.2527 25.1298 84.122 21.9991 80.2601 21.9991C76.3983 21.9991 73.2676 25.1298 73.2676 28.9917C73.2676 32.8536 76.3983 35.9843 80.2601 35.9843Z" fill="#E7B29C"/>
<path d="M73.2676 41.3148V29.3275L84.6555 34.3888L81.925 41.3148H73.2676Z" fill="#E7B29C"/>
<path d="M78.2622 21.9991C80.7262 21.9991 82.7907 23.9304 83.5899 26.5943C81.4588 27.5932 79.9271 29.7909 79.9271 32.3215C79.9271 33.387 80.1935 34.386 80.6597 35.3183C79.9271 35.7179 79.1279 35.9843 78.2622 35.9843C75.1322 35.9843 72.6016 32.8543 72.6016 28.9917C72.6016 25.1291 75.1322 21.9991 78.2622 21.9991Z" fill="#181626"/>
<path d="M77.9292 35.9889H73.2675L72.6016 28.6634L77.9292 35.9889Z" fill="#181626"/>
<path d="M91.9146 99.4515H79.328L75.2656 92.4589L89.9167 79.9389L91.9146 99.4515Z" fill="#061323"/>
<path d="M77.5961 44.6477C81.458 44.6477 84.5886 43.455 84.5886 41.9838C84.5886 40.5126 81.458 39.32 77.5961 39.32C73.7342 39.32 70.6035 40.5126 70.6035 41.9838C70.6035 43.455 73.7342 44.6477 77.5961 44.6477Z" fill="#CAD1E0"/>
<path d="M60.6142 97.2444H93.2461V41.304L60.6142 41.304L60.6142 97.2444Z" fill="#0A2346"/>
<path d="M93.246 41.3146L104.301 45.7765L93.9119 29.4605L96.5758 27.9954C96.5758 27.9954 112.892 42.8463 111.693 47.2416C109.695 54.7003 91.9141 56.2986 91.9141 56.2986L93.246 41.3146Z" fill="#0A2346"/>
<path d="M60.6139 41.3162C60.6139 41.3162 39.8361 48.9747 39.3033 55.3013C38.8371 60.962 55.9522 70.6184 55.9522 70.6184L57.9501 68.6205C57.9501 68.6205 52.6225 61.9609 49.2927 58.6311C46.0295 55.3679 62.6118 54.369 62.6118 54.369L60.6139 41.3162Z" fill="#0A2346"/>
<path d="M60.6143 75.0175C63.4113 73.1528 67.3404 71.9541 71.6026 71.9541C79.1945 71.9541 85.5211 75.6169 86.9862 80.545C84.4556 77.0154 79.1279 74.6179 72.9345 74.6179C67.9398 74.6179 63.4779 76.2162 60.6143 78.6803V75.0175Z" fill="#061323"/>
<path d="M81.2592 25.3324C81.2592 25.3324 83.2571 24.0005 83.2571 22.0026C83.2571 20.0048 80.5933 19.3388 80.5933 19.3388L75.2656 24.1337L81.2592 25.3324Z" fill="#181626"/>
<path d="M94.578 27.9949C93.5124 27.9949 92.5801 27.0626 92.5801 25.997C92.5801 24.8649 93.5124 23.9991 94.578 23.9991C95.6435 23.9991 96.5758 24.8649 96.5758 25.997C96.5758 27.0626 95.6435 27.9949 94.578 27.9949Z" fill="#E7B29C"/>
</svg>
