<svg width="25" height="26" viewBox="0 0 25 26" fill="none" xmlns="http://www.w3.org/2000/svg">
<path d="M8.36426 3.96277H23.208C23.4307 3.96277 23.6533 4.10425 23.5791 4.38721V24.4772C23.5791 24.6895 23.3564 24.9017 23.1338 24.9017H8.73535C7.10254 24.9017 5.69238 23.6284 5.69238 22.0014V12.6755M5.7666 22.0721C5.7666 20.6573 6.9541 19.5255 8.36426 19.5255H23.208M20.9814 3.96277V9.62193L19.2744 8.27788C19.126 8.1364 18.9033 8.1364 18.6807 8.27788L17.0479 9.55119V3.89203H20.9814V3.96277Z" stroke="#4CBBCA" stroke-width="1.5" stroke-miterlimit="10" stroke-linejoin="round"/>
<path d="M4.94929 11.3217H6.43499V6.86462H10.8921V5.37892H6.43499V0.921814H4.94929V5.37892H0.492188V6.86462H4.94929V11.3217Z" fill="#4CBBCA"/>
</svg>
