<svg width="80" height="81" viewBox="0 0 80 81" fill="none" xmlns="http://www.w3.org/2000/svg">
<circle cx="40" cy="40" r="40" fill="#79C5CF"/>
<path d="M40.6626 79.9909L20.084 43.354L35.5268 53.6873L59.3741 24.6472L77.2118 54.7113C73.4447 63.8061 62.5351 78.3192 44.2773 79.9909C43.2884 80.0815 41.9634 80.0222 40.6626 79.9909Z" fill="#65BDC9"/>
<path d="M59.5794 24.6382C58.7917 23.7873 57.5147 23.7873 56.7269 24.6382L32.562 50.7406L23.2734 40.7074C22.4857 39.8565 21.2087 39.8566 20.4209 40.7074C19.6331 41.5582 19.6331 42.9376 20.4209 43.7884L31.1357 55.3621C31.9231 56.2129 33.2011 56.2123 33.9882 55.3621L59.5794 27.7193C60.3671 26.8685 60.3671 25.489 59.5794 24.6382Z" fill="white"/>
</svg>
