<svg width="18" height="19" viewBox="0 0 18 19" fill="none" xmlns="http://www.w3.org/2000/svg">
<path d="M1 4.875H2V5.875H1V4.875Z" fill="#03A9F4"/>
<path d="M3.5 5.875H15.5C15.6326 5.875 15.7598 5.82232 15.8536 5.72855C15.9473 5.63479 16 5.50761 16 5.375C16 5.24239 15.9473 5.11521 15.8536 5.02145C15.7598 4.92768 15.6326 4.875 15.5 4.875H3.5C3.36739 4.875 3.24021 4.92768 3.14645 5.02145C3.05268 5.11521 3 5.24239 3 5.375C3 5.50761 3.05268 5.63479 3.14645 5.72855C3.24021 5.82232 3.36739 5.875 3.5 5.875Z" fill="#03A9F4"/>
<path d="M1 7.875H2V8.875H1V7.875Z" fill="#03A9F4"/>
<path d="M15.5 7.875H3.5C3.36739 7.875 3.24021 7.92768 3.14645 8.02145C3.05268 8.11521 3 8.24239 3 8.375C3 8.50761 3.05268 8.63479 3.14645 8.72855C3.24021 8.82232 3.36739 8.875 3.5 8.875H15.5C15.6326 8.875 15.7598 8.82232 15.8536 8.72855C15.9473 8.63479 16 8.50761 16 8.375C16 8.24239 15.9473 8.11521 15.8536 8.02145C15.7598 7.92768 15.6326 7.875 15.5 7.875Z" fill="#03A9F4"/>
<path d="M1 10.875H2V11.875H1V10.875Z" fill="#03A9F4"/>
<path d="M15.5 10.875H3.5C3.36739 10.875 3.24021 10.9277 3.14645 11.0214C3.05268 11.1152 3 11.2424 3 11.375C3 11.5076 3.05268 11.6348 3.14645 11.7286C3.24021 11.8223 3.36739 11.875 3.5 11.875H15.5C15.6326 11.875 15.7598 11.8223 15.8536 11.7286C15.9473 11.6348 16 11.5076 16 11.375C16 11.2424 15.9473 11.1152 15.8536 11.0214C15.7598 10.9277 15.6326 10.875 15.5 10.875Z" fill="#03A9F4"/>
<path d="M1 13.875H2V14.875H1V13.875Z" fill="#03A9F4"/>
<path d="M15.5 13.875H3.5C3.36739 13.875 3.24021 13.9277 3.14645 14.0214C3.05268 14.1152 3 14.2424 3 14.375C3 14.5076 3.05268 14.6348 3.14645 14.7286C3.24021 14.8223 3.36739 14.875 3.5 14.875H15.5C15.6326 14.875 15.7598 14.8223 15.8536 14.7286C15.9473 14.6348 16 14.5076 16 14.375C16 14.2424 15.9473 14.1152 15.8536 14.0214C15.7598 13.9277 15.6326 13.875 15.5 13.875Z" fill="#03A9F4"/>
</svg>
