<svg xmlns="http://www.w3.org/2000/svg" width="32" height="32" fill="none" viewBox="0 0 32 32">
    <path fill="#4CBBCA" d="M16 25.6A9.6 9.6 0 1 1 16 6.4 9.6 9.6 0 0 1 16 25.6zm0-18.133a8.533 8.533 0 1 0 0 17.066 8.533 8.533 0 0 0 0-17.066zM16 32a.533.533 0 0 1-.533-.533v-3.734a.533.533 0 0 1 1.066 0v3.734A.533.533 0 0 1 16 32zM16 4.8a.533.533 0 0 1-.533-.533V.533a.533.533 0 0 1 1.066 0v3.734A.533.533 0 0 1 16 4.8zM26.939 27.472a.535.535 0 0 1-.379-.155l-2.64-2.64a.534.534 0 0 1 .752-.752l2.64 2.64a.534.534 0 0 1-.379.912l.006-.005zM7.701 8.234a.533.533 0 0 1-.379-.154L4.688 5.44a.533.533 0 0 1 .752-.752l2.64 2.64a.533.533 0 0 1-.379.912v-.006zM31.467 16.533h-3.734a.533.533 0 0 1 0-1.066h3.734a.533.533 0 0 1 0 1.066zM4.267 16.533H.533a.533.533 0 0 1 0-1.066h3.734a.533.533 0 0 1 0 1.066zM24.299 8.235a.533.533 0 0 1-.379-.912l2.64-2.64a.533.533 0 0 1 .752.752l-2.64 2.64a.533.533 0 0 1-.373.16zM5.061 27.472a.533.533 0 0 1-.378-.912l2.64-2.64a.534.534 0 0 1 .752.752l-2.635 2.64a.534.534 0 0 1-.379.16z"/>
</svg>
