<svg xmlns="http://www.w3.org/2000/svg" width="46" height="46" fill="none" viewBox="0 0 46 46">
    <path fill="#6FCF97" fill-rule="evenodd" d="M19.279 32.893c.109-.055.211-.128.302-.22l16.262-16.261a1.18 1.18 0 0 0 .002-1.668l-.836-.836a1.18 1.18 0 0 0-1.668.002L18.745 28.505l-6.461-6.461a1.178 1.178 0 0 0-1.668-.002l-.836.835a1.181 1.181 0 0 0 .002 1.669l8.127 8.127a1.18 1.18 0 0 0 1.37.22zM0 23C0 10.297 10.295 0 23 0c12.703 0 23 10.295 23 23 0 12.703-10.295 23-23 23C10.297 46 0 35.705 0 23z" clip-rule="evenodd"/>
</svg>
