<svg xmlns="http://www.w3.org/2000/svg" width="32" height="25" fill="none" viewBox="0 0 32 25">
    <path fill="#4CBBCA" d="M31.333 15.372v-.014H.667v.014a.667.667 0 0 0 0 1.334h30.666a.667.667 0 0 0 0-1.334zM16 5.333a.667.667 0 0 0 .666-.666V.668.667a.667.667 0 0 0-1.333 0v4c0 .368.298.666.666.666zM3.333 14h4a.667.667 0 1 0 0-1.333H3.334h-.001a.667.667 0 0 0 0 1.333zM24.682 12.667a.667.667 0 0 0 0 1.334h3.985a.666.666 0 1 0 0-1.334h-3.984-.001zM22.599 7.677l2.827-2.827.001-.001a.667.667 0 0 0-.942-.943l-2.829 2.828a.667.667 0 0 0 .943.943zM9.4 7.677a.666.666 0 1 0 .943-.943L7.516 3.907h-.001a.666.666 0 1 0-.943.942L9.4 7.677zM9.367 14h1.346a5.371 5.371 0 0 1-.045-.666 5.33 5.33 0 0 1 5.327-5.333h.012a5.33 5.33 0 0 1 5.327 5.333c0 .226-.018.448-.046.667h1.347a6.662 6.662 0 0 0-6.593-7.332v-.002h-.083v.001a6.662 6.662 0 0 0-6.592 7.333zM16.472 18.236h-.001l-.007-.007a.677.677 0 0 0-.095-.077l-.05-.028c-.022-.011-.042-.024-.065-.033-.021-.009-.043-.014-.065-.02-.02-.006-.04-.014-.06-.018a.658.658 0 0 0-.187-.007.66.66 0 0 0-.528.19l-1.885 1.884a.666.666 0 1 0 .942.944l.861-.862v3.838a.667.667 0 0 0 1.334 0v-3.724l.747.748a.666.666 0 1 0 .943-.943l-1.884-1.885z"/>
</svg>
