<svg xmlns="http://www.w3.org/2000/svg" width="20" height="20" fill="none" viewBox="0 0 20 20">
    <path fill="#5F7880" stroke="#5F7880" stroke-width=".2" d="M14.768 14.39v-3.218a.445.445 0 1 0-.89 0v3.674a.444.444 0 0 0 .452.436h2.402a.445.445 0 1 0 0-.891h-1.964z"/>
    <path fill="#5F7880" stroke="#5F7880" stroke-width=".2" d="M17.571 8.837c0-4.816-3.918-8.734-8.734-8.734S.103 4.021.103 8.837s3.918 8.734 8.734 8.734c.41 0 .818-.028 1.223-.085a5.36 5.36 0 1 0 7.426-7.426c.057-.405.085-.814.085-1.223zm-1.93.453h1.026a9.52 9.52 0 0 1-.024.318 5.332 5.332 0 0 0-1.001-.318zm-1.072 9.716h-.034a4.47 4.47 0 1 1 .034 0zM3.67 9.29c.03 1.046.2 2.084.507 3.085a8.7 8.7 0 0 0-1.552 1.246A7.843 7.843 0 0 1 1.007 9.29h2.661zm-2.662-.891A7.75 7.75 0 0 1 2.624 4.06c.468.474.989.892 1.552 1.247a11.718 11.718 0 0 0-.508 3.09H1.007zM13.5 5.318a8.643 8.643 0 0 0 1.551-1.256 7.754 7.754 0 0 1 1.616 4.337h-2.662a11.69 11.69 0 0 0-.505-3.081zM9.29 6.639a8.688 8.688 0 0 0 3.417-.876c.244.858.38 1.744.408 2.636H9.29v-1.76zm0-.892V1.175c1.415.804 2.481 2.1 3.13 3.734a7.695 7.695 0 0 1-3.13.838zM5.27 4.9c.65-1.629 1.713-2.923 3.128-3.725v4.57A7.772 7.772 0 0 1 5.27 4.9zm-.295.854a8.632 8.632 0 0 0 3.423.884v1.76h-3.84c.03-.894.17-1.783.417-2.644zM8.4 11.037a8.645 8.645 0 0 0-3.423.89A10.848 10.848 0 0 1 4.56 9.29h3.839v1.747zM5.27 12.774a7.76 7.76 0 0 1 3.128-.845v4.57c-1.415-.802-2.478-2.096-3.128-3.725zM9.29 15.63c.052.25.122.497.21.74-.048.03-.1.058-.15.088l-.013.007-.047.027v-.862zm.539-3.657a5.351 5.351 0 0 0-.54 1.466v-1.512c.176.009.36.024.54.046zm.55-.82a8.424 8.424 0 0 0-1.09-.12V9.29h3.825l-.002.079a5.364 5.364 0 0 0-2.733 1.786zm4.088-7.772c-.386.401-.814.76-1.276 1.07-.518-1.252-1.27-2.327-2.223-3.163a7.841 7.841 0 0 1 3.499 2.093zM3.209 3.38a7.843 7.843 0 0 1 3.497-2.09c-.95.833-1.701 1.905-2.22 3.154A7.827 7.827 0 0 1 3.21 3.38zm3.497 13.005a7.843 7.843 0 0 1-3.497-2.091 7.827 7.827 0 0 1 1.278-1.064c.517 1.248 1.268 2.321 2.219 3.155z"/>
</svg>
