<svg xmlns="http://www.w3.org/2000/svg" width="185" height="181" fill="none" viewBox="0 0 185 181">
    <path fill="#00666B" d="M13.754 104.712L9.316 103.3l-2.524 4.808 5.059 2.865 2.294-4.498-.391-1.763z"/>
    <path fill="#F6A505" d="M10.518 101.285L6.151 109.8 0 105.883l3.957-7.022 6.561 2.424z"/>
    <path fill="#01888B" d="M36.774 99.884a3.827 3.827 0 0 0 2.905-4.548l-2.364-10.678a3.827 3.827 0 0 0-4.548-2.906 3.827 3.827 0 0 0-2.905 4.548l2.364 10.679a3.822 3.822 0 0 0 4.548 2.905z"/>
    <path fill="#63C0C4" d="M7.865 136.133c-5.628-19.417 5.55-39.72 24.968-45.349 19.417-5.628 39.72 5.55 45.348 24.968 5.628 19.417-5.55 39.72-24.967 45.348-19.418 5.628-39.72-5.55-45.349-24.967z"/>
    <path fill="#DFECEF" d="M42.774 156.412c-16.797 0-30.413-13.617-30.413-30.413 0-16.797 13.616-30.413 30.413-30.413 16.796 0 30.413 13.616 30.413 30.413 0 16.796-13.617 30.413-30.413 30.413z"/>
    <path fill="#FFD147" d="M38.767 79.137l1.673 4.298-14.224 2.885-.371-4.227 12.922-2.956z"/>
    <path fill="#212B53" d="M44.948 123.214a25.224 25.224 0 0 0-1.452 2.264c-.441.771-.802 1.572-1.082 2.404l-20.125-13.964 22.66 9.296z"/>
    <path fill="#fff" d="M40.902 126.242a2.644 2.644 0 1 1 5.132-1.273 2.644 2.644 0 0 1-5.132 1.273z"/>
    <path fill="#C7DFE1" d="M97.348 180.695c48.409 0 87.652-5.831 87.652-13.023 0-7.192-39.243-13.023-87.652-13.023-48.41 0-87.652 5.831-87.652 13.023 0 7.192 39.243 13.023 87.652 13.023z" opacity=".5"/>
    <path fill="#14787F" d="M59.662 169.335c-1.382 1.212-2.765 2.414-4.147 3.626-1.012.881-1.673 1.583-2.635 1.943-.1.04-.21.06-.32.09-.982-.02-1.974-.03-2.955-.04-3.316-2.995-5.85-8.314-7.243-12.071-.64-1.723-1.142-3.576-.771-5.369.06-.31.17-.631.42-.811.231-.171.531-.191.812-.181.852.03 1.903.301 2.645.732.22.13.41.32.59.511-.09-.221-.17-.431-.26-.632-.6-1.432-1.683-3.175-1.302-4.758.16-.651.881-.841 1.422-.581.942.451 1.794 1.473 2.425 2.565-.421-2.034-.962-4.037-1.162-6.101-.21-2.294.05-4.718 1.312-6.652.6-.921 1.573-1.091 2.584-.811 2.284.621 3.787 2.815 4.648 5.019 1.343 3.476 1.483 7.212.642 10.819.23-1.002 1.542-2.585 2.303-3.256.892-.801 2.375-1.543 3.587-1.162 1.122.351 1.783 1.563 1.923 2.725.06.521.05 1.051-.04 1.562-.32 1.824-1.563 3.486-2.434 5.089-1.042 1.914-2.084 3.817-3.126 5.73a5.538 5.538 0 0 1 1.683-1.192c.18-.08.37-.16.571-.13.661.08.691 1.072.35 1.653-.36.661-.94 1.182-1.522 1.683z"/>
    <path fill="#EB9928" d="M50.967 162.111c.41-8.344.812-16.618.721-25.073 0-.281.22-.281.23 0 .181 8.324.151 16.929-.58 25.214-.12-.06-.24-.101-.37-.141z"/>
    <path fill="#2A92A0" d="M54.242 165.206a44.317 44.317 0 0 1-4.167 5.95l1.303-.831c.4-.261.941-.511 1.322-.21.23.18.29.52.21.811-.08.29-.27.521-.46.751-1.093 1.272-2.425 2.314-3.797 3.296-1.823-.02-3.646-.04-5.47-.09l-.13-.13c-.56-.541-4.928-4.819-3.546-5.43.52-.12 1.102.13 1.583.411.66.391 1.292.841 1.863 1.362-.962-.871-1.613-2.724-2.094-3.897-.53-1.302-.991-2.674-.991-4.097 0-.22.01-.45.1-.651.14-.33.48-.561.841-.631.36-.07.732.01 1.072.15.601.261 1.082.722 1.463 1.253.29.4.5.861.75 1.282-.03-1.523-.1-3.005.111-4.538.14-1.022.681-2.304 1.713-2.214.551.05.972.501 1.302.942a10.14 10.14 0 0 1 1.763 7.793c.25-1.302 1.333-2.614 1.974-3.736.58-1.012 1.242-1.904 2.564-1.863.25.01.511.06.732.19.26.17.43.451.55.741.05.13.09.261.13.391.141.531.131 1.102-.01 1.633-.17.46-.42.921-.68 1.362z"/>
    <path fill="#EB9928" d="M46.039 163.854c.02-.27.43-.27.42 0-.16 3.486.06 7.083-.39 10.539-.02.13-.18.13-.2 0-.441-3.436-.03-7.083.17-10.539z"/>
    <path fill="#14787F" d="M119.386 142.768c2.384-.732 4.949.471 6.912 2.013 5.149 4.037 7.934 10.298 10.528 16.309a81.65 81.65 0 0 1-4.888-33.168c.18-2.905.711-6.161 3.085-7.834 2.434-1.723 6.001-.971 8.214 1.032 2.214 2.004 3.306 4.939 4.007 7.844 1.673 6.992.962 13.754-.39 20.676.721-3.667 4.918-6.832 7.763-8.816 2.515-1.753 9.767-6.381 12.402-3.045.711.902.971 2.104.951 3.256-.03 2.173-.931 4.227-1.893 6.18a85.503 85.503 0 0 1-7.924 13.073c.671-.911 3.617-1.783 4.708-1.603 1.533.261 2.675 2.064 2.475 3.536-.221 1.623-1.603 2.815-2.945 3.747-3.156 2.194-6.401 3.917-9.978 4.738-6.12-.19-12.281-.17-18.271.13-3.316-2.975-6.592-6.03-9.687-9.236-2.875-3.245-5.65-6.581-8.235-10.067-2.093-2.815-.07-7.784 3.166-8.765z"/>
    <path fill="#EB9928" d="M142.336 170.616c-.431.04-.861.06-1.292.04-.691-4.507-.942-9.145-.902-13.774.201-3.966.621-8.084 1.212-12.231.03-.19.311-.22.311-.02-.08 8.615-.02 17.36.671 25.985z"/>
    <g clip-path="url(#a)">
        <path fill="#F9BCA7" d="M142.123 40.57c-.501-.2-.902-.1-1.203.401-.601.802-.701.802-1.602 1.803-.201.2-.802.802-.802.601 0-.4.501-1.202.902-1.903.501-.901-.201-1.503-.201-1.503-.901-.5-.901.902-1.903 2.204-.801 1.002-1.302 2.404-1.803 3.406-.401.902-1.202 1.703-2.104 2.404l-.1.1c-2.504 2.104-7.012 3.907-9.616 5.71-2.705 1.904-5.61 1.503-8.315 3.306-.901-5.71-.501-10.218-1.603-15.827-.701-3.406-2.003-7.012-5.81-7.714h-.1c-2.204 1.603-2.805 2.505-4.608 6.712.2 1.803-.501 6.411-.2 7.914 1.202 5.91 1.302 9.015 2.204 14.825.601 3.907 1.502 5.11 5.609 4.608 9.016-1.001 16.228-7.112 22.94-12.822 1.102-.901 2.104-1.803 3.105-2.705.602-.5 1.203-.901 1.904-1.101 1.002-.401 2.003-.702 2.905-1.002 1.402-.501 3.205-3.005 2.905-4.208-.701-3.205-2.504-5.209-2.504-5.209z"/>
        <path fill="#B19184" d="M120.585 39.368c-3.806-6.41-9.216-12.32-16.929-13.222.601-.2.501-1.203-.2-1.102-.702.1-1.503.3-2.104.5-.1-.1-.301-.1-.501-.1-.701.3-1.302.702-1.903 1.102-.1.1-.2.1-.3.1h.1c-.301.2-.501.401-.802.601-.5.301-.901.602-1.302.902h-.1-.1c-3.206 2.805-4.91 7.012-4.709 11.72 0 .702.1 1.303.1 1.904-.2.1-.3.2-.2.5.2 1.403.4 2.805.601 4.108 0 .1.1.2.1.3.2 2.705.401 5.31 0 8.014-.7 5.21-2.805 10.018-5.71 14.325-.2.3 0 .801.401.801 4.909.702 9.817 1.703 14.625 3.206a90.21 90.21 0 0 1 7.814 3.005c1.102.501 2.805 1.703 4.207 1.202 2.204-.801 3.607-5.41 3.506-7.513-.1-1.202-.601-2.304-.3-3.606.3-1.202 1.102-2.104 1.703-3.005.801-1.102 1.502-2.204 1.703-3.606.3-1.804-.601-3.006.601-4.909.401-.601 1.002-1.002 1.502-1.603.802-1.002 1.403-2.003 1.603-3.305.701-3.507-1.703-7.213-3.406-10.319zM102.454 19.935v.1c.1 0 0-.1 0-.1z"/>
        <path fill="#F3C3B5" d="M116.578 21.738c-.2.901-.801 1.502-1.602 1.903-.401.2-1.102.3-1.503.4-2.003.401-3.907-.4-5.71-1.402-1.603-.901-3.606-1.603-5.309-2.604v-.1l-.1.1c-.301-.2-.601-.301-.802-.501a6.724 6.724 0 0 1-1.502-1.403c-1.603-2.103-1.703-5.309-1.302-7.713.4-2.304 1.502-4.508 3.706-5.51 1.503-.701 3.706-1.202 5.61-1.002 1.602-.3 3.806.602 4.908 1.904 1.904 2.103.401 4.908 2.505 6.812.801.7 2.103.801 2.103 2.003 0 .4-.901.4-1.002 1.703-.2 1.202.602 3.005 0 5.41z"/>
        <path fill="#594C46" d="M99.649 28.25c.701.6 2.204.901 3.005 1.201.301.1.701.301 1.002.401-1.002-1.102-2.605-1.803-4.308-1.903.1.1.1.2.3.3z"/>
        <path fill="#737399" d="M109.566 77.735c-1.502-1.603-3.506-2.504-5.509-3.306-2.905-1.202-5.91-2.404-8.816-3.606-1.102-.4-3.706-1.703-5.71-1.803-.2-.3-.7-.3-.901 0-1.102.2-1.803.901-1.603 2.504-.701.701-1.502 1.503-1.803 2.304-.5 1.202-.801 2.504-.902 3.907-.2 2.103-1.502 5.51-1.602 7.613-.2 2.605 1.502 4.207.3 6.411-1.703 3.005-3.806 8.315-4.708 11.62-.902 3.607-.601 5.41-1.903 8.916-1.603 4.307-3.607 4.908-7.213 7.513-3.005 2.104-6.11 3.005-10.718 7.713-3.607 3.707-6.812 7.513-11.32 9.717-2.004 1.002-4.207 1.603-6.812 1.803-1.302.1-2.805.1-4.408 0-.2 0-1.502.401-1.703 1.403-.901 4.608 3.006 7.413 2.906 11.92-.1 3.707-2.204 7.413.8 10.619.201.2.702.2.802 0 2.204-4.107 2.705-10.118 5.71-13.724 1.903-2.304 4.107-3.606 6.411-4.908 1.803-1.002 3.607-1.904 5.51-3.106 4.708-3.005 11.12-5.91 16.128-8.414 4.407-2.204 10.919-4.007 14.726-7.113 2.904-2.404 4.407-5.71 6.31-8.815.401-.601.802-1.302 1.203-1.903 1.402-2.104 2.704-4.208 4.007-6.311 1.502-2.405 2.804-4.909 4.207-7.413 2.504-4.709 4.708-9.617 6.711-14.525 1.002-3.206 2.304-6.312-.1-9.016z"/>
        <path fill="#99C" d="M142.223 169.094c-2.104 2.003-4.809 2.304-7.614 2.504-4.507.401-8.615 1.603-12.421 4.007-.201.1-1.202.2-1.403.3-2.404.301-3.506-2.604-2.905-5.509.1-.301.1-.501.201-.802.901-2.504.901-5.309.2-8.314-.701-3.306-2.104-6.912-3.706-10.418-1.703-3.907-2.905-6.812-3.206-12.822-.1-2.204-.401-7.013-.601-9.116-.2-3.206-4.408-6.912-6.411-10.218-1.503-2.504-3.106-5.109-4.608-7.713a67.152 67.152 0 0 1-2.004-3.707c-2.805-6.11-9.717-13.423-11.92-18.532-.2-.4-.401-.901-.501-1.302-2.204-5.81-2.004-11.92.5-16.73.201-.4.502-.9.802-1.302.3-.4.601-.801.801-1.102 1.804-2.003 2.705-.1 4.308-1.001 0-.2 3.306 2.304 3.606 2.204 6.712-1.403 18.933-.601 18.833 8.514 0 .401-.1.802-.1 1.203-.201 1.202-.802 2.604-1.303 4.007-.801 2.303-1.602 4.708-1.101 6.21.801 2.805 5.008 15.527 7.212 20.836.902 2.204 3.807 7.313 3.907 11.12.1 2.504-.1 3.706-.201 6.311-.1 5.71.902 11.42 1.203 17.129.3 5.009-1.102 11.32 1.202 15.928 0 .1.1.1.1.2 1.402 2.705 3.706 4.308 6.311 5.31 3.205 1.202 7.012 1.602 10.318 1.803.501 0 .901.601.501 1.002z"/>
        <path fill="#FFA274" d="M124.392 50.087c0 .901-.101 1.703-.301 2.604-.701 3.206-2.204 6.411-3.205 9.417-.201.7-.501 1.402-.702 2.203-1.202 3.807-2.504 7.714-3.706 11.52-.301.902-.601 1.803-1.102 2.505-.601.801-1.503 1.302-3.105.801-1.804-.6-3.406-2.103-5.009-3.005-1.903-1.102-3.907-2.104-5.91-3.106h-.101c-4.407-2.003-9.115-3.506-13.824-4.608-.3-.1-.5-.4-.4-.7.1-.802.3-1.503.4-2.305.301-1.202.702-2.404 1.203-3.606 1.302-2.705 3.205-4.308 2.404-7.513-.501-2.204-1.403-5.71-.902-8.314.1-.702.4-1.303.802-1.804 1.001-1.402 2.604-.6 4.107-1.102a18.584 18.584 0 0 0 6.511-3.806c2.104-2.104 4.708-5.61 2.705-8.515-1.002-1.402-6.512-.901-7.513-2.404-.1-.2 2.805-2.404 3.005-2.605.2-.1.401-.3.601-.3 1.002-.2 2.204.901 3.606 2.003 1.703 1.403 2.204 2.204 3.606 3.406 1.203 1.102 6.011 3.807 7.013 3.005.2-.2-.201-1.602-1.002-2.504-.1-.1-.2-.6-.301-.701 3.206 1.603 6.011 6.11 7.614 9.116 1.703 2.805 3.606 6.812 3.506 10.318z"/>
        <path fill="#906" d="M42.35 155.069c-1.002 1.703-1.803 3.406-2.204 5.309-.3 1.403.2 3.106-.2 4.408-.301 1.102-1.102 1.202-2.305 1.202h-.3c-1.803-.1-2.805-3.406-3.005-5.109-.401-4.307.801-10.017-.601-14.125-.501-1.602-1.803-6.21-.501-8.013.5-.601.901-.902 1.502-.902h.2c.502 0 4.609 1.102 6.011.701.2-.1 1.403-.501 1.603-.1.1.1.1.2 0 .401-.601 2.404-.3 4.708.902 6.912.4.801 1.302 1.502 1.803 2.304.2.3.3.601.3.801.4 1.903-2.304 4.708-3.205 6.211z"/>
        <path fill="#F9BCA7" d="M111.87 27.648v-.601c.2-1.302 1.002-2.003 1.703-3.005-1.803.4-3.606-.3-5.309-1.202-.101-.1-.301-.2-.401-.2-.501-.301-1.002-.502-1.503-.702 0 0-.1 0-.1-.1-1.202-.601-2.504-1.102-3.706-1.803.501 1.502.3 3.005-.501 4.407-.201.401-.601.702-.902 1.102.902-.2 2.004.802 3.306 1.803 1.102 1.503 2.204 2.805 3.406 3.907 1.803.701 3.606 1.503 5.409 2.204.301.1.802 0 .802-.5-.301-2.004-2.204-3.306-2.204-5.31z"/>
        <path fill="#FBD2C0" d="M105.86 32.556s-.401 2.104-3.205 5.71c-.902.802-1.804 1.603-2.505 2.304-5.209 4.308-13.022 5.31-19.534 7.413.902 1.002.501 4.708.601 6.11.3 4.408.902 9.818 1.403 14.125.3 3.105 1.703 2.304 3.305 3.807.2.2.301.3.501.6.2.201.3.401.401.602.4.901.501 1.803.802 2.805.8 2.604-1.303 2.304-2.505 4.708-.1.2-2.003 1.402-3.706.4-.401-.2-.702-.5-1.002-1.001-.1-.1-.1-.2-.2-.3-.902-1.503-2.104-5.21-2.204-6.913-.1-3.005-1.403-4.107-2.104-7.112-1.202-5.009-2.003-9.016-3.205-14.024-.301-1.102-1.102-6.612 0-7.814 0-.1 2.804-1.903 2.905-2.003 5.71-4.809 7.913-6.111 14.325-9.918 3.906-2.304 9.616-6.21 14.124-2.805 1.503 1.102 1.903 2.004 1.803 3.306z"/>
        <path fill="#654F5A" d="M92.637 9.517l-.1-.1c0-.1-.1-.1-.1-.201v-.1h.5v.1c-.1.2-.2.3-.3.3.1 0 .1 0 0 0zm.6 2.804h-.3c0-.1 0-.1-.1-.2l-.1-.1h.4c.1.1.1.2.1.3.1 0 .1 0 0 0zm1.604 4.408c-.1-.1-.2-.2-.301-.2h.4c-.1 0-.1.1-.1.2zm.7 2.605l-.2.2c-.1-.1-.2-.1-.3-.2.2-.1.4-.1.5 0 0-.1 0 0 0 0zm.1-15.928c-.1.1 0 .3.101.3 0 0 0 .1-.1.1-.2.1-.4.1-.601.1 0-.1 0-.1.1-.2.2-.6.3-.6.902-.801h.1l-.501.5zm19.234 2.104c0-.1 0-.1 0 0l-.4-.401c.1-.1.2-.3.2-.501.2-.5-.1-1.102-.601-1.603-.2-.2-.501-.4-.701-.5.4-.201.3-.802-.1-.902C110.768.6 109.366-.2 106.761.1c-.2 0-1.002.3-1.302.4-.401-.1-.902-.2-1.302-.1-1.002.201-1.303.602-1.703.802-1.202-.3-2.505-.801-3.707-.3-.5.2-.801.6-1.202.901-.701.601-1.402.601-2.204 1.002-.4.2-.7.4-.901.801-.1.1-.1.3-.1.4-.501.101-1.202.201-1.403.602-.2.4-.2.701.1.902-.1 0-.1 0-.2.1-.1 0-.1.1-.1.2h-.1c-.2-.1-.3.3-.1.3.1 0 .2.1.3.1-.2 0-.4.101-.5.301-.201.2-.201.601 0 .902 0 0 .1.1.2.1h-.2c-.101 0-.201.1-.201.1-.3.1-.4.2-.3.4.2.201.4.301.6.201h-.4c-.1 0-.2.1-.2.2s.1.201.1.201 0 .3-.1.5V9.818c-.201 0-.301.3-.1.4h.1v.401c-.1.1-.201.301 0 .401h.1v.1l-.1-.1c-.1 0-.201.2-.1.3.2.301.3.501.6.702 0 .1 0 .2.1.2-.3.3-.3.802-.1 1.303 0 .1 0 .2.1.2 0 .1.1.2.1.3V14.324c0 .301.1.301.301.502l-.1.1c-.1.1 0 .2 0 .3.1.1.2.1.4.2v.101c0 .1-.1.2-.1.2v.3l-.5.401c-.1.1 0 .301.1.301h.7c.101.1.101.3.201.4-.1.1-.1.201-.2.301-.1.1 0 .3.1.3h.4c.201.201 1.403.802.902 1.003-.1 0-.1.2 0 .3.1.1.3.3.601.5 0 0 0 .101-.1.101-.1.1 0 .3.2.3l.301.401c-.1.1.1.2.2.2l.501-.1c.501.301 1.002.602 1.503.602.1.1.3.1.5.1h.201c.3 0 .601 0 .902-.1.3.2.3.7.701 1.001.501.401.801.501 1.202.3.401.301.801.301 1.202-.3 1.803-2.204 3.005-3.105 2.204-6.11 0-.1-.401-.902-.501-1.202v-.1c-.3-1.102.701-1.904 2.104-1.503.2.1.4.1.601 0 .601-.3.601 0 1.102-.701.501-.602.501-1.703.901-2.405.1-.2.201-.3.301-.5.4-.802 1.001-1.503 1.703-2.104.1.1.2.2.4.2 1.303.1 2.405-.4 3.406-1.502.201-.2.201-.401 0-.601z"/>
        <path fill="#ED8E5F" d="M114.976 33.458c-.201.601-.501.701-1.303.802-.3 0-1.102-.1-1.402-.1-.401-.1-.701-.1-1.002-.201-2.003-.5-3.606-1.703-5.209-3.105 1.002 2.704-1.202 5.81-3.105 7.713l-.501.5c-.802.802-1.703 1.504-2.605 2.205-1.903 1.402-4.007 2.504-6.11 3.406a38.596 38.596 0 0 1-5.71 2.003c-.501.1-1.002.3-1.503.4-.5.101-1.002.301-1.502.401-.802.2-2.204.301-2.805.802-1.102.901-.501 2.905-.401 4.107.1 1.202.2 2.404.4 3.606.201 2.104.501 4.208.702 6.311 0 .3.1.601.1 1.002.1.701.2 1.302.3 2.004.1.6.301 1.202.2 1.803-.1.5-.3.801-.8 1.001-1.002.501-2.204.601-3.306.902-1.002.2-3.406 1.002-3.406.701-.2 0-.1-1.102-.1-1.102-.3-4.808-2.304-8.615-3.707-13.223-1.102-3.806-2.504-9.116.802-12.221 1.502-1.503 3.506-2.604 5.309-3.807a292.519 292.519 0 0 1 5.81-3.906c3.807-2.505 9.817-6.311 14.024-8.215 2.104-.901 2.605-.2 4.809.501l-1.202-.901c-.101-.1-.201-.2-.201-.3l-.901-.301c-.802-.1-.601-1.202.2-1.002 2.003.4 3.406 1.503 4.808 2.905.802.801 1.603 1.703 2.505 2.404.601.501 1.302 1.002 2.003 1.402.701.301 2.004.802 3.106.1.1-.1.1-.2.2-.3-.2-1.302.401-1.202.901-.701.802.701 1.002 1.803.602 2.404zM135.912 54.995c-3.406.601-6.311 4.107-9.016 6.01-2.304 1.603-4.207 2.805-6.811 3.707.2-.701.601-1.903.801-2.605 1.002-3.005 2.404-6.21 3.105-9.416l3.907-1.803c.802-.4 1.703-.801 2.504-1.202.401-.2 1.403-1.102 1.904-1.002.2 0 .3.1.4.3.401.502.602 1.704.802 2.104.401.902.701 1.904 1.302 2.605.301.3.601.6 1.002.801.3.2.3.501.1.501z"/>
        <path fill="#FBD2C0" d="M125.193 161.079c0-.1-.1-.1-.1-.2-2.204.601-4.508.801-6.712.501.501 2.304.601 4.408.301 6.411.901 0 1.903 0 2.805-.1 1.903-.501 4.808-2.404 7.012-2.905-1.402-1.002-2.504-2.204-3.306-3.707z"/>
        <path fill="#906" d="M144.126 170.096c-2.204 1.803-6.411 3.305-9.116 3.806-1.602.301-3.205.501-4.808.701-2.003.301-3.105.601-4.808 1.603-1.302.701-2.404.902-4.208 1.002-3.506.1-4.207-1.503-3.706-2.104l.1-.1.1-6.411c-.2-.301 0-.902.501-.902h.601c.902 0 1.904 0 2.805-.1 1.903-.501 4.809-2.404 7.012-2.905.201 0 .401-.1.601-.1.601-.1 6.111 2.104 8.716 2.204 2.103 0 5.209-.902 6.811 1.002.101.2.201.3.301.4.401.902.1 1.102-.902 1.904z"/>
        <path fill="#F9BCA7" d="M46.958 137.238l-4.308 1.202c.1.101.1.201 0 .401-.6 2.404-.3 4.708.902 6.912.4.802 1.302 1.503 1.803 2.304 1.603-1.703 3.506-2.805 5.41-3.806-1.603-2.004-2.906-4.408-3.807-7.013z"/>
        <path fill="#E8AF9C" d="M107.363 22.84a14.215 14.215 0 0 0 4.006 1.202c-1.302-.1-2.604-.501-3.806-1.002-.1-.1-.2-.1-.2-.2zm.901 0c-.701-.301-1.302-.602-1.903-1.002h-.1c-.201 0 .1.5.2.6-.1 0 .601.702.902.902a39.516 39.516 0 0 0 4.507 3.607c.201-1.303 1.002-2.004 1.703-3.006-1.803.501-3.606-.2-5.309-1.101z"/>
        <path fill="#4D4D66" d="M112.371 79.037c-1.803-.6-3.406-2.103-5.009-3.005-1.903-1.102-3.907-2.103-5.91-3.105h-.1c-4.408-2.004-8.816-3.406-13.624-4.508l-.5-.1c-.301.3-.301.701-.602 1.102-.3.4-.5.901-.801 1.302 2.905-.601 5.71.4 8.515 1.202 2.604.802 5.309 1.603 7.813 2.805 4.308 2.004 7.714 5.109 10.719 8.615.501-1.403 1.002-2.905 1.302-4.007-.601 0-1.102-.1-1.803-.3z" opacity=".62"/>
        <path fill="#150C0E" d="M144.126 170.095c-2.204 1.803-6.411 3.306-9.116 3.807-1.602.3-3.205.501-4.808.701-2.003.301-3.105.601-4.808 1.603-1.302.701-2.404.901-4.208 1.002-3.506.1-4.207-1.503-3.706-2.104 3.005 1.302 5.409.1 8.214-.902 2.404-.801 5.51-1.202 8.014-1.703 4.208-.801 8.715-2.003 11.22-4.407.501 1.001.2 1.202-.802 2.003zM37.641 165.988h-.3c-1.803-.1-2.805-3.406-3.005-5.109-.401-4.307.801-10.017-.601-14.125-.501-1.602-1.803-6.21-.501-8.013.5-.601.901-.902 1.502-.902 0 .2-.1.301-.3.501-1.403 1.903-.601 4.808-.1 7.012.7 2.605.801 3.306 1.102 5.71.3 2.204.2 5.209.1 7.413-.2 2.905.4 5.209 2.103 7.513z"/>
        <path fill="#CACCDA" d="M130.202 164.786c-.1.501-.4.801-.801 1.202-.2.2.1.501.301.301.4-.401.701-.802.901-1.403 0-.3-.401-.3-.401-.1zM131.805 165.287c0-.3-.4-.3-.4 0 0 .501-.101 1.102-.501 1.503-.201.2.1.501.3.301.401-.501.601-1.202.601-1.804zM132.907 165.588c0-.301-.401-.301-.401 0 0 .501-.1.901-.501 1.302-.2.2.1.501.301.301a1.662 1.662 0 0 0 .601-1.603zM133.908 165.888c0-.3-.4-.1-.4.101.1.5 0 1.001-.301 1.402-.1.2.201.401.401.2.3-.501.401-1.102.3-1.703zM135.111 166.189c-.1-.301-.501-.1-.401.1.1.401.1.901-.1 1.302-.1.301.301.301.401.1.2-.501.2-1.001.1-1.502zM44.654 152.064c-.501-.3-1.002-.601-1.303-1.102-.1-.2-.5 0-.3.201.4.5.901 1.001 1.502 1.302.1.1.301-.301.1-.401zM43.652 153.467c-.601-.301-1.102-.701-1.503-1.303-.2-.2-.5.001-.3.201.5.601 1.001 1.102 1.703 1.402.2.201.4-.2.1-.3zM42.95 154.368a5.674 5.674 0 0 1-1.803-1.202c-.2-.2-.5.1-.3.3a6.423 6.423 0 0 0 1.903 1.303c.2.1.4-.301.2-.401zM42.25 155.57a6.627 6.627 0 0 1-1.904-.902c-.2-.1-.4.201-.2.401.6.401 1.302.701 2.003 1.002.2-.1.3-.501.1-.501zM41.348 156.672l-1.503-.601c-.2-.1-.4.201-.2.401.5.2 1.002.501 1.603.701.3 0 .4-.401.1-.501z"/>
        <path fill="#D6CACD" d="M114.074 5.31c-1.102.8-2.304 1.202-3.606 1.202-.201 0-.201.4 0 .4 1.402 0 2.604-.5 3.806-1.302.201-.2 0-.5-.2-.3z"/>
        <path fill="#91838A" d="M109.967 7.113c-1.001.5-1.302 1.602-1.602 2.604-.201.801-.401 1.603-1.002 2.204-.701.701-1.703.5-2.605.601-3.005.5-1.903 4.007-1.502 6.01 0 .2.4.1.4-.1-.2-1.402-1.001-3.105-.3-4.508.701-1.402 2.304-.801 3.606-1.302 2.204-.901 1.202-4.107 3.206-5.209.2-.1 0-.4-.201-.3z"/>
        <path fill="#91838A" d="M109.867 6.711c-1.002.4-1.803 1.102-2.104 2.104-.3.801-.1 1.803-.801 2.504-.601.601-1.403.601-2.204.601-1.102 0-1.903.2-2.304 1.303-.501 1.402.401 3.806-1.503 4.307-.2.1-.1.4.101.4 1.001-.3 1.402-1.101 1.502-2.003.1-.901-.1-1.903.301-2.704.501-1.002 1.502-.802 2.404-.902 1.002-.1 2.003-.4 2.404-1.402.2-.501.2-1.203.301-1.703.3-1.002 1.001-1.703 1.903-2.104.3-.2.2-.501 0-.4z"/>
        <path fill="#91838A" d="M109.766 6.31c-1.202.101-2.304.702-3.105 1.704-.3.5-.501 1.002-.701 1.502-.201.501-.401 1.002-.802 1.303-.4.3-1.001.2-1.502.2-1.202 0-1.503.701-1.703 1.803-.1.501-.301.902-.701 1.302-.201.2-.501.3-.601.501-.301.3-.501.701-.401 1.202.1.2.401.1.401-.1-.201-.901 1.001-1.102 1.402-1.603.2-.3.301-.6.401-.901.2-.902.3-1.603 1.402-1.603.501 0 1.002.1 1.503-.1.801-.3 1.002-1.202 1.302-1.903.601-1.503 1.703-2.505 3.406-2.705 0-.3-.1-.701-.301-.601z"/>
        <path fill="#523C47" d="M104.758 16.128c0-.1-.401-.902-.501-1.202-.2.2-.301.5-.401.801-.2 1.202.501 2.505-1.002 3.006-.901.3-2.304.5-3.205 0-.501-.301-.701-.802-1.102-1.203-.3-.3-.601-.4-.902-.6-.3-.1-.7-.2-1.001-.401-.702-.3-.902-.601-1.202-1.303-.3-.8-.902-1.001-1.503-1.602-.3-.3-.4-.802-.4-1.202 0-.1.1-.2 0-.3 0-.302-.1-.402-.301-.602-.4-.4-.802-.601-1.102-1.102-.2-.2-.3-.5-.3-.801.1-.1.2-.2.2-.401.3-.1 0-.2-.2-.1V9.817c-.201 0-.301.3-.1.4h.1v.401c-.1.1-.201.301 0 .401h.1v.1l-.1-.1c-.1 0-.201.2-.1.3.2.301.3.501.6.702 0 .1 0 .2.1.2-.3.3-.3.802-.1 1.303 0 .1 0 .2.1.2 0 .1.1.2.1.3V14.324c0 .301.1.301.301.502l-.1.1c-.1.1 0 .2 0 .3.1.1.2.1.4.2v.101c0 .1-.1.2-.1.2v.3l-.5.401c-.1.1 0 .301.1.301h.7c.101.1.101.3.201.4-.1.1-.1.201-.2.301-.1.1 0 .3.1.3h.4c.201.201 1.403.802.902 1.003-.1 0-.1.2 0 .3.1.1.3.3.601.5 0 0 0 .101-.1.101-.1.1 0 .3.2.3l.301.401c-.1.1.1.2.2.2l.501-.1c.501.301 1.002.602 1.503.602.1.1.3.1.5.1h.201c.3 0 .601 0 .902-.1.3.2.3.7.701 1.001.501.401.801.501 1.202.3.401.301.801.301 1.202-.3 1.703-2.003 2.905-2.805 2.104-5.91z"/>
        <path fill="#786871" d="M114.876 5.409l-.301-.3c.1-.1.2-.301.2-.501-.701.4-1.803.6-2.604.801-.902.2-1.903.4-2.805.801-1.503.702-1.503 2.204-1.402 3.607 0 .2.3.3.4.1.401-1.002.802-2.104 1.603-2.805.902-.701 2.004-.601 3.005-.902.601-.1 1.403-.3 1.904-.801z"/>
        <path fill="#786871" d="M114.875 6.11c-1.101 1.102-2.203 1.603-3.706 1.703-.2 0-.3-.1-.401-.2-.701.6-1.202 1.302-1.703 2.103v-.1c.201-1.001.802-1.703 1.703-2.103.601-.3 1.202-.401 1.803-.501.501-.1.902-.1 1.403-.4.401-.201.701-.301.901-.502z"/>
        <path fill="#91838A" d="M114.575 5.51c-1.402.8-3.005.6-4.307 1.702-1.202 1.002-1.703 2.504-2.204 3.907-.1.2.3.3.401.1.501-1.503 1.102-3.206 2.504-4.107 1.102-.701 2.605-.601 3.807-1.302.2-.1.1-.501-.201-.3z"/>
        <path fill="#9D9097" d="M114.475 4.007v-.2c0-.1-.101-.201-.101-.301.101-.2-.1-.3-.2-.2l-.1-.1h-.2c0-.1-.101-.1-.101-.1-.1-.101-.2-.101-.2-.101h-.1c-.401 0-.701 0-1.102.1l.1-.1h.802c.2 0 .2-.4 0-.4-1.002.1-1.804 0-2.705-.301-.401-.2-.701-.401-1.102-.601.601.2 1.102.4 1.703.6.701.201 1.503.1 2.204.201.2 0 .2-.4 0-.4h-.701c0-.1 0-.1-.101-.201-.901-.5-1.903-.801-2.805-1.002-.1-.1-.3-.1-.4-.2-.902-.3-1.603-.2-2.505.1-.601-.1-1.101-.2-1.703-.1-1.302.2-2.304.801-3.706.701-1.002-.1-1.903-.3-2.905.2-1.202.602-2.304 1.703-3.406 2.505-.2.1 0 .5.2.3.902-.7 1.904-1.502 2.906-2.203 1.201-.802 2.303-.401 3.606-.401.901 0 1.803-.4 2.604-.601.701-.2 1.403-.2 2.004-.1 0 .1.1.2.2.1 0 0 .1 0 .1-.1.601.1 1.102.3 1.703.5.1 0 .201 0 .201-.1l.601.3-.101.101c0-.1-.1-.1-.1-.1l-.1-.1c-.1-.1-.2-.1-.3 0-.101 0-.301-.1-.401-.1h-.1c-.702-.301-1.403-.401-2.104-.301-.902.1-1.703.902-2.605.902-.2 0-.2.4 0 .4.602 0 1.002-.3 1.603-.6 1.002-.502 2.204-.502 3.206 0h.2c.201 0 .301.1.501.1.701.6 1.603.9 2.504 1.001.101 0 .201-.1.201-.2 0 0 .2.1.501.1-.101 0-.101.1-.101.2-.3 0-.601.1-.901.1l-.1-.1c-1.803-.1-3.406-1.603-5.209-1.202-.902.2-1.603.802-2.505.902-.801.1-1.703-.3-2.504-.1-.701.2-.801.7-1.102 1.202-.701 1.001-1.803 1.202-2.905 1.202-.701 0-1.202 0-1.603.6-.3.401-.5.802-.901 1.003-.601.4-1.303.4-1.904-.1-.2-.201-.4.1-.3.3.901.901 2.304.4 3.105-.501.1-.2.2-.5.4-.601.301-.3.802-.3 1.203-.3.4 0 .701 0 1.102-.1.5-.1 1.102-.301 1.502-.602h.1c1.002-.5 1.704-.4 2.705-.3.401.1.802 0 1.202-.1 1.102-.401 1.904-1.303 3.206-1.303.2 0 .2-.4 0-.4-1.302 0-2.104.901-3.306 1.302-.701.2-1.402 0-2.103-.1-.501 0-1.002.1-1.403.2.201-.4.301-.902.701-1.102.501-.3 1.303 0 1.904 0 .901.1 1.502-.2 2.304-.5 1.302-.602 2.404-.401 3.606.1-.401 0-.701 0-1.102-.1-.2 0-.2.4 0 .4.701 0 1.503.1 2.204.1 0 .1 0 .2.1.2s.2.1.301.1v.1c-1.503-.5-3.006-.3-4.308.702-.401.3-.801.701-1.202 1.002-.701.5-1.302.6-2.104.5-.701 0-1.402 0-2.103.301-.601.3-1.002.802-1.202 1.503-.1.701-.2 1.402-1.102 1.502-.702.1-1.303-.2-1.904-.4-.6-.1-1.302-.1-1.903.3-.701.501-.701 1.703-1.603 1.904-.2.1-.1.4.1.4.602-.1.802-.5 1.102-1.002.301-.6.501-1.101 1.203-1.202.6-.1 1.102.1 1.703.2 1.402.401 2.604.201 2.804-1.402.2-1.502 1.603-1.803 2.905-1.603.702.1 1.303.1 2.004-.3.801-.5 1.302-1.302 2.104-1.703.3-.2.601-.3.901-.4-.1 0-.2.1-.401.1-.2.1-.1.5.101.4.701-.3 1.402-.4 2.103-.3.1 0 .201-.1.201-.2.3.1.5.1.701.2h-1.803c-.201 0-.201.4 0 .4-.802.2-1.503.501-2.204.902-.701.5-1.202 1.102-1.603 1.803-.3.4-.501.801-.801 1.202-.702.601-1.403.4-2.204.4-.601 0-1.202.201-1.403.802-.1.3-.1.601-.1.902-.1.5-.1 1.002-.6 1.302l-.902.3c-.702.1-1.403.1-2.004.602-.701.6-.4 1.703-1.102 2.203-.2.1 0 .501.2.301.501-.4.501-.801.702-1.402.4-1.303 1.502-1.203 2.604-1.403.601-.1 1.102-.4 1.403-.902.1-.3.2-.5.2-.8 0-.502-.1-1.003.601-1.303.2-.1.601-.1.802-.1.701 0 1.402.1 2.003-.401.601-.5 1.002-1.302 1.503-2.003.601-.902 1.602-1.603 2.604-1.904-.3.1-.501.3-.701.501-.2.2.1.4.3.3.201-.2.501-.4.802-.5.2-.1.1-.3 0-.3.2 0 .401-.101.601-.101-.2.1-.2.3 0 .4-.2.1-.501.201-.701.301-.1.1-.101.2-.101.3-.801.401-1.402 1.003-2.003 1.804-.301.4-.501.801-.701 1.202-.301.701-.601 1.102-1.403 1.202-.601.1-1.202-.2-1.803.2-.501.301-.601.902-.701 1.503-.301 1.202-1.102 1.603-2.104 2.104-1.001.6-2.204 1.703-1.402 2.905.1.2.4 0 .3-.2-1.202-1.804 2.104-2.605 3.006-3.507.3-.4.501-.801.601-1.202.1-.2.1-.5.2-.701.301-.701.902-.801 1.503-.801 1.202 0 1.602-.401 2.103-1.403.702-1.402 1.703-2.805 3.306-3.105-.1 0-.3.1-.501.2-.2.1 0 .501.201.3.4-.3.901-.5 1.402-.6 0 .1.1.1.2.1 1.303-.1 2.705-.1 3.807-1.002.1 0 .1-.1.1-.2.1.1.2.1.301-.1.1-.1.1-.2.1-.401 0 .1 0 0-.1-.1zm-5.009-1.904l.902.3c.1.101.3.101.4.201-.501 0-.901-.2-1.302-.5zm3.706 2.004s.101 0 .101-.1c0 .1 0 .1.1.2-.301.2-.701.4-1.102.5h-.1c.3-.1.601-.2.901-.4.1 0 .1-.1.1-.2zm-.3-.701c-.401.1-.902.2-1.302.2h-.101c.501 0 1.002-.1 1.403-.2zm-2.605.5c.401.1.902.1 1.303.1h-1.403c.1 0 .1-.1.1-.1zm0 1.503c-.1.1-.1.1 0 0-.1-.1-.1-.1-.2-.1 0-.1-.1-.1-.2-.1h-.101c.201 0 .401-.1.702-.1l.1.1c.601.1 1.302 0 1.903-.1h.401c.1 0 .2-.1.2-.2l.601-.301s.1.1.201.1c-1.202.6-2.405.701-3.607.701z"/>
        <path fill="#91838A" d="M107.262 8.514c-.401.1-.501.501-.601.902-.1.3 0 .601-.1.902-.1.4-.401.7-.802 1.001-.2.2.101.4.301.3.401-.3.701-.7.901-1.201.101-.601 0-1.303.602-1.603.1-.1-.101-.501-.301-.3zM106.761 5.71l-2.103 2.704c-.101.2.1.401.3.3l2.104-2.704c.1-.2-.201-.5-.301-.3zM106.661 4.308c-.701.3-1.302.801-1.603 1.402-.1.2.2.4.301.2.3-.6.801-1.001 1.402-1.302.2 0 .1-.4-.1-.3zM104.458 8.816c-.1.2-.301.3-.601.3-.201 0-.201.4 0 .4.3 0 .601-.2.801-.4.301-.2 0-.5-.2-.3zM104.257 6.51c-.3.201-.601.502-.801.702-.2.2 0 .501.2.3.301-.2.601-.5.802-.7.2-.1 0-.501-.201-.301zM103.055 7.513c-.2.2-.5.3-.701.3-.2.1-.1.4.1.4.301-.1.601-.2.802-.4.2-.1 0-.4-.201-.3zM101.052 8.314c-.301 0-.501 0-.802.2-.2.1 0 .401.2.301.201-.1.401-.1.602-.1.2 0 .2-.4 0-.4z"/>
        <path fill="#786871" d="M107.763 7.714c-.2 0-.2.4 0 .4.3 0 .3-.4 0-.4z"/>
        <path fill="#91838A" d="M102.354 2.104c-.401-.1-.801-.1-1.102-.2-.2 0-.3.3-.1.4.401.1.701.1 1.102.2.2 0 .3-.4.1-.4zM99.549 9.015c-.3.2-.3.401-.401.702-.3.7-.902.7-1.603.901-.801.2-1.402.601-1.803 1.403-.1.2.2.4.3.2.301-.5.702-.902 1.303-1.102.4-.1.901-.1 1.302-.3.3-.1.501-.3.701-.501.2-.3.2-.701.401-.902.2-.2 0-.6-.2-.4z"/>
        <path fill="#AD5C85" d="M100.35 17.731c-.2-.4-.2-.901-.1-1.302.1-.2-.3-.3-.4-.1-.1.5-.1 1.102.2 1.603.1.3.4.1.3-.2z"/>
        <path fill="#91838A" d="M94.44 4.307c-.6-.3-1.402.1-1.502.902 0 .2.3.3.4.1.1-.4.602-.801 1.002-.601.1.1.3-.3.1-.4z"/>
        <path fill="#AD5C85" d="M93.238 8.414c-.3.1-.601.1-.902.2-.1 0-.3 0-.4.201l-.1.1c-.201.2-.301.501-.1.802.1.1.3.1.3 0s.1-.2.1-.3v-.301l.1-.1c.1 0 .1 0 .2-.1.3-.1.501-.1.802-.201.4 0 .3-.4 0-.3z"/>
        <path fill="#E8AF9C" d="M137.114 48.885c-.801-1.001-1.302-2.203-1.603-3.406-.601.802-1.202 1.703-2.104 2.405l-.1.1c-.2.3-.801.4-.901.7.2 0 .3.101.4.302.401.5.601 1.702.802 2.103.401.902.701 1.903 1.302 2.605.701-.601 1.403-1.202 2.004-1.703.601-.501 1.202-.902 1.903-1.102-.401-.701-1.202-1.303-1.703-2.004z"/>
        <path fill="#FBD2C0" d="M144.627 45.88c-.301.5-.802.801-1.302 1.101-.301.1-.501.2-.802.2-.1 0-.901-.3-.501-.8 0 0-.4 0-.501-.1h-.1c-.4 0-.701-.401-.801-.802 0-.3-.2-.4-.1-.601 0 0-.501-.3-.601-.501-.1-.3 0-.601.2-.902-.2.1-.3.1-.401.1-.3 0-.601-.2-.501-.5v-.1-.2c0-.101.101-.401.301-.702.2-.4.601-1.002 1.002-1.302 0-.1.1-.2.2-.2.301-.201.801-.301 1.202 0 .601.4 1.002 1.302 1.403 1.903.3.5.801 1.001.901 1.602.501.602.902 1.203.401 1.804z"/>
    </g>
    <defs>
        <clipPath id="a">
            <path fill="#fff" d="M0 0h112.2v176.9H0z" transform="translate(32.733) scale(1.00174)"/>
        </clipPath>
    </defs>
</svg>
