<svg width="16" height="17" viewBox="0 0 16 17" fill="none" xmlns="http://www.w3.org/2000/svg">
<path d="M12.3281 0C10.7239 0 9.40625 1.3176 9.40625 2.92188C9.40625 3.17566 9.444 3.42528 9.50586 3.66064L5.29735 6.3916C4.7724 5.89291 4.07181 5.57812 3.29688 5.57812C1.69263 5.57812 0.375 6.89571 0.375 8.5C0.375 10.1043 1.69261 11.4219 3.29688 11.4219C4.07816 11.4219 4.78775 11.1143 5.31398 10.6084L9.50586 13.3393C9.44269 13.577 9.40625 13.8216 9.40625 14.0781C9.40625 15.6824 10.7239 17 12.3281 17C13.9324 17 15.25 15.6824 15.25 14.0781C15.25 12.4738 13.9324 11.1562 12.3281 11.1562C11.5532 11.1562 10.8526 11.471 10.3277 11.9697L6.11914 9.23875C6.181 9.00341 6.21875 8.75378 6.21875 8.5C6.21875 8.24343 6.18231 7.99891 6.11914 7.76123L10.311 5.03027C10.8373 5.53619 11.5469 5.84375 12.3281 5.84375C13.9324 5.84375 15.25 4.52615 15.25 2.92188C15.25 1.3176 13.9324 0 12.3281 0ZM12.3281 1.59375C13.0711 1.59375 13.6562 2.17894 13.6562 2.92188C13.6562 3.66481 13.0711 4.25 12.3281 4.25C11.5852 4.25 11 3.66481 11 2.92188C11 2.17894 11.5852 1.59375 12.3281 1.59375ZM3.29688 7.17188C4.0398 7.17188 4.625 7.75705 4.625 8.5C4.625 9.24293 4.03977 9.82812 3.29688 9.82812C2.55398 9.82812 1.96875 9.24293 1.96875 8.5C1.96875 7.75705 2.55395 7.17188 3.29688 7.17188ZM12.3281 12.75C13.0711 12.75 13.6562 13.3352 13.6562 14.0781C13.6562 14.8211 13.0711 15.4062 12.3281 15.4062C11.5852 15.4062 11 14.8211 11 14.0781C11 13.3352 11.5852 12.75 12.3281 12.75Z" fill="#666666"/>
</svg>
