<svg width="32" height="32" viewBox="0 0 32 32" fill="none" xmlns="http://www.w3.org/2000/svg">
<path d="M15.3917 7.9371C17.0438 7.9371 18.3344 6.5948 18.3344 4.99436C18.3344 3.39393 16.9921 2 15.3917 2C13.7913 2 12.449 3.3423 12.449 4.94274C12.449 6.54317 13.7396 7.9371 15.3917 7.9371ZM15.3917 3.03254C16.4242 3.03254 17.3019 3.9102 17.3019 4.94274C17.3019 5.97527 16.4242 6.85293 15.3917 6.85293C14.3592 6.85293 13.4815 5.97527 13.4815 4.94274C13.4815 3.9102 14.3075 3.03254 15.3917 3.03254Z" fill="#4CBBCA" stroke="#4CBBCA" stroke-width="0.3"/>
<path d="M27.2653 25.2836L26.3876 16.5583C26.1811 14.5965 24.5807 13.0993 22.5672 13.0993H21.4831C21.1217 13.0993 20.7603 13.1509 20.4505 13.2542C20.1924 12.8928 19.831 12.583 19.3147 12.5314L16.6818 12.2216L14.1004 8.81426C13.8423 8.40125 13.4809 8.14311 13.0679 7.98823C11.9837 7.57522 10.7963 8.14311 10.4349 9.17565L7.69867 16.558C7.69867 16.6096 7.64704 16.6613 7.64704 16.7129C7.64704 16.7645 7.64704 16.7645 7.59541 16.8161L6.45962 21.824L3.72339 24.8699C2.94899 25.696 3.05224 27.0383 3.87827 27.8127C4.18804 28.0708 4.54942 28.2257 4.91081 28.3289C5.01407 28.3289 5.16895 28.3806 5.2722 28.3806C5.8401 28.3806 6.40799 28.1224 6.82101 27.7094L9.91862 24.2504C10.1768 23.9923 10.3316 23.6825 10.3833 23.3211L10.8995 21.1012L11.2609 21.3593V26.7285C11.2609 27.8643 12.1902 28.7936 13.326 28.7936C14.4618 28.7936 15.3911 27.8643 15.3911 26.7285V20.3787C15.3911 19.7592 15.1329 19.1913 14.6683 18.7783L12.1386 16.6616L13.4809 13.0477L14.7199 14.6997C14.9781 15.0611 15.3395 15.2676 15.7525 15.3193L18.0241 15.5774C17.8692 15.8872 17.8175 16.2485 17.7659 16.6099L16.7334 27.9159C16.6818 28.2257 16.9399 28.4322 17.198 28.4838H17.2496C17.5078 28.4838 17.7143 28.2773 17.7659 28.0192L18.4887 19.9135H25.7165L26.2844 25.4375C25.6132 25.6957 25.1486 26.3668 25.1486 27.1412C25.1486 28.1738 25.9746 28.9998 27.0071 28.9998C28.0397 28.9998 28.8657 28.1738 28.8657 27.1412C28.7625 26.2119 28.0913 25.4375 27.2653 25.2827V25.2836ZM9.35102 23.0636C9.2994 23.2185 9.24777 23.3734 9.09289 23.5282L5.99527 26.9872C5.73714 27.2454 5.37575 27.4003 5.06599 27.297C4.85948 27.2454 4.7046 27.1937 4.54972 27.0389C4.1367 26.6775 4.08508 26.0063 4.44647 25.5933L7.3892 22.3408L8.1636 18.8302C8.21523 18.8302 8.21523 18.8818 8.21523 18.8818L9.91892 20.2757L9.35102 23.0636ZM15.443 14.0292L13.6361 11.6543L13.5328 11.5511C13.4812 11.5511 13.4812 11.4995 13.4296 11.4995H13.3779H13.3263H13.223H13.1198H13.0165C12.9649 11.4995 12.9649 11.5511 12.9133 11.5511H12.8617L12.7584 11.6543C12.7584 11.706 12.7068 11.706 12.7068 11.7576V11.8092L10.8998 16.6621C10.8482 16.8687 10.8998 17.0752 11.0547 17.23L13.8942 19.6049C14.1523 19.8114 14.2556 20.0695 14.2556 20.3793V26.6778C14.2556 27.2457 13.7909 27.7103 13.223 27.7103C12.6551 27.7103 12.1905 27.2457 12.1905 26.6778V21.1021C12.1905 20.9472 12.1389 20.7923 11.984 20.689L8.88638 18.1077C8.57662 17.8496 8.42174 17.3849 8.57662 16.9719L11.3128 9.58955C11.5194 9.07328 12.0873 8.76352 12.6551 8.97003C12.8617 9.07328 13.0682 9.22816 13.1714 9.43467V9.4863V9.53793L15.9076 13.1518C16.0109 13.2551 16.1142 13.3583 16.269 13.3583L19.1085 13.7197C19.3666 13.7713 19.5732 14.0295 19.5732 14.2876C19.5215 14.5457 19.315 14.7522 19.0569 14.7522H19.0053L15.7011 14.3392C15.6495 14.236 15.4946 14.1327 15.443 14.0295V14.0292ZM18.5406 18.8305L18.7471 16.6621C18.7988 16.3008 18.902 15.9394 19.0569 15.6296H19.1601C19.9345 15.6296 20.6057 15.0617 20.7089 14.2873C20.9671 14.1841 21.2252 14.1841 21.535 14.1841H22.6191C24.0647 14.1841 25.2521 15.2682 25.407 16.7138L25.6135 18.8821H18.5403L18.5406 18.8305ZM26.9042 27.9168C26.4395 27.9168 26.0781 27.5554 26.0781 27.0908C26.0781 26.6261 26.4395 26.2648 26.9042 26.2648C27.3688 26.2648 27.7302 26.6261 27.7302 27.0908C27.7302 27.5554 27.3688 27.9168 26.9042 27.9168Z" fill="#4CBBCA" stroke="#4CBBCA" stroke-width="0.3"/>
</svg>
