<svg width="32" height="32" viewBox="0 0 32 32" fill="none" xmlns="http://www.w3.org/2000/svg">
<path d="M27.3557 16.0785C26.9069 11.3711 22.022 8.73753 17.3207 11.3979C17.3153 8.84816 16.6351 6.34499 15.3486 4.14368C15.2722 4.01575 15.1125 3.965 14.9764 4.02525L13.8209 4.5291C13.738 4.565 13.6761 4.6368 13.6528 4.72408C13.6295 4.81135 13.6474 4.90461 13.7013 4.97703C14.3254 5.81887 16.0043 8.36303 15.9449 11.4147C11.2343 8.72631 6.33007 11.3614 5.88037 16.0785M25.4884 23.7488C23.6012 27.3318 20.5708 29.9543 17.6038 28.7786C16.9706 28.5271 16.2654 28.5271 15.6322 28.7786C12.6653 29.9545 9.63486 27.3319 7.74763 23.7488" stroke="#4CBBCA" stroke-width="1.35" stroke-miterlimit="10" stroke-linecap="round" stroke-linejoin="round"/>
<path d="M17.8193 8.24782C18.911 8.57191 20.0976 8.40101 21.0409 7.78356C22.776 6.63902 22.7869 5.03851 23.7442 4.18522C21.1831 4.04914 19.7876 4.25334 18.667 5.25227C17.9547 5.84642 17.8267 6.76727 17.7784 7.67039C17.7784 7.67039 17.7784 8.02269 17.8193 8.24782Z" stroke="#4CBBCA" stroke-width="1.35" stroke-miterlimit="10" stroke-linecap="round" stroke-linejoin="round"/>
<rect x="3.29016" y="16.0781" width="26.4197" height="7.67024" stroke="#4CBBCA" stroke-width="1.35" stroke-miterlimit="10" stroke-linecap="round" stroke-linejoin="round"/>
<line x1="16.749" y1="19.3098" x2="16.749" y2="23.0733" stroke="#4CBBCA" stroke-width="1.35" stroke-miterlimit="10" stroke-linecap="round" stroke-linejoin="round"/>
<line x1="21.0102" y1="21.0148" x2="21.0102" y2="23.0738" stroke="#4CBBCA" stroke-width="1.35" stroke-miterlimit="10" stroke-linecap="round" stroke-linejoin="round"/>
<line x1="25.2714" y1="19.3098" x2="25.2714" y2="23.0733" stroke="#4CBBCA" stroke-width="1.35" stroke-miterlimit="10" stroke-linecap="round" stroke-linejoin="round"/>
<line x1="12.4877" y1="21.0148" x2="12.4877" y2="23.0738" stroke="#4CBBCA" stroke-width="1.35" stroke-miterlimit="10" stroke-linecap="round" stroke-linejoin="round"/>
<line x1="8.22651" y1="19.3098" x2="8.22651" y2="23.0733" stroke="#4CBBCA" stroke-width="1.35" stroke-miterlimit="10" stroke-linecap="round" stroke-linejoin="round"/>
</svg>
