<svg width="32" height="32" viewBox="0 0 32 32" fill="none" xmlns="http://www.w3.org/2000/svg">
<path d="M23.6505 26.9406C23.6505 27.5989 23.1259 28.1376 22.4848 28.1376H6.16565C5.52454 28.1376 5 27.5989 5 26.9406V4.19703C5 3.53866 5.52454 3 6.16565 3H18.9878L23.6505 7.78811V13.1361" stroke="#4CBBCA" stroke-width="1.35" stroke-miterlimit="10" stroke-linecap="round" stroke-linejoin="round"/>
<path d="M9.05444 7.86523H18.7851" stroke="#4CBBCA" stroke-width="1.35" stroke-miterlimit="10" stroke-linecap="round" stroke-linejoin="round"/>
<path d="M9.05444 11.9199H18.7851" stroke="#4CBBCA" stroke-width="1.35" stroke-miterlimit="10" stroke-linecap="round" stroke-linejoin="round"/>
<path d="M9.05444 15.9746H12.298" stroke="#4CBBCA" stroke-width="1.35" stroke-miterlimit="10" stroke-linecap="round" stroke-linejoin="round"/>
<path d="M9.05444 20.0283H12.298" stroke="#4CBBCA" stroke-width="1.35" stroke-miterlimit="10" stroke-linecap="round" stroke-linejoin="round"/>
<path d="M9.05444 24.083H14.7307" stroke="#4CBBCA" stroke-width="1.35" stroke-miterlimit="10" stroke-linecap="round" stroke-linejoin="round"/>
<circle cx="19.01" cy="18.6321" r="4.1986" transform="rotate(-51.3621 19.01 18.6321)" stroke="#4CBBCA" stroke-width="1.35" stroke-miterlimit="10" stroke-linejoin="round"/>
<path d="M19.73 17.731C19.6002 17.6273 19.4496 17.5528 19.2884 17.5127C19.1272 17.4726 18.9593 17.4678 18.796 17.4986C18.6328 17.5294 18.4782 17.5951 18.3427 17.6912C18.2072 17.7873 18.0941 17.9115 18.0111 18.0554" stroke="#4CBBCA" stroke-width="1.35" stroke-miterlimit="10" stroke-linecap="round" stroke-linejoin="round"/>
<line x1="22.6062" y1="20.8575" x2="24.1803" y2="22.1159" stroke="#4CBBCA" stroke-width="1.35" stroke-miterlimit="10" stroke-linejoin="round"/>
<rect x="23.642" y="22.7891" width="1.91096" height="4.70243" transform="rotate(-51.3621 23.642 22.7891)" stroke="#4CBBCA" stroke-width="1.35" stroke-miterlimit="10" stroke-linejoin="round"/>
</svg>
