<svg width="32" height="32" viewBox="0 0 32 32" fill="none" xmlns="http://www.w3.org/2000/svg">
<path d="M21.1392 10.1399V9.49244L16.8986 5.1377H5.23691C4.65383 5.1377 4.17676 5.6276 4.17676 6.22638V26.9114C4.17676 27.5102 4.65383 28.0001 5.23691 28.0001H20.079C20.6621 28.0001 21.1392 27.5102 21.1392 26.9114V22.418" stroke="#4CBBCA" stroke-width="1.35" stroke-miterlimit="10" stroke-linecap="round" stroke-linejoin="round"/>
<path d="M7.86426 9.5625H16.7142" stroke="#4CBBCA" stroke-width="1.35" stroke-miterlimit="10" stroke-linecap="round" stroke-linejoin="round"/>
<path d="M7.86426 13.2502H16.7142" stroke="#4CBBCA" stroke-width="1.35" stroke-miterlimit="10" stroke-linecap="round" stroke-linejoin="round"/>
<path d="M7.81494 16.9612H13.2719" stroke="#4CBBCA" stroke-width="1.35" stroke-miterlimit="10" stroke-linecap="round" stroke-linejoin="round"/>
<path d="M7.81494 20.5991H13.2719" stroke="#4CBBCA" stroke-width="1.35" stroke-miterlimit="10" stroke-linecap="round" stroke-linejoin="round"/>
<path d="M7.86426 24.3125H13.0267" stroke="#4CBBCA" stroke-width="1.35" stroke-miterlimit="10" stroke-linecap="round" stroke-linejoin="round"/>
<path d="M25.0248 10.1653C25.3322 9.85779 25.7492 9.68506 26.1841 9.68506C26.6189 9.68506 27.0359 9.85779 27.3434 10.1653C27.6508 10.4727 27.8236 10.8897 27.8236 11.3246C27.8236 11.7594 27.6508 12.1764 27.3434 12.4839L20.0011 19.8261L16.9097 20.599L17.6825 17.5075L25.0248 10.1653Z" stroke="#4CBBCA" stroke-width="1.35" stroke-miterlimit="10" stroke-linecap="round" stroke-linejoin="round"/>
</svg>
