<svg width="32" height="32" viewBox="0 0 32 32" fill="none" xmlns="http://www.w3.org/2000/svg">
<path d="M26.6863 17.6328L28.1147 16.2045C31.1307 13.1884 31.1307 8.28178 28.1147 5.26547C26.6538 3.80444 24.7114 3 22.6453 3C20.5792 3 18.637 3.80444 17.176 5.26547L16.6884 5.75305L16.2008 5.26547C14.74 3.80444 12.7976 3 10.7315 3C8.66538 3 6.72317 3.80444 5.26214 5.26547C2.24606 8.28205 2.24606 13.1884 5.26149 16.2045L16.6879 27.6314L18.1162 26.203L18.8304 25.4888" stroke="#4CBBCA" stroke-width="1.35" stroke-miterlimit="10" stroke-linecap="round" stroke-linejoin="round"/>
<rect x="23.4214" y="18" width="10.4641" height="4.7564" rx="2.3782" transform="rotate(62.1607 23.4214 18)" stroke="#4CBBCA" stroke-width="1.35" stroke-miterlimit="10" stroke-linecap="round" stroke-linejoin="round"/>
<line x1="25.3609" y1="23.1182" x2="22.3488" y2="24.7089" stroke="#4CBBCA" stroke-width="1.35" stroke-miterlimit="10" stroke-linecap="round" stroke-linejoin="round"/>
<path d="M9 12.8261H13.6154L16.5 9L18.8077 17L20.5385 12.8261H24" stroke="#4CBBCA" stroke-width="1.35" stroke-miterlimit="10" stroke-linecap="round" stroke-linejoin="round"/>
</svg>
