<svg width="32" height="32" viewBox="0 0 32 32" fill="none" xmlns="http://www.w3.org/2000/svg">
<path d="M24.6758 14.0415C24.6758 14.0128 24.388 10.3291 19.6971 10.3291C15.006 10.3289 14.7181 14.0126 14.7181 14.0415V15.1926C14.7181 15.4228 14.8908 15.5955 15.121 15.5955H24.3016C24.5318 15.5955 24.7045 15.4228 24.7045 15.1926L24.6758 14.0415ZM23.8987 14.0989V14.8184H15.4952V14.0989C15.4952 14.0126 15.5815 13.2644 16.1284 12.545C16.8478 11.6239 18.0566 11.1347 19.6681 11.1347C21.3087 11.1347 22.4885 11.5952 23.2079 12.545C23.8124 13.2644 23.8987 13.9839 23.8987 14.0989H23.8987Z" fill="#4CBBCA" stroke="#4CBBCA" stroke-width="0.3"/>
<path d="M19.697 9.92626C21.2223 9.92626 22.4886 8.54491 22.4886 6.81811C22.4886 5.12019 21.2511 3.70996 19.697 3.70996C18.143 3.70996 16.9054 5.09131 16.9054 6.81811C16.9054 8.51603 18.1717 9.92626 19.697 9.92626ZM17.7399 6.81811C17.7399 5.55177 18.632 4.54466 19.6968 4.54466C20.7615 4.54466 21.6536 5.55203 21.6536 6.81811C21.6536 8.08444 20.7615 9.09156 19.6968 9.09156C18.632 9.09176 17.7399 8.08439 17.7399 6.81811Z" fill="#4CBBCA" stroke="#4CBBCA" stroke-width="0.3"/>
<path d="M13.8261 10.847C15.1211 10.847 16.1571 9.69597 16.1571 8.25701C16.1571 6.81805 15.1211 5.66699 13.8261 5.66699C12.531 5.66699 11.495 6.81805 11.495 8.25701C11.495 9.66709 12.531 10.847 13.8261 10.847ZM12.1857 8.25681C12.1857 7.22076 12.934 6.35733 13.8263 6.35733C14.7184 6.35733 15.4668 7.22076 15.4668 8.25681C15.4668 9.29286 14.7186 10.1563 13.8263 10.1563C12.934 10.1563 12.1857 9.29286 12.1857 8.25681Z" fill="#4CBBCA" stroke="#4CBBCA" stroke-width="0.3"/>
<path d="M25.8269 10.847C27.1219 10.847 28.158 9.69597 28.158 8.25701C28.158 6.81805 27.1219 5.66699 25.8269 5.66699C24.5319 5.66699 23.4958 6.81805 23.4958 8.25701C23.4958 9.66709 24.5606 10.847 25.8269 10.847ZM24.1866 8.25681C24.1866 7.22076 24.9348 6.35733 25.8271 6.35733C26.7192 6.35733 27.4676 7.22076 27.4676 8.25681C27.4676 9.29286 26.7194 10.1563 25.8271 10.1563C24.9348 10.1563 24.1866 9.29286 24.1866 8.25681Z" fill="#4CBBCA" stroke="#4CBBCA" stroke-width="0.3"/>
<path d="M29.3093 21.4952C29.2517 21.4088 28.0143 19.567 24.8198 20.2864C22.8916 20.718 21.3664 21.2361 20.5317 21.5238C20.4454 20.7756 19.8122 20.1712 19.0351 20.1136L7.322 17.8402V17.1783C7.322 16.9193 7.12045 16.7178 6.86148 16.7178H2.14191C1.88294 16.7178 1.6814 16.9193 1.6814 17.1783V26.3301C1.6814 26.589 1.88295 26.7906 2.14191 26.7906H6.89037C7.14933 26.7906 7.35088 26.589 7.35088 26.3301V25.3516C9.13513 26.0711 14.2291 27.9993 16.8768 27.9993C20.1 27.9993 28.7913 22.3586 29.1655 22.1284C29.3957 21.9844 29.4533 21.6965 29.3094 21.4952L29.3093 21.4952ZM2.57349 25.8408V17.6099H6.42984V25.8408H2.57349ZM16.9055 27.0784C14.2578 27.0784 8.67467 24.8912 7.37961 24.3444V18.7612L19.0064 21.006C19.3806 21.006 19.6971 21.3226 19.6971 21.6968C19.6971 22.0709 19.3806 22.3875 19.0064 22.3875L12.4447 22.3873C12.1858 22.3873 11.9842 22.5889 11.9842 22.8478C11.9842 23.1068 12.1858 23.3083 12.4447 23.3083L18.9776 23.3081C19.5531 23.3081 20.0424 23.0203 20.3302 22.5599C20.8194 22.3584 22.6326 21.6965 25.05 21.1497C26.8055 20.7468 27.784 21.2647 28.2445 21.6389C26.3737 22.8189 19.4669 27.0782 16.9055 27.0782V27.0784Z" fill="#4CBBCA" stroke="#4CBBCA" stroke-width="0.3"/>
<path d="M29.9999 14.3005C29.9999 14.2718 29.7697 11.1924 25.827 11.1924C24.9925 11.1924 24.3304 11.3363 23.8125 11.5377C23.9851 11.7103 24.1578 11.883 24.273 12.0845C24.7335 11.9406 25.2515 11.8543 25.827 11.8543C27.1796 11.8543 28.187 12.2572 28.7912 13.0343C29.2517 13.6387 29.3092 14.243 29.3381 14.3293V14.9337H25.0788V15.3943C25.0788 15.4806 25.0501 15.5382 25.0212 15.5958H29.6547C29.8273 15.5958 29.9712 15.4519 29.9712 15.2505L29.9999 14.3005Z" fill="#4CBBCA" stroke="#4CBBCA" stroke-width="0.3"/>
<path d="M14.3155 15.3943V14.9337L10.3152 14.9339V14.3295C10.3152 14.2719 10.4015 13.6387 10.862 13.0345C11.4665 12.2574 12.4736 11.8545 13.8263 11.8545C14.3155 11.8545 14.776 11.9121 15.1789 12.0271C15.3228 11.8545 15.4668 11.6529 15.6681 11.4803C15.1789 11.3076 14.5745 11.1924 13.8262 11.1924C9.88355 11.1924 9.65332 14.2719 9.65332 14.3005V15.2502C9.65332 15.4229 9.79726 15.5955 9.9699 15.5955L14.3731 15.5957C14.3444 15.5381 14.3155 15.4518 14.3155 15.3942L14.3155 15.3943Z" fill="#4CBBCA" stroke="#4CBBCA" stroke-width="0.3"/>
</svg>
