<?xml version="1.0" encoding="utf-8"?>
<!-- Generator: Adobe Illustrator 26.4.1, SVG Export Plug-In . SVG Version: 6.00 Build 0)  -->
<svg version="1.1" xmlns="http://www.w3.org/2000/svg" xmlns:xlink="http://www.w3.org/1999/xlink" x="0px" y="0px"
	 viewBox="0 0 198 81" style="enable-background:new 0 0 198 81;" xml:space="preserve">
<g id="Layer_2" style="display:none;">
	<rect x="-1.89" y="-2.36" style="display:inline;" width="209.48" height="86.16"/>
</g>
<g id="Layer_1">
	<g>
		<path style="fill:#FFFFFF;" d="M158.46,81H39.54C17.74,81,0,62.83,0,40.5S17.74,0,39.54,0h118.91C180.26,0,198,18.17,198,40.5
			S180.26,81,158.46,81z M39.54,2C18.84,2,2,19.27,2,40.5S18.84,79,39.54,79h118.91C179.16,79,196,61.73,196,40.5S179.16,2,158.46,2
			H39.54z"/>
	</g>
	<g>
		<path style="fill:#FFFFFF;" d="M48.24,33.93c0-4.13-3.7-7.5-8.25-7.5h-0.13c-4.55,0-8.25,3.36-8.25,7.5v6.37h16.64V33.93z"/>
		<path style="fill:#FFFFFF;" d="M40.06,8.1C22.18,8.1,7.69,22.61,7.69,40.5c0,17.89,14.49,32.4,32.37,32.4s32.37-14.51,32.37-32.4
			C72.43,22.61,57.94,8.1,40.06,8.1z M53.62,54.94c0,0.21-0.17,0.38-0.37,0.38H26.87c-0.21,0-0.37-0.17-0.37-0.38V40.68
			c0-0.21,0.17-0.38,0.37-0.38h3.98v-6.37c0.01-4.55,4.05-8.25,9-8.25h0.13c4.96,0,9,3.7,9,8.25v6.37h4.25
			c0.21,0,0.37,0.17,0.37,0.38V54.94z"/>
		<path style="fill:#FFFFFF;" d="M31.23,41.06c-0.02,0-0.04-0.01-0.06-0.01h-3.92v13.51h25.63V41.05H31.29
			C31.27,41.05,31.25,41.06,31.23,41.06z M40.75,43.56h9.77v8.49h-9.77V43.56z M39.1,52.05h-9.78v-8.49h9.78V52.05z"/>
	</g>
	<g>
		<g>
			<g>
				<path style="fill:#FFFFFF;" d="M89.84,43.92c0.05-0.17,0.17-0.26,0.35-0.26h2.47c0.18,0,0.3,0.09,0.35,0.26l6.18,17.16
					c0.05,0.17-0.01,0.26-0.19,0.26h-2.63c-0.18,0-0.3-0.09-0.35-0.26l-1.21-3.43h-6.88l-1.21,3.43c-0.05,0.17-0.17,0.26-0.35,0.26
					h-2.61c-0.18,0-0.24-0.09-0.19-0.26L89.84,43.92z M93.84,54.91l-2.42-6.86h-0.08l-2.45,6.86H93.84z"/>
			</g>
			<g>
				<path style="fill:#FFFFFF;" d="M113.41,61.34c-0.2,0-0.33-0.09-0.4-0.26l-3.49-6.89h-3.14c-0.11,0-0.16,0.05-0.16,0.16v6.73
					c0,0.17-0.09,0.26-0.27,0.26h-2.63c-0.18,0-0.27-0.09-0.27-0.26V43.92c0-0.17,0.09-0.26,0.27-0.26h7.07
					c0.84,0,1.62,0.13,2.32,0.39c0.71,0.26,1.32,0.62,1.84,1.08c0.52,0.46,0.93,1.01,1.22,1.66c0.3,0.65,0.44,1.37,0.44,2.14
					c0,1.16-0.31,2.17-0.94,3.02c-0.63,0.85-1.47,1.46-2.53,1.85l3.84,7.2c0.05,0.09,0.06,0.17,0.01,0.23
					c-0.04,0.07-0.11,0.1-0.2,0.1H113.41z M110.26,51.43c0.84,0,1.52-0.22,2.03-0.68c0.51-0.45,0.77-1.06,0.77-1.82
					c0-0.78-0.26-1.39-0.77-1.85c-0.51-0.45-1.19-0.68-2.03-0.68h-3.9c-0.11,0-0.16,0.05-0.16,0.16v4.71c0,0.1,0.05,0.16,0.16,0.16
					H110.26z"/>
			</g>
			<g>
				<path style="fill:#FFFFFF;" d="M121.01,43.92c0-0.17,0.09-0.26,0.27-0.26h2.39c0.23,0,0.39,0.09,0.46,0.26l5.03,10.89h0.11
					l4.94-10.89c0.07-0.17,0.22-0.26,0.46-0.26h2.37c0.18,0,0.27,0.09,0.27,0.26v17.16c0,0.17-0.09,0.26-0.27,0.26h-2.34
					c-0.18,0-0.27-0.09-0.27-0.26V50.26h-0.11l-3.87,8.32c-0.11,0.23-0.28,0.34-0.51,0.34h-1.56c-0.23,0-0.4-0.11-0.51-0.34
					L124,50.26h-0.11v10.82c0,0.17-0.09,0.26-0.27,0.26h-2.34c-0.18,0-0.27-0.09-0.27-0.26V43.92z"/>
			</g>
			<g>
				<path style="fill:#FFFFFF;" d="M149.07,61.62c-1.58,0-2.93-0.36-4.06-1.08c-1.13-0.72-1.93-1.78-2.39-3.18
					c-0.09-0.28-0.17-0.55-0.23-0.83c-0.06-0.28-0.11-0.6-0.15-0.96c-0.04-0.36-0.06-0.79-0.08-1.29c-0.02-0.49-0.03-1.09-0.03-1.78
					s0.01-1.29,0.03-1.78c0.02-0.49,0.04-0.92,0.08-1.29s0.08-0.68,0.15-0.96c0.06-0.28,0.14-0.55,0.23-0.83
					c0.47-1.4,1.26-2.47,2.39-3.18c1.13-0.72,2.48-1.08,4.06-1.08c1.59,0,2.96,0.36,4.09,1.08c1.13,0.72,1.93,1.78,2.39,3.18
					c0.09,0.28,0.16,0.55,0.23,0.83c0.06,0.28,0.11,0.6,0.15,0.96s0.06,0.79,0.08,1.29c0.02,0.49,0.03,1.09,0.03,1.78
					s-0.01,1.29-0.03,1.78c-0.02,0.49-0.04,0.92-0.08,1.29c-0.04,0.36-0.08,0.69-0.15,0.96c-0.06,0.28-0.14,0.55-0.23,0.83
					c-0.47,1.4-1.26,2.47-2.39,3.18C152.03,61.26,150.66,61.62,149.07,61.62z M149.07,58.87c0.91,0,1.65-0.2,2.2-0.61
					c0.56-0.41,0.96-0.97,1.21-1.7c0.05-0.16,0.1-0.34,0.13-0.55s0.07-0.47,0.09-0.78c0.03-0.31,0.05-0.69,0.07-1.13
					c0.02-0.44,0.03-0.97,0.03-1.6s-0.01-1.16-0.03-1.6c-0.02-0.44-0.04-0.82-0.07-1.13c-0.03-0.31-0.06-0.57-0.09-0.78
					s-0.08-0.39-0.13-0.55c-0.25-0.73-0.65-1.29-1.21-1.7c-0.56-0.41-1.29-0.61-2.2-0.61c-0.91,0-1.64,0.2-2.19,0.61
					s-0.95,0.97-1.2,1.7c-0.05,0.16-0.1,0.34-0.15,0.55c-0.04,0.21-0.08,0.47-0.11,0.78c-0.03,0.31-0.04,0.69-0.05,1.13
					c-0.01,0.44-0.01,0.98-0.01,1.6s0,1.16,0.01,1.6c0.01,0.44,0.03,0.82,0.05,1.13c0.03,0.31,0.06,0.57,0.11,0.78
					c0.04,0.21,0.09,0.39,0.15,0.55c0.25,0.73,0.65,1.3,1.2,1.7S148.15,58.87,149.07,58.87z"/>
			</g>
			<g>
				<path style="fill:#FFFFFF;" d="M171.24,61.34c-0.2,0-0.33-0.09-0.4-0.26l-3.49-6.89h-3.14c-0.11,0-0.16,0.05-0.16,0.16v6.73
					c0,0.17-0.09,0.26-0.27,0.26h-2.63c-0.18,0-0.27-0.09-0.27-0.26V43.92c0-0.17,0.09-0.26,0.27-0.26h7.07
					c0.84,0,1.62,0.13,2.32,0.39c0.71,0.26,1.32,0.62,1.84,1.08c0.52,0.46,0.93,1.01,1.22,1.66c0.3,0.65,0.44,1.37,0.44,2.14
					c0,1.16-0.31,2.17-0.94,3.02c-0.63,0.85-1.47,1.46-2.53,1.85l3.84,7.2c0.05,0.09,0.06,0.17,0.01,0.23s-0.11,0.1-0.2,0.1H171.24z
					 M168.1,51.43c0.84,0,1.52-0.22,2.03-0.68c0.51-0.45,0.77-1.06,0.77-1.82c0-0.78-0.26-1.39-0.77-1.85
					c-0.51-0.45-1.19-0.68-2.03-0.68h-3.9c-0.11,0-0.16,0.05-0.16,0.16v4.71c0,0.1,0.05,0.16,0.16,0.16H168.1z"/>
			</g>
		</g>
		<g>
			<g>
				<path style="fill:#FFFFFF;" d="M87.11,33.37c-0.35,0-0.7-0.04-1.04-0.1c-0.34-0.07-0.66-0.16-0.97-0.28
					c-0.3-0.12-0.58-0.25-0.83-0.41c-0.25-0.15-0.47-0.32-0.66-0.49c-0.07-0.07-0.07-0.15-0.01-0.23l0.64-0.78
					c0.06-0.07,0.13-0.07,0.2-0.01c0.32,0.26,0.72,0.5,1.2,0.72c0.48,0.22,1,0.33,1.58,0.33c0.69,0,1.23-0.16,1.62-0.48
					c0.38-0.32,0.58-0.74,0.58-1.26c0-0.22-0.03-0.42-0.1-0.6c-0.07-0.18-0.18-0.34-0.34-0.48c-0.16-0.14-0.37-0.26-0.64-0.36
					c-0.26-0.1-0.59-0.18-0.99-0.23l-0.5-0.08c-1.95-0.27-2.93-1.21-2.93-2.82c0-0.45,0.08-0.86,0.23-1.23
					c0.15-0.37,0.37-0.69,0.65-0.95c0.28-0.26,0.62-0.46,1.02-0.6c0.4-0.14,0.85-0.21,1.35-0.21c0.58,0,1.14,0.09,1.67,0.26
					c0.53,0.18,0.98,0.4,1.35,0.68c0.08,0.06,0.09,0.13,0.03,0.21l-0.5,0.83c-0.06,0.07-0.13,0.08-0.2,0.03
					c-0.41-0.26-0.8-0.45-1.18-0.58c-0.38-0.12-0.78-0.19-1.21-0.19c-0.61,0-1.08,0.15-1.4,0.46c-0.32,0.31-0.48,0.7-0.48,1.19
					c0,0.43,0.16,0.78,0.47,1.06c0.31,0.28,0.85,0.47,1.62,0.58l0.48,0.08c0.98,0.14,1.71,0.44,2.19,0.9
					c0.49,0.46,0.73,1.11,0.73,1.95c0,0.45-0.08,0.86-0.23,1.24c-0.15,0.38-0.38,0.7-0.69,0.97c-0.31,0.27-0.69,0.48-1.14,0.64
					C88.23,33.29,87.7,33.37,87.11,33.37z"/>
			</g>
			<g>
				<path style="fill:#FFFFFF;" d="M93.98,23.15c0-0.1,0.05-0.15,0.15-0.15h6c0.1,0,0.15,0.05,0.15,0.15v0.94
					c0,0.1-0.05,0.15-0.15,0.15h-4.74c-0.06,0-0.09,0.03-0.09,0.09v3c0,0.06,0.03,0.09,0.09,0.09h4.02c0.1,0,0.15,0.05,0.15,0.15
					v0.94c0,0.1-0.05,0.15-0.15,0.15h-4.02c-0.06,0-0.09,0.03-0.09,0.09v3.1c0,0.06,0.03,0.09,0.09,0.09h4.74
					c0.1,0,0.15,0.05,0.15,0.15v0.95c0,0.1-0.05,0.15-0.15,0.15h-6c-0.1,0-0.15-0.05-0.15-0.15V23.15z"/>
			</g>
			<g>
				<path style="fill:#FFFFFF;" d="M103.37,30.97c-0.05-0.15-0.09-0.3-0.12-0.46c-0.03-0.16-0.06-0.34-0.08-0.56
					c-0.02-0.21-0.03-0.47-0.04-0.77c-0.01-0.3-0.01-0.66-0.01-1.08s0-0.78,0.01-1.08c0.01-0.3,0.02-0.56,0.04-0.77
					c0.02-0.21,0.05-0.4,0.08-0.55c0.04-0.16,0.08-0.31,0.12-0.46c0.25-0.81,0.66-1.41,1.23-1.81c0.56-0.4,1.26-0.59,2.08-0.59
					c0.74,0,1.39,0.18,1.94,0.53c0.55,0.35,0.97,0.86,1.25,1.52c0.03,0.09,0.01,0.16-0.06,0.19l-0.88,0.44
					c-0.1,0.05-0.17,0.03-0.2-0.07c-0.2-0.4-0.45-0.73-0.78-0.98c-0.32-0.26-0.75-0.38-1.27-0.38c-0.55,0-0.99,0.13-1.32,0.39
					c-0.33,0.26-0.58,0.63-0.75,1.11c-0.03,0.11-0.06,0.23-0.08,0.35c-0.03,0.12-0.04,0.28-0.06,0.46
					c-0.02,0.19-0.03,0.42-0.04,0.69s-0.01,0.61-0.01,1.01c0,0.4,0,0.74,0.01,1.01s0.02,0.5,0.04,0.69
					c0.01,0.19,0.03,0.34,0.06,0.47c0.02,0.13,0.05,0.25,0.08,0.34c0.17,0.48,0.41,0.85,0.75,1.11c0.33,0.26,0.77,0.39,1.32,0.39
					c0.53,0,0.95-0.13,1.27-0.38s0.58-0.58,0.78-0.98c0.04-0.1,0.11-0.12,0.2-0.08l0.88,0.44c0.07,0.04,0.09,0.1,0.06,0.19
					c-0.28,0.66-0.7,1.17-1.25,1.52c-0.55,0.36-1.2,0.53-1.94,0.53c-0.82,0-1.51-0.2-2.08-0.59
					C104.04,32.38,103.63,31.78,103.37,30.97z"/>
			</g>
			<g>
				<path style="fill:#FFFFFF;" d="M116.44,33.37c-1.1,0-1.97-0.32-2.59-0.95c-0.63-0.63-0.94-1.56-0.94-2.77v-6.49
					c0-0.1,0.05-0.15,0.15-0.15h1.02c0.1,0,0.15,0.05,0.15,0.15v6.48c0,0.83,0.2,1.45,0.6,1.87c0.4,0.42,0.94,0.62,1.61,0.62
					c0.66,0,1.19-0.21,1.6-0.62c0.4-0.41,0.6-1.04,0.6-1.87v-6.48c0-0.1,0.05-0.15,0.15-0.15h1.02c0.1,0,0.15,0.05,0.15,0.15v6.49
					c0,1.21-0.31,2.13-0.94,2.77C118.4,33.05,117.54,33.37,116.44,33.37z"/>
			</g>
			<g>
				<path style="fill:#FFFFFF;" d="M129.34,33.2c-0.09,0-0.15-0.05-0.19-0.15l-1.98-4.17h-2.19c-0.06,0-0.09,0.03-0.09,0.09v4.08
					c0,0.1-0.05,0.15-0.15,0.15h-1.02c-0.1,0-0.15-0.05-0.15-0.15v-9.9c0-0.1,0.05-0.15,0.15-0.15h3.61c0.47,0,0.89,0.07,1.28,0.21
					c0.38,0.14,0.71,0.34,0.98,0.59c0.27,0.25,0.49,0.56,0.64,0.93c0.15,0.36,0.23,0.77,0.23,1.21c0,0.69-0.18,1.27-0.53,1.75
					s-0.83,0.82-1.43,1.02l2.12,4.3c0.03,0.05,0.03,0.09,0.01,0.13c-0.02,0.04-0.05,0.05-0.1,0.05H129.34z M127.29,27.64
					c0.58,0,1.04-0.15,1.36-0.44c0.32-0.29,0.48-0.71,0.48-1.25c0-0.54-0.16-0.96-0.48-1.25c-0.32-0.29-0.77-0.44-1.36-0.44h-2.32
					c-0.06,0-0.09,0.03-0.09,0.09v3.21c0,0.06,0.03,0.09,0.09,0.09H127.29z"/>
			</g>
			<g>
				<path style="fill:#FFFFFF;" d="M133.84,23.15c0-0.1,0.05-0.15,0.15-0.15h6c0.1,0,0.15,0.05,0.15,0.15v0.94
					c0,0.1-0.05,0.15-0.15,0.15h-4.74c-0.06,0-0.09,0.03-0.09,0.09v3c0,0.06,0.03,0.09,0.09,0.09h4.02c0.1,0,0.15,0.05,0.15,0.15
					v0.94c0,0.1-0.05,0.15-0.15,0.15h-4.02c-0.06,0-0.09,0.03-0.09,0.09v3.1c0,0.06,0.03,0.09,0.09,0.09h4.74
					c0.1,0,0.15,0.05,0.15,0.15v0.95c0,0.1-0.05,0.15-0.15,0.15h-6c-0.1,0-0.15-0.05-0.15-0.15V23.15z"/>
			</g>
			<g>
				<path style="fill:#FFFFFF;" d="M143.32,23.15c0-0.1,0.05-0.15,0.15-0.15h3.35c1.71,0,2.79,0.73,3.25,2.18
					c0.04,0.14,0.08,0.28,0.11,0.44c0.03,0.15,0.06,0.33,0.09,0.55c0.02,0.22,0.04,0.49,0.05,0.79c0.01,0.31,0.01,0.69,0.01,1.14
					c0,0.45,0,0.83-0.01,1.14c-0.01,0.31-0.03,0.58-0.05,0.79c-0.02,0.22-0.05,0.41-0.09,0.56c-0.03,0.15-0.07,0.29-0.11,0.44
					c-0.46,1.45-1.54,2.17-3.25,2.17h-3.35c-0.1,0-0.15-0.05-0.15-0.15V23.15z M144.64,31.87c0,0.06,0.03,0.09,0.09,0.09h1.82
					c0.6,0,1.09-0.11,1.46-0.32c0.37-0.21,0.64-0.57,0.8-1.07c0.03-0.09,0.06-0.19,0.09-0.31s0.05-0.27,0.07-0.46
					s0.03-0.41,0.04-0.68c0.01-0.27,0.01-0.6,0.01-1c0-0.4,0-0.73-0.01-1c-0.01-0.27-0.02-0.5-0.04-0.68s-0.04-0.34-0.07-0.46
					s-0.06-0.23-0.09-0.31c-0.16-0.5-0.43-0.86-0.8-1.07c-0.37-0.22-0.85-0.32-1.46-0.32h-1.82c-0.06,0-0.09,0.03-0.09,0.09V31.87z"
					/>
			</g>
			<g>
				<path style="fill:#FFFFFF;" d="M158.43,23.15c0-0.1,0.05-0.15,0.15-0.15h3.52c1,0,1.76,0.24,2.25,0.73
					c0.5,0.49,0.75,1.14,0.75,1.96c0,0.6-0.12,1.08-0.37,1.44c-0.25,0.36-0.57,0.62-0.96,0.78v0.03c0.16,0.05,0.34,0.14,0.52,0.26
					c0.18,0.12,0.34,0.29,0.49,0.48s0.27,0.43,0.37,0.7s0.15,0.58,0.15,0.92c0,0.96-0.28,1.69-0.84,2.18s-1.37,0.73-2.41,0.73h-3.46
					c-0.1,0-0.15-0.05-0.15-0.15V23.15z M162.08,27.41c0.55,0,0.98-0.15,1.28-0.44c0.3-0.29,0.45-0.67,0.45-1.15
					c0-0.49-0.15-0.88-0.45-1.17c-0.3-0.29-0.73-0.44-1.28-0.44h-2.24c-0.06,0-0.09,0.03-0.09,0.09v3.02c0,0.06,0.03,0.09,0.09,0.09
					H162.08z M159.75,31.9c0,0.06,0.03,0.09,0.09,0.09h2.32c0.59,0,1.04-0.15,1.36-0.46c0.31-0.31,0.47-0.71,0.47-1.22
					c0-0.51-0.16-0.92-0.47-1.22c-0.31-0.3-0.76-0.46-1.36-0.46h-2.32c-0.06,0-0.09,0.03-0.09,0.09V31.9z"/>
			</g>
			<g>
				<path style="fill:#FFFFFF;" d="M170.33,33.2c-0.1,0-0.15-0.05-0.15-0.15v-4.02l-2.94-5.87c-0.04-0.11,0-0.17,0.12-0.17h1.04
					c0.09,0,0.16,0.05,0.22,0.15l2.22,4.36h0.03l2.21-4.36c0.04-0.1,0.11-0.15,0.2-0.15h1c0.12,0,0.15,0.06,0.12,0.17l-2.92,5.87
					v4.02c0,0.1-0.05,0.15-0.15,0.15H170.33z"/>
			</g>
		</g>
	</g>
</g>
</svg>
