<svg xmlns="http://www.w3.org/2000/svg" width="305" height="305" fill="none" viewBox="0 0 305 305">
    <g clip-path="url(#a)">
        <path fill="#1D1D1B" d="M168.049 226.138c-1.481 1.076-8.481.449-10.276.628-3.321.269-6.372.807-9.468 2.152-4.712 1.973-10.904 5.963-16.244 3.945-8.571-3.228 1.166-8.159 4.981-9.818 4.532-1.973 9.154-4.259 11.173-9.056 2.199-5.291-5.205-10.94-8.616-14.437-4.936-5.066-10.231-9.773-14.718-15.288-3.904-4.797-6.103-9.908-9.019-15.198-2.424-4.439-7.045-7.218-8.661-10.939-2.378-5.425 2.334-10.626 5.295-15.154 6.686-10.177 16.379-19.996 25.622-28.245 2.199-1.973 7.225-6.949 9.693-8.429 2.423-1.479 6.103-2.914 7.808-1.524 4.667 3.811 1.346 14.481.134 19.413-.807 3.452-1.57 14.795-3.051 16.947-1.256 1.883-14.539 8.204-17.007 9.549-2.333 1.256-5.16 2.556-6.686 4.842-1.884 2.78-.807 3.587 1.347 5.694 4.128 4.08 8.525 7.129 11.397 12.284 6.955 12.509 10.321 27.08 20.013 37.974 1.975 2.152 11.039 11.163 6.283 14.66z"/>
        <path fill="url(#b)" d="M169.349 225.466c-2.288 2.824-10.59 2.017-13.82 2.511-5.924.896-11.084 4.079-16.917 5.155-3.231.583-13.058-.044-10.097-5.38 2.154-3.855 10.904-5.066 14.135-9.235 1.93-2.466 1.391-8.563 5.026-7.532 1.66.448 3.545 3.004 6.147 3.452 3.321.583 3.859-.807 5.295-2.286 4.622-4.798 4.533-.449 7.315 3.81 1.436 2.242 5.025 6.949 2.916 9.505z"/>
        <path fill="#878787" d="M168.183 275.141c-26.206 0-26.25-38.96 0-38.96 26.206-.045 26.206 38.96 0 38.96zm3.321-19.951c.224 1.166 5.07 3.587 6.058 4.304.942.673 2.647 2.646 3.948 2.063 2.782-1.256 1.616-13.136-1.57-13.316-1.481.762-8.75 5.38-8.436 6.949zm-7-1.12c-.674-2.556-4.218-9.101-7.045-8.07-3.276 1.21-4.263 8.249-3.949 10.939 1.929 1.793 8.57-2.018 10.994-2.869zm.718 3.586c-2.154.807-7.404 1.614-8.885 3.228-2.648 2.959 5.923 9.774 8.077 7.174.269-3.497.538-6.95.808-10.402zm3.23-5.604c1.391-1.21 8.212-6.142 7.449-8.339-.897-2.735-11.397-3.048-11.936-.403 1.84 2.735 2.558 6.142 4.487 8.742zm8.077 11.208c-1.974-2.107-5.205-3.676-7.583-5.38-.224 2.825-2.244 9.909.314 11.836 3.949-.313 10.904-2.6 7.269-6.456z"/>
        <path fill="url(#c)" d="M93.021 56.041c-4.442-1.12-8.436-3.452-12.788-4.841-4.712-1.525-5.16-.045-10.321.941-5.16.986-5.654-2.51-6.955-6.187-.404-1.12-.988-2.51-1.706-3.093-.718-.628-3.096-.449-3.5-1.839-.673-2.107.853-4.349.674-6.545-.315-3.9-1.975-7.487-1.706-11.433.943-14.391 21.54-19.054 32.264-12.822 8.167 4.752 7.135 10.76 7.27 19.144.089 5.066 2.422 7.218 6.64 9.415 3.859 2.017 6.507 3.81 6.956 8.608-.314 8.383-10.187 10.311-16.828 8.652z"/>
        <path fill="#3C3C3B" d="M124.836 242.637c0-34.387-28-62.363-62.418-62.363C28.001 180.274 0 208.25 0 242.637S28 305 62.418 305c34.417 0 62.418-27.976 62.418-62.363zm-8.077 0c0 29.949-24.366 54.293-54.341 54.293s-54.34-24.344-54.34-54.293c0-29.948 24.365-54.338 54.34-54.338 29.975 0 54.341 24.39 54.341 54.338z"/>
        <path fill="#575756" d="M305 242.637c0-34.387-28.001-62.408-62.418-62.408s-62.418 27.976-62.418 62.363 28.001 62.363 62.418 62.363C276.999 305 305 277.024 305 242.637zm-8.077 0c0 29.949-24.366 54.293-54.341 54.293s-54.341-24.344-54.341-54.293c0-29.949 24.366-54.338 54.341-54.338s54.341 24.389 54.341 54.338z"/>
        <path fill="#878787" d="M255.146 242.637c0-6.949-5.653-12.553-12.564-12.553-6.955 0-12.564 5.649-12.564 12.553 0 6.949 5.654 12.553 12.564 12.553 6.911 0 12.564-5.649 12.564-12.553z"/>
        <path fill="#F2A57E" d="M122.906 72.181c-7.179 4.618-21.628-2.062-26.789-11.432-3.275-6.008-5.968-16.633-.763-22.282 6.866-7.353 23.334 2.555 27.687 7.532 6.91 7.846 7.718 21.071-.135 26.182z"/>
        <path fill="#575756" d="M61.296 160.592c.18 3.856-4.352 5.649-5.07 1.48-.629-3.587.807-12.464 1.525-15.871.404-1.838 3.096-3.856 4.577.134 1.302 3.408-1.166 11.926-1.032 14.257z"/>
        <path fill="#F5B149" d="M238.498 240.844c-12.295 3.183-24.545 6.366-36.84 9.549-7.673 1.973-15.302 3.99-22.975 5.963-3.5.897-10.321 4.439-13.103 2.869-1.75-.986-2.961-2.959-4.263-4.483a2914.019 2914.019 0 0 0-11.218-13.181c-10.096-11.881-20.237-23.806-30.334-35.687-4.083-4.842-8.212-9.639-12.295-14.481-2.019-2.331-4.083-5.873-6.551-7.711-4.398-3.273-5.565-.718-7.27 2.555-3.051 5.739-6.103 11.522-9.154 17.261-3.59 6.77-7.18 13.539-10.724 20.309-2.379 4.484-6.238 9.595-7.629 14.481-.538 1.883.36 1.435.045 3.677-.718 5.111-8.66 4.931-7.987-.404.404-2.959 3.23-2.735 4.666-4.573 1.167-1.479 1.795-3.855 2.603-5.559 6.238-13.316 12.52-26.586 18.757-39.902 1.391-3.003 2.872-6.142 3.814-9.101 2.02-6.366 2.692-13.898 5.744-19.816 1.93-3.676 4.712-5.604 5.878-9.594-3.23-.269-6.462-.538-9.648-.807-2.333-.18-8.39.358-10.275-.852-4.039-2.645.18-4.439 3.051-4.349 5.07.134 10.141.852 15.257 1.076 4.218.224 3.545-1.793 4.667-5.649 3.948 1.211 4.666.359 3.769 4.125-.763 3.272-2.468 6.5-3.007 9.863-.897 5.739.494 5.29 4.981 6.366 24.411 5.918 48.867 11.881 73.277 17.799 3.052.717 2.783 1.39 4.129-.628 1.301-1.927 1.75-5.514 2.333-7.711.942-3.542 1.705-7.353 2.648-10.894 1.211-4.618 1.794-10.94 4.038-15.199 3.051-5.649 5.834-4.259 10.994-2.824-1.301 2.6-1.66 2.959-4.083 4.438-1.661 1.031-2.065 1.031-2.827 2.421-2.424 4.17-3.007 10.895-4.263 15.512-1.481 5.336-2.917 10.716-4.398 16.051-.583 2.107-1.211 3.048-.404 4.662 1.077 2.197 4.981 4.573 6.776 6.187 3.904 3.542 7.763 7.129 11.667 10.671 8.84 8.114 17.725 16.229 26.565 24.344 3.32 3.049 12.474 8.742 12.384 14.033.404 6.77-9.782 5.963-8.795-.807zm-54.52-53.755c-13.686-3.407-27.417-6.77-41.103-10.177-8.077-1.973-16.11-3.99-24.187-5.963-3.276-.807-8.615-3.318-11.981-2.959-4.936.493-1.705 4.976.225 7.442 3.589 4.528 7.134 9.101 10.724 13.63 10.77 13.718 21.494 27.393 32.264 41.112 4.083 5.2 8.211 10.446 12.295 15.646 1.481 1.883 3.006 5.694 5.115 3.946 5.52-20.893 11.084-41.785 16.648-62.677zm56.091 50.796a54754.868 54754.868 0 0 1-52.322-46.806c-2.468 9.011-4.936 18.068-7.449 27.079-2.737 10.043-6.73 20.399-8.436 30.711-.359 2.062-1.166 2.421.718 3.004 2.244.672 7.718-1.569 9.962-2.018 18.981-3.811 37.962-7.621 56.899-11.432.224-.18.448-.359.628-.538z"/>
        <path fill="#3C3C3B" d="M93.29 36.674c-6.416 2.062-8.885-7.263-13.192-9.28-5.16-2.422-3.814 6.68-8.481 3.093-2.334-1.794-3.32-2.914-6.507-3.452-2.154-.36-6.73.313-8.48-1.166-2.828-2.421.224-9.908 1.974-12.284 3.186-4.394 7.942-7.757 13.417-8.34C83.687 3.99 97.06 6.68 98.047 22.866c.314 3.676-.27 12.419-4.757 13.809z"/>
        <path fill="#575756" d="M209.78 144.766c-4.218.359-8.032-1.165-11.891-2.6-4.039-1.524-8.167-1.435-12.475-1.838-2.557-.224-6.731-.449-5.923-4.035.583-2.69 4.757-2.511 7-2.511 5.205-.045 10.411.717 15.616.538 5.744-.179 11.263-1.748 17.052-1.345 9.019.583-5.699 11.433-9.379 11.791z"/>
        <path fill="url(#d)" d="M212.966 255.325c-2.737 2.152-6.686 2.197-9.737 3.811-3.231 1.659-5.475 4.393-7.673 7.218-3.68 4.662-7.27 9.549-13.687 10.177-3.096.314-5.609-.807-3.724-4.304.897-1.704 3.096-1.973 4.398-3.138 1.435-1.301 1.929-2.466 2.827-4.349 4.128-8.922 5.743-16.23 3.634-25.869-1.66-7.622-5.34-14.66-8.526-21.744-2.288-5.066-4.263-10.446-6.91-15.333-1.93-3.587-4.577-6.456-7.135-9.684-2.827-3.631-5.878-7.353-8.391-11.208-2.558-3.946-2.692-7.577-2.647-12.15.044-6.949-1.975-12.733-2.424-19.682-.493-7.577-.403-15.064.808-22.506.718-4.304 2.289-8.608 2.289-13.002 0-1.748-.18-3.586-.853-5.2-.314-.762-2.154-2.914-2.019-3.632.404-1.793 5.115-3.586 6.551-4.483 2.917-1.838 5.789-3.81 8.257-6.232 1.615-1.614 3.096-3.362 4.308-5.29.628-1.031 1.48-4.17 2.333-4.887 2.019-1.659 4.667-1.076 7.224.045 7.539 3.362 13.597 11.253 13.821 19.771.314 12.554-8.526 19.503-10.096 26.541-.942 4.215-1.077 8.698-1.257 13.092-.179 4.797-1.615 8.563-2.602 13.27-1.66 7.757-4.308 17.44-.808 25.017 2.737 5.918 9.154 9.595 11.532 15.916 5.251 13.898 1.616 33.58 13.283 44.295 5.205 2.287 14.539 7.801 7.224 13.54z"/>
        <path fill="#575756" d="M89.207 173.325c-.718-.09-10.949-1.838-16.02-6.456-5.07-4.618-7.134-10.805-5.205-15.423 1.346-3.183 6.013-11.163 21.09-8.025 5.16 1.076 2.827 6.232.09 5.47-5.205-1.435-13.417-1.838-15.436 2.959-1.66 3.9-1.257 7.173 3.276 11.253 4.622 4.214 12.968 4.932 13.058 4.932 2.153-.224 2.378 5.694-.853 5.29z"/>
        <path fill="#F77C7C" d="M176.978 80.745c2.917 6.142-10.769 17.484-15.032 20.802-5.475 4.259-16.154 5.784-20.956-.672-1.346-1.794-.897-3.632-2.827-4.887-1.525-.987-3.904-.628-5.564-1.3-3.231-1.345-4.981-4.529-8.122-5.963-2.692-1.255-4.308-.135-6.955.762-1.346.448-4.398 1.21-6.058 1.39-1.705.18-.897-9.19-.942-11.836-.045-2.825-.09-10.895 1.077-12.24.359-.403 3.365-.358 4.442-.672 1.795-.493 3.59-1.39 4.667-2.87 5.699-7.621-2.334-17.08-8.436-21.43-2.109-1.524-4.487-3.093-6.866-4.124-1.077-.449-4.173-.673-4.756-1.48-1.57-2.197 9.288.449 10.276.852 8.929 3.497 17.006 9.236 23.603 16.14 6.686 6.994 12.474 11.701 21.404 16.05 5.205 2.556 18.398 5.918 21.045 11.478z"/>
        <path fill="#3C3C3B" d="M99.438 27.214c3.949-2.107 8.885-4.528 14.18-4.35 7.269.27 10.68 4.529 15.661 6.95 4.442 2.152 6.371.269 11.128 2.466 5.878 2.69 8.975 4.663 9.423 10.312.135 1.927-2.109 6.142-9.288 7.083-6.507.852-14.135.135-15.616-4.887-1.885-6.276-4.667-9.953-11.308-12.777-2.737-1.166-11.308-2.332-12.385-2.332-.269.045-3.904-1.345-1.795-2.465z"/>
        <path fill="#F77C7C" d="M209.511 258.105c-4.757 2.824-9.558 4.707-13.417 8.876-3.456 3.722-6.058 7.801-11.263 9.415-7.539 2.332-10.142-1.614-6.193-6.5 1.705-2.108 4.218-2.69 5.609-5.066 1.526-2.646 2.064-6.412 2.648-9.371.852-4.393-.494-10.715 5.025-10.491 2.558.09 4.577.763 7.135-.313 2.334-1.032 3.276-3.856 5.161-4.842 2.423-1.301 2.423-.18 4.891 1.838 2.019 1.614 5.16 3.452 6.596 5.514 3.545 5.066-2.872 8.967-6.192 10.94z"/>
        <path fill="#AD4646" d="M191.517 262.453c-2.154-2.017-4.936.807-3.007 2.78 1.84 1.928 5.206-.717 3.007-2.78zM191.965 260.884c-2.468-.896-1.211-4.304 1.077-3.99 2.738.314 2.424 5.246-1.077 3.99zM192.19 253.173c.538-1.793 3.859-2.197 4.173-.045.494 3.632-5.071 3.049-4.173.045z"/>
        <path fill="#fff" d="M193.626 252.321c-1.167-.448-5.25-1.524-6.865-1.704-1.122-.134-2.154 2.063-.27 2.466 1.347.269 4.936 1.031 6.597 1.48 1.75.493 2.243-1.614.538-2.242zM191.652 257.298c-1.84-.449-3.77-1.121-5.699-1.345-1.885-.225-1.885 1.883-.359 2.241 1.885.404 3.635.852 5.474 1.345 2.065.583 2.603-1.748.584-2.241zM189.722 261.96c-1.705-.538-2.782-.941-4.756-1.165-1.661-.18-1.481 1.793-.404 2.107 1.301.358 3.096.941 4.622 1.21 1.166.224 2.198-1.614.538-2.152z"/>
        <path fill="#F2AEB3" d="M102.4 31.652c-1.167 1.121-4.039 1.21-5.16-.045-.674-.762-.63-1.838-.63-2.824a31.955 31.955 0 0 0-.313-5.47c-.045-.313.045-.582.224-.762.135-.224.36-.403.718-.448 2.648-.224 4.622.852 5.43 3.452.493 1.614 1.122 4.752-.269 6.097z"/>
        <path fill="#DADADA" d="M68.61 19.099c-4.576 2.017-9.423 3.228-13.82 5.649-1.526.852-2.244 3.004-3.5 1.12-.763-1.165.628-5.38.987-6.635C54.969 9.64 62.687 3.631 72.2 1.66 76.33.807 94.682-2.421 96.342 3.63c.583 2.063-24.321 13.944-27.731 15.468z"/>
        <path fill="#F2A57E" d="M65.739 51.513c.897.718 2.198.987 4.173.583 5.07-.986 5.609-2.42 10.051-1.031 2.289-2.959 3.77-6.366 3.276-7.398-.763-1.569-5.789 4.26-10.276 6.456-3.051 1.525-5.923 1.256-7.224 1.39z"/>
        <path fill="#F2A57E" d="M72.963 50.168c4.487-2.196 9.513-8.025 10.276-6.456.494.987-.987 4.439-3.276 7.398-4.487-1.39-4.98.045-10.051 1.031-1.975.359-3.276.09-4.173-.583 1.3-.18 4.173.09 7.224-1.39z"/>
        <path fill="#ED9477" d="M108.188 60.032c0 6.725 1.481 12.239 3.276 12.15 3.949-.18 2.243-5.336 3.275-12.15.988-6.636-2.109-10.267-3.141-10.267-1.839 0-3.41 3.542-3.41 10.267z"/>
        <path fill="url(#e)" d="M111.329 69.447c-.718 6.321.314 12.822.359 19.188.09 5.694.987 9.864-2.378 14.571-3.994 5.514-7.718 10.446-11.667 15.961-3.051 4.259-6.507 8.787-10.231 12.553-2.333 2.376-5.43 4.662-7 7.532-1.302 2.376-1.526 4.573-3.904 6.411-2.11 1.614-4.532 1.524-6.327 3.721-.808.986-1.077 3.901-2.11 4.439-1.57.807-3.903-1.839-5.115-2.959-2.333-2.197-2.961-3.273-2.872-6.546-4.577 1.121-.987 5.47-2.692 6.232-1.436.627-4.128-4.08-4.128-5.156.045-2.645 4.218-4.932 6.102-6.232 4.398-3.004 7.404-1.883 12.026-3.318 3.456-1.076 5.744-6.097 7.629-9.145 2.333-3.722 11.038-17.844 12.699-21.386 1.436-3.004 4.846-7.487 5.026-10.536.538-8.249-1.033-17.843-3.052-25.824-1.615-6.41-3.5-12.732-2.961-19.457.358-4.708 1.884-11.253 6.775-13.316 7.045-2.959 13.911 3.004 14.853 10.312 1.346 8.025-.134 15.02-1.032 22.955z"/>
        <path fill="url(#f)" d="M110.611 79.086c-.045-2.825-.089-10.895 1.077-12.24.225-.269 1.391-.314 2.558-.448l.045.045c.314 2.286.942 4.214 2.199 5.514 6.686 6.994 5.654-.134 22.526 12.33 4.577 3.362 18.757 4.034 23.917 7.397 3.096 2.017 3.321 6.546-.942 9.863-5.475 4.259-16.155 5.784-20.956-.672-1.346-1.794-.897-3.632-2.827-4.887-1.526-.987-3.904-.628-5.564-1.3-3.231-1.345-4.981-4.529-8.122-5.963-2.693-1.255-4.308-.135-6.955.762-1.347.448-4.398 1.21-6.058 1.39-1.616.224-.853-9.146-.898-11.791z"/>
        <path fill="#F6F6F6" d="M68.61 19.099c-4.577 2.017-9.423 3.228-13.82 5.649-1.526.852-3.187 2.69-2.693.493.224-.986 6.731-4.439 10.455-5.38 7.135-1.793 13.462-9.37 21.809-13.18 3.903-1.794 10.724-4.305 11.98-3.05 1.571 1.48-24.32 13.944-27.73 15.468z"/>
        <path fill="#B2B2B2" d="M100.066 23.717c-1.84 1.524-6.372 1.165-8.526 1.12-3.5-.09-3.365-.806-5.968-2.958-2.423-2.018-3.32-2.646-6.416-2.108-1.257.225-4.174.135-5.206.942-.583.448-.224 2.017-1.032 2.6-3.41 2.466-8.122.583-11.98 1.794-2.693.851-6.642 6.635-8.706 3.183-2.379-4.08 8.436-6.68 11.083-7.622C68.251 18.875 95.49 2.242 97.463 4.932c2.693 3.72 7.584 14.705 2.603 18.785z"/>
    </g>
    <defs>
        <linearGradient id="b" x1="169.986" x2="127.943" y1="221.692" y2="221.692" gradientUnits="userSpaceOnUse">
            <stop offset=".004" stop-color="#E36B6B"/>
            <stop offset="1" stop-color="#D45353"/>
        </linearGradient>
        <linearGradient id="c" x1="117.313" x2="64.132" y1="32.04" y2="32.04" gradientUnits="userSpaceOnUse">
            <stop stop-color="#ED9477"/>
            <stop offset=".996" stop-color="#FFD2A8"/>
        </linearGradient>
        <linearGradient id="d" x1="184.196" x2="184.196" y1="276.55" y2="82.642" gradientUnits="userSpaceOnUse">
            <stop stop-color="#1D1D1B"/>
            <stop offset=".187" stop-color="#2F2F2D"/>
            <stop offset=".73" stop-color="#5E5D5D"/>
            <stop offset="1" stop-color="#706F6F"/>
        </linearGradient>
        <linearGradient id="e" x1="83.092" x2="83.092" y1="35.326" y2="168.362" gradientUnits="userSpaceOnUse">
            <stop offset=".004" stop-color="#FFD2A8"/>
            <stop offset="1" stop-color="#ED9477"/>
        </linearGradient>
        <linearGradient id="f" x1="165.206" x2="110.485" y1="85.841" y2="85.841" gradientUnits="userSpaceOnUse">
            <stop offset=".004" stop-color="#E36B6B"/>
            <stop offset="1" stop-color="#D45353"/>
        </linearGradient>
        <clipPath id="a">
            <path fill="#fff" d="M0 0h305v305H0z" transform="matrix(-1 0 0 1 305 0)"/>
        </clipPath>
    </defs>
</svg>
