<svg xmlns="http://www.w3.org/2000/svg" width="88" height="30" fill="none" viewBox="0 0 88 30">
    <path fill="#2B93A1" d="M0 0h88v30H0z"/>
    <path fill="#fff" d="M5.036 15.813v-9.94h1.932v9.94H5.036zm5.938-6.37v6.37H9.042v-9.94h1.498l5.18 6.523v-6.51h1.932v9.927h-1.568l-5.11-6.37zm16.18-1.877h-3.178v8.247h-1.918V7.566H18.88V5.872h8.274v1.694zm8.136 6.552v1.694h-6.902v-9.94h6.776v1.694H30.32V9.96h4.186v1.568H30.32v2.59h4.97zm1.506 1.694v-9.94h4.396c.457 0 .877.099 1.26.295.392.186.728.438 1.008.756.28.308.5.662.658 1.064.158.392.238.788.238 1.19 0 .643-.164 1.232-.49 1.764-.318.522-.752.9-1.302 1.133l2.268 3.739h-2.17l-2.03-3.333h-1.904v3.332h-1.932zm1.932-5.025h2.422c.177 0 .34-.043.49-.127.158-.084.294-.196.406-.335.112-.15.2-.322.266-.518a1.98 1.98 0 0 0 .098-.63c0-.234-.038-.448-.112-.644a1.526 1.526 0 0 0-.308-.505 1.163 1.163 0 0 0-.434-.336 1.035 1.035 0 0 0-.49-.126h-2.338v3.22zm8.168-4.915l2.688 7.518 2.66-7.518h2.03l-3.878 9.94h-1.624l-3.906-9.94h2.03zm15.34 8.246v1.694h-6.901v-9.94h6.776v1.694h-4.844V9.96h4.186v1.568h-4.186v2.59h4.97zm3.439-4.675v6.37h-1.932v-9.94h1.498l5.18 6.523v-6.51h1.932v9.927h-1.568l-5.11-6.37zm16.18-1.877h-3.178v8.247h-1.918V7.566H73.58V5.872h8.274v1.694zM8.323 24.083c0 .18-.036.338-.108.474a.983.983 0 0 1-.3.342 1.35 1.35 0 0 1-.438.21c-.164.048-.34.072-.528.072H4.891v-4.26h2.28a.84.84 0 0 1 .402.096 1.052 1.052 0 0 1 .498.6c.048.128.072.258.072.39 0 .208-.052.404-.156.588a.954.954 0 0 1-.456.402c.244.072.436.202.576.39.144.184.216.416.216.696zm-.834-.156a.562.562 0 0 0-.042-.216.557.557 0 0 0-.102-.186.454.454 0 0 0-.156-.12.414.414 0 0 0-.198-.048H5.72v1.122h1.23a.518.518 0 0 0 .21-.042.526.526 0 0 0 .174-.114.6.6 0 0 0 .156-.396zm-1.77-2.298v1.074h1.104c.14 0 .258-.048.354-.144.1-.096.15-.228.15-.396a.54.54 0 0 0-.138-.39.43.43 0 0 0-.33-.144H5.72zm4.63 3.612c-.252 0-.48-.042-.684-.126a1.606 1.606 0 0 1-.522-.354 1.598 1.598 0 0 1-.336-.516 1.694 1.694 0 0 1-.114-.618c0-.224.038-.434.114-.63a1.56 1.56 0 0 1 .852-.882 1.77 1.77 0 0 1 .696-.132c.256 0 .484.044.684.132.204.088.376.206.516.354.144.148.252.32.324.516a1.678 1.678 0 0 1 .108.762.505.505 0 0 1-.012.12h-2.43a.933.933 0 0 0 .09.33.816.816 0 0 0 .744.456c.16 0 .31-.038.45-.114a.63.63 0 0 0 .294-.312l.69.192c-.116.24-.302.438-.558.594-.252.152-.554.228-.906.228zm.816-1.896a.819.819 0 0 0-.264-.564.781.781 0 0 0-.558-.216c-.108 0-.21.02-.306.06a.757.757 0 0 0-.246.156.869.869 0 0 0-.18.246.906.906 0 0 0-.078.318h1.632zm3.179 1.674c-.108.048-.24.096-.396.144-.156.048-.32.072-.492.072-.112 0-.218-.014-.318-.042a.752.752 0 0 1-.258-.132.714.714 0 0 1-.174-.24.89.89 0 0 1-.066-.36v-1.806h-.414v-.618h.414v-1.02h.804v1.02h.66v.618h-.66v1.536c0 .112.028.192.084.24.06.044.132.066.216.066a.74.74 0 0 0 .246-.042 3.69 3.69 0 0 0 .192-.072l.162.636zm2.303 0c-.108.048-.24.096-.396.144-.157.048-.32.072-.493.072-.111 0-.217-.014-.317-.042a.752.752 0 0 1-.259-.132.714.714 0 0 1-.174-.24.89.89 0 0 1-.065-.36v-1.806h-.415v-.618h.415v-1.02h.803v1.02h.66v.618h-.66v1.536c0 .112.028.192.085.24.06.044.132.066.216.066a.74.74 0 0 0 .245-.042 3.69 3.69 0 0 0 .192-.072l.162.636zm1.8.222c-.252 0-.48-.042-.684-.126a1.606 1.606 0 0 1-.522-.354 1.598 1.598 0 0 1-.336-.516 1.694 1.694 0 0 1-.114-.618c0-.224.038-.434.114-.63a1.56 1.56 0 0 1 .852-.882 1.77 1.77 0 0 1 .696-.132c.256 0 .484.044.684.132.204.088.376.206.516.354.144.148.252.32.324.516a1.678 1.678 0 0 1 .108.762.505.505 0 0 1-.012.12h-2.43a.933.933 0 0 0 .09.33.816.816 0 0 0 .744.456c.16 0 .31-.038.45-.114a.63.63 0 0 0 .294-.312l.69.192c-.116.24-.302.438-.558.594-.252.152-.554.228-.906.228zm.816-1.896a.819.819 0 0 0-.264-.564.781.781 0 0 0-.558-.216c-.108 0-.21.02-.306.06a.757.757 0 0 0-.246.156.869.869 0 0 0-.18.246.906.906 0 0 0-.078.318h1.632zm3.19-.612a1.555 1.555 0 0 0-.654.144.812.812 0 0 0-.414.402v1.902h-.804v-3.144h.738v.672c.056-.108.122-.204.198-.288a1.46 1.46 0 0 1 .246-.228c.088-.064.176-.112.264-.144a.724.724 0 0 1 .264-.054h.096c.024 0 .046.002.066.006v.732zm5.403-1.812v4.26h-.822v-1.818h-1.932v1.818h-.828v-4.26h.828v1.722h1.932V20.92h.822zm2.228 4.32c-.252 0-.48-.042-.684-.126a1.606 1.606 0 0 1-.522-.354 1.598 1.598 0 0 1-.336-.516 1.694 1.694 0 0 1-.114-.618c0-.224.038-.434.114-.63a1.56 1.56 0 0 1 .852-.882 1.77 1.77 0 0 1 .696-.132c.256 0 .484.044.684.132.204.088.376.206.516.354.144.148.252.32.324.516a1.678 1.678 0 0 1 .108.762.505.505 0 0 1-.012.12h-2.43a.933.933 0 0 0 .09.33.816.816 0 0 0 .744.456c.16 0 .31-.038.45-.114a.63.63 0 0 0 .294-.312l.69.192c-.116.24-.302.438-.558.594-.252.152-.554.228-.906.228zm.816-1.896a.819.819 0 0 0-.264-.564.781.781 0 0 0-.558-.216c-.108 0-.21.02-.306.06a.757.757 0 0 0-.246.156.869.869 0 0 0-.18.246.906.906 0 0 0-.078.318H30.9zm2.176 1.896a1.093 1.093 0 0 1-.768-.282 1.054 1.054 0 0 1-.228-.318.985.985 0 0 1 .018-.804.978.978 0 0 1 .276-.324c.12-.088.262-.156.426-.204a1.78 1.78 0 0 1 .54-.078c.14 0 .276.012.408.036.136.024.256.058.36.102v-.18c0-.208-.06-.368-.18-.48-.116-.112-.29-.168-.522-.168-.168 0-.332.03-.492.09-.16.06-.324.148-.492.264l-.246-.51c.404-.268.84-.402 1.308-.402.452 0 .802.112 1.05.336.252.22.378.54.378.96v.978c0 .084.014.144.042.18.032.036.082.056.15.06v.684a1.79 1.79 0 0 1-.354.042.549.549 0 0 1-.354-.102.444.444 0 0 1-.15-.27l-.018-.174c-.14.184-.31.324-.51.42-.2.096-.414.144-.642.144zm.228-.588c.136 0 .264-.024.384-.072a.7.7 0 0 0 .288-.192c.088-.068.132-.144.132-.228v-.36a1.777 1.777 0 0 0-.312-.084 1.546 1.546 0 0 0-.324-.036.846.846 0 0 0-.51.144.416.416 0 0 0-.198.354c0 .136.052.25.156.342a.574.574 0 0 0 .384.132zm2.353-3.852h.804v3.372c0 .116.028.206.084.27.056.064.136.096.24.096a.57.57 0 0 0 .156-.024c.06-.016.116-.036.168-.06l.108.612a1.555 1.555 0 0 1-.378.12 2.062 2.062 0 0 1-.39.042c-.252 0-.448-.066-.588-.198-.136-.136-.204-.328-.204-.576V20.8zm3.794 4.218c-.108.048-.24.096-.396.144-.156.048-.32.072-.492.072-.112 0-.218-.014-.318-.042a.752.752 0 0 1-.258-.132.714.714 0 0 1-.174-.24.89.89 0 0 1-.066-.36v-1.806h-.414v-.618h.414v-1.02h.804v1.02h.66v.618h-.66v1.536c0 .112.028.192.084.24.06.044.132.066.216.066a.74.74 0 0 0 .246-.042 3.69 3.69 0 0 0 .192-.072l.162.636zm3.34.162h-.803v-1.764c0-.248-.046-.43-.138-.546a.463.463 0 0 0-.39-.18.614.614 0 0 0-.228.048.848.848 0 0 0-.228.138 1.068 1.068 0 0 0-.198.204.818.818 0 0 0-.132.264v1.836h-.804V20.8h.804v1.818c.116-.204.272-.36.468-.468.2-.112.42-.168.66-.168.204 0 .37.036.498.108a.77.77 0 0 1 .3.276c.072.116.122.248.15.396.028.148.042.3.042.456v1.962zm2.333 0v-2.364h-.414v-.612h.414v-.192c0-.392.094-.702.282-.93.188-.228.444-.342.768-.342.256 0 .514.062.774.186l-.162.606a.905.905 0 0 0-.216-.078.776.776 0 0 0-.222-.036c-.28 0-.42.188-.42.564v.222h.768v.612h-.768v2.364h-.804zm3.323.06c-.256 0-.486-.044-.69-.132a1.606 1.606 0 0 1-.522-.354 1.636 1.636 0 0 1-.324-.522 1.694 1.694 0 0 1-.114-.618c0-.22.038-.428.114-.624.076-.196.184-.368.324-.516a1.56 1.56 0 0 1 .522-.36c.204-.088.434-.132.69-.132.256 0 .484.044.684.132.204.088.376.208.516.36.144.148.254.32.33.516.076.196.114.404.114.624 0 .216-.038.422-.114.618-.076.196-.184.37-.324.522-.14.148-.312.266-.516.354a1.726 1.726 0 0 1-.69.132zm-.822-1.626c0 .14.02.268.06.384a.848.848 0 0 0 .438.492c.1.044.208.066.324.066a.795.795 0 0 0 .324-.066.858.858 0 0 0 .432-.498c.044-.116.066-.244.066-.384a1.057 1.057 0 0 0-.24-.678.716.716 0 0 0-.258-.192.739.739 0 0 0-.324-.072.739.739 0 0 0-.324.072.848.848 0 0 0-.264.198c-.072.084-.13.184-.174.3-.04.116-.06.242-.06.378zm4.88-.882a1.555 1.555 0 0 0-.653.144.812.812 0 0 0-.414.402v1.902h-.804v-3.144h.738v.672c.056-.108.122-.204.198-.288a1.46 1.46 0 0 1 .246-.228c.088-.064.176-.112.264-.144a.724.724 0 0 1 .264-.054h.096c.024 0 .046.002.066.006v.732zm1.822 2.448v-4.26h.828v3.534h2.172v.726h-3zm3.426 0v-3.144h.804v3.144h-.804zm0-3.582V20.8h.804v.798h-.804zm1.721 3.582v-2.364h-.414v-.612h.414v-.192c0-.392.094-.702.282-.93.188-.228.444-.342.768-.342.256 0 .514.062.774.186l-.162.606a.905.905 0 0 0-.216-.078.776.776 0 0 0-.222-.036c-.28 0-.42.188-.42.564v.222h.768v.612h-.768v2.364h-.804zm3.329.06c-.252 0-.48-.042-.684-.126a1.606 1.606 0 0 1-.523-.354 1.598 1.598 0 0 1-.335-.516 1.694 1.694 0 0 1-.114-.618c0-.224.038-.434.114-.63a1.56 1.56 0 0 1 .852-.882 1.77 1.77 0 0 1 .696-.132c.256 0 .483.044.684.132.203.088.375.206.515.354.145.148.252.32.325.516a1.678 1.678 0 0 1 .108.762.505.505 0 0 1-.013.12h-2.43a.933.933 0 0 0 .09.33.816.816 0 0 0 .745.456c.16 0 .31-.038.45-.114a.63.63 0 0 0 .294-.312l.69.192c-.117.24-.302.438-.558.594-.253.152-.555.228-.907.228zm.816-1.896a.819.819 0 0 0-.264-.564.781.781 0 0 0-.558-.216c-.108 0-.21.02-.306.06a.757.757 0 0 0-.246.156.869.869 0 0 0-.18.246.906.906 0 0 0-.078.318h1.631zm2.915-1.914h-.57v1.284h-.522V21.43h-.57v-.522h1.662v.522zm1.74-.51h.774v1.794h-.522v-1.122l-.384.87h-.426l-.384-.87v1.122h-.522V20.92h.768l.348.942.348-.942z"/>
</svg>
