<?xml version="1.0" encoding="utf-8"?>
<!-- Generator: Adobe Illustrator 23.0.3, SVG Export Plug-In . SVG Version: 6.00 Build 0)  -->
<svg version="1.1" id="Layer_1" xmlns="http://www.w3.org/2000/svg" xmlns:xlink="http://www.w3.org/1999/xlink" x="0px" y="0px"
	 viewBox="0 0 766.54 231.84" style="enable-background:new 0 0 766.54 231.84;" xml:space="preserve">
<style type="text/css">
	.st0{fill:#96A93B;}
	.st1{fill:#7E7F83;}
	.st2{fill:#FEFEFE;}
</style>
<g>
	<path class="st0" d="M245.04,0.8c0,77,0,154,0,231.01c-81.1,0-162.2,0-243.3,0.03c-1.42,0-1.73-0.3-1.73-1.64
		C0.04,154.27,0.04,78.33,0,2.4c0-1.33,0.32-1.64,1.73-1.64C82.83,0.8,163.94,0.8,245.04,0.8z"/>
	<path class="st1" d="M326.15,115.98c0,10.56-0.04,21.11,0.04,31.67c0.01,1.65-0.47,2.02-2.03,1.96c-3.49-0.12-7-0.1-10.49,0
		c-1.39,0.04-1.7-0.41-1.69-1.74c0.06-8.51-0.01-17.01,0.07-25.52c0.01-1.47-0.45-1.79-1.83-1.78c-7.72,0.06-15.44,0.09-23.16-0.01
		c-1.69-0.02-1.96,0.55-1.94,2.06c0.07,8.38,0,16.77,0.06,25.15c0.01,1.35-0.24,1.89-1.75,1.84c-3.62-0.12-7.24-0.07-10.86-0.02
		c-1.11,0.01-1.59-0.21-1.59-1.48c0.04-21.41,0.04-42.83,0-64.24c0-1.26,0.46-1.51,1.58-1.49c3.68,0.05,7.36,0.08,11.04-0.01
		c1.32-0.03,1.58,0.41,1.57,1.64c-0.05,7.66,0.02,15.32-0.06,22.98c-0.02,1.55,0.48,1.89,1.94,1.88c7.66-0.07,15.32-0.07,22.98,0
		c1.54,0.02,2.05-0.3,2.03-1.96c-0.1-7.6-0.01-15.2-0.07-22.8c-0.01-1.32,0.28-1.79,1.69-1.75c3.5,0.1,7,0.15,10.49-0.01
		c1.78-0.08,2.03,0.6,2.02,2.15C326.13,94.98,326.15,105.48,326.15,115.98z"/>
	<path class="st1" d="M510.99,113.77c0-11.28,0.03-22.57-0.03-33.85c-0.01-1.49,0.35-1.96,1.88-1.91c3.44,0.12,6.88,0.12,10.32,0
		c1.57-0.06,1.88,0.49,1.86,1.94c-0.09,7.66,0.12,15.32-0.5,22.97c-0.05,0.56-0.43,1.35,0.21,1.65c0.75,0.35,0.95-0.59,1.26-1
		c4.35-5.7,10.41-6.91,16.99-6.19c10.09,1.11,15.45,7.26,15.54,17.68c0.09,10.98,0,21.96,0.05,32.95c0.01,1.29-0.36,1.63-1.62,1.6
		c-3.5-0.08-7-0.1-10.5,0.01c-1.48,0.05-1.92-0.33-1.91-1.87c0.08-9.17,0.05-18.34,0.03-27.52c0-1.38-0.05-2.78-0.27-4.14
		c-1.17-7.35-8.25-10.29-14.44-6.04c-2.72,1.87-3.64,4.71-4.24,7.7c-0.48,2.42-0.66,4.89-0.65,7.37c0.03,7.48-0.03,14.97,0.04,22.45
		c0.02,1.52-0.27,2.12-1.95,2.05c-3.43-0.14-6.88-0.12-10.32-0.01c-1.45,0.05-1.8-0.4-1.79-1.81
		C511.01,136.46,510.99,125.11,510.99,113.77z"/>
	<path class="st1" d="M435.15,130.91c0,5.55-0.08,11.1,0.05,16.65c0.04,1.74-0.54,2.14-2.13,2.04c-1.92-0.13-3.87-0.16-5.79,0.01
		c-1.58,0.14-2.27-0.53-2.71-1.91c-0.38-1.2-0.98-2.34-1.38-3.53c-0.42-1.24-0.84-1.41-1.77-0.34c-2.75,3.16-6,5.59-10.26,6.31
		c-5.26,0.88-10.5,1.14-15.27-1.79c-5.4-3.32-6.88-8.64-6.67-14.52c0.29-8.05,4.58-12.54,13.28-14.51c5.58-1.27,11.25-1.2,16.9-1.39
		c1.41-0.05,1.83-0.4,1.83-1.83c-0.01-6.68-3.52-9.37-10.99-8.32c-3.49,0.49-6.83,1.47-10.04,2.9c-1.17,0.52-1.76,0.48-2.31-0.8
		c-1-2.32-2.19-4.56-3.31-6.82c-0.3-0.61-0.67-1.15,0.29-1.59c10.1-4.57,20.46-6.09,31.02-1.91c6.33,2.51,8.9,7.87,9.12,14.37
		c0.19,5.66,0.04,11.34,0.04,17.01C435.09,130.91,435.12,130.91,435.15,130.91z M416.81,126.17c-2.76,0.15-6.28,0.18-9.48,1.84
		c-2.92,1.52-4.25,4.52-3.68,8.13c0.37,2.35,2,3.99,4.67,4.34c7.36,0.96,12.87-2.76,12.94-10.52
		C421.29,126.13,421.32,126.13,416.81,126.17z"/>
	<path class="st1" d="M658.56,130.84c0,5.73-0.03,11.46,0.02,17.19c0.01,1.14-0.25,1.61-1.49,1.56c-2.35-0.09-4.71-0.07-7.06-0.01
		c-0.93,0.02-1.44-0.28-1.76-1.15c-0.56-1.53-1.24-3.01-1.8-4.54c-0.38-1.03-0.8-1.05-1.48-0.27c-0.63,0.72-1.35,1.38-2.01,2.09
		c-5.73,6.13-18.48,6.11-23.81,2.59c-5.22-3.45-6.75-8.62-6.57-14.43c0.26-8.05,4.55-12.58,13.22-14.57
		c5.63-1.29,11.37-1.22,17.08-1.41c1.36-0.04,1.72-0.42,1.72-1.76c0.02-6.72-3.44-9.42-10.91-8.41c-3.61,0.49-7.06,1.55-10.38,3.01
		c-0.97,0.43-1.46,0.33-1.92-0.68c-1.1-2.41-2.31-4.77-3.47-7.15c-0.27-0.56-0.59-1.06,0.27-1.45c10.15-4.63,20.56-6.16,31.18-1.9
		c6.25,2.5,8.79,7.83,9.02,14.25c0.2,5.66,0.04,11.34,0.04,17.01C658.5,130.84,658.53,130.84,658.56,130.84z M644.67,129.34
		c0-0.59-0.04-0.96,0.01-1.31c0.22-1.49-0.35-2.08-1.88-1.92c-1.37,0.15-2.77,0.05-4.15,0.14c-2.76,0.19-5.52,0.45-8.02,1.82
		c-2.79,1.53-4.02,4.23-3.59,7.84c0.28,2.38,1.67,3.95,4.3,4.46c2.96,0.57,5.9,0.37,8.57-1.21
		C643.73,136.89,644.77,133.26,644.67,129.34z"/>
	<path class="st1" d="M380.74,136.57c0,3.2-0.04,6.38,0.02,9.56c0.02,1.09-0.71,1.27-1.41,1.58c-4.18,1.88-8.62,2.69-13.16,2.91
		c-5.39,0.26-10.74,0.03-15.8-2.14c-6.76-2.88-11.12-7.88-12.98-14.99c-1.82-6.93-1.66-13.87,0.51-20.68
		c3.03-9.54,10.96-15.34,20.99-15.58c3.45-0.08,6.88,0.09,10.19,1.16c8.17,2.64,12.6,8.47,14.12,16.72
		c0.69,3.76,0.34,7.58,0.43,11.37c0.03,1.37-0.94,0.99-1.62,0.99c-9.71,0.02-19.42,0.01-29.13,0.01c-0.42,0-0.85,0.04-1.27-0.01
		c-0.95-0.1-1.24,0.27-1.21,1.24c0.26,6.57,5.21,11.36,11.79,11.54c5.95,0.17,11.62-0.91,17.07-3.28c0.33-0.14,0.67-0.28,1.01-0.4
		C380.39,136.53,380.52,136.57,380.74,136.57z M360.64,118.23c2.89,0,5.79,0.01,8.68-0.01c0.53,0,1.35,0.25,1.26-0.77
		c-0.25-3.14-0.94-6.16-3.59-8.18c-3.32-2.54-7.09-2.71-10.77-1.1c-3.79,1.66-4.93,5.19-5.44,8.98c-0.15,1.13,0.59,1.09,1.35,1.09
		C354.98,118.23,357.81,118.23,360.64,118.23z"/>
	<path class="st1" d="M751.53,136.55c0,3.18-0.01,6.25,0,9.33c0,0.69-0.01,1.26-0.83,1.58c-10.65,4.15-21.36,5-31.87-0.17
		c-5.62-2.77-9.03-7.64-10.62-13.72c-1.82-7-1.68-13.98,0.53-20.85c3.07-9.52,11.05-15.29,21.07-15.48
		c3.02-0.06,6.02,0.08,8.97,0.84c8.35,2.16,14,8.61,15.28,17.33c0.54,3.66,0.26,7.34,0.38,11.01c0.04,1.32-0.82,1.07-1.56,1.07
		c-9.89,0.01-19.78,0-29.67,0c-2.18,0-2.18,0-1.83,2.23c1.08,6.81,5.39,10.42,12.27,10.54c5.71,0.1,11.13-1.02,16.35-3.25
		c0.33-0.14,0.66-0.29,1-0.41C751.11,136.55,751.24,136.57,751.53,136.55z M731.52,118.23c2.89,0,5.79,0,8.68,0
		c0.59,0,1.28,0.13,1.19-0.86c-0.32-3.26-1.05-6.36-3.95-8.36c-3.31-2.28-6.94-2.41-10.49-0.8c-3.7,1.67-4.82,5.14-5.36,8.85
		c-0.15,1.03,0.38,1.2,1.25,1.19C725.73,118.21,728.62,118.23,731.52,118.23z"/>
	<path class="st1" d="M474.21,123.22c0-4.34-0.03-8.69,0.02-13.03c0.01-1.14-0.27-1.65-1.5-1.55c-1.32,0.1-2.66-0.04-3.98,0.04
		c-1.15,0.08-1.4-0.38-1.41-1.46c-0.06-4.24-0.18-4.4,3.57-6.37c3.13-1.64,5.21-3.82,6.03-7.31c0.41-1.75,1.26-3.38,1.86-5.09
		c0.27-0.78,0.65-1.16,1.55-1.13c2.17,0.07,4.35,0.06,6.52,0c0.99-0.03,1.22,0.38,1.2,1.28c-0.04,2.71,0.05,5.43-0.04,8.15
		c-0.04,1.3,0.42,1.62,1.65,1.6c3.62-0.07,7.24,0.05,10.86-0.06c1.53-0.05,2.17,0.27,2.04,1.95c-0.16,2.16-0.13,4.35-0.01,6.51
		c0.08,1.47-0.3,1.99-1.87,1.94c-3.74-0.12-7.48,0-11.22-0.06c-1.09-0.02-1.45,0.31-1.45,1.43c0.04,7.72-0.04,15.45,0.05,23.17
		c0.05,4.48,2.04,6.25,6.55,6.28c2.5,0.02,4.92-0.48,7.29-1.18c1.04-0.3,1.25-0.01,1.24,0.97c-0.04,2.65-0.04,5.31,0,7.97
		c0.01,0.79-0.25,1.19-0.99,1.45c-6.06,2.12-12.26,2.78-18.48,1.05c-6.09-1.69-9.33-6.84-9.45-14.43
		C474.16,131.31,474.21,127.27,474.21,123.22z"/>
	<path class="st1" d="M606.6,135.32c0,3.59-0.03,6.96,0.02,10.34c0.02,1.01-0.45,1.51-1.25,1.96c-3.11,1.76-6.45,2.64-9.99,2.89
		c-4.72,0.33-9.38,0.26-13.97-1.18c-6.86-2.16-11.02-6.84-12.98-13.63c-2.02-6.99-2.11-14.05-0.4-21.1
		c2.32-9.55,8.47-15.23,18.11-16.89c7.09-1.22,14.06-0.44,20.75,2.36c0.93,0.39,1.31,0.68,0.83,1.8c-1.17,2.71-2.19,5.48-3.18,8.26
		c-0.35,0.99-0.73,1.11-1.7,0.74c-3.61-1.37-7.22-2.66-11.21-2.52c-4.28,0.15-7.32,2.11-8.83,6c-2.36,6.12-2.37,12.42-0.32,18.61
		c1.47,4.43,4.77,6.53,9.37,6.54C597.51,139.52,599.25,139.03,606.6,135.32z"/>
	<path class="st1" d="M460.52,113.75c0,11.35-0.02,22.69,0.03,34.04c0.01,1.41-0.35,1.87-1.8,1.82c-3.38-0.11-6.76-0.12-10.14,0
		c-1.56,0.05-2.04-0.34-2.03-1.98c0.06-16.78,0.04-33.55,0.04-50.33c0-5.85,0.04-11.71-0.03-17.56c-0.02-1.36,0.36-1.77,1.72-1.73
		c3.44,0.09,6.88,0.11,10.32,0c1.49-0.05,1.93,0.37,1.92,1.89C460.49,91.18,460.52,102.46,460.52,113.75z"/>
	<path class="st1" d="M670.04,123.96c0-7.9,0.05-15.8-0.04-23.7c-0.02-1.65,0.48-2.06,2.04-1.97c2.41,0.13,4.82,0.08,7.24,0.01
		c0.96-0.03,1.38,0.28,1.57,1.23c0.38,1.89,0.84,3.76,1.34,5.62c0.16,0.59,0,1.53,0.83,1.63c0.69,0.09,0.82-0.76,1.15-1.24
		c4.43-6.23,10.29-9.24,18.05-8.11c0.94,0.14,1.22,0.41,1.12,1.35c-0.34,3.35-0.68,6.71-0.85,10.08c-0.07,1.44-0.41,1.76-1.88,1.54
		c-3.52-0.53-7.01-0.14-10.22,1.48c-4.44,2.23-6.38,6.1-6.43,10.91c-0.08,8.32-0.05,16.65,0.01,24.97c0.01,1.36-0.27,1.9-1.77,1.85
		c-3.49-0.11-7-0.1-10.49,0c-1.41,0.04-1.7-0.45-1.69-1.76C670.07,139.89,670.04,131.92,670.04,123.96z"/>
	<path class="st2" d="M121.75,128.93c2.78-13.21,6.45-25.75,10.31-38.23c0.73-2.36,1.5-4.71,2.12-7.09c0.28-1.07,0.82-1.26,1.8-1.26
		c5.37,0.04,10.74,0.05,16.11-0.01c1.22-0.01,1.66,0.3,1.72,1.57c0.7,15.11,1.45,30.22,2.21,45.33c0.31,6.26,0.65,12.52,1.05,18.77
		c0.09,1.35-0.3,1.75-1.67,1.72c-3.68-0.1-7.36-0.07-11.04-0.01c-1.08,0.02-1.44-0.27-1.48-1.39c-0.55-14.88-1.41-29.75-1.44-44.64
		c0-1.86,0-3.72,0-5.81c-0.91,0.4-0.85,1-0.96,1.43c-4.06,16.19-9.33,32.02-13.88,48.06c-0.29,1.01-0.77,1.29-1.78,1.27
		c-2.89-0.07-5.79-0.09-8.69,0.01c-1.19,0.04-1.53-0.5-1.78-1.48c-4.25-16.56-9.05-32.98-12.05-49.85c-0.01-0.05-0.07-0.08-0.27-0.3
		c-0.19,5.05-0.34,9.93-0.55,14.81c-0.53,12.1-1.11,24.2-1.63,36.31c-0.05,1.07-0.25,1.62-1.52,1.58
		c-3.56-0.09-7.12-0.06-10.68-0.01c-1.09,0.02-1.4-0.23-1.32-1.43c1.07-17.09,2.06-34.17,3.08-51.26c0.26-4.39,0.57-8.78,0.8-13.18
		c0.06-1.15,0.46-1.53,1.64-1.51c5.43,0.06,10.86,0.08,16.29-0.01c1.33-0.02,1.75,0.5,2.06,1.65c3.96,14.64,8.47,29.15,11.08,44.13
		C121.29,128.26,121.43,128.39,121.75,128.93z"/>
	<path class="st2" d="M213.87,135.93c0.65,3.74,1.24,7.24,1.86,10.73c0.15,0.86,0.11,1.53-0.89,1.82
		c-12.78,3.71-25.24,3.97-36.68-4.01c-5.54-3.87-8.89-9.44-10.65-15.91c-2.33-8.53-2.29-17.07,0.69-25.43
		c4.62-12.97,14.28-19.71,27.62-21.52c6.47-0.88,12.85-0.24,19.09,1.78c1.62,0.52,1.96,1.26,1.48,2.85
		c-0.84,2.76-1.53,5.57-2.15,8.39c-0.32,1.46-0.86,1.59-2.19,1.07c-4.64-1.8-9.47-2.31-14.39-1.53c-7.54,1.21-12.62,5.49-15.01,12.7
		c-2.05,6.18-2.04,12.47,0.09,18.65c2.64,7.68,9.35,12.4,17.48,12.53c2.29,0.04,4.58-0.01,6.85-0.36
		C209.35,137.36,211.57,136.82,213.87,135.93z"/>
	<path class="st2" d="M35.45,115.97c0-10.56,0.04-21.11-0.04-31.66c-0.01-1.65,0.47-2.02,2.03-1.97c3.55,0.12,7.12,0.13,10.67,0
		c1.64-0.06,2,0.46,1.99,2.03c-0.05,16.71-0.03,33.41-0.03,50.12c0,2.46,0,2.46,2.39,2.46c7.12,0,14.23,0.03,21.35-0.03
		c1.32-0.01,1.79,0.29,1.74,1.69c-0.11,3.25-0.07,6.51-0.01,9.77c0.02,1.01-0.29,1.35-1.33,1.35c-12.49-0.03-24.97-0.04-37.46,0.01
		c-1.46,0.01-1.3-0.81-1.3-1.74C35.45,137.32,35.45,126.64,35.45,115.97z"/>
</g>
</svg>
