<svg width="218" height="308" viewBox="0 0 218 308" fill="none" xmlns="http://www.w3.org/2000/svg">
<path opacity="0.7" d="M193.503 267.96C182.921 265.647 171.207 265.176 159.743 264.734C113.605 262.956 63.677 261.648 24.9306 274.723C11.8409 279.142 -0.312448 287.061 5.0299 294.649C10.0676 301.827 27.1817 304.104 41.801 305.102C66.9318 306.816 92.2518 307.778 117.594 307.985C141.263 308.187 168.491 306.341 191.258 302.803C197.851 301.783 204.537 300.493 209.498 298.025C216.049 294.766 218.695 289.726 217.492 285.075C215.668 278.018 206.195 270.737 193.503 267.96Z" fill="#D0E3E5"/>
<path d="M56.6935 75.3984C59.6106 80.4435 83.3175 90.931 83.3175 90.931L67.5782 103.933L51.9695 90.3813L56.6935 75.3984Z" fill="#FFAF83"/>
<path d="M55.2903 81.5322C56.6563 87.2141 70.0228 83.8561 71.8568 86.795C75.1168 92.0088 60.5095 94.1585 63.6225 98.3655C66.3437 102.039 67.1492 102.894 66.8226 105.435C66.4526 108.325 63.5463 107.558 64.2865 105.114C65.7723 100.205 54.6208 95.481 54.6208 95.481L55.2848 81.5322H55.2903Z" fill="#F99A6B"/>
<path d="M119.244 148.887C120.316 143.57 99.0741 129.806 98.2034 137.077C96.3856 152.256 56.0522 260.521 52.0629 273.969C50.3268 279.825 29.0526 279.836 29.0635 283.091C29.0689 285.708 39.2189 284.239 52.3351 285.268C60.8741 285.937 60.0795 282.307 60.7435 279.646C61.0483 278.41 92.0589 233.462 90.7636 213.586C104.642 184.595 117.219 158.945 119.244 148.893V148.887Z" fill="#FFAF83"/>
<path d="M120.566 150.857C119.026 145.66 138.177 132.756 140.414 139.727C144.327 151.967 158.167 177.699 163.893 204.361C175.321 227.507 183.229 269.169 184.242 271.727C186.489 277.403 194.702 285.131 191.322 286.209C187.921 287.292 176.992 289.512 176.541 283.542C176.089 277.566 177.547 277.398 176.655 274.802C176.236 273.588 152.289 241.048 145.791 208.916C133.263 181.53 123.461 160.615 120.571 150.852L120.566 150.857Z" fill="#FFAF83"/>
<path d="M119.244 148.887C120.316 143.57 99.0744 129.806 98.2037 137.077C97.1914 145.524 85.4903 179.637 74.6164 210.56C74.426 211.099 88.5707 210.032 87.3407 215.295C81.5446 240.096 60.2159 275.09 58.4852 280.93C56.7491 286.786 32.3455 282.927 29.0583 283.096C29.0638 285.714 39.2138 284.244 52.3299 285.273C60.869 285.942 60.0744 282.312 60.7384 279.651C61.0432 278.416 94.2144 234.267 92.9246 214.392C106.803 185.4 117.214 158.95 119.244 148.898V148.887Z" fill="#F99A6B"/>
<path d="M120.566 150.857C119.026 145.66 138.177 132.756 140.414 139.727C144.191 151.526 156.061 176.561 162.037 202.238C162.26 203.191 147.859 204.562 148.371 210.402C159.8 233.548 177.863 271.427 178.875 273.985C180.965 279.264 173.999 286.426 187.801 286.356C188.225 286.356 188.285 286.971 187.866 287.052C183.322 287.891 176.883 288.097 176.541 283.542C176.089 277.566 177.547 277.398 176.655 274.802C176.236 273.588 152.289 241.048 145.791 208.916C133.263 181.53 123.461 160.615 120.571 150.852L120.566 150.857Z" fill="#F99A6B"/>
<path d="M105.534 205.551C107.238 200.054 122.694 167.527 122.694 167.527C122.694 167.527 130.759 142.629 131.042 141.208C132.115 135.891 98.4589 131.918 96.4072 138.944C89.86 161.329 52.458 268.212 50.7219 274.068C50.7219 277.082 65.0779 277.983 65.0779 277.983L85.9592 242.093L105.534 205.551Z" fill="#494949"/>
<path d="M174.702 274.068L185.143 270.805C185.143 260.364 152.537 160.201 147.731 148.5C141.81 134.105 118.935 125.348 120.476 130.551C120.889 131.945 119.088 163.908 119.088 163.908C119.088 163.908 169.481 272.11 174.702 274.068Z" fill="#494949"/>
<path d="M105.534 205.551C107.238 200.054 122.693 167.527 122.693 167.527C122.693 167.527 130.759 142.629 131.042 141.208C132.114 135.891 98.4586 131.918 96.4068 138.944C93.7238 148.109 88.8918 160.516 85.3053 172.271C84.7121 174.214 125.202 159.739 104.032 199.964C96.8967 213.515 51.4357 271.662 50.5269 274.721C57.8985 278.636 65.0765 277.983 65.0765 277.983L105.534 205.551Z" fill="#353535"/>
<path d="M174.702 274.068C176.659 274.068 180.575 273.415 180.575 273.415L185.795 272.11C185.143 268.847 138.887 200.687 135.437 193.971C133.858 190.896 126.43 168.632 125.455 165.655C123.845 160.735 148.836 151.189 147.731 148.506C141.81 134.111 118.935 125.354 120.476 130.557C120.889 131.95 119.088 163.913 119.088 163.913C119.088 163.913 137.717 204.622 138.795 207.463C138.795 207.463 168.829 268.195 174.702 274.068Z" fill="#353535"/>
<path d="M71.4411 86.7404C62.9783 102.001 38.6563 86.5989 44.6157 73.0747C50.5751 59.5504 80.002 71.3113 71.4411 86.7404Z" fill="#FFAF83"/>
<path d="M51.3732 79.61C49.4156 74.3897 51.7792 72.1661 50.7212 64.6016C45.5009 69.1694 39.5502 64.6903 31.1454 75.6948C28.4571 84.9191 46.6008 84.2319 51.3732 79.61Z" fill="#494949"/>
<path d="M40.5021 68.5679C30.2813 71.2782 27.8804 78.9576 33.7543 86.7881C31.7968 95.2711 48.1104 99.8389 58.8483 96.3512C58.4347 94.0708 49.3895 81.8146 51.9474 79.6377C48.1813 75.0987 40.5021 68.5679 40.5021 68.5679Z" fill="#494949"/>
<path d="M58.0433 90.4522C56.2528 94.7571 49.0525 91.2958 50.4349 87.5786C51.8173 83.8615 59.4257 87.1324 58.0433 90.4522Z" fill="#FFAF83"/>
<path d="M81.1177 80.7973C89.2214 69.2105 135.182 118.763 147.237 145.387C138.524 145.817 88.2364 163.429 88.2364 163.429C88.2364 163.429 94.506 150.857 88.3125 145.023C82.1681 139.232 67.8492 131.852 66.1621 130.16C59.5823 123.563 61.8354 108.504 61.8354 108.504L76.0073 88.7812C76.0073 88.7812 78.0156 85.2491 81.1232 80.7973H81.1177Z" fill="#F37558"/>
<path d="M80.6904 132.592C83.3354 134.835 88.5655 134.416 102.231 144.168C108.027 148.304 130.281 136.778 147.24 145.387C138.526 145.817 88.239 163.429 88.239 163.429C88.239 163.429 94.5086 150.857 88.3152 145.023C82.1707 139.232 67.8518 131.852 66.1647 130.16C59.5849 123.563 72.184 125.365 80.6958 132.598L80.6904 132.592Z" fill="#E86F53"/>
<path d="M68.2261 103.154C55.5291 116.782 44.2144 140.952 40.3884 148.228C32.1976 155.385 19.3536 175.239 9.50293 189.095C4.05512 196.758 -0.598106 201.732 0.855007 203.441C2.75984 205.678 8.30561 200.839 10.9452 198.886C12.9153 197.427 12.518 195.735 14.978 193.519C27.8492 181.922 43.6919 167.603 51.0445 157.496C54.0868 153.164 76.3352 130.426 79.0564 118.524C80.1068 113.93 78.1911 92.4492 68.2207 103.149L68.2261 103.154Z" fill="#FFAF83"/>
<path d="M68.2275 103.154C61.2721 110.616 54.7358 121.239 49.6146 130.524C49.3261 131.046 61.3211 141.594 59.7918 143.907C55.3889 150.574 52.4881 148.701 50.8772 151.771C42.6864 158.928 22.6966 179.647 12.8459 193.509C7.3981 201.171 3.95308 202.02 0.861816 203.446C2.76665 205.683 8.31242 200.845 10.952 198.891C12.9221 197.432 12.5248 195.74 14.9848 193.525C27.856 181.927 43.6987 167.608 51.0514 157.502C54.0936 153.17 76.342 130.431 79.0632 118.529C80.1136 113.936 78.1979 92.4546 68.2275 103.154Z" fill="#F99A6B"/>
<path d="M79.49 98.0007C95.0334 107.781 66.178 143.08 66.178 143.08L48.8223 130.666C48.8223 130.666 67.5821 90.512 79.49 98.0007Z" fill="#F37558"/>
<path d="M66.1729 143.08L48.8171 130.666C48.8171 130.666 58.695 137.365 70.2546 130.835C74.3854 128.5 78.9461 125.833 75.1473 131.254C71.9091 135.869 66.1674 143.08 66.1674 143.08H66.1729Z" fill="#E86F53"/>
<path d="M79.0883 87.584C87.3063 70.865 105.87 51.6915 111.307 45.5308C115.079 35.3318 121.631 29.2853 131.074 15.146C136.293 7.33078 139.542 -0.702158 141.659 0.0488895C144.429 1.02852 141.621 9.84515 140.734 13.0126C140.07 15.3746 138.35 15.6032 137.158 18.689C130.905 34.842 130.595 41.7266 123.765 52.1922C120.799 56.5788 107.465 85.4614 97.3148 92.2372C93.3963 94.855 72.6391 100.706 79.0883 87.584Z" fill="#FFAF83"/>
<path d="M79.0904 87.5844C83.5912 78.4303 91.1942 68.5361 98.0407 60.4487C98.4271 59.997 112.555 67.4476 114.172 65.1999C118.836 58.7126 116.055 56.6663 118.346 54.0703C122.118 43.8713 126.934 30.8314 136.377 16.6975C141.601 8.88228 141.422 3.4508 141.656 0.0493164C144.426 1.02894 141.618 9.84558 140.731 13.013C140.067 15.375 138.347 15.6036 137.155 18.6894C130.902 34.8424 130.591 41.727 123.761 52.1927C120.795 56.5792 107.461 85.4619 97.3114 92.2376C93.3929 94.8554 72.6357 100.706 79.0849 87.5844H79.0904Z" fill="#F99A6B"/>
<path d="M78.2794 99.949C92.9466 110.997 115.668 71.4636 115.668 71.4636L97.8883 59.6646C97.8883 59.6646 67.0409 91.4861 78.2794 99.949Z" fill="#F37558"/>
<path d="M61.667 108.717C62.7772 109.218 72.9871 119.417 85.3957 107.868C92.9552 100.831 78.6472 84.4712 78.6472 84.4712L61.667 108.717Z" fill="#FFAF83"/>
<path d="M121.033 107.987C102.578 84.8736 115.661 71.4636 115.661 71.4636L97.8811 59.6646C97.8811 59.6646 112.102 68.0186 105.669 79.6381C93.3258 101.952 123.482 111.062 121.028 107.987H121.033Z" fill="#F37558"/>
<path d="M61.667 108.717C63.2344 110.088 72.9871 119.416 85.3957 107.868C83.3167 108.738 77.0145 111.204 74.2062 111.019C68.2033 110.621 68.2686 104.934 66.2658 102.153C64.8072 100.123 64.8018 101.745 63.5283 101.462C64.3229 103.671 61.667 108.722 61.667 108.722V108.717Z" fill="#F99A6B"/>
</svg>
