<svg xmlns="http://www.w3.org/2000/svg" width="19" height="33" fill="none" viewBox="0 0 19 33">
    <path fill="#6C6C6C" d="M17.977 31.186l.164-.053-6.094 1.699-.402.106c-.463.157-.966.015-1.168-.431a.882.882 0 0 1 .445-1.17l.128-.053 2.843-1.376-.008-.004a35.262 35.262 0 0 1-2.993-1.655c-1.56-.972-3.313-2.234-4.965-3.852-1.647-1.612-3.188-3.604-4.194-5.87-.127-.285-.24-.584-.36-.873-.116-.291-.193-.563-.291-.845l-.077-.228-.057-.22-.113-.437-.225-.868c-.083-.285-.13-.58-.182-.87l-.155-.866a7.63 7.63 0 0 1-.116-.86l-.087-.851c-.18-2.256.001-4.372.4-6.12a18.597 18.597 0 0 1 1.4-4.073C2.325.482 2.67 0 2.67 0s-.31.508-.689 1.467A18.312 18.312 0 0 0 .91 5.57C.65 7.302.631 9.362.97 11.505c.048.267.093.537.142.808.046.271.09.545.167.814.07.27.129.545.2.817.07.273.87 2.39.87 2.39.117.267.22.557.344.805.127.247.218.501.35.746 1.072 1.991 2.596 3.697 4.218 5.06 1.625 1.367 3.326 2.413 4.837 3.201 1.006.521 1.92.931 2.698 1.248L13.5 24.608l-.059-.126a.876.876 0 0 1 .416-1.174c.445-.207 1-.047 1.157.415l-.006-.017.032-.01 3.46 5.226c.42.4.552 1.05.272 1.593-.155.299-.412.515-.703.63-.031.014-.06.03-.092.041z"/>
</svg>
