<svg xmlns="http://www.w3.org/2000/svg" width="81" height="58" fill="none" viewBox="0 0 81 58">
    <path fill="#3F3D56" d="M36.204 23.429l-11.43-11.54H19.38v-.182h5.471l.027.027L36.333 23.3l-.13.128z"/>
    <path fill="#422B1C" d="M57.408 22.717a3.299 3.299 0 0 0 3.296-3.302 3.299 3.299 0 0 0-3.296-3.302 3.3 3.3 0 0 0-3.296 3.302 3.3 3.3 0 0 0 3.296 3.302z"/>
    <path fill="#422B1C" d="M51.249 19.41c5.347 0 9.682-4.343 9.682-9.7 0-5.357-4.335-9.7-9.682-9.7s-9.682 4.343-9.682 9.7c0 5.357 4.335 9.7 9.682 9.7z"/>
    <path fill="#2F2E41" d="M43.65 3.69a9.668 9.668 0 0 1 13.418-1.017c-.08-.075-.158-.15-.24-.224a9.67 9.67 0 0 0-13.667.806 9.71 9.71 0 0 0 .802 13.692c.082.074.167.143.25.213A9.709 9.709 0 0 1 43.65 3.69z"/>
    <path fill="#FFB8B8" d="M51.166 19.327c3.444 0 6.236-2.797 6.236-6.247 0-3.45-2.792-6.247-6.236-6.247-3.443 0-6.235 2.797-6.235 6.247 0 3.45 2.792 6.247 6.236 6.247z"/>
    <path fill="#FFB8B8" d="M46.736 15.051s.82 7.563-.492 8.385c-1.313.822 7.548 1.973 7.548 1.973s-1.313-8.22 1.97-10.358h-9.026z"/>
    <path fill="#FF8E55" d="M54.613 22.12s2.444-1.142-1.075-.735c-3.52.407-6.556-1.155-6.556-1.155s-1.066-1.068-1.23.082c-.164 1.151.492 3.288-3.118 3.617-3.61.33-6.892-.657-8.205 1.809-1.313 2.466-.656 13.152-.656 13.152s2.461 8.877 4.43 10.192c1.97 1.316 19.2-.493 19.2-.493l4.923-8.877V29.354s-.657-3.616-5.251-2.63c0 0-2.954-.657-2.79-2.137.164-1.48.328-2.466.328-2.466z"/>
    <path fill="#F37B7B" d="M37.875 23.765s1.805 3.288 1.149 7.398c-.657 4.11 1.969 14.303 1.969 14.303l1.97-.493s-1.314-8.55-.986-10.522c.329-1.973.329-9.7-1.312-10.686-1.641-.986-2.79 0-2.79 0zM56.958 27.182l.69 18.201 1.313.822s1.887-19.974.903-19.974H57.86a.901.901 0 0 0-.902.95z"/>
    <path fill="#422B1C" d="M45.834 5.27v6.248h1.444l1.838-1.973-.246 1.973h6.383l-.394-1.973.788 1.973h1.017V5.27h-10.83z"/>
    <path fill="#FF8E55" d="M60.685 28.04S78.57 42.343 75.289 45.795c-3.282 3.453-15.753 2.466-15.753 2.466l.82-4.11 7.22-.822-3.61-3.617-3.281.33V28.04zM36.562 25.409l-2.291.69S18.346 37.904 17.69 41.192c-.657 3.288 3.117 5.097 3.117 5.097l14.277 6.74 1.477-3.945-6.728-3.453s.492-.986-1.477-1.15c-1.97-.165-2.298-2.302-2.298-2.302s3.939-6.083 6.072-4.768c2.133 1.315 2.79 2.302 2.79 2.302l1.64-14.303z"/>
    <path fill="#292949" d="M69.24 55.93v.55a1.212 1.212 0 0 1-.615 1.06c-.183.104-.39.158-.601.158H27.585a1.216 1.216 0 0 1-1.216-1.218v-.55a1.22 1.22 0 0 1 1.216-1.22h2.331v-.256a.051.051 0 0 1 .031-.047.052.052 0 0 1 .02-.004h1.216a.051.051 0 0 1 .036.015.051.051 0 0 1 .015.036v.257h.76v-.257a.051.051 0 0 1 .03-.047.052.052 0 0 1 .02-.004h1.216a.051.051 0 0 1 .036.015.05.05 0 0 1 .015.036v.257h.76v-.257a.05.05 0 0 1 .005-.02.05.05 0 0 1 .047-.031h1.216c.006 0 .013.002.02.004a.05.05 0 0 1 .03.047v.257h.76v-.257a.05.05 0 0 1 .004-.02.05.05 0 0 1 .047-.031h1.216c.007 0 .013.002.02.004a.05.05 0 0 1 .027.028.05.05 0 0 1 .004.019v.257h.76v-.257a.05.05 0 0 1 .015-.036.05.05 0 0 1 .035-.015h1.216a.05.05 0 0 1 .047.031.05.05 0 0 1 .004.02v.257h.76v-.257a.05.05 0 0 1 .015-.036.05.05 0 0 1 .037-.015h1.216c.006 0 .013.002.02.004a.05.05 0 0 1 .027.028.05.05 0 0 1 .004.019v.257h.76v-.257c0-.007 0-.013.003-.02a.05.05 0 0 1 .047-.031h9.527a.051.051 0 0 1 .036.015.051.051 0 0 1 .014.036v.257h.761v-.257a.051.051 0 0 1 .032-.047.051.051 0 0 1 .019-.004h1.216a.051.051 0 0 1 .05.051v.257h.76v-.257a.051.051 0 0 1 .032-.047.052.052 0 0 1 .02-.004h1.215a.051.051 0 0 1 .036.015.051.051 0 0 1 .015.036v.257h.76v-.257a.051.051 0 0 1 .031-.047.052.052 0 0 1 .02-.004h1.216a.051.051 0 0 1 .036.015.051.051 0 0 1 .015.036v.257h.76v-.257a.05.05 0 0 1 .004-.02.05.05 0 0 1 .047-.031h1.216a.05.05 0 0 1 .05.051v.257h.76v-.257a.05.05 0 0 1 .005-.02.05.05 0 0 1 .047-.031h1.216c.006 0 .013.002.02.004a.05.05 0 0 1 .03.047v.257h.76v-.257a.05.05 0 0 1 .015-.036.05.05 0 0 1 .036-.015h1.216c.007 0 .013.002.02.004a.05.05 0 0 1 .027.028.05.05 0 0 1 .004.019v.257h3.547a1.213 1.213 0 0 1 1.216 1.218z"/>
    <path fill="#292949" d="M81 56.92H14.62v.182H81v-.181zM65.985 32.736H50.912v-.31h-6.835v.31H28.942a1.018 1.018 0 0 0-1.02 1.022v20.677a1.022 1.022 0 0 0 1.02 1.021h37.043a1.019 1.019 0 0 0 1.02-1.02V33.757a1.023 1.023 0 0 0-1.02-1.022z"/>
    <path stroke="#FFD147" stroke-miterlimit="10" stroke-width="2" d="M47.493 42.224a2.266 2.266 0 0 0 2.264-2.269 2.266 2.266 0 0 0-2.264-2.268 2.266 2.266 0 0 0-2.264 2.268 2.266 2.266 0 0 0 2.264 2.269z"/>
    <path fill="#FFD147" d="M47.493 42.224a2.266 2.266 0 0 0 2.264-2.269 2.266 2.266 0 0 0-2.264-2.268 2.266 2.266 0 0 0-2.264 2.268 2.266 2.266 0 0 0 2.264 2.269z"/>
    <path fill="#E6F3F6" d="M13.222 6.199H0v2.62h13.222v-2.62zM13.222 10.22H0v2.62h13.222v-2.62zM13.222 14.239H0v2.62h13.222v-2.62z"/>
    <path fill="#14787F" d="M5.47 6.199H0v2.62h5.47v-2.62zM1.77 10.22H0v2.62h1.77v-2.62zM8.814 14.239H0v2.62h8.814v-2.62zM17.115 8.985a1.45 1.45 0 1 0 0-2.903c-.8 0-1.449.65-1.449 1.452a1.45 1.45 0 0 0 1.45 1.451zM17.115 13.34c.8 0 1.45-.65 1.45-1.452a1.45 1.45 0 0 0-1.45-1.451 1.45 1.45 0 1 0 0 2.903zM17.115 17.241a1.45 1.45 0 1 0 0-2.903c-.8 0-1.449.65-1.449 1.452a1.45 1.45 0 0 0 1.45 1.451z"/>
</svg>
