<svg xmlns="http://www.w3.org/2000/svg" width="175" height="194" fill="none" viewBox="0 0 175 194">
    <path fill="#00666B" d="M26.96 25.53l-4.43-1.41-2.52 4.8 5.05 2.86 2.29-4.49-.39-1.76z"/>
    <path fill="#F6A505" d="M23.73 22.11l-4.36 8.5-6.14-3.91 3.95-7.01 6.55 2.42z"/>
    <path fill="#01888B" d="M49.94 20.71a3.82 3.82 0 0 0 2.9-4.54L50.48 5.51a3.82 3.82 0 0 0-4.54-2.9 3.82 3.82 0 0 0-2.9 4.54l2.36 10.66a3.816 3.816 0 0 0 4.54 2.9z"/>
    <path fill="#63C0C4" d="M21.082 56.896c-5.619-19.383 5.54-39.65 24.924-45.27 19.383-5.617 39.65 5.541 45.269 24.925 5.618 19.383-5.54 39.651-24.924 45.27-19.383 5.618-39.651-5.541-45.27-24.925z"/>
    <path fill="#DFECEF" d="M55.93 77.14c-16.767 0-30.36-13.593-30.36-30.36s13.593-30.36 30.36-30.36 30.36 13.593 30.36 30.36-13.593 30.36-30.36 30.36z"/>
    <path fill="#FFD147" d="M51.93 0l1.67 4.29-14.2 2.88-.37-4.22L51.93 0z"/>
    <path fill="#212B53" d="M58.1 44c-.53.74-1.02 1.5-1.45 2.26-.44.77-.8 1.57-1.08 2.4L35.48 34.72 58.1 44z"/>
    <path fill="#fff" d="M54.06 47.023a2.64 2.64 0 1 1 5.125-1.27 2.64 2.64 0 0 1-5.124 1.27z"/>
    <path fill="#C7DFE1" d="M87.5 187.38c48.325 0 87.5-5.82 87.5-13s-39.175-13-87.5-13S0 167.2 0 174.38s39.175 13 87.5 13z" opacity=".5"/>
    <path fill="#14787F" d="M49.88 176.04c-1.38 1.21-2.76 2.41-4.14 3.62-1.01.88-1.67 1.58-2.63 1.94-.1.04-.21.06-.32.09-.98-.02-1.97-.03-2.95-.04-3.31-2.99-5.84-8.3-7.23-12.05-.64-1.72-1.14-3.57-.77-5.36.06-.31.17-.63.42-.81.23-.17.53-.19.81-.18.85.03 1.9.3 2.64.73.22.13.41.32.59.51-.09-.22-.17-.43-.26-.63-.6-1.43-1.68-3.17-1.3-4.75.16-.65.88-.84 1.42-.58.94.45 1.79 1.47 2.42 2.56-.42-2.03-.96-4.03-1.16-6.09-.21-2.29.05-4.71 1.31-6.64.6-.92 1.57-1.09 2.58-.81 2.28.62 3.78 2.81 4.64 5.01 1.34 3.47 1.48 7.2.64 10.8.23-1 1.54-2.58 2.3-3.25.89-.8 2.37-1.54 3.58-1.16 1.12.35 1.78 1.56 1.92 2.72.06.52.05 1.05-.04 1.56-.32 1.82-1.56 3.48-2.43 5.08-1.04 1.91-2.08 3.81-3.12 5.72.48-.5 1.05-.9 1.68-1.19.18-.08.37-.16.57-.13.66.08.69 1.07.35 1.65-.36.66-.94 1.18-1.52 1.68z"/>
    <path fill="#EB9928" d="M41.2 178.83c.41-8.33.81-16.59.72-25.03 0-.28.22-.28.23 0 .18 8.31.15 16.9-.58 25.17-.12-.06-.24-.1-.37-.14z"/>
    <path fill="#2A92A0" d="M44.47 171.919a44.285 44.285 0 0 1-4.16 5.94l1.3-.83c.4-.26.94-.51 1.32-.21.23.18.29.52.21.81-.08.29-.27.52-.46.75-1.09 1.27-2.42 2.31-3.79 3.29-1.82-.02-3.64-.04-5.46-.09l-.13-.13c-.56-.54-4.92-4.81-3.54-5.42.52-.12 1.1.13 1.58.41.66.39 1.29.84 1.86 1.36-.96-.87-1.61-2.72-2.09-3.89-.53-1.3-.99-2.67-.99-4.09 0-.22.01-.45.1-.65.14-.33.48-.56.84-.63.36-.07.73.01 1.07.15.6.26 1.08.72 1.46 1.25.29.4.5.86.75 1.28-.03-1.52-.1-3 .11-4.53.14-1.02.68-2.3 1.71-2.21.55.05.97.5 1.3.94 1.62 2.21 2.27 5.09 1.76 7.78.25-1.3 1.33-2.61 1.97-3.73.58-1.01 1.24-1.9 2.56-1.86.25.01.51.06.73.19.26.17.43.45.55.74.05.13.09.26.13.39.14.53.13 1.1-.01 1.63-.17.46-.42.92-.68 1.36z"/>
    <path fill="#EB9928" d="M36.28 170.57c.02-.27.43-.27.42 0-.16 3.48.06 7.07-.39 10.52-.02.13-.18.13-.2 0-.44-3.43-.03-7.07.17-10.52z"/>
    <path fill="#14787F" d="M109.5 149.52c2.38-.73 4.94.47 6.9 2.01 5.14 4.03 7.92 10.28 10.51 16.28a81.504 81.504 0 0 1-4.88-33.11c.18-2.9.71-6.15 3.08-7.82 2.43-1.72 5.99-.97 8.2 1.03 2.21 2 3.3 4.93 4 7.83 1.67 6.98.96 13.73-.39 20.64.72-3.66 4.91-6.82 7.75-8.8 2.51-1.75 9.75-6.37 12.38-3.04.71.9.97 2.1.95 3.25-.03 2.17-.93 4.22-1.89 6.17a85.41 85.41 0 0 1-7.91 13.05c.67-.91 3.61-1.78 4.7-1.6 1.53.26 2.67 2.06 2.47 3.53-.22 1.62-1.6 2.81-2.94 3.74-3.15 2.19-6.39 3.91-9.96 4.73-6.11-.19-12.26-.17-18.24.13-3.31-2.97-6.58-6.02-9.67-9.22-2.87-3.24-5.64-6.57-8.22-10.05-2.09-2.81-.07-7.77 3.16-8.75z"/>
    <path fill="#EB9928" d="M132.41 177.32c-.43.04-.86.06-1.29.04-.69-4.5-.94-9.13-.9-13.75.2-3.96.62-8.07 1.21-12.21.03-.19.31-.22.31-.02-.08 8.6-.02 17.33.67 25.94z"/>
    <g clip-path="url(#a)">
        <path fill="#F9BCA7" d="M132.197 57.5c-.5-.2-.9-.1-1.2.4-.6.8-.7.8-1.6 1.8-.2.2-.8.8-.8.6 0-.4.5-1.2.9-1.9.5-.9-.2-1.5-.2-1.5-.9-.5-.9.9-1.9 2.2-.8 1-1.3 2.4-1.8 3.4-.4.9-1.2 1.7-2.1 2.4l-.1.1c-2.5 2.1-7 3.9-9.6 5.7-2.7 1.9-5.6 1.5-8.3 3.3-.9-5.7-.5-10.2-1.6-15.8-.7-3.4-2-7-5.8-7.7h-.1c-2.2 1.6-2.8 2.5-4.6 6.7.2 1.8-.5 6.4-.2 7.9 1.2 5.9 1.3 9 2.2 14.8.6 3.9 1.5 5.1 5.6 4.6 9-1 16.2-7.1 22.9-12.8 1.1-.9 2.1-1.8 3.1-2.7.6-.5 1.2-.9 1.9-1.1 1-.4 2-.7 2.9-1 1.4-.5 3.2-3 2.9-4.2-.7-3.2-2.5-5.2-2.5-5.2z"/>
        <path fill="#B19184" d="M110.697 56.3c-3.8-6.4-9.2-12.3-16.9-13.2.6-.2.5-1.2-.2-1.1-.7.1-1.5.3-2.1.5-.1-.1-.3-.1-.5-.1-.7.3-1.3.7-1.9 1.1-.1.1-.2.1-.3.1h.1c-.3.2-.5.4-.8.6-.5.3-.9.6-1.3.9h-.1-.1c-3.2 2.8-4.9 7-4.7 11.7 0 .7.1 1.3.1 1.9-.2.1-.3.2-.2.5.2 1.4.4 2.8.6 4.1 0 .1.1.2.1.3.2 2.7.4 5.3 0 8-.7 5.2-2.8 10-5.7 14.3-.2.3 0 .8.4.8 4.9.7 9.8 1.7 14.6 3.2 2.7.9 5.3 1.9 7.8 3 1.1.5 2.8 1.7 4.2 1.2 2.2-.8 3.6-5.4 3.5-7.5-.1-1.2-.6-2.3-.3-3.6.3-1.2 1.1-2.1 1.7-3 .8-1.1 1.5-2.2 1.7-3.6.3-1.8-.6-3 .6-4.9.4-.6 1-1 1.5-1.6.8-1 1.4-2 1.6-3.3.7-3.5-1.7-7.2-3.4-10.3zM92.597 36.9v.1c.1 0 0-.1 0-.1z"/>
        <path fill="#F3C3B5" d="M106.697 38.7c-.2.9-.8 1.5-1.6 1.9-.4.2-1.1.3-1.5.4-2 .4-3.9-.4-5.7-1.4-1.6-.9-3.6-1.6-5.3-2.6v-.1l-.1.1c-.3-.2-.6-.3-.8-.5-.6-.4-1.1-.9-1.5-1.4-1.6-2.1-1.7-5.3-1.3-7.7.4-2.3 1.5-4.5 3.7-5.5 1.5-.7 3.7-1.2 5.6-1 1.6-.3 3.8.6 4.9 1.9 1.9 2.1.4 4.9 2.5 6.8.8.7 2.1.8 2.1 2 0 .4-.9.4-1 1.7-.2 1.2.6 3 0 5.4z"/>
        <path fill="#594C46" d="M89.797 45.2c.7.6 2.2.9 3 1.2.3.1.7.3 1 .4-1-1.1-2.6-1.8-4.3-1.9.1.1.1.2.3.3z"/>
        <path fill="#737399" d="M99.697 94.6c-1.5-1.6-3.5-2.5-5.5-3.3-2.9-1.2-5.9-2.4-8.8-3.6-1.1-.4-3.7-1.7-5.7-1.8-.2-.3-.7-.3-.9 0-1.1.2-1.8.9-1.6 2.5-.7.7-1.5 1.5-1.8 2.3-.5 1.2-.8 2.5-.9 3.9-.2 2.1-1.5 5.5-1.6 7.6-.2 2.6 1.5 4.2.3 6.4-1.7 3-3.8 8.3-4.7 11.6-.9 3.6-.6 5.4-1.9 8.9-1.6 4.3-3.6 4.9-7.2 7.5-3 2.1-6.1 3-10.7 7.7-3.6 3.7-6.8 7.5-11.3 9.7-2 1-4.2 1.6-6.8 1.8-1.3.1-2.8.1-4.4 0-.2 0-1.5.4-1.7 1.4-.9 4.6 3 7.4 2.9 11.9-.1 3.7-2.2 7.4.8 10.6.2.2.7.2.8 0 2.2-4.1 2.7-10.1 5.7-13.7 1.9-2.3 4.1-3.6 6.4-4.9 1.8-1 3.6-1.9 5.5-3.1 4.7-3 11.1-5.9 16.1-8.4 4.4-2.2 10.9-4 14.7-7.1 2.9-2.4 4.4-5.7 6.3-8.8.4-.6.8-1.3 1.2-1.9 1.4-2.1 2.7-4.2 4-6.3 1.5-2.4 2.8-4.9 4.2-7.4 2.5-4.7 4.7-9.6 6.7-14.5 1-3.2 2.3-6.3-.1-9z"/>
        <path fill="#99C" d="M132.297 185.8c-2.1 2-4.8 2.3-7.6 2.5-4.5.4-8.6 1.6-12.4 4-.2.1-1.2.2-1.4.3-2.4.3-3.5-2.6-2.9-5.5.1-.3.1-.5.2-.8.9-2.5.9-5.3.2-8.3-.7-3.3-2.1-6.9-3.7-10.4-1.7-3.9-2.9-6.8-3.2-12.8-.1-2.2-.4-7-.6-9.1-.2-3.2-4.4-6.9-6.4-10.2-1.5-2.5-3.1-5.1-4.6-7.7-.7-1.2-1.4-2.5-2-3.7-2.8-6.1-9.7-13.4-11.9-18.5-.2-.4-.4-.9-.5-1.3-2.2-5.8-2-11.9.5-16.7.2-.4.5-.9.8-1.3.3-.4.6-.8.8-1.1 1.8-2 2.7-.1 4.3-1 0-.2 3.3 2.3 3.6 2.2 6.7-1.4 18.9-.6 18.8 8.5 0 .4-.1.8-.1 1.2-.2 1.2-.8 2.6-1.3 4-.8 2.3-1.6 4.7-1.1 6.2.8 2.8 5 15.5 7.2 20.8.9 2.2 3.8 7.3 3.9 11.1.1 2.5-.1 3.7-.2 6.3-.1 5.7.9 11.4 1.2 17.1.3 5-1.1 11.3 1.2 15.9 0 .1.1.1.1.2 1.4 2.7 3.7 4.3 6.3 5.3 3.2 1.2 7 1.6 10.3 1.8.5 0 .9.6.5 1z"/>
        <path fill="#FFA274" d="M114.497 67c0 .9-.1 1.7-.3 2.6-.7 3.2-2.2 6.4-3.2 9.4-.2.7-.5 1.4-.7 2.2-1.2 3.8-2.5 7.7-3.7 11.5-.3.9-.6 1.8-1.1 2.5-.6.8-1.5 1.3-3.1.8-1.8-.6-3.4-2.1-5-3-1.9-1.1-3.9-2.1-5.9-3.1h-.1c-4.4-2-9.1-3.5-13.8-4.6-.3-.1-.5-.4-.4-.7.1-.8.3-1.5.4-2.3.3-1.2.7-2.4 1.2-3.6 1.3-2.7 3.2-4.3 2.4-7.5-.5-2.2-1.4-5.7-.9-8.3.1-.7.4-1.3.8-1.8 1-1.4 2.6-.6 4.1-1.1 2.4-.8 4.6-2.1 6.5-3.8 2.1-2.1 4.7-5.6 2.7-8.5-1-1.4-6.5-.9-7.5-2.4-.1-.2 2.8-2.4 3-2.6.2-.1.4-.3.6-.3 1-.2 2.2.9 3.6 2 1.7 1.4 2.2 2.2 3.6 3.4 1.2 1.1 6 3.8 7 3 .2-.2-.2-1.6-1-2.5-.1-.1-.2-.6-.3-.7 3.2 1.6 6 6.1 7.6 9.1 1.7 2.8 3.6 6.8 3.5 10.3z"/>
        <path fill="#906" d="M32.597 171.8c-1 1.7-1.8 3.4-2.2 5.3-.3 1.4.2 3.1-.2 4.4-.3 1.1-1.1 1.2-2.3 1.2h-.3c-1.8-.1-2.8-3.4-3-5.1-.4-4.3.8-10-.6-14.1-.5-1.6-1.8-6.2-.5-8 .5-.6.9-.9 1.5-.9h.2c.5 0 4.6 1.1 6 .7.2-.1 1.4-.5 1.6-.1.1.1.1.2 0 .4-.6 2.4-.3 4.7.9 6.9.4.8 1.3 1.5 1.8 2.3.2.3.3.6.3.8.4 1.9-2.3 4.7-3.2 6.2z"/>
        <path fill="#F9BCA7" d="M101.997 44.6V44c.2-1.3 1-2 1.7-3-1.8.4-3.6-.3-5.3-1.2-.1-.1-.3-.2-.4-.2-.5-.3-1-.5-1.5-.7 0 0-.1 0-.1-.1-1.2-.6-2.5-1.1-3.7-1.8.5 1.5.3 3-.5 4.4-.2.4-.6.7-.9 1.1.9-.2 2 .8 3.3 1.8 1.1 1.5 2.2 2.8 3.4 3.9 1.8.7 3.6 1.5 5.4 2.2.3.1.8 0 .8-.5-.3-2-2.2-3.3-2.2-5.3z"/>
        <path fill="#FBD2C0" d="M95.997 49.5s-.4 2.1-3.2 5.7c-.9.8-1.8 1.6-2.5 2.3-5.2 4.3-13 5.3-19.5 7.4.9 1 .5 4.7.6 6.1.3 4.4.9 9.8 1.4 14.1.3 3.1 1.7 2.3 3.3 3.8.2.2.3.3.5.6.2.2.3.4.4.6.4.9.5 1.8.8 2.8.8 2.6-1.3 2.3-2.5 4.7-.1.2-2 1.4-3.7.4-.4-.2-.7-.5-1-1-.1-.1-.1-.2-.2-.3-.9-1.5-2.1-5.2-2.2-6.9-.1-3-1.4-4.1-2.1-7.1-1.2-5-2-9-3.2-14-.3-1.1-1.1-6.6 0-7.8 0-.1 2.8-1.9 2.9-2 5.7-4.8 7.9-6.1 14.3-9.9 3.9-2.3 9.6-6.2 14.1-2.8 1.5 1.1 1.9 2 1.8 3.3z"/>
        <path fill="#654F5A" d="M82.797 26.5l-.1-.1c0-.1-.1-.1-.1-.2v-.1h.5v.1c-.1.2-.2.3-.3.3.1 0 .1 0 0 0zm.6 2.8h-.3c0-.1 0-.1-.1-.2l-.1-.1h.4c.1.1.1.2.1.3.1 0 .1 0 0 0zm1.6 4.4c-.1-.1-.2-.2-.3-.2h.4c-.1 0-.1.1-.1.2zm.7 2.6l-.2.2c-.1-.1-.2-.1-.3-.2.2-.1.4-.1.5 0 0-.1 0 0 0 0zm.1-15.9c-.1.1 0 .3.1.3 0 0 0 .1-.1.1-.2.1-.4.1-.6.1 0-.1 0-.1.1-.2.2-.6.3-.6.9-.8h.1l-.5.5zm19.2 2.1c0-.1 0-.1 0 0l-.4-.4c.1-.1.2-.3.2-.5.2-.5-.1-1.1-.6-1.6-.2-.2-.5-.4-.7-.5.4-.2.3-.8-.1-.9-2.5-1-3.9-1.8-6.5-1.5-.2 0-1 .3-1.3.4-.4-.1-.9-.2-1.3-.1-1 .2-1.3.6-1.7.8-1.2-.3-2.5-.8-3.7-.3-.5.2-.8.6-1.2.9-.7.6-1.4.6-2.2 1-.4.2-.7.4-.9.8-.1.1-.1.3-.1.4-.5.1-1.2.2-1.4.6-.2.4-.2.7.1.9-.1 0-.1 0-.2.1-.1 0-.1.1-.1.2h-.1c-.2-.1-.3.3-.1.3.1 0 .2.1.3.1-.2 0-.4.1-.5.3-.2.2-.2.6 0 .9 0 0 .1.1.2.1h-.2c-.1 0-.2.1-.2.1-.3.1-.4.2-.3.4.2.2.4.3.6.2h-.4c-.1 0-.2.1-.2.2s.1.2.1.2 0 .3-.1.5V26.8c-.2 0-.3.3-.1.4h.1v.4c-.1.1-.2.3 0 .4h.1v.1l-.1-.1c-.1 0-.2.2-.1.3.2.3.3.5.6.7 0 .1 0 .2.1.2-.3.3-.3.8-.1 1.3 0 .1 0 .2.1.2 0 .1.1.2.1.3V31.3c0 .3.1.3.3.5l-.1.1c-.1.1 0 .2 0 .3.1.1.2.1.4.2v.1c0 .1-.1.2-.1.2v.3l-.5.4c-.1.1 0 .3.1.3h.7c.1.1.1.3.2.4-.1.1-.1.2-.2.3-.1.1 0 .3.1.3h.4c.2.2 1.4.8.9 1-.1 0-.1.2 0 .3.1.1.3.3.6.5 0 0 0 .1-.1.1-.1.1 0 .3.2.3l.3.4c-.1.1.1.2.2.2l.5-.1c.5.3 1 .6 1.5.6.1.1.3.1.5.1h.2c.3 0 .6 0 .9-.1.3.2.3.7.7 1 .5.4.8.5 1.2.3.4.3.8.3 1.2-.3 1.8-2.2 3-3.1 2.2-6.1 0-.1-.4-.9-.5-1.2v-.1c-.3-1.1.7-1.9 2.1-1.5.2.1.4.1.6 0 .6-.3.6 0 1.1-.7.5-.6.5-1.7.9-2.4.1-.2.2-.3.3-.5.4-.8 1-1.5 1.7-2.1.1.1.2.2.4.2 1.3.1 2.4-.4 3.4-1.5.2-.2.2-.4 0-.6z"/>
        <path fill="#ED8E5F" d="M105.097 50.4c-.2.6-.5.7-1.3.8-.3 0-1.1-.1-1.4-.1-.4-.1-.7-.1-1-.2-2-.5-3.6-1.7-5.2-3.1 1 2.7-1.2 5.8-3.1 7.7l-.5.5c-.8.8-1.7 1.5-2.6 2.2-1.9 1.4-4 2.5-6.1 3.4-1.8.8-3.8 1.5-5.7 2-.5.1-1 .3-1.5.4-.5.1-1 .3-1.5.4-.8.2-2.2.3-2.8.8-1.1.9-.5 2.9-.4 4.1.1 1.2.2 2.4.4 3.6.2 2.1.5 4.2.7 6.3 0 .3.1.6.1 1 .1.7.2 1.3.3 2 .1.6.3 1.2.2 1.8-.1.5-.3.8-.8 1-1 .5-2.2.6-3.3.9-1 .2-3.4 1-3.4.7-.2 0-.1-1.1-.1-1.1-.3-4.8-2.3-8.6-3.7-13.2-1.1-3.8-2.5-9.1.8-12.2 1.5-1.5 3.5-2.6 5.3-3.8 1.9-1.3 3.8-2.6 5.8-3.9 3.8-2.5 9.8-6.3 14-8.2 2.1-.9 2.6-.2 4.8.5l-1.2-.9c-.1-.1-.2-.2-.2-.3l-.9-.3c-.8-.1-.6-1.2.2-1 2 .4 3.4 1.5 4.8 2.9.8.8 1.6 1.7 2.5 2.4.6.5 1.3 1 2 1.4.7.3 2 .8 3.1.1.1-.1.1-.2.2-.3-.2-1.3.4-1.2.9-.7.8.7 1 1.8.6 2.4zM125.997 71.9c-3.4.6-6.3 4.1-9 6-2.3 1.6-4.2 2.8-6.8 3.7.2-.7.6-1.9.8-2.6 1-3 2.4-6.2 3.1-9.4l3.9-1.8c.8-.4 1.7-.8 2.5-1.2.4-.2 1.4-1.1 1.9-1 .2 0 .3.1.4.3.4.5.6 1.7.8 2.1.4.9.7 1.9 1.3 2.6.3.3.6.6 1 .8.3.2.3.5.1.5z"/>
        <path fill="#FBD2C0" d="M115.297 177.8c0-.1-.1-.1-.1-.2-2.2.6-4.5.8-6.7.5.5 2.3.6 4.4.3 6.4.9 0 1.9 0 2.8-.1 1.9-.5 4.8-2.4 7-2.9-1.4-1-2.5-2.2-3.3-3.7z"/>
        <path fill="#906" d="M134.197 186.8c-2.2 1.8-6.4 3.3-9.1 3.8-1.6.3-3.2.5-4.8.7-2 .3-3.1.6-4.8 1.6-1.3.7-2.4.9-4.2 1-3.5.1-4.2-1.5-3.7-2.1l.1-.1.1-6.4c-.2-.3 0-.9.5-.9h.6c.9 0 1.9 0 2.8-.1 1.9-.5 4.8-2.4 7-2.9.2 0 .4-.1.6-.1.6-.1 6.1 2.1 8.7 2.2 2.1 0 5.2-.9 6.8 1 .1.2.2.3.3.4.4.9.1 1.1-.9 1.9z"/>
        <path fill="#F9BCA7" d="M37.197 154l-4.3 1.2c.1.1.1.2 0 .4-.6 2.4-.3 4.7.9 6.9.4.8 1.3 1.5 1.8 2.3 1.6-1.7 3.5-2.8 5.4-3.8-1.6-2-2.9-4.4-3.8-7z"/>
        <path fill="#E8AF9C" d="M97.497 39.8c1.3.6 2.6 1 4 1.2-1.3-.1-2.6-.5-3.8-1-.1-.1-.2-.1-.2-.2zm.9 0c-.7-.3-1.3-.6-1.9-1h-.1c-.2 0 .1.5.2.6-.1 0 .6.7.9.9 1.4 1.3 2.9 2.5 4.5 3.6.2-1.3 1-2 1.7-3-1.8.5-3.6-.2-5.3-1.1z"/>
        <path fill="#4D4D66" d="M102.497 95.9c-1.8-.6-3.4-2.1-5-3-1.9-1.1-3.9-2.1-5.9-3.1h-.1c-4.4-2-8.8-3.4-13.6-4.5l-.5-.1c-.3.3-.3.7-.6 1.1-.3.4-.5.9-.8 1.3 2.9-.6 5.7.4 8.5 1.2 2.6.8 5.3 1.6 7.8 2.8 4.3 2 7.7 5.1 10.7 8.6.5-1.4 1-2.9 1.3-4-.6 0-1.1-.1-1.8-.3z" opacity=".62"/>
        <path fill="#150C0E" d="M134.197 186.8c-2.2 1.8-6.4 3.3-9.1 3.8-1.6.3-3.2.5-4.8.7-2 .3-3.1.6-4.8 1.6-1.3.7-2.4.9-4.2 1-3.5.1-4.2-1.5-3.7-2.1 3 1.3 5.4.1 8.2-.9 2.4-.8 5.5-1.2 8-1.7 4.2-.8 8.7-2 11.2-4.4.5 1 .2 1.2-.8 2zM27.897 182.7h-.3c-1.8-.1-2.8-3.4-3-5.1-.4-4.3.8-10-.6-14.1-.5-1.6-1.8-6.2-.5-8 .5-.6.9-.9 1.5-.9 0 .2-.1.3-.3.5-1.4 1.9-.6 4.8-.1 7 .7 2.6.8 3.3 1.1 5.7.3 2.2.2 5.2.1 7.4-.2 2.9.4 5.2 2.1 7.5z"/>
        <path fill="#CACCDA" d="M120.297 181.5c-.1.5-.4.8-.8 1.2-.2.2.1.5.3.3.4-.4.7-.8.9-1.4 0-.3-.4-.3-.4-.1zM121.897 182c0-.3-.4-.3-.4 0 0 .5-.1 1.1-.5 1.5-.2.2.1.5.3.3.4-.5.6-1.2.6-1.8zM122.997 182.3c0-.3-.4-.3-.4 0 0 .5-.1.9-.5 1.3-.2.2.1.5.3.3.5-.4.7-1 .6-1.6zM123.997 182.6c0-.3-.4-.1-.4.1.1.5 0 1-.3 1.4-.1.2.2.4.4.2.3-.5.4-1.1.3-1.7zM125.197 182.9c-.1-.3-.5-.1-.4.1.1.4.1.9-.1 1.3-.1.3.3.3.4.1.2-.5.2-1 .1-1.5zM34.897 168.8c-.5-.3-1-.6-1.3-1.1-.1-.2-.5 0-.3.2.4.5.9 1 1.5 1.3.1.1.3-.3.1-.4zM33.897 170.2c-.6-.3-1.1-.7-1.5-1.3-.2-.2-.5 0-.3.2.5.6 1 1.1 1.7 1.4.2.2.4-.2.1-.3zM33.197 171.1c-.7-.3-1.3-.7-1.8-1.2-.2-.2-.5.1-.3.3.5.5 1.2 1 1.9 1.3.2.1.4-.3.2-.4zM32.497 172.3c-.7-.2-1.3-.5-1.9-.9-.2-.1-.4.2-.2.4.6.4 1.3.7 2 1 .2-.1.3-.5.1-.5zM31.597 173.4l-1.5-.6c-.2-.1-.4.2-.2.4.5.2 1 .5 1.6.7.3 0 .4-.4.1-.5z"/>
        <path fill="#D6CACD" d="M104.197 22.3c-1.1.8-2.3 1.2-3.6 1.2-.2 0-.2.4 0 .4 1.4 0 2.6-.5 3.8-1.3.2-.2 0-.5-.2-.3z"/>
        <path fill="#91838A" d="M100.097 24.1c-1 .5-1.3 1.6-1.6 2.6-.2.8-.4 1.6-1 2.2-.7.7-1.7.5-2.6.6-3 .5-1.9 4-1.5 6 0 .2.4.1.4-.1-.2-1.4-1-3.1-.3-4.5s2.3-.8 3.6-1.3c2.2-.9 1.2-4.1 3.2-5.2.2-.1 0-.4-.2-.3z"/>
        <path fill="#91838A" d="M99.997 23.7c-1 .4-1.8 1.1-2.1 2.1-.3.8-.1 1.8-.8 2.5-.6.6-1.4.6-2.2.6-1.1 0-1.9.2-2.3 1.3-.5 1.4.4 3.8-1.5 4.3-.2.1-.1.4.1.4 1-.3 1.4-1.1 1.5-2 .1-.9-.1-1.9.3-2.7.5-1 1.5-.8 2.4-.9 1-.1 2-.4 2.4-1.4.2-.5.2-1.2.3-1.7.3-1 1-1.7 1.9-2.1.3-.2.2-.5 0-.4z"/>
        <path fill="#91838A" d="M99.897 23.3c-1.2.1-2.3.7-3.1 1.7-.3.5-.5 1-.7 1.5-.2.5-.4 1-.8 1.3-.4.3-1 .2-1.5.2-1.2 0-1.5.7-1.7 1.8-.1.5-.3.9-.7 1.3-.2.2-.5.3-.6.5-.3.3-.5.7-.4 1.2.1.2.4.1.4-.1-.2-.9 1-1.1 1.4-1.6.2-.3.3-.6.4-.9.2-.9.3-1.6 1.4-1.6.5 0 1 .1 1.5-.1.8-.3 1-1.2 1.3-1.9.6-1.5 1.7-2.5 3.4-2.7 0-.3-.1-.7-.3-.6z"/>
        <path fill="#523C47" d="M94.897 33.1c0-.1-.4-.9-.5-1.2-.2.2-.3.5-.4.8-.2 1.2.5 2.5-1 3-.9.3-2.3.5-3.2 0-.5-.3-.7-.8-1.1-1.2-.3-.3-.6-.4-.9-.6-.3-.1-.7-.2-1-.4-.7-.3-.9-.6-1.2-1.3-.3-.8-.9-1-1.5-1.6-.3-.3-.4-.8-.4-1.2 0-.1.1-.2 0-.3 0-.3-.1-.4-.3-.6-.4-.4-.8-.6-1.1-1.1-.2-.2-.3-.5-.3-.8.1-.1.2-.2.2-.4.3-.1 0-.2-.2-.1V26.8c-.2 0-.3.3-.1.4h.1v.4c-.1.1-.2.3 0 .4h.1v.1l-.1-.1c-.1 0-.2.2-.1.3.2.3.3.5.6.7 0 .1 0 .2.1.2-.3.3-.3.8-.1 1.3 0 .1 0 .2.1.2 0 .1.1.2.1.3V31.3c0 .3.1.3.3.5l-.1.1c-.1.1 0 .2 0 .3.1.1.2.1.4.2v.1c0 .1-.1.2-.1.2v.3l-.5.4c-.1.1 0 .3.1.3h.7c.1.1.1.3.2.4-.1.1-.1.2-.2.3-.1.1 0 .3.1.3h.4c.2.2 1.4.8.9 1-.1 0-.1.2 0 .3.1.1.3.3.6.5 0 0 0 .1-.1.1-.1.1 0 .3.2.3l.3.4c-.1.1.1.2.2.2l.5-.1c.5.3 1 .6 1.5.6.1.1.3.1.5.1h.2c.3 0 .6 0 .9-.1.3.2.3.7.7 1 .5.4.8.5 1.2.3.4.3.8.3 1.2-.3 1.7-2 2.9-2.8 2.1-5.9z"/>
        <path fill="#786871" d="M104.997 22.4l-.3-.3c.1-.1.2-.3.2-.5-.7.4-1.8.6-2.6.8-.9.2-1.9.4-2.8.8-1.5.7-1.5 2.2-1.4 3.6 0 .2.3.3.4.1.4-1 .8-2.1 1.6-2.8.9-.7 2-.6 3-.9.6-.1 1.4-.3 1.9-.8z"/>
        <path fill="#786871" d="M104.997 23.1c-1.1 1.1-2.2 1.6-3.7 1.7-.2 0-.3-.1-.4-.2-.7.6-1.2 1.3-1.7 2.1v-.1c.2-1 .8-1.7 1.7-2.1.6-.3 1.2-.4 1.8-.5.5-.1.9-.1 1.4-.4.4-.2.7-.3.9-.5z"/>
        <path fill="#91838A" d="M104.697 22.5c-1.4.8-3 .6-4.3 1.7-1.2 1-1.7 2.5-2.2 3.9-.1.2.3.3.4.1.5-1.5 1.1-3.2 2.5-4.1 1.1-.7 2.6-.6 3.8-1.3.2-.1.1-.5-.2-.3z"/>
        <path fill="#9D9097" d="M104.597 21v-.2c0-.1-.1-.2-.1-.3.1-.2-.1-.3-.2-.2l-.1-.1h-.2c0-.1-.1-.1-.1-.1-.1-.1-.2-.1-.2-.1h-.1c-.4 0-.7 0-1.1.1l.1-.1h.8c.2 0 .2-.4 0-.4-1 .1-1.8 0-2.7-.3-.4-.2-.7-.4-1.1-.6.6.2 1.1.4 1.7.6.7.2 1.5.1 2.2.2.2 0 .2-.4 0-.4h-.7c0-.1 0-.1-.1-.2-.9-.5-1.9-.8-2.8-1-.1-.1-.3-.1-.4-.2-.9-.3-1.6-.2-2.5.1-.6-.1-1.1-.2-1.7-.1-1.3.2-2.3.8-3.7.7-1-.1-1.9-.3-2.9.2-1.2.6-2.3 1.7-3.4 2.5-.2.1 0 .5.2.3.9-.7 1.9-1.5 2.9-2.2 1.2-.8 2.3-.4 3.6-.4.9 0 1.8-.4 2.6-.6.7-.2 1.4-.2 2-.1 0 .1.1.2.2.1 0 0 .1 0 .1-.1.6.1 1.1.3 1.7.5.1 0 .2 0 .2-.1l.6.3-.1.1c0-.1-.1-.1-.1-.1l-.1-.1c-.1-.1-.2-.1-.3 0-.1 0-.3-.1-.4-.1h-.1c-.7-.3-1.4-.4-2.1-.3-.9.1-1.7.9-2.6.9-.2 0-.2.4 0 .4.6 0 1-.3 1.6-.6 1-.5 2.2-.5 3.2 0h.2c.2 0 .3.1.5.1.7.6 1.6.9 2.5 1 .1 0 .2-.1.2-.2 0 0 .2.1.5.1-.1 0-.1.1-.1.2-.3 0-.6.1-.9.1l-.1-.1c-1.8-.1-3.4-1.6-5.2-1.2-.9.2-1.6.8-2.5.9-.8.1-1.7-.3-2.5-.1-.7.2-.8.7-1.1 1.2-.7 1-1.8 1.2-2.9 1.2-.7 0-1.2 0-1.6.6-.3.4-.5.8-.9 1-.6.4-1.3.4-1.9-.1-.2-.2-.4.1-.3.3.9.9 2.3.4 3.1-.5.1-.2.2-.5.4-.6.3-.3.8-.3 1.2-.3.4 0 .7 0 1.1-.1.5-.1 1.1-.3 1.5-.6h.1c1-.5 1.7-.4 2.7-.3.4.1.8 0 1.2-.1 1.1-.4 1.9-1.3 3.2-1.3.2 0 .2-.4 0-.4-1.3 0-2.1.9-3.3 1.3-.7.2-1.4 0-2.1-.1-.5 0-1 .1-1.4.2.2-.4.3-.9.7-1.1.5-.3 1.3 0 1.9 0 .9.1 1.5-.2 2.3-.5 1.3-.6 2.4-.4 3.6.1-.4 0-.7 0-1.1-.1-.2 0-.2.4 0 .4.7 0 1.5.1 2.2.1 0 .1 0 .2.1.2s.2.1.3.1v.1c-1.5-.5-3-.3-4.3.7-.4.3-.8.7-1.2 1-.7.5-1.3.6-2.1.5-.7 0-1.4 0-2.1.3-.6.3-1 .8-1.2 1.5-.1.7-.2 1.4-1.1 1.5-.7.1-1.3-.2-1.9-.4-.6-.1-1.3-.1-1.9.3-.7.5-.7 1.7-1.6 1.9-.2.1-.1.4.1.4.6-.1.8-.5 1.1-1 .3-.6.5-1.1 1.2-1.2.6-.1 1.1.1 1.7.2 1.4.4 2.6.2 2.8-1.4.2-1.5 1.6-1.8 2.9-1.6.7.1 1.3.1 2-.3.8-.5 1.3-1.3 2.1-1.7.3-.2.6-.3.9-.4-.1 0-.2.1-.4.1-.2.1-.1.5.1.4.7-.3 1.4-.4 2.1-.3.1 0 .2-.1.2-.2.3.1.5.1.7.2h-1.8c-.2 0-.2.4 0 .4-.8.2-1.5.5-2.2.9-.7.5-1.2 1.1-1.6 1.8-.3.4-.5.8-.8 1.2-.7.6-1.4.4-2.2.4-.6 0-1.2.2-1.4.8-.1.3-.1.6-.1.9-.1.5-.1 1-.6 1.3l-.9.3c-.7.1-1.4.1-2 .6-.7.6-.4 1.7-1.1 2.2-.2.1 0 .5.2.3.5-.4.5-.8.7-1.4.4-1.3 1.5-1.2 2.6-1.4.6-.1 1.1-.4 1.4-.9.1-.3.2-.5.2-.8 0-.5-.1-1 .6-1.3.2-.1.6-.1.8-.1.7 0 1.4.1 2-.4.6-.5 1-1.3 1.5-2 .6-.9 1.6-1.6 2.6-1.9-.3.1-.5.3-.7.5-.2.2.1.4.3.3.2-.2.5-.4.8-.5.2-.1.1-.3 0-.3.2 0 .4-.1.6-.1-.2.1-.2.3 0 .4-.2.1-.5.2-.7.3-.1.1-.1.2-.1.3-.8.4-1.4 1-2 1.8-.3.4-.5.8-.7 1.2-.3.7-.6 1.1-1.4 1.2-.6.1-1.2-.2-1.8.2-.5.3-.6.9-.7 1.5-.3 1.2-1.1 1.6-2.1 2.1-1 .6-2.2 1.7-1.4 2.9.1.2.4 0 .3-.2-1.2-1.8 2.1-2.6 3-3.5.3-.4.5-.8.6-1.2.1-.2.1-.5.2-.7.3-.7.9-.8 1.5-.8 1.2 0 1.6-.4 2.1-1.4.7-1.4 1.7-2.8 3.3-3.1-.1 0-.3.1-.5.2s0 .5.2.3c.4-.3.9-.5 1.4-.6 0 .1.1.1.2.1 1.3-.1 2.7-.1 3.8-1 .1 0 .1-.1.1-.2.1.1.2.1.3-.1.1-.1.1-.2.1-.4 0 .1 0 0-.1-.1zm-5-1.9l.9.3c.1.1.3.1.4.2-.5 0-.9-.2-1.3-.5zm3.7 2s.1 0 .1-.1c0 .1 0 .1.1.2-.3.2-.7.4-1.1.5h-.1c.3-.1.6-.2.9-.4.1 0 .1-.1.1-.2zm-.3-.7c-.4.1-.9.2-1.3.2h-.1c.5 0 1-.1 1.4-.2zm-2.6.5c.4.1.9.1 1.3.1h-1.4c.1 0 .1-.1.1-.1zm0 1.5c-.1.1-.1.1 0 0-.1-.1-.1-.1-.2-.1 0-.1-.1-.1-.2-.1h-.1c.2 0 .4-.1.7-.1l.1.1c.6.1 1.3 0 1.9-.1h.4c.1 0 .2-.1.2-.2l.6-.3s.1.1.2.1c-1.2.6-2.4.7-3.6.7z"/>
        <path fill="#91838A" d="M97.397 25.5c-.4.1-.5.5-.6.9-.1.3 0 .6-.1.9-.1.4-.4.7-.8 1-.2.2.1.4.3.3.4-.3.7-.7.9-1.2.1-.6 0-1.3.6-1.6.1-.1-.1-.5-.3-.3zM96.897 22.7l-2.1 2.7c-.1.2.1.4.3.3l2.1-2.7c.1-.2-.2-.5-.3-.3zM96.797 21.3c-.7.3-1.3.8-1.6 1.4-.1.2.2.4.3.2.3-.6.8-1 1.4-1.3.2 0 .1-.4-.1-.3zM94.597 25.8c-.1.2-.3.3-.6.3-.2 0-.2.4 0 .4.3 0 .6-.2.8-.4.3-.2 0-.5-.2-.3zM94.397 23.5c-.3.2-.6.5-.8.7-.2.2 0 .5.2.3.3-.2.6-.5.8-.7.2-.1 0-.5-.2-.3zM93.197 24.5c-.2.2-.5.3-.7.3-.2.1-.1.4.1.4.3-.1.6-.2.8-.4.2-.1 0-.4-.2-.3zM91.197 25.3c-.3 0-.5 0-.8.2-.2.1 0 .4.2.3.2-.1.4-.1.6-.1.2 0 .2-.4 0-.4z"/>
        <path fill="#786871" d="M97.897 24.7c-.2 0-.2.4 0 .4.3 0 .3-.4 0-.4z"/>
        <path fill="#91838A" d="M92.497 19.1c-.4-.1-.8-.1-1.1-.2-.2 0-.3.3-.1.4.4.1.7.1 1.1.2.2 0 .3-.4.1-.4zM89.697 26c-.3.2-.3.4-.4.7-.3.7-.9.7-1.6.9-.8.2-1.4.6-1.8 1.4-.1.2.2.4.3.2.3-.5.7-.9 1.3-1.1.4-.1.9-.1 1.3-.3.3-.1.5-.3.7-.5.2-.3.2-.7.4-.9.2-.2 0-.6-.2-.4z"/>
        <path fill="#AD5C85" d="M90.497 34.7c-.2-.4-.2-.9-.1-1.3.1-.2-.3-.3-.4-.1-.1.5-.1 1.1.2 1.6.1.3.4.1.3-.2z"/>
        <path fill="#91838A" d="M84.597 21.3c-.6-.3-1.4.1-1.5.9 0 .2.3.3.4.1.1-.4.6-.8 1-.6.1.1.3-.3.1-.4z"/>
        <path fill="#AD5C85" d="M83.397 25.4c-.3.1-.6.1-.9.2-.1 0-.3 0-.4.2l-.1.1c-.2.2-.3.5-.1.8.1.1.3.1.3 0s.1-.2.1-.3v-.3l.1-.1c.1 0 .1 0 .2-.1.3-.1.5-.1.8-.2.4 0 .3-.4 0-.3z"/>
        <path fill="#E8AF9C" d="M127.197 65.8c-.8-1-1.3-2.2-1.6-3.4-.6.8-1.2 1.7-2.1 2.4l-.1.1c-.2.3-.8.4-.9.7.2 0 .3.1.4.3.4.5.6 1.7.8 2.1.4.9.7 1.9 1.3 2.6.7-.6 1.4-1.2 2-1.7.6-.5 1.2-.9 1.9-1.1-.4-.7-1.2-1.3-1.7-2z"/>
        <path fill="#FBD2C0" d="M134.697 62.8c-.3.5-.8.8-1.3 1.1-.3.1-.5.2-.8.2-.1 0-.9-.3-.5-.8 0 0-.4 0-.5-.1h-.1c-.4 0-.7-.4-.8-.8 0-.3-.2-.4-.1-.6 0 0-.5-.3-.6-.5-.1-.3 0-.6.2-.9-.2.1-.3.1-.4.1-.3 0-.6-.2-.5-.5v-.1-.2c0-.1.1-.4.3-.7.2-.4.6-1 1-1.3 0-.1.1-.2.2-.2.3-.2.8-.3 1.2 0 .6.4 1 1.3 1.4 1.9.3.5.8 1 .9 1.6.5.6.9 1.2.4 1.8z"/>
    </g>
    <defs>
        <clipPath id="a">
            <path fill="#fff" d="M0 0h112.2v176.9H0z" transform="translate(22.997 17)"/>
        </clipPath>
    </defs>
</svg>
