<svg xmlns="http://www.w3.org/2000/svg" width="73" height="58" fill="none" viewBox="0 0 73 58">
    <path fill="#000" d="M29.64 39.347h1.718a2.05 2.05 0 0 1 2.05 2.047v4.135H27.59v-4.135a2.046 2.046 0 0 1 2.05-2.047zM33.602 24.198h-6.205v12.364h6.205V24.198zM30.952 12.539c.856 0 1.55-1.107 1.55-2.473 0-1.366-.694-2.473-1.55-2.473-.857 0-1.55 1.107-1.55 2.473 0 1.366.694 2.473 1.55 2.473z" opacity=".2"/>
    <path fill="#422B1C" d="M37.674 5.304c.718 1.253 1.64 2.457 2.863 2.89.388.137.82.215 1.093.561.174.256.287.55.33.856.447 2.193.148 4.615 1.025 6.619.71 1.622 2.07 2.68 3.15 3.988 1.081 1.31 1.93 3.266 1.274 4.92a3.21 3.21 0 0 1-2.155 1.88c-.904.245-1.848.137-2.766-.02-1.21-.214-2.443-.546-3.452-1.364-1.744-1.416-2.482-3.958-3.395-6.218-.429-1.059-.998-2.168-1.941-2.548-1.08-.434-2.294.291-2.995 1.354-.7 1.063-1.012 2.4-1.351 3.685-.383 1.45-.868 2.958-1.873 3.907a3.155 3.155 0 0 1-3.367.672c-1.12-.466-2.007-1.645-2.264-3.014-.397-2.11.555-4.64-.613-6.308-.454-.645-1.146-.997-1.64-1.609-.608-.765-.83-1.855-.878-2.902-.102-2.235.665-4.726 2.392-5.651.462-.247.977-.377 1.383-.737 1.366-1.212.723-4.19 2.137-5.322.41-.33.923-.42 1.418-.49C27.434.26 28.81.239 30.204.243c.899 0 1.826-.3 2.716-.234 2.392.18 3.59 3.266 4.754 5.295z"/>
    <path fill="#575988" d="M12.025 50.486l.523 6.191 36.6-.217-.698-6.759-12.373-1.438-21.7 1.307-2.352.916z"/>
    <path fill="#7377B5" d="M12.025 50.486l.523 6.191 36.6-.217-.698-6.759-12.373-1.438-21.7 1.307-2.352.916z" opacity=".05"/>
    <path fill="#F7C4A7" d="M36.109 54.811l-12.185 1.14s8.348 2.123 13.222 1.092l-1.037-2.232z"/>
    <path fill="#E8AF9C" d="M36.109 54.811l-12.185 1.14s8.348 2.123 13.222 1.092l-1.037-2.232z"/>
    <path fill="#F9C6A0" d="M26.826 11.208s2.386 6.266-1.14 9.062c-3.527 2.797-.622 10.617-.622 10.617l13.585-.62s1.348-8.804.621-10.67c0 0-3.215.933-3.94-1.035-.725-1.968-1.245-7.354-1.245-7.354h-7.259z"/>
    <path fill="#7377B5" d="M23.717 49.115s-11.459-.26-14.828-1.092c-3.37-.832-6.274 3.16-5.081 5.439C5 55.74 8.316 57.294 8.316 57.294s17.058.828 20.74-1.502c0 0 1.4-3.987 0-4.764H11.274l13.116-.259-.673-1.654zM41.917 47.927s3.837.828 9.125-1.243c0 0 9.903-.311 6.586 6.004-3.317 6.316-21.673 4.764-21.673 4.764s-1.093-2.33 0-2.951 10.578-4.609 13.526-4.403l-8.198 1.605.634-3.776z"/>
    <path fill="#000" d="M34.58 14.926a80.88 80.88 0 0 1-.313-2.677h-7.26c.336.95.569 1.932.695 2.93a5.709 5.709 0 0 0 6.879-.253z" opacity=".1"/>
    <path fill="#F9C6A0" d="M30.794 15.167a5.7 5.7 0 0 0 5.703-5.696 5.7 5.7 0 0 0-5.703-5.696 5.7 5.7 0 0 0-5.703 5.696 5.7 5.7 0 0 0 5.703 5.696zM27.45 19.39s-6.843 1.295-7.672 3.002c-.83 1.707-.726 7.561-.726 7.561s.312 9.582-2.074 10.772l-8.917 6.214S1.735 41.398.18 44.66c-1.556 3.263 7.466 4.455 7.466 4.455l10.058-3.003 3.215-2.071s1.503-.725 1.658-2.486l1.349-10.67 5.392-1.552h8.707l1.167-3.327s2.152 1.722 1.84 3.327c-.31 1.604.518 12.009.518 12.009s.674 2.33 2.074 3.002l8.09 2.91s8.555.828 9.125-2.9c.57-3.729-8.4.517-8.4.517l-6.43-4.972s-.517-2.071-.725-3.522c-.207-1.45-.517-7.664-.517-7.664s1.97-6.526-3.733-7.664l-7.363-2.279-6.222.62z"/>
    <path fill="#000" d="M22.86 20.711l1.064 7.017s-1.093 3.263 0 6.474c1.093 3.211-1.35 15.174-1.35 15.174s12.806 4.094 20.63-.621c0 0-5.754-12.118-3.318-16.158 2.436-4.04.04-5.62.04-5.62l.382-7.424-1.763-.518-1.037 7.34s-7.155 4.972-12.443.622l-1.141-7.975-1.063 1.69z" opacity=".1"/>
    <path fill="#fff" d="M31.052 32.064a4.198 4.198 0 0 0-5.436-1.527c1.736 1.298 3.65 1.644 5.436 1.527zM33.992 31.285a4.198 4.198 0 0 1 5.436-1.527c-1.735 1.298-3.65 1.646-5.436 1.527z" opacity=".07"/>
    <path fill="#000" d="M22.86 20.71l1.064 6.654s-1.093 3.263 0 6.474c1.093 3.211-1.35 15.174-1.35 15.174s12.806 4.094 20.63-.62c0 0-5.754-12.12-3.318-16.158 2.436-4.04.04-5.62.04-5.62l.374-7.43-1.763-.518L37.5 26.02s-7.155 4.972-12.444.621l-1.14-7.975-1.055 2.044z" opacity=".1"/>
    <path fill="#F77C7C" d="M22.809 20.659l1.115 6.81s-1.093 3.262 0 6.473-1.35 15.174-1.35 15.174 12.806 4.094 20.63-.621c0 0-5.754-12.118-3.318-16.157 2.436-4.04.04-5.62.04-5.62l.374-7.43-1.763-.518-1.037 7.354s-7.155 4.972-12.444.621l-1.14-7.975-1.107 1.889z"/>
    <path fill="#F9C6A0" d="M28.072 51.651l2.7-.363s3.111-3.987 5.34-.932c0 0 .934 1.968 2.075 2.33.78.236 1.578.41 2.385.518l-4.614 1.295s-2.022 1.191-4.148.88a8.07 8.07 0 0 0-3.732.311l-.006-4.039z"/>
    <path fill="url(#a)" d="M25.091 34.743s4.874.724 5.703-.57l-5.703.57z"/>
    <path fill="url(#b)" d="M34.324 33.916s.933.932 4.666.259l-4.666-.26z"/>
    <path fill="#000" d="M28.462 51.264s.985 4.64 0 4.803c-.985.164-2.386-.764-2.386-.868 0-.103.622-3.055.622-3.055l1.764-.88z" opacity=".1"/>
    <path fill="#7377B5" d="M28.358 51.264s.985 4.64 0 4.803c-.985.164-2.386-.764-2.386-.868 0-.103.622-3.055.622-3.055l1.764-.88z"/>
    <path fill="#422B1C" d="M23.544 18.635c-.434 1.009-.588 2.198-.127 3.195.353.76 1.042 1.375 1.174 2.202.167 1.037-.602 2.092-.316 3.102.11.388.365.715.625 1.022.79.932 1.839 1.834 3.058 1.762.192-1.88-1.435-3.705-.902-5.519.191-.65.64-1.19.91-1.81.45-1.027.385-2.2.222-3.31-.236-1.609-.834-3.583-2.431-4.337-.736-.346-1.777-.37-2.039.57-.137.502.191.974.236 1.465.058.625-.168 1.099-.41 1.658zM23.95 6.571s7.57-1.035 7.777.518c.206 1.552 6.895 4.093 6.895 4.093L36.964 7.09l-3.06-5.074s-5.601-.41-5.858 0c-.257.41-3.215 1.76-3.215 1.76l-.881 2.796zM37.124 17.483c.369.44.629.962.76 1.521.126.534.13 1.092.25 1.627.255 1.14 1.01 2.097 1.798 2.96.255.312.566.574.918.772.36.178.82.214 1.154 0-.316-.26-.489-.656-.602-1.05a5.392 5.392 0 0 1-.21-1.694c.034-.955.314-1.964-.084-2.834-.23-.503-.657-.885-1.093-1.229a5.821 5.821 0 0 0-.975-.641c-.644-.32-1.383-.461-2.093-.53-.927-.098-.117.747.177 1.098z"/>
    <path fill="#14787F" d="M63.852 52.426c.286-.108.61-.017.885.116 1.198.581 1.868 1.873 2.373 3.11-.814-3.03-1.61-6.35-.341-9.22.07-.16.151-.323.29-.43.437-.342 1.055.085 1.388.532 1.109 1.485 1.48 3.482 1.04 5.28.453-.897 1.248-1.62 2.197-1.941.258-.088.544-.146.795-.043.519.208.585.918.478 1.467-.337 1.751-1.516 3.202-2.685 4.545-.48.553-.91 1.216-1.369 1.71H66.21a11.012 11.012 0 0 1-2.54-3.14c-.18-.332-.347-.688-.356-1.068-.008-.377.184-.785.538-.918z"/>
    <path fill="#D98716" d="M67.433 57.554c.346-2.573.64-5.02.418-7.64-.006-.082.118-.08.126 0 .275 2.484.288 5.192-.37 7.64h-.174z"/>
    <defs>
        <linearGradient id="a" x1="25.094" x2="30.793" y1="34.56" y2="34.56" gradientUnits="userSpaceOnUse">
            <stop offset=".004" stop-color="#E36B6B"/>
            <stop offset="1" stop-color="#D45353"/>
        </linearGradient>
        <linearGradient id="b" x1="34.326" x2="38.989" y1="34.167" y2="34.167" gradientUnits="userSpaceOnUse">
            <stop offset=".004" stop-color="#E36B6B"/>
            <stop offset="1" stop-color="#D45353"/>
        </linearGradient>
    </defs>
</svg>
