<svg xmlns="http://www.w3.org/2000/svg" width="115" height="58" fill="none" viewBox="0 0 115 58">
    <g clip-path="url(#a)">
        <path fill="#292949" d="M89.832 10.801h-28.2v-.58H48.846v.58H20.53a1.909 1.909 0 0 0-1.907 1.906v38.585A1.905 1.905 0 0 0 20.53 53.2h69.302a1.908 1.908 0 0 0 1.907-1.907V12.707a1.904 1.904 0 0 0-1.907-1.906z"/>
        <path fill="#E6F3F6" d="M89.182 14.17H21.18V52.5h68.002V14.17z"/>
        <path fill="#2A92A0" d="M55.122 13.125a.697.697 0 1 0 0-1.395.697.697 0 0 0 0 1.395z"/>
        <path fill="#292949" d="M93.648 51.805h-6.636v-.477a.096.096 0 0 0-.028-.068.093.093 0 0 0-.067-.027h-2.275a.094.094 0 0 0-.088.058.094.094 0 0 0-.007.037v.477h-1.422v-.477a.096.096 0 0 0-.028-.068.093.093 0 0 0-.067-.027h-2.275a.094.094 0 0 0-.088.058.094.094 0 0 0-.007.037v.477h-1.422v-.477a.094.094 0 0 0-.095-.095h-2.275a.094.094 0 0 0-.088.058.094.094 0 0 0-.007.037v.477H75.35v-.477a.094.094 0 0 0-.095-.095H72.98a.094.094 0 0 0-.088.058.094.094 0 0 0-.007.037v.477h-1.422v-.477a.094.094 0 0 0-.095-.095h-2.276a.094.094 0 0 0-.067.028.096.096 0 0 0-.027.066v.478h-1.423v-.477a.094.094 0 0 0-.094-.095h-2.276a.094.094 0 0 0-.095.095v.477H63.69v-.477a.096.096 0 0 0-.028-.068.093.093 0 0 0-.067-.027H45.771a.095.095 0 0 0-.095.095v.477h-1.422v-.477a.094.094 0 0 0-.095-.095h-2.276a.094.094 0 0 0-.094.095v.477h-1.422v-.477a.096.096 0 0 0-.028-.068.093.093 0 0 0-.067-.027h-2.276a.094.094 0 0 0-.087.058.094.094 0 0 0-.007.037v.477H36.48v-.477a.096.096 0 0 0-.028-.068.094.094 0 0 0-.067-.027h-2.276a.094.094 0 0 0-.087.058.094.094 0 0 0-.008.037v.477h-1.422v-.477a.094.094 0 0 0-.094-.095h-2.276a.094.094 0 0 0-.087.058.094.094 0 0 0-.008.037v.477h-1.422v-.477a.094.094 0 0 0-.095-.095h-2.275a.094.094 0 0 0-.088.058.094.094 0 0 0-.007.037v.477h-1.422v-.477a.094.094 0 0 0-.095-.095h-2.275a.094.094 0 0 0-.095.095v.477h-4.361a2.276 2.276 0 0 0-2.275 2.274v1.028a2.273 2.273 0 0 0 2.275 2.274h75.656a2.276 2.276 0 0 0 2.276-2.274V54.08a2.273 2.273 0 0 0-2.276-2.274z"/>
        <path fill="#E6F3F6" d="M68.957 18.521h-27.53v28.918h27.53V18.521z"/>
        <path fill="#422B1C" d="M55.988 17.32s-2.347-.838-3.856 2.513c-1.51 3.351-3.857 7.037-3.857 7.037l1.341.335s.336-2.345 1.174-2.68l-.335 3.015s10.06 3.52 14.588-.335l-.168-1.172s.67.167.67 1.172l.504-.502s-.503-1.006-2.012-2.346c-.99-.88-1.331-2.554-1.448-3.6a4.355 4.355 0 0 0-1.004-2.373c-1.003-1.161-2.83-2.396-5.597-1.064z"/>
        <path fill="#F9C6A0" d="M43.016 20.483l-.976-10.181s-1.95-5.524.976-5.09c2.926.432 1.192 4.656 1.192 4.656l1.626 10.615h-2.818z"/>
        <path fill="#F9BCA7" d="M54.397 25.896s-.216 4.441-1.3 4.766c-1.084.325-4.12 3.9-2.71 4.982 1.409 1.083 9.538.325 9.538.325l-.759-5.632s-1.734-1.191-.325-3.25l-4.444-1.19z"/>
        <path fill="#F37B7B" d="M62.534 47.656H47.208c.055-.98.194-2.364.371-3.886.054-.461.112-.937.172-1.417.525-4.229 1.227-8.873 1.227-8.873l.184-.426 1.875-4.34.02.008 2.473.967.088.416.67 3.158 4.342-3.501 4.005-.626.27-.043.488 4.603s-.022 1.03-.044 2.495a379.874 379.874 0 0 0-.052 5.883c0 .926.008 1.779.027 2.459.015.573.038 1.024.07 1.294.072.614-.314 1.252-.86 1.83z"/>
        <path fill="#F37B7B" d="M51.146 29.255l-.108-.65-3.035-3.682-1.735-6.174-4.227 1.625 3.035 7.473 4.336 5.524 1.734-4.116z"/>
        <path fill="#F9C6A0" d="M62.888 43.974l-10.37.41s-5.714 1.308-4.95-1.548c.764-2.856 4.766-.653 4.766-.653l10.738-.404-.184 2.195z"/>
        <path fill="#F37B7B" d="M61.713 29.85l.975-.758s1.626-.866 1.951 2.166c.325 3.033 2.71 13.106.325 13.214-2.384.108-8.454.216-8.454.216l.65-3.357 4.986-.325-.433-11.156z"/>
        <path fill="url(#b)" d="M62.038 34.508l-.325 6.173-4.769.975 4.336-1.733.758-5.415z"/>
        <path fill="#2A92A0" d="M57.544 0H31.097v6.932h26.447V0z"/>
        <path fill="#292949" d="M115 57.284H0v.216h115v-.216z"/>
        <path fill="#2A92A0" d="M103.831 49.717c1.559 1.67 1.639 4.126 1.639 4.126s-2.446-.253-4.004-1.924c-1.558-1.67-1.638-4.126-1.638-4.126s2.445.253 4.003 1.924z"/>
        <path fill="#14787F" d="M108.737 52.325c-1.672 1.556-4.129 1.637-4.129 1.637s.253-2.444 1.925-4.001c1.672-1.557 4.13-1.637 4.13-1.637s-.254 2.443-1.926 4z"/>
        <path fill="#292949" d="M108.321 57.282h-6.15a.63.63 0 0 1-.566-.353l-1.339-2.75a.632.632 0 0 1 .261-.825.628.628 0 0 1 .305-.079h8.828a.633.633 0 0 1 .533.295.628.628 0 0 1 .032.609l-1.339 2.75a.625.625 0 0 1-.565.353z"/>
        <path fill="#14787F" d="M6.607 49.717c1.558 1.67 1.639 4.126 1.639 4.126S5.8 53.59 4.242 51.92c-1.558-1.67-1.639-4.126-1.639-4.126s2.446.253 4.004 1.924z"/>
        <path fill="#292949" d="M10.121 57.282h-6.15a.63.63 0 0 1-.565-.353l-1.34-2.75a.629.629 0 0 1 .566-.904h8.828a.628.628 0 0 1 .566.904l-1.34 2.75a.63.63 0 0 1-.565.353z"/>
        <path fill="#fff" d="M54.184 2.786H34.457v1.36h19.727v-1.36z"/>
        <path fill="#F9C6A0" d="M57.215 28.063a3.9 3.9 0 0 0 3.902-3.9 3.9 3.9 0 0 0-3.902-3.899 3.9 3.9 0 0 0-3.902 3.9 3.9 3.9 0 0 0 3.902 3.898z"/>
        <path fill="#422B1C" d="M52.089 24.63s1.341-1.842 2.515-2.178c1.174-.335 1.341-2.01 1.341-2.01s3.019 3.35 4.863 3.518c1.845.168.168-4.021.168-4.021l-3.354-.838-3.186.335-2.515 1.676.168 3.519z"/>
    </g>
    <defs>
        <linearGradient id="b" x1="56.946" x2="62.037" y1="38.087" y2="38.087" gradientUnits="userSpaceOnUse">
            <stop offset=".004" stop-color="#E36B6B"/>
            <stop offset="1" stop-color="#D45353"/>
        </linearGradient>
        <clipPath id="a">
            <path fill="#fff" d="M0 0h115v57.5H0z"/>
        </clipPath>
    </defs>
</svg>
