<svg xmlns="http://www.w3.org/2000/svg" width="275" height="30" fill="none" viewBox="0 0 275 30">
    <path fill="#fff" d="M12.614 0H37.85v29.587H12.614V0z"/>
    <path fill="#F00" d="M0 0h12.614v29.587H0V0zm37.85 0h12.614v29.587H37.857L37.85 0zM16.396 14.296l-.989.278 4.563 3.322c.348.85-.119 1.098-.418 1.55l4.945-.52-.118 4.13 1.03-.022-.23-4.103 4.96.491c-.306-.537-.578-.82-.3-1.676l4.556-3.15-.794-.242c-.655-.416.278-2.005.418-3.01 0 0-2.654.757-2.828.358l-.683-1.08-2.417 2.207c-.265.052-.376-.035-.439-.22l1.115-4.611-1.77.826c-.146.058-.292.012-.39-.133L24.902 5.86 23.146 8.8c-.133.105-.265.116-.376.047l-1.686-.786 1.017 4.571c-.084.185-.279.231-.502.133l-2.319-2.179c-.3.405-.502 1.058-.905 1.208-.398.139-1.742-.277-2.64-.439.306.919 1.267 2.444.661 2.947v-.006z"/>
    <path fill="#575757" d="M59.918 12.021V4.197h3.317c.36 0 .69.077.992.232.308.147.573.345.793.595.22.242.393.521.518.837.125.309.188.621.188.937 0 .33-.06.654-.177.97a2.695 2.695 0 0 1-.496.826c-.213.242-.47.437-.77.584-.302.147-.633.22-.993.22h-1.85v2.623h-1.522zm1.521-3.956h1.763c.28 0 .51-.114.694-.342.191-.227.287-.536.287-.925 0-.199-.03-.375-.088-.53a1.285 1.285 0 0 0-.232-.407.858.858 0 0 0-.341-.242.896.896 0 0 0-.386-.088H61.44v2.534zm6.932 4.066c-.595 0-1.047-.19-1.355-.573-.309-.382-.463-.947-.463-1.697V6.247h1.477v3.295c0 .889.32 1.333.958 1.333.294 0 .573-.085.838-.254.272-.176.492-.44.66-.793V6.247h1.477v4.077c0 .154.03.264.089.33.058.067.161.103.308.11v1.257a3.35 3.35 0 0 1-.407.055c-.118.015-.22.022-.31.022-.264 0-.473-.059-.627-.176a.825.825 0 0 1-.276-.507l-.033-.474a2.537 2.537 0 0 1-1.002.893 2.939 2.939 0 0 1-1.334.297zm8.376 0c-.441 0-.834-.099-1.18-.297a2.173 2.173 0 0 1-.815-.816v1.003h-1.29V3.977h1.477V7.26c.206-.353.474-.625.805-.816a2.265 2.265 0 0 1 1.168-.297c.374 0 .716.08 1.025.242.316.162.584.378.804.65.228.272.4.592.518.959.125.367.187.753.187 1.157 0 .419-.07.808-.21 1.168-.131.36-.319.676-.561.948a2.704 2.704 0 0 1-.86.628c-.33.154-.686.231-1.068.231zm-.408-1.256c.235 0 .448-.044.639-.132.198-.096.367-.22.507-.375a1.51 1.51 0 0 0 .33-.54 1.79 1.79 0 0 0 .122-.661c0-.235-.037-.46-.11-.672-.074-.213-.18-.4-.32-.562a1.502 1.502 0 0 0-.474-.386 1.294 1.294 0 0 0-.606-.143c-.33 0-.628.11-.893.33a2.135 2.135 0 0 0-.595.794v1.377c.052.147.125.28.22.397.104.117.217.22.342.309.125.08.261.146.408.198.147.044.29.066.43.066zm4.086-6.898h1.477v6.127c0 .448.201.672.606.672.08 0 .172-.015.275-.044.11-.03.213-.063.309-.1l.198 1.18c-.198.095-.43.169-.694.22a3.788 3.788 0 0 1-.717.077c-.462 0-.822-.121-1.08-.364-.25-.25-.374-.602-.374-1.057V3.977zm3.508 8.044V6.247h1.477v5.774h-1.477zm0-6.579V3.977h1.477v1.465h-1.477zm2.435 3.692c0-.404.07-.786.21-1.146.139-.36.34-.676.605-.948a2.95 2.95 0 0 1 .959-.65 3.17 3.17 0 0 1 1.267-.242c.632 0 1.168.136 1.609.407.448.272.782.629 1.003 1.07l-1.444.44a1.257 1.257 0 0 0-.496-.485 1.353 1.353 0 0 0-.683-.176c-.213 0-.411.044-.595.132a1.42 1.42 0 0 0-.485.353 1.696 1.696 0 0 0-.32.54 2.15 2.15 0 0 0-.11.705c0 .257.04.492.122.705.08.213.187.397.32.551.139.154.3.276.484.364.184.08.378.121.584.121.264 0 .507-.066.727-.198.228-.133.386-.294.474-.485l1.444.44c-.199.441-.526.801-.981 1.08-.456.28-1.003.42-1.642.42-.47 0-.892-.082-1.267-.243a2.95 2.95 0 0 1-.959-.65 3.065 3.065 0 0 1-.617-.96c-.14-.366-.21-.748-.21-1.145zm18.578-4.937v7.824h-1.51V8.682h-3.548v3.339h-1.52V4.197h1.52V7.36h3.548V4.197h1.51zm4.166 7.934c-.462 0-.881-.077-1.256-.231a2.953 2.953 0 0 1-.959-.65 2.944 2.944 0 0 1-.617-.948 3.124 3.124 0 0 1-.209-1.135c0-.411.07-.797.209-1.157a2.87 2.87 0 0 1 1.565-1.62 3.249 3.249 0 0 1 1.278-.242c.47 0 .889.08 1.257.242.374.162.69.378.947.65.265.272.463.588.595.948a3.074 3.074 0 0 1 .199 1.4.965.965 0 0 1-.022.22h-4.463c.022.227.077.43.165.606a1.49 1.49 0 0 0 .815.738c.177.066.36.1.551.1.294 0 .57-.07.827-.21.264-.147.444-.338.54-.573l1.267.352c-.213.441-.555.805-1.025 1.091-.463.28-1.017.42-1.664.42zm1.499-3.482c-.037-.433-.198-.779-.485-1.036a1.435 1.435 0 0 0-1.025-.396 1.45 1.45 0 0 0-.562.11 1.383 1.383 0 0 0-.451.286 1.58 1.58 0 0 0-.331.452 1.645 1.645 0 0 0-.143.584h2.997zm4.007 3.482c-.28 0-.54-.044-.783-.132a2.007 2.007 0 0 1-.628-.386 1.944 1.944 0 0 1-.419-.584 1.818 1.818 0 0 1-.143-.727c0-.272.059-.522.176-.75.125-.234.294-.433.507-.594.221-.162.482-.287.783-.375.301-.096.632-.143.991-.143.258 0 .507.022.75.066.25.044.47.106.661.187v-.33c0-.382-.11-.676-.331-.882-.213-.206-.532-.308-.958-.308-.309 0-.61.055-.904.165-.294.11-.595.272-.903.485l-.452-.937a4.261 4.261 0 0 1 2.402-.738c.83 0 1.473.205 1.928.617.463.404.695.992.695 1.763v1.796c0 .154.029.264.088.33.058.067.161.103.308.11v1.257c-.139.03-.272.048-.396.055a2.56 2.56 0 0 1-.309.022c-.279-.007-.492-.07-.639-.187a.818.818 0 0 1-.276-.496l-.033-.32a2.554 2.554 0 0 1-.936.772 2.694 2.694 0 0 1-1.179.264zm.418-1.08c.25 0 .485-.044.706-.132.227-.088.404-.206.529-.353.161-.125.242-.264.242-.418v-.661a3.249 3.249 0 0 0-.573-.155 2.84 2.84 0 0 0-.595-.066c-.382 0-.694.088-.937.265-.242.169-.363.385-.363.65 0 .25.095.459.286.628.191.162.426.242.705.242zm4.354-7.074h1.477v6.127c0 .448.202.672.606.672.081 0 .173-.015.275-.044.111-.03.213-.063.309-.1l.198 1.18a2.84 2.84 0 0 1-.694.22 3.783 3.783 0 0 1-.716.077c-.463 0-.823-.121-1.08-.364-.25-.25-.375-.602-.375-1.057V3.977zm6.84 7.746a6.42 6.42 0 0 1-.738.265 3.058 3.058 0 0 1-.904.132c-.206 0-.4-.026-.584-.077a1.387 1.387 0 0 1-.474-.242 1.303 1.303 0 0 1-.319-.441 1.631 1.631 0 0 1-.122-.661V7.382h-.749V6.247h.749V4.374h1.477v1.873h1.223v1.135h-1.223v2.82c0 .207.055.353.165.442.11.08.243.12.397.12.154 0 .305-.025.452-.076.147-.052.264-.096.352-.133l.298 1.168zm6.103.298h-1.477v-3.24c0-.455-.084-.79-.253-1.002-.169-.22-.408-.331-.717-.331-.132 0-.271.03-.418.088a1.553 1.553 0 0 0-.419.254 1.964 1.964 0 0 0-.364.374c-.11.147-.191.309-.242.485v3.372h-1.477V3.977h1.477v3.339c.213-.375.499-.661.859-.86a2.442 2.442 0 0 1 1.212-.308c.375 0 .68.066.915.198.235.125.419.294.551.507.132.213.224.455.276.727.051.272.077.551.077.838v3.603zM59.125 25.044l3.085-7.824h1.235l3.074 7.824H64.91l-.716-1.95H61.45l-.716 1.95h-1.609zm3.703-6.182l-1.124 3.162h2.214l-1.09-3.162zm6.63 6.215c-.381 0-.734-.077-1.057-.232a2.529 2.529 0 0 1-.815-.628 3.006 3.006 0 0 1-.53-.936 3.344 3.344 0 0 1-.187-1.124c0-.42.067-.808.199-1.168a3.03 3.03 0 0 1 .55-.948c.236-.272.515-.485.838-.64.33-.153.694-.23 1.091-.23.456 0 .852.102 1.19.308.338.198.614.466.827.804V19.27h1.289v5.498c0 .426-.081.808-.243 1.146a2.37 2.37 0 0 1-.66.86 3.048 3.048 0 0 1-1.014.54c-.39.125-.816.187-1.279.187-.639 0-1.175-.107-1.608-.32a3.183 3.183 0 0 1-1.102-.881l.804-.783c.22.272.496.485.826.64a2.57 2.57 0 0 0 1.08.231c.228 0 .445-.033.65-.1.213-.058.397-.153.551-.286.162-.132.287-.3.375-.507.096-.205.143-.448.143-.727v-.727c-.19.33-.459.588-.804.771a2.413 2.413 0 0 1-1.113.265zm.508-1.18c.161 0 .316-.025.463-.076a1.46 1.46 0 0 0 .396-.21c.125-.088.235-.19.33-.308.096-.118.17-.243.221-.375v-1.377a1.807 1.807 0 0 0-.617-.816 1.464 1.464 0 0 0-.881-.308c-.228 0-.437.051-.628.154a1.442 1.442 0 0 0-.474.397 1.811 1.811 0 0 0-.309.561c-.066.214-.099.434-.099.662a1.792 1.792 0 0 0 .452 1.2c.147.155.316.276.507.364.198.089.411.133.639.133zm6.896 1.257a3.27 3.27 0 0 1-1.256-.232 2.95 2.95 0 0 1-.96-.65 2.936 2.936 0 0 1-.616-.947c-.14-.36-.21-.739-.21-1.135 0-.412.07-.797.21-1.157a2.867 2.867 0 0 1 1.565-1.62 3.25 3.25 0 0 1 1.278-.243c.47 0 .889.081 1.256.243.375.162.69.378.948.65.264.272.462.588.595.948a3.084 3.084 0 0 1 .198 1.4.926.926 0 0 1-.022.22h-4.463c.022.227.077.43.165.605a1.497 1.497 0 0 0 1.367.838c.294 0 .57-.07.826-.21.265-.146.445-.337.54-.572l1.267.352c-.213.441-.554.805-1.024 1.091-.463.28-1.018.419-1.664.419zm1.498-3.482c-.036-.434-.198-.779-.484-1.036a1.434 1.434 0 0 0-1.025-.397c-.199 0-.386.037-.562.11-.17.067-.32.162-.452.287a1.598 1.598 0 0 0-.33.452c-.081.176-.13.37-.144.584h2.997zm7.787 3.372H84.67v-3.24c0-.463-.08-.8-.242-1.014a.797.797 0 0 0-.672-.32c-.147 0-.298.03-.452.089a1.67 1.67 0 0 0-.441.253 1.961 1.961 0 0 0-.364.375c-.11.147-.19.308-.242.485v3.372H80.78V19.27h1.334v1.069c.213-.368.521-.654.925-.86.404-.206.86-.309 1.367-.309.36 0 .653.066.881.199.228.132.404.305.53.518.124.213.208.455.253.727.05.272.077.547.077.826v3.604zm.91-2.887c0-.404.07-.786.209-1.146.14-.36.341-.676.606-.948.264-.272.584-.488.959-.65a3.17 3.17 0 0 1 1.267-.243c.632 0 1.168.136 1.609.408.448.272.782.628 1.002 1.069l-1.443.44a1.257 1.257 0 0 0-.496-.484 1.353 1.353 0 0 0-.683-.176c-.213 0-.412.044-.595.132a1.42 1.42 0 0 0-.485.352 1.697 1.697 0 0 0-.32.54 2.15 2.15 0 0 0-.11.706c0 .257.04.492.121.705.081.213.188.397.32.55.14.155.301.276.485.364.183.081.378.122.584.122.264 0 .507-.067.727-.199.228-.132.386-.294.474-.485l1.443.441c-.198.441-.525.801-.98 1.08-.456.28-1.003.419-1.642.419-.47 0-.893-.081-1.267-.243a2.95 2.95 0 0 1-.96-.65 3.065 3.065 0 0 1-.616-.958c-.14-.368-.21-.75-.21-1.146zm6.541 4.01c.133.037.254.063.364.078.11.014.206.022.287.022a.56.56 0 0 0 .462-.232c.074-.088.144-.213.21-.374.073-.155.15-.36.231-.617L92.86 19.27h1.52l1.577 4.495 1.388-4.495h1.388l-2.435 6.92c-.154.44-.4.778-.738 1.013a1.97 1.97 0 0 1-1.18.364c-.256 0-.517-.04-.782-.121v-1.278zm10.951-1.013c-.47 0-.892-.081-1.267-.243a2.949 2.949 0 0 1-.958-.65 2.98 2.98 0 0 1-.595-.958c-.14-.36-.21-.739-.21-1.135 0-.404.07-.786.21-1.146.139-.36.337-.676.595-.948.264-.28.584-.5.958-.661a3.17 3.17 0 0 1 1.267-.243c.471 0 .889.081 1.257.243.374.162.69.382.947.661.265.272.467.588.606.948.14.36.21.742.21 1.146 0 .396-.07.775-.21 1.135-.139.36-.338.68-.595.958a2.828 2.828 0 0 1-.947.65 3.172 3.172 0 0 1-1.268.243zm-1.509-2.986c0 .257.037.492.11.705.081.206.187.386.32.54.139.154.301.275.484.363.184.081.382.122.595.122.213 0 .412-.04.595-.122.184-.088.342-.209.474-.363.14-.154.246-.338.32-.551a1.97 1.97 0 0 0 .121-.705c0-.25-.04-.482-.121-.695a1.578 1.578 0 0 0-.32-.55 1.31 1.31 0 0 0-.474-.353 1.356 1.356 0 0 0-.595-.132c-.213 0-.411.044-.595.132-.183.088-.345.21-.484.363a1.829 1.829 0 0 0-.32.551c-.073.213-.11.445-.11.695zm5.835 2.876v-3.967h-.749v-1.135h.749v-.716c0-.72.173-1.29.518-1.709.353-.418.823-.628 1.411-.628.47 0 .943.114 1.421.342l-.298 1.113a1.659 1.659 0 0 0-.396-.143 1.427 1.427 0 0 0-.408-.066c-.514 0-.771.345-.771 1.035v.772h1.41v1.135h-1.41v3.967h-1.477zm5.967-3.967c0-.478.085-.948.254-1.41.169-.47.411-.89.727-1.257a3.76 3.76 0 0 1 1.179-.893c.463-.227.992-.341 1.587-.341.698 0 1.3.158 1.807.474.514.316.892.727 1.135 1.234l-1.168.804a1.703 1.703 0 0 0-.342-.55 1.827 1.827 0 0 0-.969-.551 2.097 2.097 0 0 0-.507-.067c-.36 0-.676.077-.948.232-.272.154-.5.356-.683.606a2.798 2.798 0 0 0-.408.837 3.36 3.36 0 0 0-.132.926c0 .345.051.68.154 1.003.11.315.261.595.452.837.198.242.433.437.705.584.272.147.57.22.893.22.169 0 .341-.022.518-.066.176-.044.345-.114.507-.21.168-.095.323-.216.462-.363.14-.154.254-.338.342-.55l1.245.716a2.3 2.3 0 0 1-.518.782 3.24 3.24 0 0 1-.76.562 3.987 3.987 0 0 1-1.84.474 3.222 3.222 0 0 1-1.499-.353 4.065 4.065 0 0 1-1.168-.914 4.447 4.447 0 0 1-.76-1.29 4.275 4.275 0 0 1-.265-1.476zm9.278 4.077c-.28 0-.54-.044-.783-.132a2.007 2.007 0 0 1-.628-.386 1.944 1.944 0 0 1-.419-.584 1.818 1.818 0 0 1-.143-.727c0-.272.059-.522.176-.75.125-.235.294-.433.507-.595.221-.161.481-.286.783-.374.301-.096.631-.144.991-.144.258 0 .507.023.75.067.249.044.47.106.661.187v-.33c0-.383-.11-.677-.331-.882-.213-.206-.532-.309-.958-.309-.309 0-.61.055-.904.165-.294.11-.595.272-.904.485l-.451-.936a4.261 4.261 0 0 1 2.402-.739c.83 0 1.473.206 1.928.617.463.405.694.992.694 1.764v1.796c0 .154.03.264.089.33.058.066.161.103.308.11v1.257a2.71 2.71 0 0 1-.397.055c-.117.014-.22.022-.308.022-.279-.008-.492-.07-.639-.188a.818.818 0 0 1-.276-.495l-.033-.32a2.554 2.554 0 0 1-.936.771 2.694 2.694 0 0 1-1.179.265zm.418-1.08c.25 0 .485-.044.705-.132.228-.088.405-.206.529-.353.162-.125.243-.264.243-.419v-.66a3.248 3.248 0 0 0-.573-.155 2.839 2.839 0 0 0-.595-.066c-.382 0-.694.088-.937.264-.242.17-.363.386-.363.65 0 .25.095.46.286.628.191.162.426.243.705.243zm9.732.97h-1.477v-3.24c0-.463-.081-.8-.242-1.014a.798.798 0 0 0-.673-.32c-.146 0-.297.03-.451.089a1.651 1.651 0 0 0-.441.253 1.963 1.963 0 0 0-.364.375c-.11.147-.191.308-.242.485v3.372h-1.477V19.27h1.334v1.069c.213-.368.521-.654.925-.86a2.97 2.97 0 0 1 1.367-.309c.36 0 .653.066.881.199.228.132.404.305.529.518.125.213.209.455.253.727.052.272.078.547.078.826v3.604zm2.849.11c-.279 0-.54-.044-.783-.132a2.018 2.018 0 0 1-.628-.386 1.924 1.924 0 0 1-.418-.584 1.802 1.802 0 0 1-.144-.727c0-.272.059-.522.177-.75.125-.235.293-.433.507-.595a2.49 2.49 0 0 1 .782-.374c.301-.096.632-.144.992-.144.257 0 .506.023.749.067.25.044.47.106.661.187v-.33c0-.383-.11-.677-.331-.882-.213-.206-.532-.309-.958-.309-.309 0-.61.055-.904.165-.294.11-.595.272-.903.485l-.452-.936a4.264 4.264 0 0 1 2.402-.739c.83 0 1.473.206 1.928.617.463.405.695.992.695 1.764v1.796c0 .154.029.264.088.33s.161.103.308.11v1.257c-.139.029-.271.047-.396.055a2.56 2.56 0 0 1-.309.022c-.279-.008-.492-.07-.639-.188a.812.812 0 0 1-.275-.495l-.034-.32a2.554 2.554 0 0 1-.936.771 2.69 2.69 0 0 1-1.179.265zm.418-1.08c.25 0 .485-.044.706-.132.227-.088.404-.206.529-.353.161-.125.242-.264.242-.419v-.66a3.248 3.248 0 0 0-.573-.155 2.839 2.839 0 0 0-.595-.066c-.382 0-.694.088-.937.264-.242.17-.363.386-.363.65 0 .25.095.46.286.628.191.162.426.243.705.243zm6.757 1.08a2.62 2.62 0 0 1-1.102-.232 2.633 2.633 0 0 1-.86-.639 3.1 3.1 0 0 1-.573-.947 3.46 3.46 0 0 1-.198-1.18c0-.418.062-.807.187-1.167.132-.36.312-.676.54-.948.228-.272.5-.485.816-.64a2.325 2.325 0 0 1 1.035-.23c.419 0 .797.102 1.135.308.346.206.614.474.805.804V17h1.476v6.347c0 .154.03.264.088.33.059.066.162.103.309.11v1.257a4.006 4.006 0 0 1-.705.077c-.272-.008-.485-.07-.639-.188a.779.779 0 0 1-.276-.495l-.033-.397a2.139 2.139 0 0 1-.859.837c-.36.184-.742.276-1.146.276zm.385-1.256c.14 0 .283-.022.43-.067a1.65 1.65 0 0 0 .408-.209 1.9 1.9 0 0 0 .341-.308c.103-.118.18-.247.232-.386v-1.377a1.794 1.794 0 0 0-.617-.805 1.431 1.431 0 0 0-.882-.32c-.22 0-.426.048-.617.144a1.437 1.437 0 0 0-.474.396 1.806 1.806 0 0 0-.308.563 2 2 0 0 0 .011 1.333c.081.206.191.386.33.54.147.154.316.275.507.363.199.089.412.133.639.133zm5.966 1.256c-.279 0-.54-.044-.782-.132a1.995 1.995 0 0 1-.628-.386 1.944 1.944 0 0 1-.419-.584 1.818 1.818 0 0 1-.143-.727c0-.272.059-.522.176-.75.125-.235.294-.433.507-.595a2.49 2.49 0 0 1 .782-.374c.302-.096.632-.144.992-.144.257 0 .507.023.749.067.25.044.471.106.662.187v-.33c0-.383-.111-.677-.331-.882-.213-.206-.533-.309-.959-.309-.308 0-.609.055-.903.165-.294.11-.595.272-.904.485l-.452-.936a4.264 4.264 0 0 1 2.403-.739c.83 0 1.472.206 1.928.617.463.405.694.992.694 1.764v1.796c0 .154.03.264.088.33.059.066.162.103.309.11v1.257c-.14.029-.272.047-.397.055-.117.014-.22.022-.308.022-.28-.008-.493-.07-.64-.188a.822.822 0 0 1-.275-.495l-.033-.32a2.55 2.55 0 0 1-.937.771c-.367.177-.76.265-1.179.265zm.419-1.08c.25 0 .485-.044.705-.132.228-.088.404-.206.529-.353.162-.125.243-.264.243-.419v-.66a3.295 3.295 0 0 0-.573-.155 2.839 2.839 0 0 0-.595-.066c-.382 0-.695.088-.937.264-.243.17-.364.386-.364.65 0 .25.096.46.287.628.191.162.426.243.705.243zM168.315 12.021l3.086-7.824h1.234l3.074 7.824H174.1l-.716-1.95h-2.744l-.716 1.95h-1.609zm3.703-6.182l-1.124 3.163h2.215l-1.091-3.163zm6.631 6.215c-.382 0-.734-.077-1.058-.231a2.54 2.54 0 0 1-.815-.629 3.004 3.004 0 0 1-.529-.936 3.339 3.339 0 0 1-.187-1.124c0-.419.066-.808.198-1.168.132-.36.316-.676.551-.948.235-.272.514-.485.838-.639.33-.154.694-.231 1.09-.231.456 0 .853.103 1.19.308.338.199.614.467.827.805V6.247h1.289v5.498c0 .427-.081.809-.242 1.147a2.385 2.385 0 0 1-.661.859 3.057 3.057 0 0 1-1.014.54 4.17 4.17 0 0 1-1.278.187c-.64 0-1.176-.106-1.609-.32a3.18 3.18 0 0 1-1.102-.88l.804-.783c.221.272.496.485.827.639a2.57 2.57 0 0 0 1.08.231c.227 0 .444-.033.65-.099.213-.059.396-.154.551-.286a1.31 1.31 0 0 0 .374-.507c.096-.206.144-.448.144-.728v-.727c-.191.33-.46.588-.805.772a2.411 2.411 0 0 1-1.113.264zm.507-1.179c.162 0 .316-.026.463-.077.147-.052.279-.121.397-.21a1.63 1.63 0 0 0 .33-.308c.096-.118.169-.242.221-.375V8.528a1.813 1.813 0 0 0-.617-.816 1.465 1.465 0 0 0-.882-.308c-.228 0-.437.051-.628.154a1.436 1.436 0 0 0-.474.397 1.804 1.804 0 0 0-.308.562 2.19 2.19 0 0 0-.1.661 1.788 1.788 0 0 0 .452 1.201c.147.154.316.276.507.364.198.088.411.132.639.132zm6.896 1.256a3.27 3.27 0 0 1-1.256-.231 2.953 2.953 0 0 1-.959-.65 2.944 2.944 0 0 1-.617-.948 3.124 3.124 0 0 1-.209-1.135c0-.411.07-.797.209-1.157a2.87 2.87 0 0 1 1.565-1.62 3.249 3.249 0 0 1 1.278-.242c.47 0 .889.08 1.256.242.375.162.691.378.948.65.264.272.463.588.595.948a3.073 3.073 0 0 1 .198 1.4.912.912 0 0 1-.022.22h-4.462c.022.227.077.43.165.606a1.496 1.496 0 0 0 .815.738c.177.066.36.1.551.1.294 0 .57-.07.827-.21.264-.147.444-.338.54-.573l1.267.352c-.213.441-.555.805-1.025 1.091-.463.28-1.017.42-1.664.42zm1.499-3.482c-.037-.433-.199-.779-.485-1.036a1.435 1.435 0 0 0-1.025-.396c-.198 0-.386.036-.562.11a1.398 1.398 0 0 0-.452.286 1.596 1.596 0 0 0-.33.452 1.668 1.668 0 0 0-.144.584h2.998zm7.786 3.372h-1.477v-3.24c0-.463-.08-.8-.242-1.013a.797.797 0 0 0-.672-.32c-.147 0-.298.03-.452.088a1.682 1.682 0 0 0-.441.254 1.96 1.96 0 0 0-.363.374 1.5 1.5 0 0 0-.243.485v3.372h-1.476V6.247h1.333v1.069c.213-.368.522-.654.926-.86a2.967 2.967 0 0 1 1.366-.308c.36 0 .654.066.881.198.228.132.405.305.529.518.125.213.21.455.254.727.051.272.077.548.077.827v3.603zm.91-2.887c0-.404.07-.786.209-1.146.14-.36.342-.676.606-.948.265-.272.584-.488.959-.65a3.17 3.17 0 0 1 1.267-.242c.632 0 1.168.136 1.609.407a2.6 2.6 0 0 1 1.003 1.07l-1.444.44a1.256 1.256 0 0 0-.496-.485 1.35 1.35 0 0 0-.683-.176c-.213 0-.411.044-.595.132-.184.08-.345.198-.485.353a1.685 1.685 0 0 0-.319.54 2.138 2.138 0 0 0-.111.705c0 .257.041.492.122.705.08.213.187.397.319.551.14.154.301.276.485.364.184.08.378.121.584.121.265 0 .507-.066.727-.198.228-.133.386-.294.474-.485l1.444.44c-.199.441-.526.801-.981 1.08-.456.28-1.003.42-1.642.42-.47 0-.892-.082-1.267-.243a2.953 2.953 0 0 1-.959-.65 3.075 3.075 0 0 1-.617-.96 3.212 3.212 0 0 1-.209-1.145zm9.261 2.997c-.463 0-.882-.077-1.256-.231a2.943 2.943 0 0 1-.959-.65 2.944 2.944 0 0 1-.617-.948 3.103 3.103 0 0 1-.209-1.135c0-.411.069-.797.209-1.157a2.86 2.86 0 0 1 1.565-1.62 3.249 3.249 0 0 1 1.278-.242c.47 0 .889.08 1.256.242.375.162.691.378.948.65.264.272.463.588.595.948a3.094 3.094 0 0 1 .198 1.4.912.912 0 0 1-.022.22h-4.463c.022.227.077.43.166.606a1.496 1.496 0 0 0 .815.738c.176.066.36.1.551.1.294 0 .569-.07.826-.21.265-.147.445-.338.54-.573l1.268.352c-.213.441-.555.805-1.025 1.091-.463.28-1.018.42-1.664.42zm1.499-3.482c-.037-.433-.199-.779-.485-1.036a1.435 1.435 0 0 0-1.025-.396c-.198 0-.386.036-.562.11-.169.066-.32.161-.452.286a1.596 1.596 0 0 0-.33.452 1.668 1.668 0 0 0-.144.584h2.998zm7.447 3.482a2.62 2.62 0 0 1-1.102-.231 2.63 2.63 0 0 1-.859-.64 3.062 3.062 0 0 1-.573-.947 3.437 3.437 0 0 1-.199-1.18c0-.418.063-.807.188-1.167.132-.36.312-.676.54-.948.227-.272.499-.485.815-.639a2.328 2.328 0 0 1 1.036-.231c.418 0 .797.103 1.135.308.345.206.613.474.804.805V3.977h1.477v6.347c0 .154.029.264.088.33.059.067.161.103.308.11v1.257a4.006 4.006 0 0 1-.705.077c-.272-.007-.485-.07-.639-.187a.774.774 0 0 1-.275-.496l-.033-.397c-.214.367-.5.647-.86.838-.36.183-.742.275-1.146.275zm.386-1.256c.139 0 .283-.022.429-.066a1.65 1.65 0 0 0 .408-.21c.125-.088.239-.19.342-.308.103-.118.18-.246.231-.386V8.528a1.788 1.788 0 0 0-.617-.805 1.43 1.43 0 0 0-.881-.32c-.221 0-.427.049-.618.144a1.443 1.443 0 0 0-.473.397 1.806 1.806 0 0 0-.309.562c-.073.213-.11.433-.11.661 0 .242.04.466.121.672.081.206.191.386.331.54.147.154.316.276.507.364.198.088.411.132.639.132zm7.068 1.256c-.463 0-.882-.077-1.257-.231a2.949 2.949 0 0 1-.958-.65 2.928 2.928 0 0 1-.617-.948c-.14-.36-.21-.738-.21-1.135 0-.411.07-.797.21-1.157.139-.367.341-.687.606-.959.264-.279.584-.5.958-.66a3.25 3.25 0 0 1 1.279-.243c.47 0 .888.08 1.256.242.374.162.69.378.947.65.265.272.463.588.595.948a3.074 3.074 0 0 1 .199 1.4.965.965 0 0 1-.022.22h-4.463c.022.227.077.43.165.606a1.49 1.49 0 0 0 .816.738c.176.066.36.1.551.1.294 0 .569-.07.826-.21.265-.147.445-.338.54-.573l1.267.352c-.213.441-.554.805-1.025 1.091-.462.28-1.017.42-1.663.42zm1.498-3.482c-.037-.433-.198-.779-.485-1.036a1.432 1.432 0 0 0-1.024-.396c-.199 0-.386.036-.562.11-.169.066-.32.161-.452.286a1.599 1.599 0 0 0-.331.452 1.667 1.667 0 0 0-.143.584h2.997zm5.046-4.672h1.476v6.127c0 .448.202.672.606.672.081 0 .173-.015.276-.044.11-.03.213-.063.308-.1l.199 1.18c-.199.095-.43.169-.695.22a3.783 3.783 0 0 1-.716.077c-.463 0-.823-.121-1.08-.364-.25-.25-.374-.602-.374-1.057V3.977zm5.095 8.154c-.28 0-.54-.044-.783-.132a2.007 2.007 0 0 1-.628-.386 1.944 1.944 0 0 1-.419-.584 1.818 1.818 0 0 1-.143-.727c0-.272.059-.522.176-.75.125-.234.294-.433.507-.594.221-.162.482-.287.783-.375.301-.096.632-.143.991-.143.258 0 .507.022.75.066.25.044.47.106.661.187v-.33c0-.382-.11-.676-.331-.882-.213-.206-.532-.308-.958-.308-.309 0-.61.055-.904.165-.294.11-.595.272-.903.485l-.452-.937a4.261 4.261 0 0 1 2.402-.738c.83 0 1.473.205 1.928.617.463.404.694.992.694 1.763v1.796c0 .154.03.264.089.33.058.067.161.103.308.11v1.257a2.71 2.71 0 0 1-.397.055c-.117.015-.22.022-.308.022-.279-.007-.492-.07-.639-.187a.818.818 0 0 1-.276-.496l-.033-.32a2.554 2.554 0 0 1-.936.772 2.694 2.694 0 0 1-1.179.264zm.418-1.08c.25 0 .485-.044.706-.132.227-.088.404-.206.528-.353.162-.125.243-.264.243-.418v-.661a3.249 3.249 0 0 0-.573-.155 2.84 2.84 0 0 0-.595-.066c-.382 0-.694.088-.937.265-.242.169-.363.385-.363.65 0 .25.095.459.286.628.191.162.426.242.705.242zm11.828-4.804a1.807 1.807 0 0 0-.286-.21 2.855 2.855 0 0 0-.496-.253 3.73 3.73 0 0 0-.628-.22 2.768 2.768 0 0 0-.694-.088c-.419 0-.731.077-.937.23-.206.155-.309.372-.309.651 0 .162.037.298.111.408.08.103.194.194.341.275.147.081.331.155.551.22.228.067.489.137.782.21.382.103.728.213 1.036.33.316.118.581.265.794.441.22.177.389.39.507.64.117.242.176.543.176.903 0 .419-.081.779-.243 1.08a1.967 1.967 0 0 1-.628.716c-.264.184-.573.32-.925.408-.353.08-.72.121-1.102.121a5.884 5.884 0 0 1-1.741-.264 5.382 5.382 0 0 1-1.543-.75l.672-1.31c.066.065.184.153.353.264.176.102.382.209.617.32.235.102.496.19.782.264.287.073.581.11.882.11.837 0 1.256-.268 1.256-.805a.679.679 0 0 0-.143-.44 1.225 1.225 0 0 0-.408-.309 3.882 3.882 0 0 0-.639-.242 29.12 29.12 0 0 0-.838-.232 8.03 8.03 0 0 1-.98-.33 2.773 2.773 0 0 1-.683-.43 1.597 1.597 0 0 1-.419-.573 2.105 2.105 0 0 1-.132-.782c0-.397.073-.75.22-1.058.147-.309.349-.566.606-.772.265-.205.569-.36.915-.462.345-.11.716-.166 1.113-.166.551 0 1.057.088 1.52.265a5.48 5.48 0 0 1 1.212.606l-.672 1.234zm3.508 5.884c-.28 0-.54-.044-.783-.132a2.007 2.007 0 0 1-.628-.386 1.944 1.944 0 0 1-.419-.584 1.818 1.818 0 0 1-.143-.727c0-.272.059-.522.177-.75.124-.234.293-.433.506-.594.221-.162.482-.287.783-.375.301-.096.632-.143.991-.143.258 0 .507.022.75.066.25.044.47.106.661.187v-.33c0-.382-.11-.676-.331-.882-.213-.206-.532-.308-.958-.308-.309 0-.61.055-.904.165-.294.11-.595.272-.903.485l-.452-.937a4.261 4.261 0 0 1 2.402-.738c.83 0 1.473.205 1.928.617.463.404.695.992.695 1.763v1.796c0 .154.029.264.088.33.058.067.161.103.308.11v1.257c-.139.03-.272.048-.396.055a2.56 2.56 0 0 1-.309.022c-.279-.007-.492-.07-.639-.187a.818.818 0 0 1-.276-.496l-.033-.32a2.554 2.554 0 0 1-.936.772 2.694 2.694 0 0 1-1.179.264zm.418-1.08c.25 0 .485-.044.706-.132.227-.088.404-.206.529-.353.161-.125.242-.264.242-.418v-.661a3.249 3.249 0 0 0-.573-.155 2.84 2.84 0 0 0-.595-.066c-.382 0-.694.088-.937.265-.242.169-.363.385-.363.65 0 .25.095.459.286.628.191.162.426.242.705.242zm9.732.97h-1.477v-3.24c0-.463-.081-.8-.242-1.013a.797.797 0 0 0-.672-.32c-.147 0-.298.03-.452.088a1.666 1.666 0 0 0-.441.254 1.994 1.994 0 0 0-.364.374c-.11.147-.191.309-.242.485v3.372h-1.477V6.247h1.334v1.069c.213-.368.521-.654.925-.86a2.97 2.97 0 0 1 1.367-.308c.36 0 .653.066.881.198.228.132.404.305.529.518a2.1 2.1 0 0 1 .254.727c.051.272.077.548.077.827v3.603zm4.712-.298a6.374 6.374 0 0 1-.739.265 3.047 3.047 0 0 1-.903.132c-.206 0-.401-.026-.584-.077a1.37 1.37 0 0 1-.474-.242 1.319 1.319 0 0 1-.32-.441 1.649 1.649 0 0 1-.121-.661V7.382h-.749V6.247h.749V4.374h1.477v1.873h1.223v1.135h-1.223v2.82c0 .207.055.353.165.442.11.08.242.12.397.12.154 0 .305-.025.451-.076a6.74 6.74 0 0 0 .353-.133l.298 1.168zm3.788-6.148l-.947-.287.595-1.311h1.377l-1.025 1.598zm-.363 6.556c-.463 0-.882-.077-1.256-.231a2.943 2.943 0 0 1-.959-.65 2.928 2.928 0 0 1-.617-.948c-.14-.36-.21-.738-.21-1.135 0-.411.07-.797.21-1.157.139-.367.341-.687.606-.959.264-.279.584-.5.959-.66a3.249 3.249 0 0 1 1.278-.243c.47 0 .889.08 1.256.242.375.162.691.378.948.65.264.272.462.588.595.948a3.094 3.094 0 0 1 .198 1.4.912.912 0 0 1-.022.22h-4.463c.022.227.077.43.166.606a1.496 1.496 0 0 0 .815.738c.176.066.36.1.551.1.294 0 .569-.07.826-.21.265-.147.445-.338.54-.573l1.267.352c-.213.441-.554.805-1.024 1.091-.463.28-1.018.42-1.664.42zm1.498-3.482c-.036-.433-.198-.779-.484-1.036a1.436 1.436 0 0 0-1.025-.396c-.199 0-.386.036-.562.11-.169.066-.32.161-.452.286a1.618 1.618 0 0 0-.331.452 1.69 1.69 0 0 0-.143.584h2.997zm-96.682 16.505c-.449 0-.842-.1-1.18-.298a2.203 2.203 0 0 1-.793-.826v3.36h-1.476v-8.12h1.289v.991c.213-.338.488-.602.826-.793a2.264 2.264 0 0 1 1.168-.298c.39 0 .75.081 1.08.243.331.154.614.367.849.639.242.264.429.58.562.948.139.36.209.742.209 1.146 0 .418-.062.811-.187 1.179a2.974 2.974 0 0 1-.529.958 2.358 2.358 0 0 1-.805.64 2.23 2.23 0 0 1-1.013.23zm-.485-1.256c.22 0 .422-.048.606-.144.191-.095.352-.224.485-.385.132-.162.235-.35.308-.562a2 2 0 0 0-.011-1.334 1.639 1.639 0 0 0-.848-.914 1.483 1.483 0 0 0-.628-.132c-.14 0-.283.025-.43.077-.147.044-.283.11-.408.198a1.94 1.94 0 0 0-.342.309 1.371 1.371 0 0 0-.22.385v1.356a2 2 0 0 0 .606.826c.272.213.566.32.882.32zm5.761 1.256c-.595 0-1.047-.191-1.355-.573-.309-.382-.463-.948-.463-1.697V19.27h1.476v3.294c0 .89.32 1.334.959 1.334.294 0 .573-.085.837-.254.272-.176.493-.44.662-.793V19.27h1.476v4.077c0 .154.03.264.088.33.059.066.162.103.309.11v1.257c-.154.029-.29.047-.408.055-.117.014-.22.022-.308.022-.265 0-.474-.059-.628-.176a.826.826 0 0 1-.276-.507l-.033-.474a2.535 2.535 0 0 1-1.003.892 2.936 2.936 0 0 1-1.333.298zm8.375 0c-.44 0-.833-.1-1.179-.298a2.17 2.17 0 0 1-.815-.815v1.003h-1.289V17h1.476v3.283c.206-.352.474-.624.805-.815a2.262 2.262 0 0 1 1.168-.298c.374 0 .716.081 1.024.243.316.162.584.378.805.65.228.272.4.591.518.959.125.367.187.753.187 1.157 0 .418-.07.808-.209 1.168-.133.36-.32.675-.562.947a2.708 2.708 0 0 1-.86.628c-.33.155-.687.232-1.069.232zm-.407-1.256c.235 0 .448-.044.639-.133.198-.095.367-.22.507-.374.147-.154.257-.334.33-.54.081-.206.121-.426.121-.661 0-.235-.036-.46-.11-.673-.073-.212-.18-.4-.319-.561a1.518 1.518 0 0 0-.474-.386 1.296 1.296 0 0 0-.606-.143c-.331 0-.628.11-.893.33a2.14 2.14 0 0 0-.595.794v1.377c.052.147.125.28.221.397.102.117.216.22.341.308.125.081.261.147.408.198.147.045.29.067.43.067zM189.734 17h1.476v6.126c0 .448.202.672.606.672.081 0 .173-.014.276-.044.11-.029.213-.062.308-.099l.199 1.18c-.199.095-.43.168-.695.22a3.783 3.783 0 0 1-.716.077c-.463 0-.823-.121-1.08-.364-.249-.25-.374-.602-.374-1.058V17zm3.508 8.044V19.27h1.477v5.774h-1.477zm0-6.579V17h1.477v1.465h-1.477zm4.969 6.689c-.367 0-.705-.077-1.014-.232a2.634 2.634 0 0 1-.804-.65 3.096 3.096 0 0 1-.518-.947 3.636 3.636 0 0 1-.188-1.18c0-.418.067-.808.199-1.167.139-.36.33-.673.573-.937a2.63 2.63 0 0 1 .859-.64 2.5 2.5 0 0 1 1.069-.23 2.2 2.2 0 0 1 1.168.308c.338.198.614.463.827.793V19.27h1.289v6.347c0 .161.029.271.088.33.059.066.162.103.309.11v1.257a3.347 3.347 0 0 1-.419.044 4.276 4.276 0 0 1-.397.022 1.06 1.06 0 0 1-.749-.287.915.915 0 0 1-.309-.716V24.03a2.187 2.187 0 0 1-.826.848 2.386 2.386 0 0 1-1.157.276zm.551-1.256c.316 0 .591-.088.826-.265.235-.176.437-.404.606-.683v-1.366a1.355 1.355 0 0 0-.22-.452 1.604 1.604 0 0 0-.342-.364 1.5 1.5 0 0 0-.429-.253 1.296 1.296 0 0 0-.463-.088c-.228 0-.437.047-.628.143a1.55 1.55 0 0 0-.485.396 2.012 2.012 0 0 0-.32.563c-.073.213-.11.433-.11.66 0 .243.037.467.11.673.081.206.188.386.32.54a1.506 1.506 0 0 0 1.135.496zm5.992 1.256c-.595 0-1.046-.191-1.355-.573-.308-.382-.463-.948-.463-1.697V19.27h1.477v3.294c0 .89.319 1.334.959 1.334.293 0 .573-.085.837-.254.272-.176.492-.44.661-.793V19.27h1.477v4.077c0 .154.029.264.088.33s.161.103.308.11v1.257c-.154.029-.29.047-.407.055a2.56 2.56 0 0 1-.309.022c-.264 0-.474-.059-.628-.176a.82.82 0 0 1-.275-.507l-.033-.474a2.542 2.542 0 0 1-1.003.892 2.94 2.94 0 0 1-1.334.298zm7.781 0c-.463 0-.882-.077-1.256-.232a2.943 2.943 0 0 1-.959-.65 2.928 2.928 0 0 1-.617-.947c-.14-.36-.21-.739-.21-1.135 0-.412.07-.797.21-1.157.139-.368.341-.687.606-.959.264-.28.584-.5.959-.661a3.25 3.25 0 0 1 1.278-.243c.47 0 .889.081 1.256.243.375.162.691.378.948.65.264.272.462.588.595.948a3.094 3.094 0 0 1 .198 1.4.91.91 0 0 1-.022.22h-4.463c.022.227.077.43.166.605a1.496 1.496 0 0 0 .815.738c.176.067.36.1.551.1.294 0 .569-.07.826-.21.265-.146.445-.337.54-.572l1.267.352c-.213.441-.554.805-1.024 1.091-.463.28-1.018.419-1.664.419zm1.498-3.482c-.036-.434-.198-.779-.484-1.036a1.436 1.436 0 0 0-1.025-.397c-.199 0-.386.037-.562.11-.169.067-.32.162-.452.287a1.619 1.619 0 0 0-.331.452c-.08.176-.128.37-.143.584h2.997zm7.448 3.482a2.62 2.62 0 0 1-1.102-.232 2.619 2.619 0 0 1-.859-.639 3.062 3.062 0 0 1-.573-.947 3.437 3.437 0 0 1-.199-1.18c0-.418.063-.807.187-1.167.133-.36.313-.676.54-.948.228-.272.5-.485.816-.64a2.33 2.33 0 0 1 1.036-.23c.418 0 .797.102 1.135.308.345.206.613.474.804.804V17h1.477v6.347c0 .154.029.264.088.33s.161.103.308.11v1.257a4.006 4.006 0 0 1-.705.077c-.272-.008-.485-.07-.639-.188a.779.779 0 0 1-.276-.495l-.033-.397a2.139 2.139 0 0 1-.859.837c-.36.184-.742.276-1.146.276zm.386-1.256c.139 0 .282-.022.429-.067a1.65 1.65 0 0 0 .408-.209c.125-.088.239-.19.342-.308.103-.118.18-.247.231-.386v-1.377a1.794 1.794 0 0 0-.617-.805 1.431 1.431 0 0 0-.882-.32c-.22 0-.426.048-.617.144a1.443 1.443 0 0 0-.473.396 1.788 1.788 0 0 0-.309.563c-.073.213-.11.433-.11.66 0 .243.04.467.121.673.081.206.191.386.331.54.147.154.315.275.506.363.199.089.412.133.64.133zm6.142 1.256c-.595 0-1.047-.191-1.355-.573-.309-.382-.463-.948-.463-1.697V19.27h1.476v3.294c0 .89.32 1.334.959 1.334.294 0 .573-.085.837-.254.272-.176.493-.44.662-.793V19.27h1.476v4.077c0 .154.03.264.088.33.059.066.162.103.309.11v1.257c-.154.029-.29.047-.408.055-.117.014-.22.022-.308.022-.265 0-.474-.059-.629-.176a.83.83 0 0 1-.275-.507l-.033-.474a2.542 2.542 0 0 1-1.003.892 2.94 2.94 0 0 1-1.333.298zm7.419-4.077c0-.478.085-.948.254-1.41.169-.47.411-.89.727-1.257a3.76 3.76 0 0 1 1.179-.893c.463-.227.992-.341 1.587-.341.698 0 1.3.158 1.807.474.514.316.893.727 1.135 1.234l-1.168.804a1.703 1.703 0 0 0-.342-.55 1.647 1.647 0 0 0-.462-.364 1.845 1.845 0 0 0-.507-.188 2.097 2.097 0 0 0-.507-.066c-.36 0-.676.077-.948.232a2.166 2.166 0 0 0-.683.606 2.798 2.798 0 0 0-.408.837 3.36 3.36 0 0 0-.132.926c0 .345.051.68.154 1.003.111.315.261.595.452.837.198.242.434.437.705.584.272.147.57.22.893.22.169 0 .342-.022.518-.066.176-.044.345-.114.507-.21.169-.095.323-.216.463-.363.139-.154.253-.338.341-.55l1.245.716a2.3 2.3 0 0 1-.518.782 3.22 3.22 0 0 1-.76.562 3.97 3.97 0 0 1-1.84.474 3.222 3.222 0 0 1-1.499-.353 4.065 4.065 0 0 1-1.168-.914 4.47 4.47 0 0 1-.76-1.29 4.299 4.299 0 0 1-.265-1.476zm9.278 4.077c-.279 0-.54-.044-.783-.132a2.018 2.018 0 0 1-.628-.386 1.924 1.924 0 0 1-.418-.584 1.802 1.802 0 0 1-.144-.727c0-.272.059-.522.177-.75.124-.235.293-.433.506-.595.221-.161.482-.286.783-.374.301-.096.632-.144.992-.144.257 0 .506.023.749.067.25.044.47.106.661.187v-.33c0-.383-.11-.677-.331-.882-.213-.206-.532-.309-.958-.309-.309 0-.61.055-.904.165-.294.11-.595.272-.903.485l-.452-.936a4.264 4.264 0 0 1 2.402-.739c.83 0 1.473.206 1.928.617.463.405.695.992.695 1.764v1.796c0 .154.029.264.088.33s.161.103.308.11v1.257c-.139.029-.272.047-.396.055a2.56 2.56 0 0 1-.309.022c-.279-.008-.492-.07-.639-.188a.818.818 0 0 1-.276-.495l-.033-.32a2.554 2.554 0 0 1-.936.771 2.694 2.694 0 0 1-1.179.265zm.418-1.08c.25 0 .485-.044.706-.132.227-.088.404-.206.529-.353.161-.125.242-.264.242-.419v-.66a3.248 3.248 0 0 0-.573-.155 2.839 2.839 0 0 0-.595-.066c-.382 0-.694.088-.937.264-.242.17-.363.386-.363.65 0 .25.095.46.286.628.191.162.426.243.705.243zm9.732.97h-1.477v-3.24c0-.463-.081-.8-.242-1.014a.797.797 0 0 0-.672-.32c-.147 0-.298.03-.452.089a1.682 1.682 0 0 0-.441.253 1.993 1.993 0 0 0-.364.375c-.11.147-.191.308-.242.485v3.372h-1.477V19.27h1.334v1.069c.213-.368.521-.654.925-.86a2.97 2.97 0 0 1 1.367-.309c.36 0 .654.066.881.199.228.132.404.305.529.518.125.213.21.455.254.727.051.272.077.547.077.826v3.604zm2.849.11c-.279 0-.54-.044-.782-.132a2.012 2.012 0 0 1-.629-.386 1.941 1.941 0 0 1-.418-.584 1.801 1.801 0 0 1-.143-.727c0-.272.058-.522.176-.75.125-.235.294-.433.507-.595a2.49 2.49 0 0 1 .782-.374c.301-.096.632-.144.992-.144.257 0 .507.023.749.067.25.044.47.106.661.187v-.33c0-.383-.11-.677-.33-.882-.213-.206-.533-.309-.959-.309-.309 0-.61.055-.904.165-.293.11-.595.272-.903.485l-.452-.936a4.264 4.264 0 0 1 2.402-.739c.83 0 1.473.206 1.929.617.462.405.694.992.694 1.764v1.796c0 .154.029.264.088.33s.162.103.309.11v1.257c-.14.029-.272.047-.397.055a2.56 2.56 0 0 1-.309.022c-.279-.008-.492-.07-.639-.188a.812.812 0 0 1-.275-.495l-.033-.32c-.257.338-.57.595-.937.771-.367.177-.76.265-1.179.265zm.419-1.08c.249 0 .485-.044.705-.132.228-.088.404-.206.529-.353.161-.125.242-.264.242-.419v-.66a3.248 3.248 0 0 0-.573-.155 2.832 2.832 0 0 0-.595-.066c-.382 0-.694.088-.936.264-.243.17-.364.386-.364.65 0 .25.095.46.286.628.191.162.427.243.706.243zm6.756 1.08a2.62 2.62 0 0 1-1.102-.232 2.633 2.633 0 0 1-.86-.639 3.1 3.1 0 0 1-.573-.947 3.46 3.46 0 0 1-.198-1.18c0-.418.063-.807.187-1.167.133-.36.313-.676.54-.948.228-.272.5-.485.816-.64a2.33 2.33 0 0 1 1.036-.23c.418 0 .797.102 1.135.308.345.206.613.474.804.804V17h1.477v6.347c0 .154.029.264.088.33.058.066.161.103.308.11v1.257a4.006 4.006 0 0 1-.705.077c-.272-.008-.485-.07-.639-.188a.779.779 0 0 1-.276-.495l-.033-.397a2.139 2.139 0 0 1-.859.837c-.36.184-.742.276-1.146.276zm.385-1.256c.14 0 .283-.022.43-.067a1.65 1.65 0 0 0 .408-.209c.125-.088.239-.19.342-.308.102-.118.18-.247.231-.386v-1.377a1.794 1.794 0 0 0-.617-.805 1.431 1.431 0 0 0-.882-.32c-.22 0-.426.048-.617.144a1.457 1.457 0 0 0-.474.396 1.806 1.806 0 0 0-.308.563 2 2 0 0 0 .011 1.333c.081.206.191.386.33.54.147.154.316.275.507.363.199.089.412.133.639.133zm5.966 1.256c-.279 0-.539-.044-.782-.132a2.007 2.007 0 0 1-.628-.386 1.944 1.944 0 0 1-.419-.584 1.818 1.818 0 0 1-.143-.727c0-.272.059-.522.176-.75.125-.235.294-.433.507-.595.221-.161.481-.286.783-.374.301-.096.631-.144.991-.144.257 0 .507.023.75.067.249.044.47.106.661.187v-.33c0-.383-.11-.677-.331-.882-.213-.206-.532-.309-.958-.309-.309 0-.61.055-.904.165-.294.11-.595.272-.904.485l-.451-.936a4.261 4.261 0 0 1 2.402-.739c.83 0 1.473.206 1.928.617.463.405.694.992.694 1.764v1.796c0 .154.03.264.088.33.059.066.162.103.309.11v1.257c-.14.029-.272.047-.397.055-.117.014-.22.022-.308.022-.279-.008-.492-.07-.639-.188a.818.818 0 0 1-.276-.495l-.033-.32a2.554 2.554 0 0 1-.936.771 2.695 2.695 0 0 1-1.18.265zm.419-1.08c.25 0 .485-.044.705-.132.228-.088.404-.206.529-.353.162-.125.243-.264.243-.419v-.66a3.295 3.295 0 0 0-.573-.155 2.839 2.839 0 0 0-.595-.066c-.382 0-.694.088-.937.264-.242.17-.364.386-.364.65 0 .25.096.46.287.628.191.162.426.243.705.243z"/>
</svg>
