<svg xmlns="http://www.w3.org/2000/svg" width="29" height="58" fill="none" viewBox="0 0 29 58">
    <path fill="#292949" d="M28.888 13.783h-.318v-8.73A5.059 5.059 0 0 0 25.454.385 5.043 5.043 0 0 0 23.523 0H5.047A5.042 5.042 0 0 0 .384 3.12 5.058 5.058 0 0 0 0 5.052v47.894a5.057 5.057 0 0 0 3.116 4.668A5.043 5.043 0 0 0 5.047 58h18.476a5.043 5.043 0 0 0 4.663-3.12c.253-.612.384-1.27.384-1.933v-32.95h.318v-6.214z"/>
    <path fill="#2A92A0" d="M27.495 5.351v47.825a3.776 3.776 0 0 1-3.769 3.774H5.162a3.767 3.767 0 0 1-3.769-3.774V5.35a3.775 3.775 0 0 1 3.769-3.773h2.252a1.794 1.794 0 0 0 1.658 2.47h10.585a1.79 1.79 0 0 0 1.78-1.61 1.794 1.794 0 0 0-.122-.86h2.411a3.767 3.767 0 0 1 3.769 3.773z"/>
    <path fill="#292949" d="M17.208 33.112h-5.53v1.64h5.53v-1.64zM23.896 20.337H4.994v.703h18.902v-.703zM23.896 22.563H4.994v.704h18.902v-.704zM23.896 24.79H4.994v.703h18.902v-.703zM23.896 27.017H4.994v.704h18.902v-.704zM23.896 29.244H4.994v.704h18.902v-.704z"/>
    <path fill="#FFD147" d="M15.104 11h-3.278v3.281h3.278V11z"/>
    <path fill="#E3EFF0" d="M27.495 48.068v5.107a3.776 3.776 0 0 1-3.769 3.774H5.162a3.767 3.767 0 0 1-3.769-3.774V27.424l15.64 12.37.268.211 2.91 2.3.271.216 7.013 5.547z" opacity=".1"/>
    <path fill="#FFD147" d="M12.838 55.4a5.874 5.874 0 0 0 5.87-5.878 5.874 5.874 0 0 0-5.87-5.877 5.874 5.874 0 0 0-5.87 5.877 5.874 5.874 0 0 0 5.87 5.877z"/>
    <path fill="#292949" d="M14.569 54.056a7.355 7.355 0 0 1-6.8-4.549 7.377 7.377 0 0 1 1.595-8.03 7.359 7.359 0 0 1 8.022-1.598 7.362 7.362 0 0 1 4.543 6.808 7.381 7.381 0 0 1-2.158 5.208 7.365 7.365 0 0 1-5.202 2.16zm0-14.47a7.087 7.087 0 0 0-6.553 4.384 7.108 7.108 0 0 0 1.537 7.738 7.09 7.09 0 0 0 12.109-5.02 7.113 7.113 0 0 0-2.08-5.02 7.097 7.097 0 0 0-5.013-2.082z"/>
</svg>
