<svg width="220" height="169" viewBox="0 0 220 169" fill="none" xmlns="http://www.w3.org/2000/svg">
<path opacity="0.7" d="M130.024 136.068C150.371 136.068 166.865 135.392 166.865 134.558C166.865 133.724 150.371 133.048 130.024 133.048C109.677 133.048 93.1821 133.724 93.1821 134.558C93.1821 135.392 109.677 136.068 130.024 136.068Z" fill="#D0E3E5"/>
<path d="M153.501 87.0015C156.627 58.9235 146.654 33.4008 128.501 30.5015L123.098 29.8689L119.736 29.5073L119.503 31.5975C104.723 36.3264 92.2301 55.0465 89.6088 78.5881C86.9874 102.13 95.0548 123.157 108.43 131.046L108.198 133.136L116.969 134.079C135.312 135.277 150.375 115.079 153.501 87.0015Z" fill="#C5472A"/>
<path d="M147.9 85.1353C151.087 56.5195 138.482 31.6169 119.746 29.5138C101.009 27.4107 83.2368 48.9034 80.0495 77.5192C76.8622 106.135 89.4672 131.038 108.204 133.141C126.94 135.244 144.713 113.751 147.9 85.1353Z" fill="white"/>
<path d="M118.83 37.6476C122.692 38.0804 126.309 39.6553 129.577 42.3258C132.737 44.9067 135.445 48.4009 137.626 52.71C139.808 57.0191 141.349 61.9217 142.211 67.2831C143.102 72.8298 143.221 78.6327 142.563 84.5326C141.906 90.4325 140.514 96.066 138.425 101.278C136.406 106.317 133.824 110.756 130.748 114.476C127.673 118.196 124.264 121.003 120.615 122.82C116.84 124.7 112.967 125.434 109.104 124.999C105.241 124.567 101.625 122.992 98.3563 120.321C95.1971 117.74 92.4893 114.246 90.3077 109.937C88.1261 105.628 86.5847 100.725 85.7225 95.364C84.8314 89.8173 84.7132 84.0144 85.3707 78.1145C86.0282 72.2146 87.4196 66.5811 89.5089 61.3687C91.5275 56.3301 94.11 51.8907 97.1855 48.1707C100.261 44.4522 103.67 41.6441 107.319 39.8275C111.094 37.9472 114.967 37.2134 118.83 37.6476ZM119.735 29.5085C100.999 27.4068 83.228 48.9002 80.0415 77.5167C76.8549 106.133 89.4613 131.035 108.197 133.137C126.933 135.239 144.704 113.745 147.891 85.129C151.077 56.5125 138.471 31.6102 119.735 29.5085Z" fill="#F37558"/>
<path d="M116.544 58.1695C120.593 58.624 124.132 61.4596 126.508 66.1538C128.884 70.8479 129.814 76.839 129.125 83.024C128.436 89.2091 126.212 94.8455 122.861 98.897C119.512 102.948 115.436 104.93 111.387 104.476C107.338 104.021 103.799 101.185 101.423 96.4913C99.047 91.7972 98.117 85.8061 98.8062 79.621C99.4954 73.436 101.719 67.7996 105.07 63.7481C108.419 59.6966 112.495 57.715 116.544 58.1695ZM117.45 50.0304C106.135 48.761 95.4019 61.7419 93.4784 79.0232C91.555 96.3046 99.1667 111.344 110.483 112.613C121.797 113.883 132.531 100.902 134.454 83.6204C136.377 66.3391 128.766 51.2999 117.45 50.0304Z" fill="#F37558"/>
<path d="M120.113 82.0175C120.69 76.8384 118.409 72.3314 115.019 71.9509C111.628 71.5703 108.412 75.4603 107.836 80.6394C107.259 85.8185 109.539 90.3255 112.93 90.7061C116.32 91.0867 119.536 87.1967 120.113 82.0175Z" fill="#F37558"/>
<path d="M25.1821 110.244C24.9788 110.244 24.7741 110.17 24.6126 110.02C24.2752 109.704 24.255 109.173 24.5708 108.834L31.5149 101.342C31.8292 101.003 32.3584 100.983 32.6958 101.3C33.0332 101.616 33.0534 102.147 32.7376 102.485L25.7935 109.978C25.6291 110.156 25.4056 110.245 25.1807 110.245L25.1821 110.244Z" fill="white"/>
<path opacity="0.7" d="M51.1302 132.819C67.8532 132.819 81.4098 132.045 81.4098 131.092C81.4098 130.138 67.8532 129.365 51.1302 129.365C34.4072 129.365 20.8506 130.138 20.8506 131.092C20.8506 132.045 34.4072 132.819 51.1302 132.819Z" fill="#D0E3E5"/>
<path d="M41.585 100.281C41.585 100.281 40.7712 86.9144 35.5641 84.463C30.3571 82.0117 29.7678 89.4493 29.7678 89.4493L41.585 100.28L41.585 100.281Z" fill="#785FB3"/>
<path d="M40.176 101.709C40.176 101.709 26.8016 101.067 24.2821 95.8934C21.7626 90.7195 29.6232 89.596 29.6232 89.596L40.1755 101.708L40.176 101.709Z" fill="#32205C"/>
<path d="M29.77 89.4478L29.4793 89.7424L29.1886 90.0369C29.1886 90.0369 44.705 106.883 50.3605 112.443L52.4557 110.32C46.8207 104.739 29.7712 89.4466 29.7712 89.4466L29.77 89.4478Z" fill="#574485"/>
<path d="M52.5825 110.448C52.5421 110.407 52.5006 110.365 52.4573 110.324L50.3623 112.447C50.4044 112.489 50.4465 112.529 50.488 112.57C53.2544 115.278 61.9386 122.939 61.9386 122.939L62.5205 122.349L63.1025 121.76C63.1025 121.76 55.3272 113.178 52.5825 110.448Z" fill="#DDDDDD"/>
<path d="M62.8306 122.038L71.2205 130.774C71.2886 130.845 71.1858 130.95 71.1137 130.883L62.2222 122.653L62.83 122.038L62.8306 122.038Z" fill="#434A59"/>
<path opacity="0.7" d="M118.154 154.537C134.877 154.537 148.434 153.764 148.434 152.81C148.434 151.856 134.877 151.083 118.154 151.083C101.431 151.083 87.8745 151.856 87.8745 152.81C87.8745 153.764 101.431 154.537 118.154 154.537Z" fill="#D0E3E5"/>
<path d="M98.172 141.969C98.172 141.969 90.5686 130.945 84.8439 131.537C79.1192 132.129 82.4577 138.801 82.4577 138.801L98.1714 141.968L98.172 141.969Z" fill="#FF9776"/>
<path d="M97.7017 143.921C97.7017 143.921 85.9196 150.283 81.0891 147.155C76.2586 144.027 82.4082 139.003 82.4082 139.003L97.7009 143.921L97.7017 143.921Z" fill="#C5472A"/>
<path d="M82.4566 138.796L82.3599 139.199L82.2632 139.601C82.2632 139.601 104.252 146.007 111.967 147.845L112.664 144.945C104.956 143.078 82.457 138.795 82.457 138.795L82.4566 138.796Z" fill="#F37558"/>
<path d="M112.84 144.99C112.784 144.976 112.727 144.961 112.669 144.948L111.972 147.848C112.03 147.863 112.087 147.875 112.143 147.889C115.911 148.778 127.304 150.85 127.304 150.85L127.498 150.044L127.692 149.239C127.692 149.239 116.601 145.909 112.84 144.99Z" fill="#DDDDDD"/>
<path d="M127.603 149.617L139.3 152.762C139.395 152.788 139.361 152.93 139.265 152.91L127.4 150.459L127.602 149.618L127.603 149.617Z" fill="#434A59"/>
<path opacity="0.7" d="M188.964 146.495C205.687 146.495 219.244 145.722 219.244 144.768C219.244 143.814 205.687 143.041 188.964 143.041C172.241 143.041 158.685 143.814 158.685 144.768C158.685 145.722 172.241 146.495 188.964 146.495Z" fill="#D0E3E5"/>
<path d="M200.877 137.559C200.877 137.559 209.516 127.327 215.156 128.472C220.796 129.618 216.825 135.934 216.825 135.934L200.878 137.559L200.877 137.559Z" fill="#FEAB7C"/>
<path d="M201.154 139.546C201.154 139.546 212.262 147.023 217.374 144.379C222.485 141.735 216.853 136.138 216.853 136.138L201.155 139.546L201.154 139.546Z" fill="#CA744A"/>
<path d="M216.827 135.93L216.884 136.339L216.941 136.749C216.941 136.749 194.434 140.988 186.576 142.067L186.165 139.113C194.018 138.004 216.827 135.928 216.827 135.928L216.827 135.93Z" fill="#FFA274"/>
<path d="M185.986 139.14C186.042 139.131 186.101 139.122 186.16 139.115L186.572 142.069C186.513 142.078 186.455 142.085 186.397 142.093C182.561 142.611 171.02 143.566 171.02 143.566L170.906 142.746L170.791 141.925C170.791 141.925 182.153 139.689 185.986 139.14Z" fill="#DDDDDD"/>
<path d="M170.842 142.311L158.894 144.305C158.797 144.321 158.817 144.466 158.915 144.455L170.962 143.169L170.842 142.312L170.842 142.311Z" fill="#434A59"/>
<path d="M0.743164 35.6444H49.476C49.476 35.6444 50.5099 31.5987 45.5988 30.2134C40.6863 28.8268 37.9727 30.9994 37.9727 30.9994C37.9727 30.9994 41.3337 20.2592 31.1223 16.3525C20.9108 12.4458 12.6373 21.9209 11.4737 25.4368C10.3101 28.9527 10.1803 30.9994 10.1803 30.9994C10.1803 30.9994 3.58801 27.2157 0.744607 35.6444H0.743164Z" fill="#E6F3F6"/>
<path d="M163.757 12.0116C168.528 11.243 170.343 14.0005 170.343 14.0005C170.343 14.0005 170.176 9.29473 173.213 7.89214C176.249 6.48954 177.925 8.78522 177.925 8.78522C177.925 8.78522 177.726 -0.81005 187.774 0.879147C197.822 2.56979 197.148 16.6927 197.148 16.6927C197.148 16.6927 198.235 13.3636 202.19 15.0007C206.146 16.6363 204.934 22.1671 204.934 22.1671L158.213 22.4609C158.213 22.4609 158.984 12.7802 163.755 12.0131L163.757 12.0116Z" fill="#E6F3F6"/>
<path d="M93.1817 21.6795C92.9294 21.6795 92.6814 21.5565 92.5329 21.3292L83.5326 7.6579C83.2962 7.29748 83.3942 6.81402 83.7532 6.57664C84.1108 6.33925 84.5939 6.43768 84.8303 6.7981L93.8306 20.4694C94.0671 20.8299 93.969 21.3133 93.61 21.5507C93.4773 21.639 93.3288 21.6795 93.1817 21.6795Z" fill="#DBDCDC"/>
<path d="M113.966 19.5252C113.536 19.5252 113.188 19.1764 113.188 18.745V7.22751C113.188 6.79616 113.536 6.44732 113.966 6.44732C114.395 6.44732 114.743 6.79616 114.743 7.22751V18.7436C114.743 19.1749 114.395 19.5238 113.966 19.5238V19.5252Z" fill="#DBDCDC"/>
<path d="M77.8924 37.3625C77.7799 37.3625 77.6646 37.3379 77.5564 37.2857L70.8689 34.0666C70.4811 33.8799 70.3181 33.4138 70.5041 33.0244C70.6901 32.635 71.1544 32.4715 71.5423 32.6582L78.2298 35.8774C78.6176 36.0641 78.7806 36.5302 78.5946 36.9195C78.4605 37.1989 78.1822 37.3625 77.8924 37.3625Z" fill="#DBDCDC"/>
</svg>
