<svg width="22" height="21" viewBox="0 0 22 21" fill="none" xmlns="http://www.w3.org/2000/svg">
<path d="M6.09361 0.449036C5.73872 0.449036 5.45179 0.736832 5.45179 1.09137V2.37553H2.67005C1.72425 2.37553 0.958008 3.14161 0.958008 4.08706V19.2799C0.958008 20.2261 1.72425 20.9925 2.67005 20.9925H19.7889C20.7343 20.9925 21.5004 20.2261 21.5004 19.2799V4.08706C21.5004 3.14161 20.7343 2.37553 19.7889 2.37553H17.0066V1.09137C17.0066 0.736832 16.7197 0.449036 16.3648 0.449036C16.0099 0.449036 15.723 0.736832 15.723 1.09137V2.37553H11.871V1.09137C11.871 0.736832 11.5841 0.449036 11.2292 0.449036C10.8747 0.449036 10.5869 0.736832 10.5869 1.09137V2.37553H6.73543V1.09137C6.73543 0.736832 6.44815 0.449036 6.09361 0.449036ZM2.67005 3.65918H5.45179V4.94333C5.45179 5.29823 5.73872 5.58516 6.09361 5.58516C6.44815 5.58516 6.73543 5.29823 6.73543 4.94333V3.65918H10.5869V4.94333C10.5869 5.29823 10.8747 5.58516 11.2292 5.58516C11.5841 5.58516 11.871 5.29823 11.871 4.94333V3.65918H15.723V4.94333C15.723 5.29823 16.0099 5.58516 16.3648 5.58516C16.7197 5.58516 17.0066 5.29823 17.0066 4.94333V3.65918H19.7889C20.0246 3.65918 20.2163 3.8507 20.2163 4.08706V19.2799C20.2163 19.5163 20.0246 19.7078 19.7889 19.7078H2.67005C2.43404 19.7078 2.24165 19.5163 2.24165 19.2799V4.08706C2.24165 3.8507 2.43404 3.65918 2.67005 3.65918ZM5.45179 8.15296V10.0789H8.01908V8.15296H5.45179ZM9.94557 8.15296V10.0789H12.5129V8.15296H9.94557ZM14.4388 8.15296V10.0789H17.0066V8.15296H14.4388ZM5.45179 11.3626V13.2886H8.01908V11.3626H5.45179ZM9.94557 11.3626V13.2886H12.5129V11.3626H9.94557ZM14.4388 11.3626V13.2886H17.0066V11.3626H14.4388ZM5.45179 14.5727V16.4987H8.01908V14.5727H5.45179ZM9.94557 14.5727V16.4987H12.5129V14.5727H9.94557ZM14.4388 14.5727V16.4987H17.0066V14.5727H14.4388Z" fill="#03A9F4"/>
</svg>
