<svg width="19" height="19" viewBox="0 0 19 19" fill="none" xmlns="http://www.w3.org/2000/svg">
<path d="M14.8465 13.3189L14.7942 13.3039C14.0365 13.0952 13.7802 12.8954 13.4428 12.7642C12.2464 12.2978 11.935 11.9611 11.8554 11.8023C11.8528 11.7966 11.8504 11.7902 11.8478 11.7849L11.8402 10.7145C12.4804 9.83777 12.9379 8.74329 12.9379 7.6097C12.9379 7.6097 13.3701 5.72529 12.3367 3.95177L12.3362 3.94374C12.3362 3.94374 12.3339 3.94374 12.3323 3.94427C12.1088 3.56123 11.8167 3.18381 11.4364 2.83158C11.0385 2.46327 10.0575 1.99933 8.8745 1.99933C8.06442 1.99933 7.1596 2.21683 6.28226 2.83158C4.58072 4.02436 4.75242 7.03219 4.75242 7.03219C4.75242 7.03219 4.87151 7.06272 5.08561 7.09165C5.0699 7.26014 5.06179 7.43264 5.06179 7.60943C5.06179 8.74302 5.5193 9.83751 6.15951 10.7142L6.15192 11.7843C6.1493 11.79 6.14695 11.7964 6.14433 11.8017C6.06476 11.9606 5.75329 12.297 4.5569 12.7636C4.21952 12.8951 3.96328 13.0947 3.20556 13.3034L3.15321 13.3184C2.4638 13.5519 2 14.2066 2 14.9456V16.9996H16V14.9456C16 14.2069 15.5362 13.5522 14.8465 13.3189ZM11.2372 11.7891L11.2382 11.9215L11.2888 12.0369C11.2932 12.0471 11.3008 12.0658 11.312 12.0878C11.3267 12.117 11.3437 12.1459 11.3618 12.1743L10.6294 12.5662L10.2376 12.2266C10.5739 12.0238 10.9145 11.7522 11.2346 11.4283L11.2375 11.7894L11.2372 11.7891ZM9.56836 13.5621H8.43164L8.25549 12.6594L8.40416 12.5303C8.61302 12.6008 8.81377 12.6385 9.00039 12.6385C9.19617 12.6385 9.4087 12.5965 9.62987 12.5191L9.75157 12.6249L9.56862 13.5624L9.56836 13.5621ZM12.0724 5.71056C11.9386 5.55546 11.7887 5.42823 11.6256 5.33046C11.7489 5.02429 11.9046 4.84027 12.0431 4.73018C12.2114 5.1218 12.3244 5.54689 12.3791 5.99449C12.3875 6.0644 12.3948 6.13271 12.4001 6.19967C12.3017 6.01136 12.1938 5.85092 12.0726 5.71056H12.0724ZM5.48397 5.47189C5.57296 5.01144 5.70461 4.60429 5.87631 4.26276C6.07497 3.86579 6.32754 3.55802 6.62749 3.34775C7.31193 2.868 8.06835 2.62505 8.87476 2.62505C9.91516 2.62505 10.7467 3.03649 11.0268 3.29578C11.3113 3.55936 11.5542 3.85347 11.7536 4.17464C11.5112 4.34071 11.2427 4.62652 11.0508 5.11671C10.9506 5.09903 10.8472 5.09019 10.7417 5.09019C10.286 5.09019 9.79476 5.24796 9.24014 5.57234C7.90398 6.35342 6.66806 6.51762 5.86663 6.51762C5.67477 6.51762 5.50622 6.50798 5.36619 6.49512C5.37823 6.22164 5.40964 5.86002 5.48423 5.47189H5.48397ZM5.69519 7.14014C5.75068 7.14174 5.80747 7.14255 5.86663 7.14255C6.76019 7.14255 8.10002 6.95906 9.54297 6.11503C10.0288 5.83109 10.4216 5.71511 10.7417 5.71511C11.5107 5.71511 11.8591 6.38289 12.0685 6.98719C12.1399 7.19398 12.23 7.33675 12.3239 7.43425C12.3263 7.49237 12.3276 7.5513 12.3276 7.61023C12.3276 8.63963 11.8701 9.76358 11.072 10.6939C10.7213 11.1032 10.3287 11.4449 9.93636 11.6836C9.58563 11.896 9.25323 12.0131 9.00065 12.0131C8.74808 12.0131 8.41515 11.8958 8.06442 11.6836C7.67208 11.4447 7.27948 11.1032 6.92875 10.6939C6.13072 9.76358 5.6732 8.63936 5.6732 7.61023C5.6732 7.45059 5.68106 7.29362 5.69571 7.14014H5.69519ZM7.79039 12.2432L7.41794 12.5665L6.65053 12.1559C6.66387 12.1334 6.67696 12.1108 6.68848 12.0881C6.69921 12.0667 6.70732 12.0482 6.71125 12.0372L6.76229 11.9217L6.76333 11.7894L6.76595 11.4283C7.09495 11.7616 7.44516 12.0391 7.79065 12.2432H7.79039ZM2.61063 16.3747V14.9459C2.61063 14.4798 2.90168 14.0673 3.33564 13.916L3.36966 13.9058C3.94077 13.7483 4.25616 13.594 4.50979 13.4694C4.60768 13.4218 4.69222 13.3797 4.77466 13.3476C5.22564 13.1719 5.78837 12.9292 6.20217 12.6206L7.49881 13.3146L7.72286 13.1204L7.88069 13.9278L7.57472 16.3741H2.61063V16.3747ZM9.00039 16.3747H8.19032L8.4641 14.1873H9.53538L9.84449 16.3747H9.00039ZM11.4659 16.3747V15.7503H13.2981V16.3747H11.4659ZM15.3896 16.3747H13.909V15.1248H12.9929C12.9929 14.9523 12.856 14.8125 12.6875 14.8125H12.0768C11.9083 14.8125 11.7714 14.9521 11.7714 15.1248H10.8553V16.3747H10.4617L10.1172 13.9393L10.2842 13.0859L10.5486 13.3146L11.818 12.6348C12.23 12.9369 12.7825 13.1751 13.2261 13.3478C13.308 13.3794 13.3926 13.4215 13.4905 13.4692C13.7441 13.5937 14.0595 13.748 14.6306 13.9055L14.6646 13.9157C15.0988 14.0673 15.3896 14.4796 15.3896 14.9456V16.3744V16.3747Z" fill="#4CBBCA" stroke="#4CBBCA" stroke-width="0.5" stroke-miterlimit="10" stroke-linejoin="round"/>
</svg>
