<svg width="19" height="19" viewBox="0 0 19 19" fill="none" xmlns="http://www.w3.org/2000/svg">
<path d="M14.1767 5.00977H8.72074C8.65184 5.00977 8.58576 5.03714 8.53703 5.08586C8.48831 5.13458 8.46094 5.20067 8.46094 5.26957C8.46094 5.33848 8.48831 5.40456 8.53703 5.45328C8.58576 5.50201 8.65184 5.52938 8.72074 5.52938H14.1767C14.2456 5.52938 14.3117 5.50201 14.3604 5.45328C14.4091 5.40456 14.4365 5.33848 14.4365 5.26957C14.4365 5.20067 14.4091 5.13458 14.3604 5.08586C14.3117 5.03714 14.2456 5.00977 14.1767 5.00977Z" fill="#4CBBCA" stroke="#4CBBCA" stroke-width="0.5"/>
<path d="M14.4365 6.5684C14.4365 6.4995 14.4091 6.43342 14.3604 6.38469C14.3117 6.33597 14.2456 6.3086 14.1767 6.30859H8.72074C8.65184 6.30859 8.58576 6.33597 8.53703 6.38469C8.48831 6.43341 8.46094 6.4995 8.46094 6.5684C8.46094 6.6373 8.48831 6.70339 8.53703 6.75211C8.58576 6.80083 8.65184 6.82821 8.72074 6.82821H14.1767C14.2456 6.8282 14.3117 6.80083 14.3604 6.75211C14.4091 6.70338 14.4365 6.6373 14.4365 6.5684Z" fill="#4CBBCA" stroke="#4CBBCA" stroke-width="0.5"/>
<path d="M1.44637 11.894V3.83997C1.44645 3.77108 1.47385 3.70505 1.52255 3.65634C1.57126 3.60764 1.6373 3.58024 1.70618 3.58016H14.9563C15.0252 3.58024 15.0912 3.60764 15.1399 3.65634C15.1886 3.70505 15.216 3.77108 15.2161 3.83997V8.5832C15.3944 8.6547 15.5679 8.73745 15.7357 8.83098V3.83997C15.7355 3.63332 15.6533 3.4352 15.5072 3.28908C15.3611 3.14296 15.1629 3.06077 14.9563 3.06055H1.70618C1.49953 3.06077 1.30141 3.14296 1.15529 3.28908C1.00917 3.4352 0.926983 3.63332 0.926758 3.83997L0.926758 11.894C0.926983 12.1006 1.00917 12.2987 1.15529 12.4448C1.30141 12.591 1.49953 12.6732 1.70618 12.6734H8.98405C8.98873 12.4995 9.00337 12.326 9.02789 12.1538H1.70618C1.6373 12.1537 1.57126 12.1263 1.52255 12.0776C1.47385 12.0289 1.44645 11.9628 1.44637 11.894Z" fill="#4CBBCA" stroke="#4CBBCA" stroke-width="0.5"/>
<path d="M13.527 8.77539C12.7305 8.77539 11.952 9.01157 11.2897 9.45406C10.6275 9.89655 10.1113 10.5255 9.80654 11.2613C9.50174 11.9972 9.422 12.8069 9.57738 13.588C9.73276 14.3692 10.1163 15.0867 10.6795 15.6499C11.2427 16.2131 11.9602 16.5966 12.7414 16.752C13.5225 16.9074 14.3322 16.8276 15.0681 16.5228C15.8039 16.2181 16.4328 15.7019 16.8753 15.0397C17.3178 14.3774 17.554 13.5989 17.554 12.8024C17.5528 11.7347 17.1281 10.7111 16.3732 9.9562C15.6182 9.20125 14.5947 8.77659 13.527 8.77539ZM13.527 16.3098C12.8333 16.3098 12.1552 16.1041 11.5784 15.7187C11.0016 15.3333 10.5521 14.7855 10.2866 14.1446C10.0211 13.5037 9.95167 12.7985 10.087 12.1181C10.2223 11.4378 10.5564 10.8128 11.0469 10.3223C11.5374 9.83178 12.1624 9.49773 12.8427 9.3624C13.5231 9.22706 14.2283 9.29652 14.8692 9.56199C15.5101 9.82745 16.0579 10.277 16.4433 10.8538C16.8287 11.4306 17.0344 12.1087 17.0344 12.8024C17.0333 13.7323 16.6635 14.6238 16.0059 15.2813C15.3484 15.9388 14.4569 16.3087 13.527 16.3098Z" fill="#4CBBCA" stroke="#4CBBCA" stroke-width="0.5"/>
<path d="M15.292 11.1903L12.6255 13.8637L11.503 12.7383C11.4789 12.714 11.4503 12.6947 11.4187 12.6815C11.3872 12.6683 11.3534 12.6614 11.3192 12.6613C11.285 12.6612 11.2511 12.6679 11.2195 12.6809C11.1879 12.6939 11.1591 12.713 11.1349 12.7372C11.1107 12.7613 11.0915 12.79 11.0784 12.8216C11.0653 12.8532 11.0586 12.887 11.0586 12.9212C11.0586 12.9554 11.0654 12.9893 11.0785 13.0208C11.0916 13.0524 11.1108 13.0811 11.1351 13.1052L12.4415 14.415C12.4657 14.4392 12.4943 14.4584 12.5259 14.4715C12.5575 14.4846 12.5913 14.4914 12.6255 14.4914C12.6596 14.4914 12.6935 14.4846 12.7251 14.4715C12.7566 14.4584 12.7853 14.4392 12.8094 14.415L15.6599 11.5571C15.6841 11.533 15.7033 11.5043 15.7164 11.4728C15.7296 11.4412 15.7363 11.4074 15.7363 11.3732C15.7364 11.339 15.7296 11.3051 15.7165 11.2735C15.7034 11.2419 15.6842 11.2133 15.66 11.1891C15.6358 11.165 15.6071 11.1458 15.5754 11.1328C15.5438 11.1198 15.5099 11.1132 15.4757 11.1133C15.4416 11.1134 15.4077 11.1202 15.3762 11.1335C15.3446 11.1467 15.316 11.166 15.292 11.1903V11.1903Z" fill="#4CBBCA" stroke="#4CBBCA" stroke-width="0.5"/>
<path d="M7.08166 7.21344C7.1315 7.13316 7.159 7.04103 7.16134 6.94656C7.16368 6.8521 7.14075 6.75872 7.09494 6.67607C7.04913 6.59342 6.98209 6.5245 6.90074 6.47642C6.81939 6.42834 6.72669 6.40284 6.63219 6.40256L5.76752 6.398L5.14294 5.38934C5.09562 5.31271 5.02949 5.24945 4.95083 5.20558C4.87217 5.1617 4.7836 5.13867 4.69354 5.13867C4.60347 5.13867 4.5149 5.1617 4.43625 5.20558C4.35759 5.24945 4.29146 5.31271 4.24414 5.38934L3.61182 6.40256H2.75489C2.6604 6.40284 2.56769 6.42833 2.48634 6.47641C2.40499 6.5245 2.33795 6.59342 2.29214 6.67607C2.24634 6.75873 2.22343 6.85211 2.22577 6.94657C2.22812 7.04104 2.25564 7.13317 2.3055 7.21344L2.70586 7.85991C2.70709 7.86191 2.70776 7.86421 2.70778 7.86656C2.7078 7.8689 2.70718 7.87121 2.70599 7.87323L2.30543 8.51983C2.25559 8.60011 2.22808 8.69225 2.22575 8.78671C2.22341 8.88118 2.24633 8.97456 2.29214 9.0572C2.33796 9.13985 2.405 9.20877 2.48635 9.25686C2.56769 9.30494 2.6604 9.33043 2.7549 9.33071L3.61956 9.33528L4.24415 10.3439C4.29147 10.4206 4.3576 10.4838 4.43626 10.5277C4.51491 10.5716 4.60348 10.5946 4.69355 10.5946C4.78361 10.5946 4.87218 10.5716 4.95084 10.5277C5.0295 10.4838 5.09563 10.4206 5.14295 10.3439L5.77527 9.33071H6.6322C6.7267 9.33044 6.81941 9.30494 6.90076 9.25686C6.9821 9.20878 7.04914 9.13985 7.09495 9.0572C7.14076 8.97455 7.16367 8.88117 7.16132 8.7867C7.15897 8.69224 7.13145 8.60011 7.0816 8.51983L6.68124 7.87336C6.67999 7.87134 6.67933 7.86901 6.67933 7.86664C6.67933 7.86426 6.67999 7.86194 6.68124 7.85991L7.08166 7.21344ZM6.23938 8.14674L6.63987 8.79334L6.63219 8.8111H5.77527C5.68514 8.81082 5.59646 8.83374 5.51774 8.87764C5.43903 8.92154 5.37293 8.98495 5.3258 9.06177L4.70121 10.0704H4.68586L4.06135 9.06177C4.0142 8.98495 3.94809 8.92155 3.86937 8.87765C3.79065 8.83375 3.70196 8.81083 3.61182 8.8111H2.75489L2.74722 8.79334L3.14784 8.14661C3.20021 8.06259 3.22796 7.96556 3.22793 7.86656C3.22791 7.76755 3.20012 7.67053 3.14771 7.58653L2.74722 6.93994L2.75489 6.92218H3.61182C3.70195 6.92245 3.79063 6.89954 3.86935 6.85564C3.94806 6.81174 4.01416 6.74833 4.06129 6.6715L4.68587 5.66285H4.70122L5.32574 6.6715C5.37289 6.74833 5.439 6.81173 5.51772 6.85563C5.59644 6.89953 5.68513 6.92245 5.77527 6.92218H6.6322L6.63987 6.93994L6.23938 7.58653L6.23925 7.58666C6.18688 7.67069 6.15913 7.76772 6.15916 7.86672C6.15918 7.96573 6.18697 8.06274 6.23938 8.14674Z" fill="#4CBBCA" stroke="#4CBBCA" stroke-width="0.5"/>
</svg>
