<svg width="19" height="19" viewBox="0 0 19 19" fill="none" xmlns="http://www.w3.org/2000/svg">
<path d="M16.8752 6.25804H12.5726V4.35219C12.5726 4.30517 12.5634 4.2586 12.5454 4.21515C12.5274 4.1717 12.5011 4.13222 12.4678 4.09897C12.4346 4.06572 12.3951 4.03935 12.3516 4.02137C12.3082 4.00339 12.2616 3.99414 12.2146 3.99417H6.26666C6.21964 3.99414 6.17307 4.00339 6.12962 4.02137C6.08617 4.03935 6.04669 4.06572 6.01344 4.09897C5.98019 4.13222 5.95382 4.1717 5.93584 4.21515C5.91785 4.2586 5.90861 4.30517 5.90864 4.35219V6.25804H1.60607C1.55905 6.25801 1.51248 6.26725 1.46903 6.28523C1.42558 6.30322 1.3861 6.32959 1.35285 6.36284C1.3196 6.39609 1.29323 6.43557 1.27524 6.47902C1.25726 6.52247 1.24802 6.56903 1.24805 6.61606V15.5376C1.24802 15.5846 1.25726 15.6312 1.27524 15.6747C1.29323 15.7181 1.3196 15.7576 1.35285 15.7908C1.3861 15.8241 1.42558 15.8505 1.46903 15.8684C1.51248 15.8864 1.55905 15.8957 1.60607 15.8956H16.8752C16.9222 15.8957 16.9688 15.8864 17.0122 15.8684C17.0557 15.8505 17.0952 15.8241 17.1284 15.7908C17.1617 15.7576 17.188 15.7181 17.206 15.6747C17.224 15.6312 17.2332 15.5846 17.2332 15.5376V6.61606C17.2332 6.56903 17.224 6.52247 17.206 6.47902C17.188 6.43557 17.1617 6.39609 17.1284 6.36284C17.0952 6.32959 17.0557 6.30322 17.0122 6.28523C16.9688 6.26725 16.9222 6.25801 16.8752 6.25804ZM6.62468 4.71022H11.8566V6.25804H6.62468V4.71022ZM16.5172 15.1796H1.96409V6.97408H16.5172V15.1796Z" fill="#4CBBCA" stroke="#4CBBCA" stroke-width="0.8"/>
</svg>
