<svg width="19" height="22" viewBox="0 0 19 22" fill="none" xmlns="http://www.w3.org/2000/svg">
<circle cx="8.5" cy="4.5" r="3.9" stroke="#4CBBCA" stroke-width="1.2"/>
<path d="M13.8033 11.1966C13.1069 10.5002 12.2801 9.94775 11.3701 9.57084C10.4602 9.19393 9.48491 8.99994 8.5 8.99994C7.51509 8.99994 6.53982 9.19393 5.62987 9.57084C4.71993 9.94775 3.89314 10.5002 3.1967 11.1966C2.50026 11.8931 1.94781 12.7199 1.5709 13.6298C1.19399 14.5398 1 15.515 1 16.4999H7" stroke="#4CBBCA" stroke-width="1.2"/>
<path d="M16.504 16.2424L15.8621 16.0999C15.8121 15.9401 15.747 15.7871 15.6714 15.6397L16.0187 15.0617C16.1485 14.8543 16.2135 14.5497 16.0187 14.3543L15.6648 14.0008C15.5695 13.905 15.4412 13.8648 15.312 13.8648C15.1781 13.8648 15.0425 13.9085 14.9414 13.9788L14.3783 14.3373C14.2322 14.2616 14.08 14.1966 13.9213 14.1452L13.7773 13.496C13.7344 13.2577 13.5259 13 13.25 13H12.7499C12.4737 13 12.3046 13.2618 12.2499 13.5L12.0893 14.1415C11.9202 14.1954 11.7573 14.2646 11.6026 14.3462L11.0258 13.9791C10.9242 13.9089 10.7891 13.8651 10.6547 13.8651C10.5258 13.8651 10.3977 13.9052 10.3019 14.0012L9.94855 14.3547C9.75323 14.55 9.81878 14.8547 9.94855 15.0621L10.3136 15.6707C10.2453 15.8089 10.1844 15.9511 10.1376 16.1003L9.49615 16.2429C9.25789 16.2858 9 16.4941 9 16.7702V17.2702C9 17.5464 9.26176 17.7154 9.50001 17.7701L10.1495 17.9324C10.1946 18.0701 10.2503 18.2026 10.314 18.3308L9.9484 18.9401C9.81864 19.1469 9.75331 19.4516 9.9484 19.6469L10.3023 20.0005C10.3976 20.0961 10.5257 20.1366 10.655 20.1366C10.7891 20.1366 10.9245 20.0929 11.0258 20.0226L11.604 19.6538C11.7597 19.7363 11.9235 19.8062 12.0939 19.8601L12.254 20.5C12.3087 20.7382 12.4777 21 12.754 21H13.254C13.53 21 13.7384 20.7421 13.7813 20.5038L13.9253 19.8528C14.0824 19.8019 14.2332 19.738 14.3773 19.6632L14.9415 20.0225C15.0425 20.0927 15.1782 20.1365 15.312 20.1365C15.4415 20.1365 15.5696 20.0958 15.6649 20.0003L16.0187 19.6467C16.2135 19.4514 16.1485 19.1467 16.0187 18.9399L15.6711 18.361C15.7408 18.2232 15.8016 18.0804 15.8503 17.932L16.5 17.7697C16.7382 17.715 17 17.546 17 17.2698V16.7698C17.0001 16.4936 16.7422 16.2854 16.504 16.2424ZM16.6001 17.2698C16.6001 17.2897 16.5261 17.353 16.4032 17.3819L15.7534 17.5439L15.5392 17.5975L15.4703 17.8076C15.4296 17.9311 15.3774 18.056 15.3149 18.179L15.2141 18.3763L15.3281 18.5659L15.6797 19.1516C15.743 19.2527 15.7499 19.3495 15.7363 19.3636L15.3816 19.7175C15.3644 19.7347 15.3241 19.7363 15.3121 19.7363C15.2629 19.7363 15.2066 19.7192 15.1691 19.6934L15.1629 19.6892L15.1563 19.6848L14.5925 19.3255L14.3979 19.2013L14.1932 19.3075C14.0648 19.3745 13.9331 19.4294 13.8021 19.4715L13.5843 19.5424L13.5351 19.7658L13.3905 20.4169L13.3875 20.4325C13.3726 20.5153 13.297 20.5997 13.2538 20.5997H12.7538C12.7338 20.5997 12.6702 20.526 12.6415 20.4025L12.4819 19.7626L12.4275 19.5456L12.2142 19.4781C12.0721 19.433 11.9295 19.3729 11.7905 19.2995L11.585 19.1914L11.3889 19.3164L10.8107 19.6848L10.804 19.6891L10.7977 19.6933C10.7602 19.7191 10.704 19.7362 10.6548 19.7362C10.6428 19.7362 10.6024 19.7346 10.5851 19.7168L10.2315 19.3637C10.2175 19.3497 10.2241 19.2527 10.2914 19.1449L10.657 18.5357L10.7698 18.3482L10.6722 18.1521C10.6134 18.0336 10.5668 17.9209 10.5301 17.8078L10.4613 17.5974L10.2465 17.5438L9.58937 17.3798C9.47352 17.353 9.4 17.2897 9.4 17.2698V16.7698C9.4 16.7265 9.48386 16.651 9.56667 16.6358L9.57493 16.6346L9.58282 16.6328L10.2243 16.4906L10.45 16.4406L10.5191 16.2204C10.5563 16.1028 10.6063 15.9813 10.6719 15.8485L10.7695 15.6524L10.6564 15.4645L10.2874 14.8491C10.2241 14.7483 10.2171 14.6511 10.2311 14.6371L10.5845 14.2836C10.6017 14.2664 10.6392 14.2648 10.6545 14.2648C10.704 14.2648 10.76 14.2813 10.7975 14.3069L10.8037 14.3116L10.8108 14.3158L11.3876 14.6835L11.5834 14.8082L11.7888 14.6999C11.9255 14.628 12.0673 14.5679 12.2109 14.5226L12.4232 14.4546L12.4774 14.2382L12.6397 13.5894C12.6662 13.4734 12.7304 13.4 12.7498 13.4H13.2498C13.293 13.4 13.3686 13.484 13.3835 13.5668L13.3851 13.5749L13.3867 13.5828L13.5307 14.232L13.5804 14.4554L13.7984 14.5258C13.9312 14.5687 14.0643 14.6249 14.1946 14.6921L14.3992 14.7982L14.5938 14.6745L15.1563 14.3159L15.1629 14.3116L15.1691 14.3069C15.2066 14.2812 15.2629 14.2648 15.3121 14.2648C15.3243 14.2648 15.3645 14.266 15.3823 14.2836L15.7354 14.6367C15.7498 14.6507 15.743 14.7485 15.6758 14.8554L15.3284 15.4335L15.2145 15.6243L15.3153 15.8219C15.3861 15.9601 15.4401 16.0906 15.4805 16.2195L15.5497 16.4406L15.7754 16.4906L16.4173 16.6327L16.4252 16.6351L16.4331 16.6359C16.5158 16.6512 16.6003 16.7266 16.6003 16.7699L16.6001 17.2698Z" fill="#4CBBCA" stroke="#4CBBCA" stroke-width="0.75"/>
</svg>
