<svg width="18" height="18" viewBox="0 0 18 18" fill="none" xmlns="http://www.w3.org/2000/svg">
<path d="M6.2401 0.720703H2.92846C1.71144 0.720703 0.720703 1.71144 0.720703 2.92846V6.2401C0.720703 7.45713 1.71144 8.44786 2.92846 8.44786H6.2401C7.45713 8.44786 8.44786 7.45713 8.44786 6.2401V2.92846C8.44786 1.71144 7.45713 0.720703 6.2401 0.720703ZM7.34398 6.2401C7.34398 6.85 6.85 7.34398 6.2401 7.34398H2.92846C2.31857 7.34398 1.82458 6.85 1.82458 6.2401V2.92846C1.82458 2.31857 2.31857 1.82458 2.92846 1.82458H6.2401C6.85 1.82458 7.34398 2.31857 7.34398 2.92846V6.2401ZM6.2401 9.55174H2.92846C1.71144 9.55174 0.720703 10.5425 0.720703 11.7595V15.0711C0.720703 16.2882 1.71144 17.2789 2.92846 17.2789H6.2401C7.45713 17.2789 8.44786 16.2882 8.44786 15.0711V11.7595C8.44786 10.5425 7.45713 9.55174 6.2401 9.55174ZM7.34398 15.0711C7.34398 15.681 6.85 16.175 6.2401 16.175H2.92846C2.31857 16.175 1.82458 15.681 1.82458 15.0711V11.7595C1.82458 11.1496 2.31857 10.6556 2.92846 10.6556H6.2401C6.85 10.6556 7.34398 11.1496 7.34398 11.7595V15.0711ZM15.0711 0.720703H11.7595C10.5425 0.720703 9.55174 1.71144 9.55174 2.92846V6.2401C9.55174 7.45713 10.5425 8.44786 11.7595 8.44786H15.0711C16.2882 8.44786 17.2789 7.45713 17.2789 6.2401V2.92846C17.2789 1.71144 16.2882 0.720703 15.0711 0.720703ZM16.175 6.2401C16.175 6.85 15.681 7.34398 15.0711 7.34398H11.7595C11.1496 7.34398 10.6556 6.85 10.6556 6.2401V2.92846C10.6556 2.31857 11.1496 1.82458 11.7595 1.82458H15.0711C15.681 1.82458 16.175 2.31857 16.175 2.92846V6.2401ZM15.0711 9.55174H11.7595C10.5425 9.55174 9.55174 10.5425 9.55174 11.7595V15.0711C9.55174 16.2882 10.5425 17.2789 11.7595 17.2789H15.0711C16.2882 17.2789 17.2789 16.2882 17.2789 15.0711V11.7595C17.2789 10.5425 16.2882 9.55174 15.0711 9.55174ZM16.175 15.0711C16.175 15.681 15.681 16.175 15.0711 16.175H11.7595C11.1496 16.175 10.6556 15.681 10.6556 15.0711V11.7595C10.6556 11.1496 11.1496 10.6556 11.7595 10.6556H15.0711C15.681 10.6556 16.175 11.1496 16.175 11.7595V15.0711Z" fill="#4CBBCA" stroke="#4CBBCA" stroke-width="0.2"/>
</svg>
