<svg width="19" height="19" viewBox="0 0 19 19" fill="none" xmlns="http://www.w3.org/2000/svg">
<path d="M16.3608 6.86091C16.3608 7.10866 16.3608 7.35812 16.3608 7.60587C16.3608 8.22179 16.3608 8.83599 16.3608 9.45191C16.3608 10.2364 16.3608 11.0227 16.3608 11.8072C16.3608 12.5763 16.3608 13.347 16.3608 14.1161C16.3608 14.6666 16.3608 15.2171 16.3608 15.766C16.3608 15.9019 16.3608 16.0361 16.3608 16.172C16.3608 16.1926 16.3608 16.215 16.3608 16.2357C16.3608 16.2357 16.3608 16.2357 16.3608 16.2374C16.3608 16.2116 16.3591 16.2941 16.3625 16.2511C16.3642 16.2202 16.3591 16.2666 16.3574 16.2735C16.3539 16.2873 16.3333 16.3303 16.3556 16.2873C16.3488 16.301 16.3402 16.3131 16.3333 16.3268C16.3264 16.3389 16.304 16.3595 16.3333 16.3286C16.3247 16.3372 16.2765 16.3802 16.3195 16.3475C16.304 16.3595 16.2352 16.3888 16.2817 16.3733C16.2645 16.3784 16.187 16.3888 16.2369 16.3871C16.23 16.3871 16.2197 16.3888 16.2111 16.3871C16.0167 16.3819 15.8223 16.3871 15.6296 16.3871C15.153 16.3871 14.6765 16.3871 14.1999 16.3871C13.5255 16.3871 12.8511 16.3871 12.1767 16.3871C11.3939 16.3871 10.6093 16.3871 9.82653 16.3871C9.0248 16.3871 8.22307 16.3871 7.42134 16.3871C6.67982 16.3871 5.94003 16.3871 5.19851 16.3871C4.617 16.3871 4.03549 16.3871 3.45398 16.3871C3.11161 16.3871 2.77096 16.3871 2.42859 16.3871C2.37697 16.3871 2.32364 16.3853 2.27031 16.3871C2.22213 16.3888 2.28063 16.3939 2.25482 16.3871C2.2359 16.3836 2.21697 16.3784 2.19977 16.3716C2.21353 16.3767 2.2359 16.3939 2.19977 16.3698C2.18773 16.3612 2.17396 16.3544 2.16192 16.3458C2.20493 16.3784 2.1516 16.332 2.14815 16.3268C2.18084 16.3612 2.13267 16.301 2.12579 16.2855C2.14643 16.3286 2.11891 16.258 2.11719 16.2374C2.12407 16.2821 2.11891 16.2477 2.12063 16.2322C2.12235 16.2081 2.12063 16.184 2.12063 16.16C2.12063 15.7815 2.12063 15.403 2.12063 15.0245C2.12063 14.3363 2.12063 13.6498 2.12063 12.9616C2.12063 12.1599 2.12063 11.3582 2.12063 10.5547C2.12063 9.83385 2.12063 9.1147 2.12063 8.39383C2.12063 7.94308 2.12063 7.49404 2.12063 7.04328C2.12063 6.98134 2.12063 6.91941 2.12063 6.85747C2.0346 6.94349 1.94858 7.02952 1.86256 7.11554C1.99503 7.11554 2.12751 7.11554 2.25826 7.11554C2.61612 7.11554 2.97397 7.11554 3.3301 7.11554C3.85828 7.11554 4.38646 7.11554 4.91464 7.11554C5.56153 7.11554 6.21014 7.11554 6.85703 7.11554C7.56585 7.11554 8.27468 7.11554 8.98523 7.11554C9.69749 7.11554 10.4115 7.11554 11.1237 7.11554C11.7878 7.11554 12.4537 7.11554 13.1178 7.11554C13.6821 7.11554 14.2464 7.11554 14.8107 7.11554C15.215 7.11554 15.6193 7.11554 16.0236 7.11554C16.2163 7.11554 16.4073 7.11898 16.5999 7.11554C16.6085 7.11554 16.6154 7.11554 16.624 7.11554C16.7582 7.11554 16.889 6.99683 16.8821 6.85747C16.8752 6.71812 16.7685 6.5994 16.624 6.5994C16.4916 6.5994 16.3591 6.5994 16.2283 6.5994C15.8705 6.5994 15.5126 6.5994 15.1565 6.5994C14.6283 6.5994 14.1001 6.5994 13.5719 6.5994C12.9251 6.5994 12.2765 6.5994 11.6296 6.5994C10.9207 6.5994 10.2119 6.5994 9.50136 6.5994C8.7891 6.5994 8.07511 6.5994 7.36284 6.5994C6.69875 6.5994 6.03293 6.5994 5.36884 6.5994C4.80453 6.5994 4.24022 6.5994 3.67592 6.5994C3.27161 6.5994 2.8673 6.5994 2.463 6.5994C2.27031 6.5994 2.07934 6.59596 1.88665 6.5994C1.87804 6.5994 1.87116 6.5994 1.86256 6.5994C1.7232 6.5994 1.60449 6.71812 1.60449 6.85747C1.60449 7.11038 1.60449 7.36328 1.60449 7.61619C1.60449 8.23727 1.60449 8.85836 1.60449 9.47772C1.60449 10.276 1.60449 11.0726 1.60449 11.8709C1.60449 12.6399 1.60449 13.409 1.60449 14.1763C1.60449 14.7199 1.60449 15.2636 1.60449 15.809C1.60449 15.9346 1.60449 16.0602 1.60449 16.1858C1.60449 16.2167 1.60449 16.2494 1.60793 16.2804C1.64406 16.6296 1.91933 16.8911 2.27203 16.8997C2.45612 16.9049 2.64192 16.8997 2.82601 16.8997C3.30258 16.8997 3.77742 16.8997 4.25399 16.8997C4.93184 16.8997 5.60798 16.8997 6.28584 16.8997C7.07725 16.8997 7.86865 16.8997 8.66006 16.8997C9.46695 16.8997 10.2756 16.8997 11.0825 16.8997C11.8274 16.8997 12.5724 16.8997 13.3173 16.8997C13.8988 16.8997 14.4821 16.8997 15.0636 16.8997C15.4008 16.8997 15.738 16.8997 16.0769 16.8997C16.1234 16.8997 16.1716 16.9015 16.218 16.8997C16.5862 16.8911 16.8769 16.6021 16.8855 16.2322C16.8855 16.2133 16.8855 16.1961 16.8855 16.1772C16.8855 15.8124 16.8855 15.446 16.8855 15.0812C16.8855 14.3965 16.8855 13.71 16.8855 13.0253C16.8855 12.2184 16.8855 11.4115 16.8855 10.6029C16.8855 9.8717 16.8855 9.14223 16.8855 8.41104C16.8855 7.95512 16.8855 7.4992 16.8855 7.04328C16.8855 6.97962 16.8855 6.91769 16.8855 6.85403C16.8855 6.71984 16.7668 6.58908 16.6275 6.59596C16.4795 6.60973 16.3608 6.7164 16.3608 6.86091Z" fill="#4CBBCA" stroke="#4CBBCA" stroke-width="0.7"/>
<path d="M5.21242 4.72406C5.21242 4.00147 5.21242 3.27888 5.21242 2.55629C5.21242 2.45306 5.21242 2.34984 5.21242 2.24661C5.21242 2.11241 5.09371 1.98166 4.95436 1.98854C4.815 1.99542 4.69629 2.10209 4.69629 2.24661C4.69629 2.9692 4.69629 3.69179 4.69629 4.41438C4.69629 4.5176 4.69629 4.62083 4.69629 4.72406C4.69629 4.85825 4.815 4.98901 4.95436 4.98213C5.09371 4.97524 5.21242 4.86858 5.21242 4.72406Z" fill="#4CBBCA" stroke="#4CBBCA" stroke-width="0.7"/>
<path d="M13.2646 2.24661C13.2646 2.9692 13.2646 3.69179 13.2646 4.41438C13.2646 4.5176 13.2646 4.62083 13.2646 4.72406C13.2646 4.85825 13.3834 4.98901 13.5227 4.98213C13.6621 4.97524 13.7808 4.86858 13.7808 4.72406C13.7808 4.00147 13.7808 3.27888 13.7808 2.55629C13.7808 2.45306 13.7808 2.34984 13.7808 2.24661C13.7808 2.11241 13.6621 1.98166 13.5227 1.98854C13.3834 1.9937 13.2646 2.10209 13.2646 2.24661Z" fill="#4CBBCA" stroke="#4CBBCA" stroke-width="0.7"/>
<path d="M16.3612 3.87847C16.3612 4.21568 16.3612 4.55289 16.3612 4.8901C16.3612 5.42344 16.3612 5.9585 16.3612 6.49184C16.3612 6.61571 16.3612 6.73958 16.3612 6.86173C16.4472 6.77571 16.5332 6.68969 16.6193 6.60367C16.4868 6.60367 16.3543 6.60367 16.2235 6.60367C15.8657 6.60367 15.5078 6.60367 15.1517 6.60367C14.6235 6.60367 14.0954 6.60367 13.5672 6.60367C12.9203 6.60367 12.2717 6.60367 11.6248 6.60367C10.916 6.60367 10.2071 6.60367 9.49659 6.60367C8.78432 6.60367 8.07033 6.60367 7.35807 6.60367C6.69397 6.60367 6.02816 6.60367 5.36406 6.60367C4.79975 6.60367 4.23545 6.60367 3.67114 6.60367C3.26683 6.60367 2.86253 6.60367 2.45822 6.60367C2.26725 6.60367 2.07284 6.59679 1.88187 6.60367C1.87327 6.60367 1.86639 6.60367 1.85778 6.60367C1.94381 6.68969 2.02983 6.77571 2.11585 6.86173C2.11585 6.25958 2.11585 5.65742 2.11585 5.05526C2.11585 4.71977 2.11585 4.38429 2.11585 4.0488C2.11585 3.99202 2.11929 3.93353 2.11585 3.87675C2.11585 3.87503 2.11585 3.85439 2.11585 3.85267C2.11413 3.90084 2.11585 3.85611 2.11929 3.84062C2.12273 3.82686 2.14338 3.78385 2.12101 3.82686C2.12789 3.8131 2.1365 3.80105 2.14338 3.78729C2.16574 3.746 2.15198 3.77697 2.14338 3.78557C2.14166 3.78729 2.19499 3.73567 2.16574 3.75976C2.13822 3.78385 2.19671 3.74084 2.19499 3.74084C2.23284 3.71503 2.18123 3.74256 2.20703 3.73568C2.22596 3.73051 2.24316 3.72535 2.26381 3.72191C2.25005 3.72363 2.21736 3.72363 2.26553 3.72535C2.26725 3.72535 2.26897 3.72535 2.27069 3.72535C2.49607 3.72879 2.72317 3.72535 2.95027 3.72535C3.47845 3.72535 4.00663 3.72535 4.5348 3.72535C5.26772 3.72535 6.00063 3.72535 6.73354 3.72535C7.56796 3.72535 8.40238 3.72535 9.2368 3.72535C10.0712 3.72535 10.9056 3.72535 11.7401 3.72535C12.473 3.72535 13.2059 3.72535 13.9388 3.72535C14.4687 3.72535 14.9986 3.72535 15.5285 3.72535C15.7539 3.72535 15.9792 3.72879 16.2029 3.72535C16.2046 3.72535 16.2063 3.72535 16.2081 3.72535C16.1771 3.72535 16.2666 3.72707 16.2218 3.72363C16.184 3.72019 16.2562 3.73223 16.2562 3.73223C16.2683 3.73395 16.2992 3.75116 16.258 3.73051C16.2717 3.7374 16.2838 3.746 16.2975 3.75288C16.3388 3.77525 16.3079 3.76148 16.2992 3.75288C16.2975 3.75116 16.3491 3.80449 16.3251 3.77525C16.301 3.74772 16.344 3.80621 16.344 3.80449C16.3509 3.81482 16.3612 3.8475 16.3457 3.80449C16.3509 3.81998 16.3543 3.83374 16.3595 3.84922C16.3801 3.91976 16.3595 3.80621 16.3612 3.87847C16.3646 4.01267 16.4765 4.14342 16.6193 4.13654C16.7552 4.12966 16.8808 4.02299 16.8773 3.87847C16.867 3.50858 16.5797 3.21954 16.2098 3.21094C16.1943 3.21094 16.1771 3.21094 16.1616 3.21094C16.0567 3.21094 15.9517 3.21094 15.8485 3.21094C15.3909 3.21094 14.9349 3.21094 14.4773 3.21094C13.7805 3.21094 13.082 3.21094 12.3852 3.21094C11.5577 3.21094 10.7284 3.21094 9.90089 3.21094C9.04583 3.21094 8.19076 3.21094 7.33398 3.21094C6.55461 3.21094 5.77525 3.21094 4.99761 3.21094C4.40405 3.21094 3.81222 3.21094 3.21866 3.21094C2.9193 3.21094 2.61822 3.21094 2.31886 3.21094C2.30166 3.21094 2.28618 3.21094 2.26897 3.21094C1.918 3.21954 1.63412 3.47933 1.60316 3.8303C1.58423 4.03675 1.59972 4.24837 1.59972 4.45482C1.59972 5.20322 1.59972 5.95162 1.59972 6.70001C1.59972 6.75507 1.59972 6.8084 1.59972 6.86345C1.59972 7.00281 1.71843 7.12152 1.85778 7.12152C1.99026 7.12152 2.12273 7.12152 2.25349 7.12152C2.61134 7.12152 2.96919 7.12152 3.32533 7.12152C3.85351 7.12152 4.38168 7.12152 4.90986 7.12152C5.55675 7.12152 6.20536 7.12152 6.85225 7.12152C7.56108 7.12152 8.2699 7.12152 8.98045 7.12152C9.69272 7.12152 10.4067 7.12152 11.119 7.12152C11.7831 7.12152 12.4489 7.12152 13.113 7.12152C13.6773 7.12152 14.2416 7.12152 14.8059 7.12152C15.2102 7.12152 15.6145 7.12152 16.0188 7.12152C16.2115 7.12152 16.4025 7.12496 16.5952 7.12152C16.6038 7.12152 16.6107 7.12152 16.6193 7.12152C16.7586 7.12152 16.8773 7.00281 16.8773 6.86345C16.8773 6.52625 16.8773 6.18904 16.8773 5.85183C16.8773 5.31849 16.8773 4.78343 16.8773 4.25009C16.8773 4.12622 16.8773 4.00234 16.8773 3.88019C16.8773 3.746 16.7586 3.61524 16.6193 3.62213C16.4799 3.62557 16.3612 3.73223 16.3612 3.87847Z" fill="#4CBBCA"/>
<path d="M16.3612 3.87847C16.3612 4.21568 16.3612 4.55289 16.3612 4.8901C16.3612 5.42344 16.3612 5.9585 16.3612 6.49184C16.3612 6.61571 16.3612 6.73958 16.3612 6.86173C16.4472 6.77571 16.5332 6.68969 16.6193 6.60367C16.4868 6.60367 16.3543 6.60367 16.2235 6.60367C15.8657 6.60367 15.5078 6.60367 15.1517 6.60367C14.6235 6.60367 14.0954 6.60367 13.5672 6.60367C12.9203 6.60367 12.2717 6.60367 11.6248 6.60367C10.916 6.60367 10.2071 6.60367 9.49659 6.60367C8.78432 6.60367 8.07033 6.60367 7.35807 6.60367C6.69397 6.60367 6.02816 6.60367 5.36406 6.60367C4.79975 6.60367 4.23545 6.60367 3.67114 6.60367C3.26683 6.60367 2.86253 6.60367 2.45822 6.60367C2.26725 6.60367 2.07284 6.59679 1.88187 6.60367C1.87327 6.60367 1.86639 6.60367 1.85778 6.60367C1.94381 6.68969 2.02983 6.77571 2.11585 6.86173C2.11585 6.25958 2.11585 5.65742 2.11585 5.05526C2.11585 4.71977 2.11585 4.38429 2.11585 4.0488C2.11585 3.99202 2.11929 3.93353 2.11585 3.87675C2.11585 3.87503 2.11585 3.85439 2.11585 3.85267C2.11413 3.90084 2.11585 3.85611 2.11929 3.84062C2.12273 3.82686 2.14338 3.78385 2.12101 3.82686C2.12789 3.8131 2.1365 3.80105 2.14338 3.78729C2.16574 3.746 2.15198 3.77697 2.14338 3.78557C2.14166 3.78729 2.19499 3.73567 2.16574 3.75976C2.13822 3.78385 2.19671 3.74084 2.19499 3.74084C2.23284 3.71503 2.18123 3.74256 2.20703 3.73568C2.22596 3.73051 2.24316 3.72535 2.26381 3.72191C2.25005 3.72363 2.21736 3.72363 2.26553 3.72535C2.26725 3.72535 2.26897 3.72535 2.27069 3.72535C2.49607 3.72879 2.72317 3.72535 2.95027 3.72535C3.47845 3.72535 4.00663 3.72535 4.5348 3.72535C5.26772 3.72535 6.00063 3.72535 6.73354 3.72535C7.56796 3.72535 8.40238 3.72535 9.2368 3.72535C10.0712 3.72535 10.9056 3.72535 11.7401 3.72535C12.473 3.72535 13.2059 3.72535 13.9388 3.72535C14.4687 3.72535 14.9986 3.72535 15.5285 3.72535C15.7539 3.72535 15.9792 3.72879 16.2029 3.72535C16.2046 3.72535 16.2063 3.72535 16.2081 3.72535C16.1771 3.72535 16.2666 3.72707 16.2218 3.72363C16.184 3.72019 16.2562 3.73223 16.2562 3.73223C16.2683 3.73395 16.2992 3.75116 16.258 3.73051C16.2717 3.7374 16.2838 3.746 16.2975 3.75288C16.3388 3.77525 16.3079 3.76148 16.2992 3.75288C16.2975 3.75116 16.3491 3.80449 16.3251 3.77525C16.301 3.74772 16.344 3.80621 16.344 3.80449C16.3509 3.81482 16.3612 3.8475 16.3457 3.80449C16.3509 3.81998 16.3543 3.83374 16.3595 3.84922C16.3801 3.91976 16.3595 3.80621 16.3612 3.87847ZM16.3612 3.87847C16.3646 4.01267 16.4765 4.14342 16.6193 4.13654C16.7552 4.12966 16.8808 4.02299 16.8773 3.87847C16.867 3.50858 16.5797 3.21954 16.2098 3.21094C16.1943 3.21094 16.1771 3.21094 16.1616 3.21094C16.0567 3.21094 15.9517 3.21094 15.8485 3.21094C15.3909 3.21094 14.9349 3.21094 14.4773 3.21094C13.7805 3.21094 13.082 3.21094 12.3852 3.21094C11.5577 3.21094 10.7284 3.21094 9.90089 3.21094C9.04583 3.21094 8.19076 3.21094 7.33398 3.21094C6.55461 3.21094 5.77525 3.21094 4.99761 3.21094C4.40405 3.21094 3.81222 3.21094 3.21866 3.21094C2.9193 3.21094 2.61822 3.21094 2.31886 3.21094C2.30166 3.21094 2.28618 3.21094 2.26897 3.21094C1.918 3.21954 1.63412 3.47933 1.60316 3.8303C1.58423 4.03675 1.59972 4.24837 1.59972 4.45482C1.59972 5.20322 1.59972 5.95162 1.59972 6.70001C1.59972 6.75507 1.59972 6.8084 1.59972 6.86345C1.59972 7.00281 1.71843 7.12152 1.85778 7.12152C1.99026 7.12152 2.12273 7.12152 2.25349 7.12152C2.61134 7.12152 2.96919 7.12152 3.32533 7.12152C3.85351 7.12152 4.38168 7.12152 4.90986 7.12152C5.55675 7.12152 6.20536 7.12152 6.85225 7.12152C7.56108 7.12152 8.2699 7.12152 8.98045 7.12152C9.69272 7.12152 10.4067 7.12152 11.119 7.12152C11.7831 7.12152 12.4489 7.12152 13.113 7.12152C13.6773 7.12152 14.2416 7.12152 14.8059 7.12152C15.2102 7.12152 15.6145 7.12152 16.0188 7.12152C16.2115 7.12152 16.4025 7.12496 16.5952 7.12152C16.6038 7.12152 16.6107 7.12152 16.6193 7.12152C16.7586 7.12152 16.8773 7.00281 16.8773 6.86345C16.8773 6.52625 16.8773 6.18904 16.8773 5.85183C16.8773 5.31849 16.8773 4.78343 16.8773 4.25009C16.8773 4.12622 16.8773 4.00234 16.8773 3.88019C16.8773 3.746 16.7586 3.61524 16.6193 3.62213C16.4799 3.62557 16.3612 3.73223 16.3612 3.87847Z" stroke="#4CBBCA" stroke-width="0.7"/>
<path d="M9.4966 14.2854C9.4966 13.6798 9.4966 13.0742 9.4966 12.4686C9.4966 11.5034 9.4966 10.5382 9.4966 9.57477C9.4966 9.35283 9.4966 9.13261 9.4966 8.91067C9.4966 8.77648 9.37789 8.64572 9.23854 8.6526C9.09918 8.65949 8.98047 8.76615 8.98047 8.91067C8.98047 9.51627 8.98047 10.1219 8.98047 10.7275C8.98047 11.6926 8.98047 12.6578 8.98047 13.6213C8.98047 13.8432 8.98047 14.0634 8.98047 14.2854C8.98047 14.4196 9.09918 14.5503 9.23854 14.5434C9.37789 14.5365 9.4966 14.4299 9.4966 14.2854Z" fill="#4CBBCA" stroke="#4CBBCA" stroke-width="0.7"/>
<path d="M11.926 11.3398C11.3204 11.3398 10.7148 11.3398 10.1092 11.3398C9.14402 11.3398 8.17884 11.3398 7.21539 11.3398C6.99345 11.3398 6.77323 11.3398 6.5513 11.3398C6.4171 11.3398 6.28635 11.4586 6.29323 11.5979C6.30011 11.7373 6.40678 11.856 6.5513 11.856C7.1569 11.856 7.76249 11.856 8.36809 11.856C9.33327 11.856 10.2984 11.856 11.2619 11.856C11.4838 11.856 11.704 11.856 11.926 11.856C12.0602 11.856 12.1909 11.7373 12.1841 11.5979C12.1772 11.4586 12.0705 11.3398 11.926 11.3398Z" fill="#4CBBCA" stroke="#4CBBCA" stroke-width="0.7"/>
</svg>
