<svg width="19" height="19" viewBox="0 0 19 19" fill="none" xmlns="http://www.w3.org/2000/svg">
<path d="M14.3217 12.5572C14.3127 12.5572 14.304 12.5585 14.295 12.5585C13.3322 10.9664 11.8216 9.83894 10.0947 9.37699C11.4656 8.717 12.4164 7.31854 12.4164 5.69872C12.4164 3.44501 10.5827 1.61133 8.32901 1.61133C6.07529 1.61133 4.24161 3.44501 4.24161 5.69872C4.24161 7.31683 5.19032 8.71422 6.55906 9.37507C3.53671 10.1865 1.29883 13.0249 1.29883 16.3928V16.7136H11.7752C12.2489 17.6405 13.2113 18.2778 14.3217 18.2778C15.899 18.2778 17.1822 16.9947 17.1822 15.4174C17.1822 13.8401 15.899 12.5572 14.3217 12.5572ZM4.88321 5.69872C4.88321 3.79874 6.42903 2.25292 8.32901 2.25292C10.229 2.25292 11.7748 3.79874 11.7748 5.69872C11.7748 7.5972 10.229 9.14195 8.32901 9.14195C6.42903 9.14195 4.88321 7.5972 4.88321 5.69872ZM1.94791 16.072C2.11002 12.576 4.91037 9.78355 8.32901 9.78355C10.448 9.78355 12.4096 10.87 13.5944 12.6545C12.3689 12.9774 11.4613 14.0921 11.4613 15.4176C11.4613 15.643 11.4901 15.8616 11.5398 16.0723H1.94791V16.072ZM14.3217 17.6363C13.0982 17.6363 12.1029 16.6409 12.1029 15.4174C12.1029 14.1939 13.0982 13.1985 14.3217 13.1985C15.5452 13.1985 16.5406 14.1941 16.5406 15.4174C16.5406 16.6407 15.5452 17.6363 14.3217 17.6363Z" fill="#4CBBCA" stroke="#4CBBCA" stroke-width="0.5"/>
<path d="M15.4182 15.0961H14.6429V14.3208C14.6429 14.1435 14.4994 14 14.3221 14C14.1448 14 14.0013 14.1435 14.0013 14.3208V15.0961H13.2261C13.0488 15.0961 12.9053 15.2396 12.9053 15.4169C12.9053 15.5942 13.0488 15.7377 13.2261 15.7377H14.0013V16.5129C14.0013 16.6902 14.1448 16.8337 14.3221 16.8337C14.4994 16.8337 14.6429 16.6902 14.6429 16.5129V15.7377H15.4182C15.5955 15.7377 15.739 15.5942 15.739 15.4169C15.739 15.2396 15.5955 15.0961 15.4182 15.0961Z" fill="#4CBBCA" stroke="#4CBBCA" stroke-width="0.5"/>
</svg>
