<svg xmlns="http://www.w3.org/2000/svg" width="18" height="19" fill="none" viewBox="0 0 20 22">
    <path fill="#4CBBCA" d="M18.857 2.095h-2.095a.524.524 0 1 1 0-1.047h2.619a.524.524 0 0 1 .524.523v19.905a.524.524 0 0 1-.524.524H.524A.524.524 0 0 1 0 21.476V1.571a.524.524 0 0 1 .524-.523h2.619a.524.524 0 0 1 0 1.047H1.048v18.857h17.81V2.095zM5.762 0h8.38a.524.524 0 0 1 .525.524v3.143a.524.524 0 0 1-.524.523H5.762a.524.524 0 0 1-.524-.523V.524A.524.524 0 0 1 5.762 0zm.524 1.048v2.095h7.333V1.048H6.286zm-.524 10.476a.524.524 0 0 1 0-1.048h8.38a.524.524 0 0 1 0 1.048h-8.38zm0 4.19a.524.524 0 0 1 0-1.047h8.38a.524.524 0 0 1 0 1.047h-8.38z" stroke="#4CBBCA" stroke-width="0.5"/>
</svg>
