<svg width="19" height="19" viewBox="0 0 19 19" fill="none" xmlns="http://www.w3.org/2000/svg">
<path d="M1.50517 17.4233H6.22139C6.28595 17.4233 6.34787 17.3976 6.39353 17.3519C6.43918 17.3063 6.46483 17.2444 6.46482 17.1798V13.4114C6.46483 13.3469 6.43918 13.285 6.39353 13.2393C6.34788 13.1936 6.28595 13.168 6.22139 13.168H1.50517C1.4406 13.168 1.37867 13.1936 1.33302 13.2393C1.28736 13.285 1.26171 13.3469 1.26172 13.4114V17.1798C1.26172 17.2444 1.28736 17.3063 1.33302 17.352C1.37867 17.3976 1.4406 17.4233 1.50517 17.4233ZM2.32554 14.2318H5.40101V16.3595H2.32554V14.2318Z" fill="#4CBBCA" stroke="#4CBBCA" stroke-width="0.4"/>
<path d="M16.9753 13.168H12.2591C12.1945 13.168 12.1326 13.1936 12.0869 13.2393C12.0413 13.2849 12.0156 13.3469 12.0156 13.4114V17.1798C12.0156 17.2444 12.0413 17.3063 12.087 17.352C12.1326 17.3976 12.1945 17.4233 12.2591 17.4233H16.9753C17.0073 17.4233 17.0389 17.417 17.0685 17.4047C17.098 17.3925 17.1249 17.3746 17.1475 17.352C17.1701 17.3294 17.188 17.3025 17.2002 17.273C17.2125 17.2434 17.2188 17.2118 17.2188 17.1798V13.4114C17.2188 13.3795 17.2125 13.3478 17.2002 13.3183C17.188 13.2887 17.1701 13.2619 17.1475 13.2393C17.1249 13.2167 17.098 13.1987 17.0685 13.1865C17.0389 13.1743 17.0073 13.168 16.9753 13.168ZM16.155 16.3595H13.0795V14.2318H16.155V16.3595Z" fill="#4CBBCA" stroke="#4CBBCA" stroke-width="0.4"/>
<path d="M3.41992 9.60106V12.2831H4.30644V10.2441H14.1742V12.2831H15.0607V9.60106C15.0607 9.53648 15.035 9.47455 14.9894 9.4289C14.9437 9.38324 14.8818 9.35759 14.8172 9.35759H9.68357V6.60938H8.79705V9.35759H3.66339C3.63141 9.35759 3.59975 9.36389 3.57022 9.37612C3.54068 9.38836 3.51384 9.40629 3.49123 9.4289C3.46862 9.45151 3.45069 9.47835 3.43845 9.50789C3.42622 9.53742 3.41992 9.56908 3.41992 9.60106Z" fill="#4CBBCA" stroke="#4CBBCA" stroke-width="0.4"/>
<path d="M11.5983 5.72208C11.6303 5.72209 11.662 5.71579 11.6915 5.70356C11.7211 5.69132 11.7479 5.67339 11.7705 5.65078C11.7931 5.62817 11.8111 5.60133 11.8233 5.57179C11.8355 5.54225 11.8418 5.51059 11.8418 5.47861V1.71026C11.8418 1.67829 11.8355 1.64663 11.8233 1.61709C11.8111 1.58754 11.7931 1.5607 11.7705 1.53809C11.7479 1.51548 11.7211 1.49755 11.6915 1.48531C11.662 1.47308 11.6303 1.46678 11.5983 1.46679H6.88216C6.81759 1.46679 6.75566 1.49244 6.71 1.5381C6.66433 1.58376 6.63868 1.64569 6.63867 1.71026V5.47861C6.63868 5.54319 6.66434 5.60511 6.71 5.65077C6.75566 5.69643 6.81759 5.72208 6.88216 5.72208H11.5983ZM7.70254 2.53061H10.778V4.65826H7.70254V2.53061Z" fill="#4CBBCA" stroke="#4CBBCA" stroke-width="0.4"/>
</svg>
