<svg width="19" height="19" viewBox="0 0 19 19" fill="none" xmlns="http://www.w3.org/2000/svg">
<path d="M13.9385 4.25586C13.9385 4.25586 12.6424 5.40797 12.4984 5.44397C12.1023 5.51598 10.3382 4.6879 9.97815 4.57989C9.61811 4.50788 6.05378 5.62399 5.80175 6.05603C5.54973 6.48807 6.59383 7.49617 7.60192 7.35215C8.61002 7.20814 10.1222 6.70409 10.5542 7.13613C11.2743 7.8562 13.3265 10.0164 14.2986 10.8805C15.1266 11.6006 17.5029 7.8562 17.5029 7.8562" stroke="#4CBBCA" stroke-width="1.2" stroke-miterlimit="10" stroke-linejoin="round"/>
<path d="M9.58277 14.7682L8.43066 13.5801" stroke="#4CBBCA" stroke-width="1.2" stroke-miterlimit="10" stroke-linejoin="round"/>
<path d="M11.5268 14.12L9.47461 11.9238" stroke="#4CBBCA" stroke-width="1.2" stroke-miterlimit="10" stroke-linejoin="round"/>
<path d="M13.2911 13.112L10.8789 10.5918" stroke="#4CBBCA" stroke-width="1.2" stroke-miterlimit="10" stroke-linejoin="round"/>
<path d="M5.47762 14.769C5.76565 15.057 6.19769 15.057 6.48572 14.769L7.13378 14.1209C7.42181 13.8329 7.3498 13.4008 7.02577 13.0768C6.70174 12.7528 6.2697 12.6808 5.98167 12.9688C6.2697 12.6808 6.19769 12.2487 5.87366 11.9247C5.54963 11.6007 5.11759 11.5287 4.82956 11.8167C5.11759 11.5287 5.04558 11.0966 4.72155 10.7726C4.39752 10.4486 3.96548 10.4126 3.71346 10.6646C4.00148 10.3766 3.92948 9.94451 3.60545 9.62048C3.28142 9.29645 2.84937 9.22444 2.56135 9.51247L1.91329 10.1605C1.62526 10.4486 1.62526 10.8806 1.91329 11.1686L5.47762 14.769Z" stroke="#4CBBCA" stroke-width="1.2" stroke-miterlimit="10" stroke-linejoin="round"/>
<path d="M6.81055 14.4812L7.02657 14.6972L7.56662 15.2373C8.3947 16.0654 9.18677 15.4533 9.58281 14.7692C10.3389 15.1653 11.203 14.7332 11.527 14.1212C12.4991 14.5892 13.3632 13.6171 13.2912 13.1131C14.3353 13.0411 15.0553 11.853 14.3353 10.8809" stroke="#4CBBCA" stroke-width="1.2" stroke-miterlimit="10" stroke-linejoin="round"/>
<path d="M0.977539 8.2168L1.76961 9.04487C1.84162 9.3329 2.05764 9.62093 2.23766 9.87295" stroke="#4CBBCA" stroke-width="1.2" stroke-miterlimit="10" stroke-linejoin="round"/>
<path d="M5.87425 6.02073L4.57812 4.72461" stroke="#4CBBCA" stroke-width="1.2" stroke-miterlimit="10" stroke-linejoin="round"/>
<path d="M3.71363 10.6641L2.56152 11.8522" stroke="#4CBBCA" stroke-width="1.2" stroke-miterlimit="10" stroke-linejoin="round"/>
<path d="M3.71363 10.6641L2.56152 11.8522" stroke="#4CBBCA" stroke-width="1.2" stroke-miterlimit="10" stroke-linejoin="round"/>
<path d="M4.82997 11.8164L3.71387 13.0045" stroke="#4CBBCA" stroke-width="1.2" stroke-miterlimit="10" stroke-linejoin="round"/>
<path d="M5.98232 12.9688L4.86621 14.1569" stroke="#4CBBCA" stroke-width="1.2" stroke-miterlimit="10" stroke-linejoin="round"/>
</svg>
