<svg width="19" height="19" viewBox="0 0 19 19" fill="none" xmlns="http://www.w3.org/2000/svg">
<path d="M4.31543 2.53516V5.44463C4.31543 6.2759 4.949 6.98843 5.69776 7.10718V10.7886C5.12179 10.9073 4.77621 11.4417 4.77621 11.9761V17.4981C4.77621 17.6763 4.8914 17.795 5.06419 17.795H6.9073C7.02249 17.795 7.13769 17.6763 7.19529 17.5575V12.0355C7.19529 11.4417 6.79211 10.9667 6.27373 10.8479V7.10718C6.9649 6.92905 7.54087 6.21653 7.54087 5.44463V2.53516" stroke="#4CBBCA" stroke-width="1.3" stroke-miterlimit="10" stroke-linejoin="round"/>
<path d="M13.8192 2.05975H12.4369C11.4577 2.05975 10.709 2.89103 10.709 3.84106V17.5571C10.709 17.7353 10.8242 17.854 10.997 17.854H12.7249C12.8977 17.854 13.0129 17.7353 13.0129 17.5571V13.0445H13.8768C14.0496 13.0445 14.1648 12.9257 14.1648 12.7476V2.29726C14.1648 2.23788 14.1072 2.1785 14.0496 2.11913C13.9344 2.05975 13.8768 2.00037 13.8192 2.05975Z" stroke="#4CBBCA" stroke-width="1.3" stroke-miterlimit="10" stroke-linejoin="round"/>
</svg>
