<svg width="19" height="19" viewBox="0 0 19 19" fill="none" xmlns="http://www.w3.org/2000/svg">
<path d="M12.4034 7.11792C12.0313 6.89171 10.9148 6.7409 9.79839 6.7409C8.68195 6.7409 7.56551 6.89171 7.19336 7.11792V3.34772C7.56551 3.12151 8.68195 2.9707 9.79839 2.9707C10.9148 2.9707 12.0313 3.12151 12.4034 3.34772V7.11792Z" stroke="#4CBBCA" stroke-width="1.2" stroke-miterlimit="10" stroke-linejoin="round"/>
<path d="M7.19336 2.2168V13.1504" stroke="#4CBBCA" stroke-width="1.2" stroke-miterlimit="10" stroke-linejoin="round"/>
<path d="M7.93713 11.002C8.79307 11.3036 9.42572 12.133 9.42572 13.151C9.42572 14.3951 8.42093 15.4131 7.19284 15.4131C5.96476 15.4131 4.95996 14.3951 4.95996 13.151C4.95996 12.1707 5.59261 11.3413 6.44855 11.002" stroke="#4CBBCA" stroke-width="1.2" stroke-miterlimit="10" stroke-linejoin="round"/>
<path d="M7.93759 8.70117C10.0588 9.07819 11.6591 10.9256 11.6591 13.15C11.6591 15.6383 9.64947 17.6743 7.1933 17.6743C4.73713 17.6743 2.72754 15.6383 2.72754 13.15C2.72754 10.9256 4.32777 9.04049 6.44901 8.70117" stroke="#4CBBCA" stroke-width="1.2" stroke-miterlimit="10" stroke-linejoin="round"/>
<path d="M11.2871 7.49503V8.24907C11.6593 8.47528 12.7757 8.62609 13.8921 8.62609C14.562 8.62609 15.2319 8.55068 15.7529 8.47528V4.70508C15.2319 4.81818 14.562 4.85589 13.8921 4.85589C13.7805 4.85589 13.2595 4.85589 13.1478 4.85589" stroke="#4CBBCA" stroke-width="1.2" stroke-miterlimit="10" stroke-linejoin="round"/>
</svg>
