<svg width="19" height="19" viewBox="0 0 19 19" fill="none" xmlns="http://www.w3.org/2000/svg">
<path d="M17.2926 10.6466C17.2921 10.259 17.1938 9.88332 17.0003 9.52999C16.8169 9.19519 16.5565 8.8955 16.2263 8.63928C15.7727 8.2873 15.221 8.04341 14.6221 7.92392C14.7408 7.83947 14.8533 7.74445 14.9583 7.63921C15.4466 7.14979 15.7151 6.49949 15.7144 5.80812C15.7136 5.11674 15.4436 4.46705 14.9542 3.97873C14.4648 3.49039 13.8146 3.22165 13.1231 3.22266C11.9712 3.22395 10.9799 3.98131 10.6522 5.04679C10.2361 4.77425 9.74981 4.6276 9.2408 4.62703H9.23783C8.72968 4.62703 8.24389 4.77271 7.82792 5.04402C7.49934 3.97999 6.50877 3.22395 5.35781 3.22266C4.6668 3.22232 4.01615 3.4904 3.52673 3.97873C3.0373 4.46705 2.76735 5.11675 2.76657 5.80812C2.76578 6.49948 3.03429 7.14979 3.52262 7.63921C3.62764 7.74446 3.74014 7.83949 3.85889 7.92394C3.25999 8.04343 2.70818 8.28732 2.25461 8.63928C1.9244 8.89551 1.66401 9.19519 1.48065 9.52999C1.28714 9.88332 1.1888 10.259 1.18838 10.6466L1.18555 13.178C1.18542 13.2868 1.24841 13.3858 1.34701 13.4317C2.49101 13.9649 3.74167 14.2439 5.06887 14.2626L5.06852 14.5824C5.06839 14.6912 5.13138 14.7902 5.22998 14.8361C6.4144 15.3881 7.71513 15.668 9.09603 15.6681C9.09625 15.6681 9.09635 15.6681 9.09657 15.6681C10.3133 15.6681 11.3683 15.4458 12.0391 15.2594C12.7696 15.0563 13.2103 14.8536 13.2287 14.845C13.3274 14.7993 13.3906 14.7005 13.3907 14.5917L13.3911 14.2629C14.726 14.2468 15.984 13.9677 17.1339 13.4317C17.2325 13.3858 17.2955 13.2868 17.2954 13.178L17.2926 10.6466ZM13.1238 3.78177C13.1246 3.78177 13.1253 3.78177 13.1261 3.78177C13.6672 3.78177 14.1762 3.99222 14.5593 4.37451C14.943 4.75735 15.1546 5.2667 15.1552 5.80873C15.1558 6.35076 14.9453 6.86059 14.5625 7.24428C14.1797 7.62797 13.6703 7.83962 13.1283 7.84022C13.1275 7.84022 13.1267 7.84022 13.126 7.84022C12.6435 7.84022 12.1868 7.67282 11.8218 7.36565C11.8246 7.31675 11.8262 7.26764 11.8263 7.21828C11.827 6.55531 11.58 5.93021 11.1291 5.44842C11.3012 4.49092 12.1373 3.78288 13.1238 3.78177ZM9.24017 5.18615C9.7822 5.18675 10.2916 5.3984 10.6744 5.7821C11.0572 6.1658 11.2677 6.67562 11.2671 7.21765C11.2659 8.33533 10.3556 9.24462 9.23795 9.24462H9.2354C8.69346 9.24396 8.1842 9.03232 7.8014 8.64867C7.66397 8.51094 7.54889 8.35689 7.45768 8.19099C7.45299 8.18095 7.44769 8.17121 7.44185 8.1618C7.28916 7.87288 7.2083 7.54921 7.20867 7.21314C7.20992 6.09546 8.1202 5.18617 9.23782 5.18617H9.24017V5.18615ZM3.3257 5.80874C3.3263 5.26671 3.53795 4.75736 3.92164 4.37452C4.3048 3.99221 4.81367 3.78178 5.35483 3.78178C5.35559 3.78178 5.35642 3.78178 5.35718 3.78178C6.34207 3.78289 7.17712 4.48866 7.35101 5.44384C6.89883 5.92468 6.65028 6.54943 6.64954 7.2125C6.64949 7.26519 6.65118 7.31761 6.65423 7.36977C6.2901 7.67434 5.83532 7.84023 5.35499 7.84023C5.35423 7.84023 5.35341 7.84023 5.35265 7.84023C4.81063 7.83963 4.30128 7.62798 3.91843 7.24429C3.53559 6.86059 3.32509 6.35077 3.3257 5.80874ZM1.74489 12.9981L1.74752 10.6472C1.74817 10.062 2.05001 9.50578 2.59741 9.08101C3.16457 8.6409 3.91847 8.39865 4.72074 8.39865C4.72221 8.39865 4.72372 8.39865 4.72519 8.39865L5.97887 8.40005C6.33578 8.40044 6.68391 8.449 7.01549 8.54415C7.12331 8.72376 7.25382 8.89144 7.40561 9.04357C7.51075 9.14894 7.62341 9.24408 7.7423 9.32861C6.21092 9.63518 5.07283 10.7394 5.07136 12.051L5.06951 13.7034C3.88698 13.6857 2.77056 13.4491 1.74489 12.9981ZM12.8318 14.4059C12.3608 14.5944 10.9089 15.109 9.09661 15.109C9.09647 15.109 9.09621 15.109 9.09608 15.109C7.86017 15.1089 6.6943 14.8713 5.62786 14.4025L5.63049 12.0516C5.63115 11.4669 5.93247 10.9111 6.47896 10.4865C7.04614 10.0457 7.80075 9.80303 8.60376 9.80303L9.23476 9.80374C9.23483 9.80374 9.23492 9.80374 9.235 9.80374H9.23769L9.86185 9.80444C10.6658 9.80535 11.4209 10.0494 11.9881 10.4915C12.5345 10.9176 12.8351 11.4745 12.8345 12.0597L12.8318 14.4059ZM13.3918 13.7037L13.3936 12.0603C13.3951 10.748 12.2598 9.64169 10.7289 9.33188C10.8483 9.24738 10.9614 9.15218 11.067 9.0467C11.2197 8.89428 11.3509 8.72614 11.4592 8.54596C11.7927 8.44962 12.1429 8.40046 12.5021 8.40007L13.7557 8.39867C13.7573 8.39867 13.7587 8.39867 13.7602 8.39867C14.5624 8.39867 15.3164 8.64094 15.8835 9.08103C16.4309 9.5058 16.7328 10.062 16.7334 10.6473L16.7361 12.9982C15.7047 13.4516 14.5817 13.6884 13.3918 13.7037Z" fill="#4CBBCA" stroke="#4CBBCA" stroke-width="0.7"/>
</svg>
