<svg width="19" height="19" viewBox="0 0 19 19" fill="none" xmlns="http://www.w3.org/2000/svg">
<path d="M8.72002 9.43991C9.33003 9.43991 9.915 9.19762 10.3464 8.76627C10.7777 8.33492 11.02 7.74995 11.02 7.13994C11.02 6.52993 10.7777 5.94495 10.3464 5.5136C9.915 5.08226 9.33003 4.83997 8.72002 4.83997C8.11001 4.83997 7.52503 5.08226 7.09368 5.5136C6.66233 5.94495 6.42004 6.52993 6.42004 7.13994C6.42004 7.74995 6.66233 8.33492 7.09368 8.76627C7.52503 9.19762 8.11001 9.43991 8.72002 9.43991ZM8.72002 5.75998C9.08601 5.75998 9.43708 5.90534 9.69583 6.16418C9.95468 6.42293 10.1 6.77399 10.1 7.13999C10.1 7.50599 9.95467 7.85705 9.69583 8.1158C9.43708 8.37465 9.08601 8.51999 8.72002 8.51999C8.35402 8.51999 8.00296 8.37464 7.74421 8.1158C7.48536 7.85705 7.34001 7.50599 7.34001 7.13999C7.34001 6.77399 7.48537 6.42293 7.74421 6.16418C8.00296 5.90533 8.35402 5.75998 8.72002 5.75998V5.75998Z" fill="#4CBBCA" stroke="#4CBBCA" stroke-width="0.5"/>
<path d="M16.54 3H0.900093C0.778034 3 0.661076 3.04842 0.574831 3.13477C0.488484 3.22102 0.440063 3.33798 0.440063 3.46003V14.5001C0.440063 14.622 0.488482 14.7391 0.574831 14.8253C0.661081 14.9116 0.778039 14.96 0.900093 14.96H16.54C16.662 14.96 16.779 14.9116 16.8652 14.8253C16.9516 14.7391 17 14.622 17 14.5001V3.46003C17 3.33797 16.9516 3.22101 16.8652 3.13477C16.779 3.04842 16.662 3 16.54 3ZM4.6123 14.04C4.92938 13.213 5.49415 12.504 6.2294 12.0101C6.96464 11.5161 7.83446 11.261 8.72006 11.28C9.86307 11.2716 10.9659 11.7012 11.8021 12.4806C12.2594 12.9138 12.609 13.4478 12.8234 14.04H4.6123ZM16.0801 14.04H13.7801C13.7866 13.9958 13.7866 13.9509 13.7801 13.9066C13.522 13.1098 13.0662 12.3913 12.4553 11.8182C11.4443 10.8696 10.1064 10.3473 8.72018 10.3601C7.60923 10.3332 6.51878 10.6625 5.60827 11.2998C4.69784 11.9371 4.01516 12.849 3.66012 13.9021C3.65319 13.9479 3.65319 13.9944 3.66012 14.0401H1.36005V3.91998H16.0803L16.0801 14.04Z" fill="#4CBBCA" stroke="#4CBBCA" stroke-width="0.5"/>
<path d="M13.3201 15.8801H4.11996C3.95564 15.8801 3.80384 15.9677 3.72163 16.1101C3.63942 16.2525 3.63942 16.4278 3.72163 16.5701C3.80383 16.7124 3.95564 16.8001 4.11996 16.8001H13.3201C13.4845 16.8001 13.6363 16.7124 13.7185 16.5701C13.8007 16.4278 13.8007 16.2525 13.7185 16.1101C13.6363 15.9677 13.4845 15.8801 13.3201 15.8801Z" fill="#4CBBCA" stroke="#4CBBCA" stroke-width="0.5"/>
</svg>
