<?xml version="1.0" encoding="utf-8"?>
<!-- Generator: Adobe Illustrator 24.2.1, SVG Export Plug-In . SVG Version: 6.00 Build 0)  -->
<svg version="1.1" id="Layer_1" xmlns="http://www.w3.org/2000/svg" xmlns:xlink="http://www.w3.org/1999/xlink" x="0px" y="0px"
	 viewBox="0 0 47 47" style="enable-background:new 0 0 47 47;" xml:space="preserve">
<style type="text/css">
	.st0{fill:none;stroke:#4CBBCA;stroke-linecap:round;stroke-linejoin:round;}
</style>
<path class="st0" d="M30,7.2h-4.9v11.6c0,4.3,3.5,7.9,7.9,7.9l0,0 M35.8,7.2h5v11.6c0,4.3-3.5,7.9-7.9,7.9l0,0 M33,26.7v9.9
	c0,5.4-4.4,9.7-9.7,9.7l0,0c-5.4,0-9.7-4.4-9.7-9.7V29"/>
<circle class="st0" cx="13.6" cy="23.8" r="4.3"/>
<path class="st0" d="M12.2,6.6V1h3.1v5.6 M12.2,9.7v5.6h3.1V9.7"/>
<path class="st0" d="M12.2,6.6H6.7v3.1h5.6 M15.3,6.6h5.6v3.1h-5.6"/>
</svg>
