<svg width="173" height="160" viewBox="0 0 173 160" fill="none" xmlns="http://www.w3.org/2000/svg">
<path d="M168.044 78.0032C165.29 78.0032 163.087 80.2015 163.087 82.9494V127.941C163.087 140.179 153.101 150.108 140.875 150.108H32.1254C19.8627 150.108 9.91299 140.142 9.91299 127.941V82.2166C9.91299 79.4688 7.7101 77.2704 4.95649 77.2704C2.20289 77.2704 0 79.4688 0 82.2166V127.941C0 145.638 14.4289 160 32.1254 160H140.875C158.608 160 173 145.601 173 127.941V82.9494C173 80.2382 170.797 78.0032 168.044 78.0032Z" fill="#2BA7F1"/>
<path d="M83.0121 120.724C83.9666 121.676 85.2517 122.189 86.5 122.189C87.7483 122.189 89.0333 121.713 89.9879 120.724L121.489 89.2878C123.435 87.346 123.435 84.2317 121.489 82.2899C119.543 80.3481 116.422 80.3481 114.477 82.2899L91.4565 105.299V4.94619C91.4565 2.19831 89.2536 0 86.5 0C83.7463 0 81.5435 2.19831 81.5435 4.94619V105.299L58.4866 82.2899C56.5407 80.3481 53.4199 80.3481 51.4741 82.2899C49.5282 84.2317 49.5282 87.346 51.4741 89.2878L83.0121 120.724Z" fill="#2BA7F1"/>
</svg>
