<?xml version="1.0" encoding="utf-8"?>
<!-- Generator: Adobe Illustrator 24.2.1, SVG Export Plug-In . SVG Version: 6.00 Build 0)  -->
<svg version="1.1" id="Layer_1" xmlns="http://www.w3.org/2000/svg" xmlns:xlink="http://www.w3.org/1999/xlink" x="0px" y="0px"
	 viewBox="0 0 59 47" style="enable-background:new 0 0 59 47;" xml:space="preserve">
<style type="text/css">
	.st0{fill:none;stroke:#4CBBCA;stroke-linecap:round;stroke-linejoin:round;}
</style>
<path class="st0" d="M4.7,7.9v6.6 M54.4,7.9v6.6 M4.7,14.5v31.7h49.7V14.5 M4.7,14.5h6.1 M18.9,14.5h6.6 M34,14.5h6.1 M48.2,14.5
	h6.1"/>
<path class="st0" d="M0.9,46.2h57.2 M50.6,0.8H37.8 M33.6,0.8V37c0,2.2-1.8,4-4,4l0,0c-2.2,0-4-1.8-4-4V0.8 M33.6,0.8h-8 M33.6,0.8
	h2.4 M25.5,0.8h-2.4 M18.9,0.8V37c0,2.2-1.8,4-4,4l0,0c-2.2,0-4-1.8-4-4V0.8 M18.9,0.8h-8 M18.9,0.8h2.4 M10.9,0.8H8.5 M48.2,0.8V37
	c0,2.2-1.8,4-4,4l0,0c-2.2,0-4-1.8-4-4V0.8H48.2z"/>
</svg>
