<svg width="474" height="475" viewBox="0 0 474 475" fill="#C34542" xmlns="http://www.w3.org/2000/svg">
<path d="M236.814 1.45898C299.971 1.45898 359.247 26.0221 403.905 70.6753C448.562 115.329 473.128 174.598 473.128 237.749C473.128 300.9 448.562 360.17 403.905 404.823C359.247 449.476 299.971 474.039 236.814 474.039C173.657 474.039 114.381 449.476 69.7233 404.823C25.0655 360.17 0.5 300.9 0.5 237.749C0.5 174.598 25.0655 115.329 69.7233 70.6753C114.381 26.0221 173.657 1.45898 236.814 1.45898ZM236.814 448.131C292.961 448.131 345.813 426.253 385.575 386.495C467.599 304.48 467.599 171.019 385.575 89.0031C345.813 49.245 292.961 27.367 236.814 27.367C180.667 27.367 127.815 49.245 88.053 89.0031C6.02934 171.019 6.02934 304.48 88.053 386.495C127.815 426.253 180.667 448.131 236.814 448.131Z" fill="#C34542" stroke="#C34542"/>
<path d="M236.461 219.068L236.814 219.422L237.168 219.068L322.485 133.76C327.572 128.673 335.727 128.673 340.815 133.76C345.902 138.847 345.902 147.001 340.815 152.088L255.498 237.396L255.145 237.749L255.497 238.103L340.615 323.411L340.615 323.411C345.702 328.498 345.702 336.652 340.615 341.739L340.609 341.746C338.118 344.332 334.862 345.579 331.5 345.579C328.245 345.579 324.883 344.237 322.385 341.739L237.068 256.431L236.715 256.077L236.361 256.431L151.044 341.739L151.038 341.746C148.548 344.331 145.193 345.579 141.929 345.579C138.674 345.579 135.313 344.237 132.814 341.739C127.727 336.652 127.727 328.498 132.814 323.411L218.131 238.103L218.485 237.749L218.131 237.396L132.814 152.088C127.727 147.001 127.727 138.847 132.814 133.76C137.902 128.673 146.057 128.673 151.144 133.76L236.461 219.068Z" fill="#C34542" stroke="#C34542"/>
</svg>
