<svg width="470" height="437" viewBox="0 0 470 437" fill="none" xmlns="http://www.w3.org/2000/svg">
<path d="M456.186 213.001C448.711 213.001 442.73 218.98 442.73 226.454V348.836C442.73 382.122 415.62 409.13 382.431 409.13H87.2105C53.921 409.13 26.9107 382.022 26.9107 348.836V224.461C26.9107 216.987 20.9305 211.007 13.4553 211.007C5.98015 211.007 0 216.987 0 224.461V348.836C0 396.971 39.17 436.038 87.2105 436.038H382.431C430.571 436.038 469.641 396.872 469.641 348.836V226.454C469.641 219.08 463.661 213.001 456.186 213.001Z" fill="#2BA7F1"/>
<path d="M158.773 109.355L221.365 46.769V319.736C221.365 327.21 227.345 333.189 234.821 333.189C242.296 333.189 248.276 327.21 248.276 319.736V46.769L310.868 109.355C313.46 111.946 316.948 113.341 320.337 113.341C323.825 113.341 327.214 112.046 329.805 109.355C335.088 104.073 335.088 95.602 329.805 90.3201L244.289 4.81254C241.797 2.32106 238.309 0.826172 234.821 0.826172C231.233 0.826172 227.844 2.2214 225.352 4.81254L139.836 90.3201C134.553 95.602 134.553 104.073 139.836 109.355C145.019 114.537 153.59 114.537 158.773 109.355Z" fill="#2BA7F1"/>
</svg>
