<?xml version="1.0" encoding="utf-8"?>
<!-- Generator: Adobe Illustrator 23.0.1, SVG Export Plug-In . SVG Version: 6.00 Build 0)  -->
<svg version="1.1" id="Layer_1" xmlns="http://www.w3.org/2000/svg" xmlns:xlink="http://www.w3.org/1999/xlink" x="0px" y="0px"
	 viewBox="0 0 800 525" style="enable-background:new 0 0 800 525;" xml:space="preserve">
<style type="text/css">
	.st0{fill:#92918F;}
</style>
<g>
	<g>
		<g>
			<path class="st0" d="M658.2,306.8c-13.2,2.1-20.8,9.3-20.8,17.9v0.4c0,9,4.5,14.3,20.8,19.3V306.8z"/>
			<path class="st0" d="M298.5,237.9c3.1,10.5,3,26.8-15.4,45.2c-11.2,11.2-22.9,16.9-34.7,16.9c-20.9,0-36.8-17.7-48.4-39v264h550
				c27.5,0,50-22.5,50-50V200H260.9C278.6,209.6,293.8,222.1,298.5,237.9z M614.8,400.3c4.4,0,7.2,1.1,9.2,2.5
				c10.5,7.4,21.6,12.4,34.1,14.7V373c-33.5-7.9-52.3-18.3-52.3-45.4v-0.5c0-24.7,21.4-42.3,52.3-45.2v-13.2
				c0-6.9,5.6-12.5,12.5-12.5s12.5,5.6,12.5,12.5v13.7c15.4,1.9,28.6,6.6,40.7,13.7c3.6,1.8,6.9,5.6,6.9,11
				c0,7.2-6.7,12.9-14.8,12.9c-3.1,0-5.6-0.7-8.2-2c-8.3-4.7-16.4-8-24.6-10v42.6c35.8,8.1,54.3,20.1,54.3,45.4v0.4
				c0,26.9-21.9,43.8-54.3,46.6v13.2c0,6.9-5.6,12.5-12.5,12.5s-12.5-5.6-12.5-12.5v-13.7c-18.7-2.2-36.3-8.6-52.1-18.8
				c-3.6-2.2-6.1-6.1-6.1-10.6C600,405.9,606.7,400.3,614.8,400.3z"/>
			<path class="st0" d="M706,399.2v-0.4c0-8.9-4.5-14.5-22.8-19.9v39.4C697.4,416.2,706,409,706,399.2z"/>
			<path class="st0" d="M126.6,300c-11.8,0-23.5-5.7-34.7-16.9c-18.3-18.3-18.5-34.7-15.4-45.2c4.7-15.8,19.9-28.4,37.6-37.9H0v275
				c0,27.5,22.5,50,50,50h125V261C163.4,282.3,147.5,300,126.6,300z"/>
			<path class="st0" d="M100.5,245.1c-0.6,2.2-2.6,8.7,9.1,20.4c4.4,4.4,10.9,9.6,17,9.6c16.8,0,33.9-36.9,43.7-70.2
				C139.5,213.8,105.2,229.2,100.5,245.1z"/>
			<path class="st0" d="M76.5,137.1c-3.1-10.5-3-26.8,15.4-45.2C103.1,80.7,114.8,75,126.6,75c20.9,0,36.8,17.7,48.4,39V0H50
				C22.5,0,0,22.5,0,50v125h114.1C96.4,165.4,81.3,152.9,76.5,137.1z"/>
			<path class="st0" d="M750,0H200v114c11.6-21.4,27.5-39,48.4-39c11.8,0,23.5,5.7,34.7,16.9c18.4,18.3,18.5,34.7,15.4,45.2
				c-4.7,15.8-19.9,28.3-37.6,37.9H800V50C800,22.5,777.5,0,750,0z"/>
			<path class="st0" d="M126.6,100c-6.1,0-12.6,5.2-17,9.6c-11.7,11.7-9.7,18.2-9.1,20.4c4.7,15.9,39,31.4,69.8,40.3
				C160.5,136.9,143.4,100,126.6,100z"/>
			<path class="st0" d="M274.5,129.9c0.6-2.1,2.6-8.7-9.1-20.4c-4.4-4.4-10.9-9.6-17-9.6c-16.8,0-33.9,36.9-43.7,70.3
				C235.5,161.3,269.8,145.8,274.5,129.9z"/>
			<path class="st0" d="M248.4,275c6.1,0,12.6-5.2,17-9.6c11.7-11.7,9.7-18.2,9.1-20.4c-4.7-15.9-39-31.3-69.8-40.3
				C214.5,238.1,231.6,275,248.4,275z"/>
		</g>
	</g>
</g>
</svg>
