<?xml version="1.0" encoding="utf-8"?>
<!-- Generator: Adobe Illustrator 19.1.0, SVG Export Plug-In . SVG Version: 6.00 Build 0)  -->
<svg version="1.1" id="Ñëîé_1" xmlns="http://www.w3.org/2000/svg" xmlns:xlink="http://www.w3.org/1999/xlink" x="0px" y="0px"
	 viewBox="0 0 800 800" enable-background="new 0 0 800 800" xml:space="preserve">
<g>
	<path fill="#00A1B9" d="M624.007,70.258h-67.339l3.866,33.196l4.507,13.422h73.44v621.573H189.782V116.876h75.225l4.511-13.422
		l3.863-33.196H206.04c-37.687,0-68.703,26.002-68.703,59.697v597.377c0,33.694,31.016,61.62,68.703,61.62h417.967
		c37.688,0,68.861-27.926,68.861-61.62V129.955C692.868,96.259,661.694,70.258,624.007,70.258z"/>
	<path fill="#00A1B9" d="M413.155,159.609h146.5l-16.112-55.359l-5.861-55.359h-81.109c-1.189-21.367-20.175-37.843-43.417-37.843
		c-23.241,0-42.228,16.476-43.415,37.843h-81.103l-5.863,55.359l-16.112,55.359H413.155z M413.155,30.056
		c13.626,0,24.71,9.463,24.71,21.094c0,11.631-11.084,21.095-24.71,21.095c-13.625,0-24.709-9.464-24.709-21.095
		C388.446,39.519,399.531,30.056,413.155,30.056z"/>
	<rect x="317.982" y="651.04" fill="#00A1B9" width="213.666" height="31.079"/>
	<rect x="317.982" y="544.207" fill="#00A1B9" width="250.572" height="31.079"/>
	<rect x="317.982" y="443.202" fill="#00A1B9" width="231.148" height="31.079"/>
	<rect x="317.982" y="334.426" fill="#00A1B9" width="275.823" height="31.079"/>
	<rect x="319.924" y="241.19" fill="#00A1B9" width="248.629" height="31.079"/>
	<circle fill="#00A1B9" cx="246.828" cy="257.306" r="24.287"/>
	<circle fill="#00A1B9" cx="246.828" cy="350.511" r="24.287"/>
	<circle fill="#00A1B9" cx="246.828" cy="459.131" r="24.287"/>
	<circle fill="#00A1B9" cx="246.828" cy="559.734" r="24.287"/>
	<circle fill="#00A1B9" cx="246.828" cy="667.499" r="24.287"/>
</g>
</svg>
