<?xml version="1.0" encoding="utf-8"?>
<!-- Generator: Adobe Illustrator 21.0.2, SVG Export Plug-In . SVG Version: 6.00 Build 0)  -->
<svg version="1.1" xmlns="http://www.w3.org/2000/svg" xmlns:xlink="http://www.w3.org/1999/xlink" x="0px" y="0px"
	 viewBox="0 0 276.8 276.8" style="enable-background:new 0 0 276.8 276.8;" xml:space="preserve">
<style type="text/css">
	.st0{fill:#15B0BF;}
	.st1{fill:#1695A4;}
	.st2{fill:#FFFFFF;}
</style>
<g id="Layer_2">
</g>
<g id="Layer_1">
	<path class="st0" d="M137.3,276.8c-36.9-0.3-71.5-15-97.5-41.3c-26-26.4-40.1-61.2-39.8-98.1C0.6,61.6,62.7,0,138.4,0h1.1
		C176.4,0.3,211,15,237,41.4c26,26.4,40.1,61.2,39.8,98.1c-0.6,75.7-62.7,137.3-138.4,137.3H137.3z"/>
	<path class="st1" d="M275.9,154c-5.8-5.8-49.7-49.8-65.9-65.9c-2.6-2.6-7.2-8.7-11.5-5.7c-1.7,1.2-2.1,3.4-2,5.3
		c0.2,2.8,1.8,5.4,2.8,8c4.5,11,7.6,22.6,9.1,34.4c-3.4-3-6.3-6.6-9.6-9.6c-3.3-3.1-6.3-6.5-9.6-9.6c-2.9-2.7-7.4-2.3-8.9,1.6
		c-0.8,2-0.4,3.9,0.1,5.9c0.6,2.6,1.1,5.2,1.5,7.8c-1.5-1.7-3.3-3.2-4.9-4.9c-1.6-1.7-42.6-42.8-43.5-43.4c-2.3-1.2-4.5,0.8-6.1,2.2
		c-3.6,3.2-7.2,6.4-10.8,9.7c-4.7,4.2-9.3,8.4-14,12.5c-3.1,2.7-6,5.7-9.6,7.7c-3.9,2.2-8.6,4-13.2,4c-2.2,0-4.4,0-6.6,0
		c-2.7,0-5.4,0-8.1,0c-3.5,0-6.4,1.8-8.3,4.8c-2.5,4-1.9,8.9-1.9,13.4c0,6.3,0,12.5,0,18.8c0,4.4,0,8.8,0,13.1
		c0,3.6,1.2,7.3,3.9,9.8c2.1,1.9,3.9,4.1,6,6c1.9,2.1,4.1,4,6.1,6.1c2,2.1,87.7,87.8,89.1,89.2C220.9,265.6,269,215.8,275.9,154z"/>
	<path class="st2" d="M128,79.3c4.3-3.9,7.9-1.7,7.9,4.9v121.7c0,6.6-3.5,8.8-7.9,4.9l-30.8-27.5c-4.3-3.9-12.2-7-17.6-7H64.5
		c-5.3,0-9.7-5.4-9.7-11.9v-38.5c0-6.6,4.4-11.9,9.7-11.9h15.2c5.4,0,13.3-3.2,17.6-7L128,79.3z M191.5,114.6
		c-1.1-3.9-4.7-6.3-7.8-5.5c-3.1,0.9-4.6,4.5-3.6,8.1c4.5,19.1,4.5,36.7,0,55.8c-1,3.6,0.5,7.2,3.6,8.1c3.1,0.9,6.7-1.6,7.8-5.5
		C196.5,154.8,196.5,135.4,191.5,114.6z M169.2,136.4c-0.3-3.4-3.4-5.8-6.6-5.4c-3.2,0.4-5.4,3.2-5.1,6.3c0.6,6.2,0.6,9.4,0,15.6
		c-0.3,3.1,2,5.9,5.1,6.3c3.2,0.4,6.3-2,6.6-5.4C169.8,146.8,169.8,143.3,169.2,136.4z M208.4,87.3c-2.1-4.3-6.4-6.7-9.3-5.3
		c-2.9,1.3-3.4,5.6-1.5,9.6c15.7,35.6,15.7,71.4,0,106.9c-1.9,4-1.4,8.3,1.5,9.6c2.9,1.3,7.2-1,9.3-5.3
		C225.4,164.6,225.4,125.5,208.4,87.3z"/>
</g>
</svg>
