<?xml version="1.0" encoding="utf-8"?>
<!-- Generator: Adobe Illustrator 19.1.0, SVG Export Plug-In . SVG Version: 6.00 Build 0)  -->
<svg version="1.1" id="icons" xmlns="http://www.w3.org/2000/svg" xmlns:xlink="http://www.w3.org/1999/xlink" x="0px" y="0px"
	 viewBox="-202 288.5 206.8 216.5" style="enable-background:new -202 288.5 206.8 216.5;" xml:space="preserve">
<style type="text/css">
	.st0{clip-path:url(#SVGID_2_);fill:#15B0BF;}
	.st1{clip-path:url(#SVGID_2_);}
	.st2{fill:#DCDAC8;}
	.st3{fill:#C0BEAE;}
	.st4{fill:#F2EFDC;}
	.st5{clip-path:url(#SVGID_2_);fill:#D1ECFB;}
	.st6{clip-path:url(#SVGID_2_);fill:#A6DAE9;}
	.st7{clip-path:url(#SVGID_2_);fill:#FFFFFF;}
	.st8{clip-path:url(#SVGID_2_);fill:#2C5871;}
</style>
<g>
	<defs>
		<circle id="SVGID_1_" cx="-98.5" cy="394.7" r="100"/>
	</defs>
	<clipPath id="SVGID_2_">
		<use xlink:href="#SVGID_1_"  style="overflow:visible;"/>
	</clipPath>
	<circle class="st0" cx="-98.5" cy="394.7" r="100"/>
	<g class="st1">
		<path class="st2" d="M-78.9,433.4c0,10.4-8.4,18.8-18.8,18.8l0,0c-10.4,0-18.8-8.4-18.8-18.8v-19.3c0-10.4,8.4-18.8,18.8-18.8l0,0
			c10.4,0,18.8,8.4,18.8,18.8V433.4z"/>
		<path class="st3" d="M-84.9,445.2c0.3,0.3,0.7,0.6,1,1c3.1-3.3,5-7.8,5-12.7v-19.3c0-10.4-8.4-18.8-18.8-18.8
			c-10.2,0-18.5,8.1-18.8,18.2L-84.9,445.2z"/>
		<g>
			<g>
				<path class="st2" d="M-125.3,386.1c1.3,7.7,0.5,12.8-1.5,13.4c-1.9,0.6-4.8-3.2-7-10.6c-2.1-7.4-1.8-14.8,1-15.6
					C-130,372.3-126.6,378.4-125.3,386.1z"/>
			</g>
		</g>
		<g>
			<g>
				<path class="st2" d="M-72.5,387.3c-0.6,7.8,0.7,12.8,2.7,13.2c2,0.5,4.5-3.6,6-11.2c1.5-7.6,0.5-14.9-2.4-15.4
					C-69.1,373.1-71.9,379.4-72.5,387.3z"/>
			</g>
		</g>
		<path class="st4" d="M-98.6,336.1c-19.1-1.4-36.7,20.7-31.4,53.7c0.9,5.7,2.2,11.3,3.9,16.8c0.7,2.4,1.5,4.8,2.6,7.1
			c1.1,2.4,3.4,3.6,5.7,4.6c10.5,4.4,23.3,5.7,34.1,1.6c7.9-3,11.7-9.3,13.9-17.2c1.2-4.3,2-8.6,2.8-13
			C-61.9,356.8-79.5,334.7-98.6,336.1z"/>
		<path class="st2" d="M-76.9,417c0.5-0.3,1-0.7,1.4-1c3.8-3.2,4-7.6,5.3-12.1c1.3-4.6,2.3-9.4,3.1-14.1
			c5.2-32.5-11.9-54.4-30.7-53.7c0,5.9,0,11.9,0,17.8c0,10.8,0,21.7,0,32.5c0,4,0,8,0,12c0,5.1,0.6,10.1,0.6,15.2
			c0,3-0.3,8.9-0.3,8.9s6,0.6,16-3.1C-79.9,418.8-78.4,418-76.9,417z"/>
	</g>
	<polygon class="st5" points="-124.8,421.6 -165.7,433.7 -179.3,475.8 -93.6,501.8 -94.5,456.3 -98.5,443.1 -111.8,431.6 	"/>
	<polygon class="st6" points="-94.1,456.3 -100.2,443.5 -112.3,433.1 -131.8,448.7 -128.4,423 -124.4,414.3 -98.5,442 	"/>
	<polygon class="st5" points="-70.9,421.6 -30.1,433.7 -16.4,475.8 -102.1,501.8 -101.2,456.3 -97.3,443.1 -78.8,432.6 	"/>
	<path class="st7" d="M-93.8,497.6v-56.5l-3.5,2l-4,13.2l-0.9,45.5l8.1-2.5C-93.9,498.8-93.8,498.2-93.8,497.6z"/>
	<polygon class="st6" points="-101.6,457.1 -95.5,443.5 -83.5,436.1 -72,445.3 -69.2,422.3 -70.7,414.8 -97.3,442 	"/>
	<path class="st8" d="M-128,375.3h-1.4c-0.7,0-1.3-0.6-1.3-1.3v-10.9c0-0.7,0.6-1.3,1.3-1.3h1.4c0.7,0,1.3,0.6,1.3,1.3V374
		C-126.7,374.7-127.3,375.3-128,375.3z"/>
	<path class="st8" d="M-67.7,374.5h-1.4c-0.7,0-1.3-0.6-1.3-1.3v-10.9c0-0.7,0.6-1.3,1.3-1.3h1.4c0.7,0,1.3,0.6,1.3,1.3v10.9
		C-66.4,373.9-67,374.5-67.7,374.5z"/>
</g>
</svg>
