<?xml version="1.0" encoding="utf-8"?>
<!-- Generator: Adobe Illustrator 19.1.0, SVG Export Plug-In . SVG Version: 6.00 Build 0)  -->
<svg version="1.1" id="Layer_1" xmlns="http://www.w3.org/2000/svg" xmlns:xlink="http://www.w3.org/1999/xlink" x="0px" y="0px"
	 viewBox="0 0 129 136.5" style="enable-background:new 0 0 129 136.5;" xml:space="preserve">
<style type="text/css">
	.st0{clip-path:url(#SVGID_2_);}
	.st1{fill:#1895A4;}
	.st2{fill:#188592;}
	.st3{fill:#19B0BF;}
	.st4{fill:#DCDAC8;}
	.st5{fill:#F2EFDC;}
	.st6{fill:#C1BEAE;}
</style>
<g>
	<g>
		<defs>
			<circle id="SVGID_1_" cx="64.5" cy="68.5" r="64.5"/>
		</defs>
		<use xlink:href="#SVGID_1_"  style="overflow:visible;fill:#FDC015;"/>
		<clipPath id="SVGID_2_">
			<use xlink:href="#SVGID_1_"  style="overflow:visible;"/>
		</clipPath>
		<g class="st0">
			<path class="st1" d="M76.1,140.2L76.1,140.2c13.9-0.8,27-3.4,38.9-7.5l-3.5-30.6c-0.4-3.8-6.5-6.8-14.1-7.3
				c-4.7-0.8-9.3-1.5-14-1.9c0-1.2-0.1-2.5-0.1-3.6c-11-1.4-22.1-1.4-33.2,0C50,90.5,50,91.7,50,92.9c-4.7,0.5-9.4,1.1-14,1.9
				c-7.6,0.5-13.7,3.5-14.1,7.3l-3.5,30.6c11.9,4.1,25,6.7,38.9,7.5l0,0c0,0,0.1,0,0.1,0c1.3,0.1,2.7,0.1,4,0.2
				c1.8,0.1,3.5,0.1,5.3,0.1c1.8,0,3.5,0,5.3-0.1c1.3,0,2.7-0.1,4-0.2C76,140.2,76.1,140.2,76.1,140.2z"/>
			<path class="st2" d="M97.4,94.8c-4.7-0.8-9.3-1.5-14-1.9c0-1.2-0.1-2.5-0.1-3.6c-5.5-0.7-11-1-16.5-1l-10.5,16.9l49.2,30.5
				c3.2-0.8,6.4-1.8,9.4-2.8l-3.5-30.6C111,98.3,105,95.3,97.4,94.8z"/>
			<g>
				<path class="st3" d="M51.9,101.4c-0.4-0.3-0.8-0.7-1.2-1.1c0-3.4,0-6.8,0-10.2c0.5,0,0.9,0,1.4,0C52,93.9,52,97.6,51.9,101.4z"
					/>
				<path class="st3" d="M54.4,103.2c-0.4-0.3-0.8-0.6-1.3-0.9c0.1-4.1,0.2-8.2,0.4-12.2c0.5,0,0.9,0,1.4,0
					C54.7,94.5,54.5,98.9,54.4,103.2z"/>
				<path class="st3" d="M57,104.7c-0.5-0.2-0.9-0.4-1.3-0.7c0.2-4.6,0.3-9.3,0.5-13.9c0.5,0,0.9,0,1.4,0
					C57.3,95,57.2,99.8,57,104.7z"/>
				<path class="st3" d="M59.8,105.8c-0.5-0.1-0.9-0.3-1.4-0.5c0.2-5.1,0.3-10.1,0.5-15.2c0.5,0,0.9,0,1.4,0
					C60.1,95.3,59.9,100.5,59.8,105.8z"/>
				<path class="st3" d="M62.7,106.4c-0.5-0.1-1-0.2-1.4-0.3c0.1-5.3,0.2-10.7,0.4-16c0.5,0,0.9,0,1.4,0
					C62.8,95.6,62.8,101,62.7,106.4z"/>
				<path class="st3" d="M65.6,106.7c-0.5,0-1,0-1.5-0.1c0.1-5.5,0.1-11,0.2-16.5c0.5,0,0.9,0,1.4,0
					C65.6,95.7,65.6,101.2,65.6,106.7z"/>
				<path class="st3" d="M68.5,106.6c-0.5,0-1,0.1-1.5,0.1c0-5.5,0-11.1-0.1-16.6c0.5,0,0.9,0,1.4,0
					C68.4,95.6,68.5,101.1,68.5,106.6z"/>
				<path class="st3" d="M71.5,106.2c-0.5,0.1-1,0.2-1.5,0.3c-0.1-5.4-0.2-10.9-0.3-16.3c0.5,0,0.9,0,1.4,0
					C71.2,95.5,71.3,100.8,71.5,106.2z"/>
				<path class="st3" d="M74.3,105.3c-0.5,0.2-0.9,0.3-1.4,0.5c-0.1-5.2-0.3-10.4-0.4-15.7c0.5,0,0.9,0,1.4,0
					C74,95.2,74.1,100.2,74.3,105.3z"/>
				<path class="st3" d="M77,104c-0.4,0.2-0.9,0.5-1.3,0.7c-0.2-4.9-0.3-9.7-0.5-14.6c0.5,0,0.9,0,1.4,0C76.7,94.7,76.8,99.4,77,104
					z"/>
				<path class="st3" d="M79.6,102.3c-0.4,0.3-0.8,0.6-1.3,0.9c-0.1-4.4-0.3-8.7-0.4-13.1c0.5,0,0.9,0,1.4,0
					C79.3,94.2,79.5,98.3,79.6,102.3z"/>
				<path class="st3" d="M81.9,100.3c-0.4,0.4-0.8,0.7-1.2,1.1c-0.1-3.8-0.1-7.5-0.2-11.3c0.5,0,0.9,0,1.4,0
					C81.9,93.5,81.9,96.9,81.9,100.3z"/>
			</g>
			<g>
				<g>
					<g>
						<path class="st4" d="M47.6,68.4c1.4,4.9,1.3,8.3,0.2,8.9c-1.1,0.6-3-1.8-4.8-6.5c-1.8-4.7-2.2-9.5-0.7-10.3
							C43.8,59.7,46.2,63.5,47.6,68.4z"/>
					</g>
				</g>
				<g>
					<g>
						<path class="st4" d="M85,69.2c-1.1,5-0.8,8.4,0.3,8.9c1.1,0.5,2.9-2,4.4-6.8c1.5-4.8,1.6-9.7,0-10.3
							C88.3,60.3,86.1,64.2,85,69.2z"/>
					</g>
				</g>
				<path class="st5" d="M66.7,28.5c-13.5-0.9-25.9,13.7-22.2,35.6C48.1,85.2,57,95,66.7,95c9.6,0,18.5-9.8,22.2-30.9
					C92.6,42.3,80.1,27.6,66.7,28.5z"/>
				<path class="st4" d="M66.7,28.5c-11.4-0.8-22,9.6-22.8,26.1l40.5,25c1.8-4.3,3.4-9.4,4.4-15.6C92.6,42.3,80.1,27.6,66.7,28.5z"
					/>
				<path class="st4" d="M66.7,28.5c-0.3,0-0.7,0-1,0v66.3c0.3,0,0.7,0.1,1,0.1c9.6,0,18.5-9.8,22.2-30.9
					C92.6,42.3,80.1,27.6,66.7,28.5z"/>
				<path class="st6" d="M66.7,28.5c-0.3,0-0.7,0-1,0v39.6l18.8,11.6c1.8-4.3,3.4-9.4,4.4-15.6C92.6,42.3,80.1,27.6,66.7,28.5z"/>
				<path class="st1" d="M66.7,49.3c10-0.4,19.5,4.4,22.9,12.5c2.5-20.5-9.7-34.1-22.9-33.2c-13.2-0.9-25.4,12.7-22.9,33.2
					C47.2,53.7,56.7,48.9,66.7,49.3z"/>
				<path class="st3" d="M69.4,29.8c0,1.4-1.3,2.6-3,2.6c-1.7,0-3-1.2-3-2.6c0-1.4,1.3-2.6,3-2.6C68.1,27.1,69.4,28.3,69.4,29.8z"/>
				<path class="st1" d="M66.7,47.5c4.4-0.3,8.6,1.3,12,4.2c-1.2-14.1-6.4-22.8-12-22c-5.6-0.7-10.8,7.9-12,22
					C58.1,48.7,62.3,47.2,66.7,47.5z"/>
				<path class="st3" d="M66.7,47.7c4.4-0.3,8.6,1.2,12,4c-1.2-13.3-6.4-21.5-12-20.8c-5.6-0.7-10.8,7.5-12,20.8
					C58.1,48.9,62.3,47.4,66.7,47.7z"/>
				<path class="st1" d="M66.7,48.3c6.2-0.4,12.1,2.7,16.2,8.4c0.7-0.6,1.3-1.2,1.9-2c-4.1-7.6-11-11.9-18.2-11.4
					c-7.2-0.5-14,3.8-18.2,11.4c0.6,0.7,1.2,1.3,1.9,2C54.6,51,60.5,47.9,66.7,48.3z"/>
				<path class="st3" d="M66.7,50.4c6.5-0.4,12.8,2.5,17.2,7.8c0.7-0.6,1.4-1.2,2-1.8c-4.4-7.1-11.6-11.1-19.2-10.6
					c-7.6-0.5-14.8,3.5-19.2,10.6c0.6,0.7,1.3,1.3,2,1.8C53.9,52.9,60.2,50,66.7,50.4z"/>
			</g>
		</g>
	</g>
</g>
</svg>
