<?xml version="1.0" encoding="utf-8"?>
<!-- Generator: Adobe Illustrator 19.1.0, SVG Export Plug-In . SVG Version: 6.00 Build 0)  -->
<svg version="1.1" id="Layer_1" xmlns="http://www.w3.org/2000/svg" xmlns:xlink="http://www.w3.org/1999/xlink" x="0px" y="0px"
	 viewBox="0 0 129 136.5" style="enable-background:new 0 0 129 136.5;" xml:space="preserve">
<style type="text/css">
	.st0{clip-path:url(#SVGID_2_);}
	.st1{fill:#F26328;}
	.st2{fill:#DC4226;}
	.st3{fill:#19B0BF;}
	.st4{fill:#F2EFDC;}
	.st5{fill:#DCDAC8;}
</style>
<g>
	<g>
		<defs>
			<circle id="SVGID_1_" cx="65.5" cy="67.7" r="64.5"/>
		</defs>
		<use xlink:href="#SVGID_1_"  style="overflow:visible;fill:#2D5972;"/>
		<clipPath id="SVGID_2_">
			<use xlink:href="#SVGID_1_"  style="overflow:visible;"/>
		</clipPath>
		<g class="st0">
			<path class="st1" d="M93,51.4C93,62.8,80.8,72,65.8,72s-27.3-9.2-27.3-20.6c0-5.7,1.8-9.4,6.8-13.1c1-0.7,3.5-0.7,4.5,0.2
				c0,0,0.1-3.6,5.3-6c3.1-1.4,6.9-1.6,10.7-1.6C80.8,30.8,93,40.1,93,51.4z"/>
			<path class="st2" d="M75.2,32.1c8.6,3.5,14.5,10.3,14.5,18.1c0,11.3-12.2,20.6-27.2,20.6c-3.3,0-6.5-0.5-9.5-1.3
				c3.8,1.5,8.2,2.4,12.8,2.4c15,0,27.2-9.2,27.2-20.6C93,42.6,85.6,35.1,75.2,32.1z"/>
			<path class="st1" d="M65.7,36.6C50.9,36,37.3,46.9,41.4,63.1c4,15.7,13.7,23,24.3,23c10.6,0,20.3-7.3,24.3-23
				C94,46.9,80.4,36,65.7,36.6z"/>
			<path class="st2" d="M67.8,36.6c-13.5-0.7-26,10.2-22.2,26.5c3.7,15.7,12.6,23,22.2,23c9.7,0,18.6-7.3,22.2-23
				C93.7,46.9,81.3,36,67.8,36.6z"/>
			<path class="st2" d="M67.1,36.6c-12.8-0.7-24.7,11-21.2,28.6c3.5,16.9,12,24.8,21.2,24.8c9.2,0,17.7-7.9,21.2-24.8
				C91.8,47.7,79.9,35.9,67.1,36.6z"/>
			<path class="st3" d="M65.8,134.8c14.7,0,28.6-2.4,40.9-6.6l-3-25.9c-0.4-3.2-5.5-5.7-11.9-6.2c-17.2-3.1-34.7-3.1-52,0
				c-6.4,0.4-11.6,3-11.9,6.2l-3,25.9C37.2,132.4,51.1,134.8,65.8,134.8z"/>
			<path class="st4" d="M85,95.9c0-0.3,0-0.5,0-0.8c-12.7-2.2-25.6-2.2-38.3,0c0,0.3,0,0.5,0,0.8c0,8.5,8.6,22.9,19.2,22.9
				C76.4,118.8,85,104.4,85,95.9z"/>
			<path class="st4" d="M76.4,88.4c0-0.3,0-0.6,0-0.9c-7-2.7-14.1-2.7-21.1,0c0,0.3,0,0.6,0,0.9c0,10.2,4.7,18.5,10.6,18.5
				S76.4,98.6,76.4,88.4z"/>
			<path class="st5" d="M76.4,81.6c0-0.3,0-0.6,0-0.9c-7-2.5-14.1-2.5-21.1,0c0,0.3,0,0.6,0,0.9c0,9.6,4.7,17.3,10.6,17.3
				S76.4,91.2,76.4,81.6z"/>
			<path class="st5" d="M68.5,85.6v20.6c4.5-2.1,7.8-9.3,7.8-17.8c0-0.3,0-0.6,0-0.9C73.7,86.5,71.1,85.9,68.5,85.6z"/>
			<path class="st4" d="M66,36.6c-12.4-0.9-24,11.8-20.7,30.9C48.5,86,56.6,94.6,65.5,94.7c8.9,0.1,17.1-8.4,20.7-26.8
				C89.8,48.8,78.4,35.9,66,36.6z"/>
			<path class="st5" d="M66,36.6c-0.2,0-0.4,0-0.6,0v58.1c0,0,0.1,0,0.1,0c8.9,0.1,17.1-8.4,20.7-26.8C89.8,48.8,78.4,35.9,66,36.6z
				"/>
			<path class="st1" d="M50.5,42.5c-5,5.5-7.7,13.8-5.8,24c0.2,1.2,0.5,2.3,0.7,3.4c2.1-3.8,3.8-8.6,5-14.3
				C51.4,50.7,51.4,46.4,50.5,42.5z"/>
			<path class="st1" d="M67.5,36.1c-4.5-3.5-8.7-4.5-12-2.6C47.6,34.9,52,56.4,52,56.4s7.2,13.4,10.8,14.2l-4.1-8.7c0,0,5.5,6.8,9,8
				c6.2,2,16.7-1.5,16.7-1.5c0-0.2,0-0.4,0-0.7c0.8-0.5,1.6-1.1,2.4-1.7C89.9,48.3,79.4,36.3,67.5,36.1z"/>
			<g>
				<path class="st2" d="M77,41.4c6,4.2,10,11.9,9.3,21.9c-0.7,0.7-1.5,1.3-2.2,1.8c0,0.2,0,0.5,0,0.6c0,0-10.1,4.2-16.5,2.9
					c-1.9-0.4-4.6-2.2-6.6-3.8c1.9,1.9,4.7,4.4,6.8,5c6.2,1.9,16.7-1.4,16.7-1.4c0-0.2,0-0.4,0-0.6c0.8-0.5,1.6-1,2.4-1.6
					C89.1,54.6,84.3,45.6,77,41.4z"/>
			</g>
			<path class="st2" d="M66.2,42.4c7,2.1,12.8,8.6,14.5,17.7c1.1-0.7,2.1-1.5,3-2.5C81.6,49.3,74.5,43.7,66.2,42.4z"/>
			<path class="st2" d="M61.9,46c6.9,2.5,12.4,9.2,13.5,18.4c1.1-0.6,2.2-1.4,3.2-2.3C76.9,53.6,70,47.6,61.9,46z"/>
			<path class="st2" d="M84.4,49.9c-1.9,2.7-4.4,4.8-7.2,6.2c2.2,2.9,3.6,6.2,4.2,9.7c1.8-0.5,3.6-1.3,5.2-2.4
				c0.2-1.1,0.3-2.3,0.3-3.4C86.9,56.4,86,53,84.4,49.9z"/>
			<path class="st2" d="M78.8,66.4c0.1-3.6-0.7-7-2.2-10c-2.6,1.2-5.5,1.8-8.5,1.6c-2.9-0.2-5.6-1.1-8-2.6c2.9,6.2,8.6,10.6,15.4,11
				C76.7,66.6,77.7,66.6,78.8,66.4z"/>
			<path class="st1" d="M72.8,66.4c0.5,0.1,0.9,0.2,1.4,0.3c0.1-2.7-0.2-5.3-1-8C73.5,61.3,73.4,63.9,72.8,66.4z"/>
		</g>
	</g>
</g>
</svg>
