<?xml version="1.0" encoding="utf-8"?>
<!-- Generator: Adobe Illustrator 19.1.0, SVG Export Plug-In . SVG Version: 6.00 Build 0)  -->
<svg version="1.1" id="icons" xmlns="http://www.w3.org/2000/svg" xmlns:xlink="http://www.w3.org/1999/xlink" x="0px" y="0px"
	 viewBox="-253.8 533.5 206.8 216.5" style="enable-background:new -253.8 533.5 206.8 216.5;" xml:space="preserve">
<style type="text/css">
	.st0{clip-path:url(#SVGID_2_);}
	.st1{fill:#0E303F;}
	.st2{fill:#FD6120;}
	.st3{fill:#F2EFDC;}
	.st4{fill:#DCDAC8;}
</style>
<g>
	<g>
		<defs>
			<circle id="SVGID_1_" cx="-150.7" cy="641.7" r="101.7"/>
		</defs>
		<use xlink:href="#SVGID_1_"  style="overflow:visible;fill:#FEC00F;"/>
		<clipPath id="SVGID_2_">
			<use xlink:href="#SVGID_1_"  style="overflow:visible;"/>
		</clipPath>
		<g class="st0">
			<g>
				<path class="st1" d="M-83.4,649.4c-1.3-3.4-2.9-6.9-5-10.4c-9.3-15.6-22.9-24.6-30.4-20.1c-7.5,4.5-6.1,20.8,3.2,36.3
					c2.1,3.5,4.4,6.6,6.8,9.4L-83.4,649.4z"/>
				<path class="st1" d="M-216.8,649.4c1.3-3.4,2.9-6.9,5-10.4c9.3-15.6,22.9-24.6,30.4-20.1c7.5,4.5,6.1,20.8-3.2,36.3
					c-2.1,3.5-4.4,6.6-6.8,9.4L-216.8,649.4z"/>
			</g>
			<path class="st2" d="M-181.5,628.3c-1.2,1-3,0.9-4-0.3l-6.3-7.5c-1-1.2-0.9-3,0.3-4l0,0c1.2-1,3-0.9,4,0.3l6.3,7.5
				C-180.1,625.5-180.3,627.3-181.5,628.3L-181.5,628.3z"/>
			<path class="st2" d="M-119.2,627.4c-1-1.2-0.9-3,0.3-4l7.5-6.3c1.2-1,3-0.9,4,0.3l0,0c1,1.2,0.9,3-0.3,4l-7.5,6.3
				C-116.4,628.8-118.2,628.6-119.2,627.4L-119.2,627.4z"/>
			<path class="st1" d="M-150.1,580.8c-23.4-1.2-45,17.7-38.6,45.8c6.4,27.1,21.8,39.8,38.6,39.8c16.8,0,32.2-12.6,38.6-39.8
				C-105.1,598.5-126.7,579.6-150.1,580.8z"/>
			<g>
				<g>
					<g>
						<path class="st3" d="M-174,639.6c1.1,6,0.4,10-1.2,10.5c-1.6,0.5-3.9-2.5-5.6-8.3c-1.7-5.8-1.5-11.6,0.8-12.2
							C-177.8,628.8-175.1,633.6-174,639.6z"/>
					</g>
				</g>
				<g>
					<g>
						<path class="st3" d="M-126.2,639.6c-1.1,6-0.4,10,1.2,10.5c1.6,0.5,3.9-2.5,5.6-8.3c1.7-5.8,1.5-11.6-0.8-12.2
							C-122.4,628.8-125.1,633.6-126.2,639.6z"/>
					</g>
				</g>
			</g>
			<path class="st2" d="M-149.6,757.1c19.6,0,38-4.5,54.4-12.4l-3.9-48.9c-0.5-6-7.3-10.8-15.8-11.6c-22.9-5.9-46.2-5.9-69.2,0
				c-8.5,0.8-15.4,5.6-15.9,11.6l-3.9,48.9C-187.6,752.6-169.1,757.1-149.6,757.1z"/>
			<path class="st3" d="M-124.2,682.1c-17.2-3.2-34.5-3.1-51.7,0.2c0.2,11.6,11.7,30.5,25.9,30.5
				C-135.9,712.8-124.3,693.7-124.2,682.1z"/>
			<path class="st3" d="M-135,659.7c0-0.9,0-1.7,0-2.6c-10-7.5-20.1-7.5-30.2,0c0,0.9,0,1.7,0,2.6c0,28.9,6.8,52.3,15.1,52.3
				C-141.7,712-135,688.6-135,659.7z"/>
			<path class="st4" d="M-135,655.2c0-0.4,0-0.8,0-1.2c-10-3.4-20.1-3.4-30.2,0c0,0.4,0,0.8,0,1.2c0,13.2,6.8,23.9,15.1,23.9
				C-141.7,679.1-135,668.4-135,655.2z"/>
			<path class="st3" d="M-120.4,634.8c-4.9,23.9-16.8,35-29.7,35c-12.9,0-24.8-11.1-29.7-35c-5-24.8,11.7-41.4,29.7-40.3
				C-132.1,593.4-115.5,610-120.4,634.8z"/>
			<path class="st4" d="M-148.8,594.5v75.2c12.4-0.7,23.6-11.9,28.4-34.9C-115.6,610.6-131.3,594.3-148.8,594.5z"/>
			<path class="st1" d="M-146.9,582.2c13.1-0.9,25.2,12.9,32.1,36.8c-0.7,1.3,1.6,6.2,0.9,7.4l-11.5-3.8l-5.5-17.6
				c0,0-5.2,16.2-10.6,18.1l2.5-10.4c0,0-5.6,8.8-10.6,11.1c-8.8,4-27.2,3.5-27.2,3.5c-1.4-2.1-2.9-9.1-4.1-11.6
				C-172.8,592.6-160,580-146.9,582.2z"/>
			<path class="st4" d="M-135,662.2c-4.6-1.6-9.2,0.6-13.8,0.5v9.6v18.6v3.8c7.7-0.9,13.8-9.2,13.8-19.4
				C-135,674.9-135,662.6-135,662.2z"/>
		</g>
	</g>
</g>
</svg>
