<svg xmlns="http://www.w3.org/2000/svg" width="16" height="19" fill="none" viewBox="0 0 16 19">
    <path fill="#03A9F4" d="M15.02 0H.66C.3 0 0 .3 0 .66v17.68c0 .36.3.66.66.66h14.36c.36 0 .66-.3.66-.66V.66c0-.36-.3-.66-.66-.66z"/>
    <path fill="#fff" d="M6.72 7.7c.12.14.3.22.48.22s.36-.08.48-.22l2.7-2.9a.665.665 0 1 0-.98-.9L7.2 6.28l-.94-1a.683.683 0 0 0-.94-.04c-.26.24-.28.68-.04.94L6.72 7.7zM4.34 11.44h7.02c.36 0 .66-.3.66-.66 0-.36-.3-.68-.68-.68h-7a.67.67 0 0 0 0 1.34zM4.34 15.12h7.02c.36 0 .66-.3.66-.66 0-.36-.3-.66-.66-.66H4.34c-.36 0-.66.3-.66.66-.02.36.28.66.66.66z"/>
</svg>
