<?xml version="1.0" encoding="utf-8"?>
<!-- Generator: Adobe Illustrator 21.1.0, SVG Export Plug-In . SVG Version: 6.00 Build 0)  -->
<svg version="1.1" id="Layer_1" xmlns="http://www.w3.org/2000/svg" xmlns:xlink="http://www.w3.org/1999/xlink" x="0px" y="0px"
	 viewBox="0 0 799 207.8" style="enable-background:new 0 0 799 207.8;" xml:space="preserve">
<style type="text/css">
	.st0{fill:#FCC787;}
	.st1{fill:#FDF1ED;}
	.st2{fill:#FDE8D8;}
	.st3{fill:#FFDDA9;}
	.st4{fill:#EBF1C6;}
	.st5{fill:#AFACC5;}
	.st6{fill:#FFFFFF;}
	.st7{fill:#F8AA5D;}
	.st8{clip-path:url(#SVGID_2_);fill:url(#SVGID_3_);}
	.st9{clip-path:url(#SVGID_5_);fill:url(#SVGID_6_);}
	.st10{fill:#FCDFDF;}
	.st11{fill:#E9EFBB;}
	.st12{fill:#E9C6C5;}
	.st13{fill:#D72E2C;}
	.st14{fill:#E96060;}
	.st15{fill:#6B6B6B;}
	.st16{fill:#8C8A8D;}
	.st17{fill:#B4B4B5;}
	.st18{fill:#BF4454;}
	.st19{fill:#FDEEEB;}
	.st20{fill:#68A543;}
	.st21{fill:#90C03E;}
	.st22{fill:#EE9321;}
	.st23{fill:#DC6A26;}
	.st24{fill:#79A541;}
	.st25{fill:#95C03D;}
	.st26{fill:#5C8C3E;}
	.st27{fill:#6FA342;}
	.st28{fill:#82B441;}
	.st29{fill:#D9E589;}
	.st30{fill:#BFD96F;}
	.st31{fill:#B3D25A;}
	.st32{fill:#CC6F28;}
	.st33{fill:#F5AF1A;}
	.st34{fill:#FDBA19;}
	.st35{opacity:0.2;fill:#FFFFFF;}
	.st36{opacity:0.1;fill:#FFFFFF;}
	.st37{fill:#273B90;}
	.st38{opacity:0.2;fill:#2B2B2B;}
	.st39{opacity:7.000000e-02;fill:#FFFFFF;}
	.st40{fill:#DAE0EB;}
	.st41{opacity:0.25;fill:#2F5294;}
	.st42{opacity:0.2;fill:#868A93;}
	.st43{opacity:0.2;fill:#B2B6BD;}
	.st44{fill:#1D4480;}
	.st45{fill:#82C9A0;}
	.st46{fill:#4FB87F;}
	.st47{fill:#17B065;}
	.st48{fill:#7FA8D3;}
	.st49{fill:#3772B7;}
	.st50{fill:#4D88C2;}
	.st51{fill:#00AB76;}
</style>
<g>
	<rect x="630.7" y="0.3" class="st0" width="168.3" height="207.6"/>
	<rect x="126.2" y="0.1" class="st1" width="168.3" height="207.7"/>
	<rect x="294.5" y="0.3" class="st2" width="168.3" height="207.5"/>
	<rect x="462.8" y="0.3" class="st3" width="168.3" height="207.6"/>
	<rect class="st4" width="126.2" height="207.8"/>
	<rect y="0.3" class="st5" width="799" height="42.8"/>
	<rect x="288.7" y="0.3" class="st6" width="11.7" height="207.5"/>
	<rect x="0" y="37.3" class="st6" width="799" height="11.7"/>
	<rect x="457" y="0.3" class="st6" width="11.7" height="207.5"/>
	<rect x="625.3" y="0.3" class="st6" width="11.7" height="207.5"/>
	<rect y="97.4" class="st7" width="799" height="41.9"/>
	<rect x="120.4" y="0.3" class="st6" width="11.7" height="207.5"/>
	<g>
		<defs>
			<path id="SVGID_1_" d="M661.5,118.5c0,30.4,24.7,55.1,55.1,55.1c30.4,0,55.1-24.7,55.1-55.1c0-30.4-24.7-55.1-55.1-55.1
				C686.2,63.4,661.5,88,661.5,118.5"/>
		</defs>
		<clipPath id="SVGID_2_">
			<use xlink:href="#SVGID_1_"  style="overflow:visible;"/>
		</clipPath>
		
			<linearGradient id="SVGID_3_" gradientUnits="userSpaceOnUse" x1="-123.1628" y1="847.1457" x2="-122.3889" y2="847.1457" gradientTransform="matrix(0 142.3946 142.3946 0 -119912.3203 17601.0723)">
			<stop  offset="0" style="stop-color:#FFFFFF"/>
			<stop  offset="0.4288" style="stop-color:#FBFDFE"/>
			<stop  offset="0.8421" style="stop-color:#F0F8FA"/>
			<stop  offset="1" style="stop-color:#E9F5F8"/>
		</linearGradient>
		<rect x="661.5" y="63.4" class="st8" width="110.2" height="110.2"/>
	</g>
	<g>
		<defs>
			<path id="SVGID_4_" d="M664.8,118.5c0,28.6,23.2,51.9,51.9,51.9s51.9-23.2,51.9-51.9c0-28.6-23.2-51.9-51.9-51.9
				S664.8,89.8,664.8,118.5"/>
		</defs>
		<clipPath id="SVGID_5_">
			<use xlink:href="#SVGID_4_"  style="overflow:visible;"/>
		</clipPath>
		
			<linearGradient id="SVGID_6_" gradientUnits="userSpaceOnUse" x1="-130.7976" y1="844.8925" x2="-130.0237" y2="844.8925" gradientTransform="matrix(0 -134.0184 -134.0184 0 113947.7734 -17358.9648)">
			<stop  offset="0" style="stop-color:#FFFFFF"/>
			<stop  offset="0.4288" style="stop-color:#FBFDFE"/>
			<stop  offset="0.8421" style="stop-color:#F0F8FA"/>
			<stop  offset="1" style="stop-color:#E9F5F8"/>
		</linearGradient>
		<rect x="664.8" y="66.6" class="st9" width="103.7" height="103.7"/>
	</g>
	<path class="st6" d="M725.4,111.7l-1,1.2c-0.5-0.4-1.3-0.4-1.8,0.2c-0.5,0.5-0.4,1.4,0.1,1.8c0.3,0.3,0.7,0.4,1.1,0.3
		c0,0.4,0.1,0.8,0.5,1.1c0.5,0.5,1.4,0.4,1.8-0.1c0.5-0.5,0.4-1.3-0.1-1.8l1-1.2L725.4,111.7z"/>
	<g>
		<path class="st10" d="M762.9,117.1c-1.7-22.2-19.5-39.9-41.7-41.5c-1.1-0.1-1.9,0.7-1.9,1.8v39.8c0,1,0.8,1.8,1.8,1.8h40
			C762.1,119.1,763,118.2,762.9,117.1"/>
		<path class="st11" d="M715.1,75.6c-27.2,1.7-47.9,27.5-40.9,56.3c3.9,16,16.5,28.6,32.5,32.5c28.8,7,54.5-13.6,56.3-40.8
			c0.1-1-0.7-1.8-1.7-1.8h-43.1c-0.9,0-1.6-0.7-1.6-1.6V77C716.5,76.2,715.9,75.6,715.1,75.6"/>
		<path class="st12" d="M725,84.8c1.8-2.2,4.8-3.1,7.5-2.2c0.8,0.3,1.6,0.7,2.3,1.2c1.1,0.9,1.9,2.1,2.3,3.5
			c0.3,1.2,0.4,1.2,0.9,1.7l0.1,0.1c1.9,1.8,2,4.8,0.4,6.8c-0.4,0.5-1,1-1.6,1.3c-1.8,0.9-4.1,1-6.5,0.3l0,0c-2-0.6-3.7-1.8-5-3.3
			C723,91.3,722.8,87.5,725,84.8"/>
		<path class="st13" d="M726,84c2.2-2.7,6.1-3,8.8-0.9c1,0.8,1.7,1.9,2,3.1h0c0.4,1.4,0.5,1.5,1.2,2.2l0,0c1.6,1.5,1.8,4,0.3,5.8
			c-0.4,0.5-0.8,0.8-1.3,1.1c-2.8,1.5-7.6,0.5-10.6-2.9C724.2,90.1,724,86.5,726,84"/>
		<path class="st6" d="M732.1,88.9c-0.6,0.7-1.6,0.8-2.2,0.2c-0.7-0.6-0.8-1.6-0.2-2.2c0.6-0.7,1.6-0.8,2.2-0.2
			C732.5,87.3,732.6,88.3,732.1,88.9"/>
		<path class="st6" d="M725.8,92.8c-2.5-2.8-2.6-6.6-0.4-9.3c1.8-2.2,4.8-3.1,7.5-2.2c0.8,0.3,1.6,0.7,2.3,1.2
			c1.1,0.9,1.9,2.1,2.3,3.5c0.3,1.2,0.4,1.2,0.9,1.7l0.1,0.1c1.9,1.8,2,4.8,0.4,6.8c-0.4,0.5-1,1-1.6,1.3c-1.8,0.9-4.1,1-6.5,0.3
			l0,0C728.9,95.5,727.2,94.4,725.8,92.8 M726.6,84.5c-1.7,2.1-1.6,5.2,0.4,7.4c1.2,1.3,2.7,2.4,4.4,2.9l0,0c2,0.6,4,0.6,5.4-0.2
			c0.4-0.2,0.8-0.5,1.1-0.9c1.2-1.4,1-3.5-0.3-4.8l-0.1-0.1c-0.8-0.7-0.9-1-1.3-2.4c-0.3-1.1-0.9-2-1.8-2.7c-0.5-0.4-1.1-0.8-1.8-1
			C730.4,82,728,82.7,726.6,84.5"/>
		<path class="st14" d="M732.5,84.1c-0.5,0.4-0.4,1.2,0.1,1.8c0.5,0.6,1.3,0.7,1.8,0.2c0.5-0.4,0.4-1.2-0.1-1.8
			C733.7,83.8,732.9,83.7,732.5,84.1"/>
		<path class="st15" d="M756.9,106.2v-1.8H755c-1.8,0-3.3,1.4-3.3,3.1l0,3.6c0,1.7,1.5,3.1,3.3,3.1h1.9v-1.8c0-1.7-1.4-3.1-3.2-3.1
			v0C755.5,109.2,756.9,107.9,756.9,106.2"/>
		<path class="st16" d="M753.1,109.3c0,3.7-3.3,6.8-9.3,6.8v-13.6C749.8,102.5,753.1,105.6,753.1,109.3"/>
		<path class="st14" d="M747.6,109.3c0,3.4-1.6,6.2-3.6,6.2c-2,0-3.6-2.8-3.6-6.2c0-3.4,1.6-6.2,3.6-6.2
			C745.9,103.1,747.6,105.9,747.6,109.3"/>
		<path class="st17" d="M743.9,116.1c-2.3,0-4.1-3-4.1-6.8c0-3.8,1.8-6.8,4.1-6.8c2.3,0,4.1,3,4.1,6.8
			C748.1,113.1,746.2,116.1,743.9,116.1 M743.9,103.6c-1.7,0-3.1,2.6-3.1,5.7c0,3.1,1.4,5.7,3.1,5.7c1.7,0,3.1-2.6,3.1-5.7
			C747.1,106.2,745.6,103.6,743.9,103.6"/>
		<path class="st18" d="M745.2,112.4c0,1.5-0.6,2.6-1.3,2.6c-0.7,0-1.3-1.2-1.3-2.6c0-1.5,0.6-2.6,1.3-2.6
			C744.6,109.8,745.2,110.9,745.2,112.4"/>
		<path class="st19" d="M744.8,107.3c0-0.9-0.4-1.6-0.9-1.6s-0.9,0.7-0.9,1.6c0,0.5,0.2,1,0.4,1.3v1.2c0,0.3,0.2,0.5,0.5,0.5
			c0.3,0,0.5-0.2,0.5-0.5v-1.2C744.7,108.3,744.8,107.9,744.8,107.3"/>
		<path class="st17" d="M750.6,106.7c-0.4,0.4-1,0.3-1.4-0.1c-0.4-0.4-0.5-1.1-0.1-1.4c0.4-0.4,1-0.3,1.4,0.1
			C750.8,105.7,750.9,106.3,750.6,106.7"/>
		<path class="st20" d="M733.2,132.4c-0.2,0.7-1,1.2-1.8,0.9l0,0c-0.7-0.2-1.2-1-0.9-1.8l0.7-2.2c0.2-0.7,1-1.2,1.8-0.9l0,0
			c0.7,0.2,1.2,1,0.9,1.8L733.2,132.4z"/>
		<path class="st20" d="M735.2,127.8C735.2,127.8,735.1,127.8,735.2,127.8c-0.7,2.3-2.9,2.9-2.9,2.9s-1.4-1.9-0.7-4c0,0,0,0,0,0
			c0,0,0,0,0,0c0.7-2.1,2.9-2.9,2.9-2.9S735.8,125.6,735.2,127.8C735.2,127.8,735.2,127.8,735.2,127.8"/>
		<path class="st21" d="M736.6,130.6C736.6,130.6,736.6,130.6,736.6,130.6c-2.2,1-4.3,0.1-4.3,0.1s0.4-2.1,2.5-3.1c0,0,0,0,0,0
			c0,0,0,0,0,0c2.1-1,4.3-0.1,4.3-0.1S738.7,129.6,736.6,130.6C736.6,130.6,736.6,130.6,736.6,130.6"/>
		<path class="st20" d="M736.6,130.6C736.6,130.6,736.6,130.6,736.6,130.6c-2.2,1-4.3,0.1-4.3,0.1l6.8-3.2
			C739.1,127.5,738.7,129.6,736.6,130.6C736.6,130.6,736.6,130.6,736.6,130.6"/>
		<path class="st20" d="M731.8,126.7C731.8,126.7,731.8,126.7,731.8,126.7c1.3,2.1,0.3,4,0.3,4s-2.3-0.5-3.5-2.5c0,0,0,0,0,0
			c0,0,0,0,0,0c-1.2-2-0.3-4-0.3-4S730.6,124.7,731.8,126.7C731.8,126.7,731.8,126.7,731.8,126.7"/>
		<path class="st21" d="M731.8,126.7C731.8,126.7,731.8,126.7,731.8,126.7c1.3,2.1,0.3,4,0.3,4l-3.9-6.5
			C728.3,124.2,730.6,124.7,731.8,126.7C731.8,126.7,731.8,126.7,731.8,126.7"/>
		<path class="st22" d="M732,131.3L732,131.3C732,131.3,732,131.3,732,131.3C732,131.3,732,131.3,732,131.3c-4.5-1.4-6,2-6.2,3.1
			l-1.9,17.5c-0.2,1.1,0,1.9,1.1,2.3l0,0c0,0,0,0,0,0c0,0,0,0,0,0l0,0c1.1,0.3,1.7-0.3,2.2-1.3l8.2-15.6
			C735.9,136.4,736.5,132.7,732,131.3"/>
		<path class="st23" d="M733.8,132.1c0.8,1.5,0.4,3.2,0.1,3.8l-8.4,16.3c-0.3,0.7-0.8,1.5-1.3,1.4c0.2,0.2,0.4,0.4,0.8,0.5l0,0
			c0,0,0,0,0,0c0,0,0,0,0,0l0,0c1.1,0.3,1.7-0.3,2.2-1.3l8.2-15.6C735.8,136.5,736.3,133.8,733.8,132.1"/>
		<path class="st23" d="M728.1,134.2c-0.3-0.1-0.5-0.4-0.4-0.7l0,0c0.1-0.3,0.4-0.4,0.7-0.4l1.3,0.4c0.3,0.1,0.4,0.4,0.4,0.7l0,0
			c-0.1,0.3-0.4,0.5-0.7,0.4L728.1,134.2z"/>
		<path class="st23" d="M731.3,138.6c-0.3-0.1-0.4-0.4-0.4-0.7l0,0c0.1-0.3,0.4-0.5,0.7-0.4l1.3,0.4c0.3,0.1,0.4,0.4,0.4,0.7l0,0
			c-0.1,0.3-0.4,0.5-0.7,0.4L731.3,138.6z"/>
		<path class="st23" d="M727.2,141.7c-0.3-0.1-0.4-0.4-0.4-0.7l0,0c0.1-0.3,0.4-0.5,0.7-0.4l1.3,0.4c0.3,0.1,0.4,0.4,0.4,0.7l0,0
			c-0.1,0.3-0.4,0.4-0.7,0.4L727.2,141.7z"/>
		<path class="st23" d="M727.2,147.3c-0.3-0.1-0.4-0.4-0.4-0.7l0,0c0.1-0.3,0.4-0.5,0.7-0.4l1.3,0.4c0.3,0.1,0.4,0.4,0.4,0.7l0,0
			c-0.1,0.3-0.4,0.4-0.7,0.4L727.2,147.3z"/>
		<path class="st20" d="M742.6,141.8c-0.6,0.5-1.5,0.5-2-0.1l0,0c-0.5-0.6-0.5-1.5,0.1-2l1.7-1.6c0.6-0.5,1.5-0.5,2,0.1l0,0
			c0.5,0.6,0.5,1.5-0.1,2L742.6,141.8z"/>
		<path class="st20" d="M746.6,138.7C746.6,138.7,746.6,138.7,746.6,138.7c-1.7,1.6-4,1.1-4,1.1s-0.3-2.3,1.3-3.9c0,0,0,0,0,0
			c0,0,0,0,0,0c1.6-1.5,4-1.1,4-1.1S748.3,137.2,746.6,138.7C746.6,138.7,746.6,138.7,746.6,138.7"/>
		<path class="st21" d="M746.5,141.9C746.5,141.9,746.5,141.9,746.5,141.9c-2.4-0.2-3.8-2.1-3.8-2.1s1.4-1.7,3.7-1.5c0,0,0,0,0,0
			c0,0,0,0,0,0c2.3,0.2,3.8,2.1,3.8,2.1S748.8,142.1,746.5,141.9C746.5,141.9,746.5,141.9,746.5,141.9"/>
		<path class="st20" d="M746.5,141.9C746.5,141.9,746.5,141.9,746.5,141.9c-2.4-0.2-3.8-2.1-3.8-2.1l7.5,0.6
			C750.2,140.4,748.8,142.1,746.5,141.9C746.5,141.9,746.5,141.9,746.5,141.9"/>
		<path class="st20" d="M744.3,136.1C744.3,136.1,744.3,136.1,744.3,136.1c0.1,2.5-1.7,3.6-1.7,3.6s-1.8-1.5-1.9-3.9c0,0,0,0,0,0
			c0,0,0,0,0,0c-0.1-2.3,1.7-3.6,1.7-3.6S744.2,133.8,744.3,136.1C744.3,136.1,744.3,136.1,744.3,136.1"/>
		<path class="st21" d="M744.3,136.1C744.3,136.1,744.3,136.1,744.3,136.1c0.1,2.5-1.7,3.6-1.7,3.6l-0.2-7.6
			C742.4,132.2,744.2,133.8,744.3,136.1C744.3,136.1,744.3,136.1,744.3,136.1"/>
		<path class="st22" d="M742.2,140.3L742.2,140.3C742.2,140.3,742.2,140.3,742.2,140.3C742.2,140.3,742.2,140.3,742.2,140.3
			c-3.2-3.4-6.2-1.2-6.9-0.4L725,154.2c-0.7,0.9-0.9,1.7-0.2,2.5l0,0c0,0,0,0,0,0c0,0,0,0,0,0v0c0.8,0.8,1.6,0.6,2.5,0l14.8-9.5
			C743,146.5,745.4,143.7,742.2,140.3"/>
		<path class="st23" d="M743.3,141.8c-0.1,1.7-1.2,3-1.7,3.4l-15.4,10.1c-0.6,0.5-1.5,0.9-1.8,0.6c0.1,0.3,0.2,0.6,0.4,0.8l0,0
			c0,0,0,0,0,0c0,0,0,0,0,0v0c0.8,0.8,1.6,0.6,2.5,0l14.8-9.5C742.9,146.6,744.7,144.5,743.3,141.8"/>
		<path class="st23" d="M737.3,140.9c-0.2-0.2-0.2-0.6,0-0.8l0,0c0.2-0.2,0.6-0.2,0.8,0l0.9,1c0.2,0.2,0.2,0.6,0,0.8l0,0
			c-0.2,0.2-0.6,0.2-0.8,0L737.3,140.9z"/>
		<path class="st23" d="M737.9,146.2c-0.2-0.2-0.2-0.6,0-0.8l0,0c0.2-0.2,0.6-0.2,0.8,0l0.9,0.9c0.2,0.2,0.2,0.6,0,0.8l0,0
			c-0.2,0.2-0.6,0.2-0.8,0L737.9,146.2z"/>
		<path class="st23" d="M732.9,146.9c-0.2-0.2-0.2-0.6,0-0.8l0,0c0.2-0.2,0.6-0.2,0.8,0l0.9,0.9c0.2,0.2,0.2,0.6,0,0.8l0,0
			c-0.2,0.2-0.6,0.2-0.8,0L732.9,146.9z"/>
		<path class="st23" d="M730.2,151.8c-0.2-0.2-0.2-0.6,0-0.8l0,0c0.2-0.2,0.6-0.2,0.8,0l0.9,0.9c0.2,0.2,0.2,0.6,0,0.8l0,0
			c-0.2,0.2-0.6,0.2-0.8,0L730.2,151.8z"/>
		<path class="st24" d="M707,109c-0.2,0.9-0.8,1.5-1.4,1.4l-0.5-0.1c-0.6-0.1-0.9-1-0.7-1.8l1.8-7.9c0.2-0.9,0.8-1.5,1.4-1.4
			l0.5,0.1c0.6,0.1,0.9,1,0.7,1.8L707,109z"/>
		<path class="st24" d="M700.6,112.9c0.9,0.2,1.7-0.1,1.8-0.7l0.1-0.5c0.1-0.6-0.5-1.2-1.3-1.4l-7.6-1.7c-0.9-0.2-1.7,0.1-1.8,0.7
			l-0.1,0.5c-0.1,0.6,0.5,1.2,1.3,1.4L700.6,112.9z"/>
		<path class="st25" d="M708.7,111.2c0.9,1.5,0.5,3.4-1,4.3l-1.4,0.9c-1.5,0.9-3.4,0.5-4.3-1l-4.7-7.4c-0.9-1.5-0.5-3.4,1-4.3
			l1.4-0.9c1.5-0.9,3.4-0.5,4.3,1L708.7,111.2z"/>
		<path class="st24" d="M699.8,102.8c0.9,0.1,1.6,0.6,2.1,1.4l4.7,7.4c0.9,1.5,0.5,3.4-1,4.3l-1.4,0.9c0,0-0.1,0-0.1,0.1
			c0.7,0.1,1.5,0,2.2-0.4l1.4-0.9c1.5-0.9,1.9-2.9,1-4.3l-4.7-7.4C703.1,102.4,701.2,101.9,699.8,102.8"/>
		<path class="st26" d="M703.3,95.2c2.3,3.7,1.2,8.6-2.4,10.9c-3.7,2.3-8.6,1.2-10.9-2.4c-2.3-3.7-1.2-8.6,2.4-10.9
			C696.1,90.4,701,91.5,703.3,95.2"/>
		<path class="st26" d="M694.3,101.5c1.3,2.1,0.7,4.8-1.4,6.1c-2.1,1.3-4.8,0.7-6.1-1.4c-1.3-2.1-0.7-4.8,1.4-6.1
			C690.3,98.8,693,99.4,694.3,101.5"/>
		<path class="st26" d="M696.8,105.5c1.3,2.1,0.7,4.8-1.4,6.1c-2.1,1.3-4.8,0.7-6.1-1.4c-1.3-2.1-0.7-4.8,1.4-6.1
			C692.8,102.8,695.5,103.4,696.8,105.5"/>
		<path class="st26" d="M691.8,106.3c0.9,1.5,0.5,3.5-1,4.4c-1.5,0.9-3.5,0.5-4.4-1c-1-1.5-0.5-3.5,1-4.4
			C688.9,104.3,690.8,104.8,691.8,106.3"/>
		<path class="st26" d="M699.5,98.2c1.3,2.1,4,2.7,6.1,1.4c2.1-1.3,2.7-4,1.4-6.1c-1.3-2.1-4-2.7-6.1-1.4
			C698.8,93.4,698.2,96.1,699.5,98.2"/>
		<path class="st26" d="M702,102.2c1.3,2.1,4,2.7,6.1,1.4c2.1-1.3,2.7-4,1.4-6.1c-1.3-2.1-4-2.7-6.1-1.4
			C701.4,97.4,700.7,100.1,702,102.2"/>
		<path class="st26" d="M704.9,97.9c0.9,1.5,2.9,1.9,4.4,1c1.5-0.9,1.9-2.9,1-4.4c-1-1.5-2.9-1.9-4.4-1
			C704.4,94.5,704,96.5,704.9,97.9"/>
		<path class="st26" d="M704.2,96.6c2.3,3.7,1.2,8.6-2.4,10.9c-3.7,2.3-8.6,1.2-10.9-2.4c-2.3-3.7-1.2-8.6,2.4-10.9
			C697,91.9,701.9,92.9,704.2,96.6"/>
		<path class="st27" d="M699.7,96.8c1.5,2.3,0.8,5.3-1.5,6.8c-2.3,1.5-5.3,0.8-6.8-1.5c-1.5-2.3-0.8-5.3,1.5-6.8
			C695.2,93.8,698.2,94.5,699.7,96.8"/>
		<path class="st27" d="M693.7,102.4c0.9,1.4,0.5,3.3-0.9,4.2c-1.4,0.9-3.3,0.5-4.2-0.9c-0.9-1.4-0.5-3.3,0.9-4.2
			C690.9,100.5,692.8,100.9,693.7,102.4"/>
		<path class="st27" d="M695.5,105.1c0.9,1.4,0.5,3.3-0.9,4.2c-1.4,0.9-3.3,0.5-4.2-0.9c-0.9-1.4-0.5-3.3,0.9-4.2
			C692.7,103.3,694.6,103.7,695.5,105.1"/>
		<path class="st27" d="M692,105.7c0.7,1,0.4,2.4-0.7,3.1c-1,0.7-2.4,0.4-3.1-0.7c-0.7-1-0.4-2.4,0.7-3.1
			C690,104.4,691.3,104.7,692,105.7"/>
		<path class="st27" d="M701.3,97.3c0.7,1.1,2.2,1.4,3.3,0.7c1.1-0.7,1.4-2.2,0.7-3.3c-0.7-1.1-2.2-1.4-3.3-0.7
			S700.6,96.2,701.3,97.3"/>
		<path class="st27" d="M701.9,100.3c0.9,1.4,2.8,1.8,4.2,0.9s1.8-2.8,0.9-4.2c-0.9-1.4-2.8-1.8-4.2-0.9
			C701.4,97,701,98.9,701.9,100.3"/>
		<path class="st27" d="M703.9,97.4c0.7,1,2,1.3,3.1,0.7c1-0.7,1.3-2,0.7-3.1c-0.7-1-2-1.3-3.1-0.7C703.6,95,703.3,96.4,703.9,97.4"
			/>
		<path class="st28" d="M694.5,99.4c-0.6,0.7-1.6,0.8-2.1,0.2c-0.5-0.6-0.4-1.7,0.3-2.4c0.6-0.7,1.6-0.8,2.1-0.2
			C695.3,97.6,695.2,98.7,694.5,99.4"/>
		<path class="st28" d="M691.2,102.4c0.3,0.4,0.2,1.3-0.2,1.8c-0.5,0.6-1.1,0.6-1.5,0.2c-0.3-0.4-0.2-1.3,0.2-1.8
			C690.1,102.1,690.8,102,691.2,102.4"/>
		<path class="st24" d="M696.5,122.7c-0.6,0-1.1-0.3-1.1-0.7l0-0.4c0-0.4,0.5-0.7,1.1-0.7l5.4-0.2c0.6,0,1.1,0.3,1.1,0.7l0,0.4
			c0,0.4-0.5,0.7-1.1,0.7L696.5,122.7z"/>
		<path class="st24" d="M692.9,119.2c0,0.6,0.3,1,0.7,1l0.4,0c0.4,0,0.7-0.5,0.7-1.1l-0.2-5.2c0-0.6-0.4-1-0.7-1l-0.4,0
			c-0.4,0-0.7,0.5-0.7,1.1L692.9,119.2z"/>
		<path class="st25" d="M695.4,124.2c-0.8,0.8-2.1,0.9-2.9,0.1l-0.8-0.7c-0.8-0.8-0.9-2.1-0.1-2.9l4-4.3c0.8-0.8,2.1-0.9,2.9-0.1
			l0.8,0.7c0.8,0.8,0.9,2.1,0.1,2.9L695.4,124.2z"/>
		<path class="st24" d="M699.3,117.1c0.1,0.6-0.1,1.2-0.5,1.6l-4,4.3c-0.8,0.8-2.1,0.9-2.9,0.1l-0.8-0.7c0,0,0,0,0-0.1
			c0,0.5,0.3,1,0.6,1.3l0.8,0.7c0.8,0.8,2.1,0.7,2.9-0.1l4-4.3C700.1,119.1,700.1,117.9,699.3,117.1"/>
		<path class="st26" d="M704.8,118.1c-2,2.1-5.3,2.2-7.4,0.2c-2.1-2-2.2-5.3-0.2-7.4c2-2.1,5.3-2.2,7.4-0.2
			C706.6,112.6,706.7,116,704.8,118.1"/>
		<path class="st26" d="M699.2,113.3c-1.1,1.2-2.9,1.2-4.1,0.1c-1.2-1.1-1.2-2.9-0.1-4.1c1.1-1.2,2.9-1.2,4.1-0.1
			C700.3,110.3,700.3,112.1,699.2,113.3"/>
		<path class="st26" d="M697.1,115.6c-1.1,1.2-2.9,1.2-4.1,0.1c-1.2-1.1-1.2-2.9-0.1-4.1c1.1-1.2,2.9-1.2,4.1-0.1
			C698.1,112.6,698.2,114.4,697.1,115.6"/>
		<path class="st26" d="M695.7,112.5c-0.8,0.9-2.1,0.9-3,0.1c-0.9-0.8-0.9-2.1-0.1-3c0.8-0.9,2.1-0.9,3-0.1
			C696.5,110.3,696.5,111.7,695.7,112.5"/>
		<path class="st26" d="M702.2,116.1c-1.1,1.2-1,3,0.1,4.1c1.2,1.1,3,1,4.1-0.1c1.1-1.2,1-3-0.1-4.1
			C705.2,114.9,703.3,115,702.2,116.1"/>
		<path class="st26" d="M700.1,118.4c-1.1,1.2-1,3,0.1,4.1c1.2,1.1,3,1,4.1-0.1c1.1-1.2,1-3-0.1-4.1
			C703,117.2,701.2,117.2,700.1,118.4"/>
		<path class="st26" d="M703.2,119.5c-0.8,0.9-0.8,2.2,0.1,3c0.9,0.8,2.2,0.8,3-0.1c0.8-0.9,0.8-2.2-0.1-3
			C705.4,118.6,704,118.7,703.2,119.5"/>
		<path class="st26" d="M704,118.9c-2,2.1-5.3,2.2-7.4,0.2c-2.1-2-2.2-5.3-0.2-7.4c2-2.1,5.3-2.2,7.4-0.2
			C705.8,113.5,706,116.8,704,118.9"/>
		<path class="st27" d="M703.1,116c-1.2,1.3-3.3,1.4-4.6,0.2c-1.3-1.2-1.4-3.3-0.2-4.6c1.2-1.3,3.3-1.4,4.6-0.2
			C704.3,112.6,704.4,114.7,703.1,116"/>
		<path class="st27" d="M698.6,113.1c-0.8,0.8-2,0.9-2.9,0.1c-0.8-0.8-0.9-2-0.1-2.9c0.8-0.8,2-0.9,2.9-0.1
			C699.3,111,699.3,112.3,698.6,113.1"/>
		<path class="st27" d="M697.1,114.7c-0.8,0.8-2,0.9-2.9,0.1c-0.8-0.8-0.9-2-0.1-2.9c0.8-0.8,2-0.9,2.9-0.1
			C697.8,112.6,697.8,113.9,697.1,114.7"/>
		<path class="st27" d="M696.1,112.6c-0.6,0.6-1.5,0.6-2.1,0.1c-0.6-0.6-0.6-1.5-0.1-2.1c0.6-0.6,1.5-0.6,2.1-0.1
			C696.7,111,696.7,112,696.1,112.6"/>
		<path class="st27" d="M703.1,117.1c-0.6,0.6-0.6,1.6,0.1,2.2c0.6,0.6,1.6,0.6,2.2-0.1c0.6-0.6,0.6-1.6-0.1-2.2
			C704.6,116.5,703.6,116.5,703.1,117.1"/>
		<path class="st27" d="M701.2,118c-0.8,0.8-0.7,2.1,0.1,2.9c0.8,0.8,2.1,0.7,2.9-0.1c0.8-0.8,0.7-2.1-0.1-2.9
			C703.3,117.2,702,117.2,701.2,118"/>
		<path class="st27" d="M703.4,118.8c-0.6,0.6-0.5,1.5,0.1,2.1c0.6,0.6,1.5,0.5,2.1-0.1c0.6-0.6,0.5-1.5-0.1-2.1
			C704.9,118.2,704,118.2,703.4,118.8"/>
		<path class="st28" d="M700.6,113.1c-0.6-0.3-0.8-0.9-0.5-1.3c0.3-0.4,1-0.5,1.6-0.2c0.6,0.3,0.8,0.9,0.5,1.3
			C701.9,113.3,701.2,113.4,700.6,113.1"/>
		<path class="st28" d="M698.1,111.5c-0.2,0.3-0.8,0.4-1.2,0.1c-0.4-0.2-0.6-0.6-0.4-0.9c0.2-0.3,0.8-0.4,1.2-0.1
			C698.2,110.8,698.3,111.2,698.1,111.5"/>
		<path class="st29" d="M710.8,149.9c0.3,1.2-0.4,2.4-1.6,2.7l-3,0.7c-1.2,0.3-2.4-0.4-2.7-1.6l-0.2-0.7c-0.3-1.2,0.4-2.4,1.6-2.7
			l3-0.7c1.2-0.3,2.4,0.4,2.7,1.6L710.8,149.9z"/>
		<path class="st30" d="M708,147.6c0.4,0.3,0.7,0.7,0.8,1.2l0.2,0.7c0.3,1.2-0.4,2.4-1.6,2.7l-3,0.7c0,0,0,0,0,0
			c0.5,0.4,1.2,0.6,1.9,0.4l3-0.7c1.2-0.3,1.9-1.5,1.6-2.7l-0.2-0.7C710.3,148,709.1,147.3,708,147.6"/>
		<path class="st24" d="M718.2,138.2c1.2,4.8-1.8,9.6-6.5,10.8c-4.8,1.2-9.6-1.8-10.8-6.5c-1.2-4.8,1.8-9.6,6.5-10.8
			C712.2,130.5,717,133.4,718.2,138.2"/>
		<path class="st24" d="M708.7,140.5c1.2,4.8-1.8,9.6-6.5,10.8c-4.8,1.2-9.6-1.8-10.8-6.5c-1.2-4.8,1.8-9.6,6.5-10.8
			C702.8,132.8,707.6,135.7,708.7,140.5"/>
		<path class="st25" d="M714.8,137.1c1.4,5.8-2.1,11.6-7.9,13c-5.8,1.4-11.6-2.1-13-7.9c-1.4-5.8,2.1-11.6,7.9-13
			C707.6,127.8,713.4,131.4,714.8,137.1"/>
		<path class="st29" d="M703.8,141.1c-0.1-0.5,1.7-0.9,1.8-0.4l1.9,7.9c0.1,0.5-0.2,1-0.7,1.1l0,0c-0.5,0.1-1-0.2-1.1-0.7
			L703.8,141.1z"/>
		<path class="st29" d="M711.2,140.5L711.2,140.5c-0.3-0.2-0.8-0.1-1,0.2l-3.6,6c0.2,0.6,0.3,1.3,0.5,1.9l4.3-7.1
			C711.7,141.1,711.6,140.7,711.2,140.5"/>
		<path class="st29" d="M705.4,142.2l3.2-5.2c0.2-0.3,0.1-0.8-0.2-1l0,0c-0.3-0.2-0.8-0.1-1,0.2l-2.7,4.5l-4.5-2.7
			c-0.3-0.2-0.8-0.1-1,0.2l0,0c-0.2,0.3-0.1,0.8,0.2,1l5.2,3.2c0.1,0.2,0.2,0.4,0.3,0.6l0.2-0.3l0.3,0.2
			C705.4,142.6,705.4,142.4,705.4,142.2"/>
		<path class="st29" d="M698.7,143.5L698.7,143.5c-0.2,0.3-0.1,0.8,0.2,1l7.1,4.3c-0.1-0.6-0.3-1.3-0.4-1.9l-6-3.6
			C699.4,143.1,698.9,143.2,698.7,143.5"/>
		<path class="st29" d="M702.7,132.9L702.7,132.9c-0.4,0.1-0.6,0.5-0.5,0.9l1.7,6.8c0.6,0.3,1.1,0.7,1.7,1l-2-8.1
			C703.5,133.1,703.1,132.8,702.7,132.9"/>
		<path class="st29" d="M705,147.8c0-0.2,2.5-0.8,2.5-0.6l0.6,2.5c0,0.2-0.5,0.5-1.2,0.7l0,0c-0.7,0.2-1.3,0.1-1.3-0.1L705,147.8z"
			/>
		<path class="st31" d="M697.3,135.5c0.6,0.3,1.4,0.1,1.8-0.6c0.4-0.7,0.3-1.5-0.3-1.9c-0.6-0.3-1.4-0.1-1.8,0.6
			C696.6,134.3,696.8,135.1,697.3,135.5"/>
	</g>
	<path class="st12" d="M727,113.1l-0.6-0.5l-1.1,1.3c0.4,0.4,0.4,1,0.1,1.4c-0.4,0.4-1,0.5-1.5,0.1c-0.3-0.2-0.4-0.5-0.4-0.8
		c-0.3,0.1-0.6,0-0.9-0.2c-0.3-0.2-0.4-0.6-0.4-0.9c-0.2,0.5-0.1,1.1,0.3,1.5c0.3,0.3,0.7,0.4,1.1,0.3c0,0.4,0.1,0.8,0.5,1.1
		c0.5,0.5,1.4,0.4,1.8-0.1c0.5-0.5,0.4-1.3-0.1-1.8L727,113.1z"/>
	<path class="st22" d="M733.1,110.9C733.1,110.9,733.1,110.9,733.1,110.9L733.1,110.9c0.9-0.4,1.7-0.9,2.3-1.7
		c2-2.4,1.6-5.4-0.5-7.2c-2.1-1.8-5.1-1.7-7.2,0.7c-0.7,0.8-1.1,1.7-1.3,2.6l0,0c0,0,0,0,0,0c-0.1,0.4-0.2,0.8-0.2,1.3
		c-0.3,2.7-0.3,2.7-1.1,3.8l-0.4,0.4c-0.2,0.3-0.2,0.7,0.1,0.9l2.2,1.8c0.3,0.2,0.7,0.2,0.9-0.1l0.4-0.4c1-1,0.9-1,3.6-1.7
		C732.3,111.2,732.7,111.1,733.1,110.9"/>
	<path class="st32" d="M735,102c-0.2-0.2-0.5-0.4-0.7-0.5c1.5,1.8,1.7,4.4-0.1,6.6c-0.7,0.8-1.5,1.3-2.3,1.7v0c0,0,0,0,0,0
		c-0.4,0.2-0.8,0.3-1.2,0.4c-2.6,0.8-2.6,0.7-3.6,1.7l-0.4,0.4c-0.2,0.3-0.6,0.3-0.9,0.1l1.3,1.1c0.3,0.2,0.7,0.2,0.9-0.1l0.4-0.4
		c1-1,0.9-1,3.6-1.7c0.4-0.1,0.8-0.2,1.2-0.4c0,0,0,0,0,0l0,0c0.9-0.4,1.7-0.9,2.3-1.7C737.5,106.8,737.1,103.8,735,102"/>
	<path class="st33" d="M730.5,102.6c0.4,0.4,0.4,1.1,0,1.7c-0.5,0.6-1.2,0.7-1.7,0.3c-0.4-0.4-0.4-1.1,0-1.7
		C729.3,102.4,730,102.3,730.5,102.6"/>
	<path class="st34" d="M730.5,102.6c0.4,0.4,0.4,1.1,0,1.7c-0.5,0.6-1.2,0.7-1.7,0.3c-0.4-0.4-0.4-1.1,0-1.7
		C729.3,102.4,730,102.3,730.5,102.6"/>
	<path class="st6" d="M149.2,32.3V10.7h5.3c4.4,0,6.6,1.9,6.6,5.7c0,2-0.9,3.7-2.7,4.5v0.1c2.4,0.7,3.7,2.5,3.7,5
		c0,3.7-2.1,6.4-7,6.4H149.2z M154.2,19.8c2.9,0,4.1-1.4,4.1-3.4c0-2.1-1.2-3-4.1-3H152v6.4H154.2z M155.2,29.6
		c2.9,0,4.1-1.5,4.1-3.7c0-2.2-1.1-3.6-4.1-3.6H152v7.3H155.2z"/>
	<path class="st6" d="M165.9,32.3V18.1c0-1.1-0.2-2.1-0.4-2.6h2.6c0,0,0.4,1.2,0.5,2.8h0.1c0.9-2,2.5-3.1,4.7-3.1c0.2,0,0.4,0,0.6,0
		l-0.5,3.3c-0.2-0.1-0.7-0.2-1.1-0.2c-2.3,0-3.7,1.7-3.7,4.2v9.8H165.9z"/>
	<path class="st6" d="M188.1,28.8c-1.2,2.5-2.9,3.8-5.9,3.8c-4.1,0-6.3-3.2-6.3-8.7s2.3-8.8,6.3-8.8c4.8,0,6,4.1,6,8.9v0.8h-9.4
		c0.1,3.1,1.2,5.3,3.7,5.3c1.7,0,2.8-1,3.5-2.8L188.1,28.8z M185.4,22.7c-0.1-3.1-1-5.1-3.2-5.1c-2.3,0-3.3,2.1-3.5,5.1H185.4z"/>
	<path class="st6" d="M200.2,32.3c-0.2-0.2-0.4-1.2-0.5-2.3c-0.7,1.3-2,2.6-4.2,2.6c-3,0-4.7-2.1-4.7-4.9c0-3.2,2.8-5.4,8.9-5.4v-1
		c0-2.4-1-3.7-2.8-3.7c-1.6,0-2.8,1.1-3.4,2.5l-1.8-1.9c1.5-2.1,3.6-3.1,5.7-3.1c2.9,0,5.2,2,5.2,6.4v8.1c0,1.3,0.2,2.2,0.5,2.6
		H200.2z M199.6,24.5H199c-3.3,0-5.5,1.1-5.5,3.3c0,1.7,1.1,2.5,2.4,2.5c2.4,0,3.7-2.2,3.7-4.6V24.5z"/>
	<path class="st6" d="M216.1,32.3l-4.6-8.1h-0.1c0,0-0.4,0.6-0.9,1.2l-0.8,1v6h-2.8V9.7h2.8v10.6c0,0.8,0,2,0,2h0.1
		c0.1-0.1,1-1.3,1.8-2.3l3.7-4.6h3.4l-5.3,6.5l5.9,10.3H216.1z"/>
	<path class="st6" d="M223.2,32.3V17.9h-2.2v-2.4h2.2v-0.8c0-3.5,1.3-5.6,4.6-5.6c0.9,0,1.5,0.1,2.4,0.5l-0.7,2.5
		c-0.5-0.3-1.1-0.5-1.5-0.5c-1.3,0-1.9,1.1-1.9,2.6v1.3h3.1v2.4H226v14.4H223.2z"/>
	<path class="st6" d="M239.9,32.3c-0.2-0.2-0.4-1.2-0.5-2.3c-0.7,1.3-2,2.6-4.2,2.6c-3,0-4.7-2.1-4.7-4.9c0-3.2,2.8-5.4,8.9-5.4v-1
		c0-2.4-1-3.7-2.8-3.7c-1.6,0-2.8,1.1-3.4,2.5l-1.8-1.9c1.5-2.1,3.6-3.1,5.7-3.1c2.9,0,5.2,2,5.2,6.4v8.1c0,1.3,0.2,2.2,0.5,2.6
		H239.9z M239.4,24.5h-0.7c-3.3,0-5.5,1.1-5.5,3.3c0,1.7,1.1,2.5,2.4,2.5c2.4,0,3.7-2.2,3.7-4.6V24.5z"/>
	<path class="st6" d="M247.8,27.7c0.8,1.4,2.6,2.4,4.3,2.4c1.8,0,2.8-1,2.8-2.3c0-3.7-8.7-2.5-8.7-7.8c0-2.5,1.9-4.8,5.7-4.8
		c2.1,0,4,0.7,5.4,2.4l-1.9,1.8c-0.9-1.2-2-1.8-3.7-1.8c-1.5,0-2.7,0.8-2.7,2.2c0,3.2,8.7,1.9,8.7,7.8c0,2.9-2.1,5-5.6,5
		c-2.8,0-5.1-1.1-6.5-3.1L247.8,27.7z"/>
	<path class="st6" d="M269.1,32.1c-0.7,0.3-1.7,0.6-2.8,0.6c-2.9,0-4.4-1.8-4.4-4.9v-9.8h-2v-2.5h2V11h2.8v4.4h3.6v2.5h-3.6v9.7
		c0,1.5,0.6,2.4,2,2.4c0.7,0,1.1-0.1,1.6-0.4L269.1,32.1z"/>
	<path class="st6" d="M31.5,32.4l-3.2-14.2c-0.2-1-0.3-1.8-0.3-1.8h-0.1c0,0-0.1,0.8-0.3,1.8l-3.2,14.2h-3.1l-4.9-21.7h3l3.2,15.7
		c0.1,0.6,0.2,1.2,0.3,1.8h0.1c0,0,0.2-1,0.3-1.8l3.3-15.7h2.7l3.3,15.7c0.2,0.8,0.3,1.8,0.3,1.8H33c0-0.1,0.1-0.9,0.3-1.8l3.2-15.7
		h3c-1.6,7.2-3.3,14.5-4.9,21.7H31.5z"/>
	<path class="st6" d="M53.3,28.9c-1.2,2.5-2.9,3.8-5.9,3.8c-4.1,0-6.3-3.3-6.3-8.7c0-5.4,2.3-8.8,6.3-8.8c4.8,0,6,4.1,6,8.9V25h-9.4
		c0.1,3.1,1.2,5.3,3.7,5.3c1.7,0,2.8-1,3.5-2.8L53.3,28.9z M50.6,22.8c-0.1-3.1-1-5.1-3.2-5.1c-2.3,0-3.3,2.1-3.5,5.1H50.6z"/>
	<path class="st6" d="M68.3,28.9c-1.2,2.5-2.9,3.8-5.9,3.8c-4.1,0-6.3-3.3-6.3-8.7c0-5.4,2.3-8.8,6.3-8.8c4.8,0,6,4.1,6,8.9V25H59
		c0.1,3.1,1.2,5.3,3.7,5.3c1.7,0,2.8-1,3.5-2.8L68.3,28.9z M65.6,22.8c-0.1-3.1-1-5.1-3.2-5.1c-2.3,0-3.3,2.1-3.5,5.1H65.6z"/>
	<path class="st6" d="M81.1,32.4l-4.6-8.1h-0.1c0,0-0.4,0.6-0.9,1.2l-0.8,1v6h-2.8V9.8h2.8v10.6c0,0.8,0,2,0,2h0.1
		c0.1-0.1,1-1.3,1.8-2.3l3.7-4.6h3.4l-5.3,6.5l5.9,10.3H81.1z"/>
	<polygon class="st6" points="44.2,126.4 44.2,114 43,114 43,112.3 46.1,112.3 46.1,126.4 	"/>
	<polygon class="st6" points="341.7,32.3 341.7,10.7 344.6,10.7 344.6,29.6 352,29.6 352,32.3 	"/>
	<path class="st6" d="M364.5,32.3c0,0-0.4-1.1-0.5-2.3h-0.1c-0.9,1.7-2.4,2.6-4.3,2.6c-3.8,0-5-3.1-5-6.7V15.5h2.8v9.4
		c0,2.8,0.3,5.2,3,5.2c2.4,0,3.3-2.2,3.3-4.2V15.5h2.8v14.3c0,1.1,0.2,2.1,0.4,2.6H364.5z"/>
	<path class="st6" d="M380.5,32.3V23c0-2.8-0.3-5.2-3-5.2c-2.7,0-3.3,2.5-3.3,5.2v9.4h-2.8V18.1c0-1.1-0.2-2.1-0.4-2.6h2.6
		c0,0,0.4,1.1,0.5,2.4h0.1c0.9-1.7,2.4-2.7,4.3-2.7c3.8,0,5,3.1,5,6.7v10.5H380.5z"/>
	<path class="st6" d="M398.6,28.7c-0.9,2.4-2.6,3.9-5.5,3.9c-4,0-6.3-3.2-6.3-8.7c0-5.4,2.3-8.8,6.3-8.8c2.8,0,4.5,1.5,5.5,3.8
		l-2.4,1.7c-0.4-1.8-1.4-2.8-3-2.8c-2.6,0-3.5,2.6-3.5,6.1c0,3.4,0.8,6,3.5,6c1.6,0,2.6-1.2,3.1-2.9L398.6,28.7z"/>
	<path class="st6" d="M410.9,32.3V21.9c0-2.3-0.8-4.1-3-4.1c-2,0-3.3,1.7-3.3,4v10.6h-2.8V9.7h2.8v5.8c0,0.8,0,1.9,0,1.9h0.1
		c0.9-1.5,2.3-2.4,4.1-2.4c3.8,0,5,3.1,5,6.7v10.5H410.9z"/>
	<path class="st6" d="M674.3,32.3V10.7h5c5.8,0,7.9,4.9,7.9,10.8c0,5.9-2.1,10.8-7.8,10.8H674.3z M679.4,29.6c3.4,0,4.9-3.3,4.9-8.1
		c0-4.8-1.5-8.1-5-8.1h-2.1v16.2H679.4z"/>
	<path class="st6" d="M690.6,11.6c0-1,0.8-1.7,1.8-1.7c1,0,1.8,0.8,1.8,1.7c0,1-0.8,1.8-1.8,1.8C691.4,13.3,690.6,12.6,690.6,11.6
		 M691,15.5h2.8v16.9H691V15.5z"/>
	<path class="st6" d="M707.6,32.3V23c0-2.8-0.3-5.2-3-5.2c-2.7,0-3.3,2.5-3.3,5.2v9.4h-2.8V18.1c0-1.1-0.2-2.1-0.4-2.6h2.6
		c0,0,0.4,1.1,0.5,2.4h0.1c0.9-1.7,2.4-2.7,4.3-2.7c3.8,0,5,3.1,5,6.7v10.5H707.6z"/>
	<path class="st6" d="M724.1,32.3V23c0-2.8-0.3-5.2-3-5.2c-2.7,0-3.3,2.5-3.3,5.2v9.4h-2.8V18.1c0-1.1-0.2-2.1-0.4-2.6h2.6
		c0,0,0.4,1.1,0.5,2.4h0.1c0.9-1.7,2.4-2.7,4.3-2.7c3.8,0,5,3.1,5,6.7v10.5H724.1z"/>
	<path class="st6" d="M742.6,28.8c-1.2,2.5-2.9,3.8-5.9,3.8c-4.1,0-6.3-3.2-6.3-8.7s2.3-8.8,6.3-8.8c4.8,0,6,4.1,6,8.9v0.8h-9.4
		c0.1,3.1,1.2,5.3,3.7,5.3c1.7,0,2.8-1,3.5-2.8L742.6,28.8z M740,22.7c-0.1-3.1-1-5.1-3.2-5.1c-2.3,0-3.3,2.1-3.5,5.1H740z"/>
	<path class="st6" d="M746.4,32.3V18.1c0-1.1-0.2-2.1-0.4-2.6h2.6c0,0,0.4,1.2,0.5,2.8h0.1c0.9-2,2.5-3.1,4.7-3.1c0.2,0,0.4,0,0.6,0
		l-0.5,3.3c-0.2-0.1-0.7-0.2-1.1-0.2c-2.3,0-3.7,1.7-3.7,4.2v9.8H746.4z"/>
	<path class="st6" d="M582.5,27.5c0.8,1.4,2.6,2.4,4.3,2.4c1.8,0,2.8-1,2.8-2.3c0-3.7-8.7-2.5-8.7-7.8c0-2.5,1.9-4.8,5.7-4.8
		c2.1,0,4,0.7,5.4,2.4l-1.9,1.8c-0.9-1.2-2-1.8-3.7-1.8c-1.5,0-2.7,0.8-2.7,2.2c0,3.2,8.7,1.9,8.7,7.8c0,2.9-2.1,5-5.6,5
		c-2.8,0-5.1-1.1-6.5-3.1L582.5,27.5z"/>
	<path class="st6" d="M545.7,32.2c-0.2-0.2-0.4-1.2-0.5-2.3c-0.7,1.3-2,2.6-4.2,2.6c-3,0-4.7-2.1-4.7-4.9c0-3.2,2.8-5.4,8.9-5.4v-1
		c0-2.4-1-3.7-2.8-3.7c-1.6,0-2.8,1.1-3.4,2.5l-1.8-1.9c1.5-2.1,3.6-3.1,5.7-3.1c2.9,0,5.2,2,5.2,6.4v8.1c0,1.3,0.2,2.2,0.5,2.6
		H545.7z M545.1,24.3h-0.7c-3.3,0-5.5,1.1-5.5,3.3c0,1.7,1.1,2.5,2.4,2.5c2.4,0,3.7-2.2,3.7-4.6V24.3z"/>
	<path class="st6" d="M575.3,32.2l-4.6-8.1h-0.1c0,0-0.4,0.6-0.9,1.2l-0.8,1v6h-2.8V9.6h2.8v10.6c0,0.8,0,2,0,2h0.1
		c0.1-0.1,1-1.3,1.8-2.3l3.7-4.6h3.4l-5.3,6.5l5.9,10.3H575.3z"/>
	<path class="st6" d="M503.5,26c1.1,1.9,3.4,3.1,5.6,3.1c2.3,0,3.7-1.3,3.7-3c0-4.8-11.4-3.2-11.4-10.2c0-3.3,2.5-6.3,7.5-6.3
		c2.7,0,5.2,0.9,7.1,3.2l-2.6,2.4c-1.1-1.6-2.7-2.4-4.8-2.4c-1.9,0-3.5,1.1-3.5,2.8c0,4.2,11.4,2.5,11.4,10.3c0,3.9-2.8,6.6-7.4,6.6
		c-3.7,0-6.7-1.5-8.5-4L503.5,26z"/>
	<path class="st6" d="M529.2,32.2v-9.4c0-2.8-0.3-5.2-3-5.2c-2.7,0-3.3,2.5-3.3,5.2v9.4H520V17.9c0-1.1-0.2-2.1-0.4-2.6h2.6
		c0,0,0.4,1.1,0.5,2.4h0.1c0.9-1.7,2.4-2.7,4.3-2.7c3.8,0,5,3.1,5,6.7v10.5H529.2z"/>
	<path class="st6" d="M563.1,28.6c-0.9,2.4-2.6,3.9-5.5,3.9c-4,0-6.3-3.2-6.3-8.7c0-5.4,2.3-8.8,6.3-8.8c2.8,0,4.5,1.5,5.5,3.8
		l-2.4,1.7c-0.4-1.8-1.4-2.8-3-2.8c-2.6,0-3.5,2.6-3.5,6.1c0,3.4,0.8,6,3.5,6c1.6,0,2.6-1.2,3.1-2.9L563.1,28.6z"/>
	<path class="st6" d="M563.1,28.4c-0.9,2.4-2.6,3.9-5.5,3.9c-4,0-6.3-3.2-6.3-8.7c0-5.4,2.3-8.8,6.3-8.8c2.8,0,4.5,1.5,5.5,3.8
		l-2.4,1.7c-0.4-1.8-1.4-2.8-3-2.8c-2.6,0-3.5,2.6-3.5,6.1c0,3.4,0.8,6,3.5,6c1.6,0,2.6-1.2,3.1-2.9L563.1,28.4z"/>
	<path class="st6" d="M89,27.8c0.8,1.4,2.6,2.4,4.3,2.4c1.8,0,2.8-1,2.8-2.3c0-3.7-8.6-2.5-8.6-7.7c0-2.5,1.9-4.8,5.7-4.8
		c2.1,0,4,0.7,5.4,2.4l-1.9,1.8c-0.9-1.2-2-1.8-3.6-1.8c-1.4,0-2.7,0.8-2.7,2.2c0,3.2,8.6,1.9,8.6,7.8c0,2.9-2.1,5-5.6,5
		c-2.8,0-5-1.1-6.4-3L89,27.8z"/>
	<path class="st6" d="M66.5,126.1L66.5,126.1l5.3-7.7c0.6-0.9,1-1.9,1-2.7c0-1.2-0.8-2.1-2.1-2.1c-1.2,0-2.1,0.9-2.3,2.5l-1.7-0.7
		c0.4-2,1.9-3.5,4-3.5c2.6,0,3.9,1.8,3.9,3.9c0,1.2-0.5,2.5-1.3,3.6l-2.2,3.1c-0.8,1.2-1.4,1.8-1.4,1.8v0h4.7v1.8H66.5z"/>
	<polygon class="st6" points="61.6,126.4 61.6,114 60.4,114 60.4,112.3 63.4,112.3 63.4,126.4 	"/>
	<g>
		<path class="st6" d="M50.8,121.2v-1.9h6.3v1.9H50.8z"/>
	</g>
	<g>
		<g>
			<g>
				<path class="st6" d="M213.5,68.1c-1.6-1.1-4.5-2-6.5-2h-10.6v0H184c-0.5,0-1,0.4-1,1c0,0.5,0.4,1,1,1h13.6v0h8.2
					c2,0,4.7,1.1,6.1,2.5l8,7.8l3.1-3.7L213.5,68.1z"/>
				<rect x="183.9" y="68" class="st6" width="16.6" height="1.9"/>
				<rect x="195.5" y="68" class="st35" width="5" height="1.9"/>
				<rect x="186.5" y="68" class="st36" width="4.2" height="1.9"/>
			</g>
			<path class="st37" d="M219.1,71.1c-2.7,0-4.9,2.2-4.9,4.9h9.8C224,73.3,221.8,71.1,219.1,71.1z"/>
		</g>
		<g>
			<path class="st37" d="M200,71.5v-1.5h-15.6v1.5c0,0.2-0.1,0.5-0.2,0.7l-0.9,1.6h17.7l-0.9-1.6C200.1,72,200,71.7,200,71.5z"/>
			<path class="st36" d="M189.4,71.5v-1.5h-3.7v1.5c0,0.2-0.1,0.5-0.2,0.7l-0.9,1.6h3.7l0.9-1.6C189.3,72,189.4,71.7,189.4,71.5z"/>
			<path class="st38" d="M200.2,72.2c-0.1-0.2-0.2-0.5-0.2-0.7v-1.5h-4.2v1.5c0,0.2,0.1,0.5,0.2,0.7l0.9,1.6h4.2L200.2,72.2z"/>
		</g>
		<g>
			<path class="st37" d="M226.3,76.7v3.6h-46.6v-6.4c0-1,0.8-1.7,1.8-1.6l2.2,0.2l6.3,0.5l35.3,2.7
				C225.8,75.6,226.3,76.1,226.3,76.7z"/>
			<path class="st36" d="M226.2,76.7L226.2,76.7l-46.5-3.4c0.2-0.7,0.9-1.1,1.7-1.1l2.2,0.2l6.3,0.5l35.3,2.7
				C225.7,75.6,226.2,76.1,226.2,76.7z"/>
		</g>
		<g>
			<path class="st37" d="M227.7,81v8.2h-49.5V81c0-0.6,0.5-1.1,1.1-1.1h47.3C227.3,79.9,227.7,80.4,227.7,81z"/>
			<path class="st39" d="M227.7,81L227.7,81l-49.5,0v0c0-0.6,0.5-1.1,1.1-1.1h47.3C227.3,79.9,227.7,80.4,227.7,81z"/>
		</g>
		<path class="st38" d="M215.2,81v8.2h12.5V81c0-0.6-0.5-1.1-1.1-1.1l-0.4,0v-3.2c0-0.6-0.5-1.1-1.1-1.2l-11.4-0.9v2v3.2l0.4,0
			C214.8,79.9,215.2,80.4,215.2,81z"/>
		<g>
			<path class="st40" d="M227.7,89.2l-1.4,2.6h0l-5.6,82.8c-0.1,1-0.9,1.8-1.9,1.8h-31.6c-1,0-1.8-0.8-1.9-1.8l-5.6-82.8h0l-1.4-2.6
				H227.7z"/>
			<polygon class="st41" points="178.3,89.2 179.7,91.8 226.3,91.8 227.7,89.2 			"/>
			<path class="st42" d="M220.7,174.6c-0.1,1-0.9,1.8-1.9,1.8h-31.6c-1,0-1.8-0.8-1.9-1.8H220.7z"/>
			<path class="st43" d="M213.8,91.8L213.8,91.8l-5.6,82.8c-0.1,1-0.9,1.8-1.9,1.8h12.5c1,0,1.8-0.8,1.9-1.8l5.6-82.8h0l1.4-2.6
				h-12.5L213.8,91.8z"/>
			<g>
				<path class="st44" d="M204.2,140.6h-5.6c-0.1,0-0.2-0.1-0.2-0.2v-1c0-0.1,0.1-0.2,0.2-0.2h5.6c0.1,0,0.2,0.1,0.2,0.2v1
					C204.4,140.5,204.3,140.6,204.2,140.6z"/>
				<path class="st44" d="M204.4,134.6c0,0.1,0,0.1-0.1,0.2l-2.2,1c-0.4,0.2-1,0.4-1,0.4v0c0,0,0.6,0,1.1,0h2.1
					c0.1,0,0.2,0.1,0.2,0.2v1c0,0.1-0.1,0.2-0.2,0.2h-5.7c-0.1,0-0.2-0.1-0.2-0.2v-1.2c0-0.1,0-0.1,0.1-0.2l2-0.9
					c0.4-0.2,1-0.4,1-0.4v0c0,0-0.6,0-1.1,0h-1.8c-0.1,0-0.2-0.1-0.2-0.2v-1c0-0.1,0.1-0.2,0.2-0.2h5.7c0.1,0,0.2,0.1,0.2,0.2V134.6
					z"/>
				<path class="st44" d="M204.2,131h-4.3c-0.1,0-0.2,0.1-0.2,0.2v0.5c0,0.1-0.1,0.2-0.2,0.2h-1c-0.1,0-0.2-0.1-0.2-0.2v-2.9
					c0-0.1,0.1-0.2,0.2-0.2h1c0.1,0,0.2,0.1,0.2,0.2v0.5c0,0.1,0.1,0.2,0.2,0.2h4.3c0.1,0,0.2,0.1,0.2,0.2v1.1
					C204.4,130.9,204.3,131,204.2,131z"/>
				<path class="st44" d="M204.2,127.3h-5.7c-0.1,0-0.2-0.1-0.2-0.2v-3c0-0.1,0.1-0.2,0.2-0.2h0.9c0.1,0,0.2,0.1,0.2,0.2v1.6
					c0,0.1,0.1,0.2,0.2,0.2h0.8c0.1,0,0.2-0.1,0.2-0.2v-1.2c0-0.1,0.1-0.2,0.2-0.2h0.9c0.1,0,0.2,0.1,0.2,0.2v1.2
					c0,0.1,0.1,0.2,0.2,0.2h0.6c0.1,0,0.2-0.1,0.2-0.2v-1.6c0-0.1,0.1-0.2,0.2-0.2h0.9c0.1,0,0.2,0.1,0.2,0.2v3
					C204.4,127.2,204.3,127.3,204.2,127.3z"/>
				<path class="st44" d="M204.3,120l-1.6,0.5c-0.1,0-0.1,0.1-0.1,0.2v0.1c0,0.1,0.1,0.2,0.2,0.2h1.5c0.1,0,0.2,0.1,0.2,0.2v1.1
					c0,0.1-0.1,0.2-0.2,0.2h-5.7c-0.1,0-0.2-0.1-0.2-0.2v-1.6c0-1.4,1.1-2,2.1-2c0.7,0,1.3,0.2,1.7,0.7c0,0.1,0.1,0.1,0.2,0l1.9-0.8
					c0.1,0,0.2,0,0.2,0.2v1.1C204.4,119.9,204.3,120,204.3,120z M201.2,120.6c0-0.5-0.4-0.6-0.8-0.6c-0.5,0-0.8,0.2-0.8,0.6v0.1
					c0,0.1,0.1,0.2,0.2,0.2h1.3C201.2,120.9,201.2,120.8,201.2,120.6L201.2,120.6z"/>
				<path class="st44" d="M204.4,114.9v1.4c0,0.1-0.1,0.2-0.1,0.2l-5.7,1.1c-0.1,0-0.2-0.1-0.2-0.2v-1.1c0-0.1,0.1-0.2,0.2-0.2
					l2.8-0.4c0.5-0.1,1.6-0.2,1.6-0.2v0c0,0-1.1-0.1-1.6-0.2l-2.8-0.3c-0.1,0-0.2-0.1-0.2-0.2v-1.1c0-0.1,0.1-0.2,0.2-0.2l5.7,1.1
					C204.3,114.8,204.4,114.8,204.4,114.9z"/>
				<path class="st44" d="M204.2,112.3h-5.7c-0.1,0-0.2-0.1-0.2-0.2v-3c0-0.1,0.1-0.2,0.2-0.2h1c0.1,0,0.2,0.1,0.2,0.2v1.6
					c0,0.1,0.1,0.2,0.2,0.2h0.8c0.1,0,0.2-0.1,0.2-0.2v-1.3c0-0.1,0.1-0.2,0.2-0.2h0.9c0.1,0,0.2,0.1,0.2,0.2v1.3
					c0,0.1,0.1,0.2,0.2,0.2h0.7c0.1,0,0.2-0.1,0.2-0.2v-1.6c0-0.1,0.1-0.2,0.2-0.2h1c0.1,0,0.2,0.1,0.2,0.2v3
					C204.4,112.3,204.3,112.3,204.2,112.3z"/>
				<path class="st44" d="M204.4,104.5c0,0.1,0,0.1-0.1,0.2l-2.2,1c-0.4,0.2-1,0.4-1,0.4v0c0,0,0.6,0,1.1,0h2.1
					c0.1,0,0.2,0.1,0.2,0.2v1c0,0.1-0.1,0.2-0.2,0.2h-5.7c-0.1,0-0.2-0.1-0.2-0.2V106c0-0.1,0-0.1,0.1-0.2l2-0.9
					c0.4-0.2,1-0.4,1-0.4v0c0,0-0.6,0-1.1,0h-1.8c-0.1,0-0.2-0.1-0.2-0.2v-1c0-0.1,0.1-0.2,0.2-0.2h5.7c0.1,0,0.2,0.1,0.2,0.2V104.5
					z"/>
				<path class="st44" d="M204.2,100.9h-4.4c-0.1,0-0.2,0.1-0.2,0.2v0.6c0,0.1-0.1,0.2-0.2,0.2h-1.1c-0.1,0-0.2-0.1-0.2-0.2v-2.9
					c0-0.1,0.1-0.2,0.2-0.2h1.1c0.1,0,0.2,0.1,0.2,0.2v0.6c0,0.1,0.1,0.2,0.2,0.2h4.4c0.1,0,0.2,0.1,0.2,0.2v1.1
					C204.4,100.8,204.3,100.9,204.2,100.9z"/>
			</g>
			<g>
				<path class="st45" d="M206.5,157.1l-2.5-0.9l-5,1.4c-0.5,0.1-0.7,0.6-0.6,1.1c0.1,0.5,0.6,0.7,1.1,0.6l7.6-2.1
					c0.4-0.1,0.6-0.5,0.6-0.8c0,0,0,0,0,0c0,0.1,0,0.2-0.1,0.3C207.4,157,206.9,157.2,206.5,157.1z"/>
				<path class="st45" d="M200.4,154.5c0-0.1-0.1-0.2-0.1-0.3c0,0.4,0.2,0.7,0.6,0.8l3.1,1.1l2.5-0.7c0.5-0.1,0.9,0.1,1.1,0.6
					c0,0.1,0,0.1,0,0.2c0,0,0,0,0,0c0-0.3-0.2-0.7-0.6-0.8l-3.4-1.3l-2.2,0.8C201,155.2,200.6,154.9,200.4,154.5z"/>
				<path class="st46" d="M206.5,155.5l-2.5,0.7l2.5,0.9c0.4,0.2,0.9-0.1,1.1-0.5c0-0.1,0.1-0.2,0.1-0.3c0-0.1,0-0.1,0-0.2
					C207.5,155.6,207,155.3,206.5,155.5z"/>
				<path class="st47" d="M207.6,152.1C207.6,152.1,207.6,152.1,207.6,152.1C207.6,152.1,207.6,152.2,207.6,152.1
					C207.6,152.2,207.6,152.1,207.6,152.1z"/>
				<path class="st45" d="M206.5,152.9l-2.6-0.7l-3.1,1.1c-0.4,0.1-0.6,0.5-0.6,0.8c0-0.1,0-0.2,0.1-0.3c0.2-0.4,0.7-0.7,1.1-0.5
					l2.2,0.8l3.4-1.3c0.3-0.1,0.5-0.4,0.6-0.7c0,0,0,0.1,0,0.1C207.5,152.8,207,153.1,206.5,152.9z"/>
				<path class="st46" d="M200.4,153.9c0,0.1-0.1,0.2-0.1,0.3c0,0.1,0,0.2,0.1,0.3c0.2,0.4,0.7,0.7,1.1,0.5l2.2-0.8l-2.2-0.8
					C201,153.2,200.6,153.5,200.4,153.9z"/>
				<path class="st47" d="M207.6,152.2C207.6,152.2,207.6,152.2,207.6,152.2C207.6,152.2,207.6,152.2,207.6,152.2z"/>
				<path class="st45" d="M198.4,150.3c0-0.1-0.1-0.2-0.1-0.3c0,0.4,0.3,0.7,0.6,0.8l5,1.4l2.5-0.9c0.4-0.2,0.9,0.1,1.1,0.5
					c0,0.1,0.1,0.2,0.1,0.3c0,0,0,0,0,0c0-0.4-0.3-0.7-0.6-0.8l-5-1.4l-2.5,0.9C199.1,151,198.6,150.8,198.4,150.3z"/>
				<path class="st46" d="M206.5,151.3l-2.5,0.9l2.6,0.7c0.5,0.1,0.9-0.1,1.1-0.6c0,0,0-0.1,0-0.1c0,0,0,0,0,0c0,0,0-0.1,0-0.1
					c0-0.1,0-0.2-0.1-0.3C207.4,151.4,206.9,151.2,206.5,151.3z"/>
				<path class="st48" d="M204.5,148.8l-2.1-0.8l-3.4,1.3c-0.4,0.1-0.6,0.5-0.6,0.8c0-0.1,0-0.2,0-0.2c0.1-0.5,0.6-0.7,1.1-0.6
					l2.6,0.7l3.1-1.1c0.3-0.1,0.5-0.4,0.6-0.7c0,0.1,0,0.1,0,0.2C205.4,148.7,204.9,148.9,204.5,148.8z"/>
				<path class="st49" d="M205.6,148C205.6,148,205.6,148,205.6,148C205.6,148,205.6,148,205.6,148C205.6,148,205.6,148,205.6,148z"
					/>
				<path class="st49" d="M205.6,147.9C205.6,147.9,205.6,147.9,205.6,147.9C205.6,147.9,205.6,147.9,205.6,147.9z"/>
				<path class="st50" d="M198.4,149.8c0,0.1,0,0.2,0,0.2c0,0.1,0,0.2,0.1,0.3c0.2,0.4,0.7,0.7,1.1,0.5l2.5-0.9l-2.6-0.7
					C199,149.1,198.5,149.4,198.4,149.8z"/>
				<path class="st48" d="M206.5,143L199,145c-0.4,0.1-0.6,0.4-0.6,0.8c0-0.1,0-0.2,0.1-0.3c0.2-0.4,0.7-0.7,1.1-0.5l2.5,0.9l5-1.4
					c0.4-0.1,0.6-0.5,0.6-0.8c0-0.1,0-0.2,0-0.2C207.5,143.1,207,142.9,206.5,143z"/>
				<path class="st49" d="M205.6,148C205.6,147.9,205.6,147.9,205.6,148C205.6,147.9,205.6,148,205.6,148
					C205.6,148,205.6,148,205.6,148z"/>
				<path class="st48" d="M198.4,146.1c0-0.1,0-0.2,0-0.2c0,0.4,0.2,0.7,0.6,0.8l3.4,1.3l2.1-0.8c0.4-0.2,0.9,0.1,1.1,0.5
					c0,0.1,0,0.1,0,0.2c0-0.3-0.2-0.6-0.6-0.7L202,146l-2.5,0.7C199,146.8,198.5,146.5,198.4,146.1z"/>
				<path class="st49" d="M205.6,148C205.6,148,205.6,148,205.6,148C205.6,148,205.6,148,205.6,148z"/>
				<path class="st50" d="M204.5,147.2l-2.1,0.8l2.1,0.8c0.4,0.2,0.9-0.1,1.1-0.5c0-0.1,0-0.1,0-0.2c0,0,0,0,0,0c0,0,0,0,0,0
					c0,0,0,0,0,0c0,0,0,0,0,0c0-0.1,0-0.1,0-0.2C205.4,147.2,204.9,147,204.5,147.2z"/>
				<path class="st50" d="M198.4,145.6c0,0.1,0,0.2-0.1,0.3c0,0.1,0,0.2,0,0.2c0.1,0.5,0.6,0.7,1.1,0.6l2.5-0.7l-2.5-0.9
					C199.1,144.9,198.6,145.2,198.4,145.6z"/>
			</g>
			<g>
				<g>
					<path class="st51" d="M207,139.7h-0.8c0,0-0.1,0-0.1,0v0c0,0,0,0,0.1,0l0.4,0.2v0l-0.4,0.2c0,0-0.1,0-0.1,0v0c0,0,0.1,0,0.1,0
						h0.8v0.3h-1.4v-0.3l0.4-0.2c0,0,0.1,0,0.1,0v0c0,0-0.1,0-0.1,0l-0.4-0.2v-0.3h1.4V139.7z"/>
					<path class="st51" d="M207,139h-1.4v-0.7h0.2v0.5h0.3v-0.4h0.2v0.4h0.3v-0.5h0.2V139z"/>
					<path class="st51" d="M207,137.9h-1.4v-0.4c0-0.4,0.3-0.5,0.7-0.5c0.4,0,0.7,0.1,0.7,0.5V137.9z M206.8,137.6
						c0-0.2-0.2-0.2-0.4-0.2c-0.2,0-0.4,0.1-0.4,0.2v0.1L206.8,137.6L206.8,137.6z"/>
					<path class="st51" d="M207,136.8h-1.4v-0.3h1.4V136.8z"/>
					<path class="st51" d="M206.8,135.3c0.2,0.1,0.3,0.2,0.3,0.4c0,0.4-0.3,0.5-0.7,0.5c-0.4,0-0.7-0.1-0.7-0.5
						c0-0.2,0.1-0.3,0.3-0.4l0.1,0.2c-0.1,0-0.2,0.1-0.2,0.2c0,0.2,0.2,0.2,0.5,0.2c0.2,0,0.5-0.1,0.5-0.2c0-0.1-0.1-0.2-0.2-0.2
						L206.8,135.3z"/>
					<path class="st51" d="M207,134.5l-0.2,0v0.3l0.2,0v0.3l-1.4-0.3v-0.3l1.4-0.3V134.5z M206.1,134.7c0,0-0.1,0-0.1,0v0
						C206,134.7,206.1,134.7,206.1,134.7l0.4,0.1v-0.2L206.1,134.7z"/>
					<path class="st51" d="M207,134h-1.4v-0.3h1.1v-0.4h0.2V134z"/>
				</g>
				<g>
					<path class="st51" d="M207,131.4v0.3l-0.7,0.1c-0.1,0-0.2,0-0.2,0v0c0,0,0.1,0,0.2,0l0.7,0.1v0.3l-1.4,0.3v-0.3l0.8-0.1
						c0.1,0,0.2,0,0.2,0v0c0,0-0.1,0-0.2,0l-0.8-0.2v-0.3l0.8-0.2c0.1,0,0.2,0,0.2,0v0c0,0-0.1,0-0.2,0l-0.8-0.1v-0.3L207,131.4z"/>
					<path class="st51" d="M207,130.8h-1.4v-0.7h0.2v0.5h0.3v-0.4h0.2v0.4h0.3v-0.5h0.2V130.8z"/>
					<path class="st51" d="M207,129.7h-1.4v-0.3h1.4V129.7z"/>
					<path class="st51" d="M206.4,128.2c0.4,0,0.7,0.1,0.7,0.5c0,0.4-0.3,0.5-0.7,0.5c-0.4,0-0.7-0.1-0.7-0.5c0-0.2,0.1-0.3,0.3-0.4
						l0.1,0.2c-0.1,0-0.2,0.1-0.2,0.2c0,0.2,0.2,0.2,0.5,0.2c0.2,0,0.5-0.1,0.5-0.2c0-0.2-0.2-0.2-0.3-0.2v0.2h-0.2L206.4,128.2
						L206.4,128.2z"/>
					<path class="st51" d="M207,127.3h-0.5v0.4h0.5v0.3h-1.4v-0.3h0.6v-0.4h-0.6v-0.3h1.4V127.3z"/>
					<path class="st51" d="M207,126.5h-1.1v0.2h-0.2V126h0.2v0.2h1.1V126.5z"/>
				</g>
				<g>
					<g>
						<path class="st51" d="M206,113.3h-0.5v0.1h-0.1v-0.3h0.1v0.1L206,113.3L206,113.3z"/>
						<path class="st51" d="M206,112.7h-0.3c0,0-0.1,0-0.1,0v0c0,0,0,0,0,0l0.2,0.1v0l-0.2,0.1c0,0,0,0,0,0v0c0,0,0,0,0.1,0h0.3v0.1
							h-0.5V113l0.2-0.1c0,0,0,0,0,0v0c0,0,0,0,0,0l-0.2-0.1v-0.1L206,112.7L206,112.7z"/>
					</g>
					<g>
						<path class="st51" d="M207,124.4h-0.8c0,0-0.1,0-0.1,0v0c0,0,0,0,0.1,0l0.4,0.2v0l-0.4,0.2c0,0-0.1,0-0.1,0v0c0,0,0.1,0,0.1,0
							h0.8v0.3h-1.4v-0.3l0.4-0.2c0,0,0.1,0,0.1,0v0c0,0-0.1,0-0.1,0l-0.4-0.2v-0.3h1.4V124.4z"/>
						<path class="st51" d="M207,123.2l-0.2,0v0.3l0.2,0v0.3l-1.4-0.3v-0.3l1.4-0.3V123.2z M206.1,123.4c0,0-0.1,0-0.1,0v0
							C206,123.4,206.1,123.4,206.1,123.4l0.4,0.1v-0.2L206.1,123.4z"/>
						<path class="st51" d="M207,122l-0.8,0.3c0,0-0.1,0-0.1,0v0c0,0,0.1,0,0.1,0h0.8v0.2h-1.4v-0.2l0.7-0.3c0,0,0.1,0,0.1,0v0
							c0,0-0.1,0-0.1,0h-0.7v-0.2h1.4V122z"/>
						<path class="st51" d="M207,120.9l-0.2,0v0.3l0.2,0v0.3l-1.4-0.3v-0.3l1.4-0.3V120.9z M206.1,121.1c0,0-0.1,0-0.1,0v0
							C206,121.1,206.1,121.1,206.1,121.1l0.4,0.1V121L206.1,121.1z"/>
						<path class="st51" d="M206.4,119.5c0.4,0,0.7,0.1,0.7,0.5c0,0.4-0.3,0.5-0.7,0.5c-0.4,0-0.7-0.1-0.7-0.5
							c0-0.2,0.1-0.3,0.3-0.4l0.1,0.2c-0.1,0-0.2,0.1-0.2,0.2c0,0.2,0.2,0.2,0.5,0.2c0.2,0,0.5-0.1,0.5-0.2c0-0.2-0.2-0.2-0.3-0.2
							v0.2h-0.2L206.4,119.5L206.4,119.5z"/>
						<path class="st51" d="M207,119.2h-1.4v-0.7h0.2v0.5h0.3v-0.4h0.2v0.4h0.3v-0.5h0.2V119.2z"/>
						<path class="st51" d="M207,117.3h-0.8c0,0-0.1,0-0.1,0v0c0,0,0,0,0.1,0l0.4,0.2v0l-0.4,0.2c0,0-0.1,0-0.1,0v0c0,0,0.1,0,0.1,0
							h0.8v0.3h-1.4v-0.3l0.4-0.2c0,0,0.1,0,0.1,0v0c0,0-0.1,0-0.1,0l-0.4-0.2v-0.3h1.4V117.3z"/>
						<path class="st51" d="M207,116.7h-1.4v-0.7h0.2v0.5h0.3V116h0.2v0.4h0.3v-0.5h0.2V116.7z"/>
						<path class="st51" d="M207,115l-0.8,0.3c0,0-0.1,0-0.1,0v0c0,0,0.1,0,0.1,0h0.8v0.2h-1.4v-0.2l0.7-0.3c0,0,0.1,0,0.1,0v0
							c0,0-0.1,0-0.1,0h-0.7v-0.2h1.4V115z"/>
						<path class="st51" d="M207,114.2h-1.1v0.2h-0.2v-0.7h0.2v0.2h1.1V114.2z"/>
					</g>
				</g>
				<g>
					<g>
						<path class="st44" d="M206.3,107c0.5,0,0.7,0.3,0.7,0.7c0,0.4-0.3,0.6-0.7,0.6c-0.4,0-0.7-0.3-0.7-0.7
							C205.6,107.2,205.9,107,206.3,107 M206.3,108c0.3,0,0.5-0.1,0.5-0.4c0-0.2-0.2-0.4-0.5-0.4c-0.3,0-0.5,0.1-0.5,0.4
							C205.8,107.9,206.1,108,206.3,108"/>
						<path class="st44" d="M205.7,106.6c0-0.1,0-0.2,0-0.4c0-0.2,0-0.3,0.1-0.4c0.1-0.1,0.2-0.1,0.3-0.1c0.1,0,0.2,0,0.3,0.1
							c0.1,0.1,0.1,0.3,0.1,0.4c0,0,0,0.1,0,0.1h0.5v0.2H205.7z M206.3,106.4c0,0,0-0.1,0-0.1c0-0.2-0.1-0.3-0.3-0.3
							c-0.2,0-0.2,0.1-0.2,0.3c0,0.1,0,0.1,0,0.1H206.3z"/>
						<polygon class="st44" points="205.9,105.1 205.9,105.5 205.7,105.5 205.7,104.5 205.9,104.5 205.9,104.8 207,104.8 207,105.1 
													"/>
						<rect x="205.7" y="103.8" class="st44" width="1.4" height="0.3"/>
						<polygon class="st44" points="205.7,103.3 205.7,102.6 205.7,102.6 205.7,103.2 206.3,103.2 206.3,102.6 206.4,102.6 
							206.4,103.2 207,103.2 207,103.3 						"/>
						<path class="st44" d="M206.5,102.1l0.5,0.2v0.1l-1.4-0.5v-0.1l1.4-0.5v0.1l-0.5,0.2V102.1z M206.5,101.6l-0.5,0.2
							c-0.1,0-0.2,0.1-0.2,0.1v0c0.1,0,0.2,0,0.2,0.1l0.5,0.2V101.6z"/>
						<path class="st44" d="M206.9,101.1c0.1-0.1,0.1-0.2,0.1-0.3c0-0.2-0.1-0.3-0.3-0.3c-0.2,0-0.2,0.1-0.3,0.3
							c-0.1,0.2-0.2,0.4-0.4,0.4c-0.2,0-0.3-0.2-0.3-0.4c0-0.1,0-0.2,0.1-0.3l0.1,0c0,0-0.1,0.1-0.1,0.2c0,0.2,0.1,0.3,0.3,0.3
							c0.2,0,0.2-0.1,0.3-0.3c0.1-0.2,0.2-0.3,0.4-0.3c0.2,0,0.4,0.1,0.4,0.4C207,100.9,207,101,206.9,101.1L206.9,101.1z"/>
						<polygon class="st44" points="205.7,99.7 205.7,100.1 205.7,100.1 205.7,99.1 205.7,99.1 205.7,99.6 207,99.6 207,99.7 						
							"/>
						<path class="st44" d="M205.6,98.8c0-0.1,0.1-0.1,0.1-0.1c0.1,0,0.1,0.1,0.1,0.1c0,0.1-0.1,0.1-0.1,0.1
							C205.7,99,205.6,98.9,205.6,98.8L205.6,98.8z M205.7,98.8c0,0.1,0.1,0.1,0.1,0.1c0.1,0,0.1,0,0.1-0.1c0-0.1-0.1-0.1-0.1-0.1
							C205.7,98.7,205.7,98.7,205.7,98.8L205.7,98.8z M205.8,98.8L205.8,98.8l-0.1,0c0,0,0,0,0-0.1c0,0,0,0,0,0c0,0,0,0,0,0
							C205.8,98.7,205.8,98.8,205.8,98.8L205.8,98.8C205.8,98.8,205.8,98.8,205.8,98.8C205.8,98.7,205.8,98.7,205.8,98.8L205.8,98.8
							C205.8,98.8,205.8,98.8,205.8,98.8C205.8,98.8,205.8,98.8,205.8,98.8L205.8,98.8L205.8,98.8z M205.8,98.8L205.8,98.8
							C205.8,98.8,205.8,98.8,205.8,98.8C205.7,98.8,205.7,98.8,205.8,98.8C205.7,98.8,205.7,98.8,205.8,98.8L205.8,98.8z"/>
					</g>
				</g>
				<g>
					<path class="st44" d="M206.9,111.5l-0.5,0c-0.1,0-0.2,0-0.2,0v0c0,0,0.1,0,0.2,0.1l0.5,0.2v0.1l-0.9,0.1V112l0.5,0
						c0.1,0,0.2,0,0.2,0v0c0,0-0.1,0-0.2-0.1l-0.5-0.2v-0.1l0.5,0c0.1,0,0.2,0,0.2,0v0c0,0-0.1,0-0.2-0.1l-0.5-0.2V111L206.9,111.5
						L206.9,111.5z"/>
					<path class="st44" d="M206.9,110.6C206.9,110.6,206.9,110.6,206.9,110.6c0,0.1-0.1,0.2-0.2,0.2c0,0-0.1,0-0.1,0l-0.4-0.1
						c0,0-0.1,0-0.1,0h0v-0.1c0,0,0,0,0,0c0,0,0.1,0,0.2,0l0.4,0.1c0,0,0,0,0.1,0C206.8,110.7,206.8,110.7,206.9,110.6
						C206.8,110.6,206.8,110.6,206.9,110.6L206.9,110.6z M205.9,110.6C205.9,110.6,205.8,110.6,205.9,110.6c-0.1,0.1-0.1,0-0.1,0
						C205.7,110.5,205.8,110.5,205.9,110.6C205.8,110.5,205.9,110.5,205.9,110.6z"/>
					<path class="st44" d="M206.9,109.9c0,0,0,0.1,0,0.1c0,0.1-0.1,0.2-0.2,0.2c0,0-0.1,0-0.1,0l-0.5-0.1v0.1l-0.1,0v-0.1l-0.2,0
						v-0.1l0.2,0v-0.2l0.1,0v0.2l0.5,0.1c0,0,0,0,0.1,0C206.7,110.1,206.8,110,206.9,109.9C206.8,109.9,206.8,109.9,206.9,109.9
						L206.9,109.9z"/>
					<path class="st44" d="M206.9,109.6l-1.2-0.3v-0.1l0.3,0.1c0.1,0,0.2,0,0.2,0v0c-0.1,0-0.1-0.1-0.1-0.2c0-0.2,0.1-0.2,0.2-0.2
						c0,0,0.1,0,0.1,0c0.1,0,0.2,0,0.3,0.1c0,0,0,0,0.1,0c0.1,0,0.1,0,0.1-0.1c0,0,0,0,0,0c0,0,0.1,0,0.1,0c0,0.1-0.1,0.2-0.2,0.2
						c-0.1,0-0.3-0.1-0.5-0.1c-0.1,0-0.2,0-0.2,0.1c0,0.2,0.1,0.2,0.3,0.3L206.9,109.6L206.9,109.6z"/>
				</g>
			</g>
		</g>
		<path class="st36" d="M197.1,176.4h-6.9c-1,0-1.8-0.8-1.9-1.8l-5.6-82.8h0l-1.4-2.6V81c0-0.3,0.1-0.5,0.3-0.7
			c0.2-0.2,0.5-0.4,0.8-0.4h0.4v-6.1c0-0.7,0.4-1.2,0.9-1.5l6.3,0.5c-0.2,0.3-0.3,0.6-0.3,1v6.1h-0.4c-0.3,0-0.6,0.1-0.8,0.4
			c-0.2,0.2-0.3,0.4-0.3,0.7v8.2l1.4,2.6h0l5.6,82.8C195.3,175.6,196.1,176.4,197.1,176.4z"/>
	</g>
	<g>
		<g>
			<g>
				<path class="st6" d="M394.5,68.1c-1.6-1.1-4.5-2-6.5-2h-10.6v0H365c-0.5,0-1,0.4-1,1c0,0.5,0.4,1,1,1h13.6v0h8.2
					c2,0,4.7,1.1,6.1,2.5l8,7.8l3.1-3.7L394.5,68.1z"/>
				<rect x="365" y="68" class="st6" width="16.6" height="1.9"/>
				<rect x="376.6" y="68" class="st35" width="5" height="1.9"/>
				<rect x="367.5" y="68" class="st36" width="4.2" height="1.9"/>
			</g>
			<path class="st37" d="M400.1,71.1c-2.7,0-4.9,2.2-4.9,4.9h9.8C405,73.3,402.8,71.1,400.1,71.1z"/>
		</g>
		<g>
			<path class="st37" d="M381.1,71.5v-1.5h-15.6v1.5c0,0.2-0.1,0.5-0.2,0.7l-0.9,1.6h17.7l-0.9-1.6C381.1,72,381.1,71.7,381.1,71.5z
				"/>
			<path class="st36" d="M370.4,71.5v-1.5h-3.7v1.5c0,0.2-0.1,0.5-0.2,0.7l-0.9,1.6h3.7l0.9-1.6C370.4,72,370.4,71.7,370.4,71.5z"/>
			<path class="st38" d="M381.2,72.2c-0.1-0.2-0.2-0.5-0.2-0.7v-1.5h-4.2v1.5c0,0.2,0.1,0.5,0.2,0.7l0.9,1.6h4.2L381.2,72.2z"/>
		</g>
		<g>
			<path class="st37" d="M407.3,76.7v3.6h-46.6v-6.4c0-1,0.8-1.7,1.8-1.6l2.2,0.2l6.3,0.5l35.3,2.7
				C406.8,75.6,407.3,76.1,407.3,76.7z"/>
			<path class="st36" d="M407.2,76.7L407.2,76.7l-46.5-3.4c0.2-0.7,0.9-1.1,1.7-1.1l2.2,0.2l6.3,0.5l35.3,2.7
				C406.8,75.6,407.2,76.1,407.2,76.7z"/>
		</g>
		<g>
			<path class="st37" d="M408.8,81v8.2h-49.5V81c0-0.6,0.5-1.1,1.1-1.1h47.3C408.3,79.9,408.8,80.4,408.8,81z"/>
			<path class="st39" d="M408.8,81L408.8,81l-49.5,0v0c0-0.6,0.5-1.1,1.1-1.1h47.3C408.3,79.9,408.8,80.4,408.8,81z"/>
		</g>
		<path class="st38" d="M396.3,81v8.2h12.5V81c0-0.6-0.5-1.1-1.1-1.1l-0.4,0v-3.2c0-0.6-0.5-1.1-1.1-1.2l-11.4-0.9v2v3.2l0.4,0
			C395.8,79.9,396.3,80.4,396.3,81z"/>
		<g>
			<path class="st40" d="M408.8,89.2l-1.4,2.6h0l-5.6,82.8c-0.1,1-0.9,1.8-1.9,1.8h-31.6c-1,0-1.8-0.8-1.9-1.8l-5.6-82.8h0l-1.4-2.6
				H408.8z"/>
			<polygon class="st41" points="359.3,89.2 360.7,91.8 407.3,91.8 408.8,89.2 			"/>
			<path class="st42" d="M401.7,174.6c-0.1,1-0.9,1.8-1.9,1.8h-31.6c-1,0-1.8-0.8-1.9-1.8H401.7z"/>
			<path class="st43" d="M394.9,91.8L394.9,91.8l-5.6,82.8c-0.1,1-0.9,1.8-1.9,1.8h12.5c1,0,1.8-0.8,1.9-1.8l5.6-82.8h0l1.4-2.6
				h-12.5L394.9,91.8z"/>
			<g>
				<path class="st44" d="M385.2,140.6h-5.6c-0.1,0-0.2-0.1-0.2-0.2v-1c0-0.1,0.1-0.2,0.2-0.2h5.6c0.1,0,0.2,0.1,0.2,0.2v1
					C385.4,140.5,385.3,140.6,385.2,140.6z"/>
				<path class="st44" d="M385.4,134.6c0,0.1,0,0.1-0.1,0.2l-2.2,1c-0.4,0.2-1,0.4-1,0.4v0c0,0,0.6,0,1.1,0h2.1
					c0.1,0,0.2,0.1,0.2,0.2v1c0,0.1-0.1,0.2-0.2,0.2h-5.7c-0.1,0-0.2-0.1-0.2-0.2v-1.2c0-0.1,0-0.1,0.1-0.2l2-0.9
					c0.4-0.2,1-0.4,1-0.4v0c0,0-0.6,0-1.1,0h-1.8c-0.1,0-0.2-0.1-0.2-0.2v-1c0-0.1,0.1-0.2,0.2-0.2h5.7c0.1,0,0.2,0.1,0.2,0.2V134.6
					z"/>
				<path class="st44" d="M385.3,131h-4.3c-0.1,0-0.2,0.1-0.2,0.2v0.5c0,0.1-0.1,0.2-0.2,0.2h-1c-0.1,0-0.2-0.1-0.2-0.2v-2.9
					c0-0.1,0.1-0.2,0.2-0.2h1c0.1,0,0.2,0.1,0.2,0.2v0.5c0,0.1,0.1,0.2,0.2,0.2h4.3c0.1,0,0.2,0.1,0.2,0.2v1.1
					C385.4,130.9,385.4,131,385.3,131z"/>
				<path class="st44" d="M385.2,127.3h-5.7c-0.1,0-0.2-0.1-0.2-0.2v-3c0-0.1,0.1-0.2,0.2-0.2h0.9c0.1,0,0.2,0.1,0.2,0.2v1.6
					c0,0.1,0.1,0.2,0.2,0.2h0.8c0.1,0,0.2-0.1,0.2-0.2v-1.2c0-0.1,0.1-0.2,0.2-0.2h0.9c0.1,0,0.2,0.1,0.2,0.2v1.2
					c0,0.1,0.1,0.2,0.2,0.2h0.6c0.1,0,0.2-0.1,0.2-0.2v-1.6c0-0.1,0.1-0.2,0.2-0.2h0.9c0.1,0,0.2,0.1,0.2,0.2v3
					C385.4,127.2,385.3,127.3,385.2,127.3z"/>
				<path class="st44" d="M385.3,120l-1.6,0.5c-0.1,0-0.1,0.1-0.1,0.2v0.1c0,0.1,0.1,0.2,0.2,0.2h1.5c0.1,0,0.2,0.1,0.2,0.2v1.1
					c0,0.1-0.1,0.2-0.2,0.2h-5.7c-0.1,0-0.2-0.1-0.2-0.2v-1.6c0-1.4,1.1-2,2.1-2c0.7,0,1.3,0.2,1.7,0.7c0,0.1,0.1,0.1,0.2,0l1.9-0.8
					c0.1,0,0.2,0,0.2,0.2v1.1C385.4,119.9,385.4,120,385.3,120z M382.3,120.6c0-0.5-0.4-0.6-0.8-0.6c-0.5,0-0.8,0.2-0.8,0.6v0.1
					c0,0.1,0.1,0.2,0.2,0.2h1.3C382.2,120.9,382.3,120.8,382.3,120.6L382.3,120.6z"/>
				<path class="st44" d="M385.4,114.9v1.4c0,0.1-0.1,0.2-0.1,0.2l-5.7,1.1c-0.1,0-0.2-0.1-0.2-0.2v-1.1c0-0.1,0.1-0.2,0.2-0.2
					l2.8-0.4c0.5-0.1,1.6-0.2,1.6-0.2v0c0,0-1.1-0.1-1.6-0.2l-2.8-0.3c-0.1,0-0.2-0.1-0.2-0.2v-1.1c0-0.1,0.1-0.2,0.2-0.2l5.7,1.1
					C385.4,114.8,385.4,114.8,385.4,114.9z"/>
				<path class="st44" d="M385.3,112.3h-5.7c-0.1,0-0.2-0.1-0.2-0.2v-3c0-0.1,0.1-0.2,0.2-0.2h1c0.1,0,0.2,0.1,0.2,0.2v1.6
					c0,0.1,0.1,0.2,0.2,0.2h0.8c0.1,0,0.2-0.1,0.2-0.2v-1.3c0-0.1,0.1-0.2,0.2-0.2h0.9c0.1,0,0.2,0.1,0.2,0.2v1.3
					c0,0.1,0.1,0.2,0.2,0.2h0.7c0.1,0,0.2-0.1,0.2-0.2v-1.6c0-0.1,0.1-0.2,0.2-0.2h1c0.1,0,0.2,0.1,0.2,0.2v3
					C385.4,112.3,385.4,112.3,385.3,112.3z"/>
				<path class="st44" d="M385.4,104.5c0,0.1,0,0.1-0.1,0.2l-2.2,1c-0.4,0.2-1,0.4-1,0.4v0c0,0,0.6,0,1.1,0h2.1
					c0.1,0,0.2,0.1,0.2,0.2v1c0,0.1-0.1,0.2-0.2,0.2h-5.7c-0.1,0-0.2-0.1-0.2-0.2V106c0-0.1,0-0.1,0.1-0.2l2-0.9
					c0.4-0.2,1-0.4,1-0.4v0c0,0-0.6,0-1.1,0h-1.8c-0.1,0-0.2-0.1-0.2-0.2v-1c0-0.1,0.1-0.2,0.2-0.2h5.7c0.1,0,0.2,0.1,0.2,0.2V104.5
					z"/>
				<path class="st44" d="M385.3,100.9h-4.4c-0.1,0-0.2,0.1-0.2,0.2v0.6c0,0.1-0.1,0.2-0.2,0.2h-1.1c-0.1,0-0.2-0.1-0.2-0.2v-2.9
					c0-0.1,0.1-0.2,0.2-0.2h1.1c0.1,0,0.2,0.1,0.2,0.2v0.6c0,0.1,0.1,0.2,0.2,0.2h4.4c0.1,0,0.2,0.1,0.2,0.2v1.1
					C385.4,100.8,385.4,100.9,385.3,100.9z"/>
			</g>
			<g>
				<path class="st45" d="M387.5,157.1l-2.5-0.9l-5,1.4c-0.5,0.1-0.7,0.6-0.6,1.1c0.1,0.5,0.6,0.7,1.1,0.6l7.6-2.1
					c0.4-0.1,0.6-0.5,0.6-0.8c0,0,0,0,0,0c0,0.1,0,0.2-0.1,0.3C388.4,157,387.9,157.2,387.5,157.1z"/>
				<path class="st45" d="M381.4,154.5c0-0.1-0.1-0.2-0.1-0.3c0,0.4,0.2,0.7,0.6,0.8l3.1,1.1l2.5-0.7c0.5-0.1,0.9,0.1,1.1,0.6
					c0,0.1,0,0.1,0,0.2c0,0,0,0,0,0c0-0.3-0.2-0.7-0.6-0.8l-3.4-1.3l-2.2,0.8C382.1,155.2,381.6,154.9,381.4,154.5z"/>
				<path class="st46" d="M387.6,155.5l-2.5,0.7l2.5,0.9c0.4,0.2,0.9-0.1,1.1-0.5c0-0.1,0.1-0.2,0.1-0.3c0-0.1,0-0.1,0-0.2
					C388.5,155.6,388,155.3,387.6,155.5z"/>
				<path class="st47" d="M388.7,152.1C388.7,152.1,388.7,152.1,388.7,152.1C388.7,152.1,388.7,152.2,388.7,152.1
					C388.7,152.2,388.7,152.2,388.7,152.1z"/>
				<path class="st45" d="M387.6,152.9l-2.6-0.7l-3.1,1.1c-0.4,0.1-0.6,0.5-0.6,0.8c0-0.1,0-0.2,0.1-0.3c0.2-0.4,0.7-0.7,1.1-0.5
					l2.2,0.8l3.4-1.3c0.3-0.1,0.5-0.4,0.6-0.7c0,0,0,0.1,0,0.1C388.5,152.8,388,153.1,387.6,152.9z"/>
				<path class="st46" d="M381.4,153.9c0,0.1-0.1,0.2-0.1,0.3c0,0.1,0,0.2,0.1,0.3c0.2,0.4,0.7,0.7,1.1,0.5l2.2-0.8l-2.2-0.8
					C382.1,153.2,381.6,153.5,381.4,153.9z"/>
				<path class="st47" d="M388.7,152.2C388.7,152.2,388.7,152.2,388.7,152.2C388.7,152.2,388.7,152.2,388.7,152.2z"/>
				<path class="st45" d="M379.4,150.3c0-0.1-0.1-0.2-0.1-0.3c0,0.4,0.3,0.7,0.6,0.8l5,1.4l2.5-0.9c0.4-0.2,0.9,0.1,1.1,0.5
					c0,0.1,0.1,0.2,0.1,0.3c0,0,0,0,0,0c0-0.4-0.3-0.7-0.6-0.8l-5-1.4l-2.5,0.9C380.1,151,379.6,150.8,379.4,150.3z"/>
				<path class="st46" d="M387.5,151.3l-2.5,0.9l2.6,0.7c0.5,0.1,0.9-0.1,1.1-0.6c0,0,0-0.1,0-0.1c0,0,0,0,0,0c0,0,0-0.1,0-0.1
					c0-0.1,0-0.2-0.1-0.3C388.4,151.4,387.9,151.2,387.5,151.3z"/>
				<path class="st48" d="M385.5,148.8l-2.1-0.8l-3.4,1.3c-0.4,0.1-0.6,0.5-0.6,0.8c0-0.1,0-0.2,0-0.2c0.1-0.5,0.6-0.7,1.1-0.6
					l2.6,0.7l3.1-1.1c0.3-0.1,0.5-0.4,0.6-0.7c0,0.1,0,0.1,0,0.2C386.5,148.7,386,148.9,385.5,148.8z"/>
				<path class="st49" d="M386.7,148C386.7,148,386.7,148,386.7,148C386.7,148,386.7,148,386.7,148C386.7,148,386.7,148,386.7,148z"
					/>
				<path class="st49" d="M386.7,147.9C386.7,147.9,386.7,147.9,386.7,147.9C386.7,147.9,386.7,147.9,386.7,147.9z"/>
				<path class="st50" d="M379.4,149.8c0,0.1,0,0.2,0,0.2c0,0.1,0,0.2,0.1,0.3c0.2,0.4,0.7,0.7,1.1,0.5l2.5-0.9l-2.6-0.7
					C380,149.1,379.5,149.4,379.4,149.8z"/>
				<path class="st48" d="M387.6,143L380,145c-0.4,0.1-0.6,0.4-0.6,0.8c0-0.1,0-0.2,0.1-0.3c0.2-0.4,0.7-0.7,1.1-0.5l2.5,0.9l5-1.4
					c0.4-0.1,0.6-0.5,0.6-0.8c0-0.1,0-0.2,0-0.2C388.5,143.1,388,142.9,387.6,143z"/>
				<path class="st49" d="M386.7,148C386.7,147.9,386.7,147.9,386.7,148C386.7,147.9,386.7,148,386.7,148
					C386.7,148,386.7,148,386.7,148z"/>
				<path class="st48" d="M379.4,146.1c0-0.1,0-0.2,0-0.2c0,0.4,0.2,0.7,0.6,0.8l3.4,1.3l2.1-0.8c0.4-0.2,0.9,0.1,1.1,0.5
					c0,0.1,0,0.1,0,0.2c0-0.3-0.2-0.6-0.6-0.7L383,146l-2.5,0.7C380,146.8,379.5,146.5,379.4,146.1z"/>
				<path class="st49" d="M386.7,148C386.7,148,386.7,148,386.7,148C386.7,148,386.7,148,386.7,148z"/>
				<path class="st50" d="M385.5,147.2l-2.1,0.8l2.1,0.8c0.4,0.2,0.9-0.1,1.1-0.5c0-0.1,0-0.1,0-0.2c0,0,0,0,0,0c0,0,0,0,0,0
					c0,0,0,0,0,0c0,0,0,0,0,0c0-0.1,0-0.1,0-0.2C386.5,147.2,386,147,385.5,147.2z"/>
				<path class="st50" d="M379.4,145.6c0,0.1,0,0.2-0.1,0.3c0,0.1,0,0.2,0,0.2c0.1,0.5,0.6,0.7,1.1,0.6l2.5-0.7l-2.5-0.9
					C380.1,144.9,379.6,145.2,379.4,145.6z"/>
			</g>
			<g>
				<g>
					<path class="st51" d="M388.1,139.7h-0.8c0,0-0.1,0-0.1,0v0c0,0,0,0,0.1,0l0.4,0.2v0l-0.4,0.2c0,0-0.1,0-0.1,0v0
						c0,0,0.1,0,0.1,0h0.8v0.3h-1.4v-0.3l0.4-0.2c0,0,0.1,0,0.1,0v0c0,0-0.1,0-0.1,0l-0.4-0.2v-0.3h1.4V139.7z"/>
					<path class="st51" d="M388.1,139h-1.4v-0.7h0.2v0.5h0.3v-0.4h0.2v0.4h0.3v-0.5h0.2V139z"/>
					<path class="st51" d="M388.1,137.9h-1.4v-0.4c0-0.4,0.3-0.5,0.7-0.5c0.4,0,0.7,0.1,0.7,0.5V137.9z M387.8,137.6
						c0-0.2-0.2-0.2-0.4-0.2c-0.2,0-0.4,0.1-0.4,0.2v0.1L387.8,137.6L387.8,137.6z"/>
					<path class="st51" d="M388.1,136.8h-1.4v-0.3h1.4V136.8z"/>
					<path class="st51" d="M387.8,135.3c0.2,0.1,0.3,0.2,0.3,0.4c0,0.4-0.3,0.5-0.7,0.5c-0.4,0-0.7-0.1-0.7-0.5
						c0-0.2,0.1-0.3,0.3-0.4l0.1,0.2c-0.1,0-0.2,0.1-0.2,0.2c0,0.2,0.2,0.2,0.5,0.2c0.2,0,0.5-0.1,0.5-0.2c0-0.1-0.1-0.2-0.2-0.2
						L387.8,135.3z"/>
					<path class="st51" d="M388.1,134.5l-0.2,0v0.3l0.2,0v0.3l-1.4-0.3v-0.3l1.4-0.3V134.5z M387.2,134.7c0,0-0.1,0-0.1,0v0
						C387.1,134.7,387.1,134.7,387.2,134.7l0.4,0.1v-0.2L387.2,134.7z"/>
					<path class="st51" d="M388.1,134h-1.4v-0.3h1.1v-0.4h0.2V134z"/>
				</g>
				<g>
					<path class="st51" d="M388.1,131.4v0.3l-0.7,0.1c-0.1,0-0.2,0-0.2,0v0c0,0,0.1,0,0.2,0l0.7,0.1v0.3l-1.4,0.3v-0.3l0.8-0.1
						c0.1,0,0.2,0,0.2,0v0c0,0-0.1,0-0.2,0l-0.8-0.2v-0.3l0.8-0.2c0.1,0,0.2,0,0.2,0v0c0,0-0.1,0-0.2,0l-0.8-0.1v-0.3L388.1,131.4z"
						/>
					<path class="st51" d="M388.1,130.8h-1.4v-0.7h0.2v0.5h0.3v-0.4h0.2v0.4h0.3v-0.5h0.2V130.8z"/>
					<path class="st51" d="M388.1,129.7h-1.4v-0.3h1.4V129.7z"/>
					<path class="st51" d="M387.4,128.2c0.4,0,0.7,0.1,0.7,0.5c0,0.4-0.3,0.5-0.7,0.5c-0.4,0-0.7-0.1-0.7-0.5c0-0.2,0.1-0.3,0.3-0.4
						l0.1,0.2c-0.1,0-0.2,0.1-0.2,0.2c0,0.2,0.2,0.2,0.5,0.2c0.2,0,0.5-0.1,0.5-0.2c0-0.2-0.2-0.2-0.3-0.2v0.2h-0.2L387.4,128.2
						L387.4,128.2z"/>
					<path class="st51" d="M388.1,127.3h-0.5v0.4h0.5v0.3h-1.4v-0.3h0.6v-0.4h-0.6v-0.3h1.4V127.3z"/>
					<path class="st51" d="M388.1,126.5h-1.1v0.2h-0.2V126h0.2v0.2h1.1V126.5z"/>
				</g>
				<g>
					<g>
						<path class="st51" d="M387,113.3h-0.5v0.1h-0.1v-0.3h0.1v0.1L387,113.3L387,113.3z"/>
						<path class="st51" d="M387,112.7h-0.3c0,0-0.1,0-0.1,0v0c0,0,0,0,0,0l0.2,0.1v0l-0.2,0.1c0,0,0,0,0,0v0c0,0,0,0,0.1,0h0.3v0.1
							h-0.5V113l0.2-0.1c0,0,0,0,0,0v0c0,0,0,0,0,0l-0.2-0.1v-0.1L387,112.7L387,112.7z"/>
					</g>
					<g>
						<path class="st51" d="M388.1,124.4h-0.8c0,0-0.1,0-0.1,0v0c0,0,0,0,0.1,0l0.4,0.2v0l-0.4,0.2c0,0-0.1,0-0.1,0v0
							c0,0,0.1,0,0.1,0h0.8v0.3h-1.4v-0.3l0.4-0.2c0,0,0.1,0,0.1,0v0c0,0-0.1,0-0.1,0l-0.4-0.2v-0.3h1.4V124.4z"/>
						<path class="st51" d="M388.1,123.2l-0.2,0v0.3l0.2,0v0.3l-1.4-0.3v-0.3l1.4-0.3V123.2z M387.2,123.4c0,0-0.1,0-0.1,0v0
							C387.1,123.4,387.1,123.4,387.2,123.4l0.4,0.1v-0.2L387.2,123.4z"/>
						<path class="st51" d="M388.1,122l-0.8,0.3c0,0-0.1,0-0.1,0v0c0,0,0.1,0,0.1,0h0.8v0.2h-1.4v-0.2l0.7-0.3c0,0,0.1,0,0.1,0v0
							c0,0-0.1,0-0.1,0h-0.7v-0.2h1.4V122z"/>
						<path class="st51" d="M388.1,120.9l-0.2,0v0.3l0.2,0v0.3l-1.4-0.3v-0.3l1.4-0.3V120.9z M387.2,121.1c0,0-0.1,0-0.1,0v0
							C387.1,121.1,387.1,121.1,387.2,121.1l0.4,0.1V121L387.2,121.1z"/>
						<path class="st51" d="M387.4,119.5c0.4,0,0.7,0.1,0.7,0.5c0,0.4-0.3,0.5-0.7,0.5c-0.4,0-0.7-0.1-0.7-0.5
							c0-0.2,0.1-0.3,0.3-0.4l0.1,0.2c-0.1,0-0.2,0.1-0.2,0.2c0,0.2,0.2,0.2,0.5,0.2c0.2,0,0.5-0.1,0.5-0.2c0-0.2-0.2-0.2-0.3-0.2
							v0.2h-0.2L387.4,119.5L387.4,119.5z"/>
						<path class="st51" d="M388.1,119.2h-1.4v-0.7h0.2v0.5h0.3v-0.4h0.2v0.4h0.3v-0.5h0.2V119.2z"/>
						<path class="st51" d="M388.1,117.3h-0.8c0,0-0.1,0-0.1,0v0c0,0,0,0,0.1,0l0.4,0.2v0l-0.4,0.2c0,0-0.1,0-0.1,0v0
							c0,0,0.1,0,0.1,0h0.8v0.3h-1.4v-0.3l0.4-0.2c0,0,0.1,0,0.1,0v0c0,0-0.1,0-0.1,0l-0.4-0.2v-0.3h1.4V117.3z"/>
						<path class="st51" d="M388.1,116.7h-1.4v-0.7h0.2v0.5h0.3V116h0.2v0.4h0.3v-0.5h0.2V116.7z"/>
						<path class="st51" d="M388.1,115l-0.8,0.3c0,0-0.1,0-0.1,0v0c0,0,0.1,0,0.1,0h0.8v0.2h-1.4v-0.2l0.7-0.3c0,0,0.1,0,0.1,0v0
							c0,0-0.1,0-0.1,0h-0.7v-0.2h1.4V115z"/>
						<path class="st51" d="M388.1,114.2h-1.1v0.2h-0.2v-0.7h0.2v0.2h1.1V114.2z"/>
					</g>
				</g>
				<g>
					<g>
						<path class="st44" d="M387.4,107c0.5,0,0.7,0.3,0.7,0.7c0,0.4-0.3,0.6-0.7,0.6c-0.4,0-0.7-0.3-0.7-0.7
							C386.7,107.2,387,107,387.4,107 M387.4,108c0.3,0,0.5-0.1,0.5-0.4c0-0.2-0.2-0.4-0.5-0.4c-0.3,0-0.5,0.1-0.5,0.4
							C386.9,107.9,387.1,108,387.4,108"/>
						<path class="st44" d="M386.7,106.6c0-0.1,0-0.2,0-0.4c0-0.2,0-0.3,0.1-0.4c0.1-0.1,0.2-0.1,0.3-0.1c0.1,0,0.2,0,0.3,0.1
							c0.1,0.1,0.1,0.3,0.1,0.4c0,0,0,0.1,0,0.1h0.5v0.2H386.7z M387.4,106.4c0,0,0-0.1,0-0.1c0-0.2-0.1-0.3-0.3-0.3
							c-0.2,0-0.2,0.1-0.2,0.3c0,0.1,0,0.1,0,0.1H387.4z"/>
						<polygon class="st44" points="386.9,105.1 386.9,105.5 386.7,105.5 386.7,104.5 386.9,104.5 386.9,104.8 388.1,104.8 
							388.1,105.1 						"/>
						<rect x="386.7" y="103.8" class="st44" width="1.4" height="0.3"/>
						<polygon class="st44" points="386.7,103.3 386.7,102.6 386.8,102.6 386.8,103.2 387.3,103.2 387.3,102.6 387.4,102.6 
							387.4,103.2 388.1,103.2 388.1,103.3 						"/>
						<path class="st44" d="M387.6,102.1l0.5,0.2v0.1l-1.4-0.5v-0.1l1.4-0.5v0.1l-0.5,0.2V102.1z M387.5,101.6l-0.5,0.2
							c-0.1,0-0.2,0.1-0.2,0.1v0c0.1,0,0.2,0,0.2,0.1l0.5,0.2V101.6z"/>
						<path class="st44" d="M387.9,101.1c0.1-0.1,0.1-0.2,0.1-0.3c0-0.2-0.1-0.3-0.3-0.3c-0.2,0-0.2,0.1-0.3,0.3
							c-0.1,0.2-0.2,0.4-0.4,0.4c-0.2,0-0.3-0.2-0.3-0.4c0-0.1,0-0.2,0.1-0.3l0.1,0c0,0-0.1,0.1-0.1,0.2c0,0.2,0.1,0.3,0.3,0.3
							c0.2,0,0.2-0.1,0.3-0.3c0.1-0.2,0.2-0.3,0.4-0.3c0.2,0,0.4,0.1,0.4,0.4C388.1,100.9,388,101,387.9,101.1L387.9,101.1z"/>
						<polygon class="st44" points="386.8,99.7 386.8,100.1 386.7,100.1 386.7,99.1 386.8,99.1 386.8,99.6 388.1,99.6 388.1,99.7 
													"/>
						<path class="st44" d="M386.7,98.8c0-0.1,0.1-0.1,0.1-0.1c0.1,0,0.1,0.1,0.1,0.1c0,0.1-0.1,0.1-0.1,0.1
							C386.7,99,386.7,98.9,386.7,98.8L386.7,98.8z M386.7,98.8c0,0.1,0.1,0.1,0.1,0.1c0.1,0,0.1,0,0.1-0.1c0-0.1-0.1-0.1-0.1-0.1
							S386.7,98.7,386.7,98.8L386.7,98.8z M386.9,98.8L386.9,98.8l-0.1,0c0,0,0,0,0-0.1c0,0,0,0,0,0c0,0,0,0,0,0
							C386.8,98.7,386.8,98.8,386.9,98.8L386.9,98.8C386.8,98.8,386.8,98.8,386.9,98.8C386.9,98.7,386.9,98.7,386.9,98.8L386.9,98.8
							C386.9,98.8,386.9,98.8,386.9,98.8C386.8,98.8,386.8,98.8,386.9,98.8L386.9,98.8L386.9,98.8z M386.8,98.8L386.8,98.8
							C386.8,98.8,386.8,98.8,386.8,98.8C386.8,98.8,386.8,98.8,386.8,98.8C386.8,98.8,386.8,98.8,386.8,98.8L386.8,98.8z"/>
					</g>
				</g>
				<g>
					<path class="st44" d="M387.9,111.5l-0.5,0c-0.1,0-0.2,0-0.2,0v0c0,0,0.1,0,0.2,0.1l0.5,0.2v0.1l-0.9,0.1V112l0.5,0
						c0.1,0,0.2,0,0.2,0v0c0,0-0.1,0-0.2-0.1l-0.5-0.2v-0.1l0.5,0c0.1,0,0.2,0,0.2,0v0c0,0-0.1,0-0.2-0.1l-0.5-0.2V111L387.9,111.5
						L387.9,111.5z"/>
					<path class="st44" d="M387.9,110.6C387.9,110.6,387.9,110.6,387.9,110.6c0,0.1-0.1,0.2-0.2,0.2c0,0-0.1,0-0.1,0l-0.4-0.1
						c0,0-0.1,0-0.1,0h0v-0.1c0,0,0,0,0,0c0,0,0.1,0,0.2,0l0.4,0.1c0,0,0,0,0.1,0C387.8,110.7,387.8,110.7,387.9,110.6
						C387.8,110.6,387.8,110.6,387.9,110.6L387.9,110.6z M386.9,110.6C386.9,110.6,386.9,110.6,386.9,110.6c-0.1,0.1-0.1,0-0.1,0
						C386.8,110.5,386.8,110.5,386.9,110.6C386.9,110.5,386.9,110.5,386.9,110.6z"/>
					<path class="st44" d="M387.9,109.9c0,0,0,0.1,0,0.1c0,0.1-0.1,0.2-0.2,0.2c0,0-0.1,0-0.1,0l-0.5-0.1v0.1l-0.1,0v-0.1l-0.2,0
						v-0.1l0.2,0v-0.2l0.1,0v0.2l0.5,0.1c0,0,0,0,0.1,0C387.8,110.1,387.8,110,387.9,109.9C387.8,109.9,387.8,109.9,387.9,109.9
						L387.9,109.9z"/>
					<path class="st44" d="M387.9,109.6l-1.2-0.3v-0.1l0.3,0.1c0.1,0,0.2,0,0.2,0v0c-0.1,0-0.1-0.1-0.1-0.2c0-0.2,0.1-0.2,0.2-0.2
						c0,0,0.1,0,0.1,0c0.1,0,0.2,0,0.3,0.1c0,0,0,0,0.1,0c0.1,0,0.1,0,0.1-0.1c0,0,0,0,0,0c0,0,0.1,0,0.1,0c0,0.1-0.1,0.2-0.2,0.2
						c-0.1,0-0.3-0.1-0.5-0.1c-0.1,0-0.2,0-0.2,0.1c0,0.2,0.1,0.2,0.3,0.3L387.9,109.6L387.9,109.6z"/>
				</g>
			</g>
		</g>
		<path class="st36" d="M378.2,176.4h-6.9c-1,0-1.8-0.8-1.9-1.8l-5.6-82.8h0l-1.4-2.6V81c0-0.3,0.1-0.5,0.3-0.7
			c0.2-0.2,0.5-0.4,0.8-0.4h0.4v-6.1c0-0.7,0.4-1.2,0.9-1.5l6.3,0.5c-0.2,0.3-0.3,0.6-0.3,1v6.1h-0.4c-0.3,0-0.6,0.1-0.8,0.4
			c-0.2,0.2-0.3,0.4-0.3,0.7v8.2l1.4,2.6h0l5.6,82.8C376.3,175.6,377.2,176.4,378.2,176.4z"/>
	</g>
	<g>
		<g>
			<g>
				<path class="st6" d="M561.9,68.1c-1.6-1.1-4.5-2-6.5-2h-10.6v0h-12.4c-0.5,0-1,0.4-1,1c0,0.5,0.4,1,1,1H546v0h8.2
					c2,0,4.7,1.1,6.1,2.5l8,7.8l3.1-3.7L561.9,68.1z"/>
				<rect x="532.3" y="68" class="st6" width="16.6" height="1.9"/>
				<rect x="543.9" y="68" class="st35" width="5" height="1.9"/>
				<rect x="534.9" y="68" class="st36" width="4.2" height="1.9"/>
			</g>
			<path class="st37" d="M567.5,71.1c-2.7,0-4.9,2.2-4.9,4.9h9.8C572.4,73.3,570.2,71.1,567.5,71.1z"/>
		</g>
		<g>
			<path class="st37" d="M548.4,71.5v-1.5h-15.6v1.5c0,0.2-0.1,0.5-0.2,0.7l-0.9,1.6h17.7l-0.9-1.6C548.5,72,548.4,71.7,548.4,71.5z
				"/>
			<path class="st36" d="M537.8,71.5v-1.5h-3.7v1.5c0,0.2-0.1,0.5-0.2,0.7l-0.9,1.6h3.7l0.9-1.6C537.7,72,537.8,71.7,537.8,71.5z"/>
			<path class="st38" d="M548.6,72.2c-0.1-0.2-0.2-0.5-0.2-0.7v-1.5h-4.2v1.5c0,0.2,0.1,0.5,0.2,0.7l0.9,1.6h4.2L548.6,72.2z"/>
		</g>
		<g>
			<path class="st37" d="M574.7,76.7v3.6h-46.6v-6.4c0-1,0.8-1.7,1.8-1.6l2.2,0.2l6.3,0.5l35.3,2.7
				C574.2,75.6,574.7,76.1,574.7,76.7z"/>
			<path class="st36" d="M574.6,76.7L574.6,76.7l-46.5-3.4c0.2-0.7,0.9-1.1,1.7-1.1l2.2,0.2l6.3,0.5l35.3,2.7
				C574.1,75.6,574.6,76.1,574.6,76.7z"/>
		</g>
		<g>
			<path class="st37" d="M576.1,81v8.2h-49.5V81c0-0.6,0.5-1.1,1.1-1.1h47.3C575.7,79.9,576.1,80.4,576.1,81z"/>
			<path class="st39" d="M576.1,81L576.1,81l-49.5,0v0c0-0.6,0.5-1.1,1.1-1.1h47.3C575.7,79.9,576.1,80.4,576.1,81z"/>
		</g>
		<path class="st38" d="M563.6,81v8.2h12.5V81c0-0.6-0.5-1.1-1.1-1.1l-0.4,0v-3.2c0-0.6-0.5-1.1-1.1-1.2l-11.4-0.9v2v3.2l0.4,0
			C563.2,79.9,563.6,80.4,563.6,81z"/>
		<g>
			<path class="st40" d="M576.1,89.2l-1.4,2.6h0l-5.6,82.8c-0.1,1-0.9,1.8-1.9,1.8h-31.6c-1,0-1.8-0.8-1.9-1.8l-5.6-82.8h0l-1.4-2.6
				H576.1z"/>
			<polygon class="st41" points="526.7,89.2 528.1,91.8 574.7,91.8 576.1,89.2 			"/>
			<path class="st42" d="M569.1,174.6c-0.1,1-0.9,1.8-1.9,1.8h-31.6c-1,0-1.8-0.8-1.9-1.8H569.1z"/>
			<path class="st43" d="M562.2,91.8L562.2,91.8l-5.6,82.8c-0.1,1-0.9,1.8-1.9,1.8h12.5c1,0,1.8-0.8,1.9-1.8l5.6-82.8h0l1.4-2.6
				h-12.5L562.2,91.8z"/>
			<g>
				<path class="st44" d="M552.6,140.6h-5.6c-0.1,0-0.2-0.1-0.2-0.2v-1c0-0.1,0.1-0.2,0.2-0.2h5.6c0.1,0,0.2,0.1,0.2,0.2v1
					C552.8,140.5,552.7,140.6,552.6,140.6z"/>
				<path class="st44" d="M552.8,134.6c0,0.1,0,0.1-0.1,0.2l-2.2,1c-0.4,0.2-1,0.4-1,0.4v0c0,0,0.6,0,1.1,0h2.1
					c0.1,0,0.2,0.1,0.2,0.2v1c0,0.1-0.1,0.2-0.2,0.2h-5.7c-0.1,0-0.2-0.1-0.2-0.2v-1.2c0-0.1,0-0.1,0.1-0.2l2-0.9
					c0.4-0.2,1-0.4,1-0.4v0c0,0-0.6,0-1.1,0h-1.8c-0.1,0-0.2-0.1-0.2-0.2v-1c0-0.1,0.1-0.2,0.2-0.2h5.7c0.1,0,0.2,0.1,0.2,0.2V134.6
					z"/>
				<path class="st44" d="M552.6,131h-4.3c-0.1,0-0.2,0.1-0.2,0.2v0.5c0,0.1-0.1,0.2-0.2,0.2h-1c-0.1,0-0.2-0.1-0.2-0.2v-2.9
					c0-0.1,0.1-0.2,0.2-0.2h1c0.1,0,0.2,0.1,0.2,0.2v0.5c0,0.1,0.1,0.2,0.2,0.2h4.3c0.1,0,0.2,0.1,0.2,0.2v1.1
					C552.8,130.9,552.7,131,552.6,131z"/>
				<path class="st44" d="M552.6,127.3h-5.7c-0.1,0-0.2-0.1-0.2-0.2v-3c0-0.1,0.1-0.2,0.2-0.2h0.9c0.1,0,0.2,0.1,0.2,0.2v1.6
					c0,0.1,0.1,0.2,0.2,0.2h0.8c0.1,0,0.2-0.1,0.2-0.2v-1.2c0-0.1,0.1-0.2,0.2-0.2h0.9c0.1,0,0.2,0.1,0.2,0.2v1.2
					c0,0.1,0.1,0.2,0.2,0.2h0.6c0.1,0,0.2-0.1,0.2-0.2v-1.6c0-0.1,0.1-0.2,0.2-0.2h0.9c0.1,0,0.2,0.1,0.2,0.2v3
					C552.8,127.2,552.7,127.3,552.6,127.3z"/>
				<path class="st44" d="M552.7,120l-1.6,0.5c-0.1,0-0.1,0.1-0.1,0.2v0.1c0,0.1,0.1,0.2,0.2,0.2h1.5c0.1,0,0.2,0.1,0.2,0.2v1.1
					c0,0.1-0.1,0.2-0.2,0.2h-5.7c-0.1,0-0.2-0.1-0.2-0.2v-1.6c0-1.4,1.1-2,2.1-2c0.7,0,1.3,0.2,1.7,0.7c0,0.1,0.1,0.1,0.2,0l1.9-0.8
					c0.1,0,0.2,0,0.2,0.2v1.1C552.8,119.9,552.7,120,552.7,120z M549.6,120.6c0-0.5-0.4-0.6-0.8-0.6c-0.5,0-0.8,0.2-0.8,0.6v0.1
					c0,0.1,0.1,0.2,0.2,0.2h1.3C549.6,120.9,549.6,120.8,549.6,120.6L549.6,120.6z"/>
				<path class="st44" d="M552.8,114.9v1.4c0,0.1-0.1,0.2-0.1,0.2l-5.7,1.1c-0.1,0-0.2-0.1-0.2-0.2v-1.1c0-0.1,0.1-0.2,0.2-0.2
					l2.8-0.4c0.5-0.1,1.6-0.2,1.6-0.2v0c0,0-1.1-0.1-1.6-0.2l-2.8-0.3c-0.1,0-0.2-0.1-0.2-0.2v-1.1c0-0.1,0.1-0.2,0.2-0.2l5.7,1.1
					C552.7,114.8,552.8,114.8,552.8,114.9z"/>
				<path class="st44" d="M552.6,112.3h-5.7c-0.1,0-0.2-0.1-0.2-0.2v-3c0-0.1,0.1-0.2,0.2-0.2h1c0.1,0,0.2,0.1,0.2,0.2v1.6
					c0,0.1,0.1,0.2,0.2,0.2h0.8c0.1,0,0.2-0.1,0.2-0.2v-1.3c0-0.1,0.1-0.2,0.2-0.2h0.9c0.1,0,0.2,0.1,0.2,0.2v1.3
					c0,0.1,0.1,0.2,0.2,0.2h0.7c0.1,0,0.2-0.1,0.2-0.2v-1.6c0-0.1,0.1-0.2,0.2-0.2h1c0.1,0,0.2,0.1,0.2,0.2v3
					C552.8,112.3,552.7,112.3,552.6,112.3z"/>
				<path class="st44" d="M552.8,104.5c0,0.1,0,0.1-0.1,0.2l-2.2,1c-0.4,0.2-1,0.4-1,0.4v0c0,0,0.6,0,1.1,0h2.1
					c0.1,0,0.2,0.1,0.2,0.2v1c0,0.1-0.1,0.2-0.2,0.2h-5.7c-0.1,0-0.2-0.1-0.2-0.2V106c0-0.1,0-0.1,0.1-0.2l2-0.9
					c0.4-0.2,1-0.4,1-0.4v0c0,0-0.6,0-1.1,0h-1.8c-0.1,0-0.2-0.1-0.2-0.2v-1c0-0.1,0.1-0.2,0.2-0.2h5.7c0.1,0,0.2,0.1,0.2,0.2V104.5
					z"/>
				<path class="st44" d="M552.6,100.9h-4.4c-0.1,0-0.2,0.1-0.2,0.2v0.6c0,0.1-0.1,0.2-0.2,0.2h-1.1c-0.1,0-0.2-0.1-0.2-0.2v-2.9
					c0-0.1,0.1-0.2,0.2-0.2h1.1c0.1,0,0.2,0.1,0.2,0.2v0.6c0,0.1,0.1,0.2,0.2,0.2h4.4c0.1,0,0.2,0.1,0.2,0.2v1.1
					C552.8,100.8,552.7,100.9,552.6,100.9z"/>
			</g>
			<g>
				<path class="st45" d="M554.9,157.1l-2.5-0.9l-5,1.4c-0.5,0.1-0.7,0.6-0.6,1.1c0.1,0.5,0.6,0.7,1.1,0.6l7.6-2.1
					c0.4-0.1,0.6-0.5,0.6-0.8c0,0,0,0,0,0c0,0.1,0,0.2-0.1,0.3C555.8,157,555.3,157.2,554.9,157.1z"/>
				<path class="st45" d="M548.8,154.5c0-0.1-0.1-0.2-0.1-0.3c0,0.4,0.2,0.7,0.6,0.8l3.1,1.1l2.5-0.7c0.5-0.1,0.9,0.1,1.1,0.6
					c0,0.1,0,0.1,0,0.2c0,0,0,0,0,0c0-0.3-0.2-0.7-0.6-0.8l-3.4-1.3l-2.2,0.8C549.4,155.2,549,154.9,548.8,154.5z"/>
				<path class="st46" d="M554.9,155.5l-2.5,0.7l2.5,0.9c0.4,0.2,0.9-0.1,1.1-0.5c0-0.1,0.1-0.2,0.1-0.3c0-0.1,0-0.1,0-0.2
					C555.9,155.6,555.4,155.3,554.9,155.5z"/>
				<path class="st47" d="M556,152.1C556,152.1,556,152.1,556,152.1C556,152.1,556,152.2,556,152.1C556,152.2,556,152.2,556,152.1z"
					/>
				<path class="st45" d="M554.9,152.9l-2.6-0.7l-3.1,1.1c-0.4,0.1-0.6,0.5-0.6,0.8c0-0.1,0-0.2,0.1-0.3c0.2-0.4,0.7-0.7,1.1-0.5
					l2.2,0.8l3.4-1.3c0.3-0.1,0.5-0.4,0.6-0.7c0,0,0,0.1,0,0.1C555.9,152.8,555.4,153.1,554.9,152.9z"/>
				<path class="st46" d="M548.8,153.9c0,0.1-0.1,0.2-0.1,0.3c0,0.1,0,0.2,0.1,0.3c0.2,0.4,0.7,0.7,1.1,0.5l2.2-0.8l-2.2-0.8
					C549.4,153.2,549,153.5,548.8,153.9z"/>
				<path class="st47" d="M556,152.2C556,152.2,556,152.2,556,152.2C556,152.2,556,152.2,556,152.2z"/>
				<path class="st45" d="M546.8,150.3c0-0.1-0.1-0.2-0.1-0.3c0,0.4,0.3,0.7,0.6,0.8l5,1.4l2.5-0.9c0.4-0.2,0.9,0.1,1.1,0.5
					c0,0.1,0.1,0.2,0.1,0.3c0,0,0,0,0,0c0-0.4-0.3-0.7-0.6-0.8l-5-1.4l-2.5,0.9C547.5,151,547,150.8,546.8,150.3z"/>
				<path class="st46" d="M554.9,151.3l-2.5,0.9l2.6,0.7c0.5,0.1,0.9-0.1,1.1-0.6c0,0,0-0.1,0-0.1c0,0,0,0,0,0c0,0,0-0.1,0-0.1
					c0-0.1,0-0.2-0.1-0.3C555.8,151.4,555.3,151.2,554.9,151.3z"/>
				<path class="st48" d="M552.9,148.8l-2.1-0.8l-3.4,1.3c-0.4,0.1-0.6,0.5-0.6,0.8c0-0.1,0-0.2,0-0.2c0.1-0.5,0.6-0.7,1.1-0.6
					l2.6,0.7l3.1-1.1c0.3-0.1,0.5-0.4,0.6-0.7c0,0.1,0,0.1,0,0.2C553.8,148.7,553.3,148.9,552.9,148.8z"/>
				<path class="st49" d="M554,148C554,148,554,148,554,148C554,148,554,148,554,148C554,148,554,148,554,148z"/>
				<path class="st49" d="M554,147.9C554,147.9,554,147.9,554,147.9C554,147.9,554,147.9,554,147.9z"/>
				<path class="st50" d="M546.8,149.8c0,0.1,0,0.2,0,0.2c0,0.1,0,0.2,0.1,0.3c0.2,0.4,0.7,0.7,1.1,0.5l2.5-0.9l-2.6-0.7
					C547.4,149.1,546.9,149.4,546.8,149.8z"/>
				<path class="st48" d="M554.9,143l-7.6,2.1c-0.4,0.1-0.6,0.4-0.6,0.8c0-0.1,0-0.2,0.1-0.3c0.2-0.4,0.7-0.7,1.1-0.5l2.5,0.9l5-1.4
					c0.4-0.1,0.6-0.5,0.6-0.8c0-0.1,0-0.2,0-0.2C555.9,143.1,555.4,142.9,554.9,143z"/>
				<path class="st49" d="M554,148C554,147.9,554,147.9,554,148C554,147.9,554,148,554,148C554,148,554,148,554,148z"/>
				<path class="st48" d="M546.8,146.1c0-0.1,0-0.2,0-0.2c0,0.4,0.2,0.7,0.6,0.8l3.4,1.3l2.1-0.8c0.4-0.2,0.9,0.1,1.1,0.5
					c0,0.1,0,0.1,0,0.2c0-0.3-0.2-0.6-0.6-0.7l-3.1-1.1l-2.5,0.7C547.4,146.8,546.9,146.5,546.8,146.1z"/>
				<path class="st49" d="M554,148C554,148,554,148,554,148C554,148,554,148,554,148z"/>
				<path class="st50" d="M552.9,147.2l-2.1,0.8l2.1,0.8c0.4,0.2,0.9-0.1,1.1-0.5c0-0.1,0-0.1,0-0.2c0,0,0,0,0,0c0,0,0,0,0,0
					c0,0,0,0,0,0c0,0,0,0,0,0c0-0.1,0-0.1,0-0.2C553.8,147.2,553.3,147,552.9,147.2z"/>
				<path class="st50" d="M546.8,145.6c0,0.1,0,0.2-0.1,0.3c0,0.1,0,0.2,0,0.2c0.1,0.5,0.6,0.7,1.1,0.6l2.5-0.7l-2.5-0.9
					C547.5,144.9,547,145.2,546.8,145.6z"/>
			</g>
			<g>
				<g>
					<path class="st51" d="M555.4,139.7h-0.8c0,0-0.1,0-0.1,0v0c0,0,0,0,0.1,0l0.4,0.2v0l-0.4,0.2c0,0-0.1,0-0.1,0v0
						c0,0,0.1,0,0.1,0h0.8v0.3h-1.4v-0.3l0.4-0.2c0,0,0.1,0,0.1,0v0c0,0-0.1,0-0.1,0l-0.4-0.2v-0.3h1.4V139.7z"/>
					<path class="st51" d="M555.4,139h-1.4v-0.7h0.2v0.5h0.3v-0.4h0.2v0.4h0.3v-0.5h0.2V139z"/>
					<path class="st51" d="M555.4,137.9h-1.4v-0.4c0-0.4,0.3-0.5,0.7-0.5s0.7,0.1,0.7,0.5V137.9z M555.2,137.6
						c0-0.2-0.2-0.2-0.4-0.2s-0.4,0.1-0.4,0.2v0.1L555.2,137.6L555.2,137.6z"/>
					<path class="st51" d="M555.4,136.8h-1.4v-0.3h1.4V136.8z"/>
					<path class="st51" d="M555.2,135.3c0.2,0.1,0.3,0.2,0.3,0.4c0,0.4-0.3,0.5-0.7,0.5s-0.7-0.1-0.7-0.5c0-0.2,0.1-0.3,0.3-0.4
						l0.1,0.2c-0.1,0-0.2,0.1-0.2,0.2c0,0.2,0.2,0.2,0.5,0.2s0.5-0.1,0.5-0.2c0-0.1-0.1-0.2-0.2-0.2L555.2,135.3z"/>
					<path class="st51" d="M555.4,134.5l-0.2,0v0.3l0.2,0v0.3l-1.4-0.3v-0.3l1.4-0.3V134.5z M554.5,134.7c0,0-0.1,0-0.1,0v0
						C554.4,134.7,554.5,134.7,554.5,134.7l0.4,0.1v-0.2L554.5,134.7z"/>
					<path class="st51" d="M555.4,134h-1.4v-0.3h1.1v-0.4h0.2V134z"/>
				</g>
				<g>
					<path class="st51" d="M555.4,131.4v0.3l-0.7,0.1c-0.1,0-0.2,0-0.2,0v0c0,0,0.1,0,0.2,0l0.7,0.1v0.3l-1.4,0.3v-0.3l0.8-0.1
						c0.1,0,0.2,0,0.2,0v0c0,0-0.1,0-0.2,0l-0.8-0.2v-0.3l0.8-0.2c0.1,0,0.2,0,0.2,0v0c0,0-0.1,0-0.2,0l-0.8-0.1v-0.3L555.4,131.4z"
						/>
					<path class="st51" d="M555.4,130.8h-1.4v-0.7h0.2v0.5h0.3v-0.4h0.2v0.4h0.3v-0.5h0.2V130.8z"/>
					<path class="st51" d="M555.4,129.7h-1.4v-0.3h1.4V129.7z"/>
					<path class="st51" d="M554.8,128.2c0.4,0,0.7,0.1,0.7,0.5c0,0.4-0.3,0.5-0.7,0.5s-0.7-0.1-0.7-0.5c0-0.2,0.1-0.3,0.3-0.4
						l0.1,0.2c-0.1,0-0.2,0.1-0.2,0.2c0,0.2,0.2,0.2,0.5,0.2s0.5-0.1,0.5-0.2c0-0.2-0.2-0.2-0.3-0.2v0.2h-0.2L554.8,128.2
						L554.8,128.2z"/>
					<path class="st51" d="M555.4,127.3h-0.5v0.4h0.5v0.3h-1.4v-0.3h0.6v-0.4h-0.6v-0.3h1.4V127.3z"/>
					<path class="st51" d="M555.4,126.5h-1.1v0.2h-0.2V126h0.2v0.2h1.1V126.5z"/>
				</g>
				<g>
					<g>
						<path class="st51" d="M554.4,113.3h-0.5v0.1h-0.1v-0.3h0.1v0.1L554.4,113.3L554.4,113.3z"/>
						<path class="st51" d="M554.4,112.7H554c0,0-0.1,0-0.1,0v0c0,0,0,0,0,0l0.2,0.1v0L554,113c0,0,0,0,0,0v0c0,0,0,0,0.1,0h0.3v0.1
							h-0.5V113l0.2-0.1c0,0,0,0,0,0v0c0,0,0,0,0,0l-0.2-0.1v-0.1L554.4,112.7L554.4,112.7z"/>
					</g>
					<g>
						<path class="st51" d="M555.4,124.4h-0.8c0,0-0.1,0-0.1,0v0c0,0,0,0,0.1,0l0.4,0.2v0l-0.4,0.2c0,0-0.1,0-0.1,0v0
							c0,0,0.1,0,0.1,0h0.8v0.3h-1.4v-0.3l0.4-0.2c0,0,0.1,0,0.1,0v0c0,0-0.1,0-0.1,0l-0.4-0.2v-0.3h1.4V124.4z"/>
						<path class="st51" d="M555.4,123.2l-0.2,0v0.3l0.2,0v0.3l-1.4-0.3v-0.3l1.4-0.3V123.2z M554.5,123.4c0,0-0.1,0-0.1,0v0
							C554.4,123.4,554.5,123.4,554.5,123.4l0.4,0.1v-0.2L554.5,123.4z"/>
						<path class="st51" d="M555.4,122l-0.8,0.3c0,0-0.1,0-0.1,0v0c0,0,0.1,0,0.1,0h0.8v0.2h-1.4v-0.2l0.7-0.3c0,0,0.1,0,0.1,0v0
							c0,0-0.1,0-0.1,0h-0.7v-0.2h1.4V122z"/>
						<path class="st51" d="M555.4,120.9l-0.2,0v0.3l0.2,0v0.3l-1.4-0.3v-0.3l1.4-0.3V120.9z M554.5,121.1c0,0-0.1,0-0.1,0v0
							C554.4,121.1,554.5,121.1,554.5,121.1l0.4,0.1V121L554.5,121.1z"/>
						<path class="st51" d="M554.8,119.5c0.4,0,0.7,0.1,0.7,0.5c0,0.4-0.3,0.5-0.7,0.5s-0.7-0.1-0.7-0.5c0-0.2,0.1-0.3,0.3-0.4
							l0.1,0.2c-0.1,0-0.2,0.1-0.2,0.2c0,0.2,0.2,0.2,0.5,0.2s0.5-0.1,0.5-0.2c0-0.2-0.2-0.2-0.3-0.2v0.2h-0.2L554.8,119.5
							L554.8,119.5z"/>
						<path class="st51" d="M555.4,119.2h-1.4v-0.7h0.2v0.5h0.3v-0.4h0.2v0.4h0.3v-0.5h0.2V119.2z"/>
						<path class="st51" d="M555.4,117.3h-0.8c0,0-0.1,0-0.1,0v0c0,0,0,0,0.1,0l0.4,0.2v0l-0.4,0.2c0,0-0.1,0-0.1,0v0
							c0,0,0.1,0,0.1,0h0.8v0.3h-1.4v-0.3l0.4-0.2c0,0,0.1,0,0.1,0v0c0,0-0.1,0-0.1,0l-0.4-0.2v-0.3h1.4V117.3z"/>
						<path class="st51" d="M555.4,116.7h-1.4v-0.7h0.2v0.5h0.3V116h0.2v0.4h0.3v-0.5h0.2V116.7z"/>
						<path class="st51" d="M555.4,115l-0.8,0.3c0,0-0.1,0-0.1,0v0c0,0,0.1,0,0.1,0h0.8v0.2h-1.4v-0.2l0.7-0.3c0,0,0.1,0,0.1,0v0
							c0,0-0.1,0-0.1,0h-0.7v-0.2h1.4V115z"/>
						<path class="st51" d="M555.4,114.2h-1.1v0.2h-0.2v-0.7h0.2v0.2h1.1V114.2z"/>
					</g>
				</g>
				<g>
					<g>
						<path class="st44" d="M554.7,107c0.5,0,0.7,0.3,0.7,0.7c0,0.4-0.3,0.6-0.7,0.6c-0.4,0-0.7-0.3-0.7-0.7
							C554,107.2,554.3,107,554.7,107 M554.7,108c0.3,0,0.5-0.1,0.5-0.4c0-0.2-0.2-0.4-0.5-0.4c-0.3,0-0.5,0.1-0.5,0.4
							C554.2,107.9,554.5,108,554.7,108"/>
						<path class="st44" d="M554.1,106.6c0-0.1,0-0.2,0-0.4c0-0.2,0-0.3,0.1-0.4c0.1-0.1,0.2-0.1,0.3-0.1c0.1,0,0.2,0,0.3,0.1
							c0.1,0.1,0.1,0.3,0.1,0.4c0,0,0,0.1,0,0.1h0.5v0.2H554.1z M554.7,106.4c0,0,0-0.1,0-0.1c0-0.2-0.1-0.3-0.3-0.3
							c-0.2,0-0.2,0.1-0.2,0.3c0,0.1,0,0.1,0,0.1H554.7z"/>
						<polygon class="st44" points="554.3,105.1 554.3,105.5 554.1,105.5 554.1,104.5 554.3,104.5 554.3,104.8 555.4,104.8 
							555.4,105.1 						"/>
						<rect x="554.1" y="103.8" class="st44" width="1.4" height="0.3"/>
						<polygon class="st44" points="554.1,103.3 554.1,102.6 554.1,102.6 554.1,103.2 554.7,103.2 554.7,102.6 554.8,102.6 
							554.8,103.2 555.4,103.2 555.4,103.3 						"/>
						<path class="st44" d="M554.9,102.1l0.5,0.2v0.1l-1.4-0.5v-0.1l1.4-0.5v0.1l-0.5,0.2V102.1z M554.9,101.6l-0.5,0.2
							c-0.1,0-0.2,0.1-0.2,0.1v0c0.1,0,0.2,0,0.2,0.1l0.5,0.2V101.6z"/>
						<path class="st44" d="M555.3,101.1c0.1-0.1,0.1-0.2,0.1-0.3c0-0.2-0.1-0.3-0.3-0.3c-0.2,0-0.2,0.1-0.3,0.3
							c-0.1,0.2-0.2,0.4-0.4,0.4c-0.2,0-0.3-0.2-0.3-0.4c0-0.1,0-0.2,0.1-0.3l0.1,0c0,0-0.1,0.1-0.1,0.2c0,0.2,0.1,0.3,0.3,0.3
							c0.2,0,0.2-0.1,0.3-0.3c0.1-0.2,0.2-0.3,0.4-0.3c0.2,0,0.4,0.1,0.4,0.4C555.4,100.9,555.4,101,555.3,101.1L555.3,101.1z"/>
						<polygon class="st44" points="554.1,99.7 554.1,100.1 554.1,100.1 554.1,99.1 554.1,99.1 554.1,99.6 555.4,99.6 555.4,99.7 
													"/>
						<path class="st44" d="M554,98.8c0-0.1,0.1-0.1,0.1-0.1c0.1,0,0.1,0.1,0.1,0.1c0,0.1-0.1,0.1-0.1,0.1
							C554.1,99,554,98.9,554,98.8L554,98.8z M554.1,98.8c0,0.1,0.1,0.1,0.1,0.1c0.1,0,0.1,0,0.1-0.1c0-0.1-0.1-0.1-0.1-0.1
							S554.1,98.7,554.1,98.8L554.1,98.8z M554.3,98.8L554.3,98.8l-0.1,0c0,0,0,0,0-0.1c0,0,0,0,0,0c0,0,0,0,0,0
							C554.2,98.7,554.2,98.8,554.3,98.8L554.3,98.8C554.2,98.8,554.2,98.8,554.3,98.8C554.2,98.7,554.2,98.7,554.3,98.8L554.3,98.8
							C554.2,98.8,554.2,98.8,554.3,98.8C554.2,98.8,554.2,98.8,554.3,98.8L554.3,98.8L554.3,98.8z M554.2,98.8L554.2,98.8
							C554.2,98.8,554.2,98.8,554.2,98.8C554.1,98.8,554.1,98.8,554.2,98.8C554.1,98.8,554.1,98.8,554.2,98.8L554.2,98.8z"/>
					</g>
				</g>
				<g>
					<path class="st44" d="M555.3,111.5l-0.5,0c-0.1,0-0.2,0-0.2,0v0c0,0,0.1,0,0.2,0.1l0.5,0.2v0.1l-0.9,0.1V112l0.5,0
						c0.1,0,0.2,0,0.2,0v0c0,0-0.1,0-0.2-0.1l-0.5-0.2v-0.1l0.5,0c0.1,0,0.2,0,0.2,0v0c0,0-0.1,0-0.2-0.1l-0.5-0.2V111L555.3,111.5
						L555.3,111.5z"/>
					<path class="st44" d="M555.3,110.6C555.3,110.6,555.3,110.6,555.3,110.6c0,0.1-0.1,0.2-0.2,0.2c0,0-0.1,0-0.1,0l-0.4-0.1
						c0,0-0.1,0-0.1,0h0v-0.1c0,0,0,0,0,0c0,0,0.1,0,0.2,0l0.4,0.1c0,0,0,0,0.1,0C555.2,110.7,555.2,110.7,555.3,110.6
						C555.2,110.6,555.2,110.6,555.3,110.6L555.3,110.6z M554.3,110.6C554.3,110.6,554.2,110.6,554.3,110.6c-0.1,0.1-0.1,0-0.1,0
						C554.1,110.5,554.2,110.5,554.3,110.6C554.2,110.5,554.3,110.5,554.3,110.6z"/>
					<path class="st44" d="M555.3,109.9c0,0,0,0.1,0,0.1c0,0.1-0.1,0.2-0.2,0.2c0,0-0.1,0-0.1,0l-0.5-0.1v0.1l-0.1,0v-0.1l-0.2,0
						v-0.1l0.2,0v-0.2l0.1,0v0.2l0.5,0.1c0,0,0,0,0.1,0C555.1,110.1,555.2,110,555.3,109.9C555.2,109.9,555.2,109.9,555.3,109.9
						L555.3,109.9z"/>
					<path class="st44" d="M555.3,109.6l-1.2-0.3v-0.1l0.3,0.1c0.1,0,0.2,0,0.2,0v0c-0.1,0-0.1-0.1-0.1-0.2c0-0.2,0.1-0.2,0.2-0.2
						c0,0,0.1,0,0.1,0c0.1,0,0.2,0,0.3,0.1c0,0,0,0,0.1,0c0.1,0,0.1,0,0.1-0.1c0,0,0,0,0,0c0,0,0.1,0,0.1,0c0,0.1-0.1,0.2-0.2,0.2
						c-0.1,0-0.3-0.1-0.5-0.1c-0.1,0-0.2,0-0.2,0.1c0,0.2,0.1,0.2,0.3,0.3L555.3,109.6L555.3,109.6z"/>
				</g>
			</g>
		</g>
		<path class="st36" d="M545.5,176.4h-6.9c-1,0-1.8-0.8-1.9-1.8l-5.6-82.8h0l-1.4-2.6V81c0-0.3,0.1-0.5,0.3-0.7
			c0.2-0.2,0.5-0.4,0.8-0.4h0.4v-6.1c0-0.7,0.4-1.2,0.9-1.5l6.3,0.5c-0.2,0.3-0.3,0.6-0.3,1v6.1h-0.4c-0.3,0-0.6,0.1-0.8,0.4
			c-0.2,0.2-0.3,0.4-0.3,0.7v8.2l1.4,2.6h0l5.6,82.8C543.7,175.6,544.5,176.4,545.5,176.4z"/>
	</g>
</g>
</svg>
