<?xml version="1.0" encoding="utf-8"?>
<!-- Generator: Adobe Illustrator 21.0.1, SVG Export Plug-In . SVG Version: 6.00 Build 0)  -->
<svg version="1.1" id="Layer_1" xmlns="http://www.w3.org/2000/svg" xmlns:xlink="http://www.w3.org/1999/xlink" x="0px" y="0px"
	 viewBox="0 0 566.9 566.9" style="enable-background:new 0 0 566.9 566.9;" xml:space="preserve">
<style type="text/css">
	.st0{fill:#FFFFFF;stroke:#231F20;stroke-miterlimit:10;}
	.st1{fill:#C4030B;}
	.st2{fill:#C96E04;}
	.st3{fill:#AC0A1A;}
	.st4{fill:#CABF14;}
	.st5{fill:#0B713A;}
	.st6{fill:url(#SVGID_1_);}
	.st7{fill:url(#SVGID_2_);}
	.st8{fill:url(#SVGID_3_);}
	.st9{fill:url(#SVGID_4_);}
	.st10{fill:url(#SVGID_5_);}
	.st11{fill:url(#SVGID_6_);}
	.st12{fill:url(#SVGID_7_);}
	.st13{fill:none;}
	.st14{font-family:'MyriadPro-Regular';}
	.st15{font-size:36px;}
</style>
<rect x="4.2" class="st0" width="566.9" height="566.9"/>
<g>
	<g>
		<path class="st1" d="M459.2,310.5l12.6-9.7c-27.5-39.3-66.2-69.4-111-85.2l-4.8,15.6C397.6,246,433.5,274,459.2,310.5z"/>
		<path class="st2" d="M288.7,219.8c22.2,0,43.7,3.6,63.8,10.3l4.8-15.6c-21.7-7.2-44.7-11.1-68.6-11.1c-23.9,0-47,3.9-68.6,11.1
			l4.8,15.6C245,223.4,266.4,219.8,288.7,219.8z"/>
		<path class="st3" d="M500.8,441.9h15.6c-0.4-51.4-16-98.9-42.4-137.8l-12.6,9.7C485.8,349.9,500.4,394.1,500.8,441.9z"/>
		<path class="st4" d="M221.3,231.3l-4.8-15.6c-44.8,15.8-83.4,45.9-111,85.2l12.6,9.7C143.8,274,179.7,246,221.3,231.3z"/>
		<path class="st5" d="M116,313.7l-12.6-9.7C77,342.9,61.4,390.5,61,441.9h15.5C76.9,394.1,91.5,349.9,116,313.7z"/>
		<linearGradient id="SVGID_1_" gradientUnits="userSpaceOnUse" x1="364.7141" y1="319.5437" x2="424.7508" y2="251.4251">
			<stop  offset="0" style="stop-color:#F14950"/>
			<stop  offset="1" style="stop-color:#ED1C24"/>
		</linearGradient>
		<path class="st6" d="M445.6,320.9l13.5-10.4C433.5,274,397.6,246,356,231.3l-4.8,15.6C389.4,260.8,422.3,287,445.6,320.9z"/>
		<linearGradient id="SVGID_2_" gradientUnits="userSpaceOnUse" x1="412.6608" y1="403.0824" x2="504.2155" y2="369.2197">
			<stop  offset="0" style="stop-color:#CB4B57"/>
			<stop  offset="1" style="stop-color:#BE1E2D"/>
		</linearGradient>
		<path class="st7" d="M500.8,441.9c-0.4-47.8-14.9-92-39.4-128.2l-13.6,10.4c22,33.4,35,74,35,117.8H500.8z"/>
		<linearGradient id="SVGID_3_" gradientUnits="userSpaceOnUse" x1="214.2654" y1="330.2863" x2="155.0103" y2="251.2795">
			<stop  offset="0" style="stop-color:#FAF15B"/>
			<stop  offset="1" style="stop-color:#F9ED32"/>
		</linearGradient>
		<path class="st8" d="M225.9,246.2l-4.6-14.9c-41.7,14.7-77.6,42.7-103.2,79.3l12.1,9.3C153.9,285.8,187.2,259.8,225.9,246.2z"/>
		<linearGradient id="SVGID_4_" gradientUnits="userSpaceOnUse" x1="289.587" y1="303.6175" x2="288.3259" y2="203.9814">
			<stop  offset="0" style="stop-color:#F9A94B"/>
			<stop  offset="1" style="stop-color:#F7941E"/>
		</linearGradient>
		<path class="st9" d="M347.7,245.7l4.8-15.6c-20.1-6.7-41.6-10.3-63.8-10.3c-22.2,0-43.7,3.6-63.8,10.3l4.6,14.9
			c18.4-6,37.9-9.3,58.1-9.3C308.5,235.7,328.7,239.2,347.7,245.7z"/>
		<linearGradient id="SVGID_5_" gradientUnits="userSpaceOnUse" x1="167.048" y1="402.9351" x2="71.5895" y2="369.0221">
			<stop  offset="0" style="stop-color:#33A969"/>
			<stop  offset="1" style="stop-color:#009444"/>
		</linearGradient>
		<path class="st10" d="M116,313.7c-24.5,36.2-39,80.4-39.4,128.2h15.8c0-44.3,13.2-85.3,35.7-118.9L116,313.7z"/>
		<g>
			
				<linearGradient id="SVGID_6_" gradientUnits="userSpaceOnUse" x1="224.4202" y1="-115.061" x2="144.2336" y2="-287.8083" gradientTransform="matrix(1 5.000000e-04 -5.000000e-04 1 100.933 553.7948)">
				<stop  offset="0" style="stop-color:#414042"/>
				<stop  offset="1" style="stop-color:#58595B"/>
			</linearGradient>
			<path class="st11" d="M275.6,442.1c0,7.6,5.8,13.7,13,13.8l0.1-210C288.7,245.9,275.6,434.6,275.6,442.1z"/>
			
				<linearGradient id="SVGID_7_" gradientUnits="userSpaceOnUse" x1="228.2436" y1="-115.5644" x2="147.5715" y2="-289.3577" gradientTransform="matrix(1 5.000000e-04 -5.000000e-04 1 100.933 553.7948)">
				<stop  offset="0" style="stop-color:#58595B"/>
				<stop  offset="1" style="stop-color:#231F20"/>
			</linearGradient>
			<path class="st12" d="M288.7,245.9l-0.1,210c7.2,0,13-6.1,13-13.7C301.7,434.6,288.7,245.9,288.7,245.9z"/>
		</g>
	</g>
</g>
<polygon class="st13" points="543.6,148.8 44.7,148.8 45.6,104.3 544.5,104.3 "/>
<text transform="matrix(1 0 0 1 65.6524 129.8096)" class="st14 st15">Coronary Artery Calcium Score</text>
</svg>
