<?xml version="1.0" encoding="utf-8"?>
<!-- Generator: Adobe Illustrator 21.1.0, SVG Export Plug-In . SVG Version: 6.00 Build 0)  -->
<svg version="1.1" id="Layer_1" xmlns="http://www.w3.org/2000/svg" xmlns:xlink="http://www.w3.org/1999/xlink" x="0px" y="0px"
	 viewBox="0 0 800 793.7" style="enable-background:new 0 0 800 793.7;" xml:space="preserve">
<style type="text/css">
	.st0{fill:#D3D1D2;}
	.st1{fill:#E4156E;}
	.st2{fill:#FFFFFF;}
</style>
<g>
	<rect y="200.1" class="st0" width="793.7" height="593.6"/>
	<rect y="51.3" class="st1" width="793.7" height="148.7"/>
	<g>
		<g>
			<rect x="144.3" class="st0" width="62" height="100.9"/>
			<rect x="587.4" class="st0" width="62" height="100.9"/>
		</g>
	</g>
	<g>
		<g>
			<path class="st1" d="M226.4,467.9H71.6V313.1h154.8V467.9z M102.5,437h93v-93h-93V437z"/>
			<path class="st1" d="M350.3,467.9H195.5V313.1h154.8V467.9z M226.4,437h93v-93h-93V437z"/>
			<path class="st1" d="M474.3,467.9H319.4V313.1h154.8V467.9z M350.3,437h93v-93h-93V437z"/>
			<path class="st1" d="M598.2,467.9H443.3V313.1h154.8V467.9z M474.3,437h93v-93h-93V437z"/>
			<path class="st1" d="M722.1,467.9H567.3V313.1h154.8V467.9z M598.2,437h93v-93h-93V437z"/>
		</g>
		<g>
			<path class="st1" d="M226.4,591.9H71.6V437h154.8V591.9z M102.5,560.9h93v-93h-93V560.9z"/>
			<path class="st1" d="M350.3,591.9H195.5V437h154.8V591.9z M226.4,560.9h93v-93h-93V560.9z"/>
			<path class="st1" d="M474.3,591.9H319.4V437h154.8V591.9z M350.3,560.9h93v-93h-93V560.9z"/>
			<path class="st1" d="M598.2,591.9H443.3V437h154.8V591.9z M474.3,560.9h93v-93h-93V560.9z"/>
			<path class="st1" d="M722.1,591.9H567.3V437h154.8V591.9z M598.2,560.9h93v-93h-93V560.9z"/>
		</g>
		<g>
			<path class="st1" d="M226.4,715.8H71.6V560.9h154.8V715.8z M102.5,684.9h93v-93h-93V684.9z"/>
			<path class="st1" d="M350.3,715.8H195.5V560.9h154.8V715.8z M226.4,684.9h93v-93h-93V684.9z"/>
			<path class="st1" d="M474.3,715.8H319.4V560.9h154.8V715.8z M350.3,684.9h93v-93h-93V684.9z"/>
			<path class="st1" d="M598.2,715.8H443.3V560.9h154.8V715.8z M474.3,684.9h93v-93h-93V684.9z"/>
			<path class="st1" d="M722.1,715.8H567.3V560.9h154.8V715.8z M598.2,684.9h93v-93h-93V684.9z"/>
		</g>
	</g>
	<circle class="st1" cx="644.7" cy="638.4" r="155.3"/>
	<path class="st2" d="M741.6,591.1c-3.2-3.2-8.5-3.2-11.7,0L614.2,706.7L559.5,652c-3.2-3.2-8.5-3.2-11.7,0c-3.2,3.2-3.2,8.5,0,11.7
		l58.7,58.7c0.4,0.8,0.9,1.6,1.6,2.3c1.6,1.6,3.7,2.4,5.9,2.4c0.1,0,0.2,0,0.4,0c0.1,0,0.2,0,0.3,0c2.1,0,4.2-0.8,5.9-2.4
		c0.7-0.7,1.2-1.4,1.6-2.2l119.6-119.6C744.8,599.6,744.8,594.3,741.6,591.1z"/>
</g>
</svg>
