<?xml version="1.0" encoding="utf-8"?>
<!-- Generator: Adobe Illustrator 19.1.0, SVG Export Plug-In . SVG Version: 6.00 Build 0)  -->
<svg version="1.1" id="Layer_1" xmlns="http://www.w3.org/2000/svg" xmlns:xlink="http://www.w3.org/1999/xlink" x="0px" y="0px"
	 viewBox="0 0 640.9 261.5" style="enable-background:new 0 0 640.9 261.5;" xml:space="preserve">
<style type="text/css">
	.st0{fill:#98002E;}
	.st1{fill:#005596;}
	.st2{fill:#FFFFFF;}
	.st3{fill:#981B1E;}
</style>
<g>
	<path class="st0" d="M140.6,94.2c6.9-5.4,15.6-8,25.4-8c5.1,0,12.3,1,16.7,2.3c1.1,0.3,1.8,0.5,2.6,0.4c0.1,2.2,0.6,8.1,1.3,13.9
		c-0.5,0.7-1.9,0.8-2.5,0.2c-1.4-6.4-5.7-13.8-19.3-13.8c-14.4,0-26.7,9.1-26.7,28.7c0,19.8,12.5,30.7,28,30.7
		c12.2,0,17.5-7.9,19.7-13.5c0.7-0.5,2.1-0.3,2.5,0.4c-0.7,4.9-3.1,11.1-4.5,12.9c-1.1,0.2-2.3,0.6-3.3,0.9
		c-2.1,0.8-8.9,2.2-14.9,2.2c-8.5,0-16.6-1.7-23.5-6.3c-7.5-5.2-13.4-13.8-13.4-25.9C128.7,108.8,133.4,99.8,140.6,94.2z"/>
	<path class="st0" d="M210.8,130.4c1.4-0.5,1.6-1.3,1.6-2.7l0.1-4.3c0.1-3.5-1-8.2-6.9-8.2c-2.6,0-5.8,1.3-6,4.2
		c-0.1,1.5-0.2,2.6-0.9,3.2c-1.4,1.1-4,1.8-5.4,1.8c-0.8,0-1.3-0.5-1.3-1.3c0-4.9,10.7-11.6,17.5-11.6c6.8,0,10.1,4,9.8,11
		l-0.6,16.4c-0.2,4.3,0.7,8.2,4.3,8.2c0.9,0,1.8-0.3,2.4-0.6c0.5-0.3,0.9-0.7,1.2-0.7c0.4,0,0.7,0.6,0.7,1.2c0,0.5-3.3,4.1-7.9,4.1
		c-2.3,0-4.5-0.8-6.1-2.9c-0.4-0.6-0.9-1.3-1.5-1.3c-0.7,0-1.8,0.8-3.7,1.9c-2.1,1.1-4.1,2.4-6.8,2.4c-2.7,0-5-0.8-6.6-2.2
		c-1.8-1.6-2.9-4-2.9-6.6c0-3.7,1.8-5.8,7.8-8L210.8,130.4z M204.9,147c1.9,0,4.8-1.4,5.7-2.4c1.1-1.1,1.1-2.5,1.2-4.4l0.2-5.6
		c0-1-0.4-1.2-0.9-1.2c-0.6,0-2.2,0.4-3.9,0.9c-5.6,1.9-8.3,3.3-8.3,7C199,143,200.1,147,204.9,147z"/>
	<path class="st0" d="M234,122.9c0-3.7,0-4.1-2.5-5.8l-0.8-0.6c-0.4-0.4-0.4-1.4,0.1-1.7c2.2-0.8,7.2-3.2,9.5-4.6
		c0.5,0.1,0.8,0.3,0.8,0.7v5.5c0,0.5,0.1,0.8,0.3,0.8c3.3-2.7,6.9-5.7,10.4-5.7c2.4,0,4.2,1.5,4.2,3.8c0,3.1-2.5,4.3-4.1,4.3
		c-0.9,0-1.4-0.3-2.1-0.7c-1.4-0.9-2.8-1.5-4.1-1.5c-1.5,0-2.6,0.8-3.4,1.9c-0.9,1.3-1.2,4.1-1.2,7.3v12.8c0,6.8,0.2,7.9,3.8,8.2
		l3.4,0.3c0.7,0.5,0.5,2.1-0.2,2.4c-4.4-0.2-7.2-0.3-10.5-0.3c-3.4,0-6.2,0.1-8.7,0.3c-0.7-0.3-0.8-1.9-0.2-2.4l1.8-0.3
		c3.5-0.6,3.6-1.4,3.6-8.2V122.9z"/>
	<path class="st0" d="M293,136.2c0,7.4,0.1,10.9,2.7,10.9c1,0,2.6-0.5,4.1-0.9c0.7,0.2,0.8,2.5-0.1,3c-4,0.6-9.8,2-12.4,3
		c-0.6,0-1-0.3-1-0.8v-1.6c0-1.4,0-2.5-0.2-2.9h-0.4c-4.1,2.8-7.4,4.3-11.9,4.3c-10.5,0-17.4-8.2-17.4-18.1
		c0-13.2,10-21.7,22.8-21.7c3.2,0,5.3,0.5,6.3,0.8c0.5,0,0.6-0.6,0.6-1.3V96.8c0-5.6-0.1-6.1-2.9-7.8l-0.9-0.6
		c-0.5-0.3-0.5-1.6,0-1.9c2.4-0.8,6.8-2.2,10.2-4c0.4,0,0.8,0.2,0.9,0.6c-0.1,2.8-0.3,7.5-0.3,11.7V136.2z M286.1,122
		c0-1.9-0.4-2.7-1-3.7c-1.4-2-4.2-4-7.9-4c-8.6,0-13,7.4-13,15.6c0,8.6,4.8,16.7,14,16.7c2.5,0,5.7-1.1,7.3-2.6
		c0.6-0.6,0.7-2,0.7-3.5V122z"/>
	<path class="st0" d="M308.6,122.9c0-3.7,0-4.1-2.5-5.8l-0.8-0.6c-0.4-0.4-0.4-1.4,0.1-1.7c2.2-0.8,7.5-3.2,9.7-4.6
		c0.5,0,0.8,0.2,0.9,0.6c-0.2,3.3-0.4,7.8-0.4,11.7v17c0,6.8,0.2,7.7,3.6,8.2l2,0.3c0.7,0.5,0.5,2.1-0.2,2.4
		c-2.8-0.2-5.6-0.3-8.9-0.3c-3.4,0-6.2,0.1-8.9,0.3c-0.7-0.3-0.8-1.9-0.2-2.4l2-0.3c3.5-0.5,3.6-1.4,3.6-8.2V122.9z M316.4,96
		c0,3.4-2.4,4.9-5,4.9c-2.9,0-4.8-2.2-4.8-4.7c0-3.1,2.3-5.1,5.1-5.1C314.5,91.1,316.4,93.4,316.4,96z"/>
	<path class="st0" d="M364.4,131c0,11.8-8.1,20.3-19.9,20.3c-10.8,0-19.3-7.6-19.3-19.4c0-11.9,9-20.4,20.1-20.4
		C355.8,111.5,364.4,119.4,364.4,131z M344.1,114.3c-6.2,0-10.8,5.9-10.8,16.3c0,8.6,3.9,17.8,12.2,17.8c8.3,0,10.8-8.7,10.8-15.9
		C356.3,124.5,353.1,114.3,344.1,114.3z"/>
	<path class="st1" d="M387.1,151.4c-7.9,0-12.9-2.5-14.7-3.5c-1.1-2.1-2.4-8.8-2.5-13.2c0.5-0.7,1.9-0.8,2.3-0.3
		c1.4,4.8,5.3,14,16.2,14c7.9,0,11.8-5.2,11.8-10.8c0-4.1-0.8-8.8-7.7-13.2l-9-5.8c-4.7-3.1-10.2-8.5-10.2-16.2
		c0-9,7-16.2,19.2-16.2c2.9,0,6.3,0.6,8.8,1.2c1.2,0.4,2.5,0.6,3.3,0.6c0.8,2.3,1.7,7.5,1.7,11.5c-0.4,0.6-1.9,0.8-2.4,0.3
		c-1.2-4.5-3.8-10.7-12.8-10.7c-9.2,0-11.2,6.1-11.2,10.5c0,5.5,4.5,9.4,8,11.6l7.5,4.7c5.9,3.7,11.8,9.1,11.8,18.1
		C407.2,144.4,399.4,151.4,387.1,151.4z"/>
	<path class="st1" d="M467.3,125.7c0-6.4-2.8-9.7-8.8-9.7c-3.6,0-6.5,1.6-7.8,3.3c-1.1,1.4-1.4,2.4-1.4,5.7v14.4
		c0,6.8,0.2,7.7,3.6,8.2l2,0.3c0.7,0.5,0.5,2.1-0.2,2.4c-2.8-0.2-5.6-0.3-8.9-0.3c-3.4,0-5.9,0.1-8.6,0.3c-0.7-0.3-0.8-1.9-0.2-2.4
		l1.7-0.3c3.5-0.6,3.6-1.4,3.6-8.2v-13.7c0-6.3-2.8-9.7-8.7-9.7c-3.9,0-6.5,1.7-7.9,3.4c-0.9,1.1-1.4,2.4-1.4,5.4v14.6
		c0,6.8,0.2,7.6,3.6,8.2l1.7,0.3c0.7,0.5,0.5,2.1-0.2,2.4c-2.5-0.2-5.3-0.3-8.6-0.3c-3.4,0-6.2,0.1-9.1,0.3
		c-0.7-0.3-0.8-1.9-0.2-2.4l2.3-0.3c3.5-0.5,3.6-1.4,3.6-8.2v-16.5c0-3.7,0-4.1-2.5-5.8l-0.8-0.6c-0.4-0.4-0.4-1.4,0.1-1.7
		c2.2-0.8,7.5-3.2,9.4-4.6c0.4,0,0.8,0.2,1,0.7c-0.2,2.2-0.2,3.6-0.2,4.4c0,0.6,0.4,1,1,1c3.6-2.5,8-4.8,12.5-4.8
		c4.7,0,7.4,1.7,10,5.6c0.8,0.2,1.5-0.2,2.4-0.8c3.8-2.6,8.4-4.8,12.8-4.8c7.5,0,11.2,5.2,11.2,11.7v16.2c0,6.8,0.2,7.7,3.6,8.2
		l2.3,0.3c0.7,0.5,0.5,2.1-0.2,2.4c-3.1-0.2-5.8-0.3-9.1-0.3c-3.4,0-5.9,0.1-8.6,0.3c-0.7-0.3-0.8-1.9-0.2-2.4l1.7-0.3
		c3.5-0.6,3.6-1.4,3.6-8.2V125.7z"/>
	<path class="st1" d="M502.9,130.4c1.4-0.5,1.6-1.3,1.6-2.7l0.1-4.3c0.1-3.5-1-8.2-6.9-8.2c-2.6,0-5.8,1.3-6,4.2
		c-0.1,1.5-0.2,2.6-0.9,3.2c-1.4,1.1-4,1.8-5.4,1.8c-0.8,0-1.3-0.5-1.3-1.3c0-4.9,10.7-11.6,17.5-11.6c6.8,0,10.1,4,9.8,11
		l-0.6,16.4c-0.2,4.3,0.7,8.2,4.3,8.2c0.9,0,1.8-0.3,2.4-0.6c0.5-0.3,0.9-0.7,1.2-0.7c0.4,0,0.7,0.6,0.7,1.2c0,0.5-3.3,4.1-7.9,4.1
		c-2.3,0-4.5-0.8-6.1-2.9c-0.4-0.6-0.9-1.3-1.5-1.3c-0.7,0-1.8,0.8-3.7,1.9c-2.1,1.1-4.1,2.4-6.8,2.4c-2.7,0-5-0.8-6.6-2.2
		c-1.8-1.6-2.9-4-2.9-6.6c0-3.7,1.8-5.8,7.8-8L502.9,130.4z M497.1,147c1.9,0,4.8-1.4,5.8-2.4c1.1-1.1,1.1-2.5,1.2-4.4l0.2-5.6
		c0-1-0.4-1.2-0.9-1.2c-0.6,0-2.2,0.4-3.9,0.9c-5.6,1.9-8.3,3.3-8.3,7C491.2,143,492.3,147,497.1,147z"/>
	<path class="st1" d="M526.2,122.9c0-3.7,0-4.1-2.5-5.8l-0.8-0.6c-0.4-0.4-0.4-1.4,0.1-1.7c2.2-0.8,7.2-3.2,9.5-4.6
		c0.5,0.1,0.8,0.3,0.8,0.7v5.5c0,0.5,0.1,0.8,0.3,0.8c3.3-2.7,6.9-5.7,10.4-5.7c2.4,0,4.2,1.5,4.2,3.8c0,3.1-2.5,4.3-4.1,4.3
		c-0.9,0-1.4-0.3-2.1-0.7c-1.4-0.9-2.8-1.5-4.1-1.5c-1.5,0-2.6,0.8-3.4,1.9c-0.9,1.3-1.2,4.1-1.2,7.3v12.8c0,6.8,0.2,7.9,3.8,8.2
		l3.4,0.3c0.7,0.5,0.5,2.1-0.2,2.4c-4.4-0.2-7.2-0.3-10.5-0.3c-3.4,0-6.2,0.1-8.7,0.3c-0.7-0.3-0.8-1.9-0.2-2.4l1.8-0.3
		c3.5-0.6,3.6-1.4,3.6-8.2V122.9z"/>
	<path class="st1" d="M564.3,116.8c-1.6,0-1.7,0.3-1.7,2.3v17.6c0,5.5,0.7,10.5,6.9,10.5c0.9,0,1.8-0.2,2.5-0.5
		c0.8-0.3,2.1-1.3,2.4-1.3c0.8,0,1.1,1,0.9,1.6c-1.7,2-5.1,4.3-9.9,4.3c-8.1,0-9.8-4.5-9.8-10.2v-21.6c0-2.5-0.1-2.7-2-2.7H551
		c-0.6-0.4-0.7-1.4-0.3-2c2.7-0.8,5.1-2.1,6-2.9c1.2-1.1,3-3.7,4-5.6c0.5-0.2,1.6-0.2,2,0.5v4.2c0,1.7,0.1,1.8,1.7,1.8h10.5
		c1.1,0.8,0.9,3.4,0.1,4H564.3z"/>
</g>
<g>
	<path class="st2" d="M73,168c-1.1-0.1-1.1-0.1-3-3.8c-3.1-6-11.4-21.8-16.4-26.7c-7.4-7.2-14.9-14.6-17.9-27.1
		c-4.9-20.6,4.4-41.5,22-49.7c2.3-1.1,4.8-1.9,7.3-2.5c21.8-5.1,44,9.9,49.6,33.6c2.8,11.7-0.3,21.3-3.3,30.5l-0.5,1.7
		c-3.9,12-2.8,27.4-2.5,32.4c0.1,1.9,0.2,2.8-1,3.4C90.7,168.8,90.2,169,73,168z"/>
	<path class="st2" d="M74.2,164.3c11.8,1.4,11.4,2.2,30.3-7c0-0.1-0.1-0.5-0.1-0.6c-0.4-5.2-1.4-21.1,2.7-33.8l0.5-1.7
		c2.8-8.7,5.8-17.7,3.3-28.5C105.8,71,85.6,57.2,65.9,61.9c-2.3,0.5-4.5,1.3-6.5,2.3c-16,7.5-24.4,26.6-20,45.4
		C42,121,49.2,128,56.1,134.8c5.4,5.3,13.6,21,17.1,27.6C73.6,163.1,74,163.8,74.2,164.3z"/>
	<path class="st1" d="M73,168c-1.1-0.1-1.1-0.1-3-3.8c-3.1-6-11.4-21.8-16.4-26.7c-7.4-7.2-14.9-14.6-17.9-27.1
		c-4.9-20.6,4.4-41.5,22-49.7c2.3-1.1,4.8-1.9,7.3-2.5c21.8-5.1,44,9.9,49.6,33.6c2.8,11.7-0.3,21.3-3.3,30.5l-0.5,1.7
		c-3.9,12-2.8,27.4-2.5,32.4c0.1,1.9,0.2,2.8-1,3.4C90.7,168.8,90.2,169,73,168z M74.2,164.3c11.8,1.4,11.4,2.2,30.3-7
		c0-0.1-0.1-0.5-0.1-0.6c-0.4-5.2-1.4-21.1,2.7-33.8l0.5-1.7c2.8-8.7,5.8-17.7,3.3-28.5C105.8,71,85.6,57.2,65.9,61.9
		c-2.3,0.5-4.5,1.3-6.5,2.3c-16,7.5-24.4,26.6-20,45.4C42,121,49.2,128,56.1,134.8c5.4,5.3,13.6,21,17.1,27.6
		C73.6,163.1,74,163.8,74.2,164.3z"/>
	<path class="st3" d="M76.2,129.4c-1-0.8-1.9-1.7-2.9-2.6l0,0c-4.2-2.9-17.5-13.8-18.5-17.2l0,0c-1.3-4.6-0.7-9,1.4-12.2l0,0
		c1.9-2.8,4.2-4.4,6.6-5.1l0,0c1.6-0.4,3.2-0.5,4.7-0.3l0,0c2.2,0.3,4.2,1.1,5.6,1.8l0,0c0.3,0.2,0.6,0.3,0.8,0.4l0,0
		c0.4-0.6,0.8-1.4,1.5-2.3l0,0c0.8-1,1.7-2.1,2.9-3l0,0c1.2-0.9,2.6-1.8,4.2-2.2l0,0c2.4-0.7,5.2-0.6,8.3,0.9l0,0
		c3.5,1.6,6.3,5.1,7.6,9.7l0,0c1,3.5,1.1,7.5-0.1,11.9l0,0c-1.8,6.8-6.9,13.7-9.3,18.1c-6.7,12.2-0.1,31.7-0.1,31.7
		s-3.7,0.8-3.7,0.7c-5.5-28.4-2.9-28-0.1-33.2c0,0,8.5-12.5,10.1-18.5l0,0c1-3.7,0.9-7,0.1-9.7l0,0c-1-3.6-3.2-6.1-5.6-7.2l0,0
		c-2.5-1.1-4.5-1.2-6.2-0.7l0,0c-1.2,0.3-2.2,0.9-3.1,1.7l0,0c-1.4,1.1-2.4,2.5-3.1,3.6l0,0c-0.4,0.6-0.6,1.1-0.8,1.4l0,0
		c-0.1,0.2-0.1,0.3-0.2,0.4l0,0c0,0,0,0.1,0,0.1l0,0c0,0,0,0,0,0l0,0l0,0c0,0,0,0,0,0l0,0c-0.2,0.5-0.6,0.8-1,0.9l0,0l0,0
		c-0.4,0.1-0.9,0-1.3-0.3l0,0l0,0c-0.1-0.1-1.4-1-3.3-1.7l0,0c-1-0.4-2.1-0.7-3.2-0.8l0,0c-1.1-0.1-2.3-0.1-3.5,0.2l0,0
		c-1.7,0.5-3.4,1.6-4.9,3.8l0,0c-1.5,2.2-2,5.5-0.9,9.1l0,0c0.8,2.7,14.6,12.7,17.4,15.4l0,0c0.8,0.8,1.7,1.5,2.5,2.2
		c0.1,0.1,0.1,0.1,0.2,0.1L76.2,129.4z"/>
	<path class="st0" d="M91.7,163.3c0,0-6,2.1-6.1,1.4c-6-29.4-4.5-31.9-1.3-38.6l0.1-0.1c0.1-0.1,8.4-12.4,10-18.3
		c0.9-3.3,0.9-6.5,0.1-9.3c-0.9-3.1-2.8-5.6-5.1-6.7c-2-0.9-3.8-1.1-5.6-0.7c-1,0.3-1.9,0.8-2.8,1.5c-1.3,1.1-2.3,2.5-2.9,3.4
		c-0.4,0.6-0.6,1-0.8,1.3c-0.1,0.2-0.1,0.3-0.2,0.4l0,0.1c-0.3,0.7-0.9,1.2-1.6,1.4c-0.7,0.2-1.5,0.1-2.1-0.4c0,0-1.3-0.9-3.1-1.6
		c-1-0.4-2-0.7-3-0.8C66,96.4,65,96.5,64,96.7c-1.8,0.5-3.1,1.8-4.4,3.5c-1.5,2.1-2.9,5.7-0.4,8.5c1.9,2.2,7.6,7.4,11.5,10.5
		c2.3,1.9,8.5,7.2,8.5,7.2l-2.8,4.3c0,0-19.9-16.4-22.2-19.9c-2.7-4.2-2.7-9.6,0-13.3c2.4-3.2,5.5-5.3,8.3-6.1
		c1.6-0.5,3.3-0.6,5.1-0.3c1.9,0.2,3.9,0.9,5.9,1.9c0,0,0.1,0,0.1,0.1c0.3-0.6,0.7-1.1,1.1-1.6c0.9-1.2,1.9-2.3,3-3.2
		c3.9-3.1,8.7-3.6,13.4-1.4c3.8,1.7,6.7,5.5,8.1,10.2c1.1,3.8,1.1,8.1-0.1,12.3c-1.4,5.2-4.5,10.3-7.1,14.5
		c-0.9,1.4-1.8,2.6-2.3,3.8C83.8,142.7,91.7,163.3,91.7,163.3z"/>
	<path class="st3" d="M73.7,95.8c0.2-0.4,0-0.9-0.3-1.1l0,0c-3.4-2.1-7.2-3.1-11.1-2.6l0,0l0,0c-0.4,0-0.6,0.4-0.5,0.9l0,0
		c0.1,0.4,0.4,0.8,0.8,0.7l0,0c3.6-0.5,7.1,0.4,10.2,2.4l0,0c0.2,0.1,0.3,0.1,0.5,0.1l0,0C73.5,96.1,73.6,96,73.7,95.8L73.7,95.8z"
		/>
	<path class="st1" d="M100.7,172.1c-8,3.7-18.2,5.9-26.7,2.6c-1.2-0.5-1.9-1.9-1.4-3.1c0.5-1.2,1.9-1.9,3.1-1.4
		c9.5,3.7,23.6-1.2,31.2-7.7c1-0.9,2.5-0.8,3.4,0.2c0.9,1,0.8,2.5-0.2,3.4C107.7,168.3,104.5,170.4,100.7,172.1z"/>
	<path class="st1" d="M102,179.6c-7.4,3.5-16.9,5.5-24.9,2.5c-1.2-0.5-1.9-1.9-1.4-3.1c0.5-1.2,1.9-1.9,3.1-1.4
		c8.8,3.4,21.8-1.1,28.7-7.1c1-0.9,2.5-0.8,3.4,0.2c0.9,1,0.8,2.5-0.2,3.4C108.5,176,105.5,178,102,179.6z"/>
	<path class="st1" d="M103,187.1c-6.6,3.1-15.1,4.9-22.2,2.2c-1.2-0.5-1.9-1.9-1.4-3.1c0.5-1.2,1.9-1.9,3.1-1.4
		c7.6,2.9,19-0.9,25.1-6.2c1-0.9,2.5-0.8,3.4,0.2c0.9,1,0.8,2.5-0.2,3.4C108.8,183.9,106.1,185.6,103,187.1z"/>
	<path class="st1" d="M104.6,186.2c0.8,3.3-2.1,6.8-6.5,7.8c-4.4,1.1-8.5-0.8-9.3-4C88,186.7,103.8,182.9,104.6,186.2z"/>
</g>
<g>
	<path d="M136,186.4c-0.9,0-0.9,0-1.2,0.9l-1.4,4.2c-0.7,2.1-0.6,2.1,0.7,2.3l1,0.2c0.2,0.2,0.2,0.9-0.1,1c-1.1-0.1-2.3-0.1-3.7-0.1
		c-1.1,0-2.2,0-3.4,0.1c-0.2-0.2-0.3-0.7,0-1l1-0.2c1-0.2,1.4-0.5,1.9-1.6c0.4-0.9,1-2.4,1.7-4.2l4.8-12.4c0.4-1.1,0.8-1.9,0.7-2.5
		c1.2-0.2,2.4-1.7,2.4-1.7c0.3,0,0.5,0.1,0.6,0.3c0.6,1.6,1,3.2,1.6,4.8l5,14.6c0.8,2.3,1,2.5,2.7,2.9l0.5,0.1c0.3,0.2,0.3,0.8,0,1
		c-1.4-0.1-2.7-0.1-4.5-0.1c-1.5,0-3,0.1-4.2,0.1c-0.3-0.2-0.3-0.8-0.1-1l0.8-0.1c1.3-0.2,1.4-0.4,0.9-1.8l-1.6-4.7
		c-0.3-0.9-0.5-0.9-1.4-0.9H136z M140.2,184.8c1,0,1.1-0.1,0.8-0.9l-1.5-4.2c-0.6-1.8-0.8-2.5-1-2.8h-0.1c-0.1,0.2-0.5,1.1-1,2.8
		l-1.5,4.1c-0.3,1-0.3,1,0.6,1H140.2z"/>
	<path d="M154.5,185.6c0-1.6,0-2-0.9-2.5l-0.4-0.2c-0.1-0.1-0.1-0.6,0-0.8c1.5-0.4,3.4-1.3,4.5-1.9c0.2,0,0.4,0.1,0.5,0.3
		c-0.1,0.7-0.1,1.3-0.1,1.6c0,0.2,0.1,0.3,0.3,0.3c1.7-0.9,2.6-1.7,5-1.7c1.5,0,2.6,0.8,3.1,1.5c0.2,0.3,0.4,0.5,0.6,0.5
		c0.1,0,0.3-0.1,0.8-0.3c1.6-1,2.8-1.6,4.5-1.6c2.9,0,4.2,1.9,4.2,4.7v5.4c0,2.6,0.1,3,1.3,3.1l0.8,0.1c0.3,0.2,0.1,0.9,0,1
		c-1.5-0.1-2.7-0.1-4-0.1c-1.1,0-2.3,0-3.6,0.1c-0.3-0.1-0.3-0.8-0.1-1l0.6-0.1c1.2-0.2,1.3-0.6,1.3-3.1V186c0-1.8-0.6-3.2-2.8-3.2
		c-1,0-1.9,0.5-2.3,1c-0.3,0.4-0.4,0.8-0.4,1.8v5.1c0,2.6,0.1,3,1.3,3.2l0.5,0.1c0.2,0.2,0.2,0.9-0.1,1c-1.2-0.1-2.4-0.1-3.7-0.1
		c-1.1,0-2.3,0-3.5,0.1c-0.3-0.1-0.3-0.8-0.1-1l0.5-0.1c1.2-0.2,1.3-0.6,1.3-3.2V186c0-1.8-0.6-3.2-2.6-3.2c-1.2,0-2.1,0.6-2.5,1.1
		c-0.4,0.6-0.5,0.9-0.5,2.2v4.7c0,2.6,0.1,3,1.3,3.2l0.5,0.1c0.2,0.2,0.2,0.9-0.1,1c-1.2-0.1-2.4-0.1-3.7-0.1c-1.1,0-2.3,0-3.6,0.1
		c-0.3-0.1-0.3-0.8-0.1-1l0.6-0.1c1.2-0.2,1.3-0.6,1.3-3.1V185.6z"/>
	<path d="M183.8,186.6c-0.7,0-0.7,0-0.7,0.5c0,3.1,2.2,5.6,5.3,5.6c1.4,0,2.5-0.5,3.3-1.7c0.3-0.1,0.7,0.2,0.8,0.6
		c-1.2,2.8-3.8,3.8-5.9,3.8c-4,0-6.7-3-6.7-7c0-3.9,2.7-7.7,7.3-7.7c2.6,0,5.2,1.7,5.2,4.7c0,0.3,0,0.5-0.2,0.8
		c-0.2,0.3-1,0.5-2.4,0.5H183.8z M187,185.2c1,0,1.5-0.1,1.7-0.2c0.2-0.1,0.3-0.4,0.3-0.7c0-1.3-0.8-2.3-2.3-2.3
		c-2.3,0-3.4,2.3-3.4,3c0,0.1,0.1,0.2,0.5,0.2H187z"/>
	<path d="M195.6,185.6c0-1.6,0-2-0.9-2.5l-0.4-0.2c-0.1-0.1-0.1-0.6,0-0.8c1.5-0.5,3.3-1.3,4.4-1.9c0.2,0,0.4,0.1,0.5,0.3
		c0,0.7-0.1,1.3-0.1,1.6c0,0.2,0.1,0.4,0.3,0.4c1.1-0.8,2.2-1.8,3.4-1.8c1.2,0,1.9,0.8,1.9,1.7c0,1.4-1,2-1.9,2
		c-0.3,0-0.7-0.1-0.9-0.3c-0.9-0.6-1.5-0.7-1.7-0.7c-0.8,0-1,0.8-1,2.5v4.8c0,2.6,0.1,3,1.4,3.1l1.4,0.1c0.2,0.2,0.2,0.9-0.1,1
		c-2.1-0.1-3.3-0.1-4.6-0.1c-1.1,0-2.3,0-3.6,0.1c-0.3-0.1-0.3-0.8-0.1-1l0.6-0.1c1.2-0.2,1.3-0.6,1.3-3.1V185.6z"/>
	<path d="M211.5,190.7c0,2.6,0.1,2.9,1.3,3.1l0.6,0.1c0.2,0.2,0.2,0.9-0.1,1c-1.3-0.1-2.5-0.1-3.8-0.1c-1.1,0-2.3,0-3.7,0.1
		c-0.3-0.1-0.3-0.8-0.1-1l0.6-0.1c1.2-0.2,1.3-0.6,1.3-3.1v-5.1c0-1.6,0-2-0.9-2.5l-0.4-0.2c-0.1-0.1-0.1-0.6,0-0.8
		c1.8-0.5,3.5-1.3,4.5-1.9c0.2,0,0.4,0.1,0.5,0.3c-0.1,1.1-0.1,2.8-0.1,4.2V190.7z M207.5,175.4c0-1.2,0.9-2.1,2.1-2.1
		c1.3,0,2.1,0.9,2.1,2.1c0,1.2-0.9,2.1-2.1,2.1C208.4,177.5,207.5,176.6,207.5,175.4z"/>
	<path d="M226.1,181.2c0.5,0.4,0.7,1,0.7,1.8c0,1.1-0.6,1.6-0.9,1.6c-0.2,0-0.4-0.1-0.7-0.4c-0.8-1-1.8-2.1-3.2-2.1
		c-2,0-4,1.9-4,5.2c0,2.8,1.8,5.5,5,5.5c2.3,0,3.1-0.8,3.8-1.8c0.3,0,0.7,0.2,0.7,0.6c-1.3,2.8-3.9,3.8-6.1,3.8
		c-1.8,0-3.7-0.7-4.8-1.9c-1.2-1.2-2-3-2-5c0-4.1,3-7.8,8.6-7.8C224.1,180.7,225.1,180.8,226.1,181.2z"/>
	<path d="M239.7,190.5c-0.1,2,0.4,3.1,1.7,3.1c0.6,0,1.1-0.4,1.2-0.4c0.2,0,0.4,0.4,0.3,0.7c-0.7,1-2.4,1.5-3.5,1.5
		c-0.9,0-1.8-0.2-2.5-1c-0.2-0.2-0.4-0.4-0.6-0.4c-0.2,0-0.4,0.2-0.9,0.5c-0.7,0.4-1.7,0.9-3,0.9c-2.4,0-3.6-1.6-3.6-3.4
		c0-1.3,0.5-2.4,2.9-3.2c1.2-0.4,2.5-0.9,3.8-1.4c0.7-0.2,0.8-0.6,0.8-0.9l0-0.9c0.1-1.8-0.4-3.3-2.1-3.3c-1,0-1.7,0.5-1.8,1.5
		c-0.1,0.7-0.3,1-0.7,1.3c-0.5,0.3-1.5,0.6-2.2,0.6c-0.5,0-0.7-0.2-0.7-0.6c0-0.4,0.2-1.1,1.4-2.2c1.1-1,3.6-2.2,5.4-2.2
		c2.7,0,4.5,1.3,4.3,4.4L239.7,190.5z M236.3,189.3c0-0.4-0.1-0.6-0.3-0.6c-0.3,0-0.9,0.2-1.5,0.4c-1,0.3-1.9,0.8-1.9,2.3
		c0,0.9,0.6,2,1.9,2c1.3,0,1.6-0.8,1.7-1.7L236.3,189.3z"/>
	<path d="M249.9,190.7c0,2.6,0.1,3,1.3,3.2l0.5,0.1c0.2,0.2,0.2,0.9-0.1,1c-1.2-0.1-2.4-0.1-3.7-0.1c-1.1,0-2.3,0-3.8,0.1
		c-0.3-0.1-0.3-0.8-0.1-1l0.8-0.1c1.2-0.2,1.3-0.6,1.3-3.1v-5.1c0-1.6,0-2-0.9-2.5l-0.4-0.2c-0.1-0.1-0.1-0.6,0-0.8
		c1.5-0.4,3.4-1.3,4.5-1.9c0.2,0,0.4,0.1,0.5,0.3c-0.1,0.7-0.1,1.3-0.1,1.6c0,0.2,0.1,0.3,0.3,0.3c1.6-0.9,2.6-1.7,4.8-1.7
		c2.8,0,4.1,1.9,4.1,4.7v5.4c0,2.6,0.1,3,1.3,3.1l0.8,0.1c0.2,0.2,0.2,0.9-0.1,1c-1.5-0.1-2.6-0.1-3.9-0.1c-1.1,0-2.3,0-3.6,0.1
		c-0.3-0.1-0.3-0.8-0.1-1l0.5-0.1c1.2-0.2,1.3-0.6,1.3-3.2v-4.8c0-1.8-0.7-3.2-2.8-3.2c-1.1,0-1.9,0.6-2.3,1.1
		c-0.5,0.6-0.5,0.9-0.5,2.2V190.7z"/>
	<path d="M293.2,177.8c-0.2,0.3-0.9,0.3-1.1,0.1c-0.6-2.2-2.2-5.1-6.8-5.1c-4.4,0-8.9,3.1-8.9,10.3c0,7.4,4.6,11,9.1,11
		c4.4,0,6.3-2.9,7.3-5.2c0.3-0.3,0.9-0.2,1,0.1c-0.2,2.3-1.2,4.6-1.7,5.3c-0.4,0.1-0.8,0.2-1.2,0.3c-0.8,0.2-3.2,0.8-5.4,0.8
		c-3.4,0-6.4-0.7-8.9-2.3c-2.8-1.8-4.9-5-4.9-9.6c0-4.1,1.8-7.2,4.4-9.2c2.6-1.9,6.1-3,9.6-3c2,0,4.4,0.3,6,0.8
		c0.4,0.1,0.7,0.1,1,0.2C292.7,173.1,292.8,175.2,293.2,177.8z"/>
	<path d="M310.7,187.9c0,4.9-3.5,7.5-7.6,7.5c-4,0-7.3-2.5-7.3-7.1c0-4.7,3.5-7.6,7.6-7.6C307.3,180.7,310.7,183.3,310.7,187.9z
		 M303.5,194c2.4,0,3.1-2.9,3.1-5.5c0-2.9-1-6.4-3.6-6.4c-1.8,0-3.2,1.8-3.2,5.7C299.8,190.9,301,194,303.5,194z"/>
	<path d="M313.9,175.8c0-2.3,0-2.5-0.9-3.1l-0.4-0.2c-0.2-0.1-0.2-0.7,0-0.8c1.4-0.4,3.2-1.1,4.6-1.7c0.2,0,0.4,0.1,0.5,0.3
		c-0.1,1.4-0.1,3.5-0.1,5v15.4c0,2.6,0.1,3,1.3,3.1l0.8,0.1c0.2,0.2,0.2,0.9-0.1,1c-1.4-0.1-2.6-0.1-3.9-0.1c-1.1,0-2.3,0-3.8,0.1
		c-0.3-0.1-0.3-0.8-0.1-1l0.7-0.1c1.2-0.2,1.3-0.6,1.3-3.1V175.8z"/>
	<path d="M323.3,175.8c0-2.3,0-2.5-0.9-3.1l-0.4-0.2c-0.2-0.1-0.2-0.7,0-0.8c1.4-0.4,3.2-1.1,4.6-1.7c0.2,0,0.4,0.1,0.5,0.3
		c-0.1,1.4-0.1,3.5-0.1,5v15.4c0,2.6,0.1,3,1.3,3.1l0.8,0.1c0.2,0.2,0.2,0.9-0.1,1c-1.4-0.1-2.6-0.1-3.9-0.1c-1.1,0-2.3,0-3.8,0.1
		c-0.3-0.1-0.3-0.8-0.1-1l0.7-0.1c1.2-0.2,1.3-0.6,1.3-3.1V175.8z"/>
	<path d="M334.1,186.6c-0.7,0-0.7,0-0.7,0.5c0,3.1,2.2,5.6,5.3,5.6c1.4,0,2.5-0.5,3.3-1.7c0.3-0.1,0.7,0.2,0.8,0.6
		c-1.2,2.8-3.8,3.8-5.9,3.8c-4,0-6.7-3-6.7-7c0-3.9,2.7-7.7,7.3-7.7c2.6,0,5.2,1.7,5.2,4.7c0,0.3,0,0.5-0.2,0.8
		c-0.2,0.3-1,0.5-2.4,0.5H334.1z M337.3,185.2c1,0,1.5-0.1,1.7-0.2c0.2-0.1,0.3-0.4,0.3-0.7c0-1.3-0.8-2.3-2.3-2.3
		c-2.3,0-3.4,2.3-3.4,3c0,0.1,0.1,0.2,0.5,0.2H337.3z"/>
	<path d="M356.7,183.7c0.1,0.3,0.2,0.7,0.2,1.5c0,2.9-1.9,5.7-6.4,5.7c-0.4,0-0.9-0.1-1.3-0.1c-0.6,0.3-1.1,0.7-1.1,1.4
		c0,0.7,0.5,1.4,1.9,1.4c1,0,2.3-0.1,3.8-0.1c2.5,0,5.7,0.4,5.7,4.2c0,1.8-1.3,3.5-2.2,4.2c-1.5,1.3-3.8,2.3-6.8,2.3
		c-4.9,0-6.5-2.3-6.5-4.1c0-0.5,0.1-1,0.5-1.5c0.3-0.3,1.6-1.1,2.2-1.6c0.3-0.2,0.5-0.7,0.2-0.8c-1.2-0.4-2.3-1.5-2.3-2.9
		c0-0.3,0.1-0.6,0.6-0.9c0.5-0.3,2.2-1.4,2.2-1.8c0-0.1,0-0.3-0.1-0.4c-1.2-0.5-2.6-1.9-2.6-4.1c0-3.1,2.6-5.5,6.4-5.5
		c1.4,0,2.6,0.3,3.5,0.7c0.7,0.3,1.1,0.5,1.5,0.5h3.4c0.1,0.1,0.3,0.3,0.3,0.6c0,0.7-0.3,1.1-0.6,1.2H356.7z M350.8,196.6
		c-1.2,0-1.9,0.1-2.4,0.4c-0.6,0.5-1,1.1-1,1.9c0,2.1,1.9,3.5,4.6,3.5c3,0,4.6-1.2,4.6-3.2c0-1.8-1.6-2.6-3.8-2.6H350.8z
		 M351.1,189.7c1.3,0,2.3-1.1,2.3-3.6c0-2.4-1-4.1-2.6-4.1c-1.2,0-2.3,1.1-2.3,3.5C348.5,188.2,349.8,189.7,351.1,189.7z"/>
	<path d="M364.2,186.6c-0.7,0-0.7,0-0.7,0.5c0,3.1,2.2,5.6,5.3,5.6c1.4,0,2.5-0.5,3.3-1.7c0.3-0.1,0.7,0.2,0.8,0.6
		c-1.2,2.8-3.8,3.8-5.9,3.8c-4,0-6.7-3-6.7-7c0-3.9,2.7-7.7,7.3-7.7c2.6,0,5.2,1.7,5.2,4.7c0,0.3,0,0.5-0.2,0.8
		c-0.2,0.3-1,0.5-2.4,0.5H364.2z M367.4,185.2c1,0,1.5-0.1,1.7-0.2c0.2-0.1,0.3-0.4,0.3-0.7c0-1.3-0.8-2.3-2.3-2.3
		c-2.3,0-3.4,2.3-3.4,3c0,0.1,0.1,0.2,0.5,0.2H367.4z"/>
	<path d="M387.3,183c2-1.8,3.7-2.3,5.3-2.3c3.1,0,4.3,2.1,4.3,4.7c0,2.2-1.1,5.3-3.4,7.6c-2,2-4,2.4-5.5,2.4c-2.9,0-4.4-2-4.3-4.6
		C383.7,188.3,385.2,185,387.3,183z M390.7,192.1c1.3-1.8,2.9-6,2.9-8.2c0-0.9-0.1-1.9-1.1-1.9c-0.6,0-1.4,0.4-2.3,1.5
		c-1.6,2.1-3.4,6.3-3.4,8.8c0,1,0.5,1.8,1.3,1.8C388.9,194.1,389.7,193.6,390.7,192.1z"/>
	<path d="M405.5,182.7c-1.2,3.5-2.7,9.8-3.8,13.2c-0.9,2.7-1.7,4.8-2.8,5.9c-0.8,0.8-2.6,2.4-4.9,2.4c-1.9,0-3.2-1.1-3.2-2.3
		c0-0.9,1-1.8,1.7-1.8c0.5,0,0.8,0.2,1,0.7c0.7,1.2,1.5,1.9,2.1,1.9c0.5,0,1-0.6,1.7-3c1.2-4.2,2.9-10.9,4.6-17.1h-3.1
		c-0.3-0.5-0.1-1.3,0.4-1.5h3.1c0.8-2.7,1.6-5.1,3-7.1c1.7-2.5,3.9-4,6.5-4c2,0,3.3,1.3,3.3,2.7c0,1.1-1.1,2-1.9,2
		c-0.5,0-0.7-0.2-0.8-0.7c-0.3-2-1.1-2.8-1.9-2.8c-0.5,0-1.2,0.5-2.1,2.3c-1.1,2.3-1.9,4.9-2.7,7.7h4.1c0.3,0.4,0.1,1.3-0.4,1.5
		H405.5z"/>
	<path d="M443,177.8c-0.2,0.3-0.9,0.3-1.1,0.1c-0.6-2.2-2.2-5.1-6.8-5.1c-4.4,0-8.9,3.1-8.9,10.3c0,7.4,4.6,11,9.1,11
		c4.4,0,6.3-2.9,7.3-5.2c0.3-0.3,0.9-0.2,1,0.1c-0.2,2.3-1.2,4.6-1.7,5.3c-0.4,0.1-0.8,0.2-1.2,0.3c-0.8,0.2-3.2,0.8-5.4,0.8
		c-3.4,0-6.4-0.7-8.9-2.3c-2.8-1.8-4.9-5-4.9-9.6c0-4.1,1.8-7.2,4.4-9.2c2.6-1.9,6.1-3,9.6-3c2,0,4.4,0.3,6,0.8
		c0.4,0.1,0.7,0.1,1,0.2C442.6,173.1,442.6,175.2,443,177.8z"/>
	<path d="M456.2,190.5c-0.1,2,0.4,3.1,1.7,3.1c0.6,0,1.1-0.4,1.2-0.4c0.2,0,0.4,0.4,0.3,0.7c-0.7,1-2.4,1.5-3.5,1.5
		c-0.9,0-1.8-0.2-2.5-1c-0.2-0.2-0.4-0.4-0.6-0.4c-0.2,0-0.4,0.2-0.9,0.5c-0.7,0.4-1.7,0.9-3,0.9c-2.4,0-3.6-1.6-3.6-3.4
		c0-1.3,0.5-2.4,2.9-3.2c1.2-0.4,2.5-0.9,3.8-1.4c0.7-0.2,0.8-0.6,0.8-0.9l0-0.9c0.1-1.8-0.4-3.3-2.1-3.3c-1,0-1.7,0.5-1.8,1.5
		c-0.1,0.7-0.3,1-0.7,1.3c-0.5,0.3-1.5,0.6-2.2,0.6c-0.5,0-0.7-0.2-0.7-0.6c0-0.4,0.2-1.1,1.4-2.2c1.1-1,3.6-2.2,5.4-2.2
		c2.7,0,4.5,1.3,4.3,4.4L456.2,190.5z M452.8,189.3c0-0.4-0.1-0.6-0.3-0.6c-0.3,0-0.9,0.2-1.5,0.4c-1,0.3-1.9,0.8-1.9,2.3
		c0,0.9,0.6,2,1.9,2c1.3,0,1.6-0.8,1.7-1.7L452.8,189.3z"/>
	<path d="M462.6,185.6c0-1.6,0-2-0.9-2.5l-0.4-0.2c-0.1-0.1-0.1-0.6,0-0.8c1.5-0.5,3.3-1.3,4.4-1.9c0.2,0,0.4,0.1,0.5,0.3
		c0,0.7-0.1,1.3-0.1,1.6c0,0.2,0.1,0.4,0.3,0.4c1.1-0.8,2.2-1.8,3.4-1.8c1.2,0,1.9,0.8,1.9,1.7c0,1.4-1,2-1.9,2
		c-0.3,0-0.7-0.1-0.9-0.3c-0.9-0.6-1.5-0.7-1.7-0.7c-0.8,0-1,0.8-1,2.5v4.8c0,2.6,0.1,3,1.4,3.1l1.4,0.1c0.2,0.2,0.2,0.9-0.1,1
		c-2.1-0.1-3.3-0.1-4.6-0.1c-1.1,0-2.3,0-3.6,0.1c-0.3-0.1-0.3-0.8-0.1-1l0.6-0.1c1.2-0.2,1.3-0.6,1.3-3.1V185.6z"/>
	<path d="M486.6,189.2c0,3.2,0.2,4.2,0.8,4.2c0.4,0,0.9-0.1,1.5-0.3c0.3,0.2,0.3,1,0,1.3c-1.8,0.2-4.2,0.8-5.5,1.3
		c-0.2,0-0.3-0.2-0.4-0.4l0.1-0.5c0.1-0.5,0-0.8,0-1l-0.2,0c-1,0.8-2.3,1.6-4,1.6c-4,0-6.4-3.2-6.4-6.7c0-5,4-8,8.4-8
		c0.9,0,1.6,0.1,2,0.2c0.1,0,0.2-0.2,0.2-0.6v-4.6c0-2.3-0.1-2.5-0.8-3l-0.5-0.3c-0.2-0.1-0.2-0.7,0-0.8c1.4-0.4,3.2-1.1,4.6-1.7
		c0.2,0,0.4,0.1,0.5,0.3c-0.1,1.4-0.1,3.5-0.1,5V189.2z M482.9,184.9c0-0.7-0.1-1.2-0.5-1.7c-0.5-0.7-1.3-1.2-2.3-1.2
		c-2.4,0-3.9,2.3-3.9,5.3c0,3.6,1.9,6,4.4,6c0.8,0,1.8-0.5,2.1-0.8c0.2-0.2,0.2-0.5,0.2-1V184.9z"/>
	<path d="M496.3,190.7c0,2.6,0.1,2.9,1.3,3.1l0.6,0.1c0.2,0.2,0.2,0.9-0.1,1c-1.3-0.1-2.5-0.1-3.8-0.1c-1.1,0-2.3,0-3.7,0.1
		c-0.3-0.1-0.3-0.8-0.1-1l0.6-0.1c1.2-0.2,1.3-0.6,1.3-3.1v-5.1c0-1.6,0-2-0.9-2.5l-0.4-0.2c-0.1-0.1-0.1-0.6,0-0.8
		c1.8-0.5,3.6-1.3,4.5-1.9c0.2,0,0.4,0.1,0.5,0.3c-0.1,1.1-0.1,2.8-0.1,4.2V190.7z M492.3,175.4c0-1.2,0.9-2.1,2.1-2.1
		c1.3,0,2.1,0.9,2.1,2.1c0,1.2-0.9,2.1-2.1,2.1C493.2,177.5,492.3,176.6,492.3,175.4z"/>
	<path d="M514.3,187.9c0,4.9-3.5,7.5-7.6,7.5c-4,0-7.3-2.5-7.3-7.1c0-4.7,3.5-7.6,7.6-7.6C510.9,180.7,514.3,183.3,514.3,187.9z
		 M507.1,194c2.4,0,3.1-2.9,3.1-5.5c0-2.9-1-6.4-3.6-6.4c-1.8,0-3.2,1.8-3.2,5.7C503.4,190.9,504.6,194,507.1,194z"/>
	<path d="M517.5,175.8c0-2.3,0-2.5-0.9-3.1l-0.4-0.2c-0.2-0.1-0.2-0.7,0-0.8c1.4-0.4,3.2-1.1,4.6-1.7c0.2,0,0.4,0.1,0.5,0.3
		c-0.1,1.4-0.1,3.5-0.1,5v15.4c0,2.6,0.1,3,1.3,3.1l0.8,0.1c0.2,0.2,0.2,0.9-0.1,1c-1.4-0.1-2.6-0.1-3.9-0.1c-1.1,0-2.3,0-3.8,0.1
		c-0.3-0.1-0.3-0.8-0.1-1l0.7-0.1c1.2-0.2,1.3-0.6,1.3-3.1V175.8z"/>
	<path d="M539.2,187.9c0,4.9-3.5,7.5-7.6,7.5c-4,0-7.3-2.5-7.3-7.1c0-4.7,3.5-7.6,7.6-7.6C535.8,180.7,539.2,183.3,539.2,187.9z
		 M532,194c2.4,0,3.1-2.9,3.1-5.5c0-2.9-1-6.4-3.6-6.4c-1.8,0-3.2,1.8-3.2,5.7C528.4,190.9,529.5,194,532,194z"/>
	<path d="M553.4,183.7c0.1,0.3,0.2,0.7,0.2,1.5c0,2.9-1.9,5.7-6.4,5.7c-0.4,0-0.9-0.1-1.3-0.1c-0.6,0.3-1.1,0.7-1.1,1.4
		c0,0.7,0.5,1.4,1.9,1.4c1,0,2.3-0.1,3.8-0.1c2.5,0,5.7,0.4,5.7,4.2c0,1.8-1.3,3.5-2.2,4.2c-1.5,1.3-3.8,2.3-6.8,2.3
		c-4.9,0-6.5-2.3-6.5-4.1c0-0.5,0.1-1,0.5-1.5c0.3-0.3,1.6-1.1,2.2-1.6c0.3-0.2,0.5-0.7,0.2-0.8c-1.2-0.4-2.3-1.5-2.3-2.9
		c0-0.3,0.1-0.6,0.6-0.9c0.5-0.3,2.2-1.4,2.2-1.8c0-0.1,0-0.3-0.1-0.4c-1.2-0.5-2.6-1.9-2.6-4.1c0-3.1,2.6-5.5,6.4-5.5
		c1.4,0,2.6,0.3,3.5,0.7c0.7,0.3,1.1,0.5,1.5,0.5h3.4c0.1,0.1,0.3,0.3,0.3,0.6c0,0.7-0.3,1.1-0.6,1.2H553.4z M547.5,196.6
		c-1.2,0-1.9,0.1-2.4,0.4c-0.6,0.5-1,1.1-1,1.9c0,2.1,1.9,3.5,4.6,3.5c3,0,4.6-1.2,4.6-3.2c0-1.8-1.6-2.6-3.8-2.6H547.5z
		 M547.8,189.7c1.3,0,2.3-1.1,2.3-3.6c0-2.4-1-4.1-2.6-4.1c-1.2,0-2.3,1.1-2.3,3.5C545.2,188.2,546.5,189.7,547.8,189.7z"/>
	<path d="M558,201.7c0-1.1,0.8-1.5,1.8-1.6l0.8,0c0.5,0,1.1-0.2,1.5-0.7c0.7-1,1.7-2.9,1.7-4.4c0-0.5-0.1-1.3-0.6-2.6l-2.8-7.3
		c-0.8-2.2-1.1-2.7-2.4-3l-0.7-0.1c-0.3-0.3-0.3-0.9,0.1-1c1.1,0.1,2.6,0.1,3.9,0.1c1.2,0,2.5,0,3.7-0.1c0.3,0.1,0.3,0.8,0.1,1
		l-1,0.2c-0.8,0.2-0.8,0.3-0.2,1.8l1.5,4c0.7,1.8,1.1,2.6,1.2,2.6c0.1,0,0.7-1.1,1.1-2.2l1-2.3c0.8-1.9,1.3-3.2,1.3-3.4
		c0-0.3-0.1-0.5-0.7-0.6l-1.2-0.2c-0.2-0.3-0.2-0.8,0.1-1c1.3,0.1,2.5,0.1,3.3,0.1c0.9,0,1.8,0,2.8-0.1c0.3,0.1,0.3,0.8,0.1,1
		c-0.4,0.1-1.5,0.3-2,0.8c-0.4,0.4-1,1.4-2.1,3.5l-1.8,3.5c-1.2,2.4-4.3,8.6-5.7,11.8c-0.6,1.3-1.5,1.9-2.6,1.9
		C558.6,203.6,558,202.7,558,201.7z"/>
</g>
<g>
	<path d="M571.5,104.5c0.6,0,1.2,0.2,1.8,0.5c0.6,0.3,1,0.8,1.4,1.3c0.3,0.6,0.5,1.2,0.5,1.8c0,0.6-0.2,1.2-0.5,1.8
		c-0.3,0.6-0.8,1-1.3,1.3c-0.6,0.3-1.2,0.5-1.8,0.5c-0.6,0-1.2-0.2-1.8-0.5c-0.6-0.3-1-0.8-1.3-1.3c-0.3-0.6-0.5-1.2-0.5-1.8
		c0-0.6,0.2-1.2,0.5-1.8c0.3-0.6,0.8-1,1.4-1.3C570.3,104.6,570.9,104.5,571.5,104.5z M571.5,104.8c-0.6,0-1.1,0.1-1.6,0.4
		c-0.5,0.3-0.9,0.7-1.2,1.2c-0.3,0.5-0.4,1.1-0.4,1.7c0,0.6,0.1,1.1,0.4,1.6c0.3,0.5,0.7,0.9,1.2,1.2c0.5,0.3,1.1,0.4,1.6,0.4
		c0.6,0,1.1-0.1,1.6-0.4c0.5-0.3,0.9-0.7,1.2-1.2c0.3-0.5,0.4-1.1,0.4-1.6c0-0.6-0.1-1.1-0.4-1.7c-0.3-0.5-0.7-0.9-1.2-1.2
		C572.6,104.9,572.1,104.8,571.5,104.8z M569.5,105.9h2c0.5,0,0.9,0.1,1.1,0.3c0.3,0.2,0.4,0.5,0.4,0.8c0,0.3-0.1,0.5-0.3,0.7
		c-0.2,0.2-0.5,0.3-0.9,0.5l1.1,1.5c0.1,0.2,0.2,0.3,0.3,0.4c0.1,0,0.2,0.1,0.3,0.1v0.2h-0.9l-1.5-2.1h-0.4v1.6
		c0,0.1,0.1,0.2,0.1,0.2c0.1,0.1,0.2,0.1,0.5,0.1v0.2h-1.9v-0.2c0.2,0,0.3,0,0.4-0.1c0.1,0,0.1-0.1,0.2-0.2c0,0,0-0.2,0-0.4v-2.7
		c0-0.3,0-0.4,0-0.4c0-0.1-0.1-0.1-0.1-0.2c-0.1,0-0.2-0.1-0.3-0.1V105.9z M570.7,108h0.2c0.5,0,0.8-0.1,1-0.3
		c0.2-0.2,0.3-0.4,0.3-0.7c0-0.3-0.1-0.5-0.3-0.7c-0.2-0.2-0.4-0.3-0.7-0.3c-0.1,0-0.3,0-0.4,0.1V108z"/>
</g>
<rect x="128.3" y="161" class="st1" width="447.7" height="1.4"/>
</svg>
