<svg xmlns="http://www.w3.org/2000/svg" width="80" height="81" fill="none" viewBox="0 0 80 81">
    <path fill="#6FCF97" d="M40 80c22.091 0 40-17.909 40-40S62.091 0 40 0 0 17.909 0 40s17.909 40 40 40z"/>
    <path fill="#47B876" d="M30.5 78.5L20 55l12-.5L33 20h26.5L77 55c-5.641 13.927-19 24.5-36.5 25-2.636.133-7 0-10-1.5z"/>
    <path fill="#F8B64C" d="M58.645 19.905H39.118v-2.33c0-.693-.567-1.26-1.26-1.26H26.771c-.693 0-1.26.567-1.26 1.26v2.33h-4.22c-.693 0-1.26.567-1.26 1.26v32.567a1.76 1.76 0 0 0 1.764 1.764h36.094a1.76 1.76 0 0 0 1.764-1.764V21.165c.19-.693-.378-1.26-1.008-1.26z"/>
    <path fill="#FFD15C" d="M61.48 28.157H42.71c-.568 0-1.072.504-1.072 1.071l-.063 3.087c0 .567-.504 1.008-1.07 1.008H18.456c-.567 0-.945.44-.882 1.008l2.142 20.472c.063.441.504.819 1.008.819h37.858c.504 0 .945-.378 1.008-.819l2.772-25.512c.126-.693-.315-1.134-.882-1.134z"/>
    <path fill="#EBF0F3" d="M40 37.984L28.283 49.701h5.355v13.92h12.724v-13.92h5.354L40 37.984z"/>
</svg>
