<?xml version="1.0" encoding="utf-8"?>
<!-- Generator: Adobe Illustrator 22.1.0, SVG Export Plug-In . SVG Version: 6.00 Build 0)  -->
<svg version="1.1" id="Layer_1" xmlns="http://www.w3.org/2000/svg" xmlns:xlink="http://www.w3.org/1999/xlink" x="0px" y="0px"
	 viewBox="0 0 535.5 180.8" style="enable-background:new 0 0 535.5 180.8;" xml:space="preserve">
<style type="text/css">
	.st0{fill:#F0CA69;}
	.st1{fill:#F4DA80;}
	.st2{fill:#CEE9F9;}
	.st3{fill:#FFFFFF;}
	.st4{fill:#1895A4;}
	.st5{fill:#19B0BF;}
	.st6{fill:#EB8558;}
	.st7{fill:#F0ECDA;}
	.st8{fill:none;}
	.st9{fill:#7AC286;}
	.st10{fill:#AFD6A6;}
	.st11{fill:#D85B47;}
	.st12{fill:#EE6A54;}
	.st13{fill:#00A0C0;}
	.st14{fill:#5AB2C5;}
	.st15{fill:#486567;}
	.st16{fill:#999999;}
	.st17{fill:#B3B3B3;}
	.st18{fill:#E6E6E6;}
	.st19{fill:#A5D9E7;}
	.st20{fill:#8EC2D5;}
	.st21{fill:#9A9699;}
	.st22{fill:#7BC589;}
	.st23{fill:#DCE4E6;}
	.st24{fill:#D1EBFA;}
	.st25{fill:#B2DAA9;}
	.st26{fill:#90C4D6;}
	.st27{fill:#D9E9E9;}
	.st28{fill:#F0EFEF;}
	.st29{fill:#C1CFCE;}
	.st30{fill:#5A6374;}
	.st31{fill:#94908A;}
	.st32{fill:#B1ADA4;}
	.st33{fill:#14AEBD;}
	.st34{fill:#F6F2F1;}
	.st35{fill:#B9BEC1;}
	.st36{fill:#DDDBC8;}
	.st37{fill:#73BEB8;}
	.st38{fill:#1DAEA2;}
	.st39{fill:#C1BEAE;}
	.st40{fill:#0F303F;}
	.st41{fill:#F2EFDC;}
	.st42{fill:#808080;}
	.st43{fill:#EEEEEE;}
	.st44{fill:#777777;}
	.st45{fill:#474747;}
	.st46{fill:#D9D9D9;}
	.st47{fill:#F26328;}
	.st48{fill:#CED5D8;}
</style>
<g>
	<g>
		<path class="st0" d="M0,172.3h2.6c0.9,0,1.6-0.7,1.6-1.6v-16.9c0-0.9-0.7-1.6-1.6-1.6H0v-3.2h168.1c2.6,0,4.8,2.1,4.8,4.8v16.9
			c0,2.6-2.1,4.8-4.8,4.8H0V172.3z"/>
		<path class="st1" d="M0,172.3h2.6c0.9,0,1.6-0.7,1.6-1.6v-16.9c0-0.9-0.7-1.6-1.6-1.6H0v-3.2h87.2v26.4H0V172.3z"/>
		<path class="st2" d="M4.2,170.8v-16.9c0-0.9-0.7-1.6-1.6-1.6h165.5c0.9,0,1.6,0.7,1.6,1.6v16.9c0,0.9-0.7,1.6-1.6,1.6H2.6
			C3.5,172.3,4.2,171.6,4.2,170.8z"/>
		<path class="st3" d="M4.2,170.8v-16.9c0-0.9-0.7-1.6-1.6-1.6h87.8c0.9,0,1.6,0.7,1.6,1.6v16.9c0,0.9-0.7,1.6-1.6,1.6H2.6
			C3.5,172.3,4.2,171.6,4.2,170.8z"/>
		<g>
			<path class="st4" d="M187.7,145.6h-2.4c-0.8,0-1.4-0.7-1.4-1.6v-28c0-0.9,0.6-1.6,1.4-1.6h2.4v-3.2H37c-2.4,0-4.3,2.1-4.3,4.8v28
				c0,2.6,1.9,4.8,4.3,4.8h150.6V145.6z"/>
			<path class="st5" d="M187.7,145.6h-2.4c-0.8,0-1.4-0.7-1.4-1.6v-28c0-0.9,0.6-1.6,1.4-1.6h2.4v-3.2h-78.2v37.5h78.2V145.6z"/>
			<path class="st3" d="M183.9,144v-28c0-0.9,0.6-1.6,1.4-1.6H37c-0.8,0-1.4,0.7-1.4,1.6v28c0,0.9,0.6,1.6,1.4,1.6h148.3
				C184.5,145.6,183.9,144.8,183.9,144z"/>
			<path class="st2" d="M183.9,144v-28c0-0.9,0.6-1.6,1.4-1.6h-78.6c-0.8,0-1.4,0.7-1.4,1.6v28c0,0.9,0.6,1.6,1.4,1.6h78.6
				C184.5,145.6,183.9,144.8,183.9,144z"/>
			<g>
				<rect x="36.7" y="116.5" class="st3" width="68.5" height="1.1"/>
				<rect x="36.7" y="143.2" class="st3" width="68.5" height="1.1"/>
				<rect x="36.7" y="119" class="st3" width="68.5" height="0.3"/>
				<rect x="36.7" y="126.3" class="st3" width="68.5" height="0.3"/>
				<rect x="36.7" y="133.6" class="st3" width="68.5" height="0.3"/>
				<rect x="36.7" y="136.9" class="st3" width="68.5" height="0.3"/>
				<rect x="36.7" y="120.6" class="st3" width="68.5" height="0.6"/>
				<rect x="36.7" y="123.7" class="st3" width="68.5" height="1.1"/>
				<rect x="36.7" y="127.9" class="st3" width="68.5" height="0.6"/>
				<rect x="36.7" y="140.3" class="st3" width="68.5" height="0.6"/>
				<rect x="36.7" y="131.4" class="st3" width="68.5" height="0.6"/>
			</g>
			<polygon class="st6" points="55.6,155.6 48.7,151.3 41.7,155.6 41.7,139.2 48.7,139.2 55.6,139.2 			"/>
		</g>
	</g>
	<g>
		<g>
			<path class="st7" d="M140.1,146.4c-1.1,0.5-2.3,0.6-3.5,0.5c-1.2-0.1-2.3-0.5-3.4-1.1c0.4-4.3,7.7-84.6,7.7-84.6l4.2-7.8l2.7,8.5
				C147.9,61.8,140.5,142,140.1,146.4z"/>
			<path class="st0" d="M147.9,61.8c0,0.2,0,0.3,0,0.4c-1.1,0.5-2.3,0.6-3.5,0.5c-1.2-0.1-2.3-0.5-3.4-1.1c-0.6,6.1-7.3,80-7.7,84.2
				c1,0.6,2.2,1,3.4,1.1c1.2,0.1,2.4-0.1,3.5-0.5C140.5,142,147.9,61.8,147.9,61.8L147.9,61.8z"/>
			<path class="st8" d="M147.5,62.2c-2,0.8-4.3,0.6-6.2-0.6"/>
			<path class="st7" d="M146.7,58.1c-1.3,0.5-2.8,0.4-4-0.4"/>
			<path class="st0" d="M142.7,57.9c1.1,0.5,2.3,0.7,3.6,0.5c0.1,0,0.3-0.1,0.4-0.1l-1.6-4.8L142.7,57.9z"/>
		</g>
		<g>
			<path class="st9" d="M138.7,151.5l-2.7-79.8c-1,0.2-1.8,1-1.9,2l2.6,77.8L138.7,151.5z"/>
			<path class="st10" d="M132.1,151.7l4.6-0.2l-2.6-77.8v0c0,0,0,0,0,0l0,0c-0.2-1.1-1.2-1.9-2.4-1.9c-1.2,0-2.1,0.9-2.2,2.1
				c0,0,0,0,0,0c0,0,0,0,0,0l0,0L132.1,151.7z"/>
			<path class="st9" d="M129.5,73.9c-0.2-1-1-1.8-2-1.9l2.7,79.8l1.9-0.1L129.5,73.9z"/>
			<path class="st7" d="M127.5,72c1,0.1,1.8,0.9,2,1.9v0c0,0,0,0,0,0c0,0,0,0,0,0c0.1-1.1,1-2,2.2-2c1.2,0,2.2,0.8,2.4,1.9l0,0
				c0,0,0,0,0,0v0c0.1-1,0.9-1.8,1.9-2l-4.4-5.1L127.5,72z"/>
			<path class="st9" d="M133.7,69.1l-2.2-2.5l-2,2.7c0.7,0.1,1.4,0.2,2.1,0.2C132.3,69.4,133,69.3,133.7,69.1z"/>
			<g>
				
					<rect x="136.8" y="151.5" transform="matrix(0.9994 -3.363504e-02 3.363504e-02 0.9994 -5.0604 4.719)" class="st11" width="1.9" height="2.5"/>
				
					<rect x="132.2" y="151.6" transform="matrix(0.9994 -3.416378e-02 3.416378e-02 0.9994 -5.1443 4.6833)" class="st12" width="4.6" height="2.5"/>
				
					<rect x="130.3" y="151.7" transform="matrix(0.9994 -3.367529e-02 3.367529e-02 0.9994 -5.0775 4.5055)" class="st11" width="1.9" height="2.5"/>
			</g>
		</g>
		<g>
			<path class="st13" d="M105.6,83.5l25.2,75.7c0.9-0.5,1.4-1.5,1.2-2.5l-24.6-73.9L105.6,83.5z"/>
			<path class="st14" d="M111.7,81.4l-4.4,1.4l24.6,73.9l0,0c0,0,0,0,0,0s0,0,0,0c0.5,1,1.7,1.5,2.8,1.2c1.1-0.4,1.8-1.5,1.5-2.6
				c0,0,0,0,0,0c0,0,0,0,0,0l0,0L111.7,81.4z"/>
			<path class="st13" d="M136.3,155.3c0.4,0.9,1.4,1.4,2.4,1.2l-25.2-75.7l-1.8,0.6L136.3,155.3z"/>
			<path class="st7" d="M138.8,156.6c-1,0.2-2-0.3-2.5-1.2v0c0,0,0,0,0,0c0,0,0,0,0,0c0.2,1.1-0.4,2.2-1.5,2.6
				c-1.1,0.4-2.3-0.1-2.8-1.2c0,0,0,0,0,0s0,0,0,0l0,0c0.2,1-0.3,2-1.2,2.5l5.7,3.7L138.8,156.6z"/>
			<path class="st15" d="M133.6,161.1l2.8,1.8l1.2-3.1c-0.7,0.1-1.4,0.2-2,0.4C134.8,160.4,134.2,160.7,133.6,161.1z"/>
			<g>
				
					<rect x="105.1" y="80.7" transform="matrix(0.9487 -0.3161 0.3161 0.9487 -20.474 37.7369)" class="st16" width="1.9" height="2.5"/>
				
					<rect x="106.9" y="79.7" transform="matrix(0.949 -0.3153 0.3153 0.949 -19.9545 38.5522)" class="st17" width="4.6" height="2.5"/>
				
					<rect x="111.3" y="78.7" transform="matrix(0.949 -0.3152 0.3152 0.949 -19.4658 39.4529)" class="st16" width="1.9" height="2.5"/>
			</g>
		</g>
		<g>
			<g>
				<path class="st18" d="M135.7,129.5c-1.9,1.1-2.8,4.4-2.2,8.1l-0.5,0.1l0,0l-1.8-7.9c0.3-0.2,0.5-0.5,0.4-0.8
					c-0.1-0.4-0.5-0.7-0.9-0.6c-0.4,0.1-0.7,0.5-0.6,0.9c0.1,0.3,0.4,0.6,0.7,0.6l1.8,7.9l0,0l-0.5,0.1c-1.1-3.6-3.3-6.2-5.4-6.4
					c0-1.3,0-2.7-0.2-4.2c-0.2-1.5-0.5-2.9-0.8-4.1c1.2-0.1,2.4-0.2,3.8-0.5c1.3-0.3,2.6-0.7,3.6-1.1c0.2,1.3,0.5,2.7,1,4.1
					C134.6,127,135.1,128.3,135.7,129.5z"/>
				<path class="st17" d="M133.9,137.8l-1,0.2l0,0l-0.2,0.1l-0.8,0.2l-0.1-0.3c-1-3.5-3.1-6-5.2-6.2l-0.3,0l0-0.3
					c0.1-1.4,0-2.8-0.2-4.2c-0.2-1.4-0.4-2.8-0.8-4.1l-0.1-0.4l0.4,0c1.2-0.1,2.5-0.3,3.7-0.5c1.3-0.3,2.5-0.7,3.6-1.1l0.4-0.1
					l0.1,0.4c0.2,1.3,0.5,2.7,1,4c0.4,1.4,1,2.7,1.6,3.9l0.1,0.3l-0.3,0.1c-1.8,1-2.6,4.2-2.1,7.8L133.9,137.8z M131.6,129.8
					l1.5,6.7c-0.3-3.2,0.6-6,2.2-7.1c-0.6-1.2-1.1-2.4-1.5-3.7c-0.4-1.3-0.7-2.5-1-3.7c-1,0.4-2.2,0.7-3.3,1
					c-1.2,0.3-2.3,0.4-3.4,0.5c0.3,1.2,0.6,2.5,0.7,3.8c0.2,1.4,0.2,2.7,0.2,4c2,0.3,3.9,2.5,5,5.5l-1.5-6.6
					c-0.4-0.1-0.7-0.4-0.7-0.8c-0.1-0.6,0.2-1.2,0.8-1.3c0.6-0.1,1.2,0.2,1.3,0.8C132,129.2,131.9,129.6,131.6,129.8z M130.7,128.6
					c-0.2,0.1-0.3,0.3-0.3,0.5c0,0.2,0.2,0.4,0.4,0.4l0.1,0l0.1-0.1c0.2-0.1,0.3-0.3,0.2-0.5C131.3,128.7,131,128.5,130.7,128.6
					C130.8,128.6,130.7,128.6,130.7,128.6z"/>
			</g>
			<path class="st19" d="M118.3,87.6c-1.6-7,4.8-8.4,6.3-1.4c2.8,11.8,5.6,23.6,8.4,35.4c-2.4,0.5-4.9,1.1-7.3,1.6
				C123.2,111.2,120.8,99.3,118.3,87.6z"/>
			<polygon class="st11" points="125.6,123.2 133.2,121.5 133.4,122.6 125.9,124.3 			"/>
			<path class="st20" d="M118.9,96.6l-5.8-26.1c-0.4-2,0.7-4,2.5-4.4l2.3-0.5c1.8-0.4,3.7,0.9,4.1,2.9l5.8,26.1L118.9,96.6z"/>
			<path class="st19" d="M112.7,71.1l8.5-2c1.6-0.4,3.3,0.7,3.6,2.3l3.2,13.9l0.3,1.6l0.8,3.4c-1.1-0.1-1.8-0.9-2-1.9
				c-0.1-0.5,0-0.9,0.3-1.1l-3.5-15.6c-0.2-0.9-1.1-1.4-2-1.2l-8.9,2c-0.4,0.1-0.8-0.2-0.8-0.5C112.1,71.5,112.3,71.2,112.7,71.1z"
				/>
		</g>
		<g>
			<path class="st21" d="M116.1,118.4v54.3c0,1.5,1.2,2.7,2.7,2.7h27.4c1.5,0,2.7-1.2,2.7-2.7v-54.3H116.1z"/>
		</g>
	</g>
	<g>
		<path class="st5" d="M342.6,129.2h2.6c0.9,0,1.6-0.7,1.6-1.6v-16.9c0-0.9-0.7-1.6-1.6-1.6h-2.6V106h168.1c2.6,0,4.8,2.1,4.8,4.8
			v16.9c0,2.6-2.1,4.8-4.8,4.8H342.6V129.2z"/>
		<path class="st4" d="M342.6,129.2h2.6c0.9,0,1.6-0.7,1.6-1.6v-16.9c0-0.9-0.7-1.6-1.6-1.6h-2.6V106h87.2v26.4h-87.2V129.2z"/>
		<path class="st3" d="M346.8,127.6v-16.9c0-0.9-0.7-1.6-1.6-1.6h165.5c0.9,0,1.6,0.7,1.6,1.6v16.9c0,0.9-0.7,1.6-1.6,1.6H345.2
			C346.1,129.2,346.8,128.5,346.8,127.6z"/>
		<g>
			<path class="st22" d="M502,102.8c-0.8,0-1.7,0-2.5,0c-0.8,0-1.5-0.7-1.6-1.6c-0.1-5.6-0.1-11.3,0-17c0-0.9,0.7-1.6,1.6-1.6
				c0.8,0,1.7,0,2.5,0c0-1.1,0-2.1,0-3.2c-33.9,0-67.8,0-101.6,0c-2.4,0-6.2,1.7-7.6,4.3c-2.9,5.5-2.9,12.3,0,17.8
				c1.3,2.6,5.1,4.3,7.6,4.3c33.9,0,67.8,0,101.6,0C502,104.9,502,103.9,502,102.8z"/>
			<path class="st23" d="M497.9,101.2c-0.1-5.6-0.1-11.3,0-17c0-0.9,0.7-1.6,1.6-1.6c-33.7-0.1-67.5-0.2-101.2-0.4
				c-0.8,0-1.9,0.7-2.4,1.5c-2.8,5.5-2.8,12.3,0,17.8c0.4,0.9,1.5,1.5,2.4,1.5c33.7-0.1,67.5-0.2,101.2-0.4
				C498.6,102.8,497.9,102.1,497.9,101.2z"/>
		</g>
		<path class="st24" d="M346.8,127.6v-16.9c0-0.9-0.7-1.6-1.6-1.6H433c0.9,0,1.6,0.7,1.6,1.6v16.9c0,0.9-0.7,1.6-1.6,1.6h-87.8
			C346.1,129.2,346.8,128.5,346.8,127.6z"/>
		<rect x="355.3" y="132.9" class="st22" width="180.3" height="40.2"/>
		<rect x="355.3" y="132.9" class="st25" width="180.3" height="19.6"/>
		<rect x="493.2" y="132.9" class="st26" width="28" height="40.2"/>
		<rect x="493.2" y="132.9" class="st24" width="28" height="19.6"/>
	</g>
	<g>
		<path class="st27" d="M410.8,0H149.3c-1.5,0-2.7,1.2-2.7,2.7v16.7h266.8V2.7C413.5,1.2,412.3,0,410.8,0z"/>
		<path class="st28" d="M413.6,2.7c0-1.5-1.2-2.7-2.7-2.7H149.4c-1.5,0-2.7,1.2-2.7,2.7v153.5h-0.1v16.7c0,1.5,1.2,2.7,2.7,2.7
			h261.5c1.5,0,2.7-1.2,2.7-2.7v-2.1h0.1V2.7z"/>
		<g>
			<path class="st29" d="M153.2,5.4c0,0.9-0.8,1.7-1.7,1.7c-0.9,0-1.7-0.8-1.7-1.7s0.8-1.7,1.7-1.7C152.4,3.7,153.2,4.4,153.2,5.4z"
				/>
			<path class="st29" d="M158.2,5.4c0,0.9-0.8,1.7-1.7,1.7c-0.9,0-1.7-0.8-1.7-1.7s0.8-1.7,1.7-1.7C157.4,3.7,158.2,4.4,158.2,5.4z"
				/>
			<path class="st29" d="M163.2,5.4c0,0.9-0.8,1.7-1.7,1.7c-0.9,0-1.7-0.8-1.7-1.7s0.8-1.7,1.7-1.7C162.4,3.7,163.2,4.4,163.2,5.4z"
				/>
		</g>
		<rect x="170.4" y="9.5" class="st3" width="220" height="7.4"/>
		<g>
			<g>
				<polygon class="st29" points="152.1,15.5 149.4,12.9 152.1,10.2 153.1,11.2 151.4,12.9 153.1,14.5 				"/>
			</g>
			<g>
				<rect x="151" y="12.2" class="st29" width="5" height="1.4"/>
			</g>
		</g>
		<g>
			<g>
				<polygon class="st29" points="163.5,15.5 162.5,14.5 164.2,12.9 162.5,11.2 163.5,10.2 166.1,12.9 				"/>
			</g>
			<g>
				<rect x="159.6" y="12.2" class="st29" width="5" height="1.4"/>
			</g>
		</g>
		<rect x="146.6" y="19.5" class="st30" width="266.8" height="7.1"/>
		<rect x="146.6" y="27" class="st10" width="266.8" height="15.4"/>
		<g>
			<rect x="151" y="22.3" class="st31" width="15" height="1.2"/>
		</g>
		<g>
			<rect x="170.2" y="22.3" class="st31" width="15" height="1.2"/>
		</g>
		<g>
			<rect x="189.5" y="22.3" class="st31" width="15" height="1.2"/>
		</g>
		<g>
			<rect x="208.7" y="22.3" class="st31" width="15" height="1.2"/>
		</g>
		<g>
			<rect x="227.9" y="22.3" class="st31" width="15" height="1.2"/>
		</g>
		<g>
			<rect x="247.2" y="22.3" class="st31" width="15" height="1.2"/>
		</g>
		<rect x="151.7" y="31.2" class="st3" width="159.2" height="7.4"/>
		<rect x="313.9" y="31.2" class="st30" width="21.6" height="7.4"/>
		<g>
			<g>
				<rect x="179" y="54.1" class="st6" width="39.7" height="2.4"/>
			</g>
			<g>
				<rect x="179" y="58.3" class="st32" width="25.5" height="1.8"/>
			</g>
			<g>
				<rect x="207.2" y="58.3" class="st32" width="14" height="1.8"/>
			</g>
			<g>
				<rect x="224.3" y="58.3" class="st32" width="14" height="1.8"/>
			</g>
			<g>
				<rect x="241.5" y="58.3" class="st32" width="14" height="1.8"/>
			</g>
			<g>
				<rect x="257.9" y="58.3" class="st32" width="20" height="1.8"/>
			</g>
			<g>
				<rect x="281.1" y="58.3" class="st32" width="14" height="1.8"/>
			</g>
			<g>
				<rect x="178.8" y="62.4" class="st32" width="8.8" height="1.8"/>
			</g>
			<g>
				<rect x="189.6" y="62.4" class="st32" width="4.6" height="1.8"/>
			</g>
			<g>
				<rect x="198.5" y="62.4" class="st32" width="20.7" height="1.8"/>
			</g>
			<g>
				<rect x="308.6" y="62.4" class="st32" width="14" height="1.8"/>
			</g>
			<g>
				<rect x="231.6" y="62.4" class="st32" width="27.2" height="1.8"/>
			</g>
			<g>
				<rect x="221.1" y="62.4" class="st32" width="8.5" height="1.8"/>
			</g>
			<g>
				<rect x="259.8" y="62.4" class="st32" width="5.8" height="1.8"/>
			</g>
			<g>
				<rect x="268" y="62.4" class="st32" width="31.8" height="1.8"/>
			</g>
			<g>
				<rect x="301.3" y="62.4" class="st32" width="5.8" height="1.8"/>
			</g>
			<g>
				<rect x="178.8" y="66.4" class="st32" width="12.4" height="1.8"/>
			</g>
			<g>
				<rect x="192.4" y="66.4" class="st32" width="7" height="1.8"/>
			</g>
			<g>
				<rect x="201.1" y="66.4" class="st32" width="26.3" height="1.8"/>
			</g>
			<g>
				<rect x="229" y="66.4" class="st32" width="4.4" height="1.8"/>
			</g>
			<g>
				<rect x="235.1" y="66.4" class="st32" width="11.2" height="1.8"/>
			</g>
		</g>
		<g>
			<rect x="178.8" y="71.9" class="st33" width="59.6" height="29.5"/>
			<rect x="178.8" y="101.5" class="st34" width="59.6" height="6.5"/>
			<rect x="183.6" y="104.4" class="st23" width="45.5" height="0.9"/>
			<rect x="183.6" y="104.4" class="st35" width="14.7" height="0.9"/>
			<g>
				<path class="st35" d="M180.6,105.9c-0.1,0-0.2-0.1-0.2-0.2v-1.8c0-0.1,0.1-0.2,0.2-0.2c0,0,0.1,0,0.1,0l1.6,0.9
					c0.1,0,0.1,0.1,0.1,0.2c0,0.1,0,0.2-0.1,0.2l-1.6,0.9C180.7,105.9,180.7,105.9,180.6,105.9L180.6,105.9z M180.6,103.8
					C180.6,103.8,180.6,103.8,180.6,103.8l0,1.8c0,0,0,0,0,0c0,0,0,0,0,0l1.6-0.9c0,0,0,0,0,0c0,0,0,0,0,0L180.6,103.8
					C180.6,103.8,180.6,103.8,180.6,103.8L180.6,103.8z"/>
			</g>
			<g>
				<g>
					<g>
						<rect x="232.5" y="103.5" class="st35" width="0.2" height="2.5"/>
					</g>
				</g>
				<rect x="231.9" y="104" class="st35" width="0.2" height="2"/>
				<rect x="231.3" y="104.5" class="st35" width="0.2" height="1.5"/>
				<rect x="230.6" y="105" class="st35" width="0.2" height="1"/>
			</g>
			<g>
				<g>
					<path class="st35" d="M236.5,106h-2.3c-0.1,0-0.1,0-0.1-0.1v-2.3c0-0.1,0-0.1,0.1-0.1h1.1c0.1,0,0.1,0,0.1,0.1
						c0,0.1,0,0.1-0.1,0.1h-1v2h2v-1c0-0.1,0-0.1,0.1-0.1c0.1,0,0.1,0,0.1,0.1v1.1C236.6,106,236.6,106,236.5,106L236.5,106z"/>
				</g>
				<g>
					<g>
						<path class="st35" d="M236.5,104.4c-0.1,0-0.1,0-0.1-0.1v-0.5h-0.5c-0.1,0-0.1,0-0.1-0.1c0-0.1,0-0.1,0.1-0.1l0,0h0.6
							c0.1,0,0.1,0,0.1,0.1v0.6C236.6,104.3,236.6,104.4,236.5,104.4L236.5,104.4L236.5,104.4z"/>
					</g>
					<g>
						<path class="st35" d="M235.5,104.7C235.5,104.7,235.5,104.7,235.5,104.7c-0.1-0.1-0.1-0.1-0.1-0.2l0.9-0.9c0,0,0.1,0,0.1,0
							c0,0,0,0.1,0,0.1L235.5,104.7C235.6,104.7,235.6,104.7,235.5,104.7L235.5,104.7z"/>
					</g>
				</g>
			</g>
			<g>
				<path class="st3" d="M205.9,90.3c-0.4,0-0.7-0.3-0.7-0.8v-6.2c0-0.5,0.3-0.8,0.7-0.8c0.2,0,0.3,0,0.5,0.1l5.4,3.1
					c0.3,0.2,0.5,0.4,0.5,0.7c0,0.3-0.2,0.5-0.5,0.7l-5.4,3.1C206.2,90.2,206,90.3,205.9,90.3L205.9,90.3z M205.9,83.2
					c0,0,0,0,0,0.1v6.2c0,0.1,0,0.1,0,0.1c0,0,0,0,0.1,0l5.4-3.1c0,0,0.1-0.1,0.1-0.1c0,0,0,0-0.1-0.1L205.9,83.2
					C205.9,83.2,205.9,83.2,205.9,83.2L205.9,83.2z"/>
			</g>
		</g>
		<g>
			<rect x="157.5" y="54.6" class="st36" width="15" height="15"/>
			<g>
				<path class="st37" d="M172.5,65.7c-0.3-0.4-1.2-0.7-2.3-0.8c-3.5-0.4-7-0.4-10.6,0c-0.9,0.1-1.7,0.3-2.1,0.7v4.1h15V65.7z"/>
				<path class="st38" d="M172.5,65.7c-0.3-0.4-1.2-0.7-2.3-0.8c-1.8-0.2-3.7-0.3-5.5-0.3L163,67l3.8,2.6h5.6V65.7z"/>
				<path class="st36" d="M167.2,65.7c-0.1,1.1-1.2,1.8-2.4,1.8l0,0c-1.3,0-2.4-0.8-2.4-1.8c0-0.5-0.1-1.1-0.1-1.6
					c-0.1-1.1,1.1-2.1,2.5-2.1l0,0c1.5,0,2.6,1,2.5,2.1C167.3,64.6,167.2,65.2,167.2,65.7z"/>
				<path class="st39" d="M165.6,62.1c-0.6,0.3-1.1,1.3-1,2.6c0,0.8,0,1.5,0,2.3c0,0.2,0,0.4,0,0.5c0.1,0,0.1,0,0.2,0
					c1.3,0,2.4-0.8,2.4-1.8c0-0.3,0-0.6,0.1-0.9c0-0.6,0-1.2-0.2-1.7C166.8,62.7,166.2,62.3,165.6,62.1z"/>
				<path class="st40" d="M164.8,56.4L164.8,56.4C164.8,56.4,164.8,56.4,164.8,56.4L164.8,56.4L164.8,56.4c-2.7,0-3.4,1.8-3.2,4.9
					c0.1,1.2,0.4,2.1,0.6,2.8c0.1,0.2,1.4,1.8,1.9,1.8c0.2,0,0.5,0.1,0.8,0.1c0.3,0,0.6-0.1,0.8-0.1c0.4,0,1.8-1.6,1.9-1.8
					c0.3-0.7,0.6-1.6,0.6-2.8C168.1,58.2,167.2,56.3,164.8,56.4z"/>
				<path class="st36" d="M162.3,62.1c0,0.3-0.2,0.6-0.4,0.6l0,0c-0.2,0-0.4-0.2-0.4-0.5c0-0.5-0.1-1.1-0.1-1.6
					c0-0.3,0.2-0.6,0.4-0.7l0,0c0.2,0,0.4,0.2,0.4,0.5C162.3,61.1,162.3,61.6,162.3,62.1z"/>
				<path class="st36" d="M167.9,62.2c0,0.3-0.2,0.6-0.4,0.5l0,0c-0.2,0-0.4-0.3-0.4-0.6c0-0.5,0-1,0.1-1.6c0-0.3,0.2-0.6,0.4-0.5
					l0,0c0.2,0,0.4,0.3,0.4,0.7C168,61.2,168,61.7,167.9,62.2z"/>
				<path class="st41" d="M167.3,60.7c-0.1-1.4,0.1-2.7,0.1-2.7c0,0-1.3-0.7-2.4-0.7c-0.1,0-0.2,0-0.4,0.1c-0.1-0.1-0.3-0.1-0.4-0.1
					c-1,0-2.4,0.6-2.4,0.7c0,0,0.2,1.3,0.1,2.7c-0.1,1.4-0.3,2.7,0.2,3c0.5,0.4,1.3,1.3,2.3,1.4c0,0,0,0,0.1,0c0,0,0,0,0.1,0
					c1.1,0,1.9-1,2.3-1.3C167.6,63.3,167.4,62.1,167.3,60.7z"/>
				<path class="st36" d="M167.7,58c0,0-1.5-0.7-2.6-0.7c-0.1,0-0.2,0-0.3,0.1c0,2.6,0,5.1,0,7.7c1.2-0.1,2-1,2.6-1.3
					c0.5-0.4,0.3-1.6,0.2-3C167.5,59.3,167.7,58,167.7,58z"/>
				<g>
					<path class="st40" d="M161.7,60.6c0,0-0.3-3-0.5-3.3c-0.2-0.3,2.6-0.9,3.4-0.9c0.8,0,1.6,0.2,2.1,0.3c0.5,0.1-1.8,1.9-1.8,1.9
						c0.1-0.2,0.1-0.3,0.2-0.5c-0.2,0.1-0.4,0.3-0.5,0.4c-0.7-0.2-1.4-0.3-2.2-0.5c0,0.4,0,0.8,0,1.2c-0.1,0.2-0.3,0.4-0.4,0.6
						c0,0.3-0.1,0.5-0.1,0.8C161.8,60.6,161.8,60.6,161.7,60.6z"/>
					<path class="st40" d="M167.8,60.6c0,0,0.4-3,0.5-3.3c0.1-0.4-2.6-0.9-3.4-0.9c-0.8,0-1.5,0.2-2,0.3c-0.3,0,2.4-0.1,3.2,0.4
						c0.3,0.2-0.8,1.4-0.8,1.4c0.6-0.2,1.2-0.3,1.8-0.5c0,0.4,0,0.8,0,1.2c0.1,0.2,0.3,0.4,0.4,0.6c0,0.3,0.1,0.5,0.1,0.8
						C167.6,60.6,167.7,60.6,167.8,60.6z"/>
				</g>
				<g>
					<g>
						<g>
							<path class="st40" d="M162.9,62L162.9,62c-0.3,0-0.7-0.1-0.9-0.4c-0.2-0.2-0.3-0.5-0.3-0.7l0-0.2c0-0.1,0-0.1,0-0.2l0-0.1
								l0.1,0c0.7-0.2,1.4-0.3,2.1-0.1v0c0.1,0,0.5,0.2,0.5,0.4l0,0.2c0,0.3-0.1,0.5-0.3,0.7c-0.2,0.2-0.5,0.4-0.9,0.4L162.9,62z
								 M162,60.5C162,60.6,162,60.6,162,60.5l0,0.3c0,0.2,0.1,0.4,0.2,0.5c0.2,0.2,0.4,0.3,0.7,0.3l0.4,0c0.3,0,0.5-0.1,0.7-0.3
								c0.1-0.1,0.2-0.3,0.2-0.5l0-0.2c0,0-0.2-0.1-0.2-0.1l0,0C163.3,60.3,162.6,60.4,162,60.5z"/>
						</g>
						<g>
							<path class="st40" d="M166.4,62L166.4,62c-0.3,0-0.7-0.1-0.9-0.4c-0.2-0.2-0.3-0.5-0.3-0.7c0-0.1,0-0.1,0-0.2l0,0
								c0-0.1,0-0.1,0-0.2l0-0.1l0.1,0c0.7-0.2,1.4-0.3,2.1-0.1v0c0.1,0,0.5,0.2,0.5,0.4l0,0.2c0,0.3-0.1,0.5-0.3,0.7
								c-0.2,0.2-0.5,0.4-0.9,0.4L166.4,62z M165.5,60.5C165.5,60.6,165.5,60.6,165.5,60.5l0,0.1c0,0.1,0,0.1,0,0.2
								c0,0.2,0.1,0.4,0.2,0.5c0.2,0.2,0.4,0.3,0.7,0.3l0.4,0c0.3,0,0.5-0.1,0.7-0.3c0.1-0.1,0.2-0.3,0.2-0.5l0-0.2
								c0,0-0.2-0.1-0.2-0.1l0,0C166.8,60.3,166.1,60.4,165.5,60.5z"/>
						</g>
					</g>
					<rect x="164.2" y="60.6" class="st40" width="1.2" height="0.5"/>
				</g>
				<path class="st40" d="M166.2,63.3c-0.1-0.2-0.6-0.4-1.2-0.4c0,0-0.2,0.1-0.2,0.1c0,0-0.2-0.1-0.2-0.1c-0.6,0-1,0.2-1.2,0.4
					c-0.8,1.6-1.2,0.2-1.5-0.3c0.6,1.5,1.2,2.6,2.9,2.8c0,0,0,0,0.1,0c0,0,0.5-0.1,0.5-0.1c1,0,1.8-1.3,2.4-2.7
					C167.4,63.5,167,64.9,166.2,63.3z"/>
				<g>
					<path class="st41" d="M164.2,63.6C164.1,63.6,164.1,63.7,164.2,63.6c0,0.3,0.2,0.5,0.4,0.5h0.5c0.2,0,0.4-0.2,0.4-0.4
						c0,0,0-0.1,0-0.1H164.2z"/>
				</g>
			</g>
		</g>
		<g>
			<g>
				<rect x="200.1" y="113.7" class="st42" width="39.7" height="2.4"/>
			</g>
			<g>
				<rect x="200.1" y="117.8" class="st32" width="25.5" height="1.8"/>
			</g>
			<g>
				<rect x="228.2" y="117.8" class="st32" width="14" height="1.8"/>
			</g>
			<g>
				<rect x="245.4" y="117.8" class="st32" width="14" height="1.8"/>
			</g>
			<g>
				<rect x="262.6" y="117.8" class="st32" width="14" height="1.8"/>
			</g>
			<g>
				<rect x="279" y="117.8" class="st32" width="20" height="1.8"/>
			</g>
			<g>
				<rect x="302.2" y="117.8" class="st32" width="14" height="1.8"/>
			</g>
			<g>
				<rect x="199.9" y="121.9" class="st32" width="8.8" height="1.8"/>
			</g>
			<g>
				<rect x="210.7" y="121.9" class="st32" width="4.6" height="1.8"/>
			</g>
			<g>
				<rect x="219.6" y="121.9" class="st32" width="20.7" height="1.8"/>
			</g>
			<g>
				<rect x="329.7" y="121.9" class="st32" width="14" height="1.8"/>
			</g>
			<g>
				<rect x="252.6" y="121.9" class="st32" width="27.2" height="1.8"/>
			</g>
			<g>
				<rect x="242.1" y="121.9" class="st32" width="8.5" height="1.8"/>
			</g>
			<g>
				<rect x="280.9" y="121.9" class="st32" width="5.8" height="1.8"/>
			</g>
			<g>
				<rect x="289.1" y="121.9" class="st32" width="31.8" height="1.8"/>
			</g>
			<g>
				<rect x="322.3" y="121.9" class="st32" width="5.8" height="1.8"/>
			</g>
			<g>
				<rect x="199.9" y="125.9" class="st32" width="12.4" height="1.8"/>
			</g>
			<g>
				<rect x="213.5" y="125.9" class="st32" width="7" height="1.8"/>
			</g>
			<g>
				<rect x="222.2" y="125.9" class="st32" width="26.3" height="1.8"/>
			</g>
			<g>
				<rect x="250.1" y="125.9" class="st32" width="4.4" height="1.8"/>
			</g>
			<g>
				<rect x="256.2" y="125.9" class="st32" width="11.2" height="1.8"/>
			</g>
		</g>
		<g>
			<rect x="179.2" y="114.2" class="st1" width="14.3" height="14.3"/>
			<g>
				<path class="st6" d="M182.7,124.2c-0.9,0.1-1.7,0.4-1.7,0.9l-0.4,3.4h11.7l-0.4-3.4c-0.1-0.5-0.8-0.8-1.7-0.9
					C187.7,123.7,185.2,123.7,182.7,124.2z"/>
				<path class="st43" d="M186.3,123.8c-0.9,0-1.8,0.1-2.7,0.2c0,0,0,0.1,0,0.1c-1.2,3,2.1,3.1,2.7,3.9V123.8z"/>
				<path class="st43" d="M186.3,123.8c0.9,0,1.8,0.1,2.7,0.2c0,0,0,0.1,0,0.1c1.1,3-2.1,3.1-2.7,3.9V123.8z"/>
				<path class="st44" d="M182.9,120.8c0.5,2.6,0.5,2,2.5,2.4c1.3,0.2,2.4-1.6,2.4-3.6c0-2-1.4-4.2-2.6-3.8
					C183,116.6,182.6,118.8,182.9,120.8z"/>
				<path class="st45" d="M187.8,119.5c0-1.2-0.5-2.4-1.2-3.2c-0.3-0.2-0.6-0.2-0.9-0.1c-2.6,1.4-2.6,3-2.2,4.9
					c0.2,0.9,0.3,1.4,0.4,1.7c0.3,0.1,0.8,0.1,1.6,0.2C186.7,123.3,187.8,121.5,187.8,119.5z"/>
				<path class="st44" d="M189.8,120.8c-0.5,2.6-0.5,2-2.5,2.4c-1.3,0.2-2.4-1.6-2.4-3.6c0-2,1.5-4.4,2.6-3.8
					C190.1,117.3,190.2,118.8,189.8,120.8z"/>
				<path class="st45" d="M189.4,121.3c-0.4,2.1-0.4,1.6-2.3,1.9c-1.2,0.2-2.2-1.3-2.2-2.9c0-1.6,1.3-3.6,2.4-3
					C189.7,118.4,189.7,119.7,189.4,121.3z"/>
				<path class="st45" d="M187.1,116.7c-0.5-0.3-1.1,0.1-1.6,0.8c-0.3,0.7-0.5,1.4-0.5,2.2c0,2,1.1,3.8,2.3,3.5
					c0.9-0.2,1.4-0.1,1.7-0.3c0.1-0.3,0.2-0.7,0.3-1.2C189.6,119.6,189.6,118.1,187.1,116.7z"/>
				<path class="st43" d="M187.9,122.9c0,0,0-0.1,0-0.1c-1-0.4-2-0.4-3,0c0,0,0,0.1,0,0.1c0,1.6,0.7,2.9,1.5,2.9
					C187.3,125.7,187.9,124.5,187.9,122.9z"/>
				<path class="st46" d="M187.9,122.9c0,0,0-0.1,0-0.1c-0.3-0.1-0.6-0.2-1-0.3c-0.3,0.1-0.7,0.2-1,0.4c0,0.1,0,0.1,0,0.2
					c0,1.1,0.2,2,0.5,2.7c0,0,0,0,0,0C187.3,125.7,187.9,124.5,187.9,122.9z"/>
				<path class="st46" d="M186.4,115.6c-1.8-0.1-3.4,1.7-2.9,4.3c0.5,2.6,1.7,3.7,2.9,3.7c1.3,0,2.5-1.2,2.9-3.7
					C189.8,117.3,188.2,115.5,186.4,115.6z"/>
				<g>
					<g>
						<g>
							<path class="st46" d="M184,120.8c0.1,0.6,0,1-0.1,1.1c-0.2,0.1-0.4-0.3-0.6-0.9c-0.2-0.6-0.1-1.2,0.1-1.2
								C183.7,119.6,183.9,120.1,184,120.8z"/>
						</g>
					</g>
					<g>
						<g>
							<path class="st46" d="M188.8,120.8c-0.1,0.6,0,1,0.1,1.1c0.2,0.1,0.4-0.3,0.6-0.9c0.2-0.6,0.1-1.2-0.1-1.2
								C189.2,119.6,188.9,120.1,188.8,120.8z"/>
						</g>
					</g>
				</g>
				<path class="st43" d="M188.9,120.3c-0.4,2.1-1.5,3.1-2.6,3.1c-1.1,0-2.2-1-2.6-3.1c-0.4-2.2,1-3.6,2.6-3.5
					C187.9,116.7,189.3,118.2,188.9,120.3z"/>
				<path class="st45" d="M189.6,118.1c-0.4-1.5-1.6-2.4-3-2.5c-0.1,0.3-0.2,0.7-0.2,1.1c0,1.5,2.4,1.3,2.9,3
					C189.4,119.7,189.8,119.4,189.6,118.1z"/>
				<path class="st44" d="M186.4,116.7c-1.5-0.1-2.9,1.2-2.7,3.2c0.5,0.2,1.1,0.2,1.8,0.2c0.3,0,0.5,0,0.8,0l0.1-0.1l0.6-1l-0.3,1
					c0.1,0,0.1,0,0.2,0l0.2-0.3l0.8-1.4l0.5,1.1c0,0,0.5-0.3,0.7-0.5C188.8,117.5,187.7,116.6,186.4,116.7z"/>
				<path class="st44" d="M183.2,120C183.2,120,183.2,120,183.2,120c0.3,0.1,0.6,0.1,0.9,0.1c2.2,0,4.1-1.4,4.1-3.2
					c0-0.3-0.1-0.6-0.2-0.9c-0.5-0.3-1-0.4-1.6-0.4C184.5,115.5,182.7,117.3,183.2,120z"/>
				<path class="st45" d="M188.2,117.3c-0.1,0.4-0.2,0.8-0.4,1.1l0.6,1.1c0,0,0.6-0.3,0.8-0.5C189,118.2,188.7,117.7,188.2,117.3z"
					/>
				<path class="st44" d="M188.4,117.7c0.5,0.4,0.9,1.1,1.1,1.9c0.1-0.2,0.3-0.6,0.1-1.5c-0.2-0.8-0.7-1.6-1.5-2.1
					c0.1,0.2,0.4,0.5,0.4,0.7C188.5,117.1,188.5,117.4,188.4,117.7z"/>
				<path class="st45" d="M189.5,122.2c0-0.2,0.1-0.5,0.2-0.8c0.3-1.6,0.3-3-1.1-4.2c0,0.1-0.1,0.1-0.1,0.2c1.4,1.2,1.5,2.2,1.2,4.2
					C189.5,121.9,189.4,122.3,189.5,122.2z"/>
			</g>
		</g>
		<g>
			<g>
				<rect x="200.1" y="137.7" class="st42" width="39.7" height="2.4"/>
			</g>
			<g>
				<rect x="200.1" y="141.8" class="st32" width="25.5" height="1.8"/>
			</g>
			<g>
				<rect x="228.2" y="141.8" class="st32" width="14" height="1.8"/>
			</g>
			<g>
				<rect x="245.4" y="141.8" class="st32" width="14" height="1.8"/>
			</g>
			<g>
				<rect x="262.6" y="141.8" class="st32" width="14" height="1.8"/>
			</g>
			<g>
				<rect x="279" y="141.8" class="st32" width="20" height="1.8"/>
			</g>
			<g>
				<rect x="302.2" y="141.8" class="st32" width="14" height="1.8"/>
			</g>
			<g>
				<rect x="199.9" y="146" class="st32" width="8.8" height="1.8"/>
			</g>
			<g>
				<rect x="210.7" y="146" class="st32" width="4.6" height="1.8"/>
			</g>
			<g>
				<rect x="219.6" y="146" class="st32" width="20.7" height="1.8"/>
			</g>
			<g>
				<rect x="329.7" y="146" class="st32" width="14" height="1.8"/>
			</g>
			<g>
				<rect x="252.6" y="146" class="st32" width="27.2" height="1.8"/>
			</g>
			<g>
				<rect x="242.1" y="146" class="st32" width="8.5" height="1.8"/>
			</g>
			<g>
				<rect x="280.9" y="146" class="st32" width="5.8" height="1.8"/>
			</g>
			<g>
				<rect x="289.1" y="146" class="st32" width="31.8" height="1.8"/>
			</g>
			<g>
				<rect x="322.3" y="146" class="st32" width="5.8" height="1.8"/>
			</g>
			<g>
				<rect x="199.9" y="150" class="st32" width="12.4" height="1.8"/>
			</g>
			<g>
				<rect x="213.5" y="150" class="st32" width="7" height="1.8"/>
			</g>
			<g>
				<rect x="222.2" y="150" class="st32" width="26.3" height="1.8"/>
			</g>
			<g>
				<rect x="250.1" y="150" class="st32" width="4.4" height="1.8"/>
			</g>
			<g>
				<rect x="256.2" y="150" class="st32" width="11.2" height="1.8"/>
			</g>
		</g>
		<g>
			<g>
				<rect x="179.2" y="138.2" class="st2" width="14.3" height="14.3"/>
			</g>
			<g>
				<g>
					<path class="st9" d="M191.2,152.5L191,150c0-0.6-0.7-1-1.5-1.1c-2.1-0.5-4.3-0.5-6.5,0c-0.8,0.1-1.4,0.5-1.5,1.1l-0.2,2.5
						H191.2z"/>
					<g>
						<path class="st40" d="M192.5,145.7c-0.1-0.3-0.3-0.6-0.5-1c-0.9-1.5-2.1-2.3-2.8-1.9c-0.7,0.4-0.6,1.9,0.3,3.4
							c0.2,0.3,0.4,0.6,0.6,0.9L192.5,145.7z"/>
						<path class="st40" d="M180,145.7c0.1-0.3,0.3-0.6,0.5-1c0.9-1.5,2.1-2.3,2.8-1.9c0.7,0.4,0.6,1.9-0.3,3.4
							c-0.2,0.3-0.4,0.6-0.6,0.9L180,145.7z"/>
					</g>
					<path class="st47" d="M183.3,143.7c-0.1,0.1-0.3,0.1-0.4,0l-0.6-0.7c-0.1-0.1-0.1-0.3,0-0.4l0,0c0.1-0.1,0.3-0.1,0.4,0l0.6,0.7
						C183.5,143.4,183.4,143.6,183.3,143.7L183.3,143.7z"/>
					<path class="st47" d="M189.2,143.6c-0.1-0.1-0.1-0.3,0-0.4l0.7-0.6c0.1-0.1,0.3-0.1,0.4,0l0,0c0.1,0.1,0.1,0.3,0,0.4l-0.7,0.6
						C189.4,143.7,189.3,143.7,189.2,143.6L189.2,143.6z"/>
					<path class="st40" d="M186.3,139.3c-2.2-0.1-4.2,1.7-3.6,4.3c0.6,2.5,2,3.7,3.6,3.7c1.6,0,3-1.2,3.6-3.7
						C190.5,140.9,188.5,139.1,186.3,139.3z"/>
					<g>
						<g>
							<g>
								<path class="st41" d="M184,144.8c0.1,0.6,0,0.9-0.1,1c-0.1,0-0.4-0.2-0.5-0.8c-0.2-0.5-0.1-1.1,0.1-1.1
									C183.7,143.7,183.9,144.2,184,144.8z"/>
							</g>
						</g>
						<g>
							<g>
								<path class="st41" d="M188.5,144.8c-0.1,0.6,0,0.9,0.1,1c0.1,0,0.4-0.2,0.5-0.8c0.2-0.5,0.1-1.1-0.1-1.1
									C188.9,143.7,188.6,144.2,188.5,144.8z"/>
							</g>
						</g>
					</g>
					<path class="st41" d="M188.7,148.7c-1.6-0.3-3.2-0.3-4.8,0c0,1.1,1.1,2.9,2.4,2.9C187.6,151.6,188.7,149.8,188.7,148.7z"/>
					<path class="st41" d="M187.7,146.6c0-0.1,0-0.2,0-0.2c-0.9-0.7-1.9-0.7-2.8,0c0,0.1,0,0.2,0,0.2c0,2.7,0.6,4.9,1.4,4.9
						S187.7,149.3,187.7,146.6z"/>
					<path class="st36" d="M187.7,146.2c0,0,0-0.1,0-0.1c-0.9-0.3-1.9-0.3-2.8,0c0,0,0,0.1,0,0.1c0,1.2,0.6,2.2,1.4,2.2
						S187.7,147.4,187.7,146.2z"/>
					<path class="st41" d="M189,144.3c-0.5,2.2-1.6,3.3-2.8,3.3c-1.2,0-2.3-1-2.8-3.3c-0.5-2.3,1.1-3.9,2.8-3.8
						C187.9,140.4,189.5,142,189,144.3z"/>
					<path class="st36" d="M186.4,140.5v7c1.2-0.1,2.2-1.1,2.7-3.3C189.5,142,188,140.5,186.4,140.5z"/>
					<path class="st40" d="M186.6,139.4c1.2-0.1,2.4,1.2,3,3.4c-0.1,0.1,0.2,0.6,0.1,0.7l-1.1-0.4l-0.5-1.7c0,0-0.5,1.5-1,1.7l0.2-1
						c0,0-0.5,0.8-1,1c-0.8,0.4-2.5,0.3-2.5,0.3c-0.1-0.2-0.3-0.9-0.4-1.1C184.1,140.4,185.3,139.2,186.6,139.4z"/>
					<path class="st36" d="M187.7,146.9c-0.4-0.2-0.9,0.1-1.3,0v0.9v1.7v0.4c0.7-0.1,1.3-0.9,1.3-1.8
						C187.7,148.1,187.7,146.9,187.7,146.9z"/>
				</g>
			</g>
		</g>
	</g>
	<g>
		<path class="st23" d="M390.7,180.8H420c0.5-0.1,1-0.2,1.4-0.4c2.2-24.4,4.4-48.8,6.6-73.2c-15.1,0-30.2,0-45.4,0
			c2.2,24.4,4.4,48.8,6.6,73.2C389.7,180.5,390.2,180.7,390.7,180.8z"/>
		<path class="st1" d="M422.5,169.3c1.3-14.7,2.7-29.5,4-44.3c-14.1,0-28.1,0-42.2,0c1.3,14.8,2.7,29.5,4,44.3
			C399.5,170.9,411.3,170.9,422.5,169.3z"/>
		<path class="st48" d="M385.2,98.8c-0.5,3.4-0.9,6.8-1.4,10.2c14.4,0,28.8,0,43.1,0c-0.5-3.4-0.9-6.8-1.4-10.2
			C412.4,96.9,398.4,96.9,385.2,98.8z"/>
		<path class="st48" d="M430.1,106.8v-2.2c0-0.2-0.2-0.4-0.4-0.4h-48.6c-0.2,0-0.4,0.2-0.4,0.4v2.2H430.1z"/>
		<path class="st23" d="M430.1,105.9v-1.5c0-0.2-0.2-0.3-0.4-0.3h-48.6c-0.2,0-0.4,0.1-0.4,0.3v1.5H430.1z"/>
		<path class="st48" d="M428.1,107.2c-15.1,0-30.2,0-45.4,0c0.1,1.7,0.3,3.3,0.4,5h44.5C427.8,110.5,427.9,108.8,428.1,107.2z"/>
		<path class="st23" d="M431,108.8c0-0.1,0-0.1,0-0.2v-0.7c0-0.7-0.6-1.3-1.3-1.3h-48.6c-0.7,0-1.3,0.6-1.3,1.3v0.7
			c0,0.1,0,0.1,0,0.2H431z"/>
		<path class="st23" d="M426.1,103.1c-0.2-1.4-0.4-2.9-0.6-4.3c-13.2-1.9-27.2-1.9-40.4,0c-0.2,1.4-0.4,2.9-0.6,4.3H426.1z"/>
		<g>
			<path class="st23" d="M427.6,112.2h-22.2V125c7,0,14,0,21.1,0c-0.1,1.1-0.2,2.1-0.3,3.2c0.6-6.4,1.2-12.9,1.7-19.3l0,0
				C427.8,109.9,427.7,111,427.6,112.2z"/>
			<path class="st0" d="M405.4,125v45.4c5.7,0,11.5-0.4,17.1-1.2l0,0c1.2-13.7,2.5-27.4,3.7-41.1c0.1-1.1,0.2-2.1,0.3-3.2
				C419.4,125,412.4,125,405.4,125z"/>
			<path class="st48" d="M425.5,98.8c-6.6-0.9-13.4-1.4-20.2-1.4v6.8h20.9C426,102.4,425.8,100.6,425.5,98.8z"/>
			<path class="st48" d="M429.7,106.6c0.2,0,0.3,0,0.4,0.1v-2.1c0-0.2-0.2-0.4-0.4-0.4h-3.4h-20.9v2.5H429.7z"/>
			<path class="st23" d="M429.7,105c0.2,0,0.3,0,0.4,0v-0.7c0-0.1-0.2-0.2-0.4-0.2h-3.4h-20.9v0.8H429.7z"/>
			<path class="st48" d="M427.9,108.8h-22.5v3.3h22.2C427.7,111,427.8,109.9,427.9,108.8z"/>
			<path class="st23" d="M430.1,106.7c-0.1-0.1-0.3-0.1-0.4-0.1h-24.3v2.2h22.5l0,0h3.1c0-0.1,0-0.1,0-0.2v-0.7
				C431,107.4,430.6,106.9,430.1,106.7z"/>
		</g>
	</g>
</g>
</svg>
