<?xml version="1.0" encoding="utf-8"?>
<!-- Generator: Adobe Illustrator 19.1.0, SVG Export Plug-In . SVG Version: 6.00 Build 0)  -->
<svg version="1.1" id="icons" xmlns="http://www.w3.org/2000/svg" xmlns:xlink="http://www.w3.org/1999/xlink" x="0px" y="0px"
	 viewBox="-202 288.5 206.8 216.5" style="enable-background:new -202 288.5 206.8 216.5;" xml:space="preserve">
<style type="text/css">
	.st0{clip-path:url(#SVGID_3_);fill:#F2EFDC;}
	.st1{fill:#EEEEEE;}
	.st2{clip-path:url(#SVGID_5_);fill:#ED2D80;}
	.st3{clip-path:url(#SVGID_7_);fill:#F2EFDC;}
	.st4{clip-path:url(#SVGID_9_);fill:#F2EFDC;}
	.st5{clip-path:url(#SVGID_11_);fill:#333333;}
	.st6{clip-path:url(#SVGID_13_);}
	.st7{clip-path:url(#SVGID_15_);fill:#333333;}
	.st8{clip-path:url(#SVGID_17_);}
	.st9{clip-path:url(#SVGID_19_);}
	.st10{clip-path:url(#SVGID_21_);fill:#F2EFDC;}
	.st11{clip-path:url(#SVGID_23_);fill:#DCDAC8;}
	.st12{clip-path:url(#SVGID_25_);fill:#DCDAC8;}
	.st13{clip-path:url(#SVGID_27_);}
	.st14{fill:#DCDAC8;}
	.st15{clip-path:url(#SVGID_29_);}
	.st16{clip-path:url(#SVGID_31_);}
	.st17{clip-path:url(#SVGID_33_);fill:#333333;}
	.st18{fill:none;}
	.st19{fill:#333333;}
	.st20{clip-path:url(#SVGID_35_);}
	.st21{clip-path:url(#SVGID_37_);fill:#333333;}
	.st22{clip-path:url(#SVGID_39_);}
</style>
<g>
	<defs>
		<circle id="SVGID_2_" cx="-96.6" cy="391.8" r="72.6"/>
	</defs>
	<clipPath id="SVGID_3_">
		<use xlink:href="#SVGID_2_"  style="overflow:visible;"/>
	</clipPath>
	<path class="st0" d="M-77.2,389c-3.8,18.2-13,26.7-22.9,26.7c-10,0-19.1-8.5-22.9-26.7c-3.8-18.9,9-31.5,22.9-30.8
		C-86.2,357.4-73.4,370.1-77.2,389z"/>
</g>
<circle id="SVGID_1_" class="st1" cx="-96.6" cy="391.8" r="72.6"/>
<g>
	<defs>
		<circle id="SVGID_4_" cx="-96.6" cy="391.8" r="72.6"/>
	</defs>
	<clipPath id="SVGID_5_">
		<use xlink:href="#SVGID_4_"  style="overflow:visible;"/>
	</clipPath>
	<path class="st2" d="M-98.8,471.1c18.5,0,35.8-3,51.3-8.3l-3.7-32.5c-0.4-4-6.9-7.2-15-7.7c-21.6-3.9-43.5-3.9-65.2,0
		c-8.1,0.6-14.5,3.7-15,7.7l-3.7,32.5C-134.7,468.1-117.2,471.1-98.8,471.1z"/>
</g>
<g>
	<defs>
		<circle id="SVGID_6_" cx="-96.6" cy="391.8" r="72.6"/>
	</defs>
	<clipPath id="SVGID_7_">
		<use xlink:href="#SVGID_6_"  style="overflow:visible;"/>
	</clipPath>
	<path class="st3" d="M-99.5,419.3c-7.8,0.1-15.6,0.7-23.4,2.1c0,0.4,0.1,0.7-0.1,1c-10,26.3,18.6,27,23.5,33.8V419.3z"/>
</g>
<g>
	<defs>
		<circle id="SVGID_8_" cx="-96.6" cy="391.8" r="72.6"/>
	</defs>
	<clipPath id="SVGID_9_">
		<use xlink:href="#SVGID_8_"  style="overflow:visible;"/>
	</clipPath>
	<path class="st4" d="M-99.8,419.3c7.8,0.1,15.6,0.7,23.4,2.1c0,0.4-0.1,0.7,0.1,1c10,26.3-18.6,27-23.5,33.8V419.3z"/>
</g>
<g>
	<defs>
		<circle id="SVGID_10_" cx="-96.6" cy="391.8" r="72.6"/>
	</defs>
	<clipPath id="SVGID_11_">
		<use xlink:href="#SVGID_10_"  style="overflow:visible;"/>
	</clipPath>
	<path class="st5" d="M-129.2,393.3c4,22.4,4,17.6,21.6,20.8c11.3,2,20.8-14.1,20.8-31.6c0-17.4-11.9-36.5-22.7-32.8
		C-128.8,356.3-132.3,376.1-129.2,393.3z"/>
</g>
<g>
	<defs>
		<circle id="SVGID_12_" cx="-96.6" cy="391.8" r="72.6"/>
	</defs>
	<clipPath id="SVGID_13_">
		<use xlink:href="#SVGID_12_"  style="overflow:visible;"/>
	</clipPath>
	<path class="st6" d="M-86.8,382.3c0-10.1-4.4-21.3-10-27.9c-2.7-1.6-5.5-2-8.2-0.5c-22.4,12.6-22.7,26-19.6,43
		c1.3,7.4,2.2,11.8,3.5,14.5c2.8,0.8,7,0.8,13.6,2C-96.4,415.3-86.8,399.4-86.8,382.3z"/>
</g>
<g>
	<defs>
		<circle id="SVGID_14_" cx="-96.6" cy="391.8" r="72.6"/>
	</defs>
	<clipPath id="SVGID_15_">
		<use xlink:href="#SVGID_14_"  style="overflow:visible;"/>
	</clipPath>
	<path class="st7" d="M-69.1,393.3c-4,22.4-4,17.6-21.6,20.8c-11.3,2-20.8-14.1-20.8-31.6c0-17.4,12.8-38.5,22.7-32.8
		C-66.3,362.6-66,376.1-69.1,393.3z"/>
</g>
<g>
	<defs>
		<circle id="SVGID_16_" cx="-96.6" cy="391.8" r="72.6"/>
	</defs>
	<clipPath id="SVGID_17_">
		<use xlink:href="#SVGID_16_"  style="overflow:visible;"/>
	</clipPath>
	<path class="st8" d="M-72.8,397.3c-3.7,18.2-3.7,14.3-19.7,16.9c-10.3,1.7-19-11.4-19-25.6c0-14.1,11.7-31.2,20.8-26.6
		C-70.2,372.3-70,383.3-72.8,397.3z"/>
</g>
<g>
	<defs>
		<circle id="SVGID_18_" cx="-96.6" cy="391.8" r="72.6"/>
	</defs>
	<clipPath id="SVGID_19_">
		<use xlink:href="#SVGID_18_"  style="overflow:visible;"/>
	</clipPath>
	<path class="st9" d="M-92.9,357c-4.6-2.7-10,0.6-14.2,6.7c-2.6,5.8-4.3,12.5-4.3,18.8c0,17.1,9.3,33,20.3,31
		c8.2-1.5,12.5-1.2,15.1-2.9c0.7-2.6,1.3-6.1,2.2-10.9C-70.8,382.9-71.1,369.5-92.9,357z"/>
</g>
<g>
	<defs>
		<circle id="SVGID_20_" cx="-96.6" cy="391.8" r="72.6"/>
	</defs>
	<clipPath id="SVGID_21_">
		<use xlink:href="#SVGID_20_"  style="overflow:visible;"/>
	</clipPath>
	<path class="st10" d="M-85.5,411.3c0-0.4,0-0.8,0-1.3c-8.8-3.6-17.7-3.6-26.5,0c0,0.4,0,0.8,0,1.3c0,13.8,6,25.1,13.3,25.1
		C-91.5,436.3-85.5,425.1-85.5,411.3z"/>
</g>
<g>
	<defs>
		<circle id="SVGID_22_" cx="-96.6" cy="391.8" r="72.6"/>
	</defs>
	<clipPath id="SVGID_23_">
		<use xlink:href="#SVGID_22_"  style="overflow:visible;"/>
	</clipPath>
	<path class="st11" d="M-85.5,411.3c0-0.4,0-0.8,0-1.3c-2.8-1.1-5.5-1.9-8.4-2.3c-3,0.5-6,1.5-9.1,3.2c0,0.6,0,1.1,0,1.6
		c0,9.3,1.5,17.8,4.1,23.7c0.1,0,0.1,0,0.1,0C-91.5,436.3-85.5,425.1-85.5,411.3z"/>
</g>
<g>
	<defs>
		<circle id="SVGID_24_" cx="-96.6" cy="391.8" r="72.6"/>
	</defs>
	<clipPath id="SVGID_25_">
		<use xlink:href="#SVGID_24_"  style="overflow:visible;"/>
	</clipPath>
	<path class="st12" d="M-98.8,347.9c-15.6-1-29.9,14.5-25.6,37.7c4.2,22.3,14.5,32.7,25.6,32.7c11.2,0,21.4-10.4,25.7-32.7
		C-68.9,362.4-83.2,346.9-98.8,347.9z"/>
</g>
<g>
	<defs>
		<circle id="SVGID_26_" cx="-96.6" cy="391.8" r="72.6"/>
	</defs>
	<clipPath id="SVGID_27_">
		<use xlink:href="#SVGID_26_"  style="overflow:visible;"/>
	</clipPath>
	<g class="st13">
		<path class="st14" d="M-119.6,392.8c0.9,5.4,0.4,8.9-1.1,9.4c-1.3,0.4-3.4-2.2-4.8-7.4c-1.4-5.2-1.3-10.3,0.7-10.9
			C-122.9,383.1-120.5,387.4-119.6,392.8z"/>
	</g>
</g>
<g>
	<defs>
		<circle id="SVGID_28_" cx="-96.6" cy="391.8" r="72.6"/>
	</defs>
	<clipPath id="SVGID_29_">
		<use xlink:href="#SVGID_28_"  style="overflow:visible;"/>
	</clipPath>
	<g class="st15">
		<path class="st14" d="M-78,392.8c-0.9,5.4-0.4,8.9,1.1,9.4c1.3,0.4,3.4-2.2,4.8-7.4c1.5-5.2,1.3-10.3-0.7-10.9
			C-74.8,383.1-77.2,387.4-78,392.8z"/>
	</g>
</g>
<g>
	<defs>
		<circle id="SVGID_30_" cx="-96.6" cy="391.8" r="72.6"/>
	</defs>
	<clipPath id="SVGID_31_">
		<use xlink:href="#SVGID_30_"  style="overflow:visible;"/>
	</clipPath>
	<path class="st16" d="M-70.6,369.4c-3.3-13.1-14.2-21.3-26.1-21.5c-0.9,2.9-1.4,6.3-1.4,9.8c0,12.7,21.2,11.6,25.6,26.2
		C-72.7,383.8-69.3,380.8-70.6,369.4z"/>
</g>
<g>
	<defs>
		<circle id="SVGID_32_" cx="-96.6" cy="391.8" r="72.6"/>
	</defs>
	<clipPath id="SVGID_33_">
		<use xlink:href="#SVGID_32_"  style="overflow:visible;"/>
	</clipPath>
	<path class="st17" d="M-98.8,357.4c-13.1-0.8-25.3,10.7-23.2,28.2c4.7,1.3,10,2.1,15.6,2.1c2.3,0,4.5-0.1,6.7-0.4l0.6-1l5.1-8.5
		l-2.7,9.1c0.6-0.1,1.1-0.2,1.6-0.3l1.3-2.4l7-12.1l4.8,9.5c0,0,4.6-2.5,6.4-4.4C-77.8,364.5-88,356.8-98.8,357.4z"/>
</g>
<circle class="st18" cx="-96.6" cy="391.8" r="72.6"/>
<path class="st19" d="M-126.9,385.9C-126.9,386-126.9,386-126.9,385.9c2.6,0.6,5.3,0.9,8.1,0.9c19.6,0,35.5-12.6,35.5-28
	c0-2.8-0.6-5.5-1.5-8c-4.3-2.3-9.1-3.4-14-3.2C-115.9,346.8-131.6,362.4-126.9,385.9z"/>
<g>
	<defs>
		<circle id="SVGID_34_" cx="-96.6" cy="391.8" r="72.6"/>
	</defs>
	<clipPath id="SVGID_35_">
		<use xlink:href="#SVGID_34_"  style="overflow:visible;"/>
	</clipPath>
	<path class="st20" d="M-83.5,362.4c-0.9,3.4-2,6.6-3.2,9.7l5.1,9.5c0,0,4.8-2.5,6.7-4.5C-76.1,370.8-79.3,365.8-83.5,362.4z"/>
</g>
<g>
	<defs>
		<circle id="SVGID_36_" cx="-96.6" cy="391.8" r="72.6"/>
	</defs>
	<clipPath id="SVGID_37_">
		<use xlink:href="#SVGID_36_"  style="overflow:visible;"/>
	</clipPath>
	<path class="st21" d="M-81.2,366c4.1,3.2,7.6,9.3,9.3,16.8c0.9-1.7,2.2-5.6,1.3-13.5c-1.8-7.2-5.9-13.6-13.4-18
		c0.6,1.6,3.2,4.8,3.4,6.5C-80.3,360.6-80.5,363.3-81.2,366z"/>
</g>
<g>
	<defs>
		<circle id="SVGID_38_" cx="-96.6" cy="391.8" r="72.6"/>
	</defs>
	<clipPath id="SVGID_39_">
		<use xlink:href="#SVGID_38_"  style="overflow:visible;"/>
	</clipPath>
	<path class="st22" d="M-72.2,405.6c0.4-2,0.8-4.4,1.3-7.2c2.5-14.2,2.7-25.9-9.8-36.8c-0.4,0.5-0.6,1-1,1.6
		c12.3,10.8,12.8,19.5,10.1,36.3C-72,402.5-72.6,406.3-72.2,405.6z"/>
</g>
</svg>
