<?xml version="1.0" encoding="utf-8"?>
<!-- Generator: Adobe Illustrator 19.1.0, SVG Export Plug-In . SVG Version: 6.00 Build 0)  -->
<svg version="1.1" xmlns="http://www.w3.org/2000/svg" xmlns:xlink="http://www.w3.org/1999/xlink" x="0px" y="0px"
	 viewBox="0 0 800 800" enable-background="new 0 0 800 800" xml:space="preserve">
<g id="bg">
</g>
<g id="shadow">
	
		<rect x="118.154" y="406.281" transform="matrix(0.8962 0.4437 -0.4437 0.8962 209.6107 -75.6852)" fill="#E6EDEF" width="296.785" height="7.638"/>
	
		<rect x="244.297" y="369.627" transform="matrix(0.3929 0.9196 -0.9196 0.3929 559.4039 -100.4149)" fill="#E6EDEF" width="222.903" height="7.637"/>
	
		<rect x="435.889" y="219.557" transform="matrix(0.9622 0.2723 -0.2723 0.9622 111.9846 -106.5023)" fill="#E6EDEF" width="7.637" height="261.319"/>
	
		<rect x="525.003" y="251.418" transform="matrix(0.502 0.8649 -0.8649 0.502 610.0934 -257.7106)" fill="#E6EDEF" width="7.637" height="298.967"/>
	
		<rect x="173.617" y="286" transform="matrix(0.1914 0.9815 -0.9815 0.1914 578.1724 -122.1786)" fill="#E6EDEF" width="379.246" height="7.637"/>
	
		<rect x="103.935" y="333.701" transform="matrix(0.6403 0.7681 -0.7681 0.6403 361.4394 -96.8543)" fill="#E6EDEF" width="360.412" height="7.638"/>
	
		<rect x="510.376" y="128.202" transform="matrix(0.8038 0.5949 -0.5949 0.8038 291.8069 -242.9099)" fill="#E6EDEF" width="7.638" height="385.541"/>
	
		<rect x="423.295" y="58.429" transform="matrix(0.9913 0.1317 -0.1317 0.9913 39.0121 -53.8961)" fill="#E6EDEF" width="7.637" height="419.328"/>
	<circle fill="#D3E2E2" cx="324.921" cy="104.008" r="67.561"/>
	<path fill="#D3E2E2" d="M475.22,162.349c-37.959,0-68.738,30.773-68.738,68.735c0,37.962,30.779,68.736,68.738,68.736
		c37.963,0,68.735-30.774,68.735-68.736C543.955,193.123,513.183,162.349,475.22,162.349z"/>
	<path fill="#D3E2E2" d="M658.054,254.865c-42.587,0-77.117,34.526-77.117,77.117c0,42.588,34.529,77.111,77.117,77.111
		c42.591,0,77.111-34.523,77.111-77.111C735.165,289.391,700.644,254.865,658.054,254.865z"/>
	<path fill="#D3E2E2" d="M133.555,282.684c-36.674,0-66.404,29.728-66.404,66.402c0,36.674,29.73,66.409,66.404,66.409
		c36.674,0,66.407-29.735,66.407-66.409C199.962,312.412,170.229,282.684,133.555,282.684z"/>
	<circle fill="#D3E2E2" cx="629.108" cy="171.568" r="47.858"/>
	<path fill="#D3E2E2" d="M455.063,107.063c22.478,0,40.703-18.224,40.703-40.704s-18.225-40.702-40.703-40.702
		c-22.477,0-40.7,18.222-40.7,40.702S432.586,107.063,455.063,107.063z"/>
	<circle fill="#D3E2E2" cx="169.511" cy="206.009" r="49.142"/>
	<circle fill="#D3E2E2" cx="303.441" cy="269.941" r="47.858"/>
</g>
<g id="phone">
	<path fill="#3A3A3A" d="M536.653,781.873c0,8.435-6.839,15.275-15.275,15.275H296.336c-8.436,0-15.275-6.839-15.275-15.275v-399.66
		c0-8.436,6.839-15.275,15.275-15.275h225.042c8.435,0,15.275,6.839,15.275,15.275V781.873z"/>
	<path fill="#636363" d="M420.359,773.556h-23.004c-6.352,0-11.501-5.149-11.501-11.501c0-6.355,5.149-11.504,11.501-11.504h23.004
		c6.355,0,11.502,5.149,11.502,11.504C431.861,768.406,426.714,773.556,420.359,773.556z"/>
	<path fill="#FFFFFF" d="M513.828,720.849c0,3.374-2.736,6.11-6.11,6.11H309.997c-3.374,0-6.11-2.736-6.11-6.11V415.636
		c0-3.374,2.736-6.11,6.11-6.11h197.721c3.374,0,6.11,2.736,6.11,6.11V720.849z"/>
</g>
<g id="icons">
	<g>
		<path fill="#E25E49" d="M438.259,509.904c-12.111,0-22.764,10.136-29.402,19.566c-6.638-9.431-17.29-19.566-29.402-19.566
			c-20.136,0-32.794,15.296-32.794,36.215c0,13.037,4.905,24.508,13.476,31.324l48.72,43.227l48.721-43.227
			c8.552-6.815,13.476-18.286,13.476-31.324C471.054,525.2,458.389,509.904,438.259,509.904z"/>
		<path fill="#FFFFFF" d="M470.379,559.987H424.61c-2.625,0-5.067,1.293-6.53,3.461l-1.856,2.746l-7.016-25.358
			c-0.868-3.134-3.512-5.387-6.734-5.739c-3.292-0.337-6.319,1.307-7.822,4.133l-11.02,20.757h-36.296
			c-4.345,0-7.88,3.534-7.88,7.879c0,4.348,3.535,7.887,7.88,7.887h41.032c2.921,0,5.59-1.605,6.965-4.19l3.96-7.454l7.962,28.771
			c0.89,3.225,3.735,5.54,7.077,5.764c0.139,0.012,0.328,0.015,0.521,0.015c3.161,0,6.007-1.878,7.248-4.784l7.715-18.122h40.563
			c4.345,0,7.879-3.538,7.879-7.887C478.259,563.521,474.725,559.987,470.379,559.987z"/>
		<path fill="#C64436" d="M468.087,565.466h-44.242c-0.967,0-1.836,0.574-2.214,1.462l-7.063,16.592l-11.408-41.227
			c-0.264-0.953-1.07-1.639-2.054-1.748c-0.058-0.005-0.157-0.013-0.252-0.013c-0.895,0-1.714,0.491-2.135,1.278l-12.56,23.657
			h-36.534c-1.323,0-2.4,1.077-2.4,2.4c0,1.326,1.077,2.406,2.4,2.406h37.978c0.892,0,1.706-0.491,2.126-1.278l10.408-19.611
			l11.631,42.036c0.273,0.986,1.14,1.692,2.16,1.759l0.168,0.007c0.962-0.005,1.823-0.576,2.197-1.459l9.135-21.453h42.658
			c1.325,0,2.403-1.08,2.403-2.406C470.49,566.543,469.411,565.466,468.087,565.466z"/>
	</g>
	<g>
		<circle fill="#75C6EE" cx="324.92" cy="97.898" r="67.561"/>
		<g>
			<path fill="#FFFFFF" d="M360.549,135.51h-70.758c-1.639,0-2.97-1.33-2.97-2.97V58.32c0-1.64,1.331-2.969,2.97-2.969
				c1.639,0,2.968,1.329,2.968,2.969v71.252h67.789c1.638,0,2.969,1.329,2.969,2.968C363.517,134.181,362.187,135.51,360.549,135.51
				z"/>
		</g>
		<path fill="#FFFFFF" d="M331.343,110.308l13.791-30.394l12.855-2.966c0.88-0.203,1.626-0.735,2.106-1.5
			c0.476-0.763,0.628-1.668,0.424-2.546c-0.406-1.765-2.254-2.942-4.042-2.531l-14.484,3.341c-1.017,0.235-1.885,0.942-2.318,1.894
			l-12.73,28.059l-11.113-8.453c-0.594-0.451-1.299-0.689-2.044-0.689c-0.243,0-0.488,0.026-0.725,0.078
			c-0.97,0.212-1.791,0.838-2.255,1.715l-10.764,20.294c-0.871,1.643-0.243,3.69,1.402,4.562c1.626,0.862,3.717,0.194,4.562-1.4
			l8.899-16.783l11.319,8.611c0.803,0.608,1.888,0.83,2.876,0.585C330.097,111.934,330.916,111.25,331.343,110.308z"/>
		<circle fill="#FFFFFF" cx="289.79" cy="58.629" r="4.638"/>
		<path fill="#FFFFFF" d="M365.186,132.541c0,2.562-2.078,4.64-4.638,4.64c-2.563,0-4.639-2.078-4.639-4.64
			c0-2.56,2.076-4.638,4.639-4.638C363.108,127.903,365.186,129.981,365.186,132.541z"/>
	</g>
	<g>
		<path fill="#F3AF44" d="M406.482,224.975c0,37.962,30.779,68.736,68.738,68.736c37.963,0,68.735-30.774,68.735-68.736
			c0-37.962-30.772-68.735-68.735-68.735C437.261,156.24,406.482,187.013,406.482,224.975z"/>
		<g>
			<path fill="#FFFFFF" d="M472.851,204.286c0,2.832-2.77,5.126-6.186,5.126h-12.888c-3.417,0-6.189-2.294-6.189-5.126v-4.274
				c0-2.831-0.647-5.125,2.772-5.125h18.306c3.416,0,4.186,2.294,4.186,5.125V204.286z"/>
			<path fill="#FFFFFF" d="M465.379,267.505c0,2.359-2.309,4.271-5.158,4.271l0,0c-2.852,0-5.157-1.912-5.157-4.271v-59.802
				c0-2.36,2.305-4.272,5.157-4.272l0,0c2.849,0,5.158,1.912,5.158,4.272V267.505z"/>
			<rect x="447.588" y="178.174" fill="#FFFFFF" width="4.19" height="23.709"/>
			<rect x="461.638" y="178.174" fill="#FFFFFF" width="4.189" height="23.709"/>
			<rect x="454.612" y="178.174" fill="#FFFFFF" width="4.192" height="23.709"/>
			<rect x="468.665" y="178.174" fill="#FFFFFF" width="4.186" height="23.709"/>
		</g>
		<g>
			<path fill="#FFFFFF" d="M501.445,265.957c0,2.358-2.309,4.27-5.158,4.27l0,0c-2.849,0-5.158-1.911-5.158-4.27v-59.803
				c0-2.36,2.309-4.271,5.158-4.271l0,0c2.849,0,5.158,1.911,5.158,4.271V265.957z"/>
			<path fill="#FFFFFF" d="M483.782,205.86c0-27.686,10.643-27.686,14.061-27.686l0,0c3.602,0,3.602,0,3.602,5.125v45.12
				c0,2.831-2.776,5.127-6.19,5.127h-5.285c-3.419,0-6.188-2.296-6.188-5.127V205.86z"/>
		</g>
	</g>
	<g>
		<path fill="#D24D32" d="M580.937,325.872c0,42.588,34.529,77.111,77.117,77.111c42.591,0,77.111-34.523,77.111-77.111
			c0-42.59-34.52-77.117-77.111-77.117C615.466,248.755,580.937,283.281,580.937,325.872z"/>
		<g>
			<path fill="#FFFFFF" d="M632.161,343.384c0,4.111-3.327,7.435-7.433,7.435l0,0c-4.099,0-7.427-3.327-7.43-7.432l0.003-35.034
				c0-4.107,3.326-7.435,7.428-7.432l0,0c4.105-0.006,7.432,3.323,7.432,7.432V343.384z"/>
			<path fill="#FFFFFF" d="M613.984,338.963c0,2.93-2.378,5.307-5.31,5.309l0,0c-2.93,0-5.306-2.376-5.306-5.306l-0.003-26.191
				c0.005-2.927,2.379-5.304,5.307-5.307l0,0c2.934,0.002,5.309,2.381,5.309,5.31L613.984,338.963z"/>
			<rect x="635.346" y="319.147" fill="#FFFFFF" width="45.293" height="13.447"/>
			<path fill="#FFFFFF" d="M683.942,343.387c0.003,4.105,3.329,7.432,7.43,7.432l0,0c4.11,0.003,7.436-3.323,7.435-7.435v-35.031
				c0-4.107-3.325-7.432-7.435-7.438l0,0c-4.101,0.005-7.43,3.332-7.427,7.438L683.942,343.387z"/>
			<path fill="#FFFFFF" d="M702.433,338.96c0.003,2.927,2.378,5.312,5.306,5.307l0,0c2.927,0.003,5.309-2.381,5.306-5.307
				l0.003-26.182c0.003-2.925-2.379-5.31-5.307-5.308l0,0c-2.927-0.001-5.305,2.384-5.305,5.308L702.433,338.96z"/>
		</g>
	</g>
	<g>
		<path fill="#F3AF44" d="M199.962,342.491c0,36.674-29.733,66.41-66.407,66.41c-36.674,0-66.404-29.735-66.404-66.41
			s29.73-66.402,66.404-66.402C170.229,276.089,199.962,305.817,199.962,342.491z"/>
		<path fill="#FFFFFF" d="M133.558,311.993c-18.62,0-33.768,15.147-33.768,33.764c0,18.622,15.148,33.769,33.768,33.769
			c18.619,0,33.766-15.146,33.766-33.769C167.325,327.139,152.177,311.993,133.558,311.993z M133.558,372.3
			c-14.635,0-26.541-11.907-26.541-26.543c0-14.633,11.906-26.538,26.541-26.538c14.634,0,26.539,11.905,26.539,26.538
			C160.097,360.393,148.192,372.3,133.558,372.3z"/>
		<path fill="#FFFFFF" d="M113.998,299.709c-2.842,0-5.761,0.819-8.443,2.367c-3.277,1.891-5.788,4.642-7.069,7.746
			c-1.253,3.034-1.172,6.04,0.227,8.461c0.307,0.534,1.024,0.803,2.131,0.803c5.841,0,18.882-7.529,21.805-12.587
			c0.553-0.958,0.678-1.714,0.371-2.246C121.354,301.364,118.066,299.709,113.998,299.709z"/>
		<path fill="#FFFFFF" d="M161.56,302.076c-2.682-1.548-5.602-2.367-8.444-2.367c-4.067,0-7.355,1.656-9.023,4.544
			c-0.307,0.532-0.182,1.289,0.371,2.246c2.921,5.057,15.963,12.587,21.805,12.587h0.001c1.106,0,1.822-0.269,2.129-0.803
			c1.4-2.421,1.481-5.427,0.228-8.461C167.348,306.718,164.837,303.967,161.56,302.076z"/>
		<path fill="#FFFFFF" d="M125.737,361.049c-0.532,0-1.071-0.146-1.557-0.45c-1.361-0.859-1.769-2.666-0.906-4.026l7.366-11.66
			v-18.055c0-1.611,1.307-2.915,2.918-2.915c1.612,0,2.918,1.304,2.918,2.915v19.744l-8.27,13.091
			C127.652,360.569,126.704,361.049,125.737,361.049z"/>
	</g>
	<g>
		<circle fill="#75C6EE" cx="629.106" cy="165.46" r="47.858"/>
		<g>
			<path fill="#FFFFFF" d="M644.919,160.654l-12.978-24.55c-1.559-2.888-4.113-2.888-5.676-0.006l-13.252,24.938
				c-0.008,0.015-3,5.349-3,11.229c0,10.689,8.253,19.625,19.094,19.625c10.84,0,19.094-8.935,19.094-19.625
				C648.201,166.552,644.928,160.671,644.919,160.654z"/>
			<path fill="#75C6EE" d="M626.46,171.701c-0.033,4.024-2.579,7.27-5.689,7.247c-3.11-0.027-5.606-3.309-5.573-7.336
				c0.031-4.025,2.579-7.265,5.686-7.241C623.997,164.395,626.493,167.679,626.46,171.701z"/>
		</g>
	</g>
	<g>
		<circle fill="#3FB293" cx="455.064" cy="60.249" r="40.702"/>
		<g>
			<path fill="#FFFFFF" d="M470.411,55.318c-3.708-0.859-8.437,2.512-9.793,8.349l-0.462,2.457
				c-0.002,0.002-0.002,0.003-0.002,0.005l-1.495,7.907c-0.257,1.354,0.632,2.716,1.974,3.028l1.219,0.283l0,0l7.399,1.715l0,0
				l0.507,0.119c1.342,0.312,2.727-0.524,3.079-1.856l0.122-0.462l0,0l2.567-9.738C476.386,63.415,476.042,56.627,470.411,55.318z"
				/>
			<path fill="#FFFFFF" d="M460.072,82.243c-0.002,0-0.002-0.002-0.003-0.002l-2.436-0.565l-0.022,0.218l0,0c0,0,0,0,0,0.002
				l-0.019,0.213c-0.794,3.425,0.747,6.724,3.901,7.897c0.254,0.11,0.518,0.209,0.807,0.277c3.708,0.862,7.099-1.523,7.96-5.234
				l0.164-0.403l-6.396-1.486L460.072,82.243z"/>
		</g>
		<g>
			<path fill="#FFFFFF" d="M452.041,59.647l-0.04-0.433l-6.395,1.484l-3.953,0.917c-0.007,0.003-0.015,0.003-0.022,0.006
				l-2.418,0.561l0.161,0.404c0.864,3.711,4.251,6.096,7.963,5.234c0.288-0.067,0.553-0.167,0.805-0.278
				C451.295,66.373,452.834,63.071,452.041,59.647z"/>
			<path fill="#FFFFFF" d="M439.876,56.718l0.685-0.158l0,0l7.875-1.827l0.564-0.131l0,0l0.122-0.028
				c0.003-0.006,0.008-0.01,0.012-0.016c1.264-0.37,2.088-1.677,1.841-2.983l-0.07-0.37c0.002,0,0.002,0,0.002,0l-1.307-6.904
				l-0.118-0.634v-0.002l-0.468-2.461c-1.353-5.834-6.08-9.205-9.79-8.344c-5.634,1.307-5.976,8.097-5.115,11.805l2.517,9.538l0,0
				l0.173,0.659C437.149,56.195,438.534,57.03,439.876,56.718z"/>
		</g>
	</g>
	<g>
		<circle fill="#D24D32" cx="169.513" cy="199.899" r="49.141"/>
		<path fill="#FFFFFF" d="M183.954,175.902c-5.949,0-11.182,4.978-14.442,9.61c-3.26-4.632-8.492-9.61-14.441-9.61
			c-9.891,0-16.109,7.512-16.109,17.788c0,6.403,2.41,12.037,6.619,15.386l23.93,21.231l23.931-21.231
			c4.2-3.349,6.619-8.983,6.619-15.386C200.062,183.414,193.841,175.902,183.954,175.902z"/>
	</g>
	<g>
		<circle fill="#8FC53D" cx="303.44" cy="263.832" r="47.858"/>
		<g>
			<g>
				<path fill="#FFFFFF" d="M271.087,271.741l6.731,11.204c0.809,1.496,2.133,1.498,2.942,0.002l6.874-11.405
					c0.003-0.006,1.554-2.775,1.554-5.824c0-5.543-4.278-10.178-9.902-10.178c-5.621,0-9.902,4.635-9.902,10.178
					C269.383,268.682,271.081,271.731,271.087,271.741z"/>
				<circle fill="#8FC53D" cx="279.285" cy="265.349" r="4.582"/>
			</g>
			<g>
				<path fill="#FFFFFF" d="M319.393,250.359l6.731,11.204c0.809,1.496,2.133,1.498,2.942,0.002l6.874-11.405
					c0.003-0.006,1.554-2.775,1.554-5.824c0-5.543-4.278-10.178-9.902-10.178c-5.621,0-9.902,4.635-9.902,10.178
					C317.69,247.3,319.387,250.349,319.393,250.359z"/>
				<circle fill="#8FC53D" cx="327.591" cy="243.967" r="4.582"/>
			</g>
			<path fill="#FFFFFF" d="M302.264,292.932l-20.435-2.876c-1.253-0.176-2.126-1.335-1.95-2.588c0.176-1.251,1.326-2.12,2.588-1.95
				l17.359,2.443l10.567-18.507l13.761-4.866c1.19-0.424,2.502,0.203,2.924,1.396c0.422,1.193-0.203,2.502-1.396,2.924
				l-12.153,4.299L302.264,292.932z"/>
		</g>
	</g>
</g>
</svg>
