<?xml version="1.0" encoding="utf-8"?>
<!-- Generator: Adobe Illustrator 19.1.0, SVG Export Plug-In . SVG Version: 6.00 Build 0)  -->
<svg version="1.1" id="icons" xmlns="http://www.w3.org/2000/svg" xmlns:xlink="http://www.w3.org/1999/xlink" x="0px" y="0px"
	 viewBox="-253.8 533.5 206.8 216.5" style="enable-background:new -253.8 533.5 206.8 216.5;" xml:space="preserve">
<style type="text/css">
	.st0{clip-path:url(#SVGID_2_);}
	.st1{fill:#FD6120;}
	.st2{fill:#DE3F18;}
	.st3{fill:#DCDAC8;}
	.st4{fill:#C0BEAE;}
	.st5{fill:#0E303F;}
	.st6{fill:#F2EFDC;}
</style>
<g>
	<g>
		<defs>
			<circle id="SVGID_1_" cx="-150.9" cy="639.2" r="100.5"/>
		</defs>
		<use xlink:href="#SVGID_1_"  style="overflow:visible;fill:#A6DAE9;"/>
		<clipPath id="SVGID_2_">
			<use xlink:href="#SVGID_1_"  style="overflow:visible;"/>
		</clipPath>
		<g class="st0">
			<path class="st1" d="M-151.8,741.3c31,0,60.2-4.5,86-12.4l-6.2-48.7c-0.8-6-11.6-10.1-25.1-11.6c-36.6-4-72.8-4-109.4,0
				c-13.4,1.5-24.3,5.6-25.1,11.6l-6.2,48.7C-212,736.8-182.8,741.3-151.8,741.3z"/>
			<path class="st2" d="M-65.8,728.9l-6.2-48.7c-0.8-6-11.6-10.1-25.1-11.6c-19-2.1-37.9-3.1-56.7-3l-17.1,24.6l67.8,47.1
				C-90.1,735.3-77.6,732.5-65.8,728.9z"/>
			<path class="st3" d="M-128.1,677.2c-0.8,11.1-12.1,18.8-25.3,18.8c0,0,0,0,0,0c-13.2,0-24.4-7.9-25.2-18.9
				c-0.3-5.6-0.7-11.3-1-16.9c-0.8-11,11-21.3,26.3-21.2l0,0c15.3,0,27.1,10.3,26.3,21.3C-127.4,666-127.8,671.6-128.1,677.2z"/>
			<path class="st4" d="M-144.7,640.2c-6.4,3-10.9,13.9-10.8,26.7c0,7.8,0.1,15.7,0.1,23.5c0,1.9,0.1,3.8,0.3,5.6
				c0.6,0,1.2,0.1,1.8,0.1c13.2,0,24.4-7.8,25.3-18.8c0.2-3,0.4-6.1,0.6-9.1c0.4-6.5-0.4-12.5-2-17.4
				C-132.5,645.9-138,642-144.7,640.2z"/>
			<path class="st5" d="M-153.2,581.1L-153.2,581.1C-153.2,581.1-153.2,581.1-153.2,581.1c-0.1,0-0.2,0-0.2,0l0,0
				c-28.2-0.3-35,18.1-33.3,50.3c0.6,12.5,3.6,22,6.4,29c0.9,2.4,14.9,19,19.1,19c1.9,0,5.2,0.7,8,0.5c2.8,0.2,5.9-0.5,7.8-0.5
				c4.3,0,18.2-16.6,19.1-19c2.8-7.1,5.8-16.6,6.4-29C-118.4,600-127.6,580.4-153.2,581.1z"/>
			<path class="st3" d="M-178.5,640.2c0.1,3.4-1.6,6.3-4,6.7l0,0c-2.3,0.3-4.3-2.1-4.5-5.5c-0.3-5.4-0.6-10.8-0.9-16.3
				c-0.2-3.4,1.6-6.4,4.1-6.8l0,0c2.4-0.3,4.5,2.2,4.6,5.5C-178.9,629.3-178.7,634.7-178.5,640.2z"/>
			<path class="st3" d="M-120.3,641.3c-0.2,3.4-2.2,5.8-4.5,5.5l0,0c-2.3-0.3-4.1-3.3-4-6.7c0.2-5.4,0.4-10.9,0.6-16.3
				c0.1-3.4,2.2-5.9,4.6-5.5l0,0c2.4,0.3,4.2,3.4,4.1,6.8C-119.7,630.5-120,635.9-120.3,641.3z"/>
			<path class="st6" d="M-126.6,625.2c-0.7-14.6,1.3-28.1,1.3-28.1c0.1,0-13.8-7.2-24.6-6.7c-1.1,0-2.4,0.3-3.7,0.9
				c-1.3-0.5-2.6-0.8-3.7-0.9c-10.8-0.5-24.6,6.7-24.6,6.7c0,0,2,13.5,1.3,28.1c-0.7,14.7-2.7,27.4,2.2,31.5
				c4.9,4.1,13.2,13.5,24.2,13.9c0.2,0,0.4,0,0.6,0c0.2,0,0.4,0,0.6,0c11-0.5,19.3-9.8,24.2-13.9C-124,652.7-126,639.9-126.6,625.2z
				"/>
			<path class="st3" d="M-122.5,597.1c0.1,0-15.1-7.2-27-6.7c-0.9,0-2,0.2-3,0.6c-0.1,26.6-0.1,53.1-0.2,79.7
				c12-0.6,21-9.8,26.4-13.9c5.3-4.1,3.1-16.8,2.4-31.5C-124.7,610.6-122.6,597.1-122.5,597.1z"/>
			<g>
				<path class="st5" d="M-185,624.5c0,0-2.8-30.9-4.9-34.1c-2.1-3.3,26.9-9.6,35.5-9.6c8.5-0.4,16.3,2.1,21.3,3.2
					c4.7,0.9-18.9,19.7-18.6,19.9c0.5-1.7,1.1-3.3,1.7-5c-1.8,1.4-3.6,2.8-5.4,4.2c-7.3-1.9-14.8-3.6-22.3-5.1
					c0.1,4.1,0.1,8.1,0.2,12.1c-1.5,2.1-2.9,4.1-4.3,6.2c-0.3,2.7-0.7,5.4-1,8C-183.6,624.3-184.3,624.4-185,624.5z"/>
				<path class="st5" d="M-122.2,624.5c0,0,3.7-30.9,5-34.1c1.5-3.7-26.9-9.6-35.5-9.6c-8.5-0.4-15.7,2.1-20.7,3.2
					c-3.1,0.4,25.2-0.9,33.2,4.1c2.8,1.6-8.2,14.9-8.1,15c6.2-1.9,12.6-3.6,19-5.1c-0.1,4-0.1,8.1-0.2,12.1c1.5,2,2.9,4.1,4.3,6.2
					c0.3,2.7,0.6,5.4,1,8C-123.5,624.4-122.9,624.4-122.2,624.5z"/>
			</g>
			<g>
				<g>
					<g>
						<path class="st5" d="M-172.8,638.5L-172.8,638.5c-3.5-0.1-6.7-1.5-9-3.8c-2-2.1-3-4.9-2.9-7.7l0.1-2.5c0-0.7,0.1-1.4,0.3-2
							l0.2-0.8l0.8-0.3c7.1-2.3,14.8-2.6,22.1-0.8l0,0c1.2,0.3,4.7,1.7,4.8,4l0.1,2.4c0.1,2.6-0.8,5.2-2.7,7.2
							c-2.2,2.5-5.6,4-9.1,4.1L-172.8,638.5z M-181.8,623.8c0,0.2-0.1,0.5-0.1,0.7l-0.1,2.5c-0.1,2.1,0.7,4.1,2.2,5.7
							c1.7,1.8,4.3,2.9,6.9,3l4.5-0.1c2.8-0.1,5.4-1.3,7.1-3.2c1.4-1.5,2.1-3.4,2-5.2l-0.1-2.5c-0.2-0.4-1.8-1.2-2.6-1.4l-0.1,0
							C-168.5,621.7-175.4,621.9-181.8,623.8z"/>
					</g>
					<g>
						<path class="st5" d="M-136.3,638.5L-136.3,638.5c-3.5-0.1-6.7-1.5-9-3.9c-2-2.1-3-4.9-2.9-7.7l0.1-2.5c0-0.7,0.1-1.4,0.3-2
							l0.2-0.8l0.8-0.3c7.1-2.3,14.8-2.6,22.1-0.8l0,0c1.2,0.3,4.8,1.7,4.8,4l0.1,2.4c0.1,2.6-0.8,5.2-2.7,7.3
							c-2.2,2.5-5.6,4-9.1,4.1L-136.3,638.5z M-145.3,623.8c0,0.3-0.1,0.5-0.1,0.7l-0.1,2.6c-0.1,2.1,0.7,4.1,2.2,5.7
							c1.7,1.8,4.3,2.9,6.9,3l4.5-0.1c2.8-0.1,5.4-1.3,7.1-3.2c1.4-1.5,2.1-3.4,2-5.3l-0.1-2.5c-0.2-0.4-1.8-1.2-2.6-1.4l-0.1,0
							C-132,621.7-138.9,621.9-145.3,623.8z"/>
					</g>
				</g>
				<rect x="-158.7" y="624" class="st5" width="12.2" height="5.3"/>
			</g>
			<path class="st5" d="M-138.3,652.4c-1.4-2.1-6.1-4-12-4c-0.1,0-2.1,1.3-2.2,1.3c-0.2-0.1-2-1.3-2.1-1.3c-5.9,0-10.7,1.8-12.1,4
				c-8.7,16.8-12.1,1.9-15.9-2.9c6.5,15.2,12.7,26.4,29.5,28.8c0.2,0,0.4,0,0.6,0c0.2,0,5.3-0.6,5.5-0.6c10.5,0,18.1-13,24.6-28.2
				C-126.3,654.3-129.6,669.2-138.3,652.4z"/>
			<g>
				<path class="st6" d="M-159.5,655.6c-0.1,0.3-0.1,0.6-0.1,0.9c0,2.2,2.1,4,4.6,4h5.1c2.5,0,4.6-1.8,4.6-4c0-0.3,0-0.6-0.1-0.9
					H-159.5z"/>
			</g>
		</g>
	</g>
</g>
</svg>
