<?xml version="1.0" encoding="iso-8859-1"?>
<!-- Generator: Adobe Illustrator 18.1.0, SVG Export Plug-In . SVG Version: 6.00 Build 0)  -->
<!DOCTYPE svg PUBLIC "-//W3C//DTD SVG 1.1//EN" "http://www.w3.org/Graphics/SVG/1.1/DTD/svg11.dtd">
<svg version="1.1" id="Layer_1" xmlns="http://www.w3.org/2000/svg" xmlns:xlink="http://www.w3.org/1999/xlink" x="0px" y="0px"
	 viewBox="0 0 367.596 367.595" style="enable-background:new 0 0 367.596 367.595;" xml:space="preserve">
<circle style="fill:#FDD078;" cx="183.798" cy="183.798" r="183.798"/>
<path style="fill:#F5AE3D;" d="M313.802,183.798c0,71.8-58.203,130.003-130.004,130.003c-71.801,0-130.004-58.203-130.004-130.003
	c0-71.801,58.203-130.003,130.004-130.003C255.599,53.795,313.802,111.997,313.802,183.798z"/>
<path style="fill:#FDD078;" d="M304.836,192.763c0,66.849-54.188,121.037-121.037,121.037c-66.85,0-121.038-54.188-121.038-121.037
	c0-66.85,54.188-121.038,121.038-121.038C250.648,71.726,304.836,125.914,304.836,192.763z"/>
<path style="fill:#FFDEA6;" d="M64.612,172.354c22.2,26.17,55.279,42.824,92.289,42.824c59.879,0,109.467-43.52,119.185-100.628
	c-22.199-26.17-55.278-42.823-92.288-42.823C123.918,71.726,74.331,115.245,64.612,172.354z"/>
</svg>
