<?xml version="1.0" encoding="utf-8"?>
<!-- Generator: Adobe Illustrator 19.1.0, SVG Export Plug-In . SVG Version: 6.00 Build 0)  -->
<svg version="1.1" id="Layer_1" xmlns="http://www.w3.org/2000/svg" xmlns:xlink="http://www.w3.org/1999/xlink" x="0px" y="0px"
	 viewBox="-188 279.4 234.8 234.6" style="enable-background:new -188 279.4 234.8 234.6;" xml:space="preserve">
<style type="text/css">
	.st0{fill:none;}
	.st1{fill:#2DCFED;}
	.st2{fill:#FFFFFF;}
</style>
<path class="st0" d="M29.3,362.2c-0.6,0.5-1.1,1.1-1.4,1.7c-0.5,1.3-0.9,2.7-1.1,4.1c0.5-2,1.2-3.9,2.4-5.7
	C29.2,362.3,29.3,362.3,29.3,362.2z"/>
<path class="st0" d="M39,360.4c-0.4-0.2-0.8-0.4-1.2-0.6c-0.6-0.2-1.6-0.2-2.7,0c0.9,0,1.8,0.1,2.7,0.3
	C38.2,360.1,38.7,360.2,39,360.4z"/>
<path class="st0" d="M44.5,370.1c-0.1-0.8-0.2-1.5-0.3-2.3c-0.2-1.4-0.7-2.7-1.4-3.8c0.1,0.2,0.1,0.3,0.2,0.5
	C43.5,366.2,44.1,368.1,44.5,370.1z"/>
<path class="st0" d="M24.5,387.1c0.6-2.2,0.9-4.6,1.1-6.9c0.1-0.9,0.1-1.8,0.2-2.8c-0.1,1.5-0.3,3-0.6,4.4
	c-0.7,3.9-1.3,8.5-3.7,11.4c-5.3,6.5-10.6,13-15.9,19.4c0.9-1.1,1.8-2.2,2.7-3.3C13.7,402.8,22.1,395.5,24.5,387.1z"/>
<path class="st0" d="M-7.2,428.2c-2,2.4-4,4.9-6.1,7.3c0.6-0.8,1.3-1.5,1.9-2.3C-10,431.5-8.6,429.8-7.2,428.2z"/>
<path class="st1" d="M-160.9,473.1c34.2,10.5,68.5,20.3,102.7,30.6c6.1,1.8,10.6,0.5,14.6-4.3c27.9-33.7,55.9-67.3,83.7-101.1
	c0.3-0.4,0.7-0.9,1-1.3c0.2-0.3,0.4-0.6,0.6-0.9c0-0.1,0.1-0.1,0.1-0.2c3.9-6.9,4.3-17.4,2.7-25.7c-0.4-2-0.9-3.9-1.6-5.6
	c-0.1-0.2-0.1-0.3-0.2-0.5c-0.8-2-1.8-3-3.7-3.7c-0.4-0.1-0.8-0.3-1.2-0.4c-0.9-0.2-1.8-0.3-2.7-0.3c-2.3,0-4.5,0.7-5.8,2.5
	l-0.1,0.1c-1.2,1.8-1.9,3.7-2.4,5.7c-0.7,3-0.9,6.3-1,9.4c0,0.9-0.1,1.8-0.2,2.8c-0.2,2.3-0.5,4.7-1.1,6.9
	c-2.4,8.4-10.8,15.7-16.2,22.3c-0.9,1.1-1.8,2.2-2.7,3.3c-4.3,5.2-8.5,10.3-12.8,15.5c-1.4,1.7-2.8,3.3-4.1,5
	c-0.6,0.8-1.3,1.5-1.9,2.3c-12.4,14.9-24.8,29.8-37.1,44.8c-3.6,4.4-6.8,5.7-12.5,3.9c-22.4-7.1-45-13.5-67.6-20.2
	c-7.9-2.3-15.9-4.4-23.7-7c-12.5-4.2-19.3-19.2-14.8-32.4c3-8.8,8.1-10,24.2-5.4c25.8,7.4,51.7,14.6,77.5,22.3
	c7.8,2.3,13.2,1,18.5-5.2C-19.6,402.4,9.8,368.8,39,335c10.4-12.1,8.4-18.2-7.2-21.8c-33.1-7.5-66.2-14.7-99.2-22.3
	c-8.4-1.9-14.3,0.1-20.1,6.7c-23.3,26.4-46.7,52.7-70.6,78.5c-13.5,14.7-26.8,29.3-29.9,50.1c0,4.9,0,9.8,0,14.7
	c0.8,2,1.6,3.9,2.3,5.9C-181.4,459.3-173.8,469.1-160.9,473.1z M-76.1,325.2c10.2,1.9,20.1,4.7,30.2,7.1c11.2,2.7,22.5,5.3,33.7,8.2
	c8.4,2.2,9.2,4.4,3.1,10.8c-3.5,3.7-8.2,6.1-11.4,8.4c-22.2-5.4-42-9.9-61.8-15.1c-4.4-1.2-10.8-3.9-11.6-7.1
	C-95.1,332.1-82.8,324-76.1,325.2z"/>
<path class="st2" d="M-82.2,344.6c19.7,5.2,39.6,9.8,61.8,15.1c3.1-2.3,7.9-4.7,11.4-8.4c6.1-6.4,5.3-8.6-3.1-10.8
	c-11.2-2.9-22.5-5.5-33.7-8.2c-10.1-2.4-20.1-5.2-30.2-7.1c-6.7-1.3-19,6.9-17.6,12.3C-93,340.7-86.5,343.5-82.2,344.6z"/>
</svg>
