<?xml version="1.0" encoding="utf-8"?>
<!-- Generator: Adobe Illustrator 19.1.0, SVG Export Plug-In . SVG Version: 6.00 Build 0)  -->
<svg version="1.1" id="Layer_1" xmlns="http://www.w3.org/2000/svg" xmlns:xlink="http://www.w3.org/1999/xlink" x="0px" y="0px"
	 viewBox="144 -102.7 900 997.7" style="enable-background:new 144 -102.7 900 997.7;" xml:space="preserve">
<style type="text/css">
	.st0{opacity:0.2;fill:#221D20;enable-background:new    ;}
	.st1{fill:#6D707C;}
	.st2{fill:#8F8D91;}
	.st3{fill:#F8FFFE;}
	.st4{opacity:0.4;fill:#C2BEB9;enable-background:new    ;}
	.st5{fill:#A1A3B2;}
	.st6{fill:#818391;}
	.st7{fill:none;stroke:#E8EEED;stroke-width:5.447;stroke-miterlimit:10;}
	.st8{fill:#B8B8C9;}
	.st9{fill:#99969C;}
	.st10{opacity:0.5;}
	.st11{fill:#68626B;}
	.st12{opacity:0.6;fill:#68626B;enable-background:new    ;}
	.st13{opacity:0.4;}
	.st14{fill:#ADC3CA;}
	.st15{opacity:0.3;fill:#68626B;enable-background:new    ;}
	.st16{opacity:0.3;}
	.st17{opacity:0.6;fill:none;stroke:#C2AF89;stroke-width:3.2682;stroke-miterlimit:10;enable-background:new    ;}
	.st18{enable-background:new    ;}
	.st19{fill:#9B9BA1;}
	.st20{opacity:0.5;fill:#68626B;enable-background:new    ;}
	.st21{fill:#ABB0B7;}
	.st22{fill:#8FB2B1;}
	.st23{opacity:0.2;fill:#ADC3CA;enable-background:new    ;}
	.st24{fill:#C6DCE2;}
	.st25{opacity:0.3;fill:#C6DCE2;enable-background:new    ;}
	.st26{fill:#E8EEED;}
	.st27{fill:#0282A0;}
	.st28{fill:#C2AF89;}
	.st29{opacity:0.5;fill:#C2AF89;enable-background:new    ;}
	.st30{fill:#16BBEF;}
	.st31{fill:#3A6985;}
	.st32{opacity:0.3;fill:#99969C;enable-background:new    ;}
	.st33{fill:#7996A0;}
	.st34{opacity:0.5;fill:#99969C;enable-background:new    ;}
	.st35{fill:#EFB279;}
	.st36{opacity:0.6;fill:#EEA57B;enable-background:new    ;}
	.st37{fill:#B53355;}
	.st38{opacity:0.4;fill:#751734;enable-background:new    ;}
	.st39{fill:#EEA57B;}
	.st40{opacity:0.3;fill:#8FB2B1;enable-background:new    ;}
	.st41{fill:#EFF4F3;}
	.st42{fill:#F2F4F4;}
	.st43{fill:#CECEDD;}
	.st44{fill:#D7DF23;}
	.st45{fill:#FBB040;}
</style>
<g>
	<path class="st0" d="M152,383.1c0-0.6,0-1.1,0-1.7c0-0.8,0-1.7,0-2.7c0,0.4,0,0.6,0,0l0,0l0,0c0-0.1,0-0.2,0-0.2s0,0.1,0,0.2
		c0-0.7,0-1.4,0-2.3c0-2.1,0-4.1,0.1-6.2c0-2.2,0.1-4.3,0.1-6.4c0-0.8,0-1.8,0-2.7c0-1.4,0.1-2.9,0.1-4.5c0-1.7,0.1-3.4,0.1-5.2
		c0.1-2.7,0.2-5.3,0.4-8c0.1-1.4,0.1-2.9,0.2-4.3c0.1-2.9,0.4-5.8,0.5-8.7c0.1-1.2,0.1-2.5,0.2-3.7c0.2-3,0.5-6,0.7-9.1
		c0.1-1.1,0.1-2.3,0.2-3.4c0.2-3,0.6-6.2,0.8-9.2c0.1-1.1,0.2-2.3,0.4-3.4c0.4-2.9,0.6-5.9,1-8.8c0.1-1.3,0.4-2.7,0.5-4
		c0.4-2.7,0.6-5.3,1-7.8c0.1-1.1,0.2-2.1,0.4-3.1c0.1-1.2,0.4-2.4,0.5-3.5c0.1-0.5,0.1-1,0.2-1.3c2.1-14.1,4.6-28.3,7.6-42.3
		c0.2-1.1,0.6-3.4,0.8-3.5c3.1-13.8,6.8-27.3,11.2-40.7c4.8-14.5,10.5-28.9,17.7-42.3c7-12.9,15.6-25.8,27.5-34.8
		c7.2-5.6,15.7-8.9,24.9-8.9c2.5,0,5.1,0,7.6,0c11.5,0,9.9,0,21.4,0c16.5,0,33,0,49.5,0c17,0,34.1,0,51.1,0c12.2,0,24.3,0,36.5,0
		c0.4,0,0.8,0,1.2,0c-15.3,0-11.4,10.5-20.6,21.9c-9.7,11.8-16.9,25.6-22.8,39.6c-8.9,20.9-15.6,42.9-20.5,65.2c0,0,0,0,0.1,0
		c-2.1,9.3-4,18.6-5.6,28c-3.5,20.4-6,40.9-7.7,61.6c-0.1,0.7-0.1,1.4-0.1,2.2c-0.2,3.3-0.5,6.6-0.7,9.9c-0.1,1-0.1,1.9-0.2,3
		c-0.2,3.1-0.4,6.4-0.5,9.5c0,1-0.1,2.1-0.1,3c-0.1,3.3-0.2,6.6-0.4,9.9c0,0.8-0.1,1.7-0.1,2.5c-0.1,3.1-0.1,6.3-0.2,9.5
		c0,1.1,0,2.2-0.1,3.3c0,2.7-0.1,5.3-0.1,8c0,1.3,0,2.5,0,3.9c0,0.6,0,1.1,0,1.7c0,1.8,0,3.6,0,5.4c0,2.7,0,5.3,0.1,8
		c0,1.1,0,2.2,0.1,3.3c0.1,3.1,0.1,6.3,0.2,9.5c0,0.8,0,1.7,0.1,2.5c0.1,3.3,0.2,6.6,0.4,9.9c0,1,0.1,2.1,0.1,3
		c0.1,3.1,0.4,6.4,0.5,9.5c0.1,1,0.1,1.9,0.2,3c0.2,3.3,0.5,6.6,0.7,9.9c0,0.7,0.1,1.4,0.1,2.2c1.7,20.6,4.2,41.2,7.7,61.6
		c1.7,9.4,3.5,18.7,5.6,28c0,0,0,0-0.1,0c5,22.3,11.6,18,20.5,38.9c6,14,13.2,27.8,22.8,39.6c3.9,4.8,8.5,9.4,13.5,13.2h559.2
		l-112.7,6H182.5c-1.3,0-2.9,0-5,0c-2.3,0-4.5,0-6.8,0c-2.4,0-4-1.8-5.2-3.7c-2.3-4-3.1-6-3.7-10.5c-0.4-3.3-0.6-6.5-0.6-9.7
		c0-0.1,0-3.3,0.1-3.3s0.1-0.4,0.2-0.7h-0.2l4.3-73.4h1.3c-3-14-5.6-28.1-7.6-42.3c-0.1-0.5-0.1-1-0.2-1.3c-0.1-1.2-0.4-2.4-0.5-3.5
		s-0.2-2.1-0.4-3.1c-0.4-2.7-0.7-5.3-1-7.8c-0.1-1.3-0.4-2.7-0.5-4c-0.4-2.9-0.6-5.9-1-8.8c-0.1-1.1-0.2-2.3-0.4-3.4
		c-0.2-3-0.6-6.2-0.8-9.2c-0.1-1.1-0.2-2.3-0.2-3.4c-0.2-3-0.5-6-0.7-9.1c-0.1-1.2-0.1-2.5-0.2-3.7c-0.2-2.9-0.4-5.8-0.5-8.7
		c-0.1-1.4-0.1-2.9-0.2-4.3c-0.1-2.7-0.2-5.3-0.4-8c-0.1-1.7-0.1-3.4-0.1-5.2c0-1.4-0.1-2.9-0.1-4.5c0-0.8,0-1.8,0-2.7
		c0-2.2-0.1-4.3-0.1-6.4s-0.1-4.1-0.1-6.2c0-0.7,0-1.4,0-2.2c0,0.5,0,0.2,0,0l0,0c0,0,0,0,0-0.1c0-0.6,0-0.4,0,0
		C152,385.9,152,384.5,152,383.1z"/>
	<circle class="st1" cx="942" cy="613.7" r="18.1"/>
	<circle class="st2" cx="686.9" cy="613.7" r="18.1"/>
	<g>
		<path class="st3" d="M908,381.3c0.1,5,1.2,8.6,4.2,12.3c-0.4,0.8-0.2,1.8,0.6,2.3c4,2.2,10.6,1.4,15,0.8c1.2-0.1,3-0.1,4.6-0.5
			c-0.5,1.6,1.6,3.4,3,1.8c6.5-7.1,9.7-17.3,12.7-26.3c3-9.2,8.5-29.1,8-30.7c-1.9-6.9-13.8-8.7-17.9-2.5
			c-3.7,5.6-6.3,11.1-11.2,15.9c-4.7,4.5-9.9,8.1-15.6,11.1c-0.7-0.1-1.4,0.2-1.7,0.8C907.6,371.3,907.8,376,908,381.3z"/>
		<path class="st4" d="M911.3,365.6c2.5-1.3,5-2.8,7.2-4.3c-3,3.4-5.6,5.7-5.9,9.9c-0.4,4.7-0.4,9.5,1.8,9.9
			c2.2,0.4,18.2-0.5,18.2-0.5s-4.3,12.3-6.5,16.3c-1.7,0.2-3.6,0.4-5.6,0.5c-2.4-0.5-5.4-1.1-8-1.6c-0.7-0.6-0.8-1.4-0.5-2.2
			c-3-3.7-4.1-7.2-4.2-12.3c-0.1-5.2-0.4-10,1.7-14.9C909.9,365.7,910.6,365.5,911.3,365.6z"/>
		<path class="st5" d="M937.1,397.1c3.3-4.7,18.7-51,17.9-55.7c-1.1-6.3-5.6-6.8-8-4.8c-5.1,3.9-20,50.1-21.4,53.2
			c-1.3,3.1-3,1.7-1.8,5.2C924.4,397,935.9,398.9,937.1,397.1z"/>
		<path class="st6" d="M938.5,397.1c3.3-4.7,18.1-50.4,17.7-54.9c-0.5-6.3-5.4-6.6-7.8-4.8c-5.1,3.9-19.8,49.4-21.1,52.5
			c-1.3,3.1-3,1.7-1.8,5.1C926.1,397,937.3,398.9,938.5,397.1z"/>
	</g>
	<g>
		<path class="st3" d="M884.5,381.3c0.1,5,1.2,8.6,4.2,12.3c-0.4,0.8-0.2,1.8,0.6,2.3c4,2.2,10.6,1.4,15,0.8c1.2-0.1,3-0.1,4.6-0.5
			c-0.5,1.6,1.6,3.4,3,1.8c6.5-7.1,9.7-17.3,12.7-26.3c3-9.2,8.5-29.1,8-30.7c-1.9-6.9-13.8-8.7-17.9-2.5
			c-3.7,5.6-6.3,11.1-11.2,15.9c-4.7,4.5-9.9,8.1-15.6,11.1c-0.7-0.1-1.4,0.2-1.7,0.8C884.2,371.3,884.4,376,884.5,381.3z"/>
		<path class="st4" d="M888,365.6c2.5-1.3,5-2.8,7.2-4.3c-3,3.4-5.6,5.7-5.9,9.9c-0.4,4.7-0.4,9.5,1.8,9.9
			c2.2,0.4,18.2-0.5,18.2-0.5s-4.3,12.3-6.5,16.3c-1.7,0.2-3.6,0.4-5.6,0.5c-2.4-0.5-5.4-1.1-8-1.6c-0.7-0.6-0.8-1.4-0.5-2.2
			c-3-3.7-4.1-7.2-4.2-12.3c-0.1-5.2-0.4-10,1.7-14.9C886.6,365.7,887.3,365.5,888,365.6z"/>
		<path class="st5" d="M913.8,397.1c3.3-4.7,18.7-51,17.9-55.7c-1.1-6.3-5.6-6.8-8-4.8c-5.1,3.9-20,50.1-21.4,53.2
			c-1.3,3.1-3,1.7-1.8,5.2C901.1,397,912.6,398.9,913.8,397.1z"/>
		<path class="st6" d="M915.2,397.1c3.3-4.7,18.1-50.4,17.7-54.9c-0.5-6.3-5.4-6.6-7.8-4.8c-5.1,3.9-19.8,49.4-21.1,52.5
			c-1.3,3.1-3,1.7-1.8,5.1C902.8,397,914,398.9,915.2,397.1z"/>
	</g>
	<g>
		<path class="st7" d="M938.4,401.6c0,2.9,2.4,5.3,5.3,5.3h77.6c2.9,0,5.3-2.4,5.3-5.3v-25c0-2.9-2.4-5.3-5.3-5.3h-77.6
			c-2.9,0-5.3,2.4-5.3,5.3V401.6z"/>
	</g>
	<rect x="876.8" y="388.6" class="st8" width="149.1" height="32.8"/>
	<rect x="656.6" y="463" class="st8" width="301.9" height="157"/>
	<path class="st9" d="M204.6,350.1c0-1.4,0-2.9,0-4.2c0,0.4,0,0.6,0,0s0-0.4,0,0c0-0.7,0-1.6,0-2.3c0-2.1,0-4.1,0.1-6.2
		c0-2.2,0.1-4.3,0.1-6.4c0-0.8,0-1.8,0-2.7c0-1.4,0.1-2.9,0.1-4.5c0-1.7,0.1-3.4,0.1-5.2c0.1-2.7,0.2-5.3,0.4-8
		c0.1-1.4,0.1-2.9,0.2-4.3c0.1-2.9,0.4-5.8,0.5-8.7c0.1-1.2,0.1-2.5,0.2-3.7c0.2-3,0.5-6,0.7-9.1c0.1-1.1,0.1-2.3,0.2-3.4
		c0.2-3,0.6-6.2,0.8-9.2c0.1-1.1,0.2-2.3,0.4-3.4c0.4-2.9,0.6-5.9,1-8.8c0.1-1.3,0.4-2.7,0.5-4c0.4-2.7,0.6-5.3,1-7.8
		c0.1-1.1,0.2-2.1,0.4-3.1c0.1-1.2,0.4-2.4,0.5-3.5c0.1-0.5,0.1-1,0.2-1.3c2.1-14.1,4.6-28.3,7.6-42.3c0.2-1.1,0.6-3.4,0.8-3.5
		c3.1-13.8,6.8-27.3,11.2-40.7c4.8-14.5,10.5-28.9,17.7-42.3c7-12.9,15.6-25.8,27.5-34.8c7.2-5.6,15.7-8.9,24.9-8.9
		c2.5,0,5.1,0,7.6,0c11.5,0,62.5,0,74,0c16.5,0,33,0,49.5,0c17,0,34.1,0,51.1,0c13.2,0,26.3,0,39.6,0c5,0-6.9,0-1.9,0
		c-15.3,0-11.4,10.5-20.6,21.9c-9.7,11.8-16.9,25.6-22.8,39.6c-8.9,20.9-15.6,42.9-20.5,65.2c0,0,0,0,0.1,0c-2.1,9.3-4,18.6-5.6,28
		c-3.5,20.4-6,40.9-7.7,61.6c0,0.7-0.1,1.4-0.1,2.2c-0.2,3.3-0.5,6.6-0.7,9.9c-0.1,1-0.1,1.9-0.2,3c-0.2,3.1-0.4,6.4-0.5,9.5
		c0,1-0.1,2.1-0.1,3c-0.1,3.3-0.2,6.6-0.4,9.9c0,0.8,0,1.7-0.1,2.5c-0.1,3.1-0.1,6.3-0.2,9.5c0,1.1,0,2.2-0.1,3.3
		c0,2.7-0.1,5.3-0.1,8c0,1.8,0,3.6,0,5.4s0,3.6,0,5.4c0,2.7,0,5.3,0.1,8c0,1.1,0,2.2,0.1,3.3c0.1,3.1,0.1,6.3,0.2,9.5
		c0,0.8,0,1.7,0.1,2.5c0.1,3.3,0.2,6.6,0.4,9.9c0,1,0.1,2.1,0.1,3c0.1,3.1,0.4,6.4,0.5,9.5c0.1,1,0.1,1.9,0.2,3
		c0.2,3.3,0.5,6.6,0.7,9.9c0,0.7,0.1,1.4,0.1,2.2c1.7,20.6,4.2,41.2,7.7,61.6c1.7,9.4,3.5,18.7,5.6,28c0,0,0,0-0.1,0
		c5,22.3,11.6,44.3,20.5,65.2c6,14,13.2,27.8,22.8,39.6c9.5,11.6,22,22.1,37.5,22.1c-5,0-9.9,0-14.9,0c-13.2,0-26.3,0-39.6,0
		c-17,0-34.1,0-51.1,0c-16.5,0-33,0-49.5,0c-11.5,0-62.5,0-74,0c-2.5,0-5.1,0-7.6,0c-9.2,0-17.6-3.4-24.9-8.9
		c-11.8-9.1-20.5-21.9-27.5-34.8c-7.2-13.4-12.9-27.8-17.7-42.3c-4.5-13.4-8.1-26.9-11.2-40.7c-0.1-0.2-0.6-2.4-0.8-3.5
		c-3-14-5.6-28.1-7.6-42.3c-0.1-0.5-0.1-1-0.2-1.3c-0.1-1.2-0.4-2.4-0.5-3.5s-0.2-2.1-0.4-3.1c-0.4-2.7-0.7-5.3-1-7.8
		c-0.1-1.3-0.4-2.7-0.5-4c-0.4-2.9-0.7-5.9-1-8.8c-0.1-1.1-0.2-2.3-0.4-3.4c-0.2-3-0.6-6.2-0.8-9.2c-0.1-1.1-0.2-2.3-0.2-3.4
		c-0.2-3-0.5-6-0.7-9.1c-0.1-1.2-0.1-2.5-0.2-3.7c-0.2-2.9-0.4-5.8-0.5-8.7c-0.1-1.4-0.1-2.9-0.2-4.3c-0.1-2.7-0.2-5.3-0.4-8
		c-0.1-1.7-0.1-3.4-0.1-5.2c0-1.4-0.1-2.9-0.1-4.5c0-0.8,0-1.8,0-2.7c0-2.2-0.1-4.3-0.1-6.4s-0.1-4.1-0.1-6.2c0-0.7,0-1.6,0-2.3
		c0,0.4,0,0.6,0,0s0-0.4,0,0C204.6,353,204.6,351.6,204.6,350.1z"/>
	<g class="st10">
		<path class="st11" d="M204.6,354.5L204.6,354.5C204.6,355.1,204.6,354.8,204.6,354.5z"/>
		<path class="st11" d="M204.6,345.8L204.6,345.8C204.6,345.5,204.6,345.3,204.6,345.8z"/>
		<path class="st12" d="M204.6,350.1c0-1.4,0-2.9,0-4.2c0,0.1,0,0.2,0,0.4c0.2-33,2.4-65.7,6.5-98.3c4.2-32.5,10.9-65,21.3-96
			c5.2-15.5,11.4-30.5,19.4-44.7c7.2-12.6,16.3-25.2,28.9-33.1c5.9-3.7,12.8-6,19.8-6.3c5.4-0.2,10.9,0,16.3,0c13.4,0,26.9,0,40.3,0
			c-15.2,0-27.8,9.7-37.2,20.8c-9.9,11.7-17.1,25.7-23.3,39.7c-12.9,29.8-20.8,62.1-26.3,94.1c-5.7,33-8.9,66.5-9.9,100
			c-0.2,7.8-0.4,15.7-0.5,23.4c0-0.1,0-0.2,0-0.2s0,0.5,0,0.2c0,0.1,0,0.2,0,0.5c0-0.1,0-0.2,0-0.4c0,2.9,0,5.7,0,8.6
			c0-0.1,0-0.2,0-0.4c0,0.1,0,0.2,0,0.5c0-0.1,0,0.2,0,0.4c0-0.1,0-0.2,0-0.4c0.1,16.5,0.7,33,1.7,49.4c1.1,16.7,2.9,33.2,5,49.9
			c1.1,8.5,2.4,16.8,3.9,25.1c0.7,4.2,1.6,8.5,2.4,12.7c0.1,0.6,0,1.9,0.7,2.3c2.5,1,5.8,1,8.6,1.2c13.6,1.2,27.4,1.8,41.2,2.5
			c17.1,0.8,34.4,1.7,51.6,2.7c12.1,0.6,24.1,1.1,36.1,2.5c1.2,0.1,2.4,0.2,3.5,0.6c0.1,0,1.1,0.4,0.5,0.5c-2.5,0.5-5.4,0.4-8,0.4
			c-13.5,0.4-27,0.5-40.6,0.7c-17.1,0.2-34.2,0.4-51.3,0.6c-11.8,0.1-23.7,0.2-35.5,0.4c-1.1,0-2.2,0-3.3,0c-0.1,0-0.4,0-0.5,0
			c0,0,2.3,9.5,2.4,10.4c4.1,16.3,8.9,32.4,15.1,47.9c5.8,14.5,12.7,28.9,21.9,41.5c8.5,11.6,19.8,22.9,34.4,26
			c2.4,0.5,5,0.7,7.5,0.7c-13.9,0-27.7,0-41.5,0c-5.9,0-11.8,0.4-17.7-0.2c-7.4-0.8-14.2-3.9-20.2-8.1c-12-8.7-20.5-21.4-27.5-34.2
			c-7.8-14.4-14-29.7-19.1-45.4c-10.1-31.3-16.3-63.6-20.5-96.1c-4-31.3-5.8-62.9-6-94.4c0,0.1,0,0.2,0,0.4
			C204.6,353,204.6,351.6,204.6,350.1z"/>
	</g>
	<g class="st13">
		<path class="st14" d="M204.6,354.5L204.6,354.5C204.6,355.1,204.6,354.8,204.6,354.5z"/>
		<path class="st15" d="M441.9,348.6c0,0.6,0,1.1,0,1.7c0,1.8,0,3.6,0,5.4c0,2.7,0,5.3,0.1,8c0,1.1,0,2.2,0.1,3.3
			c0.1,3.1,0.1,6.3,0.2,9.5c0,0.8,0,1.7,0.1,2.5c0.1,3.3,0.2,6.6,0.4,9.9c0,1,0.1,2.1,0.1,3c0.1,3.1,0.4,6.4,0.5,9.5
			c0.1,1,0.1,1.9,0.2,3c0.2,3.3,0.5,6.6,0.7,9.9c0,0.7,0.1,1.4,0.1,2.2c1.7,20.6,4.2,41.2,7.7,61.6c1.7,9.4,3.5,18.7,5.6,28
			c0,0,0,0-0.1,0c5,22.3,11.6,44.3,20.5,65.2c6,14,13.2,27.8,22.8,39.6c9.3,11.4,21.9,21.9,37.3,21.9c-5,0-9.9,0-14.9,0
			c-13.2,0-26.3,0-39.6,0c-17,0-34.1,0-51.1,0c-16.5,0-33,0-49.5,0c-11.5,0-62.5,0-74,0c-2.5,0-5.1,0-7.6,0
			c-9.2,0-17.6-3.4-24.9-8.9c-11.8-9.1-20.5-21.9-27.5-34.8c-7.2-13.4-12.9-27.8-17.7-42.3c-4.5-13.4-8.1-26.9-11.2-40.7
			c-0.1-0.2-0.6-2.4-0.8-3.5c-3-14-5.6-28.1-7.6-42.3c-0.1-0.5-0.1-1-0.2-1.3c-0.1-1.2-0.4-2.4-0.5-3.5s-0.2-2.1-0.4-3.1
			c-0.4-2.7-0.7-5.3-1-7.8c-0.1-1.3-0.4-2.7-0.5-4c-0.4-2.9-0.7-5.9-1-8.8c-0.1-1.1-0.2-2.3-0.4-3.4c-0.2-3-0.6-6.2-0.8-9.2
			c-0.1-1.1-0.2-2.3-0.2-3.4c-0.2-3-0.5-6-0.7-9.1c-0.1-1.2-0.1-2.5-0.2-3.7c-0.2-2.9-0.4-5.8-0.5-8.7c-0.1-1.4-0.1-2.9-0.2-4.3
			c-0.1-2.7-0.2-5.3-0.4-8c-0.1-1.7-0.1-3.4-0.1-5.2c0-1.4-0.1-2.9-0.1-4.5c0-0.8,0-1.8,0-2.7c0-2.2-0.1-4.3-0.1-6.4
			s-0.1-4.1-0.1-6.2c0-0.7,0-1.6,0-2.3c0,0,0,0,0-0.1c0-0.6,0-0.4,0,0c0-1.4,0-2.9,0-4.2c0-0.6,0-1.1,0-1.7L441.9,348.6L441.9,348.6
			L441.9,348.6z"/>
		<g class="st16">
			<path class="st11" d="M204.6,354.6C204.6,354.5,204.6,354.5,204.6,354.6C204.6,354.8,204.6,355.1,204.6,354.6z"/>
			<path class="st11" d="M204.6,345.9C204.6,345.8,204.6,345.8,204.6,345.9C204.6,345.3,204.6,345.5,204.6,345.9z"/>
			<path class="st11" d="M259.2,588.8c-7.2-13.4-12.9-27.8-17.7-42.3c-4.5-13.4-8.1-26.9-11.2-40.7c-0.1-0.2-0.6-2.4-0.8-3.5
				c-3-14-5.6-28.1-7.6-42.3c-0.1-0.5-0.1-1-0.2-1.3c-0.1-1.2-0.4-2.4-0.5-3.5s-0.2-2.1-0.4-3.1c-0.4-2.7-0.7-5.3-1-7.8
				c-0.1-1.3-0.4-2.7-0.5-4c-0.4-2.9-0.6-5.9-1-8.8c-0.1-1.1-0.2-2.3-0.4-3.4c-0.2-3-0.6-6.2-0.8-9.2c-0.1-1.1-0.2-2.3-0.2-3.4
				c-0.2-3-0.5-6-0.7-9.1c-0.1-1.2-0.1-2.5-0.2-3.7c-0.2-2.9-0.4-5.8-0.5-8.7c-0.1-1.4-0.1-2.9-0.2-4.3c-0.1-2.7-0.2-5.3-0.4-8
				c-0.1-1.7-0.1-3.4-0.1-5.2c0-1.4-0.1-2.9-0.1-4.5c0-0.8,0-1.8,0-2.7c0-2.2-0.1-4.3-0.1-6.4s-0.1-4.1-0.1-6.2c0-0.7,0-1.6,0-2.3
				c0,0.5,0,0.2,0,0l0,0c0,0,0,0,0-0.1c0-0.6,0-0.4,0,0c0-1.4,0-2.9,0-4.2c0-1.4,0-2.9,0-4.2c0,0.4,0,0.6,0,0c0,0,0,0,0-0.1l0,0
				c0-0.4,0-0.6,0,0c0-0.7,0-1.6,0-2.3c0-2.1,0-4.1,0.1-6.2c0-2.2,0.1-4.3,0.1-6.4c0-0.8,0-1.8,0-2.7c0-1.4,0.1-2.9,0.1-4.5
				c0-1.7,0.1-3.4,0.1-5.2c0.1-2.7,0.2-5.3,0.4-8c0.1-1.4,0.1-2.9,0.2-4.3c0.1-2.9,0.4-5.8,0.5-8.7c0.1-1.2,0.1-2.5,0.2-3.7
				c0.2-3,0.5-6,0.7-9.1c0.1-1.1,0.1-2.3,0.2-3.4c0.2-3,0.6-6.2,0.8-9.2c0.1-1.1,0.2-2.3,0.4-3.4c0.4-2.9,0.6-5.9,1-8.8
				c0.1-1.3,0.4-2.7,0.5-4c0.4-2.7,0.6-5.3,1-7.8c0.1-1.1,0.2-2.1,0.4-3.1c0.1-1.2,0.4-2.4,0.5-3.5c0.1-0.5,0.1-1,0.2-1.3
				c2.1-14.1,4.6-28.3,7.6-42.3c0.2-1.1,0.6-3.4,0.8-3.5c3.1-13.8,6.8-27.3,11.2-40.7c4.8-14.5,10.5-28.9,17.7-42.3
				c7-12.9,15.7-25.8,27.5-34.8c7.2-5.6,15.7-8.9,24.9-8.9c-0.7,0-1.4,0-2.1,0c-2.5,0-5.1,0-7.6,0c-9.2,0-17.6,3.4-24.9,8.9
				c-11.8,9.1-20.5,21.9-27.5,34.8c-7.2,13.4-12.9,27.8-17.7,42.3c-4.5,13.4-8.1,26.9-11.2,40.7c-0.1,0.2-0.6,2.4-0.8,3.5
				c-3,14-5.6,28.1-7.6,42.3c-0.1,0.5-0.1,1-0.2,1.3c-0.1,1.2-0.4,2.4-0.5,3.5s-0.2,2.1-0.4,3.1c-0.4,2.7-0.7,5.3-1,7.8
				c-0.1,1.3-0.4,2.7-0.5,4c-0.4,2.9-0.7,5.9-1,8.8c-0.1,1.1-0.2,2.3-0.4,3.4c-0.2,3-0.6,6.2-0.8,9.2c-0.1,1.1-0.2,2.3-0.2,3.4
				c-0.2,3-0.5,6-0.7,9.1c-0.1,1.2-0.1,2.5-0.2,3.7c-0.2,2.9-0.4,5.8-0.5,8.7c-0.1,1.4-0.1,2.9-0.2,4.3c-0.1,2.7-0.2,5.3-0.4,8
				c-0.1,1.7-0.1,3.4-0.1,5.2c0,1.4-0.1,2.9-0.1,4.5c0,0.8,0,1.8,0,2.7c0,2.2-0.1,4.3-0.1,6.4s-0.1,4.1-0.1,6.2c0,0.7,0,1.6,0,2.3
				c0,0,0,0,0,0.1c0,0.6,0,0.4,0,0c0,1.4,0,2.9,0,4.2c0,1.4,0,2.9,0,4.2c0-0.4,0-0.6,0,0c0,0,0,0,0,0.1c0,0.7,0,1.6,0,2.3
				c0,2.1,0,4.1,0.1,6.2c0,2.2,0.1,4.3,0.1,6.4c0,0.8,0,1.8,0,2.7c0,1.4,0.1,2.9,0.1,4.5c0,1.7,0.1,3.4,0.1,5.2
				c0.1,2.7,0.2,5.3,0.4,8c0.1,1.4,0.1,2.9,0.2,4.3c0.1,2.9,0.4,5.8,0.5,8.7c0.1,1.2,0.1,2.5,0.2,3.7c0.2,3,0.5,6,0.7,9.1
				c0.1,1.1,0.1,2.3,0.2,3.4c0.2,3,0.6,6.2,0.8,9.2c0.1,1.1,0.2,2.3,0.4,3.4c0.4,2.9,0.6,5.9,1,8.8c0.1,1.3,0.4,2.7,0.5,4
				c0.4,2.7,0.6,5.3,1,7.8c0.1,1.1,0.2,2.1,0.4,3.1c0.1,1.2,0.4,2.4,0.5,3.5c0.1,0.5,0.1,1,0.2,1.3c2.1,14.1,4.6,28.3,7.6,42.3
				c0.2,1.1,0.6,3.4,0.8,3.5c3.1,13.8,6.8,27.3,11.2,40.7c4.8,14.5,10.5,28.9,17.7,42.3c7,12.9,15.6,25.8,27.5,34.8
				c7.2,5.6,15.7,8.9,24.9,8.9c2.5,0,5.1,0,7.6,0c0.6,0,1.3,0,2.1,0c-9.2,0-17.6-3.4-24.9-8.9C274.9,614.7,266.2,601.9,259.2,588.8z
				"/>
		</g>
	</g>
	<g>
		<line class="st17" x1="419.3" y1="214.5" x2="216.2" y2="214.5"/>
	</g>
	<g>
		<line class="st17" x1="419.7" y1="484.9" x2="215.8" y2="484.9"/>
	</g>
	<g class="st18">
		<g>
			<polygon class="st19" points="420.3,502.4 218.5,502.4 214.2,602 415.9,602 			"/>
		</g>
		<g>
			<path class="st1" d="M415.9,601.4c-0.2,5.7,0.1,12.6,1.1,18.1c0.5,2.8,1.3,5.7,2.5,8.2c1,2.1,2.8,4.8,5.4,4.8c-5.4,0-11,0-16.4,0
				c-13.5,0-27,0-40.6,0c-17.1,0-34.3,0-51.3,0c-16.3,0-49.7,0-66,0c-11.1,0-9.1,0-20.3,0c-2.3,0-4.5,0-6.8,0c-2.4,0-4-1.8-5.2-3.7
				c-2.3-4-3.1-8.7-3.7-13c-0.4-3.3-0.6-6.5-0.6-9.7c0,0,0,0.1,0,0s0-3.3,0.1-3.3s0.4-1.3,0.5-1.3L415.9,601.4L415.9,601.4
				L415.9,601.4z"/>
		</g>
		<g>
			<path class="st20" d="M400,350.1c0-1.4,0-2.9,0-4.2c0,0.4,0,0.6,0,0c0,0,0,0,0-0.1c0-0.7,0-1.6,0-2.3c0-2.1,0-4.1,0.1-6
				c0-2.2,0.1-4.3,0.1-6.5c0-0.8,0-1.7,0-2.7c0-1.4,0.1-2.9,0.1-4.5c0-1.7,0.1-3.5,0.1-5.2c0.1-2.7,0.2-5.3,0.4-8
				c0.1-1.4,0.1-2.9,0.2-4.3c0.1-2.9,0.4-5.8,0.5-8.6c0.1-1.2,0.1-2.5,0.2-3.7c0.2-3,0.5-6,0.7-9.1c0.1-1.1,0.1-2.3,0.2-3.4
				c0.2-3,0.6-6,0.8-9.2c0.1-1.2,0.2-2.3,0.4-3.5c0.2-2.9,0.6-5.9,1-8.8c0.1-1.3,0.4-2.7,0.5-4c0.4-2.7,0.6-5.3,1-7.8
				c0.1-1.1,0.2-2.1,0.4-3.1c0.1-1.2,0.4-2.4,0.5-3.5c0.1-0.5,0.1-1,0.2-1.3c2.1-14.1,4.6-28.3,7.6-42.3c0.2-1.1,0.6-3.4,0.8-3.5
				c3.1-13.8,6.8-27.3,11.2-40.7c4.8-14.5,10.5-28.9,17.7-42.3c7-12.9,15.6-25.8,27.5-34.8c7.2-5.6,15.7-8.9,24.9-8.9
				c2.5,0,5.1,0,7.6,0c2.8,0,8,0,14.4,0c0.1,0,0.4,0,0.5,0c0.7,0,1.1,0,1.2,0c-15.3,0-14.5,10.5-23.8,21.9
				c-9.7,11.8-16.9,25.6-22.8,39.6c-8.9,20.9-15.6,42.9-20.5,65.2c0,0,0,0,0.1,0c-2.1,9.3-4,18.6-5.6,28c-3.5,20.4-6,40.9-7.7,61.6
				c0,0.7-0.1,1.4-0.1,2.2c-0.2,3.3-0.5,6.6-0.7,9.9c-0.1,1-0.1,1.9-0.2,3c-0.2,3.1-0.4,6.4-0.5,9.5c0,1-0.1,2.1-0.1,3
				c-0.1,3.3-0.2,6.6-0.4,9.9c0,0.8-0.1,1.7-0.1,2.5c-0.1,3.1-0.1,6.3-0.2,9.5c0,1.1,0,2.2-0.1,3.3c0,2.7-0.1,5.3-0.1,8
				c0,1.8,0,3.6,0,5.4s0,3.6,0,5.4c0,2.7,0,5.3,0.1,8c0,1.1,0,2.2,0.1,3.3c0.1,3.1,0.1,6.3,0.2,9.5c0,0.8,0,1.7,0.1,2.5
				c0.1,3.3,0.2,6.6,0.4,9.9c0,1,0.1,2.1,0.1,3c0.1,3.1,0.4,6.4,0.5,9.5c0.1,1,0.1,1.9,0.2,3c0.2,3.3,0.5,6.6,0.7,9.9
				c0,0.7,0.1,1.4,0.1,2.2c1.7,20.6,4.2,41.2,7.7,61.6c1.7,9.4,3.5,18.7,5.6,28c0,0,0,0-0.1,0c5,22.3,11.6,44.3,20.5,65.2
				c6,14,13.2,27.8,22.8,39.6c9.3,11.4,8.3,21.9,23.8,21.9c-0.1,0-0.6,0-1.2,0c-0.1,0-0.4,0-0.5,0c-6.4,0-11.6,0-14.4,0
				c-2.5,0-5.1,0-7.6,0c-9.2,0-17.6-3.4-24.9-8.9c-11.8-9.1-20.5-21.9-27.5-34.8c-7.2-13.4-12.9-27.8-17.7-42.3
				c-4.5-13.4-8.1-26.9-11.2-40.7c-0.1-0.2-0.6-2.4-0.8-3.5c-3-14-5.6-28.1-7.6-42.3c-0.1-0.5-0.1-1-0.2-1.3
				c-0.1-1.2-0.4-2.4-0.5-3.5s-0.2-2.1-0.4-3.1c-0.4-2.7-0.7-5.2-1-7.8c-0.1-1.3-0.4-2.7-0.5-4c-0.4-2.9-0.6-5.8-1-8.8
				c-0.1-1.2-0.2-2.3-0.4-3.5c-0.2-3-0.6-6-0.8-9.2c-0.1-1.1-0.2-2.3-0.2-3.4c-0.2-3-0.5-6-0.7-9.1c-0.1-1.2-0.1-2.5-0.2-3.7
				c-0.2-2.9-0.4-5.8-0.5-8.6c-0.1-1.4-0.1-2.9-0.2-4.3c-0.1-2.7-0.2-5.3-0.4-8c-0.1-1.7-0.1-3.5-0.1-5.2c0-1.4-0.1-2.9-0.1-4.5
				c0-0.8,0-1.7,0-2.7c0-2.2-0.1-4.3-0.1-6.5c0-2.1-0.1-4.1-0.1-6c0-0.7,0-1.6,0-2.3c0,0,0,0,0-0.1c0-0.6,0-0.4,0,0
				C400,353,400,351.6,400,350.1z"/>
			<path class="st21" d="M403.8,345.8L403.8,345.8C403.8,345.5,403.8,345.3,403.8,345.8z"/>
			<path class="st21" d="M403.8,354.5L403.8,354.5C403.8,355.1,403.8,354.8,403.8,354.5z"/>
			<path class="st22" d="M403.8,350.1c0-1.4,0-2.9,0-4.2c0,0.4,0,0.6,0,0c0,0,0,0,0-0.1c0-0.7,0-1.6,0-2.3c0-2.1,0-4.1,0.1-6
				c0-2.2,0.1-4.3,0.1-6.5c0-0.8,0-1.7,0-2.7c0-1.4,0.1-2.9,0.1-4.5c0-1.7,0.1-3.5,0.1-5.2c0.1-2.7,0.2-5.3,0.4-8
				c0.1-1.4,0.1-2.9,0.2-4.3c0.1-2.9,0.4-5.8,0.5-8.6c0.1-1.2,0.1-2.5,0.2-3.7c0.2-3,0.5-6,0.7-9.1c0.1-1.1,0.2-2.3,0.2-3.4
				c0.2-3,0.6-6,0.8-9.2c0.1-1.2,0.2-2.3,0.4-3.5c0.2-2.9,0.6-5.9,1-8.8c0.1-1.3,0.4-2.7,0.5-4c0.4-2.7,0.6-5.3,1-7.8
				c0.1-1.1,0.2-2.1,0.4-3.1c0.1-1.2,0.4-2.4,0.5-3.5c0.1-0.5,0.1-1,0.2-1.3c2.1-14.1,4.6-28.3,7.6-42.3c0.2-1.1,0.6-3.4,0.8-3.5
				c3.1-13.8,6.8-27.3,11.2-40.7c4.8-14.5,10.5-28.9,17.7-42.3c7-12.9,15.6-25.8,27.5-34.8c7.2-5.6,15.7-8.9,24.9-8.9
				c2.5,0,5.1,0,7.6,0c2.8,0,8,0,14.4,0c0.1,0,0.4,0,0.5,0c0.7,0,1.1,0,1.2,0c-15.3,0-14.5,10.5-23.8,21.9
				c-9.7,11.8-16.9,25.6-22.8,39.6c-8.9,20.9-15.6,42.9-20.5,65.2c0,0,0,0,0.1,0c-2.1,9.3-4,18.6-5.6,28c-3.5,20.4-6,40.9-7.7,61.6
				c0,0.7-0.1,1.4-0.1,2.2c-0.2,3.3-0.5,6.6-0.7,9.9c-0.1,1-0.1,1.9-0.2,3c-0.2,3.1-0.4,6.4-0.5,9.5c0,1-0.1,2.1-0.1,3
				c-0.1,3.3-0.2,6.6-0.4,9.9c0,0.8,0,1.7-0.1,2.5c-0.1,3.1-0.1,6.3-0.2,9.5c0,1.1,0,2.2-0.1,3.3c0,2.7-0.1,5.3-0.1,8
				c0,1.8,0,3.6,0,5.4s0,3.6,0,5.4c0,2.7,0,5.3,0.1,8c0,1.1,0,2.2,0.1,3.3c0.1,3.1,0.1,6.3,0.2,9.5c0,0.8,0,1.7,0.1,2.5
				c0.1,3.3,0.2,6.6,0.4,9.9c0,1,0.1,2.1,0.1,3c0.1,3.1,0.4,6.4,0.5,9.5c0.1,1,0.1,1.9,0.2,3c0.2,3.3,0.5,6.6,0.7,9.9
				c0,0.7,0.1,1.4,0.1,2.2c1.7,20.6,4.2,41.2,7.7,61.6c1.7,9.4,3.5,18.7,5.6,28c0,0,0,0-0.1,0c5,22.3,11.6,44.3,20.5,65.2
				c6,14,13.2,27.8,22.8,39.6c9.3,11.4,8.3,21.9,23.8,21.9c-0.1,0-0.6,0-1.2,0c-0.1,0-0.4,0-0.5,0c-6.4,0-11.6,0-14.4,0
				c-2.5,0-5.1,0-7.6,0c-9.2,0-17.6-3.4-24.9-8.9c-11.8-9.1-20.5-21.9-27.5-34.8c-7.2-13.4-12.9-27.8-17.7-42.3
				c-4.5-13.4-8.1-26.9-11.2-40.7c-0.1-0.2-0.6-2.4-0.8-3.5c-3-14-5.6-28.1-7.6-42.3c-0.1-0.5-0.1-1-0.2-1.3
				c-0.1-1.2-0.4-2.4-0.5-3.5s-0.2-2.1-0.4-3.1c-0.4-2.7-0.7-5.2-1-7.8c-0.1-1.3-0.4-2.7-0.5-4c-0.4-2.9-0.6-5.8-1-8.8
				c-0.1-1.2-0.2-2.3-0.4-3.5c-0.2-3-0.6-6-0.8-9.2c-0.1-1.1-0.2-2.3-0.2-3.4c-0.2-3-0.5-6-0.7-9.1c-0.1-1.2-0.1-2.5-0.2-3.7
				c-0.2-2.9-0.4-5.8-0.5-8.6c-0.1-1.4-0.1-2.9-0.2-4.3c-0.1-2.7-0.2-5.3-0.4-8c-0.1-1.7-0.1-3.5-0.1-5.2c0-1.4-0.1-2.9-0.1-4.5
				c0-0.8,0-1.7,0-2.7c0-2.2-0.1-4.3-0.1-6.5c0-2.1-0.1-4.1-0.1-6c0-0.7,0-1.6,0-2.3c0,0,0,0,0-0.1c0-0.6,0-0.4,0,0
				C403.8,353,403.8,351.6,403.8,350.1z"/>
		</g>
	</g>
	<path class="st23" d="M441.9,348.6c0,0.6,0,1.1,0,1.7c0,1.8,0,3.6,0,5.4c0,2.7,0,5.3,0.1,8c0,1.1,0,2.2,0.1,3.3
		c0.1,3.1,0.1,6.3,0.2,9.5c0,0.8,0,1.7,0.1,2.5c0.1,3.3,0.2,6.6,0.4,9.9c0,1,0.1,2.1,0.1,3c0.1,3.1,0.4,6.4,0.5,9.5
		c0.1,1,0.1,1.9,0.2,3c0.2,3.3,0.5,6.6,0.7,9.9c0,0.7,0.1,1.4,0.1,2.2c1.7,20.6,4.2,41.2,7.7,61.6c1.7,9.4,3.5,18.7,5.6,28
		c0,0,0,0-0.1,0c5,22.3,11.6,44.3,20.5,65.2c6,14,13.2,27.8,22.8,39.6c9.3,11.4,8.3,21.9,23.8,21.9c-0.1,0-0.6,0-1.2,0
		c-0.1,0-0.4,0-0.5,0c-6.4,0-11.6,0-14.4,0c-2.5,0-5.1,0-7.6,0c-9.2,0-17.6-3.4-24.9-8.9c-11.8-9.1-20.5-21.9-27.5-34.8
		c-7.2-13.4-12.9-27.8-17.7-42.3c-4.5-13.4-8.1-26.9-11.2-40.7c-0.1-0.2-0.6-2.4-0.8-3.5c-3-14-5.6-28.1-7.6-42.3
		c-0.1-0.5-0.1-1-0.2-1.3c-0.1-1.2-0.4-2.4-0.5-3.5s-0.2-2.1-0.4-3.1c-0.4-2.7-0.7-5.2-1-7.8c-0.1-1.3-0.4-2.7-0.5-4
		c-0.4-2.9-0.6-5.8-1-8.8c-0.1-1.2-0.2-2.3-0.4-3.5c-0.2-3-0.6-6-0.8-9.2c-0.1-1.1-0.2-2.3-0.2-3.4c-0.2-3-0.5-6-0.7-9.1
		c-0.1-1.2-0.1-2.5-0.2-3.7c-0.2-2.9-0.4-5.8-0.5-8.6c-0.1-1.4-0.1-2.9-0.2-4.3c-0.1-2.7-0.2-5.3-0.4-8c-0.1-1.7-0.1-3.5-0.1-5.2
		c0-1.4-0.1-2.9-0.1-4.5c0-0.8,0-1.7,0-2.7c0-2.2-0.1-4.3-0.1-6.5c0-2.1-0.1-4.1-0.1-6c0-0.7,0-1.6,0-2.3c0,0,0,0,0-0.1
		c0-0.6,0-0.4,0,0c0-1.4,0-2.9,0-4.2c0-0.6,0-1.1,0-1.7h38L441.9,348.6L441.9,348.6z"/>
	<g>
		<path class="st1" d="M590.9,550.6c-8.8,26-19.2,46.2-30.7,60.5c-9.9,12.2-20.2,19.4-30.8,21.5h69.9c5.7,0,9.7-13.4,8.9-29.8
			l-4.3-99.7C600.3,520.1,596,535.9,590.9,550.6z"/>
	</g>
	<g>
		<path class="st24" d="M457,150.5c8.8-26,19.2-46.2,30.7-60.5c12-14.7,24.5-22.2,37.6-22.2S551,75.3,562.9,90
			c11.5,14.2,21.9,34.5,30.7,60.5s15.8,56.1,20.6,89.7c5.1,34.8,7.6,71.8,7.6,109.9c0,38-2.5,75.1-7.6,109.9
			c-2.2,14.7-4.7,28.9-7.6,42.3c-3.7,17-8.1,33-13,47.5c-8.8,26-19.2,46.2-30.7,60.5c-9.9,12.2-20.2,19.4-30.8,21.5
			c-2.3,0.5-4.5,0.7-6.8,0.7s-4.5-0.2-6.8-0.7c-10.6-2.2-21-9.3-30.8-21.5c-11.5-14.2-21.9-34.5-30.7-60.5c-5-14.5-9.3-30.4-13-47.6
			c-2.9-13.4-5.4-27.4-7.6-42.3c-5.1-34.8-7.6-71.8-7.6-109.9s2.5-75.1,7.6-109.9C441.2,206.7,448.2,176.5,457,150.5z"/>
	</g>
	<g>
		<path class="st1" d="M411,602.4c-0.7,16.4,3.4,29.8,8.9,29.8h69.9c-10.6-2.2-21-9.3-30.8-21.5c-11.5-14.2-21.9-34.5-30.7-60.5
			c-5-14.5-9.3-30.4-13-47.6L411,602.4z"/>
	</g>
	<path class="st25" d="M621.9,350.1c0,38.2-2.5,75.1-7.6,109.9c-2.2,14.7-4.7,28.9-7.6,42.3c-3.7,17-8.1,33-13,47.5
		c-8.8,26-19.2,46.2-30.7,60.5c-9.9,12.2-20.2,19.4-30.8,21.5c-2.3,0.5-4.5,0.7-6.8,0.7s-4.5-0.2-6.8-0.7
		c-10.6-2.2-21-9.3-30.8-21.5c-11.5-14.2-21.9-34.5-30.7-60.5c-5-14.5-9.3-30.4-13-47.6c-2.9-13.4-5.4-27.4-7.6-42.3
		c-5.1-34.8-7.6-71.8-7.6-109.9c0-0.6,0-1.1,0-1.7h192.8C621.8,349,621.9,349.6,621.9,350.1z"/>
	<g>
		<path class="st26" d="M630.9,350.1c0,144.9-40.2,262.4-89.7,262.4S451.5,495,451.5,350.1s40.2-262.4,89.7-262.4
			C590.6,87.7,630.9,205.2,630.9,350.1z"/>
		<path class="st3" d="M541,87.7c32.5,0,61,50.5,76.7,126.2c-2.7,13.3-6.3,28.4-8.9,32.5l-118.3-5.3c0,0-4.6-5.9-19.1-17.1
			c-2.5-2.1-5.3-3.6-8.1-4.8C478.8,140.6,507.8,87.7,541,87.7z"/>
		<path class="st3" d="M630.9,350.1c0,53.5-5.4,103.2-14.9,144.8h-76.1V184.6h70.9C623.2,229.7,630.9,287.3,630.9,350.1z"/>
	</g>
	<g>
		<path class="st27" d="M549,134.5c40.7,0,73.8,96.6,73.8,215.7c0,119.2-33.1,215.7-73.8,215.7c-34.2,0-62.9-67.9-71.4-160.1
			c-1.6-17.7-2.5-36.3-2.5-55.7c0-19.2,0.8-37.9,2.5-55.7C486.1,202.3,514.8,134.5,549,134.5z"/>
	</g>
	<g class="st10">
		<path class="st28" d="M441.9,486.6c17.5,0,35.5-11,52.3-31.9c13.2-16.3,21.1-33.2,21.1-33.4l31.6-69.3l-3.6-1.7l-31.5,69.3
			c-0.2,0.6-31,65.4-72.2,62.9l-0.2,4C440.2,486.4,441,486.6,441.9,486.6z"/>
	</g>
	<g class="st10">
		<path class="st28" d="M543.3,348.4l3.6-1.7l-31.5-69.3c-0.1-0.2-8.1-17-21.3-33.4c-17.6-21.9-36.6-32.8-54.8-31.8l0.2,4
			c41.2-2.5,71.8,62.2,72.2,62.9L543.3,348.4z"/>
	</g>
	<path class="st29" d="M618.9,480.9c-0.7,3.9-1.6,7.7-2.4,11.5l-0.1,0.2c-0.8-39.1-29.5-71.4-29.8-71.7l2.9-2.7
		C590.6,419.4,613.8,445.9,618.9,480.9z"/>
	<path class="st29" d="M606.3,254.6c-7.8,14.9-16.4,25.4-16.8,25.8l-3-2.5c0.4-0.5,34.9-43,29.1-74.1v0.1c1.1,4.8,2.2,9.9,3.3,15
		C617.4,229.6,613.3,241.4,606.3,254.6z"/>
	<g>
		<path class="st30" d="M481.4,293.3c3.3-34.5,9.5-66.2,18.4-92.3c13.5-39.5,31.5-61.2,50.6-61.2s37.1,21.7,50.6,61.2
			c13.4,39.5,20.9,92,20.9,147.9c0,55.8-7.5,108.3-20.9,147.8c-13.5,39.5-31.5,61.2-50.6,61.2s-37.1-21.7-50.6-61.2
			c-8.9-26-15.2-57.7-18.4-92.3V293.3z"/>
	</g>
	<g>
		<g>
			<g>
				<path class="st3" d="M550.3,477.9c-25.2,0-44.9-56.1-44.9-127.7s19.8-127.7,44.9-127.7c25.2,0,44.9,56.1,44.9,127.7
					S575.6,477.9,550.3,477.9z"/>
			</g>
			<g>
				<path class="st31" d="M550.3,224.4c23.8,0,43,56.3,43,125.7s-19.2,125.7-43,125.7s-43-56.3-43-125.7S526.5,224.4,550.3,224.4
					 M550.3,220.6c-13.3,0-25.5,14-34.2,39.5c-8.2,24.1-12.8,56.1-12.8,90.2s4.6,66,12.8,90.2C524.8,466,537,480,550.3,480
					s25.5-14,34.2-39.5c8.2-24.1,12.8-56.1,12.8-90.2s-4.6-66-12.8-90.2C575.7,234.6,563.6,220.6,550.3,220.6L550.3,220.6z"/>
			</g>
		</g>
		<path class="st32" d="M593.3,348.6h-86c0.4-68.7,19.4-124.1,43-124.1C573.9,224.4,592.9,279.8,593.3,348.6z"/>
		<path class="st32" d="M589.4,298.6H511c6.8-43.7,21.7-74.1,39.2-74.1C567.7,224.4,582.8,254.9,589.4,298.6z"/>
	</g>
	<g>
		<path class="st33" d="M546.3,245.7c-19.7,0-35.7,46.8-35.7,104.4s16.1,104.4,35.7,104.4c19.7,0,35.7-46.8,35.7-104.4
			S566,245.7,546.3,245.7z"/>
		<path class="st20" d="M510.7,343.2c0-1.1,0-2.3,0.1-3.4c0-0.7,0-1.3,0.1-2.1c0-1,0.1-2.1,0.1-3c0-0.7,0.1-1.4,0.1-2.2
			c0-1,0.1-1.9,0.1-2.8c0-0.7,0.1-1.4,0.1-2.3c0.1-0.8,0.1-1.8,0.2-2.7c0.1-0.7,0.1-1.6,0.2-2.3c0.1-0.8,0.1-1.7,0.2-2.5
			c0.1-0.7,0.1-1.6,0.2-2.3c0.1-0.8,0.2-1.7,0.2-2.4c0.1-0.7,0.2-1.6,0.2-2.3c5.2-39.4,18.1-67.3,33.4-67.3
			c13.9,0,25.8,23.2,31.9,57l-32.1,20c1.3,10.9,1.8,15.3,1.8,27.4c0,39.5-7.5,73.9-18.6,91.6c-0.4-0.6-0.7-1.3-1.2-1.9
			c-0.2-0.4-0.4-0.6-0.6-1c-0.2-0.5-0.5-1-0.7-1.4c-0.1-0.4-0.4-0.6-0.5-1c-0.4-0.7-0.7-1.4-1.1-2.3c-0.1-0.4-0.4-0.7-0.5-1.1
			c-0.2-0.5-0.5-1.1-0.7-1.6c-0.1-0.4-0.4-0.7-0.5-1.2c-0.4-0.8-0.7-1.7-1-2.5c-0.1-0.4-0.2-0.7-0.4-1.1c-0.2-0.6-0.5-1.2-0.7-1.9
			c-0.1-0.4-0.2-0.8-0.5-1.2c-0.4-1-0.6-1.9-1-2.9c-0.1-0.4-0.2-0.7-0.4-1.1c-0.2-0.7-0.5-1.6-0.7-2.3c-0.1-0.5-0.2-0.8-0.4-1.3
			c-0.2-1-0.5-1.8-0.7-2.8c-0.1-0.4-0.2-0.7-0.2-1.2c-0.2-1-0.5-1.9-0.7-2.9c-0.1-0.5-0.2-0.8-0.4-1.3c-0.2-1-0.5-1.9-0.6-2.9
			c0-0.2-0.1-0.6-0.2-0.8c-0.2-1.2-0.5-2.4-0.7-3.6c-0.1-0.5-0.1-0.8-0.2-1.3c-0.2-1-0.4-2.1-0.5-3c0-0.4-0.1-0.6-0.1-1
			c-0.2-1.3-0.4-2.7-0.6-4c0-0.4-0.1-0.8-0.1-1.2c-0.1-1.1-0.2-2.2-0.5-3.3c0-0.4-0.1-0.7-0.1-1.1c-0.1-1.3-0.4-2.8-0.5-4.2
			c0-0.4-0.1-0.7-0.1-1.1c-0.1-1.2-0.2-2.3-0.4-3.5c0-0.4-0.1-0.7-0.1-1.2c-0.1-1.4-0.2-2.9-0.4-4.3c0-0.2,0-0.6,0-0.8
			c-0.1-1.2-0.1-2.5-0.2-3.9c0-0.4,0-0.8-0.1-1.2c-0.1-1.6-0.1-3-0.2-4.6c0-0.2,0-0.4,0-0.6c0-1.4-0.1-2.8-0.1-4.2
			c0-0.4,0-0.8,0-1.2c0-1.6,0-3.1,0-4.8c0-1.8,0-3.5,0-5.2C510.6,344.3,510.7,343.8,510.7,343.2z"/>
	</g>
	<path class="st20" d="M566.7,390.8c2.4,12.6,22.1,103.2,18.2,164.7c-2.7,42.1-13.2,56.1-21,68c-2.1,3.1-9.9,9.1-9.9,9.1h-57.8
		c0,0,7.8-5.9,9.9-9.1c7.8-11.8,18.4-25.7,21-68c4-61.3-15.8-152.1-18.2-164.7"/>
	<rect x="598" y="463" class="st9" width="290" height="157"/>
	<polygon class="st34" points="888,463 958.4,463 958.4,501.1 887.9,514.2 598,514.2 598,463 656.6,463 	"/>
	<path class="st35" d="M510.6,350.1c0-1.6,0-3.3,0-4.8c13.2-0.1,23.5,3.7,24.3,10.1l4,33.8c0,0-12.3,0.6-25.6,1.2
		C511.6,378,510.6,364.5,510.6,350.1z"/>
	<path class="st36" d="M511.8,377.2c-0.7-8.6-1.2-17.6-1.2-26.9c0-1.6,0-3.3,0-4.8c0.4,0,0.7,0,1,0c0,1,2.1,30.7,4.2,30.9
		c1.8,0.1,3.6,0.8,4.6-2.3c2.3-7.1,11-17.5,14.1-19.9c0.1,0.4,0.2,0.8,0.4,1.2c-0.1,4.6-0.5,18.2,0,20.4c0.6,2.7-1.8,11.4-1.9,13.2
		c0,0.2-0.1,0.5-0.4,0.7c-4.8,0.2-12,0.6-19.3,1c-0.4-2.7-0.7-5.4-1-8.1l0,0c0-0.5-0.1-1.1-0.1-1.6
		C512,379.6,511.9,378.4,511.8,377.2L511.8,377.2z"/>
	<path class="st37" d="M894.1,396.5H522.9c0-28.3,0.6-32.8,15.8-43.5c15.1-10.5,56.5-15.1,115.8-15.8c59.2-0.6,72.6,7.2,72.6,7.2
		s51.6,2.1,68.9,3.7c17.4,1.7,96.4,13.4,99.3,13.4c0,0-8.9,0-8.9,20.2C886.2,398.5,894.1,396.5,894.1,396.5z"/>
	<path class="st38" d="M566.5,351.7c4.3-0.4,100.8,4,115.7,4.7c0.7-3,2.4-5.7,5.1-7.8c5.7-4.6,15.3-7,25.2-7.8
		c11.1,1.9,14.5,4,14.5,4s0.8,0,2.4,0.1v0.1c-13.8-1.6-31.8,0.2-39.7,6.6c-1.8,1.4-3,3.1-3.6,5.1c13.6,0.6,90.2,3.9,103.4,4.5
		c14.5,0.6,97.6,11.8,97.6,11.8c-0.8,2.5-0.8,5.4-0.8,8.9c0,3.3,0.2,5.8,0.7,7.7c-54.6-0.2-320.5,1.4-320.5,1.4
		S561.8,352.1,566.5,351.7z"/>
	<ellipse class="st38" cx="597" cy="375" rx="4.5" ry="14.7"/>
	<polygon class="st35" points="589.2,388.6 679.3,388.6 679.3,369.6 589.2,363 	"/>
	<path class="st35" d="M669.6,374.1c4.2-1.9,3-4.6,9.7-4.6c1.6,0,4,0.1,6.8,0.1c9.3,0.4,20.9-1.8,22.8-1.7
		c4.3,0.2,14.2,18.6,14.5,21c0.2,2.4-13.8,0.6-16.1-0.2c-2.2-0.8-10.3-8.3-10.3-8.3s-10.3,7.2-17.7,8.1"/>
	<path class="st39" d="M590.9,388.6c-0.6-1.8-1.3-4.2-1.8-5.7v-1.1l4.2-0.7c0,0,34.5,1.4,51.2,2.4s43.5,0.4,48.1-1.9
		c4.6-2.3,5.9-5.3,5.9-5.3s0.4,1,1.3,2.7c1,1.8,4.6,5.6,7.5,7.6c1.4,1,3.1,1.8,3.9,2.8c-1.8-0.1-3.3-0.4-3.9-0.6
		c-2.2-0.8-10.3-8.3-10.3-8.3s-8.7,6.4-16.3,7.8c-2.1,0.1-4.2,0.1-6.5,0.2h-83.3L590.9,388.6L590.9,388.6z"/>
	<path class="st39" d="M598.3,388.4c0,0.1,0,0.2,0.1,0.4h-6.9c-0.6-4.7-1.7-22.2-1.2-23.8c0.1-0.5,0.4-1.1,0.7-1.8l7.7,0.6
		C596.7,363.8,596.9,384.3,598.3,388.4z"/>
	<path class="st37" d="M594.1,389.7c-0.8-4.3-2.7-30.7,3.5-29.3c0,0-7.5-2.2-32-6.2c0,0-5.4-5.6-10.1-5.2c-4.7,0.4,0,42,0,42
		L594.1,389.7z"/>
	<path class="st38" d="M526.4,365.1c0.2,0.2,0.2,1-0.1,2.3c-1.9,6.8,67.1,10.1,67.1,10.1s-0.1,0.7-0.1,1.4c0,6.5,2.4,10.1,3.7,9.8
		c0,0-1.8,5.4-2.9,5.9c-1,0.4-60.7-0.7-71.2-1.2C523,381,524,372.2,526.4,365.1z"/>
	<g>
		<path class="st22" d="M542.2,425.2h412v50.4H548.9c-13.5-2.2-25.5-21.5-33.1-50.4H542.2z"/>
	</g>
	<path class="st26" d="M990.2,428.4h8.1h3.7h9.4v2.2c-1.9,17-5.2,32.4-9.3,45.2h-0.1h-35.4h-34.1c-4.1-12.8-7.4-28.3-9.3-45.2v-2.2
		h21H990.2z"/>
	<path class="st40" d="M515.9,425.7h438.3v2.7h36h8.1h3.7h9.4v2.2c-0.7,6.5-1.7,12.9-2.8,19H524.1
		C521,442.5,518.3,434.5,515.9,425.7z"/>
	<g>
		<path class="st31" d="M554.4,476.4c-9.9-1.6-18.8-12.2-26-29c-0.1-0.2-0.1-0.5-0.2-0.6c-0.2-0.6-0.5-1.2-0.7-1.9
			c-0.1-0.2-0.2-0.5-0.4-0.8c-0.2-0.6-0.5-1.3-0.7-1.9c-0.1-0.2-0.1-0.5-0.2-0.7c-0.4-0.8-0.6-1.7-1-2.7c0,0,0,0,0-0.1
			c-0.2-0.7-0.5-1.6-0.7-2.3h-0.1c-1.1-3.4-2.1-6.9-3-10.5c0-0.1-0.1-0.2-0.1-0.4l0,0c-2.7-10.5-0.8-22.2-2.3-34.8v-2.2h7.5v2.2
			c1.4,12.6,3.6,24.3,6.3,34.8l0,0c0,0.1,0.1,0.2,0.1,0.4c1,3.6,1.9,7.1,3,10.5h0.1c0.2,0.7,0.5,1.6,0.7,2.3c0,0,0,0,0,0.1
			c0.4,0.8,0.6,1.8,1,2.7c0.1,0.2,0.1,0.5,0.2,0.7c0.2,0.6,0.5,1.3,0.7,1.9c0.1,0.2,0.2,0.5,0.4,0.8c0.2,0.6,0.5,1.3,0.7,1.9
			c0.1,0.2,0.1,0.5,0.2,0.6c7.1,16.8,16.2,27.4,26,29"/>
	</g>
	<path class="st41" d="M947.6,388.6c1.6,19.6,17.1,20.4,36.1,20.4s34.5-0.8,36.1-20.4h8.1h3.7h9.4v2.2c-1.9,17-5.2,32.4-9.3,45.2
		h-0.1h-35.4h-60.5l-14.5-47.3L947.6,388.6L947.6,388.6z"/>
	<g>
		<path class="st24" d="M601.3,388.6h53.5h271.8v2.2c1.9,17,5.2,32.4,9.3,45.2H645.3h-44H519c-4.1-12.8-7.4-28.3-9.3-45.2v-2.2
			L601.3,388.6L601.3,388.6z"/>
	</g>
	<g>
		<path class="st42" d="M654.8,388.6h271.8v2.2c0.1,0.6,0.1,1.2,0.2,1.8H509.7c-0.1-0.6-0.1-1.2-0.2-1.8v-2.2h91.8H654.8z"/>
	</g>
	<g>
		<path class="st31" d="M548.5,476.4c-9.9-1.6-18.8-12.2-26-29c-0.1-0.2-0.1-0.5-0.2-0.6c-0.2-0.6-0.5-1.2-0.7-1.9
			c-0.1-0.2-0.2-0.5-0.4-0.8c-0.2-0.6-0.5-1.3-0.7-1.9c-0.1-0.2-0.1-0.5-0.2-0.7c-0.4-0.8-0.6-1.7-1-2.7c0,0,0,0,0-0.1
			c-0.2-0.7-0.5-1.6-0.7-2.3h-0.1c-1.1-3.4-2.1-6.9-3-10.5c0-0.1-0.1-0.2-0.1-0.4l0,0c-2.7-10.5-4.8-22.2-6.3-34.8v-2.2h7.5v2.2
			c1.4,12.6,3.6,24.3,6.3,34.8l0,0c0,0.1,0.1,0.2,0.1,0.4c1,3.6,1.9,7.1,3,10.5h0.1c0.2,0.7,0.5,1.6,0.7,2.3c0,0,0,0,0,0.1
			c0.4,0.8,0.6,1.8,1,2.7c0.1,0.2,0.1,0.5,0.2,0.7c0.2,0.6,0.5,1.3,0.7,1.9c0.1,0.2,0.2,0.5,0.4,0.8c0.2,0.6,0.5,1.3,0.7,1.9
			c0.1,0.2,0.1,0.5,0.2,0.6c7.1,16.8,16.2,27.4,26,29"/>
	</g>
	<rect x="888.4" y="605.5" class="st43" width="84.5" height="16.7"/>
	<g class="st16">
		<path class="st11" d="M463.4,294.6h1.7h2.8h15.5c1,0,1.8,5,1.8,7.8v106.5c0,2.9-0.8,3.6-1.8,3.6h-15.5h-2.8h-1.7
			c-1,0-1.8-0.7-1.8-3.6V298.1C461.6,295.3,462.4,294.6,463.4,294.6z"/>
	</g>
	<path class="st24" d="M466.8,294.6h1.7h2.7h14.9c1,0,1.7,2.3,1.7,5v101.2c0,2.8-0.7,5.1-1.7,5.1h-14.9h-2.7h-1.7
		c-1,0-1.7-2.3-1.7-5.1V299.5C465.1,296.8,465.8,294.6,466.8,294.6z"/>
	<path class="st2" d="M851.9,616.4c0,10,8.1,18.1,18.1,18.1s18.1-8.1,18.1-18.1s-8.1-5.2-18.1-5.2S851.9,606.3,851.9,616.4z"/>
	<path class="st2" d="M596.7,616.4c0,10,8.1,18.1,18.1,18.1s18.1-8.1,18.1-18.1s-8.1-5.6-18.1-5.6
		C604.8,610.7,596.7,606.3,596.7,616.4z"/>
	<path class="st3" d="M470.7,294.6h1.7h2.7H490c1,0,1.7,2.3,1.7,5v101.2c0,2.8-0.7,5.1-1.7,5.1h-14.9h-2.7h-1.7
		c-1,0-1.7-2.3-1.7-5.1V299.5C469.1,296.8,469.8,294.6,470.7,294.6z"/>
	<rect x="575.3" y="605.5" class="st2" width="325.9" height="16.7"/>
</g>
<ellipse class="st44" cx="480.4" cy="305" rx="1.8" ry="2.4"/>
<ellipse class="st45" cx="480.4" cy="315.1" rx="1.8" ry="2.4"/>
<ellipse class="st22" cx="480.4" cy="325.4" rx="1.8" ry="2.4"/>
<ellipse class="st22" cx="480.4" cy="335.5" rx="1.8" ry="2.4"/>
<ellipse class="st22" cx="480.4" cy="345.6" rx="1.8" ry="2.4"/>
<ellipse class="st22" cx="480.4" cy="355.9" rx="1.8" ry="2.4"/>
<path class="st20" d="M474.7,364.2h1.7h2.7h7c1,0,1.7-0.4,1.7,2.4v34.9c0,2.8-0.7,2.9-1.7,2.9h-7h-2.7h-1.7c-1,0-1.7-0.1-1.7-2.9
	v-34.9C472.9,363.9,473.8,364.2,474.7,364.2z"/>
</svg>
