<?xml version="1.0" encoding="utf-8"?>
<!-- Generator: Adobe Illustrator 19.1.0, SVG Export Plug-In . SVG Version: 6.00 Build 0)  -->
<svg version="1.1" id="Layer_1" xmlns="http://www.w3.org/2000/svg" xmlns:xlink="http://www.w3.org/1999/xlink" x="0px" y="0px"
	 viewBox="0 0 668.9 399.8" style="enable-background:new 0 0 668.9 399.8;" xml:space="preserve">
<style type="text/css">
	.st0{fill:#282525;}
	.st1{fill:#333333;}
	.st2{fill:#F2F2F2;}
	.st3{fill:#EDA02F;}
	.st4{fill:#FFFFFF;}
	.st5{fill:#B01C24;}
	.st6{fill:#1A1A1A;}
	.st7{fill:#A6A6A6;}
	.st8{fill:#DBDBDB;}
	.st9{fill:#F4C682;}
	.st10{fill:#D3D3D3;}
</style>
<path class="st0" d="M660.8,266.2c-13.3,17.7-38.5,21.3-56.2,8c-17.7-13.3-21.3-38.5-8-56.2c13.3-17.7,38.5-21.3,56.2-8
	C670.6,223.2,674.2,248.5,660.8,266.2z M603.8,223.3c-10.3,13.7-7.6,33.3,6.2,43.6c13.7,10.3,33.3,7.6,43.6-6.2
	c10.3-13.7,7.6-33.3-6.2-43.6C633.7,206.8,614.2,209.6,603.8,223.3z"/>
<path class="st1" d="M614.2,279.5l-313.5-87.6c-5.5-1.5-10.1-5.5-12.3-10.8l-16.6-38.6c0,0,240.3,83.3,285.6,98.1
	c24.4,8,31.3,4.1,31.3,4.1L614.2,279.5z"/>
<path class="st0" d="M516.2,391.7c-17.7-13.3-21.3-38.5-8-56.2c13.3-17.7,38.5-21.3,56.2-8c17.7,13.3,21.3,38.5,8,56.2
	C559.1,401.5,533.9,405,516.2,391.7z M521.6,384.6c13.7,10.3,33.3,7.6,43.6-6.2c10.3-13.7,7.6-33.3-6.2-43.6
	c-13.7-10.3-33.3-7.6-43.6,6.2C505.1,354.7,507.9,374.2,521.6,384.6z"/>
<rect x="175.3" y="166.5" transform="matrix(0.8817 -0.4718 0.4718 0.8817 -46.3226 189.2388)" class="st2" width="358" height="41"/>
<path class="st3" d="M635.5,59.8l-105.8,56.6l-19.3-36.2l105.8-56.6c0.9-0.5,2-0.1,2.5,0.8l17.6,32.9
	C636.7,58.2,636.4,59.3,635.5,59.8z"/>
<rect x="511.5" y="79.9" transform="matrix(-0.8817 0.4718 -0.4718 -0.8817 1018.445 -54.457)" class="st4" width="9" height="41"/>
<path class="st5" d="M206.1,289.6l-18.9,10.1c-1.5,0.8-3.4,0.2-4.3-1.3l-16.4-30.6c-0.8-1.5-0.2-3.4,1.3-4.3l18.9-10.1L206.1,289.6z
	"/>
<path class="st2" d="M174.2,245c0,0-30-2.5-44.4-27.5c-15.1-26.1,5.7-47.1-4.6-84.4c-7.8-28.2-58.8-53.8-58.8-53.8
	s58.7,1.8,76.9,35.8c18.7,35-13.3,72.3-4.4,95C149.3,236.7,174.2,245,174.2,245z"/>
<path class="st2" d="M96.5,181.7c0,0,14.6-26.3,1.8-52.2C84.9,102.4,56,108,30.7,78.8C11.6,56.6,18.6,0,18.6,0s-31,49.8-12.9,83.8
	c18.7,35,67.5,29,81.5,49.1C103.4,156.3,96.5,181.7,96.5,181.7z"/>
<path class="st1" d="M572.3,335.3L401,58.4c-3-4.9-8.1-8.1-13.8-8.9l-41.7-5.2c0,0,146.8,207.7,173.6,247.1
	c14.4,21.2,12.6,29,12.6,29L572.3,335.3z"/>
<polygon class="st6" points="460.4,207.5 456.2,201.5 498.1,215.4 502,221.8 "/>
<polygon class="st6" points="485.7,243.6 521.7,253.6 524.1,257.5 488.6,247.7 "/>
<circle class="st7" cx="492.2" cy="231.4" r="8.3"/>
<polygon class="st2" points="187,253.9 187.7,260.1 192.4,263 193,266.7 195.7,269 197.4,274.8 199.9,276.7 199.1,280.7 203.2,283 
	202.2,285.8 205.9,289.2 "/>
<polygon class="st6" points="358.2,208.2 398.6,186.5 405.3,188.7 365.5,210.1 "/>
<polygon class="st8" points="432.9,168.2 409,134.4 402,138.2 425.4,172.2 "/>
<circle class="st9" cx="531.9" cy="110.8" r="1.7"/>
<circle class="st9" cx="526.7" cy="101.1" r="1.7"/>
<circle class="st9" cx="521.5" cy="91.4" r="1.7"/>
<circle class="st9" cx="516.3" cy="81.7" r="1.7"/>
<circle class="st9" cx="545.8" cy="103.3" r="1.7"/>
<circle class="st9" cx="540.6" cy="93.6" r="1.7"/>
<circle class="st9" cx="535.4" cy="83.9" r="1.7"/>
<circle class="st9" cx="530.2" cy="74.2" r="1.7"/>
<circle class="st9" cx="559.6" cy="95.9" r="1.7"/>
<circle class="st9" cx="554.4" cy="86.2" r="1.7"/>
<circle class="st9" cx="549.3" cy="76.5" r="1.7"/>
<circle class="st9" cx="544.1" cy="66.8" r="1.7"/>
<circle class="st9" cx="573.5" cy="88.5" r="1.7"/>
<circle class="st9" cx="568.3" cy="78.8" r="1.7"/>
<circle class="st9" cx="563.1" cy="69.1" r="1.7"/>
<circle class="st9" cx="557.9" cy="59.4" r="1.7"/>
<circle class="st9" cx="587.4" cy="81.1" r="1.7"/>
<circle class="st9" cx="590.7" cy="74" r="1.7"/>
<circle class="st9" cx="585.5" cy="64.3" r="1.7"/>
<circle class="st9" cx="580.3" cy="54.6" r="1.7"/>
<circle class="st9" cx="578.2" cy="80.6" r="1.7"/>
<circle class="st9" cx="573" cy="70.9" r="1.7"/>
<circle class="st9" cx="567.8" cy="61.2" r="1.7"/>
<circle class="st9" cx="564.3" cy="88.1" r="1.7"/>
<circle class="st9" cx="559.1" cy="78.4" r="1.7"/>
<circle class="st9" cx="554" cy="68.7" r="1.7"/>
<circle class="st9" cx="550.5" cy="95.5" r="1.7"/>
<circle class="st9" cx="545.3" cy="85.8" r="1.7"/>
<circle class="st9" cx="540.1" cy="76.1" r="1.7"/>
<circle class="st9" cx="536.6" cy="102.9" r="1.7"/>
<circle class="st9" cx="531.4" cy="93.2" r="1.7"/>
<circle class="st9" cx="526.2" cy="83.5" r="1.7"/>
<circle class="st9" cx="582.2" cy="71.4" r="1.7"/>
<circle class="st9" cx="577" cy="61.7" r="1.7"/>
<circle class="st9" cx="571.8" cy="52" r="1.7"/>
<circle class="st9" cx="599.7" cy="74.5" r="1.7"/>
<circle class="st9" cx="603" cy="67.4" r="1.7"/>
<circle class="st9" cx="597.8" cy="57.7" r="1.7"/>
<circle class="st9" cx="592.6" cy="48" r="1.7"/>
<circle class="st9" cx="594.5" cy="64.8" r="1.7"/>
<circle class="st9" cx="589.3" cy="55.1" r="1.7"/>
<circle class="st9" cx="584.1" cy="45.4" r="1.7"/>
<circle class="st9" cx="612" cy="67.9" r="1.7"/>
<circle class="st9" cx="615.4" cy="60.8" r="1.7"/>
<circle class="st9" cx="610.2" cy="51.1" r="1.7"/>
<circle class="st9" cx="605" cy="41.4" r="1.7"/>
<circle class="st9" cx="606.9" cy="58.2" r="1.7"/>
<circle class="st9" cx="601.7" cy="48.5" r="1.7"/>
<circle class="st9" cx="596.5" cy="38.8" r="1.7"/>
<circle class="st9" cx="624.4" cy="61.3" r="1.7"/>
<circle class="st9" cx="627.7" cy="54.2" r="1.7"/>
<circle class="st9" cx="622.5" cy="44.5" r="1.7"/>
<circle class="st9" cx="617.3" cy="34.8" r="1.7"/>
<circle class="st9" cx="619.2" cy="51.6" r="1.7"/>
<circle class="st9" cx="614" cy="41.9" r="1.7"/>
<circle class="st9" cx="608.8" cy="32.2" r="1.7"/>
<rect x="490.4" y="224.8" transform="matrix(0.8817 -0.4718 0.4718 0.8817 -50.9324 259.427)" class="st10" width="3" height="13"/>
</svg>
