<svg xmlns="http://www.w3.org/2000/svg" width="80" height="80" fill="none" viewBox="0 0 80 80">
    <circle cx="40" cy="40" r="40" fill="#FF674F"/>
    <path fill="#E8614C" d="M37.075 79.886l-15.546-24.99 9.507-4.533 9.203-28.907 3.797.987L72.593 63.2C67.465 70.311 56.919 79.497 40.11 80a37.64 37.64 0 0 1-3.035-.114z"/>
    <path fill="#FFD15C" d="M52.96 58.836H27.04a5.876 5.876 0 0 1-5.254-8.502l12.958-25.92a5.875 5.875 0 0 1 10.512 0l12.959 25.92a5.875 5.875 0 0 1-5.256 8.502z"/>
    <path fill="#fff" d="M40 30.58c.648 0 1.175.526 1.175 1.175v14.102a1.175 1.175 0 0 1-2.35 0V31.755c0-.649.525-1.175 1.174-1.175zM38.824 49.382h2.35v2.35h-2.35v-2.35z"/>
</svg>
