<svg xmlns="http://www.w3.org/2000/svg" width="322" height="181" fill="none" viewBox="0 0 322 181">
    <path fill="#BCCF88" d="M100.122 121.815c-.071-.246-7.141-23.357-9.814-34.613-9.217-39.221-23.955-48.367-24.096-48.437l.598-1.02c.633.351 15.302 9.392 24.623 49.176 2.638 11.22 9.709 34.296 9.779 34.542l-1.09.352z"/>
    <path fill="#BCCF88" d="M62.8 30.71c-9.216 4.643 12.453 17.763 12.453 17.763S74.97 24.553 62.8 30.71zM67.76 61.03c-1.231 7.071 15.09.458 15.09.458s-13.472-9.814-15.09-.457z"/>
    <path fill="#BCCF88" d="M89.92 49c-5.381-4.748-8.23 12.629-8.23 12.629S97.06 55.262 89.92 49zM79.72 99.795c-1.231 7.07 15.09.457 15.09.457s-13.437-9.779-15.09-.457z"/>
    <path fill="#BCCF88" d="M101.916 87.8c-5.382-4.749-8.231 12.628-8.231 12.628s15.336-6.367 8.231-12.628zM68.041 80.343c-2.567 10.306 22.196 2.216 22.196 2.216s-18.819-15.83-22.196-2.216z"/>
    <path fill="#BCCF88" d="M100.966 67.468C94.599 60.996 89.463 82.63 89.463 82.63s19.91-6.648 11.503-15.16z"/>
    <path fill="#97A1FC" d="M303.825 124.875c-18.08-6.789-31.307 36.267-29.829 38.764 2.321-3.552 5.769-8.758 10.799-16.392 8.442-12.804 15.09-19.276 19.03-22.372z"/>
    <path fill="#6372C1" d="M285.428 147.564a4311.182 4311.182 0 0 0-10.623 16.146c6.05-1.583 43.478-27.684 33.769-35.915-1.372-1.161-2.673-2.005-4.01-2.568-3.834 2.99-10.588 9.392-19.136 22.337z"/>
    <path fill="#fff" d="M274.805 163.71c2.321-3.553 5.698-8.689 10.623-16.146 8.547-12.945 15.301-19.382 19.135-22.372l-.738-.317c-3.94 3.096-10.588 9.568-19.03 22.372-5.031 7.634-8.478 12.84-10.799 16.392.035.036.035.071.07.071.141.105.387.07.739 0z"/>
    <path fill="#97A1FC" d="M278.429 162.654c9.955-5.065 26.206-12.136 31.975-14.633-8.618-12.136-30.286 10.869-31.975 14.633z"/>
    <path fill="#6372C1" d="M311.177 149.287c-.141-.281-.317-.527-.457-.809-5.734 2.463-22.267 9.639-32.186 14.739 2.673 1.266 38.904-2.286 32.643-13.93z"/>
    <path fill="#fff" d="M278.358 163.112c.035.035.07.07.14.105 9.92-5.1 26.453-12.276 32.186-14.739-.105-.14-.211-.316-.316-.457-5.734 2.462-22.02 9.533-31.975 14.633-.035.247-.07.387-.035.458z"/>
    <path fill="#2A92A0" d="M279.624 86.076c-.88 2.885-1.829 6.015-2.849 9.287a1383.78 1383.78 0 0 0-3.061 9.884l-15.055-15.829c.633-9.498-1.583-19.452-1.337-25.96.035-1.301.422-3.658 1.231-6.402l23.146 15.055c-.105 4.714-.703 9.463-2.075 13.965z"/>
    <path fill="#14787F" d="M278.006 40.7c11.397.808 17.342 8.441 20.297 17.482l-15.126 12.065c-.105-12.91-3.623-24.94-5.171-29.548z"/>
    <path fill="#2A92A0" d="M278.147 95.785c1.02-3.271 1.969-6.402 2.849-9.286 1.407-4.644 2.04-9.568 2.11-14.387l15.619-12.453c1.196 4.257 1.829 8.724 2.04 12.945.387 7.035-1.794 14.915-4.468 22.442-8.231 2.99-17.447 7.985-21.07 10.061 1.02-3.237 2.005-6.367 2.92-9.322z"/>
    <path fill="#14787F" d="M281.7 70.388l-22.689-14.774c2.357-6.824 7.457-15.02 16.955-15.02h.492c1.372 4.115 5.171 16.497 5.242 29.794zM263.303 143.413c-2.955-4.96-12.242-20.543-16.744-29.618 3.307-3.869 6.508-7.457 8.97-12.206 1.653-3.166 2.497-6.648 2.919-10.236l14.774 15.477c-3.482 11.467-7.176 24.236-9.919 36.583z"/>
    <path fill="#F7D17E" d="M233.297 139.262c2.814-11.96 7.528-18.608 12.242-24.271 5.241 10.412 15.899 28.141 17.306 30.497-1.442 6.754-2.603 13.332-3.271 19.488-12.91.035-24.659-.035-25.292 0-1.407.035-5.944-4.503-.985-25.714z"/>
    <path fill="#14787F" d="M274.629 107.147c1.689-.985 11.925-6.754 21.035-10.272-3.095 8.407-6.578 16.251-7.563 21.739-1.266 7.035-.949 11.397.423 15.548-7.071 5.452-20.051 9.145-23.92 10.166 2.744-12.523 6.507-25.538 10.025-37.181z"/>
    <path fill="#2A92A0" d="M289.051 135.569c.739 1.934 1.724 3.869 2.885 6.085 3.904 7.458 2.99 20.719 2.145 22.196-.457.809-17.306 1.056-32.995 1.091.669-6.015 1.759-12.417 3.201-19.03 2.779-.669 16.779-4.362 24.764-10.342z"/>
    <path fill="#fff" d="M273.714 105.247a1383.78 1383.78 0 0 1 3.061-9.884c1.02-3.272 1.969-6.402 2.849-9.287 1.372-4.502 1.97-9.251 2.075-13.965l.809.528.669-.528c-.106 4.82-.704 9.744-2.111 14.387-.879 2.885-1.864 6.015-2.849 9.287-.915 2.955-1.9 6.085-2.885 9.321-.457.247-.844.458-1.09.634l-.528-.493zM283.142 70.247l-.774.598-.704-.457c-.035-13.297-3.869-25.714-5.241-29.759.528 0 1.056.035 1.548.07 1.583 4.608 5.101 16.639 5.171 29.548zM263.302 143.413c2.744-12.347 6.437-25.116 9.92-36.548l.703.739.493-.281s.105-.071.246-.141c-3.553 11.643-7.281 24.658-10.06 37.181-.247.07-.458.105-.633.176a28.858 28.858 0 0 0-.669-1.126zM262.986 145.7l.281.457.528-.106c.07 0 .211-.07.457-.105-1.407 6.578-2.533 13.015-3.201 19.03h-1.477c.668-6.156 1.829-12.734 3.271-19.487.07.105.141.175.141.211z"/>
    <path fill="#fff" d="M281.7 72.111l-23.146-15.055c.141-.457.317-.95.457-1.442L281.7 70.388v1.723zM283.142 70.247l15.126-12.065c.176.492.316.985.457 1.512l-15.583 12.417v-1.864z"/>
    <path fill="#fff" d="M281.7 72.112v-1.724l.703.457.774-.598v1.865l-.668.527-.809-.527zM273.223 106.865l-14.774-15.477c.07-.633.14-1.267.176-1.935l15.055 15.829c-.141.493-.317 1.02-.457 1.583zM275.262 105.107c3.659-2.041 12.875-7.036 21.071-10.06l-.633 1.793c-9.146 3.518-19.347 9.287-21.036 10.272.176-.669.387-1.337.598-2.005z"/>
    <path fill="#fff" d="M273.89 107.569l-.703-.739c.176-.528.317-1.055.492-1.618l.458.492c.281-.14.668-.387 1.09-.633-.211.669-.422 1.337-.633 2.04-.141.071-.246.141-.246.141l-.458.317zM264.604 144.328c3.905-1.02 16.849-4.714 23.92-10.166.14.492.316.95.527 1.407-7.985 5.945-21.985 9.638-24.799 10.342.106-.528.211-1.056.352-1.583zM262.845 145.489c-1.407-2.357-12.065-20.051-17.307-30.498.352-.422.669-.809 1.021-1.231 4.502 9.075 13.753 24.658 16.743 29.618-.14.704-.281 1.407-.457 2.111z"/>
    <path fill="#fff" d="M263.971 144.504c.176-.036.387-.106.633-.176-.106.527-.211 1.055-.352 1.583-.246.07-.387.105-.457.105l-.528.106-.281-.458c-.035-.035-.071-.14-.141-.246.141-.703.282-1.372.457-2.075.282.527.493.879.669 1.161z"/>
    <path fill="#BCCF88" d="M254.017 159.7l-.95-.985c.14-.141 14.387-14.422 26.1-45.518 11.819-31.412 31.588-51.462 31.764-51.674l.985.985c-.211.211-19.769 20.086-31.447 51.182-11.854 31.376-26.312 45.869-26.452 46.01z"/>
    <path fill="#BCCF88" d="M315.188 58.534c7.035 4.784-12.03 13.155-12.03 13.155s2.743-19.452 12.03-13.155zM308.68 81.574c.246 5.91-12.347-1.231-12.347-1.231s11.995-6.578 12.347 1.23z"/>
    <path fill="#BCCF88" d="M291.866 69.403c4.89-3.307 5.382 11.186 5.382 11.186s-11.854-6.824-5.382-11.186zM303.826 100.287c.985 8.689-18.327-.562-18.327-.562s17.026-10.905 18.327.562zM298.409 115.413c1.055 9.216-19.453-.598-19.453-.598s18.081-11.538 19.453.598zM290.071 132.755c.985 8.794-18.537-.563-18.537-.563s17.201-11.045 18.537.563zM279.168 146.931c2.568 8.477-18.362 2.779-18.362 2.779s14.95-13.93 18.362-2.779z"/>
    <path fill="#BCCF88" d="M277.936 86.78c5.874-4.573 7.774 13.578 7.774 13.578s-15.513-7.528-7.774-13.578zM268.016 104.333c4.045-6.262 11.819 10.271 11.819 10.271s-17.13-2.005-11.819-10.271zM262.107 119.705c5.136-5.418 9.709 12.276 9.709 12.276s-16.498-5.136-9.709-12.276zM256.795 134.584c6.719-3.201 4.644 14.95 4.644 14.95s-13.543-10.729-4.644-14.95z"/>
    <path fill="#14787F" d="M13.87 95.82c24.905-20.683 68.453 48.613 67.397 53.714-5.557-5.136-13.718-12.628-25.643-23.603C35.538 107.498 21.679 99.373 13.87 95.82z"/>
    <path fill="#2A92A0" d="M54.78 126.81A12555.446 12555.446 0 0 1 80 150.026c-10.342.176-83.05-27.648-72.11-46.819 1.512-2.673 3.165-4.82 4.924-6.472 7.668 3.412 21.704 11.467 41.965 30.075z"/>
    <path fill="#fff" d="M80.037 150.026c-5.523-5.1-13.578-12.523-25.222-23.216-20.296-18.608-34.331-26.664-41.964-30.076.351-.316.668-.633 1.02-.914 7.844 3.553 21.703 11.678 41.754 30.11a9859.485 9859.485 0 0 1 25.643 23.604c0 .07-.035.14-.07.175-.141.211-.563.317-1.161.317z"/>
    <path fill="#14787F" d="M73.775 149.956c-18.327-4.116-47.699-8.689-58.04-10.272 7.14-25.502 53.397 4.468 58.04 10.272z"/>
    <path fill="#2A92A0" d="M15.172 142.287c.105-.562.21-1.125.316-1.618 10.342 1.548 40.171 6.227 58.463 10.342-3.623 3.483-62.508 14.774-58.78-8.724z"/>
    <path fill="#fff" d="M74.127 150.73c0 .07-.07.176-.176.281-18.292-4.151-48.156-8.794-58.463-10.342.07-.316.141-.633.247-.949 10.341 1.583 39.713 6.155 58.04 10.271.246.317.387.563.352.739z"/>
    <path fill="#14787F" d="M71.417 137.081c-5.487-17.974-16.005-45.763-19.769-55.542 25.714-6.367 22.548 48.648 19.77 55.542z"/>
    <path fill="#2A92A0" d="M49.116 82.313a13.913 13.913 0 0 1 1.583-.528c3.728 9.744 14.457 37.99 19.91 55.965-4.82-1.407-43.76-47.03-21.493-55.437z"/>
    <path fill="#fff" d="M70.925 137.785c-.07.035-.175 0-.316-.035-5.452-17.975-16.146-46.221-19.91-55.965.317-.105.634-.176.95-.246 3.764 9.779 14.281 37.568 19.769 55.543-.176.387-.352.633-.493.703z"/>
    <path fill="#F9C6A0" d="M221.302 31.554l3.413-1.865s10.693-5.522 9.708-7.774c-.985-2.25-10.869 1.513-10.869 1.513s.527-4.186-.141-4.186c-.492 0-4.714 8.9-4.643 9.357 0 .457 2.532 2.955 2.532 2.955z"/>
    <path fill="#E76B6B" d="M175.961 19.91c4.045 1.9 24.06 23.217 24.482 23.78.422.562 17.412-15.865 18.327-15.865.914 0 3.13 3.13 3.13 3.553 0 .422-21.035 19.628-21.738 19.558-1.267-.07-18.151-14.458-18.433-14.95-.281-.457-7.668-16.955-5.768-16.076z"/>
    <path fill="#394678" d="M160.553 170.428s-10.728 7.106-9.567 8.583c2.251 2.849 13.05-3.939 13.331-5.03.282-1.09.633-3.271-.316-3.553-.915-.246-2.779-1.125-3.448 0zM190.031 171.026c-.844.739-.914 4.925 0 5.136.915.176 11.643 5.874 12.875 3.447 1.196-2.427-8.759-8.759-9.498-8.583-.774.176-3.377 0-3.377 0z"/>
    <path fill="#99C" d="M153.659 71.373s1.548 56.211 1.548 61.945c0 5.733 3.342 38.447 4.89 38.869 1.547.422 3.271.07 3.975-.492.703-.563 3.13-83.895 3.13-83.895h2.392s19.277 83.543 20.367 84.387c.879.668 4.503.704 5.206-.281.704-.985-10.06-100.815-11.608-102.046-1.513-1.301-29.126.528-29.9 1.513z"/>
    <path fill="#F9C6A0" d="M119.081 34.262l-3.412-1.864s-10.693-5.523-9.708-7.774c.985-2.251 10.869 1.512 10.869 1.512s-.528-4.185.141-4.185c.492 0 4.713 8.899 4.643 9.356 0 .493-2.533 2.955-2.533 2.955z"/>
    <path fill="#F37B7B" d="M167.519 20.473c-4.045 1.9-26.91 25.503-27.332 26.065-.422.563-17.412-15.864-18.327-15.864-.914 0-3.13 3.13-3.13 3.553 0 .422 21.035 19.628 21.738 19.558 1.267-.07 16.709-13.649 16.99-14.106.282-.457-7.14 32.221-4.537 32.643 2.603.422 31.588.141 32.221-1.125.633-1.267-2.181-32.08-2.181-32.08s-2.181-17.202-7-19.242c-1.477-.563-6.508-.281-8.442.598z"/>
    <path fill="#F9C6A0" d="M163.825 3.272s-1.547 7.704 1.407 10.096c1.9 1.547 3.166 1.125 3.166 1.125l.457 6.648c1.056 1.02 2.428 3.73 4.538-.105 1.653-2.99 1.97-14.95 1.97-14.95s-2.533-3.517-2.673-3.553c-.071 0-8.865.739-8.865.739z"/>
    <path fill="#6D7075" d="M162.347 2.815c-.633.95-1.266 3.166.247 4.115 1.512.95 7.949.07 8.196.704.246.633-.387 2.357.246 3.025.457.492 2.532-1.583 3.201-1.266 1.125.527.387 5.839.387 5.839s1.547.809 2.04-3.482c.528-4.82.457-11.714-6.261-11.75-4.573-.034-7 1.302-8.056 2.815z"/>
    <path fill="#97A1FC" d="M167.729 20.473c-.07.633 2.392 3.271 3.166 3.201.809-.105-.844-4.96-2.181-4.924-.527 0-.95 1.16-.985 1.723z"/>
    <path fill="#97A1FC" d="M174.449 18.609c.316.14.984 1.09.984 1.372 0 .773-3.869 4.256-4.361 3.517-.493-.809 2.356-5.311 3.377-4.89z"/>
    <path fill="#EFC87E" d="M321.976 163.252c-.387-4.924-6.508-9.321-10.061-11.186-.07 1.654-1.055 3.131-2.673 4.397 2.216 1.091 7.035 3.729 7.387 6.191.422 3.061-4.116 3.799-13.332 3.377-9.216-.422-14.422-5.382-18.889-10.412-4.327-4.819-11.362-7.141-11.362-7.141-2.814-.914-1.97 5.101-1.97 5.101s5.628 2.146 8.653 5.558c3.448 3.904 12.593 12.1 23.463 12.311 11.151.247 19.311-1.442 18.784-8.196zM66.528 149.674s-42.035 9.252-48.332 9.287c-6.296.07-12.03-1.583-11.396-5.452.562-3.518 5.487-4.362 9.005-5.206-.774-1.689-1.02-3.694-.634-6.051.036-.14.036-.246.07-.351-4.889.703-13.014 3.341-14.703 8.477-1.759 5.276.07 15.689 16.533 14.985 16.462-.668 52.096-9.075 52.94-9.286.809-.176.176-1.794-3.483-6.403z"/>
    <path fill="#FF8E55" d="M100.192 114.85s-31.975 12.382-35.317 17.799c-3.342 5.417 7.739 39.116 10.483 40.699 2.743 1.583 39.995-3.342 42.316-4.678 2.322-1.302-14.352-51.217-17.482-53.82z"/>
    <path fill="#F49D6B" d="M111.202 103.699s-20.332 4.749-22.97 6.895c-6.226 5.136-3.588 20.93.176 35.141 3.729 14.14 14.563 30.392 19.663 31.377 5.101.985 18.644-2.146 20.262-5.101 1.653-2.919-16.005-66.799-17.131-68.312z"/>
    <path fill="#D88256" d="M128.351 172.016c4.673-1.173 4.623-17.414-.113-36.276-4.735-18.861-12.362-33.2-17.035-32.027-4.673 1.174-4.622 17.415.113 36.276 4.736 18.861 12.362 33.2 17.035 32.027z"/>
    <path fill="#F7D17E" d="M140.926 119.81l-22.759 5.734c-1.477.351-2.99-.528-3.341-2.005l-.282-1.161c-.351-1.478.528-2.99 2.005-3.342l22.759-5.734c1.478-.351 2.99.528 3.342 2.005l.281 1.161c.352 1.478-.527 2.99-2.005 3.342zM148.559 152.172l-22.759 5.733c-1.477.352-2.99-.527-3.341-2.005l-.282-1.16c-.352-1.478.528-2.99 2.005-3.342l22.759-5.734c1.477-.352 2.99.528 3.342 2.005l.281 1.161a2.734 2.734 0 0 1-2.005 3.342z"/>
    <path fill="#FF8E55" d="M238.75 114.674s32.116 11.995 35.528 17.377c3.412 5.382-7.246 39.222-9.99 40.84-2.744 1.618-40.03-2.85-42.387-4.151-2.322-1.302 13.719-51.427 16.849-54.066z"/>
    <path fill="#F49D6B" d="M227.565 103.664s20.402 4.503 23.04 6.613c6.297 5.066 3.834 20.86.246 35.141-3.552 14.176-14.176 30.568-19.276 31.623-5.101 1.056-18.643-1.934-20.297-4.819-1.653-2.919 15.196-67.01 16.287-68.558z"/>
    <path fill="#D88256" d="M227.933 139.94c4.5-18.92 4.348-35.161-.339-36.276-4.688-1.115-12.135 13.319-16.635 32.238-4.5 18.92-4.348 35.161.339 36.276 4.687 1.115 12.135-13.319 16.635-32.238z"/>
    <path fill="#B8673E" d="M225.348 125.262c-.668 2.85-2.251 4.89-3.552 4.608-1.267-.316-1.759-2.849-1.091-5.698.669-2.849 2.251-4.89 3.553-4.608 1.266.281 1.759 2.849 1.09 5.698zM218.489 155.584c-.668 2.849-2.251 4.89-3.553 4.608-1.266-.316-1.759-2.849-1.09-5.698.668-2.85 2.251-4.89 3.553-4.608 1.266.316 1.758 2.849 1.09 5.698z"/>
</svg>
