<?xml version="1.0" encoding="utf-8"?>
<!-- Generator: Adobe Illustrator 19.1.0, SVG Export Plug-In . SVG Version: 6.00 Build 0)  -->
<svg version="1.1" id="Layer_1" xmlns="http://www.w3.org/2000/svg" xmlns:xlink="http://www.w3.org/1999/xlink" x="0px" y="0px"
	 viewBox="144 -102.7 900 997.7" style="enable-background:new 144 -102.7 900 997.7;" xml:space="preserve">
<style type="text/css">
	.st0{fill:#C4030B;}
	.st1{fill:#C96E04;}
	.st2{fill:#AC0A1A;}
	.st3{fill:#CABF14;}
	.st4{fill:#0B713A;}
	.st5{fill:url(#SVGID_1_);}
	.st6{fill:url(#SVGID_2_);}
	.st7{fill:url(#SVGID_3_);}
	.st8{fill:url(#SVGID_4_);}
	.st9{fill:url(#SVGID_5_);}
	.st10{fill:url(#SVGID_6_);}
	.st11{fill:url(#SVGID_7_);}
	.st12{enable-background:new    ;}
</style>
<g>
	<g>
		<path class="st0" d="M931.1,408.9l24.8-18.1C901.6,317.1,825.2,261,736.4,231.4l-9.4,29.3C809.4,288.2,880.4,340.7,931.1,408.9z"
			/>
		<path class="st1" d="M593.8,239.2c44.1,0,86.3,6.6,126.2,19.3l9.4-29.3c-42.9-13.6-88.5-20.8-135.6-20.8
			c-47.4,0-92.7,7.2-135.6,20.8l9.4,29.3C507.5,245.9,549.8,239.2,593.8,239.2z"/>
		<path class="st2" d="M1013.2,655h30.8c-0.9-96.3-31.7-185.1-83.6-257.8l-24.8,18.1C983.6,482.6,1012.3,565.3,1013.2,655z"/>
		<path class="st3" d="M460.7,260.7l-9.4-29.3c-88.5,29.6-164.8,86-219.5,159.4l24.8,18.1C307.3,340.7,378.3,288.2,460.7,260.7z"/>
		<path class="st4" d="M252.4,415l-24.8-18.1c-52.2,72.8-83,161.8-83.6,257.8h30.8C175.4,565.3,204.1,482.6,252.4,415z"/>
		
			<linearGradient id="SVGID_1_" gradientUnits="userSpaceOnUse" x1="740.9857" y1="430.8192" x2="863.921" y2="291.3348" gradientTransform="matrix(1 0 0 1 0 4.2)">
			<stop  offset="0" style="stop-color:#F14950"/>
			<stop  offset="1" style="stop-color:#ED1C24"/>
		</linearGradient>
		<path class="st5" d="M904.2,428.5l26.9-19.3C880.4,341,809.4,288.5,727,261l-9.4,29.3C793.1,315.9,858,364.8,904.2,428.5z"/>
		
			<linearGradient id="SVGID_2_" gradientUnits="userSpaceOnUse" x1="845.8208" y1="578.5829" x2="1018.4031" y2="514.7508" gradientTransform="matrix(1 0 0 1 0 4.2)">
			<stop  offset="0" style="stop-color:#CB4B57"/>
			<stop  offset="1" style="stop-color:#BE1E2D"/>
		</linearGradient>
		<path class="st6" d="M1013.2,655c-0.9-89.4-29.6-172.1-77.9-239.7l-26.9,19.6c43.5,62.5,69.1,138.6,69.1,220.4h35.6L1013.2,655
			L1013.2,655z"/>
		
			<linearGradient id="SVGID_3_" gradientUnits="userSpaceOnUse" x1="444.051" y1="444.4679" x2="330.5728" y2="293.1638" gradientTransform="matrix(1 0 0 1 0 4.2)">
			<stop  offset="0" style="stop-color:#FAF15B"/>
			<stop  offset="1" style="stop-color:#F9ED32"/>
		</linearGradient>
		<path class="st7" d="M469.8,288.8l-9.1-28.1c-82.4,27.5-153.4,80-204.1,148.2l23.9,17.5C327.6,362.7,393.4,314.1,469.8,288.8z"/>
		
			<linearGradient id="SVGID_4_" gradientUnits="userSpaceOnUse" x1="595.3474" y1="392.155" x2="592.9834" y2="205.385" gradientTransform="matrix(1 0 0 1 0 4.2)">
			<stop  offset="0" style="stop-color:#F9A94B"/>
			<stop  offset="1" style="stop-color:#F7941E"/>
		</linearGradient>
		<path class="st8" d="M710.4,287.6l9.4-29.3c-39.9-12.7-82.1-19.3-126.2-19.3c-44.1,0-86.3,6.6-126.2,19.3l9.1,28.1
			c36.2-11.2,74.9-17.5,115-17.5C633.1,269.1,672.9,275.5,710.4,287.6z"/>
		
			<linearGradient id="SVGID_5_" gradientUnits="userSpaceOnUse" x1="346.1664" y1="577.9494" x2="166.4924" y2="514.1176" gradientTransform="matrix(1 0 0 1 0 4.2)">
			<stop  offset="0" style="stop-color:#33A969"/>
			<stop  offset="1" style="stop-color:#009444"/>
		</linearGradient>
		<path class="st9" d="M252.4,415c-48.3,67.6-77,150.4-77.9,240h31.4c0-82.7,26.3-159.7,70.6-222.5L252.4,415z"/>
		<g>
			
				<linearGradient id="SVGID_6_" gradientUnits="userSpaceOnUse" x1="561.4816" y1="90.9604" x2="411.3759" y2="-232.415" gradientTransform="matrix(1 5.000000e-004 -5.000000e-004 1 100.8271 558.0673)">
				<stop  offset="0" style="stop-color:#414042"/>
				<stop  offset="1" style="stop-color:#58595B"/>
			</linearGradient>
			<path class="st10" d="M568.2,655.3c0,14.2,11.5,25.7,25.7,25.7l0.3-393.1C594.2,288.2,568.2,641.1,568.2,655.3z"/>
			
				<linearGradient id="SVGID_7_" gradientUnits="userSpaceOnUse" x1="569.1886" y1="90.0197" x2="418.1904" y2="-235.2781" gradientTransform="matrix(1 5.000000e-004 -5.000000e-004 1 100.8271 558.0673)">
				<stop  offset="0" style="stop-color:#58595B"/>
				<stop  offset="1" style="stop-color:#231F20"/>
			</linearGradient>
			<path class="st11" d="M594.2,288.2L593.9,681c14.2,0,25.7-11.5,25.7-25.7C619.5,641.1,594.2,288.2,594.2,288.2z"/>
		</g>
	</g>
</g>
<g class="st12">
	<path d="M170.7,106.5c0-2.5,0.5-5,1.4-7.5c0.9-2.5,2.2-4.6,4-6.6c1.7-1.9,3.9-3.5,6.4-4.7c2.5-1.2,5.4-1.8,8.6-1.8
		c3.8,0,7.1,0.8,9.8,2.5c2.8,1.7,4.8,3.8,6.2,6.5l-6.1,4.2c-0.5-1.2-1.2-2.1-2-2.9c-0.8-0.8-1.6-1.4-2.5-1.9c-0.9-0.5-1.8-0.8-2.8-1
		c-1-0.2-1.9-0.3-2.8-0.3c-2,0-3.8,0.4-5.2,1.2c-1.5,0.8-2.7,1.9-3.7,3.2c-1,1.3-1.7,2.8-2.2,4.4c-0.5,1.6-0.8,3.3-0.8,4.9
		c0,1.8,0.3,3.6,0.9,5.2c0.6,1.7,1.4,3.2,2.5,4.4c1.1,1.3,2.3,2.3,3.8,3.1c1.5,0.8,3.1,1.2,4.9,1.2c0.9,0,1.9-0.1,2.9-0.3
		c1-0.2,2-0.6,2.9-1.1c0.9-0.5,1.7-1.2,2.5-1.9c0.8-0.8,1.4-1.7,1.9-2.9l6.6,3.8c-0.7,1.5-1.6,2.9-2.8,4.1c-1.2,1.2-2.6,2.2-4.1,3
		c-1.5,0.8-3.2,1.4-4.9,1.9s-3.4,0.6-5.1,0.6c-2.9,0-5.6-0.6-8.1-1.9s-4.5-2.9-6.3-4.8c-1.8-2-3.1-4.3-4.1-6.8
		C171.2,111.7,170.7,109.2,170.7,106.5z"/>
	<path d="M226.3,128c-2.5,0-4.7-0.4-6.7-1.3c-2-0.8-3.6-2-5-3.5c-1.4-1.4-2.4-3.1-3.2-5c-0.7-1.9-1.1-3.9-1.1-6c0-2.1,0.4-4.1,1.1-6
		c0.7-1.9,1.8-3.6,3.2-5c1.4-1.5,3-2.6,5-3.5c2-0.9,4.2-1.3,6.7-1.3c2.5,0,4.7,0.4,6.6,1.3c2,0.9,3.6,2,5,3.5c1.4,1.4,2.4,3.1,3.2,5
		c0.7,1.9,1.1,3.9,1.1,6c0,2.1-0.4,4.1-1.1,6c-0.7,1.9-1.8,3.6-3.1,5c-1.4,1.5-3,2.6-5,3.5C231,127.6,228.8,128,226.3,128z
		 M218.3,112.3c0,1.4,0.2,2.6,0.6,3.7c0.4,1.1,1,2.1,1.7,2.9c0.7,0.8,1.6,1.4,2.5,1.9c1,0.4,2,0.7,3.1,0.7c1.1,0,2.2-0.2,3.1-0.7
		c1-0.4,1.8-1.1,2.5-1.9c0.7-0.8,1.3-1.8,1.7-2.9c0.4-1.1,0.6-2.4,0.6-3.7c0-1.3-0.2-2.5-0.6-3.7c-0.4-1.1-1-2.1-1.7-2.9
		c-0.7-0.8-1.6-1.4-2.5-1.9c-1-0.4-2-0.7-3.1-0.7c-1.1,0-2.2,0.2-3.1,0.7c-1,0.5-1.8,1.1-2.5,1.9c-0.7,0.8-1.3,1.8-1.7,2.9
		C218.5,109.7,218.3,110.9,218.3,112.3z"/>
	<path d="M265.5,103.7c-2.4,0-4.5,0.5-6.3,1.4s-3.2,2.2-4,3.9v18.4h-7.8V97h7.1v6.5c0.5-1,1.2-2,1.9-2.8c0.7-0.8,1.5-1.6,2.4-2.2
		c0.9-0.6,1.7-1.1,2.6-1.4c0.9-0.3,1.7-0.5,2.5-0.5c0.4,0,0.7,0,1,0c0.2,0,0.4,0,0.6,0.1V103.7z"/>
	<path d="M282.4,128c-2.5,0-4.7-0.4-6.7-1.3c-2-0.8-3.6-2-5-3.5c-1.4-1.4-2.4-3.1-3.2-5c-0.7-1.9-1.1-3.9-1.1-6c0-2.1,0.4-4.1,1.1-6
		c0.7-1.9,1.8-3.6,3.2-5c1.4-1.5,3-2.6,5-3.5c2-0.9,4.2-1.3,6.7-1.3c2.5,0,4.7,0.4,6.6,1.3c2,0.9,3.6,2,5,3.5c1.4,1.4,2.4,3.1,3.2,5
		c0.7,1.9,1.1,3.9,1.1,6c0,2.1-0.4,4.1-1.1,6c-0.7,1.9-1.8,3.6-3.1,5c-1.4,1.5-3,2.6-5,3.5C287.1,127.6,284.8,128,282.4,128z
		 M274.4,112.3c0,1.4,0.2,2.6,0.6,3.7c0.4,1.1,1,2.1,1.7,2.9c0.7,0.8,1.6,1.4,2.5,1.9c1,0.4,2,0.7,3.1,0.7c1.1,0,2.2-0.2,3.1-0.7
		c1-0.4,1.8-1.1,2.5-1.9c0.7-0.8,1.3-1.8,1.7-2.9c0.4-1.1,0.6-2.4,0.6-3.7c0-1.3-0.2-2.5-0.6-3.7c-0.4-1.1-1-2.1-1.7-2.9
		c-0.7-0.8-1.6-1.4-2.5-1.9c-1-0.4-2-0.7-3.1-0.7c-1.1,0-2.2,0.2-3.1,0.7c-1,0.5-1.8,1.1-2.5,1.9c-0.7,0.8-1.3,1.8-1.7,2.9
		C274.6,109.7,274.4,110.9,274.4,112.3z"/>
	<path d="M331.7,127.4H324v-17.1c0-2.4-0.4-4.2-1.3-5.3c-0.9-1.1-2-1.7-3.5-1.7c-0.8,0-1.6,0.2-2.4,0.5c-0.8,0.3-1.6,0.7-2.3,1.3
		c-0.7,0.6-1.4,1.2-1.9,2s-1,1.6-1.3,2.6v17.7h-7.8V97h7v5.6c1.1-1.9,2.7-3.4,4.9-4.5c2.1-1.1,4.5-1.6,7.2-1.6c1.9,0,3.4,0.3,4.6,1
		c1.2,0.7,2.1,1.6,2.8,2.7c0.7,1.1,1.1,2.4,1.4,3.8c0.3,1.4,0.4,2.9,0.4,4.4V127.4z"/>
	<path d="M346.8,128c-1.5,0-2.8-0.2-4.1-0.7c-1.3-0.5-2.4-1.2-3.3-2c-0.9-0.9-1.7-1.9-2.2-3s-0.8-2.4-0.8-3.8c0-1.4,0.3-2.8,1-4
		c0.6-1.2,1.5-2.3,2.7-3.1c1.1-0.8,2.5-1.5,4.1-2c1.6-0.5,3.3-0.7,5.2-0.7c1.4,0,2.7,0.1,4,0.3c1.3,0.2,2.4,0.6,3.5,1v-1.7
		c0-2-0.6-3.6-1.7-4.6c-1.1-1.1-2.8-1.6-5.1-1.6c-1.6,0-3.2,0.3-4.8,0.9c-1.5,0.6-3.1,1.4-4.8,2.6l-2.4-4.9
		c3.9-2.6,8.1-3.9,12.6-3.9c4.4,0,7.8,1.1,10.2,3.2c2.4,2.1,3.6,5.2,3.6,9.3v9.5c0,0.8,0.1,1.4,0.4,1.7c0.3,0.3,0.8,0.5,1.4,0.6v6.6
		c-1.3,0.3-2.5,0.4-3.4,0.4c-1.5,0-2.6-0.3-3.4-1c-0.8-0.7-1.3-1.5-1.5-2.6l-0.2-1.7c-1.4,1.8-3,3.1-4.9,4.1
		C351.1,127.5,349,128,346.8,128z M349,122.3c1.3,0,2.6-0.2,3.7-0.7c1.2-0.5,2.1-1.1,2.8-1.9c0.8-0.7,1.3-1.4,1.3-2.2v-3.5
		c-0.9-0.3-1.9-0.6-3-0.8c-1.1-0.2-2.1-0.3-3.1-0.3c-2,0-3.7,0.5-4.9,1.4s-1.9,2.1-1.9,3.5c0,1.3,0.5,2.4,1.5,3.3
		C346.3,121.9,347.5,122.3,349,122.3z"/>
	<path d="M389.9,103.7c-2.4,0-4.5,0.5-6.3,1.4s-3.2,2.2-4,3.9v18.4h-7.8V97h7.1v6.5c0.5-1,1.2-2,1.9-2.8c0.7-0.8,1.5-1.6,2.4-2.2
		c0.9-0.6,1.7-1.1,2.6-1.4c0.9-0.3,1.7-0.5,2.5-0.5c0.4,0,0.7,0,1,0c0.2,0,0.4,0,0.6,0.1V103.7z"/>
	<path d="M394.9,133.3c0.7,0.2,1.3,0.3,1.9,0.4c0.6,0.1,1.1,0.1,1.6,0.1c0.5,0,1-0.1,1.4-0.3c0.4-0.2,0.8-0.5,1.2-1
		c0.3-0.5,0.7-1.2,1-2c0.3-0.9,0.7-1.9,1.1-3.2l-12-30.4h8l8.2,23.7l7.3-23.7h7.3l-12.8,36.4c-0.7,2.1-2,3.9-3.8,5.2
		c-1.8,1.4-4,2-6.6,2c-0.6,0-1.2,0-1.9-0.1c-0.6-0.1-1.3-0.3-2-0.5V133.3z"/>
	<path d="M449.2,86.2h7.1l15.7,41.2h-8.2l-3.8-10.3h-14.4l-3.8,10.3h-8.2L449.2,86.2z M458.4,111.5l-5.7-16.2l-5.9,16.2H458.4z"/>
	<path d="M493.8,103.7c-2.4,0-4.5,0.5-6.3,1.4c-1.9,0.9-3.2,2.2-4,3.9v18.4h-7.8V97h7.1v6.5c0.5-1,1.2-2,1.9-2.8
		c0.7-0.8,1.5-1.6,2.4-2.2c0.9-0.6,1.7-1.1,2.6-1.4c0.9-0.3,1.7-0.5,2.5-0.5c0.4,0,0.7,0,1,0c0.2,0,0.4,0,0.6,0.1V103.7z"/>
	<path d="M516.3,125.8c-1,0.5-2.3,0.9-3.8,1.4s-3.1,0.7-4.8,0.7c-1.1,0-2.1-0.1-3-0.4c-0.9-0.3-1.8-0.7-2.5-1.3
		c-0.7-0.6-1.3-1.4-1.7-2.3c-0.4-0.9-0.6-2.1-0.6-3.5V103h-4v-6h4v-9.9h7.8V97h6.4v6h-6.4v14.8c0,1.1,0.3,1.8,0.8,2.3
		c0.6,0.4,1.2,0.7,2.1,0.7c0.8,0,1.6-0.1,2.4-0.4c0.8-0.3,1.4-0.5,1.9-0.7L516.3,125.8z"/>
	<path d="M533.7,128c-2.4,0-4.6-0.4-6.6-1.2c-2-0.8-3.7-2-5-3.4c-1.4-1.4-2.5-3.1-3.2-5s-1.1-3.9-1.1-6c0-2.2,0.4-4.2,1.1-6.1
		s1.8-3.6,3.2-5c1.4-1.5,3.1-2.6,5.1-3.5c2-0.9,4.2-1.3,6.7-1.3c2.5,0,4.7,0.4,6.6,1.3c2,0.9,3.6,2,5,3.4c1.4,1.4,2.4,3.1,3.1,5
		c0.7,1.9,1.1,3.9,1.1,5.9c0,0.5,0,1,0,1.4c0,0.5-0.1,0.9-0.1,1.2H526c0.1,1.2,0.4,2.3,0.9,3.2c0.5,0.9,1.1,1.7,1.8,2.4
		c0.7,0.7,1.6,1.2,2.5,1.5c0.9,0.3,1.9,0.5,2.9,0.5c1.5,0,3-0.4,4.4-1.1c1.4-0.8,2.3-1.7,2.8-3l6.7,1.9c-1.1,2.3-2.9,4.2-5.4,5.7
		C540.1,127.2,537.1,128,533.7,128z M541.6,109.7c-0.2-2.3-1-4.1-2.5-5.5c-1.5-1.4-3.3-2.1-5.4-2.1c-1,0-2,0.2-2.9,0.6
		c-0.9,0.4-1.7,0.9-2.4,1.5c-0.7,0.7-1.3,1.5-1.7,2.4c-0.4,0.9-0.7,2-0.8,3.1H541.6z"/>
	<path d="M572.5,103.7c-2.4,0-4.5,0.5-6.3,1.4c-1.9,0.9-3.2,2.2-4,3.9v18.4h-7.8V97h7.1v6.5c0.5-1,1.2-2,1.9-2.8
		c0.7-0.8,1.5-1.6,2.4-2.2c0.9-0.6,1.7-1.1,2.6-1.4c0.9-0.3,1.7-0.5,2.5-0.5c0.4,0,0.7,0,1,0c0.2,0,0.4,0,0.6,0.1V103.7z"/>
	<path d="M577.5,133.3c0.7,0.2,1.3,0.3,1.9,0.4c0.6,0.1,1.1,0.1,1.6,0.1c0.5,0,1-0.1,1.4-0.3c0.4-0.2,0.8-0.5,1.2-1
		c0.3-0.5,0.7-1.2,1-2c0.3-0.9,0.7-1.9,1.1-3.2l-12-30.4h8l8.2,23.7l7.3-23.7h7.3l-12.8,36.4c-0.7,2.1-2,3.9-3.8,5.2s-4,2-6.6,2
		c-0.6,0-1.2,0-1.9-0.1c-0.6-0.1-1.3-0.3-2-0.5V133.3z"/>
	<path d="M619.3,106.5c0-2.5,0.5-5,1.4-7.5c0.9-2.5,2.2-4.6,4-6.6c1.7-1.9,3.9-3.5,6.4-4.7c2.5-1.2,5.4-1.8,8.6-1.8
		c3.8,0,7.1,0.8,9.8,2.5c2.8,1.7,4.8,3.8,6.2,6.5l-6.1,4.2c-0.5-1.2-1.2-2.1-2-2.9c-0.8-0.8-1.6-1.4-2.5-1.9c-0.9-0.5-1.8-0.8-2.8-1
		c-1-0.2-1.9-0.3-2.8-0.3c-2,0-3.8,0.4-5.2,1.2c-1.5,0.8-2.7,1.9-3.7,3.2c-1,1.3-1.7,2.8-2.2,4.4c-0.5,1.6-0.8,3.3-0.8,4.9
		c0,1.8,0.3,3.6,0.9,5.2c0.6,1.7,1.4,3.2,2.5,4.4s2.3,2.3,3.8,3.1c1.5,0.8,3.1,1.2,4.9,1.2c0.9,0,1.9-0.1,2.9-0.3
		c1-0.2,2-0.6,2.9-1.1c0.9-0.5,1.7-1.2,2.5-1.9c0.8-0.8,1.4-1.7,1.9-2.9l6.6,3.8c-0.7,1.5-1.6,2.9-2.8,4.1s-2.6,2.2-4.1,3
		c-1.5,0.8-3.2,1.4-4.9,1.9c-1.7,0.4-3.4,0.6-5.1,0.6c-2.9,0-5.6-0.6-8.1-1.9c-2.4-1.2-4.5-2.9-6.3-4.8s-3.1-4.3-4.1-6.8
		C619.8,111.7,619.3,109.2,619.3,106.5z"/>
	<path d="M669.2,128c-1.5,0-2.8-0.2-4.1-0.7c-1.3-0.5-2.4-1.2-3.3-2s-1.7-1.9-2.2-3c-0.5-1.2-0.8-2.4-0.8-3.8c0-1.4,0.3-2.8,1-4
		c0.6-1.2,1.5-2.3,2.7-3.1c1.1-0.8,2.5-1.5,4.1-2c1.6-0.5,3.3-0.7,5.2-0.7c1.4,0,2.7,0.1,4,0.3c1.3,0.2,2.4,0.6,3.5,1v-1.7
		c0-2-0.6-3.6-1.7-4.6c-1.1-1.1-2.8-1.6-5.1-1.6c-1.6,0-3.2,0.3-4.8,0.9s-3.1,1.4-4.8,2.6l-2.4-4.9c3.9-2.6,8.1-3.9,12.6-3.9
		c4.4,0,7.8,1.1,10.2,3.2c2.4,2.1,3.6,5.2,3.6,9.3v9.5c0,0.8,0.1,1.4,0.4,1.7c0.3,0.3,0.8,0.5,1.4,0.6v6.6c-1.3,0.3-2.5,0.4-3.4,0.4
		c-1.5,0-2.6-0.3-3.4-1c-0.8-0.7-1.3-1.5-1.5-2.6l-0.2-1.7c-1.4,1.8-3,3.1-4.9,4.1C673.4,127.5,671.4,128,669.2,128z M671.4,122.3
		c1.3,0,2.6-0.2,3.7-0.7c1.2-0.5,2.1-1.1,2.8-1.9c0.8-0.7,1.3-1.4,1.3-2.2v-3.5c-0.9-0.3-1.9-0.6-3-0.8c-1.1-0.2-2.1-0.3-3.1-0.3
		c-2,0-3.7,0.5-4.9,1.4c-1.3,0.9-1.9,2.1-1.9,3.5c0,1.3,0.5,2.4,1.5,3.3C668.7,121.9,669.9,122.3,671.4,122.3z"/>
	<path d="M694.1,85.1h7.8v32.6c0,1.1,0.3,2,0.8,2.6c0.5,0.6,1.3,0.9,2.3,0.9c0.5,0,1-0.1,1.5-0.2c0.6-0.2,1.1-0.3,1.6-0.6l1,5.9
		c-1,0.5-2.3,0.9-3.7,1.2c-1.4,0.3-2.6,0.4-3.8,0.4c-2.4,0-4.3-0.6-5.7-1.9s-2-3.1-2-5.5V85.1z"/>
	<path d="M710.6,112.2c0-2.1,0.4-4.1,1.1-6s1.8-3.6,3.2-5s3.1-2.6,5-3.4s4.2-1.3,6.7-1.3c3.3,0,6.2,0.7,8.5,2.1
		c2.3,1.4,4.1,3.3,5.2,5.6l-7.6,2.3c-0.7-1.1-1.5-2-2.6-2.6c-1.1-0.6-2.3-0.9-3.6-0.9c-1.1,0-2.2,0.2-3.1,0.7
		c-1,0.4-1.8,1.1-2.5,1.9c-0.7,0.8-1.3,1.8-1.7,2.9c-0.4,1.1-0.6,2.4-0.6,3.7c0,1.4,0.2,2.6,0.6,3.7c0.4,1.1,1,2.1,1.7,2.9
		c0.7,0.8,1.6,1.4,2.5,1.9c1,0.4,2,0.7,3.1,0.7c1.4,0,2.7-0.3,3.9-1s2-1.5,2.5-2.6l7.6,2.3c-1,2.3-2.8,4.2-5.2,5.7
		c-2.4,1.5-5.3,2.2-8.6,2.2c-2.5,0-4.7-0.4-6.7-1.3c-2-0.8-3.7-2-5-3.5c-1.4-1.4-2.5-3.1-3.2-5S710.6,114.3,710.6,112.2z"/>
	<path d="M745.3,92.8v-7.7h7.8v7.7H745.3z M745.3,127.4V97h7.8v30.4H745.3z"/>
	<path d="M769.3,128c-3.1,0-5.5-1-7.1-3s-2.4-5-2.4-8.9V97h7.8v17.3c0,4.7,1.7,7,5,7c1.5,0,3-0.5,4.4-1.4c1.4-0.9,2.6-2.3,3.5-4.1
		V97h7.8v21.5c0,0.8,0.1,1.4,0.4,1.7c0.3,0.3,0.8,0.5,1.4,0.6v6.6c-0.8,0.2-1.4,0.3-1.9,0.3c-0.5,0-1,0.1-1.4,0.1
		c-1.4,0-2.5-0.3-3.4-1c-0.9-0.6-1.4-1.5-1.5-2.6l-0.2-2.4c-1.4,2.1-3.1,3.7-5.2,4.7C774.2,127.5,771.9,128,769.3,128z"/>
	<path d="M843.1,127.4h-7.8v-17.1c0-2.4-0.4-4.2-1.2-5.3c-0.8-1.1-2-1.7-3.5-1.7c-1.5,0-3,0.6-4.4,1.8s-2.3,2.7-2.9,4.6v17.7h-7.8
		v-17.1c0-2.4-0.4-4.2-1.2-5.3c-0.8-1.1-2-1.7-3.5-1.7c-1.5,0-2.9,0.6-4.3,1.7c-1.4,1.2-2.3,2.7-2.9,4.6v17.7h-7.8V97h7v5.6
		c1.1-2,2.7-3.5,4.6-4.6c2-1.1,4.2-1.6,6.7-1.6c2.6,0,4.5,0.6,5.9,1.9c1.4,1.2,2.3,2.8,2.7,4.6c1.2-2.1,2.8-3.7,4.7-4.8
		c1.9-1.1,4.1-1.7,6.5-1.7c1.9,0,3.4,0.3,4.6,1s2.1,1.6,2.8,2.7s1.1,2.4,1.4,3.8c0.3,1.4,0.4,2.9,0.4,4.4V127.4z"/>
	<path d="M889.1,97c-0.3-0.3-0.8-0.6-1.5-1.1S886,95,885,94.5c-1-0.4-2.1-0.8-3.3-1.1c-1.2-0.3-2.4-0.5-3.7-0.5
		c-2.2,0-3.8,0.4-4.9,1.2c-1.1,0.8-1.6,2-1.6,3.4c0,0.9,0.2,1.6,0.6,2.1c0.4,0.6,1,1.1,1.8,1.5c0.8,0.4,1.7,0.8,2.9,1.2
		c1.2,0.3,2.5,0.7,4.1,1.1c2,0.5,3.8,1.1,5.5,1.7c1.6,0.6,3,1.4,4.2,2.3c1.1,0.9,2,2,2.6,3.3c0.6,1.3,0.9,2.9,0.9,4.8
		c0,2.2-0.4,4.1-1.2,5.7c-0.8,1.6-2,2.8-3.4,3.8c-1.4,1-3,1.7-4.9,2.1c-1.8,0.4-3.8,0.7-5.8,0.7c-3.1,0-6.1-0.5-9.2-1.4
		c-3-0.9-5.7-2.2-8.1-3.9l3.5-6.9c0.3,0.3,1,0.8,1.9,1.4c0.9,0.6,2,1.1,3.2,1.7c1.2,0.6,2.6,1,4.1,1.4s3.1,0.6,4.6,0.6
		c4.4,0,6.6-1.4,6.6-4.2c0-0.9-0.3-1.6-0.8-2.3c-0.5-0.6-1.2-1.2-2.1-1.6c-0.9-0.5-2-0.9-3.4-1.3c-1.3-0.4-2.8-0.8-4.4-1.3
		c-2-0.5-3.7-1.1-5.1-1.8c-1.5-0.6-2.7-1.4-3.6-2.3c-1-0.9-1.7-1.9-2.2-3c-0.5-1.1-0.7-2.5-0.7-4.1c0-2.1,0.4-3.9,1.2-5.6
		c0.8-1.6,1.8-3,3.2-4.1c1.4-1.1,3-1.9,4.8-2.5c1.8-0.6,3.8-0.8,5.9-0.8c2.9,0,5.6,0.5,8,1.4c2.4,0.9,4.6,2,6.4,3.2L889.1,97z"/>
	<path d="M897.5,112.2c0-2.1,0.4-4.1,1.1-6s1.8-3.6,3.2-5s3.1-2.6,5-3.4s4.2-1.3,6.7-1.3c3.3,0,6.2,0.7,8.5,2.1
		c2.3,1.4,4.1,3.3,5.2,5.6l-7.6,2.3c-0.7-1.1-1.5-2-2.6-2.6c-1.1-0.6-2.3-0.9-3.6-0.9c-1.1,0-2.2,0.2-3.1,0.7
		c-1,0.4-1.8,1.1-2.5,1.9c-0.7,0.8-1.3,1.8-1.7,2.9c-0.4,1.1-0.6,2.4-0.6,3.7c0,1.4,0.2,2.6,0.6,3.7c0.4,1.1,1,2.1,1.7,2.9
		c0.7,0.8,1.6,1.4,2.5,1.9c1,0.4,2,0.7,3.1,0.7c1.4,0,2.7-0.3,3.9-1s2-1.5,2.5-2.6l7.6,2.3c-1,2.3-2.8,4.2-5.2,5.7
		c-2.4,1.5-5.3,2.2-8.6,2.2c-2.5,0-4.7-0.4-6.7-1.3c-2-0.8-3.7-2-5-3.5c-1.4-1.4-2.5-3.1-3.2-5S897.5,114.3,897.5,112.2z"/>
	<path d="M945.8,128c-2.5,0-4.7-0.4-6.7-1.3c-2-0.8-3.6-2-5-3.5c-1.4-1.4-2.4-3.1-3.2-5c-0.7-1.9-1.1-3.9-1.1-6c0-2.1,0.4-4.1,1.1-6
		s1.8-3.6,3.2-5c1.4-1.5,3-2.6,5-3.5c2-0.9,4.2-1.3,6.7-1.3c2.5,0,4.7,0.4,6.6,1.3c2,0.9,3.6,2,5,3.5c1.4,1.4,2.4,3.1,3.2,5
		c0.7,1.9,1.1,3.9,1.1,6c0,2.1-0.4,4.1-1.1,6c-0.7,1.9-1.8,3.6-3.1,5c-1.4,1.5-3,2.6-5,3.5C950.5,127.6,948.3,128,945.8,128z
		 M937.9,112.3c0,1.4,0.2,2.6,0.6,3.7c0.4,1.1,1,2.1,1.7,2.9c0.7,0.8,1.6,1.4,2.5,1.9c1,0.4,2,0.7,3.1,0.7c1.1,0,2.2-0.2,3.1-0.7
		c1-0.4,1.8-1.1,2.5-1.9c0.7-0.8,1.3-1.8,1.7-2.9c0.4-1.1,0.6-2.4,0.6-3.7c0-1.3-0.2-2.5-0.6-3.7s-1-2.1-1.7-2.9s-1.6-1.4-2.5-1.9
		c-1-0.4-2-0.7-3.1-0.7c-1.1,0-2.2,0.2-3.1,0.7c-1,0.5-1.8,1.1-2.5,1.9c-0.7,0.8-1.3,1.8-1.7,2.9
		C938.1,109.7,937.9,110.9,937.9,112.3z"/>
	<path d="M985,103.7c-2.4,0-4.5,0.5-6.3,1.4c-1.9,0.9-3.2,2.2-4,3.9v18.4h-7.8V97h7.1v6.5c0.5-1,1.2-2,1.9-2.8
		c0.7-0.8,1.5-1.6,2.4-2.2c0.9-0.6,1.7-1.1,2.6-1.4c0.9-0.3,1.7-0.5,2.5-0.5c0.4,0,0.7,0,1,0c0.2,0,0.4,0,0.6,0.1V103.7z"/>
	<path d="M1002,128c-2.4,0-4.6-0.4-6.6-1.2c-2-0.8-3.7-2-5-3.4c-1.4-1.4-2.5-3.1-3.2-5s-1.1-3.9-1.1-6c0-2.2,0.4-4.2,1.1-6.1
		s1.8-3.6,3.2-5c1.4-1.5,3.1-2.6,5.1-3.5c2-0.9,4.2-1.3,6.7-1.3c2.5,0,4.7,0.4,6.6,1.3c2,0.9,3.6,2,5,3.4c1.4,1.4,2.4,3.1,3.1,5
		c0.7,1.9,1.1,3.9,1.1,5.9c0,0.5,0,1,0,1.4c0,0.5-0.1,0.9-0.1,1.2h-23.5c0.1,1.2,0.4,2.3,0.9,3.2c0.5,0.9,1.1,1.7,1.8,2.4
		c0.7,0.7,1.6,1.2,2.5,1.5c0.9,0.3,1.9,0.5,2.9,0.5c1.5,0,3-0.4,4.4-1.1c1.4-0.8,2.3-1.7,2.8-3l6.7,1.9c-1.1,2.3-2.9,4.2-5.4,5.7
		C1008.3,127.2,1005.4,128,1002,128z M1009.9,109.7c-0.2-2.3-1-4.1-2.5-5.5c-1.5-1.4-3.3-2.1-5.4-2.1c-1,0-2,0.2-2.9,0.6
		c-0.9,0.4-1.7,0.9-2.4,1.5c-0.7,0.7-1.3,1.5-1.7,2.4c-0.4,0.9-0.7,2-0.8,3.1H1009.9z"/>
</g>
</svg>
