<?xml version="1.0" encoding="utf-8"?>
<!-- Generator: Adobe Illustrator 23.0.1, SVG Export Plug-In . SVG Version: 6.00 Build 0)  -->
<svg version="1.1" id="Layer_1" xmlns="http://www.w3.org/2000/svg" xmlns:xlink="http://www.w3.org/1999/xlink" x="0px" y="0px"
	 viewBox="0 0 708.2 525" style="enable-background:new 0 0 708.2 525;" xml:space="preserve">
<style type="text/css">
	.st0{fill:#90C8D4;}
	.st1{fill:#404041;}
</style>
<g>
	<path class="st0" d="M679.8,508.7H28.9c-6.6,0-12-5.4-12-12V127.5c0-6.6,5.4-12,12-12h650.9c6.6,0,12,5.4,12,12v369.3
		C691.8,503.3,686.4,508.7,679.8,508.7z"/>
	<path id="medical_bag" class="st1" d="M652.5,99.7H517.3V69.8c0-5.8-3.5-10.7-8.5-12.8H480V13.9C480,6.2,473.8,0,466.1,0h-224
		c-7.7,0-13.9,6.2-13.9,13.9V57h-28.8c-5,2.1-8.5,7.1-8.5,12.8v29.9H55.7C25,99.7,0,124.6,0,155.4v75.9c0,0,0,0,0,0v238.1
		C0,500,25,525,55.7,525h596.8c30.7,0,55.7-25,55.7-55.7v-314C708.2,124.6,683.2,99.7,652.5,99.7z M489.4,83.7v15.9h-46.7V83.7
		H489.4z M256,27.8h196.2V57h-28.8c-5,2.1-8.5,7.1-8.5,12.8v29.9H293.2V69.8c0-5.8-3.5-10.7-8.5-12.8H256V27.8z M218.7,83.7h46.6
		v15.9h-46.6V83.7z M680.3,469.3c0,15.4-12.5,27.8-27.8,27.8H55.7c-15.4,0-27.8-12.5-27.8-27.8V251.5
		c41.6,15.6,142.7,50.4,228.1,54.1v28.9c0,6.2,5,11.1,11.1,11.1h45.6v45.6c0,6.2,5,11.1,11.1,11.1h60.6c6.2,0,11.1-5,11.1-11.1
		v-45.6h45.6c6.2,0,11.1-5,11.1-11.1v-29c86.2-4.2,187.8-39.4,228.1-54.6V469.3z M384.4,285H430v38.3h-45.6c-6.2,0-11.1,5-11.1,11.1
		v45.6h-38.3v-45.6c0-6.2-5-11.1-11.1-11.1h-45.6v-38.3h45.6c6.2,0,11.1-5,11.1-11.1v-45.6h38.3v45.6C373.2,280,378.2,285,384.4,285
		z M680.3,221c-28.5,11.1-138.8,51.9-228.1,56.6v-3.7c0-6.2-5-11.1-11.1-11.1h-45.6v-45.6c0-6.2-5-11.1-11.1-11.1h-60.6
		c-6.2,0-11.1,5-11.1,11.1v45.6h-45.6c-6.2,0-11.1,5-11.1,11.1v3.8c-87.9-4.2-197-44.1-228.1-56.1v-66.3c0-15.4,12.5-27.8,27.8-27.8
		h596.8c15.4,0,27.8,12.5,27.8,27.8V221z"/>
</g>
</svg>
