<svg id="Layer_1" data-name="Layer 1" xmlns="http://www.w3.org/2000/svg" viewBox="0 0 306.4 267.47"><defs><style>.cls-1{fill:#458d36;}.cls-2{fill:#dbe9a2;}.cls-3{fill:#dbdd9b;}.cls-4{fill:#e7f2cc;}.cls-5{fill:#ffab2a;}.cls-6{fill:#ffd538;}.cls-7{fill:#ffbf2a;}.cls-8{fill:#398d3f;}.cls-9{fill:#95c11f;}.cls-10{fill:#60aa37;}.cls-11{fill:#f5a138;}.cls-12{fill:#f39200;}.cls-13{fill:#fad399;}.cls-14{fill:#3d6d3b;}.cls-15{fill:#709f17;}.cls-16{fill:#c4df8c;}.cls-17{fill:#5c8517;}.cls-18{fill:#e7f4ba;}.cls-19{fill:#659317;}.cls-20{fill:#649c3b;}.cls-21{fill:#83b062;}.cls-22{fill:#3d5e3b;}.cls-23{fill:#3d663b;}.cls-24{fill:#3d783b;}.cls-25{fill:#418444;}.cls-26{fill:#417844;}.cls-27{fill:#489344;}.cls-28{fill:#5b7b59;}.cls-29{fill:#5b825a;}.cls-30{fill:#5b8b5a;}.cls-31{fill:#5e8b62;}.cls-32{fill:#65a263;}.cls-33{fill:#eddaeb;}.cls-34{fill:#9e526d;}.cls-35{fill:#ebe3e8;}.cls-36{fill:#ede8f0;}.cls-37{fill:#448e33;}.cls-38{fill:#77d03f;}.cls-39{fill:#51a23f;}.cls-40{fill:#62bb3f;}.cls-41{fill:#c62b6c;}.cls-42{fill:#e52b6c;}.cls-43{fill:#ef332a;}.cls-44{fill:#bad64c;}.cls-45{fill:#7ca317;}.cls-46{fill:#f5ab2a;}.cls-47{fill:#dda400;}.cls-48{fill:#aacd4c;}.cls-49{fill:#d08800;}.cls-50{fill:#f05c42;}.cls-51{fill:#39963f;}.cls-52{fill:#4caf3f;}.cls-53{fill:#063;}.cls-54{fill:#a0d01f;}.cls-55{fill:#7aad1f;}.cls-56{fill:#cce158;}</style></defs><title>eating [Converted]</title><circle class="cls-1" cx="248.49" cy="80.86" r="27.19"/><circle class="cls-2" cx="248.49" cy="80.86" r="23.5"/><circle class="cls-3" cx="248.49" cy="80.86" r="12.1"/><ellipse class="cls-4" cx="327.76" cy="168.57" rx="4.38" ry="1.96" transform="translate(-114.17 75.7) rotate(-27.24)"/><ellipse class="cls-4" cx="327.61" cy="174.12" rx="1.96" ry="4.38" transform="translate(-14.63 336.73) rotate(-71.54)"/><ellipse class="cls-4" cx="314.83" cy="172.27" rx="1.96" ry="4.38" transform="translate(-20.81 324.2) rotate(-71.73)"/><ellipse class="cls-4" cx="318.46" cy="168.17" rx="1.96" ry="4.38" transform="translate(-112.99 113.57) rotate(-33.96)"/><ellipse class="cls-4" cx="315.63" cy="178.96" rx="4.38" ry="1.96" transform="translate(-120.3 99.9) rotate(-31.76)"/><ellipse class="cls-4" cx="322.54" cy="180.57" rx="1.96" ry="4.38" transform="translate(-95.8 -45.25) rotate(-8.19)"/><ellipse class="cls-4" cx="328.77" cy="180.8" rx="1.39" ry="3.32" transform="translate(-104.77 192.92) rotate(-45.08)"/><ellipse class="cls-4" cx="323.24" cy="164.53" rx="1.39" ry="3.32" transform="translate(-73.68 -92.41) rotate(-0.11)"/><ellipse class="cls-4" cx="317.48" cy="185.18" rx="3.32" ry="1.39" transform="translate(-59.56 299.18) rotate(-64.54)"/><path class="cls-5" d="M222.55,160.59s8.92-4.13,14.55-2.91,12.88,3.56,15.83,6,5.54,7.14,5.54,7.14-13-1.44-14.46-2.06S222.55,160.59,222.55,160.59Z" transform="translate(-73.37 -93.03)"/><path class="cls-5" d="M250.71,169.51s5.89-2.53,14.47,1.11c4.57,1.94,10.75,11.81,2.15,26.73s-15.54,34.42-24.29,39.3c-6,3.33-13.44-.49-12.78-5.8C231.16,223.48,250.71,169.51,250.71,169.51Z" transform="translate(-73.37 -93.03)"/><path class="cls-6" d="M233.16,161.9s-14.48-6.59-20.76-4.4-12.6,11-12.62,29.58c0,15.91,1.89,35.74,4.09,39.49,2,3.37,8.56,6,11.71,3S239.36,169.21,233.16,161.9Z" transform="translate(-73.37 -93.03)"/><path class="cls-7" d="M240.25,163s-14.88-6-23.45,5.14-10.1,50.22-7.24,57.62,17.36,15.64,27.22,7c8-7,21.41-41.54,21.94-50C259.47,170.59,254.53,166.69,240.25,163Z" transform="translate(-73.37 -93.03)"/><path class="cls-8" d="M233.33,161.58s6-1.72,7.64-3.8,3.6-4.27,4.84-8.39-3.41-6.14-3.41-6.14l5.11-4.93s6.07,6.92,4.55,11.08a47.51,47.51,0,0,1-3.68,7.71c-1.94,3.3,1.14,7.7,1.8,9.3C250.17,166.4,239.88,165.8,233.33,161.58Z" transform="translate(-73.37 -93.03)"/><polygon class="cls-9" points="29.68 49.52 18.18 11.77 9.38 13.91 18.79 52.63 9.68 34.34 0 36.7 21.74 72.42 34.76 69.75 29.49 48.08 29.68 49.52"/><polygon class="cls-10" points="54.8 20.58 44.24 23.14 41.2 52.78 32.09 0 23.29 2.14 29.49 48.08 34.76 69.75 46.59 67.31 54.8 20.58"/><path class="cls-11" d="M82.3,185.66c1.81,18,30.95,83.09,58.35,124,1.25,1.87,2.48,3,3.9,2.92l-37-152.34C104.54,160.71,80.24,165.15,82.3,185.66Z" transform="translate(-73.37 -93.03)"/><path class="cls-12" d="M147.25,308.05c5.55-48.92,1.54-120.14-5.1-136.94-8.07-20.41-34.34-10.91-34.34-10.91l-.3,0,37,152.34a2.6,2.6,0,0,0,.31,0C146.35,312.09,147,310.45,147.25,308.05Z" transform="translate(-73.37 -93.03)"/><path class="cls-13" d="M103.85,182.91l-14.52,3.53a.91.91,0,0,1-.43-1.76l14.52-3.53a.91.91,0,1,1,.43,1.76Z" transform="translate(-73.37 -93.03)"/><path class="cls-13" d="M100.07,207.59l-9.68,2.35a.91.91,0,0,1-.43-1.76l9.68-2.35a.91.91,0,0,1,.43,1.76Z" transform="translate(-73.37 -93.03)"/><path class="cls-13" d="M132.46,277.55l-9.68,2.35a.91.91,0,1,1-.43-1.76l9.68-2.35a.91.91,0,0,1,.43,1.76Z" transform="translate(-73.37 -93.03)"/><path class="cls-13" d="M148.53,288.09l-9.68,2.35a.91.91,0,0,1-.43-1.76l9.68-2.35a.91.91,0,1,1,.43,1.76Z" transform="translate(-73.37 -93.03)"/><path class="cls-13" d="M135.82,182.12l-14.52,3.53a.91.91,0,0,1-.43-1.76l14.52-3.53a.91.91,0,0,1,.43,1.76Z" transform="translate(-73.37 -93.03)"/><path class="cls-13" d="M126.4,211.75l-14.52,3.53a.9.9,0,0,1-.43-1.76L126,210a.91.91,0,1,1,.43,1.76Z" transform="translate(-73.37 -93.03)"/><path class="cls-13" d="M142,224.74l-14.52,3.53a.91.91,0,1,1-.43-1.76L141.56,223a.91.91,0,0,1,.43,1.76Z" transform="translate(-73.37 -93.03)"/><path class="cls-13" d="M129.2,243.7l-14.52,3.53a.91.91,0,1,1-.43-1.76l14.52-3.53a.91.91,0,0,1,.43,1.76Z" transform="translate(-73.37 -93.03)"/><path class="cls-13" d="M150,250l-8.8,2.14a.91.91,0,0,1-.43-1.76l8.8-2.14A.91.91,0,0,1,150,250Z" transform="translate(-73.37 -93.03)"/><path class="cls-9" d="M312.06,185.9a22.29,22.29,0,0,0-11.23-.7c-3.21-2.11-7.86-3.32-14.35-4.3a26.9,26.9,0,0,0-8.3-.73c-3.61-1.1-14.95-4.23-20-1.87-6,2.82-11.39,12.27-9.5,30.73,1.62,15.83,5.57,35.35,8.16,38.85a10,10,0,0,0,9.66,3.22c5,3.77,12.85,6,19.33,2.82a9.48,9.48,0,0,0,11-.05c8.2-5.76,13.08-25.88,20.1-41.6S316.81,187.35,312.06,185.9Z" transform="translate(-73.37 -93.03)"/><path class="cls-14" d="M272.82,185.78a9,9,0,0,1,8.59-6.05c3.3,0,4.57-.19,5.32-2.87s1.4-8.18,4.44-9.82,11.23-1.46,11.23-1.46l-.59,4.54s-5.51,0-8.59,1.95c-1.68,1-2.37,6.46-1,7.72a30.64,30.64,0,0,0,7,4.46c2.15.85,6.56,7.54,3.84,8.18s-13-4.39-14.54-4.45S272.82,185.78,272.82,185.78Z" transform="translate(-73.37 -93.03)"/><path class="cls-15" d="M302.07,193.49s9.88-.62,9.64,5.64-13,44.61-16.93,47.67c-7.52,5.86-14,1.75-14,1.75l1.58-44.73Z" transform="translate(-73.37 -93.03)"/><path class="cls-15" d="M269.77,185.15s-8.31-.55-10.87,2.57-1.6,20,0,28,1.67,13.36,3.56,22.9c.94,4.75,12,8.78,12,8.78l4.92-4.86,3-38.69Z" transform="translate(-73.37 -93.03)"/><path class="cls-16" d="M279.93,204.23s-2.43,36.59-6.19,43c0,0,4.27,4.13,8.1,1.91s2.6-22,2.9-24,.52-20.37.52-20.37Z" transform="translate(-73.37 -93.03)"/><path class="cls-17" d="M294.78,246.8c3.93-3.07,16.69-41.42,16.93-47.67.2-5.17-6.51-5.65-8.84-5.65.82,1.18,2.68,3.06,2.85,5.22.58,7.78-2.39,14-3.66,18.21-2,6.58-8.07,21.21-8.88,23.13-1.71,4.05-5.83,7.4-11.18,9.1C284.21,250,289.21,251.14,294.78,246.8Z" transform="translate(-73.37 -93.03)"/><path class="cls-18" d="M269.77,185.15s.52-1.14,4.4-.21,4.08-.44,8.44-1.53,6.34-1.5,9.61,2.32,10.4,1.73,11.79,5.87c.56,1.67-5.93,13.35-12.66,13.92s-15.53-.75-18.76-6S267.81,188.35,269.77,185.15Z" transform="translate(-73.37 -93.03)"/><path class="cls-17" d="M277,203.48l2.73,1.22s-2.58,39-6,42.55l-4.12-2S277.72,209.87,277,203.48Z" transform="translate(-73.37 -93.03)"/><path class="cls-18" d="M269.39,193.95a3.61,3.61,0,0,0-2.1,1.55c-.35.64.64,2,1.62,1.64S271.44,194.25,269.39,193.95Z" transform="translate(-73.37 -93.03)"/><path class="cls-18" d="M271.95,197.49a3.62,3.62,0,0,0-2.3,1.24c-.43.59.36,2,1.37,1.85S273.93,198.08,271.95,197.49Z" transform="translate(-73.37 -93.03)"/><path class="cls-18" d="M274.07,200.67a3.62,3.62,0,0,0-1.79,1.89c-.23.69,1,1.82,1.88,1.33S276.14,200.62,274.07,200.67Z" transform="translate(-73.37 -93.03)"/><path class="cls-18" d="M278.12,203.22a3.61,3.61,0,0,0-1.37,2.22c-.08.73,1.32,1.58,2.11.92S280.14,202.75,278.12,203.22Z" transform="translate(-73.37 -93.03)"/><path class="cls-18" d="M288.31,205a3.61,3.61,0,0,0-.29,2.59,1.4,1.4,0,0,0,2.31-.07C290.76,206.57,289.93,203.69,288.31,205Z" transform="translate(-73.37 -93.03)"/><path class="cls-18" d="M283.28,204.75a3.61,3.61,0,0,0-.29,2.59,1.39,1.39,0,0,0,2.31-.07C285.73,206.34,284.9,203.46,283.28,204.75Z" transform="translate(-73.37 -93.03)"/><path class="cls-18" d="M293.63,204.2a3.61,3.61,0,0,0,.19,2.6,1.4,1.4,0,0,0,2.25-.49C296.32,205.31,295,202.63,293.63,204.2Z" transform="translate(-73.37 -93.03)"/><path class="cls-18" d="M297,202.61a3.62,3.62,0,0,0,1.82,1.87c.68.25,1.86-.9,1.41-1.83S297,200.53,297,202.61Z" transform="translate(-73.37 -93.03)"/><path class="cls-18" d="M299.66,199.67a3.61,3.61,0,0,0,1.58,2.07c.65.34,2-.67,1.61-1.65S299.93,197.62,299.66,199.67Z" transform="translate(-73.37 -93.03)"/><path class="cls-19" d="M262.24,193.46c-.45-3.78-.11-6.21.55-7.76a7.18,7.18,0,0,0-3.88,2c-2.56,3.11-1.6,20,0,28s1.67,13.36,3.56,22.9c.62,3.15,3.82,5.11,7.16,6.66-1-2.59-1.39-2.57-2.35-8.39C266.36,231.35,263.62,205.2,262.24,193.46Z" transform="translate(-73.37 -93.03)"/><path class="cls-20" d="M145,184s7.71,12.66,8.3,18.12-4,23.15-5,25.68c0,0,9.44,8.2,20.48,4.51,0,0,2-16.66,3.9-20.85s18.23-17.76,18.23-17.76l-9.6-1.24-10.85,7.9,2.52-10.87L163.27,187l-2.58,11.9-4.74-13.25Z" transform="translate(-73.37 -93.03)"/><path class="cls-21" d="M163.27,187l-2.58,11.9-4.74-13.25L145,184s7.71,12.66,8.3,18.12-4,23.15-5,25.68a25.8,25.8,0,0,0,9.31,4.75l10.27-44.33Z" transform="translate(-73.37 -93.03)"/><circle class="cls-22" cx="197.25" cy="177.67" r="13.53" transform="translate(-93.71 236.71) rotate(-76.96)"/><circle class="cls-23" cx="180.74" cy="184.54" r="13.53" transform="translate(-113.2 225.94) rotate(-76.96)"/><circle class="cls-24" cx="179.51" cy="177.61" r="13.53" transform="translate(-107.4 219.36) rotate(-76.96)"/><circle class="cls-14" cx="194.12" cy="168.96" r="13.53" transform="translate(-87.65 226.92) rotate(-76.96)"/><circle class="cls-25" cx="186.68" cy="161.63" r="13.53" transform="translate(-86.26 213.99) rotate(-76.96)"/><path class="cls-14" d="M170.56,176l-3.94,17a13.5,13.5,0,0,0,6.48-18.39A13.51,13.51,0,0,1,170.56,176Z" transform="translate(-73.37 -93.03)"/><path class="cls-26" d="M178.94,164.68a13.44,13.44,0,0,1-6,1.23l-1.44,6.23-.89,3.86a13.6,13.6,0,0,0,8.1-9.47A13.7,13.7,0,0,0,178.94,164.68Z" transform="translate(-73.37 -93.03)"/><path class="cls-27" d="M186.49,155.45a13.53,13.53,0,0,0-7.6-15.38l-3.33,14.39a13.5,13.5,0,0,1,3.39,10.21A13.49,13.49,0,0,0,186.49,155.45Z" transform="translate(-73.37 -93.03)"/><path class="cls-27" d="M175.55,154.47l-2.65,11.45a13.44,13.44,0,0,0,6-1.23A13.5,13.5,0,0,0,175.55,154.47Z" transform="translate(-73.37 -93.03)"/><path class="cls-28" d="M156.19,153.66a13.57,13.57,0,0,1,3.67-2.46,13.19,13.19,0,0,1,3.86-8.31,13.48,13.48,0,0,0-17.49,2.27l.35.06A13.51,13.51,0,0,1,156.19,153.66Z" transform="translate(-73.37 -93.03)"/><path class="cls-29" d="M146.57,145.22l-.35-.06A13.51,13.51,0,0,0,135.11,169,13.53,13.53,0,0,1,151,159.9q.67.16,1.31.37a13.46,13.46,0,0,1,3.84-6.62A13.51,13.51,0,0,0,146.57,145.22Z" transform="translate(-73.37 -93.03)"/><path class="cls-30" d="M153.41,169.57a13.43,13.43,0,0,1-.59-1.35c-.13-.35-.25-.72-.36-1.08a13.45,13.45,0,0,1-.15-6.71l0-.15q-.64-.22-1.31-.37A13.53,13.53,0,0,0,135.11,169c-.11.35-.22.7-.3,1.06a13.52,13.52,0,0,0,14,16.55,13.48,13.48,0,0,1,4.57-17Z" transform="translate(-73.37 -93.03)"/><path class="cls-29" d="M162.43,176.66c-.45-.1-.88-.23-1.31-.37a13.51,13.51,0,0,1-7.71-6.72A13.51,13.51,0,0,0,166.62,193l3.94-17A13.44,13.44,0,0,1,162.43,176.66Z" transform="translate(-73.37 -93.03)"/><path class="cls-31" d="M170.26,165.57a13.55,13.55,0,0,1-10.41-14.38,13.43,13.43,0,0,0-7.51,9.08l0,.15a13.45,13.45,0,0,0,.15,6.71c.1.37.22.73.36,1.08a13.51,13.51,0,0,0,8.31,8.07c.42.14.86.27,1.31.37a13.44,13.44,0,0,0,8.13-.65l.89-3.86,1.44-6.23A13.48,13.48,0,0,1,170.26,165.57Z" transform="translate(-73.37 -93.03)"/><path class="cls-32" d="M176.37,139.22a13.53,13.53,0,1,0-3.46,26.7l2.65-11.45,3.33-14.39A13.59,13.59,0,0,0,176.37,139.22Z" transform="translate(-73.37 -93.03)"/><path class="cls-33" d="M300.65,245.46c0,19.82-12,25.8-26.76,25.8s-26.06-7.48-26.76-25.8c-.67-17.56,12-25.8,26.76-25.8S300.65,229.36,300.65,245.46Z" transform="translate(-73.37 -93.03)"/><path class="cls-34" d="M273.89,272.3c-17.27,0-27.14-9.52-27.8-26.8-.29-7.68,1.94-14.21,6.45-18.9,5-5.15,12.54-8,21.35-8,16.37,0,27.8,11,27.8,26.84C301.69,263.27,292.34,272.3,273.89,272.3Zm0-51.6c-8.24,0-15.28,2.61-19.84,7.35-4.17,4.33-6.15,10.18-5.87,17.37.61,16,9.74,24.8,25.72,24.8,17.3,0,25.71-8.1,25.71-24.76C299.61,230.88,289,220.7,273.89,220.7Z" transform="translate(-73.37 -93.03)"/><path class="cls-33" d="M298.91,245.64c0,18.18-11.47,23.48-25,23.48s-24.9-6.86-25.54-23.67c-.61-16.11,12-23.66,25.54-23.66S298.91,230.88,298.91,245.64Z" transform="translate(-73.37 -93.03)"/><path class="cls-35" d="M273.89,270.16c-16.06,0-26-9.22-26.58-24.67-.26-6.79,1.8-12.67,6-17,4.75-4.93,12.27-7.76,20.63-7.76,15.1,0,26.06,10.47,26.06,24.89C300,261.68,290.94,270.16,273.89,270.16Zm0-47.33c-7.79,0-14.76,2.6-19.12,7.13-3.8,4-5.61,9.15-5.37,15.45.55,14.4,9.47,22.66,24.5,22.66,15.91,0,24-7.55,24-22.43S285.81,222.84,273.89,222.84Z" transform="translate(-73.37 -93.03)"/><path class="cls-33" d="M293.92,245.61c0,14.59-9.2,18.84-20.08,18.84s-20-5.5-20.5-19c-.49-12.92,9.62-19,20.5-19S293.92,233.76,293.92,245.61Z" transform="translate(-73.37 -93.03)"/><path class="cls-34" d="M273.84,265c-12.7,0-20.55-7.29-21-19.49a17.8,17.8,0,0,1,4.69-13.39c3.75-3.9,9.7-6.14,16.33-6.14,11.94,0,20.6,8.27,20.6,19.66C294.44,258.45,287.51,265,273.84,265Zm0-38c-6.34,0-12,2.12-15.57,5.81-3.12,3.24-4.6,7.49-4.4,12.63.45,11.75,7.73,18.49,20,18.49,13,0,19.56-6.17,19.56-18.32C293.4,234.82,285.17,227,273.84,227Z" transform="translate(-73.37 -93.03)"/><path class="cls-33" d="M288.52,245.57c0,10.71-6.76,13.83-14.74,13.83s-14.67-4-15-13.94c-.36-9.49,7.06-13.94,15-13.94S288.52,236.87,288.52,245.57Z" transform="translate(-73.37 -93.03)"/><path class="cls-34" d="M273.78,259.92c-9.4,0-15.22-5.4-15.57-14.44a13.21,13.21,0,0,1,3.48-9.93c2.78-2.89,7.19-4.55,12.08-4.55,8.85,0,15.26,6.13,15.26,14.57C289,255.09,283.91,259.92,273.78,259.92Zm0-27.88c-4.62,0-8.75,1.54-11.33,4.23a12,12,0,0,0-3.19,9.17c.32,8.54,5.62,13.44,14.52,13.44,9.44,0,14.22-4.48,14.22-13.31S280.85,232,273.78,232Z" transform="translate(-73.37 -93.03)"/><path class="cls-33" d="M282.53,245.52c0,6.4-4,8.27-8.81,8.27s-8.77-2.42-9-8.33c-.21-5.67,4.22-8.33,9-8.33S282.53,240.32,282.53,245.52Z" transform="translate(-73.37 -93.03)"/><path class="cls-34" d="M273.71,254.31c-5.75,0-9.3-3.3-9.51-8.84a8.1,8.1,0,0,1,2.14-6.09,10.2,10.2,0,0,1,7.37-2.78c5.41,0,9.33,3.75,9.33,8.92C283,251.27,279.82,254.31,273.71,254.31Zm0-16.66a9.16,9.16,0,0,0-6.62,2.46,7,7,0,0,0-1.85,5.33c.19,5,3.28,7.83,8.47,7.83,5.58,0,8.29-2.53,8.29-7.75S277.83,237.65,273.71,237.65Z" transform="translate(-73.37 -93.03)"/><path class="cls-36" d="M277.73,245.49c0,3-1.86,3.81-4.07,3.81s-4-1.11-4.15-3.84,1.95-3.84,4.15-3.84A3.84,3.84,0,0,1,277.73,245.49Z" transform="translate(-73.37 -93.03)"/><path class="cls-37" d="M226,218.74s-2.86-9.65,1.4-13.46,8.42-7.4,7.09-8.5-2.28-1.26-2.89-2.82,3.26-6.83,3-8.88-3.57.49-4.45-2.21,3.14-6.23,1-8.84c-3.7-4.6-18.57-8.55-17.67,7.59a89.26,89.26,0,0,0,7,29.55c.42,1.09,4.17,9.36,4.17,9.36Z" transform="translate(-73.37 -93.03)"/><path class="cls-38" d="M221.31,220.4s-5.26-8-9.51-8.31-8.55,1.53-8.65-.58,2-2.59.25-3.5-9.73-1.05-9.75-3.38,5.22-3.64,1.57-5.63-10.06-5.59-7.07-10.34,10.24-10.08,12.69-9.78,13.85,15.77,15.35,18.24,7.41,23.66,7.41,23.66Z" transform="translate(-73.37 -93.03)"/><path class="cls-39" d="M224.64,220.23c-.06-2-2.1-8.75-1.55-10.92,1.29-5,3.85-8,5.83-12.67,1-2.47.66-4.74.32-5.11-2-2.11-4.85,1.77-4.86-3,0-3.49,5.44-9.23-1.84-7.64-3.26.71-.66-1.24-2.19-5.16-1.12-2.88-3.54.57-5.88-1.3-2.63-2.1-1.21-12.08-12.12-6.94-3.51,1.65-4.73,4.4-5.53,7-1.66,5.42,4.44,9.35,3.19,11.79-.67,1.58-4.82,1.09-4.87,3s3.47,3.42,4.71,4.22,4.22,2.05,3.83,4.19c-.26,1.45-3.49,1.62-3.19,4,.38,3.09,8.92,4.89,11.37,6.28,2.62,1.49,11,9.92,10.95,13.06Z" transform="translate(-73.37 -93.03)"/><path class="cls-40" d="M196.82,174.52c-1.66,5.42,4.44,9.35,3.19,11.79-.67,1.58-4.82,1.09-4.87,3s3.47,3.42,4.71,4.22,4.22,2.05,3.83,4.19c-.26,1.45-3.49,1.62-3.19,4,.38,3.09,8.92,4.89,11.37,6.28,2.62,1.49,11,9.92,10.95,13.06l.26-.12-20.77-53.37C198.83,169.21,197.61,171.94,196.82,174.52Z" transform="translate(-73.37 -93.03)"/><path class="cls-41" d="M242.23,268.93c-1.38-8.79.35-15.08,5.05-22.65s5.12-16.34-2.08-25S223,219.4,223,219.4Z" transform="translate(-73.37 -93.03)"/><path class="cls-42" d="M242.23,268.93c-4.92-7.41-10.45-10.88-19-13.27s-14.82-8.58-15.37-19.84S223,219.4,223,219.4Z" transform="translate(-73.37 -93.03)"/><path class="cls-9" d="M124.75,219.17c-4.15-3.11-7.6-2.59-7.6-2.59-1.38-4.84-3.46-8.81-15.55-7.43s-10.37,9.68-10.37,9.68c-17.28-1-12.44,15.73-10.37,18.84s7.95,3.63,7.95,3.63c-.86,4.15.17,10,7.95,11.58,6.82,1.36,14.86.17,19-2.59s3.63-6.57,3.63-6.57c3.46.52,8.29-2.25,9.68-7.26C130.92,229.75,128.89,222.28,124.75,219.17ZM122.24,238c-2.68,2.07-8.73-1.12-8.55.09s1.94,6.12-1.73,8.81c-2.59,1.9-12.1,2.35-14.69,1-6-3.28-2.42-8.47-2.77-9.16-.57-1.14-6.48-1.9-8.21-3.63-2.41-2.41-2.1-6.87-.6-9,2.51-3.54,9-2.07,9.85-2.77s-.86-6.22,1.56-7.95,10.37-3.63,13.48-1,2,8,3,8.47c.69.35,4-1,6-.26,3.46,1.38,4.49,3,5.18,6.14S123.8,236.8,122.24,238Z" transform="translate(-73.37 -93.03)"/><path class="cls-43" d="M145.94,219.95c-4.15-3.11-7.6-2.59-7.6-2.59-1.38-4.84-3.46-8.81-15.55-7.43s-10.37,9.68-10.37,9.68c-17.28-1-12.44,15.73-10.37,18.84s7.95,3.63,7.95,3.63c-.86,4.15.17,10,7.95,11.58,6.82,1.36,14.86.17,19-2.59s3.63-6.57,3.63-6.57c3.46.52,8.29-2.25,9.68-7.26C152.11,230.52,150.09,223.06,145.94,219.95Zm-2.51,18.84c-2.68,2.07-8.73-1.12-8.55.09s1.94,6.12-1.73,8.81c-2.59,1.9-12.1,2.35-14.69,1-6-3.28-2.42-8.47-2.77-9.16-.57-1.14-6.48-1.9-8.21-3.63-2.41-2.41-2.1-6.87-.6-9,2.51-3.54,9-2.07,9.85-2.76s-.86-6.22,1.56-7.95,10.37-3.63,13.48-1,2,8,3,8.47c.69.35,4-1,6-.26,3.46,1.38,4.49,3,5.18,6.14S145,237.58,143.44,238.78Z" transform="translate(-73.37 -93.03)"/><path class="cls-44" d="M332.79,253.5s4-45.2-13.3-61.95c-11.17-10.82-14.68-9.48-14.68-9.48s-.31-.49,1.16,2.35S314.76,196,315,208.17c.14,6.26-6.25,22.93-4.14,30.51S321.83,251.95,332.79,253.5Z" transform="translate(-73.37 -93.03)"/><path class="cls-45" d="M324.37,251.66s15.18-42.76,37.87-50.8c14.66-5.19,17.3-2.51,17.3-2.51s.49-.31-2,1.65-12.8,6.84-18.13,17.83c-2.73,5.63-3.85,23.45-8.93,29.46S335,254.82,324.37,251.66Z" transform="translate(-73.37 -93.03)"/><path class="cls-46" d="M322.91,277.73c5.5.36,14.28,3.67,24.3-19.27s12-79.72,11.27-86.33c-.92-8.58-10.31-10.34-10.31-10.34Z" transform="translate(-73.37 -93.03)"/><path class="cls-7" d="M322.91,277.73c-5.16-2-14.51-2.6-14.08-27.64s22.27-77.48,25.66-83.19c4.41-7.41,13.68-5.12,13.68-5.12Z" transform="translate(-73.37 -93.03)"/><path class="cls-45" d="M324.56,277.67s15.18-42.76,37.87-50.79c14.66-5.19,17.3-2.51,17.3-2.51s.49-.31-2,1.65-12.8,6.84-18.12,17.83c-2.73,5.63-3.85,23.45-8.93,29.46S335.18,280.82,324.56,277.67Z" transform="translate(-73.37 -93.03)"/><path class="cls-47" d="M339.73,181.31l-5.59-1.22a1.64,1.64,0,0,1,.7-3.2l5.6,1.22a1.64,1.64,0,1,1-.7,3.2Z" transform="translate(-73.37 -93.03)"/><path class="cls-47" d="M333.66,209.19l-5.6-1.22a1.64,1.64,0,1,1,.7-3.2l5.59,1.22a1.64,1.64,0,0,1-.7,3.2Z" transform="translate(-73.37 -93.03)"/><path class="cls-47" d="M327.58,237.08,322,235.86a1.64,1.64,0,0,1,.7-3.2l5.59,1.22a1.64,1.64,0,1,1-.7,3.2Z" transform="translate(-73.37 -93.03)"/><path class="cls-47" d="M334.17,194.33l-5.6-1.22a1.64,1.64,0,1,1,.7-3.2l5.59,1.22a1.64,1.64,0,0,1-.7,3.2Z" transform="translate(-73.37 -93.03)"/><path class="cls-47" d="M328.09,222.22,322.5,221a1.64,1.64,0,0,1,.7-3.2l5.6,1.22a1.64,1.64,0,0,1-.7,3.2Z" transform="translate(-73.37 -93.03)"/><path class="cls-48" d="M324.59,277.68s4-45.2-13.3-61.95c-11.17-10.82-14.68-9.48-14.68-9.48s-.31-.49,1.16,2.35,8.79,11.55,9.06,23.75c.14,6.26-6.25,22.93-4.13,30.51S313.63,276.13,324.59,277.68Z" transform="translate(-73.37 -93.03)"/><path class="cls-49" d="M350.69,207.88l-5.6-1.22a1.64,1.64,0,0,1,.7-3.2l5.6,1.22a1.64,1.64,0,0,1-.7,3.2Z" transform="translate(-73.37 -93.03)"/><path class="cls-49" d="M344.62,235.77l-5.6-1.22a1.64,1.64,0,0,1,.7-3.2l5.6,1.22a1.64,1.64,0,0,1-.7,3.2Z" transform="translate(-73.37 -93.03)"/><path class="cls-49" d="M351.94,192.55l-5.6-1.22a1.64,1.64,0,0,1,.7-3.2l5.6,1.22a1.64,1.64,0,1,1-.7,3.2Z" transform="translate(-73.37 -93.03)"/><path class="cls-49" d="M346.33,221.17l-5.6-1.22a1.64,1.64,0,0,1,.7-3.2L347,218a1.64,1.64,0,0,1-.7,3.2Z" transform="translate(-73.37 -93.03)"/><path class="cls-43" d="M185.66,204.81s-22.38-12.33-35.44-3.88c-8.75,5.67-29.32,30.4-6.7,54.42,22.88,24.29,46.52,14.26,53,10.35C204.34,261,233.59,226.45,185.66,204.81Z" transform="translate(-73.37 -93.03)"/><path class="cls-50" d="M185.66,204.81s-22.38-12.33-35.44-3.88c-8.75,5.67-29.32,30.4-6.7,54.42a53.82,53.82,0,0,0,14.63,11.28l28.93-61.15Z" transform="translate(-73.37 -93.03)"/><path class="cls-51" d="M170,204.73s-8.76-1.36-11.05,3.48c0,0,15.26,2.34,19,5.5,0,0,.18,8.21,1,8.85s6.26-3.66,9.36-3.58c0,0,7.4,5.47,10.58,9.53,1,1.25,1.26-8.81,1.26-8.81s9.67,6.32,10.22,5.65-8-14-15.51-15.81a11.44,11.44,0,0,0-6-5.64,25.49,25.49,0,0,0-8.35-1.74s-11-4.83-11.63-3.88S170.95,202,170,204.73Z" transform="translate(-73.37 -93.03)"/><path class="cls-52" d="M180.43,202.11s-10.95-4.83-11.63-3.88,2.05,3.76,1.13,6.46c0,0-8.76-1.36-11.05,3.48,0,0,15.26,2.34,19,5.5,0,0,.14,6.55.79,8.4l8.83-18.67A25.34,25.34,0,0,0,180.43,202.11Z" transform="translate(-73.37 -93.03)"/><path class="cls-53" d="M182.69,211.08c-.15,1.62,3.56,4.13,5.65,2.67s3.53-9.3,9.88-15.36c0,0,.07-6.41-4.22-2.87C191.57,197.53,183,207.74,182.69,211.08Z" transform="translate(-73.37 -93.03)"/><path class="cls-9" d="M225.13,348.89h59.69c88.94-39.79,77.3-105.68,77.3-105.68h-137Z" transform="translate(-73.37 -93.03)"/><path class="cls-54" d="M225.13,348.89H165.44C76.5,309.1,88.13,243.21,88.13,243.21h137Z" transform="translate(-73.37 -93.03)"/><rect class="cls-9" x="93.66" y="255.72" width="58.41" height="11.75"/><rect class="cls-55" x="151.73" y="255.72" width="59.1" height="11.75"/><path class="cls-48" d="M225.13,271.33v23H350a93,93,0,0,0,9.72-23Z" transform="translate(-73.37 -93.03)"/><path class="cls-56" d="M225.13,271.33H90.55a93,93,0,0,0,9.72,23H225.13Z" transform="translate(-73.37 -93.03)"/></svg>