<?xml version="1.0" encoding="UTF-8"?>
<!DOCTYPE svg PUBLIC "-//W3C//DTD SVG 1.1//EN" "http://www.w3.org/Graphics/SVG/1.1/DTD/svg11.dtd">
<!-- Creator: CorelDRAW X6 -->
<svg xmlns="http://www.w3.org/2000/svg" xml:space="preserve" width="5.09722in" height="1.65278in" version="1.1" style="shape-rendering:geometricPrecision; text-rendering:geometricPrecision; image-rendering:optimizeQuality; fill-rule:evenodd; clip-rule:evenodd"
viewBox="0 0 5097 1653"
 xmlns:xlink="http://www.w3.org/1999/xlink">
 <defs>
  <style type="text/css">
   <![CDATA[
    .fil1 {fill:#45C0EF;fill-rule:nonzero}
    .fil0 {fill:#96989B;fill-rule:nonzero}
   ]]>
  </style>
 </defs>
 <g id="Layer_x0020_1">
  <metadata id="CorelCorpID_0Corel-Layer"/>
  <polygon class="fil0" points="1913,753 1895,753 1895,931 1465,931 1465,949 1913,949 "/>
  <polygon class="fil0" points="1651,735 1669,735 1669,32 1651,32 "/>
  <path class="fil0" d="M2080 880c65,57 143,86 231,86 66,0 128,-16 183,-48 55,-32 100,-76 132,-132 32,-56 48,-117 48,-181 0,-64 -16,-124 -48,-180 -11,-19 -24,-37 -38,-54 -9,-10 -18,-19 -28,-29 3,4 7,7 10,11 14,17 27,35 38,54 32,55 48,116 48,180 0,64 -16,125 -48,181 -32,56 -76,101 -132,132 -55,32 -117,48 -183,48 -88,0 -166,-29 -231,-86 -4,-3 -7,-7 -11,-10 3,3 5,6 8,9 7,7 14,13 21,19z"/>
  <path class="fil0" d="M2193 724c-26,-31 -39,-70 -39,-119 0,-51 15,-91 46,-123 31,-32 68,-47 114,-47 41,0 75,12 103,35 -2,-2 -4,-4 -6,-6 -30,-32 -68,-47 -115,-47 -46,0 -83,16 -114,47 -31,32 -46,73 -46,123 0,52 15,93 45,125 4,4 8,8 12,11z"/>
  <polygon class="fil0" points="3745,931 3564,931 3564,949 3763,949 3763,261 3745,261 "/>
  <path class="fil0" d="M3750 29c-3,-4 -7,-7 -11,-10 4,5 7,9 11,15 12,20 18,41 18,65 0,34 -12,63 -36,87 -24,24 -53,36 -86,36 -23,0 -44,-6 -63,-18 -5,-3 -10,-7 -15,-11 3,3 5,6 8,9 7,7 15,13 24,19 19,12 40,18 63,18 33,0 62,-12 86,-36 24,-24 36,-53 36,-87 0,-24 -6,-46 -18,-65 -6,-9 -11,-16 -18,-23z"/>
  <path class="fil0" d="M4522 370c-9,-11 -19,-20 -29,-30 4,4 8,8 11,12 9,10 17,20 24,31l11 16 -165 91c3,3 6,5 8,8l10 10 166 -91 -11 -16c-7,-10 -15,-20 -24,-31z"/>
  <path class="fil0" d="M4520 804c-1,2 -3,4 -4,5l-2 2c-73,90 -175,136 -304,136 -105,0 -191,-28 -256,-83 -4,-3 -7,-6 -11,-10 1,1 2,2 3,3 8,8 17,17 26,24 65,55 152,83 256,83 129,0 231,-46 304,-136l2 -2c1,-2 3,-4 4,-5l12 -15 -21 -14 -9 11z"/>
  <path class="fil0" d="M4082 720c-26,-30 -38,-66 -38,-111 0,-52 17,-94 51,-127 35,-33 79,-50 136,-50 31,0 58,5 81,14 19,8 39,22 59,41l-7 -8c-24,-25 -47,-42 -70,-52 -23,-9 -50,-14 -81,-14 -57,0 -101,16 -136,50 -34,33 -51,75 -51,127 0,51 16,91 49,123 2,2 4,4 7,6z"/>
  <path class="fil0" d="M4824 455c0,-2 -1,-3 -1,-4 0,-4 1,-9 8,-15 7,-5 18,-8 32,-8 28,0 62,19 99,56l13 13 125 -125 -9 -12c-2,-3 -5,-6 -8,-9l-3 -4c-9,-10 -18,-20 -28,-29 3,4 7,7 10,11l3 4c3,3 5,6 8,9l9 12 -125 125 -13 -13c-37,-37 -71,-56 -99,-56 -14,0 -25,3 -32,8 -7,6 -8,11 -8,15 0,3 1,7 5,12 1,1 4,4 13,10z"/>
  <path class="fil0" d="M5069 620c-1,-1 -1,-2 -3,-3 -7,-10 -17,-19 -27,-29 3,4 6,7 9,11 1,2 2,2 3,3 26,35 39,77 39,124 0,63 -23,116 -70,158 -46,42 -107,63 -183,63 -74,0 -139,-22 -191,-65 -5,-4 -9,-9 -14,-13 10,11 21,22 32,31 53,43 117,65 191,65 76,0 137,-21 183,-63 46,-42 70,-95 70,-158 0,-47 -13,-89 -39,-124z"/>
  <path class="fil0" d="M4717 611c23,19 52,38 84,54l55 28c16,8 28,16 37,23 -7,-10 -22,-24 -55,-41l-55 -28c-33,-16 -61,-35 -84,-54 -4,-3 -7,-7 -11,-10 9,10 18,19 29,28z"/>
  <path class="fil0" d="M4727 701c5,6 11,11 17,16 -1,-1 -2,-2 -2,-2l-13 -15 -1 1z"/>
  <polygon class="fil0" points="0,1226 0,1244 1010,1244 1001,1226 "/>
  <path class="fil0" d="M2980 709c-26,-30 -38,-67 -38,-112 0,-48 15,-86 45,-118 30,-31 68,-46 115,-46 42,0 76,12 104,35 -2,-3 -5,-5 -7,-8 -30,-31 -68,-45 -115,-45 -47,0 -84,15 -115,46 -30,31 -45,70 -45,118 0,50 15,89 46,121 3,3 6,6 10,9z"/>
  <path class="fil0" d="M2866 874c58,50 128,75 208,75 42,0 80,-7 114,-20 14,-5 31,-15 48,-25l0 -29c-20,13 -47,29 -66,37 -33,13 -72,20 -114,20 -79,0 -149,-25 -208,-75 -4,-3 -8,-7 -12,-10 1,1 2,2 3,3 8,9 17,17 27,25z"/>
  <path class="fil0" d="M3434 990c0,3 -10,251 -290,251 -9,0 -18,0 -28,-1l-1345 0 -162 335 -2 3c-8,16 -30,57 -67,57l0 0c-13,0 -24,-5 -33,-11 11,14 28,29 51,29l0 0c38,0 59,-42 67,-57l2 -3 162 -335 1345 0c10,1 19,1 28,1 280,0 290,-248 290,-251l0 -747 -18 0 0 729z"/>
  <path class="fil0" d="M1346 1312c-2,2 -5,6 -6,9l-79 183c-2,5 -22,50 -60,51 -13,0 -24,-5 -34,-12 10,13 27,30 51,30 38,-1 58,-46 60,-51l79 -183c0,-1 1,-2 2,-3l-6 -14c-2,-4 -5,-9 -7,-11z"/>
  <path class="fil0" d="M1543 1265c1,-1 2,-3 4,-5l-121 -281c-1,-3 -11,-26 -30,-39 7,10 11,19 12,21l123 284c4,10 10,19 13,20z"/>
  <path class="fil0" d="M1193 1181c1,-1 3,-3 5,-6l-60 -132 -10 0 58 127c2,5 5,10 7,12z"/>
  <polygon class="fil0" points="0,50 481,50 481,214 166,214 166,373 481,373 481,534 166,534 166,766 481,766 481,931 0,931 "/>
  <path class="fil0" d="M928 413c-51,0 -93,18 -126,54 -33,36 -50,82 -50,137 0,56 17,103 51,139 34,36 76,54 126,54 51,0 94,-18 128,-54 34,-36 51,-83 51,-140 0,-57 -17,-103 -51,-138 -34,-35 -77,-53 -128,-53zm172 -386l164 0 0 903 -164 0 0 -69c-32,30 -64,52 -96,66 -32,13 -67,20 -104,20 -84,0 -157,-33 -218,-98 -61,-65 -92,-146 -92,-243 0,-101 30,-183 89,-247 59,-64 132,-96 217,-96 39,0 76,7 110,22 34,15 66,37 95,66l0 -323z"/>
  <polygon class="fil1" points="1877,913 1877,753 1633,753 1633,32 1465,32 1465,913 "/>
  <path class="fil1" d="M2168 451c34,-35 76,-53 127,-53 52,0 95,17 128,52 5,5 10,11 14,17 24,32 36,72 36,120 0,56 -17,102 -51,137 -34,36 -77,53 -128,53 -40,0 -75,-11 -104,-33 -8,-6 -15,-12 -22,-20 -33,-35 -50,-81 -50,-138 0,-55 17,-100 51,-136zm-94 397c62,54 135,81 219,81 63,0 122,-15 174,-45 53,-30 94,-72 125,-125 31,-54 46,-111 46,-172 0,-61 -15,-118 -46,-171 -11,-18 -23,-35 -36,-51 -25,-29 -55,-54 -90,-74 -54,-31 -112,-46 -173,-46 -85,0 -160,30 -226,89 -75,68 -112,153 -112,255 0,95 33,176 99,242 7,7 13,13 20,18z"/>
  <polygon class="fil1" points="3564,913 3727,913 3727,261 3564,261 "/>
  <path class="fil1" d="M3719 24c-20,-20 -43,-30 -71,-31l-6 0c-27,1 -51,11 -70,31 -20,20 -30,45 -30,74 0,30 10,55 31,76 7,7 14,12 21,16 16,10 34,15 53,15 28,0 53,-10 73,-31 20,-21 30,-45 30,-75 0,-21 -5,-39 -16,-56 -4,-7 -9,-14 -15,-20z"/>
  <path class="fil1" d="M4214 396c34,0 63,5 88,16 25,10 50,29 76,56l136 -75c-7,-10 -15,-20 -23,-29 -29,-34 -63,-61 -104,-81 -52,-26 -110,-39 -174,-39 -70,0 -133,15 -190,46 -57,30 -101,72 -132,125 -32,53 -47,111 -47,174 0,91 32,171 97,238 8,8 16,16 25,23 62,53 144,79 245,79 124,0 220,-43 290,-129 2,-2 4,-5 6,-7l-129 -88c-41,50 -98,75 -171,75 -50,0 -92,-13 -126,-38 -6,-4 -12,-9 -17,-14 -36,-35 -55,-80 -55,-136 0,-57 19,-104 57,-140 38,-36 87,-55 148,-55z"/>
  <path class="fil1" d="M5036 613c-1,-1 -2,-2 -2,-3 -24,-31 -66,-62 -128,-92l-60 -30c-9,-4 -16,-8 -22,-12 -13,-7 -22,-14 -27,-19 -7,-7 -10,-15 -10,-24 0,-12 5,-21 16,-29 10,-8 25,-12 43,-12 34,0 71,20 112,61l101 -101c-3,-4 -7,-8 -10,-12 -24,-29 -52,-51 -84,-67 -37,-19 -77,-28 -119,-28 -62,0 -113,18 -152,55 -40,37 -60,81 -60,132 0,56 26,105 77,148 22,18 49,36 81,52l55 28c34,17 56,35 66,53 4,7 6,14 6,20 0,14 -7,26 -20,36 -13,10 -31,16 -52,16 -20,0 -43,-7 -69,-21 -26,-14 -48,-32 -67,-54l-101 110c15,19 31,36 48,50 49,41 109,61 180,61 71,0 128,-19 171,-58 43,-39 64,-87 64,-145 0,-44 -12,-81 -35,-114z"/>
  <path class="fil1" d="M3212 714c-33,34 -75,51 -125,51 -42,0 -79,-12 -109,-35 -7,-5 -14,-11 -20,-17 -34,-35 -52,-79 -52,-134 0,-52 17,-96 50,-130 34,-35 76,-52 128,-52 52,0 95,17 128,51 6,6 10,12 15,18 23,31 35,69 35,114 0,55 -17,100 -49,134zm41 -381c-34,-32 -67,-54 -100,-68 -33,-14 -69,-21 -106,-21 -80,0 -149,28 -207,85 -64,63 -96,146 -96,249 0,97 30,176 90,240 8,9 17,17 26,24 55,47 121,71 196,71 40,0 76,-6 107,-19 32,-13 90,-53 90,-53l0 122c0,0 13,98 -144,94l-290 0 0 0 -1148 0 -103 201c0,0 -10,27 -26,26 -18,-1 -28,-31 -28,-31l-123 -285c0,0 -15,-36 -40,-36 -30,0 -43,39 -43,39l-89 206c0,0 -11,23 -24,24 -16,2 -25,-23 -25,-23l-61 -134 -1108 0 0 165 1013 0 143 295c0,0 18,34 44,34 27,0 44,-40 44,-40l79 -182c0,0 8,-21 24,-21 13,0 22,22 22,22l122 260c0,0 18,42 48,42 29,0 48,-41 53,-50l167 -345 1357 0c292,16 299,-232 299,-232l0 -729 -163 0 0 72z"/>
 </g>
</svg>
