<?xml version="1.0" encoding="utf-8"?>
<!-- Generator: Adobe Illustrator 19.1.0, SVG Export Plug-In . SVG Version: 6.00 Build 0)  -->
<svg version="1.1" id="Layer_1" xmlns="http://www.w3.org/2000/svg" xmlns:xlink="http://www.w3.org/1999/xlink" x="0px" y="0px"
	 viewBox="0 0 792 612" style="enable-background:new 0 0 792 612;" xml:space="preserve">
<style type="text/css">
	.Arched_x0020_Green{fill:url(#SVGID_1_);stroke:#FFFFFF;stroke-width:0.25;stroke-miterlimit:1;}
	.st0{fill:url(#SVGID_2_);}
	.st1{fill:url(#SVGID_3_);}
	.st2{fill:#FFFFFF;}
</style>
<linearGradient id="SVGID_1_" gradientUnits="userSpaceOnUse" x1="0" y1="612" x2="0.7071" y2="611.2929">
	<stop  offset="0" style="stop-color:#20AC4B"/>
	<stop  offset="0.9831" style="stop-color:#19361A"/>
</linearGradient>
<g>
	<g>
		<linearGradient id="SVGID_2_" gradientUnits="userSpaceOnUse" x1="60.8745" y1="159.7952" x2="355.0962" y2="159.7952">
			<stop  offset="0" style="stop-color:#FBB040"/>
			<stop  offset="1" style="stop-color:#F15A29"/>
		</linearGradient>
		<polygon class="st0" points="192.7,13.5 181.2,33.5 162.6,19.9 162.6,19.9 155.5,41.9 134.6,32.4 134.6,32.4 132.1,55.4 
			109.6,50.5 109.6,50.4 112,73.4 89,73.3 89,73.3 96.2,95.2 73.6,100 73.5,100 85.1,120.1 64.2,129.1 64.1,129.1 79.6,146.3 
			60.9,159.8 60.9,159.8 79.6,173.3 64.1,190.3 64.1,190.3 85.2,199.7 73.6,219.6 73.6,219.6 96.2,224.4 89,246.3 89,246.2 
			112,246.2 109.6,269.1 109.6,269.1 132.1,264.3 134.2,287.1 134.3,287.1 155.4,277.7 162.4,299.7 162.4,299.7 181.1,286.1 
			192.5,306.1 192.5,306.1 208,288.9 223.2,306.1 223.2,306.1 234.8,286.1 253.3,299.7 253.3,299.7 260.5,277.8 281.3,287.2 
			281.4,287.2 283.9,264.3 306.3,269.3 306.3,269.3 303.8,246.3 326.9,246.4 326.9,246.4 319.8,224.4 342.3,219.8 342.3,219.8 
			330.7,199.8 351.8,190.5 351.9,190.5 336.4,173.3 355.1,160 355.1,160 336.4,146.3 351.9,129.4 351.9,129.4 330.8,119.9 
			342.4,100 342.4,100 319.8,95.3 327.1,73.5 327.1,73.5 303.9,73.4 306.4,50.6 306.4,50.6 283.9,55.4 281.6,32.5 281.6,32.5 
			260.5,41.9 253.5,20 253.5,20 234.8,33.5 223.4,13.6 223.4,13.6 208,30.7 192.7,13.5 		"/>
	</g>
	<g>
		<linearGradient id="SVGID_3_" gradientUnits="userSpaceOnUse" x1="207.9854" y1="602.6504" x2="207.9854" y2="310.1172">
			<stop  offset="0.3988" style="stop-color:#FFFFFF;stop-opacity:0"/>
			<stop  offset="0.6251" style="stop-color:#FFFCFB;stop-opacity:0.3765"/>
			<stop  offset="0.7067" style="stop-color:#FFF6F1;stop-opacity:0.5121"/>
			<stop  offset="0.7648" style="stop-color:#FEEEE4;stop-opacity:0.6088"/>
			<stop  offset="0.8118" style="stop-color:#FEE2D2;stop-opacity:0.687"/>
			<stop  offset="0.8521" style="stop-color:#FDD3BC;stop-opacity:0.754"/>
			<stop  offset="0.8878" style="stop-color:#FBC0A2;stop-opacity:0.8133"/>
			<stop  offset="0.92" style="stop-color:#F9AB85;stop-opacity:0.867"/>
			<stop  offset="0.9497" style="stop-color:#F69368;stop-opacity:0.9163"/>
			<stop  offset="0.9761" style="stop-color:#F47948;stop-opacity:0.9602"/>
			<stop  offset="1" style="stop-color:#F15A29"/>
		</linearGradient>
		<polygon class="st1" points="192.7,310.1 181.2,330.1 162.6,316.5 162.6,316.5 155.5,338.5 134.6,329 134.6,329 132.1,351.9 
			109.6,347.1 109.6,347 112,370 89,369.9 89,369.9 96.2,391.8 73.6,396.6 73.5,396.6 85.1,416.7 64.2,425.7 64.1,425.7 79.6,442.9 
			60.9,456.3 60.9,456.4 79.6,469.9 64.1,486.9 64.1,486.9 85.2,496.3 73.6,516.2 73.6,516.2 96.2,521 89,542.9 89,542.8 112,542.8 
			109.6,565.7 109.6,565.7 132.1,560.9 134.2,583.7 134.3,583.7 155.4,574.3 162.4,596.2 162.4,596.3 181.1,582.7 192.5,602.7 
			192.5,602.7 208,585.5 223.2,602.7 223.2,602.6 234.8,582.7 253.3,596.3 253.3,596.3 260.5,574.4 281.3,583.8 281.4,583.8 
			283.9,560.9 306.3,565.9 306.3,565.9 303.8,542.9 326.9,543 326.9,543 319.8,521 342.3,516.4 342.3,516.4 330.7,496.3 351.8,487 
			351.9,487.1 336.4,469.9 355.1,456.6 355.1,456.6 336.4,442.9 351.9,426 351.9,426 330.8,416.5 342.4,396.6 342.4,396.6 
			319.8,391.9 327.1,370.1 327.1,370.1 303.9,370 306.4,347.1 306.4,347.2 283.9,352 281.6,329.1 281.6,329 260.5,338.5 
			253.5,316.6 253.5,316.6 234.8,330.1 223.4,310.2 223.4,310.2 208,327.3 192.7,310.1 		"/>
	</g>
	<g>
		<path class="st2" d="M145.6,151.9h-8.3c1.5,1.9,3.2,5.2,3.2,9.4c0,11.4-9.6,16.7-20.4,16.7h-4.6c-1.6,0-3.2,1.1-3.2,2.6
			c0,1.7,1,2.3,3.4,2.6l16,1.8c8.3,0.9,13,4.5,13,12.8c0,7-5.7,18.2-25.6,18.2c-19.7,0-24.5-7-24.5-13c0-4.2,2-8.9,10.7-10.9v-0.2
			c-4.2-0.9-6.6-2.8-6.6-7.2c0-4.8,4.6-7.2,9.4-8.1v-0.2c-9.2-3-12.2-9-12.2-16c0-11.2,8.5-18.4,21.8-18.4c4,0,6.9,0.6,10.2,1.1
			h17.7V151.9z M112.2,194.4c-2.4,0.8-5.4,2.9-5.4,5.7c0,4.5,5.2,6.4,13.1,6.4c5.8,0,12.5-2.2,12.5-6.7c0-3-2-3.4-6.4-3.9
			L112.2,194.4z M118.5,168.5c8.1,0,10.9-4.5,10.9-8.7c0-5.1-4.5-8.4-10.4-8.4c-5.7,0-10.8,2.5-10.8,8.9
			C108.2,165.3,112,168.5,118.5,168.5z"/>
		<path class="st2" d="M157,152.4h-6.3V143h18.8c0,3.3-0.2,6.6-0.8,11.1h0.2c1.9-8.2,6.5-12.2,13.9-12.2c1.6,0,2.9,0.3,4.3,0.6
			l-0.8,11.6c-1.4-0.3-2.9-0.5-4.2-0.5c-7,0-12.1,4.8-12.1,12.8V182h6.1v9.5h-24.4V182h5.3V152.4z"/>
		<path class="st2" d="M203.2,170.2c0.4,7.7,6.3,12.4,15.4,12.4c6.2,0,10.2-1,15.7-3.3l-0.6,10.3c-6,2.2-11.3,3.1-17.9,3.1
			c-18.7,0-26.6-11.7-26.6-25.1c0-15.1,9.2-25.6,24.4-25.6c16.7,0,23.5,12.6,23.5,28.3H203.2z M222.9,161.3c0-6.7-3.8-10.5-9.8-10.5
			c-5.9,0-9.4,3.9-9.9,10.5H222.9z"/>
		<path class="st2" d="M271.6,160.6c0-7.3-3.1-9.3-9.2-9.3c-1.9,0-5.8,0.6-8.1,1.4v6.5h-11.1v-12.3c3.2-1.8,10.8-5,19.4-5
			c13,0,21.2,4.5,21.2,18.6c0,8-0.3,14.7-0.5,21.5h5.5v9.5h-16.3v-3c0-3.2,0.2-4.8,0.6-6.7H273c-3.2,7.3-7.7,10.8-15.9,10.8
			c-10.9,0-16.2-6.5-16.2-14.1c0-7,4.6-11.5,9.7-13.4c4.9-1.8,11.5-2.2,21-2.2V160.6z M267.8,170.9c-10.6,0-13.9,2.2-13.9,6.4
			c0,2.9,2,5.8,7.1,5.8c5.2,0,10.4-3.3,10.4-12.2H267.8z"/>
		<path class="st2" d="M296.5,133l13-0.7V143h13v9.5h-13v21.6c0,6.9,1.8,8.5,7.1,8.5c1.8,0,3.9-0.6,6.3-1.5l-0.5,9.2
			c-4.8,1.7-8.2,2.3-11.3,2.3c-9.6,0-14.7-4.5-14.7-13v-27.2h-6.6V143h6.6V133z"/>
		<path d="M371.6,152.4h-6.3V143h18.8c0,3.3-0.2,6.6-0.8,11.1h0.2c1.9-8.2,6.5-12.2,13.9-12.2c1.6,0,2.9,0.3,4.3,0.6l-0.8,11.6
			c-1.4-0.3-2.9-0.5-4.2-0.5c-7,0-12.1,4.8-12.1,12.8V182h6.1v9.5h-24.4V182h5.3V152.4z"/>
		<path d="M417.8,170.2c0.4,7.7,6.3,12.4,15.4,12.4c6.2,0,10.2-1,15.7-3.3l-0.7,10.3c-6,2.2-11.3,3.1-17.9,3.1
			c-18.7,0-26.6-11.7-26.6-25.1c0-15.1,9.2-25.6,24.4-25.6c16.7,0,23.5,12.6,23.5,28.3H417.8z M437.5,161.3c0-6.7-3.8-10.5-9.8-10.5
			c-5.9,0-9.4,3.9-9.9,10.5H437.5z"/>
		<path d="M516,143h23.2v9.5h-4.5l-16.8,39h-13.5l-6.5-16.8c-0.5-1.2-0.9-2.4-1.1-4.2h-0.2c-0.3,1.8-0.7,3-1.2,4.2l-7.3,16.8h-13.5
			l-16.3-39h-4.5V143h23.2v9.5h-4.5c0.8,1.4,1.6,3.2,2.3,5.4l5.9,16.4c0.6,1.9,1.1,3.5,1.5,5.6h0.2c0.5-1.9,1.3-3.7,2.1-5.7
			l7.2-16.1l-2.2-5.6h-5.2V143h23.6v9.5h-5c0.8,1.4,1.6,3.2,2.3,5.4l6,16.4c0.8,2.2,1.1,3.5,1.5,5.6h0.2c0.4-2,0.7-3.3,1.5-5.6
			l5.8-16.4c0.7-2.1,1.5-4,2.3-5.4H516V143z"/>
		<path d="M573.2,160.6c0-7.3-3.1-9.3-9.2-9.3c-1.9,0-5.8,0.6-8.1,1.4v6.5h-11.1v-12.3c3.2-1.8,10.8-5,19.4-5
			c13,0,21.2,4.5,21.2,18.6c0,8-0.3,14.7-0.5,21.5h5.5v9.5h-16.3v-3c0-3.2,0.2-4.8,0.7-6.7h-0.2c-3.2,7.3-7.7,10.8-15.9,10.8
			c-10.9,0-16.2-6.5-16.2-14.1c0-7,4.6-11.5,9.7-13.4c4.9-1.8,11.5-2.2,21-2.2V160.6z M569.4,170.9c-10.6,0-13.9,2.2-13.9,6.4
			c0,2.9,2,5.8,7.1,5.8c5.2,0,10.4-3.3,10.4-12.2H569.4z"/>
		<path d="M601.9,152.4h-6.3V143h18.8c0,3.3-0.2,6.6-0.8,11.1h0.2c1.9-8.2,6.5-12.2,13.9-12.2c1.6,0,2.9,0.3,4.3,0.6l-0.8,11.6
			c-1.4-0.3-2.9-0.5-4.2-0.5c-7,0-12.1,4.8-12.1,12.8V182h6.1v9.5h-24.4V182h5.3V152.4z"/>
		<path d="M668.6,129.6h-7.4v-9.5h20.4V182h5.6v9.5h-18.3c0-3.5,0.4-6.3,1.1-9.4h-0.2c-3,6.8-8.3,10.5-16.5,10.5
			c-10.7,0-19.8-7.7-19.8-22.2c0-13.3,6.4-28.6,27.1-28.6c2.2,0,5.4,0.4,8,1.1V129.6z M668.2,154.2c-1.8-0.9-5.4-1.8-8.3-1.8
			c-9.4,0-12.9,7.4-12.9,14.9c0,7.6,3.6,14.1,9.9,14.1c6.9,0,11.2-6.1,11.2-13.5V154.2z"/>
		<path d="M721.6,152.2c-2.6-0.9-5.1-1.4-7.5-1.4c-5.9,0-8.7,2.4-8.7,5.1c0,2.3,0.6,3.2,4.4,3.8l10.2,1.5
			c11.1,1.6,15.8,5.8,15.8,14.7c0,8.6-6,16.8-22.9,16.8c-5.8,0-13.9-1.2-19.1-3.1v-13.6h11.7v5.7c2.1,0.7,5.8,1.6,8.6,1.6
			c2.7,0,9.5-0.8,9.5-5.9c0-2.7-1.7-4.1-7.3-4.9l-10.9-1.7c-8.4-1.3-12.1-5.9-12.1-12.9c0-12,11.3-15.9,21.3-15.9
			c5.2,0,11.7,0.8,18.8,3.2v12h-11.7V152.2z"/>
	</g>
</g>
</svg>
