<?xml version="1.0" encoding="utf-8"?>
<!-- Generator: Adobe Illustrator 21.0.1, SVG Export Plug-In . SVG Version: 6.00 Build 0)  -->
<svg version="1.1" id="Layer_1" xmlns="http://www.w3.org/2000/svg" xmlns:xlink="http://www.w3.org/1999/xlink" x="0px" y="0px"
	 viewBox="0 0 800 800" style="enable-background:new 0 0 800 800;" xml:space="preserve">
<style type="text/css">
	.st0{fill:#FFFFFF;}
	.st1{fill:#BCC0C4;}
	.st2{fill:#E89470;}
	.st3{fill:#3B6D84;}
	.st4{opacity:0.8;}
	.st5{opacity:0.1;fill:#231F20;}
	.st6{opacity:0.2;fill:#231F20;}
	.st7{opacity:0.7;fill:#231F20;}
	.st8{fill:#FFB58F;}
	.st9{opacity:0.3;fill:#231F20;}
	.st10{opacity:0.5;fill:#231F20;}
	.st11{fill:#231F20;}
	.st12{fill:#DFE2E5;}
	.st13{fill:#DFEAF2;}
	.st14{fill:#253E51;}
	.st15{fill:#1D323F;}
	.st16{fill:#FC9E00;}
	.st17{opacity:0.2;fill:#FFFFFF;}
	.st18{enable-background:new    ;}
	.st19{clip-path:url(#SVGID_2_);enable-background:new    ;}
	.st20{fill:#770F1B;}
	.st21{clip-path:url(#SVGID_4_);enable-background:new    ;}
	.st22{fill:#E01D33;}
	.st23{clip-path:url(#SVGID_6_);enable-background:new    ;}
	.st24{clip-path:url(#SVGID_8_);enable-background:new    ;}
	.st25{opacity:0.2;clip-path:url(#SVGID_10_);fill:#FFFFFF;}
	.st26{fill:#FCB400;stroke:#FFFFFF;stroke-width:4.6643;stroke-miterlimit:10;}
	.st27{clip-path:url(#SVGID_12_);enable-background:new    ;}
	.st28{clip-path:url(#SVGID_14_);enable-background:new    ;}
	.st29{opacity:0.62;fill:#231F20;}
	.st30{fill:#490E17;}
	.st31{clip-path:url(#SVGID_16_);fill:#2B3990;}
	.st32{opacity:0.3;fill:none;stroke:#FFFFFF;stroke-width:8;stroke-miterlimit:10;}
	.st33{opacity:0.3;fill:none;stroke:#FFFFFF;stroke-width:5.0145;stroke-miterlimit:10;}
	.st34{opacity:0.3;fill:#FFFFFF;}
	.st35{opacity:0.3;fill:none;stroke:#C9C9C9;stroke-width:3;stroke-miterlimit:10;}
</style>
<rect x="0" class="st0" width="800" height="800"/>
<path class="st1" d="M116.9,355.1l23.8,33.9C140.8,389,109.1,414.5,116.9,355.1z"/>
<path class="st0" d="M400.9,120.7c-46.2,11.5-103.3,64.9-137.4,86.4V187c0,0-119.5,85.7-94.8,206.3
	c24.7,120.5,89.6,133.1,94.8,139.4c5.3,6.3-35-7.5-30,0c5.1,7.5,108.3,93,108.3,93s-114.7-78.4-108.3-65
	c6.3,13.4,66.7,70.4,75.4,77.1c8.8,6.7,64.6,37.3,64.6,37.3c13.9,7.9,50.3,6.4,64.5,2.3c71.1-20.4,156.5-48.9,179.3-124.6
	c-32.4,22.4-45,27.7-78.2,48.8c12.5-33.7,38.2-34.4,45.5-70c-0.4-0.4-0.8-0.8-1.3-1.3c-18,2.8-13.9-6.3-31.7-5.4
	c16.9-0.8,71.2-64.1,79.5-79.6c31.1-57.8,27.4-210.5-49.6-234.3c1.7,5.7,1,12.9,5,19.8c-28.2-22.6-59.2-40.4-87.9-61.8
	c-25-18.6-45.5-49.8-79.8-50.6C413.1,118.4,407.1,119.2,400.9,120.7z"/>
<path class="st2" d="M156.2,337.3c0,0,16.4-53,18-52.6c1.6,0.4,30.5-8,34.2-10.5c3.8-2.5,20.5-16.3,20.5-16.3s16.2,13-2.2,29.7
	C226.7,287.6,184.4,335.8,156.2,337.3z"/>
<path class="st3" d="M568,252.8L415.7,121.6v-2l-1.2,1l-1.2-1v2L261.1,252.8c0,0-88,95.5,0,193.6L413.4,559v1.7l1.2-0.9l1.2,0.9V559
	L568,446.4C655.9,348.3,568,252.8,568,252.8z"/>
<g class="st4">
	<polygon class="st5" points="313.4,406.2 310.2,400.6 313.4,395 319.9,395 323.1,400.6 319.9,406.2 	"/>
	<polygon class="st5" points="296.8,406.2 293.5,400.6 296.8,395 303.2,395 306.5,400.6 303.2,406.2 	"/>
	<polygon class="st5" points="305.4,394.8 302.2,389.2 305.4,383.6 311.9,383.6 315.1,389.2 311.9,394.8 	"/>
	<polygon class="st5" points="305.4,241.5 302.2,235.9 305.4,230.3 311.9,230.3 315.1,235.9 311.9,241.5 	"/>
	<polygon class="st5" points="332.8,229.5 329.5,223.9 332.8,218.3 339.2,218.3 342.5,223.9 339.2,229.5 	"/>
	<polygon class="st5" points="322.5,241.5 319.3,235.9 322.5,230.3 329,230.3 332.2,235.9 329,241.5 	"/>
	<polygon class="st5" points="291.2,254.2 288,248.6 291.2,243 297.7,243 300.9,248.6 297.7,254.2 	"/>
	<polygon class="st5" points="289.9,392.2 286.6,386.6 289.9,381 296.3,381 299.6,386.6 296.3,392.2 	"/>
	<polygon class="st5" points="313.9,229.5 310.6,223.9 313.9,218.3 320.3,218.3 323.6,223.9 320.3,229.5 	"/>
	<polygon class="st5" points="275.4,394.8 272.2,389.2 275.4,383.6 281.9,383.6 285.1,389.2 281.9,394.8 	"/>
	<polygon class="st5" points="304.8,419.5 301.5,413.9 304.8,408.3 311.2,408.3 314.5,413.9 311.2,419.5 	"/>
	<polygon class="st5" points="290.1,419.5 286.9,413.9 290.1,408.3 296.6,408.3 299.8,413.9 296.6,419.5 	"/>
	<polygon class="st5" points="372.1,478.8 368.9,473.2 372.1,467.6 378.6,467.6 381.8,473.2 378.6,478.8 	"/>
	<polygon class="st5" points="379.4,465.5 376.2,459.9 379.4,454.3 385.9,454.3 389.1,459.9 385.9,465.5 	"/>
	<polygon class="st5" points="387.4,478.8 384.2,473.2 387.4,467.6 393.9,467.6 397.1,473.2 393.9,478.8 	"/>
	<polygon class="st5" points="357.4,478.8 354.2,473.2 357.4,467.6 363.9,467.6 367.1,473.2 363.9,478.8 	"/>
	<polygon class="st5" points="344.8,486.2 341.5,480.6 344.8,475 351.2,475 354.5,480.6 351.2,486.2 	"/>
	<polygon class="st5" points="362.8,452.2 359.5,446.6 362.8,441 369.2,441 372.5,446.6 369.2,452.2 	"/>
	<polygon class="st5" points="324.8,419.5 321.5,413.9 324.8,408.3 331.2,408.3 334.5,413.9 331.2,419.5 	"/>
	<polygon class="st5" points="350.1,459.5 346.9,453.9 350.1,448.3 356.6,448.3 359.8,453.9 356.6,459.5 	"/>
	<polygon class="st5" points="506.6,406.2 509.8,400.6 506.6,395 500.1,395 496.9,400.6 500.1,406.2 	"/>
	<polygon class="st5" points="523.2,406.2 526.5,400.6 523.2,395 516.8,395 513.5,400.6 516.8,406.2 	"/>
	<polygon class="st5" points="544.6,406.2 547.8,400.6 544.6,395 538.1,395 534.9,400.6 538.1,406.2 	"/>
	<polygon class="st5" points="514.6,394.8 517.8,389.2 514.6,383.6 508.1,383.6 504.9,389.2 508.1,394.8 	"/>
	<polygon class="st5" points="515.2,419.5 518.5,413.9 515.2,408.3 508.8,408.3 505.5,413.9 508.8,419.5 	"/>
	<polygon class="st5" points="495.9,419.5 499.1,413.9 495.9,408.3 489.4,408.3 486.2,413.9 489.4,419.5 	"/>
	<polygon class="st5" points="529.9,419.5 533.1,413.9 529.9,408.3 523.4,408.3 520.2,413.9 523.4,419.5 	"/>
</g>
<path class="st6" d="M222.1,358.5c-1.3-75.3,196.1-237.9,191.2-236.9L261.1,252.8C261.1,252.8,219.3,298.2,222.1,358.5z"/>
<path class="st6" d="M618.4,358.5c1.3-75.3-196.1-237.9-191.2-236.9l152.2,131.2C579.4,252.8,621.2,298.2,618.4,358.5z"/>
<path class="st7" d="M264.1,294.7c0,0,15.9,3.4,15.5,3.4c-0.4,0-3.7,33.9-3.7,33.9l-11.7-1.3l-3,9.4l22.7,4l-7.5,34.4l-8.2,2.6
	l0.5,23.8l-0.5,19.3l-24.6-0.8c0,0-13.4-79.6-14.6-79.6c-1.3,0,21.2-56.1,21.2-56.1L264.1,294.7z"/>
<g>
	<path class="st8" d="M191.6,305.6c0,0-65,53.7-75,78.8c-10,25.1-6.7,86.5,37.5,65.3c44.2-21.2,64.9,5.1,89.4-26.4
		c24.6-31.4-15.5-107-49.2-112.6"/>
	<g>
		<path class="st8" d="M191.6,305.6c0,0,59.5-39.4,80.4-17.6v28.5l-74.6,23.6C197.5,340.2,181.6,337.5,191.6,305.6z"/>
		<path class="st5" d="M250.1,281.6v41.8l22-7V288C266.7,282.5,258.9,280.9,250.1,281.6z"/>
		<path class="st9" d="M189,330.2c2.1,8.8,8.5,9.9,8.5,9.9l74.6-23.6v-7.2C246.3,302.3,201.7,323.7,189,330.2z"/>
	</g>
	<g>
		<path class="st8" d="M177.5,337.2c0,0,59.5-39.4,80.4-17.6v28.5l-74.6,23.6C183.3,371.8,167.4,369.1,177.5,337.2z"/>
		<path class="st5" d="M235.9,313.3v41.8l22-7v-28.5C252.5,314.1,244.7,312.5,235.9,313.3z"/>
		<path class="st5" d="M177.5,364.3c-0.3,0.8-0.5,1.6-0.7,2.3c2.7,4.4,6.6,5.1,6.6,5.1l74.6-23.6v-1.4
			C236.9,324.9,177.5,364.3,177.5,364.3z"/>
	</g>
	<g>
		<path class="st8" d="M199.1,366.6c0,0,59.5-39.4,80.4-17.6v28.5L205,401.1C205,401.1,189.1,398.4,199.1,366.6z"/>
		<path class="st5" d="M257.6,342.6v41.8l22-7V349C274.2,343.4,266.3,341.9,257.6,342.6z"/>
		<path class="st5" d="M196.1,389.1c1.6,10.8,8.9,12,8.9,12l67.1-21.3v-5.6C254.6,356.1,210.2,380.5,196.1,389.1z"/>
	</g>
	<g>
		<path class="st8" d="M192.8,396.3c0,0,55.7-36.9,75.3-16.5v26.7l-69.8,22.1C198.3,428.6,183.4,426.1,192.8,396.3z"/>
		<path class="st5" d="M247.6,373.8V413l20.6-6.5v-26.7C263.1,374.6,255.7,373.1,247.6,373.8z"/>
	</g>
</g>
<path class="st2" d="M121.7,446.9l20-67l41.1-66.8c-18.1,15.6-58.6,52-66.3,71.4C110.1,400.8,109.2,432.6,121.7,446.9z"/>
<polygon class="st6" points="413.4,560.7 230.2,435.5 407.4,569.4 "/>
<path class="st10" d="M577,435.5c72.5-94.1-9-182.7-9-182.7L416.7,122.4c-1.1-0.6-2.2-1.1-3.3-1.7v0.9l-0.4,0.3
	c28.8,23.6,202.4,164.1,186.3,249.9L577,435.5z"/>
<path class="st10" d="M568,446.3L427.1,582c0,0,1,6.3,3.6,7.5c2.7,1.3-5.7,6.3-5.7,6.3v70.4l12.2-57.8l5-28.9
	C442.1,579.4,575.3,461.9,568,446.3z"/>
<path class="st11" d="M407.4,578.2c3-6.3-7.7,88-7.7,88S399,595.6,407.4,578.2z"/>
<path class="st6" d="M581.4,435.5c0,0-45.8,64.7-58.6,107.5c0,0,50.4-71.6,68.5-83c18-11.3-9.9-5.9-9.9-5.9s38.5-10.5,31.9-60.8
	L581.4,435.5z"/>
<g>
	<path class="st2" d="M672.8,337.3c0,0-16.4-53-18-52.6c-1.6,0.4-30.5-8-34.2-10.5c-3.8-2.5-20.5-16.3-20.5-16.3s-16.2,13,2.2,29.7
		C602.2,287.6,644.5,335.8,672.8,337.3z"/>
	<path class="st7" d="M564.9,294.7c0,0-15.9,3.4-15.5,3.4s3.7,33.9,3.7,33.9l11.7-1.3l3,9.4l-22.7,4l7.5,34.4l8.2,2.6l-0.5,23.8
		l0.5,19.3l24.6-0.8c0,0,13.4-79.6,14.6-79.6s-21.2-56.1-21.2-56.1L564.9,294.7z"/>
	<g>
		<path class="st8" d="M637.3,305.6c0,0,65,53.7,75,78.8c10,25.1,6.7,86.5-37.5,65.3c-44.2-21.2-64.9,5.1-89.4-26.4
			c-24.6-31.4,15.5-107,49.2-112.6"/>
		<g>
			<path class="st8" d="M637.3,305.6c0,0-59.5-39.4-80.4-17.6v28.5l74.6,23.6C631.4,340.2,647.4,337.5,637.3,305.6z"/>
			<path class="st5" d="M578.8,281.6v41.8l-22-7V288C562.2,282.5,570.1,280.9,578.8,281.6z"/>
			<path class="st9" d="M639.9,330.2c-2.1,8.8-8.5,9.9-8.5,9.9l-74.6-23.6v-7.2C582.6,302.3,627.2,323.7,639.9,330.2z"/>
		</g>
		<g>
			<path class="st8" d="M651.5,337.2c0,0-59.5-39.4-80.4-17.6v28.5l74.6,23.6C645.6,371.8,661.5,369.1,651.5,337.2z"/>
			<path class="st5" d="M593,313.3v41.8l-22-7v-28.5C576.4,314.1,584.3,312.5,593,313.3z"/>
			<path class="st5" d="M651.5,364.3c0.3,0.8,0.5,1.6,0.7,2.3c-2.7,4.4-6.6,5.1-6.6,5.1L571,348.1v-1.4
				C592,324.9,651.5,364.3,651.5,364.3z"/>
		</g>
		<g>
			<path class="st8" d="M629.8,366.6c0,0-59.5-39.4-80.4-17.6v28.5l74.6,23.6C624,401.1,639.9,398.4,629.8,366.6z"/>
			<path class="st5" d="M571.4,342.6v41.8l-22-7V349C554.7,343.4,562.6,341.9,571.4,342.6z"/>
			<path class="st5" d="M632.9,389.1c-1.6,10.8-8.9,12-8.9,12l-67.1-21.3v-5.6C574.4,356.1,618.7,380.5,632.9,389.1z"/>
		</g>
		<g>
			<path class="st8" d="M636.1,396.3c0,0-55.7-36.9-75.3-16.5v26.7l69.8,22.1C630.6,428.6,645.5,426.1,636.1,396.3z"/>
			<path class="st5" d="M581.4,373.8V413l-20.6-6.5v-26.7C565.8,374.6,573.2,373.1,581.4,373.8z"/>
		</g>
	</g>
</g>
<path class="st6" d="M308.9,512.8l-98-72.5l98,102.7l-7.5-18.9c0,0,55.3,56.6,59.1,61.6C364.2,590.8,308.9,512.8,308.9,512.8z"/>
<path class="st12" d="M662.9,444.9l33.1,7.6l-15.8,30.2C680.2,482.7,660,463.8,662.9,444.9z"/>
<path class="st6" d="M668.8,446.3c1.3,13.8,6.2,26.7,10.5,35.5c0.5,0.5,0.8,0.8,0.8,0.8l15.8-30.2L668.8,446.3z"/>
<path class="st13" d="M707.4,355.1c0,0-6.3,81.8-34.6,99c0,0-0.6,13.4,24.5,14c0,0,53.6-39,34.4-88.3L707.4,355.1z"/>
<circle class="st6" cx="683.5" cy="458.5" r="8.7"/>
<path class="st12" d="M161.4,444.9l-33.1,7.6l15.8,30.2C144.1,482.7,164.3,463.8,161.4,444.9z"/>
<path class="st6" d="M155.5,446.3c-1.3,13.8-6.2,26.7-10.5,35.5c-0.5,0.5-0.8,0.8-0.8,0.8l-15.8-30.2L155.5,446.3z"/>
<path class="st13" d="M116.9,355.1c0,0,6.3,81.8,34.6,99c0,0,0.6,13.4-24.5,14c0,0-53.6-39-34.4-88.3L116.9,355.1z"/>
<circle class="st6" cx="140.8" cy="458.5" r="8.7"/>
<path class="st14" d="M444.1,147.9c0,0,0.4,1.7,1.2,4.6c5.2,18.4,29.5,86.4,104.1,87.5"/>
<path class="st6" d="M116.2,211l6.8-30.2c-3.7,3.2-7.4,6.5-11,10v20.4C113.3,211.1,114.8,211.1,116.2,211z"/>
<g>
	<path class="st14" d="M284.9,152.5c-36.5,5.2-72.9-4.2-109.4-9.9c-28.9,18-57.7,39.1-86.6,72.2c39.1-9.8,78.2,1,117.4,10
		c31.4-2.7,62.9-6.3,94.3-22.3c-3.8-16.2-7.7-32.7-11.5-49.4"/>
	<path class="st10" d="M297.4,188.7c-2.8-11.8-5.5-23.6-8.3-35.6l-4.2-0.6c-6.8,1-13.5,1.4-20.3,1.5l12.5,58.3
		c3.6-1.2,7.2-2.5,10.7-4L297.4,188.7z"/>
	<path class="st14" d="M420.3,99.3L274.7,142l17.9,71.6C292.6,213.7,431.1,135.8,420.3,99.3z"/>
	<path class="st15" d="M438.4,99.3c0.7-4.5-49.8,0-49.8,0l-9.5,19.2l15.9,20.3h30C425,138.8,437.1,106.8,438.4,99.3z"/>
	
		<rect x="293.6" y="127.8" transform="matrix(0.9263 -0.3767 0.3767 0.9263 -31.603 122.7269)" class="st16" width="8.8" height="28.8"/>
	
		<rect x="293.6" y="135.4" transform="matrix(0.9263 -0.3767 0.3767 0.9263 -31.7644 122.7483)" class="st17" width="8.8" height="14.4"/>
	<path class="st6" d="M150.5,213.1c12.8,1.9,25.6,4.6,38.4,7.6l28.7-71c-10.7-1.7-21.3-3.7-32-5.5L150.5,213.1z"/>
	<path class="st6" d="M243.7,153.1L228,222.6c9.9-1.2,19.9-2.7,29.8-5c0-15.7,0.1-43.1,0.6-63.7
		C253.6,153.8,248.6,153.6,243.7,153.1z"/>
</g>
<g>
	<g>
		<g>
			<g class="st18">
				<g class="st18">
					<defs>
						<path id="SVGID_1_" class="st18" d="M548.6,305.4v13.9c-27.9,64.5-121,136.1-133.8,145.8v-13.9
							C427.6,441.6,520.7,369.9,548.6,305.4z"/>
					</defs>
					<clipPath id="SVGID_2_">
						<use xlink:href="#SVGID_1_"  style="overflow:visible;"/>
					</clipPath>
					<g class="st19">
						<path class="st20" d="M548.6,305.4v13.9c-27.9,64.5-121,136.1-133.8,145.8v-13.9C427.6,441.6,520.7,369.9,548.6,305.4"/>
					</g>
				</g>
				<g class="st18">
					<defs>
						<path id="SVGID_3_" class="st18" d="M413.4,451.2v13.9c-12.8-9.7-105.9-81.3-133.8-145.8v-13.9
							C307.5,369.9,400.5,441.6,413.4,451.2z"/>
					</defs>
					<clipPath id="SVGID_4_">
						<use xlink:href="#SVGID_3_"  style="overflow:visible;"/>
					</clipPath>
					<g class="st21">
						<path class="st20" d="M413.4,451.2v13.9c-12.8-9.7-105.9-81.3-133.8-145.8v-13.9C307.5,369.9,400.5,441.6,413.4,451.2"/>
					</g>
				</g>
				<g>
					<path class="st22" d="M499.3,243.7l49.3,61.8c-27.9,64.5-121,136.1-133.8,145.8v1.1c0,0-0.3-0.2-0.7-0.5
						c-0.5,0.4-0.7,0.5-0.7,0.5v-1.1c-12.8-9.7-105.9-81.3-133.8-145.8l49.3-61.8c2,0.5,40.7,9.9,85.2,10
						C458.5,253.6,497.2,244.2,499.3,243.7z"/>
				</g>
				<g class="st18">
					<defs>
						<path id="SVGID_5_" class="st18" d="M414.8,452.3v13.9c0,0-0.3-0.2-0.7-0.5v-13.9C414.6,452.1,414.8,452.3,414.8,452.3z"/>
					</defs>
					<clipPath id="SVGID_6_">
						<use xlink:href="#SVGID_5_"  style="overflow:visible;"/>
					</clipPath>
					<g class="st23">
						<path class="st20" d="M414.8,452.3v13.9c0,0-0.3-0.2-0.7-0.5v-13.9C414.6,452.1,414.8,452.3,414.8,452.3"/>
					</g>
				</g>
				<g class="st18">
					<defs>
						<path id="SVGID_7_" class="st18" d="M414.1,451.8v13.9c-0.5,0.4-0.7,0.5-0.7,0.5v-13.9C413.4,452.3,413.6,452.1,414.1,451.8z"
							/>
					</defs>
					<clipPath id="SVGID_8_">
						<use xlink:href="#SVGID_7_"  style="overflow:visible;"/>
					</clipPath>
					<g class="st24">
						<path class="st20" d="M414.1,451.8v13.9c-0.5,0.4-0.7,0.5-0.7,0.5v-13.9C413.4,452.3,413.6,452.1,414.1,451.8"/>
					</g>
				</g>
			</g>
		</g>
	</g>
	<g>
		<defs>
			<path id="SVGID_9_" d="M414.1,439.8c-22.5-17.8-92.8-76.3-120-130.1l39.2-49.9c13.8,2.9,46,8.8,80.7,8.9c34.8-0.1,67-6,80.8-8.9
				l39.2,49.9C506.9,363.5,436.6,422,414.1,439.8z"/>
		</defs>
		<use xlink:href="#SVGID_9_"  style="overflow:visible;fill:#F8C800;"/>
		<clipPath id="SVGID_10_">
			<use xlink:href="#SVGID_9_"  style="overflow:visible;"/>
		</clipPath>
		<polygon class="st25" points="544.4,325.3 432,328.3 544.4,308.5 544.4,291.7 431.4,323.3 544.4,276.2 544.4,257.3 427.3,318.2 
			544.4,229.9 544.4,218.6 524.9,218.6 424.8,315.6 499.1,218.6 475,218.6 422.8,309.5 453.7,218.6 435.9,218.6 416.6,309.2 
			425.4,218.6 407,218.6 411.3,305 393.8,218.6 375.6,218.6 405,307 354.9,218.6 331.2,218.6 405.1,312.9 305.7,218.6 285.8,218.6 
			285.8,229.5 402.3,317.1 285.8,256.6 285.8,275.4 397.4,320.4 285.8,290.7 285.8,307.5 397.5,327.1 285.8,324.1 285.8,337.9 
			393.3,332.1 285.8,349.4 285.8,366.1 395.5,336.7 285.8,381.5 285.8,400.4 402.3,339.7 285.8,427.5 285.8,439.9 304.1,439.9 
			400.1,349.7 330.1,439.9 354.1,439.9 405.3,351.3 375.7,439.9 393.5,439.9 410.6,351.7 404.1,439.9 422.6,439.9 418.3,352.9 
			435.9,439.9 453.5,439.9 422.3,350.9 474.9,439.9 498.8,439.9 425.7,345.9 524.6,439.9 544.4,439.9 544.4,429 427.3,340.9 
			544.4,401.7 544.4,382.9 435.6,340 544.4,367.5 544.4,350.8 437.8,335.4 544.4,339.4 		"/>
	</g>
	<path class="st6" d="M300,309l37-43c13.8,2.9,53.3,14.7,88.1,14.7c33.7-0.1,65-5.6,79.4-8.6l-9.7-12.3c-13.8,2.9-46,8.8-80.8,8.9
		c-34.8-0.1-66.9-6-80.7-8.9l-39.2,49.9c11.2,22.3,29.9,45.3,49.4,66C328.2,358.3,309.1,327,300,309z"/>
</g>
<circle class="st26" cx="416.9" cy="607.7" r="7.3"/>
<path class="st6" d="M538.5,556.3L460.2,615C460.2,615,525,608.9,538.5,556.3z"/>
<g>
	<g class="st18">
		<g class="st18">
			<defs>
				<path id="SVGID_11_" class="st18" d="M413.6,240.3v10.2c0,0-0.2-0.1-0.5-0.4v-10.2C413.4,240.1,413.6,240.3,413.6,240.3z"/>
			</defs>
			<clipPath id="SVGID_12_">
				<use xlink:href="#SVGID_11_"  style="overflow:visible;"/>
			</clipPath>
			<g class="st27">
				<path class="st20" d="M413.6,240.3v10.2c0,0-0.2-0.1-0.5-0.4v-10.2C413.4,240.1,413.6,240.3,413.6,240.3"/>
			</g>
		</g>
		<g class="st18">
			<defs>
				<path id="SVGID_13_" class="st18" d="M413.1,239.9v10.2c-0.4,0.3-0.5,0.4-0.5,0.4v-10.2C412.6,240.3,412.7,240.1,413.1,239.9z"
					/>
			</defs>
			<clipPath id="SVGID_14_">
				<use xlink:href="#SVGID_13_"  style="overflow:visible;"/>
			</clipPath>
			<g class="st28">
				<path class="st20" d="M413.1,239.9v10.2c-0.4,0.3-0.5,0.4-0.5,0.4v-10.2C412.6,240.3,412.7,240.1,413.1,239.9"/>
			</g>
		</g>
	</g>
</g>
<path class="st29" d="M471.7,273.2L542,323v20c0,0-93,105-117,115l-11.4-41.4L471.7,273.2z"/>
<path class="st30" d="M413.6,427.1c-0.2,0-0.4,0-0.5,0c-0.2,0-0.3,0-0.5,0c-0.8,0-1.5-0.2-2.3-0.5c-1.1-0.5-1.9-1.4-2.4-2.5
	c-12.7-9.7-74.6-58.6-93.8-103c-0.7-1.7-0.5-3.7,0.7-5.2l34.6-43.3c1-1.2,2.5-1.9,4-1.9c0.4,0,0.8,0,1.2,0.1
	c2.2,0.5,22.2,5.3,46.9,6.5c1.9,0.1,3.6,1.2,4.4,2.9c1.3,2.7,4.1,4.4,7.1,4.4c3.1,0,5.9-1.7,7.1-4.4c0.8-1.7,2.5-2.8,4.4-2.9
	c24.8-1.3,44.9-6,47.1-6.6c0.4-0.1,0.8-0.1,1.2-0.1c1.5,0,3,0.7,4,1.9l34.6,43.3c1.2,1.5,1.4,3.5,0.7,5.2
	c-19.3,44.4-81.1,93.3-93.8,103c-0.5,1.1-1.3,2-2.4,2.5C415.1,427,414.4,427.1,413.6,427.1z"/>
<path class="st22" d="M471.7,273.2c-1.2,0.3-21.6,5.3-47.1,6.6c-2,4.3-6.4,7.2-11.5,7.2c-5.1,0-9.5-3-11.5-7.2
	c-25.4-1.3-45.7-6.3-46.9-6.6l-33.9,42.5c19.2,44.3,83.2,93.6,92,100.2v0.8c0,0,0.2-0.1,0.5-0.4c0.3,0.2,0.5,0.4,0.5,0.4v-0.8
	c8.8-6.6,72.8-55.9,92-100.2L471.7,273.2z"/>
<g>
	<defs>
		<path id="SVGID_15_" d="M471.7,273.2l33.9,42.5c-19.2,44.3-83.2,93.6-92,100.2v0.8c0,0-0.2-0.1-0.5-0.4c-0.3,0.2-0.5,0.4-0.5,0.4
			v-0.8c-8.8-6.6-72.8-55.9-92-100.2l33.9-42.5c1.4,0.3,28,6.8,58.6,6.9C443.7,280,470.3,273.5,471.7,273.2z"/>
	</defs>
	<clipPath id="SVGID_16_">
		<use xlink:href="#SVGID_15_"  style="overflow:visible;"/>
	</clipPath>
	<path class="st31" d="M352,382c0,0,11-89,141-88l22,23l-87,123L352,382z"/>
</g>
<path class="st0" d="M328.3,311.7c0,0,23.3-29.3,30.7-28.7C366.3,283.7,338.3,311,328.3,311.7z"/>
<path class="st0" d="M409,405c0,0,58-52,79.3-77.3l4.7,0.7C493,328.3,471,368.3,409,405z"/>
<polygon class="st0" points="452.3,284.3 469.7,281 487,311 475.7,309.7 "/>
<polygon class="st0" points="479,314.3 486.3,315 487.4,322.8 479.7,321.7 "/>
<path class="st0" d="M747.7,240.3"/>
<path class="st0" d="M349.4,272.6l52.1,4.8l3.5,9.6l-40-7l-37,39c0,0,47,75,81,90l3,13c0,0-97-83-101-104
	C311,318,334.8,279.2,349.4,272.6z"/>
<g>
	<g>
		<circle class="st32" cx="671.9" cy="144.7" r="79.5"/>
		<circle class="st33" cx="344.9" cy="470.4" r="49.8"/>
		<circle class="st34" cx="636.8" cy="172.8" r="57.7"/>
		<circle class="st34" cx="605.5" cy="208.8" r="70.4"/>
		<circle class="st34" cx="574.8" cy="240.2" r="16.4"/>
		<circle class="st34" cx="549.5" cy="266.8" r="21.1"/>
		<circle class="st34" cx="470.3" cy="347.6" r="11.1"/>
		<circle class="st34" cx="456.3" cy="361.6" r="11.1"/>
		<circle class="st34" cx="443" cy="373.6" r="22.4"/>
		<circle class="st34" cx="409" cy="406.3" r="15.1"/>
		<circle class="st34" cx="385.7" cy="432.3" r="29.7"/>
		<circle class="st34" cx="332.3" cy="483" r="15.7"/>
		<circle class="st34" cx="528.8" cy="287.5" r="12.4"/>
		<circle class="st35" cx="536.8" cy="278.2" r="36.6"/>
	</g>
	
		<path id="path4209_5_" inkscape:flatsided="false" inkscape:randomized="0" inkscape:rounded="0" inkscape:transform-center-x="-0.60657886" inkscape:transform-center-y="0.6065798" sodipodi:arg1="0.78539816" sodipodi:arg2="0.99483767" sodipodi:cx="108.45104" sodipodi:cy="376.62875" sodipodi:r1="135.23935" sodipodi:r2="9.4667549" sodipodi:sides="15" sodipodi:type="star" class="st0" d="
		M542.9,353.6L505.2,317l18,49.3l-19.6-48.7l-3.6,52.4l1.9-52.4l-24.6,46.4l23.1-47.1l-41.3,32.4l40.3-33.7l-50.9,12.8l50.5-14.4
		l-51.7-9l51.9,7.4L455.8,283l44.4,27.9l-27.9-44.4l29.3,43.6l-7.4-52l9,51.7l14.4-50.5l-12.8,50.9l33.7-40.3l-32.4,41.3l47.1-23.1
		l-46.4,24.5l52.4-1.9l-52.3,3.6l48.7,19.6l-49.3-18L542.9,353.6z"/>
</g>
</svg>
