<?xml version="1.0" encoding="utf-8"?>
<!-- Generator: Adobe Illustrator 19.1.0, SVG Export Plug-In . SVG Version: 6.00 Build 0)  -->
<svg version="1.1" id="icons" xmlns="http://www.w3.org/2000/svg" xmlns:xlink="http://www.w3.org/1999/xlink" x="0px" y="0px"
	 viewBox="-79 -120 800 800" style="enable-background:new -79 -120 800 800;" xml:space="preserve">
<style type="text/css">
	.st0{clip-path:url(#SVGID_3_);fill:#F1EEDB;}
	.st1{fill:#EDEDED;}
	.st2{clip-path:url(#SVGID_5_);fill:#EC2D80;}
	.st3{clip-path:url(#SVGID_7_);fill:#F1EEDB;}
	.st4{clip-path:url(#SVGID_9_);fill:#F1EEDB;}
	.st5{clip-path:url(#SVGID_11_);fill:#333333;}
	.st6{clip-path:url(#SVGID_13_);}
	.st7{clip-path:url(#SVGID_15_);fill:#333333;}
	.st8{clip-path:url(#SVGID_17_);}
	.st9{clip-path:url(#SVGID_19_);}
	.st10{clip-path:url(#SVGID_21_);fill:#F1EEDB;}
	.st11{clip-path:url(#SVGID_23_);fill:#DBD9C7;}
	.st12{clip-path:url(#SVGID_25_);fill:#DBD9C7;}
	.st13{clip-path:url(#SVGID_27_);}
	.st14{fill:#DBD9C7;}
	.st15{clip-path:url(#SVGID_29_);}
	.st16{clip-path:url(#SVGID_31_);}
	.st17{clip-path:url(#SVGID_33_);fill:#333333;}
	.st18{fill:none;}
	.st19{fill:#333333;}
	.st20{clip-path:url(#SVGID_35_);}
	.st21{clip-path:url(#SVGID_37_);fill:#333333;}
	.st22{clip-path:url(#SVGID_39_);}
</style>
<g>
	<g>
		<g>
			<g>
				<defs>
					<circle id="SVGID_2_" cx="321" cy="280" r="400.1"/>
				</defs>
				<clipPath id="SVGID_3_">
					<use xlink:href="#SVGID_2_"  style="overflow:visible;"/>
				</clipPath>
				<path class="st0" d="M427.9,264.6C407,364.9,356.3,411.8,301.7,411.8c-55.1,0-105.3-46.8-126.2-147.2
					C154.6,160.4,225.1,91,301.7,94.8C378.3,90.4,448.9,160.4,427.9,264.6z"/>
			</g>
		</g>
	</g>
	<circle id="SVGID_1_" class="st1" cx="321" cy="280" r="400.1"/>
	<g>
		<g>
			<g>
				<defs>
					<circle id="SVGID_4_" cx="321" cy="280" r="400.1"/>
				</defs>
				<clipPath id="SVGID_5_">
					<use xlink:href="#SVGID_4_"  style="overflow:visible;"/>
				</clipPath>
				<path class="st2" d="M308.9,717.1c102,0,197.3-16.5,282.7-45.7l-20.4-179.2c-2.2-22-38-39.7-82.7-42.4
					c-119-21.5-239.7-21.5-359.3,0c-44.6,3.3-79.9,20.4-82.7,42.4L26.1,671.3C111,700.5,207.5,717.1,308.9,717.1z"/>
			</g>
		</g>
	</g>
	<g>
		<g>
			<g>
				<defs>
					<circle id="SVGID_6_" cx="321" cy="280" r="400.1"/>
				</defs>
				<clipPath id="SVGID_7_">
					<use xlink:href="#SVGID_6_"  style="overflow:visible;"/>
				</clipPath>
				<path class="st3" d="M308.8,431.6c-44,0.6-87.9,3.9-130.9,11.6c0,2.2,1.5,3.9,0.4,5.5C123.2,593.6,283.8,597.5,308.8,635V431.6z
					"/>
			</g>
		</g>
	</g>
	<g>
		<g>
			<g>
				<defs>
					<circle id="SVGID_8_" cx="321" cy="280" r="400.1"/>
				</defs>
				<clipPath id="SVGID_9_">
					<use xlink:href="#SVGID_8_"  style="overflow:visible;"/>
				</clipPath>
				<path class="st4" d="M308.8,431.6c38,0.6,83.3,3.9,126.3,11.6c0,2.2,0.8,3.9,1.9,5.5C492.1,593.6,334.8,597.5,308.8,635V431.6z"
					/>
			</g>
		</g>
	</g>
	<g>
		<g>
			<g>
				<defs>
					<circle id="SVGID_10_" cx="321" cy="280" r="400.1"/>
				</defs>
				<clipPath id="SVGID_11_">
					<use xlink:href="#SVGID_10_"  style="overflow:visible;"/>
				</clipPath>
				<path class="st5" d="M141.3,288.3c22,123.5,22,97,119,114.6c62.3,11,114.6-77.7,114.6-174.2c0-95.9-65.6-201.2-125.1-180.8
					C143.5,84.4,124.3,193.5,141.3,288.3z"/>
			</g>
		</g>
	</g>
	<g>
		<g>
			<g>
				<defs>
					<circle id="SVGID_12_" cx="321" cy="280" r="400.1"/>
				</defs>
				<clipPath id="SVGID_13_">
					<use xlink:href="#SVGID_12_"  style="overflow:visible;"/>
				</clipPath>
				<path class="st6" d="M375,227.7c0-55.7-24.3-117.4-55.1-153.8c-14.9-8.8-30.3-11-45.2-2.8c-123.5,69.4-125.1,143.3-108,237
					c7.2,40.8,12.1,65,19.3,79.9c15.4,4.4,38.6,4.4,75,11C322.1,409.5,375,321.9,375,227.7z"/>
			</g>
		</g>
	</g>
	<g>
		<g>
			<g>
				<defs>
					<circle id="SVGID_14_" cx="321" cy="280" r="400.1"/>
				</defs>
				<clipPath id="SVGID_15_">
					<use xlink:href="#SVGID_14_"  style="overflow:visible;"/>
				</clipPath>
				<path class="st7" d="M472.6,288.3c-22,123.5-22,97-119,114.6c-62.3,11-114.6-77.7-114.6-174.2c0-95.9,70.5-212.2,125.1-180.8
					C488,119.1,489.7,193.5,472.6,288.3z"/>
			</g>
		</g>
	</g>
	<g>
		<g>
			<g>
				<defs>
					<circle id="SVGID_16_" cx="321" cy="280" r="400.1"/>
				</defs>
				<clipPath id="SVGID_17_">
					<use xlink:href="#SVGID_16_"  style="overflow:visible;"/>
				</clipPath>
				<path class="st8" d="M452.2,310.3c-20.4,100.3-20.4,78.8-108.6,93.2c-56.8,9.4-104.7-62.8-104.7-141.1
					c0-77.7,64.5-172,114.6-146.6C466.5,172.5,467.6,233.2,452.2,310.3z"/>
			</g>
		</g>
	</g>
	<g>
		<g>
			<g>
				<defs>
					<circle id="SVGID_18_" cx="321" cy="280" r="400.1"/>
				</defs>
				<clipPath id="SVGID_19_">
					<use xlink:href="#SVGID_18_"  style="overflow:visible;"/>
				</clipPath>
				<path class="st9" d="M341.4,88.2c-25.4-14.9-55.1,3.3-78.3,36.9c-14.3,32-23.7,68.9-23.7,103.6c0,94.2,51.3,181.9,111.9,170.9
					c45.2-8.3,68.9-6.6,83.2-16c3.9-14.3,7.2-33.6,12.1-60.1C463.2,231,461.6,157.1,341.4,88.2z"/>
			</g>
		</g>
	</g>
	<g>
		<g>
			<g>
				<defs>
					<circle id="SVGID_20_" cx="321" cy="280" r="400.1"/>
				</defs>
				<clipPath id="SVGID_21_">
					<use xlink:href="#SVGID_20_"  style="overflow:visible;"/>
				</clipPath>
				<path class="st10" d="M385.8,387.5c0-2.2,0-4.4,0-7.2c-51-19.8-97-19.8-149,0c0,2.2,0,4.4,0,7.2c0,76.1,34.5,138.3,74.8,138.3
					C351.3,525.3,385.8,463.6,385.8,387.5z"/>
			</g>
		</g>
	</g>
	<g>
		<g>
			<g>
				<defs>
					<circle id="SVGID_22_" cx="321" cy="280" r="400.1"/>
				</defs>
				<clipPath id="SVGID_23_">
					<use xlink:href="#SVGID_22_"  style="overflow:visible;"/>
				</clipPath>
				<path class="st11" d="M385.8,387.5c0-2.2,0-4.4,0-7.2c-19-6.1-30.6-10.5-46.6-12.7c-16.5,2.8-37.4,8.3-50.4,17.6
					c0,3.3,0,6.1,0,8.8c0,51.3,5.2,100.9,19.5,134.9c0.6,0,0.6,0,0.6,0C349.1,529,385.8,463.6,385.8,387.5z"/>
			</g>
		</g>
	</g>
	<g>
		<g>
			<g>
				<defs>
					<circle id="SVGID_24_" cx="321" cy="280" r="400.1"/>
				</defs>
				<clipPath id="SVGID_25_">
					<use xlink:href="#SVGID_24_"  style="overflow:visible;"/>
				</clipPath>
				<path class="st12" d="M308.9,38.1c-86-5.5-164.8,79.9-141.1,207.8c23.1,122.9,79.9,180.2,141.1,180.2
					c61.7,0,117.9-57.3,141.6-180.2C473.7,118,394.9,32.6,308.9,38.1z"/>
			</g>
		</g>
	</g>
	<g>
		<g>
			<g>
				<defs>
					<circle id="SVGID_26_" cx="321" cy="280" r="400.1"/>
				</defs>
				<clipPath id="SVGID_27_">
					<use xlink:href="#SVGID_26_"  style="overflow:visible;"/>
				</clipPath>
				<g class="st13">
					<path class="st14" d="M194.3,285.5c5,29.8,2.2,49.1-6.1,51.8c-7.2,2.2-18.7-12.1-26.5-40.8c-7.7-28.7-7.2-56.8,3.9-60.1
						C176.1,232.1,189.3,255.8,194.3,285.5z"/>
				</g>
			</g>
		</g>
	</g>
	<g>
		<g>
			<g>
				<defs>
					<circle id="SVGID_28_" cx="321" cy="280" r="400.1"/>
				</defs>
				<clipPath id="SVGID_29_">
					<use xlink:href="#SVGID_28_"  style="overflow:visible;"/>
				</clipPath>
				<g class="st15">
					<path class="st14" d="M423.5,285.5c-5,29.8-2.2,49.1,6.1,51.8c7.2,2.2,18.7-12.1,26.5-40.8c8.3-28.7,7.2-56.8-3.9-60.1
						C441.2,232.1,427.9,255.8,423.5,285.5z"/>
				</g>
			</g>
		</g>
	</g>
	<g>
		<g>
			<g>
				<defs>
					<circle id="SVGID_30_" cx="321" cy="280" r="400.1"/>
				</defs>
				<clipPath id="SVGID_31_">
					<use xlink:href="#SVGID_30_"  style="overflow:visible;"/>
				</clipPath>
				<path class="st16" d="M464.3,156.6C446.1,84.4,386.1,39.2,320.5,38.1c-5,16-7.7,34.7-7.7,54c0,70,116.8,63.9,141.1,144.4
					C452.7,235.9,471.5,219.4,464.3,156.6z"/>
			</g>
		</g>
	</g>
	<g>
		<g>
			<g>
				<defs>
					<circle id="SVGID_32_" cx="321" cy="280" r="400.1"/>
				</defs>
				<clipPath id="SVGID_33_">
					<use xlink:href="#SVGID_32_"  style="overflow:visible;"/>
				</clipPath>
				<path class="st17" d="M308.9,90.4c-72.2-4.4-139.4,59-127.9,155.4c25.9,7.2,55.1,11.6,86,11.6c12.7,0,24.8-0.6,36.9-2.2l3.3-5.5
					l28.1-46.8l-14.9,50.2c3.3-0.6,6.1-1.1,8.8-1.7l7.2-13.2l38.6-66.7l26.5,52.4c0,0,25.4-13.8,35.3-24.3
					C424.6,129.6,368.4,87.1,308.9,90.4z"/>
			</g>
		</g>
	</g>
	<circle class="st18" cx="321" cy="280" r="400.1"/>
	<path class="st19" d="M154,247.5C154,248.1,154,248.1,154,247.5c14.3,3.3,29.2,5,44.6,5c108,0,195.7-69.4,195.7-154.3
		c0-15.4-3.3-30.3-8.3-44.1c-23.7-12.7-50.2-18.7-77.2-17.6C214.6,32,128.1,118,154,247.5z"/>
	<g>
		<g>
			<g>
				<defs>
					<circle id="SVGID_34_" cx="321" cy="280" r="400.1"/>
				</defs>
				<clipPath id="SVGID_35_">
					<use xlink:href="#SVGID_34_"  style="overflow:visible;"/>
				</clipPath>
				<path class="st20" d="M393.2,118c-5,18.7-11,36.4-17.6,53.5l28.1,52.4c0,0,26.5-13.8,36.9-24.8C434,164.3,416.4,136.7,393.2,118
					z"/>
			</g>
		</g>
	</g>
	<g>
		<g>
			<g>
				<defs>
					<circle id="SVGID_36_" cx="321" cy="280" r="400.1"/>
				</defs>
				<clipPath id="SVGID_37_">
					<use xlink:href="#SVGID_36_"  style="overflow:visible;"/>
				</clipPath>
				<path class="st21" d="M405.9,137.8c22.6,17.6,41.9,51.3,51.3,92.6c5-9.4,12.1-30.9,7.2-74.4c-9.9-39.7-32.5-75-73.9-99.2
					c3.3,8.8,17.6,26.5,18.7,35.8C410.9,108.1,409.8,122.9,405.9,137.8z"/>
			</g>
		</g>
	</g>
	<g>
		<g>
			<g>
				<defs>
					<circle id="SVGID_38_" cx="321" cy="280" r="400.1"/>
				</defs>
				<clipPath id="SVGID_39_">
					<use xlink:href="#SVGID_38_"  style="overflow:visible;"/>
				</clipPath>
				<path class="st22" d="M455.5,356.1c2.2-11,4.4-24.3,7.2-39.7c13.8-78.3,14.9-142.7-54-202.8c-2.2,2.8-3.3,5.5-5.5,8.8
					c67.8,59.5,70.5,107.5,55.7,200.1C456.6,339,453.3,359.9,455.5,356.1z"/>
			</g>
		</g>
	</g>
</g>
</svg>
