<?xml version="1.0" encoding="utf-8"?>
<!-- Generator: Adobe Illustrator 26.0.1, SVG Export Plug-In . SVG Version: 6.00 Build 0)  -->
<svg version="1.1" id="Layer_1" xmlns="http://www.w3.org/2000/svg" xmlns:xlink="http://www.w3.org/1999/xlink" x="0px" y="0px"
	 viewBox="0 0 841.89 472.51" style="enable-background:new 0 0 841.89 472.51;" xml:space="preserve">
<style type="text/css">
	.st0{fill:#ED1C24;}
</style>
<path d="M20.62,445.04c-0.58-0.84-0.87-1.85-0.87-3.01c0.13-1.94,0.52-3.11,1.17-3.5c0.65-0.39,1.88-0.58,3.69-0.58
	c3.76,0,6.54-0.68,8.36-2.04c1.81-1.36,2.95-3.04,3.4-5.05c0.45-2.01,0.74-4.63,0.88-7.87v-77.16c-0.13-3.24-0.42-5.86-0.88-7.87
	c-0.46-2.01-1.59-3.69-3.4-5.05c-1.82-1.36-4.6-2.04-8.36-2.04h-1.17c-1.3,0-2.2-0.22-2.72-0.68c-0.52-0.45-0.84-1.59-0.97-3.4
	c0-1.17,0.29-2.17,0.87-3.01c0.58-0.84,1.39-1.26,2.43-1.26c8.42,0.39,16.13,0.58,23.13,0.58h56.17c3.37,0,5.05,1.55,5.05,4.66
	l0.58,27.21c0,1.17-0.58,2.11-1.75,2.82c-1.17,0.71-2.33,1.07-3.5,1.07c-1.55,0-2.95-0.29-4.18-0.87c-1.23-0.58-1.91-1.46-2.04-2.62
	c-0.91-6.35-1.98-11.18-3.21-14.48c-1.23-3.3-3.05-5.76-5.44-7.39c-2.4-1.62-5.8-2.49-10.2-2.62H56.48v50.54h34.79
	c1.03,0.13,1.81,0.62,2.33,1.46c0.52,0.84,0.78,1.85,0.78,3.01c0,1.04-0.26,1.94-0.78,2.72c-0.52,0.78-1.3,1.17-2.33,1.17H56.48
	v33.24c0.13,3.24,0.42,5.86,0.88,7.87c0.45,2.01,1.59,3.69,3.4,5.05c1.81,1.36,4.6,2.04,8.36,2.04h1.16c1.17,0,2.04,0.23,2.62,0.68
	c0.58,0.46,0.94,1.59,1.07,3.4c0,1.17-0.29,2.17-0.88,3.01c-0.58,0.84-1.46,1.26-2.62,1.26c-8.29-0.39-16.33-0.58-24.1-0.58
	c-7.13,0-14.9,0.19-23.32,0.58C22.01,446.31,21.2,445.88,20.62,445.04z"/>
<path d="M127.62,441.74c-6.87-4.21-12.21-9.78-16.04-16.72c-3.82-6.93-5.73-14.29-5.73-22.06c0-9.72,2.27-18.17,6.8-25.36
	c4.53-7.19,10.3-12.7,17.3-16.52c7-3.82,14.06-5.73,21.19-5.73c8.81,0,16.65,2.11,23.52,6.32c6.87,4.21,12.21,9.78,16.04,16.72
	c3.82,6.93,5.73,14.29,5.73,22.06c0,9.72-2.3,18.17-6.9,25.36c-4.6,7.19-10.4,12.7-17.4,16.52c-7,3.82-13.99,5.73-20.99,5.73
	C142.32,448.05,134.48,445.95,127.62,441.74z M170.47,429.59c4.08-7.51,6.12-17.23,6.12-29.15c0-11.14-2.11-20.24-6.32-27.31
	c-4.21-7.06-10.59-10.59-19.14-10.59c-8.94,0-15.42,3.69-19.44,11.08c-4.02,7.39-6.03,17.04-6.03,28.96
	c0,11.15,2.07,20.31,6.22,27.5c4.15,7.19,10.56,10.79,19.24,10.79C159.95,440.86,166.39,437.11,170.47,429.59z"/>
<path d="M200.41,445.14c-0.58-0.78-0.88-1.68-0.88-2.72c0.13-1.68,0.49-2.69,1.07-3.01c0.58-0.32,1.72-0.49,3.4-0.49
	c3.37,0,5.76-0.58,7.19-1.75c1.42-1.17,2.27-2.53,2.53-4.08c0.26-1.55,0.39-4.02,0.39-7.39v-94.85c0-3.37-0.1-5.83-0.29-7.39
	c-0.19-1.55-1.01-2.92-2.43-4.08c-1.43-1.17-3.82-1.75-7.19-1.75c-1.55,0-2.72-0.22-3.5-0.68c-0.78-0.45-1.17-1.52-1.17-3.21
	c0-0.78,0.26-1.52,0.78-2.24c0.52-0.71,1.29-1.13,2.33-1.26c8.16-1.17,15.16-2.85,20.99-5.05c1.81-0.65,3.3-1.04,4.47-1.17h0.58
	c2.07,0,3.11,1.23,3.11,3.69V425.7c0,3.37,0.13,5.83,0.39,7.39c0.26,1.55,1.1,2.92,2.53,4.08c1.42,1.17,3.82,1.75,7.19,1.75h1.17
	c1.04,0,1.81,0.19,2.33,0.58c0.52,0.39,0.84,1.36,0.97,2.92c0,1.04-0.26,1.94-0.78,2.72c-0.52,0.78-1.3,1.17-2.33,1.17
	c-7.52-0.39-14.32-0.58-20.41-0.58c-5.83,0-12.57,0.19-20.21,0.58C201.73,446.31,200.99,445.92,200.41,445.14z"/>
<path d="M248.22,445.14c-0.58-0.78-0.88-1.68-0.88-2.72c0.13-1.68,0.49-2.69,1.07-3.01c0.58-0.32,1.72-0.49,3.4-0.49
	c3.37,0,5.76-0.58,7.19-1.75c1.42-1.17,2.27-2.53,2.53-4.08c0.26-1.55,0.39-4.02,0.39-7.39v-94.85c0-3.37-0.1-5.83-0.29-7.39
	c-0.19-1.55-1.01-2.92-2.43-4.08c-1.43-1.17-3.82-1.75-7.19-1.75c-1.55,0-2.72-0.22-3.5-0.68c-0.78-0.45-1.17-1.52-1.17-3.21
	c0-0.78,0.26-1.52,0.78-2.24c0.52-0.71,1.29-1.13,2.33-1.26c8.16-1.17,15.16-2.85,20.99-5.05c1.81-0.65,3.3-1.04,4.47-1.17h0.58
	c2.07,0,3.11,1.23,3.11,3.69V425.7c0,3.37,0.13,5.83,0.39,7.39c0.26,1.55,1.1,2.92,2.53,4.08c1.42,1.17,3.82,1.75,7.19,1.75h1.17
	c1.04,0,1.81,0.19,2.33,0.58c0.52,0.39,0.84,1.36,0.97,2.92c0,1.04-0.26,1.94-0.78,2.72c-0.52,0.78-1.3,1.17-2.33,1.17
	c-7.52-0.39-14.32-0.58-20.41-0.58c-5.83,0-12.57,0.19-20.21,0.58C249.55,446.31,248.8,445.92,248.22,445.14z"/>
<path d="M319.07,441.74c-6.87-4.21-12.21-9.78-16.04-16.72c-3.82-6.93-5.73-14.29-5.73-22.06c0-9.72,2.27-18.17,6.8-25.36
	c4.53-7.19,10.3-12.7,17.3-16.52c7-3.82,14.06-5.73,21.19-5.73c8.81,0,16.65,2.11,23.52,6.32c6.87,4.21,12.21,9.78,16.04,16.72
	c3.82,6.93,5.73,14.29,5.73,22.06c0,9.72-2.3,18.17-6.9,25.36c-4.6,7.19-10.4,12.7-17.4,16.52c-7,3.82-13.99,5.73-20.99,5.73
	C333.77,448.05,325.93,445.95,319.07,441.74z M361.92,429.59c4.08-7.51,6.12-17.23,6.12-29.15c0-11.14-2.11-20.24-6.32-27.31
	c-4.21-7.06-10.59-10.59-19.14-10.59c-8.94,0-15.42,3.69-19.44,11.08c-4.02,7.39-6.03,17.04-6.03,28.96
	c0,11.15,2.07,20.31,6.22,27.5c4.15,7.19,10.56,10.79,19.24,10.79C351.4,440.86,357.84,437.11,361.92,429.59z"/>
<path d="M404,378.67c-2.2-5.05-4.28-8.52-6.22-10.4c-1.94-1.88-4.79-3.08-8.55-3.6c-0.39-0.13-1.1-0.26-2.14-0.39
	c-1.04-0.13-1.69-0.45-1.94-0.97c-0.26-0.52-0.39-1.42-0.39-2.72c0-1.55,0.42-2.53,1.26-2.92c0.84-0.39,1.88-0.61,3.11-0.68
	c1.23-0.06,2.04-0.1,2.43-0.1c7.9-0.39,14.12,0.75,18.66,3.4c4.53,2.66,8.29,7.29,11.27,13.9l17.88,50.34h0.58
	c4.02-12.44,10.3-34.72,18.85-66.86h9.33l26.63,66.86h0.58c2.2-6.74,4.34-14.41,6.41-23.03c2.07-8.62,3.31-13.57,3.69-14.87
	l3.5-13.8c0.39-1.55,0.58-2.85,0.58-3.89c0-1.81-0.58-3.01-1.75-3.6c-1.17-0.58-3.24-0.87-6.22-0.87h-1.17
	c-1.04,0-1.78-0.19-2.23-0.58c-0.46-0.39-0.75-1.36-0.88-2.92c0-0.9,0.22-1.78,0.68-2.62c0.45-0.84,1.13-1.26,2.04-1.26
	c7.39,0.39,13.73,0.58,19.05,0.58c3.24,0,8.68-0.19,16.33-0.58c0.91,0,1.62,0.42,2.14,1.26c0.52,0.84,0.78,1.72,0.78,2.62
	c-0.13,1.55-0.46,2.53-0.97,2.92c-0.52,0.39-1.3,0.58-2.33,0.58c-5.32,0-9.3,0.81-11.95,2.43c-2.66,1.62-4.57,4.63-5.73,9.04
	l-21.57,71.72h-11.47l-24.68-63.56l-19.24,63.56h-11.47L404,378.67z"/>
<path class="st0" d="M603.81,444.75l-43.73-98.93h-0.58l0.39,77.16c0.13,3.5,0.39,6.19,0.78,8.07c0.39,1.88,1.46,3.5,3.21,4.86
	c1.75,1.36,4.5,2.04,8.26,2.04h1.16c1.29,0,2.24,0.23,2.82,0.68c0.58,0.46,0.94,1.59,1.07,3.4c0,1.17-0.29,2.17-0.88,3.01
	c-0.58,0.84-1.46,1.26-2.62,1.26l-4.86-0.19c-5.96-0.26-10.24-0.39-12.83-0.39c-4.41,0-10.82,0.19-19.24,0.58
	c-1.17,0-2.04-0.42-2.62-1.26c-0.58-0.84-0.87-1.85-0.87-3.01c0.13-1.94,0.52-3.11,1.17-3.5c0.65-0.39,1.88-0.58,3.69-0.58
	c3.76,0,6.51-0.68,8.26-2.04c1.75-1.36,2.82-2.98,3.21-4.86c0.39-1.88,0.65-4.57,0.78-8.07l0.39-77.16c0-4.01-0.46-7.03-1.36-9.04
	c-0.91-2.01-2.24-3.43-3.98-4.28c-1.75-0.84-4.31-1.59-7.68-2.24c-0.52-0.13-1.3-0.29-2.33-0.49c-1.04-0.19-1.72-0.58-2.04-1.17
	c-0.32-0.58-0.49-1.52-0.49-2.82c0-1.56,0.42-2.59,1.26-3.11c0.84-0.52,2.17-0.78,3.98-0.78c7.64,0,13.93,0.49,18.85,1.46
	c4.92,0.97,9.23,2.95,12.93,5.93c3.69,2.98,6.77,7.39,9.23,13.22l33.43,75.03h0.58l38.29-94.46h11.08c7.12,0,14.84-0.19,23.13-0.58
	c1.17,0,2.04,0.42,2.62,1.26c0.58,0.84,0.88,1.85,0.88,3.01c-0.13,1.94-0.55,3.11-1.26,3.5c-0.71,0.39-1.91,0.58-3.6,0.58
	c-3.76,0-6.54,0.68-8.36,2.04c-1.82,1.36-2.95,3.05-3.4,5.05c-0.46,2.01-0.75,4.63-0.87,7.87v77.16c0.13,3.24,0.42,5.86,0.87,7.87
	c0.45,2.01,1.59,3.69,3.4,5.05c1.81,1.36,4.6,2.04,8.36,2.04h1.17c1.17,0,2.04,0.23,2.62,0.68c0.58,0.46,0.94,1.59,1.07,3.4
	c0,1.17-0.29,2.17-0.88,3.01c-0.58,0.84-1.46,1.26-2.62,1.26c-8.29-0.39-16.07-0.58-23.32-0.58c-7.52,0-15.48,0.19-23.91,0.58
	c-1.17,0-2.04-0.42-2.62-1.26c-0.58-0.84-0.87-1.85-0.87-3.01c0.13-1.94,0.52-3.11,1.16-3.5c0.65-0.39,1.88-0.58,3.69-0.58
	c3.76,0,6.54-0.68,8.36-2.04c1.81-1.36,2.95-3.04,3.4-5.05c0.45-2.01,0.74-4.63,0.88-7.87v-77.16h-0.58l-40.04,98.93
	c-0.52,1.29-1.82,1.94-3.89,1.94C605.95,446.69,604.59,446.04,603.81,444.75z"/>
<path class="st0" d="M698.95,445.04c-0.58-0.84-0.87-1.85-0.87-3.01c0.13-1.94,0.52-3.11,1.17-3.5c0.65-0.39,1.88-0.58,3.69-0.58
	c3.76,0,6.54-0.68,8.36-2.04c1.81-1.36,2.95-3.04,3.4-5.05c0.45-2.01,0.74-4.63,0.88-7.87v-77.16c-0.13-3.24-0.42-5.86-0.88-7.87
	c-0.46-2.01-1.59-3.69-3.4-5.05c-1.82-1.36-4.6-2.04-8.36-2.04h-1.17c-1.3,0-2.2-0.22-2.72-0.68c-0.52-0.45-0.84-1.59-0.97-3.4
	c0-1.17,0.29-2.17,0.87-3.01c0.58-0.84,1.39-1.26,2.43-1.26c8.55,0.39,16.26,0.58,23.13,0.58h30.32c12.44,0,23.74,2.5,33.92,7.48
	c10.17,4.99,18.2,12.15,24.1,21.48c5.89,9.33,8.84,20.34,8.84,33.04c0,13.22-3.34,24.39-10.01,33.53
	c-6.68,9.13-15.36,15.94-26.05,20.41c-10.69,4.47-22.13,6.71-34.31,6.71h-26.82c-6.87,0-14.58,0.19-23.13,0.58
	C700.34,446.31,699.53,445.88,698.95,445.04z M787.58,424.44c7.06-9.39,10.59-22.51,10.59-39.36c0-10.62-1.91-20.12-5.73-28.47
	c-3.82-8.36-9.36-14.87-16.62-19.53c-7.26-4.66-15.87-7-25.85-7l-15.16,0.19v95.04c0,5.05,1.52,8.52,4.57,10.4
	c3.04,1.88,8,2.82,14.87,2.82C769.41,438.53,780.52,433.84,787.58,424.44z"/>
<g>
	<path class="st0" d="M493.88,200.16c-9.45-3.14-13.03,8.16-9.12,14.91c0.47,1.15,1.04,2.69,1.49,3.91
		c3.12,9.63,20.77,45.3,13.49,52.12c-0.37,0.31-0.84,0.61-1.5,0.85c-0.73,0.28-1.2,0.33-1.47,0.32c-0.28,0-0.4-0.04-0.75-0.21
		c-4.84-3.42-7.22-8.99-10.23-14.25c-11.85-24.25-34.95-45.54-62.58-50.05c-11.89-1.74-23.94-3.57-35.24-7.77
		c-18.06-6.58-44.79-20.04-42.53-42.06c1.06-6.11-6.08-10.82-11.25-7.22c-7.9,5.31-16.06,9.93-24.64,12.97
		c-23.93,7.8-51.84,6.99-73.63-6.34c-14.51-7.84-17.49-24.4-12.19-39.2c4.25-13.68,13.96-24.77,23.27-35.4
		c6.47-7.32,13.28-14.34,20.49-20.89c21.54-19.91,47.6-34.55,76.08-41.8c47.69-13.69,100.01-4.36,141.1,23.26
		C443.95,14.07,391.29,3.24,342.46,15.6c-39.65,8.47-74.4,32.03-101.55,61.58c-14.29,14.81-28.36,32.23-29.71,53.68
		c-1.17,18.86,9.37,31.92,25.61,40.02c29.11,15.18,65.33,13.41,94.26-1.33c5.36,29.41,43.23,46.58,69.96,52.7
		c6.14,1.45,12.5,2.18,18.66,3.31c10.94,2.23,21.02,6.91,29.46,14.02c6.38,5.34,11.88,12.05,16.33,19.2
		c4.36,6.84,7.61,14.33,12.94,20.81c14.26,19.72,41.81,8.45,40.22-15.07c-0.42-9.03-3.73-17.14-6.8-25.25
		c-2.59-6.6-5.64-13.29-8.51-19.85c7.02,1.58,14.3,1.83,21.38-0.88c12.82-4.45,19.26-19.54,15.21-31.6
		C531.33,210.83,513.66,209.73,493.88,200.16z"/>
</g>
<path d="M612.52,107.66c-14.57-0.23-53.87-1.48-100.98-3.53l-0.32-0.89c-3.47-9.37-9.93-26.83-24.47-22.42
	c-12.47,4.68-17.47,31.67-21.11,51.39c-0.89,4.84-1.67,9.01-2.42,12.05c-0.42,2-0.83,4.06-1.25,6.15c-0.26,1.32-0.52,2.65-0.8,3.98
	c-0.17-0.97-0.33-1.93-0.48-2.89c-0.25-1.49-0.49-2.97-0.74-4.4c-2.05-12.62-3.53-25.52-4.97-38c-2.1-18.25-4.27-37.12-8.28-55.72
	l-0.17-0.57c-0.95-3.31-2.26-7.85-5.87-10.69c-2.57-1.93-5.59-2.47-8.48-1.54c-3.4,1.1-6.34,4.2-7.48,7.86
	c-2.64,7.33-3.91,15.98-5.14,24.34c-0.45,3.06-0.89,6.04-1.38,8.87c-0.42,2.81-0.83,5.61-1.24,8.42
	c-1.62,11.17-3.3,22.72-5.92,33.79c-0.02,0.07-0.03,0.14-0.05,0.21c-0.75-2.27-1.51-4.74-2.3-7.28c-4.3-13.98-9.18-29.82-18.82-33.7
	c-3.83-1.54-8.09-1.03-12.85,1.64c-6.37,4.98-8.95,11.25-11.28,17.39c-30.62,2.57-61.01,3.43-89.29,3.98l-31.24,0.29
	c-0.49,0.02-0.98,0.15-1.58,0.46c-0.39,0.21-0.74,0.47-1.19,0.95c-0.22,0.27-0.42,0.57-0.57,0.9l-0.16,0.4
	c-0.33,0.92-0.31,1.9,0.09,2.87l0.17,0.37c0.38,0.69,0.98,1.25,1.79,1.66c0.5,0.24,1.01,0.38,1.57,0.4l12.27,0.03
	c33.08,0,73.41,0.3,107.89,0.81l5.5,0.09c0.83,0.02,1.89,0.06,2.87-0.41c1.55-0.59,2.82-2.41,2.96-3.47
	c4.08-11.69,7.31-15.41,8.18-15.3c0.03,0.01,0.19,0.1,0.42,0.42c4.32,6.36,6.54,14.08,8.69,21.53c0.91,3.16,1.85,6.42,2.97,9.62
	c0.52,1.32,0.98,2.73,1.44,4.16c1.81,5.54,3.85,11.82,10.23,14.82c10.24,2.94,14.06-9.32,16.11-15.9l0.11-0.37
	c3.13-11.18,5.09-22.53,6.98-33.51l1.82-10.61c0.23-1.38,0.46-2.75,0.7-4.13c0.12,0.87,0.25,1.73,0.38,2.58
	c0.69,5.45,1.43,11.54,2.21,17.91c1.9,15.57,4.05,33.23,6.09,46.61c0.49,2.49,0.9,5.07,1.31,7.69c1.44,9.21,2.94,18.73,8.51,26.36
	c1.95,2.42,5.12,3.75,8.19,3.75c1.68,0,3.34-0.4,4.74-1.24c2.49-1.37,4.53-3.84,6.23-7.61c2.52-5.88,3.87-12.08,5.18-18.06
	l1.57-7.67c2.45-12.45,6.55-33.28,9.01-42.14l0.54-1.79c0.87-2.94,1.77-5.95,2.99-8.6c0.42,0.8,0.84,1.67,1.29,2.62
	c1.38,3.07,2.69,6.58,3.97,10.58c0.9,4.09,4.43,7.13,8.37,7l107.48-2.55c2.7-0.05,4.89-2.28,4.89-4.98
	C617.4,109.94,615.21,107.71,612.52,107.66z"/>
</svg>
