<?xml version="1.0" encoding="utf-8"?>
<!-- Generator: Adobe Illustrator 21.1.0, SVG Export Plug-In . SVG Version: 6.00 Build 0)  -->
<svg version="1.1" id="Layer_1" xmlns="http://www.w3.org/2000/svg" xmlns:xlink="http://www.w3.org/1999/xlink" x="0px" y="0px"
	 viewBox="0 0 1000 1000" style="enable-background:new 0 0 1000 1000;" xml:space="preserve">
<style type="text/css">
	.st0{fill:#33CCCC;}
	.st1{fill:#FFFFFF;}
	.st2{fill:#00106A;}
</style>
<g>
	<g>
		<rect x="137.5" y="255.9" class="st0" width="725" height="482.8"/>
		<path class="st1" d="M898,739.7H102V242.2c0-16.7,13.5-30.2,30.2-30.2h735.7c16.7,0,30.2,13.5,30.2,30.2V739.7z M859.6,738.7
			V261.8H140.4v476.9H859.6z"/>
		<path class="st2" d="M901.9,743.6H98.1V242.2c0-18.8,15.3-34.1,34.1-34.1h735.7c18.8,0,34.1,15.3,34.1,34.1V743.6z M863.5,735.8
			h30.6V242.2c0-14.5-11.8-26.2-26.2-26.2H132.2c-14.5,0-26.2,11.8-26.2,26.2v493.6h30.6V257.9h727V735.8z M144.4,734.8h711.2v-469
			H144.4V734.8z"/>
		<path class="st1" d="M96.1,787.9h807.8c27.3,0,49.3-24.8,49.3-55.4V732H46.8v0.6C46.8,763.1,68.9,787.9,96.1,787.9z"/>
		<path class="st2" d="M903.9,791.9H96.1c-29.4,0-53.3-26.6-53.3-59.4V728h914.3v4.5C957.2,765.2,933.3,791.9,903.9,791.9z
			 M50.8,735.9c1.5,26.8,21.3,48.1,45.3,48.1h807.8c24,0,43.8-21.3,45.3-48.1H50.8z"/>
		<path class="st1" d="M578.5,766.2h-157c-18.7,0-33.9-15.2-33.9-33.9V732h224.7v0.3C612.4,751,597.2,766.2,578.5,766.2z"/>
		<path class="st2" d="M578.5,770.1h-157c-20.8,0-37.8-17-37.8-37.8v-3.9l3.9-0.3h228.7v3.9C616.3,753.2,599.3,770.1,578.5,770.1z
			 M391.8,735.9c1.9,15,14.5,26.3,29.7,26.3h157c15.3,0,27.9-11.5,29.7-26.3H391.8z"/>
		<circle class="st0" cx="500" cy="236.9" r="10.9"/>
	</g>
	<g>
		<path class="st1" d="M348.8,461.9V330.1h57.1v19.8h-28v33.2h24.1v20.4h-24.1v58.5H348.8z"/>
		<path class="st1" d="M422.5,461.9V330.1h35.9c5.6,0,10.5,0.3,14.8,1c4.3,0.6,8.3,1.7,12.1,3.3c3.8,1.6,6.9,3.7,9.3,6.3
			c2.4,2.6,4.3,5.9,5.7,10c1.4,4.1,2.1,8.9,2.1,14.3c0,8.6-1.2,15.6-3.5,20.8c-2.3,5.2-6.5,9.3-12.6,12.2l18.1,63.8h-30.1l-14.5-59
			h-8.2v59H422.5z M451.6,386.2h7.5c5.9,0,10.1-1.5,12.6-4.6c2.4-3.1,3.7-7.7,3.7-13.9c0-6.1-1.1-10.6-3.3-13.6
			c-2.2-2.9-6-4.4-11.4-4.4h-9V386.2z"/>
		<path class="st1" d="M523.1,461.9V330.1h59.2V350h-30.1v32.6h23v20.3h-23v39.4h30.4v19.7H523.1z"/>
		<path class="st1" d="M599.1,461.9V330.1h59.2V350h-30.1v32.6h23v20.3h-23v39.4h30.4v19.7H599.1z"/>
		<path class="st1" d="M206.7,657.3l-15.9-131.8h24.7l7.8,76.6l10.1-76.6h19.2l10.6,76.2l7.9-76.2h24.4l-16,131.8h-25.3l-11.2-79.5
			l-10.8,79.5H206.7z"/>
		<path class="st1" d="M313,657.3V525.5h59.2v19.9h-30.1V578h23v20.3h-23v39.4h30.4v19.7H313z"/>
		<path class="st1" d="M389,657.3V525.5h34.3c4.9,0,9.3,0.3,13.2,0.8c3.8,0.5,7.7,1.5,11.4,3c3.8,1.5,6.9,3.5,9.4,5.9
			c2.5,2.5,4.4,5.8,5.9,10.1c1.4,3.9,2,8.5,2,13.7c0,0.4,0,0.7,0,1.1c-0.2,15.4-6.7,24.2-19.3,26.5c7.6,1,13.4,4.2,17.3,9.5
			c4,5.4,6,12.7,6.1,22.2c0,0.3,0,0.6,0,0.9c-0.1,12.9-3.4,22.4-10.1,28.7c-6.9,6.4-16.8,9.5-29.7,9.5H389z M418.1,578.2h5.6
			c6.3,0,10.5-1.4,12.8-4.2c2.3-2.8,3.4-7.3,3.4-13.4c0-10.4-5.7-15.6-17.1-15.6h-4.6V578.2z M418.1,637h6.1
			c6.3,0,10.7-1.5,13.3-4.6c2.5-3.1,3.8-7.9,3.8-14.5c0-7.4-1.3-12.7-3.9-15.7c-2.6-3.1-7.1-4.6-13.6-4.6h-5.7V637z"/>
		<path class="st1" d="M488.2,657.3V525.5h29.1v131.8H488.2z"/>
		<path class="st1" d="M540.1,657.3V525.5h20.5l27.1,63.3v-63.3h24.2v131.8h-19.7L565,589.1v68.2H540.1z"/>
		<path class="st1" d="M628.2,657.3l25-131.8h32.9l24.8,131.8H684l-4.5-28h-19.2l-4.5,28H628.2z M662.8,611.9h14.1l-7.1-51
			L662.8,611.9z"/>
		<path class="st1" d="M727.4,657.3V525.5h35.9c5.6,0,10.5,0.3,14.8,1c4.3,0.6,8.3,1.7,12.1,3.3c3.8,1.6,6.9,3.7,9.3,6.3
			c2.4,2.6,4.3,5.9,5.7,10c1.4,4.1,2.1,8.9,2.1,14.3c0,8.6-1.2,15.6-3.5,20.8c-2.3,5.2-6.5,9.3-12.6,12.2l18.1,63.8h-30.1l-14.5-59
			h-8.2v59H727.4z M756.5,581.5h7.5c5.9,0,10.1-1.5,12.6-4.6c2.4-3.1,3.7-7.7,3.7-13.9c0-6.1-1.1-10.6-3.3-13.6
			c-2.2-2.9-6-4.4-11.4-4.4h-9V581.5z"/>
	</g>
</g>
</svg>
