<?xml version="1.0" encoding="utf-8"?>
<!-- Generator: Adobe Illustrator 19.1.0, SVG Export Plug-In . SVG Version: 6.00 Build 0)  -->
<svg version="1.1" id="icons" xmlns="http://www.w3.org/2000/svg" xmlns:xlink="http://www.w3.org/1999/xlink" x="0px" y="0px"
	 viewBox="-79 -120 800 800" style="enable-background:new -79 -120 800 800;" xml:space="preserve">
<style type="text/css">
	.st0{fill:#545454;}
	.st1{fill:#EEEEEE;}
	.st2{fill:#333333;}
	.st3{fill:#C9C9C9;}
	.st4{fill:#C44542;}
</style>
<circle class="st0" cx="304.2" cy="295.1" r="380.9"/>
<circle class="st1" cx="304.2" cy="295.1" r="309.9"/>
<circle class="st0" cx="304.2" cy="295.1" r="242.5"/>
<circle class="st1" cx="304.2" cy="295.1" r="178.3"/>
<circle class="st0" cx="304.2" cy="295.1" r="109.1"/>
<circle class="st1" cx="304.2" cy="295.1" r="46"/>
<path class="st2" d="M586.2,552.1l-50.4-50.4c-6.2,6.9-13.4,14.1-20.3,20.3l50.4,50.4C572.8,565.9,579.3,559.4,586.2,552.1z"/>
<path class="st3" d="M467.7,474.5l48.2,48.2c6.9-6.5,13.8-13.4,20.3-20.3L488,454.2C481.5,461.1,474.8,468,467.7,474.5z"/>
<path class="st2" d="M487.5,453.9l-45.3-45.3c-6.2,7.6-12.7,14.1-19.9,20.7l45.3,45.3C474.8,468,481.5,461.1,487.5,453.9z"/>
<path class="st3" d="M372.7,380l48.9,48.9c6.9-6.2,13.8-13.4,19.9-20.7l-48.9-49.3C386.8,366.9,380.3,373.8,372.7,380z"/>
<path class="st2" d="M392.7,358.9l-46-46c-4,9.4-10.5,16.7-18.8,21.7l45.3,45.3C380.3,373.8,386.8,366.9,392.7,358.9z"/>
<path class="st3" d="M296.3,282.8c-2.5,2.5-4.3,6.5-4.3,10.1s1.4,7.6,4.3,10.1l31.2,31.2c8.3-4.7,14.9-12.3,18.8-21.7l-30.1-30.1
	C311,277.7,302,277.7,296.3,282.8z"/>
<path class="st4" d="M718.8-29.9l-73.2-13.8l0,0l-13.8-73.2l-63.4,63.4l10.2,54.4l-282.3,282c-5.8,5.8-5.8,14.5,0,20.3
	c2.5,2.5,6.5,4.3,10.1,4.3c3.6,0,7.6-1.4,10.1-4.3l280.9-281l58,10.5L718.8-29.9z"/>
</svg>
