<?xml version="1.0" encoding="utf-8"?>
<!-- Generator: Adobe Illustrator 19.1.0, SVG Export Plug-In . SVG Version: 6.00 Build 0)  -->
<svg version="1.1" id="Layer_1" xmlns="http://www.w3.org/2000/svg" xmlns:xlink="http://www.w3.org/1999/xlink" x="0px" y="0px"
	 viewBox="50 -70 700 700" style="enable-background:new 50 -70 700 700;" xml:space="preserve">
<style type="text/css">
	.st0{fill:#00ACB5;}
	.st1{fill:#ED5A86;}
</style>
<g id="Ñëîé_4">
	<g>
		<path class="st0" d="M351.2,196.7l0.5-1.9l0.2-0.2c4.7-4.9,9.3-9.6,13.8-14.2l26-26l-0.1-0.1l0.7-0.7c1.1-1.1,2.2-2.1,3.2-3.1
			c-0.9-0.9-2.1-2.1-3.6-3.6c-5.6-5.7-15-15.2-17.5-17.1c-18.9-14.6-41.5-22.3-65.4-22.3c-58.9,0-106.8,47.9-106.8,106.8
			c0,28.8,11.3,55.7,31.7,75.9c3.6,3,13.1,11.8,13.2,11.9l0.4,0.4c0.5-1.4,1.2-3.3,2-4.3c5.1-6.3,9.4-10.7,16.7-17.3l0.4-0.3
			l0.4-0.2c0.2-0.1,0.5-0.3,0.7-0.4c0.3-0.2,0.7-0.3,1-0.5c0.3-0.1,0.5-0.2,0.8-0.3c0.3-0.1,0.7-0.3,1-0.4s0.5-0.2,0.8-0.3
			c0.4-0.1,0.7-0.2,1.1-0.3c0.2-0.1,0.5-0.1,0.7-0.2c0.4-0.1,0.8-0.2,1.1-0.2h0.2c0.2,0,0.3-0.1,0.5-0.1c0.4-0.1,0.9-0.1,1.3-0.2
			h0.2c0.2,0,0.3,0,0.5-0.1c0.5,0,0.9-0.1,1.4-0.1l70.1-70.1L351.2,196.7z"/>
		<path class="st0" d="M541.1,303.9L429.2,192l-29.7,29.7l-5.1,19c-2.7,10.1-10.7,23-25,28.9c-1.5,0.6-3.1,1.2-4.6,1.6
			c-1.1,0.3-2.2,0.5-3.3,0.7c-2,0.4-5.4,0.6-9.9,0.6c-6,0-12.6-0.3-15.2-0.5h-0.8l-4.4-0.3l17.1-64.7l-70.1,70.1c0.2,0,0.4,0,0.5,0
			c6.4,0,12.4,2.5,17,7l3.6,3.6c0.4,0.4,0.9,1,1.4,1.5c0.1,0.1,0.2,0.2,0.3,0.3l0.1,0.2c0.3,0.4,0.6,0.7,0.8,1.1
			c0.1,0.2,0.2,0.3,0.3,0.5l0.1,0.1c0.2,0.4,0.5,0.7,0.8,1.2c0.1,0.2,0.2,0.4,0.3,0.5c0.2,0.4,0.4,0.8,0.6,1.3l0.1,0.2
			c0.1,0.1,0.1,0.3,0.2,0.4c0.3,0.7,0.5,1.3,0.7,1.9l0.1,0.2c0.2,0.6,0.3,1.1,0.5,1.7c0,0.2,0.1,0.3,0.1,0.5v0.2
			c0.1,0.4,0.2,0.9,0.3,1.3c0,0.2,0.1,0.5,0.1,0.7c0.1,0.4,0.1,0.9,0.1,1.3c0,0,0,0.5,0.1,0.7c0,0.5,0,1,0,1.4c0,0,0,0.4,0,0.6
			c0,0.7-0.1,1.3-0.1,2c0,0.1-0.1,0.4-0.1,0.4c-0.1,0.5-0.2,1.1-0.3,1.6c0,0.2-0.1,0.4-0.1,0.6l-0.1,0.3c0.5-0.1,1-0.2,1.6-0.3
			l0.3-0.1c0.6-0.1,1.2-0.2,1.7-0.2c0.1,0,0.3,0,0.4,0c0.7-0.1,1.3-0.1,1.8-0.1c5.6,0,10.9,1.9,15.2,5.4c0.6,0.5,1.2,1,1.8,1.6
			l3.6,3.6c0.4,0.4,0.8,0.8,1.2,1.2c0.1,0.1,0.2,0.2,0.3,0.4c0.3,0.3,0.5,0.6,0.7,0.9c0.1,0.2,0.2,0.3,0.3,0.5
			c0.2,0.3,0.5,0.7,0.7,1l0.3,0.4c0.3,0.5,0.6,1,0.8,1.5v0.1c0.2,0.3,0.3,0.6,0.4,0.9l0,0l0.6,1.4c1,2.5,1.5,5.1,1.6,7.4v0.1
			c0,0.5,0,1,0,1.5v0.4c0,0.4,0,0.7-0.1,1.1v0.4c0,0.4-0.1,0.7-0.1,1.1l-0.1,0.4c-0.1,0.5-0.2,0.9-0.3,1.4c0,0-0.1,0.4-0.1,0.5
			c0.5-0.1,1-0.2,1.5-0.3l0.3-0.1c0.6-0.1,1.2-0.2,1.8-0.2h0.4c0.7-0.1,1.3-0.1,1.9-0.1c6.4,0,12.5,2.5,17,7l3.6,3.6
			c0.5,0.5,0.9,1,1.4,1.6c0.1,0.1,0.2,0.2,0.3,0.4l0.1,0.1c0.3,0.4,0.6,0.8,0.9,1.1c0.1,0.2,0.2,0.4,0.4,0.5l0.1,0.1
			c0.2,0.4,0.5,0.8,0.7,1.1c0.1,0.2,0.3,0.4,0.4,0.7c0.2,0.4,0.4,0.8,0.6,1.2l0.1,0.2c0.1,0.1,0.1,0.3,0.2,0.4
			c0.2,0.5,0.4,1.1,0.6,1.7c0,0.1,0.1,0.2,0.1,0.2c0.2,0.6,0.4,1.3,0.5,1.9c0,0.1,0.1,0.6,0.1,0.6c0.1,0.5,0.2,0.9,0.3,1.4
			c0,0.2,0.1,0.4,0.1,0.6v0.1c0.1,0.4,0.1,0.9,0.1,1.3c0,0.3,0,0.5,0,0.8c0,0.4,0,0.9,0,1.3v0.2c0,0.2,0,0.4,0,0.5
			c0,0.5-0.1,1-0.1,1.5c0,0,0,0.4,0,0.5c-0.1,0.7-0.2,1.3-0.3,2c0,0.1-0.1,0.2-0.1,0.4c0,0-0.1,0.5-0.2,0.7c0.5-0.1,0.9-0.2,1.5-0.3
			h0.2c0.6-0.1,1.1-0.2,1.7-0.2h0.4c0.6,0,1.2-0.1,1.8-0.1c6.4,0,12.4,2.5,16.9,7l3.6,3.6c0.5,0.5,1,1,1.5,1.6
			c0.1,0.1,0.2,0.2,0.3,0.4l0.2,0.3c0.3,0.3,0.5,0.7,0.8,1c0.1,0.2,0.2,0.3,0.3,0.5l0.3,0.4c0.2,0.3,0.4,0.6,0.5,0.9
			c0.1,0.2,0.2,0.4,0.3,0.6l0.2,0.5c0.1,0.3,0.3,0.5,0.4,0.8c0.1,0.2,0.2,0.4,0.3,0.7l0.2,0.4c0.1,0.3,0.2,0.6,0.3,0.9
			c0.1,0.2,0.2,0.5,0.2,0.7l0.1,0.4c0.1,0.3,0.2,0.6,0.3,0.9c0.1,0.3,0.1,0.5,0.2,0.8l0.1,0.3c0.1,0.3,0.1,0.7,0.2,1
			c0,0.3,0.1,0.6,0.1,0.9v0.1c0,0.4,0.1,0.7,0.1,1.1c0,0.3,0,0.7,0.1,1c0,0.4,0,0.7,0,1.1c0,0.3,0,0.7,0,1c0,0.4,0,0.7-0.1,1.1
			c0,0.3-0.1,0.7-0.1,1c0,0.4-0.1,0.7-0.2,1.1c-0.1,0.3-0.1,0.7-0.2,1c-0.1,0.4-0.2,0.7-0.3,1.1c-0.1,0.3-0.2,0.6-0.3,1
			c-0.1,0.3-0.2,0.7-0.4,1c-0.1,0.3-0.2,0.6-0.4,0.9c-0.1,0.3-0.3,0.7-0.5,1c-0.1,0.3-0.3,0.6-0.4,0.9s-0.3,0.5-0.4,0.8l4.6,4.6
			c3.2,3.2,7.5,5,12,5c4.6,0,8.8-1.8,12-5l3.6-3.6c3.2-3.2,5-7.5,5-12c0-4.6-1.8-8.8-5-12l-80.5-80.5l4.9-4.9l84.3,84.3
			c3.2,3.2,7.5,5,12,5c4.6,0,8.8-1.8,12-5l3.6-3.6c6.6-6.6,6.6-17.4,0-24L385,279.1l5-5l87.3,87.3c3.2,3.2,7.5,5,12,5
			c4.6,0,8.8-1.8,12-5l3.6-3.6c6.6-6.6,6.6-17.4,0-24l-87.3-87.3l4.8-4.8l2.9,2.6l87.6,87.6c3.2,3.2,7.5,5,12,5s8.8-1.8,12-5
			l3.6-3.6c3.2-3.2,5-7.5,5-12S544.3,307.1,541.1,303.9z"/>
		<path class="st1" d="M307.1,362.5c-4.6,0-8.8-1.8-12-5l-3.6-3.6c-6.6-6.6-6.6-17.4,0-24l8.2-8.2c0.4-0.4,0.9-0.8,1.4-1.2
			c3-2.4,6.8-3.7,10.6-3.7c4.6,0,8.8,1.8,12,4.9l3.6,3.6c0.6,0.6,1.2,1.3,1.7,2c1.5,2,2.5,4.4,3,6.9l0.1,0.3v0.3v0.2
			c0.6,4.7-0.7,9.4-3.5,13c-0.4,0.5-0.8,1-1.2,1.4l-8.2,8.2C315.9,360.7,311.6,362.5,307.1,362.5z"/>
		<path class="st1" d="M339.8,395c-4.6,0-8.8-1.8-12-5l-3.6-3.6c-3.2-3.2-5-7.5-5-12c0-4.6,1.8-8.8,5-12l8.2-8.2
			c0.4-0.4,0.8-0.8,1.3-1.2c3-2.5,6.8-3.8,10.7-3.8c1.7,0,3.4,0.2,5,0.7c0.6,0.2,1.3,0.4,1.9,0.7c1.9,0.8,3.6,2,5.1,3.5l3.6,3.6
			c6.1,6.1,6.6,16.1,1.2,22.8c-0.4,0.4-0.7,0.9-1.2,1.3l-8.2,8.2C348.7,393.2,344.4,395,339.8,395z"/>
		<path class="st1" d="M372.1,428.2c-4.6,0-8.8-1.8-12-5l-3.6-3.6c-6.6-6.6-6.6-17.4,0-24l8.2-8.2c0.5-0.5,1-0.9,1.7-1.5
			c2.9-2.2,6.6-3.5,10.3-3.5c4.5,0,8.8,1.8,12,4.9l3.6,3.6c6,6,6.6,15.6,1.5,22.3c-0.5,0.7-1,1.2-1.5,1.7l-8.2,8.2
			C381,426.4,376.7,428.2,372.1,428.2z"/>
		<path class="st1" d="M274.3,330c-4.6,0-8.8-1.8-12-5l-3.6-3.6c-6.6-6.6-6.6-17.4,0-24l8.2-8.2c0.4-0.4,0.9-0.9,1.5-1.3
			c3-2.3,6.7-3.6,10.5-3.6c4.5,0,8.8,1.8,12,4.9l3.6,3.6c2.6,2.6,4.2,5.9,4.8,9.5c0.3,1.7,0.2,3.4,0,5.1c-0.4,2.9-1.6,5.6-3.4,7.9
			l-0.1,0.1c-0.5,0.6-0.9,1-1.3,1.4l-8.2,8.2C283.1,328.2,278.9,330,274.3,330z"/>
		<path class="st1" d="M551,304.7c-2.2-2.3-9.8-10.2-20.5-21.2l-3.4-3.5l0,0l-97.8-97.8l-36,36l-5.6,20.8
			c-2.2,8.3-10.5,23.1-27.4,26.2c-1.6,0.3-4.5,0.4-8.6,0.4c-3.9,0-8.2-0.1-11.4-0.3l17.2-65l0.7-2.4l43.4-43.4l-0.1-0.1l3.2-3.2
			l-0.1-0.1c0.9-0.9,2.1-2.1,3.6-3.6c5.6-5.7,15-15.2,17.4-17.1c18.9-14.6,41.5-22.3,65.4-22.3c58.9,0,106.8,47.9,106.8,106.8
			c0,28.8-11.3,55.7-31.7,76C562.9,293.3,553.6,302.1,551,304.7z"/>
	</g>
</g>
</svg>
