<svg xmlns="http://www.w3.org/2000/svg" xmlns:xlink="http://www.w3.org/1999/xlink" viewBox="0 0 475.63 416.43"><defs><style>.cls-1{fill:url(#radial-gradient);}.cls-2{fill:url(#radial-gradient-2);}.cls-3{fill:url(#radial-gradient-3);}.cls-4{fill:url(#radial-gradient-4);}.cls-5{fill:url(#radial-gradient-5);}.cls-6{fill:url(#radial-gradient-6);}.cls-7{fill:url(#radial-gradient-7);}.cls-8{fill:url(#radial-gradient-8);}.cls-9{fill:url(#radial-gradient-9);}.cls-10{fill:url(#radial-gradient-10);}.cls-11{fill:url(#radial-gradient-11);}.cls-12{fill:url(#radial-gradient-12);}.cls-13{fill:url(#radial-gradient-13);}.cls-14{fill:url(#radial-gradient-14);}.cls-15{fill:url(#radial-gradient-15);}.cls-16{fill:url(#radial-gradient-16);}.cls-17{fill:url(#radial-gradient-17);}.cls-18{fill:url(#radial-gradient-18);}.cls-19{fill:url(#radial-gradient-19);}.cls-20{fill:url(#radial-gradient-20);}.cls-21{fill:url(#radial-gradient-21);}.cls-22{fill:url(#radial-gradient-22);}.cls-23{fill:url(#radial-gradient-23);}.cls-24{fill:url(#radial-gradient-24);}.cls-25{fill:url(#radial-gradient-25);}.cls-26{fill:url(#radial-gradient-26);}.cls-27{fill:url(#radial-gradient-27);}.cls-28{fill:url(#radial-gradient-28);}.cls-29{fill:url(#radial-gradient-29);}.cls-30{fill:url(#radial-gradient-30);}.cls-31{fill:url(#radial-gradient-31);}.cls-32{fill:url(#radial-gradient-32);}.cls-33{fill:#00703c;}.cls-34{fill:#c41230;}.cls-35{fill:#8dc63f;}</style><radialGradient id="radial-gradient" cx="89.57" cy="34.48" r="13.74" gradientUnits="userSpaceOnUse"><stop offset="0.02" stop-color="#fceb01"/><stop offset="0.85" stop-color="#f6a01a"/></radialGradient><radialGradient id="radial-gradient-2" cx="147.48" cy="17.87" r="12.7" xlink:href="#radial-gradient"/><radialGradient id="radial-gradient-3" cx="129.19" cy="19.96" r="12.88" xlink:href="#radial-gradient"/><radialGradient id="radial-gradient-4" cx="71.27" cy="46.46" r="14.03" xlink:href="#radial-gradient"/><radialGradient id="radial-gradient-5" cx="41.23" cy="78.2" r="13.89" xlink:href="#radial-gradient"/><radialGradient id="radial-gradient-6" cx="18.09" cy="136.32" r="12.64" xlink:href="#radial-gradient"/><radialGradient id="radial-gradient-7" cx="30.28" cy="97.11" r="13.48" xlink:href="#radial-gradient"/><radialGradient id="radial-gradient-8" cx="22.49" cy="117.39" r="12.89" xlink:href="#radial-gradient"/><radialGradient id="radial-gradient-9" cx="165.74" cy="20.46" r="12.87" xlink:href="#radial-gradient"/><radialGradient id="radial-gradient-10" cx="55.01" cy="61.17" r="14.08" xlink:href="#radial-gradient"/><radialGradient id="radial-gradient-11" cx="270.94" cy="120" r="12.78" xlink:href="#radial-gradient"/><radialGradient id="radial-gradient-12" cx="146.37" cy="147.36" r="107.29" xlink:href="#radial-gradient"/><radialGradient id="radial-gradient-13" cx="263.57" cy="99.58" r="13.39" xlink:href="#radial-gradient"/><radialGradient id="radial-gradient-14" cx="274.9" cy="138.62" r="12.59" xlink:href="#radial-gradient"/><radialGradient id="radial-gradient-15" cx="205.48" cy="35.81" r="13.78" xlink:href="#radial-gradient"/><radialGradient id="radial-gradient-16" cx="223.56" cy="48.15" r="14.03" xlink:href="#radial-gradient"/><radialGradient id="radial-gradient-17" cx="185.8" cy="26.5" r="13.33" xlink:href="#radial-gradient"/><radialGradient id="radial-gradient-18" cx="239.54" cy="63.16" r="14.04" xlink:href="#radial-gradient"/><radialGradient id="radial-gradient-19" cx="253.01" cy="80.46" r="13.82" xlink:href="#radial-gradient"/><radialGradient id="radial-gradient-20" cx="109.42" cy="25.56" r="13.27" xlink:href="#radial-gradient"/><radialGradient id="radial-gradient-21" cx="238.1" cy="232.61" r="13.69" xlink:href="#radial-gradient"/><radialGradient id="radial-gradient-22" cx="274.72" cy="157.08" r="12.53" xlink:href="#radial-gradient"/><radialGradient id="radial-gradient-23" cx="270.43" cy="176.09" r="12.7" xlink:href="#radial-gradient"/><radialGradient id="radial-gradient-24" cx="251.85" cy="215.48" r="13.56" xlink:href="#radial-gradient"/><radialGradient id="radial-gradient-25" cx="262.74" cy="196.46" r="13.22" xlink:href="#radial-gradient"/><radialGradient id="radial-gradient-26" cx="28.81" cy="193.92" r="13.21" xlink:href="#radial-gradient"/><radialGradient id="radial-gradient-27" cx="17.71" cy="154.76" r="12.56" xlink:href="#radial-gradient"/><radialGradient id="radial-gradient-28" cx="52.71" cy="230.55" r="13.71" xlink:href="#radial-gradient"/><radialGradient id="radial-gradient-29" cx="39.29" cy="213.14" r="13.56" xlink:href="#radial-gradient"/><radialGradient id="radial-gradient-30" cx="21.56" cy="173.43" r="12.68" xlink:href="#radial-gradient"/><radialGradient id="radial-gradient-31" cx="68.67" cy="245.67" r="13.64" xlink:href="#radial-gradient"/><radialGradient id="radial-gradient-32" cx="86.77" cy="258.11" r="13.35" xlink:href="#radial-gradient"/></defs><g id="Layer_2" data-name="Layer 2"><g id="Layer_1-2" data-name="Layer 1"><g id="Color"><path class="cls-1" d="M101.29,44.8,77.85,17,87.6,52A111.61,111.61,0,0,1,101.29,44.8Z"/><path class="cls-2" d="M146.49,35.39h0c2.93,0,5.85.12,8.75.34L147.85,0l-8.13,35.61C142,35.47,144.24,35.39,146.49,35.39Z"/><path class="cls-3" d="M136.86,35.8l-13.18-34-2.16,36.41A114.68,114.68,0,0,1,136.86,35.8Z"/><path class="cls-4" d="M85.11,53.58,57.42,30,72.8,62.93A114,114,0,0,1,85.11,53.58Z"/><path class="cls-5" d="M58.1,78.47,24.35,65.18l25.11,26A113.35,113.35,0,0,1,58.1,78.47Z"/><path class="cls-6" d="M35.93,128.72.25,133.06l34.2,10.85A109.74,109.74,0,0,1,35.93,128.72Z"/><path class="cls-7" d="M48,93.89,12.6,86.37l28.95,21.47A110.41,110.41,0,0,1,48,93.89Z"/><path class="cls-8" d="M40.48,110.8l-36-1.59,32,16.36A110.2,110.2,0,0,1,40.48,110.8Z"/><path class="cls-9" d="M173.38,38.67,172,2.25,158.11,36A110.32,110.32,0,0,1,173.38,38.67Z"/><path class="cls-10" d="M61.69,74.11a112.35,112.35,0,0,1,8.91-9.2L39.43,46.22,60,76.13C60.54,75.45,61.11,74.78,61.69,74.11Z"/><path class="cls-11" d="M256.63,127.83l32.28-15.66L253,113A112.55,112.55,0,0,1,256.63,127.83Z"/><path class="cls-12" d="M249.07,139.93A103,103,0,0,0,146.48,44.39c-2.5,0-5,.09-7.54.27a103,103,0,0,0,7.32,205.68q3.75,0,7.55-.27A103,103,0,0,0,249.07,139.93Z"/><path class="cls-13" d="M251.94,110l29.34-20.82-35.42,6.76A110,110,0,0,1,251.94,110Z"/><path class="cls-14" d="M257.15,131c.39,2.73.7,5.48.9,8.25q.26,3.48.28,6.93l34.32-10.11Z"/><path class="cls-15" d="M207,53.22l10.48-34.81-24,27.34A111.62,111.62,0,0,1,207,53.22Z"/><path class="cls-16" d="M221.6,64.43l16-32.56-28.15,23A111.69,111.69,0,0,1,221.6,64.43Z"/><path class="cls-17" d="M190.79,44.55,195.4,8.44l-19.21,31A111.87,111.87,0,0,1,190.79,44.55Z"/><path class="cls-18" d="M234.17,77.86l21.12-29.4-31.5,18A112.54,112.54,0,0,1,234.17,77.86Z"/><path class="cls-19" d="M244.39,93.18,270,67.74,236,80.28A111.35,111.35,0,0,1,244.39,93.18Z"/><path class="cls-20" d="M118.71,38.83,100.14,7.45,104,43.67A111.65,111.65,0,0,1,118.71,38.83Z"/><path class="cls-21" d="M231.06,220.61A115.23,115.23,0,0,1,223,229l30.24,18.14-20-29.13C232.5,218.91,231.79,219.77,231.06,220.61Z"/><path class="cls-22" d="M257,164.64l35.36-4.31-34.08-10.81A113.37,113.37,0,0,1,257,164.64Z"/><path class="cls-23" d="M252.71,182.62l35.45,1.57L256.47,168A112.91,112.91,0,0,1,252.71,182.62Z"/><path class="cls-24" d="M235.4,215.27l32.9,12.94-24.57-25.47A114,114,0,0,1,235.4,215.27Z"/><path class="cls-25" d="M245.42,199.66,280.05,207,251.56,185.9A111.88,111.88,0,0,1,245.42,199.66Z"/><path class="cls-26" d="M40.41,183.62l-29,20.61,34.89-6.67A110.65,110.65,0,0,1,40.41,183.62Z"/><path class="cls-27" d="M34.69,155.45q-.3-4.17-.29-8.29L0,157.29l35.41,5.06C35.11,160.07,34.86,157.76,34.69,155.45Z"/><path class="cls-28" d="M58,216.17,37.36,244.93l30.69-17.55A112.84,112.84,0,0,1,58,216.17Z"/><path class="cls-29" d="M47.85,200.63l-25.17,25,33.23-12.29A111.47,111.47,0,0,1,47.85,200.63Z"/><path class="cls-30" d="M35.9,165.62,3.74,181.23l35.63-.83A113,113,0,0,1,35.9,165.62Z"/><path class="cls-31" d="M70.63,229.82,55,261.53l27.32-22.31A112.47,112.47,0,0,1,70.63,229.82Z"/><path class="cls-32" d="M85.31,241.23,75.16,275l23.21-26.43A111.7,111.7,0,0,1,85.31,241.23Z"/><path class="cls-33" d="M35.44,385.92l-.08,7.5c0,.21,0,2.44.17,6.69,0,2.08.08,3.65.08,4.73a15,15,0,0,0-2.23-.23,13.51,13.51,0,0,0-2.28.23c0-1.93.11-4.72.34-8.35.07-1.22.11-2.25.12-3.07l.05-3.84h-18v3.84q0,.31.14,6.69c0,2.09.07,3.67.07,4.73a15.07,15.07,0,0,0-2.24-.23,13.71,13.71,0,0,0-2.28.23c0-1.93.12-4.71.34-8.33V396c.08-1,.13-1.88.15-2.62l.07-7.5c0-.53,0-1.59-.07-3.18l-.15-4.3c0-1.45-.06-2.77-.06-4a17.26,17.26,0,0,0,2.26.24,11.9,11.9,0,0,0,2.24-.24c0,1.33-.05,2.7-.13,4.14,0,.42-.08,1.53-.15,3.3V383c-.1,1.24-.17,2.2-.19,2.9v1.4l9,.13,9-.13,0-1.4q0,.3-.21-7.25c-.05-1.53-.07-2.93-.07-4.2a17.26,17.26,0,0,0,2.26.24,11.81,11.81,0,0,0,2.24-.24q0,2.52-.28,8Q35.47,384.86,35.44,385.92Z"/><path class="cls-33" d="M59,392.33a15.77,15.77,0,0,1-.11,1.79L49.37,394l-5.62.13v1.13a7.87,7.87,0,0,0,1.89,5.66,6.87,6.87,0,0,0,5.47,2.31,8.39,8.39,0,0,0,6.54-3.13l.38.19-.32,2.28a11.62,11.62,0,0,1-7.39,2.71,10.55,10.55,0,0,1-7.66-2.85,10,10,0,0,1-2.95-7.53,12.79,12.79,0,0,1,2.45-8.23c1.79-2.23,4.36-3.34,7.73-3.34a9.06,9.06,0,0,1,6.66,2.38A8.93,8.93,0,0,1,59,392.33Zm-3.79-.06q0-7.35-5.2-7.35a5.11,5.11,0,0,0-4.52,2.53,10.77,10.77,0,0,0-1.56,4.82l5.57.13Z"/><path class="cls-33" d="M77.79,404.14a7.58,7.58,0,0,1-2.9.64,2.76,2.76,0,0,1-3.07-2.58,9.76,9.76,0,0,1-6.8,3.07,6,6,0,0,1-4.13-1.49,5.11,5.11,0,0,1-1.73-4q0-5.12,6.29-6.09a26.71,26.71,0,0,0,5.62-1.24,1.69,1.69,0,0,0,.86-1.7q0-5.4-4.63-5.4a5.72,5.72,0,0,0-5.47,3h-.67l0-2.43a11.86,11.86,0,0,1,7.16-2.58A7.5,7.5,0,0,1,73.44,385,5.57,5.57,0,0,1,75,387.1a7,7,0,0,1,.49,2.79l-.28,10.19c-.06,2.1.46,3.14,1.55,3.14a1.64,1.64,0,0,0,1-.32Zm-5.86-10.29-5.56,1.29c-2.28.77-3.41,2.12-3.41,4a4.3,4.3,0,0,0,.93,2.86,3.37,3.37,0,0,0,2.71,1.19,5.87,5.87,0,0,0,5.09-3Z"/><path class="cls-33" d="M85,371.55c-.13,1.4-.24,3.18-.32,5.35q-.08,1.86-.14,7.36l-.07,7.88q0,2.79.17,9.14c0,1.92.08,3.11.08,3.56a9.47,9.47,0,0,0-4.15,0c.12-1.4.23-3.22.33-5.43,0-1.28.09-3.7.14-7.27l.06-7.88c0-1.5,0-3.54-.06-6.14l-.2-6.57a10.16,10.16,0,0,0,2.09.24A10.29,10.29,0,0,0,85,371.55Z"/><path class="cls-33" d="M98.31,404.59a11.17,11.17,0,0,1-3.47.68,5.35,5.35,0,0,1-4.07-1.39,5.43,5.43,0,0,1-1.35-4.17l.41-13.52c.34,0-.66,0-3,.09l.13-1.11a5.87,5.87,0,0,0-.1-1l2.89.13-.12-4.84,3.73-1.58h.34l-.3,3.54c-.07,1.09-.11,2.05-.11,2.88h1.32c1.75-.05,2.86-.08,3.33-.08l-.09,1.09.07,1-4.67-.09a90.91,90.91,0,0,0-.39,11,15.23,15.23,0,0,0,.45,4.5,2.81,2.81,0,0,0,2.92,2,7.32,7.32,0,0,0,2.07-.34Z"/><path class="cls-33" d="M116.72,391l-.21,8.08v5.75a10.75,10.75,0,0,0-1.94-.23,9.39,9.39,0,0,0-1.9.23c.06-.62.13-2.26.22-4.92l.17-4.92,0-2.67a9.06,9.06,0,0,0-.92-4.39,3.85,3.85,0,0,0-3.65-2.15q-5.81,0-5.81,7v5.25l.17,4.58c0,1.12,0,1.84,0,2.17a9.47,9.47,0,0,0-4.15,0c.1-1.4.2-3.22.3-5.43q.06-1.92.14-7.27l.09-7.88c0-1.5,0-3.54-.09-6.14L99,371.55a10.16,10.16,0,0,0,2.09.24,10.29,10.29,0,0,0,2.07-.24q-.16,1.9-.3,5.16c0,.9-.12,3.33-.19,7.31v3.09a8,8,0,0,1,7-3.79Q117,383.32,116.72,391Z"/><path class="cls-33" d="M149.67,388.55q8,0,8,7.41a7.73,7.73,0,0,1-3.74,6.88,13.5,13.5,0,0,1-7.5,2l-2.14-.11-2.11-.1a33.19,33.19,0,0,0-4.31.21c0-1.56,0-3,.11-4.41q0-.72.21-3.81c.07-1.39.12-2.47.13-3.24l.09-7.49c0-.54,0-1.61-.09-3.2l-.13-4.28c0-1.43-.06-2.73-.06-3.89.55,0,1.18,0,1.88.06q2.43.15,2.85.15l2.3-.13,2.33-.07h.95q8.34,0,8.34,6.4Q156.81,386.83,149.67,388.55Zm-5.61,1.16h-1.85l-.06,4.36.17,8.75c1.19.12,2.58.19,4.17.19a6.69,6.69,0,0,0,5.12-2,7.32,7.32,0,0,0,1.85-5.22,6.21,6.21,0,0,0-.72-3.12Q151,389.72,144.06,389.71Zm1.72-13.4a24,24,0,0,0-3.25.19l-.32,8.22v3.18h2.24q8.27,0,8.27-6.19Q152.72,376.31,145.78,376.31Z"/><path class="cls-33" d="M179,392.33a15.77,15.77,0,0,1-.11,1.79l-9.49-.13-5.62.13v1.13a7.87,7.87,0,0,0,1.89,5.66,6.87,6.87,0,0,0,5.46,2.31,8.39,8.39,0,0,0,6.55-3.13l.38.19-.32,2.28a11.62,11.62,0,0,1-7.39,2.71,10.55,10.55,0,0,1-7.66-2.85,10,10,0,0,1-3-7.53,12.85,12.85,0,0,1,2.45-8.23q2.69-3.35,7.74-3.34a9.06,9.06,0,0,1,6.66,2.38A8.93,8.93,0,0,1,179,392.33Zm-3.79-.06q0-7.35-5.2-7.35a5.11,5.11,0,0,0-4.52,2.53,10.77,10.77,0,0,0-1.56,4.82l5.56.13Z"/><path class="cls-33" d="M198.4,407.46a8.34,8.34,0,0,1-2.49,6c-1.92,2-4.59,2.94-8,2.94a12.81,12.81,0,0,1-6.12-1.34,5.35,5.35,0,0,1-3-5,5.49,5.49,0,0,1,1.37-3.68,7,7,0,0,1,3.34-2.16,3.22,3.22,0,0,1-2.7-3.49,3.53,3.53,0,0,1,.86-2.34,4,4,0,0,1,2.14-1.35,6.6,6.6,0,0,1-4.11-6.48,6.46,6.46,0,0,1,2.58-5.48,9.62,9.62,0,0,1,5.95-1.74c.47,0,1,.08,1.71.1l1.81.07,3.57.17a15.16,15.16,0,0,0,3.17-.24l-.14,1.05a4.82,4.82,0,0,0,.14,1,46.07,46.07,0,0,0-4.83-.36,5.49,5.49,0,0,1,2.09,2.39,7,7,0,0,1,.72,3.09,6.38,6.38,0,0,1-2.49,5.35,8.63,8.63,0,0,1-5.8,1.72l-2.41-.08a1.94,1.94,0,0,0-1.44.54,1.83,1.83,0,0,0-.6,1.37c0,1.37.81,2.07,2.45,2.11l4.79.13c2.57.07,4.45.56,5.63,1.45A5.06,5.06,0,0,1,198.4,407.46Zm-3.47,1.88a4.12,4.12,0,0,0-1.94-3.9,9.35,9.35,0,0,0-4.49-.83q-6.78,0-6.78,5c0,3.6,2.09,5.39,6.26,5.39a8,8,0,0,0,4.76-1.36A4.91,4.91,0,0,0,194.93,409.34Zm-2.19-19a6.47,6.47,0,0,0-1.06-3.88,4.1,4.1,0,0,0-3.53-1.64,4.39,4.39,0,0,0-4.58,3.49,7.81,7.81,0,0,0-.32,2.26q0,5.82,4.76,5.82a4.08,4.08,0,0,0,3.64-1.9A7.25,7.25,0,0,0,192.74,390.31Z"/><path class="cls-33" d="M205.18,376.26a2.26,2.26,0,0,1-.68,1.66,2.32,2.32,0,0,1-1.66.67,2.33,2.33,0,0,1-1.63-4,2.31,2.31,0,0,1,1.67-.68,2.21,2.21,0,0,1,1.64.68A2.31,2.31,0,0,1,205.18,376.26Zm-.32,7.46a71.75,71.75,0,0,0-.45,8.29q0,10.23.26,12.83a11.72,11.72,0,0,0-2.07-.23,10.91,10.91,0,0,0-2.08.23q.47-4.21.46-12.83,0-5.42-.27-8.29a10.39,10.39,0,0,0,2.06.26A10.92,10.92,0,0,0,204.86,383.72Z"/><path class="cls-33" d="M227.24,391c0,1.36,0,2.71-.09,4l0,.79-.07,3.26c0,.61,0,2.53,0,5.75a12.45,12.45,0,0,0-1.94-.23,9.31,9.31,0,0,0-1.9.23q.06-.91.21-4.92l.17-4.92,0-2.67a9.08,9.08,0,0,0-.92-4.41,4,4,0,0,0-3.69-2.13c-2.78,0-4.57,1.24-5.35,3.73a29.76,29.76,0,0,0-.51,7q0,5.46.28,8.29a11.72,11.72,0,0,0-2.07-.23,11.09,11.09,0,0,0-2.09.23,125,125,0,0,0,.47-12.83q0-5.42-.27-8.29a10.22,10.22,0,0,0,2.06.26,10.64,10.64,0,0,0,1.88-.26c0,.46,0,.89,0,1.3-.09,1.25-.13,2-.13,2.09a8,8,0,0,1,7-3.79Q227.23,383.32,227.24,391Z"/><path class="cls-33" d="M243.11,398.26a6.34,6.34,0,0,1-2.53,5.09,8.38,8.38,0,0,1-5.48,1.92,11.13,11.13,0,0,1-5.75-1.52,7.71,7.71,0,0,0,.87-3.32h.68a5.7,5.7,0,0,0,2,2.18,5.21,5.21,0,0,0,2.81.85,3.82,3.82,0,0,0,3.86-2.25,4,4,0,0,0,.3-1.58c0-1.52-.86-2.58-2.56-3.18l-5-1.75a4.93,4.93,0,0,1-2.68-4.69,6.2,6.2,0,0,1,2.13-5,7.87,7.87,0,0,1,5.26-1.68,8,8,0,0,1,2.75.42l2.24.83a10.26,10.26,0,0,0-1.13,3.29h-.68a3.53,3.53,0,0,0-3.73-2.73,3.66,3.66,0,0,0-2.64,1,3.42,3.42,0,0,0-1,2.6,3.29,3.29,0,0,0,2.57,3.24l5,1.71A4.79,4.79,0,0,1,243.11,398.26Z"/><path class="cls-33" d="M279.24,375.92a9.29,9.29,0,0,0,.12,1.43q-6.18-.6-12.19-.6l-.15,6.82v4.2a112.08,112.08,0,0,0,11.3-.47,9.43,9.43,0,0,0-.15,1.49,7.34,7.34,0,0,0,.13,1.39q-3.58-.36-11.28-.36v3.6c0,.21.05,2.44.13,6.67.06,2.07.09,3.66.09,4.75a15.19,15.19,0,0,0-2.24-.23,13.71,13.71,0,0,0-2.28.23q0-2.89.34-8.33V396c.06-1,.09-1.88.11-2.62l.1-7.5c0-.53,0-1.59-.1-3.18l-.11-4.28q-.06-2.18-.06-4c.88,0,2.2,0,4,.1s3.08.11,4,.11c.63,0,1.5,0,2.63-.07,2.62-.09,4.57-.14,5.83-.14A8.5,8.5,0,0,0,279.24,375.92Z"/><path class="cls-33" d="M292.41,383.62a11.26,11.26,0,0,0-.37,3.66l-.42.3a2.64,2.64,0,0,0-2.12-.75,3.72,3.72,0,0,0-3.34,2,7.53,7.53,0,0,0-1,4v12a9.83,9.83,0,0,0-1.83-.23,10.56,10.56,0,0,0-1.94.23q.27-2.85.27-10.55c0-1.65,0-3.34,0-5.07l-.06-5.5a10,10,0,0,0,1.94.26,8.4,8.4,0,0,0,1.87-.26,36,36,0,0,0-.27,4.14q2.49-4.55,5.77-4.54A4.1,4.1,0,0,1,292.41,383.62Z"/><path class="cls-33" d="M313,394.29q0,5.55-3.51,8.51a10.94,10.94,0,0,1-7.29,2.47,10.8,10.8,0,0,1-7.27-2.47q-3.35-2.88-3.34-8.51t3.49-8.5a10.89,10.89,0,0,1,7.29-2.47,10.71,10.71,0,0,1,7.27,2.47C311.89,387.72,313,390.56,313,394.29Zm-4.05,0a13.34,13.34,0,0,0-1.27-6.33,5.61,5.61,0,0,0-5.31-3q-6.74,0-6.74,9.37t6.57,9.36Q309,403.65,309,394.29Z"/><path class="cls-33" d="M345.28,390.31l-.36,9.65c0,.61,0,1.42,0,2.43,0,1.24.06,2.05.06,2.45a10.84,10.84,0,0,0-2-.23,10,10,0,0,0-2,.23,126.2,126.2,0,0,0,.58-13.91c0-3.43-1.47-5.14-4.39-5.14a4.87,4.87,0,0,0-4.29,2,5.48,5.48,0,0,0-.87,2.35,70.63,70.63,0,0,0-.25,7.63c0,.78,0,1.95.08,3.52s.09,2.75.09,3.53a11.13,11.13,0,0,0-2-.23,10.28,10.28,0,0,0-2,.23c.28-3.34.44-6.68.49-10l0-3.66a6.85,6.85,0,0,0-.76-3.39,3.71,3.71,0,0,0-3.51-2q-5.49,0-5.49,7,0,9.45.19,12a11.62,11.62,0,0,0-2.06-.23,10.77,10.77,0,0,0-2.1.23,122.35,122.35,0,0,0,.49-12.83c0-3.49-.1-6.26-.29-8.29a10.49,10.49,0,0,0,2.1.26,10,10,0,0,0,1.86-.26c0,.39,0,.95-.1,1.7s-.09,1.31-.09,1.69a7.54,7.54,0,0,1,10.48-2.68,5.17,5.17,0,0,1,2.43,3.21,7.23,7.23,0,0,1,7-4.32,6.79,6.79,0,0,1,5.1,1.72A6.92,6.92,0,0,1,345.28,390.31Z"/><path class="cls-33" d="M395,404.84a6.53,6.53,0,0,0-1.55-.23,5.78,5.78,0,0,0-1.56.23q-1.11-3.69-2.64-8.65l-5.18-16.37-8.67,25a7.82,7.82,0,0,0-1.58-.23,7.06,7.06,0,0,0-1.63.23L364.79,380c-.76-2.47-1.37-4.33-1.8-5.57a13.71,13.71,0,0,0,2.32.24,11.22,11.22,0,0,0,2.26-.24q2.39,9.82,7.33,25.87l4.39-13q1.53-4.32,4.11-12.87a5.22,5.22,0,0,0,1.52.24,5.37,5.37,0,0,0,1.51-.24q1.29,4.84,4.3,14.24.64,2,3.8,11.64l4.13-12.92q3.19-9.94,3.84-13a6.61,6.61,0,0,0,1.62.24,9,9,0,0,0,1.7-.24Q403.29,380.45,395,404.84Z"/><path class="cls-33" d="M412,376.26a2.26,2.26,0,0,1-.68,1.66,2.33,2.33,0,0,1-1.67.67,2.33,2.33,0,0,1-1.63-4,2.33,2.33,0,0,1,1.68-.68,2.21,2.21,0,0,1,1.64.68A2.31,2.31,0,0,1,412,376.26Zm-.32,7.46a71.75,71.75,0,0,0-.45,8.29q0,10.23.26,12.83a11.72,11.72,0,0,0-2.07-.23,11.09,11.09,0,0,0-2.09.23,128,128,0,0,0,.47-12.83q0-5.42-.28-8.29a10.39,10.39,0,0,0,2.07.26A11,11,0,0,0,411.66,383.72Z"/><path class="cls-33" d="M425.09,404.59a11.22,11.22,0,0,1-3.48.68,5.36,5.36,0,0,1-4.07-1.39,5.43,5.43,0,0,1-1.34-4.17l.4-13.52c.35,0-.65,0-3,.09l.13-1.11a6.06,6.06,0,0,0-.11-1l2.9.13-.13-4.84,3.73-1.58h.34l-.3,3.54c-.07,1.09-.1,2.05-.1,2.88h1.32c1.75-.05,2.85-.08,3.32-.08l-.08,1.09.06,1-4.66-.09a90.91,90.91,0,0,0-.39,11,15.23,15.23,0,0,0,.45,4.5,2.81,2.81,0,0,0,2.92,2,7.32,7.32,0,0,0,2.07-.34Z"/><path class="cls-33" d="M443.5,391l-.22,8.08v5.75a10.65,10.65,0,0,0-1.94-.23,9.3,9.3,0,0,0-1.89.23c.05-.62.13-2.26.21-4.92l.17-4.92,0-2.67a9.07,9.07,0,0,0-.91-4.39,3.85,3.85,0,0,0-3.65-2.15q-5.82,0-5.82,7v5.25l.18,4.58c0,1.12,0,1.84,0,2.17a10.84,10.84,0,0,0-2.09-.23,11,11,0,0,0-2.07.23c.11-1.4.21-3.22.3-5.43q.07-1.92.15-7.27l.09-7.88c0-1.5,0-3.54-.09-6.14l-.17-6.57a9.09,9.09,0,0,0,4.15,0c-.11,1.27-.21,3-.29,5.16-.06.9-.12,3.33-.2,7.31v3.09a8,8,0,0,1,7-3.79Q443.74,383.32,443.5,391Z"/><path class="cls-33" d="M452.64,376.26a2.26,2.26,0,0,1-.68,1.66,2.32,2.32,0,0,1-1.66.67,2.26,2.26,0,0,1-2.33-2.33,2.23,2.23,0,0,1,.7-1.66,2.31,2.31,0,0,1,1.67-.68,2.21,2.21,0,0,1,1.64.68A2.31,2.31,0,0,1,452.64,376.26Zm-.32,7.46a71.75,71.75,0,0,0-.45,8.29q0,10.23.26,12.83a11.72,11.72,0,0,0-2.07-.23,11.09,11.09,0,0,0-2.09.23,125,125,0,0,0,.47-12.83q0-5.42-.28-8.29a10.39,10.39,0,0,0,2.07.26A10.92,10.92,0,0,0,452.32,383.72Z"/><path class="cls-33" d="M474.7,391c0,1.36,0,2.71-.09,4l0,.79-.07,3.26c0,.61,0,2.53,0,5.75a12.22,12.22,0,0,0-1.93-.23,9.31,9.31,0,0,0-1.9.23q.06-.91.21-4.92l.17-4.92,0-2.67a9,9,0,0,0-.91-4.41,4,4,0,0,0-3.69-2.13c-2.78,0-4.57,1.24-5.35,3.73a29.76,29.76,0,0,0-.51,7q0,5.46.28,8.29a11.72,11.72,0,0,0-2.07-.23,11,11,0,0,0-2.09.23A128,128,0,0,0,457.2,392q0-5.42-.28-8.29A10.39,10.39,0,0,0,459,384a10.64,10.64,0,0,0,1.88-.26c0,.46,0,.89-.05,1.3-.08,1.25-.12,2-.12,2.09a8,8,0,0,1,7-3.79Q474.7,383.32,474.7,391Z"/><path class="cls-33" d="M357.28,366.49q-1-2.82-3.74-11.14c-1.11-3.26-1.88-5.65-2.33-7.15L345.56,329l-16.62-63.5q-2.91-10.72-5.82-13.62-3.08-2.74-10.55-2.75V245.9H356v3.24q-6.48,0-8.56,1.16a3.93,3.93,0,0,0-2.24,3.58l.58,5.15,1.66,7.48,12.89,54.6,3.07,11.81,2.91,9.63,4.41-9.47,5.48-12.47,6.82-15.95,8.39-20.28,2.49-8.31a35.42,35.42,0,0,0-1.16-7.15A64,64,0,0,0,389,258.7c-1.28-3.44-2.88-5.71-4.82-6.81s-5.46-2.08-10.72-2.75V245.9h48.37v3.24q-8,0-11.23,1.75a5.88,5.88,0,0,0-3.4,5.73l.16,2.41.67,2.74,14.13,50.37,3.9,14,4.24,14.13q6.15-16.87,10.56-29.67,3.41-9.81,8.23-24.69,6.81-22.44,6.81-27.67c0-2.71-.91-4.65-2.75-5.81q-2.56-2.08-10.38-3.25l-.08-3.24h32.91v3.24q-10.23,2.25-16.46,19.78l-4.32,12.72q-4.25,13.62-9.56,29.34-3.57,10.54-9.89,28.25-5.4,15-10,27.26h-2.58q-1.74-4.32-4.07-11.47-3.07-9.22-5.32-16.37l-3.07-9.47-12.72-40.9-.33-.83L396.26,285a3,3,0,0,0-.83.83l-1.17,2.41-16.37,39.31-9.72,22.11L360,366.49Z"/><path class="cls-33" d="M304.92,250.23c-.6-1.83-1.13-2.91-1.57-3.24a10.12,10.12,0,0,0-3.41-.34l-23.27.34-32.42.49H221.31v3.81c1,.26,2.13.59,3.42,1a6.53,6.53,0,0,1,4.07,4.07,20.18,20.18,0,0,1,.83,2.92,14.56,14.56,0,0,1,.33,3.15l.33,11.8v80q0,6.82-9,8.5v3.79h36v-3.71c-2.69-.4-4.6-1-5.74-1.94-2-1.6-3-5.24-3-10.89v-34.9c0-1.94.61-3.24,1.83-3.91s3.71-1,7.31-1q12,0,17.87,5.06a19.14,19.14,0,0,1,4.82,6.82,27.13,27.13,0,0,1,1.49,9.39h2.91v-3.24l-.5-14.63L284,299.42V283.05h-2.91q-1.57,13.47-6.81,18.37-5.33,5.32-17.21,5.32c-3.76,0-6.26-.39-7.48-1.16q-1.32-1.24-1.32-6.32V260.11q0-9.21,15-9.22h1.32l8.56-.17h4.74a27.13,27.13,0,0,1,6.82.67c1.44.61,2.52,1.08,3.24,1.42l1.66,1a50.08,50.08,0,0,1,7.31,6.48,109.05,109.05,0,0,1,10.23,11.39l2.74-1Z"/><path class="cls-33" d="M215.31,159.26c14.75-24.91,7.52-75.6-3.16-63.55-23.93,27-33.09,18.33-60.59,38.19-30.38,21.94-28.3,67.78-28.3,67.78.24-.12,3.3-2.6,8.88-12.17,0,0,14.31-25.9,32.17-34.25,21.29-9.95,24.34-11.58,31.66-19.58,0,0,.92,15-20.91,26.83-12.09,6.57-38.25,18-35.53,84.88l0,15.36h0a10,10,0,0,1,2,8.07,12.37,12.37,0,0,1-2.05,4.76l-.13,79.72,0-.1c-.22,2.43-.59,7-9.68,7.48v3.79H170q21.12,0,32.5-7.81,11.22-7.74,11.22-21.86,0-13.38-8.31-21.57t-25.85-12.59q15.45-3.74,22.61-10.39,7.14-6.48,7.14-17,0-13.64-10.22-20.78-10.22-7-30.42-7H149.92c-.33-4-.87-19.91,9.58-37C176.29,182.9,199.91,185.27,215.31,159.26ZM150.19,260.11c0-3.43,1.08-5.75,3.24-7s6.15-1.91,12-1.91q11.06,0,17.54,6.48,6.23,6.49,6.23,18a29.78,29.78,0,0,1-2.66,12.8,26.52,26.52,0,0,1-8.56,9.72,18.33,18.33,0,0,1-6.81,2.83c-2.17.61-5.9.91-11.22.91h-3.58c-2.27,0-3.85-.52-4.73-1.58q-1.43-1.32-1.42-5.82Zm0,52.61c0-2.77.7-4.65,2.08-5.65s3.82-1.33,7.65-1.33q16.53,0,25,7.31t8.56,21.77q0,14.15-8.23,20.95-8.14,7-25.18,7c-3.82,0-6.43-.67-7.81-2s-2.08-4.15-2.08-8.36Z"/><path class="cls-34" d="M128.2,280.16c-9.81-5.55-11.35-10.68-8.5-14.69,1.56-2.22,4.7-3.32,8.32-.21,3.51-3.24,7-1.74,8.31-.07C139.31,269.1,137.81,274.27,128.2,280.16Z"/><path class="cls-35" d="M116.74,354.08V275.86a12.48,12.48,0,0,1-2.08-4.49,10.08,10.08,0,0,1,1.77-8.2c.09-.14.2-.26.31-.4V237s1.44-17.12-19.81-32.62c-22.62-18.71-23.15-34.22-22.78-42,0,0,2.58,11.6,14.7,21.93S113.64,191.18,120,205c0,0-4.66-30.5-22.68-41.82-14.39-9.72-18.77-5.73-31-19.56-5.47-6.17-12.08,35.72,10.55,58.66,3.2,3.87,8.5,8.37,14.15,13.51,11.27,10.26,15.06,15.06,15.49,37.28v47.07a3.74,3.74,0,0,1-1.45,2.51c-.77.56-2.3.84-4.57.84H42.92q-3.41,0-3.9-.84c-.45-.44-.67-1.47-.67-3.07V264.68c0-5.75,1-9.5,3-11.21q2.32-2,8.55-2.43v-3.56h-40V251a19.15,19.15,0,0,1,5.46,1.06,8.54,8.54,0,0,1,4.07,3.66,14,14,0,0,1,1.17,4.07,56.44,56.44,0,0,1,.58,7.65c.11,2.82.27,6.51.5,11.05s.16,9.47.16,14.46v49.87q0,13.79-3.41,16.87c-1.67,1.67-4.52,2.72-8.53,3.16v3.65H50.35v-3.7a12.24,12.24,0,0,1-7.6-3.78q-3.57-3.9-3.57-14.62V314.22q0-4.08,1.16-5.07,1-.84,5.82-.84H100.6c2.4,0,5.41.29,5.85,3.59V351c0,4.22-.79,7-2.39,8.77-2,2.19-5.42,2.84-9.8,3v3.7h32.22v-3.68a16.15,16.15,0,0,1-6-2A7.91,7.91,0,0,1,116.74,354.08Z"/></g></g></g></svg>