<?xml version="1.0" encoding="utf-8"?>
<!-- Generator: Adobe Illustrator 21.1.0, SVG Export Plug-In . SVG Version: 6.00 Build 0)  -->
<svg version="1.1" id="Layer_1" xmlns="http://www.w3.org/2000/svg" xmlns:xlink="http://www.w3.org/1999/xlink" x="0px" y="0px"
	 viewBox="0 0 803.8 257.5" style="enable-background:new 0 0 803.8 257.5;" xml:space="preserve">
<style type="text/css">
	.st0{clip-path:url(#SVGID_2_);}
	.st1{fill:#D48332;}
	.st2{fill:#A9632F;}
	.st3{fill:#00AD89;}
	.st4{fill:#D8813A;}
	.st5{fill:#75380E;}
	.st6{fill:#EDEBEB;}
	.st7{fill:#FFFFFF;}
	.st8{fill:#BCBAB8;}
	.st9{fill:#D8D8D8;}
	.st10{fill:#8E8D8D;}
	.st11{clip-path:url(#SVGID_4_);}
	.st12{fill:#512C1C;}
	.st13{fill:#F6D39B;}
	.st14{fill:#ECB36C;}
	.st15{fill:#0260A0;}
	.st16{fill:#231F20;}
	.st17{clip-path:url(#SVGID_6_);}
	.st18{fill:#FFC197;}
	.st19{fill:#BCCE8A;}
	.st20{fill:#FCA76D;}
	.st21{fill:#DD985F;}
	.st22{fill:#D6E2AF;}
</style>
<g>
	<g>
		<defs>
			<circle id="SVGID_1_" cx="128" cy="128" r="128"/>
		</defs>
		<clipPath id="SVGID_2_">
			<use xlink:href="#SVGID_1_"  style="overflow:visible;"/>
		</clipPath>
		<g class="st0">
			<path d="M154.8,149.9c-6.2-4.6-15.3-6.6-30.3-6.5c-11.6,0-23.4,1.2-31.5,9.9c-0.8,0.9-1.6,1.9-2.3,2.9c0.9,0.6,1.9,1.2,2.9,1.7
				c0.6-0.9,1.3-1.7,2-2.5c6.8-7.3,16.5-8.8,29-8.8h0.2c16.5,0,27.2,2.1,33.1,11.4c0.1,0,0.1-0.1,0.2-0.1c1-0.3,2.1-0.7,3.1-1
				C159.5,154.1,157.4,151.8,154.8,149.9z"/>
			<path class="st1" d="M191.3,255.7c10.6-25.7,22.8-49.8,16.7-60.5c-10.1-17.6-40.5-28.2-49.2-33c-8.7-4.8-7.3-26.5-7.3-26.5H100
				c0,0,1.3,21.7-7.3,26.5c-8.7,4.8-39.1,15.4-49.2,33c-6.1,10.7,6.1,34.7,16.7,60.5H191.3z"/>
			<path class="st2" d="M95.5,159.6c9.7-5,8.1,2.6,27.2,7c12.6,2.9,28.4-6.2,30.8-12.4c-2.5-8-1.9-18.5-1.9-18.5H100
				C100,135.7,101,152.3,95.5,159.6z"/>
			<path class="st3" d="M195.6,257.5c8.6-25.6,18.3-51.4,12.2-62.1c-10.1-17.6-40.5-28.2-49.2-33l-33.1,39.5l-33.1-39.5
				c-8.7,4.8-39.1,15.4-49.2,33c-6.3,10.9,4.1,36.7,12.8,62.1H195.6z"/>
			<g>
				<path class="st4" d="M94.6,106.9c0,0-4.4-8.3-7.8-4.7c-5.8,6.2,2,32.1,9.3,27.2L94.6,106.9z"/>
				<path class="st2" d="M93.3,108.6c0,0-3-5.3-5.4-3c-4,3.9,3,22.6,6.4,17.3L93.3,108.6z"/>
				<path class="st4" d="M158.2,106.9c0,0,4.4-8.3,7.8-4.7c5.8,6.2-2,32.1-9.3,27.2L158.2,106.9z"/>
				<path class="st2" d="M159.5,108.6c0,0,3-5.3,5.4-3c4,3.9-3,22.6-6.4,17.3L159.5,108.6z"/>
			</g>
			<path class="st1" d="M126.2,53.6L126.2,53.6c0.1,0,0.2,0,0.2,0c0.1,0,0.2,0,0.2,0v0c17.7,0.2,35.3,10.4,35.3,30.6l-4.1,48.3
				c-2.6,15.5-22.2,26.9-27,26.9h-9c-4.7,0-24.4-11.4-27-26.9l-4.1-48.3C90.8,63.9,108.4,53.8,126.2,53.6z"/>
			<path class="st5" d="M100.3,61.7c-17,12.4-9.1,41-9.1,41l2.5,14.7l0.6,0c-0.5-9.4-2-38,5.3-43.8c6.7-5.3,7.2-2.9,27.4-3.2
				s24-2.7,29.8,4.7c4,5.1,2.4,32.5,1.8,42.3l0.6,0l2.2-14.1c0,0,7.5-26.2-5.7-39.3C150.2,58.6,105.9,57.6,100.3,61.7z"/>
			<path class="st5" d="M96.6,83.3c2.5,3.3,1,8.8-2.8,10.5c2.2,0.9,3.2,3.9,2,5.9c-1.2,2-4.3,2.6-6.1,1.1c-1.8-1.5-1.9-4.6-0.2-6.2
				c-1.3,1-3.4,0.5-4.5-0.8c-1-1.3-1.2-3.2-0.7-4.8c0.5-1.6,1.4-3,2.4-4.4c-3.3-1.3-5.4-5-4.8-8.4c0.5-3.5,3.7-6.3,7.2-6.6
				c-0.8-1.7-0.3-3.9,1.2-5.1c1.5-1.2,3.7-1.3,5.3-0.2c-1.5-4-0.2-8.9,3.1-11.7c3.3-2.8,8.3-3.2,12-1c0.9-2.7,3.4-4.9,6.3-5.2
				c2.9-0.3,5.8,1.3,7.2,3.8c3.3-3,8-4.4,12.5-3.8c4.4,0.6,8.5,3.3,10.9,7.1c2.5-3.2,7.9-3.4,10.6-0.4c1.9,2.1,2.5,5.2,4.7,6.9
				c1.8,1.3,4.4,1.4,6.2,0.2c1.8-1.2,2.8-3.7,2.2-5.8c4.4,4,4.6,11.7,0.5,15.9c1.4-0.1,2.7-0.2,4.1-0.3c-0.9,5.6-4.4,10.8-9.2,13.8
				c1.6,0.2,3.2,0.3,4.8,0.5c0.6,3.9-2.2,8-6.1,8.8c1.5,2,0,5.4-2.5,5.6c-2.5,0.2-4.5-3-3.3-5.2c-4,0.8-8.1-1.2-11-4.2
				c-2.8-3-4.6-6.7-6.3-10.4c-2,2-5.1,2.8-7.8,2c-2.7-0.8-4.9-3.1-5.5-5.8c-2.2,2.2-6.4,1.6-7.9-1c-1.6,3.9-5.7,6.6-10,6.5
				c-3.8-0.1-6.3-2.2-8.7-4.9C102,79.1,100.1,82.3,96.6,83.3z"/>
			<g>
				<path class="st6" d="M230.3,257.5c0,0,2.3-65.7-28.5-78.3l-37.7-14.8l-23,93.1H230.3z"/>
				<path class="st6" d="M109.9,257.5l-23-93.1l-36.1,16.2c-28,12.7-25.1,76.8-25.1,76.8H109.9z"/>
				<polygon class="st7" points="146.8,257.5 164.2,217.2 157.6,209.8 168.3,208.1 173.4,167.2 157.8,158 139.5,257.5 				"/>
				<polygon class="st7" points="93.5,209.8 86.9,217.2 104.3,257.5 111.6,257.5 93.3,158 77.7,167.2 82.8,208.1 				"/>
			</g>
			<g>
				<path class="st8" d="M162.6,175.8v2.2c-15.7,0-19.7,31.7-21.4,59.2c-0.2,2.6,0.8,5.1,2.7,6.9c1.9,1.9,4.5,2.9,7.2,2.9h8.7v2.2
					h-8.7c-3.4,0-6.6-1.3-9-3.6c-2.3-2.3-3.5-5.4-3.3-8.6C140.8,206.8,145,175.8,162.6,175.8z"/>
				<path d="M159.9,249.4v-2.2l3.1-1.2c0.7-0.3,1.5,0.2,1.5,1v2.3c0,0.7-0.7,1.2-1.4,1L159.9,249.4z"/>
				<path class="st8" d="M167.5,175.8v2.2c15.7,0,19.7,31.7,21.4,59.2c0.2,2.6-0.8,5.1-2.7,6.9c-1.9,1.9-4.5,2.9-7.2,2.9h-8.7v2.2
					h8.7c3.4,0,6.6-1.3,9-3.6c2.3-2.3,3.5-5.4,3.3-8.6C189.4,206.8,185.1,175.8,167.5,175.8z"/>
				<path d="M170.2,249.4v-2.2l-3.1-1.2c-0.7-0.3-1.5,0.2-1.5,1v2.3c0,0.7,0.7,1.2,1.4,1L170.2,249.4z"/>
				<path d="M167.5,175.3h-4.8c-8.8,0-15,7.4-19,22.6c0,0.2,0,0.3,0.1,0.5c0.1,0.2,0.3,0.3,0.4,0.3l1.9,0.4c0.1,0,0.1,0,0.2,0
					c0.3,0,0.6-0.2,0.7-0.5c3.6-13.6,8.7-20.1,15.7-20.1h4.8c7,0,12.2,6.6,15.7,20.1c0.1,0.3,0.4,0.5,0.7,0.5c0.1,0,0.1,0,0.2,0
					l1.9-0.4c0.2,0,0.3-0.1,0.4-0.3c0.1-0.2,0.1-0.3,0.1-0.5C182.5,182.7,176.3,175.3,167.5,175.3z"/>
				<path class="st9" d="M165.1,182.8c5,0,9.7,3.1,13.6,8.9c2.4,3.7,3.8,7.4,4.2,8.5l4.2-1c0.2-0.1,0.4,0.1,0.5,0.3
					c0.1,0.2-0.1,0.4-0.3,0.5l-5,1.2l-0.1-0.3c-0.1-0.2-5.7-17.2-17.2-17.2c-11.5,0-17.1,17.1-17.2,17.3l-0.1,0.3l-4.7-1
					c-0.2,0-0.4-0.2-0.3-0.4c0-0.2,0.3-0.3,0.5-0.3l4,0.8c0.4-1.1,1.8-4.8,4.2-8.5C155.3,185.9,160,182.8,165.1,182.8z"/>
				<path d="M95.7,155.4c-1-0.5-1.9-1.1-2.8-1.9c-9.7,10.7-12.3,31-8,62l3.4-0.4C84,184.8,86.4,165.3,95.7,155.4
					C95.6,155.4,95.6,155.4,95.7,155.4z"/>
				<path d="M158.3,153.1c-1.1,0.5-2.1,1-3.1,1.6c4.4,4.6,6.9,11.7,7.6,22.5l3.4-0.2C165.5,165.9,163,158.3,158.3,153.1z"/>
				<ellipse class="st9" cx="87.4" cy="222.3" rx="8.5" ry="8.4"/>
				<ellipse class="st10" cx="87.4" cy="222.3" rx="7.1" ry="7.1"/>
				<ellipse class="st9" cx="87.4" cy="222.3" rx="3.8" ry="3.8"/>
			</g>
		</g>
	</g>
	<g>
		<defs>
			<circle id="SVGID_3_" cx="675.8" cy="128" r="128"/>
		</defs>
		<clipPath id="SVGID_4_">
			<use xlink:href="#SVGID_3_"  style="overflow:visible;"/>
		</clipPath>
		<g class="st11">
			<path class="st12" d="M629.7,205.7c-2.1-1-2.1-14.5,1.3-21.6c3.5-7,3.8-11.6,4.4-19c0.6-7.4,3.4-12.9,6.4-17.4
				c6-9.3,7.4-24.9,13.9-32.9c6.4-7.8,21.2-15.5,21.2-15.5s21.9,10.7,27.7,35.2c1.4,6,2.7,11.3,8.4,20.3c7.1,11.1,9.8,31.5,9.3,50.7
				H629.7z"/>
			<path class="st13" d="M634.8,254.5h82.4c1.9-7.5,4.4-10.6,7.8-19.4c3.8-10.7,28.8-25.9,15.9-44.5c-7.8-11.2-34.1-8.1-42.6-14.4
				c-8.5-6.3-7.2-30.8-7.2-30.8h-30c0,0,1.3,24.6-7.2,30.8c-8.5,6.3-34.8,3.2-42.6,14.4c-12.9,18.7,12.1,33.9,15.9,44.5
				C630.4,243.9,632.9,247.1,634.8,254.5z"/>
			<path class="st14" d="M670.6,162c9,1.8,16.9-0.4,20.7-4.7c-0.6-6.4-0.3-11.8-0.3-11.8h-30c0,0,0.6,10.9-1.6,20
				C662.8,161.8,665.5,160.9,670.6,162z"/>
			<path class="st12" d="M679.2,147.4c0,0,23.1-11.3,34.7-16.9c4-2,8.5-4.5,9.5-8.8c1.6-6.9-6.5-12.8-5.9-19.8
				c0.3-3.6,2.8-6.6,3.5-10.2c0.7-3.4-0.3-7-2.1-10c-1.8-3-4.3-5.5-6.9-7.9c-3.1-3-6.3-5.9-9.6-8.8c-1.7-1.5-3.4-3-5.3-4
				c-4.6-2.5-10.4-2.3-14.9,0.4c-3.9-3.7-8.7-6.5-14-6.1c-5.3,0.4-10.5,3-13.8,7.2c-2.5,3.2-4.2,7.2-7.6,9.4
				c-3.8,2.4-9.4,2.4-11.5,6.3c-2,3.8,0.8,8.4,0.3,12.6c-0.7,6-7.7,10.1-7.4,16.1c0.2,4.4,4.2,7.6,5.5,11.7c0.9,2.9,0.5,6.1,0.9,9.1
				C635.7,136.5,679.2,147.4,679.2,147.4z"/>
			<g>
				<path class="st13" d="M705.9,109.3c0,0,4.2-6.2,7.4-3.5c5.5,4.6-1.9,23.9-8.8,20.2L705.9,109.3z"/>
				<path class="st14" d="M707.1,110.6c0,0,2.9-3.9,5.1-2.2c3.8,2.9-2.8,16.8-6.1,12.9L707.1,110.6z"/>
				<path class="st13" d="M645.6,109.4c0,0-4.2-6.2-7.4-3.5c-5.5,4.6,1.9,23.9,8.9,20.2L645.6,109.4z"/>
				<path class="st14" d="M644.4,110.6c0,0-2.9-3.9-5.1-2.2c-3.8,2.9,2.9,16.8,6.1,12.9L644.4,110.6z"/>
			</g>
			<path class="st13" d="M709.6,114c-3.4,27.3-21.9,45.5-33.6,45.5c-11.7,0-30.2-18.2-33.7-45.5c-3.6-28.5,1.9-49.9,33.6-49.9
				C707.7,64.1,713.2,85.6,709.6,114z"/>
			<path class="st12" d="M682,63.6L682,63.6c-35-6.8-42,25.9-44.7,30c-13,19.3,0.2,19.4,2.9,34.4c2.2-2.6,4-6.4,5.2-11.5
				c3.9-16,36.6-15.8,50.6-36.5c5,2.5,8.3,7.2,8.7,12c0.4,4.7-1.9,9.7,0.2,14.1c2,4.1,6.7,7.8,7.4,11.4c0.7,3.6-1.3,7.3-3.4,10.2
				c7.9,0,11.5-8.6,7.9-19.7C714.1,99.3,718.1,62.5,682,63.6z"/>
			<rect x="661.3" y="199.7" class="st7" width="29.4" height="13.1"/>
			<path class="st15" d="M740.2,190.3c-4.1-6.2-20.2-10.8-36.6-11.4c-6.6,16.6-27.6,30.3-27.6,30.3s-21-13.7-27.6-30.3
				c-16.4,0.6-32.5,5.3-36.6,11.4c-9.7,14.6-13.3,65.8-13.3,65.8h156C754.4,256.1,749.9,204.9,740.2,190.3z"/>
			<path class="st7" d="M709,109.5c-5.3-3.4-25.4-0.2-27.9,3.3c-0.1,0.2-0.2,0.3-0.3,0.5h-8.1c-0.1-0.2-0.2-0.3-0.3-0.5
				c-2.4-3.6-22.6-6.7-27.9-3.3c-0.7,0.5-1.4,1.5-0.6,3.9c0.4,1.3,1.1,2.5,1.1,2.5c0.1,0.1,0.2,0.2,0.3,0.2
				c2.6,5.1,8.4,8.8,14.6,9.2c0.5,0,1.1,0.1,1.6,0.1c3.4,0,6.8-0.8,9.3-4.5c0,0,0,0,0,0c0.1,0,0.3-0.1,0.3-0.2c0,0,0.9-1.1,1.4-2.6
				c0.5-1.4,0.6-2.8,0.3-3.9h7.4c-0.3,1.2-0.2,2.5,0.3,3.9c0.6,1.5,1.4,2.5,1.4,2.6c0.1,0.1,0.2,0.2,0.3,0.2c0,0,0,0,0,0
				c2.5,3.7,5.9,4.5,9.3,4.5c0.5,0,1.1,0,1.6-0.1c6.2-0.4,12-4,14.6-9.2c0.1,0,0.3-0.1,0.3-0.2c0,0,0.7-1.2,1.1-2.5
				C710.4,111,709.7,110,709,109.5z M670.6,120.2c-0.1,0.1-0.1,0.3,0,0.5c-2.8,4.1-6.7,4.4-10.5,4.2c-6.1-0.4-11.7-3.9-14.3-8.9
				c0.1-0.1,0.1-0.3,0-0.5c-0.7-1.1-2.2-4.3-0.8-5.2c2.2-1.4,7.8-1.7,14.5-0.8c6.1,0.8,11.2,2.5,12.2,3.9
				C673.7,116.3,670.7,120.2,670.6,120.2z M707.7,115.5c-0.1,0.2-0.1,0.3,0,0.5c-2.5,5-8.2,8.6-14.3,8.9c-3.8,0.2-7.7-0.1-10.5-4.2
				c0.1-0.1,0.1-0.3,0-0.5c0,0-3-3.9-1.1-6.8c0.9-1.4,6.1-3,12.2-3.9c6.7-0.9,12.3-0.6,14.5,0.8
				C709.9,111.2,708.4,114.3,707.7,115.5z"/>
		</g>
		<g class="st11">
			<ellipse class="st16" cx="670.1" cy="144.2" rx="3.2" ry="4"/>
			<polygon class="st16" points="669.7,145.3 641.3,126.5 642.2,124.3 670.6,143.1 			"/>
			<g>
				<path class="st16" d="M642,124.9c0,2.4-1.6,4.3-3.6,4.3s-3.6-1.9-3.6-4.3v-10.7c0-2.4,1.6-4.3,3.6-4.3s3.6,1.9,3.6,4.3V124.9z"
					/>
			</g>
			<g>
				<path class="st16" d="M716.1,124.9c0,2.4-1.6,4.3-3.6,4.3c-2,0-3.6-1.9-3.6-4.3v-10.7c0-2.4,1.6-4.3,3.6-4.3
					c2,0,3.6,1.9,3.6,4.3V124.9z"/>
			</g>
			<path class="st16" d="M711.9,112.7c0-0.1-0.8-10.4-5.7-20.5C699.7,78.8,689.4,72,675.8,72c-13.7,0-23.9,6.8-30.4,20.3
				c-4.9,10.1-5.7,20.3-5.7,20.4l-2.5-0.3c0-0.4,0.9-11,6-21.8c4.8-10,14.3-21.8,32.6-21.8l0,0c0,0,0,0,0,0
				c18.2,0,27.8,11.9,32.6,21.9c5.2,10.8,6,21.4,6,21.8L711.9,112.7z"/>
		</g>
	</g>
	<g>
		<defs>
			<circle id="SVGID_5_" cx="401.9" cy="128" r="128"/>
		</defs>
		<clipPath id="SVGID_6_">
			<use xlink:href="#SVGID_5_"  style="overflow:visible;"/>
		</clipPath>
		<g class="st17">
			<path class="st18" d="M300,254h201.7c0,0,3-71.7-31.7-70.6c-13-9.6-29.9-15.8-36-19.2c-8.7-4.8-7.3-26.5-7.3-26.5h-51.6
				c0,0,1.3,21.7-7.3,26.5c-6.1,3.4-23,9.7-36,19.2C297.1,182.3,300,254,300,254z"/>
			<path class="st19" d="M489.2,189.6c-4.2-4.3-34.3-16.8-48.5-22.9l-39.8,39.9L361,166.7c-14.1,6.2-44.1,18.6-48.4,22.9
				c-14.5,14.7-15.5,66.4-15.5,66.4h207.5C504.7,256,503.7,204.3,489.2,189.6z"/>
			<path class="st20" d="M370.6,161.6c9.7-5,8.1,2.6,27.2,7c12.6,2.9,28.4-6.2,30.8-12.4c-2.5-8-1.9-18.5-1.9-18.5h-51.6
				C375.1,137.6,376.1,154.2,370.6,161.6z"/>
			<g>
				<rect x="422.6" y="210.5" class="st7" width="29.4" height="19.3"/>
				<rect x="434.1" y="208.9" width="6.4" height="4.2"/>
			</g>
			<g>
				<path class="st18" d="M432.8,105.3c0,0,4.3-8.2,7.7-4.6c5.7,6.1-1.9,31.5-9.2,26.7L432.8,105.3z"/>
				<path class="st20" d="M434,107c0,0,3-5.2,5.3-2.9c3.9,3.9-2.9,22.1-6.3,17L434,107z"/>
				<path class="st18" d="M370.5,105.3c0,0-4.3-8.2-7.7-4.6c-5.7,6.1,1.9,31.5,9.2,26.7L370.5,105.3z"/>
				<path class="st20" d="M369.2,107c0,0-3-5.2-5.3-2.9c-3.9,3.9,2.9,22.1,6.3,17L369.2,107z"/>
			</g>
			<path class="st18" d="M401.6,162.3c-10.7,0-28.9-12.3-29.9-26.8l-3.3-50.2c-1-15,10.9-27.7,25.9-27.7h14.5
				c15,0,26.9,12.7,25.9,27.7l-3.3,50.2C430.5,150.1,412.3,162.3,401.6,162.3z"/>
			<path class="st21" d="M376.4,55.3c-0.6-3.1,0.9-6.4,3.1-8.7c2.2-2.3,5.1-3.8,8-5.2c5.1-2.5,10.3-4.7,15.6-6.8
				c-0.3,1-0.6,2.1-0.9,3.1c7.4-0.7,14.8-0.5,22.2,0.3c-0.7,0.7-1.3,1.4-2,2.1c5.5,0.2,11,0.4,16.5,0.6c-1,1.9-2.1,3.8-3.1,5.7
				c1.1,0,2.3,0,3.4,0.1c0.5,4.1,0.9,8.1,1.4,12.2c0.6-0.4,1.1-0.8,1.7-1.2c0.8,13.6-1.1,44.6-1.1,44.6c-3.3-4.5-7.7,13.1-7.7,13.1
				h-1.3c0,0,2.7-39.8-6.6-45.3c-7.2-4.2-5.4,1.1-24.4,0.8c-19-0.3-18-7.2-26.7,1c-6,5.7-3.4,43.5-3.4,43.5h-1.3
				c-0.9-11.9-5.5-18-8.3-12.6c0,0-0.9-19.8,0.1-24.9c-0.8,0.8-1.5,1.6-2.3,2.4c0.3-5.9,2-11.8,4.9-17c-0.8,0.1-1.7,0.1-2.5,0.2
				C364.5,57.4,371.1,53.9,376.4,55.3z"/>
			<path class="st7" d="M401.3,98.9c-13.8-1-11.6-2.7-33.7-0.8c0,1.4,0,2.6,0,4.1c2.6,1.6,2.3,10.2,4.9,11.8
				c2.5,1.6,18.1,2.1,21.8,0c3.5-2,3.3-10.3,7-10.9c0.2,0,0.9,0,1.1,0c3.8,0.4,3.5,8.9,7.1,10.9c3.7,2.1,19.2,1.6,21.8,0
				c2.5-1.6,2.3-10.2,4.9-11.8c0-1.4,0-2.6,0-4.1c-22.1-2-19.8-0.2-33.8,0.8C402.2,98.9,401.5,98.9,401.3,98.9z M393.4,113.1
				c-2.2,1.1-6.4,1.3-10.4,1.1c-4.2-0.1-8-0.2-9.6-1.5c-2-1.7-3.4-10.6-1.8-12.8c1.6-2.2,22.9-2,25.3,1.1
				C399.2,104,395.1,112.2,393.4,113.1z M430.4,112.6c-1.6,1.4-5.3,1.4-9.6,1.5c-4.1,0.1-8.3-0.1-10.4-1.1
				c-1.7-0.8-5.8-9.1-3.4-12.1c2.3-3.1,23.7-3.3,25.3-1.1C433.8,102,432.4,111,430.4,112.6z"/>
			<path class="st22" d="M400.9,221.5l50.3-50.3c-3.9-1.7-7.5-3.2-10.4-4.5l-39.8,39.9L361,166.7c-2.9,1.3-6.5,2.8-10.4,4.5
				L400.9,221.5z"/>
		</g>
	</g>
</g>
</svg>
