<?xml version="1.0" encoding="utf-8"?>
<!-- Generator: Adobe Illustrator 19.1.0, SVG Export Plug-In . SVG Version: 6.00 Build 0)  -->
<svg version="1.1" id="Capa_1" xmlns="http://www.w3.org/2000/svg" xmlns:xlink="http://www.w3.org/1999/xlink" x="0px" y="0px"
	 viewBox="0 0 900 900" style="enable-background:new 0 0 900 900;" xml:space="preserve">
<style type="text/css">
	.st0{fill:#ED1C24;}
	.st1{fill:#D1D3D4;}
	.st2{fill:#86CFC4;}
	.st3{fill:#E6E7E8;}
	.st4{fill:#66C5B2;}
	.st5{opacity:0.3;}
	.st6{fill:#FFFFFF;}
	.st7{fill:#30B697;}
	.st8{fill:none;stroke:#43BDA0;stroke-width:2.8716;stroke-linecap:round;stroke-linejoin:round;stroke-miterlimit:10;}
	.st9{fill:none;stroke:#30B697;stroke-width:0.3589;stroke-miterlimit:10;}
	.st10{fill:none;stroke:#30B697;stroke-width:0.3589;stroke-miterlimit:10;stroke-dasharray:1.4406,1.4406;}
	.st11{fill:none;stroke:#30B697;stroke-width:0.3589;stroke-miterlimit:10;stroke-dasharray:1.4405,1.4405;}
	.st12{fill:#209582;}
	.st13{fill:#17B89E;}
	.st14{fill:#FCDB2C;}
	.st15{fill:#FEC128;}
	.st16{opacity:0.1;fill:#FFFFFF;}
	.st17{fill:#8B5E3C;}
	.st18{fill:#9FCC3F;}
	.st19{fill:#754C29;}
	.st20{fill:#BAD64A;}
</style>
<g>
	<g>
		<g>
			<path class="st0" d="M594,473.5l-29.7,136.7c-0.9,4.2-4.6,7.2-8.9,7.2c-0.2,0-0.4,0-0.6,0c-4.5-0.3-8.1-3.8-8.5-8.2l-21.4-231.5
				l-42.3,110.1c-1.4,3.5-4.7,5.8-8.5,5.8H281.9C368,620.2,524.3,725.9,538.1,725.9c14.6,0,186.8-117.1,269.1-252.4H594z"/>
			<path class="st0" d="M696,167.9c-97.6-7.1-157.8,76.9-157.8,76.9s-60.2-84-157.8-76.9c-97.6,7.1-167.7,75.5-153.4,194.8
				c4.5,37.6,20.5,75.7,43.2,112.5h197.7l54.1-140.6c1.5-3.9,5.5-6.3,9.7-5.8c4.2,0.6,7.4,4,7.8,8.2L559,548.7l18.8-86.3
				c0.9-4.2,4.6-7.2,8.9-7.2h231.1c16.5-30.5,28-61.7,31.6-92.5C863.6,243.5,793.6,175,696,167.9z"/>
		</g>
		<g>
			<ellipse class="st1" cx="598.1" cy="786" rx="177.5" ry="28.8"/>
			<ellipse class="st1" cx="362" cy="875.4" rx="177.5" ry="21.6"/>
			<g>
				<g>
					<path class="st2" d="M507.8,634.8c2.6-5.4,8.6-19.2,20.9-11.1c14.6,9.7,46.6,34.3,67.8,45.5c21.1,11.2,31.6,15.3,38.4,18.2
						c6.7,2.8-20.7,24.3-54.2,4.1c-33.5-20.2-69.7-41.8-75.9-42.3C501.3,649,504.1,642.5,507.8,634.8z"/>
					<path class="st3" d="M747.2,707.3c0,0-33.3,59-172.9,44.8c-139.5-14.2-188.9-2.5-188.9-2.5s-11.4,20.4-9,27.8
						c3.2,9.6,12.1,16.7,35.6,19.5c1.8,0.2,3.9,0.4,6.1,0.6c-0.2-1.8,1.1-3.5,2.8-4c2.1-0.6,4,0.7,4.7,2.7c0.2,0.6,0.5,1.3,0.8,1.9
						c4.4,0.2,9.3,0.4,14.7,0.5c-0.9-1.5-0.8-3.4,0.5-4.7c1.4-1.4,4-1.5,5.4,0c1.2,1.3,2,2.9,2.6,4.6c0,0.1,0,0.1,0,0.2
						c4.7,0,9.7-0.1,15-0.2c0-1.4,0.4-2.8,1-4.1c0.9-1.9,3.6-2.4,5.3-1.4c1.9,1.1,2.2,3.2,1.4,5.1c0,0,0,0,0,0
						c0.2-0.4,0.1-0.2,0,0.1c14.8-0.6,31.6-1.8,50.4-3.8c46.7-5,85.4,10,153.7,1.1c0.2-1.6,0.5-3.1,0.8-4.6c1.2-4.8,8.6-2.8,7.4,2
						c-0.1,0.5-0.2,1-0.3,1.5c3.4-0.5,6.8-1.1,10.3-1.7c-0.4-1.1-0.8-2.1-1.1-3.2c-1.5-4.8,6-6.8,7.4-2c0.4,1.2,0.8,2.4,1.3,3.6
						c3-0.9,6.3-2.2,9.8-4c-0.4-0.7-0.8-1.4-1.1-2.2c-0.9-1.9-0.6-4.1,1.4-5.3c1.7-1,4.4-0.5,5.3,1.4c0.4,0.8,0.8,1.6,1.3,2.3
						C741.9,769.5,767.1,741.5,747.2,707.3z"/>
					<path class="st4" d="M734.9,693.8c-15.1,1.8-41.4,2.8-84.4-4.6c-3.7-0.6-9.8-1.4-18.2-2.9c-0.4,0.7-0.9,1.5-1.6,2.2
						c-5.2,5.4-26.9,2-40.5-2.3c-17.3-5.5-27.4-12.6-44.5-25.2c-7.3-5.3-18.8-15.7-28.1-17.3c-9.6-1.7-17.2,3.2-24.5,6.7
						c-7.3,3.5-16.9,8.3-35.6,5.4c-9-1.4-19.5-6.5-26.7-12.1c-10.6-8.1-18.7-21.5-27.8-4c-0.7,1.3-1.4,3.4-1.8,4.8
						c-2.2,8.4-5.8,20.4-11,34c-5,13.4-15.5,58.3-0.8,79.1c14.7,20.8,116.9,2.8,150.5,7.7c33.6,4.9,145.8,14.3,181.3-10.1
						C756.9,730.5,750,692,734.9,693.8z"/>
					<g class="st5">
						<path class="st6" d="M615.2,691.1L615.2,691.1l-0.3,0.3l-1.8-0.3l-0.1-0.3h0c-0.2,0-0.4,0-0.6-0.1l0,0l0.2,0.5l0,0.1l-0.2,0.3
							c0,0,0,0,0,0c0.2,0.1,0.4,0.2,0.5,0.2l0,0l0.1-0.1l1.8,0.3l0.2,0.7l0,0.1c0.2,0.1,0.5,0.2,0.7,0.3l0,0l-0.4-1.3l0.5-0.7
							C615.6,691.1,615.4,691.1,615.2,691.1z"/>
						<path class="st6" d="M734.9,695.8c0-0.2,0-0.4-0.1-0.6c-0.1-0.5-0.2-0.9-0.4-1.3c-0.2,0-0.3,0-0.5,0.1c0,0,0,0,0,0l0.5,1.5
							l-1.3,1.5l-0.8-0.1l-1-0.2l-0.2-0.5l-0.4-1.3l0.1-0.2l0.4-0.5l0,0c-0.2,0-0.5,0-0.8,0.1l0,0l-0.2,0.3l-1.1-0.2h0
							c-0.2,0-0.4,0-0.7,0.1c-0.2,0-0.4,0-0.6,0h0l0,0l-1.2,1.5l-0.5-0.1l-1.3-0.2l0,0v0l-0.2-0.5l-0.2-0.5c-0.2,0-0.4,0-0.6,0h0
							l0.4,1.2l-1.1,1.3l-0.2,0.2l-1.8-0.3l-0.6-1.8l0.4-0.5h0c-0.2,0-0.5,0-0.7,0h0l-0.1,0.1l-0.5-0.1h0c-0.4,0-0.8,0-1.2,0
							c-0.2,0-0.4,0-0.6,0c0,0,0,0,0,0h0l-1.2,1.4l-1.8-0.3l-0.4-1.1c-0.2,0-0.4,0-0.6,0l0,0l0.4,1.3l-0.6,0.7l-0.6,0.7l-0.8-0.1
							l-1-0.2l-0.6-1.8l0.6-0.8h0c-0.2,0-0.5,0-0.7,0l0,0l-0.4,0.4l-1.8-0.3l0-0.1l0-0.1l0,0c-0.2,0-0.4,0-0.6,0l0,0l0.1,0.4l-0.8,1
							l-0.4,0.5l-1.5-0.2l-0.3,0l-0.2-0.7l-0.3-1l0,0c0,0,0,0-0.1,0c-0.2,0-0.4,0-0.5,0c-0.5,0-0.9,0-1.4,0h0l1.5,0.2l0.6,1.8
							l-0.3,0.4l-0.9,1.1l-1.8-0.3l-0.6-1.8l0.6-0.7l0.6-0.8l0,0c-0.2,0-0.5,0-0.7,0l0,0l-1,1.1l-1.8-0.3l-0.3-1c0,0,0,0,0,0
							c-0.2,0-0.4,0-0.6,0l0.1,0.3l0.3,0.9l-1.3,1.5l-1.8-0.3l-0.6-1.8l0.7-0.9l0,0c-0.2,0-0.5,0-0.7,0l0,0l-0.5,0.5l-1.8-0.3
							l-0.1-0.4l0,0c-0.2,0-0.4,0-0.6,0l0.1,0.4l0.1,0.3l-1,1.2l-0.3,0.3l-1.8-0.3l-0.6-1.8l0.3-0.4c-0.2,0-0.4,0-0.7-0.1l0,0
							l-0.1,0.1l-0.4-0.1l-1.4-0.2c0,0,0,0,0,0c0,0,0,0-0.1,0c-0.1,0-0.2,0-0.3,0c-0.1,0-0.2,0-0.3,0l0.1,0.3l-1.3,1.5l-1.6-0.2
							l-0.3,0l-0.2-0.7l-0.4-1.1l0.1-0.1l0,0c0,0-0.1,0-0.1,0c-0.2,0-0.4,0-0.6-0.1c-0.5-0.1-1-0.1-1.6-0.2c-0.2,0-0.4,0-0.6-0.1
							l0,0l-1.2,1.5l-1.8-0.3l0-0.1l-0.5-1.5l0,0c-0.1,0-0.1,0-0.2,0c-0.2,0-0.3,0-0.5-0.1c-0.6-0.1-1.1-0.1-1.7-0.2
							c-0.1,0-0.3,0-0.4-0.1c-0.1,0-0.2,0-0.3,0l-1.1,1.3l-1.1-0.2l-0.7-0.1l-0.5-1.5h0c-0.1,0-0.2,0-0.3,0c-0.1,0-0.2,0-0.3,0l0,0
							h0l0,0c-0.1,0-0.1,0-0.2,0l0.2,0l0.6,1.8l-1.3,1.5l-1.8-0.3l-0.6-1.8l1.2-1.5l0,0c-0.2,0-0.4-0.1-0.6-0.1l0,0l-0.7,0.8
							l-0.3,0.4l-1.8-0.3l-0.5-1.4c-0.2,0-0.4-0.1-0.6-0.1h0l0.6,1.7l-1.3,1.5l-1.6-0.2l-0.3,0l-0.6-1.8l0.5-0.6l0.7-0.9l0,0
							c-0.2,0-0.4-0.1-0.6-0.1l-0.1,0.1l-1,1.1l-0.7-0.1l-1.1-0.2l-0.3-1l-0.2-0.5c-0.1,0-0.2,0-0.3,0c-0.1,0-0.2,0-0.4-0.1
							c-0.6-0.1-1.2-0.2-1.8-0.3c-0.1,0-0.3,0-0.4-0.1c-0.1,0-0.1,0-0.2,0l-1.1,1.3l-1.8-0.3l-0.5-1.6c0,0,0,0,0,0
							c-0.1,0-0.1,0-0.2,0c-0.2,0-0.3-0.1-0.5-0.1c-0.5-0.1-1.1-0.2-1.6-0.2c-0.2,0-0.3-0.1-0.5-0.1c0,0-0.1,0-0.1,0l-0.4,0.5
							l-0.8,0.9l-0.8-0.1l-1-0.2l-0.5-1.6c0,0-0.1,0-0.1,0c-0.2,0-0.3-0.1-0.5-0.1c-0.5-0.1-1.1-0.2-1.6-0.2c-0.2,0-0.4-0.1-0.5-0.1
							c0,0-0.1,0-0.1,0h0l-0.4,0.5l-0.7,0.9l-1.8-0.3l-0.6-1.7c0,0,0,0,0,0c-0.2,0-0.4-0.1-0.6-0.1c-0.5-0.1-1-0.2-1.5-0.3
							c-0.2,0-0.4-0.1-0.6-0.1c0,0,0,0,0,0v0l0,0l-1.3,1.5l-1-0.1c-0.1,0.2-0.3,0.4-0.4,0.5l1.3,0.2l0,0l0,0l0.1,0.3l0.5,1.4
							l-1.2,1.5l-1.8-0.3l-0.6-1.8l0.2-0.3l0,0c-0.1,0-0.2,0.1-0.3,0.1c-0.2,0.1-0.3,0.2-0.5,0.3c-0.1,0-0.1,0-0.2,0.1h0l0.2,0
							l0.6,1.8l-1.3,1.5l-0.8-0.1l-1-0.2l-0.6-1.8l0.2-0.3l0.2-0.3l0,0l0,0c-0.3,0.1-0.6,0.1-0.8,0.2L625,691l-0.2,0c0,0,0,0,0,0
							c-0.5,0.1-1.1,0.1-1.6,0.2c-0.1,0-0.3,0-0.4,0c-0.1,0-0.2,0-0.3,0l0,0l-0.7,0.8l-0.3,0.4l-1.8-0.3l-0.3-0.8l0,0
							c-0.2,0-0.4,0-0.6,0h0l0.4,1.1l-1.3,1.5l-0.5-0.1h0c0.1,0.1,0.3,0.1,0.4,0.2c0.2,0.1,0.3,0.1,0.5,0.2c0,0,0,0,0,0l0,0l0.6-0.7
							l0.6-0.7l1.8,0.3l0.6,1.8l-0.5,0.7h0c0.2,0.1,0.4,0.1,0.5,0.2l0,0l0.4-0.5l1.8,0.3l0.4,1.2h0c0.2,0.1,0.5,0.2,0.7,0.2h0
							l-0.6-1.7l1.3-1.5l1.8,0.3l0.6,1.7l0,0.1l-1.2,1.5l-1.6-0.2c0,0,0,0,0,0c0.4,0.2,0.9,0.3,1.4,0.5c0.2,0.1,0.4,0.1,0.6,0.2
							c0,0,0.1,0,0.1,0l0,0l0-0.1l1.3-1.5l1.1,0.2l0.7,0.1l0.3,0.9l0.3,0.9l-0.5,0.6c0.2,0.1,0.4,0.1,0.6,0.2l0,0l0.3-0.4l1.8,0.3
							l0.3,0.8l0,0c0.2,0.1,0.4,0.1,0.7,0.2l0,0l-0.4-1.2l1.2-1.5l1.8,0.3l0.6,1.8l-0.5,0.6l-0.5,0.6l0,0c0.2,0.1,0.4,0.1,0.6,0.2
							l0.3-0.3l0.6-0.7l1.8,0.3l0.5,1.6h0c0,0,0.1,0,0.1,0c0.2,0,0.3,0.1,0.5,0.1c0.5,0.1,1,0.2,1.6,0.4c0.2,0,0.4,0.1,0.5,0.1
							c0,0,0.1,0,0.1,0l0,0l0-0.1l1.3-1.5l0.6,0.1l1.2,0.2l0.6,1.8l-0.1,0.2l-0.2,0.2c0.2,0,0.4,0.1,0.6,0.1l0,0l0.1-0.1l1.7,0.2
							l0.1,0l0,0l0.1,0.3l0,0c0.2,0,0.4,0.1,0.7,0.1l-0.2-0.7l0.6-0.7l0.6-0.7l1.8,0.3l0.4,1.1l0.2,0.7l-0.6,0.7
							c0.2,0,0.4,0.1,0.6,0.1l0.4-0.5l1.7,0.2l0.1,0l0.2,0.7l0,0c0.2,0,0.4,0.1,0.6,0.1l0,0l-0.3-1l1.3-1.5l1.8,0.3l0.6,1.8
							l-0.6,0.7l-0.2,0.2c0.2,0,0.4,0.1,0.6,0.1l0.6-0.7l1.8,0.3l0.3,0.9l0,0c0.2,0,0.4,0.1,0.6,0.1l0,0l-0.4-1.2l0.7-0.8l0.6-0.7
							l1.8,0.3l0.4,1.3l0.1,0.4l-0.8,1l0,0c0.2,0,0.4,0.1,0.6,0.1h0l0.6-0.7l1.8,0.3l0.3,0.8h0c0.2,0,0.4,0,0.6,0.1l0,0l-0.4-1.1
							l1.1-1.3l0.2-0.2l0.2,0l1.6,0.2l0.5,1.4l0.1,0.3l-0.7,0.8c0.2,0,0.4,0,0.7,0.1l0.4-0.5l1.8,0.3l0.2,0.5l0,0
							c0.2,0,0.4,0,0.6,0.1h0l-0.2-0.8l1.2-1.5l1.8,0.3l0.5,1.4l0.1,0.4l-0.4,0.5h0c0.2,0,0.4,0,0.7,0.1l0,0l0.1-0.2l1.8,0.3l0,0
							l0,0c0.2,0,0.4,0,0.6,0l0,0l-0.1-0.3l0.3-0.3l1-1.2l0.3,0l1.6,0.2l0.6,1.8h0l0,0c0.2,0,0.4,0,0.6,0c0.6,0,1.1,0.1,1.7,0.1
							c0.1,0,0.3,0,0.4,0c0.1,0,0.2,0,0.3,0l1.1-1.3l1.8,0.3l0.4,1.2l0,0c0.2,0,0.4,0,0.6,0l0,0l-0.5-1.4l0.3-0.3l1-1.2l1.8,0.3
							l0.6,1.7l0,0l-0.6,0.7l-0.2,0.2c0.2,0,0.5,0,0.7,0h0l0.5-0.6l0.5,0.1l1.3,0.2l0.1,0.4l0,0c0.2,0,0.4,0,0.6,0l0,0l-0.2-0.7
							l1.3-1.5l1.8,0.3l0.6,1.8l0,0l-0.1,0.2c0.1,0,0.1,0,0.2,0c0.2,0,0.3,0,0.5,0c0.6,0,1.1,0,1.7,0c0.2,0,0.3,0,0.5,0
							c0.1,0,0.2,0,0.2,0l0,0l1.1-1.3l1.8,0.3l0.3,1h0c0.2,0,0.4,0,0.6,0h0l-0.4-1.2l0.3-0.4l0.9-1.1l1.8,0.3l0.6,1.8l-0.4,0.5l0,0
							c0.3,0,0.5,0,0.7,0l0.1-0.1l0.6,0.1h0c0.4,0,0.8-0.1,1.2-0.1c0.2,0,0.4,0,0.6,0c0,0,0.1,0,0.1,0l1.2-1.4l1.8,0.3l0.3,0.8l0,0
							c0.2,0,0.4-0.1,0.6-0.1l0,0l-0.3-0.9l1.3-1.5l0.6,0.1l1.3,0.2l0.5,1.6h0c0.1,0,0.1,0,0.2,0c0.1,0,0.2,0,0.3-0.1
							c0,0,0.1,0,0.1,0c0,0,0,0,0,0l-0.6-1.7l0.6-0.7l0.6-0.7l1.8,0.3l0.6,1.8l-0.4,0.5l0,0c0.2-0.1,0.4-0.1,0.7-0.2
							c0.1,0,0.2-0.1,0.3-0.1c0.3-0.1,0.6-0.2,0.9-0.3l0,0l-0.8-0.1l-0.6-1.8l0.6-0.7l0.6-0.7l1.8,0.3l0.6,1.8l-0.5,0.6
							c0.2-0.1,0.4-0.2,0.6-0.3c0.2-0.1,0.3-0.2,0.5-0.3c0.1,0,0.1-0.1,0.2-0.1c0,0,0,0,0,0l-0.3,0l-0.6-1.8l0.7-0.9l0.5-0.6
							l0.9,0.1l1,0.1l0.3,0.8l0,0c0.1-0.2,0.3-0.3,0.4-0.5l-0.2-0.5l0,0l1.3-1.5l0.2,0c0.1-0.2,0.2-0.4,0.2-0.5l-0.1,0l-0.1,0
							l-0.6-1.8l0.3-0.4L734.9,695.8L734.9,695.8L734.9,695.8C734.9,695.8,734.9,695.8,734.9,695.8z M623,691.3l0.2,0l1.6,0.2
							l0.6,1.8l-0.1,0.2l-1.1,1.3l-1.8-0.3l-0.6-1.8L623,691.3z M733.1,697.5l0.4,1.1l0.2,0.6l-1,1.2l-0.2,0.3l-1.8-0.3l-0.3-0.9
							l-0.3-0.9l0.6-0.7l0.6-0.7l0,0L733.1,697.5z M702.5,708.1l-0.6-1.8l1.3-1.5l1.8,0.3l0.6,1.7l0,0l-0.3,0.4l-1,1.1L702.5,708.1z
							 M700,705.8l-0.3,0l0-0.1l-0.5-1.7l0.9-1.1l0.3-0.4l1.8,0.3l0.6,1.8l-1.2,1.5L700,705.8z M697.9,707.5l-1.8-0.3l-0.2-0.5
							l-0.4-1.2l1.3-1.5l1.3,0.2l0.6,0.1l0.6,1.8l-1,1.1L697.9,707.5z M674.9,706.1l-1.8-0.3l-0.6-1.8l0.9-1.1l0.3-0.4l1.8,0.3
							l0.4,1.1l0.2,0.6l-0.8,0.9L674.9,706.1z M662,704.2l-1.4-0.2l-0.5-0.1l-0.6-1.8l1.3-1.5l1.8,0.3l0.6,1.8l-1,1.2L662,704.2z
							 M652.8,700.9l-0.9-0.1l-0.9-0.1l-0.6-1.8l0.5-0.6l0.7-0.9l0.4,0.1l1.5,0.2l0.6,1.8l-0.3,0.3L652.8,700.9z M633.4,698.1
							L633.4,698.1l-1.8-0.3l-0.6-1.8l1.2-1.5l1.8,0.3l0.6,1.8L633.4,698.1z M643.1,690.3l1.8,0.3l0.4,1.4l0.1,0.4l-0.2,0.3l-1,1.2
							l-1.5-0.2l-0.3,0l-0.6-1.8l0.1-0.2L643.1,690.3z M658.9,694.5l1.7,0.3l0.6,1.8l-0.4,0.4l-0.9,1l-1.8-0.3l-0.6-1.8l0,0
							L658.9,694.5L658.9,694.5z M662.5,693.1l1.8,0.3l0.6,1.8l-1.3,1.5l-1.8-0.3l-0.6-1.8l0.1-0.2L662.5,693.1z M665.6,695.5
							l1.5,0.2l0.3,1l0.2,0.7l-1.3,1.5l-1.8-0.3l-0.6-1.8l1.3-1.5L665.6,695.5z M687.2,694.7l0.2,0.7l0.4,1.1l-1.3,1.5l-0.9-0.1
							l-0.9-0.1l-0.1-0.3l-0.5-1.5l1.3-1.5l1.6,0.2L687.2,694.7z M689.9,697.1l0.1,0l0.6,1.8l-0.7,0.9l-0.5,0.6l-1.8-0.3h0l-0.4-1.3
							l-0.1-0.4l0.5-0.5l0.8-0.9L689.9,697.1z M698.3,696.3l1.8,0.3l0.6,1.8l-1.3,1.5l-1.8-0.3l-0.6-1.8l1.1-1.3L698.3,696.3z
							 M708.6,695.9l1.6,0.2l0.4,1.2l0.2,0.6l-1.3,1.5l-0.4-0.1l-1.5-0.2l-0.6-1.8l1.2-1.5L708.6,695.9z M728.5,694.9l1,0.1l0.8,0.1
							l0.6,1.8l-1.3,1.5l-1.8-0.3l-0.2-0.5l-0.4-1.3l1-1.2L728.5,694.9z M724.8,696.3L724.8,696.3l1.8,0.3l0.6,1.8l-1.3,1.5
							l-1.8-0.3l-0.6-1.8l0.8-0.9L724.8,696.3z M720.2,695.6l0.6,1.8l-1.3,1.5l-1.8-0.3l-0.6-1.8l1.2-1.5L720.2,695.6z M716.7,697.2
							l0.5,1.7l-1.2,1.5l-1.8-0.3l-0.4-1.4l-0.1-0.4l1.2-1.5l1.8,0.3L716.7,697.2z M709.7,705.3l-0.6-1.8l1.3-1.5l1.8,0.3l0.6,1.8
							l0,0l0,0l-1.3,1.5L709.7,705.3z M663.8,702.5l-0.6-1.8l0.6-0.7l0.6-0.7l1.8,0.3l0.5,1.5l0.1,0.2l-0.9,1.1l-0.4,0.4
							L663.8,702.5z M651.7,696.8l-0.6-1.8l1.1-1.3l0.1-0.2l1.8,0.3l0.6,1.8l-1.1,1.3l-0.1,0.2L651.7,696.8z M669.3,701.3l-1.8-0.3
							l-0.6-1.8l0.3-0.3l1-1.2l1.8,0.3l0.5,1.5l0.1,0.3L669.3,701.3z M661.7,696.9l1.8,0.3l0.6,1.8l-1.2,1.5l-1.8-0.3l-0.6-1.8
							L661.7,696.9z M691.1,699.2l1.8,0.3l0.6,1.8l-1.3,1.5l-0.7-0.1l-1.1-0.2l0,0l-0.5-1.5l-0.1-0.3L691.1,699.2z M694.4,698.1
							l0.2-0.3l1.8,0.3l0.6,1.8l-1,1.2l-0.2,0.2L694,701l0-0.1l-0.6-1.7L694.4,698.1z M702.9,699l0.6,1.8l-1.3,1.5l-1.8-0.3
							l-0.6-1.8l1.3-1.5L702.9,699z M703.3,704.3l-0.6-1.8l1.2-1.5l1.8,0.3l0.5,1.5l0.1,0.2l-1.3,1.5l-1.7-0.2L703.3,704.3z
							 M709.4,699.9l0.6,1.8l-1.3,1.5l-1.8-0.3l-0.6-1.8l1.3-1.5l0.3,0L709.4,699.9z M680.5,703l-0.2,0l0,0l-0.6-1.8l1.3-1.5
							l1.8,0.3l0.6,1.8l-1.2,1.5L680.5,703z M679.3,700.8l-1.8-0.3l-0.6-1.8l1.1-1.3l0.1-0.1l1.8,0.3l0.6,1.8L679.3,700.8z
							 M684.6,698.3l1.8,0.3l0.6,1.8l-1.2,1.5l-1.8-0.3l-0.6-1.8l0.9-1L684.6,698.3z M676.5,698.5l-0.2,0l-1.6-0.2l-0.6-1.8l1.3-1.5
							l1.8,0.3l0.6,1.8L676.5,698.5z M674.6,698.8l0.3,0l1.5,0.2l0.5,1.5l0.1,0.3l-0.3,0.4l-0.9,1.1l-1.8-0.3l-0.6-1.8L674.6,698.8z
							 M676.5,702.2l0.9-1l1.8,0.3l0.6,1.7l0,0.1l-1.2,1.5l-1.8-0.3l-0.6-1.8L676.5,702.2z M683.2,702.8l0.6-0.7l1.8,0.3l0.6,1.8
							l-1.3,1.5l-1.8-0.3l-0.6-1.8L683.2,702.8z M687.4,700.7l1.8,0.3l0.6,1.8l-0.9,1.1l-0.3,0.4l-1.8-0.3l-0.6-1.8L687.4,700.7z
							 M689.9,703.5l0.4-0.4l1.8,0.3l0.6,1.8l-1.2,1.5l-1.8-0.3l-0.6-1.8L689.9,703.5z M693.9,701.6l1.4,0.2l0.4,0.1l0.6,1.8
							l-1.3,1.5l-1.8-0.3l-0.6-1.8L693.9,701.6z M696.8,703.4l-0.6-1.8l1.3-1.5l1.8,0.3l0.6,1.8l-1.3,1.5L696.8,703.4z M706.8,703.5
							l1.8,0.3l0.6,1.8l-1.3,1.5l-1.8-0.3l-0.6-1.8L706.8,703.5z M713,698.5l0.5,1.5l0.1,0.2l-0.8,1l-0.4,0.5l-1.8-0.3l-0.6-1.8
							l1.3-1.5L713,698.5z M706.6,697.6l0.5,1.4l0.1,0.4l-1.3,1.5l-1.8-0.3l-0.6-1.8l1.3-1.5l0.6,0.1L706.6,697.6z M683.6,696.2
							l0.6,1.8l-0.1,0.1l-1.1,1.3l-1.8-0.3l-0.6-1.8l1.2-1.5l1.5,0.2L683.6,696.2z M673.6,696.7l0.6,1.7v0l-1.2,1.5l-1.8-0.3
							l-0.6-1.8l1.3-1.5L673.6,696.7z M671.2,695.8l0.1,0.2l-1.3,1.5l-1.8-0.3l-0.6-1.8l1.3-1.5l1.8,0.3L671.2,695.8z M656,692.1
							l1.8,0.3l0.6,1.8l-0.6,0.7l-0.6,0.7l-1.8-0.3l-0.6-1.8L656,692.1z M651.4,691.5l0.6,1.8l-1.3,1.5l-0.8-0.1l-1-0.2l-0.6-1.8
							l1.2-1.5L651.4,691.5z M646.5,696.1l-1.2-0.2L645,695l-0.3-0.9l1.3-1.5l1.8,0.3l0.6,1.8l-1.3,1.5L646.5,696.1z M642.8,697.5
							l-1.1-0.2l-0.3-0.9l-0.3-0.9l1.3-1.5l0.4,0.1l1.4,0.2l0.6,1.8l-1.2,1.5L642.8,697.5z M639.9,699l-1.8-0.3l0,0l-0.6-1.8
							l0.7-0.9l0.5-0.6l1.8,0.3l0.6,1.8L639.9,699z M635.2,696.4l-0.6-1.8l0.3-0.3l1-1.2l1.8,0.3l0.6,1.8h0h0l-0.3,0.4l-0.9,1.1
							L635.2,696.4z M641.3,692l0.6,1.8l-1.2,1.5l-0.9-0.1l-0.9-0.1l-0.1-0.2l-0.5-1.6l0.6-0.7l0.6-0.7L641.3,692z M636.7,689.3
							l1.8,0.3h0l0.6,1.8l-1,1.2l-0.2,0.3l-1.8-0.3l-0.5-1.6l0-0.2L636.7,689.3z M633.1,690.8l1.8,0.3l0.4,1.2l0.2,0.6l-1.2,1.5
							l-1.8-0.3l-0.6-1.8l0.6-0.7L633.1,690.8z M644.5,699.7l-0.6-1.8l1.1-1.4l0.1-0.1l1.5,0.2l0.3,0l0.6,1.8l-0.8,1l-0.4,0.5
							L644.5,699.7z M647.5,696.5l0.4-0.5l0.9-1l1,0.2l0.8,0.1l0.6,1.8l-1.2,1.5l-1.8-0.3L647.5,696.5z M654.1,697.7l-0.1-0.2
							l0.9-1.1l0.3-0.4l1.8,0.3l0.6,1.8l-0.3,0.4l-0.9,1.1l-1.8-0.3L654.1,697.7z M657.4,699.1l0.6-0.7l1.7,0.2l0.2,0l0.6,1.8
							l-1.3,1.5l-1.8-0.3l-0.5-1.4l-0.1-0.4L657.4,699.1z M666.7,704.9l-0.6-1.8l1.2-1.5l1.8,0.3l0.6,1.8l-1.2,1.5L666.7,704.9z
							 M670.2,703.3l-0.5-1.7l1.3-1.5l1.8,0.3l0.6,1.8l-1.3,1.5l-1.8-0.3L670.2,703.3z M679.5,706.8L679,705l1.2-1.5l1.8,0.3
							l0.6,1.8l-1.2,1.5L679.5,706.8z M712,705.9l1.3-1.5l1.8,0.3l0.6,1.8l-1.2,1.5l-1.8-0.3L712,705.9z M713.3,703.8l-0.6-1.8
							l1.3-1.5l1.8,0.3l0.6,1.8l-1.3,1.5L713.3,703.8z M718.8,702.7l-1.8-0.3l-0.6-1.8l0.7-0.9l0.5-0.6l1.8,0.3l0.6,1.8L718.8,702.7
							z M720.6,701l-0.6-1.8l1-1.2l0.2-0.3l1.8,0.3l0.6,1.8l-1.3,1.5l-1.1-0.2L720.6,701z M725.2,703.6l-1.8-0.3l-0.6-1.8l1.2-1.5
							l1.8,0.3l0.6,1.8L725.2,703.6z M728.8,702.2l-1.8-0.3l-0.6-1.8l1.2-1.5l0.3,0l1.6,0.2l0.5,1.6l0.1,0.2L728.8,702.2z
							 M691.8,695.4l0.7,0.1l1.1,0.2l0.6,1.8l-1.1,1.3l-0.2,0.2l-1.8-0.3l-0.6-1.8L691.8,695.4z M680.8,693.8l0.6,1.7l0,0l-1.2,1.5
							l-1.8-0.3l-0.6-1.8l0.4-0.4l0.9-1l0.6,0.1L680.8,693.8z M672.5,692.6l1.8,0.3l0.6,1.8l-1.3,1.5l-1.6-0.2l-0.2,0l0,0l0,0
							l-0.1-0.3l-0.5-1.4L672.5,692.6z M655,690L655,690l0.5,1.5l0.1,0.3l-0.3,0.4l-0.9,1.1l-1.8-0.3l-0.6-1.8l1.2-1.5l0.9,0.1
							L655,690z M646.1,689.6l0.6-0.7l1.8,0.3l0.6,1.8l-0.2,0.3l-1,1.2l-0.9-0.1l-0.9-0.1l-0.6-1.8L646.1,689.6z M642.1,688.2
							l0.6,1.8l-0.6,0.7l-0.6,0.7l-1.8-0.3l-0.1-0.3l-0.5-1.5l1.3-1.5l1.5,0.2L642.1,688.2z M635.8,687.4l0.5,1.5l-0.6,0.7l-0.6,0.7
							l-0.4-0.1l-1.4-0.2l-0.6-1.8l1.2-1.5l1.8,0.3L635.8,687.4z M628.2,693.7l0.1-0.2l1.1-1.3l1.8,0.3l0.6,1.8l-0.6,0.7l-0.6,0.7
							l-1.8-0.3l-0.4-1.3L628.2,693.7z M640.9,701.1l-0.6-1.8l1.3-1.5l1.8,0.3l0.6,1.8l-0.7,0.9l-0.5,0.6L640.9,701.1z M649.2,702.3
							l-0.6-0.1l-1.2-0.2h0l-0.6-1.8l1.2-1.5l1.8,0.3l0.6,1.8L649.2,702.3z M653.8,703l-0.4-1.4l-0.1-0.4l0.5-0.6l0.7-0.9l0.6,0.1
							l1.2,0.2l0.6,1.8l-1.2,1.5l-0.8-0.1L653.8,703z M685.4,705.9l1.3-1.5l1.8,0.3l0.6,1.8l-1.3,1.5l-1.8-0.3l0,0L685.4,705.9z
							 M718,706.5l-1.8-0.3l0,0l-0.6-1.8l1.3-1.5l1.8,0.3l0.6,1.8l0,0l0,0l-0.7,0.9L718,706.5z M722.6,703.8l-1,1.2l-1.8-0.3
							l-0.6-1.8l0.6-0.7l0.6-0.7l0.7,0.1l1.2,0.2l0.6,1.8L722.6,703.8z"/>
					</g>
					<path class="st3" d="M445.6,728.7c17.8,2.5,25.5-5.2,32.6-9c5.7-3,16.3-9.9,22.8-5c3.1,2.3,7.8,14.6,14.2,17.4
						c13,5.9,24.8-1.1,35.7-4.2c17.9-5,20.1-8.1,33.5-7c10.4,0.9,28.1,14.1,36.8,22.4c16.1,15.4,26.8,20.6,40.8,26.6
						c15.2-1.2,29.3-3.3,40.8-6.7c-39.4,6.6-51.3-6.5-82.7-33.7c-14.4-12.5-20.9-18.1-39.3-18.1c-10.8,0-20.3,4-34,8.3
						c-8.5,2.7-20.1,7-28.6,2.9c-7-3.4-4.7-19.2-15.2-22.2c-10.5-3-21.9,7.1-36.9,15c-11.5,6.1-29.9,5.5-45.7-13.8
						C421.6,705.7,432.6,726.9,445.6,728.7z"/>
					<path class="st3" d="M415.8,717.5c-7-11.6-18.4-18.6-29.3-26c-4.6,19.2-8.3,49.8,3.1,66c4.8,6.8,18.8,9.4,36.7,10.1
						C425.8,751,424.1,731.2,415.8,717.5z"/>
					<path class="st7" d="M737.1,693.9c5.6,24.4-19.7,46.5-42.1,55.3c-37.1,14.6-77.2,6.9-115.3,1.1c-21.1-3.2-41.9-5.4-63.3-4
						c-22.6,1.4-45,3.7-67.7,3.8c-14.9,0.1-54.3,0.7-66.4-16.2c0.7,9,2.9,17.3,7.2,23.5c14.7,20.8,116.9,2.8,150.5,7.7
						c33.6,4.9,145.8,14.3,181.3-10.1C755.1,731.8,750.6,696,737.1,693.9z"/>
					<path class="st8" d="M545.5,631.5c0,0-8.6,5.7-17.2,24.2"/>
					<path class="st8" d="M558.8,641.3c0,0-11.1,8.3-15.7,24.3"/>
					<path class="st8" d="M571,650c0,0-9.6,9.2-13.7,23.6"/>
					<path class="st8" d="M584.5,659.5c0,0-10,9-13.5,22.5"/>
					<path class="st8" d="M597.8,667.2c0,0-12.8,12.3-12.8,20.1"/>
					<path class="st8" d="M611.6,675.7c0,0-7.8,7-10.5,15.7"/>
					<path class="st7" d="M624,697.6c-31.3-1.2-63.3-15.5-88.3-34.2c-6.1-4.5-10.7-8.5-17.1-12.4c-6.3-3.8-10.6,2.5-29.1,9.8
						c-17.5,6.8-30.3,5-48.7,0.3c-9.9-2.6-30.5-12-36.9-22.9c-0.9,1.7-1.4,2.5-2,4.3c-1,3-1.2,4.1-1.6,5.6c-0.3,0.9-0.5,1.9-0.8,2.8
						c10.2,21.5,52.5,33.5,103.5,15.9c12.8-4.4,17.1-5.4,34.3,7.4c13,9.7,29.9,17.1,46,21.4C600.3,700,630.1,702.8,624,697.6z"/>
					<g>
						<g>
							<path class="st9" d="M385.2,696.8c0,0,0.5,0.3,1.4,0.8"/>
							<path class="st10" d="M389.4,699.2c7,4.4,20.7,14.4,24.4,27.9c4.6,16.5,6.2,27.1,6.6,37"/>
							<path class="st9" d="M420.5,765.7c0,0.5,0,1.1,0,1.6"/>
						</g>
					</g>
				</g>
				<g>
					<path class="st2" d="M360.9,643.3c5-3.2,17.4-11.9,23.6,1.6c7.3,15.9,21.6,53.7,33.8,74.3c12.1,20.6,18.9,29.7,23.1,35.6
						c4.2,5.9-30.4,9.8-48.3-25c-17.9-34.8-37.3-72.2-42.4-75.9C347.9,652,353.6,648,360.9,643.3z"/>
					<path class="st3" d="M526.6,830.8c0,0-59.4,32.7-170.6-52.7c-111.3-85.4-159.4-101.3-159.4-101.3s-20.5,11.4-22.3,18.9
						c-2.3,9.9,1.5,20.6,20,35.3c1.5,1.2,3.1,2.4,4.8,3.7c0.8-1.6,2.8-2.4,4.5-1.9c2.1,0.6,3.1,2.7,2.6,4.8c-0.1,0.7-0.2,1.3-0.3,2
						c3.6,2.5,7.7,5.2,12.3,8.1c0-1.7,1.1-3.3,2.9-3.8c2-0.5,4.2,0.8,4.6,2.9c0.3,1.8,0.2,3.5-0.2,5.3c0,0.1-0.1,0.1-0.1,0.2
						c4,2.5,8.3,5,12.9,7.7c0.7-1.2,1.8-2.2,3-3c1.7-1.2,4.3-0.1,5.2,1.6c1,1.9,0.2,3.9-1.5,5.1c0,0,0,0,0,0c0.4-0.2,0.2-0.1,0,0.1
						c12.9,7.2,27.8,15.1,44.9,23.2c42.3,20.3,67.4,53.4,130.3,81.7c1-1.2,2-2.4,3.1-3.5c3.5-3.5,8.8,2.1,5.2,5.6
						c-0.4,0.4-0.7,0.7-1,1.1c3.1,1.3,6.4,2.6,9.7,3.9c0.2-1.1,0.5-2.2,0.8-3.3c1.3-4.8,8.6-2.6,7.4,2.2c-0.3,1.2-0.6,2.5-0.8,3.7
						c3,0.8,6.5,1.4,10.4,1.8c0-0.8,0.1-1.6,0.2-2.4c0.3-2.1,1.7-3.8,3.9-3.8c1.9,0,4,1.9,3.8,3.9c-0.1,0.9-0.1,1.8-0.2,2.7
						C489.4,881,525.5,870.3,526.6,830.8z"/>
					<path class="st4" d="M523.1,812.8c-13.9-6.4-36.7-19.4-69.4-48.2c-2.8-2.5-7.6-6.4-13.9-12c-0.7,0.4-1.5,0.8-2.5,1
						c-7.2,1.9-23.9-12.4-33.2-23.2c-11.8-13.7-16.7-25.1-24.6-44.9c-3.4-8.4-7.8-23.2-14.8-29.5c-7.2-6.5-16.3-6.3-24.3-7.2
						c-8-0.8-18.7-1.8-33.2-14.1c-6.9-5.9-13.1-15.8-16.4-24.3c-4.7-12.5-4.6-28.2-21.5-18c-1.3,0.8-3,2.1-4.1,3.1
						c-6.3,5.9-15.6,14.3-27.2,23.2c-11.3,8.7-43.8,41.5-42.2,66.9c1.6,25.4,98,63.8,124.1,85.6c26,21.8,116.5,88.8,159.6,86.6
						C522.6,855.7,537,819.2,523.1,812.8z"/>
					<g class="st5">
						<path class="st6" d="M422.7,747.7C422.7,747.7,422.7,747.7,422.7,747.7l-0.4,0.1l-1.4-1.2l0.1-0.3l0,0
							c-0.2-0.1-0.3-0.3-0.5-0.4l0,0l-0.1,0.5l0,0.1l-0.3,0.1v0c0.1,0.2,0.2,0.3,0.3,0.5l0,0l0.2-0.1l1.4,1.2l-0.2,0.7l0,0.1
							c0.1,0.2,0.3,0.4,0.4,0.6c0,0,0,0,0,0l0.3-1.4l0.8-0.3C423.1,747.9,422.9,747.8,422.7,747.7z"/>
						<path class="st6" d="M522.2,814.5c0.1-0.2,0.2-0.3,0.2-0.5c0.2-0.4,0.3-0.9,0.4-1.3c-0.1-0.1-0.3-0.1-0.5-0.2l0,0L522,814
							l-1.8,0.6l-0.6-0.5l-0.8-0.7l0.1-0.5l0.3-1.3l0.2-0.1l0.7-0.2l0,0c-0.2-0.1-0.5-0.2-0.7-0.3v0l-0.3,0.1l-0.9-0.7c0,0,0,0,0,0
							c-0.2-0.1-0.4-0.2-0.6-0.3c-0.2-0.1-0.3-0.2-0.5-0.3h0v0l-1.8,0.6l-0.4-0.3l-1-0.9v0l0,0l0.1-0.5l0.1-0.5
							c-0.2-0.1-0.4-0.2-0.5-0.3l0,0l-0.3,1.2l-1.5,0.5l-0.3,0.1l-1.4-1.2l0.4-1.8l0.6-0.2v0c-0.2-0.1-0.4-0.2-0.6-0.4l0,0l-0.1,0
							l-0.4-0.3c0,0,0,0,0,0c-0.3-0.2-0.7-0.4-1.1-0.6c-0.2-0.1-0.3-0.2-0.5-0.3c0,0,0,0,0,0l0,0l-1.8,0.6l-1.4-1.2l0.3-1.1
							c-0.2-0.1-0.3-0.2-0.5-0.3v0l-0.3,1.4l-0.9,0.3l-0.9,0.3l-0.6-0.5l-0.8-0.7l0.4-1.8l1-0.3h0c-0.2-0.1-0.4-0.3-0.6-0.4v0
							l-0.5,0.2l-1.4-1.2l0-0.1l0-0.1v0c-0.2-0.1-0.3-0.2-0.5-0.3l0,0l-0.1,0.4l-1.2,0.4l-0.7,0.2l-1.2-1l-0.2-0.2l0.2-0.7l0.3-1.1
							l0,0c0,0,0,0-0.1,0c-0.2-0.1-0.3-0.2-0.5-0.3c-0.4-0.3-0.8-0.5-1.2-0.8c0,0,0,0,0,0l1.1,0.9l-0.4,1.8l-0.5,0.2l-1.3,0.4
							l-1.4-1.2l0.4-1.8l0.9-0.3l0.9-0.3h0c-0.2-0.1-0.4-0.3-0.6-0.4h0l-1.4,0.5l-1.4-1.2l0.2-1c0,0,0,0,0,0
							c-0.2-0.1-0.3-0.2-0.5-0.3l-0.1,0.3l-0.2,0.9l-1.8,0.6l-1.4-1.2l0.4-1.8l1.1-0.4l0,0c-0.2-0.1-0.4-0.3-0.6-0.4v0l-0.7,0.2
							l-1.4-1.2l0.1-0.4c0,0,0,0,0,0c-0.2-0.1-0.3-0.2-0.5-0.4l-0.1,0.4l-0.1,0.3l-1.4,0.5l-0.4,0.1l-1.4-1.2l0.4-1.8l0.5-0.2
							c-0.2-0.1-0.4-0.3-0.5-0.4h0l-0.1,0l-0.3-0.2l-1.1-0.9c0,0,0,0,0,0c0,0,0,0,0,0c-0.1-0.1-0.2-0.1-0.3-0.2
							c-0.1-0.1-0.2-0.1-0.2-0.2l-0.1,0.3l-1.8,0.6l-1.2-1l-0.2-0.2l0.2-0.7l0.3-1.1l0.1,0l0,0c0,0-0.1,0-0.1-0.1
							c-0.2-0.1-0.3-0.2-0.5-0.3c-0.4-0.3-0.8-0.6-1.3-1c-0.2-0.1-0.3-0.3-0.5-0.4c0,0,0,0,0,0l-1.8,0.6l-1.4-1.2l0-0.1l0.4-1.5l0,0
							c0,0-0.1-0.1-0.1-0.1c-0.1-0.1-0.2-0.2-0.4-0.3c-0.5-0.4-0.9-0.7-1.4-1.1c-0.1-0.1-0.2-0.2-0.3-0.3c-0.1-0.1-0.1-0.1-0.2-0.2
							l-1.6,0.5l-0.9-0.7l-0.6-0.5l0.4-1.5h0c-0.1-0.1-0.2-0.1-0.2-0.2c-0.1-0.1-0.2-0.1-0.3-0.2l0,0l0,0v0c0,0-0.1-0.1-0.1-0.1
							l0.1,0.1l-0.4,1.8l-1.8,0.6l-1.4-1.2l0.4-1.8l1.8-0.6l0,0c-0.2-0.1-0.3-0.3-0.5-0.4l0,0l-1,0.3l-0.5,0.2l-1.4-1.2l0.3-1.5
							c-0.2-0.1-0.3-0.3-0.5-0.4c0,0,0,0,0,0l-0.4,1.8l-1.8,0.6l-1.2-1l-0.2-0.2l0.4-1.8l0.7-0.2l1.1-0.4l0,0
							c-0.2-0.1-0.3-0.3-0.5-0.4l-0.1,0l-1.4,0.5l-0.6-0.5l-0.8-0.7l0.2-1l0.1-0.5c-0.1-0.1-0.1-0.1-0.2-0.2
							c-0.1-0.1-0.2-0.2-0.3-0.2c-0.4-0.4-0.9-0.8-1.3-1.2c-0.1-0.1-0.2-0.2-0.3-0.3c-0.1,0-0.1-0.1-0.2-0.1l-1.6,0.5l-1.4-1.2
							l0.4-1.6l0,0c0,0-0.1-0.1-0.1-0.1c-0.1-0.1-0.3-0.2-0.4-0.3c-0.4-0.3-0.8-0.7-1.3-1.1c-0.1-0.1-0.3-0.2-0.4-0.3
							c0,0-0.1-0.1-0.1-0.1l-0.6,0.2l-1.1,0.4l-0.6-0.5l-0.8-0.7l0.4-1.7c0,0-0.1,0-0.1-0.1c-0.1-0.1-0.3-0.2-0.4-0.3
							c-0.4-0.3-0.8-0.7-1.2-1.1c-0.1-0.1-0.3-0.2-0.4-0.4c0,0-0.1,0-0.1-0.1v0l-0.7,0.2l-1.1,0.4l-1.4-1.2l0.4-1.8c0,0,0,0,0,0
							c-0.2-0.1-0.3-0.3-0.5-0.4c-0.4-0.3-0.8-0.7-1.2-1c-0.2-0.1-0.3-0.3-0.5-0.4c0,0,0,0,0,0l0,0l0,0l-1.8,0.6l-0.8-0.7
							c-0.2,0.1-0.4,0.2-0.6,0.2l1,0.9l0,0v0l-0.1,0.4l-0.3,1.4l-1.8,0.6l-1.4-1.2l0.4-1.8l0.3-0.1h0c-0.1,0-0.2,0-0.3,0
							c-0.2,0-0.4,0-0.6-0.1c-0.1,0-0.1,0-0.2,0l0,0l0.2,0.1l-0.4,1.8l-1.8,0.6l-0.6-0.5l-0.8-0.7l0.4-1.8l0.4-0.1l0.3-0.1v0l0,0
							c-0.3-0.1-0.5-0.2-0.8-0.3l-0.1,0l-0.2-0.1c0,0,0,0,0,0c-0.5-0.2-1-0.4-1.5-0.7c-0.1-0.1-0.3-0.1-0.4-0.2
							c-0.1,0-0.2-0.1-0.3-0.1l0,0l-1,0.3l-0.5,0.2l-1.4-1.2l0.2-0.9h0c-0.2-0.1-0.3-0.2-0.5-0.3l0,0l-0.3,1.1l-1.8,0.6l-0.4-0.3v0
							c0.1,0.1,0.2,0.2,0.3,0.4c0.1,0.1,0.2,0.3,0.3,0.4c0,0,0,0,0,0v0l0.9-0.3l0.9-0.3l1.4,1.2l-0.4,1.8l-0.8,0.3v0
							c0.1,0.2,0.2,0.3,0.3,0.5l0,0l0.6-0.2l1.4,1.2l-0.3,1.3v0c0.2,0.2,0.3,0.4,0.5,0.6c0,0,0,0,0,0l0.4-1.7l1.8-0.6l1.4,1.2
							l-0.4,1.7l0,0.1l-1.8,0.6l-1.2-1c0,0,0,0,0,0c0.3,0.4,0.6,0.7,0.9,1.1c0.1,0.2,0.3,0.3,0.4,0.5c0,0,0,0.1,0.1,0.1h0l0-0.1
							l1.8-0.6l0.9,0.7l0.5,0.4l-0.2,0.9l-0.2,0.9l-0.7,0.2c0.1,0.1,0.3,0.3,0.4,0.4l0,0l0.5-0.2l1.4,1.2l-0.2,0.8c0,0,0,0,0,0
							c0.2,0.2,0.3,0.3,0.5,0.5c0,0,0,0,0,0l0.3-1.2l1.8-0.6l1.4,1.2l-0.4,1.8l-0.8,0.3l-0.8,0.3c0,0,0,0,0,0
							c0.1,0.1,0.3,0.3,0.4,0.4l0.4-0.1l0.9-0.3l1.4,1.2l-0.4,1.6v0c0,0,0.1,0.1,0.1,0.1c0.1,0.1,0.2,0.3,0.4,0.4
							c0.4,0.4,0.7,0.8,1.1,1.1c0.1,0.1,0.3,0.3,0.4,0.4c0,0,0.1,0.1,0.1,0.1h0l0-0.1l1.8-0.6l0.5,0.4l0.9,0.8l-0.4,1.8l-0.2,0.1
							l-0.2,0.1c0.1,0.1,0.3,0.3,0.4,0.4c0,0,0,0,0,0l0.2-0.1l1.3,1.1l0.1,0.1v0l-0.1,0.3v0c0.2,0.2,0.3,0.3,0.5,0.5l0.2-0.7
							l0.9-0.3l0.9-0.3l1.4,1.2l-0.3,1.1l-0.2,0.7l-0.9,0.3c0.2,0.1,0.3,0.3,0.5,0.4l0.6-0.2l1.3,1.1l0.1,0.1l-0.2,0.7c0,0,0,0,0,0
							c0.2,0.1,0.3,0.3,0.5,0.4c0,0,0,0,0,0l0.3-1.1l1.8-0.6l1.4,1.2l-0.4,1.8l-0.9,0.3l-0.2,0.1c0.2,0.1,0.3,0.3,0.5,0.4l0.9-0.3
							l1.4,1.2l-0.2,0.9h0c0.2,0.1,0.3,0.3,0.5,0.4l0,0l0.3-1.2l1-0.3l0.9-0.3l1.4,1.2l-0.3,1.4l-0.1,0.4l-1.2,0.4l0,0
							c0.2,0.1,0.3,0.3,0.5,0.4v0l0.9-0.3l1.4,1.2l-0.2,0.8l0,0c0.2,0.1,0.3,0.3,0.5,0.4l0,0l0.3-1.1l1.6-0.5l0.2-0.1l0.1,0.1
							l1.3,1.1l-0.3,1.5l-0.1,0.3l-1,0.3c0.2,0.1,0.4,0.3,0.5,0.4l0.7-0.2l1.4,1.2l-0.1,0.5v0c0.2,0.1,0.3,0.3,0.5,0.4l0,0l0.2-0.8
							l1.8-0.6l1.4,1.2l-0.3,1.4l-0.1,0.4l-0.6,0.2h0c0.2,0.1,0.4,0.3,0.5,0.4l0,0l0.2-0.1l1.4,1.2l0,0c0,0,0,0,0,0
							c0.2,0.1,0.3,0.2,0.5,0.4c0,0,0,0,0,0l0.1-0.3l0.4-0.1l1.5-0.5l0.2,0.2l1.2,1l-0.4,1.8v0l0,0c0.2,0.1,0.3,0.2,0.5,0.4
							c0.5,0.3,0.9,0.6,1.4,1c0.1,0.1,0.2,0.2,0.3,0.2c0.1,0.1,0.2,0.1,0.2,0.2l1.6-0.5l1.4,1.2l-0.3,1.2c0,0,0,0,0,0
							c0.2,0.1,0.3,0.2,0.5,0.3l0,0l0.3-1.4l0.4-0.1l1.5-0.5l1.4,1.2l-0.4,1.8v0l-0.9,0.3l-0.3,0.1c0.2,0.1,0.4,0.3,0.6,0.4l0,0
							l0.8-0.3l0.4,0.3l1,0.8l-0.1,0.5l0,0c0.2,0.1,0.3,0.2,0.5,0.3l0,0l0.2-0.7l1.8-0.6l1.4,1.2l-0.4,1.8l-0.1,0l-0.2,0.1
							c0.1,0,0.1,0.1,0.2,0.1c0.1,0.1,0.3,0.2,0.4,0.3c0.5,0.3,1,0.6,1.4,0.9c0.1,0.1,0.3,0.2,0.4,0.2c0.1,0,0.1,0.1,0.2,0.1h0
							l1.6-0.5l1.4,1.2l-0.2,1h0c0.2,0.1,0.3,0.2,0.5,0.3l0,0l0.3-1.2l0.5-0.2l1.3-0.4l1.4,1.2l-0.4,1.8l-0.6,0.2l0,0
							c0.2,0.1,0.4,0.2,0.7,0.4l0.2-0.1l0.4,0.4c0,0,0,0,0,0c0.4,0.2,0.7,0.4,1,0.5c0.2,0.1,0.4,0.2,0.5,0.3c0,0,0.1,0,0.1,0.1
							l1.7-0.6l1.4,1.2l-0.2,0.8l0,0c0.2,0.1,0.4,0.2,0.5,0.2l0,0l0.2-1l1.8-0.6l0.4,0.4l1,0.8l-0.4,1.7h0c0.1,0,0.1,0,0.2,0.1
							c0.1,0,0.2,0.1,0.3,0.1c0,0,0.1,0,0.1,0l0,0l0.4-1.8l0.9-0.3l0.9-0.3l1.4,1.2l-0.4,1.8l-0.6,0.2l0,0c0.2,0.1,0.4,0.1,0.7,0.2
							c0.1,0,0.2,0.1,0.3,0.1c0.3,0.1,0.6,0.1,0.9,0.2l0,0l-0.7-0.6l0.4-1.8l0.9-0.3l0.9-0.3l1.4,1.2l-0.4,1.8l-0.7,0.2
							c0.2,0,0.4,0,0.6,0c0.2,0,0.4,0,0.6,0c0.1,0,0.2,0,0.3,0l0,0l-0.2-0.2l0.4-1.8l1.1-0.3l0.8-0.3l0.7,0.6l0.7,0.6l-0.2,0.9l0,0
							c0.2-0.1,0.4-0.1,0.6-0.2l0.1-0.6l0,0l1.8-0.6l0.1,0.1c0.2-0.1,0.3-0.2,0.5-0.3L520,817l-0.1-0.1l0.4-1.8l0.5-0.2L522.2,814.5
							L522.2,814.5L522.2,814.5C522.1,814.5,522.2,814.5,522.2,814.5z M429.3,751.9l0.1,0.1l1.3,1.1l-0.4,1.8l-0.2,0.1l-1.6,0.5
							l-1.4-1.2l0.4-1.8L429.3,751.9z M519.7,815l-0.3,1.2l-0.2,0.6l-1.5,0.5l-0.4,0.1l-1.4-1.2l0.2-0.9l0.2-0.9l0.9-0.3l0.9-0.3
							l0,0L519.7,815z M488.1,808l0.4-1.8l1.8-0.6l1.4,1.2l-0.4,1.8v0l-0.4,0.1l-1.4,0.5L488.1,808z M487.2,804.7l-0.3-0.2l0-0.1
							l0.4-1.7l1.4-0.5l0.4-0.1l1.4,1.2l-0.4,1.8l-1.8,0.6L487.2,804.7z M484.5,805l-1.4-1.2l0.1-0.5l0.3-1.3l1.8-0.6l1,0.8l0.4,0.4
							l-0.4,1.8l-1.4,0.5L484.5,805z M465.7,791.8l-1.4-1.2l0.4-1.8l1.4-0.5l0.5-0.2l1.4,1.2l-0.3,1.2l-0.1,0.6l-1.1,0.4
							L465.7,791.8z M455.7,783.4l-1.1-0.9l-0.4-0.3l0.4-1.8l1.8-0.6l1.4,1.2l-0.4,1.8l-1.5,0.5L455.7,783.4z M449.6,775.7l-0.7-0.6
							l-0.7-0.6l0.4-1.8l0.8-0.3l1.1-0.4l0.3,0.2l1.1,0.9l-0.4,1.8l-0.4,0.1L449.6,775.7z M434.6,763.2L434.6,763.2l-1.4-1.2
							l0.4-1.8l1.8-0.6l1.4,1.2l-0.4,1.8L434.6,763.2z M446.9,761.6l1.4,1.2l-0.3,1.4l-0.1,0.4l-0.3,0.1l-1.5,0.5l-1.2-1l-0.3-0.2
							l0.4-1.8l0.2-0.1L446.9,761.6z M458.1,773.6l1.3,1.1l-0.4,1.8l-0.5,0.2l-1.3,0.4l-1.4-1.2l0.4-1.8l0,0L458.1,773.6
							L458.1,773.6z M461.9,774.2l1.4,1.2l-0.4,1.8l-1.8,0.6l-1.4-1.2l0.4-1.8l0.2-0.1L461.9,774.2z M463.3,777.9l1.2,1l-0.2,1.1
							l-0.2,0.7l-1.8,0.6l-1.4-1.2l0.4-1.8l1.8-0.6L463.3,777.9z M482.1,788.6l-0.2,0.7l-0.3,1.1l-1.8,0.6l-0.7-0.6l-0.7-0.6
							l0.1-0.3l0.4-1.5l1.8-0.6l1.2,1L482.1,788.6z M483.2,792L483.2,792l-0.3,1.9l-1.1,0.4l-0.7,0.2l-1.4-1.2l0,0l0.3-1.4l0.1-0.4
							l0.7-0.2l1.2-0.4L483.2,792z M490.7,795.8l1.4,1.2l-0.4,1.8l-1.8,0.6l-1.4-1.2l0.4-1.8l1.6-0.5L490.7,795.8z M499.7,800.8
							l1.2,1l-0.3,1.2l-0.1,0.6l-1.8,0.6l-0.3-0.2l-1.1-0.9l0.4-1.8l1.8-0.6L499.7,800.8z M517.1,810.4l0.8,0.7l0.6,0.5l-0.4,1.8
							l-1.8,0.6l-1.4-1.2l0.1-0.5l0.3-1.3l1.4-0.5L517.1,810.4z M513.3,809.7L513.3,809.7l1.4,1.2l-0.4,1.8l-1.8,0.6l-1.4-1.2
							l0.4-1.8l1.2-0.4L513.3,809.7z M509.7,806.7l-0.4,1.8l-1.8,0.6l-1.4-1.2l0.4-1.8l1.8-0.6L509.7,806.7z M505.9,806.1l-0.4,1.7
							l-1.8,0.6l-1.4-1.2l0.3-1.4l0.1-0.4l1.8-0.6l1.4,1.2L505.9,806.1z M495.7,809.4l0.4-1.8l1.8-0.6l1.4,1.2l-0.4,1.8v0v0
							l-1.8,0.6L495.7,809.4z M458.1,782.9l0.4-1.8l0.9-0.3l0.9-0.3l1.4,1.2l-0.4,1.6l-0.1,0.2l-1.3,0.4l-0.5,0.2L458.1,782.9z
							 M450.8,771.7l0.4-1.8l1.6-0.5l0.2-0.1l1.4,1.2l-0.4,1.8l-1.7,0.5l-0.2,0.1L450.8,771.7z M463.4,784.8l-1.4-1.2l0.4-1.8
							l0.4-0.1l1.5-0.5l1.4,1.2l-0.4,1.5l-0.1,0.3L463.4,784.8z M459.2,777l1.4,1.2l-0.4,1.8l-1.8,0.6l-1.4-1.2l0.4-1.8L459.2,777z
							 M483,794.4l1.4,1.2l-0.4,1.8l-1.8,0.6l-0.5-0.4l-0.9-0.7h0l0.4-1.5l0.1-0.3L483,794.4z M486.5,795.2l0.4-0.1l1.4,1.2
							l-0.4,1.8l-1.5,0.5l-0.3,0.1l-1.4-1.2l0-0.1l0.4-1.7L486.5,795.2z M493.3,800.5l-0.4,1.8l-1.8,0.6l-1.4-1.2l0.4-1.8l1.8-0.6
							L493.3,800.5z M490.7,805.2l0.4-1.8l1.8-0.6l1.4,1.2l-0.4,1.6l-0.1,0.2l-1.8,0.6l-1.3-1.1L490.7,805.2z M498.2,804.6l-0.4,1.8
							l-1.8,0.6l-1.4-1.2l0.4-1.8l1.8-0.6l0.2,0.2L498.2,804.6z M472.1,792.1l-0.2-0.1v0l0.4-1.8l1.8-0.6l1.4,1.2l-0.4,1.8l-1.8,0.6
							L472.1,792.1z M472.2,789.6l-1.4-1.2l0.4-1.8l1.7-0.6l0.2-0.1l1.4,1.2L474,789L472.2,789.6z M478,790.2l1.4,1.2l-0.4,1.8
							l-1.8,0.6l-1.4-1.2l0.4-1.8l1.3-0.4L478,790.2z M471,786.1l-0.2-0.1l-1.3-1.1l0.4-1.8l1.8-0.6l1.4,1.2l-0.4,1.8L471,786.1z
							 M469.2,785.4l0.2,0.2l1.2,1l-0.4,1.5l-0.1,0.3l-0.5,0.2l-1.4,0.4l-1.4-1.2l0.4-1.8L469.2,785.4z M469.1,789.3l1.3-0.4
							l1.4,1.2l-0.4,1.7l0,0.1l-1.8,0.6l-1.4-1.2l0.4-1.8L469.1,789.3z M474.4,793.4l0.9-0.3l1.4,1.2l-0.4,1.8l-1.8,0.6l-1.4-1.2
							l0.4-1.8L474.4,793.4z M479.2,793.7l1.4,1.2l-0.4,1.8l-1.4,0.5l-0.4,0.1l-1.4-1.2l0.4-1.8L479.2,793.7z M479.8,797.4l0.6-0.2
							l1.4,1.2l-0.4,1.8l-1.8,0.6l-1.4-1.2l0.4-1.8L479.8,797.4z M484.2,797.9l1.1,0.9l0.3,0.3l-0.4,1.8l-1.8,0.6l-1.4-1.2l0.4-1.8
							L484.2,797.9z M485.7,801l0.4-1.8l1.8-0.6l1.4,1.2l-0.4,1.8l-1.8,0.6L485.7,801z M494.2,806.3l1.4,1.2l-0.4,1.8l-1.8,0.6
							l-1.4-1.2l0.4-1.8L494.2,806.3z M502.1,805.3l-0.4,1.6l-0.1,0.2l-1.2,0.4l-0.6,0.2l-1.4-1.2l0.4-1.8l1.8-0.6L502.1,805.3z
							 M497.1,801.1l-0.3,1.4l-0.1,0.4l-1.8,0.6l-1.4-1.2l0.4-1.8l1.8-0.6l0.5,0.4L497.1,801.1z M478.3,787.9l-0.4,1.8l-0.2,0.1
							l-1.7,0.5l-1.4-1.2l0.4-1.8l1.8-0.6l1.2,1L478.3,787.9z M469.5,783.1l-0.4,1.8l0,0l-1.8,0.6l-1.4-1.2l0.4-1.8l1.8-0.6
							L469.5,783.1z M467.9,781.1l-0.1,0.2L466,782l-1.4-1.2l0.4-1.8l1.8-0.6l1.4,1.2L467.9,781.1z M456.9,770l1.4,1.2l-0.4,1.8
							l-0.9,0.3l-0.9,0.3l-1.4-1.2l0.4-1.8L456.9,770z M453.3,767l-0.4,1.8l-1.8,0.6l-0.6-0.5l-0.8-0.7l0.4-1.8l1.8-0.6L453.3,767z
							 M446.7,768.3l-0.9-0.8l0.2-0.9l0.2-0.9l1.8-0.6l1.4,1.2l-0.4,1.8l-1.8,0.6L446.7,768.3z M442.8,767.6l-0.8-0.7l0.2-0.9
							l0.2-0.9l1.8-0.6l0.3,0.3l1.1,0.9l-0.4,1.8l-1.8,0.6L442.8,767.6z M439.6,767.4l-1.4-1.2l0,0l0.4-1.8l1.1-0.4l0.8-0.2l1.4,1.2
							l-0.4,1.8L439.6,767.4z M437,762.7l0.4-1.8l0.4-0.1l1.5-0.5l1.4,1.2l-0.4,1.8l0,0l0,0l-0.5,0.2l-1.4,0.4L437,762.7z
							 M444.5,762.1l-0.4,1.8l-1.8,0.6l-0.7-0.6l-0.7-0.6l0-0.2l0.4-1.6l0.9-0.3l0.9-0.3L444.5,762.1z M441.9,757.4l1.4,1.2v0
							l-0.4,1.8l-1.5,0.5l-0.4,0.1l-1.4-1.2l0.4-1.6l0-0.2L441.9,757.4z M438.1,756.8l1.4,1.2l-0.3,1.2l-0.1,0.6l-1.8,0.6l-1.4-1.2
							l0.4-1.8l0.9-0.3L438.1,756.8z M443.2,770.4l0.4-1.8l1.7-0.6l0.2-0.1l1.2,1l0.2,0.2l-0.4,1.8l-1.3,0.4l-0.6,0.2L443.2,770.4z
							 M447.4,769.2l0.6-0.2l1.3-0.4l0.8,0.7l0.6,0.5l-0.4,1.8l-1.8,0.6L447,771L447.4,769.2z M452.3,773.7l0.1-0.3l1.4-0.5l0.5-0.1
							l1.4,1.2l-0.4,1.8l-0.4,0.1l-1.4,0.5l-1.4-1.2L452.3,773.7z M454.5,776.6l0.9-0.3l1.3,1.1l0.1,0.1l-0.4,1.8l-1.8,0.6l-1.4-1.2
							l0.3-1.4l0.1-0.4L454.5,776.6z M459.3,786.4l0.4-1.8l1.8-0.6l1.4,1.2l-0.4,1.8l-1.8,0.6L459.3,786.4z M463.1,787l0.4-1.7
							l1.8-0.6l1.4,1.2l-0.4,1.8l-1.8,0.6l-1.4-1.2L463.1,787z M469.3,794.8l0.4-1.8l1.8-0.6l1.4,1.2l-0.4,1.8l-1.8,0.6L469.3,794.8
							z M497.3,811.1l1.8-0.6l1.4,1.2l-0.4,1.8l-1.8,0.6l-1.4-1.2L497.3,811.1z M499.5,810.1l0.4-1.8l1.8-0.6l1.4,1.2l-0.4,1.8
							l-1.8,0.6L499.5,810.1z M504.8,811.9l-1.4-1.2l0.4-1.8l1.1-0.4l0.8-0.3l1.4,1.2l-0.4,1.8L504.8,811.9z M507.2,811.4l0.4-1.8
							l1.5-0.5l0.3-0.1l1.4,1.2l-0.4,1.8l-1.8,0.6l-0.8-0.7L507.2,811.4z M509.8,816.1l-1.4-1.2l0.4-1.8l1.8-0.6l1.4,1.2l-0.4,1.8
							L509.8,816.1z M513.6,816.8l-1.4-1.2l0.4-1.8l1.8-0.6l0.2,0.2l1.2,1l-0.4,1.6l0,0.2L513.6,816.8z M485.7,791.6l0.6,0.5
							l0.8,0.7l-0.4,1.8l-1.6,0.5l-0.3,0.1l-1.4-1.2l0.4-1.8L485.7,791.6z M477.1,784.4l-0.4,1.8l0,0l-1.8,0.6l-1.4-1.2l0.4-1.8
							l0.5-0.2l1.3-0.4l0.5,0.4L477.1,784.4z M470.7,779l1.4,1.2l-0.4,1.8l-1.8,0.6l-1.3-1.1l-0.2-0.1l0,0v0l0.1-0.4l0.3-1.4
							L470.7,779z M457.2,767.7L457.2,767.7l-0.4,1.5l-0.1,0.3l-0.5,0.2l-1.4,0.5l-1.4-1.2l0.4-1.8l1.8-0.6l0.7,0.6L457.2,767.7z
							 M449.8,762.6l0.9-0.3l1.4,1.2l-0.4,1.8l-0.4,0.1l-1.5,0.5l-0.7-0.6l-0.7-0.6l0.4-1.8L449.8,762.6z M447.2,759.3l-0.4,1.8
							l-0.9,0.3l-0.9,0.3l-1.4-1.2l0.1-0.3l0.4-1.5l1.8-0.6l1.2,1L447.2,759.3z M442.1,755.4l-0.4,1.6l-0.9,0.3l-0.9,0.3l-0.3-0.3
							l-1.1-0.9l0.4-1.8l1.8-0.6l1.4,1.2L442.1,755.4z M432.4,756.7l0.2-0.1l1.7-0.5l1.4,1.2l-0.4,1.8l-0.9,0.3l-0.9,0.3l-1.4-1.2
							l0.3-1.4L432.4,756.7z M439.3,769.7l0.4-1.8l1.8-0.6l1.4,1.2l-0.4,1.8l-1.1,0.4l-0.7,0.2L439.3,769.7z M445.7,775.1l-0.5-0.4
							l-1-0.8l0,0l0.4-1.8l1.8-0.6l1.4,1.2l-0.4,1.8L445.7,775.1z M449.3,778.1l0.3-1.4l0.1-0.4l0.8-0.3l1.1-0.4l0.5,0.4l0.9,0.8
							l-0.4,1.8l-1.8,0.6l-0.6-0.5L449.3,778.1z M474.7,797.2l1.8-0.6l1.4,1.2l-0.4,1.8l-1.8,0.6l-1.4-1.2l0,0L474.7,797.2z
							 M502.1,814.7l-1.4-1.2l0,0l0.4-1.8l1.8-0.6l1.4,1.2l-0.4,1.8h0h0l-1.1,0.4L502.1,814.7z M507.4,814.9l-1.5,0.5l-1.4-1.2
							l0.4-1.8l0.9-0.3l0.9-0.3l0.5,0.4l0.9,0.8l-0.4,1.8L507.4,814.9z"/>
					</g>
					<path class="st3" d="M258.7,690.6c13.8,11.5,24.5,9,32.5,9.5c6.4,0.4,19.1,0.1,22.1,7.7c1.4,3.6-1,16.5,2.9,22.3
						c8,11.8,21.7,12,32.6,15.2c17.9,5.1,21.3,3.6,32.2,11.7c8.4,6.2,16.5,26.7,19.5,38.4c5.6,21.6,11.9,31.6,20.8,44.1
						c13.5,7,26.6,12.6,38.3,15.8c-37-15.1-40.2-32.4-52.6-72.1c-5.7-18.2-8.3-26.4-24-36.1c-9.2-5.7-19.3-7.2-33.3-10.8
						c-8.7-2.2-20.8-4.6-25.8-12.6c-4.2-6.5,6.1-18.8-1.3-26.9c-7.3-8.1-22.4-5.5-39.3-6.6c-13-0.8-28.3-11-31.7-35.7
						C250.3,658.4,248.5,682.2,258.7,690.6z"/>
					<path class="st3" d="M239.2,665.4c0.1-13.6-5.9-25.5-11.3-37.5c-14,13.9-33.2,38-32,57.7c0.5,8.3,11,17.9,25.9,27.9
						C230.1,699.2,239.1,681.4,239.2,665.4z"/>
					<path class="st7" d="M525,814.1c-8,23.7-41.2,29.2-64.9,25c-39.3-7.1-69.3-34.7-98.7-59.6c-16.3-13.8-32.8-26.6-51.7-36.7
						c-20-10.6-40.2-20.5-59.6-32.3c-12.7-7.8-46.5-28-48-48.7c-4.1,8-6.7,16.3-6.2,23.8c1.6,25.4,98,63.8,124.1,85.6
						c26,21.8,116.5,88.8,159.6,86.6C520.4,855.8,535.4,822.9,525,814.1z"/>
					<path class="st8" d="M394.7,660.3c0,0-10.3,0.3-27.4,11.5"/>
					<path class="st8" d="M400.9,675.7c0,0-13.8,1.2-26.1,12.5"/>
					<path class="st8" d="M406.7,689.4c0,0-13,2.7-24.1,12.9"/>
					<path class="st8" d="M413.1,704.7c0,0-13.2,2.5-23.3,12.1"/>
					<path class="st8" d="M420.5,718.2c0,0-17.3,3.7-21.4,10.4"/>
					<path class="st8" d="M427.7,732.7c0,0-10.3,1.9-17.2,7.9"/>
					<path class="st7" d="M426.8,757.8c-26-17.5-45.7-46.4-57.2-75.5c-2.8-7-4.6-12.9-8-19.5c-3.4-6.6-10.3-3.4-29.9-7
						c-18.5-3.4-28.4-11.6-41.6-25.3c-7.1-7.4-19.7-26.2-19.4-38.9c-1.7,0.9-2.5,1.4-4,2.6c-2.4,2.1-3.1,2.8-4.3,3.9
						c-0.7,0.6-1.4,1.3-2.2,2c-2.7,23.7,27.1,56,79.7,67.9c13.2,3,17.4,4.3,25.3,24.3c6,15,16.5,30.3,27.9,42.4
						C405.3,747.4,429.3,765.4,426.8,757.8z"/>
					<g>
						<g>
							<g>
								<path class="st9" d="M224.1,631.7c0,0,0.3,0.5,0.8,1.4"/>
								<path class="st11" d="M226.3,635.9c3.7,7.4,10.1,23.2,6.2,36.6c-4.8,16.4-9,26.3-13.8,35"/>
								<path class="st9" d="M217.9,708.9c-0.3,0.5-0.5,0.9-0.8,1.4"/>
							</g>
						</g>
					</g>
				</g>
			</g>
		</g>
		<g>
			<g>
				
					<rect x="231.6" y="112.4" transform="matrix(-0.9078 -0.4193 0.4193 -0.9078 418.009 346.0019)" class="st12" width="30.9" height="29.2"/>
				<path class="st3" d="M248,133.5c8.3,0.9,15.2-6.5,16.9-14.3l2.3,1.1l-12.3,26.6l-28.1-13l2.9-6.3
					C235.6,130.6,241.8,132.9,248,133.5z"/>
				<path class="st13" d="M203.3,129.7c-1.3,2.8,0,6.3,3,7.6l59.2,27.4c3,1.4,6.4,0.2,7.8-2.7l2.9-6.2c1.3-2.8,0-6.3-3-7.6
					L214,120.8c-3-1.4-6.4-0.2-7.8,2.7L203.3,129.7z"/>
				<path class="st3" d="M268.4,161.9c3.2-3,5.1-8.3,2.1-12.4c-1.4-2-3.5-3.7-5.8-5.3l8.5,3.9c3,1.4,4.3,4.8,3,7.6l-2.9,6.2
					c-1.3,2.8-4.8,4.1-7.8,2.7l-0.8-0.4C266,163.7,267.2,163,268.4,161.9z"/>
				<path class="st12" d="M188.1,136.6c-1.7,3.7,0,8.1,3.8,9.8l76,35.1c3.8,1.8,8.3,0.2,10-3.4l3.7-7.9c1.7-3.7,0-8.1-3.8-9.8
					l-76-35.1c-3.8-1.8-8.3-0.2-10,3.4L188.1,136.6z"/>
				<g>
					<path class="st3" d="M269.8,177.2c-0.6,1.2,0,2.7,1.3,3.3l0,0c1.3,0.6,2.8,0.1,3.3-1.1l5.9-12.7c0.6-1.2,0-2.7-1.3-3.3l0,0
						c-1.3-0.6-2.8-0.1-3.3,1.2L269.8,177.2z"/>
					<path class="st3" d="M264,174.5c-0.6,1.2,0,2.7,1.3,3.3l0,0c1.3,0.6,2.8,0.1,3.3-1.2l5.9-12.7c0.6-1.2,0-2.7-1.3-3.3l0,0
						c-1.3-0.6-2.8-0.1-3.4,1.2L264,174.5z"/>
					<path class="st3" d="M258.2,171.8c-0.6,1.2,0,2.7,1.3,3.3l0,0c1.3,0.6,2.8,0.1,3.3-1.2l5.9-12.7c0.6-1.2,0-2.7-1.3-3.3l0,0
						c-1.3-0.6-2.8-0.1-3.3,1.2L258.2,171.8z"/>
					<path class="st3" d="M252.4,169.1c-0.6,1.2,0,2.7,1.3,3.3l0,0c1.3,0.6,2.8,0.1,3.3-1.2l5.9-12.7c0.6-1.2,0-2.7-1.3-3.3l0,0
						c-1.3-0.6-2.8-0.1-3.3,1.2L252.4,169.1z"/>
					<path class="st3" d="M246.6,166.5c-0.6,1.2,0,2.7,1.3,3.3l0,0c1.3,0.6,2.8,0.1,3.3-1.2l5.9-12.7c0.6-1.2,0-2.7-1.3-3.3l0,0
						c-1.3-0.6-2.8-0.1-3.3,1.2L246.6,166.5z"/>
					<path class="st3" d="M240.7,163.8c-0.6,1.2,0,2.7,1.3,3.3l0,0c1.3,0.6,2.8,0.1,3.3-1.2l5.9-12.7c0.6-1.2,0-2.7-1.3-3.3l0,0
						c-1.3-0.6-2.8-0.1-3.3,1.2L240.7,163.8z"/>
					<path class="st3" d="M234.9,161.1c-0.6,1.2,0,2.7,1.3,3.3l0,0c1.3,0.6,2.8,0.1,3.3-1.2l5.9-12.7c0.6-1.2,0-2.7-1.3-3.3l0,0
						c-1.3-0.6-2.8-0.1-3.3,1.2L234.9,161.1z"/>
					<path class="st3" d="M229.1,158.4c-0.6,1.2,0,2.7,1.3,3.3l0,0c1.3,0.6,2.8,0.1,3.3-1.2l5.9-12.7c0.6-1.2,0-2.7-1.3-3.3l0,0
						c-1.3-0.6-2.8-0.1-3.3,1.2L229.1,158.4z"/>
					<path class="st3" d="M223.3,155.7c-0.6,1.2,0,2.7,1.3,3.3l0,0c1.3,0.6,2.8,0.1,3.3-1.1l5.9-12.7c0.6-1.2,0-2.7-1.3-3.3l0,0
						c-1.3-0.6-2.8-0.1-3.3,1.2L223.3,155.7z"/>
					<path class="st3" d="M217.5,153.1c-0.6,1.2,0,2.7,1.3,3.3l0,0c1.3,0.6,2.8,0.1,3.3-1.2l5.9-12.7c0.6-1.2,0-2.7-1.3-3.3l0,0
						c-1.3-0.6-2.8-0.1-3.3,1.2L217.5,153.1z"/>
					<path class="st3" d="M211.7,150.4c-0.6,1.2,0,2.7,1.3,3.3l0,0c1.3,0.6,2.8,0.1,3.3-1.2l5.9-12.7c0.6-1.2,0-2.7-1.3-3.3l0,0
						c-1.3-0.6-2.8-0.1-3.3,1.2L211.7,150.4z"/>
					<path class="st3" d="M205.9,147.7c-0.6,1.2,0,2.7,1.3,3.3l0,0c1.3,0.6,2.8,0.1,3.3-1.2l5.9-12.7c0.6-1.2,0-2.7-1.3-3.3l0,0
						c-1.3-0.6-2.8-0.1-3.3,1.2L205.9,147.7z"/>
					<path class="st3" d="M200.1,145c-0.6,1.2,0,2.7,1.3,3.3l0,0c1.3,0.6,2.8,0.1,3.3-1.2l5.9-12.7c0.6-1.2,0-2.7-1.3-3.3l0,0
						c-1.3-0.6-2.8-0.1-3.3,1.2L200.1,145z"/>
					<path class="st3" d="M194.3,142.3c-0.6,1.2,0,2.7,1.3,3.3l0,0c1.3,0.6,2.8,0.1,3.3-1.2l5.9-12.7c0.6-1.2,0-2.7-1.3-3.3l0,0
						c-1.3-0.6-2.8-0.1-3.4,1.1L194.3,142.3z"/>
					<path class="st3" d="M188.5,139.6c-0.6,1.2,0,2.7,1.3,3.3l0,0c1.3,0.6,2.8,0.1,3.3-1.1l5.9-12.7c0.6-1.2,0-2.7-1.3-3.3l0,0
						c-1.3-0.6-2.8-0.1-3.3,1.2L188.5,139.6z"/>
				</g>
				<path class="st3" d="M271.2,171.2c7,3.3,11.9-7.2,4.8-10.5c-17.1-7.9-38.7-18.4-55.5-26.9l57.2,26.4c3.8,1.8,5.5,6.2,3.8,9.8
					l-3.7,7.9c-1.7,3.7-6.1,5.2-10,3.4l-76-35.1c-3.8-1.8-5.5-6.1-3.8-9.8l2.8-6C215.1,145.5,245.4,159.3,271.2,171.2z"/>
				<path class="st14" d="M36.1,395.8c-8,17.4,0.1,38.3,18.2,46.6l77.5,35.8c18.1,8.4,39.3,1.1,47.3-16.3l38.8-83.9
					c8-17.4-0.1-38.3-18.2-46.6l-77.5-35.8c-18.1-8.4-39.3-1.1-47.3,16.3L36.1,395.8z"/>
				<path class="st14" d="M109.1,237.8c-8,17.4,0.1,38.3,18.2,46.6l77.5,35.8c18.1,8.4,39.3,1.1,47.3-16.3l38.8-83.9
					c8-17.4-0.1-38.3-18.2-46.6l-77.5-35.8c-18.1-8.4-39.3-1.1-47.3,16.3L109.1,237.8z"/>
				<path class="st15" d="M89.8,296.2c12.6-7.5,17-21.9,17.1-36.9c0-10.6,138.4,53.4,130.4,60.2c-11.5,9.8-19.6,22.5-17.1,36.9
					C222.2,368.4,79.4,302.4,89.8,296.2z"/>
				<path class="st16" d="M112.5,297.1c-1.3,2-4.8,6.9-8,6.8c-3.9-0.1-6-3.6-5.4-6.2c0.6-2.6,2.9-5.1,3.9-6.3
					c3.5-4.1,6.2-8.7,6.9-14.3c0.3-2.3-0.2-15.7,6.1-14.3c6.6,1.5,5.5,7.1,5.3,8.9c-0.6,3.8-1.2,6.7-2.2,9.9
					C117.4,286.7,116.4,290.9,112.5,297.1z"/>
				<path class="st3" d="M132.4,466.3c35.8-16.2,49.3-55.2,57.8-90.5c6.2-25.8,12.7-49.9,29.5-71c12.9-16.2,26-31.4,35-50.1
					c9.5-19.9,28.7-56.3,18.8-81c17.5,8.6,25.3,29.1,17.4,46.2l-38.8,83.9c-3.2,6.9-8.5,12.2-14.9,15.6c0,0,0,0,0,0.1
					c-11.5,9.8-19.6,22.5-17.1,36.9c0,0,0,0,0,0.1c1.5,7,1,14.5-2.2,21.4l-38.8,83.9c-8,17.4-29.2,24.7-47.3,16.3l-16.1-7.5
					C121.5,470.1,127.1,468.7,132.4,466.3z"/>
				<path class="st13" d="M233.2,104.6c-1.5,3.2,0,7.1,3.4,8.6l27.8,12.8c3.4,1.5,7.3,0.2,8.8-3l0,0c1.5-3.2,0-7.1-3.4-8.6
					L242,101.5C238.6,100,234.7,101.3,233.2,104.6L233.2,104.6z"/>
				<path class="st3" d="M234.3,110.7l27.8,12.8c3.3,1.5,7.3,0.2,8.8-3c0.9-1.9,0.7-4-0.3-5.7c2.7,1.8,3.9,5.2,2.5,8.1
					c-1.5,3.2-5.4,4.6-8.8,3l-27.8-12.8c-1.4-0.6-2.4-1.7-3.1-2.9C233.7,110.4,234,110.6,234.3,110.7z"/>
			</g>
			<path class="st16" d="M185.1,142.1c15.6,5.4,0.2,18.2-4.8,23.8c-8.9,9.8-15,18.7-21.9,29.9c-4.4,7.2-12.5,24.8-17.8,38.5
				c-5.2,13.3-4.4,28.6-14.3,22.7c-11-6.6-0.5-29.4,4.2-39.6c13.1-28.3,16.7-42.5,37-66.3C167.5,151.1,177.3,139.4,185.1,142.1z"/>
			<path class="st16" d="M45.3,428.1c14.1,8.6,14.2-11.5,15.3-18.8c1.9-13.1,4.8-23.5,9.1-35.9c2.7-8,11.1-25.4,18.3-38.3
				c7-12.5,19.2-21.6,8.3-25.5c-12.1-4.3-22.9,18.4-27.8,28.5c-13.4,28.1-22,40-27.4,70.8C41,408.9,38.2,423.8,45.3,428.1z"/>
		</g>
		<g>
			<path class="st17" d="M577.2,19.8c2.9-2,10.5-1.3,15.5-1.1c17.7,0.7,48.1,14.1,63.5,54.2c0,0-35.7-46.2-71.3-41.8
				c-0.7,0.1-6.4,1.4-7.9,0.4C573.1,29.2,572.9,22.6,577.2,19.8z"/>
			<path class="st18" d="M671.6,25.4c-24.1,10.9-25.8,39.3-25.8,39.3s-29.7-7.9-49.9,11c-41,38.3-34.3,65-5.3,108.5
				c16.5,24.8,54.6,34.9,81.9,45c27.4,10.1,33.3,20.6,55.9,11.7c12.7-5,19.9-17.8,19.9-17.8s19.8-5,28.2-14.5
				c14.2-16,6.3-28.1,6.8-53.1c0.6-29.1,6.8-68.2-9.7-93C744.8,19,722.6,2.2,671.6,25.4z"/>
			<path class="st3" d="M755.4,193.2c-26,13.9-49.2,16.2-76.4,6c-30.8-11.6-52.6-29.7-67.3-58.7c-9.9-19.5-18.2-41-17.5-63.3
				c-39.1,37.4-32.2,64-3.6,106.9c16.5,24.8,54.6,34.9,81.9,45c27.4,10.1,33.3,20.6,55.9,11.7c12.7-5,19.9-17.8,19.9-17.8
				s19.8-5,28.2-14.5c9.5-10.7,9.1-19.7,8-31.9C774.9,182.4,765.2,188,755.4,193.2z"/>
			<g>
				<path class="st6" d="M774,125.8c1,8.4-1,19.8-3,28.4c5.9-13.7,7.3-28.3,6-41.7c-4.8-46.5-20.9-71.8-53.9-84.1
					c-2.5-0.9-7.7-2.5-11.2-2.5c-3.2,0-5.3,5.3-0.6,6.2C756,42,768.6,79.5,774,125.8z"/>
			</g>
			<path class="st6" d="M696.7,25c4.6,0,8.8,2.2,7.3,5.2c-1.6,2.9-7.1-0.6-12.9,3.5c-3.5,2.5-5.5-3.7-3.9-6.7
				C688.7,24.1,692.5,25,696.7,25z"/>
			<path class="st19" d="M576.7,21.5c1.6-0.4,3.4,1.5,4,4.1c0.6,2.7-0.3,5.2-1.9,5.6c-1.6,0.4-3.4-1.5-4-4.1
				C574.2,24.4,575.1,21.9,576.7,21.5z"/>
			<g>
				<g>
					<g>
						<path class="st20" d="M615.3,0.4c2.4,7.3-4.6,10.2-1.4,19.4c2.4,6.8,7.3,6.7,9.5,6.4c-0.5-5.7-2.3-16.9-5.1-21.5
							c0,0,6.3,8.7,6.8,21.1c1.9-1.1,5.7-4.4,3.3-11.4C625.2,5.2,614.2-1.8,615.3,0.4z"/>
					</g>
					<g>
						<path class="st20" d="M667.3,14.6c-11.7,3.8-9.1,14.8-24.1,19.3c-11.1,3.3-15.4-2.7-17-5.6c7.9-4.5,24.1-12.5,32.7-13.3
							c0,0-17.1,0.3-33.8,10.9c-0.2-3.4,0.6-10.8,12-14.3C652.1,7.2,671.1,14,667.3,14.6z"/>
					</g>
				</g>
			</g>
		</g>
	</g>
	<path class="st3" d="M867.9,598.4c1.8-2,3.1-4.5,3.4-7.3l4-34.4c0.7-6.3-3.2-12.1-9-13.9l0.3-2.7c0.2-1.5-0.9-2.9-2.4-3l-1.2-0.1
		l0.1-1.3c0.1-1.2-0.7-2.2-1.9-2.4l-6.1-0.7l0.7-6.1c1.3,0.1,2.5-0.8,2.6-2.1c0.2-1.3-0.8-2.5-2.1-2.7l-10.9-1.3
		c-1.3-0.2-2.5,0.8-2.7,2.1c-0.2,1.3,0.8,2.5,2.1,2.6l-0.7,6.1l-6.1-0.7c-1.2-0.1-2.2,0.7-2.4,1.9l-0.1,1.3l-1.2-0.1
		c-1.5-0.2-2.9,0.9-3,2.4l-0.3,2.7c-6.1,0.4-11.2,5.1-12,11.4l-4,34.4c-0.3,2.8,0.3,5.6,1.6,7.9c0,0,0,0,0,0
		c1.7,5.4,1.7,11-1.8,15.1c0,0,0,0,0,0c-1.8,1.9-3,4.5-3.4,7.3l-4,34.4c-0.8,7.1,4.3,13.6,11.4,14.4l30.5,3.6
		c7.1,0.8,13.6-4.3,14.4-11.4l4-34.4c0.3-2.9-0.3-5.6-1.6-7.9C863.7,608.7,865,603.2,867.9,598.4z"/>
	<path class="st3" d="M473.7,38.5l-5.1,1.6L465,28.4c-1.3-4.1-5.5-6.3-9.6-5.1c-4.1,1.2-6.3,5.5-5.1,9.6l-1.5-4.9
		c-1.1-3.6-4.9-5.6-8.5-4.5c-3.6,1.1-5.6,4.9-4.5,8.5l6.9,22.4l-62.2,19.2l-6.9-22.4c-1.1-3.6-4.9-5.6-8.5-4.5
		c-3.6,1.1-5.6,4.9-4.5,8.5l1.5,4.9c-1.3-4.1-5.5-6.3-9.6-5.1c-4.1,1.3-6.3,5.5-5.1,9.6l3.6,11.7l-5.1,1.6c-1.2,0.4-1.8,1.6-1.5,2.8
		l5.3,17c0.4,1.2,1.6,1.8,2.8,1.5l5.1-1.6l3.6,11.7c1.3,4.1,5.5,6.3,9.6,5.1c4.1-1.3,6.3-5.5,5.1-9.6l1.5,4.8
		c1.1,3.6,4.9,5.6,8.5,4.5c3.6-1.1,5.6-4.9,4.5-8.5l-6.9-22.4L445.7,64l6.9,22.4c1.1,3.6,4.9,5.6,8.5,4.5c3.6-1.1,5.6-4.9,4.5-8.5
		l-1.5-4.9c1.2,4.1,5.5,6.3,9.6,5.1c4.1-1.3,6.3-5.5,5.1-9.6l-3.6-11.7l5.1-1.6c1.2-0.4,1.8-1.6,1.5-2.8l-5.3-17
		C476.1,38.8,474.9,38.1,473.7,38.5z"/>
	<g>
		<path class="st3" d="M139,632.8c0,0-5.6-15-24.4-17.6c-14.6-2-19,5.2-24,5.2c-3.7,0-9.2-2.5-21,1.4c-2.5,0.8-4.2,1-5.6,1.8
			c-0.9,0.5,6.5-4.4,12-11.9c13.7-18.6,11.9-20.4,15.8-29.5c1.6-3.7,2.4-5.9,6.6-7.7l0,0c2.2-0.3,4-1,5.5-1.8c0,0,7.9-3.6,11.2-3.5
			c3.3,0.1,5.6-3.4,3.9-5.3c-0.3-0.4-0.9-0.6-1.6-0.8c-0.1,0.3-0.2,0.7-0.4,1.1c-0.3,0.6-0.7,1.2-1.3,1.8c-0.1,0.1-0.2,0.2-0.4,0.3
			c-0.8,0.6-1.9,0.9-3,1c-1.1,0.1-2.3,0-3.5-0.2c-0.8-0.1-1.5-0.4-2.3-0.6c-0.3-0.1-0.7-0.2-1-0.4c-0.6-0.2-1.3-0.5-1.9-0.8
			c0,0.1-0.1,0.3-0.1,0.5c-0.1,0.4-0.2,0.8-0.3,1.3c-0.2,0.6-0.4,1.3-0.6,2.1c0,0.1,0,0.1-0.1,0.2c-0.1,0.4-0.2,0.6-0.4,1
			c-0.1,0.1-0.1,0.2-0.2,0.4c-0.3,0.5-0.6,0.9-0.9,1.2c-0.3,0.4-0.7,0.7-1.2,1c-0.4,0.3-0.8,0.5-1.3,0.7c-0.3,0.1-0.6,0.2-0.9,0.3
			c-0.1,0-0.2,0.1-0.4,0.1c-0.4,0.1-0.8,0.1-1.2,0.1c-0.4,0-0.7,0-1-0.1c-0.3,0-0.5-0.2-0.7-0.2c-0.4-0.2-0.6-0.3-0.6-0.3
			s0.2,0,0.6,0.1c0.2,0,0.4,0,0.7,0c0.3,0,0.6,0,0.9-0.1c0.3-0.1,0.6-0.1,1-0.2c0.4-0.1,0.8-0.3,1.2-0.5c0.4-0.2,0.7-0.4,1.1-0.7
			c0.3-0.3,0.7-0.6,0.9-0.9c0.3-0.3,0.5-0.7,0.7-1c0.2-0.3,0.4-0.8,0.5-1.2c0.3-0.8,0.6-1.6,1-2.2c0.3-0.5,0.5-0.9,0.7-1.2
			c0.1-0.1,0.1-0.2,0.2-0.2c0,0,0-0.1,0.1-0.1c-0.4-0.2-0.8-0.5-1.3-0.7c-0.1-0.1-0.2-0.1-0.3-0.1c-1.1-0.7-2.1-1.6-2.9-2.6
			c-0.8-1-1.4-2.3-1.3-3.7c0-0.3,0.1-0.7,0.2-1c0.1-0.3,0.2-0.6,0.4-0.9c0.3-0.6,0.7-1.1,1.3-1.4c1.2-0.6,2.4-0.3,3.3,0.1
			c1.8,0.8,2.9,2,3.6,2.8c0.7,0.9,1,1.4,1,1.4s-0.3-0.5-1.1-1.3c-0.8-0.8-2-1.7-3.7-2.4c-0.8-0.3-1.8-0.5-2.6,0
			c-0.4,0.2-0.7,0.6-0.9,1.1c-0.1,0.2-0.2,0.4-0.3,0.7c-0.1,0.2-0.1,0.5-0.1,0.7c0,1,0.5,2,1.2,2.9c0.4,0.5,0.9,1,1.5,1.5
			c0.4,0.3,0.8,0.6,1.2,0.9c1,0.6,2,1.2,3.1,1.6c0.3,0.1,0.7,0.3,1,0.4c0.8,0.3,1.7,0.6,2.5,0.8c1.1,0.2,2.2,0.4,3.2,0.4
			c1,0,2-0.3,2.7-0.7c0.7-0.5,1.3-1.1,1.7-1.7c0.2-0.3,0.3-0.7,0.4-1c0.1-0.2,0.1-0.4,0.2-0.6c0.6-2.9,0.5-6.5-0.6-8.2
			c-1.8-2.8-8.4-6.9-14.7-6.3c-6.4,0.6-13.1,11.8-14.5,15.8c0,0-1.7,3.6-4.5,6.7l0,0c-0.3,0.3-0.5,0.6-0.8,0.8
			c-3.3,3.1-14.6,8.3-25.4,21.9c-12.3,15.5-15.4,20.6-20.2,37.3c-0.8,2.9,9.7,16.3,26.9,24.8c20.8,10.3,24.8,5.6,30.1,7.6
			c7.8,3,27.8,11,41.3-4.5C145.5,645.8,139,632.8,139,632.8z"/>
	</g>
	<g>
		<path class="st3" d="M59.8,64.5c-25.6,7.4-40.3,34.2-32.9,59.8c7.4,25.6,34.2,40.3,59.8,32.9c25.6-7.4,40.3-34.2,32.9-59.8
			C112.2,71.8,85.4,57.1,59.8,64.5z M84.2,148.4c-20.8,6-42.5-5.9-48.5-26.7c-6-20.8,5.9-42.5,26.7-48.5c20.8-6,42.5,5.9,48.5,26.7
			S104.9,142.4,84.2,148.4z"/>
		<path class="st3" d="M47,74.2c-3.4-2.4-6.1-6-7.3-10.3c-3-10.2,2.9-20.8,13.1-23.8c10.2-3,20.8,2.9,23.8,13.1
			c1.3,4.3,0.9,8.8-0.7,12.6l5.2-1.5c1-3.9,1-8.2-0.2-12.4C77.2,39.5,64,32.2,51.5,35.9C39,39.5,31.8,52.6,35.4,65.2
			c1.2,4.2,3.5,7.8,6.4,10.6L47,74.2z"/>
		<g>
			
				<rect x="78.9" y="129.4" transform="matrix(0.9605 -0.2783 0.2783 0.9605 -34.8403 27.8705)" class="st3" width="3.6" height="14.4"/>
			<g>
				
					<rect x="63.9" y="77.8" transform="matrix(0.9603 -0.279 0.279 0.9603 -21.1122 21.7263)" class="st3" width="3.6" height="14.4"/>
			</g>
		</g>
		<g>
			
				<rect x="92.3" y="128" transform="matrix(0.716 -0.6981 0.6981 0.716 -65.5703 103.2365)" class="st3" width="3.6" height="8.5"/>
			<g>
				
					<rect x="50.6" y="85.2" transform="matrix(0.716 -0.6981 0.6981 0.716 -47.5738 62.0014)" class="st3" width="3.6" height="8.5"/>
			</g>
		</g>
		<g>
			
				<rect x="100.1" y="115.1" transform="matrix(0.283 -0.9591 0.9591 0.283 -41.3563 183.2574)" class="st3" width="3.6" height="8.5"/>
			<g>
				
					<rect x="42.8" y="98.2" transform="matrix(0.2824 -0.9593 0.9593 0.2824 -66.2023 116.2897)" class="st3" width="3.6" height="8.5"/>
			</g>
		</g>
		<g>
			
				<rect x="65.3" y="135.8" transform="matrix(-0.9785 -0.2065 0.2065 -0.9785 103.8292 290.9343)" class="st3" width="3.6" height="8.5"/>
			<g>
				
					<rect x="77.6" y="77.4" transform="matrix(-0.9783 -0.2071 0.2071 -0.9783 140.2336 177.9478)" class="st3" width="3.6" height="8.5"/>
			</g>
		</g>
		<g>
			
				<rect x="51.8" y="129.1" transform="matrix(-0.7525 -0.6586 0.6586 -0.7525 6.1393 268.9153)" class="st3" width="3.6" height="8.5"/>
			<g>
				
					<rect x="91.1" y="84.1" transform="matrix(-0.7525 -0.6586 0.6586 -0.7525 104.6401 216.0888)" class="st3" width="3.6" height="8.5"/>
			</g>
		</g>
		<g>
			
				<rect x="97.3" y="96.1" transform="matrix(-0.2788 -0.9603 0.9603 -0.2788 27.4459 227.3172)" class="st3" width="3.6" height="14.4"/>
			<g>
				
					<rect x="45.6" y="111.1" transform="matrix(-0.2789 -0.9603 0.9603 -0.2789 -52.9532 196.908)" class="st3" width="3.6" height="14.4"/>
			</g>
		</g>
		<path class="st3" d="M79.9,108.9c1.1,3.7-1.1,7.5-4.7,8.6c-3.7,1.1-7.5-1-8.6-4.7c-1.1-3.7,1.1-7.5,4.7-8.6
			C75,103.1,78.8,105.2,79.9,108.9z"/>
		
			<rect x="52" y="53.8" transform="matrix(0.9604 -0.2788 0.2788 0.9604 -14.544 18.7515)" class="st3" width="13.4" height="13.4"/>
		<path class="st3" d="M67.7,49.7c0.7,2.4-0.7,4.8-3,5.5l-13.9,4c-2.4,0.7-4.8-0.7-5.5-3l0,0c-0.7-2.4,0.7-4.8,3-5.5l13.9-4
			C64.5,46,67,47.3,67.7,49.7L67.7,49.7z"/>
		<polygon class="st3" points="94.7,104.6 75.4,111.6 74.6,109.1 		"/>
		<polygon class="st3" points="66.2,133.1 71.4,113.3 73.8,114.1 		"/>
	</g>
</g>
</svg>
