<?xml version="1.0" encoding="utf-8"?>
<!-- Generator: Adobe Illustrator 21.0.1, SVG Export Plug-In . SVG Version: 6.00 Build 0)  -->
<svg version="1.1" id="Layer_1" xmlns="http://www.w3.org/2000/svg" xmlns:xlink="http://www.w3.org/1999/xlink" x="0px" y="0px"
	 viewBox="0 0 432 432" style="enable-background:new 0 0 432 432;" xml:space="preserve">
<style type="text/css">
	.st0{fill:#ED1C24;}
	.st1{fill:#FAA61A;}
	.st2{fill:#8DC63F;}
	.st3{fill:#CBDB2A;}
</style>
<g id="Guides_For_Artboard">
</g>
<g id="Layer_1_1_">
	<g>
		<g>
			<path class="st0" d="M285.2,95.6c-27.5-7.1-58,0.3-79.4,21.8c-32.4-32.6-85.2-32.6-117.5,0s-32.4,85.7,0,118.3l33.1,33.3
				c-9.9-24-5.2-52.5,14-71.9l70.1-70.5c4.1-4.1,9.8-4.1,13.4,0.8c4.3,5.8,6.6,13.4,6.7,20.6c0,2.9-0.3,5.7-0.9,8.4L283.8,97
				C284.1,96.4,284.7,95.9,285.2,95.6z"/>
			<path class="st1" d="M138.8,286.6l67,67.4l117.5-118.3c13.1-13.2,21.2-29.8,23.4-47.2c1.8-14.4-5-7.1-7.6-4.5l-70.2,70.5
				l-3.8-3.8l76.9-77.4c2.9-2.9,5.5-4,4.1-12c-0.8-4.6-2-9.1-3.7-13.5c-2.9-7.7-8.5-4-10.5-2L246.3,232l-3.8-3.8l88.4-88.9
				c3.7-3.7,3.8-7.4,1.4-10.9c-2.1-3.2-4.6-6.3-7.3-8.9c-3.8-3.7-7.9-3.5-11.8,0.3l-89.3,89.9l-3.8-3.8l90.2-90.8
				c2.4-2.5,3.1-5.8-0.3-8.1c-4.1-2.9-8.7-5.2-13.3-7.1c-3.1-1.2-6-2.6-9.6,0.9l-85.6,86.2l-3.8-3.8l15.4-15.5
				c11.3-11.4,8.7-28,2-37.2c-2.4-3.4-5.2-1.2-6-0.3l-70.1,70.5C115.3,224.2,115.3,262.9,138.8,286.6z"/>
		</g>
		<g>
			<path class="st2" d="M141.2,73.5c16.8,16.9,39.1,24.9,61.1,24c0.9-22.1-7-44.5-23.8-61.4s-39.1-24.9-61.1-24
				C116.5,34.2,124.4,56.6,141.2,73.5z"/>
			<path class="st3" d="M202.1,97.5c0.9-22.1-7-44.5-23.8-61.4s-39.1-24.9-61.1-24L202.1,97.5z"/>
		</g>
	</g>
</g>
</svg>
