<?xml version="1.0" encoding="utf-8"?>
<!-- Generator: Adobe Illustrator 19.1.0, SVG Export Plug-In . SVG Version: 6.00 Build 0)  -->
<svg version="1.1" id="Ñëîé_1" xmlns="http://www.w3.org/2000/svg" xmlns:xlink="http://www.w3.org/1999/xlink" x="0px" y="0px"
	 viewBox="0 0 900 997.7" style="enable-background:new 0 0 900 997.7;" xml:space="preserve">
<style type="text/css">
	.st0{fill-rule:evenodd;clip-rule:evenodd;fill:#E3556A;}
	.st1{fill-rule:evenodd;clip-rule:evenodd;fill:#DA251D;}
	.st2{fill-rule:evenodd;clip-rule:evenodd;fill:#0193CC;}
	.st3{fill-rule:evenodd;clip-rule:evenodd;fill:#016295;}
	.st4{fill-rule:evenodd;clip-rule:evenodd;fill:#9D1108;}
	.st5{fill-rule:evenodd;clip-rule:evenodd;fill:#495677;}
	.st6{fill-rule:evenodd;clip-rule:evenodd;fill:#EF9BA0;}
	.st7{fill:url(#SVGID_1_);}
	.st8{fill:url(#SVGID_2_);}
	.st9{fill-rule:evenodd;clip-rule:evenodd;fill:url(#SVGID_3_);}
	.st10{fill-rule:evenodd;clip-rule:evenodd;fill:url(#SVGID_4_);}
	.st11{fill:#DA251D;}
	.st12{fill-rule:evenodd;clip-rule:evenodd;fill:#605D5C;}
	.st13{fill-rule:evenodd;clip-rule:evenodd;fill:url(#SVGID_5_);}
	.st14{fill-rule:evenodd;clip-rule:evenodd;fill:url(#SVGID_6_);}
	.st15{fill-rule:evenodd;clip-rule:evenodd;fill:url(#SVGID_7_);}
	.st16{fill-rule:evenodd;clip-rule:evenodd;fill:url(#SVGID_8_);}
</style>
<g>
	<g>
		<g>
			<path class="st0" d="M81.6,209.6c8.8,70,6.3,136.2-2.4,200.2c14.3-8,31-14.3,50.4-18.7c19.9-2.3,35.3-5.2,49.4,3.1
				c5.8-16.2,10.7-31.6,24.8-45.5c9.3-15.5,12.5-64.4-18.3-87.1c-6.4-8.5-3.8-28.6-5.8-42.8c-5.9-3.5-12.3-5.6-20.6-2.5
				c-0.4,11.9,3.3,26.8,5.9,38.2c-4.1-12.6-10.2-21.3-10.4-41.9c-10.7-3.5-19.6-1.7-27.2,4.1c-2.2,15.6,3.8,35.7,5.8,50
				c-6.2-18.1-14.3-35.1-18.5-61.6C96.9,202.1,87.3,205.2,81.6,209.6z"/>
			<path class="st1" d="M129.6,391.1c30.7-3.6,50.4-8.4,71.8,27.9c7.7,13,18,27.4,37.2,35.2C329.7,485.3,349,561,339,624.6
				c-9.9,51-18.8,158.6-139.4,118.8C121.7,709.2,8.8,716.8,13.7,555.2C7.5,469.1,41.7,411.3,129.6,391.1z"/>
			<path class="st2" d="M47.5,241.5c1.2,62.3-21.3,102-19.8,222l0,0c12.3-25.3,32.4-45.1,61.4-58.7c-3.9-43.4-8.9-87.7,43.5-121.7
				c-1-11.2-1.5-23.7-11-35.3c-9.1,2.9-19.1,5.3-25.9,10.2c-4.1-8.4-8.2-16.8-12.3-25.1C70.8,231.3,58.8,233.9,47.5,241.5z"/>
			<path class="st3" d="M132.6,283c-1-11.2-1.5-23.7-11-35.3C120.3,260.9,124.3,272.6,132.6,283z"/>
			<path class="st3" d="M83.4,232.8c-12.6-1.5-24.6,1.2-35.9,8.7C60.5,244.4,72.4,241.5,83.4,232.8z"/>
			<path class="st4" d="M179.7,218.7c-5.9-3.5-12.3-5.6-20.6-2.5C164.9,220,171.8,220.6,179.7,218.7z"/>
			<path class="st4" d="M154.5,212.5c-10.7-3.5-19.6-1.7-27.2,4.1C136.8,218.6,145.8,217.2,154.5,212.5z"/>
			<path class="st4" d="M114.6,205.1c-17.6-2.9-27.2,0.1-33,4.5C92.9,213,103.8,211.2,114.6,205.1z"/>
			<path class="st3" d="M116.2,394.6L116.2,394.6c4.3-1.3,8.8-2.4,13.4-3.5c30.7-3.6,50.4-8.4,71.8,27.9c2.4,4,5,8.2,8.1,12.2
				c15.1-12.8,40.4-18.7,78.9-15.6c5.8-13.1,3.8-31.5-4.3-48.8c-6.7,0-12.6,3.2-19.4,3.2c2.3-3.8,4.7-7.6,7-11.4
				c-2.9-5.5-6.2-10.8-14-14C233,368.8,168.3,314.4,116.2,394.6z"/>
			<path class="st5" d="M288.3,415.5c5.8-13.1,3.8-31.5-4.3-48.8C280,383.6,282,399.8,288.3,415.5z"/>
			<path class="st5" d="M271.7,358.5c-2.6-4.8-5.5-9.5-11.4-12.8l-2.6-1.2C259,350.9,264.1,355.4,271.7,358.5z"/>
			<path class="st6" d="M268.9,483.2c70.6,47.7,72.9,128.3,40.7,225.6C324.6,627.4,324.3,549.3,268.9,483.2z"/>
			<path class="st6" d="M39.6,588.2c6.5-76.9,31.7-139.6,88.2-179c4-2.8,14.3-6.4,3.2-9.9c-41.9-8.5-64.1-24.3-89.7,1.5
				c-57.5,81-48.1,141.5-9.4,193C41.3,606.1,43.8,603.7,39.6,588.2z"/>
			<path class="st6" d="M246.5,395.9c-26-21.9-62.9-20.4-51.1,23.1c0.9,3.8,11.6,37.4,88.4,57.8
				C273.3,456.8,275.5,413.4,246.5,395.9z"/>
		</g>
		<g>
			<g>
				<linearGradient id="SVGID_1_" gradientUnits="userSpaceOnUse" x1="811.2958" y1="436.7082" x2="899.3926" y2="436.7082">
					<stop  offset="0" style="stop-color:#E8E7E5"/>
					<stop  offset="0.33" style="stop-color:#BFBFBF"/>
					<stop  offset="1" style="stop-color:#969595"/>
				</linearGradient>
				<path class="st7" d="M838.7,601c2.2-9.2,5.5-23,8.7-36.4C894.1,370,908.4,310,811.3,283.4l3.9-14.5
					c111.2,30.5,96,93.8,46.8,299.3c-1.9,8-3.9,16.4-8.7,36.4c-2-2.4-4.9-4.1-8.2-4.4C842.8,599.8,840.6,600.2,838.7,601z"/>
				<g>
					<linearGradient id="SVGID_2_" gradientUnits="userSpaceOnUse" x1="604.8075" y1="435.9416" x2="692.9042" y2="435.9416">
						<stop  offset="0" style="stop-color:#E8E7E5"/>
						<stop  offset="0.33" style="stop-color:#BFBFBF"/>
						<stop  offset="1" style="stop-color:#969595"/>
					</linearGradient>
					<path class="st8" d="M651,604.1c-4.9-20.5-6.9-29-8.8-37.1c-49.3-205.4-64.5-268.8,46.8-299.3l3.9,14.5
						c-97.1,26.6-82.8,86.7-36.1,281.3c3.4,14,6.8,28.5,9,37.7c-2.1-1-4.5-1.5-6.9-1.2C655.8,600.4,653,601.9,651,604.1z"/>
					<g>
						<radialGradient id="SVGID_3_" cx="787.0574" cy="272.5095" r="36.7233" gradientUnits="userSpaceOnUse">
							<stop  offset="0" style="stop-color:#D2D2D2"/>
							<stop  offset="1" style="stop-color:#2C2825"/>
						</radialGradient>
						<path class="st9" d="M791.4,296.1c-8.4,0-15.3-10.2-15.3-22.7c0-12.5,6.8-22.7,15.3-22.7c4.7,0,8.9,3.2,11.7,8.2v0l12,10.1
							l-3.9,14.4l-9.2,6.3v0C799.3,293.7,795.6,296.1,791.4,296.1z"/>
						<radialGradient id="SVGID_4_" cx="717.0942" cy="271.3726" r="36.7222" gradientUnits="userSpaceOnUse">
							<stop  offset="0" style="stop-color:#D2D2D2"/>
							<stop  offset="1" style="stop-color:#2C2825"/>
						</radialGradient>
						<path class="st10" d="M712.7,295c8.4,0,15.3-10.2,15.3-22.7c0-12.5-6.8-22.7-15.3-22.7c-4.7,0-8.9,3.2-11.7,8.2v0l-12,10.1
							l3.9,14.4l9.2,6.3v0C704.8,292.5,708.6,295,712.7,295z"/>
					</g>
				</g>
			</g>
			<g>
				<path class="st11" d="M831.2,611.1c0.8-6.9,7-11.8,13.9-11.1c6.9,0.8,11.8,7,11.1,13.9c-5.2,45.1-13.4,82.9-28.4,110.1
					c-16.4,29.6-40.2,46.5-75.7,46.7l-0.1,0v0c-35.5-0.2-59.3-17.1-75.7-46.6c-15-27.2-23.3-65-28.4-110.2
					c-0.8-6.9,4.2-13.1,11.1-13.9c6.9-0.8,13.1,4.2,13.9,11.1c4.8,42.2,12.2,77.1,25.4,100.8c11.8,21.4,28.8,33.6,53.8,33.8
					c25-0.1,42-12.4,53.8-33.7C819,688.3,826.4,653.4,831.2,611.1z"/>
				<g>
					<path class="st12" d="M210,617.4c0.5,38.4-30.3,69.9-68.7,70.4c-38.4,0.5-69.9-30.3-70.4-68.7c-0.5-38.4,30.3-69.9,68.7-70.4
						C178,548.2,209.5,579,210,617.4z"/>
					<linearGradient id="SVGID_5_" gradientUnits="userSpaceOnUse" x1="57.119" y1="586.27" x2="223.7253" y2="650.2241">
						<stop  offset="0" style="stop-color:#969595"/>
						<stop  offset="0.31" style="stop-color:#D2D2D2"/>
						<stop  offset="0.57" style="stop-color:#BEBCBC"/>
						<stop  offset="0.73" style="stop-color:#E8E7E5"/>
						<stop  offset="1" style="stop-color:#969595"/>
					</linearGradient>
					<path class="st13" d="M208.9,617.4c0.5,37.8-29.8,68.9-67.7,69.4c-37.8,0.5-68.9-29.8-69.4-67.7c-0.5-37.8,29.8-68.9,67.7-69.4
						C177.4,549.3,208.5,579.6,208.9,617.4z"/>
					<path class="st12" d="M188.4,617.7c0.3,26.5-20.9,48.2-47.4,48.5c-26.5,0.3-48.2-20.9-48.5-47.4c-0.3-26.5,20.9-48.2,47.4-48.5
						C166.3,570,188,591.2,188.4,617.7z"/>
					<linearGradient id="SVGID_6_" gradientUnits="userSpaceOnUse" x1="83.3293" y1="596.332" x2="197.5098" y2="640.1618">
						<stop  offset="0" style="stop-color:#969595"/>
						<stop  offset="0.31" style="stop-color:#D2D2D2"/>
						<stop  offset="0.57" style="stop-color:#BEBCBC"/>
						<stop  offset="0.73" style="stop-color:#E8E7E5"/>
						<stop  offset="1" style="stop-color:#969595"/>
					</linearGradient>
					<path class="st14" d="M187.4,617.7c0.3,25.9-20.4,47.2-46.4,47.5c-25.9,0.3-47.2-20.4-47.5-46.4c-0.3-25.9,20.4-47.2,46.4-47.5
						S187,591.7,187.4,617.7z"/>
					<path class="st12" d="M179.1,617.8c0.3,21.3-16.8,38.9-38.2,39.1c-21.3,0.3-38.9-16.8-39.1-38.2s16.8-38.9,38.2-39.1
						S178.8,596.4,179.1,617.8z"/>
					<linearGradient id="SVGID_7_" gradientUnits="userSpaceOnUse" x1="96.4643" y1="601.3737" x2="184.3724" y2="635.1185">
						<stop  offset="0" style="stop-color:#E8E7E5"/>
						<stop  offset="1" style="stop-color:#969595"/>
					</linearGradient>
					<path class="st15" d="M176.6,617.8c0.2,20-15.7,36.4-35.7,36.6c-20,0.2-36.4-15.7-36.6-35.7c-0.2-20,15.7-36.4,35.7-36.6
						C159.9,581.8,176.3,597.8,176.6,617.8z"/>
					<linearGradient id="SVGID_8_" gradientUnits="userSpaceOnUse" x1="141.1637" y1="699.1095" x2="141.1637" y2="690.8992">
						<stop  offset="0" style="stop-color:#E8E7E5"/>
						<stop  offset="0.33" style="stop-color:#BFBFBF"/>
						<stop  offset="1" style="stop-color:#969595"/>
					</linearGradient>
					<polygon class="st16" points="147.4,665.7 148.2,724.2 134.9,724.3 134.2,665.9 					"/>
				</g>
				<path class="st11" d="M759,770.8c-0.8,67.8-69.7,110.8-161.5,129.4c-39.3,8-82.9,11.5-127.1,10.7c-44.2-0.8-89-6.1-130.8-15.6
					c-112.2-25.7-202.9-82.9-203.1-171.1h10c0.2,82.5,87.4,136.6,195.3,161.3c41.2,9.4,85.3,14.6,128.7,15.4
					c43.5,0.8,86.3-2.7,124.9-10.5c87.3-17.7,152.7-57.5,153.4-119.7L759,770.8z"/>
			</g>
		</g>
	</g>
</g>
</svg>
