<?xml version="1.0" encoding="utf-8"?>
<!-- Generator: Adobe Illustrator 19.1.0, SVG Export Plug-In . SVG Version: 6.00 Build 0)  -->
<svg version="1.1" id="Heart" xmlns="http://www.w3.org/2000/svg" xmlns:xlink="http://www.w3.org/1999/xlink" x="0px" y="0px"
	 viewBox="0 0 900 997.7" style="enable-background:new 0 0 900 997.7;" xml:space="preserve">
<style type="text/css">
	.st0{fill:#D5489A;}
	.st1{fill:#F59496;}
	.st2{fill:#E0777D;}
	.st3{fill:#B82E83;}
	.st4{fill:#CC2027;}
	.st5{fill:#EF3739;}
	.st6{fill:#F15C64;}
	.st7{fill:#F26F72;}
	.st8{fill:#E05D66;}
</style>
<g>
	<path class="st0" d="M693,355.2c-5.9-9-13.6-14.4-17.2-12c0,0,0,0,0,0l-0.1-0.1c0,0-16.8,8.7-22.1,12.1c-7,4.5-26.7,20.1-26.7,20.1
		l22.9,36.4c0,0,20.9-18.2,28.3-23.6c4.9-3.5,20.2-13.3,20.2-13.3C700.5,371.5,698.4,363.3,693,355.2z"/>
	<path class="st0" d="M710.4,406.3L710.4,406.3c0,0-12.8-1.3-24.7,0c-24.6,2.5-29.4,9.2-29.4,9.2s4.7,12.5,5.5,16.9
		c0.9,4.7,3.9,17.1,3.9,17.1s6.8-5.5,25.6-9.3c5.8-1.2,18.7-1.9,19.3-1.9c3.6,0,6.5-7.2,6.4-16.1C716.8,413.5,715,406.4,710.4,406.3
		z"/>
	<path class="st0" d="M340,150.2L340,150.2c-0.3-7-16.2-12.2-36.1-13.2c-20.1-1.1-36.8,3.2-37.4,9.6l-0.1,0l-2.5,68.6
		c0,0-43.7-25.3-43.8-25.3c-3.5-1.7-10.2,4.9-15,14.8c-4.3,8.8-5.6,17.1-3.5,20.1c0,0,52.7,31.9,66,47.3c8,9.3,22.3,43.6,22.3,43.6
		l35.1-23.4c0,0-4.3-42.4-3.6-56.1C322.6,214.2,340,150.2,340,150.2z"/>
	<path class="st0" d="M375.2,73c-18.7-7.6-40.8-14.6-54.9-13.6c-5.5,0.4-12.6,3.9-17.2,13.9c-4.6,9.9-4.5,19.9,0.4,22.1
		c0.4,0.2,37.6,9.5,48.9,14.7c15.5,7.1,34.6,21.6,34.6,21.6l34.6-22.3C421.6,109.5,395,81,375.2,73z"/>
	<path class="st0" d="M435.8,54.4c-6.2-13.9-28.1-43.6-28.2-43.8c-2.6-3.5-19.2-2.3-30.7,6.3c-10.9,8.1-12.7,20.3-11.2,24.3
		l57.8,65.8l33.4-6.8C456.8,100.2,444,72.9,435.8,54.4z"/>
	<path class="st0" d="M563.1,34.6c-0.9-13.2-6-23.6-8.1-23.4c-0.2,0-36.4,1.2-63,30.2c-20.8,22.7-35.3,61.1-35.3,61.1l40.6,7.6
		c0,0,3.4-24.9,23.1-36.5c16.5-9.8,37.8-14.7,37.8-14.7C560.5,58.7,564.1,47.8,563.1,34.6z"/>
	<path class="st1" d="M233.4,489.3c0,0-23-59.1,27.2-139.3c52.8-84.3,171.1-89.5,207.8-83.3c68.4,11.5,146.3,76.7,174,122
		c61.8,101.4,0,169.8,0,169.8S461.4,421.4,375,422.8C299.9,424.1,233.4,489.3,233.4,489.3z"/>
	<path class="st2" d="M641.6,383.1c-23.2-38-81.6-89.9-140.2-112.5c20.1,18,36.6,36.8,46.5,53.1c54.4,89.2,13.1,152.9,2.4,166.9
		c51.4,32,91.4,62.3,91.4,62.3S703.4,484.5,641.6,383.1z"/>
	<path class="st0" d="M647.4,279.2L647.4,279.2c0,0-0.1-0.1-0.4-0.2c-0.3-0.1-0.7-0.2-1.1-0.3c-0.1,0-39.4-11.5-67.8-8.6
		c-14.4,1.5-52.8,14.8-52.8,14.8l-49.1-127.2L419.7,176l33.4,137.3l-101,78.7L470,429.1c0,0,28.3-59.6,77.5-81.2
		c34.9-15.3,55.9-7.8,82.5-4.1c9.4,1.3,20.9-10.4,25.3-28.4C659.4,298.5,655.9,282.8,647.4,279.2z"/>
	<path class="st3" d="M647.4,279.2L647.4,279.2c0,0-0.1-0.1-0.4-0.2c-0.3-0.1-0.7-0.2-1.1-0.3c0,0-1.8-0.5-4.8-1.3
		c-5.9,16.7-17.2,27-26.7,25.7c-30.1-4.3-78.4,11-99.5,25.6c-22.5,15.6-71.5,72.7-84.5,88l39.7,12.5c0,0,28.3-59.6,77.5-81.2
		c34.9-15.3,55.9-7.8,82.5-4.1c9.4,1.3,20.9-10.4,25.3-28.4C659.4,298.5,655.9,282.8,647.4,279.2z"/>
	<path class="st4" d="M330.8,394.1c-78,19.3-147.7,167-147.7,262.6c0,107.2,98.9,324.1,197.9,340.5c24.2,4,58.2-18.6,85.7-44.5
		c28-26.4,107.8-60.2,138.9-87c54-46.6,106.8-119.1,82.9-236.2c-10.8-52.9-103.1-129.1-146.8-160.8
		C499.7,438.1,399.1,377.2,330.8,394.1z"/>
	<path class="st5" d="M496.4,791.5c54-46.6,106.8-119.1,82.9-236.2c-8-39.2-60.8-91.2-105.3-128.4c-45.6-23.7-100.6-43.3-143.1-32.9
		c-78,19.3-147.7,167-147.7,262.6c0,70.7,43,189.2,100.7,266.3c22.6-3.2,50.4-22.6,73.7-44.5C385.5,852.1,465.3,818.3,496.4,791.5z"
		/>
	<path class="st6" d="M353.1,437.1c42.5-10.5,97.5,9.2,143.1,32.9c28.9,24.2,61.3,54.5,82.7,83.6c-9.2-39-61-90-104.9-126.6
		c-45.6-23.7-100.6-43.3-143.1-32.9c-78,19.3-147.7,167-147.7,262.6c0,57.5,28.4,146.5,70.1,219.2c-29.2-62.5-47.8-129.7-47.8-176.2
		C205.4,604.1,275.1,456.4,353.1,437.1z"/>
	<path class="st7" d="M352.9,391.5c0,0-42.7-88.4-33-164.9c6.6-51.9,54.3-105.1,87.4-118.7c33-13.6,92-19.1,143.5,23.1
		c55.2,45.3,55,139.1,55,139.1s-21.1,0.1-33.5,2.4c-13.2,2.5-31.9,7.1-31.9,7.1s-20.9-76.8-56-97.2c-16.8-9.7-65.5-5.9-65.5,40.6
		c0,34.6,30.9,93.1,30.9,93.1L352.9,391.5z"/>
	<path class="st8" d="M429,135c-66.7,28.5-21.7,138.3,5.7,192.7l15.1-11.8c0,0-30.9-58.5-30.9-93.1c0-46.5,48.7-50.3,65.5-40.6
		c35.1,20.4,56,97.2,56,97.2s7.9-2,17.1-4C543.8,217.9,506,102.1,429,135z"/>
</g>
</svg>
