<svg xmlns="http://www.w3.org/2000/svg" width="23" height="22" fill="none" viewBox="0 0 23 22">
    <path fill="#03A9F4" d="M21.965 20.878l-5.315-5.346c1.426-1.65 2.289-3.8 2.289-6.152 0-5.175-4.185-9.38-9.325-9.38C4.469 0 .289 4.21.289 9.38c0 5.171 4.185 9.381 9.325 9.381 2.337 0 4.476-.868 6.115-2.302l5.314 5.346c.127.127.296.195.461.195.165 0 .335-.063.46-.195.253-.254.253-.673 0-.927zM1.593 9.38c0-4.448 3.599-8.063 8.016-8.063 4.423 0 8.016 3.62 8.016 8.063 0 4.444-3.593 8.069-8.016 8.069-4.417 0-8.016-3.62-8.016-8.069z"/>
</svg>
