<svg xmlns="http://www.w3.org/2000/svg" width="80" height="80" fill="none" viewBox="0 0 80 80">
    <path fill="#79C5CF" d="M40 80c22.091 0 40-17.909 40-40S62.091 0 40 0 0 17.909 0 40s17.909 40 40 40z"/>
    <path fill="#70B7C0" d="M36.98 79.887L14.447 57.359l16.494-6.996L50.064 31.78l1.948-14.494 27.695 27.69C77.256 64.71 60.421 80 40.016 80c-1.023 0-2.03-.032-3.036-.113z"/>
    <path fill="#FFC964" d="M35.357 35.934c.666-1.363 2.354-4.09 5.925-6.167 4.984-2.89 6.802-9.251 7.046-11.02.243-1.786 4.513-3.88 5.032 1.882.52 5.762-2.987 9.657-2.987 9.657h12.094c3.702-.52 4.286 5.535.65 5.6l-1.153.016-.032.308h.698c2.938 0 2.938 5.762 0 5.762h-.147c2.208.73 2.062 5.648-.665 5.648h-.78v.017c1.867.405 1.673 2.142 1.673 3.587 0 2.434-6.331 3.716-7.922 4.155-4.595 1.25-10.65-.147-15.796-.617l-3.23-.373H28.7V35.934h6.672-.016z"/>
    <path fill="#fff" d="M26.283 34.636h8.166v21.083h-8.166V34.636z"/>
    <path fill="#2BA7F1" d="M14.447 32.98h14.546V57.36H14.447V32.98z"/>
</svg>
