<?xml version="1.0" encoding="utf-8"?>
<!-- Generator: Adobe Illustrator 19.1.0, SVG Export Plug-In . SVG Version: 6.00 Build 0)  -->
<svg version="1.1" id="Layer_1" xmlns="http://www.w3.org/2000/svg" xmlns:xlink="http://www.w3.org/1999/xlink" x="0px" y="0px"
	 viewBox="-336 -336 800 800" enable-background="new -336 -336 800 800" xml:space="preserve">
<g>
	<g>
		<path fill="#E4156E" d="M322.192,99.312c-13.221,2.148-20.814,9.29-20.814,17.939v0.434c0,8.978,4.522,14.282,20.814,19.336
			V99.312z"/>
		<path fill="#E4156E" d="M-37.538,30.443c3.119,10.483,2.981,26.825-15.362,45.164c-11.212,11.218-22.882,16.906-34.674,16.906
			c-20.926,0-36.838-17.657-48.425-39.02v264.02h550c27.502,0,50-22.498,50-50v-275H-75.111
			C-57.433,2.096-42.25,14.602-37.538,30.443z M278.844,192.812c4.357,0,7.178,1.129,9.24,2.473
			c10.547,7.355,21.619,12.384,34.108,14.721v-44.47c-33.533-7.867-52.295-18.292-52.295-45.367v-0.47
			c0-24.652,21.441-42.341,52.295-45.203V61.263c0-6.9,5.602-12.5,12.5-12.5c6.902,0,12.5,5.6,12.5,12.5v13.721
			c15.381,1.898,28.636,6.58,40.728,13.672c3.582,1.801,6.915,5.621,6.915,11.023c0,7.195-6.659,12.853-14.844,12.853
			c-3.089,0-5.615-0.678-8.19-2.026c-8.295-4.724-16.406-8.038-24.609-9.955v42.572c35.84,8.105,54.297,20.056,54.297,45.446v0.428
			c0,26.855-21.937,43.762-54.297,46.558v13.208c0,6.896-5.604,12.5-12.5,12.5c-6.903,0-12.5-5.604-12.5-12.5v-13.721
			c-18.671-2.246-36.328-8.557-52.051-18.836c-3.596-2.246-6.141-6.078-6.141-10.57C264,198.459,270.665,192.812,278.844,192.812z"
			/>
		<path fill="#E4156E" d="M370.006,191.708v-0.445c0-8.881-4.541-14.532-22.814-19.854v39.386
			C361.357,208.664,370.006,201.486,370.006,191.708z"/>
		<path fill="#E4156E" d="M-209.425,92.513c-11.792,0-23.462-5.688-34.668-16.9c-18.35-18.338-18.482-34.681-15.363-45.17
			c4.706-15.841,19.895-28.354,37.573-37.93H-336v275c0,27.502,22.5,50,50,50h125V53.481
			C-172.594,74.849-188.5,92.513-209.425,92.513z"/>
		<path fill="#E4156E" d="M-235.493,37.576c-0.644,2.151-2.588,8.7,9.082,20.356c4.361,4.369,10.855,9.582,16.986,9.582
			c16.788,0,33.933-36.926,43.667-70.245C-196.52,6.271-230.781,21.694-235.493,37.576z"/>
		<path fill="#E4156E" d="M-259.462-70.411c-3.119-10.483-2.988-26.825,15.362-45.169c11.212-11.218,22.882-16.907,34.674-16.907
			c20.926,0,36.831,17.664,48.425,39.026v-114.026h-125c-27.5,0-50,22.5-50,50v125h114.099
			C-239.574-42.063-254.75-54.576-259.462-70.411z"/>
		<path fill="#E4156E" d="M414-207.487h-550v114.038c11.594-21.362,27.5-39.032,48.425-39.032c11.792,0,23.462,5.688,34.674,16.901
			c18.35,18.344,18.481,34.692,15.362,45.175c-4.712,15.835-19.888,28.342-37.555,37.918H464v-125
			C464-184.986,441.502-207.487,414-207.487z"/>
		<path fill="#E4156E" d="M-209.425-107.487c-6.137,0-12.631,5.206-17.007,9.583c-11.661,11.661-9.711,18.213-9.073,20.361
			c4.736,15.924,38.999,31.351,69.757,40.326C-175.48-70.542-192.631-107.487-209.425-107.487z"/>
		<path fill="#E4156E" d="M-61.507-77.537c0.644-2.148,2.588-8.701-9.082-20.361c-4.367-4.37-10.861-9.577-16.992-9.577
			c-16.788,0-33.932,36.926-43.67,70.251C-100.48-46.226-66.219-61.656-61.507-77.537z"/>
		<path fill="#E4156E" d="M-87.575,67.513c6.137,0,12.631-5.213,17.007-9.582c11.661-11.661,9.711-18.204,9.073-20.356
			C-66.23,21.651-100.493,6.225-131.251-2.75C-121.52,30.575-104.369,67.513-87.575,67.513z"/>
	</g>
</g>
</svg>
