<?xml version="1.0" encoding="utf-8"?>
<!-- Generator: Adobe Illustrator 23.0.3, SVG Export Plug-In . SVG Version: 6.00 Build 0)  -->
<svg version="1.1" id="Layer_1" xmlns="http://www.w3.org/2000/svg" xmlns:xlink="http://www.w3.org/1999/xlink" x="0px" y="0px"
	 viewBox="0 0 759.9 298.3" style="enable-background:new 0 0 759.9 298.3;" xml:space="preserve">
<style type="text/css">
	.st0{fill:#727077;}
	.st1{font-family:'FetteMittelschrift';}
	.st2{font-size:42px;}
	.st3{letter-spacing:-1;}
	.st4{letter-spacing:-4;}
	.st5{letter-spacing:-2;}
	.st6{font-size:23px;}
	.st7{fill:#88C8EE;}
	.st8{display:none;fill:#88C8EE;}
	.st9{display:none;fill:#727077;}
</style>
<g>
	<text transform="matrix(1 0 0 1 175.1129 287.809)" class="st0 st1 st2">B</text>
	<text transform="matrix(1 0 0 1 197.5129 287.809)" class="st0 st1 st2">e</text>
	<text transform="matrix(1 0 0 1 216.0129 287.809)" class="st0 st1 st2 st3">t</text>
	<text transform="matrix(1 0 0 1 224.9129 287.809)" class="st0 st1 st2 st3">t</text>
	<text transform="matrix(1 0 0 1 234.4129 287.809)" class="st0 st1 st2">e</text>
	<text transform="matrix(1 0 0 1 253.0129 287.809)" class="st0 st1 st2 st4">r</text>
	<text transform="matrix(1 0 0 1 263.0129 287.809)" class="st0 st1 st2"> </text>
	<text transform="matrix(1 0 0 1 275.6129 287.809)" class="st0 st1 st2">h</text>
	<text transform="matrix(1 0 0 1 294.7129 287.809)" class="st0 st1 st2">e</text>
	<text transform="matrix(1 0 0 1 313.0129 287.809)" class="st0 st1 st2">a</text>
	<text transform="matrix(1 0 0 1 331.8129 287.809)" class="st0 st1 st2">l</text>
	<text transform="matrix(1 0 0 1 339.9129 287.809)" class="st0 st1 st2 st3">t</text>
	<text transform="matrix(1 0 0 1 349.4129 287.809)" class="st0 st1 st2 st3">h</text>
	<text transform="matrix(1 0 0 1 367.5129 287.809)" class="st0 st1 st2 st3"> </text>
	<text transform="matrix(1 0 0 1 377.6129 287.809)" class="st0 st1 st2">f</text>
	<text transform="matrix(1 0 0 1 387.5129 287.809)" class="st0 st1 st2">o</text>
	<text transform="matrix(1 0 0 1 405.6129 287.809)" class="st0 st1 st2 st5">r</text>
	<text transform="matrix(1 0 0 1 417.4129 287.809)" class="st0 st1 st2 st3"> </text>
	<text transform="matrix(1 0 0 1 427.9129 287.809)" class="st0 st1 st2">l</text>
	<text transform="matrix(1 0 0 1 437.3129 287.809)" class="st0 st1 st2">i</text>
	<text transform="matrix(1 0 0 1 444.4129 287.809)" class="st0 st1 st2">f</text>
	<text transform="matrix(1 0 0 1 454.5129 287.809)" class="st0 st1 st2">e</text>
	<text transform="matrix(1 0 0 1 475.0129 272.809)" class="st0 st1 st6">™</text>
	<path class="st0" d="M105,66.3v118.9H90.7V66.3H105z"/>
	<path class="st0" d="M118.7,185.2V66.3h19.5c0,0,34,86.2,38.5,98.4c0,0,0.4-30.1,0.4-48.6V66.3h14.3v118.9H172
		c0,0-32.8-83.5-38.2-96c0,0-0.3,25.5-0.3,45.2l0.2,50.8H118.7z"/>
	<path class="st0" d="M232.9,79.4H203V66.3h72.8v13.1h-30.1v105.9h-12.8V79.4z"/>
	<path class="st0" d="M363.7,65.7c8.5-0.8,17.5-0.4,27.1-0.4c15.1,0,26.2,1,32.8,7.6c5.3,5.3,8.3,14.6,8.3,24
		c0,15.5-6.4,23.9-17.8,28.2l3.2,0.5c8.3,3.2,18.4,32.3,21.4,38.6c8.1,17.1,14.4,28.7,16.6,33.3l-16.8,0.1
		c-1.8-3.5-9.1-20.2-15.5-33.9c-9.2-19.7-10-32.1-24.9-32.8h-19.5v53.3h-15L363.7,65.7z M378.9,120.1h14.4c22,0,24.5-12.8,24.6-23.4
		c0.2-12.2-10.2-18.4-25.1-18.4c-6.8,0-11.5-0.3-13.9,0.4V120.1z"/>
	<path class="st0" d="M469.9,185.2L440.8,66.3l15.8,0.1l13.3,58.8c3.9,16.1,6.9,28,9.5,41.9h0.7c2.6-13.8,5.1-26.6,9.4-42.1
		l13.4-58.7l15.3-0.1l-29.4,118.9h-18.9V185.2z"/>
	<path class="st0" d="M584.3,129.5h-43.7v42.9h48.8v12.9h-63.6v-119h61.1v12.9h-46.3v37.6h43.7V129.5z"/>
	<path class="st0" d="M717,79.4h-29.9V66.3h72.8v13.1h-30.1v105.9H717V79.4z"/>
	<path class="st0" d="M602.6,185.2V66.3h19.5c0,0,34,86.2,38.5,98.4c0,0,0.4-30.1,0.4-48.6V66.3h14.3v118.9h-19.4
		c0,0-32.8-83.5-38.2-96c0,0-0.3,25.5-0.3,45.2l0.2,50.8H602.6z"/>
	<path class="st0" d="M345.7,129.5H302v42.9h48.8v12.9h-63.6v-119h61.1v12.9H302v37.6h43.7V129.5z"/>
	<polygon class="st0" points="439.6,132.6 454.9,132.6 420.9,198.1 404.4,198.1 	"/>
	<g>
		<circle class="st7" cx="165.6" cy="72.4" r="3"/>
		<circle class="st7" cx="178.7" cy="58.6" r="3.5"/>
		<circle class="st7" cx="199.6" cy="43.1" r="4.1"/>
		<circle class="st7" cx="218.9" cy="33.3" r="4.8"/>
		
			<ellipse transform="matrix(0.1602 -0.9871 0.9871 0.1602 179.4961 256.3724)" class="st7" cx="240.4" cy="22.7" rx="5.8" ry="5.8"/>
		<circle class="st7" cx="265.7" cy="13.4" r="6.9"/>
		<circle class="st7" cx="296.2" cy="8" r="7.9"/>
		<circle class="st7" cx="334.3" cy="9.4" r="9.4"/>
		<circle class="st7" cx="378" cy="18.4" r="11.2"/>
		<circle class="st7" cx="437.4" cy="37.3" r="13.1"/>
	</g>
	<path class="st7" d="M158.3,261.8c0,0-95-56.9-123-118.4c-22.8-50-19-76.1,1.3-96.9c7.7-7.9,19.2-17.9,40.6-22.1
		c26.2-5.1,55.9,6.5,83,50.8c0,0-11.3-58.7-65.3-67c0,0-45.3-10.8-80.7,33.7c-33,43.3,1.1,98.7,6.3,106
		c1.7,2.3,26.7,48.3,137.3,115.3"/>
</g>
<rect x="243.6" y="375.9" class="st8" width="23" height="23"/>
<rect x="243.6" y="405.6" class="st9" width="23" height="23"/>
</svg>
