<?xml version="1.0" encoding="utf-8"?>
<!-- Generator: Adobe Illustrator 21.1.0, SVG Export Plug-In . SVG Version: 6.00 Build 0)  -->
<svg version="1.1" id="Layer_1" xmlns="http://www.w3.org/2000/svg" xmlns:xlink="http://www.w3.org/1999/xlink" x="0px" y="0px"
	 viewBox="0 0 789.4 436.3" style="enable-background:new 0 0 789.4 436.3;" xml:space="preserve">
<style type="text/css">
	.st0{fill:#83CAA1;}
	.st1{fill:#4FBA7F;}
	.st2{fill:#16B265;}
	.st3{fill:#80A9D4;}
	.st4{fill:#3672B8;}
	.st5{fill:#4D89C3;}
	.st6{fill:#1E4380;}
	.st7{fill:#00AC76;}
</style>
<g>
	<path class="st0" d="M259.9,181.2l20.4-55.2L249.9,14.1c-2.8-10.2-13.3-16.2-23.5-13.5c-10.2,2.8-16.2,13.3-13.5,23.5l45.9,168.7
		c2.3,8.5,10,14.1,18.5,14.1c0.1,0,0.2,0,0.2,0c-2.1,0-4.2-0.4-6.3-1.2C261.3,202.1,256.2,191.1,259.9,181.2"/>
	<path class="st0" d="M317.6,45.6c2.1-0.8,4.2-1.1,6.3-1.2c-7.8,0-15.2,4.7-18,12.5l-25.5,69l15.5,56.9c2.8,10.2-3.2,20.8-13.5,23.5
		c-1.6,0.4-3.2,0.6-4.8,0.7c0.1,0,0.2,0,0.3,0c7.8,0,15.1-4.8,18-12.5l28.1-76.1l-17.8-48.1C302.6,60.3,307.6,49.3,317.6,45.6"/>
	<path class="st1" d="M295.8,182.8l-15.3-56.9l-20.6,55.2c-3.7,9.9,1.3,21,11.3,24.7c2.1,0.8,4.2,1.2,6.3,1.2c1.6,0,3.2-0.2,4.8-0.7
		C292.5,203.6,298.5,193.1,295.8,182.8"/>
	<path class="st2" d="M370.1,207c0.1,0,0.1,0,0.2,0c-0.7,0-1.4-0.1-2-0.1C368.9,206.9,369.5,207,370.1,207"/>
	<path class="st0" d="M351.9,182.8l15.6-57.3l-25.3-68.5c-2.9-7.8-10.4-12.6-18.3-12.5c2.2,0,4.4,0.4,6.6,1.2
		c9.9,3.7,15,14.7,11.3,24.6L324,118.4l28.1,76.1c2.6,7,8.8,11.5,15.7,12.4c-0.8-0.1-1.7-0.3-2.5-0.5
		C355.2,203.5,349.1,193,351.9,182.8"/>
	<path class="st1" d="M330.5,45.6c-2.2-0.8-4.4-1.2-6.6-1.2c-2.1,0-4.2,0.4-6.3,1.2c-9.9,3.7-15,14.7-11.3,24.6l17.8,48.1l17.8-48.1
		C345.5,60.3,340.4,49.3,330.5,45.6"/>
	<path class="st2" d="M368.3,206.9c-0.1,0-0.3,0-0.4,0C368,206.8,368.1,206.8,368.3,206.9"/>
	<path class="st0" d="M409.9,1.2c2.1-0.8,4.2-1.1,6.3-1.2c-8.4,0-16.1,5.6-18.4,14.1l-30.3,111.3l20.6,55.7
		c3.7,9.9-1.4,21-11.3,24.6c-2.1,0.8-4.3,1.2-6.5,1.2c0,0,0.1,0,0.1,0c8.4,0,16.2-5.6,18.5-14.1l30.3-111.3l-20.6-55.8
		C394.9,15.9,400,4.9,409.9,1.2"/>
	<path class="st1" d="M388.1,181.2l-20.6-55.7l-15.6,57.3c-2.8,10.2,3.2,20.8,13.5,23.5c0.8,0.2,1.7,0.4,2.5,0.5c0.1,0,0.3,0,0.4,0
		c0.7,0.1,1.4,0.1,2,0.1c2.2,0,4.3-0.4,6.5-1.2C386.7,202.1,391.8,191.1,388.1,181.2"/>
	<path class="st3" d="M445.1,136.8l17.7-47.9l-28.2-76.4C431.7,4.7,424.2-0.1,416.3,0c1.7,0,3.4,0.2,5.1,0.7
		c10.2,2.8,16.2,13.3,13.5,23.5l-15.6,57.4l25.3,68.5c2.7,7.3,9.4,11.9,16.7,12.4c-1.6-0.2-3.2-0.5-4.8-1.1
		C446.5,157.7,441.4,146.7,445.1,136.8"/>
	<path class="st4" d="M462.5,162.6c0.1,0,0.2,0,0.3,0c-0.3,0-0.7,0-1,0C462,162.5,462.3,162.6,462.5,162.6"/>
	<path class="st4" d="M464.4,162.5c-0.2,0-0.4,0-0.5,0C464,162.5,464.2,162.5,464.4,162.5"/>
	<path class="st5" d="M421.4,0.7C419.7,0.2,418,0,416.3,0c-2.1,0-4.2,0.4-6.3,1.2c-9.9,3.7-15,14.7-11.3,24.6l20.6,55.8l15.6-57.4
		C437.6,14,431.6,3.5,421.4,0.7"/>
	<path class="st3" d="M574.2,182.8L528.3,14.1C526,5.6,518.3,0.1,509.9,0c1.9,0.1,3.9,0.5,5.8,1.2c9.9,3.7,15,14.7,11.3,24.6
		l-20.3,54.9l30.5,112.1c2.3,8.5,10,14.1,18.5,14.1c1.7,0,3.4-0.2,5-0.7C571,203.5,577,193,574.2,182.8"/>
	<path class="st4" d="M463.1,162.6c0.3,0,0.5,0,0.8-0.1c-0.3,0-0.7,0-1,0C462.9,162.6,463,162.6,463.1,162.6"/>
	<path class="st3" d="M504.8,0.7c1.7-0.5,3.4-0.7,5.1-0.7C501.8-0.3,494,4.5,491,12.5l-28.2,76.4l17.7,47.9
		c3.7,9.9-1.4,21-11.3,24.6c-1.6,0.6-3.2,0.9-4.8,1.1c7.3-0.5,14-5.1,16.7-12.4l25.6-69.3l-15.4-56.5C488.5,14,494.5,3.5,504.8,0.7"
		/>
	<path class="st4" d="M461.8,162.5c-0.2,0-0.4,0-0.5,0C461.4,162.5,461.6,162.5,461.8,162.5"/>
	<path class="st5" d="M480.5,136.8l-17.7-47.9l-17.7,47.9c-3.7,9.9,1.4,21,11.3,24.6c1.6,0.6,3.2,0.9,4.8,1.1c0.2,0,0.4,0,0.5,0
		c0.3,0,0.7,0,1,0c0.3,0,0.7,0,1,0c0.2,0,0.4,0,0.5,0c1.6-0.2,3.2-0.5,4.8-1.1C479.1,157.7,484.2,146.7,480.5,136.8"/>
	<path class="st5" d="M515.7,1.2c-1.9-0.7-3.9-1.1-5.8-1.2c-1.7,0-3.4,0.2-5.1,0.7c-10.2,2.8-16.2,13.3-13.5,23.5l15.4,56.5
		L527,25.8C530.7,15.9,525.6,4.9,515.7,1.2"/>
	<path class="st6" d="M0,384.4V279c0-2.4,2-4.4,4.4-4.4h18.3c2.4,0,4.4,2,4.4,4.4v105.4c0,2.4-2,4.4-4.4,4.4H4.4
		C2,388.7,0,386.8,0,384.4"/>
	<path class="st6" d="M112.2,388.7c-1.3,0-2.5-0.8-3.1-2l-18.7-41.7c-3.7-8.3-7-18.7-7-18.7h-0.3c0,0,0.3,10.9,0.3,20.2v38.8
		c0,1.9-1.5,3.4-3.4,3.4H61.4c-1.9,0-3.4-1.5-3.4-3.4V278c0-1.9,1.5-3.4,3.4-3.4h22.1c1.3,0,2.5,0.8,3.1,2l16.9,37.1
		c3.7,8.2,7.8,19.6,7.8,19.6h0.3c0,0-0.3-11.7-0.3-21.4V278c0-1.9,1.5-3.4,3.4-3.4h18.8c1.9,0,3.4,1.5,3.4,3.4v107.3
		c0,1.9-1.5,3.4-3.4,3.4H112.2z"/>
	<path class="st6" d="M179.8,385.4v-81.3c0-1.9-1.5-3.4-3.4-3.4h-10.1c-1.9,0-3.4-1.5-3.4-3.4V278c0-1.9,1.5-3.4,3.4-3.4h54.1
		c1.9,0,3.4,1.5,3.4,3.4v19.3c0,1.9-1.5,3.4-3.4,3.4h-10.1c-1.9,0-3.4,1.5-3.4,3.4v81.3c0,1.9-1.5,3.4-3.4,3.4h-20.5
		C181.3,388.7,179.8,387.2,179.8,385.4"/>
	<path class="st6" d="M249.9,385.2V278.1c0-1.9,1.6-3.5,3.5-3.5h56.4c1.9,0,3.5,1.6,3.5,3.5v17.8c0,1.9-1.6,3.5-3.5,3.5h-29.4
		c-1.9,0-3.5,1.6-3.5,3.5v14.9c0,1.9,1.6,3.5,3.5,3.5h23.3c1.9,0,3.5,1.6,3.5,3.5v16.8c0,1.9-1.6,3.5-3.5,3.5h-23.3
		c-1.9,0-3.5,1.6-3.5,3.5v11.9c0,1.9,1.6,3.5,3.5,3.5h29.4c1.9,0,3.5,1.6,3.5,3.5v17.8c0,1.9-1.6,3.5-3.5,3.5h-56.4
		C251.5,388.7,249.9,387.2,249.9,385.2"/>
	<path class="st6" d="M387.1,386.4l-9.3-30.4c-0.4-1.4-1.7-2.3-3.1-2.3H373c-1.8,0-3.3,1.5-3.3,3.3v28.5c0,1.8-1.5,3.3-3.3,3.3
		h-20.5c-1.8,0-3.3-1.5-3.3-3.3V277.9c0-1.8,1.5-3.3,3.3-3.3h30.6c26.1,0,36.8,20.9,36.8,39c0,12.7-4.2,24.2-12.7,31.7
		c-1.1,0.9-1.4,2.5-0.8,3.7l14.6,35.2c0.9,2.2-0.7,4.5-3,4.5h-21.2C388.8,388.7,387.5,387.8,387.1,386.4 M374.7,329.4
		c8.5,0,11.7-6.7,11.7-15.3c0-9.3-3.4-15.3-11.9-15.3H373c-1.8,0-3.3,1.5-3.3,3.3v24.1c0,1.8,1.5,3.3,3.3,3.3H374.7z"/>
	<path class="st6" d="M482.1,388.7h-26.3c-1.6,0-2.9-1.1-3.2-2.7l-21.3-107.5c-0.4-2.1,1.2-4,3.2-4h21.3c1.7,0,3.1,1.2,3.3,2.9
		l7,53.3c1.3,9.8,3.1,30.2,3.1,30.2h0.3c0,0,1.8-20.5,2.9-30.3l6.5-53.2c0.2-1.7,1.6-2.9,3.3-2.9h21.6c2.1,0,3.7,1.9,3.2,4
		l-21.5,107.5C485,387.6,483.6,388.7,482.1,388.7"/>
	<path class="st6" d="M530.9,385.6V277.8c0-1.7,1.4-3.1,3.1-3.1h57.2c1.7,0,3.1,1.4,3.1,3.1v18.5c0,1.7-1.4,3.1-3.1,3.1h-30.1
		c-1.7,0-3.1,1.4-3.1,3.1v15.6c0,1.7,1.4,3.1,3.1,3.1h24.1c1.7,0,3.1,1.4,3.1,3.1v17.6c0,1.7-1.4,3.1-3.1,3.1h-24.1
		c-1.7,0-3.1,1.4-3.1,3.1v12.7c0,1.7,1.4,3.1,3.1,3.1h30.1c1.7,0,3.1,1.4,3.1,3.1v18.6c0,1.7-1.4,3.1-3.1,3.1H534
		C532.3,388.7,530.9,387.3,530.9,385.6"/>
	<path class="st6" d="M678,388.7c-1.4,0-2.7-0.8-3.3-2.1l-18.6-41.6c-3.7-8.3-7-18.7-7-18.7h-0.3c0,0,0.3,10.9,0.3,20.2v38.6
		c0,2-1.6,3.6-3.6,3.6h-18.3c-2,0-3.6-1.6-3.6-3.6V278.2c0-2,1.6-3.6,3.6-3.6h21.8c1.4,0,2.7,0.8,3.3,2.1l16.8,37
		c3.7,8.2,7.8,19.6,7.8,19.6h0.3c0,0-0.3-11.7-0.3-21.4v-33.7c0-2,1.6-3.6,3.6-3.6H699c2,0,3.6,1.6,3.6,3.6v106.9
		c0,2-1.6,3.6-3.6,3.6H678z"/>
	<path class="st6" d="M745.4,385.7v-82c0-1.7-1.3-3-3-3h-10.8c-1.7,0-3-1.3-3-3v-20.1c0-1.7,1.3-3,3-3h54.8c1.7,0,3,1.3,3,3v20.1
		c0,1.7-1.3,3-3,3h-10.8c-1.7,0-3,1.3-3,3v82c0,1.7-1.3,3-3,3h-21.2C746.8,388.7,745.4,387.4,745.4,385.7"/>
	<path class="st7" d="M16.1,435.9v-15.5c0-0.7,0-1.7,0-1.7H16c0,0-0.4,0.9-0.8,1.4l-4.3,7.3h-0.1l-4.2-7.2c-0.3-0.6-0.9-1.6-0.9-1.6
		H5.7c0,0,0,1,0,1.8v15.5H1v-25.2h5.2l3.8,6.8c0.3,0.6,0.8,1.6,0.8,1.6h0.1c0,0,0.5-1,0.9-1.6l3.8-6.7h5.2v25.2H16.1z"/>
	<polygon class="st7" points="27.9,435.9 27.9,410.7 41.3,410.7 41.3,415.2 32.6,415.2 32.6,421.7 40,421.7 40,426.2 32.6,426.2 
		32.6,431.4 41.3,431.4 41.3,435.9 	"/>
	<path class="st7" d="M48.2,435.9v-25.2h6.5c6.9,0,9.2,6,9.2,12.6c0,6.5-2.3,12.6-9.2,12.6H48.2z M54.7,431.4c3.2,0,4.5-3.6,4.5-8.1
		c0-4.5-1.3-8.1-4.5-8.1h-1.8v16.2H54.7z"/>
	<rect x="69.9" y="410.7" class="st7" width="4.7" height="25.2"/>
	<path class="st7" d="M96.7,431.3c-1.3,3-3.6,5-7.5,5c-6.9,0-8.9-6.4-8.9-13c0-6.5,1.9-13,8.9-13c4.1,0,6.4,2.3,7.7,5.4l-4.1,2.5
		c-0.6-2.1-1.7-3.5-3.6-3.5c-3.2,0-4.2,3.9-4.2,8.5c0,4.5,1,8.5,4.2,8.5c1.8,0,2.9-1.3,3.5-3.2L96.7,431.3z"/>
	<path class="st7" d="M111.8,435.9l-0.8-4h-5.8l-0.8,4h-4.9l6-25.2h5.3l6,25.2H111.8z M108.5,419.6c-0.1-0.7-0.4-2.2-0.4-2.2H108
		c0,0-0.2,1.5-0.4,2.2l-1.7,8.2h4.1L108.5,419.6z"/>
	<polygon class="st7" points="121.4,435.9 121.4,410.7 126.1,410.7 126.1,431.4 133.4,431.4 133.4,435.9 	"/>
	<path class="st7" d="M169.2,435.9h-5.4l-2.6-12.5c-0.3-1.3-0.6-3.3-0.6-3.3h-0.1c0,0-0.3,2-0.6,3.3l-2.6,12.5h-5.4l-5.1-25.2h4.9
		l2.6,15.4c0.2,1.3,0.4,3.3,0.4,3.3h0.1c0,0,0.3-2,0.5-3.3l2.8-15.4h5l2.8,15.4c0.2,1.3,0.5,3.3,0.5,3.3h0.1c0,0,0.2-2,0.4-3.3
		l2.6-15.4h4.9L169.2,435.9z"/>
	<polygon class="st7" points="178.9,435.9 178.9,410.7 192.3,410.7 192.3,415.2 183.6,415.2 183.6,421.7 190.9,421.7 190.9,426.2 
		183.6,426.2 183.6,431.4 192.3,431.4 192.3,435.9 	"/>
	<rect x="199.2" y="410.7" class="st7" width="4.7" height="25.2"/>
	<path class="st7" d="M226.9,423.6c0,7.3-2.3,12.6-8.4,12.6c-6.9,0-8.9-6.4-8.9-13c0-6.5,1.9-13,8.9-13c4.1,0,6.4,2.3,7.7,5.4
		l-4.1,2.5c-0.6-2.1-1.7-3.5-3.6-3.5c-3.2,0-4.2,3.9-4.2,8.5c0,4.5,1,8.5,4.2,8.5c2.8,0,3.4-2.9,3.4-5.2h-3v-4.5h8V423.6z"/>
	<polygon class="st7" points="243.8,435.9 243.8,426.4 237.3,426.4 237.3,435.9 232.6,435.9 232.6,410.7 237.3,410.7 237.3,421.9 
		243.8,421.9 243.8,410.7 248.5,410.7 248.5,435.9 	"/>
	<polygon class="st7" points="258.3,435.9 258.3,415.2 253.9,415.2 253.9,410.7 267.4,410.7 267.4,415.2 263,415.2 263,435.9 	"/>
	<polygon class="st7" points="501.8,416 501.8,407.5 499.6,407.5 499.6,406.2 505.5,406.2 505.5,407.5 503.3,407.5 503.3,416 	"/>
	<path class="st7" d="M513.4,416v-6.4c0-0.4,0-1,0-1h0c0,0-0.2,0.5-0.4,0.8l-2.2,3.9h-0.1l-2.1-3.9c-0.2-0.4-0.4-0.9-0.4-0.9h0
		c0,0,0,0.5,0,1v6.4h-1.4v-9.9h1.6l2,3.8c0.2,0.3,0.4,0.9,0.4,0.9h0c0,0,0.3-0.5,0.5-0.9l2-3.8h1.6v9.9H513.4z"/>
	<path class="st7" d="M298.7,435.9v-15.5c0-0.7,0-1.7,0-1.7h-0.1c0,0-0.4,0.9-0.8,1.4l-4.3,7.3h-0.1l-4.2-7.2
		c-0.3-0.6-0.9-1.6-0.9-1.6h-0.1c0,0,0,1,0,1.8v15.5h-4.7v-25.2h5.2l3.8,6.8c0.3,0.6,0.8,1.6,0.8,1.6h0.1c0,0,0.5-1,0.9-1.6l3.8-6.7
		h5.2v25.2H298.7z"/>
	<path class="st7" d="M320.4,435.9l-0.8-4h-5.8l-0.8,4H308l6-25.2h5.3l6,25.2H320.4z M317.1,419.6c-0.1-0.7-0.4-2.2-0.4-2.2h-0.1
		c0,0-0.2,1.5-0.4,2.2l-1.7,8.2h4.1L317.1,419.6z"/>
	<path class="st7" d="M341.3,435.9l-6.4-14.1c-0.3-0.7-0.6-1.7-0.6-1.7h-0.1c0,0,0,1.1,0,1.9v14H330v-25.2h4.5l6.3,13.8
		c0.3,0.6,0.6,1.7,0.6,1.7h0.1c0-0.2,0-1.2,0-1.8v-13.6h4.2v25.2H341.3z"/>
	<path class="st7" d="M362.6,435.9l-0.8-4H356l-0.8,4h-4.9l6-25.2h5.3l6,25.2H362.6z M359.3,419.6c-0.1-0.7-0.4-2.2-0.4-2.2h-0.1
		c0,0-0.2,1.5-0.4,2.2l-1.7,8.2h4.1L359.3,419.6z"/>
	<path class="st7" d="M387.5,423.6c0,7.3-2.3,12.6-8.4,12.6c-6.9,0-8.9-6.4-8.9-13c0-6.5,1.9-13,8.9-13c4.1,0,6.4,2.3,7.7,5.4
		l-4.1,2.5c-0.6-2.1-1.7-3.5-3.6-3.5c-3.2,0-4.2,3.9-4.2,8.5c0,4.5,1,8.5,4.2,8.5c2.8,0,3.4-2.9,3.4-5.2h-3v-4.5h8V423.6z"/>
	<polygon class="st7" points="393.3,435.9 393.3,410.7 406.7,410.7 406.7,415.2 398,415.2 398,421.7 405.3,421.7 405.3,426.2 
		398,426.2 398,431.4 406.7,431.4 406.7,435.9 	"/>
	<path class="st7" d="M428.6,435.9v-15.5c0-0.7,0-1.7,0-1.7h-0.1c0,0-0.4,0.9-0.8,1.4l-4.3,7.3h-0.1l-4.2-7.2
		c-0.3-0.6-0.9-1.6-0.9-1.6h-0.1c0,0,0,1,0,1.8v15.5h-4.7v-25.2h5.2l3.8,6.8c0.3,0.6,0.8,1.6,0.8,1.6h0.1c0,0,0.5-1,0.9-1.6l3.8-6.7
		h5.2v25.2H428.6z"/>
	<polygon class="st7" points="440.5,435.9 440.5,410.7 453.9,410.7 453.9,415.2 445.1,415.2 445.1,421.7 452.5,421.7 452.5,426.2 
		445.1,426.2 445.1,431.4 453.9,431.4 453.9,435.9 	"/>
	<path class="st7" d="M472,435.9l-6.4-14.1c-0.3-0.7-0.6-1.7-0.6-1.7h-0.1c0,0,0,1.1,0,1.9v14h-4.2v-25.2h4.5l6.3,13.8
		c0.3,0.6,0.6,1.7,0.6,1.7h0.1c0-0.2,0-1.2,0-1.8v-13.6h4.2v25.2H472z"/>
	<polygon class="st7" points="486.2,435.9 486.2,415.2 481.8,415.2 481.8,410.7 495.3,410.7 495.3,415.2 490.9,415.2 490.9,435.9 	
		"/>
	<path class="st6" d="M619.5,422.9c0,8.5-5.2,13.4-12.2,13.4c-7.2,0-11.7-5.5-11.7-12.9c0-7.8,4.9-13.3,12.1-13.3
		C615.2,410.1,619.5,415.7,619.5,422.9 M600.6,423.3c0,5.2,2.6,9.3,7,9.3c4.5,0,7-4.2,7-9.5c0-4.8-2.4-9.3-7-9.3
		C603,413.8,600.6,418.1,600.6,423.3"/>
	<path class="st6" d="M625.9,410.8c1.7-0.3,4-0.5,7.1-0.5c3.4,0,5.9,0.7,7.5,2.1c1.5,1.2,2.5,3.2,2.5,5.6c0,2.4-0.8,4.4-2.2,5.8
		c-1.8,1.8-4.7,2.7-8,2.7c-0.9,0-1.7,0-2.3-0.2v9.6h-4.6V410.8z M630.5,422.7c0.6,0.2,1.3,0.2,2.3,0.2c3.5,0,5.6-1.7,5.6-4.7
		c0-2.8-2-4.3-5.2-4.3c-1.3,0-2.2,0.1-2.7,0.2V422.7z"/>
	<polygon class="st6" points="653.9,414.4 646.6,414.4 646.6,410.5 665.8,410.5 665.8,414.4 658.5,414.4 658.5,435.9 653.9,435.9 	
		"/>
	<rect x="672.9" y="410.5" class="st6" width="4.6" height="25.4"/>
	<polygon class="st6" points="687.5,410.5 700.1,410.5 700.1,412 689.3,412 689.3,422.1 699.2,422.1 699.2,423.6 689.3,423.6 
		689.3,435.9 687.5,435.9 	"/>
	<path class="st6" d="M708.5,427l-3.1,8.9h-1.8l9.2-25.4h1.7l9.2,25.4h-1.8l-3.2-8.9H708.5z M718,425.5l-3.1-8.5
		c-0.6-1.8-0.9-3-1.3-4.5h-0.1c-0.4,1.5-0.8,2.8-1.3,4.4l-3.1,8.6H718z"/>
	<path class="st6" d="M728.2,433.1c1.4,1,3.4,1.7,5.6,1.7c3.8,0,6.1-2.1,6.1-5.3c0-2.9-1.5-4.5-5.1-5.9c-4.1-1.4-6.6-3.5-6.6-7
		c0-3.7,3.1-6.4,7.4-6.4c2.4,0,4.2,0.6,5,1.2l-0.7,1.5c-0.7-0.5-2.3-1.2-4.5-1.2c-4.1,0-5.5,2.6-5.5,4.6c0,2.8,1.6,4.3,5.3,5.7
		c4.2,1.7,6.4,3.6,6.4,7.4c0,3.7-2.6,7-8.1,7c-2.2,0-4.7-0.8-6.1-1.7L728.2,433.1z"/>
	<polygon class="st6" points="754.3,412 746.1,412 746.1,410.5 764.4,410.5 764.4,412 756.2,412 756.2,435.9 754.3,435.9 	"/>
	<path class="st6" d="M769.9,410.1c1.5,0,2.6,1.2,2.6,2.6c0,1.5-1.2,2.6-2.7,2.6c-1.5,0-2.7-1.2-2.7-2.6
		C767.2,411.3,768.4,410.1,769.9,410.1L769.9,410.1z M769.9,410.6c-1.2,0-2.1,1-2.1,2.1c0,1.2,0.9,2.2,2.1,2.2c1.2,0,2.1-1,2.1-2.2
		C771.9,411.6,771.1,410.6,769.9,410.6L769.9,410.6z M769.4,414.2h-0.5v-2.7c0.3,0,0.6-0.1,1-0.1c0.5,0,0.7,0.1,0.9,0.2
		c0.2,0.1,0.3,0.3,0.3,0.6c0,0.3-0.2,0.6-0.5,0.7v0c0.2,0.1,0.4,0.3,0.5,0.7c0.1,0.4,0.1,0.6,0.2,0.7h-0.5c-0.1-0.1-0.1-0.3-0.2-0.7
		c-0.1-0.3-0.2-0.4-0.6-0.4h-0.3V414.2z M769.4,412.6h0.3c0.4,0,0.7-0.1,0.7-0.4c0-0.3-0.2-0.4-0.7-0.4c-0.2,0-0.3,0-0.4,0V412.6z"
		/>
	<path class="st6" d="M535.5,433l-0.8-9.6c-0.1-1.9-0.1-3.5-0.1-3.5h-0.1c0,0-0.6,1.5-1.5,3.3l-4.6,9.8h-1.8l-1.4-15.9h1.9l0.7,9.6
		c0.1,1.7,0.2,3.8,0.2,3.8h0.1c0,0,0.8-2,1.6-3.6l4.6-9.7h1.7l0.8,9.6c0.2,1.7,0.2,3.8,0.2,3.8h0.1c0,0,0.8-2,1.6-3.6l4.5-9.7h2
		l-7.7,15.9H535.5z"/>
	<path class="st6" d="M552.6,433c0,0-0.2,0.1-0.7,0.1c-2,0-3.1-1.1-3.1-3c0-0.5,0.1-1,0.2-1.6l1.7-8.1c0.2-0.8,0.4-1.6,0.4-2.6v-0.7
		h1.8v0.2c0,0.5-0.1,1.7-0.5,3.9l-1.5,7.4c-0.1,0.5-0.2,0.9-0.2,1.2c0,1.1,0.5,1.5,1.6,1.5c0.2,0,0.4,0,0.7-0.1L552.6,433z
		 M552.9,414.3c-0.7,0-1.1-0.5-1.1-1.1s0.5-1.2,1.1-1.2c0.6,0,1.2,0.5,1.2,1.2S553.6,414.3,552.9,414.3"/>
	<path class="st6" d="M565.8,433c-0.6,0.2-1.3,0.3-2,0.3c-2.5,0-3.8-1.5-3.8-3.7c0-0.6,0.1-1.1,0.2-1.7l1.9-9.1h-2.1l0.4-1.6h2.1
		l0.8-3.8h1.8l-0.8,3.8h3.4l-0.3,1.6H564l-2,9.3c-0.1,0.4-0.1,0.8-0.1,1.2c0,1.4,0.7,2.3,2.1,2.3c0.6,0,1.1-0.1,1.5-0.4L565.8,433z"
		/>
	<path class="st6" d="M571.5,433l4.7-22h1.8l-1.1,5.3c-0.3,1.5-0.6,2.8-0.7,3h0.1c0.9-1.4,2.2-2.5,4.1-2.5c2.8,0,3.9,1.8,3.9,4.3
		c0,0.8-0.2,1.7-0.3,2.6c-0.4,1.6-0.7,3.3-1.1,4.9c-0.1,0.5-0.2,0.9-0.2,1.3c0,1.1,0.5,1.4,1.7,1.4c0.2,0,0.4,0,0.6-0.1
		c-0.2,0.6-0.2,1.2-0.4,1.8c-2.6,0-3.7-0.9-3.7-3c0-2.4,1.6-6.3,1.6-8.9c0-1.5-0.5-2.9-2.3-2.9c-2.9,0-4.2,2.3-4.8,5.1l-2,9.4H571.5
		z"/>
</g>
</svg>
