<?xml version="1.0" encoding="utf-8"?>
<!-- Generator: Adobe Illustrator 19.1.0, SVG Export Plug-In . SVG Version: 6.00 Build 0)  -->
<svg version="1.1" id="Ñëîé_1" xmlns="http://www.w3.org/2000/svg" xmlns:xlink="http://www.w3.org/1999/xlink" x="0px" y="0px"
	 viewBox="0 0 200 200" style="enable-background:new 0 0 200 200;" xml:space="preserve">
<style type="text/css">
	.st0{fill-rule:evenodd;clip-rule:evenodd;fill:url(#SVGID_1_);}
	.st1{fill-rule:evenodd;clip-rule:evenodd;fill:url(#SVGID_2_);}
	.st2{fill-rule:evenodd;clip-rule:evenodd;fill:url(#SVGID_3_);}
	.st3{fill-rule:evenodd;clip-rule:evenodd;fill:url(#SVGID_4_);}
	.st4{fill-rule:evenodd;clip-rule:evenodd;fill:url(#SVGID_5_);}
	.st5{fill-rule:evenodd;clip-rule:evenodd;fill:url(#SVGID_6_);}
</style>
<g>
	<linearGradient id="SVGID_1_" gradientUnits="userSpaceOnUse" x1="66.5912" y1="32.843" x2="130.5917" y2="142.8441">
		<stop  offset="5.618000e-003" style="stop-color:#8AD0C3"/>
		<stop  offset="0.5" style="stop-color:#00B6A9"/>
		<stop  offset="1" style="stop-color:#00A185"/>
	</linearGradient>
	<path class="st0" d="M89.7,57.8c0,0.8,0.1,1.3,1.7,1.6c0.9,0.2,0.7,2.6,0.5,4.5c-0.4-0.6-0.8-1.4-1.6-2.6c1.1,2.1,4.3,7.8,3.7,9.7
		c-0.4,1.9-2.3,1.5-2.5,2.7c0.3,3.7-1.2,6.1-2.5,8.4c-0.8,1.5-0.8,3.4-1.5,4.6c0.1-1.7-0.8-2.3-1.4-2.6c-2.2-1-4.3-1.4-5.6-1.1
		c-1.1-1.1-2.4-2.5-3.8-6.6c0.1-1.9-0.2-4.5,0.2-6.9c0.3-0.4,5.3-3.9,5.7-5.1c0.1-0.2-6.5,5.7-8.6,5.9c1.8,3.9,2.6,9.7,6.5,13.2
		c2.9-0.1,7.2,0.9,6.4,2.5c0.4,1.6-3.9,5.3-8.1,0.1c-6.4-4.1-10.9-14-11.1-14.8c6.2-8.8,8.1-8.5,9.2-10.2c1.1-1.6,1.9-5.9,7.2-5.2
		c1-1.3,1.1-2.2,1.1-3.5c0-0.2-3.6-1.9-3.7-4.8c-5.2-1.6-3.2,9.4-13.4,8c2.5-0.9,4.3-1.6,5.7-4.8c-2.8,4.8-8.3,5.9-11.4,3.1
		c9.2-0.4,8.6-16.8,19.1-7.7c1-7.3,9.6-7.7,11.1-5.1c-0.8-0.1-1.3-0.1-2.3,0.1c2.2-0.4,3.6,0.5,4.2,1.9c0.3,0.6,0,1.3,0.2,2.1
		c0.2,1,2.2,2.2,2.1,2.8c-0.3,0.6-0.6,0.4-0.8,1.1c0.6,1-0.1,1.4,0,2.1c0,0.4,0.1,1.2,0,1.4c-0.5,1-3.6,0.4-5.1,0
		c1,0.5,1.1,0.6,1.8,0.7C91.4,54.2,90.2,54.9,89.7,57.8z"/>
	<linearGradient id="SVGID_2_" gradientUnits="userSpaceOnUse" x1="30.4827" y1="53.8522" x2="94.4825" y2="163.8519">
		<stop  offset="5.618000e-003" style="stop-color:#8AD0C3"/>
		<stop  offset="0.5" style="stop-color:#00B6A9"/>
		<stop  offset="1" style="stop-color:#00A185"/>
	</linearGradient>
	<path class="st1" d="M74.9,100.4c-3.9-2.8-4.4-6.7-3.6-9.2c-4,5.3,1.5,8.2,0.4,11c-3.6,7.4-1.9,13.2-4.5,15.4
		c-5.7-7.4-12-2.5-20-7.5c-2.3-1.4-0.5-2.2-3.3-5c-1.8-1.8-4,2.9-6.6,3.3c-3.2,0.5-10,4.9-7.3,8.2c0.5,0,7.5-2.2,14.7-1
		c12.1,2,19.1,9.3,25.1,9.8c2.7,0.2,7.5-8.3,10.6-20.2c2.5,6.3,8.3,11.2,9.3,14.5c0.7,0.6-0.8,3.5-0.4,8.4c0.5,6.5,4.1,9.2,2.6,17.1
		c-0.9,1,0.6,3.1,0.1,4.9c-0.6,3.5,4,0.9,6.3,1.2c5.7,0.7,9.7-1.4,11.3-3.5c1.2-1.6,0.4-2.8-0.5-2.6c-5.1,1.3-8.1,0-9.9-1.5
		c-4-3.4-1.2-16.2-2.7-23.3c1.5-1.9,0.7-4.6,0.3-5.7c-2.8-6.8-4-16.5-10.3-21.6c-0.4-0.7,0.2-1.6,0.8-5.5c-3.4,3.7-7.4,1.3-9-0.9
		c-0.7-0.7-1.3-0.5-2.6-2.2c0.2,1.8-1.2,3-2.6,4.5C69.8,92.7,72,97.7,74.9,100.4z"/>
	<linearGradient id="SVGID_3_" gradientUnits="userSpaceOnUse" x1="68.8903" y1="31.5083" x2="132.8876" y2="141.5037">
		<stop  offset="5.618000e-003" style="stop-color:#8AD0C3"/>
		<stop  offset="0.5" style="stop-color:#00B6A9"/>
		<stop  offset="1" style="stop-color:#00A185"/>
	</linearGradient>
	<path class="st2" d="M89.9,81.5c2.1,0.7,7,0.9,9.7,0.9c2,0,5,0.4,4.9-2.5c-0.1-2.6-1.7-1.6-3-1.8c-0.6-0.1-0.6,1.1-1,1.2
		c-3.9,0.8-7.2-1.5-9-2C91.3,78.2,90.7,80.3,89.9,81.5z"/>
</g>
<g>
	<linearGradient id="SVGID_4_" gradientUnits="userSpaceOnUse" x1="107.6091" y1="33.8133" x2="166.6093" y2="151.3137">
		<stop  offset="0" style="stop-color:#F69453"/>
		<stop  offset="0.5" style="stop-color:#F37521"/>
		<stop  offset="1" style="stop-color:#D4622A"/>
	</linearGradient>
	<path class="st3" d="M126.4,46.9c-1,3.6-2.8,4.5-4.6,4.9c-2.8,0.5-4.3,0.6-6.6,2.5c-1.7,1.4-2.9,3.2-3.1,6.2
		c-0.4-0.9,0-2.3,0.2-2.9c-4.8,1.6-8.6,4.9-10.9,9.4c-1.1,2.1,7.3,6.1,14.5,7.4c1.4,0.3,3.9,2.1,5.1,2.1c0.6,0,1-0.8,1.4-0.8
		c2.6-1.2,2.5-2.6,2.2-3.2c1.5-0.4,0.9-1.6,0-2c-2-0.9-6.2-0.4-7.2-0.4c-5.3-0.8-6-5.3-10.3-5.3c2-0.5,3.4,0.8,4.3,1.5
		c2.2-0.3,4.9-0.9,6-1.2c2.3-0.6,5.2-0.2,6.1,1.3c-1.2-0.7-3.5-1.3-5.6-0.9c0.3,1.6,0.8,3.1,1.2,4.1c5.4-0.7,8.9,1.4,6.2,3.2
		c0.4,1.4-1.2,3.3-2.6,3.5c-0.4,0.2-0.9,0.6-1.2,0.8c0.8,2.4,1.3,4.7-2,10.2c-5.4,8.8,6.7,12.5,7.8,17.2c1.8,6.8,9.4,8.9,10.9,12
		c0.5,1,1,2.1,1.1,2.9c-0.4-0.6-0.7-1.4-1.2-1.8c-4.7,4.8,1.8,13,0.3,22.9c0.1,1.3,1.5,3.1,2.8,3.9c-1.2-0.5-2.8-2.2-3.2-3.5
		c-2.1,1.4-1.5,3.7-1.8,4.4c-0.6,1.8,0.6,1.9,1.7,2.6c4.4,2.7,7.1,8.7,16.8,5.4c3-1-3.7-4-4.4-5.1c-5-7.1-5.3-6.8-5.7-16.8
		c-0.1-2.2,1-8.1,1.3-11c1-2.1,1.5-4.3,1.3-6.1c-0.9-2.8-3.8-6.5-5.5-10.2c-1.4-3-2.6-6.1-5.2-9.1c-1.5-1.7-2.6-2.6-4.6-3.5
		c0.9,0.1,1.4,0.3,1.8,0.2c0.4-5.3,4.5-16.3,3.3-22.3c2.3-4.7,1.8-6.8-0.8-11.2c0.5,0.4,1.1,1.2,1.5,1.7c1.6-2.1,1.5-5.3-0.3-6.2
		c-0.5-0.2-1-0.5-1.5-0.6c-0.9-0.3-1.9-0.6-2.6-0.9c-0.6,0.9-1.5,2.2-2.4,2.8c1-1.5,1.6-2.6,1.8-3.2c-0.1,0-0.9-0.6-1.3-1.4
		c1.3,1.4,4.5,2.6,5.2,1.8c0.8-0.8,0.2-1.4,0.5-2.1c0.2-0.4,0.3-0.3,0.4-0.8c0.1-0.4,0-0.9,0.1-1.3c0.2-0.5,1.6-0.1,1.5-0.8
		c0-0.7-1.3-2-1.3-3.1c0-0.4,0.8-0.5,0.8-0.9c-0.1-1.5,0-2.7-1.3-4.5c0.3,0.1,0.6,0.4,1,0.6c-0.9-5.2-6-4.8-9-4.5
		c-6.5,0.6-5.9,8.3-3.2,12.3c-0.1-0.4-0.1-0.6-0.2-1.3C125.8,45.9,126.3,46.7,126.4,46.9z"/>
	<g>
		<linearGradient id="SVGID_5_" gradientUnits="userSpaceOnUse" x1="70.8329" y1="52.2794" x2="129.8336" y2="169.7807">
			<stop  offset="0" style="stop-color:#F69453"/>
			<stop  offset="0.5" style="stop-color:#F37521"/>
			<stop  offset="1" style="stop-color:#D4622A"/>
		</linearGradient>
		<path class="st4" d="M118.6,95c-0.5,0.8-1.1,1.4-1.6,2.2c-3.1,4.1-3.8,5.4-5,10c-0.4,1.6-0.8,3.3-2.1,4.9c0.4-1.2,1-2.5,0.9-3.6
			c-7.8-5.7-16.3,2.9-22.3,2.9c-0.5,0-0.9,0-1.4-0.1c-0.1,0-0.2,3-2.6,5c2.3-2.7,2.1-5,2-5c-2.3-1-6.5-1.4-6.9,0.9
			c-0.1,0.5,0.4,3.8-0.4,5.4c-0.8,1.6-3.2,9.3,0.7,9.2c2.3,0,1.2-4.6,5.2-6.3c3.7-1.6,1.4-5,22.7-4.4c4.6,0.1,6.9,2.2,8.7,1.2
			c0.3-0.1,1.4-1.3,2.8-3c2.6-3,4.8-3.7,7.1-10.5C124.5,100.1,120.9,99.4,118.6,95z"/>
		<linearGradient id="SVGID_6_" gradientUnits="userSpaceOnUse" x1="119.5429" y1="27.8196" x2="178.5453" y2="145.3243">
			<stop  offset="0" style="stop-color:#F69453"/>
			<stop  offset="0.5" style="stop-color:#F37521"/>
			<stop  offset="1" style="stop-color:#D4622A"/>
		</linearGradient>
		<path class="st5" d="M137.6,72.8c2,1.4,9.8,7,11.3,5.5c0.5-1,2.3-0.9,3.1-0.3c2.9,0.9,2.1,1.4,1.7,3c-0.4,1.6-2.7,4-5.2,2.9
			c-2.3-0.9-9.6-3.9-12-4.8C137.5,75.8,137.4,74.1,137.6,72.8z"/>
	</g>
</g>
</svg>
