<?xml version="1.0" encoding="utf-8"?>
<!-- Generator: Adobe Illustrator 21.1.0, SVG Export Plug-In . SVG Version: 6.00 Build 0)  -->
<svg version="1.1" id="Layer_1" xmlns="http://www.w3.org/2000/svg" xmlns:xlink="http://www.w3.org/1999/xlink" x="0px" y="0px"
	 viewBox="0 0 107.2 143.2" style="enable-background:new 0 0 107.2 143.2;" xml:space="preserve">
<style type="text/css">
	.st0{fill:#F16752;}
	.st1{fill:#D85656;}
</style>
<g shape-rendering="auto">
	<g>
		<rect x="16" y="130.5" color-rendering="auto" image-rendering="auto" class="st0" width="16.5" height="6"/>
		<path class="st0" d="M34,137.9H14.6V129H34V137.9z M17.5,135h13.6v-3.1H17.5V135z"/>
	</g>
	<g>
		
			<rect x="24.6" y="111.9" color-rendering="auto" image-rendering="auto" transform="matrix(0.3981 -0.9174 0.9174 0.3981 -101.0408 100.3252)" class="st0" width="2.6" height="30.4"/>
		
			<rect x="23.2" y="110.5" transform="matrix(0.3981 -0.9174 0.9174 0.3981 -101.0408 100.3253)" class="st0" width="5.5" height="33.3"/>
	</g>
	<g>
		<path color-rendering="auto" image-rendering="auto" class="st0" d="M67.9,99.5l-0.1,0.5H7.4v6h59.1l-6.8,31.9l15.1-0.1l15.1,0.1
			l-7.6-35.2l-0.7-3.2L67.9,99.5L67.9,99.5z M74.8,102.6c2.9,0,5.3,2.2,5.3,5s-2.4,5-5.3,5c-2.9,0-5.3-2.2-5.3-5
			S71.9,102.6,74.8,102.6z"/>
		<path class="st0" d="M92.1,139.8l-17.4-0.1l-17.4,0.1l6.8-31.9H5.5v-9.7h61.7l-0.1-0.4l3.4-1.5l-0.3,1.3h12.8l1,4.7L92.1,139.8z
			 M67.8,108.9L62,136l12.7-0.1l0,0l12.7,0.1l-5.7-26.5c-0.9,2.9-3.6,5-6.9,5C71.4,114.5,68.4,112.1,67.8,108.9z M74.8,104.5
			c-1.9,0-3.4,1.4-3.4,3.1c0,1.7,1.5,3.1,3.4,3.1c1.9,0,3.4-1.4,3.4-3.1C78.2,105.9,76.7,104.5,74.8,104.5z M9.3,104.1h59.4
			c0.7-1.2,1.8-2.1,3.1-2.7h-2.4l-0.1,0.5h-60V104.1z M77.8,101.4c1,0.4,1.9,1.1,2.6,1.9l-0.4-1.9H77.8z"/>
	</g>
	<g>
		<path color-rendering="auto" image-rendering="auto" class="st0" d="M70.6,30.9c-5.9,0-11.6,1.9-16.6,5.4c1-0.2,2-0.3,3-0.3
			c12.5,0,22.6,14.3,22.6,31.9l0,0c0,13.7-6.2,25.9-15.5,30.2c2.1,0.5,4.3,0.8,6.4,0.8c13,0,24.5-9.1,28.9-22.7
			c-0.5,0.1-1,0.1-1.4,0.1c-6.6,0-12-5.2-12-11.7c0,0,0,0,0,0c0-6.4,5.4-11.7,12-11.7c0,0,0,0,0,0c0.4,0,0.8,0,1.2,0.1
			C94.8,39.8,83.4,31,70.6,30.9L70.6,30.9z"/>
		<path class="st0" d="M70.6,100.4c-2.3,0-4.6-0.3-6.8-0.8l-4.4-1.1l4.1-1.9C72.2,92.6,78,81,78,67.9c0-16.7-9.4-30.3-21-30.3
			c-0.9,0-1.8,0.1-2.7,0.3L53.1,35c5.2-3.7,11.3-5.7,17.5-5.7h0c6.6,0,13,2.2,18.4,6.4c5.4,4.2,9.5,10,11.8,16.8l0.8,2.4l-2.5-0.3
			c-0.4,0-0.7-0.1-1.1-0.1c-5.7,0-10.4,4.5-10.4,10.1c0,5.6,4.7,10.1,10.4,10.1c0.4,0,0.8,0,1.2-0.1l2.5-0.3l-0.8,2.4
			C96.5,90.9,84.2,100.4,70.6,100.4z M68.7,97.2c0.6,0,1.3,0.1,1.9,0.1c11.6,0,22-7.7,26.6-19.4c-7.1-0.4-12.7-6.2-12.7-13.2
			c0-7,5.5-12.7,12.5-13.2c-4.7-11.4-15-18.9-26.4-18.9v0c-3.6,0-7.1,0.7-10.4,2.2c5.4,0.9,10.3,4.3,14.2,9.7
			c4.5,6.3,6.9,14.6,6.9,23.5C81.2,80.2,76.3,91.4,68.7,97.2z"/>
	</g>
	<g transform="matrix(1.0745 -.946 .946 1.0745 -321.15 209.59)">
		<g>
			
				<rect x="251.3" y="80.5" color-rendering="auto" image-rendering="auto" transform="matrix(-1 2.540969e-06 -2.540969e-06 -1 553.9592 179.4753)" class="st0" width="51.3" height="18.5"/>
			<path class="st0" d="M250.6,99.7l0-19.9l52.7,0l0,19.9H250.6z M252,81.2l0,17.1l49.9,0l0-17.1L252,81.2z"/>
		</g>
		<g transform="translate(-5.7143)">
			<g>
				
					<rect x="311.1" y="85.8" color-rendering="auto" image-rendering="auto" transform="matrix(-1 2.540969e-06 -2.540969e-06 -1 625.473 178.0889)" class="st1" width="3.2" height="6.5"/>
				<path class="st1" d="M310.4,93l0-7.9l4.6,0l0,7.9L310.4,93z M311.8,86.5v5.1l1.8,0l0-5.1L311.8,86.5z"/>
			</g>
			<g>
				
					<rect x="314.8" y="80" color-rendering="auto" image-rendering="auto" transform="matrix(-1 2.540969e-06 -2.540969e-06 -1 631.4793 178.0905)" class="st1" width="1.8" height="18"/>
				<path class="st1" d="M314.1,98.8V79.3l3.3,0v19.4L314.1,98.8z M315.5,80.7l0,16.6h0.4l0-16.6H315.5z"/>
			</g>
		</g>
		<g>
			
				<rect x="241.5" y="86.6" color-rendering="auto" image-rendering="auto" transform="matrix(-1 2.540969e-06 -2.540969e-06 -1 500.2746 179.5428)" class="st0" width="17.4" height="6.3"/>
			<path class="st0" d="M241.2,93.1l0-6.7l17.8,0v6.7H241.2z M241.7,86.9l0,5.8l16.9,0v-5.8L241.7,86.9z"/>
		</g>
	</g>
	<g>
		<ellipse color-rendering="auto" image-rendering="auto" class="st1" cx="98.3" cy="65" rx="4.9" ry="4.8"/>
		<path class="st1" d="M98.3,70.4c-3,0-5.5-2.4-5.5-5.4c0-3,2.5-5.4,5.5-5.4s5.5,2.4,5.5,5.4C103.8,68,101.3,70.4,98.3,70.4z
			 M98.3,60.8c-2.4,0-4.4,1.9-4.4,4.3c0,2.3,2,4.3,4.4,4.3s4.4-1.9,4.4-4.3C102.7,62.7,100.7,60.8,98.3,60.8z"/>
	</g>
	<g>
		<rect x="1.4" y="138.4" color-rendering="auto" image-rendering="auto" class="st1" width="95.3" height="3.3"/>
		<path class="st1" d="M98.2,143.2H0V137h98.2V143.2z M2.9,140.3h92.4v-0.4H2.9V140.3z"/>
	</g>
</g>
</svg>
