<svg xmlns="http://www.w3.org/2000/svg" width="80" height="81" fill="none" viewBox="0 0 80 81">
    <circle cx="40" cy="40" r="40" fill="#A4E7F8"/>
    <path fill="#90DFF3" d="M35.5 79.5l-15-52 16.907 14.82 1.251-14.468 20.792 5.174 13.182 29.983C69 69 60.13 76.627 46.5 79.5c-4.483.806-8.341.778-11 0z"/>
    <path fill="#708795" d="M56.07 36.424c3.116-7.197-.325-15.582-7.685-18.728-7.361-3.146-15.854.139-18.97 7.336 0 0 10.186 11.432 26.656 11.392z"/>
    <path fill="#F28888" d="M18.254 50.811a.82.82 0 0 1-.27-1.328l8.162-8.429a.834.834 0 0 1 1.172-.022.82.82 0 0 1 .023 1.165l-8.162 8.428a.835.835 0 0 1-.925.186zM46.433 62.854a.825.825 0 0 1-.5-.794l.545-11.684a.828.828 0 1 1 1.656.077l-.546 11.683a.827.827 0 0 1-1.155.718zM25.85 58.28a.82.82 0 0 1-.384-1.182l6.234-10.289a.835.835 0 0 1 1.138-.28.82.82 0 0 1 .282 1.13l-6.233 10.29a.831.831 0 0 1-1.036.332zM35.75 62.511a.821.821 0 0 1-.47-.976l3.233-11.573a.83.83 0 0 1 1.02-.573c.438.121.7.575.577 1.013l-3.232 11.572a.83.83 0 0 1-1.128.537z"/>
    <path fill="#CFE9F1" d="M35.37 25.499a.82.82 0 0 1-.349-1.235c2.512-3.5 7.4-4.86 11.372-3.168.421.18.616.664.435 1.082a.832.832 0 0 1-1.089.432c-3.27-1.395-7.299-.272-9.368 2.61a.832.832 0 0 1-1.002.279z"/>
    <path fill="#233540" d="M57.416 30.523l-.22-.094c.068 2-.28 4.041-1.125 5.995-16.47.039-26.656-11.392-26.656-11.392a13.925 13.925 0 0 1 3.606-4.935l-.106-.045c-6-.625-11.027 1.52-12.354 4.584-2.164 4.999 5.275 13.014 16.632 17.868 11.357 4.854 22.33 4.708 24.494-.292 1.253-2.893-.191-7.982-4.271-11.689z"/>
    <path fill="#77959E" d="M39.646 39.965c1.472.63 2.959.462 3.32-.374.362-.835-.538-2.023-2.01-2.652-1.472-.63-2.959-.462-3.32.374-.363.836.537 2.023 2.01 2.652zM27.754 32.034c1.054.866 2.379 1.002 2.96.304.58-.698.198-1.966-.856-2.832-1.054-.865-2.379-1.001-2.96-.303-.58.698-.197 1.965.856 2.831zM54.29 39.21c-1.358-.165-2.547.43-2.658 1.33-.11.898.9 1.76 2.257 1.925 1.357.165 2.547-.43 2.657-1.33.11-.898-.9-1.76-2.257-1.925z"/>
</svg>
