<?xml version="1.0" encoding="utf-8"?>
<!-- Generator: Adobe Illustrator 23.0.1, SVG Export Plug-In . SVG Version: 6.00 Build 0)  -->
<svg version="1.1" id="Layer_1" xmlns="http://www.w3.org/2000/svg" xmlns:xlink="http://www.w3.org/1999/xlink" x="0px" y="0px"
	 viewBox="0 0 567 525" style="enable-background:new 0 0 567 525;" xml:space="preserve">
<style type="text/css">
	.st0{fill:#3D67B1;}
</style>
<g>
	<g>
		<g>
			<path class="st0" d="M467.5,0H27.4C12.3,0,0,12.3,0,27.4v320.9c0,15,12.3,27.4,27.4,27.4h175.5v27.8h-47.4L115,444h136.9
				c0.4-52.5,47.1-95.7,97.6-102.2c-12.3-10.4-22.4-23.9-29.3-39h-294V30.5h444v142.3c8.9,4.6,17.4,10.8,24.3,17.7V27.4
				C494.9,12.3,482.6,0,467.5,0z"/>
		</g>
		<g>
			<circle class="st0" cx="163.6" cy="105.7" r="48.6"/>
		</g>
		<g>
			<g>
				<path class="st0" d="M81.4,269.3v-35.1c0-30.5,22-59.8,49.4-59.8h23.5h23.5c27,0,49.4,29.3,49.4,59.8v35.1"/>
				<path class="st0" d="M224.1,226.8c4.2-1.2,11.2-2.3,17.7-4.6c13.9-4.6,24.3-9.3,32-12.7c3.1-1.5,13.5-6.9,34.3-18.1
					c0,0,13.1-6.9,27.4-18.1c2.3-1.9,6.2-4.6,8.5-9.6c1.2-1.9,4.2-8.5,1.9-16.6c-2.3-8.9-9.3-13.1-10.4-13.5
					c-1.2-0.8-7.3-4.2-14.7-3.1c-1.5,0.4-3.1,0.8-9.6,3.9c-6.9,3.5-12.3,6.2-12.7,6.6c-8.5,4.6-15,7.7-20.8,10
					c-3.9,1.5-11.6,5-21.6,8.5c-2.3,0.8-10.4,3.5-21.2,6.6c-6.6,1.9-14.3,3.9-24.3,5.4c-8.5,1.5-26.6,2.7-32,3.1"/>
			</g>
		</g>
		<g>
			<g>
				<circle class="st0" cx="420.5" cy="265" r="83.7"/>
			</g>
			<g>
				<path class="st0" d="M273.5,525v-61.3c0-53.6,44.7-104.9,99.1-104.9h95.3c54.4,0,99.1,51.3,99.1,104.9V525"/>
			</g>
		</g>
	</g>
</g>
</svg>
