<?xml version="1.0" encoding="utf-8"?>
<!-- Generator: Adobe Illustrator 23.0.1, SVG Export Plug-In . SVG Version: 6.00 Build 0)  -->
<svg version="1.1" id="Layer_1" xmlns="http://www.w3.org/2000/svg" xmlns:xlink="http://www.w3.org/1999/xlink" x="0px" y="0px"
	 viewBox="0 0 266.6 525" style="enable-background:new 0 0 266.6 525;" xml:space="preserve">
<style type="text/css">
	.st0{fill:#E4156E;}
	.st1{fill:#999999;}
</style>
<g>
	<path class="st0" d="M160.5,277.4c1.7,0,3.5,0.1,5.4,0.2c11.6,1,25,10.1,26.7,27.7v5.8c-1.5,16.8-16.2,37.6-59.2,63.6
		c-43-26-57.7-46.8-59.2-63.6v-5.8c1.6-17.6,15.1-26.7,26.7-27.7c1.9-0.2,3.7-0.2,5.4-0.2c13.4,0,19.8,5,27.2,12.6
		C140.7,282.4,147.1,277.4,160.5,277.4"/>
	<circle class="st1" cx="130.1" cy="70.6" r="70.6"/>
	<path class="st1" d="M84.5,406.9c0.5,20.7,3.2,44.5,7.7,65.1c2.9,13.3,5.5,26.5,10.6,40.2c3.4,12.8,8.9,12.8,15.1,12.8h31.3
		c3.1,0,5.9-1.5,7.9-3.9c3.2-3.8,2.9-4.7,3.3-5.5c8.6-15,12-32,14.9-45.9c4.3-21.1,7-41.3,7-62.9H84.5z"/>
	<path class="st1" d="M0,437.6c0-50.1,7.2-97,19.1-146c7.8-32.2,17-71.7,40.5-106.5c1.2-1.7,0.2-3.9,9-12.7c5.5-5.5,13.2-9,21.6-9
		h85.5c16.8,0,31.8,0,41.2,29.7c13.8,31.9,21,62.4,28.9,93.4c12.2,47.9,19.5,103.1,20.9,151.1H0z M132.9,235.5
		c-47.3,0-85.7,38.4-85.7,85.7s38.4,85.7,85.7,85.7s85.7-38.4,85.7-85.7S180.2,235.5,132.9,235.5z"/>
</g>
</svg>
