<?xml version="1.0" encoding="UTF-8"?>
<svg width="195px" height="76px" viewBox="0 0 195 76" version="1.1" xmlns="http://www.w3.org/2000/svg" xmlns:xlink="http://www.w3.org/1999/xlink">
    <!-- Generator: Sketch 41.2 (35397) - http://www.bohemiancoding.com/sketch -->
    <title>Logo</title>
    <desc>Created with Sketch.</desc>
    <defs></defs>
    <g id="Symbols" stroke="none" stroke-width="1" fill="none" fill-rule="evenodd">
        <g id="Header-Area" transform="translate(-231.000000, -37.000000)">
            <g id="Header" transform="translate(231.000000, 37.000000)">
                <g id="Logo">
                    <path d="M39.6146639,0.455423512 L39.5889092,0.530538346 L16.3691922,68.9519574 C22.5098526,73.1697692 29.9621639,75.6481034 38.0022347,75.6481034 C58.9886498,75.6481034 76.0023998,58.807813 76.0023998,38.03105 C76.0023998,17.7928376 59.8523526,1.29261248 39.6146639,0.455423512" id="Fill-1" fill="#003D6A"></path>
                    <path d="M0,38.0308679 C0,49.2534793 4.97020047,59.3211432 12.8433255,66.213043 L35.1666863,0.53035625 C15.5047995,1.96800864 0,18.202828 0,38.0308679" id="Fill-4" fill="#003D6A"></path>
                    <polygon id="Fill-12" fill="#FEFEFE" points="27.9176533 50.440931 37.2095873 50.440931 40.3056722 40.0190892 48.9077476 50.440931 52.3919929 50.440931 61.3348585 39.8948083 64.2846934 50.440931 73.690684 50.440931 67.9289858 31.6786113 58.8486085 31.6786113 50.9589269 41.4886085 43.2407901 31.6786113 33.9865684 31.6786113"></polygon>
                    <path d="M89.2994682,43.4215181 L93.3254823,37.5630163 L97.2682535,43.4424592 L89.2994682,43.4215181 Z M98.7785837,31.6785657 L88.1216498,31.6785657 L73.8769917,50.4408855 L84.4065318,50.4408855 L86.7906828,47.2523746 L99.8956946,47.2523746 L102.248572,50.4408855 L112.761096,50.4408855 L98.7785837,31.6785657 Z" id="Fill-14" fill="#003D6A"></path>
                    <polygon id="Fill-16" fill="#003D6A" points="111.227264 50.440931 125.663243 40.3851033 113.691899 31.6786113 126.031167 31.6786113 131.667771 36.3065955 137.150767 31.6786113 149.27388 31.6786113 137.42763 40.3851033 151.133278 50.440931 139.164233 50.440931 131.607524 44.3106501 123.215165 50.440931"></polygon>
                    <polygon id="Fill-18" fill="#003D6A" points="153.288396 31.5955297 162.932618 31.5955297 162.949175 50.4088365 153.286097 50.4088365"></polygon>
                    <path d="M188.963416,36.7305163 L192.680374,33.0512552 C192.680374,33.0512552 188.344383,30.9821829 181.157897,31.2107141 C173.477473,31.457455 169.97989,33.8160608 169.111588,35.7790617 C168.246046,37.740697 168.646164,40.5167592 172.129949,41.6202644 C175.828051,42.792511 178.80732,42.8617077 179.919831,42.9837124 C181.036482,43.1084485 185.493428,43.9674891 183.759584,45.4374636 C182.025739,46.9092591 178.80732,46.543245 178.80732,46.543245 C178.80732,46.543245 174.005904,46.4945342 171.527473,44.6562694 L167.408098,48.6255193 C167.408098,48.6255193 171.418015,50.7888265 177.611105,50.908555 C183.806034,51.0305597 185.87285,50.4683365 188.481435,49.7590704 C190.341294,49.2546629 193.052438,48.0127643 194.167249,45.4374636 C195.279761,42.8617077 193.313204,41.253795 191.686518,40.4106879 C190.352791,39.715079 185.491129,38.8164325 182.768027,38.4476869 C180.045386,38.0793966 178.821117,38.0793966 179.005079,36.6522148 C179.216636,35.0279134 184.999949,35.5027302 184.999949,35.5027302 C184.999949,35.5027302 187.97186,35.9934805 188.963416,36.7305163" id="Fill-20" fill="#003D6A"></path>
                    <path d="M80.8222571,61.8841524 C80.7059009,63.8967747 79.1955708,65.2861715 77.288342,65.2861715 C75.3130472,65.2861715 73.7925991,63.7433583 73.7925991,61.7020558 C73.7925991,60.7528774 74.1609835,59.8810901 74.8673986,59.1909441 C75.5452995,58.5294784 76.3588726,58.2039807 77.3752642,58.2039807 C78.721408,58.2039807 79.8155236,58.8745514 80.4543325,60.0536266 L79.6214434,60.0536266 C78.9826344,59.2483046 78.2661014,58.8554312 77.3366321,58.8554312 C75.7002877,58.8554312 74.509592,60.1974829 74.509592,61.7116159 C74.509592,63.4083006 75.7683538,64.6442811 77.3462901,64.6442811 C78.5760778,64.6442811 79.7088255,63.7916139 80.018342,62.4878025 L76.5428349,62.4878025 L76.5428349,61.8841524 L80.8222571,61.8841524 Z" id="Fill-22" fill="#003D6A"></path>
                    <polygon id="Fill-24" fill="#003D6A" points="81.9999835 65.1522394 81.9999835 58.3377307 82.6774245 58.3377307 82.6774245 64.4912289 85.0983679 64.4912289 85.0983679 65.1522394"></polygon>
                    <path d="M89.0650083,64.6443266 C90.6139705,64.6443266 91.8534163,63.3696506 91.8534163,61.6925412 C91.8534163,60.1779531 90.6139705,58.8554767 89.0167182,58.8554767 C88.3774493,58.8554767 87.7772724,59.0758136 87.2833337,59.4878071 C86.6348667,60.034552 86.2283101,60.8776591 86.2283101,61.7116614 C86.2283101,63.3983308 87.486612,64.6443266 89.0650083,64.6443266 M86.5957748,59.1909897 C87.2644776,58.539084 88.0771309,58.2040263 89.0263762,58.2040263 C89.9944776,58.2040263 90.8172488,58.539084 91.4951498,59.2005497 C92.1923667,59.8811356 92.5506333,60.7342581 92.5506333,61.7021013 C92.5506333,62.6699446 92.2503149,63.4748114 91.64048,64.1362772 C90.943263,64.8933436 90.0528856,65.286217 89.0167182,65.286217 C87.0414233,65.286217 85.5209752,63.7338438 85.5209752,61.7021013 C85.5209752,60.752923 85.8990177,59.8711203 86.5957748,59.1909897" id="Fill-26" fill="#003D6A"></path>
                    <path d="M94.3768267,64.5005158 L95.325612,64.5005158 C96.4197276,64.5005158 96.9619564,64.1076425 96.9619564,63.2258399 C96.9619564,62.3535973 96.4197276,61.9320438 95.325612,61.9320438 L94.3768267,61.9320438 L94.3768267,64.5005158 Z M94.3768267,61.280138 L94.7838432,61.280138 C95.9165908,61.280138 96.5843738,61.0693613 96.5843738,60.1110781 C96.5843738,59.296196 96.032487,58.9898185 94.9576875,58.9898185 L94.3768267,58.9898185 L94.3768267,61.280138 Z M95.0059776,58.3379128 C96.5071097,58.3379128 97.2719328,58.8555223 97.2719328,60.1397583 C97.2719328,60.7625286 97.0300224,61.2036575 96.5360837,61.4813547 C97.2719328,61.7881875 97.6495153,62.3344772 97.6495153,63.139344 C97.6495153,64.5865564 96.8364021,65.1524215 95.2483479,65.1524215 L93.7283597,65.1524215 L93.7283597,58.3379128 L95.0059776,58.3379128 Z" id="Fill-28" fill="#003D6A"></path>
                    <path d="M101.074663,58.9801218 L99.7869269,62.4017163 L102.381715,62.4017163 L101.074663,58.9801218 Z M98.0149104,65.152285 L100.687422,58.3377762 L101.500535,58.3377762 L104.162929,65.152285 L103.437198,65.152285 L102.613967,63.0149265 L99.5546745,63.0149265 L98.7314434,65.152285 L98.0149104,65.152285 Z" id="Fill-30" fill="#003D6A"></path>
                    <polygon id="Fill-32" fill="#003D6A" points="104.915565 65.1522394 104.915565 58.3377307 105.593466 58.3377307 105.593466 64.4912289 108.013949 64.4912289 108.013949 65.1522394"></polygon>
                    <path d="M112.764545,64.5005158 L113.71333,64.5005158 C114.807446,64.5005158 115.349675,64.1076425 115.349675,63.2258399 C115.349675,62.3535973 114.807446,61.9320438 113.71333,61.9320438 L112.764545,61.9320438 L112.764545,64.5005158 Z M112.764545,61.280138 L113.171561,61.280138 C114.304309,61.280138 114.972092,61.0693613 114.972092,60.1110781 C114.972092,59.296196 114.420205,58.9898185 113.345406,58.9898185 L112.764545,58.9898185 L112.764545,61.280138 Z M113.394156,58.3379128 C114.894828,58.3379128 115.659651,58.8555223 115.659651,60.1397583 C115.659651,60.7625286 115.417741,61.2036575 114.923802,61.4813547 C115.659651,61.7881875 116.037233,62.3344772 116.037233,63.139344 C116.037233,64.5865564 115.22412,65.1524215 113.636066,65.1524215 L112.115618,65.1524215 L112.115618,58.3379128 L113.394156,58.3379128 Z" id="Fill-34" fill="#003D6A"></path>
                    <polygon id="Fill-36" fill="#003D6A" points="120.856585 61.3953141 120.856585 62.0658847 117.961479 62.0658847 117.961479 64.4909557 120.856585 64.4909557 120.856585 65.1524215 117.284038 65.1524215 117.284038 58.3379128 120.856585 58.3379128 120.856585 59.0089386 117.961479 59.0089386 117.961479 61.3953141"></polygon>
                    <polygon id="Fill-38" fill="#003D6A" points="126.876842 58.3379128 127.544625 58.3379128 127.544625 65.1524215 126.731512 65.1524215 122.955226 59.1427796 123.03295 65.1524215 122.364708 65.1524215 122.364708 58.3379128 123.178281 58.3379128 126.954106 64.3375394"></polygon>
                    <polygon id="Fill-40" fill="#003D6A" points="132.653947 61.3953141 132.653947 62.0658847 129.758841 62.0658847 129.758841 64.4909557 132.653947 64.4909557 132.653947 65.1524215 129.0814 65.1524215 129.0814 58.3379128 132.653947 58.3379128 132.653947 59.0089386 129.758841 59.0089386 129.758841 61.3953141"></polygon>
                    <polygon id="Fill-42" fill="#003D6A" points="134.181616 58.3379128 137.579858 58.3379128 137.579858 59.0089386 134.849399 59.0089386 134.849399 61.3953141 137.579858 61.3953141 137.579858 62.0658847 134.849399 62.0658847 134.849399 65.1524215 134.181616 65.1524215"></polygon>
                    <polygon id="Fill-44" fill="#003D6A" points="139.097547 65.1523305 139.775448 65.1523305 139.775448 58.3378217 139.097547 58.3378217"></polygon>
                    <polygon id="Fill-46" fill="#003D6A" points="142.088498 65.1522394 142.088498 59.0087565 140.71338 59.0087565 140.71338 58.3377307 144.141057 58.3377307 144.141057 59.0087565 142.766399 59.0087565 142.766399 65.1522394"></polygon>
                    <path d="M145.368867,63.2065831 C145.388183,64.0597056 145.901438,64.5868751 146.627629,64.5868751 C147.441202,64.5868751 147.93468,64.0405854 147.93468,63.2065831 C147.93468,62.2191645 147.276096,62.0662034 146.317652,61.7498106 C145.349551,61.424313 144.894704,60.9545039 144.894704,60.0631412 C144.894704,59.008802 145.620435,58.2134953 146.733867,58.2134953 C147.750718,58.2134953 148.399185,58.8553857 148.467251,60.0153408 L147.828442,60.0153408 C147.760376,59.2678344 147.363478,58.8553857 146.733867,58.8553857 C146.03665,58.8553857 145.572145,59.353875 145.572145,60.0249009 C145.572145,60.3790787 145.697699,60.628551 145.978702,60.8393278 C146.307994,61.07924 146.801933,61.1652806 147.35382,61.3760574 C148.225341,61.7115703 148.612581,62.2004996 148.612581,63.081847 C148.612581,64.3856584 147.8381,65.2861259 146.617971,65.2861259 C145.504539,65.2861259 144.730058,64.4525789 144.710282,63.2065831 L145.368867,63.2065831 Z" id="Fill-47" fill="#003D6A"></path>
                    <polygon id="Fill-48" fill="#003D6A" points="157.284333 58.3379128 157.952116 58.3379128 157.952116 65.1524215 157.139002 65.1524215 153.362717 59.1427796 153.440441 65.1524215 152.772198 65.1524215 152.772198 58.3379128 153.585771 58.3379128 157.361597 64.3375394"></polygon>
                    <polygon id="Fill-49" fill="#003D6A" points="163.061713 61.3953141 163.061713 62.0658847 160.166607 62.0658847 160.166607 64.4909557 163.061713 64.4909557 163.061713 65.1524215 159.488706 65.1524215 159.488706 58.3379128 163.061713 58.3379128 163.061713 59.0089386 160.166607 59.0089386 160.166607 61.3953141"></polygon>
                    <polygon id="Fill-50" fill="#003D6A" points="165.382903 65.1522394 165.382903 59.0087565 164.007785 59.0087565 164.007785 58.3377307 167.435462 58.3377307 167.435462 59.0087565 166.060804 59.0087565 166.060804 65.1522394"></polygon>
                    <polygon id="Fill-51" fill="#003D6A" points="173.368981 63.9254549 175.092708 58.3378217 175.750833 58.3378217 173.621009 65.1523305 173.059005 65.1523305 171.674689 59.5933775 170.290373 65.1523305 169.728368 65.1523305 167.588887 58.3378217 168.25667 58.3378217 169.970738 63.9254549 171.365172 58.3378217 171.984665 58.3378217"></polygon>
                    <path d="M179.678105,64.6443266 C181.227067,64.6443266 182.466513,63.3696506 182.466513,61.6925412 C182.466513,60.1779531 181.227067,58.8554767 179.629815,58.8554767 C178.990546,58.8554767 178.390369,59.0758136 177.89643,59.4878071 C177.247963,60.034552 176.841407,60.8776591 176.841407,61.7116614 C176.841407,63.3983308 178.099709,64.6443266 179.678105,64.6443266 M177.208871,59.1909897 C177.877574,58.539084 178.690228,58.2040263 179.639473,58.2040263 C180.607574,58.2040263 181.430346,58.539084 182.108246,59.2005497 C182.805463,59.8811356 183.16373,60.7342581 183.16373,61.7021013 C183.16373,62.6699446 182.863412,63.4748114 182.253577,64.1362772 C181.55636,64.8933436 180.665982,65.286217 179.629815,65.286217 C177.65452,65.286217 176.134072,63.7338438 176.134072,61.7021013 C176.134072,60.752923 176.512114,59.8711203 177.208871,59.1909897" id="Fill-52" fill="#003D6A"></path>
                    <path d="M184.912751,65.1522394 L184.244968,65.1522394 L184.244968,58.3377307 L186.094249,58.3377307 C186.742716,58.3377307 187.265629,58.3955463 187.749449,58.7310593 C188.301796,59.1143725 188.640746,59.7945032 188.640746,60.5042246 C188.640746,61.5389883 187.943529,62.4207909 186.974968,62.4881667 L188.640746,65.1522394 L187.836831,65.1522394 L185.79393,61.8649412 L186.442857,61.8649412 C187.333235,61.8649412 187.914555,61.2899713 187.914555,60.5137846 C187.914555,60.0344154 187.749449,59.6415421 187.420617,59.3442694 C187.043034,59.0087565 186.558754,59.0087565 185.910287,59.0087565 L184.912751,59.0087565 L184.912751,65.1522394 Z" id="Fill-53" fill="#003D6A"></path>
                    <polygon id="Fill-54" fill="#003D6A" points="190.622848 65.1522394 189.954605 65.1522394 189.954605 58.3377307 190.622848 58.3377307 190.622848 62.1235183 193.808154 58.3377307 194.61161 58.3377307 191.83286 61.6350443 194.56332 65.1522394 193.73089 65.1522394 191.397329 62.1330784 190.622848 63.0531213"></polygon>
                    <path d="M152.685138,22.9674302 C152.685138,20.0333993 155.088145,17.6552181 158.051777,17.6552181 C161.015869,17.6552181 163.418876,20.0333993 163.418876,22.9674302 C163.418876,25.9014611 161.015869,28.2796423 158.051777,28.2796423 C155.088145,28.2796423 152.685138,25.9014611 152.685138,22.9674302" id="Fill-55" fill="#D60A25"></path>
                </g>
            </g>
        </g>
    </g>
</svg>