<svg xmlns="http://www.w3.org/2000/svg" viewBox="0 0 1200 1200"><defs><style>.cls-1{isolation:isolate;}.cls-2{fill:#fff;}.cls-3{fill:#464954;}.cls-4{fill:#737373;mix-blend-mode:hard-light;}</style></defs><title>medal</title><g class="cls-1"><g id="Layer_1" data-name="Layer 1"><rect class="cls-2" width="1200" height="1200"/><circle class="cls-3" cx="600" cy="600" r="434.86"/><path class="cls-4" d="M661.07,345l-41.35,80.79L538.93,345H399.5L530.79,599.55l.23.45,9.48,9.48V633a118.92,118.92,0,0,0-9.24,200.11l185.83,185.83C900.38,967.79,1034.86,799.6,1034.86,600q0-10.63-.51-21.14L800.5,345Z"/><path class="cls-2" d="M659.5,633V600H669l.23-.45L538.93,345H399.5L530.79,599.55l.23.45h9.48v33a119,119,0,1,0,119,0Zm-99.68-33h80v23.86a119,119,0,0,0-80,.13ZM600,815.33A79.33,79.33,0,1,1,679.33,736,79.42,79.42,0,0,1,600,815.33Z"/><polygon class="cls-2" points="800.5 345 661.07 345 605.57 453.44 674.8 588.71 800.5 345"/><polygon class="cls-2" points="616.55 712.75 600 677.49 583.45 712.75 546.45 718.4 573.23 745.84 566.9 784.59 600 766.3 633.1 784.59 626.77 745.84 653.55 718.4 616.55 712.75"/></g></g></svg>