<?xml version="1.0" encoding="utf-8"?>
<!-- Generator: Adobe Illustrator 21.1.0, SVG Export Plug-In . SVG Version: 6.00 Build 0)  -->
<svg version="1.1" id="Layer_1" xmlns="http://www.w3.org/2000/svg" xmlns:xlink="http://www.w3.org/1999/xlink" x="0px" y="0px"
	 viewBox="0 0 800 477.4" style="enable-background:new 0 0 800 477.4;" xml:space="preserve">
<style type="text/css">
	.st0{fill:#8AE588;}
	.st1{fill:#30BB2E;}
	.st2{fill:#8DE58B;}
</style>
<g>
	<rect x="1.5" class="st0" width="798.5" height="412.3"/>
	<path class="st1" d="M776.6,380H24.9V32.3h751.7V380z M45.8,359.1h709.9V53.2H45.8V359.1z"/>
	<path class="st1" d="M136,104.7H47.4c-6.6,0-12-5.4-12-12v-45c0-6.6,5.4-12,12-12H136c6.6,0,12,5.4,12,12v45
		C148,99.3,142.6,104.7,136,104.7z"/>
	<path class="st1" d="M136,371.9H47.4c-6.6,0-12-5.4-12-12v-45c0-6.6,5.4-12,12-12H136c6.6,0,12,5.4,12,12v45
		C148,366.5,142.6,371.9,136,371.9z"/>
	<path class="st1" d="M754.2,111.7h-88.7c-6.6,0-12-5.4-12-12v-45c0-6.6,5.4-12,12-12h88.7c6.6,0,12,5.4,12,12v45
		C766.2,106.3,760.8,111.7,754.2,111.7z"/>
	<path class="st1" d="M754.2,369.5h-88.7c-6.6,0-12-5.4-12-12v-45c0-6.6,5.4-12,12-12h88.7c6.6,0,12,5.4,12,12v45
		C766.2,364.1,760.8,369.5,754.2,369.5z"/>
	<rect y="425.8" class="st2" width="800" height="22.5"/>
	<rect y="454.8" class="st2" width="800" height="22.5"/>
	<g>
		<path class="st1" d="M384.8,324.7v-27.5c-19.4-0.9-38.2-6.1-49.3-12.5l8.7-33.9c12.2,6.7,29.3,12.7,48.1,12.7
			c16.5,0,27.8-6.4,27.8-18c0-11-9.3-18-30.7-25.2c-31-10.4-52.1-24.9-52.1-53c0-25.5,18-45.5,49-51.6V88.3h28.4v25.5
			c19.4,0.9,32.4,4.9,42,9.6l-8.4,32.7c-7.5-3.2-20.9-9.9-41.7-9.9c-18.8,0-24.9,8.1-24.9,16.2c0,9.6,10.1,15.6,34.8,24.9
			c34.5,12.2,48.4,28.1,48.4,54.2c0,25.8-18.3,47.8-51.6,53.6v29.6H384.8z"/>
	</g>
</g>
</svg>
