<?xml version="1.0" encoding="utf-8"?>
<!-- Generator: Adobe Illustrator 19.1.0, SVG Export Plug-In . SVG Version: 6.00 Build 0)  -->
<svg version="1.1" id="Layer_1" xmlns="http://www.w3.org/2000/svg" xmlns:xlink="http://www.w3.org/1999/xlink" x="0px" y="0px"
	 viewBox="0 0 800 800" enable-background="new 0 0 800 800" xml:space="preserve">
<g>
	
		<path fill="none" stroke="#FFFFFF" stroke-width="4" stroke-linecap="round" stroke-linejoin="round" stroke-miterlimit="22.9256" d="
		M177.478,740.363h149.149v11.405H177.478V740.363L177.478,740.363z M25.83,361.601h452.444c6.534,0,11.88,5.346,11.88,11.881
		v291.117c0,6.535-5.346,11.881-11.88,11.881H297.13v18.479c0,21.755-3.083,17.006,14.78,29.082l14.78,9.993H177.414
		c4.927-3.331,9.853-6.662,14.78-9.993c17.863-12.077,14.78-7.327,14.78-29.082V676.48H25.83c-6.535,0-11.881-5.347-11.881-11.881
		V373.482C13.949,366.947,19.296,361.601,25.83,361.601L25.83,361.601z M252.052,369.446c2.38,0,4.31,1.929,4.31,4.31
		c0,2.38-1.929,4.31-4.31,4.31c-2.38,0-4.31-1.929-4.31-4.31C247.743,371.375,249.672,369.446,252.052,369.446L252.052,369.446z"/>
	<path fill-rule="evenodd" clip-rule="evenodd" fill="#707070" d="M177.478,740.363h149.149v11.405H177.478V740.363L177.478,740.363
		z M25.83,361.601h452.444c6.534,0,11.88,5.346,11.88,11.881v291.117c0,6.535-5.346,11.881-11.88,11.881H297.13v18.479
		c0,21.755-3.083,17.006,14.78,29.082l14.78,9.993H177.414c4.927-3.331,9.853-6.662,14.78-9.993
		c17.863-12.077,14.78-7.327,14.78-29.082V676.48H25.83c-6.535,0-11.881-5.347-11.881-11.881V373.482
		C13.949,366.947,19.296,361.601,25.83,361.601L25.83,361.601z M252.052,369.446c2.38,0,4.31,1.929,4.31,4.31
		c0,2.38-1.929,4.31-4.31,4.31c-2.38,0-4.31-1.929-4.31-4.31C247.743,371.375,249.672,369.446,252.052,369.446L252.052,369.446z"/>
	<polygon fill-rule="evenodd" clip-rule="evenodd" fill="#F0F2ED" points="36.099,383.357 468.005,383.357 468.005,647.768 
		36.099,647.768 36.099,383.357 	"/>
	<polygon fill="none" stroke="#F0F2ED" stroke-width="2.800000e-004" stroke-miterlimit="22.9256" points="36.099,383.357 
		468.005,383.357 468.005,647.768 36.099,647.768 36.099,383.357 	"/>
	<path fill-rule="evenodd" clip-rule="evenodd" fill="#47DEE5" d="M122.686,434.509h259.221c2.24,0,4.072,1.832,4.072,4.072v70.438
		c0,2.239-1.832,4.072-4.072,4.072H122.686c-2.24,0-4.072-1.832-4.072-4.072V438.58
		C118.614,436.341,120.447,434.509,122.686,434.509L122.686,434.509z"/>
	<path fill="none" stroke="#47DEE5" stroke-width="2.800000e-004" stroke-miterlimit="22.9256" d="M122.686,434.509h259.221
		c2.24,0,4.072,1.832,4.072,4.072v70.438c0,2.239-1.832,4.072-4.072,4.072H122.686c-2.24,0-4.072-1.832-4.072-4.072V438.58
		C118.614,436.341,120.447,434.509,122.686,434.509L122.686,434.509z"/>
	<path fill-rule="evenodd" clip-rule="evenodd" fill="#B2B2B2" d="M122.686,520.491h74.798c2.24,0,4.072,1.832,4.072,4.072v41.376
		c0,2.239-1.832,4.072-4.072,4.072h-74.798c-2.24,0-4.072-1.832-4.072-4.072v-41.376
		C118.614,522.323,120.447,520.491,122.686,520.491L122.686,520.491z"/>
	<path fill="none" stroke="#B2B2B2" stroke-width="2.800000e-004" stroke-miterlimit="22.9256" d="M122.686,520.491h74.798
		c2.24,0,4.072,1.832,4.072,4.072v41.376c0,2.239-1.832,4.072-4.072,4.072h-74.798c-2.24,0-4.072-1.832-4.072-4.072v-41.376
		C118.614,522.323,120.447,520.491,122.686,520.491L122.686,520.491z"/>
	<path fill-rule="evenodd" clip-rule="evenodd" fill="#B2B2B2" d="M214.999,520.491h74.798c2.24,0,4.072,1.832,4.072,4.072v41.376
		c0,2.239-1.832,4.072-4.072,4.072h-74.798c-2.24,0-4.072-1.832-4.072-4.072v-41.376
		C210.927,522.323,212.759,520.491,214.999,520.491L214.999,520.491z"/>
	<path fill="none" stroke="#B2B2B2" stroke-width="2.800000e-004" stroke-miterlimit="22.9256" d="M214.999,520.491h74.798
		c2.24,0,4.072,1.832,4.072,4.072v41.376c0,2.239-1.832,4.072-4.072,4.072h-74.798c-2.24,0-4.072-1.832-4.072-4.072v-41.376
		C210.927,522.323,212.759,520.491,214.999,520.491L214.999,520.491z"/>
	<path fill-rule="evenodd" clip-rule="evenodd" fill="#B2B2B2" d="M307.311,520.491h74.798c2.24,0,4.072,1.832,4.072,4.072v41.376
		c0,2.239-1.832,4.072-4.072,4.072h-74.798c-2.24,0-4.072-1.832-4.072-4.072v-41.376
		C303.239,522.323,305.072,520.491,307.311,520.491L307.311,520.491z"/>
	<path fill="none" stroke="#B2B2B2" stroke-width="2.800000e-004" stroke-miterlimit="22.9256" d="M307.311,520.491h74.798
		c2.24,0,4.072,1.832,4.072,4.072v41.376c0,2.239-1.832,4.072-4.072,4.072h-74.798c-2.24,0-4.072-1.832-4.072-4.072v-41.376
		C303.239,522.323,305.072,520.491,307.311,520.491L307.311,520.491z"/>
	<polygon fill-rule="evenodd" clip-rule="evenodd" fill="#B2B2B2" points="210.927,579.857 293.869,579.857 293.869,584.642 
		210.927,584.642 210.927,579.857 	"/>
	<polygon fill="none" stroke="#B2B2B2" stroke-width="2.800000e-004" stroke-miterlimit="22.9256" points="210.927,579.857 
		293.869,579.857 293.869,584.642 210.927,584.642 210.927,579.857 	"/>
	<polygon fill-rule="evenodd" clip-rule="evenodd" fill="#B2B2B2" points="210.927,591.136 293.869,591.136 293.869,595.921 
		210.927,595.921 210.927,591.136 	"/>
	<polygon fill="none" stroke="#B2B2B2" stroke-width="2.800000e-004" stroke-miterlimit="22.9256" points="210.927,591.136 
		293.869,591.136 293.869,595.921 210.927,595.921 210.927,591.136 	"/>
	<polygon fill-rule="evenodd" clip-rule="evenodd" fill="#B2B2B2" points="210.927,602.415 272.207,602.415 272.207,607.2 
		210.927,607.2 210.927,602.415 	"/>
	<polygon fill="none" stroke="#B2B2B2" stroke-width="2.800000e-004" stroke-miterlimit="22.9256" points="210.927,602.415 
		272.207,602.415 272.207,607.2 210.927,607.2 210.927,602.415 	"/>
	<polygon fill-rule="evenodd" clip-rule="evenodd" fill="#B2B2B2" points="210.927,613.694 293.869,613.694 293.869,618.479 
		210.927,618.479 210.927,613.694 	"/>
	<polygon fill="none" stroke="#B2B2B2" stroke-width="2.800000e-004" stroke-miterlimit="22.9256" points="210.927,613.694 
		293.869,613.694 293.869,618.479 210.927,618.479 210.927,613.694 	"/>
	<polygon fill-rule="evenodd" clip-rule="evenodd" fill="#B2B2B2" points="210.927,624.973 256.202,624.973 256.202,629.758 
		210.927,629.758 210.927,624.973 	"/>
	<polygon fill="none" stroke="#B2B2B2" stroke-width="2.800000e-004" stroke-miterlimit="22.9256" points="210.927,624.973 
		256.202,624.973 256.202,629.758 210.927,629.758 210.927,624.973 	"/>
	<polygon fill-rule="evenodd" clip-rule="evenodd" fill="#B2B2B2" points="303.239,579.857 386.182,579.857 386.182,584.642 
		303.239,584.642 303.239,579.857 	"/>
	<polygon fill="none" stroke="#B2B2B2" stroke-width="2.800000e-004" stroke-miterlimit="22.9256" points="303.239,579.857 
		386.182,579.857 386.182,584.642 303.239,584.642 303.239,579.857 	"/>
	<polygon fill-rule="evenodd" clip-rule="evenodd" fill="#B2B2B2" points="303.239,591.136 377.057,591.136 377.057,595.921 
		303.239,595.921 303.239,591.136 	"/>
	<polygon fill="none" stroke="#B2B2B2" stroke-width="2.800000e-004" stroke-miterlimit="22.9256" points="303.239,591.136 
		377.057,591.136 377.057,595.921 303.239,595.921 303.239,591.136 	"/>
	<polygon fill-rule="evenodd" clip-rule="evenodd" fill="#B2B2B2" points="303.239,602.415 386.182,602.415 386.182,607.2 
		303.239,607.2 303.239,602.415 	"/>
	<polygon fill="none" stroke="#B2B2B2" stroke-width="2.800000e-004" stroke-miterlimit="22.9256" points="303.239,602.415 
		386.182,602.415 386.182,607.2 303.239,607.2 303.239,602.415 	"/>
	<polygon fill-rule="evenodd" clip-rule="evenodd" fill="#B2B2B2" points="303.239,613.694 386.182,613.694 386.182,618.479 
		303.239,618.479 303.239,613.694 	"/>
	<polygon fill="none" stroke="#B2B2B2" stroke-width="2.800000e-004" stroke-miterlimit="22.9256" points="303.239,613.694 
		386.182,613.694 386.182,618.479 303.239,618.479 303.239,613.694 	"/>
	<polygon fill-rule="evenodd" clip-rule="evenodd" fill="#B2B2B2" points="303.239,624.973 336.69,624.973 336.69,629.758 
		303.239,629.758 303.239,624.973 	"/>
	<polygon fill="none" stroke="#B2B2B2" stroke-width="2.800000e-004" stroke-miterlimit="22.9256" points="303.239,624.973 
		336.69,624.973 336.69,629.758 303.239,629.758 303.239,624.973 	"/>
	<polygon fill-rule="evenodd" clip-rule="evenodd" fill="#B2B2B2" points="117.921,629.759 200.863,629.759 200.863,624.973 
		117.921,624.973 117.921,629.759 	"/>
	<polygon fill="none" stroke="#B2B2B2" stroke-width="2.800000e-004" stroke-miterlimit="22.9256" points="117.921,629.759 
		200.863,629.759 200.863,624.973 117.921,624.973 117.921,629.759 	"/>
	<polygon fill-rule="evenodd" clip-rule="evenodd" fill="#B2B2B2" points="117.921,618.48 179.201,618.48 179.201,613.694 
		117.921,613.694 117.921,618.48 	"/>
	<polygon fill="none" stroke="#B2B2B2" stroke-width="2.800000e-004" stroke-miterlimit="22.9256" points="117.921,618.48 
		179.201,618.48 179.201,613.694 117.921,613.694 117.921,618.48 	"/>
	<polygon fill-rule="evenodd" clip-rule="evenodd" fill="#B2B2B2" points="117.921,607.201 200.863,607.201 200.863,602.416 
		117.921,602.416 117.921,607.201 	"/>
	<polygon fill="none" stroke="#B2B2B2" stroke-width="2.800000e-004" stroke-miterlimit="22.9256" points="117.921,607.201 
		200.863,607.201 200.863,602.416 117.921,602.416 117.921,607.201 	"/>
	<polygon fill-rule="evenodd" clip-rule="evenodd" fill="#B2B2B2" points="117.921,595.921 194.096,595.921 194.096,591.137 
		117.921,591.137 117.921,595.921 	"/>
	<polygon fill="none" stroke="#B2B2B2" stroke-width="2.800000e-004" stroke-miterlimit="22.9256" points="117.921,595.921 
		194.096,595.921 194.096,591.137 117.921,591.137 117.921,595.921 	"/>
	<polygon fill-rule="evenodd" clip-rule="evenodd" fill="#B2B2B2" points="117.921,584.643 175.096,584.643 175.096,579.858 
		117.921,579.858 117.921,584.643 	"/>
	<polygon fill="none" stroke="#B2B2B2" stroke-width="2.800000e-004" stroke-miterlimit="22.9256" points="117.921,584.643 
		175.096,584.643 175.096,579.858 117.921,579.858 117.921,584.643 	"/>
	<path fill-rule="evenodd" clip-rule="evenodd" fill="#FA7559" d="M122.686,396.535h79.467c2.24,0,4.072,1.832,4.072,4.072v17.606
		c0,2.24-1.832,4.072-4.072,4.072h-79.467c-2.24,0-4.072-1.832-4.072-4.072v-17.606
		C118.614,398.367,120.447,396.535,122.686,396.535L122.686,396.535z"/>
	<path fill="none" stroke="#FA7559" stroke-width="2.800000e-004" stroke-miterlimit="22.9256" d="M122.686,396.535h79.467
		c2.24,0,4.072,1.832,4.072,4.072v17.606c0,2.24-1.832,4.072-4.072,4.072h-79.467c-2.24,0-4.072-1.832-4.072-4.072v-17.606
		C118.614,398.367,120.447,396.535,122.686,396.535L122.686,396.535z"/>
	<path fill="none" stroke="#FFFFFF" stroke-width="4" stroke-linejoin="round" stroke-miterlimit="22.9256" d="M32.218,294.016
		h439.667c2.857,0,5.195,2.341,5.195,5.194v11.899c0,2.854-2.342,5.194-5.195,5.194H32.218c-2.853,0-5.195-2.337-5.195-5.194V299.21
		C27.023,296.352,29.361,294.016,32.218,294.016L32.218,294.016z M69.807,48.503h364.491c6.534,0,11.88,5.363,11.88,11.881v216.194
		c0,6.519-5.363,11.881-11.88,11.881H69.807c-6.518,0-11.881-5.346-11.881-11.881V60.384C57.926,53.849,63.272,48.503,69.807,48.503
		L69.807,48.503z M252.052,56.348c2.38,0,4.31,1.929,4.31,4.31c0,2.38-1.929,4.31-4.31,4.31c-2.38,0-4.31-1.929-4.31-4.31
		C247.743,58.277,249.672,56.348,252.052,56.348L252.052,56.348z"/>
	<path fill-rule="evenodd" clip-rule="evenodd" fill="#707070" d="M32.218,294.016h439.667c2.857,0,5.195,2.341,5.195,5.194v11.899
		c0,2.854-2.342,5.194-5.195,5.194H32.218c-2.853,0-5.195-2.337-5.195-5.194V299.21C27.023,296.352,29.361,294.016,32.218,294.016
		L32.218,294.016z M69.807,48.503h364.491c6.534,0,11.88,5.363,11.88,11.881v216.194c0,6.519-5.363,11.881-11.88,11.881H69.807
		c-6.518,0-11.881-5.346-11.881-11.881V60.384C57.926,53.849,63.272,48.503,69.807,48.503L69.807,48.503z M252.052,56.348
		c2.38,0,4.31,1.929,4.31,4.31c0,2.38-1.929,4.31-4.31,4.31c-2.38,0-4.31-1.929-4.31-4.31
		C247.743,58.277,249.672,56.348,252.052,56.348L252.052,56.348z"/>
	<polygon fill-rule="evenodd" clip-rule="evenodd" fill="#F0F2ED" points="76.781,71.65 427.323,71.65 427.323,269.631 
		76.781,269.631 76.781,71.65 	"/>
	<polygon fill="none" stroke="#F0F2ED" stroke-width="2.800000e-004" stroke-miterlimit="22.9256" points="76.781,71.65 
		427.323,71.65 427.323,269.631 76.781,269.631 76.781,71.65 	"/>
	<path fill-rule="evenodd" clip-rule="evenodd" fill="#47DEE5" d="M135.994,116.319H368.55c2.008,0,3.653,1.643,3.653,3.653v63.193
		c0,2.008-1.644,3.652-3.653,3.652H135.994c-2.009,0-3.652-1.643-3.652-3.652v-63.193
		C132.341,117.963,133.985,116.319,135.994,116.319L135.994,116.319z"/>
	<path fill="none" stroke="#47DEE5" stroke-width="2.800000e-004" stroke-miterlimit="22.9256" d="M135.994,116.319H368.55
		c2.008,0,3.653,1.643,3.653,3.653v63.193c0,2.008-1.644,3.652-3.653,3.652H135.994c-2.009,0-3.652-1.643-3.652-3.652v-63.193
		C132.341,117.963,133.985,116.319,135.994,116.319L135.994,116.319z"/>
	<path fill-rule="evenodd" clip-rule="evenodd" fill="#B2B2B2" d="M135.994,193.456h67.105c2.009,0,3.653,1.644,3.653,3.653v37.121
		c0,2.009-1.643,3.653-3.653,3.653h-67.105c-2.009,0-3.652-1.643-3.652-3.653v-37.121
		C132.341,195.1,133.985,193.456,135.994,193.456L135.994,193.456z"/>
	<path fill="none" stroke="#B2B2B2" stroke-width="2.800000e-004" stroke-miterlimit="22.9256" d="M135.994,193.456h67.105
		c2.009,0,3.653,1.644,3.653,3.653v37.121c0,2.009-1.643,3.653-3.653,3.653h-67.105c-2.009,0-3.652-1.643-3.652-3.653v-37.121
		C132.341,195.1,133.985,193.456,135.994,193.456L135.994,193.456z"/>
	<path fill-rule="evenodd" clip-rule="evenodd" fill="#B2B2B2" d="M218.811,193.456h67.105c2.009,0,3.652,1.644,3.652,3.653v37.121
		c0,2.009-1.643,3.653-3.652,3.653h-67.105c-2.009,0-3.653-1.643-3.653-3.653v-37.121
		C215.158,195.1,216.802,193.456,218.811,193.456L218.811,193.456z"/>
	<path fill="none" stroke="#B2B2B2" stroke-width="2.800000e-004" stroke-miterlimit="22.9256" d="M218.811,193.456h67.105
		c2.009,0,3.652,1.644,3.652,3.653v37.121c0,2.009-1.643,3.653-3.652,3.653h-67.105c-2.009,0-3.653-1.643-3.653-3.653v-37.121
		C215.158,195.1,216.802,193.456,218.811,193.456L218.811,193.456z"/>
	<path fill-rule="evenodd" clip-rule="evenodd" fill="#B2B2B2" d="M301.627,193.456h67.105c2.009,0,3.652,1.644,3.652,3.653v37.121
		c0,2.009-1.643,3.653-3.652,3.653h-67.105c-2.009,0-3.653-1.643-3.653-3.653v-37.121
		C297.974,195.1,299.618,193.456,301.627,193.456L301.627,193.456z"/>
	<path fill="none" stroke="#B2B2B2" stroke-width="2.800000e-004" stroke-miterlimit="22.9256" d="M301.627,193.456h67.105
		c2.009,0,3.652,1.644,3.652,3.653v37.121c0,2.009-1.643,3.653-3.652,3.653h-67.105c-2.009,0-3.653-1.643-3.653-3.653v-37.121
		C297.974,195.1,299.618,193.456,301.627,193.456L301.627,193.456z"/>
	<polygon fill-rule="evenodd" clip-rule="evenodd" fill="#B2B2B2" points="215.158,246.716 289.568,246.716 289.568,251.009 
		215.158,251.009 215.158,246.716 	"/>
	<polygon fill="none" stroke="#B2B2B2" stroke-width="2.800000e-004" stroke-miterlimit="22.9256" points="215.158,246.716 
		289.568,246.716 289.568,251.009 215.158,251.009 215.158,246.716 	"/>
	<polygon fill-rule="evenodd" clip-rule="evenodd" fill="#B2B2B2" points="215.158,256.834 289.568,256.834 289.568,261.128 
		215.158,261.128 215.158,256.834 	"/>
	<polygon fill="none" stroke="#B2B2B2" stroke-width="2.800000e-004" stroke-miterlimit="22.9256" points="215.158,256.834 
		289.568,256.834 289.568,261.128 215.158,261.128 215.158,256.834 	"/>
	<polygon fill-rule="evenodd" clip-rule="evenodd" fill="#B2B2B2" points="297.974,246.716 372.384,246.716 372.384,251.009 
		297.974,251.009 297.974,246.716 	"/>
	<polygon fill="none" stroke="#B2B2B2" stroke-width="2.800000e-004" stroke-miterlimit="22.9256" points="297.974,246.716 
		372.384,246.716 372.384,251.009 297.974,251.009 297.974,246.716 	"/>
	<polygon fill-rule="evenodd" clip-rule="evenodd" fill="#B2B2B2" points="297.974,256.834 364.199,256.834 364.199,261.128 
		297.974,261.128 297.974,256.834 	"/>
	<polygon fill="none" stroke="#B2B2B2" stroke-width="2.800000e-004" stroke-miterlimit="22.9256" points="297.974,256.834 
		364.199,256.834 364.199,261.128 297.974,261.128 297.974,256.834 	"/>
	<polygon fill-rule="evenodd" clip-rule="evenodd" fill="#B2B2B2" points="131.72,261.128 200.059,261.128 200.059,256.835 
		131.72,256.835 131.72,261.128 	"/>
	<polygon fill="none" stroke="#B2B2B2" stroke-width="2.800000e-004" stroke-miterlimit="22.9256" points="131.72,261.128 
		200.059,261.128 200.059,256.835 131.72,256.835 131.72,261.128 	"/>
	<polygon fill-rule="evenodd" clip-rule="evenodd" fill="#B2B2B2" points="131.72,251.009 183.014,251.009 183.014,246.716 
		131.72,246.716 131.72,251.009 	"/>
	<polygon fill="none" stroke="#B2B2B2" stroke-width="2.800000e-004" stroke-miterlimit="22.9256" points="131.72,251.009 
		183.014,251.009 183.014,246.716 131.72,246.716 131.72,251.009 	"/>
	<path fill-rule="evenodd" clip-rule="evenodd" fill="#FA7559" d="M135.994,82.252h71.293c2.009,0,3.653,1.644,3.653,3.653V101.7
		c0,2.009-1.643,3.652-3.653,3.652h-71.293c-2.008,0-3.652-1.643-3.652-3.652V85.905C132.341,83.896,133.986,82.252,135.994,82.252
		L135.994,82.252z"/>
	<path fill="none" stroke="#FA7559" stroke-width="2.800000e-004" stroke-miterlimit="22.9256" d="M135.994,82.252h71.293
		c2.009,0,3.653,1.644,3.653,3.653V101.7c0,2.009-1.643,3.652-3.653,3.652h-71.293c-2.008,0-3.652-1.643-3.652-3.652V85.905
		C132.341,83.896,133.986,82.252,135.994,82.252L135.994,82.252z"/>
	
		<path fill="none" stroke="#FFFFFF" stroke-width="4" stroke-linecap="round" stroke-linejoin="round" stroke-miterlimit="22.9256" d="
		M576.746,47.615h-74.571c-6.534,0-11.88,5.433-11.88,11.881v146.157c0,6.448,5.433,11.881,11.88,11.881h74.571
		c6.448,0,11.881-5.346,11.881-11.881V59.496C588.627,52.961,583.281,47.615,576.746,47.615L576.746,47.615z"/>
	<path fill-rule="evenodd" clip-rule="evenodd" fill="#707070" d="M576.746,47.615h-74.571c-6.534,0-11.88,5.433-11.88,11.881
		v146.157c0,6.448,5.433,11.881,11.88,11.881h74.571c6.448,0,11.881-5.346,11.881-11.881V59.496
		C588.627,52.961,583.281,47.615,576.746,47.615L576.746,47.615z"/>
	<polygon fill-rule="evenodd" clip-rule="evenodd" fill="#F0F2ED" points="583.781,69.408 495.49,69.408 495.49,186.57 
		583.781,186.57 583.781,69.408 	"/>
	<polygon fill="none" stroke="#F0F2ED" stroke-width="2.800000e-004" stroke-miterlimit="22.9256" points="583.781,69.408 
		495.49,69.408 495.49,186.57 583.781,186.57 583.781,69.408 	"/>
	<path fill-rule="evenodd" clip-rule="evenodd" fill="#FFFFFF" d="M541.089,192.017c-4.196,0-7.597,3.401-7.597,7.597
		c0,4.195,3.401,7.596,7.597,7.596c4.196,0,7.597-3.401,7.597-7.596C548.686,195.418,545.285,192.017,541.089,192.017
		L541.089,192.017z"/>
	<path fill="none" stroke="#FFFFFF" stroke-width="2.800000e-004" stroke-miterlimit="22.9256" d="M541.089,192.017
		c-4.196,0-7.597,3.401-7.597,7.597c0,4.195,3.401,7.596,7.597,7.596c4.196,0,7.597-3.401,7.597-7.596
		C548.686,195.418,545.285,192.017,541.089,192.017L541.089,192.017z"/>
	<path fill-rule="evenodd" clip-rule="evenodd" fill="#FFFFFF" d="M556.46,56.513h-33.649c-1.222,0-2.222,1-2.222,2.223v0.001
		c0,1.223,1,2.223,2.222,2.223h33.649c1.223,0,2.223-1,2.223-2.223v-0.001C558.683,57.513,557.683,56.513,556.46,56.513
		L556.46,56.513z"/>
	<path fill="none" stroke="#FFFFFF" stroke-width="2.800000e-004" stroke-miterlimit="22.9256" d="M556.46,56.513h-33.649
		c-1.222,0-2.222,1-2.222,2.223v0.001c0,1.223,1,2.223,2.222,2.223h33.649c1.223,0,2.223-1,2.223-2.223v-0.001
		C558.683,57.513,557.683,56.513,556.46,56.513L556.46,56.513z"/>
	<path fill-rule="evenodd" clip-rule="evenodd" fill="#47DEE5" d="M573.542,102.184H505.38c-1.001,0-1.819,0.819-1.819,1.819v31.472
		c0,1.001,0.818,1.819,1.819,1.819h68.162c1.001,0,1.819-0.818,1.819-1.819v-31.472
		C575.362,103.003,574.543,102.184,573.542,102.184L573.542,102.184z"/>
	<path fill="none" stroke="#47DEE5" stroke-width="2.800000e-004" stroke-miterlimit="22.9256" d="M573.542,102.184H505.38
		c-1.001,0-1.819,0.819-1.819,1.819v31.472c0,1.001,0.818,1.819,1.819,1.819h68.162c1.001,0,1.819-0.818,1.819-1.819v-31.472
		C575.362,103.003,574.543,102.184,573.542,102.184L573.542,102.184z"/>
	<path fill-rule="evenodd" clip-rule="evenodd" fill="#B2B2B2" d="M571.428,141.441h-63.935c-2.041,0-3.71,1.674-3.71,3.71v32.822
		c0,2.036,1.674,3.71,3.71,3.71h63.935c2.036,0,3.71-1.67,3.71-3.71v-32.822C575.138,143.111,573.469,141.441,571.428,141.441
		L571.428,141.441z"/>
	<path fill="none" stroke="#B2B2B2" stroke-width="2.800000e-004" stroke-miterlimit="22.9256" d="M571.428,141.441h-63.935
		c-2.041,0-3.71,1.674-3.71,3.71v32.822c0,2.036,1.674,3.71,3.71,3.71h63.935c2.036,0,3.71-1.67,3.71-3.71v-32.822
		C575.138,143.111,573.469,141.441,571.428,141.441L571.428,141.441z"/>
	<path fill-rule="evenodd" clip-rule="evenodd" fill="#FA7559" d="M571.954,74.817h-64.986c-1.998,0-3.633,1.635-3.633,3.633v15.709
		c0,1.999,1.634,3.633,3.633,3.633h64.986c1.999,0,3.633-1.635,3.633-3.633V78.45C575.587,76.451,573.953,74.817,571.954,74.817
		L571.954,74.817z"/>
	<path fill="none" stroke="#FA7559" stroke-width="2.800000e-004" stroke-miterlimit="22.9256" d="M571.954,74.817h-64.986
		c-1.998,0-3.633,1.635-3.633,3.633v15.709c0,1.999,1.634,3.633,3.633,3.633h64.986c1.999,0,3.633-1.635,3.633-3.633V78.45
		C575.587,76.451,573.953,74.817,571.954,74.817L571.954,74.817z"/>
	
		<path fill="none" stroke="#FFFFFF" stroke-width="4" stroke-linecap="round" stroke-linejoin="round" stroke-miterlimit="22.9256" d="
		M513.52,555.178v185.327c0,6.534,5.367,11.88,11.881,11.88H774.17c6.514,0,11.881-5.367,11.881-11.88V555.178
		c0-6.514-5.346-11.881-11.881-11.881H525.401C518.866,543.297,513.52,548.643,513.52,555.178L513.52,555.178z M520.646,647.841
		c0,2.38,1.929,4.31,4.31,4.31c2.38,0,4.31-1.929,4.31-4.31c0-2.38-1.929-4.31-4.31-4.31
		C522.575,643.532,520.646,645.461,520.646,647.841L520.646,647.841z"/>
	<path fill-rule="evenodd" clip-rule="evenodd" fill="#707070" d="M513.52,555.178v185.327c0,6.534,5.367,11.88,11.881,11.88H774.17
		c6.514,0,11.881-5.367,11.881-11.88V555.178c0-6.514-5.346-11.881-11.881-11.881H525.401
		C518.866,543.297,513.52,548.643,513.52,555.178L513.52,555.178z M520.646,647.841c0,2.38,1.929,4.31,4.31,4.31
		c2.38,0,4.31-1.929,4.31-4.31c0-2.38-1.929-4.31-4.31-4.31C522.575,643.532,520.646,645.461,520.646,647.841L520.646,647.841z"/>
	<polygon fill-rule="evenodd" clip-rule="evenodd" fill="#F0F2ED" points="536.595,565.192 536.595,730.49 762.975,730.49 
		762.975,565.192 536.595,565.192 	"/>
	<polygon fill="none" stroke="#F0F2ED" stroke-width="2.800000e-004" stroke-miterlimit="22.9256" points="536.595,565.192 
		536.595,730.49 762.975,730.49 762.975,565.192 536.595,565.192 	"/>
	<path fill-rule="evenodd" clip-rule="evenodd" fill="#47DEE5" d="M547.317,598.967h204.916c1.77,0,3.218,1.448,3.218,3.218v55.682
		c0,1.771-1.447,3.218-3.218,3.218H547.317c-1.77,0-3.218-1.447-3.218-3.218v-55.682
		C544.099,600.415,545.547,598.967,547.317,598.967L547.317,598.967z"/>
	<path fill="none" stroke="#47DEE5" stroke-width="2.800000e-004" stroke-miterlimit="22.9256" d="M547.317,598.967h204.916
		c1.77,0,3.218,1.448,3.218,3.218v55.682c0,1.771-1.447,3.218-3.218,3.218H547.317c-1.77,0-3.218-1.447-3.218-3.218v-55.682
		C544.099,600.415,545.547,598.967,547.317,598.967L547.317,598.967z"/>
	<path fill-rule="evenodd" clip-rule="evenodd" fill="#B2B2B2" d="M547.318,666.936h59.13c1.771,0,3.219,1.448,3.219,3.219v32.709
		c0,1.771-1.448,3.219-3.219,3.219h-59.13c-1.771,0-3.219-1.448-3.219-3.219v-32.709
		C544.099,668.384,545.547,666.936,547.318,666.936L547.318,666.936z"/>
	<path fill="none" stroke="#B2B2B2" stroke-width="2.800000e-004" stroke-miterlimit="22.9256" d="M547.318,666.936h59.13
		c1.771,0,3.219,1.448,3.219,3.219v32.709c0,1.771-1.448,3.219-3.219,3.219h-59.13c-1.771,0-3.219-1.448-3.219-3.219v-32.709
		C544.099,668.384,545.547,666.936,547.318,666.936L547.318,666.936z"/>
	<path fill-rule="evenodd" clip-rule="evenodd" fill="#B2B2B2" d="M620.29,666.936h59.131c1.77,0,3.218,1.448,3.218,3.219v32.709
		c0,1.771-1.448,3.219-3.218,3.219H620.29c-1.771,0-3.218-1.448-3.218-3.219v-32.709C617.073,668.384,618.52,666.936,620.29,666.936
		L620.29,666.936z"/>
	<path fill="none" stroke="#B2B2B2" stroke-width="2.800000e-004" stroke-miterlimit="22.9256" d="M620.29,666.936h59.131
		c1.77,0,3.218,1.448,3.218,3.219v32.709c0,1.771-1.448,3.219-3.218,3.219H620.29c-1.771,0-3.218-1.448-3.218-3.219v-32.709
		C617.073,668.384,618.52,666.936,620.29,666.936L620.29,666.936z"/>
	<path fill-rule="evenodd" clip-rule="evenodd" fill="#B2B2B2" d="M693.264,666.936h59.13c1.771,0,3.218,1.448,3.218,3.219v32.709
		c0,1.771-1.448,3.219-3.218,3.219h-59.13c-1.771,0-3.219-1.448-3.219-3.219v-32.709
		C690.045,668.384,691.493,666.936,693.264,666.936L693.264,666.936z"/>
	<path fill="none" stroke="#B2B2B2" stroke-width="2.800000e-004" stroke-miterlimit="22.9256" d="M693.264,666.936h59.13
		c1.771,0,3.218,1.448,3.218,3.219v32.709c0,1.771-1.448,3.219-3.218,3.219h-59.13c-1.771,0-3.219-1.448-3.219-3.219v-32.709
		C690.045,668.384,691.493,666.936,693.264,666.936L693.264,666.936z"/>
	<polygon fill-rule="evenodd" clip-rule="evenodd" fill="#B2B2B2" points="617.073,713.865 682.638,713.865 682.638,717.648 
		617.073,717.648 617.073,713.865 	"/>
	<polygon fill="none" stroke="#B2B2B2" stroke-width="2.800000e-004" stroke-miterlimit="22.9256" points="617.073,713.865 
		682.638,713.865 682.638,717.648 617.073,717.648 617.073,713.865 	"/>
	<polygon fill-rule="evenodd" clip-rule="evenodd" fill="#B2B2B2" points="617.073,722.782 682.638,722.782 682.638,726.563 
		617.073,726.563 617.073,722.782 	"/>
	<polygon fill="none" stroke="#B2B2B2" stroke-width="2.800000e-004" stroke-miterlimit="22.9256" points="617.073,722.782 
		682.638,722.782 682.638,726.563 617.073,726.563 617.073,722.782 	"/>
	<polygon fill-rule="evenodd" clip-rule="evenodd" fill="#B2B2B2" points="690.046,713.865 755.612,713.865 755.612,717.648 
		690.046,717.648 690.046,713.865 	"/>
	<polygon fill="none" stroke="#B2B2B2" stroke-width="2.800000e-004" stroke-miterlimit="22.9256" points="690.046,713.865 
		755.612,713.865 755.612,717.648 690.046,717.648 690.046,713.865 	"/>
	<polygon fill-rule="evenodd" clip-rule="evenodd" fill="#B2B2B2" points="690.046,722.782 748.399,722.782 748.399,726.563 
		690.046,726.563 690.046,722.782 	"/>
	<polygon fill="none" stroke="#B2B2B2" stroke-width="2.800000e-004" stroke-miterlimit="22.9256" points="690.046,722.782 
		748.399,722.782 748.399,726.563 690.046,726.563 690.046,722.782 	"/>
	<polygon fill-rule="evenodd" clip-rule="evenodd" fill="#B2B2B2" points="543.551,726.564 603.768,726.564 603.768,722.782 
		543.551,722.782 543.551,726.564 	"/>
	<polygon fill="none" stroke="#B2B2B2" stroke-width="2.800000e-004" stroke-miterlimit="22.9256" points="543.551,726.564 
		603.768,726.564 603.768,722.782 543.551,722.782 543.551,726.564 	"/>
	<polygon fill-rule="evenodd" clip-rule="evenodd" fill="#B2B2B2" points="543.551,717.648 588.748,717.648 588.748,713.866 
		543.551,713.866 543.551,717.648 	"/>
	<polygon fill="none" stroke="#B2B2B2" stroke-width="2.800000e-004" stroke-miterlimit="22.9256" points="543.551,717.648 
		588.748,717.648 588.748,713.866 543.551,713.866 543.551,717.648 	"/>
	<path fill-rule="evenodd" clip-rule="evenodd" fill="#FA7559" d="M547.318,568.948h62.82c1.77,0,3.218,1.448,3.218,3.218v13.919
		c0,1.77-1.448,3.218-3.218,3.218h-62.82c-1.771,0-3.219-1.448-3.219-3.218v-13.919
		C544.099,570.396,545.547,568.948,547.318,568.948L547.318,568.948z"/>
	<path fill="none" stroke="#FA7559" stroke-width="2.800000e-004" stroke-miterlimit="22.9256" d="M547.318,568.948h62.82
		c1.77,0,3.218,1.448,3.218,3.218v13.919c0,1.77-1.448,3.218-3.218,3.218h-62.82c-1.771,0-3.219-1.448-3.219-3.218v-13.919
		C544.099,570.396,545.547,568.948,547.318,568.948L547.318,568.948z"/>
	
		<path fill="none" stroke="#FFFFFF" stroke-width="4" stroke-linecap="round" stroke-linejoin="round" stroke-miterlimit="22.9256" d="
		M616.132,205.653v-74.571c0-6.534,5.433-11.88,11.881-11.88H774.17c6.448,0,11.881,5.433,11.881,11.88v74.571
		c0,6.448-5.346,11.881-11.881,11.881H628.013C621.478,217.534,616.132,212.187,616.132,205.653L616.132,205.653z"/>
	<path fill-rule="evenodd" clip-rule="evenodd" fill="#707070" d="M616.132,205.653v-74.571c0-6.534,5.433-11.88,11.881-11.88
		H774.17c6.448,0,11.881,5.433,11.881,11.88v74.571c0,6.448-5.346,11.881-11.881,11.881H628.013
		C621.478,217.534,616.132,212.187,616.132,205.653L616.132,205.653z"/>
	<polygon fill-rule="evenodd" clip-rule="evenodd" fill="#F0F2ED" points="637.926,212.688 637.926,124.397 755.087,124.397 
		755.087,212.688 637.926,212.688 	"/>
	<polygon fill="none" stroke="#F0F2ED" stroke-width="2.800000e-004" stroke-miterlimit="22.9256" points="637.926,212.688 
		637.926,124.397 755.087,124.397 755.087,212.688 637.926,212.688 	"/>
	<path fill-rule="evenodd" clip-rule="evenodd" fill="#FFFFFF" d="M760.534,169.996c0-4.196,3.401-7.597,7.596-7.597
		c4.196,0,7.597,3.401,7.597,7.597c0,4.196-3.401,7.597-7.597,7.597C763.935,177.592,760.534,174.192,760.534,169.996
		L760.534,169.996z"/>
	<path fill="none" stroke="#FFFFFF" stroke-width="2.800000e-004" stroke-miterlimit="22.9256" d="M760.534,169.996
		c0-4.196,3.401-7.597,7.596-7.597c4.196,0,7.597,3.401,7.597,7.597c0,4.196-3.401,7.597-7.597,7.597
		C763.935,177.592,760.534,174.192,760.534,169.996L760.534,169.996z"/>
	<path fill-rule="evenodd" clip-rule="evenodd" fill="#FFFFFF" d="M625.03,185.367v-33.649c0-1.222,1-2.222,2.223-2.222h0.001
		c1.223,0,2.223,1,2.223,2.222v33.649c0,1.223-1,2.223-2.223,2.223h-0.001C626.03,187.59,625.03,186.59,625.03,185.367
		L625.03,185.367z"/>
	<path fill="none" stroke="#FFFFFF" stroke-width="2.800000e-004" stroke-miterlimit="22.9256" d="M625.03,185.367v-33.649
		c0-1.222,1-2.222,2.223-2.222h0.001c1.223,0,2.223,1,2.223,2.222v33.649c0,1.223-1,2.223-2.223,2.223h-0.001
		C626.03,187.59,625.03,186.59,625.03,185.367L625.03,185.367z"/>
	<path fill-rule="evenodd" clip-rule="evenodd" fill="#47DEE5" d="M644.269,157.613h104.39c1.533,0,2.786,1.257,2.786,2.786v44.127
		c0,1.529-1.257,2.786-2.786,2.786h-104.39c-1.529,0-2.786-1.253-2.786-2.786v-44.127
		C641.483,158.867,642.736,157.613,644.269,157.613L644.269,157.613z"/>
	<path fill="none" stroke="#47DEE5" stroke-width="2.800000e-004" stroke-miterlimit="22.9256" d="M644.269,157.613h104.39
		c1.533,0,2.786,1.257,2.786,2.786v44.127c0,1.529-1.257,2.786-2.786,2.786h-104.39c-1.529,0-2.786-1.253-2.786-2.786v-44.127
		C641.483,158.867,642.736,157.613,644.269,157.613L644.269,157.613z"/>
	<path fill-rule="evenodd" clip-rule="evenodd" fill="#FA7559" d="M644.89,130.246h64.986c1.999,0,3.633,1.635,3.633,3.633v15.709
		c0,1.999-1.634,3.633-3.633,3.633H644.89c-1.998,0-3.633-1.634-3.633-3.633v-15.709C641.257,131.88,642.892,130.246,644.89,130.246
		L644.89,130.246z"/>
	<path fill="none" stroke="#FA7559" stroke-width="2.800000e-004" stroke-miterlimit="22.9256" d="M644.89,130.246h64.986
		c1.999,0,3.633,1.635,3.633,3.633v15.709c0,1.999-1.634,3.633-3.633,3.633H644.89c-1.998,0-3.633-1.634-3.633-3.633v-15.709
		C641.257,131.88,642.892,130.246,644.89,130.246L644.89,130.246z"/>
	
		<path fill="none" stroke="#FFFFFF" stroke-width="4" stroke-linecap="round" stroke-linejoin="round" stroke-miterlimit="22.9256" d="
		M774.17,243.593H588.843c-6.534,0-11.88,5.367-11.88,11.881v248.769c0,6.514,5.367,11.881,11.88,11.881H774.17
		c6.514,0,11.881-5.346,11.881-11.881V255.474C786.051,248.94,780.705,243.593,774.17,243.593L774.17,243.593z M681.506,250.719
		c-2.38,0-4.31,1.929-4.31,4.31c0,2.38,1.929,4.31,4.31,4.31c2.38,0,4.31-1.929,4.31-4.31
		C685.816,252.648,683.887,250.719,681.506,250.719L681.506,250.719z"/>
	<path fill-rule="evenodd" clip-rule="evenodd" fill="#707070" d="M774.17,243.593H588.843c-6.534,0-11.88,5.367-11.88,11.881
		v248.769c0,6.514,5.367,11.881,11.88,11.881H774.17c6.514,0,11.881-5.346,11.881-11.881V255.474
		C786.051,248.94,780.705,243.593,774.17,243.593L774.17,243.593z M681.506,250.719c-2.38,0-4.31,1.929-4.31,4.31
		c0,2.38,1.929,4.31,4.31,4.31c2.38,0,4.31-1.929,4.31-4.31C685.816,252.648,683.887,250.719,681.506,250.719L681.506,250.719z"/>
	<polygon fill-rule="evenodd" clip-rule="evenodd" fill="#F0F2ED" points="764.156,266.668 598.857,266.668 598.857,493.049 
		764.156,493.049 764.156,266.668 	"/>
	<polygon fill="none" stroke="#F0F2ED" stroke-width="2.800000e-004" stroke-miterlimit="22.9256" points="764.156,266.668 
		598.857,266.668 598.857,493.049 764.156,493.049 764.156,266.668 	"/>
	<path fill-rule="evenodd" clip-rule="evenodd" fill="#47DEE5" d="M613.733,310.433h136.12c1.998,0,3.633,1.635,3.633,3.633v62.849
		c0,1.999-1.634,3.633-3.633,3.633h-136.12c-1.998,0-3.633-1.634-3.633-3.633v-62.849
		C610.1,312.067,611.734,310.433,613.733,310.433L613.733,310.433z"/>
	<path fill="none" stroke="#47DEE5" stroke-width="2.800000e-004" stroke-miterlimit="22.9256" d="M613.733,310.433h136.12
		c1.998,0,3.633,1.635,3.633,3.633v62.849c0,1.999-1.634,3.633-3.633,3.633h-136.12c-1.998,0-3.633-1.634-3.633-3.633v-62.849
		C610.1,312.067,611.734,310.433,613.733,310.433L613.733,310.433z"/>
	<path fill-rule="evenodd" clip-rule="evenodd" fill="#B2B2B2" d="M613.733,387.151h61.136c1.998,0,3.633,1.634,3.633,3.633v36.919
		c0,1.999-1.635,3.633-3.633,3.633h-61.136c-1.998,0-3.633-1.635-3.633-3.633v-36.919
		C610.1,388.786,611.734,387.151,613.733,387.151L613.733,387.151z"/>
	<path fill="none" stroke="#B2B2B2" stroke-width="2.800000e-004" stroke-miterlimit="22.9256" d="M613.733,387.151h61.136
		c1.998,0,3.633,1.634,3.633,3.633v36.919c0,1.999-1.635,3.633-3.633,3.633h-61.136c-1.998,0-3.633-1.635-3.633-3.633v-36.919
		C610.1,388.786,611.734,387.151,613.733,387.151L613.733,387.151z"/>
	<path fill-rule="evenodd" clip-rule="evenodd" fill="#B2B2B2" d="M688.717,387.151h61.136c1.998,0,3.633,1.634,3.633,3.633v36.919
		c0,1.999-1.634,3.633-3.633,3.633h-61.136c-1.998,0-3.633-1.635-3.633-3.633v-36.919
		C685.084,388.786,686.718,387.151,688.717,387.151L688.717,387.151z"/>
	<path fill="none" stroke="#B2B2B2" stroke-width="2.800000e-004" stroke-miterlimit="22.9256" d="M688.717,387.151h61.136
		c1.998,0,3.633,1.634,3.633,3.633v36.919c0,1.999-1.634,3.633-3.633,3.633h-61.136c-1.998,0-3.633-1.635-3.633-3.633v-36.919
		C685.084,388.786,686.718,387.151,688.717,387.151L688.717,387.151z"/>
	<polygon fill-rule="evenodd" clip-rule="evenodd" fill="#B2B2B2" points="685.084,440.121 753.485,440.121 753.485,444.391 
		685.084,444.391 685.084,440.121 	"/>
	<polygon fill="none" stroke="#B2B2B2" stroke-width="2.800000e-004" stroke-miterlimit="22.9256" points="685.084,440.121 
		753.485,440.121 753.485,444.391 685.084,444.391 685.084,440.121 	"/>
	<polygon fill-rule="evenodd" clip-rule="evenodd" fill="#B2B2B2" points="685.084,450.185 753.485,450.185 753.485,454.454 
		685.084,454.454 685.084,450.185 	"/>
	<polygon fill="none" stroke="#B2B2B2" stroke-width="2.800000e-004" stroke-miterlimit="22.9256" points="685.084,450.185 
		753.485,450.185 753.485,454.454 685.084,454.454 685.084,450.185 	"/>
	<polygon fill-rule="evenodd" clip-rule="evenodd" fill="#B2B2B2" points="685.084,460.249 735.62,460.249 735.62,464.519 
		685.084,464.519 685.084,460.249 	"/>
	<polygon fill="none" stroke="#B2B2B2" stroke-width="2.800000e-004" stroke-miterlimit="22.9256" points="685.084,460.249 
		735.62,460.249 735.62,464.519 685.084,464.519 685.084,460.249 	"/>
	<polygon fill-rule="evenodd" clip-rule="evenodd" fill="#B2B2B2" points="685.084,470.313 753.485,470.313 753.485,474.583 
		685.084,474.583 685.084,470.313 	"/>
	<polygon fill="none" stroke="#B2B2B2" stroke-width="2.800000e-004" stroke-miterlimit="22.9256" points="685.084,470.313 
		753.485,470.313 753.485,474.583 685.084,474.583 685.084,470.313 	"/>
	<polygon fill-rule="evenodd" clip-rule="evenodd" fill="#B2B2B2" points="685.084,480.377 722.422,480.377 722.422,484.646 
		685.084,484.646 685.084,480.377 	"/>
	<polygon fill="none" stroke="#B2B2B2" stroke-width="2.800000e-004" stroke-miterlimit="22.9256" points="685.084,480.377 
		722.422,480.377 722.422,484.646 685.084,484.646 685.084,480.377 	"/>
	<polygon fill-rule="evenodd" clip-rule="evenodd" fill="#B2B2B2" points="609.528,484.647 677.93,484.647 677.93,480.378 
		609.528,480.378 609.528,484.647 	"/>
	<polygon fill="none" stroke="#B2B2B2" stroke-width="2.800000e-004" stroke-miterlimit="22.9256" points="609.528,484.647 
		677.93,484.647 677.93,480.378 609.528,480.378 609.528,484.647 	"/>
	<polygon fill-rule="evenodd" clip-rule="evenodd" fill="#B2B2B2" points="609.528,474.583 660.065,474.583 660.065,470.314 
		609.528,470.314 609.528,474.583 	"/>
	<polygon fill="none" stroke="#B2B2B2" stroke-width="2.800000e-004" stroke-miterlimit="22.9256" points="609.528,474.583 
		660.065,474.583 660.065,470.314 609.528,470.314 609.528,474.583 	"/>
	<polygon fill-rule="evenodd" clip-rule="evenodd" fill="#B2B2B2" points="609.528,464.519 677.93,464.519 677.93,460.25 
		609.528,460.25 609.528,464.519 	"/>
	<polygon fill="none" stroke="#B2B2B2" stroke-width="2.800000e-004" stroke-miterlimit="22.9256" points="609.528,464.519 
		677.93,464.519 677.93,460.25 609.528,460.25 609.528,464.519 	"/>
	<polygon fill-rule="evenodd" clip-rule="evenodd" fill="#B2B2B2" points="609.528,454.455 672.349,454.455 672.349,450.186 
		609.528,450.186 609.528,454.455 	"/>
	<polygon fill="none" stroke="#B2B2B2" stroke-width="2.800000e-004" stroke-miterlimit="22.9256" points="609.528,454.455 
		672.349,454.455 672.349,450.186 609.528,450.186 609.528,454.455 	"/>
	<polygon fill-rule="evenodd" clip-rule="evenodd" fill="#B2B2B2" points="609.528,444.392 656.68,444.392 656.68,440.122 
		609.528,440.122 609.528,444.392 	"/>
	<polygon fill="none" stroke="#B2B2B2" stroke-width="2.800000e-004" stroke-miterlimit="22.9256" points="609.528,444.392 
		656.68,444.392 656.68,440.122 609.528,440.122 609.528,444.392 	"/>
	<path fill-rule="evenodd" clip-rule="evenodd" fill="#FA7559" d="M613.733,276.55h64.986c1.999,0,3.633,1.634,3.633,3.633v15.71
		c0,1.998-1.634,3.633-3.633,3.633h-64.986c-1.998,0-3.633-1.634-3.633-3.633v-15.71C610.1,278.185,611.734,276.55,613.733,276.55
		L613.733,276.55z"/>
	<path fill="none" stroke="#FA7559" stroke-width="2.800000e-004" stroke-miterlimit="22.9256" d="M613.733,276.55h64.986
		c1.999,0,3.633,1.634,3.633,3.633v15.71c0,1.998-1.634,3.633-3.633,3.633h-64.986c-1.998,0-3.633-1.634-3.633-3.633v-15.71
		C610.1,278.185,611.734,276.55,613.733,276.55L613.733,276.55z"/>
</g>
</svg>
