<svg xmlns="http://www.w3.org/2000/svg" width="87" height="161" fill="none" viewBox="0 0 87 161">
    <path fill="#EFEAE4" d="M2.181 151.485c2.172-1.494 5.424-2.414 8.713-3.132 5.754-1.236 12.32-7.071 18.531-7.215v-.172l16.893-.489v-.201c5.194-.23 10.516-.316 15.685-.259 3.633.029 7.354.201 10.606 1.064 2.693.718 5.118 2.328 3.937 3.822-.927 1.15-3.569 1.581-5.919 1.725-2.35.144-4.89.144-6.77.891-.558.23-1.066.604-.774.949.19.229.648.344 1.08.431 6.604 1.351 14.377.776 20.6 2.558.826.23 1.652.546 2.02 1.006.864 1.034-1.016 2.127-2.794 2.759-9.056 3.248-20.246 4.225-31.08 4.915-14.784.977-30.101 1.581-44.34-.776-2.946-.489-6.032-1.179-7.594-2.587-1.791-1.61-.953-3.794 1.206-5.289z"/>
    <path fill="#3B314A" d="M78.256 35.26l-.154-.373c-.003-.011-.009-.023-.014-.037l-.012-.028v.002c-.031-.054-.074-.1-.137-.13l-5.131-2.504c-.345-.168-.756-.13-1.064.097l-8.113 6.01c-.108.08-.145.205-.123.322h-.005l.011.029.017.042.148.385.049-.208 5.086 2.48c.345.169.755.131 1.063-.097l8.114-6.01c.02-.014.034-.03.05-.048l.215.069z"/>
    <path fill="#262030" d="M68.973 41.76l-5.131-2.503c-.217-.105-.246-.405-.052-.55l8.114-6.01c.308-.228.718-.265 1.063-.097l5.132 2.503c.216.106.245.405.05.55l-8.113 6.01c-.308.226-.718.266-1.063.097z"/>
    <path fill="#FFAE8E" d="M70.966 44.78s-10.298 11.164-16.86 13.346c-.716.236-1.5.03-1.999-.53-4.932-5.529-4.88-20.319-4.88-20.319h11.888l-.87 9.784 12.433-5.944c.325-1.813 1.36-2.463 1.36-2.463-.525-.579-1.56-1.956-1.16-2.953.436.054.67.453.67.453-.417-.853-.255-1.414-.2-1.431.96.325 3.281 1.956 3.281 1.956 0-.146.091-.924.091-.924-1.485-.887-1.197-2.52-1.106-2.9 1.431 1.506 3.099 3.444 3.099 3.444s-.852 4.168-.944 4.368c-.09.2-4.803 4.114-4.803 4.114z"/>
    <path fill="#FFC8BD" d="M70.966 44.78s-10.298 11.164-16.86 13.346c-.716.236-1.5.03-1.999-.53-4.932-5.529-4.88-20.319-4.88-20.319h11.888l-.87 9.784 12.433-5.944c.325-1.813 1.36-2.463 1.36-2.463-.525-.579-1.56-1.956-1.16-2.953.436.054.67.453.67.453-.417-.853-.255-1.414-.2-1.431.96.325 3.281 1.956 3.281 1.956 0-.146.091-.924.091-.924-1.485-.887-1.197-2.52-1.106-2.9 1.431 1.506 3.099 3.444 3.099 3.444s-.852 4.168-.944 4.368c-.09.2-4.803 4.114-4.803 4.114z"/>
    <path fill="#0D587D" d="M54.382 62.167L51.37 144.48l1.588 2.22-5.157 1.429-4.678.316 1.268-3.806-6.66-47.264 7.296-41.395 9.356 6.187z"/>
    <path fill="#1275A6" d="M27.738 62.483l-3.173 85.961 7.06-.316L45.341 67.56l1.745-.795.317-6.82-19.666 2.538z"/>
    <path fill="#FC4D4D" d="M53.188 19.719c2.916 1.268 6.688 5.308 7.23 12.703-1.198.054-6.452 1.594-6.452 1.269 0-.325-.852-13.79-.852-13.79l.074-.182z"/>
    <path fill="#FC4D4D" d="M56.626 23.38c-.636-1.999-2.3-3.498-4.35-3.937l-4.397-.941-9.06-1.377-8.749 1.87c-2.888.619-5.265 2.688-6.212 5.485-1.878 5.55-1.528 13.91.39 22.545 2.61 11.742 3.479 16.31 3.479 16.31h26.747l-.508-8.99c2.6-5.382 5.311-22.627 2.66-30.965z"/>
    <path d="M24.753 33.559H44.869V57.233H24.753z"/>
    <path fill="#262030" d="M42.697 7.194c.69-2.355.798-6.96 4.857-7.176 4.06-.217 6.161 1.56 7.504 3.008 1.34 1.45 1.813 1.702 2.246 2.175.437.47-1.45 3.224-2.936 3.478-1.485.254-9.93 2.574-9.93 2.574l-1.741-4.06z"/>
    <path fill="#FFAE8E" d="M42.48 9.59l-3.66 7.537c.87 3.66 6.414 7.503 10.802 6.705.253-1.956-1.124-5.653-1.124-5.653l-.216-.545c.216 0 .832.217 1.231.072.4-.146 5.437-6.415 5.545-8.445.108-2.03.183-4.022-.071-3.985-2.5.145-5.183-2.717-5.437-2.828-.253-.108-1.16.399-1.268 1.485-.109 1.086-1.523.254-1.848 1.594-.325 1.34-.69 3.407-2.537 2.32-1.163.109-1.417 1.742-1.417 1.742z"/>
    <path fill="#FFAE8E" d="M44.553 8.291c0 .87-.708 1.577-1.577 1.577-.87 0-1.577-.707-1.577-1.577s.707-1.576 1.577-1.576c.872 0 1.577.707 1.577 1.576z"/>
    <path fill="#FFC8BD" d="M43.176 7.414l-.029-.002c-.054-.009-.105-.017-.162-.017-.593 0-1.075.481-1.075 1.074h.217c0-.353.216-.658.521-.787-.074.106-.12.234-.12.374 0 .356.291.644.645.644v-.216c-.237 0-.428-.191-.428-.428 0-.225.177-.41.4-.425.393.077.692.422.692.841h.217c.002-.53-.38-.966-.878-1.058z"/>
    <path d="M48.221 8.793H54.995V17.756H48.221z"/>
    <path fill="#FFC8BD" d="M46.32 18.865c.833 1.123 2.643.624 2.218-.564-.028-.08-.045-.123-.045-.123l-.217-.544c-1.36-.237-2.284-1.107-2.284-1.107-.142.562-.236 1.574.328 2.338z"/>
    <path fill="#FFAE8E" d="M26.64 33.616H38.53l1.739 7.25 13.918-5.22 5.074-4.767 4.675.217 3.154 2.446c-.978.598-3.1-.271-3.1-.271s-1.36 3.968-1.522 4.022c-.707.49-4.513.816-5.111.707-1.685 1.577-2.883 1.306-2.883 1.306S44.177 50.47 37.614 52.651c-.715.236-1.499.031-1.998-.53-4.932-5.528-8.974-18.505-8.974-18.505z"/>
    <path d="M60.126 32.809H64.026V37.872H60.126z"/>
    <path fill="#C93E3E" d="M38.66 33.511c.025-.883.003-1.739-.069-2.543 0-.011-.002-.022-.008-.034-.009-.017-.009-.04-.003-.065.003-.012.003-.02.003-.032-.134-1.465-.388-2.357-.49-2.671-.018-.057.014-.12.07-.137.012-.003.024-.006.035-.006.048 0 .088.032.102.075.075.228.263.875.408 1.913.006.048.046.085.094.094h.014c.043 0 .083-.026.1-.069l.325-.79c.017-.04.057-.068.1-.068.014 0 .029.003.04.009.054.022.083.085.06.142l-.625 1.525c-.005.017-.008.035-.008.052.074.826.097 1.705.071 2.611l-.22-.006zM37.839 25.472c-.049 0-.091-.035-.106-.08-.011-.049-1.32-4.758-7.551-5.847-.06-.012-.1-.066-.089-.126.009-.051.054-.09.108-.09 6.383 1.111 7.732 5.957 7.743 6.006.015.057-.02.117-.077.131-.008.003-.02.006-.028.006z"/>
    <path d="M27.968 60.176H47.399V148.30200000000002H27.968z"/>
    <path fill="#FC4D4D" d="M24.565 148.447s-.912 2.002-1.448 3.133c-.536 1.129.237 2.618.536 2.854 1.012.653 6.78.833 7.851.06 1.072-.773 1.429-2.021 1.369-2.914-.06-.892-1.249-3.449-1.249-3.449-2.26-2.737-5.97-2.517-7.059.316z"/>
    <path fill="#C93E3E" d="M30.492 152.35c-.892-.893-3.061-1.161-4.37-.744-1.28.407-1.48.949-3.136.365-.234 1.054.402 2.249.667 2.46 1.012.653 6.78.832 7.852.06 1.071-.773 1.428-2.022 1.368-2.914 0 0-1.488 1.665-2.38.773zM25.403 147.156c-.943 3.024-.91 3.711.659 3.084 1.636-.653 3.837 0 4.43.268.453.203 1-1.334.972-2.56-1.844-2.064-4.544-2.275-6.06-.792z"/>
    <path fill="#FC4D4D" d="M43.438 147.173c-.873 1.109-.573 3.424-1.11 4.679-.475 1.109 0 2.377.793 2.697 0 0 16.259.396 17.924-.08 1.664-.476 3.805-1.269 3.885-1.905.08-.635-.08-1.665-1.268-2.141-1.19-.476-5.63-1.109-6.82-1.744-1.188-.636-4.361-3.49-4.917-3.57-2.061.317-1.269 2.221-3.253 2.458-1.981.239-5.234-.394-5.234-.394z"/>
    <path fill="#C93E3E" d="M43.121 154.547s16.259.397 17.923-.08c1.665-.476 3.806-1.268 3.886-1.904.051-.419 0-1.006-.382-1.497-.054.425-.15.893-.33 1.181-.397.635-4.203 1.032-8.088.635-3.886-.396-9.04-.792-13.799-1.032-.479 1.112-.002 2.381.79 2.697z"/>
    <path fill="#C93E3E" d="M62.95 150.208c-1.709-.442-5.093-.984-6.108-1.525-1.188-.636-4.361-3.49-4.917-3.57-1.984.305-1.326 2.079-3.042 2.424 5.864 5.028 12.099 4.236 14.066 2.671z"/>
    <path fill="#C93E3E" d="M52.352 148.683l-.532-.64-3.798 3.156.532.64 3.798-3.156zM54.538 149.015l-.532-.64-3.798 3.156.532.64 3.798-3.156z"/>
</svg>
