<svg xmlns="http://www.w3.org/2000/svg" width="157" height="171" fill="none" viewBox="0 0 157 171">
    <path fill="#262626" d="M91.542 20.048c-5.465 1.066-10.797-2.533-11.863-7.998C78.612 6.585 82.21 1.254 87.676.187 93.141-.879 98.473 2.72 99.54 8.185c1.067 5.465-2.466 10.796-7.997 11.863zm-3.6-18.861c-4.931.933-8.13 5.731-7.197 10.597.933 4.931 5.732 8.13 10.597 7.197 4.932-.933 8.13-5.731 7.198-10.596-.934-4.932-5.665-8.131-10.597-7.198z"/>
    <path fill="#262626" d="M92.175 19.046l-1.375.265 2.73 14.135 1.374-.265-2.73-14.135z"/>
    <path fill="#262626" d="M92.97 19.422l-3.272.632.278 1.44 3.272-.632-.278-1.44z"/>
    <path fill="#FF6700" d="M93.987 21.626l-3.86.746 2.099 10.862 3.86-.746-2.099-10.862z"/>
    <path fill="#F2501D" d="M93.02 21.83l-1.832.355 2.097 10.863 1.833-.354L93.02 21.83z"/>
    <path fill="#262626" d="M95.904 31.69l-3.86.745.278 1.44 3.86-.746-.278-1.44z"/>
    <path fill="#fff" d="M85.41 12.719c-.733-3.733 1.733-7.331 5.465-8.065 2.466-.466 4.865.4 6.398 2.133-1.466-3.532-5.265-5.598-9.13-4.865-4.466.866-7.398 5.198-6.532 9.664.867 4.332 4.998 7.264 9.33 6.597-2.732-.533-4.998-2.665-5.531-5.464z" opacity=".05"/>
    <path fill="#fff" d="M89.21 7.251c.333 1.8-.867 3.532-2.666 3.932-1.8.333-3.533-.866-3.933-2.666-.333-1.8.867-3.532 2.666-3.932 1.866-.266 3.6.867 3.932 2.666z" opacity=".1"/>
    <path fill="#EFEAE4" d="M3.919 161.955c3.901-1.421 9.743-2.296 15.653-2.979 10.337-1.175 22.134-6.722 33.292-6.858v-.164l30.348-.465v-.191c9.332-.219 18.893-.301 28.18-.246 6.526.027 13.212.191 19.054 1.011 4.837.683 9.195 2.213 7.073 3.634-1.665 1.093-6.412 1.503-10.633 1.64-4.221.136-8.785.136-12.162.847-1.004.218-1.917.574-1.392.902.342.218 1.164.327 1.939.409 11.866 1.285 25.831.738 37.012 2.432 1.483.219 2.966.52 3.628.957 1.551.983-1.826 2.022-5.02 2.623-16.27 3.088-36.373 4.017-55.836 4.672-26.56.93-54.08 1.503-79.659-.737-5.294-.465-10.839-1.121-13.645-2.46-3.218-1.53-1.712-3.606 2.168-5.027z"/>
    <path fill="#E7B29C" d="M94.074 29.838s-4.865-4.266-4.132-5.465c.6-1 4.465-1 4.465-1l1.666 6.398h-2v.067zM55.353 69.357s3.199 3.199 4.598 3.199c.8 0 2.333-1.6 2.133-2.4-.4-1.6-6.331-2.066-6.331-2.066l-.4 1.267z"/>
    <path fill="#061323" d="M92.407 150.729v6.664h10.664l-7.998-2.666-1.333-5.998-1.332 2zM66.416 150.062l2 7.998H61.75l1.999-6.665 2.666-1.333z"/>
    <path fill="#061323" d="M77.08 92.751l-5.332 37.322-3.133 23.992h-6.864l1.999-25.992-2-39.987 15.33 4.665z"/>
    <path fill="#09213D" d="M87.743 84.083l7.33 32.656v36.656h-3.331l-4.666-33.99L76.08 93.213l11.663-9.13z"/>
    <path fill="#E7B29C" d="M79.412 35.43c3.865 0 6.998-3.133 6.998-6.998s-3.133-6.998-6.998-6.998-6.998 3.133-6.998 6.998 3.133 6.998 6.998 6.998z"/>
    <path fill="#E7B29C" d="M72.414 40.764V28.768l11.397 5.065-2.733 6.931h-8.664z"/>
    <path fill="#181626" d="M77.413 21.434c2.466 0 4.532 1.933 5.332 4.599-2.133 1-3.666 3.199-3.666 5.731 0 1.067.267 2.066.733 3-.733.4-1.533.666-2.4.666-3.132 0-5.664-3.133-5.664-6.998s2.532-6.998 5.665-6.998z"/>
    <path fill="#181626" d="M77.08 35.434h-4.666l-.666-7.33 5.332 7.33z"/>
    <path fill="#061323" d="M91.076 98.947H78.479l-4.065-6.998 14.662-12.53 2 19.528z"/>
    <path fill="#CAD1E0" d="M76.746 44.1c3.865 0 6.998-1.194 6.998-2.667 0-1.472-3.133-2.666-6.998-2.666s-6.998 1.194-6.998 2.666c0 1.473 3.133 2.666 6.998 2.666z"/>
    <path fill="#0A2346" d="M59.751 96.737h32.657V40.754H59.75v55.983z"/>
    <path fill="#0A2346" d="M92.408 40.764l11.063 4.465-10.397-16.328 2.666-1.466s16.328 14.862 15.129 19.26c-2 7.465-19.794 9.064-19.794 9.064l1.333-14.995zM59.751 40.765S38.958 48.43 38.425 54.761c-.467 5.665 16.661 15.328 16.661 15.328l2-2s-5.332-6.664-8.665-9.996c-3.265-3.266 13.33-4.265 13.33-4.265l-2-13.063z"/>
    <path fill="#061323" d="M59.751 74.495c2.8-1.867 6.731-3.066 10.997-3.066 7.597 0 13.929 3.665 15.395 8.597-2.533-3.532-7.864-5.931-14.062-5.931-4.999 0-9.464 1.6-12.33 4.065v-3.665z"/>
    <path fill="#181626" d="M80.412 24.77s2-1.333 2-3.332c0-2-2.666-2.666-2.666-2.666l-5.332 4.799 5.998 1.2z"/>
    <path fill="#E7B29C" d="M93.74 27.434c-1.066 0-1.998-.933-1.998-1.999 0-1.133.932-2 1.999-2 1.066 0 2 .867 2 2 0 1.066-.934 2-2 2z"/>
</svg>
