<?xml version="1.0" encoding="utf-8"?>
<!-- Generator: Adobe Illustrator 21.1.0, SVG Export Plug-In . SVG Version: 6.00 Build 0)  -->
<svg version="1.1" id="Layer_1" xmlns="http://www.w3.org/2000/svg" xmlns:xlink="http://www.w3.org/1999/xlink" x="0px" y="0px"
	 viewBox="0 0 749 800" style="enable-background:new 0 0 749 800;" xml:space="preserve">
<style type="text/css">
	.st0{fill:#E55346;}
	.st1{fill:#ED5E53;}
	.st2{fill:#D14C41;}
	.st3{fill:#E37D00;}
	.st4{fill:#FFE226;}
	.st5{fill:#A86700;}
</style>
<g>
	<path class="st0" d="M115.3,464.9c2.7-11.2,12.8-19.5,24.8-19.5c14.1,0,25.5,11.4,25.5,25.5c0,12-8.3,22.1-19.5,24.8
		c2.5,0.5,5,0.8,7.6,0.8c21.6,0,39.2-17.6,39.2-39.2c0-21.7-17.6-39.2-39.2-39.2c-21.6,0-39.2,17.6-39.2,39.2
		C114.6,459.9,114.9,462.5,115.3,464.9z M650.6,488.9l-0.2-0.4l-0.1-0.2l-0.4-0.9l-0.3-1l-0.4-0.9l-0.2-0.5l-0.3-0.9
		c-0.4-1.2-0.7-2.4-0.9-3.7c-0.2-1-0.3-2-0.4-3c-0.2-2-0.2-3.9,0-5.7c0.2-3.8,1-7.1,1.9-10.3c1.4-4.6,3.2-8.7,5.4-12.5
		c-3.6,0.2-7.2,0.9-10.8,1.9c-3.9,1.2-7.8,2.8-11.6,4.7c-3.2,1.7-6.4,3.6-9.4,5.5c3.9,10,6.8,20.2,9.1,30.6
		c-4.3,37.4-23.5,70.6-54.9,91.6c-47.9,35.9-105.7,39.9-161.6,41.9c-101.7,6-207.5,2-301.2-51.9c-32.9-20.6-65.8-10.1-97.4,6.3
		c-13.3-33.1-26.9-86.3-6.3-90.9c20.1-4.5,33.4-8.2,41.7-16.4c3.4-3.4,9.3-32.4,26.6-59.1c22.8-35,65.1-55,65.1-55
		s-1.6-26.4,1.8-53.6c4.9-40.2,25.9-74.9,25.9-74.9s36.8,16.8,55.7,40c28.3,34.6,35,52.1,35,52.1s113.8-27.8,247.1,27
		c46.2,19,78.8,48.7,99.4,83.4c3.2-1.8,6.5-3.6,10.1-5.2c5.3-2.3,11-4.4,17.2-5.9c6.3-1.4,12.9-2.4,19.9-2.2
		c7,0.3,14.3,1.7,21.2,4.3c0,0,0.1,0,0.1,0c0.7-0.5,1.3-1.1,1.9-1.5c7.9-5.8,16.3-9.7,24-12.2c7.7-2.4,14.9-3.2,20.7-3.3
		c5.9-0.1,10.5,0.7,13.5,1.2c3.1,0.7,4.7,1.1,4.7,1.1c4.5,1.1,7.6,5.5,6.8,10.2c-0.8,4.8-5.5,8.1-10.3,7.2l-0.7-0.1
		c0,0-1.2-0.2-3.5-0.6c-2.3-0.3-5.7-0.7-10-0.4c-4.3,0.3-9.5,1.1-15.1,3.2c-4.3,1.6-8.9,3.9-13.4,6.9c5.1,4.7,9.7,9.9,13.3,15.1
		c0.7,1,1.8,2.8,2.8,4.4c1,1.6,1.8,3.3,2.7,5c1.7,3.3,3.1,7,4,11.3c1,4.2,1.2,9.2,0.1,14.3c-1.1,5.1-3.8,10.2-7.5,13.8
		c-3.7,3.7-7.9,6.1-12,7.6c-4.2,1.6-8.2,2.2-12.3,2.4c-8,0.3-15.8-1.4-22.9-5.5c-3.5-2.1-6.9-4.7-9.7-8.1c-1.3-1.7-2.6-3.5-3.6-5.4
		L650.6,488.9z M319.7,358c0.5-0.1,19.9-1,46.8,0.9c27.3,1.9,62.4,6.7,93.2,18.3c10,3.8,19.6,8.2,28.4,13.6c1.3,0.8,2.9,1.2,4.4,1.2
		c2.8,0,5.6-1.4,7.2-4c2.4-4,1.2-9.2-2.8-11.6c-66.6-40.8-173.5-35.5-178-35.2c-4.7,0.2-8.2,4.2-7.9,8.8
		C311.1,354.7,314.9,358.2,319.7,358z M670.8,476c0,0.1,0.1,0.2,0,0.3v0.1l0.2,0.5l0.4,1l0.1,0.2l0,0.1l0,0.1l0.1,0.2
		c0.3,0.5,0.7,0.9,1.1,1.4c0.8,0.8,1.9,1.6,3.2,2.3c2.7,1.4,6.4,2,9.8,1.7c3.4-0.2,6.2-1.8,6.9-2.8c0.4-0.5,0.4-0.7,0.5-1.3
		c0-0.6,0.1-1.5-0.4-2.9c-0.4-1.4-1.1-3.1-2.1-4.9c-0.6-0.9-1-1.9-1.6-2.6c-0.6-0.8-1-1.5-2-2.8c-3-4-6.3-7.1-9.6-10
		c-0.3-0.3-0.7-0.5-1.1-0.8c-0.1,0.2-0.3,0.4-0.4,0.7c-2.1,3.6-3.8,7.4-4.7,11.2c-0.4,1.9-0.7,3.7-0.7,5.3c0,0.8,0,1.6,0.2,2.3
		L670.8,476z"/>
	<path class="st1" d="M581,750.4c2.2-4.3,5.3-11.7,6.9-16.3c-11.6,54.8-12.1,64.8-44.9,64.8c-16.5,0-22.8,0.3-29.4-17.3
		c-1.8-4.8-6.2-16.7-7.7-21.3C532.9,768.5,565.7,779.2,581,750.4z"/>
	<path class="st1" d="M261.8,778c9.4-8.4,19.8-24.3,28-34.1c-7.6,24.8-14.1,55.5-28.3,55.5c-15,0-34.1,4-38.5-8.8
		c-1.7-5-6.5-19.3-8-23.9C231.3,770.6,250.7,786.2,261.8,778z"/>
	<path class="st2" d="M114.2,571.3c93.8,54.4,199.5,58.4,301.2,52.3c55.9-2,113.7-6,161.6-42.3c31.4-21.2,49.5-57.2,53.8-94.9
		c8.2,38.7,6.4,81.6-6,118c-21.6,63.4-31.8,106.3-38.2,135.3c-1.6,4.3-3.4,8.6-5.6,12.8c-15.4,27.6-45.3,24.2-72.4,16.3
		c-11.7-34.8-15.3-62.7-38.6-62.7c-53.2,0-80.3-2.1-138.6-2.1c-25.9,0-36.4,23.2-43.8,46.7c-8.2,9.6-16.3,19.8-25.8,28
		c-11.1,8-27.3,2-43.5-1.8c-15.2-46.9-18.3-72.8-58.6-93c-37.5-18.7-54.3-45.4-71.7-71c-16.8-24.7-46.9,1.4-58.1-9.9
		c-3.1-3.1-9.5-14.7-14.5-27.3C47,559.2,81.3,550.6,114.2,571.3z"/>
	<path class="st3" d="M395,0c63.1,0,114.5,51.3,114.5,114.5c0,63.1-51.4,114.5-114.5,114.5c-63.1,0-114.5-51.4-114.5-114.5
		C280.5,51.3,331.9,0,395,0z M492.7,114.5c0-53.9-43.8-97.7-97.7-97.7c-53.8,0-97.7,43.8-97.7,97.7c0,53.9,43.8,97.7,97.7,97.7
		C448.8,212.2,492.7,168.4,492.7,114.5z"/>
	<path class="st4" d="M395,16.8c53.8,0,97.7,43.8,97.7,97.7c0,53.9-43.8,97.7-97.7,97.7c-53.8,0-97.7-43.8-97.7-97.7
		C297.3,60.6,341.1,16.8,395,16.8z M426.6,75.5c2.7-6-6.2-11.6-6.2-11.6c-5.5-3.2-13-6-19.2-6V50c0,0,0.2-6.3-6.6-6.3
		c-7.8,0-7.1,6.3-7.1,6.3v8.6c-17.4,2.9-28.6,14.8-28.6,30.5c0,16.5,12,25.2,31.3,32.8c14,5.7,20.4,11.8,20.4,22.3
		c0,10.8-6.6,16.8-20.1,16.8c-10.6,0-16.4-2.6-23.3-7.2c0,0-6.3-3.4-10,3.6c-3.1,5.7,4,11.3,4,11.3c6.7,4.7,14,7.2,25,7.4v7.4
		c0,0-0.5,5.7,6.6,5.7c7.4,0,7.1-5.5,7.1-5.5l0-8.2c15.5-2.8,28.2-17.3,28.2-32.3c0-16.9-9.9-27.5-29.4-35.5
		c-16.5-6.8-22.2-10.8-22.2-20.7c0-7.6,5.1-14.3,18.2-14.2c12.1,0,17.4,4.2,21.4,6.4C416.1,79.3,423.3,82.8,426.6,75.5z"/>
	<path class="st5" d="M420.4,63.9c0,0,8.9,5.6,6.2,11.6c-3.3,7.3-10.5,3.8-10.5,3.8c-4-2.3-9.2-6.4-21.4-6.4
		c-13.1,0-18.2,6.6-18.2,14.2c0,9.9,5.7,13.9,22.2,20.7c19.5,8,29.4,18.6,29.4,35.5c0,15-12.6,29.5-28.2,32.3l0,8.2
		c0,0,0.2,5.5-7.1,5.5c-7.1,0-6.6-5.7-6.6-5.7v-7.4c-11-0.2-18.3-2.6-25-7.4c0,0-7.1-5.6-4-11.3c3.8-7,10-3.6,10-3.6
		c6.8,4.6,12.7,7.2,23.3,7.2c13.5,0,20.1-5.9,20.1-16.8c0-10.4-6.3-16.6-20.4-22.3c-19.3-7.6-31.3-16.3-31.3-32.8
		c0-15.8,11.2-27.7,28.6-30.5V50c0,0-0.7-6.3,7.1-6.3c6.8,0,6.6,6.3,6.6,6.3v7.9C407.4,57.9,414.9,60.7,420.4,63.9z"/>
</g>
</svg>
