<?xml version="1.0" encoding="utf-8"?>
<!-- Generator: Adobe Illustrator 19.1.0, SVG Export Plug-In . SVG Version: 6.00 Build 0)  -->
<svg version="1.1" xmlns="http://www.w3.org/2000/svg" xmlns:xlink="http://www.w3.org/1999/xlink" x="0px" y="0px"
	 viewBox="0 0 768 1024" style="enable-background:new 0 0 768 1024;" xml:space="preserve">
<style type="text/css">
	.st0{fill:url(#SVGID_1_);}
	.st1{filter:url(#Adobe_OpacityMaskFilter);}
	.st2{fill:url(#SVGID_3_);}
	.st3{mask:url(#SVGID_2_);fill:#A8A7A8;}
	.st4{fill:#3A3A3A;stroke:#000000;stroke-width:0.1742;stroke-miterlimit:282;}
	.st5{fill:#3A3A3A;}
	.st6{fill:#FC2D3D;}
	.st7{fill-rule:evenodd;clip-rule:evenodd;fill:#FFFFFF;}
</style>
<g id="background">
	
		<radialGradient id="SVGID_1_" cx="381.5315" cy="465.5941" r="459.6631" gradientTransform="matrix(0.9324 0 0 1.0259 21.0015 -21.0488)" gradientUnits="userSpaceOnUse">
		<stop  offset="0" style="stop-color:#FFFFFF"/>
		<stop  offset="0.5149" style="stop-color:#FDFDFD"/>
		<stop  offset="0.7003" style="stop-color:#F6F6F6"/>
		<stop  offset="0.8325" style="stop-color:#EBEBEB"/>
		<stop  offset="0.9387" style="stop-color:#DADADA"/>
		<stop  offset="1" style="stop-color:#CCCCCC"/>
	</radialGradient>
	<rect x="38.1" y="137.1" class="st0" width="677.2" height="639"/>
	<defs>
		<filter id="Adobe_OpacityMaskFilter" filterUnits="userSpaceOnUse" x="108.1" y="620.8" width="524.3" height="79.4">
			<feFlood  style="flood-color:white;flood-opacity:1" result="back"/>
			<feBlend  in="SourceGraphic" in2="back" mode="normal"/>
		</filter>
	</defs>
	<mask maskUnits="userSpaceOnUse" x="108.1" y="620.8" width="524.3" height="79.4" id="SVGID_2_">
		<g class="st1">
			
				<radialGradient id="SVGID_3_" cx="246.4368" cy="660.4481" r="33.2766" gradientTransform="matrix(8.4216 0 0 1.2756 -1704.5179 -181.4647)" gradientUnits="userSpaceOnUse">
				<stop  offset="0" style="stop-color:#FFFFFF"/>
				<stop  offset="0.1169" style="stop-color:#C7C7C7"/>
				<stop  offset="0.2428" style="stop-color:#939393"/>
				<stop  offset="0.3708" style="stop-color:#666666"/>
				<stop  offset="0.4982" style="stop-color:#414141"/>
				<stop  offset="0.6252" style="stop-color:#252525"/>
				<stop  offset="0.7514" style="stop-color:#101010"/>
				<stop  offset="0.8767" style="stop-color:#040404"/>
				<stop  offset="1" style="stop-color:#000000"/>
			</radialGradient>
			<path class="st2" d="M651.1,661c0,23.4-125.4,42.4-280.2,42.4c-154.8,0-280.2-19-280.2-42.4c0-23.4,125.5-42.5,280.2-42.5
				C525.7,618.6,651.1,637.6,651.1,661z"/>
		</g>
	</mask>
	<path class="st3" d="M632.4,660.5c0,21.9-117.4,39.7-262.2,39.7c-144.8,0-262.2-17.8-262.2-39.7c0-21.9,117.4-39.7,262.2-39.7
		C515.1,620.8,632.4,638.6,632.4,660.5z"/>
	<path class="st4" d="M293.3,414.9c-21.2,42.4-32.5,90.4-20.9,115.3c22.4,48.2,177.5,47.4,199.3-1c6.4-41.4-14.4-76.4-24.4-109
		c4.8-25.4,20.9-51.7,11.7-72c-8.5-19-64.1-28.9-91.1-5.8c-46.7-26.3-71.1-7.4-81.8,2.2C277.5,368.3,302.7,396,293.3,414.9
		L293.3,414.9z"/>
	<path class="st5" d="M487.6,518c0,68.9-51.2,124.7-114.4,124.7c-63.2,0-114.4-55.8-114.4-124.7c0-68.9,51.2-124.7,114.4-124.7
		C436.4,393.3,487.6,449.2,487.6,518L487.6,518z"/>
	<path class="st6" d="M359.2,584.5c-23.7-15.5-40.8-33-49.2-50.6c-4.1-8.5-4.6-10.5-5-19.6c-0.4-8.4,0-11.3,2-16.6
		c4.5-11.8,17-21.4,30.1-22.9c11.8-1.4,25.6,4.3,30.8,12.7l2.4,3.9l2-3.2c5.4-8.7,14.8-13.2,27.6-13.2c7.6,0,10,0.5,15.4,3.1
		c8.1,3.9,15.8,12.4,18.5,20.2c3.1,8.8,2.6,21.9-1,30.9c-8.3,20.2-26.2,39.3-53.4,56.8c-4.4,2.9-8.6,5.2-9.2,5.2
		C369.6,591,364.6,588.1,359.2,584.5L359.2,584.5z"/>
	<path class="st7" d="M212.3,493.2c-1.2,1.2-2.2,2.3-2.2,2.4c0,0,1.3,1,3.3,2.5c2.1,1.5,4.9,3.5,8.2,5.6c1.6,1,3.3,2.1,5,3.1
		c1.7,1,3.4,2.1,5.1,3c3.4,1.9,6.5,3.6,8.9,4.7c1.2,0.6,3.1,1.6,5.2,2.6c2.1,1,4.4,2.2,6.3,3.1c0.3,0.2,0.7,0.3,1,0.5
		c3.6,1.7,7.1,3.2,10.4,4.5c3.3,1.3,6.5,2.4,9.3,3.3c1.8,0.6,3.2,1,4.5,1.4c1.2,0.4,2.2,0.8,3.1,1.2c0.9,0.4,1.7,0.9,2.4,1.4
		c0.8,0.5,1.6,1.2,2.5,1.9c1.9,1.6,3.7,2.9,5.7,4.1c2.2,1.4,4.6,2.6,7.5,3.7c2.9,1.2,6.3,2.3,10.5,3.5c1.7,0.5,3,0.8,4.2,1.2
		c1.2,0.3,2.1,0.6,3.2,0.9c1.1,0.3,2.2,0.7,3.6,1.2c1.5,0.5,3.2,1.1,5.5,1.8c0.1,0,0.3,0.1,0.4,0.1c0.8,0.2,2,0.6,3.4,0.9
		c1.4,0.4,3,0.7,4.3,1c2.4,0.5,3.7,0.8,4.4,0.9c0.8,0.1,1.1,0.1,1.6,0c1.8-0.3,2.7-1.2,2.7-2.2c0-1-0.9-2.3-2.6-3.6
		c-0.6-0.4-0.9-0.6-1.4-0.8c-0.5-0.2-1.3-0.4-2.7-0.7c-2.6-0.6-5.7-1.6-8.5-2.6c-1.6-0.6-3-1.3-4.2-1.8c-1.2-0.6-2.3-1.4-2.9-1.9
		c-0.6-0.5-0.6-0.7,0.2-0.4c1.9,0.7,4.5,1.6,7.3,2.3c2,0.5,4.1,1,5.9,1.4c1.8,0.3,3.3,0.6,4.2,0.6c1,0.1,3.5,0.3,5.4,0.5
		c2.2,0.3,3.9,0.4,5.3,0.4c1.4,0,2.4-0.1,3.3-0.3c2-0.5,2.7-0.9,3-1.8c0.6-1.5,0.1-2.8-1.4-3.6c-0.3-0.2-0.6-0.3-2.1-0.6
		c-0.8-0.2-1.8-0.4-3.4-0.7c-1.6-0.3-3.6-0.7-6.3-1.2c-1.9-0.4-3.7-0.8-5.2-1.1c-1.5-0.4-2.8-0.7-3.5-0.9c-1.1-0.3-2.2-0.7-3.1-1
		c-1.7-0.6-2.8-1-2.8-1.1c0,0,1.2,0.2,2.9,0.6c1.4,0.3,3.2,0.7,5.1,1c2.9,0.6,5.4,1,7.5,1.4c2.2,0.4,4.1,0.7,5.8,0.9
		c3.4,0.5,6,0.7,8.9,0.8c2,0.1,2.1,0.1,2.9-0.4c0.9-0.6,1.5-1.6,1.5-2.4c0-0.8-0.9-2.1-2.1-2.9c-1.8-1.3-3.1-1.8-6-2.4
		c-1.4-0.3-3.9-0.9-5.5-1.4c-0.8-0.2-2.4-0.6-4.3-1c-1.9-0.4-4.1-0.9-6.2-1.4c-2.4-0.5-4.2-1-5.4-1.3c-1.5-0.4-2.1-0.6-2.1-0.7
		c0.1-0.5,1.3-1.2,2.2-1.4c0.1,0,0.3-0.1,0.4-0.1c0.6-0.1,1.2-0.2,2.1-0.2c0.9,0,2.1,0,4,0.1c1.9,0.1,4,0.1,4.5,0
		c0.5,0,1.8,0.1,3.3,0.3c1.5,0.2,3.3,0.5,4.8,0.8c3.2,0.6,5.5,0.5,7.2-0.5c0.8-0.5,0.9-0.6,1.1-1.4c0.4-1.9-0.8-3.6-3.2-4.6
		c-0.4-0.2-1.6-0.5-3.2-0.8c-1.6-0.4-3.7-0.8-5.7-1.2c-2.1-0.4-4.2-0.9-5.9-1.2c-1.8-0.3-3.2-0.6-4-0.7c-0.8-0.1-1.7-0.2-2.7-0.3
		c-2.2-0.2-4.5-0.3-6.5-0.3c-3.1,0-5.8-0.7-8-1.8c-2.2-1.2-3.9-2.8-5-5c-0.2-0.4-0.4-0.8-0.6-1.2c0.2-0.3,0.4-0.5,0.6-0.8
		c0.6-0.8,1.3-1.5,2.4-2.2c1.1-0.8,2.5-1.6,4.6-2.8c2.1-1.2,3.7-2.2,4.9-3.1c1.2-0.9,2-1.7,2.5-2.4c0.8-1.2,1.1-2.6,1-3.7
		c-0.1-1.2-0.7-2.1-1.7-2.4c-0.9-0.3-1.8,0-3,0.7c-0.6,0.3-1.8,0.8-2.7,1c-1.6,0.4-3.6,1-5.6,1.7c-2,0.7-3.9,1.4-5.1,2
		c-0.5,0.2-1.6,0.6-2.5,0.9c-0.3,0.1-0.6,0.2-0.9,0.3c-1.2,0.4-2.4,0.8-3.8,1.4c-1.4,0.6-3.1,1.4-5.4,2.5c-2.7,1.2-4.7,2.1-6.4,2.6
		c-1.7,0.6-3.1,0.8-4.5,1c-0.7,0.1-1.2,0.1-1.8,0c-0.5,0-1.1-0.2-1.9-0.4c-1.5-0.4-2.9-0.9-4.5-1.5c-1.6-0.6-3.5-1.5-5.9-2.7
		c-1-0.5-2.4-1.2-3.7-1.9c-1.9-1-3.9-2.1-5.3-2.9c-1.3-0.7-2.6-1.5-3.6-2.1c-1.1-0.7-1.9-1.2-2.3-1.4c-3.9-2.5-7.5-5.3-10.7-8.2
		c-3.2-2.9-6.1-6.1-8.7-9.3c-0.4-0.5-0.9-1-1.2-1.1c-0.2-0.1-0.4-0.2-0.5-0.3c-4.1,3.7-8.2,7.5-12.3,11.2
		C220,486,213.5,492,212.3,493.2L212.3,493.2z"/>
	<path class="st7" d="M526.1,529.3c1.2,1.2,2.2,2.3,2.2,2.4c0,0.1-1.3,1-3.3,2.5c-2.1,1.5-4.9,3.5-8.2,5.6c-1.6,1-3.3,2.1-5,3.1
		c-1.7,1-3.4,2.1-5.1,3c-3.4,1.9-6.5,3.6-8.9,4.7c-1.2,0.6-3.1,1.6-5.2,2.6c-2.1,1-4.4,2.2-6.3,3.1c-0.3,0.2-0.7,0.3-1,0.5
		c-3.6,1.7-7.1,3.2-10.4,4.5c-3.3,1.3-6.5,2.4-9.3,3.3c-1.8,0.6-3.2,1-4.5,1.4c-1.2,0.4-2.2,0.8-3.1,1.2c-0.9,0.4-1.7,0.9-2.4,1.4
		c-0.8,0.5-1.6,1.2-2.5,1.9c-1.9,1.6-3.7,2.9-5.7,4.1c-2.2,1.4-4.6,2.5-7.5,3.7c-2.9,1.2-6.3,2.3-10.5,3.5c-1.7,0.5-3,0.9-4.2,1.2
		c-1.2,0.3-2.1,0.6-3.2,0.9c-1.1,0.3-2.2,0.7-3.6,1.2c-1.5,0.5-3.2,1.1-5.5,1.8c-0.1,0-0.3,0.1-0.4,0.1c-0.8,0.2-2,0.6-3.4,0.9
		c-1.4,0.4-3,0.7-4.3,1c-2.4,0.5-3.7,0.8-4.4,0.9c-0.8,0.1-1.1,0.1-1.6,0c-1.8-0.3-2.7-1.1-2.7-2.2c0-1.1,0.9-2.3,2.6-3.6
		c0.6-0.4,0.9-0.6,1.4-0.8c0.5-0.2,1.3-0.4,2.7-0.7c2.6-0.6,5.7-1.6,8.5-2.6c1.6-0.6,3-1.3,4.2-1.8c1.2-0.6,2.3-1.4,2.9-1.9
		c0.6-0.5,0.6-0.7-0.2-0.4c-1.9,0.7-4.5,1.6-7.3,2.3c-2,0.5-4.1,1-5.9,1.4c-1.8,0.3-3.3,0.6-4.2,0.6c-1,0.1-3.5,0.3-5.4,0.5
		c-2.2,0.3-3.9,0.4-5.3,0.4c-1.4,0-2.4-0.1-3.3-0.3c-1.9-0.5-2.7-0.9-3-1.8c-0.6-1.5-0.1-2.8,1.4-3.6c0.3-0.2,0.6-0.3,2.1-0.6
		c0.8-0.2,1.8-0.4,3.4-0.7c1.6-0.3,3.6-0.7,6.3-1.2c1.8-0.4,3.7-0.8,5.2-1.1c1.5-0.4,2.8-0.7,3.5-0.9c1.1-0.4,2.2-0.7,3.1-1
		c1.7-0.6,2.9-1,2.8-1.1c0,0-1.2,0.2-2.9,0.6c-1.4,0.3-3.2,0.7-5.1,1c-2.9,0.6-5.4,1-7.5,1.4c-2.2,0.4-4.1,0.7-5.8,0.9
		c-3.4,0.5-6,0.7-8.9,0.8c-2,0.1-2.1,0.1-2.9-0.4c-0.9-0.6-1.5-1.6-1.5-2.4c0-0.8,0.9-2.1,2.1-2.9c1.8-1.3,3.1-1.8,6-2.4
		c1.4-0.3,3.9-0.9,5.5-1.4c0.8-0.2,2.4-0.6,4.3-1c1.9-0.4,4.1-0.9,6.2-1.4c2.4-0.5,4.2-1,5.4-1.3c1.5-0.4,2.1-0.6,2.1-0.7
		c-0.1-0.5-1.3-1.2-2.2-1.4c-0.1,0-0.3-0.1-0.4-0.1c-0.6-0.1-1.2-0.2-2.1-0.2c-0.9,0-2.1,0-4,0.1c-1.9,0.1-4,0.1-4.5,0
		c-0.5,0-1.8,0.1-3.3,0.3c-1.5,0.2-3.3,0.5-4.8,0.8c-3.2,0.6-5.5,0.5-7.2-0.5c-0.8-0.5-0.9-0.6-1.1-1.4c-0.4-1.9,0.8-3.6,3.2-4.6
		c0.4-0.2,1.6-0.5,3.2-0.8c1.6-0.4,3.7-0.8,5.7-1.2c2.1-0.4,4.2-0.8,5.9-1.2c1.8-0.3,3.2-0.6,4-0.7c0.8-0.1,1.7-0.2,2.7-0.2
		c2.2-0.2,4.5-0.3,6.5-0.3c3.1,0,5.8-0.7,8-1.8c2.2-1.2,3.9-2.8,5-5c0.2-0.4,0.4-0.8,0.6-1.2c-0.2-0.3-0.4-0.5-0.6-0.8
		c-0.6-0.8-1.3-1.5-2.4-2.2c-1.1-0.8-2.5-1.6-4.6-2.8c-2.1-1.2-3.7-2.2-4.9-3.1c-1.2-0.9-2-1.7-2.5-2.4c-0.8-1.2-1.1-2.6-1-3.7
		c0.1-1.2,0.7-2.1,1.7-2.4c0.9-0.3,1.8,0,3,0.7c0.6,0.3,1.8,0.8,2.7,1c1.6,0.4,3.6,1,5.6,1.7c2,0.7,3.9,1.4,5.1,2
		c0.5,0.2,1.6,0.6,2.5,0.9c0.3,0.1,0.6,0.2,0.9,0.3c1.2,0.4,2.4,0.8,3.8,1.4c1.4,0.6,3.1,1.4,5.4,2.5c2.7,1.2,4.7,2.1,6.4,2.6
		c1.7,0.5,3.1,0.8,4.5,1c0.7,0.1,1.2,0.1,1.8,0.1c0.5,0,1.1-0.2,1.9-0.4c1.5-0.4,2.9-0.9,4.5-1.5c1.6-0.6,3.5-1.5,5.9-2.7
		c1-0.5,2.4-1.2,3.7-1.9c1.9-1,3.9-2.1,5.3-2.9c1.3-0.7,2.6-1.5,3.6-2.1c1.1-0.6,1.9-1.2,2.3-1.4c3.9-2.5,7.5-5.3,10.7-8.2
		c3.2-2.9,6.1-6.1,8.7-9.3c0.4-0.5,0.9-1,1.2-1.1c0.2-0.1,0.4-0.2,0.5-0.3c4.1,3.7,8.2,7.5,12.3,11.2
		C518.3,522.1,524.9,528.2,526.1,529.3L526.1,529.3L526.1,529.3z"/>
</g>
<g id="shadow">
</g>
<g id="tool1_1_">
</g>
<g id="cut_1_">
</g>
<g id="tool2_1_">
</g>
<g id="gloss_1_">
</g>
</svg>
