<?xml version="1.0" encoding="utf-8"?>
<!-- Generator: Adobe Illustrator 23.0.3, SVG Export Plug-In . SVG Version: 6.00 Build 0)  -->
<svg version="1.1" id="Layer_1" xmlns="http://www.w3.org/2000/svg" xmlns:xlink="http://www.w3.org/1999/xlink" x="0px" y="0px"
	 viewBox="0 0 900.1 898.6" style="enable-background:new 0 0 900.1 898.6;" xml:space="preserve">
<style type="text/css">
	.st0{fill:#FFFFFF;}
</style>
<g>
	<g>
		<path class="st0" d="M570.4,99.1c-23.5-23.4-46.9-46.9-70.2-70.4H28.7v841.2h618.2V175.4C621.4,150,595.9,124.6,570.4,99.1z"/>
		<path d="M675.6,898.6H0V0h512.1l8.4,8.5c23.4,23.5,46.7,47,70.2,70.4l0,0c25.4,25.4,50.9,50.8,76.4,76.2l8.5,8.4L675.6,898.6
			L675.6,898.6z M57.4,841.2h560.8V187.3c-22.7-22.6-45.4-45.2-68.1-67.9l0,0c-20.7-20.6-41.3-41.3-61.9-62H57.4V841.2z"/>
	</g>
	<circle cx="340.4" cy="393.9" r="112.4"/>
	<path d="M117.5,784.5V619.9c0-32.1,25.8-58.4,57.4-58.4h342.2c31.6,0,57.4,26.3,57.4,58.4v164.6"/>
	<g>
		<polyline class="st0" points="651.7,199.6 480.7,199.6 480.7,28.7 		"/>
		<polygon points="651.7,225.9 454.4,225.9 454.4,28.7 507,28.7 507,173.3 651.7,173.3 		"/>
	</g>
	<g>
		<circle class="st0" cx="646.9" cy="645.4" r="224.5"/>
		<path d="M646.9,898.6c-139.6,0-253.2-113.6-253.2-253.2s113.6-253.2,253.2-253.2s253.2,113.6,253.2,253.2S786.5,898.6,646.9,898.6
			z M646.9,449.5c-108,0-195.9,87.9-195.9,195.9s87.9,195.9,195.9,195.9s195.9-87.9,195.9-195.9S754.9,449.5,646.9,449.5z"/>
	</g>
	<rect x="536.6" y="617.8" width="220.6" height="139.4"/>
	<path d="M735.7,621.4h-52.6c0-29.5-16.8-50.1-31.9-50.1H642c-15.1,0-31.9,20.6-31.9,50.1h-52.6c0-57.6,37.1-102.7,84.5-102.7h9.2
		C698.6,518.7,735.7,563.8,735.7,621.4z"/>
</g>
</svg>
