<?xml version="1.0" encoding="utf-8"?>
<!-- Generator: Adobe Illustrator 21.1.0, SVG Export Plug-In . SVG Version: 6.00 Build 0)  -->
<svg version="1.1" id="Layer_1" xmlns="http://www.w3.org/2000/svg" xmlns:xlink="http://www.w3.org/1999/xlink" x="0px" y="0px"
	 viewBox="0 0 145.4 145.7" style="enable-background:new 0 0 145.4 145.7;" xml:space="preserve">
<style type="text/css">
	.st0{fill:#AD7BB6;}
	.st1{clip-path:url(#SVGID_2_);}
	.st2{fill:#EBEBEB;stroke:#EBEBEB;stroke-width:0.5;}
	.st3{fill:#D0D0D0;stroke:#D0D0D0;stroke-width:0.5;}
	.st4{fill:#453F3F;stroke:#453F3F;stroke-width:0.5;}
	.st5{fill:#E5BC84;stroke:#E5BC84;stroke-width:0.5;}
	.st6{fill:#3D3532;stroke:#3D3532;stroke-width:0.5;}
	.st7{fill:#F1D4A8;stroke:#F1D4A8;stroke-width:0.5;}
	.st8{fill:#89141A;stroke:#89141A;stroke-width:0.5;}
	.st9{fill:#C82631;stroke:#C82631;stroke-width:0.5;}
</style>
<g>
	<path class="st0" d="M72.7,0L72.7,0c40.2,0,72.7,32.6,72.7,72.7l0,0c0,40.2-32.6,72.7-72.7,72.7l0,0C32.5,145.5,0,112.9,0,72.7l0,0
		C0,32.6,32.5,0,72.7,0z"/>
	<g>
		<g>
			<defs>
				<path id="SVGID_1_" d="M72.7,0L72.7,0c40.2,0,72.7,32.6,72.7,72.7l0,0c0,40.2-32.6,72.7-72.7,72.7l0,0
					C32.5,145.5,0,112.9,0,72.7l0,0C0,32.6,32.5,0,72.7,0z"/>
			</defs>
			<clipPath id="SVGID_2_">
				<use xlink:href="#SVGID_1_"  style="overflow:visible;"/>
			</clipPath>
			<g class="st1">
				<path class="st2" d="M65.4,25.9c2.8-1,5.7-1.7,8.7-1.7c0,6.9,0,13.9,0,20.8c0,1.9,0,3.8,0,5.7c-1.8,1-2.1,2.6,0.1,1.9
					c0,2.2,0,4.4,0,6.6c-3.1-0.4-2.1,0.3,0,0.7c0,4,0,8.1,0,12.1c-2.5-0.1-5,0-7.6,0.1c-2.8,0.2-5.6,0.6-8.4,1.2
					c-2.5,0.6-5,1.4-7.3,2.6c-0.9,0.5-1.7,1.1-2.4,1.7c0-0.1-0.1-0.2-0.1-0.3c-0.8-2.3-1.5-4.6-1.8-7c-0.1-1-0.2-2.1,0-3.1
					c-0.2,0.1-0.4,0.1-0.6,0c-0.3-0.2-0.6-0.4-0.9-0.6c-2.4-1.3-4.3-3.3-5.8-5.6c-0.6-0.8-1.1-1.6-1.6-2.5c-0.1-0.2-0.3-0.5-0.4-0.7
					c-0.2-0.3-0.3-0.7-0.5-1c-0.1-0.2-0.2-0.3-0.2-0.5c-0.1-0.2-0.2-0.3-0.2-0.5c-0.1-0.2-0.2-0.4-0.3-0.6c-0.1-0.3-0.2-0.6-0.4-0.9
					c-0.3-0.7-0.5-1.3-0.7-2c0-0.1-0.1-0.3-0.1-0.4c0-0.2-0.1-0.3-0.1-0.5c-0.1-0.5-0.2-1-0.4-1.5c0-0.2-0.1-0.4-0.1-0.6
					c-0.3-1.9-0.2-3.9-0.1-5.9c0.1-0.3,0.1-0.6,0.1-0.9h0.1c0-0.2,0-0.5,0.1-0.7c0.1-0.4,0.2-0.8,0.3-1.1c0.1-0.4,0.2-0.7,0.4-1.1
					c0.1-0.2,0.2-0.4,0.3-0.6c0.1-0.2,0.1-0.3,0.2-0.5c0.2-0.5,0.5-1,0.7-1.5c0.2-0.3,0.4-0.7,0.6-1c0.3-0.6,0.7-1.1,1-1.6
					c1.2-1.6,2.7-2.9,4.3-4c1.1-0.6,2-1.5,3.3-1.8c0.2,0,0.3-0.1,0.5-0.1s0.4-0.1,0.6-0.1c0.2,0,0.4-0.1,0.6-0.1
					c0.3,0,0.6,0,0.9-0.1c0.9-0.1,1.7-0.1,2.6,0c0.5,0.1,1,0.1,1.5,0.1c0.3,0.1,0.6,0.1,0.9,0.1c0.2,0.1,0.5,0.1,0.7,0.1
					c0.4,0.1,0.8,0.1,1.1,0.2c0.2,0,0.3,0.1,0.5,0.1c0.2,0.1,0.3,0.1,0.5,0.2c0.3,0.1,0.5,0.2,0.8,0.3c0.2,0.1,0.3,0.2,0.5,0.4
					c0.4-0.3,0.8-0.5,1.2-0.8c0.5-0.3,1.1-0.6,1.6-0.9c0.3-0.2,0.6-0.3,0.9-0.4c0.1,0,0.2-0.1,0.3-0.1c0.2-0.1,0.5-0.3,0.7-0.4
					c0.1,0,0.2-0.1,0.3-0.1c0.5-0.2,0.9-0.4,1.4-0.6c0.2-0.1,0.4-0.2,0.6-0.3C64.5,26,65.1,26,65.4,25.9L65.4,25.9z"/>
				<path class="st3" d="M74,24.2c2.8-0.1,5.7,0.4,8.3,1.5c0.2,0.1,0.5,0.2,0.7,0.4c0.2,0.1,0.5,0.2,0.7,0.4c2,1,3.8,2.4,5.3,4
					c1.5,1.6,2.8,3.5,3.7,5.4c0.1,0.2,0.1,0.5,0.3,0.7c0.2,0.1,0.5,0.2,0.7,0.3c2.2,0.9,4.1,2.4,5.8,4c1.5,1.3,2.8,2.9,4.1,4.4
					c0.8,1.1,1.6,2.3,2.2,3.5c0.1,0.2,0.2,0.3,0.2,0.5c0.1,0.3,0.3,0.6,0.4,0.9c0.3,0.6,0.5,1.3,0.7,2c0.2,0,0.4,0,0.5,0.1
					c0.2,0.1,0.4,0.2,0.6,0.3c0.5,0.3,0.9,0.7,1.3,0.9c2.4,1.7,4.2,4.2,5.2,7c0.3,0.6,0.4,1.3,0.6,2c0.1,0.3,0.1,0.5,0.2,0.8
					c0.1,0.4,0.2,0.9,0.3,1.4c0.1,0.2,0.1,0.5,0.1,0.7c0.1,0.4,0.1,0.8,0.1,1.1c0.2,1,0.1,2,0,3c-0.1,0.3-0.1,0.6-0.1,0.9
					c0,0.2-0.1,0.3-0.1,0.5c-0.1,0.3-0.2,0.6-0.3,1c-0.7,2.2-2.2,4.1-4.3,5.3c-0.1,0.1-0.3,0.1-0.4,0.2c-0.3,0.1-0.6,0.2-0.8,0.3
					c-0.1,0-0.2,0-0.3,0.1c-0.2,0.1-0.3,0.1-0.5,0.2c-0.1,0-0.2,0.1-0.3,0.1c-0.2,0.1-0.4,0.1-0.6,0.2c-0.3,0-0.5,0-0.8,0.1
					c-0.4,0.1-0.7,0.1-1.1,0.1c-2.2,0.1-4.6-0.2-6.5-1.4c-0.4-0.2-0.7-0.5-1.2-0.7c-0.1,1.4-0.4,2.8-0.6,4.2c0,0.2,0,0.5,0,0.7l0,0
					c-0.1,0-0.2,0-0.3,0c-0.8-0.4-1.5-1-2.2-1.5c-1.3-0.8-2.4-1.7-3.8-2.4c-1.7-1-3.6-1.7-5.5-2.3c-1.4-0.4-2.7-0.8-4.1-1.1
					c-0.8-0.2-1.7-0.4-2.5-0.5c-2.1-0.3-4.2-0.7-6.3-0.8c0-4,0-8.1,0-12.1c-2.1-0.4-4.3-0.7-6.4-0.8c-2.5-0.1-5-0.1-7.6,0.1
					c-0.8,0-1.5,0.2-2.3,0.1c2.3-0.4,4.6-0.6,7-0.7c3.1-0.1,6.2,0.2,9.3,0.6c0-2.2,0-4.4,0-6.6c-2.2,0.7-4.4,1.2-6.7,1.5
					c-2.4,0.2-4.9,0.1-7.1-1c-1-0.5-1.9-1.2-2.6-2.1c-4.1,0.9-7.6,3.8-9.8,7.3c-0.4,0.5-0.4,1.2-0.5,1.8c-0.1,0.8-0.2,1.6-0.4,2.4
					c-0.1-0.9,0.1-1.8,0.1-2.6c0-0.5,0-1,0.2-1.4c0.9-1.7,2.1-3.3,3.6-4.6c1.8-1.5,4.1-2.5,6.3-3.3c-0.5-0.9-1-1.9-1.1-3
					c0.4,0.8,0.8,1.5,1.3,2.2c1.5,1.8,3.6,2.9,5.8,3.5c1.7,0.5,3.5,0.2,5.1-0.2c2-0.5,3.9-1.4,5.7-2.4c0.1-1.9,0-3.8,0-5.7
					C74,38.1,74,31.2,74,24.2L74,24.2z"/>
				<path class="st4" d="M66.5,72.4c2.5-0.1,5-0.2,7.6-0.1c2.1,0.1,4.2,0.5,6.3,0.8c-2.2,1.5-4.4,3-6.6,4.4
					c-3.8,2.4-7.8,4.6-11.9,6.3c-1,0.4-2,0.8-3,1.1c-0.6,0.2-1.2,0.3-1.8,0.5v0.2c-0.7-0.1-1.3,0.2-1.9,0.3c-2,0.4-4.1,0.6-6.2,0.4
					c0-0.2-0.1-0.5-0.1-0.7c-0.4-2.6-0.5-5.3-0.5-7.9c0,0.1,0.1,0.2,0.1,0.3c0.8-0.6,1.6-1.2,2.4-1.7c2.3-1.3,4.8-2.1,7.3-2.6
					C60.9,73,63.7,72.6,66.5,72.4L66.5,72.4z"/>
				<path class="st5" d="M73.7,77.4c2.3-1.4,4.4-2.9,6.6-4.4c0.8,0.1,1.7,0.3,2.5,0.5c1.4,0.3,2.7,0.7,4.1,1.1
					c2.9,4,6.4,7.6,10.4,10.4c0,0.3,0,0.6-0.1,0.9c0.1-0.2,0.3-0.4,0.5-0.6c0,0,0.1,0.1,0.2,0.1s0.2-0.1,0.3-0.1
					c1,0.1,1.7,1,2.3,1.8c1.5,1.9,2.3,4.5,1.9,6.9c-0.6,3.2-2.6,5.8-4.9,8c-0.8,0.7-1.5,1.5-2.5,1.8c-0.3,0.1-0.7,0.3-1,0.4
					c-0.9,2-1.9,4-3.1,5.9c-1.4,2.3-3.1,4.3-4.8,6.3c-1.1,1.2-2.2,2.5-3.4,3.6c0,0.7,0,1.4,0,2.1c-0.2,0.3-0.5,0.7-0.7,1.1
					c-0.1,0.7,0.2,1.5,0.2,2.2c0.1,2-0.4,4-1.3,5.7c-0.7,1.3-1.5,2.5-2.5,3.6c-0.5,0.6-1,1.3-1.6,1.7c-2.9,6.3-2.9-24.9-2.9-25
					c0.1-1.2,0.1-24,0.1-31.1C73.7,79.4,73.8,78.4,73.7,77.4 M94.1,84.6C94.1,85,94.5,84.4,94.1,84.6"/>
				<path class="st6" d="M86.9,74.6c1.9,0.6,3.7,1.3,5.5,2.3c1.3,0.7,2.5,1.6,3.8,2.4c0.7,0.5,1.4,1,2.2,1.5c0.1,0,0.2,0,0.3,0
					c-0.1,1.3-0.3,2.7-0.6,4c-0.1,0.2,0,0.3,0.1,0.5c-0.1,0-0.2,0.1-0.3,0.1c0,0-0.1-0.1-0.2-0.1c-0.1-0.1-0.3-0.2-0.4-0.3
					C93.3,82.2,89.7,78.6,86.9,74.6L86.9,74.6z"/>
				<path class="st7" d="M61.8,83.7c4.2-1.7,8.1-3.9,11.9-6.3c0.1,1,0,2,0.1,3c0,7.1,0,26.4,0,27.4c0,1.2,0.1,24.6,2.9,28.6
					c-0.2,0.2-0.5,0.3-0.7,0.5c-1.3-0.2-2.6-0.3-3.8,0c-0.2,0.2-0.3,0.5-0.5,0.7c-1.5-1-3-2.1-4-3.7c-0.8-1.3-1.4-2.6-1.9-4
					c-0.3-0.9-0.6-1.7-0.7-2.7c-0.2-1.1,0.1-2.2,0.2-3.3c-0.1,0-0.2,0.1-0.3,0.1c0-1.1,0-2.2,0-3.3c0-0.4-0.1-0.8-0.4-1.1
					c-1.6-1.5-3.1-3.2-4.5-4.9c-2.6-3.2-4.9-6.7-6.4-10.6c-0.4-0.1-0.8-0.1-1.2-0.3c-1.8-1.3-3.4-2.8-4.8-4.6
					c-1.4-1.8-2.4-4-2.5-6.3c-0.1-2,0.6-4,1.8-5.6c0.5-0.7,1-1.4,1.8-1.8c0,0.2,0.1,0.4,0.1,0.7c2.1,0.3,4.2,0.1,6.2-0.4
					c0.6-0.1,1.3-0.4,1.9-0.3c1.5,0.1,6.9-2,4.4-1.3C60.5,84.6,60.8,84.1,61.8,83.7"/>
				<path class="st8" d="M72.2,144c0.1,0.5,0.1,1,0.2,1.5h5.2c-0.4-0.7-0.8-1.4-1.1-2.1c0.6-0.7,1.2-1.4,1.8-2.1
					c1.2-1.6,2.5-3.1,3.7-4.8c0.6-1,1.3-2,1.7-3.1c0.5-1.4,1-2.8,1.4-4.3c0.2-0.8,0.5-1.6,0.4-2.5c0-0.6,0-1.1,0-1.7
					c-0.2-0.4-0.5-0.7-0.7-1c-0.1,0-0.3,0-0.3-0.1c-0.1-0.7,0-1.5-0.4-2c-0.4-0.2-1.1-0.2-1.4,0.3l0,0c-0.2,0.3-0.5,0.7-0.7,1.1
					c-0.1,0.7,0.2,1.5,0.2,2.2c0.1,2-0.4,4-1.3,5.7c-0.7,1.3-1.5,2.5-2.5,3.6c-0.5,0.6-1,1.3-1.6,1.7c-0.2,0.2-0.5,0.3-0.7,0.5
					c-1.3-0.2-2.6-0.3-3.8,0c0.3,1.2,0.7,2.3,1.1,3.4c0.3,1,0.7,1.9,0.9,2.9c-0.8,0.1-1.6-0.1-2.2-0.6s-0.8-1.2-1-1.9
					c-0.1,0.7,0,1.3,0.4,1.9C71.6,143.1,72.2,143.4,72.2,144z"/>
				<path class="st9" d="M62.6,130.9c0.4,1.4,1,2.7,1.7,4c0.9,1.7,1.9,3.4,3.2,4.9c0.3,0.3,0.6,0.6,0.8,0.9c0.5,0.5,0.8,1,1.3,1.5
					c-0.7,1-1.4,2.1-1.9,3.2h4.8c-0.1-0.5-0.2-1-0.2-1.5c0-0.6-0.6-0.9-0.9-1.3c-0.4-0.5-0.5-1.2-0.4-1.9c0.2,0.7,0.4,1.4,1,1.9
					s1.4,0.7,2.2,0.6c-0.1-1-0.6-1.9-0.9-2.9c-0.4-1.2-0.8-2.3-1.1-3.4c-0.2,0.2-0.3,0.5-0.5,0.7c-1.5-1-3-2.1-4-3.7
					c-0.8-1.3-1.4-2.6-1.9-4c-0.3-0.9-0.6-1.7-0.7-2.7c-0.2-1-0.3-2-0.1-3.1c0-0.5,0-1.1-0.1-1.6c-0.5,0.1-1,0.1-1.4,0.4
					c-0.1,0.5-0.3,1.1-0.5,1.6c-1,0.3-1.3,1.5-1.2,2.4C61.8,128.5,62.2,129.7,62.6,130.9z"/>
				<path class="st3" d="M111.3,145.5c-0.7-2.8-1.5-5.6-2.2-8.3c-0.1-0.5-0.4-1-0.4-1.5c-4.9-2.6-10-5-15.3-6.9
					c-2.6-0.9-5.3-1.7-8-2.2l0,0c0.1,0.9-0.2,1.7-0.4,2.5c-0.4,1.5-0.9,2.9-1.4,4.3c-0.4,1.1-1.1,2.1-1.7,3.1
					c-1.1,1.7-2.4,3.2-3.7,4.8c-0.6,0.7-1.2,1.5-1.8,2.1c0.3,0.7,0.7,1.4,1.1,2.1L111.3,145.5L111.3,145.5z"/>
				<path class="st2" d="M58.3,145.5h9.4c0.6-1.1,1.2-2.2,1.9-3.2c-0.4-0.5-0.8-1-1.3-1.5c-1.4,0.4-2.6,1.1-3.9,1.7
					C62.3,143.4,60.3,144.4,58.3,145.5z"/>
				<path class="st2" d="M55.5,145.5c2.9-2.1,6.3-3.4,9.6-4.6c0.8-0.3,1.6-0.5,2.4-1c-1.3-1.5-2.3-3.2-3.2-4.9
					c-0.6-1.3-1.2-2.7-1.7-4c-0.4-1.2-0.8-2.5-0.8-3.8c-3.2,0.7-6.3,1.6-9.3,2.7c-4.6,1.6-8.8,4.2-12.7,7.1c0,0.1-0.1,0.2-0.1,0.3
					l-0.1,0.1c-0.5,2.7-1,5.3-1.4,8L55.5,145.5L55.5,145.5z"/>
				<path class="st3" d="M58.3,145.5c2-1.1,4-2,6.1-3c1.3-0.6,2.6-1.2,3.9-1.7c-0.3-0.3-0.6-0.6-0.8-0.9c-0.7,0.5-1.6,0.6-2.4,1
					c-3.3,1.3-6.7,2.5-9.6,4.6L58.3,145.5L58.3,145.5z"/>
			</g>
		</g>
	</g>
</g>
</svg>
