<svg id="Layer_1" data-name="Layer 1" xmlns="http://www.w3.org/2000/svg" viewBox="0 0 465.9 523.9"><defs><style>.cls-1{fill:#c33;}.cls-2,.cls-3,.cls-4{isolation:isolate;}.cls-2{font-size:90.12px;}.cls-2,.cls-3{fill:#fff;font-family:MicrosoftSansSerif, Microsoft Sans Serif;}.cls-3{font-size:28.87px;}.cls-4{font-size:13.82px;fill:#f4f2f2;font-family:Candara-Bold, Candara;font-weight:700;}</style></defs><title>red IV apple</title><path class="cls-1" d="M312.44,211.47c-11.19,8.5-23,8.79-34.94,11.7a312.52,312.52,0,0,0-6.28-39.64,211.55,211.55,0,0,1,31.73-33.64c37,17.11,111.92,8.79,129.39-27.36,15.14-31.37,57.56-60.24,57.56-60.24-13.13-25.84-97-35.91-144.41-15.13s-73.9,61.23-60.77,87.08l.57,1A230,230,0,0,0,266,164.79c-13.7-42-40.16-75.73-88.42-71.65l-19.29,40.22c55.43-4.66,83.33,44,92.82,90.92-12.76-3.73-25.39-3-37.39-12C149,163.28,30.09,234,30.09,330S121,559.89,213.65,559.89a162.18,162.18,0,0,0,50.65-8.09,162.86,162.86,0,0,0,48.14,7.28C405.13,559.08,496,425.15,496,329.17S377,162.46,312.44,211.47Zm67.68-131c12.13-3.73,23.82-8.67,36.13-11.82,17.47-4.42,36.76-3.9,54.73-5.88l-2.07.64A376.29,376.29,0,0,0,422,72.07c-12.44,3-23.38,9.14-35.57,12.92-10.31,3.2-20,7.57-30,11.64-8.3,3.38-16.84,6.52-24.13,14.49l-8.42-4C337.95,92.85,362.14,86,380.12,80.51Z" transform="translate(-30.09 -36)"/><text class="cls-2" transform="translate(35.6 351.86) scale(0.78 1)">INTERVENT</text><text class="cls-3" transform="translate(94.43 394.5) scale(1.08 1)">Better Health for Life</text><text class="cls-4" transform="translate(379.97 377.55) scale(0.97 1)">SM</text></svg>