<?xml version="1.0" encoding="utf-8"?>
<!-- Generator: Adobe Illustrator 19.1.0, SVG Export Plug-In . SVG Version: 6.00 Build 0)  -->
<svg version="1.1" id="Layer_1" xmlns="http://www.w3.org/2000/svg" xmlns:xlink="http://www.w3.org/1999/xlink" x="0px" y="0px"
	 viewBox="0 91 612 612" style="enable-background:new 0 91 612 612;" xml:space="preserve">
<style type="text/css">
	.st0{fill:#A8A8A8;}
	.st1{fill:#11BA77;}
	.st2{fill:#EEEEEE;}
</style>
<path class="st0" d="M390.9,250.4H199.1c-5.1,0-9.2,3.7-9.2,8.2s4.1,8.2,9.2,8.2h191.8c5.1,0,9.2-3.6,9.2-8.2
	C400.1,254.1,396,250.4,390.9,250.4z"/>
<polygon class="st1" points="379,360.4 317.2,419.6 268,379.1 196.3,447.9 205.3,457.3 268.7,396.4 317.9,436.9 388,369.8 "/>
<rect x="348.6" y="422.9" class="st1" width="38.1" height="100.3"/>
<rect x="299.4" y="453.3" class="st1" width="38.1" height="69.9"/>
<rect x="250.2" y="434.1" class="st1" width="38.1" height="89.1"/>
<path class="st0" d="M400.1,296.5c0-4.5-4.1-8.2-9.2-8.2H199.1c-5.1,0-9.2,3.7-9.2,8.2s4.1,8.2,9.2,8.2h191.8
	C396,304.7,400.1,301.1,400.1,296.5z"/>
<rect x="201" y="474.5" class="st1" width="38.1" height="48.7"/>
<path class="st0" d="M199.1,342.7h100c5.1,0,9.2-3.7,9.2-8.2s-4.1-8.2-9.2-8.2h-100c-5.1,0-9.2,3.7-9.2,8.2S194,342.6,199.1,342.7z"
	/>
<path class="st2" d="M422.8,209.1H167.2c-4.9,0-8.9,4-8.9,8.9v332c0,4.9,4,8.9,8.9,8.9h255.7c4.9,0,8.9-4,8.9-8.9V218
	C431.7,213.1,427.7,209.1,422.8,209.1z M317.9,436.9l-49.2-40.5l-63.4,60.9l-9-9.4l71.7-68.8l49.2,40.5l61.8-59.2l9,9.4L317.9,436.9
	z M386.7,422.9v100.3h-38.1V422.9H386.7z M337.5,453.3v69.9h-38.1v-69.9H337.5z M288.3,434.1v89.1h-38.1v-89.1H288.3z M239.1,474.5
	v48.7H201v-48.7H239.1z M199.1,304.7c-5.1,0-9.2-3.7-9.2-8.2s4.1-8.2,9.2-8.2h191.8c5.1,0,9.2,3.7,9.2,8.2c0,4.6-4.1,8.2-9.2,8.2
	H199.1z M199.1,326.3h100c5.1,0,9.2,3.7,9.2,8.2s-4.1,8.2-9.2,8.2h-100c-5.1-0.1-9.2-3.7-9.2-8.2S194,326.3,199.1,326.3z
	 M390.9,266.8H199.1c-5.1,0-9.2-3.7-9.2-8.2s4.1-8.2,9.2-8.2h191.8c5.1,0,9.2,3.7,9.2,8.2C400.1,263.2,396,266.8,390.9,266.8z"/>
</svg>
