<?xml version="1.0" encoding="utf-8"?>
<!-- Generator: Adobe Illustrator 19.1.0, SVG Export Plug-In . SVG Version: 6.00 Build 0)  -->
<svg version="1.1" id="RESPONSIVE_DESIGN_BY_RedKoala"
	 xmlns="http://www.w3.org/2000/svg" xmlns:xlink="http://www.w3.org/1999/xlink" x="0px" y="0px" viewBox="0 186.9 612 421.1"
	 style="enable-background:new 0 186.9 612 421.1;" xml:space="preserve">
<style type="text/css">
	.st0{fill:#EEEEEE;}
	.st1{fill:#E6E7E8;}
	.st2{fill:#ED2D80;}
	.st3{fill:#9FD6BD;}
</style>
<path class="st0" d="M426.2,439.1H114.5v43.6h311.7V439.1z M268.8,469.4c-4.7,0-8.5-3.8-8.5-8.5s3.8-8.5,8.5-8.5s8.5,3.8,8.5,8.5
	S273.5,469.4,268.8,469.4z"/>
<path class="st0" d="M446.2,237.5v13.3v58.1c3.5-1.5,7.2-2.2,11.1-2.2h5.6v-69.1c0-19.1-15.7-34.6-35.1-34.6H109.9
	c-19.4,0-35.1,15.5-35.1,34.6V383h5.4c3.9,0,7.6,0.7,11.2,2V250.8v-13.3c0-9.9,8.3-18,18.5-18h317.9
	C437.9,219.5,446.2,227.6,446.2,237.5z"/>
<path id="bottom_25_" class="st0" d="M333.2,537.2H321c-11.1-0.1-13-1.8-13.8-3.4c-2.1-3.9-2.1-13.4-2-26.6v-1.8
	c0-3.8-3.1-6.9-6.9-6.9h-23.1h-12.8h-23.1c-3.8,0-6.9,3.1-6.9,6.9v1.7c0,13.2,0,22.7-2,26.6c-0.9,1.6-2.7,3.4-13.8,3.4h-12.2
	c-3.8,0-6.9,3.1-6.9,6.9v5.8c0,3.8,3.1,6.9,6.9,6.9h128.9c3.8,0,6.9-3.1,6.9-6.9V544C340.1,540.2,337,537.2,333.2,537.2z"/>
<polygon class="st1" points="108.5,273.3 108.4,235 432.3,235 432.3,273.3 "/>
<path class="st2" d="M426.2,341.2c0-7.5,2.1-14.6,6.1-20.5v-33.8H277.8v64.9h148.3L426.2,341.2L426.2,341.2z"/>
<path class="st3" d="M426.2,351.5H278.1v-64.3H432v33.9c0.2-0.3,0.4-0.6,0.6-0.9v-33.6h-155v65.5h148.6V351.5L426.2,351.5z"/>
<polygon class="st1" points="219.8,425.9 219.8,366.9 317.8,366.9 317.8,425.9 "/>
<polygon class="st1" points="108.4,351.8 108.4,286.9 262.8,286.9 262.8,351.8 "/>
<path class="st1" d="M108.4,366.9v31.9c3.9,6.1,6.1,13.5,6.1,21v6h91.9v-59L108.4,366.9L108.4,366.9z"/>
<polygon class="st1" points="426.2,366.9 332.8,366.9 332.8,425.9 426.2,425.9 "/>
<path id="tablet" class="st0" d="M612,341.2c0-14.1-9.9-25.6-22.1-25.6H457.3c-12.2,0-22.1,11.5-22.1,25.6v191.1
	c0,14.1,9.9,25.6,22.1,25.6h132.6c12.2,0,22.1-11.5,22.1-25.6V341.2L612,341.2z M496,548.6c-3.4,0-6.1-3-6.1-6.7s2.7-6.7,6.1-6.7
	s6.1,3,6.1,6.7S499.4,548.6,496,548.6z M523.6,548.6c-3.4,0-6.1-3-6.1-6.7s2.7-6.7,6.1-6.7c3.4,0,6.1,3,6.1,6.7
	C529.7,545.6,527,548.6,523.6,548.6z M551.1,548.6c-3.4,0-6.1-3-6.1-6.7s2.7-6.7,6.1-6.7c3.4,0,6.1,3,6.1,6.7
	C557.3,545.6,554.5,548.6,551.1,548.6z M595.1,525.8h-143V365.3l0,0v-31h41.1l0,0h60.5l0,0h41.1l0,0h0.4v6.9c0,0,0,0,0,0.1
	L595.1,525.8L595.1,525.8z"/>
<polygon class="st1" points="464.3,384.4 464.3,345.4 582.8,345.4 582.8,384.4 "/>
<polygon class="st2" points="464.3,462.4 464.3,397.4 582.8,397.4 582.8,462.4 "/>
<polygon class="st1" points="464.3,514.4 464.3,475.4 582.8,475.4 582.8,514.4 "/>
<path id="phone" class="st0" d="M105.5,419.9c0-6.9-2.3-13.6-6.4-18.7c-4.8-5.9-11.7-9.3-18.9-9.3H25.3c-7.3,0-14.2,3.4-18.9,9.3
	C2.3,406.3,0,413,0,419.9v110c0,6.9,2.3,13.6,6.4,18.7c4.8,5.9,11.7,9.3,18.9,9.3h54.9c7.2,0,14.2-3.4,18.9-9.3
	c4.1-5.1,6.4-11.7,6.4-18.7V419.9L105.5,419.9z M37.4,401.9h30.8c0.9,0,1.6,0.7,1.6,1.6s-0.7,1.6-1.6,1.6H37.4
	c-0.9,0-1.6-0.7-1.6-1.6C35.8,402.6,36.5,401.9,37.4,401.9z M52.8,552.2c-3.3,0-6-2.7-6-6s2.7-6,6-6s6,2.7,6,6
	C58.8,549.6,56.1,552.2,52.8,552.2z M94.3,534.6H11.2V415.1h83.1C94.3,415.1,94.3,534.6,94.3,534.6z"/>
<polygon class="st1" points="21.2,447.3 21.1,426.4 84.4,426.4 84.4,447.3 "/>
<polygon class="st1" points="21.2,523.3 21.1,502.4 84.4,502.4 84.4,523.3 "/>
<polygon class="st2" points="21.2,492.9 21.1,456.8 84.4,456.8 84.4,492.9 "/>
</svg>
