<svg xmlns="http://www.w3.org/2000/svg" viewBox="0 0 179 201.4"><defs><style>.cls-1{isolation:isolate;}.cls-2,.cls-9{fill:none;stroke:#fff;}.cls-2{stroke-linecap:round;stroke-linejoin:round;stroke-width:2px;stroke-dasharray:0 7.87;}.cls-3{fill:#f8ba8c;}.cls-12,.cls-4{fill:#fff;}.cls-4{opacity:0.3;mix-blend-mode:soft-light;}.cls-5{fill:#facea3;}.cls-6{fill:#c03a2a;}.cls-7{fill:#ac3525;}.cls-8{fill:#c24637;}.cls-9{stroke-miterlimit:10;stroke-width:0.86px;}.cls-10{fill:#45b9bc;}.cls-11{fill:#af88bc;}.cls-13{fill:#f29100;}.cls-14{fill:#93c01f;}</style></defs><title>RetailSHprogs</title><g class="cls-1"><g id="Capa_1" data-name="Capa 1"><circle class="cls-2" cx="93.01" cy="98.96" r="76.76"/><path class="cls-3" d="M74.4,147.75c3,5.39,17.85,23.05,17.85,23.05l-3.19,44.82h36.51l-1.32-44.36s6.57-10.21,6.57-19c0-9.91-.3-40.11-.37-52.19,0-4.8-1.52-6.43-3.59-6.5-1.74-.06-3.09,1.11-3.35,4-.94,10.44-2.59,20.61-2.59,20.61s-.21-23.11,0-31.73c.1-3.38-.84-5-3.64-5.39-3.23-.5-4.77.91-5.14,4.07-1.61,13.81-3.12,33-3.12,33s-.41-27.67-.89-38.33c-.23-5.19-1.79-6.21-4.81-6.18-2.83,0-4.64,1.22-4.64,6.18,0,14.22-.65,38.33-.65,38.33s-1.55-22.41-2.37-30.95c-.39-4.07-2.51-5.07-4.58-5s-4.1,1.19-4.32,5.39c-.43,8.4-1.9,46.82-1.9,46.82l-6.22-11.58c-2.17-4-11.59-4.27-10.46.36C70.46,132.22,71.39,142.37,74.4,147.75Z" transform="translate(-14.78 -14.22)"/><path class="cls-4" d="M69.95,131.14a9.91,9.91,0,0,1,5.29-1.55s-1.54-6.57-3.42-7.32a3,3,0,0,0-3.56.92S69.79,130.22,69.95,131.14Z" transform="translate(-14.78 -14.22)"/><path class="cls-4" d="M69.95,131.14a11.06,11.06,0,0,1,3.89-1.44,4.53,4.53,0,0,0-4.21-.15A14.43,14.43,0,0,1,69.95,131.14Z" transform="translate(-14.78 -14.22)"/><path class="cls-4" d="M94.74,90.5c0-.41.06-.84.06-1.28,0-3.87-1.61-6-3.59-6s-3.59,2.14-3.59,6c0,.44,0,.86.06,1.28a4,4,0,0,1,.59-.21,10.61,10.61,0,0,1,2.94-.37,10.91,10.91,0,0,1,2.8.33A4.4,4.4,0,0,1,94.74,90.5Z" transform="translate(-14.78 -14.22)"/><path class="cls-4" d="M90.82,89c-2,0-2.94,1.41-2.54,1.3a10.61,10.61,0,0,1,2.94-.37,10.91,10.91,0,0,1,2.8.33C94.5,90.38,92.8,89,90.82,89Z" transform="translate(-14.78 -14.22)"/><path class="cls-4" d="M107.09,81.81c0-.41.06-.84.06-1.28,0-3.88-1.66-6-3.7-6s-3.7,2.14-3.7,6c0,.44,0,.86.06,1.28a4,4,0,0,1,.6-.21,11.25,11.25,0,0,1,3-.36,11.57,11.57,0,0,1,2.89.33A4.6,4.6,0,0,1,107.09,81.81Z" transform="translate(-14.78 -14.22)"/><path class="cls-4" d="M103.05,80.3c-2,0-3,1.41-2.62,1.3a11.25,11.25,0,0,1,3-.36,11.57,11.57,0,0,1,2.89.33C106.85,81.69,105.09,80.3,103.05,80.3Z" transform="translate(-14.78 -14.22)"/><path class="cls-4" d="M120.09,89.1c0-.42.06-.84.06-1.28,0-3.88-1.66-6-3.7-6s-3.7,2.14-3.7,6c0,.44,0,.86.06,1.28a4,4,0,0,1,.61-.21,11.2,11.2,0,0,1,3-.36,11.63,11.63,0,0,1,2.89.32A4.46,4.46,0,0,1,120.09,89.1Z" transform="translate(-14.78 -14.22)"/><path class="cls-4" d="M116,87.59c-2,0-3,1.41-2.62,1.3a11.2,11.2,0,0,1,3-.36,11.63,11.63,0,0,1,2.89.32C119.84,89,118.09,87.59,116,87.59Z" transform="translate(-14.78 -14.22)"/><path class="cls-4" d="M129.54,99.63c0-.3,0-.6,0-.92,0-2.79-1.19-4.33-2.66-4.33s-2.66,1.54-2.66,4.33c0,.31,0,.62,0,.92a3,3,0,0,1,.44-.15,8.14,8.14,0,0,1,2.18-.26,8.35,8.35,0,0,1,2.08.23A3.37,3.37,0,0,1,129.54,99.63Z" transform="translate(-14.78 -14.22)"/><path class="cls-4" d="M126.63,98.54c-1.47,0-2.18,1-1.89.93a8.14,8.14,0,0,1,2.18-.26,8.35,8.35,0,0,1,2.08.23C129.36,99.54,128.1,98.54,126.63,98.54Z" transform="translate(-14.78 -14.22)"/><path class="cls-5" d="M129.48,106.95a12.62,12.62,0,0,1-5,0,12.68,12.68,0,0,1,5,0Z" transform="translate(-14.78 -14.22)"/><path class="cls-5" d="M129.36,108.24a12.62,12.62,0,0,1-5,0,12.59,12.59,0,0,1,5,0Z" transform="translate(-14.78 -14.22)"/><path class="cls-5" d="M119.18,102.26a18.15,18.15,0,0,1-6,0,18.15,18.15,0,0,1,6,0Z" transform="translate(-14.78 -14.22)"/><path class="cls-5" d="M119,103.55a18,18,0,0,1-6,0,18.22,18.22,0,0,1,6,0Z" transform="translate(-14.78 -14.22)"/><path class="cls-5" d="M106.52,99.87a18.15,18.15,0,0,1-6,0,18.14,18.14,0,0,1,6,0Z" transform="translate(-14.78 -14.22)"/><path class="cls-5" d="M106.37,101.17a18.22,18.22,0,0,1-6,0,18.14,18.14,0,0,1,6,0Z" transform="translate(-14.78 -14.22)"/><path class="cls-5" d="M94.28,103.8a18.07,18.07,0,0,1-6,0,18.1,18.1,0,0,1,6,0Z" transform="translate(-14.78 -14.22)"/><path class="cls-5" d="M94.13,105.09a18.18,18.18,0,0,1-6,0,18.11,18.11,0,0,1,6,0Z" transform="translate(-14.78 -14.22)"/><path class="cls-6" d="M117.55,119.82c-7,0-11.59,7.81-11.59,7.81s-4.55-7.81-11.59-7.81a12.75,12.75,0,0,0-12.75,12.75c0,14,24.35,28.21,24.35,28.21s24.35-14.25,24.35-28.21A12.75,12.75,0,0,0,117.55,119.82Z" transform="translate(-14.78 -14.22)"/><path class="cls-7" d="M129.71,128.71a32.76,32.76,0,0,1-3.34,10c-3.37,6.35-9,12.88-16.35,14.55-2.74.62-6.23,1.09-8.89-.1a49.26,49.26,0,0,1-5.31-3c-.66-.4-5.58-3.59-8.91-5.26,7.16,9,19,15.91,19,15.91s24.35-14.25,24.35-28.21A12.75,12.75,0,0,0,129.71,128.71Z" transform="translate(-14.78 -14.22)"/><path class="cls-8" d="M107.88,126.06c.94-.43,1.87-.9,2.8-1.36,2.53-1.26,4.87-2.86,7.7-3.36a11.33,11.33,0,0,1,7.06,1.24,12.69,12.69,0,0,0-7.89-2.74c-5.27,0-9.14,4.37-10.76,6.57A3.89,3.89,0,0,0,107.88,126.06Z" transform="translate(-14.78 -14.22)"/><path class="cls-8" d="M103.42,124.46a14.72,14.72,0,0,0,1,1.06c-1.89-2.31-5.44-5.7-10.09-5.7a12.71,12.71,0,0,0-8.84,3.56,29.16,29.16,0,0,1,8.81-1.68C98.66,121.77,102.61,123.56,103.42,124.46Z" transform="translate(-14.78 -14.22)"/><polyline class="cls-9" points="65.67 123.82 73.39 123.82 76.09 119.35 77.47 123.82 82.86 123.82 82.86 124.63 84.21 123.82 86.58 123.82 88.07 118.14 88.55 128.15 90.85 116.38 91.19 123.82 92.61 123.82 93.82 121.66 94.77 123.82 96.67 122.26 97.34 123.82 99.51 122.26 101.45 126.93 102.25 123.82 105.6 123.82 108.31 118.95 109.93 126.8 111.15 120.57 111.96 123.82 116.7 123.82"/><circle class="cls-10" cx="155.97" cy="138.59" r="23.03"/><circle class="cls-11" cx="156.47" cy="60.5" r="21.64"/><circle class="cls-12" cx="146.9" cy="139.1" r="2.41"/><path class="cls-12" d="M172.06,152.6c.81-.09,1.32.26,1.32,2.55,0,1.45-.44,1.54-1.12,1.56-2.31.07-5.93,0-6.34,0-.95,0-1.69-1.07-1.69-2.87,0-2.11,2.32-1.89,2.43-1.89A48.66,48.66,0,0,0,172.06,152.6Z" transform="translate(-14.78 -14.22)"/><path class="cls-12" d="M157.1,161.8a1,1,0,0,1-1,1h0a1,1,0,0,1-1-1V148.22a1,1,0,0,1,1-1h0a1,1,0,0,1,1,1Z" transform="translate(-14.78 -14.22)"/><path class="cls-12" d="M187.08,161.8a1,1,0,0,1-1,1h0a1,1,0,0,1-1-1v-7.25a1,1,0,0,1,1-1h0a1,1,0,0,1,1,1Z" transform="translate(-14.78 -14.22)"/><path class="cls-12" d="M186.74,158.3a1.07,1.07,0,0,1-1.05,1.08H156.82a1.07,1.07,0,0,1-1.05-1.08h0a1.07,1.07,0,0,1,1.05-1.08h28.86a1.07,1.07,0,0,1,1.05,1.08Z" transform="translate(-14.78 -14.22)"/><path class="cls-12" d="M163.29,155.9a.83.83,0,0,1-.76.89h-4a.83.83,0,0,1-.76-.89h0a.83.83,0,0,1,.76-.89h4a.83.83,0,0,1,.76.89Z" transform="translate(-14.78 -14.22)"/><path class="cls-12" d="M183.28,153.56c0-1.54-14.49-1.93-14.49-1.93v8.7h14.49Z" transform="translate(-14.78 -14.22)"/><path class="cls-12" d="M167.88,155.69a6.06,6.06,0,0,1-2.49-.54,1.17,1.17,0,1,1,1-2.13c2.83,1.26,5.09-1.36,5.18-1.48a1.17,1.17,0,0,1,1.8,1.49A7.52,7.52,0,0,1,167.88,155.69Z" transform="translate(-14.78 -14.22)"/><path class="cls-12" d="M163.62,147.78l.9-3.38-1.73.6-.17-.48,2.71-.93-.9,3.38,1.83-.63.17.48Z" transform="translate(-14.78 -14.22)"/><path class="cls-12" d="M167.4,144l1.53-5.72-2.94,1-.28-.82,4.58-1.58-1.53,5.72,3.1-1.07.28.82Z" transform="translate(-14.78 -14.22)"/><path class="cls-12" d="M174.32,142.71l1.93-7.23-3.71,1.28-.36-1,5.79-2L176,141l3.92-1.35.36,1Z" transform="translate(-14.78 -14.22)"/><circle class="cls-6" cx="85.04" cy="24.43" r="24.43"/><path class="cls-12" d="M115.38,37c0,7.67-7.48,22.56-15.15,17.62-6.07,5.07-15.15-10-15.15-17.62s3.07-12.41,15.15-10.14C112.44,24.3,115.38,29.32,115.38,37Z" transform="translate(-14.78 -14.22)"/><path class="cls-12" d="M100.43,27.32h-.63a17.22,17.22,0,0,0,1-6.28c-.13-.73,1.41-1.2,1.61-.8A17.68,17.68,0,0,1,100.43,27.32Z" transform="translate(-14.78 -14.22)"/><path class="cls-12" d="M108,21.43a5.86,5.86,0,0,1-2.55,3.32,5.87,5.87,0,0,1-4.19,0,5.87,5.87,0,0,1,2.55-3.32A5.87,5.87,0,0,1,108,21.43Z" transform="translate(-14.78 -14.22)"/><path class="cls-12" d="M100.9,25a4.6,4.6,0,0,1-3-1.32,4.61,4.61,0,0,1-.77-3.19,4.6,4.6,0,0,1,3,1.32A4.61,4.61,0,0,1,100.9,25Z" transform="translate(-14.78 -14.22)"/><circle class="cls-13" cx="22.32" cy="128.4" r="22.32"/><path class="cls-12" d="M26.86,152.8a6.61,6.61,0,1,1,6.61-6.61A6.62,6.62,0,0,1,26.86,152.8Zm0-12.17a5.56,5.56,0,1,0,5.56,5.56A5.56,5.56,0,0,0,26.86,140.64Z" transform="translate(-14.78 -14.22)"/><path class="cls-12" d="M26.86,151.43a5.23,5.23,0,1,1,5.24-5.23A5.24,5.24,0,0,1,26.86,151.43Zm0-10.18a4.94,4.94,0,1,0,4.94,4.94A4.95,4.95,0,0,0,26.86,141.25Z" transform="translate(-14.78 -14.22)"/><circle class="cls-12" cx="12.09" cy="131.98" r="1.11"/><circle class="cls-12" cx="22.01" cy="132.58" r="1.62"/><path class="cls-12" d="M48.62,152.22a6.61,6.61,0,1,1,6.61-6.61A6.62,6.62,0,0,1,48.62,152.22Zm0-12.17a5.56,5.56,0,1,0,5.56,5.56A5.56,5.56,0,0,0,48.62,140.05Z" transform="translate(-14.78 -14.22)"/><path class="cls-12" d="M48.62,150.84a5.23,5.23,0,1,1,5.23-5.23A5.24,5.24,0,0,1,48.62,150.84Zm0-10.18a4.94,4.94,0,1,0,4.94,4.94A4.95,4.95,0,0,0,48.62,140.67Z" transform="translate(-14.78 -14.22)"/><circle class="cls-12" cx="33.85" cy="131.39" r="1.11"/><rect class="cls-12" x="24.7" y="141.57" width="11.3" height="0.35" transform="translate(-114.67 63.88) rotate(-51.87)"/><rect class="cls-12" x="34.19" y="130.85" width="0.35" height="16.31" transform="translate(-54.43 2.21) rotate(-17.24)"/><polygon class="cls-12" points="19.08 123.26 19.04 122.91 31.61 121.39 31.65 121.74 19.08 123.26"/><rect class="cls-12" x="34.79" y="142.01" width="13.95" height="0.35" transform="translate(-102.26 55.47) rotate(-44.34)"/><rect class="cls-12" x="46.99" y="132.46" width="0.35" height="13.31" transform="translate(-44.19 -0.46) rotate(-12.69)"/><rect class="cls-12" x="31.65" y="141.65" width="0.35" height="9.96" transform="translate(-131.82 151.2) rotate(-84.95)"/><path class="cls-12" d="M35.15,131.43s-.34.09-.84.18l-.86.15-.49.07-.5.06a8.79,8.79,0,0,1-1,.16A1.46,1.46,0,0,1,31,132a2.4,2.4,0,0,1-.39-.17,2.59,2.59,0,0,1-.58-.42l-.16-.17-.06-.07V131l.06-.06.18-.15a2.33,2.33,0,0,1,.27-.18,2.51,2.51,0,0,1,.35-.17,2.35,2.35,0,0,1,.41-.12,1.47,1.47,0,0,1,.45,0,9.1,9.1,0,0,1,1,.27l.49.12.47.12.84.25c.49.15.82.28.82.28Z" transform="translate(-14.78 -14.22)"/><path class="cls-12" d="M39.34,144.63l-.39.07-.4.06-.45.05c-.15,0-.31.06-.46.06a1,1,0,0,1-.39-.11,1.26,1.26,0,0,1-.27-.18l-.1-.1v-.07l.11-.09a1.23,1.23,0,0,1,.29-.14,1,1,0,0,1,.4-.06c.14,0,.29.08.45.11l.45.1.39.1.38.12Z" transform="translate(-14.78 -14.22)"/><path class="cls-12" d="M37.12,149.52l-.39.07-.4.06-.45,0c-.15,0-.31.06-.46.06a1,1,0,0,1-.39-.11,1.29,1.29,0,0,1-.27-.18l-.1-.1v-.07l.11-.09a1.25,1.25,0,0,1,.29-.14,1,1,0,0,1,.4-.06c.14,0,.29.08.44.11l.45.1.39.1.38.12Z" transform="translate(-14.78 -14.22)"/><path class="cls-12" d="M47.92,135.21a.18.18,0,0,1,0-.34,2.93,2.93,0,0,0,2.19-2,1.51,1.51,0,0,0-.26-1.47,1,1,0,0,0-1.06-.16c-.52.16-1,.29-1.47.41l-1.12.31c-.38.11-.36.35-.25.82l0,.1a.17.17,0,1,1-.34.08l0-.1c-.09-.36-.24-1,.49-1.24l1.13-.32c.46-.12.94-.25,1.46-.41a1.37,1.37,0,0,1,1.4.24,1.86,1.86,0,0,1,.35,1.81A3.28,3.28,0,0,1,48,135.21Z" transform="translate(-14.78 -14.22)"/><path class="cls-12" d="M35.89,149.59h-.06a.18.18,0,0,1-.1-.23l1.84-4.92a.17.17,0,0,1,.22-.1.18.18,0,0,1,.1.23l-1.84,4.92A.17.17,0,0,1,35.89,149.59Z" transform="translate(-14.78 -14.22)"/><path class="cls-12" d="M171.52,74.59H172l.95-1.68.66,1.51,1.17-1,.43,1,1.34-1,1,2.42.33-1.31H180l2-3.52.87,4.21.72-3.7.76,3h1.38a8.86,8.86,0,0,0,.6-3.08,7.86,7.86,0,0,0-7.86-7.86c-4.34,0-7.14,4.81-7.14,4.81h0Z" transform="translate(-14.78 -14.22)"/><path class="cls-12" d="M160.12,74.59,162,71.44l1,3.15h3.39v.28l.47-.28h1.32l1.33-5.08.27,5.68,1.35-6.9c-.55-.85-3.18-4.64-7-4.64a7.86,7.86,0,0,0-7.86,7.86,8.86,8.86,0,0,0,.59,3.08Z" transform="translate(-14.78 -14.22)"/><path class="cls-12" d="M183.83,75.16l-.24-1-.78,4-1.13-5.47-1.38,2.48h-2l-.64,2.53-1.39-3.33-1.33,1-.41-.94-1.17,1-.51-1.16-.55,1H171l-.11-2.5-1.41,7.24-.32-6.67-.5,1.92H167l-1.2.72v-.72h-3.24l-.73-2.35-1.42,2.35h-3.37c3.13,7.27,14.18,13.74,14.18,13.74s11-6.46,14.18-13.74Z" transform="translate(-14.78 -14.22)"/><circle class="cls-14" cx="26.47" cy="61.04" r="20.45"/><path class="cls-12" d="M45.19,64.44c0,4.11-4.14,5.34-4.14,5.34s-4.14-1.23-4.14-5.34S37.36,57,41,57,45.19,60.32,45.19,64.44Z" transform="translate(-14.78 -14.22)"/><path class="cls-12" d="M43.79,72.85H38.31a9.62,9.62,0,0,0,1-5.15c-.08-3.49,3.74-3,3.41,0A8.44,8.44,0,0,0,43.79,72.85Z" transform="translate(-14.78 -14.22)"/><path class="cls-12" d="M47,72.4c-.29-1.41-3.55-1.48-4.2-2.42s-3.07-1.05-3.59,0S35.38,71,35,72.4s2.62,11.51,1.5,12.4,10.59,2.5,9.12-.07S47.25,73.75,47,72.4Z" transform="translate(-14.78 -14.22)"/><ellipse class="cls-12" cx="26.27" cy="73.38" rx="5.85" ry="4.44"/><path class="cls-12" d="M46.17,85.44S52,87,54,87.86c1.36.58,1.47,2.3-.08,3.16s-10.36.6-10.36.6Z" transform="translate(-14.78 -14.22)"/><path class="cls-12" d="M42.29,90.86C45.55,91.1,50,87.79,53,88.16c1.47.17,2.47,1.09,1.41,2.51s-12.07,1.66-12.07,1.66A31.74,31.74,0,0,1,38,93.53c-.39.06-1.17-.65-.72-.88a16.5,16.5,0,0,0,2.84-1.4C40.6,90.74,41.77,90.82,42.29,90.86Z" transform="translate(-14.78 -14.22)"/><path class="cls-12" d="M42.9,84.06c-1.11.11-1.34-1.24-.17-1.24,2.58,0,4.42-2.7,5.69-2,.08-.72-1.84-4.33-2.15-5.33s-1.44-3.93.37-3.64c1.22.2,2.7,3.79,3.39,6.71a12.93,12.93,0,0,1,.33,3.32c0,.21-.3.25-.47.42a3.29,3.29,0,0,1-.78.69C46.9,84.26,43.92,84,42.9,84.06Z" transform="translate(-14.78 -14.22)"/><path class="cls-12" d="M42.05,84.2s-.61-.08-.64-.61a7.14,7.14,0,0,1,0-1.75.31.31,0,0,0,.08-.25s-.14-1.41-.14-2,.5-.38.5,0a13.55,13.55,0,0,0,.36,1.75s.3,1,.77,1.16.89.28.89.28L44.07,84Z" transform="translate(-14.78 -14.22)"/><path class="cls-12" d="M41.62,81.49l.95.62a6.39,6.39,0,0,1-.2-1A13.56,13.56,0,0,1,42,79.34c0-.38-.5-.58-.5,0s.14,2,.14,2A.27.27,0,0,1,41.62,81.49Z" transform="translate(-14.78 -14.22)"/><path class="cls-12" d="M42.37,81.74a4.69,4.69,0,0,1-.75-.59c-.07-.14-.21-.34-.36-.57s-.41.07-.29.37.48,1.12.38,1.27" transform="translate(-14.78 -14.22)"/><path class="cls-12" d="M36.32,85.44S30.46,87,28.51,87.86c-1.36.58-1.47,2.3.08,3.16s10.36.6,10.36.6Z" transform="translate(-14.78 -14.22)"/><path class="cls-12" d="M40.19,90.86c-3.26.25-7.67-3.06-10.74-2.69C28,88.34,27,89.25,28,90.67s12.07,1.66,12.07,1.66a31.72,31.72,0,0,0,4.42,1.21c.39.06,1.17-.65.72-.88a16.47,16.47,0,0,1-2.84-1.4C41.88,90.74,40.72,90.82,40.19,90.86Z" transform="translate(-14.78 -14.22)"/><path class="cls-12" d="M39.58,84.06c1.11.11,1.34-1.24.17-1.24-2.58,0-4.42-2.7-5.69-2-.08-.72,1.84-4.33,2.15-5.33s1.44-3.93-.37-3.64c-1.22.2-2.7,3.79-3.39,6.71a12.94,12.94,0,0,0-.33,3.32c0,.21.3.25.47.42a3.27,3.27,0,0,0,.78.69C35.58,84.26,38.57,84,39.58,84.06Z" transform="translate(-14.78 -14.22)"/><path class="cls-12" d="M40.44,84.2s.61-.08.64-.61a7.2,7.2,0,0,0,0-1.75.31.31,0,0,1-.08-.25s.14-1.41.14-2-.5-.38-.5,0a13.55,13.55,0,0,1-.36,1.75s-.3,1-.78,1.16-.89.28-.89.28L38.42,84Z" transform="translate(-14.78 -14.22)"/><path class="cls-12" d="M40.86,81.49l-.95.62a6.39,6.39,0,0,0,.2-1,13.56,13.56,0,0,0,.36-1.75c0-.38.5-.58.5,0s-.14,2-.14,2A.27.27,0,0,0,40.86,81.49Z" transform="translate(-14.78 -14.22)"/><path class="cls-12" d="M40.11,81.74a4.74,4.74,0,0,0,.75-.59c.07-.14.21-.34.36-.57s.41.07.29.37-.48,1.12-.38,1.27" transform="translate(-14.78 -14.22)"/></g></g></svg>