<svg id="Layer_1" data-name="Layer 1" xmlns="http://www.w3.org/2000/svg" viewBox="0 0 179 47.85"><defs><style>.cls-1{fill:#98002e;}.cls-2{fill:#005596;}.cls-3{fill:#fff;}.cls-4{fill:#cccccb;}.cls-5{fill:#981b1e;}.cls-6{fill:#231f20;}</style></defs><title>RetailCardiosmart</title><path class="cls-1" d="M37.76,15.23a13.57,13.57,0,0,1,8.41-2.61,24.38,24.38,0,0,1,5.51.74,2.38,2.38,0,0,0,.87.12c0,.71.19,2.64.44,4.51a.66.66,0,0,1-.84.06c-.47-2.09-1.87-4.48-6.39-4.48-4.77,0-8.82,3-8.82,9.32s4.14,10,9.25,10a6.63,6.63,0,0,0,6.51-4.39.66.66,0,0,1,.81.12,11.41,11.41,0,0,1-1.5,4.2,6.37,6.37,0,0,0-1.09.31,18.62,18.62,0,0,1-4.92.71,13.81,13.81,0,0,1-7.76-2.06,9.85,9.85,0,0,1-4.42-8.43A10.13,10.13,0,0,1,37.76,15.23Z" transform="translate(-2.67 -3.18)"/><path class="cls-1" d="M61,27c.47-.15.53-.43.53-.89l0-1.41c0-1.13-.34-2.67-2.27-2.67-.87,0-1.93.43-2,1.38,0,.49-.06.86-.31,1a3.39,3.39,0,0,1-1.78.58.39.39,0,0,1-.44-.43c0-1.6,3.52-3.77,5.79-3.77s3.33,1.29,3.24,3.59l-.19,5.34c-.06,1.41.22,2.67,1.43,2.67a1.81,1.81,0,0,0,.78-.18c.16-.09.31-.21.41-.21s.22.18.22.4a3.28,3.28,0,0,1-2.62,1.35,2.5,2.5,0,0,1-2-1c-.12-.18-.31-.43-.5-.43a4.8,4.8,0,0,0-1.21.61,4.66,4.66,0,0,1-2.24.77,3.26,3.26,0,0,1-2.18-.71,2.85,2.85,0,0,1-1-2.15c0-1.2.59-1.9,2.59-2.61ZM59,32.4a3.55,3.55,0,0,0,1.9-.77c.37-.37.37-.8.41-1.44l.06-1.81c0-.34-.12-.4-.31-.4a6,6,0,0,0-1.28.31c-1.84.61-2.74,1.07-2.74,2.27A1.86,1.86,0,0,0,59,32.4Z" transform="translate(-2.67 -3.18)"/><path class="cls-1" d="M68.66,24.55c0-1.2,0-1.35-.84-1.9l-.28-.18a.41.41,0,0,1,0-.55,24.29,24.29,0,0,0,3.15-1.5c.16,0,.25.09.25.21V22.4q0,.23.09.28c1.09-.89,2.27-1.84,3.43-1.84a1.28,1.28,0,0,1,1.4,1.23,1.37,1.37,0,0,1-1.34,1.41,1.21,1.21,0,0,1-.69-.21,2.58,2.58,0,0,0-1.37-.49,1.39,1.39,0,0,0-1.12.61A4.6,4.6,0,0,0,71,25.75v4.17c0,2.21.06,2.58,1.25,2.67l1.12.09a.53.53,0,0,1-.06.77c-1.46-.06-2.37-.09-3.46-.09s-2.06,0-2.87.09a.53.53,0,0,1-.06-.77l.59-.09c1.15-.18,1.18-.46,1.18-2.67Z" transform="translate(-2.67 -3.18)"/><path class="cls-1" d="M88.16,28.88c0,2.42,0,3.56.9,3.56a5.15,5.15,0,0,0,1.34-.31c.22.06.25.83,0,1a23.68,23.68,0,0,0-4.11,1c-.19,0-.34-.09-.34-.25v-.52a3.37,3.37,0,0,0-.06-1h-.12a6.55,6.55,0,0,1-3.92,1.41A5.68,5.68,0,0,1,76,27.89c0-4.29,3.3-7.05,7.54-7.05a6.48,6.48,0,0,1,2.09.28c.16,0,.19-.18.19-.43V16.05c0-1.81,0-2-1-2.55l-.31-.18a.46.46,0,0,1,0-.61,22.32,22.32,0,0,0,3.36-1.29.34.34,0,0,1,.31.18c0,.92-.09,2.45-.09,3.8Zm-2.31-4.6a1.78,1.78,0,0,0-.34-1.2,3.27,3.27,0,0,0-2.62-1.29c-2.83,0-4.3,2.42-4.3,5.09s1.59,5.43,4.64,5.43a3.85,3.85,0,0,0,2.4-.86,1.84,1.84,0,0,0,.22-1.14Z" transform="translate(-2.67 -3.18)"/><path class="cls-1" d="M93.29,24.55c0-1.2,0-1.35-.84-1.9l-.28-.18a.41.41,0,0,1,0-.55,21.55,21.55,0,0,0,3.21-1.5c.16,0,.28.06.31.18-.06,1.07-.12,2.55-.12,3.8v5.52c0,2.21.06,2.52,1.18,2.67l.65.09a.53.53,0,0,1-.06.77c-.93-.06-1.84-.09-2.93-.09s-2.06,0-2.93.09a.53.53,0,0,1-.06-.77l.65-.09c1.15-.15,1.18-.46,1.18-2.67Zm2.59-8.74a1.62,1.62,0,0,1-3.24.06,1.61,1.61,0,0,1,1.68-1.66A1.54,1.54,0,0,1,95.88,15.81Z" transform="translate(-2.67 -3.18)"/><path class="cls-1" d="M111.74,27.19a6.31,6.31,0,0,1-6.57,6.59,6.11,6.11,0,0,1-6.39-6.32,6.5,6.5,0,0,1,6.63-6.63A6.18,6.18,0,0,1,111.74,27.19ZM105,21.76c-2.06,0-3.58,1.93-3.58,5.31,0,2.79,1.28,5.8,4,5.8s3.58-2.82,3.58-5.18C109.06,25.07,108,21.76,105,21.76Z" transform="translate(-2.67 -3.18)"/><path class="cls-2" d="M119.24,33.85a9.84,9.84,0,0,1-4.86-1.14,14,14,0,0,1-.84-4.29c.16-.21.62-.28.75-.09.47,1.56,1.74,4.57,5.36,4.57,2.62,0,3.89-1.69,3.89-3.53,0-1.35-.28-2.85-2.55-4.29l-3-1.9c-1.56-1-3.36-2.76-3.36-5.28,0-2.91,2.31-5.28,6.35-5.28a12.22,12.22,0,0,1,2.9.4,4.24,4.24,0,0,0,1.09.18,13.24,13.24,0,0,1,.56,3.74c-.12.18-.62.28-.78.09-.4-1.47-1.25-3.47-4.24-3.47s-3.71,2-3.71,3.4c0,1.78,1.5,3.07,2.65,3.77L122,22.28c2,1.2,3.89,3,3.89,5.89C125.88,31.54,123.29,33.85,119.24,33.85Z" transform="translate(-2.67 -3.18)"/><path class="cls-2" d="M145.75,25.47c0-2.09-.93-3.16-2.9-3.16a3.38,3.38,0,0,0-2.59,1.07c-.37.46-.47.77-.47,1.84v4.69c0,2.21.06,2.52,1.18,2.67l.65.09a.53.53,0,0,1-.06.77c-.93-.06-1.84-.09-2.93-.09s-2,0-2.83.09a.53.53,0,0,1-.06-.77l.56-.09c1.15-.18,1.18-.46,1.18-2.67V25.47c0-2.06-.93-3.16-2.87-3.16a3.36,3.36,0,0,0-2.62,1.1,2.37,2.37,0,0,0-.47,1.75v4.75c0,2.21.06,2.48,1.18,2.67l.56.09a.53.53,0,0,1-.06.77c-.84-.06-1.74-.09-2.83-.09s-2.06,0-3,.09a.53.53,0,0,1-.06-.77l.75-.09c1.15-.15,1.18-.46,1.18-2.67V24.55c0-1.2,0-1.35-.84-1.9l-.28-.18a.41.41,0,0,1,0-.55,17.08,17.08,0,0,0,3.12-1.5.36.36,0,0,1,.34.21c-.06.71-.06,1.17-.06,1.44a.32.32,0,0,0,.34.34A7.55,7.55,0,0,1,136,20.84a3.57,3.57,0,0,1,3.3,1.81,1,1,0,0,0,.78-.25,7.88,7.88,0,0,1,4.24-1.56,3.49,3.49,0,0,1,3.71,3.8v5.28c0,2.21.06,2.52,1.18,2.67l.75.09a.53.53,0,0,1-.06.77c-1-.06-1.93-.09-3-.09s-2,0-2.83.09a.53.53,0,0,1-.06-.77l.56-.09c1.15-.18,1.18-.46,1.18-2.67Z" transform="translate(-2.67 -3.18)"/><path class="cls-2" d="M157.52,27c.47-.15.53-.43.53-.89l0-1.41c0-1.13-.34-2.67-2.27-2.67-.87,0-1.93.43-2,1.38,0,.49-.06.86-.31,1a3.39,3.39,0,0,1-1.78.58.39.39,0,0,1-.44-.43c0-1.6,3.52-3.77,5.79-3.77s3.33,1.29,3.24,3.59l-.19,5.34c-.06,1.41.22,2.67,1.43,2.67a1.82,1.82,0,0,0,.78-.18c.16-.09.31-.21.4-.21s.22.18.22.4a3.28,3.28,0,0,1-2.62,1.35,2.5,2.5,0,0,1-2-1c-.12-.18-.31-.43-.5-.43a4.82,4.82,0,0,0-1.21.61,4.65,4.65,0,0,1-2.24.77,3.26,3.26,0,0,1-2.18-.71,2.85,2.85,0,0,1-1-2.15c0-1.2.59-1.9,2.59-2.61Zm-1.93,5.4a3.55,3.55,0,0,0,1.9-.77c.37-.37.37-.8.4-1.44l.06-1.81c0-.34-.12-.4-.31-.4a6,6,0,0,0-1.28.31c-1.84.61-2.74,1.07-2.74,2.27A1.86,1.86,0,0,0,155.59,32.4Z" transform="translate(-2.67 -3.18)"/><path class="cls-2" d="M165.22,24.55c0-1.2,0-1.35-.84-1.9l-.28-.18a.41.41,0,0,1,0-.55,24.32,24.32,0,0,0,3.15-1.5c.16,0,.25.09.25.21V22.4q0,.23.09.28c1.09-.89,2.27-1.84,3.43-1.84a1.28,1.28,0,0,1,1.4,1.23,1.37,1.37,0,0,1-1.34,1.41,1.21,1.21,0,0,1-.68-.21,2.58,2.58,0,0,0-1.37-.49,1.39,1.39,0,0,0-1.12.61,4.6,4.6,0,0,0-.4,2.36v4.17c0,2.21.06,2.58,1.25,2.67l1.12.09a.53.53,0,0,1-.06.77c-1.46-.06-2.37-.09-3.46-.09s-2.06,0-2.87.09a.53.53,0,0,1-.06-.77l.59-.09c1.15-.18,1.18-.46,1.18-2.67Z" transform="translate(-2.67 -3.18)"/><path class="cls-2" d="M177.8,22.56c-.53,0-.56.09-.56.74V29c0,1.78.22,3.4,2.27,3.4a2.42,2.42,0,0,0,.84-.15c.28-.09.68-.43.78-.43.25,0,.37.34.31.52a4.34,4.34,0,0,1-3.27,1.41c-2.68,0-3.24-1.47-3.24-3.31v-7c0-.83,0-.89-.65-.89h-.87a.51.51,0,0,1-.09-.64,6.22,6.22,0,0,0,2-1,7.61,7.61,0,0,0,1.31-1.81c.16-.06.53-.06.65.15v1.38c0,.55,0,.58.56.58h3.46a1,1,0,0,1,0,1.29Z" transform="translate(-2.67 -3.18)"/><path class="cls-3" d="M15.42,39.23c-.36,0-.36,0-1-1.24C13.38,36,10.64,30.9,9,29.31,6.57,27,4.06,24.55,3.09,20.51,1.49,13.82,4.55,7,10.38,4.33a12.48,12.48,0,0,1,2.41-.82C20,1.83,27.33,6.74,29.18,14.44c.92,3.82-.11,6.92-1.1,9.92l-.18.55c-1.28,3.91-.93,8.9-.82,10.54,0,.63.05.9-.33,1.11C21.28,39.51,21.1,39.55,15.42,39.23Z" transform="translate(-2.67 -3.18)"/><path class="cls-4" d="M15.84,38c3.91.44,3.78.71,10-2.28,0,0,0-.18,0-.21-.12-1.7-.48-6.87.88-11l.18-.55c.94-2.84,1.91-5.77,1.08-9.26-1.69-7-8.37-11.55-14.9-10a11.29,11.29,0,0,0-2.16.74C5.61,7.88,2.84,14.1,4.31,20.22c.89,3.7,3.26,6,5.55,8.2,1.8,1.73,4.51,6.82,5.66,9Z" transform="translate(-2.67 -3.18)"/><path class="cls-2" d="M15.42,39.23c-.36,0-.36,0-1-1.24C13.38,36,10.64,30.9,9,29.31,6.57,27,4.06,24.55,3.09,20.51,1.49,13.82,4.55,7,10.38,4.33a12.48,12.48,0,0,1,2.41-.82C20,1.83,27.33,6.74,29.18,14.44c.91,3.82-.11,6.92-1.1,9.92l-.18.55c-1.28,3.91-.94,8.9-.82,10.54,0,.63.05.9-.33,1.11C21.28,39.51,21.1,39.55,15.42,39.23Zm.42-1.2c3.91.44,3.78.71,10-2.28,0,0,0-.18,0-.21-.12-1.7-.48-6.87.88-11l.18-.55c.94-2.84,1.91-5.77,1.08-9.26-1.69-7-8.37-11.55-14.9-10a11.28,11.28,0,0,0-2.16.74C5.61,7.88,2.84,14.1,4.31,20.22c.89,3.7,3.26,6,5.55,8.2,1.8,1.73,4.51,6.82,5.66,9Z" transform="translate(-2.67 -3.18)"/><path class="cls-5" d="M16.49,26.69q-.49-.39-1-.83h0c-1.4-.93-5.78-4.47-6.11-5.6h0a4.79,4.79,0,0,1,.46-4h0a3.89,3.89,0,0,1,2.18-1.66h0a4,4,0,0,1,1.56-.1h0a6,6,0,0,1,1.85.58h0l.28.15h0a7,7,0,0,1,.48-.73h0a5.56,5.56,0,0,1,.95-1h0a3.89,3.89,0,0,1,1.38-.72h0a3.93,3.93,0,0,1,2.74.29h0a4.86,4.86,0,0,1,2.51,3.15h0a7.21,7.21,0,0,1,0,3.86h0c-.59,2.21-2.28,4.47-3.07,5.89-2.21,4,0,10.32,0,10.32s-1.23.27-1.23.23c-1.83-9.24-1-9.1,0-10.8,0,0,2.81-4.06,3.33-6h0a5.92,5.92,0,0,0,0-3.17h0a3.6,3.6,0,0,0-1.84-2.35h0a2.9,2.9,0,0,0-2-.23h0a2.88,2.88,0,0,0-1,.54h0a4.78,4.78,0,0,0-1,1.19h0c-.12.18-.2.34-.26.46h0l-.06.13h0v0h0a.5.5,0,0,1-.33.3h0a.52.52,0,0,1-.44-.08h0A5.61,5.61,0,0,0,14.6,16h0a4.43,4.43,0,0,0-1.06-.27h0a3,3,0,0,0-1.15.07h0A2.88,2.88,0,0,0,10.77,17h0A3.54,3.54,0,0,0,10.46,20h0c.25.88,4.83,4.15,5.75,5h0c.27.26.55.5.83.73l.06,0Z" transform="translate(-2.67 -3.18)"/><path class="cls-1" d="M21.61,37.71s-2,.68-2,.46c-2-9.58-1.48-10.38-.45-12.56l0,0s2.78-4,3.29-5.94a5.69,5.69,0,0,0,0-3,3.34,3.34,0,0,0-1.68-2.17A2.62,2.62,0,0,0,19,14.23a2.65,2.65,0,0,0-.93.49,4.51,4.51,0,0,0-1,1.11,4.43,4.43,0,0,0-.25.43l-.06.12v0a.8.8,0,0,1-.52.46.82.82,0,0,1-.7-.12,5.09,5.09,0,0,0-1-.52,4.14,4.14,0,0,0-1-.26,2.68,2.68,0,0,0-1,.07A2.88,2.88,0,0,0,11,17.17,2.17,2.17,0,0,0,10.88,20a38.92,38.92,0,0,0,3.8,3.41c.77.6,2.82,2.34,2.82,2.34l-.94,1.41S10,21.78,9.22,20.65a3.84,3.84,0,0,1,0-4.33,5.38,5.38,0,0,1,2.73-2,4.26,4.26,0,0,1,1.69-.11,6.16,6.16,0,0,1,1.94.6l0,0c.11-.18.23-.36.36-.53a5.77,5.77,0,0,1,1-1,4.08,4.08,0,0,1,4.42-.46,5.12,5.12,0,0,1,2.67,3.33,7.53,7.53,0,0,1,0,4,18.57,18.57,0,0,1-2.34,4.71A9.28,9.28,0,0,0,21,26.13C19,31,21.61,37.71,21.61,37.71Z" transform="translate(-2.67 -3.18)"/><path class="cls-5" d="M15.67,15.73a.29.29,0,0,0-.11-.35h0a5.6,5.6,0,0,0-3.66-.84h0a.23.23,0,0,0-.17.28h0a.25.25,0,0,0,.26.23h0a5.18,5.18,0,0,1,3.39.77h0a.2.2,0,0,0,.16,0h0a.2.2,0,0,0,.13-.12Z" transform="translate(-2.67 -3.18)"/><path class="cls-2" d="M24.59,40.58c-2.64,1.22-6,1.92-8.81.86a.78.78,0,0,1-.46-1,.8.8,0,0,1,1-.45c3.15,1.19,7.8-.38,10.31-2.51a.81.81,0,0,1,1.12.08.78.78,0,0,1-.08,1.11A13.85,13.85,0,0,1,24.59,40.58Z" transform="translate(-2.67 -3.18)"/><path class="cls-2" d="M25,43c-2.46,1.13-5.59,1.79-8.22.8a.78.78,0,0,1-.46-1,.8.8,0,0,1,1-.45c2.9,1.1,7.19-.35,9.5-2.32A.8.8,0,0,1,28,40.1a.78.78,0,0,1-.08,1.11A12.87,12.87,0,0,1,25,43Z" transform="translate(-2.67 -3.18)"/><path class="cls-2" d="M25.33,45.44c-2.19,1-5,1.59-7.33.71a.78.78,0,0,1-.46-1,.8.8,0,0,1,1-.45c2.53,1,6.27-.31,8.29-2a.81.81,0,0,1,1.12.08.78.78,0,0,1-.08,1.11A11.47,11.47,0,0,1,25.33,45.44Z" transform="translate(-2.67 -3.18)"/><path class="cls-2" d="M25.87,45.16c.26,1.07-.7,2.21-2.14,2.55s-2.82-.25-3.08-1.31S25.61,44.09,25.87,45.16Z" transform="translate(-2.67 -3.18)"/><path class="cls-3" d="M36.27,45.21c-.3,0-.29,0-.39.31l-.47,1.36c-.23.67-.18.69.24.76l.33.06c.08.08.07.28,0,.33-.37,0-.75,0-1.22,0S34,48,33.6,48a.25.25,0,0,1,0-.33l.35-.06c.33-.06.46-.15.63-.52s.32-.77.56-1.38l1.58-4a1.93,1.93,0,0,0,.22-.83,2,2,0,0,0,.81-.54.23.23,0,0,1,.2.09c.18.51.33,1,.52,1.55l1.66,4.75c.26.76.32.83.91.94l.17,0a.24.24,0,0,1,0,.33c-.47,0-.9,0-1.5,0s-1,0-1.4,0a.26.26,0,0,1,0-.33l.25,0c.41-.06.47-.12.3-.6l-.54-1.54c-.1-.31-.15-.31-.47-.31Zm1.38-.51c.32,0,.37,0,.28-.29L37.44,43a6.9,6.9,0,0,0-.32-.89h0c0,.08-.15.36-.35.89l-.48,1.33c-.11.33-.09.33.18.33Z" transform="translate(-2.67 -3.18)"/><path class="cls-3" d="M42.38,45c0-.51,0-.65-.29-.82L42,44.07a.3.3,0,0,1,0-.26,7.56,7.56,0,0,0,1.5-.61.16.16,0,0,1,.15.09,5,5,0,0,0,0,.52c0,.08,0,.1.1.11a2.94,2.94,0,0,1,1.64-.57,1.33,1.33,0,0,1,1,.48c.07.1.14.17.18.17a.67.67,0,0,0,.25-.11,2.69,2.69,0,0,1,1.47-.53,1.33,1.33,0,0,1,1.4,1.52v1.76c0,.84,0,1,.44,1l.25,0c.1.08,0,.28,0,.33-.49,0-.89,0-1.31,0s-.77,0-1.18,0c-.09,0-.1-.25,0-.33l.18,0c.39-.07.44-.18.44-1V45.09c0-.6-.21-1.05-.93-1.05a1,1,0,0,0-.77.34c-.12.14-.14.27-.14.59v1.66c0,.84,0,1,.44,1l.17,0c.08.08.07.28,0,.33-.4,0-.78,0-1.21,0s-.77,0-1.15,0c-.09,0-.1-.25,0-.33l.15,0c.39-.06.44-.19.44-1V45.09c0-.6-.21-1.05-.87-1.05a1,1,0,0,0-.82.35c-.14.18-.15.28-.15.72v1.52c0,.84,0,1,.44,1l.17,0c.08.08.07.28,0,.33-.4,0-.79,0-1.22,0s-.76,0-1.2,0c-.09,0-.1-.25,0-.33l.21,0c.39-.07.44-.18.44-1Z" transform="translate(-2.67 -3.18)"/><path class="cls-3" d="M52,45.3c-.22,0-.24,0-.24.15a1.74,1.74,0,0,0,1.74,1.83,1.2,1.2,0,0,0,1.1-.57.22.22,0,0,1,.25.18,2.08,2.08,0,0,1-1.94,1.25,2.15,2.15,0,0,1-2.22-2.27,2.41,2.41,0,0,1,2.43-2.51,1.6,1.6,0,0,1,1.73,1.53.51.51,0,0,1-.06.26c-.07.1-.33.15-.79.15Zm1.06-.45a1.22,1.22,0,0,0,.56-.08.28.28,0,0,0,.12-.24.7.7,0,0,0-.76-.74,1.17,1.17,0,0,0-1.13,1s0,.08.16.08Z" transform="translate(-2.67 -3.18)"/><path class="cls-3" d="M56,45c0-.51,0-.65-.29-.82l-.14-.08a.3.3,0,0,1,0-.26A8.26,8.26,0,0,0,57,43.2a.16.16,0,0,1,.16.1c0,.22,0,.41,0,.51a.12.12,0,0,0,.12.14,2.32,2.32,0,0,1,1.13-.59.57.57,0,0,1,.63.55.63.63,0,0,1-.64.66.59.59,0,0,1-.31-.09,1.05,1.05,0,0,0-.55-.22c-.26,0-.33.26-.33.82v1.55c0,.84,0,1,.45,1l.45,0c.08.08.07.28,0,.33l-1.51,0c-.38,0-.76,0-1.2,0-.09,0-.1-.25,0-.33l.21,0c.39-.07.44-.18.44-1Z" transform="translate(-2.67 -3.18)"/><path class="cls-3" d="M61.21,46.63c0,.84,0,1,.44,1l.21,0c.08.08.07.28,0,.33-.43,0-.82,0-1.24,0s-.77,0-1.21,0c-.09,0-.1-.25,0-.33l.21,0c.39-.07.44-.18.44-1V45c0-.51,0-.65-.29-.82l-.14-.08a.3.3,0,0,1,0-.26,6.86,6.86,0,0,0,1.5-.61.21.21,0,0,1,.16.09c0,.37,0,.92,0,1.38Zm-1.31-5a.7.7,0,1,1,.7.68A.67.67,0,0,1,59.9,41.64Z" transform="translate(-2.67 -3.18)"/><path class="cls-3" d="M66,43.52a.73.73,0,0,1,.23.58c0,.36-.2.53-.29.53a.25.25,0,0,1-.22-.12,1.44,1.44,0,0,0-1-.69,1.52,1.52,0,0,0-1.33,1.7A1.68,1.68,0,0,0,65,47.3a1.28,1.28,0,0,0,1.24-.6.23.23,0,0,1,.24.2,2.15,2.15,0,0,1-2,1.23,2.36,2.36,0,0,1-1.6-.61,2.26,2.26,0,0,1-.67-1.63A2.57,2.57,0,0,1,65,43.36,3,3,0,0,1,66,43.52Z" transform="translate(-2.67 -3.18)"/><path class="cls-3" d="M70.54,46.54c0,.66.14,1,.55,1a1.07,1.07,0,0,0,.39-.12c.06,0,.14.12.1.23a1.6,1.6,0,0,1-1.15.5,1.11,1.11,0,0,1-.83-.32c-.08-.08-.13-.14-.18-.14s-.14.06-.31.16a1.88,1.88,0,0,1-1,.29A1.08,1.08,0,0,1,67,47c0-.41.16-.78,1-1.05l1.27-.45c.23-.08.26-.18.26-.29v-.29c0-.58-.14-1.08-.7-1.08a.56.56,0,0,0-.61.5.48.48,0,0,1-.22.41,1.6,1.6,0,0,1-.74.2C67,45,67,44.9,67,44.8s.07-.37.45-.72a3.18,3.18,0,0,1,1.77-.71c.91,0,1.47.42,1.43,1.42Zm-1.13-.39c0-.12,0-.19-.09-.19a1.89,1.89,0,0,0-.51.14c-.32.11-.62.27-.62.76a.64.64,0,0,0,.64.66.51.51,0,0,0,.55-.54Z" transform="translate(-2.67 -3.18)"/><path class="cls-3" d="M73.88,46.63c0,.84,0,1,.44,1l.17,0c.08.08.07.28,0,.33-.4,0-.79,0-1.22,0s-.76,0-1.24,0c-.09,0-.1-.25,0-.33l.25,0c.39-.06.44-.18.44-1V45c0-.51,0-.65-.29-.82l-.14-.08a.3.3,0,0,1,0-.26,7.85,7.85,0,0,0,1.5-.61.16.16,0,0,1,.15.09,5,5,0,0,0,0,.52c0,.08,0,.1.1.11a2.85,2.85,0,0,1,1.58-.57c.93,0,1.37.63,1.37,1.52v1.76c0,.84,0,1,.44,1l.26,0c.08.08.07.28,0,.33-.48,0-.87,0-1.3,0s-.77,0-1.17,0c-.09,0-.1-.25,0-.33l.17,0c.39-.06.44-.19.44-1V45.07c0-.58-.23-1-.92-1a1,1,0,0,0-.76.35c-.15.2-.16.31-.16.72Z" transform="translate(-2.67 -3.18)"/><path class="cls-3" d="M88.19,42.41a.3.3,0,0,1-.37,0,2.1,2.1,0,0,0-2.23-1.65c-1.46,0-2.93,1-2.93,3.34s1.53,3.59,3,3.59A2.5,2.5,0,0,0,88.08,46a.23.23,0,0,1,.35,0,4.35,4.35,0,0,1-.55,1.72,4.13,4.13,0,0,0-.4.1,7,7,0,0,1-1.79.27,5.3,5.3,0,0,1-2.94-.76,3.55,3.55,0,0,1-1.63-3.11,3.68,3.68,0,0,1,1.45-3,5.39,5.39,0,0,1,3.17-1,9,9,0,0,1,2,.25l.32.07C88.05,40.9,88.08,41.57,88.19,42.41Z" transform="translate(-2.67 -3.18)"/><path class="cls-3" d="M94,45.69a2.34,2.34,0,0,1-2.52,2.45A2.26,2.26,0,0,1,89,45.83a2.43,2.43,0,0,1,2.52-2.47A2.29,2.29,0,0,1,94,45.69Zm-2.38,2c.79,0,1-.93,1-1.8s-.33-2.07-1.18-2.07c-.59,0-1,.59-1,1.85C90.4,46.69,90.78,47.69,91.6,47.69Z" transform="translate(-2.67 -3.18)"/><path class="cls-3" d="M95,41.77c0-.76,0-.83-.3-1l-.13-.08c-.07,0-.08-.23,0-.26.45-.12,1-.36,1.51-.54a.15.15,0,0,1,.16.09c0,.45,0,1.16,0,1.64v5c0,.84,0,1,.44,1l.25,0c.08.08.07.28,0,.33-.47,0-.86,0-1.29,0s-.77,0-1.24,0c-.09,0-.1-.25,0-.33l.24,0c.39-.06.44-.18.44-1Z" transform="translate(-2.67 -3.18)"/><path class="cls-3" d="M98.15,41.77c0-.76,0-.83-.3-1l-.13-.08c-.07,0-.08-.23,0-.26.45-.12,1-.36,1.51-.54a.15.15,0,0,1,.16.09c0,.45,0,1.16,0,1.64v5c0,.84,0,1,.44,1l.25,0c.08.08.07.28,0,.33-.47,0-.86,0-1.29,0S98,48,97.5,48c-.09,0-.1-.25,0-.33l.24,0c.39-.06.44-.18.44-1Z" transform="translate(-2.67 -3.18)"/><path class="cls-3" d="M101.71,45.3c-.22,0-.24,0-.24.15a1.74,1.74,0,0,0,1.74,1.83,1.2,1.2,0,0,0,1.1-.57.22.22,0,0,1,.25.18,2.08,2.08,0,0,1-1.94,1.25,2.15,2.15,0,0,1-2.22-2.27,2.41,2.41,0,0,1,2.43-2.51,1.6,1.6,0,0,1,1.73,1.53.51.51,0,0,1-.06.26c-.07.1-.33.15-.79.15Zm1.06-.45a1.22,1.22,0,0,0,.56-.08.28.28,0,0,0,.12-.24.7.7,0,0,0-.76-.74,1.17,1.17,0,0,0-1.13,1s0,.08.16.08Z" transform="translate(-2.67 -3.18)"/><path class="cls-3" d="M109.18,44.36a1.55,1.55,0,0,1,.06.49,1.87,1.87,0,0,1-2.1,1.87,3,3,0,0,1-.44,0,.54.54,0,0,0-.36.44c0,.23.16.44.63.44l1.27,0c.83,0,1.87.14,1.87,1.37a1.92,1.92,0,0,1-.72,1.38,3.48,3.48,0,0,1-2.23.75c-1.62,0-2.15-.75-2.15-1.34a.69.69,0,0,1,.16-.49c.1-.11.54-.36.71-.51s.17-.22.07-.25a1.06,1.06,0,0,1-.76-.94.31.31,0,0,1,.18-.28c.17-.09.74-.44.74-.6s0-.1,0-.12a1.43,1.43,0,0,1-.85-1.35,1.9,1.9,0,0,1,2.1-1.79,2.67,2.67,0,0,1,1.16.24,1.25,1.25,0,0,0,.51.17h1.13a.26.26,0,0,1,.09.2c0,.23-.09.36-.18.39Zm-1.93,4.18a1.4,1.4,0,0,0-.78.14.78.78,0,0,0-.34.63c0,.69.62,1.14,1.51,1.14s1.53-.4,1.53-1.05-.54-.86-1.25-.86Zm.09-2.25c.44,0,.76-.37.76-1.17s-.33-1.33-.85-1.33-.76.37-.76,1.16S106.9,46.28,107.34,46.28Z" transform="translate(-2.67 -3.18)"/><path class="cls-3" d="M111.68,45.3c-.22,0-.24,0-.24.15a1.74,1.74,0,0,0,1.74,1.83,1.2,1.2,0,0,0,1.1-.57.22.22,0,0,1,.25.18,2.08,2.08,0,0,1-1.94,1.25,2.15,2.15,0,0,1-2.22-2.27,2.41,2.41,0,0,1,2.43-2.51,1.6,1.6,0,0,1,1.73,1.53.51.51,0,0,1-.06.26c-.07.1-.33.15-.79.15Zm1.06-.45a1.22,1.22,0,0,0,.56-.08.28.28,0,0,0,.12-.24.7.7,0,0,0-.76-.74,1.17,1.17,0,0,0-1.13,1s0,.08.16.08Z" transform="translate(-2.67 -3.18)"/><path class="cls-3" d="M119.31,44.12a2.51,2.51,0,0,1,1.75-.76,1.34,1.34,0,0,1,1.41,1.54,3.68,3.68,0,0,1-1.13,2.46,2.51,2.51,0,0,1-1.82.78,1.34,1.34,0,0,1-1.43-1.48A3.94,3.94,0,0,1,119.31,44.12Zm1.14,2.94a6.26,6.26,0,0,0,1-2.68c0-.31,0-.61-.37-.61s-.45.12-.75.5a5.83,5.83,0,0,0-1.14,2.88c0,.34.15.59.41.59S120.1,47.55,120.44,47.06Z" transform="translate(-2.67 -3.18)"/><path class="cls-3" d="M125.32,44c-.39,1.13-.9,3.19-1.25,4.3a5.23,5.23,0,0,1-.91,1.93,2.45,2.45,0,0,1-1.61.78c-.64,0-1.06-.36-1.06-.76a.65.65,0,0,1,.58-.59.37.37,0,0,1,.34.23c.23.4.48.62.68.62s.33-.18.56-1c.39-1.36.94-3.56,1.52-5.55h-1a.36.36,0,0,1,.14-.5h1a8.22,8.22,0,0,1,1-2.32,2.64,2.64,0,0,1,2.14-1.31,1,1,0,0,1,1.09.87.71.71,0,0,1-.62.66c-.16,0-.23-.07-.25-.23-.09-.66-.37-.89-.62-.89s-.39.15-.69.74a14.17,14.17,0,0,0-.89,2.49h1.37a.37.37,0,0,1-.14.5Z" transform="translate(-2.67 -3.18)"/><path class="cls-3" d="M137.71,42.41a.3.3,0,0,1-.37,0,2.1,2.1,0,0,0-2.23-1.65c-1.46,0-2.93,1-2.93,3.34s1.53,3.59,3,3.59a2.5,2.5,0,0,0,2.4-1.69.23.23,0,0,1,.34,0,4.35,4.35,0,0,1-.55,1.72,4.14,4.14,0,0,0-.4.1,7,7,0,0,1-1.79.27,5.3,5.3,0,0,1-2.94-.76,3.55,3.55,0,0,1-1.63-3.11,3.68,3.68,0,0,1,1.45-3,5.39,5.39,0,0,1,3.17-1,9,9,0,0,1,2,.25l.32.07C137.57,40.9,137.59,41.57,137.71,42.41Z" transform="translate(-2.67 -3.18)"/><path class="cls-3" d="M142.08,46.54c0,.66.14,1,.55,1a1.07,1.07,0,0,0,.39-.12c.06,0,.14.12.1.23a1.6,1.6,0,0,1-1.15.5,1.11,1.11,0,0,1-.83-.32c-.08-.08-.13-.14-.18-.14s-.14.06-.31.16a1.88,1.88,0,0,1-1,.29,1.08,1.08,0,0,1-1.17-1.1c0-.41.16-.78,1-1.05l1.27-.45c.23-.08.26-.18.26-.29v-.29c0-.58-.14-1.08-.7-1.08a.56.56,0,0,0-.61.5.48.48,0,0,1-.22.41,1.6,1.6,0,0,1-.74.2c-.15,0-.22-.08-.22-.18s.07-.37.45-.72a3.18,3.18,0,0,1,1.77-.71c.91,0,1.47.42,1.43,1.42ZM141,46.16c0-.12,0-.19-.09-.19a1.89,1.89,0,0,0-.51.14c-.32.11-.62.27-.62.76a.64.64,0,0,0,.64.66.51.51,0,0,0,.55-.54Z" transform="translate(-2.67 -3.18)"/><path class="cls-3" d="M144.2,45c0-.51,0-.65-.29-.82l-.14-.08a.3.3,0,0,1,0-.26,8.27,8.27,0,0,0,1.45-.61.16.16,0,0,1,.16.1c0,.22,0,.41,0,.51a.12.12,0,0,0,.12.14,2.32,2.32,0,0,1,1.13-.59.57.57,0,0,1,.63.55.63.63,0,0,1-.64.66.58.58,0,0,1-.31-.09,1.05,1.05,0,0,0-.55-.22c-.26,0-.33.26-.33.82v1.55c0,.84,0,1,.45,1l.45,0c.08.08.07.28,0,.33l-1.51,0c-.38,0-.76,0-1.2,0-.09,0-.1-.25,0-.33l.21,0c.39-.07.44-.18.44-1Z" transform="translate(-2.67 -3.18)"/><path class="cls-3" d="M152.11,46.13c0,1,.08,1.38.28,1.38a1.42,1.42,0,0,0,.48-.1c.09.07.12.34,0,.41a7.23,7.23,0,0,0-1.82.43.19.19,0,0,1-.14-.12l0-.17a.63.63,0,0,0,0-.32h-.06a2.23,2.23,0,0,1-1.32.51A2.11,2.11,0,0,1,147.41,46a2.62,2.62,0,0,1,2.76-2.61,2.36,2.36,0,0,1,.67.08s.07-.06.07-.18V41.77c0-.76,0-.83-.26-1l-.16-.1c-.07,0-.08-.23,0-.26.45-.12,1-.36,1.51-.54a.15.15,0,0,1,.16.09c0,.45,0,1.16,0,1.64Zm-1.21-1.39a.84.84,0,0,0-.15-.54.93.93,0,0,0-.77-.39c-.78,0-1.28.76-1.28,1.71,0,1.17.62,1.94,1.44,1.94a1.1,1.1,0,0,0,.68-.25.44.44,0,0,0,.08-.32Z" transform="translate(-2.67 -3.18)"/><path class="cls-3" d="M155.31,46.63c0,.84,0,1,.44,1l.21,0c.08.08.07.28,0,.33-.43,0-.82,0-1.24,0s-.77,0-1.21,0c-.09,0-.1-.25,0-.33l.21,0c.39-.07.44-.18.44-1V45c0-.51,0-.65-.29-.82l-.14-.08a.3.3,0,0,1,0-.26,6.86,6.86,0,0,0,1.5-.61.21.21,0,0,1,.16.09c0,.37,0,.92,0,1.38Zm-1.31-5a.7.7,0,1,1,.7.68A.67.67,0,0,1,154,41.64Z" transform="translate(-2.67 -3.18)"/><path class="cls-3" d="M161.27,45.69a2.34,2.34,0,0,1-2.52,2.45,2.26,2.26,0,0,1-2.43-2.31,2.43,2.43,0,0,1,2.52-2.47A2.29,2.29,0,0,1,161.27,45.69Zm-2.38,2c.79,0,1-.93,1-1.8s-.33-2.07-1.18-2.07c-.59,0-1,.59-1,1.85C157.68,46.69,158.06,47.69,158.89,47.69Z" transform="translate(-2.67 -3.18)"/><path class="cls-3" d="M162.33,41.77c0-.76,0-.83-.3-1l-.13-.08c-.07,0-.08-.23,0-.26.45-.12,1-.36,1.51-.54a.15.15,0,0,1,.16.09c0,.45,0,1.16,0,1.64v5c0,.84,0,1,.44,1l.25,0c.08.08.07.28,0,.33-.47,0-.86,0-1.29,0s-.77,0-1.24,0c-.09,0-.1-.25,0-.33l.24,0c.39-.06.44-.18.44-1Z" transform="translate(-2.67 -3.18)"/><path class="cls-3" d="M169.52,45.69A2.34,2.34,0,0,1,167,48.14a2.26,2.26,0,0,1-2.43-2.31,2.43,2.43,0,0,1,2.52-2.47A2.29,2.29,0,0,1,169.52,45.69Zm-2.38,2c.79,0,1-.93,1-1.8s-.33-2.07-1.18-2.07c-.59,0-1,.59-1,1.85C165.93,46.69,166.31,47.69,167.14,47.69Z" transform="translate(-2.67 -3.18)"/><path class="cls-3" d="M174.19,44.36a1.55,1.55,0,0,1,.06.49,1.87,1.87,0,0,1-2.1,1.87,3,3,0,0,1-.44,0,.54.54,0,0,0-.36.44c0,.23.16.44.63.44l1.27,0c.83,0,1.87.14,1.87,1.37a1.92,1.92,0,0,1-.72,1.38,3.48,3.48,0,0,1-2.23.75c-1.62,0-2.15-.75-2.15-1.34a.69.69,0,0,1,.16-.49c.1-.11.54-.36.71-.51s.17-.22.07-.25a1.06,1.06,0,0,1-.76-.94.31.31,0,0,1,.18-.28c.17-.09.74-.44.74-.6s0-.1,0-.12a1.43,1.43,0,0,1-.85-1.35,1.9,1.9,0,0,1,2.1-1.79,2.67,2.67,0,0,1,1.16.24,1.25,1.25,0,0,0,.51.17h1.13a.26.26,0,0,1,.09.2c0,.23-.09.36-.18.39Zm-1.93,4.18a1.4,1.4,0,0,0-.78.14.78.78,0,0,0-.35.63c0,.69.62,1.14,1.51,1.14s1.53-.4,1.53-1.05-.54-.86-1.25-.86Zm.09-2.25c.44,0,.76-.37.76-1.17s-.33-1.33-.85-1.33-.76.37-.76,1.16S171.91,46.28,172.35,46.28Z" transform="translate(-2.67 -3.18)"/><path class="cls-3" d="M175.71,50.2c0-.37.26-.5.59-.51h.25a.65.65,0,0,0,.48-.23A2.87,2.87,0,0,0,177.6,48a2.14,2.14,0,0,0-.2-.84l-.93-2.38c-.28-.7-.36-.87-.79-1l-.23,0c-.09-.09-.09-.28,0-.33.38,0,.85,0,1.28,0s.83,0,1.22,0c.09,0,.1.25,0,.33l-.34.07c-.26.06-.28.1-.08.6l.51,1.3a3.49,3.49,0,0,0,.39.86,3.42,3.42,0,0,0,.37-.7l.35-.76a6.59,6.59,0,0,0,.41-1.1c0-.1,0-.16-.22-.19l-.39-.08a.24.24,0,0,1,0-.33l1.09,0c.3,0,.61,0,.92,0,.11,0,.11.25,0,.33a1.53,1.53,0,0,0-.66.25,5,5,0,0,0-.7,1.14l-.59,1.16c-.39.77-1.41,2.79-1.9,3.83a.91.91,0,0,1-.87.61A.57.57,0,0,1,175.71,50.2Z" transform="translate(-2.67 -3.18)"/><path class="cls-6" d="M180.18,18.56a1.24,1.24,0,0,1,.59.15,1.1,1.1,0,0,1,.45.44,1.17,1.17,0,0,1,0,1.18,1.11,1.11,0,0,1-.44.44,1.22,1.22,0,0,1-1.19,0,1.11,1.11,0,0,1-.44-.44,1.17,1.17,0,0,1,0-1.18,1.1,1.1,0,0,1,.45-.44A1.24,1.24,0,0,1,180.18,18.56Zm0,.1a1.13,1.13,0,0,0-.54.14,1,1,0,0,0-.41.4,1.06,1.06,0,0,0,0,1.07,1,1,0,0,0,.4.4,1.11,1.11,0,0,0,1.09,0,1,1,0,0,0,.41-.4,1.06,1.06,0,0,0,0-1.07,1,1,0,0,0-.41-.4A1.14,1.14,0,0,0,180.18,18.66Zm-.66.35h.65a.56.56,0,0,1,.37.11.33.33,0,0,1,.13.26.32.32,0,0,1-.09.22.58.58,0,0,1-.29.15l.35.49a.48.48,0,0,0,.11.12l.09,0v.05h-.31l-.5-.67h-.13v.51a.11.11,0,0,0,0,.08.31.31,0,0,0,.15,0v.05h-.62v-.05a.24.24,0,0,0,.12,0,.12.12,0,0,0,.05-.06.83.83,0,0,0,0-.14V19.3a1.11,1.11,0,0,0,0-.14.11.11,0,0,0,0-.06l-.11,0Zm.4.69H180a.51.51,0,0,0,.33-.09.27.27,0,0,0,.1-.22.3.3,0,0,0-.1-.23.34.34,0,0,0-.24-.09l-.14,0Z" transform="translate(-2.67 -3.18)"/><rect class="cls-2" x="31.04" y="33.77" width="147.96" height="0.46"/></svg>