<svg id="Layer_1" data-name="Layer 1" xmlns="http://www.w3.org/2000/svg" viewBox="0 0 187.28 218"><defs><style>.cls-1{fill:#fff;}.cls-2{fill:#333;}.cls-3{fill:#e25e49;}.cls-4{fill:#c64436;}.cls-5{fill:#75c6ee;}.cls-6{fill:#f3af44;}.cls-7{fill:#d24d32;}.cls-8{fill:#3fb293;}.cls-9{fill:#8fc53d;}</style></defs><title>RetailCoaching</title><g id="shadow"><rect class="cls-1" x="60.83" y="75.89" width="2.14" height="83.2" transform="translate(-76.86 112.84) rotate(-63.66)"/><rect class="cls-1" x="85.83" y="75.99" width="2.14" height="62.49" transform="translate(-41.14 34.76) rotate(-23.13)"/><rect class="cls-1" x="73.82" y="99.63" width="73.26" height="2.14" transform="matrix(0.27, -0.96, 0.96, 0.27, -22.52, 171.56)"/><rect class="cls-1" x="93.53" y="113.84" width="83.82" height="2.14" transform="translate(-45.38 75.51) rotate(-30.13)"/><rect class="cls-1" x="87.94" y="30.6" width="2.14" height="106.32" transform="translate(-20.39 10.6) rotate(-11.04)"/><rect class="cls-1" x="65.77" y="46.61" width="2.14" height="101.04" transform="translate(-52.7 57.33) rotate(-39.82)"/><rect class="cls-1" x="77.28" y="91.43" width="108.09" height="2.14" transform="translate(-27.14 135.04) rotate(-53.5)"/><rect class="cls-1" x="48.12" y="76.6" width="117.56" height="2.14" transform="translate(9.84 165.42) rotate(-82.44)"/><circle class="cls-1" cx="72.27" cy="23.68" r="18.94"/><circle class="cls-1" cx="114.4" cy="59.3" r="19.27"/><circle class="cls-1" cx="165.66" cy="87.59" r="21.62"/><circle class="cls-1" cx="18.62" cy="92.39" r="18.62"/><circle class="cls-1" cx="157.54" cy="42.62" r="13.42"/><circle class="cls-1" cx="108.75" cy="13.12" r="11.41"/><circle class="cls-1" cx="28.7" cy="52.27" r="13.78"/><circle class="cls-1" cx="66.24" cy="70.2" r="13.42"/></g><g id="phone"><rect class="cls-1" x="59.97" y="97.39" width="71.66" height="120.61" rx="4.28" ry="4.28"/><path class="cls-2" d="M105,219.38H98.57a3.22,3.22,0,1,1,0-6.45H105a3.22,3.22,0,0,1,0,6.45Z" transform="translate(-6 -8)"/><rect class="cls-2" x="66.37" y="109.33" width="58.86" height="88.99" rx="1.71" ry="1.71"/></g><g id="icons"><path class="cls-3" d="M109,147.82c-3.4,0-6.38,2.84-8.24,5.49-1.86-2.64-4.85-5.49-8.24-5.49-5.65,0-9.19,4.29-9.19,10.15a11,11,0,0,0,3.78,8.78l13.66,12.13,13.66-12.12a11,11,0,0,0,3.78-8.78C118.16,152.11,114.61,147.82,109,147.82Z" transform="translate(-6 -8)"/><path class="cls-1" d="M118,161.86H105.14a2.2,2.2,0,0,0-1.83,1l-.52.77-2-7.11a2.21,2.21,0,0,0-4.05-.51l-3.09,5.82H83.48a2.21,2.21,0,0,0,0,4.42H95a2.21,2.21,0,0,0,2-1.17L98,163l2.23,8.07a2.21,2.21,0,0,0,2,1.62h.15a2.21,2.21,0,0,0,2-1.34l2.16-5.08H118a2.21,2.21,0,0,0,0-4.42Z" transform="translate(-6 -8)"/><path class="cls-4" d="M117.33,163.4h-12.4a.67.67,0,0,0-.62.41l-2,4.65-3.2-11.56a.67.67,0,0,0-.58-.49h-.07a.68.68,0,0,0-.6.36l-3.52,6.63H84.12a.68.68,0,1,0,0,1.35H94.74a.67.67,0,0,0,.6-.36l2.92-5.5,3.26,11.78a.67.67,0,0,0,.61.49h0a.67.67,0,0,0,.62-.41l2.56-6h12a.68.68,0,0,0,0-1.35h0Z" transform="translate(-6 -8)"/><circle class="cls-5" cx="72.27" cy="21.97" r="18.94"/><path class="cls-1" d="M88.25,40.51H68.41a.83.83,0,0,1-.83-.83h0V18.87a.83.83,0,1,1,1.66,0v20h19a.83.83,0,0,1,0,1.66Z" transform="translate(-6 -8)"/><path class="cls-1" d="M80.06,33.44l3.87-8.52,3.6-.83A.94.94,0,0,0,88.24,23h0a1,1,0,0,0-1.13-.71l-4.06.94a1,1,0,0,0-.65.53l-3.57,7.87-3.09-2.38a.94.94,0,0,0-.6-.2h-.2a.94.94,0,0,0-.63.48l-3,5.69a.95.95,0,1,0,1.67.89l2.49-4.71,3.17,2.41a1,1,0,0,0,.81.16A.94.94,0,0,0,80.06,33.44Z" transform="translate(-6 -8)"/><circle class="cls-1" cx="62.42" cy="10.96" r="1.3"/><circle class="cls-1" cx="82.25" cy="31.68" r="1.3"/><circle class="cls-6" cx="114.4" cy="57.59" r="19.27"/><path class="cls-1" d="M119.74,59.79A1.61,1.61,0,0,1,118,61.23H114.4a1.61,1.61,0,0,1-1.74-1.44v-1.2c0-.79-.18-1.44.78-1.44h5.13c1,0,1.17.64,1.17,1.44Z" transform="translate(-6 -8)"/><path class="cls-1" d="M117.64,77.51a1.34,1.34,0,0,1-1.45,1.2h0a1.34,1.34,0,0,1-1.45-1.2V60.74a1.34,1.34,0,0,1,1.45-1.2h0a1.34,1.34,0,0,1,1.45,1.2Z" transform="translate(-6 -8)"/><rect class="cls-1" x="106.66" y="44.47" width="1.17" height="6.65"/><rect class="cls-1" x="110.59" y="44.47" width="1.17" height="6.65"/><rect class="cls-1" x="108.62" y="44.47" width="1.18" height="6.65"/><rect class="cls-1" x="112.56" y="44.47" width="1.17" height="6.65"/><path class="cls-1" d="M127.74,77.08a1.34,1.34,0,0,1-1.45,1.2h0a1.34,1.34,0,0,1-1.45-1.2V60.31a1.34,1.34,0,0,1,1.45-1.2h0a1.34,1.34,0,0,1,1.45,1.2Z" transform="translate(-6 -8)"/><path class="cls-1" d="M122.8,60.23c0-7.76,3-7.76,3.94-7.76h0c1,0,1,0,1,1.44V66.55A1.61,1.61,0,0,1,126,68h-1.48a1.61,1.61,0,0,1-1.73-1.44Z" transform="translate(-6 -8)"/><circle class="cls-7" cx="165.66" cy="85.88" r="21.62"/><path class="cls-1" d="M164.4,98.78a2.08,2.08,0,0,1-2.08,2.08h0a2.08,2.08,0,0,1-2.08-2.08h0V89a2.08,2.08,0,0,1,2.08-2.08h0A2.08,2.08,0,0,1,164.4,89h0Z" transform="translate(-6 -8)"/><path class="cls-1" d="M159.3,97.54A1.49,1.49,0,0,1,157.81,99h0a1.49,1.49,0,0,1-1.49-1.49h0V90.2a1.49,1.49,0,0,1,1.49-1.49h0a1.49,1.49,0,0,1,1.49,1.49h0Z" transform="translate(-6 -8)"/><rect class="cls-1" x="159.29" y="83.99" width="12.7" height="3.77"/><path class="cls-1" d="M178.91,98.78a2.08,2.08,0,0,0,2.08,2.08h0a2.08,2.08,0,0,0,2.08-2.08h0V89A2.09,2.09,0,0,0,181,86.92h0A2.08,2.08,0,0,0,178.91,89h0Z" transform="translate(-6 -8)"/><path class="cls-1" d="M184.1,97.54A1.49,1.49,0,0,0,185.59,99h0a1.49,1.49,0,0,0,1.49-1.49h0V90.2a1.49,1.49,0,0,0-1.49-1.49h0a1.49,1.49,0,0,0-1.49,1.49h0Z" transform="translate(-6 -8)"/><circle class="cls-6" cx="18.62" cy="90.54" r="18.62"/><path class="cls-1" d="M24.61,90a9.47,9.47,0,1,0,9.47,9.47h0A9.48,9.48,0,0,0,24.61,90Zm0,16.91a7.44,7.44,0,1,1,7.44-7.44,7.44,7.44,0,0,1-7.44,7.44Z" transform="translate(-6 -8)"/><path class="cls-1" d="M19.13,86.54a4.76,4.76,0,0,0-2.37.66,4.6,4.6,0,0,0-2,2.17,2.64,2.64,0,0,0,.06,2.37c.09.15.29.22.6.22,1.64,0,5.29-2.11,6.11-3.53.16-.27.19-.48.1-.63A2.79,2.79,0,0,0,19.13,86.54Z" transform="translate(-6 -8)"/><path class="cls-1" d="M32.46,87.2a4.76,4.76,0,0,0-2.37-.66,2.79,2.79,0,0,0-2.53,1.27c-.09.15,0,.36.1.63.83,1.42,4.49,3.57,6.08,3.57h0a.68.68,0,0,0,.6-.22,2.64,2.64,0,0,0,.06-2.37A4.6,4.6,0,0,0,32.46,87.2Z" transform="translate(-6 -8)"/><path class="cls-1" d="M22.42,103.74a.82.82,0,0,1-.69-1.26l2.07-3.27V94.15a.82.82,0,0,1,1.64,0v5.54l-2.32,3.67A.82.82,0,0,1,22.42,103.74Z" transform="translate(-6 -8)"/><circle class="cls-5" cx="157.54" cy="40.91" r="13.42"/><path class="cls-1" d="M168,47.55l-3.64-6.88c-.44-.81-1.15-.81-1.59,0l-3.72,7a7.3,7.3,0,0,0-.84,3.15,5.36,5.36,0,1,0,10.71,0h0A7.82,7.82,0,0,0,168,47.55Z" transform="translate(-6 -8)"/><ellipse class="cls-5" cx="161.24" cy="50.65" rx="2.04" ry="1.58" transform="translate(103.3 203.48) rotate(-89.54)"/><circle class="cls-8" cx="108.75" cy="11.41" r="11.41"/><path class="cls-1" d="M119,18c-1-.24-2.37.7-2.75,2.34l-.13.69h0l-.43,2.23a.74.74,0,0,0,.55.85l.34.08h0l2.07.48h.14a.73.73,0,0,0,.86-.52V24h0l.72-2.73C120.74,20.29,120.63,18.39,119,18Z" transform="translate(-6 -8)"/><path class="cls-1" d="M116.15,25.57h0l-.68-.16v.06h0v.06a1.84,1.84,0,0,0,1.09,2.21l.23.08A1.86,1.86,0,0,0,119,26.41v-.17l-1.79-.42Z" transform="translate(-6 -8)"/><path class="cls-1" d="M113.9,19.24v-.12l-1.79.42L111,19.8h0l-.68.16v.11a1.86,1.86,0,0,0,2.17,1.48h.06l.23-.08A1.84,1.84,0,0,0,113.9,19.24Z" transform="translate(-6 -8)"/><path class="cls-1" d="M110.49,18.42h.19l2.21-.51h.16a.74.74,0,0,0,.52-.84V17h0L113.2,15v-.18h0l-.13-.69c-.38-1.64-1.7-2.58-2.74-2.34-1.58.37-1.68,2.27-1.43,3.31l.71,2.67h0V18A.73.73,0,0,0,110.49,18.42Z" transform="translate(-6 -8)"/><circle class="cls-7" cx="28.7" cy="50.56" r="13.78"/><path class="cls-1" d="M38.74,51.83c-1.67,0-3.13,1.4-4,2.69-.91-1.3-2.38-2.69-4-2.69-2.77,0-4.52,2.11-4.52,5a5.42,5.42,0,0,0,1.86,4.31l6.71,6,6.71-6a5.43,5.43,0,0,0,1.86-4.31C43.26,53.94,41.51,51.83,38.74,51.83Z" transform="translate(-6 -8)"/><circle class="cls-9" cx="66.24" cy="68.48" r="13.42"/><path class="cls-1" d="M63.17,78.7l1.89,3.14c.23.42.6.42.82,0l1.93-3.2A3.79,3.79,0,0,0,68.24,77a2.78,2.78,0,1,0-5.5,0A4.05,4.05,0,0,0,63.17,78.7Z" transform="translate(-6 -8)"/><circle class="cls-9" cx="59.47" cy="68.91" r="1.28"/><path class="cls-1" d="M76.74,72.7l1.89,3.14c.23.42.6.42.82,0l1.93-3.2A3.79,3.79,0,0,0,81.74,71a2.78,2.78,0,1,0-5.55,0A4.05,4.05,0,0,0,76.74,72.7Z" transform="translate(-6 -8)"/><circle class="cls-9" cx="73.01" cy="62.92" r="1.28"/><path class="cls-1" d="M71.91,84.64l-5.73-.81a.64.64,0,1,1,.18-1.27l4.87.68,3-5.19,3.86-1.36a.64.64,0,0,1,.43,1.21l-3.45,1.21Z" transform="translate(-6 -8)"/></g></svg>