<?xml version="1.0" encoding="utf-8"?>
<!-- Generator: Adobe Illustrator 19.1.0, SVG Export Plug-In . SVG Version: 6.00 Build 0)  -->
<svg version="1.1" id="icons" xmlns="http://www.w3.org/2000/svg" xmlns:xlink="http://www.w3.org/1999/xlink" x="0px" y="0px"
	 viewBox="-152 243.3 306.7 306.7" style="enable-background:new -152 243.3 306.7 306.7;" xml:space="preserve">
<style type="text/css">
	.st0{fill:#F6AE3C;}
	.st1{fill:#FDD077;}
	.st2{fill:#FFDEA6;}
</style>
<g>
	<path class="st0" d="M-57.4,399.1c-3.8,0-38.6-0.5-55.3-17.1s-17.1-51.4-17.1-55.3c0-4.1,3.4-7.5,7.5-7.5h35.1
		c4.1,0,7.5,3.4,7.5,7.5c0,4.1-3.4,7.5-7.5,7.5h-27.1c0.9,11.3,4.1,28.9,12.4,37.2c10.4,10.4,35.8,12.9,44.7,12.9
		c4.1,0,7.5,3.4,7.5,7.5C-49.9,395.7-53.2,399.1-57.4,399.1z"/>
	<path class="st0" d="M60.1,399.1c3.8,0,38.6-0.5,55.3-17.1s17.1-51.4,17.1-55.3c0-4.1-3.4-7.5-7.5-7.5H90.2c-4.1,0-7.5,3.4-7.5,7.5
		c0,4.1,3.4,7.5,7.5,7.5h27.1c-0.9,11.3-4.1,28.9-12.4,37.2c-10.4,10.4-35.8,12.9-44.7,12.9c-4.1,0-7.5,3.4-7.5,7.5
		C52.7,395.7,55.9,399.1,60.1,399.1z"/>
	<ellipse class="st0" cx="2.7" cy="509.2" rx="55" ry="15"/>
	<path class="st1" d="M47.5,500.4c0,0.3,0.2,0.6,0.2,1.1c0,8.3-22.3,15-50.1,15c-19.4,0-36.3-3.4-44.5-8.1
		c3.2,6.7,24.2,11.8,49.4,11.8c27.6,0,50.1-6.1,50.1-13.6C52.7,504.3,50.7,502.3,47.5,500.4z"/>
	<path class="st0" d="M17.7,451.1c4.9-20.4-5.1-41.9-5.1-41.9h-10h-10c0,0-9.8,21.6-5.1,41.9c5.1,21-5.1,47.3-25,57.7l40,5.2l40-5.2
		C22.6,498.3,12.6,472.1,17.7,451.1z"/>
	<path class="st1" d="M-97.5,295.8c0,0,13.3,164.4,100,164.4c77.8,0,100-164.4,100-164.4H-97.5z"/>
	<g>
		<path class="st2" d="M80.7,352.7c8.7-29.2,11.9-53.9,11.9-53.9H59c-1.1,11.2-4,35.5-10.7,61.5C60.5,358.2,71.5,355.6,80.7,352.7z"
			/>
		<path class="st2" d="M41.8,381.6c-10.7,30.8-27.7,59.1-54.2,65.8c4.3,1.1,8.9,1.7,13.6,1.7c35.1,0,57.9-36.6,71.8-73.8
			C63.7,377.8,53.2,380,41.8,381.6z"/>
	</g>
	<ellipse class="st0" cx="2.7" cy="295.8" rx="100" ry="26.6"/>
	<ellipse class="st1" cx="2.7" cy="294.1" rx="90" ry="20.1"/>
	<polygon class="st0" points="6.2,334.5 15.5,354.6 37.7,357.3 21.3,372.5 25.6,394.4 6.2,383.6 -13.3,394.4 -9.1,372.5 
		-25.4,357.3 -3.3,354.6 	"/>
</g>
</svg>
