<?xml version="1.0" encoding="utf-8"?>
<!-- Generator: Adobe Illustrator 19.1.0, SVG Export Plug-In . SVG Version: 6.00 Build 0)  -->
<svg version="1.1" id="icons" xmlns="http://www.w3.org/2000/svg" xmlns:xlink="http://www.w3.org/1999/xlink" x="0px" y="0px"
	 viewBox="-79 -120 800 800" style="enable-background:new -79 -120 800 800;" xml:space="preserve">
<style type="text/css">
	.st0{fill:#E0AB25;}
	.st1{fill:#FCCF77;}
	.st2{fill:#FFDDA5;}
</style>
<g>
	<path class="st0" d="M141.8,294.5c-11.6,0-117.7-1.5-168.6-52.2S-79,85.1-79,73.2c0-12.5,10.4-23.4,22.9-23.4h107
		c12.5,0,22.9,10.5,22.9,23s-10.4,23-22.9,23h-82.6c2.7,39,12.5,88.5,37.8,113.8c31.7,31.7,109.2,39.5,136.3,39.5
		c12.5,0,22.9,10.5,22.9,23C164.7,284.1,154.6,294.5,141.8,294.5z"/>
	<path class="st0" d="M500.1,294.5c11.6,0,117.7-1.5,168.7-52.2S721,85.1,721,73.2c0-12.5-10.4-23.4-22.9-23.4H591.9
		c-12.5,0-22.9,10.5-22.9,23s10.4,23,22.9,23h82.7c-2.7,39-12.5,88.5-37.8,113.8c-31.7,31.8-109.2,39.6-136.3,39.6
		c-12.5,0-22.9,10.5-22.9,23C477.6,284.1,487.3,294.5,500.1,294.5z"/>
	<ellipse class="st0" cx="325.1" cy="630.3" rx="167.7" ry="45.7"/>
	<path class="st1" d="M461.7,603.5c0,0.9,0.6,1.8,0.6,3.4c0,25.3-68,45.7-152.8,45.7c-59.2,0-110.7-10.4-135.7-24.7
		c9.8,20.4,73.8,36,150.7,36c84.2,0,152.8-18.6,152.8-41.5C477.6,615.4,471.5,609.3,461.7,603.5z"/>
	<path class="st0" d="M370.8,454.9c14.9-62.2-15.6-126-15.6-126h-30.5h-30.5c0,0-29.9,64.1-15.6,126c15.6,64-15.6,143.4-76.2,175.1
		l122,15.4l122-15.2C385.8,598.2,355.3,518.9,370.8,454.9z"/>
	<path class="st1" d="M19.5-20.1c0,0,40.6,501.4,305,501.4c237.3,0,305-501.4,305-501.4H19.5z"/>
	<g>
		<path class="st2" d="M563,154.7C589.5,65.6,599.3-8.1,599.3-8.1H496.8c-3.4,33-12.2,107.5-32.6,186.7
			C501.4,172.2,534.9,163.5,563,154.7z"/>
		<path class="st2" d="M444.3,241.2c-32.6,93.9-84.5,180.2-165.3,200.7c13.1,3.4,27.1,5.2,41.5,5.2c107,0,176.6-111.6,219-225.1
			C511.1,229.6,479.1,236.3,444.3,241.2z"/>
	</g>
	<ellipse class="st0" cx="325.1" cy="-20.5" rx="305" ry="81.1"/>
	<ellipse class="st1" cx="325.1" cy="-25.7" rx="274.5" ry="61.3"/>
	<polygon class="st0" points="335.8,97.5 364.1,158.8 431.8,167.1 381.8,213.4 394.9,280.2 335.8,247.3 276.3,280.2 289.1,213.4 
		239.4,167.1 306.8,158.8 	"/>
</g>
</svg>
