<?xml version="1.0" encoding="iso-8859-1"?>
<!-- Generator: Adobe Illustrator 18.1.0, SVG Export Plug-In . SVG Version: 6.00 Build 0)  -->
<!DOCTYPE svg PUBLIC "-//W3C//DTD SVG 1.1//EN" "http://www.w3.org/Graphics/SVG/1.1/DTD/svg11.dtd">
<svg version="1.1" id="icons" xmlns="http://www.w3.org/2000/svg" xmlns:xlink="http://www.w3.org/1999/xlink" x="0px" y="0px"
	 viewBox="0 0 306.667 306.667" style="enable-background:new 0 0 306.667 306.667;" xml:space="preserve">
<path style="fill:#E5E5E4;" d="M86.212,145.063c3.468,3.468,9.46,5.556,15.26,6.773c-3.884-10.756-6.598-21.642-8.464-30.908H78.145
	C78.784,128.321,80.854,139.704,86.212,145.063z"/>
<path style="fill:#E5E5E4;" d="M220.455,145.063c5.357-5.359,7.428-16.742,8.066-24.135h-14.407
	c-2.262,9.305-5.394,20.244-9.576,31.044C210.538,150.777,216.856,148.662,220.455,145.063z"/>
<path style="fill:#E5E5E4;" d="M153.333,0C68.65,0,0,68.65,0,153.333s68.65,153.333,153.333,153.333s153.333-68.65,153.333-153.333
	S238.017,0,153.333,0z M227.336,151.944c-7.065,7.065-19.078,9.659-27.294,10.61c-8.573,18.41-20.545,34.593-36.889,39.012
	c-0.64,8.354,1.951,17.346,7.117,24.228c11.604,1.607,19.562,4.89,19.562,8.681c0,5.375-15.979,9.733-35.687,9.733
	c-19.71,0-35.687-4.358-35.687-9.733c0-3.792,7.957-7.075,19.561-8.682c5.123-6.825,7.715-15.726,7.134-24.02
	c-18.463-4.078-30.986-20.546-39.406-39.326c-8.175-1.032-19.599-3.687-26.417-10.504c-10.845-10.845-11.158-33.352-11.158-35.883
	c0-2.688,2.178-4.866,4.866-4.866h18.198c-1.489-9.143-1.977-15.139-1.977-15.139c0-9.555,29.051-17.303,64.885-17.303
	c35.834,0,64.885,7.748,64.885,17.303c0,0.408-0.072,0.812-0.177,1.213c-0.33,2.189-1.141,7.209-2.542,13.926h17.318
	c2.688,0,4.866,2.178,4.866,4.866C238.495,118.592,238.181,141.1,227.336,151.944z"/>
</svg>
