<?xml version="1.0" encoding="utf-8"?>
<!-- Generator: Adobe Illustrator 19.1.0, SVG Export Plug-In . SVG Version: 6.00 Build 0)  -->
<svg version="1.1" id="Capa_2" xmlns="http://www.w3.org/2000/svg" xmlns:xlink="http://www.w3.org/1999/xlink" x="0px" y="0px"
	 viewBox="-455 -102.1 900 997.7" style="enable-background:new -455 -102.1 900 997.7;" xml:space="preserve">
<style type="text/css">
	.st0{fill:#ED1C24;}
	.st1{fill:#86CFC4;}
	.st2{fill:#E6E7E8;stroke:#30B697;stroke-width:0.5;stroke-miterlimit:10;}
	.st3{fill:#66C5B2;}
	.st4{opacity:0.3;}
	.st5{fill:#FFFFFF;}
	.st6{fill:#E6E7E8;}
	.st7{fill:#30B697;}
	.st8{fill:#43BDA0;}
</style>
<g id="Capa_3">
</g>
<g>
	<g>
		<g>
			<path class="st0" d="M72.3,320.2L31.2,508.9c-1.3,5.7-6.3,10-12.2,10c-0.3,0-0.6,0-0.6,0C12,518.7,7,513.6,6.7,507.7l-29.5-319.4
				l-58.4,152c-1.9,4.7-6.6,8.2-11.6,8.2h-265.7c119,174,334.4,320,353.6,320c20.1,0,257.8-161.7,371.5-348.3H72.3z"/>
			<path class="st0" d="M213-101.6C78.3-111.3-4.9,4.6-4.9,4.6s-82.9-115.9-217.6-106.1S-454,2.7-434.5,167.3
				c6.3,51.8,28.3,104.6,59.7,155.1H-102l74.7-194.1c2.2-5.3,7.5-8.8,13.5-7.9c5.7,0.9,10.4,5.3,10.7,11.3l27,292l25.8-119
				c1.3-5.7,6.3-9.7,12.2-9.7h318.7c22.6-42.1,38.6-85.1,43.7-127.5C444.5,2.7,347.7-91.8,213-101.6z"/>
		</g>
		<g>
			<g>
				<g>
					<g>
						<path class="st1" d="M52.2,575.5c3.5-6.9,11.3-25.1,27.3-14.4c18.8,12.6,60.9,44.9,88.2,59.4c27.6,14.4,41.1,20.1,49.9,23.6
							c8.8,3.8-27,31.7-70.7,5.3c-43.7-26.4-90.8-54.6-98.9-55.3C43.8,593.7,47.2,585.5,52.2,575.5z"/>
					</g>
					<g>
						<path class="st2" d="M364.4,670c0,0-43.3,76.9-225.5,58.4c-181.8-18.5-246.2-3.5-246.2-3.5s-15.1,26.7-11.6,36.1
							c4.1,12.6,15.7,21.7,46.5,25.4c2.5,0.3,5,0.6,7.9,0.9c-0.3-2.2,1.6-4.7,3.8-5.3c2.8-0.6,5.3,0.9,6.3,3.5
							c0.3,0.9,0.6,1.6,0.9,2.5c5.7,0.3,12.2,0.6,19.2,0.6c-1.3-1.9-0.9-4.4,0.6-6.3c1.9-1.9,5.3-1.9,7.2,0c1.6,1.6,2.5,3.8,3.5,6
							v0.3c6,0,12.6,0,19.5-0.3c0-1.9,0.6-3.8,1.3-5.3c1.3-2.5,4.7-3.1,6.9-1.9c2.5,1.6,2.8,4.1,1.9,6.6l0,0c0.3-0.6,0-0.3,0,0
							c19.2-0.9,41.1-2.5,65.6-5c60.9-6.6,111.5,13.2,200.7,1.3c0.3-2.2,0.6-4.1,0.9-6c1.6-6.3,11.3-3.8,9.7,2.5
							c0,0.6-0.3,1.3-0.3,1.9c4.4-0.6,8.8-1.6,13.5-2.2c-0.6-1.3-0.9-2.8-1.6-4.1c-1.9-6.3,7.9-8.8,9.7-2.5c0.6,1.6,0.9,3.1,1.6,4.7
							c3.8-1.3,8.2-2.8,12.9-5c-0.6-0.9-0.9-1.9-1.6-2.8c-1.3-2.5-0.6-5.3,1.9-6.9c2.2-1.3,5.7-0.6,6.9,1.9c0.6,0.9,0.9,2.2,1.6,3.1
							C357.5,751,390.4,714.6,364.4,670z"/>
					</g>
					<g>
						<path class="st3" d="M348.4,652.4c-19.8,2.5-54,3.8-110.2-6c-4.7-0.9-12.9-1.9-23.6-3.8c-0.6,0.9-1.3,1.9-2.2,2.8
							c-6.6,6.9-35.2,2.5-52.8-3.1c-22.6-7.2-35.8-16.6-58.1-33c-9.4-6.9-24.5-20.4-36.7-22.6c-12.6-2.2-22.3,4.1-32,8.8
							c-9.4,4.7-22,11-46.5,7.2c-11.6-1.9-25.4-8.5-34.9-15.7c-13.8-10.7-24.5-28.3-36.1-5.3c-0.9,1.9-1.9,4.4-2.5,6.3
							c-2.8,11-7.5,26.7-14.1,44.3c-6.6,17.3-20.1,76-0.9,103s152.6,3.8,196.3,10c44,6.3,190.3,18.8,236.5-13.2
							C376.9,700.2,368.2,649.9,348.4,652.4z"/>
					</g>
					<g class="st4">
						<g>
							<path class="st5" d="M192.3,648.7L192.3,648.7L192,649l-2.5-0.3v-0.3l0,0c-0.3,0-0.6,0-0.9,0l0,0l0.3,0.6l0,0l-0.3,0.3l0,0
								c0.3,0,0.3,0.3,0.6,0.3l0,0v-0.3l2.5,0.3l0.3,0.9l0,0c0.3,0,0.6,0.3,0.9,0.3l0,0l-0.6-1.9l0.6-0.9
								C192.9,649,192.6,649,192.3,648.7z"/>
						</g>
						<g>
							<path class="st5" d="M348.4,654.9c0-0.3,0-0.6,0-0.6c0-0.6-0.3-1.3-0.6-1.9c-0.3,0-0.3,0-0.6,0l0,0l0.6,1.9l-1.6,1.9h-0.9
								l-1.3-0.3l-0.3-0.6l-0.6-1.6l0.3-0.3l0.6-0.6l0,0c-0.3,0-0.6,0-0.9,0l0,0l-0.3,0.3l-1.6-0.3l0,0c-0.3,0-0.6,0-0.9,0
								c-0.3,0-0.6,0-0.6,0l0,0l0,0l-1.6,1.9h-0.6l-1.9-0.3l0,0l0,0l-0.3-0.6l-0.3-0.6c-0.3,0-0.6,0-0.6,0l0,0l0.6,1.6l-1.3,1.6
								l-0.3,0.3l-2.5-0.3l-0.6-2.2l0.6-0.6l0,0c-0.3,0-0.6,0-0.9,0l0,0l0,0h-0.6l0,0c-0.6,0-0.9,0-1.6,0c-0.3,0-0.6,0-0.6,0l0,0
								l0,0l-1.6,1.9l-2.5-0.3l-0.6-1.6c-0.3,0-0.6,0-0.9,0l0,0l0.6,1.6l-0.9,0.9l-0.9,0.9h-0.9l-1.6,0.6l-0.6-2.2l0.9-0.9l0,0
								c-0.3,0-0.6,0-0.9,0l0,0l-0.6,0.6l-2.5-0.3l0,0l0,0l0,0c-0.3,0-0.6,0-0.9,0l0,0v0.6l-0.9,1.3l-0.6,0.6l-1.9-0.3h-0.3
								l-0.3-0.9l-0.3-1.3l0,0l0,0c-0.3,0-0.6,0-0.6,0c-0.6,0-1.3,0-1.9,0l0,0l1.9,0.3l0.6,2.2l-0.3,0.6l-1.3,1.3l-2.5-0.3l-0.6-2.2
								l0.6-0.9l0.9-0.9l0,0c-0.3,0-0.6,0-0.9,0l0,0l-1.3,1.6l-2.5-0.3l-0.3-1.3l0,0c-0.3,0-0.6,0-0.9,0v0.3l0.3,1.3l-1.6,1.9
								l-2.5-0.3l-0.6-2.2l0.9-1.3l0,0c-0.3,0-0.6,0-0.9,0l0,0l-0.6,0.6l-2.5-0.3l-0.3-0.6l0,0c-0.3,0-0.6,0-0.9,0l0.3,0.6v0.3
								l-1.3,1.6l-0.3,0.3l-2.5-0.3l-0.6-2.2l0.3-0.6c-0.3,0-0.6,0-0.9,0l0,0l0,0h-0.3l-1.9-0.3l0,0l0,0H283h-0.3v0.3l-1.6,1.9
								l-1.9-0.3H279l-0.3-0.9l-0.3-1.3l0,0l0,0l0,0c-0.3,0-0.6,0-0.6,0c-0.6,0-1.3,0-1.9-0.3c-0.3,0-0.6,0-0.9,0l0,0l-1.6,1.9
								l-2.5-0.3l0,0l-0.6-1.9l0,0c0,0,0,0-0.3,0c-0.3,0-0.3,0-0.6,0c-0.6,0-1.6-0.3-2.2-0.3c-0.3,0-0.3,0-0.6,0h-0.3l-1.3,1.6
								l-1.6-0.3h-0.9l-0.6-1.9l0,0h-0.3h-0.3l0,0l0,0l0,0c0,0,0,0-0.3,0h0.3l0.6,2.2l-1.6,1.9l-2.5-0.3l-0.6-2.2l1.6-1.9l0,0
								c-0.3,0-0.6,0-0.9,0l0,0l-0.9,0.9l-0.3,0.6l-2.5-0.3l-0.6-1.9c-0.3,0-0.6,0-0.9,0l0,0l0.6,2.2l-1.6,1.9l-2.2-0.3h-0.3
								l-0.6-2.2l0.6-0.9l0.9-1.3l0,0c-0.3,0-0.6,0-0.9,0l0,0l-1.3,1.6h-0.9l-1.6-0.3l0.3-3.1l-0.3-0.6h-0.3c-0.3,0-0.3,0-0.6,0
								c-0.6,0-1.6-0.3-2.2-0.3c-0.3,0-0.3,0-0.6,0H241l-1.6,1.6l-2.5-0.3l-0.6-2.2l0,0c0,0,0,0-0.3,0s-0.3,0-0.6,0
								c-0.6,0-1.3-0.3-2.2-0.3c-0.3,0-0.3,0-0.6,0c0,0,0,0-0.3,0l-0.6,0.6l-0.9,1.3h-0.9l-1.3-0.3l-0.6-2.2l0,0c-0.3,0-0.3,0-0.6,0
								c-0.6,0-1.3-0.3-2.2-0.3c-0.3,0-0.3,0-0.6,0l0,0l0,0l-0.6,0.6l-0.9,1.3l-2.5-0.3l-0.6-2.2l0,0c-0.3,0-0.6,0-0.9,0
								c-0.6,0-1.3-0.3-1.9-0.3c-0.3,0-0.6,0-0.6,0l0,0l0,0l0,0l-1.6,1.9l-1.3-0.3c-0.3,0.3-0.3,0.3-0.6,0.6l1.6,0.3l0,0l0,0v0.3
								l0.6,1.9l-1.6,1.9l-2.5-0.3l-0.6-2.2l0.3-0.3l0,0c0,0-0.3,0-0.3,0.3c-0.3,0-0.3,0.3-0.6,0.3h-0.3l0,0h0.3l0.6,2.2l-1.6,1.9
								h-0.9l-1.3-0.3l-0.6-2.2l0.3-0.3l0.3-0.3l0,0l0,0c-0.3,0-0.6,0-1.3,0.3l0,0h-0.3l0,0c-0.6,0-1.3,0.3-2.2,0.3
								c-0.3,0-0.3,0-0.6,0h-0.3l0,0l-0.9,0.9l-0.3,0.6l-2.5-0.3l-0.3-1.3l0,0c-0.3,0-0.6,0-0.9,0l0,0l0.3,1.3l-1.6,1.9h-0.6l0,0
								c0.3,0,0.3,0,0.6,0.3c0.3,0,0.3,0.3,0.6,0.3l0,0l0,0l0.6-0.9l0.9-0.9l2.5,0.3l0.6,2.2l-0.6,0.9l0,0c0.3,0,0.3,0.3,0.6,0.3
								l0,0l0.6-0.6l2.5,0.3l0.6,1.6l0,0c0.3,0,0.6,0.3,0.9,0.3l0,0l-0.6-2.2l1.6-1.9l2.5,0.3l0.6,2.2l0,0l-1.6,1.9l-2.2-0.3l0,0
								c0.6,0.3,1.3,0.3,1.9,0.6c0.3,0,0.6,0.3,0.6,0.3l0,0l0,0l0,0l1.6-1.9l1.6,0.3h0.9l0.3,1.3l0.3,1.3l-0.6,0.6
								c0.3,0,0.6,0,0.6,0.3l0,0l0.3-0.6l2.5,0.3l0.3,0.9l0,0c0.3,0,0.6,0.3,0.9,0.3l0,0l-0.6-1.6l1.6-1.9l2.5,0.3l0.6,2.2l-0.6,0.9
								l-0.6,0.9l0,0c0.3,0,0.6,0,0.6,0.3l0.3-0.3l0.9-0.9l2.5,0.3l0.6,2.2l0,0c0,0,0,0,0.3,0s0.3,0,0.6,0.3
								c0.6,0.3,1.3,0.3,1.9,0.6c0.3,0,0.6,0,0.6,0s0,0,0.3,0l0,0v-0.3l1.6-1.9h0.9l1.6,0.3l0.6,2.2l-0.3,0.3l-0.3,0.3
								c0.3,0,0.6,0,0.9,0.3l0,0v-0.3l2.2,0.3l0,0l0,0v0.3l0,0c0.3,0,0.6,0,0.9,0.3l-0.3-0.9l0.9-0.9l0.9-0.9l2.5,0.3l0.3,1.3
								l0.3,0.9l-0.6,0.9c0.3,0,0.6,0,0.9,0l0.6-0.6l2.2,0.3h0.3l0.3,0.9l0,0c0.3,0,0.6,0,0.9,0.3l0,0l-0.3-1.3l1.6-1.9l2.5,0.3
								l0.6,2.2l-0.9,0.9l-0.3,0.3c0.3,0,0.6,0,0.9,0l0.6-0.9l2.5,0.3l0.3,1.3l0,0c0.3,0,0.6,0,0.9,0l0,0l-0.6-1.6l0.9-0.9l0.6-0.9
								l2.5,0.3l0.6,1.6l0.3,0.6l-0.9,1.3l0,0c0.3,0,0.6,0,0.9,0l0,0l0.9-0.9l2.5,0.3l0.3,0.9l0,0c0.3,0,0.6,0,0.9,0l0,0l-0.3-1.3
								l1.6-1.6l0.3-0.3h0.3l2.2,0.3l0.6,1.9v0.3l-0.9,0.9c0.3,0,0.6,0,0.9,0l0.6-0.6l2.5,0.3l0.3,0.6l0,0c0.3,0,0.6,0,0.9,0l0,0
								l-0.3-0.9l1.6-1.9l2.5,0.3l0.6,1.9l0.3,0.6l-0.6,0.6l0,0c0.3,0,0.6,0,0.9,0l0,0l0.3-0.3l2.5,0.3l0,0l0,0c0.3,0,0.6,0,0.9,0
								l0,0v-0.3l0.3-0.3l1.3-1.6h0.3l2.2,0.3l0.6,2.2l0,0l0,0c0.3,0,0.6,0,0.9,0c0.6,0,1.6,0,2.2,0c0.3,0,0.3,0,0.6,0h0.3l1.3-1.6
								l2.5,0.3l0.6,1.6l0,0c0.3,0,0.6,0,0.9,0l0,0l-0.6-1.9l0.3-0.3l1.3-1.6l2.5,0.3l0.6,2.2l0,0l-0.9,0.9l-0.3,0.3
								c0.3,0,0.6,0,0.9,0l0,0l0.6-0.9h0.6l1.6,0.3l0.3,0.6l0,0c0.3,0,0.6,0,0.9,0l0,0l-0.3-0.9l1.6-1.9l2.5,0.3l0.6,2.2l0,0
								l-0.3,0.3h0.3c0.3,0,0.3,0,0.6,0c0.6,0,1.6,0,2.2,0c0.3,0,0.3,0,0.6,0h0.3l0,0l1.3-1.6l2.5,0.3l0.3,1.3l0,0
								c0.3,0,0.6,0,0.6,0l0,0L316,670l0.3-0.6l1.3-1.3l2.5,0.3l0.6,2.2l-0.6,0.6l0,0c0.3,0,0.6,0,0.9,0l0,0h0.6l0,0
								c0.6,0,0.9,0,1.6,0c0.3,0,0.6,0,0.6,0l0,0l1.6-1.9l2.5,0.3l0.3,0.9l0,0c0.3,0,0.6,0,0.6,0l0,0l-0.3-1.3l1.6-1.9h0.6l1.6,0.3
								l0.6,2.2l0,0h0.3h0.3l0,0l0,0l-0.6-2.2l0.9-0.9l0.9-0.9l2.5,0.3l0.6,2.2l-0.6,0.6l0,0c0.3,0,0.6-0.3,0.9-0.3h0.3
								c0.3,0,0.6-0.3,1.3-0.3l0,0l-0.9-0.3l-0.6-2.2l0.9-0.9l0.9-0.9l2.5,0.3l0.6,2.2l-0.6,0.6c0.3,0,0.6-0.3,0.6-0.3
								c0.3,0,0.3-0.3,0.6-0.3c0,0,0.3,0,0.3-0.3l0,0H344l-0.6-2.2l0.9-1.3l0.6-0.9h1.3l1.3,0.3l0.3,0.9l0,0
								c0.3-0.3,0.3-0.3,0.6-0.6l-0.3-0.6l0,0l1.6-1.9h0.3c0-0.3,0.3-0.6,0.3-0.6h-0.3h-0.3l-0.6-2.2l0.3-0.6L348.4,654.9
								L348.4,654.9L348.4,654.9L348.4,654.9z M202.3,649L202.3,649l2.5,0.3l0.6,2.2l-0.3,0.3l-1.6,1.6l-2.5-0.3l-0.6-2.2L202.3,649
								z M346.2,657.1l0.6,1.6l0.3,0.9l-1.3,1.6l-0.3,0.3l-2.5-0.3l-0.3-1.3l-0.3-1.3l0.9-0.9l0.9-0.9l0,0L346.2,657.1z M306,671
								l-0.6-2.2l1.6-1.9l2.5,0.3l0.6,2.2l0,0l-0.3,0.3l-1.3,1.6L306,671z M302.8,668.1h-0.3l0,0l-0.6-2.2l1.3-1.6l0.3-0.3l2.5,0.3
								l0.6,2.2l-1.6,1.9L302.8,668.1z M300,670l-2.5-0.3l-0.3-0.6l-0.6-1.6l1.6-1.9l1.6,0.3h0.6l0.6,2.2l-1.3,1.6L300,670z
								 M270.2,668.4l-2.5-0.3l-0.6-2.2l1.3-1.6l0.3-0.6l2.5,0.3l0.6,1.6l0.3,0.9l-0.9,1.3L270.2,668.4z M253.2,665.9l-1.9-0.3h-0.6
								l-0.6-2.2l1.6-1.9l2.5,0.3l0.6,2.2l-1.3,1.6L253.2,665.9z M241.3,661.5l-1.3-0.3l-1.3-0.3l-0.6-2.2l0.6-0.9l0.9-1.3h0.6
								l1.9,0.3l0.6,2.2l-0.3,0.3L241.3,661.5z M216.2,657.8L216.2,657.8l-2.5-0.3l-0.6-2.2l1.6-1.9l2.5,0.3l0.6,2.2L216.2,657.8z
								 M228.7,647.7l2.5,0.3l0.6,1.9l0.3,0.6l-0.3,0.3l-1.3,1.6l-1.9-0.3h-0.3l-0.6-2.2l0.3-0.3L228.7,647.7z M249.4,653.4l2.2,0.3
								l0.6,2.2l-0.6,0.6l-1.3,1.3l-2.5-0.3l-0.6-2.2l0,0L249.4,653.4L249.4,653.4z M253.8,651.5l2.5,0.3l0.6,2.2l-1.6,1.9l-2.5-0.3
								l-0.6-2.2l0.3-0.3L253.8,651.5z M257.9,654.6l1.9,0.3l0.3,1.3l0.3,0.9l-1.6,1.9l-2.5-0.3l-0.6-2.2l1.6-1.9H257.9z
								 M286.2,653.7l0.3,0.9l0.6,1.6l-1.6,1.9l-1.3-0.3l-1.3-0.3v-0.3l-0.6-1.9l1.6-1.9L286.2,653.7L286.2,653.7z M289.6,656.5
								L289.6,656.5l0.9,2.2l-0.9,1.3l-0.6,0.6l-2.5-0.3l0,0l-0.6-1.9l-0.3-0.6l0.6-0.6l0.9-1.3L289.6,656.5z M300.6,655.6l2.5,0.3
								l0.6,2.2l-1.6,1.9l-2.5-0.3l-0.6-2.2L300.6,655.6L300.6,655.6z M314.1,654.9l2.2,0.3l0.6,1.6l0.3,0.6l-1.6,1.9h-0.6l-1.9-0.3
								l-0.6-2.2L314.1,654.9L314.1,654.9z M339.9,653.7l1.3,0.3l0.9,0.3l0.6,2.2l-1.6,1.9l-2.5-0.3l-0.3-0.6l-0.6-1.6l1.3-1.6
								L339.9,653.7z M335.2,655.6L335.2,655.6l2.5,0.3l0.6,2.2l-1.6,1.9l-2.5-0.3l-0.6-2.2l0.9-1.3L335.2,655.6z M329.2,654.6
								l0.6,2.2l-1.6,1.9l-2.5-0.3l-0.6-2.2l1.6-1.9L329.2,654.6z M324.5,656.8l0.6,2.2l-1.6,1.9l-2.5-0.3l-0.6-1.9l-0.3-0.6
								l1.6-1.9L324.5,656.8L324.5,656.8z M315.4,667.2l-0.6-2.2l1.6-1.9l2.5,0.3l0.6,2.2l0,0l0,0l-1.6,1.9L315.4,667.2z
								 M255.7,663.7l-0.6-2.2l0.9-0.9l0.9-0.9l2.5,0.3l0.6,1.9v0.3l-1.3,1.3l-0.6,0.6L255.7,663.7z M240,656.2l-0.6-2.2l1.6-1.6
								l0.3-0.3l2.5,0.3l0.6,2.2l-1.6,1.9l-0.3,0.3L240,656.2z M262.6,662.2l-2.5-0.3l-0.6-2.2l0.3-0.3l1.3-1.6l2.5,0.3l0.6,1.9v0.3
								L262.6,662.2z M252.9,656.5l2.5,0.3l0.6,2.2l-1.6,1.9l-2.5-0.3l-0.6-2.2L252.9,656.5z M291.2,659.3l2.5,0.3l0.6,2.2l-1.6,1.9
								h-0.9l-1.6-0.3l0,0l-0.6-1.9v-0.3L291.2,659.3z M295.6,657.8l0.3-0.3l2.5,0.3l0.6,2.2l-1.3,1.6l-0.3,0.3l-2.5-0.3l0,0
								l-0.6-2.2L295.6,657.8z M306.6,659l0.6,2.2l-1.6,1.9l-2.5-0.3l-0.6-2.2l1.6-1.9L306.6,659z M307.2,665.9l-0.6-2.2l1.6-1.9
								l2.5,0.3l0.6,1.9v0.3l-1.6,1.9L307.2,665.9L307.2,665.9z M315.1,660.3l0.6,2.2l-1.6,1.9l-2.5-0.3l-0.6-2.2l1.6-1.9h0.3
								L315.1,660.3z M277.4,664.4L277.4,664.4L277.4,664.4l-0.9-2.2l1.6-1.9l2.5,0.3l0.6,2.2l-1.6,1.9L277.4,664.4z M275.8,661.5
								l-2.5-0.3l-0.6-2.2l1.6-1.9l0.3-0.3l2.5,0.3l0.6,2.2L275.8,661.5z M282.7,658.1l2.5,0.3l0.6,2.2l-1.6,1.9l-2.5-0.3l-0.6-2.2
								l1.3-1.3L282.7,658.1z M272.4,658.4L272.4,658.4l-2.5-0.3l-0.6-2.2l1.6-1.9l2.5,0.3l0.6,2.2L272.4,658.4z M269.5,658.7h0.3
								l1.9,0.3l0.6,1.9v0.3l-0.3,0.6l-1.3,1.6l-2.5-0.3l-0.6-2.2L269.5,658.7z M272.4,663.1l1.3-1.3l2.5,0.3l0.6,2.2l0,0l-1.6,1.9
								l-2.5-0.3l-0.6-2.2L272.4,663.1z M280.9,664.1l0.9-0.9l2.5,0.3l0.6,2.2l-1.6,1.9l-2.5-0.3l-0.6-2.2L280.9,664.1z
								 M286.5,661.2l2.5,0.3l0.6,2.2l-1.3,1.6l-0.3,0.3l-2.5-0.3l-0.6-2.2L286.5,661.2z M289.6,665l0.6-0.6l2.5,0.3l0.6,2.2
								l-1.6,1.9l-2.5-0.3l-0.6-2.2L289.6,665z M295,662.5l1.9,0.3h0.6l0.6,2.2l-1.6,1.9l-2.5-0.3l-0.6-2.2L295,662.5z M298.7,665
								l-0.6-2.2l1.6-1.9l2.5,0.3l0.6,2.2l-1.6,1.9L298.7,665z M311.6,665l2.5,0.3l0.6,2.2l-1.6,1.9l-2.5-0.3l-0.6-2.2L311.6,665z
								 M319.8,658.4l0.6,1.9v0.3l-0.9,1.3l-0.6,0.6l-2.5-0.3l-0.6-2.2l1.6-1.9L319.8,658.4z M311.3,657.1l0.6,1.9l0.3,0.6l-1.6,1.9
								l-2.5-0.3l-0.6-2.2l1.6-1.9h0.6H311.3z M281.5,655.6l0.6,2.2l-0.3,0.3l-1.6,1.9l-2.5-0.3l-0.6-2.2l1.6-1.9l1.9,0.3
								L281.5,655.6z M268.3,656.2l0.6,2.2l0,0l-1.6,1.9l-2.5-0.3l-0.6-2.2l1.6-1.9L268.3,656.2z M265.5,654.9L265.5,654.9l-1.6,2.2
								l-2.5-0.3l-0.6-2.2l1.6-1.9l2.5,0.3L265.5,654.9z M245.4,650.2l2.5,0.3l0.6,2.2l-0.9,0.9l-0.9,0.9l-2.5-0.3l-0.6-2.2
								L245.4,650.2z M239.4,649.3l0.6,2.2l-1.6,1.9h-0.9l-1.3-0.3l-0.6-2.2l1.6-1.9L239.4,649.3z M233.1,655.3l-1.6-0.3l-0.3-1.3
								l-0.3-1.3l1.6-1.9l2.5,0.3l0.6,2.2l-1.6,1.9L233.1,655.3z M228.1,657.1l-1.6-0.3l-0.3-1.3l-0.3-1.3l1.6-1.9h0.6l1.9,0.3
								l0.6,2.2l-1.6,1.9L228.1,657.1z M224.3,659l-2.2-0.3l0,0l-0.6-2.2l0.9-1.3l0.6-0.9l2.5,0.3l0.6,2.2L224.3,659z M218.4,655.6
								l-0.6-2.2l0.3-0.3l1.3-1.6l2.5,0.3l0.6,2.2l0,0l0,0l-0.3,0.6l-1.3,1.6L218.4,655.6z M226.2,649.9l0.6,2.2l-1.6,1.9l-1.3-0.3
								l-1.3-0.3v-0.3l-0.6-2.2l0.9-0.9l0.9-0.9L226.2,649.9z M220.2,646.5l2.5,0.3l0,0l0.6,2.2l-1.3,1.6l-0.3,0.3l-2.5-0.3
								l-0.6-2.2V648L220.2,646.5z M215.5,648.4l2.5,0.3l0.6,1.6l0.3,0.6l-1.6,1.9l-2.5-0.3l-0.6-2.2l0.9-0.9L215.5,648.4z
								 M230.6,660l-0.6-2.2l1.6-1.9v-0.3l1.9,0.3h0.3l0.6,2.2l-1.3,1.3l-0.6,0.6H230.6z M234.4,655.9l0.6-0.6l1.3-1.3l1.3,0.3h0.9
								l0.6,2.2l-1.6,1.9l-2.5-0.3L234.4,655.9z M242.9,657.5L242.9,657.5l1.3-1.9l0.3-0.6l2.5,0.3l0.6,2.2l-0.3,0.3l-1.3,1.6
								l-2.5-0.3L242.9,657.5z M247.2,659.3l0.9-0.9l2.2,0.3h0.3l0.6,2.2l-1.6,1.9l-2.5-0.3l-0.6-1.9l-0.3-0.6L247.2,659.3z
								 M259.5,666.9l-0.6-2.2l1.6-1.9l2.5,0.3l0.6,2.2l-1.6,1.9L259.5,666.9z M264.2,664.7l-0.6-2.2l1.6-1.9l2.5,0.3l0.6,2.2
								l-1.6,1.9L264.2,664.7L264.2,664.7z M276.1,669.1l-0.6-2.2l1.6-1.9l2.5,0.3l0.6,2.2l-1.6,1.9L276.1,669.1z M318.5,668.1
								l1.6-1.9l2.5,0.3l0.6,2.2l-1.6,1.9l-2.5-0.3L318.5,668.1z M320.1,665.3l-0.6-2.2l1.6-1.9l2.5,0.3l0.6,2.2l-1.6,1.9
								L320.1,665.3z M327.3,664.1l-2.5-0.3l-0.6-2.2l0.9-1.3l0.6-0.9l2.5,0.3l0.6,2.2L327.3,664.1z M329.5,661.5l-0.6-2.2l1.3-1.6
								l0.3-0.3l2.5,0.3l0.6,2.2l-1.6,1.9l-1.3-0.3H329.5z M335.8,665l-2.5-0.3l-0.6-2.2l1.6-1.9l2.5,0.3l0.6,2.2L335.8,665z
								 M340.5,663.1l-2.5-0.3l-0.6-2.2l1.6-1.9h0.3l1.9,0.3l0.6,1.9v0.3L340.5,663.1z M292.2,654.3h0.9l1.3,0.3l0.6,2.2l-1.3,1.6
								l-0.3,0.3l-2.5-0.3l-0.6-2.2L292.2,654.3z M277.7,652.4l0.6,2.2l0,0l-1.6,1.9l-2.5-0.3l-0.6-2.2l0.6-0.6l1.3-1.3h0.9
								L277.7,652.4z M267,650.9l2.5,0.3l0.6,2.2l-1.6,1.9l-2.2-0.3h-0.3l0,0l0,0v-0.3l-0.6-1.9L267,650.9z M244.1,647.4
								L244.1,647.4l0.6,1.9v0.3l-0.3,0.6l-1.3,1.6l-2.5-0.3l-0.6-2.2l1.6-1.9l1.3,0.3L244.1,647.4z M232.5,646.8l0.9-0.9l2.5,0.3
								l0.6,2.2l-0.3,0.3l-1.3,1.6l-1.3-0.3l-1.3-0.3l-0.6-2.2L232.5,646.8z M227.5,644.9l0.6,2.2l-0.9,0.9l-0.9,0.9l-2.5-0.3v-0.3
								l-0.6-1.9l1.6-1.9l1.9,0.3L227.5,644.9z M219,644l0.6,1.9l-0.9,0.9l-0.9,0.9h-0.6l-1.9-0.3l-0.6-2.2l1.6-1.9L219,644L219,644
								z M209.3,652.1L209.3,652.1l1.6-1.9l2.5,0.3l0.6,2.2l-0.9,0.9l-0.9,0.9l-2.5-0.3l-0.6-1.9L209.3,652.1z M225.9,661.9
								l-0.6-2.2l1.6-1.9l2.5,0.3l0.6,2.2l-0.9,1.3l-0.6,0.9L225.9,661.9z M236.6,663.4h-0.6l-1.6-0.3l0,0l-0.6-2.2l1.6-1.9l2.5,0.3
								l0.6,2.2L236.6,663.4z M242.5,664.4l-0.6-1.9l-0.3-0.6l0.6-0.9l0.9-1.3h0.9l1.6,0.3l0.6,2.2l-1.6,1.9h-0.9L242.5,664.4z
								 M284,668.1l1.6-1.9l2.5,0.3l0.6,2.2l-1.6,1.9l-2.5-0.3l0,0L284,668.1z M326.4,668.8l-2.5-0.3l0,0l-0.6-2.2l1.6-1.9l2.5,0.3
								l0.6,2.2l0,0l0,0l-0.9,1.3L326.4,668.8z M332.4,665.3l-1.3,1.6l-2.5-0.3l-0.6-2.2l0.9-0.9l0.9-0.9h0.9l1.6,0.3l0.6,2.2
								L332.4,665.3z"/>
						</g>
					</g>
					<g>
						<path class="st6" d="M-28.8,698c23.2,3.1,33.3-6.9,42.4-11.6c7.5-4.1,21.4-12.9,29.8-6.6c4.1,3.1,10.4,19.2,18.5,22.6
							c17,7.5,32.3-1.6,46.5-5.7c23.2-6.6,26.1-10.7,43.7-9.1c13.5,1.3,36.7,18.5,48,29.2c21,20.1,34.9,27,53.1,34.9
							c19.8-1.6,38.3-4.4,53.4-8.8c-51.5,8.5-66.9-8.5-107.7-44c-18.8-16.3-27.3-23.6-51.2-23.6c-14.1,0-26.4,5.3-44.3,11
							c-11,3.5-26.4,9.1-37.4,3.8c-9.1-4.4-6.3-25.1-19.8-28.9c-13.8-4.1-28.6,9.1-48,19.5c-15.1,7.9-38.9,7.2-59.7-17.9
							C-60.2,667.8-46.1,695.5-28.8,698z"/>
					</g>
					<g>
						<path class="st6" d="M-67.7,683.2c-9.1-15.1-23.9-24.2-38.3-33.9c-6,25.1-10.7,65,4.1,86c6.3,8.8,24.5,12.2,47.7,13.2
							C-54.8,726.9-57,701.1-67.7,683.2z"/>
					</g>
					<g>
						<path class="st7" d="M351.2,652.4c7.2,31.7-25.8,60.6-55,72.2c-48.4,19.2-100.5,9.1-150.4,1.6c-27.6-4.1-54.6-6.9-82.6-5.3
							c-29.5,1.9-58.7,4.7-88.2,5c-19.5,0-70.7,0.9-86.7-21c0.9,11.6,3.8,22.6,9.4,30.8c19.2,27,152.6,3.8,196.3,10
							c44,6.3,190.3,18.8,236.5-13.2C374.7,701.7,368.8,655.3,351.2,652.4z"/>
					</g>
					<g>
						<path class="st8" d="M78.9,606.9c-0.6,0-1.3,0-1.9-0.3c-2.2-0.9-3.1-3.5-1.9-5.7c11.6-24.8,23.6-33,23.9-33.3
							c1.9-1.3,4.4-0.6,5.7,1.3c1.3,1.9,0.6,4.4-1.3,5.7c-0.3,0.3-10.7,7.5-21,29.8C81.8,606,80.5,606.9,78.9,606.9z"/>
					</g>
					<g>
						<path class="st8" d="M98.4,619.8c-0.3,0-0.6,0-1.3,0c-2.2-0.6-3.5-2.8-2.8-5c6.3-22,21.4-33.6,22-33.9c1.9-1.3,4.4-0.9,6,0.9
							c1.3,1.9,0.9,4.4-0.9,6c0,0-13.5,10.4-18.8,29.5C101.9,618.5,100,619.8,98.4,619.8z"/>
					</g>
					<g>
						<path class="st8" d="M116.6,630.1c-0.3,0-0.6,0-1.3-0.3c-2.2-0.6-3.5-2.8-2.8-5c5.7-19.8,18.5-32,19.2-32.7
							c1.6-1.6,4.4-1.6,6,0c1.6,1.6,1.6,4.4,0,6c0,0-11.9,11.6-16.6,28.9C120.1,628.9,118.5,630.1,116.6,630.1z"/>
					</g>
					<g>
						<path class="st8" d="M134.5,641.1c-0.3,0-0.6,0-0.9,0c-2.2-0.6-3.5-2.8-3.1-5c4.7-18.5,18.2-30.8,18.8-31.4
							c1.6-1.6,4.4-1.6,6,0.3c1.6,1.6,1.6,4.4-0.3,6l0,0c0,0-12.2,11.3-16.3,27.3C138.3,639.9,136.4,641.1,134.5,641.1z"/>
					</g>
					<g>
						<path class="st8" d="M152.7,648c-2.2,0-4.1-1.9-4.1-4.1c0-11.6,16-27.6,17.9-29.2c1.6-1.6,4.4-1.6,6,0c1.6,1.6,1.6,4.4,0,6
							c-6,5.7-15.4,17-15.4,23.2C157.1,646.2,155.2,648,152.7,648z"/>
					</g>
					<g>
						<path class="st8" d="M173.8,653.4c-0.3,0-0.9,0-1.3-0.3c-2.2-0.6-3.5-3.1-2.8-5.3c3.8-12.2,14.4-22,14.8-22.3
							c1.6-1.6,4.4-1.3,6,0.3c1.6,1.6,1.6,4.4-0.3,6l0,0c0,0-9.4,8.5-12.6,18.5C177.2,652.4,175.6,653.4,173.8,653.4z"/>
					</g>
					<g>
						<path class="st7" d="M203.6,657.1c-40.8-1.6-82.6-20.1-115.2-44.6c-7.9-6-13.8-11-22.3-16c-8.2-5-13.8,3.5-38,12.9
							c-22.9,8.8-39.6,6.6-63.4,0.3c-12.9-3.5-39.9-15.7-48-29.8c-1.3,2.2-1.9,3.1-2.5,5.7c-1.3,4.1-1.6,5.3-2.2,7.2
							c-0.3,1.3-0.6,2.5-0.9,3.8c13.2,27.9,68.5,43.7,135,20.7c16.6-5.7,22.3-7.2,44.6,9.7c17,12.6,38.9,22.3,60,27.9
							C172.8,660.6,211.8,664.1,203.6,657.1z"/>
					</g>
					<g>
						<g>
							<path class="st7" d="M-106,657.8c-1.3-0.6-1.9-0.9-1.9-0.9l0.6-0.9c0,0,0.6,0.3,1.9,0.9L-106,657.8z"/>
						</g>
						<g>
							<path class="st7" d="M-62.4,741.9c0-1.3-0.3-2.8-0.3-4.1h0.9c0,1.6,0.3,2.8,0.3,4.1H-62.4z M-63,733.5c0-1.3-0.3-2.8-0.6-4.1
								h0.9c0.3,1.6,0.3,2.8,0.6,4.1H-63z M-64.3,725.3c-0.3-1.3-0.3-2.8-0.6-4.1l0.9-0.3c0.3,1.6,0.6,2.8,0.6,4.1L-64.3,725.3z
								 M-65.8,717.1c-0.3-1.3-0.6-2.8-0.9-4.1l0.9-0.3c0.3,1.6,0.6,2.8,0.9,4.1L-65.8,717.1z M-67.4,709c-0.3-1.3-0.6-2.8-0.9-4.1
								l0.9-0.3c0.3,1.3,0.6,2.8,0.9,4.1L-67.4,709z M-69.6,700.8c-0.3-1.3-0.6-2.5-0.9-4.1l0.9-0.3c0.3,1.3,0.6,2.8,0.9,4.1
								L-69.6,700.8z M-71.8,692.6c-0.6-1.3-0.9-2.5-1.6-3.8l0.9-0.3c0.6,1.3,1.3,2.5,1.6,3.8L-71.8,692.6z M-75.6,685.4
								c-0.6-1.3-1.6-2.2-2.2-3.5l0.9-0.6c0.9,1.3,1.6,2.5,2.2,3.5L-75.6,685.4z M-80.3,678.5c-0.9-0.9-1.9-2.2-2.8-3.1l0.6-0.6
								c0.9,0.9,1.9,2.2,2.8,3.1L-80.3,678.5z M-85.9,672.5c-0.9-0.9-1.9-1.9-3.1-2.8l0.6-0.9c0.9,0.9,2.2,1.9,3.1,2.8L-85.9,672.5z
								 M-92.2,666.9c-1.3-0.9-2.2-1.9-3.5-2.5l0.6-0.9c0.9,0.9,2.2,1.6,3.5,2.5L-92.2,666.9z M-99.1,662.2
								c-1.3-0.9-2.5-1.6-3.5-2.2l0.6-0.9c0.9,0.6,2.2,1.6,3.5,2.2L-99.1,662.2z"/>
						</g>
						<g>
							<path class="st7" d="M-62.1,748.2c0-0.6,0-1.3,0-2.2h0.9c0,0.6,0,1.3,0,2.2H-62.1z"/>
						</g>
					</g>
				</g>
				<g>
					<g>
						<path class="st1" d="M-139.3,586.5c6.6-4.1,22.6-15.4,30.8,2.2c9.4,20.7,28.3,70,44,97c15.7,27,24.5,38.6,30.1,46.5
							s-39.6,12.6-63.1-32.7c-23.2-45.2-48.7-94.2-55.3-98.9C-156.3,597.8-148.7,592.5-139.3,586.5z"/>
					</g>
					<g>
						<path class="st2" d="M76.7,831.1c0,0-77.3,42.7-222.6-68.8C-291,651.2-353.8,630.1-353.8,630.1s-26.7,14.8-28.9,24.8
							c-3.1,12.9,1.9,26.7,26.1,46.2c1.9,1.6,4.1,3.1,6.3,4.7c0.9-2.2,3.8-3.1,6-2.5c2.8,0.9,4.1,3.5,3.5,6.3
							c-0.3,0.9-0.3,1.9-0.3,2.5c4.7,3.1,10,6.9,16,10.7c0-2.2,1.6-4.4,3.8-5c2.5-0.6,5.7,0.9,6,3.8c0.3,2.2,0.3,4.7-0.3,6.9v0.3
							c5.3,3.1,11,6.6,17,10c0.9-1.6,2.2-2.8,3.8-3.8c2.2-1.6,5.7-0.3,6.9,2.2c1.3,2.5,0.3,5-1.9,6.6l0,0c0.6-0.3,0.3,0,0,0
							c16.6,9.4,36.4,19.8,58.7,30.5c55.3,26.4,87.9,69.7,169.9,106.5c1.3-1.6,2.5-3.1,4.1-4.7c4.7-4.7,11.3,2.8,6.9,7.2
							c-0.3,0.3-0.9,0.9-1.3,1.3c4.1,1.9,8.5,3.5,12.6,5c0.3-1.6,0.6-2.8,0.9-4.4c1.6-6.3,11.3-3.5,9.7,2.8c-0.3,1.6-0.6,3.1-0.9,5
							c3.8,0.9,8.5,1.9,13.5,2.2c0-0.9,0-2.2,0.3-3.1c0.3-2.8,2.2-5,5-5c2.5,0,5.3,2.5,5,5c0,1.3-0.3,2.2-0.3,3.5
							C28.1,896.4,75.5,882.6,76.7,831.1z"/>
					</g>
					<g>
						<path class="st3" d="M72.3,807.6c-18.2-8.5-48-25.4-90.4-62.8c-3.8-3.1-10-8.2-18.2-15.7c-0.9,0.6-1.9,0.9-3.1,1.3
							c-9.4,2.5-31.1-16.3-43.3-30.5c-15.4-17.9-21.7-32.7-32-58.4c-4.4-11-10-30.1-19.2-38.6c-9.4-8.5-21.4-8.2-31.7-9.4
							c-10.4-1.3-24.5-2.5-43.3-18.5c-9.1-7.5-17.3-20.7-21.4-31.7c-6.3-16.3-6-36.7-27.9-23.6c-1.6,0.9-3.8,2.8-5.3,4.1
							c-8.2,7.9-20.4,18.5-35.5,30.1c-14.8,11.3-57.2,54-55,87.3c1.9,33.3,127.8,83.2,161.7,111.8c33.9,28.6,152,115.9,208.2,113.1
							C71.4,863.5,90.2,816,72.3,807.6z"/>
					</g>
					<g class="st4">
						<g>
							<path class="st5" d="M-58.6,722.5L-58.6,722.5l-0.6,0.3l-1.9-1.6v-0.3l0,0c-0.3,0-0.3-0.3-0.6-0.6l0,0v0.6l0,0h-0.3l0,0
								c0,0.3,0.3,0.3,0.3,0.6l0,0h0.3l1.9,1.6l-0.3,0.9l0,0c0.3,0.3,0.3,0.6,0.6,0.9l0,0l0.3-1.9l0.9-0.3
								C-58.3,722.8-58.6,722.8-58.6,722.5z"/>
						</g>
						<g>
							<path class="st5" d="M71.1,809.8c0-0.3,0.3-0.3,0.3-0.6c0.3-0.6,0.3-1.3,0.6-1.9c-0.3,0-0.3-0.3-0.6-0.3l0,0l-0.6,1.9
								l-2.5,0.9l-0.9-0.6l-0.9-0.9v-0.6l0.3-1.6H67l0.9-0.3l0,0c-0.3,0-0.6-0.3-0.9-0.3l0,0h-0.3l-1.3-0.9l0,0
								c-0.3,0-0.6-0.3-0.9-0.3s-0.3-0.3-0.6-0.3l0,0l0,0l-2.5,0.9l-0.6-0.3l-1.3-1.3l0,0l0,0l0.3-0.6v-0.6c-0.3,0-0.3-0.3-0.6-0.3
								l0,0l-0.3,1.6l-1.9,0.6h-0.3l-1.9-1.6l0.6-2.2l0.6-0.3l0,0c-0.3,0-0.6-0.3-0.9-0.6l0,0l0,0l-0.6-0.3l0,0
								c-0.3-0.3-0.9-0.6-1.3-0.9c-0.3,0-0.3-0.3-0.6-0.3l0,0l0,0l-2.2,0.6l-1.9-1.6l0.3-1.6c-0.3,0-0.3-0.3-0.6-0.3l0,0l-0.3,1.9
								l-1.3,0.3l-1.3,0.3l-0.9-0.6l-0.9-0.9l0.6-2.2l1.3-0.3l0,0c-0.3-0.3-0.6-0.3-0.9-0.6l0,0l-0.6,0.3l-1.9-1.6l0,0l0,0l0,0
								c-0.3,0-0.3-0.3-0.6-0.3l0,0v0.6l-1.6,0.6l-0.9,0.3l-1.6-1.3l-0.3-0.3l0.3-0.9l0.3-1.3l0,0l0,0c-0.3,0-0.3-0.3-0.6-0.3
								c-0.6-0.3-0.9-0.6-1.6-0.9l0,0l1.6,1.3l-0.6,2.2l-0.6,0.3l-1.9,0.6l-1.9-2.5l0.6-2.2l1.3-0.3l1.3-0.3l0,0
								c-0.3-0.3-0.6-0.3-0.6-0.6l0,0l-1.9,0.6l-1.9-1.6l0.3-1.3l0,0c-0.3,0-0.3-0.3-0.6-0.3v0.3l-0.3,1.3l-2.5,0.9l-1.9-1.6
								l0.6-2.2l1.3-0.3l0,0c-0.3-0.3-0.6-0.3-0.6-0.6l0,0l-0.9,0.3l-1.9-1.6v-0.6l0,0c-0.3,0-0.3-0.3-0.6-0.6v0.6v0.3l-1.9,0.6
								l-0.6,0.3l-1.9-1.6l0.6-2.2l0.6-0.3c-0.3-0.3-0.6-0.3-0.6-0.6l0,0h-0.3l-0.3-0.3l-1.3-1.3l0,0l0,0l-0.3-0.3
								c0,0-0.3,0-0.3-0.3v0.3l-2.5,0.9l-1.6-1.3l-0.3-0.3l0.3-0.9l0.3-1.6l0,0l0,0l0,0c-0.3-0.3-0.3-0.3-0.6-0.3
								c-0.6-0.3-0.9-0.9-1.6-1.3c-0.3,0-0.3-0.3-0.6-0.6l0,0l-2.2,0.6l-1.9-1.6l0,0l0.6-1.9l0,0c0,0,0,0-0.3,0
								c-0.3,0-0.3-0.3-0.6-0.3c-0.6-0.6-1.3-0.9-1.9-1.3l-0.3-0.3c0,0-0.3,0-0.3-0.3l-2.2,0.6l-1.3-0.9l-0.6-0.6l0.3-1.9l0,0
								l-0.3-0.3l-0.3-0.3l0,0l0,0l0,0l0,0l0,0l-0.6,2.5l-2.5,0.9l-1.9-1.6l0.6-2.2l2.5-0.9l0,0c-0.3-0.3-0.3-0.3-0.6-0.6l0,0
								l-1.3,0.3l-0.6,0.3l-1.9-1.6l0.3-1.9c-0.3-0.3-0.3-0.3-0.6-0.6l0,0l-0.6,2.2l-2.5,0.9l-1.6-1.3l-0.3-0.3l0.6-2.2l0.9-0.3
								l1.6-0.6l0,0c-0.3-0.3-0.3-0.3-0.6-0.6l0,0l-1.9,0.6l-0.6-0.6l-0.9-0.9l0.3-1.3l0.3-0.6l-0.3-0.3l-0.3-0.3
								c-0.6-0.6-1.3-0.9-1.9-1.6l-0.3-0.3c0,0,0,0-0.3-0.3l-2.2,0.6L-20,746l0.6-2.2l0,0l0,0c0,0-0.3-0.3-0.6-0.3
								c-0.6-0.3-0.9-0.9-1.6-1.3c-0.3,0-0.3-0.3-0.6-0.3l0,0l-0.6,0.3l-1.6,0.6l-0.9-0.6l-0.9-0.9l0.6-2.2l0,0
								c-0.3,0-0.3-0.3-0.6-0.3c-0.6-0.3-0.9-0.9-1.6-1.3c-0.3-0.3-0.3-0.3-0.6-0.3l0,0l0,0l-0.9,0.3l-1.6,0.6l-1.9-1.6l0.6-2.2l0,0
								c-0.3-0.3-0.3-0.3-0.6-0.6c-0.6-0.3-0.9-0.9-1.6-1.3c-0.3-0.3-0.3-0.3-0.6-0.6l0,0l0,0l0,0l-2.5,0.9l-0.9-0.9
								c-0.3,0-0.6,0.3-0.9,0.3l1.3,1.3l0,0l0,0v0.3l-0.3,1.9l-2.5,0.9l-1.9-1.6l0.6-2.2h0.3l0,0h-0.3c-0.3,0-0.6,0-0.6,0h-0.3l0,0
								l0.3,0.3l-0.6,2.2l-2.5,0.9l-0.6-0.6l-0.9-0.9l0.6-2.2l0.6-0.3h0.3l0,0l0,0c-0.3,0-0.6-0.3-0.9-0.3l0,0l-0.3-0.3l0,0
								c-0.6-0.3-1.3-0.6-1.9-0.9c-0.3,0-0.3-0.3-0.6-0.3c0,0-0.3,0-0.3-0.3l0,0l-1.3,0.3l-0.6,0.3l-1.9-1.6l0.3-1.3l0,0
								c-0.3,0-0.3-0.3-0.6-0.3l0,0l-0.3,1.6L-57,730l-0.6-0.3l0,0c0,0.3,0.3,0.3,0.3,0.6c0,0.3,0.3,0.3,0.3,0.6l0,0l0,0l1.3-0.3
								l1.3-0.3l1.9,1.6l-0.6,2.2l-0.9,0.3l0,0c0,0.3,0.3,0.3,0.3,0.6l0,0l0.9-0.3l1.9,1.6l-0.3,1.6l0,0c0.3,0.3,0.3,0.6,0.6,0.6
								l0,0l0.6-2.2l2.5-0.9l1.9,1.6l-0.6,2.2l0,0l-2.5,0.9l-1.6-1.3l0,0c0.3,0.6,0.9,0.9,1.3,1.6c0.3,0.3,0.3,0.3,0.6,0.6l0,0l0,0
								l0,0l2.5-0.9l1.3,0.9l0.6,0.6l-0.3,1.3l-0.3,1.3l-0.9,0.3c0.3,0.3,0.3,0.3,0.6,0.6l0,0l0.6-0.3l1.9,1.6l-0.3,1.3l0,0
								c0.3,0.3,0.3,0.3,0.6,0.6l0,0l0.3-1.6l2.5-0.9l1.9,1.6l-0.6,2.2l-0.9,0.3l-0.9,0.3l0,0c0.3,0.3,0.3,0.3,0.6,0.6l0.6-0.3
								l1.3-0.3l1.9,1.6l-0.6,2.2l0,0l0,0c0.3,0.3,0.3,0.3,0.6,0.6c0.6,0.6,0.9,0.9,1.6,1.6c0.3,0.3,0.3,0.3,0.6,0.6l0,0l0,0v-0.3
								l2.5-0.9l0.6,0.6l1.3,0.9l-0.6,2.2H-30h-0.3c0.3,0.3,0.3,0.3,0.6,0.6l0,0h0.3l1.6,1.6l0,0l0,0v0.3l0,0
								c0.3,0.3,0.3,0.3,0.6,0.6l0.3-0.9l1.3-0.3l1.3-0.3l1.9,1.6l-2.2-1.3L-25,762l-1.3,0.3c0.3,0.3,0.3,0.3,0.6,0.6l0.9-0.3
								l1.6,1.6l0,0l-0.3,0.9l0,0c0.3,0.3,0.3,0.3,0.6,0.6l0,0l0.3-1.3l2.5-0.9l1.9,1.6l-0.6,2.2l-1.3,0.3h-0.3
								c0.3,0.3,0.3,0.3,0.6,0.6l1.3-0.3l1.9,1.6l-0.3,1.3l0,0c0.3,0.3,0.3,0.3,0.6,0.6l0,0l0.3-1.6l1.3-0.3l1.3-0.3l1.9,1.6
								l-0.3,1.9v0.6l-1.6,0.6l0,0c0.3,0.3,0.3,0.3,0.6,0.6l0,0l1.3-0.3l1.9,1.6l-0.3,0.9l0,0c0.3,0.3,0.3,0.3,0.6,0.6l0,0l0.3-1.6
								l2.2-0.6h0.3l0.3,0.3l1.6,1.3l-0.3,1.9v0.3l-1.3,0.3c0.3,0.3,0.3,0.3,0.6,0.6l0.9-0.3l1.9,1.6l-0.3,0.6l0,0
								c0.3,0.3,0.3,0.3,0.6,0.6l0,0l0.3-0.9l2.5-0.9l1.9,1.6L2,784v0.6L1.4,785l0,0c0.3,0.3,0.6,0.3,0.6,0.6l0,0h0.3l1.9,1.6l0,0
								l0,0c0.3,0,0.3,0.3,0.6,0.6l0,0v-0.3h0.6l1.9-0.6l0.3,0.3l1.6,1.3l-0.6,2.2l0,0l0,0c0.3,0.3,0.3,0.3,0.6,0.6
								c0.6,0.3,1.3,0.9,1.9,1.3l0.3,0.3c0,0,0.3,0,0.3,0.3l1.9-0.6l1.9,1.6l-0.3,1.6l0,0c0.3,0,0.3,0.3,0.6,0.3l0,0l0.3-1.9
								l0.6-0.3l1.9-0.6l1.9,1.6l-1.3,0.9l0,0l-1.3,0.3h-0.3c0.3,0.3,0.6,0.3,0.6,0.6l0,0l0.9-0.3l0.6,0.3l1.3,1.3v0.6l0,0
								c0.3,0,0.3,0.3,0.6,0.3l0,0l0.3-0.9l2.5-0.9l1.9,1.6l-0.6,2.2l0,0h-0.3h0.3c0.3,0,0.3,0.3,0.6,0.3c0.6,0.3,1.3,0.9,1.9,1.3
								c0.3,0,0.3,0.3,0.6,0.3h0.3l0,0l2.2-0.6l1.9,1.6l-0.3,1.3l0,0c0.3,0,0.3,0.3,0.6,0.3l0,0l0.3-1.6l0.6-0.3l1.9-0.6l1.9,1.6
								l-0.6,2.2l-0.9,0.3l0,0c0.3,0,0.6,0.3,0.9,0.3h0.3l0.6,0.6l0,0c0.3,0.3,0.9,0.6,1.3,0.6c0.3,0,0.3,0.3,0.6,0.3l0,0l2.2-0.6
								l1.9,1.6l-0.3,0.9l0,0c0.3,0,0.3,0.3,0.6,0.3l0,0l0.3-1.3l2.5-0.9l0.6,0.6l1.3,0.9l-0.6,2.2l0,0h0.3h0.3l0,0l0,0l0.6-2.2
								l1.3-0.3l1.3-0.3l1.9,1.6l-0.6,2.5l-0.9,0.3l0,0c0.3,0,0.6,0,0.9,0.3h0.3c0.3,0,0.9,0.3,1.3,0.3l0,0l-0.9-0.6l0.6-2.2
								l1.3-0.3l1.3-0.3l1.9,1.6l-0.6,2.2l-0.9,0.3c0.3,0,0.6,0,0.9,0c0.3,0,0.6,0,0.6,0h0.3l0,0l-0.3-0.3l0.6-2.2l1.3-0.3l0.9-0.3
								l0.9,0.6l0.9,0.9l-0.3,1.3l0,0c0.3,0,0.6,0,0.9-0.3l0.3-0.6l0,0l2.5-0.9l0,0c0.3,0,0.3-0.3,0.6-0.3l0,0l0,0l0.6-2.2l0.6-0.3
								L71.1,809.8L71.1,809.8L71.1,809.8C70.8,809.8,70.8,809.8,71.1,809.8z M-50.1,728.1L-50.1,728.1l1.9,1.6l-0.6,2.2h-0.3
								l-2.2,0.6l-1.9-1.6l0.6-2.5L-50.1,728.1z M67.6,810.4l-0.3,1.6l-0.3,0.9l-1.9,0.6l-0.6,0.3l-1.9-1.6l0.3-1.3l0.3-1.3l1.3-0.3
								l1.3-0.3l0,0L67.6,810.4z M26.5,801.3l0.6-2.2l2.5-0.9l1.9,1.6l-0.6,2.2l0,0l-0.6,0.3l-1.9,0.6L26.5,801.3z M25.2,796.9
								l-0.3-0.3l0,0l0.6-2.2l1.9-0.6l0.6-0.3l1.9,1.6l-0.6,2.2l-2.5,0.9L25.2,796.9z M21.8,797.5l-1.9-1.6l0.3-0.6l0.3-1.6l2.5-0.9
								l1.3,0.9l0.6,0.6l-0.6,2.2l-1.9,0.6L21.8,797.5z M-2.7,780.2l-1.9-1.6l0.6-2.2l1.9-0.6l0.6-0.3l1.9,1.6l-0.3,1.6l-0.3,0.9
								l-1.6,0.6L-2.7,780.2z M-15.6,769.3l-1.3-1.3l-0.3-0.3l0.6-2.2l2.5-0.9l1.9,1.6l-0.6,2.2l-1.9,0.6L-15.6,769.3z M-23.8,759.2
								l-0.9-0.9l-0.9-0.6l0.6-2.2l0.9-0.3l1.3-0.3l0.3,0.3l1.6,1.3l-0.6,2.2l-0.6,0.3L-23.8,759.2z M-43.2,742.9L-43.2,742.9
								l-1.9-1.6l0.6-2.2l2.5-0.9l1.9,1.6l-0.6,2.2L-43.2,742.9z M-27.2,740.7l1.9,1.6l-0.3,1.9v0.6H-26l-1.9,0.6l-1.6-1.3l-0.3-0.3
								l0.6-2.2h0.3L-27.2,740.7z M-12.5,756.4l1.9,1.6l-0.6,2.2l-0.6,0.3l-1.6,0.6l-1.9-1.6l0.6-2.2l0,0L-12.5,756.4L-12.5,756.4z
								 M-7.7,757l1.9,1.6l-0.6,2.2l-2.5,0.9l-1.9-1.6l0.6-2.5h0.3L-7.7,757z M-5.9,762l1.6,1.3l-0.3,1.3l-0.3,0.9l-2.5,0.9
								l-1.9-1.6l0.6-2.5L-5.9,762L-5.9,762z M18.6,775.8l-0.3,0.9l-0.3,1.6l-2.5,0.9l-0.9-0.6l-0.9-0.6v-0.3l0.3-1.9l2.5-0.9
								L18.6,775.8L18.6,775.8z M20.2,780.6L20.2,780.6l-0.3,2.5l-1.6,0.6l-0.9,0.3l-1.9-1.6l0,0l0.3-1.9v-0.6l0.9-0.3l1.6-0.6
								L20.2,780.6z M29.9,785.3l1.9,1.6l-0.6,2.2l-2.5,0.9l-1.9-1.6l0.6-2.2l2.2-0.6L29.9,785.3z M41.6,791.9l1.6,1.3l-0.3,1.6
								l-0.3,0.6l-2.5,0.9l-0.3-0.3l-1.6-1.3l0.6-2.2L41.6,791.9L41.6,791.9z M64.5,804.4l0.9,0.9l0.9,0.6l-0.6,2.2l-2.5,0.9
								l-1.9-1.6v-0.6l0.3-1.6l1.9-0.6L64.5,804.4z M59.5,803.5L59.5,803.5l1.9,1.6l-0.6,2.2l-2.5,0.9l-1.9-1.6l0.6-2.2l1.6-0.6
								L59.5,803.5z M54.7,799.4l-0.6,2.2l-2.5,0.9l-1.9-1.6l0.6-2.2l2.5-0.9L54.7,799.4z M49.7,798.8l-0.6,2.2l-2.5,0.9l-1.9-1.6
								l0.3-1.9v-0.6l2.5-0.9L49.7,798.8L49.7,798.8z M36.5,803.2l0.6-2.2l2.5-0.9l1.9,1.6l-0.6,2.2l0,0l0,0l-2.5,0.9L36.5,803.2z
								 M-12.5,768.6l0.6-2.5l1.3-0.3l1.3-0.3l1.9,1.6l-0.6,2.2v0.3l-1.6,0.6l-0.6,0.3L-12.5,768.6z M-22.2,753.9l0.6-2.2l2.2-0.6
								h0.3l1.9,1.6l-0.6,2.2l-2.2,0.6h-0.3L-22.2,753.9z M-5.9,771.1l-1.9-1.6l0.6-2.5h0.6l1.9-0.6l1.9,1.6l-0.3,1.9v0.3
								L-5.9,771.1z M-11.2,760.8l1.9,1.6l-0.6,2.2l-2.5,0.9l-1.9-1.6l0.6-2.2L-11.2,760.8z M19.9,783.7l1.9,1.6l-0.6,2.2l-2.5,0.9
								l-0.6-0.6l-1.3-0.9l0,0l0.6-1.9v-0.3L19.9,783.7z M24.3,784.6l0.6-0.3l1.9,1.6l-0.6,2.5l-1.9,0.6H24l-1.9-1.6l0,0l0.6-2.2
								L24.3,784.6z M33.1,791.5l-0.6,2.2l-2.5,0.9l-1.9-1.6l0.6-2.2l2.5-0.9L33.1,791.5z M29.9,797.5l0.6-2.2l2.5-0.9l1.9,1.6
								l-0.6,2.2v0.3l-2.5,0.9L29.9,797.5L29.9,797.5z M39.7,796.9l-0.6,2.2l-2.5,0.9l-1.9-1.6l0.6-2.2l2.5-0.9l0.3,0.3L39.7,796.9z
								 M5.8,780.6L5.8,780.6L5.8,780.6l0.3-2.5l2.5-0.9l1.9,1.6l-0.6,2.2l-2.5,0.9L5.8,780.6z M5.8,777.4l-1.9-1.6l0.6-2.2l2.2-0.6
								H7l1.9,1.6l-0.6,2.5L5.8,777.4z M13.3,778l1.9,1.6l-0.6,2.2l-2.5,0.9l-1.9-1.6l0.6-2.2l1.6-0.6L13.3,778z M4.2,772.7
								L4.2,772.7l-1.9-1.6l0.6-2.2l2.5-0.9l1.9,1.6l-0.6,2.2L4.2,772.7z M2,771.8L2,771.8l1.9,1.6l-0.6,1.9v0.3l-0.6,0.3l-1.9,0.6
								l-1.9-1.6l0.6-2.2L2,771.8z M1.7,776.8l1.6-0.6l1.9,1.6l-0.6,2.2l0,0L2,780.9l-1.9-1.6l0.6-2.2L1.7,776.8z M8.6,782.1
								l1.3-0.3l1.9,1.6l-0.6,2.2l-2.5,0.9L6.7,785l0.6-2.2L8.6,782.1z M14.9,782.8l1.9,1.6l-0.6,2.2l-1.9,0.6l-0.6,0.3l-1.9-1.6
								l0.6-2.2L14.9,782.8z M15.8,787.5l0.6-0.3l1.9,1.6l-0.6,2.2l-2.5,0.9l-1.9-1.6l0.6-2.2L15.8,787.5z M21.5,788.1l1.6,1.3
								l0.3,0.3l-0.6,2.2l-2.5,0.9l-1.9-1.6l0.6-2.2L21.5,788.1z M23.3,792.2L24,790l2.5-0.9l1.9,1.6l-0.6,2.2l-2.5,0.9L23.3,792.2z
								 M34.3,799.1l1.9,1.6l-0.6,2.2l-2.5,0.9l-1.9-1.6l0.6-2.5L34.3,799.1z M44.7,797.8l-0.6,2.2v0.3l-1.6,0.6l-0.9,0.3l-1.9-1.6
								l0.6-2.2l2.5-0.9L44.7,797.8z M38.1,792.2l-0.3,1.9v0.6l-2.5,0.9l-1.9-1.6l0.6-2.5l2.5-0.9l0.6,0.6L38.1,792.2z M13.6,774.9
								l-0.6,2.2h-0.3l-2.2,0.6l-1.9-1.6l0.6-2.2l2.5-0.9L13.6,774.9L13.6,774.9z M2.3,768.6l-0.6,2.2l0,0l-2.5,0.9l-1.9-1.6
								l0.6-2.2l2.5-0.9L2.3,768.6z M0.1,766.1L0.1,766.1l-2.5,0.9l-1.9-1.6l0.6-2.2l2.5-0.9l1.9,1.6L0.1,766.1z M-14,751.7l1.9,1.6
								l-0.6,2.5l-1.3,0.3l-1.3,0.3l-1.9-1.6l0.6-2.2L-14,751.7z M-18.7,747.9l-0.6,2.2l-2.5,0.9l-0.9-0.6l-0.9-0.9l0.6-2.2l2.5-0.9
								L-18.7,747.9z M-27.5,749.5l-1.3-0.9l0.3-1.3l0.3-1.3l2.5-0.9l1.9,1.6l-0.6,2.2l-2.5,0.9L-27.5,749.5z M-32.6,748.5l-1.3-0.9
								l0.3-1.3l0.3-1.3l2.5-0.9l0.3,0.3l1.6,1.3l-0.6,2.5l-2.5,0.9L-32.6,748.5z M-36.6,748.2l-1.9-1.6l0,0l0.6-2.2l1.6-0.6
								l0.9-0.3l1.9,1.6l-0.6,2.5L-36.6,748.2z M-40.1,742.2l0.6-2.2l0.6-0.3l1.9-0.6l1.9,1.6l-0.6,2.2l0,0l0,0l-0.6,0.3l-1.9,0.6
								L-40.1,742.2z M-30.4,741.3l-0.6,2.2l-2.5,0.9l-0.9-0.6l-0.9-0.6v-0.3l0.6-2.2l1.3-0.3l1.3-0.3L-30.4,741.3z M-33.8,735.3
								l1.9,1.6l0,0l-0.6,2.2l-1.9,0.6h-0.3l-1.9-1.6l0.6-2.2v-0.3L-33.8,735.3z M-38.8,734.4l1.9,1.6l-0.3,1.6l-0.3,0.6l-2.5,0.9
								l-1.9-1.6l0.6-2.2l1.3-0.3L-38.8,734.4z M-32.2,752.3l0.6-2.2l2.2-0.6h0.3l1.6,1.3l0.3,0.3l-0.6,2.2l-1.6,0.6l-0.6,0.3
								L-32.2,752.3z M-26.6,750.7l0.6-0.3l1.6-0.6l0.9,0.9l0.9,0.6l-0.6,2.2l-2.5,0.9l-1.9-1.6L-26.6,750.7z M-20,756.4v-0.3
								l1.9-0.6l0.6-0.3l1.9,1.6l-0.6,2.2l-0.6,0.3l-1.9,0.6l-1.9-1.6L-20,756.4z M-17.5,760.5l1.3-0.3l1.6,1.3h0.3l-0.6,2.2
								l-2.5,0.9l-1.9-1.6l0.3-1.9v-0.6L-17.5,760.5z M-11.2,773l0.6-2.2l2.5-0.9l1.9,1.6l-0.6,2.5l-2.5,0.9L-11.2,773z M-6.2,774
								l0.6-2.2l2.5-0.9l1.9,1.6l-0.6,2.2l-2.5,0.9L-6.2,774L-6.2,774z M2,784l0.6-2.2l2.5-0.9l1.9,1.6l-0.6,2.2l-2.5,0.9L2,784z
								 M38.4,805.4l2.5-0.9l1.9,1.6l-0.6,2.2l-2.5,0.9l-1.9-1.6L38.4,805.4z M41.6,803.8l0.6-2.2l2.5-0.9l1.9,1.6l-0.6,2.2
								l-2.5,0.9L41.6,803.8z M48.2,806.3l-1.9-1.6l0.6-2.2l1.3-0.3l0.9-0.3l1.9,1.6l-0.6,2.2L48.2,806.3z M51.3,805.7l0.6-2.2
								l1.9-0.6h0.3l1.9,1.6l-0.6,2.2l-2.5,0.9l-0.9-0.9L51.3,805.7z M54.7,812l-1.9-1.6l0.6-2.2l2.5-0.9l1.9,1.6l-0.6,2.5L54.7,812
								z M59.8,812.6l-1.9-1.6l0.6-2.2l2.5-0.9l0.3,0.3l1.6,1.3l-0.6,2.2v0.3L59.8,812.6z M23.3,779.9l0.6,0.6l0.9,0.9l-0.6,2.2
								l-2.2,0.6h-0.3l-1.9-1.6l0.6-2.2L23.3,779.9z M12,770.5l-0.6,2.2l0,0l-2.5,0.9L7,772.1l0.6-2.2l0.6-0.3l1.6-0.6l0.6,0.6
								L12,770.5z M3.9,763.6l1.9,1.6l-0.6,2.2l-2.5,0.9L1,767.1l-0.3-0.3l0,0l0,0v-0.3l0.3-1.9L3.9,763.6z M-13.7,748.5
								L-13.7,748.5l-0.3,1.9v0.3l-0.6,0.3l-1.9,0.6l-1.9-1.6l0.6-2.2l2.5-0.9l0.9,0.6L-13.7,748.5z M-23.4,741.9l1.3-0.3l1.9,1.6
								l-0.6,2.5h-0.3l-1.9,0.6l-0.9-0.6l-0.9-0.9l0.6-2.2L-23.4,741.9z M-26.9,737.8l-0.6,2.2l-1.3,0.3l-1.3,0.3l-1.9-1.6v-0.3
								l0.3-1.9l2.5-0.9L-26.9,737.8L-26.9,737.8z M-33.5,732.5l-0.6,2.2l-1.3,0.3l-1.3,0.3l-0.3-0.3l-1.6-1.3l0.6-2.5l2.5-0.9
								L-33.5,732.5L-33.5,732.5z M-46.1,734.4L-46.1,734.4l2.5-0.9l1.9,1.6l-0.6,2.2l-1.3,0.3l-1.3,0.3l-1.9-1.6l0.3-1.9
								L-46.1,734.4z M-37.3,751.4l0.6-2.5l2.5-0.9l1.9,1.6l-0.6,2.2l-1.6,0.6l-0.9,0.3L-37.3,751.4z M-28.8,758.3l-0.6-0.6
								l-1.3-0.9l0,0l0.6-2.2l2.5-0.9l1.9,1.6l-0.6,2.2L-28.8,758.3z M-24.1,762.3l0.3-1.9v-0.6l0.9-0.3l1.3-0.3l0.6,0.6l1.3,0.9
								l-0.6,2.2l-2.5,0.9l-0.9-0.6L-24.1,762.3z M8.9,787.2l2.5-0.9l1.9,1.6l-0.6,2.5l-2.5,0.9l-1.9-1.6l0,0L8.9,787.2z
								 M44.7,810.1l-1.9-1.6l0,0l0.6-2.2l2.5-0.9l1.9,1.6l-0.6,2.2l0,0l0,0l-1.3,0.3L44.7,810.1z M51.6,810.4l-1.9,0.6l-1.9-1.6
								l0.6-2.2l1.3-0.3l1.3-0.3l0.6,0.6l1.3,0.9l-0.6,2.2H51.6z"/>
						</g>
					</g>
					<g>
						<path class="st6" d="M-272.8,648c18.2,15.1,32,11.6,42.4,12.6c8.5,0.6,24.8,0.3,28.9,10c1.9,4.7-1.3,21.7,3.8,29.2
							c10.4,15.4,28.3,15.7,42.4,19.8c23.2,6.6,27.9,4.7,42.1,15.1c11,8.2,21.7,34.9,25.4,49.9c7.2,28.3,15.7,41.1,27,57.5
							c17.6,9.1,34.9,16.3,49.9,20.7c-48.4-19.8-52.4-42.4-68.8-93.9c-7.5-23.9-11-34.5-31.1-47.1c-11.9-7.5-25.1-9.4-43.3-14.1
							c-11.3-2.8-27-6-33.6-16.3c-5.3-8.5,7.9-24.5-1.6-35.2c-9.4-10.7-29.2-7.2-51.2-8.5c-17-0.9-37.1-14.4-41.5-46.5
							C-283.8,606.3-286,637-272.8,648z"/>
					</g>
					<g>
						<path class="st6" d="M-298.2,615.4c0-17.6-7.9-33.3-14.8-49c-18.2,18.2-43.3,49.6-41.8,75.4c0.6,10.7,14.4,23.2,33.9,36.4
							C-309.8,659.3-298.2,636.1-298.2,615.4z"/>
					</g>
					<g>
						<path class="st7" d="M74.5,809.1c-10.4,30.8-53.7,38-84.8,32.7c-51.2-9.1-90.4-45.2-128.8-77.6
							c-21.4-17.9-42.7-34.9-67.5-47.7c-26.1-13.8-52.4-26.7-77.6-42.1c-16.6-10-60.6-36.4-62.8-63.4c-5.3,10.4-8.8,21.4-8.2,31.1
							c1.9,33.3,127.8,83.2,161.7,111.8c33.9,28.6,152,115.9,208.2,113.1C68.6,863.5,88.3,820.8,74.5,809.1z"/>
					</g>
					<g>
						<path class="st8" d="M-131.2,627.9c-1.3,0-2.8-0.6-3.5-1.9c-1.3-1.9-0.6-4.4,1.3-5.7c22.9-15.1,37.4-15.7,38-15.7
							c2.2,0,4.1,1.9,4.4,4.1c0,2.2-1.9,4.1-4.1,4.4c-0.3,0-12.9,0.6-33.6,14.4C-129.6,627.6-130.2,627.9-131.2,627.9z"/>
					</g>
					<g>
						<path class="st8" d="M-121.4,649.3c-1.3,0-2.2-0.3-3.1-1.3c-1.6-1.6-1.6-4.4,0.3-6c17-15.4,35.8-17.3,36.4-17.3
							c2.2-0.3,4.4,1.6,4.4,3.8c0.3,2.2-1.6,4.4-3.8,4.4l0,0c-0.3,0-17,1.9-31.7,15.1C-119.2,648.7-120.5,649.3-121.4,649.3z"/>
					</g>
					<g>
						<path class="st8" d="M-111.1,667.5c-1.3,0-2.2-0.3-3.1-1.3c-1.6-1.6-1.6-4.4,0.3-6c15.1-13.8,32.7-17.6,33.3-17.9
							c2.2-0.6,4.4,0.9,5,3.1c0.6,2.2-0.9,4.4-3.1,5c-0.3,0-16,3.5-29.5,15.7C-108.9,667.2-110.1,667.5-111.1,667.5z"/>
					</g>
					<g>
						<path class="st8" d="M-101.6,686.3c-0.9,0-2.2-0.3-3.1-1.3c-1.6-1.6-1.6-4.4,0-6c13.8-13.2,31.7-16.6,32.3-17
							c2.2-0.3,4.4,0.9,4.7,3.5c0.3,2.2-0.9,4.4-3.5,4.7l0,0c-0.3,0-16.3,3.1-28.3,14.8C-99.4,686-100.7,686.3-101.6,686.3z"/>
					</g>
					<g>
						<path class="st8" d="M-89.7,701.7c-0.6,0-1.6-0.3-2.2-0.6c-1.9-1.3-2.5-3.8-1.3-5.7c6.3-10,28.3-14.8,30.8-15.4
							c2.2-0.6,4.4,0.9,5,3.1c0.6,2.2-0.9,4.4-3.1,5c-8.2,1.9-22,6.6-25.4,11.6C-86.9,701.1-88.5,701.7-89.7,701.7z"/>
					</g>
					<g>
						<path class="st8" d="M-74.6,717.4c-1.3,0-2.2-0.6-3.1-1.6c-1.6-1.9-1.3-4.4,0.3-6c9.7-8.5,23.9-11,24.5-11.3
							c2.2-0.3,4.4,0.9,4.7,3.5c0.3,2.2-0.9,4.4-3.5,4.7l0,0c0,0-12.6,2.5-20.4,9.4C-72.7,717.1-73.7,717.4-74.6,717.4z"/>
					</g>
					<g>
						<path class="st7" d="M-53.6,736c-33.9-22.9-59.7-60.6-74.4-98.6c-3.8-9.1-6-16.6-10.4-25.4c-4.4-8.5-13.5-4.4-38.9-9.1
							c-24.2-4.4-37.1-15.1-54.3-33c-9.1-9.7-25.8-34.2-25.1-50.9c-2.2,1.3-3.5,1.9-5.3,3.5c-3.1,2.8-4.1,3.8-5.7,5
							c-0.9,0.9-1.9,1.6-2.8,2.5c-3.5,30.8,35.2,73.2,103.9,88.6c17.3,3.8,22.6,5.7,33,31.7c7.9,19.8,21.4,39.6,36.4,55.3
							C-81.5,722.1-50.1,745.7-53.6,736z"/>
					</g>
					<g>
						<g>
							<path class="st7" d="M-317.4,573.3c-0.6-1.3-0.9-1.9-0.9-1.9l0.9-0.6c0,0,0.3,0.6,0.9,1.9L-317.4,573.3z"/>
						</g>
						<g>
							<path class="st7" d="M-323.3,668.4l-0.9-0.6c0.6-1.3,1.3-2.5,1.9-3.8l0.9,0.6C-322.1,665.9-322.7,667.2-323.3,668.4z
								 M-319.6,660.9l-0.9-0.3c0.6-1.3,1.3-2.5,1.9-3.8l0.9,0.3C-318.3,658.4-318.9,659.7-319.6,660.9z M-316.1,653.4l-0.9-0.3
								c0.6-1.3,0.9-2.5,1.6-3.8l0.9,0.3C-315.2,650.9-315.8,652.1-316.1,653.4z M-313,645.5l-0.9-0.3c0.6-1.3,0.9-2.5,1.3-4.1
								l0.9,0.3C-312,643-312.7,644.3-313,645.5z M-310.5,637.7l-0.9-0.3c0.3-1.3,0.9-2.5,1.3-4.1l0.9,0.3
								C-309.5,634.8-309.8,636.4-310.5,637.7z M-308,629.5l-0.9-0.3c0.3-1.3,0.9-2.5,1.3-4.1l0.9,0.3
								C-307,627-307.3,628.3-308,629.5z M-305.4,621.3l-0.9-0.3c0.3-1.3,0.3-2.8,0.6-4.1h0.9C-305.1,618.8-305.4,620.1-305.4,621.3
								z M-304.8,613.2h-0.9v-0.3c0-1.3,0-2.5,0-3.8h0.9C-304.8,610-304.8,611.6-304.8,613.2L-304.8,613.2z M-306.4,604.7
								c-0.3-1.3-0.3-2.8-0.6-4.1l0.9-0.3c0.3,1.3,0.6,2.8,0.6,4.1L-306.4,604.7z M-308,596.5c-0.3-1.3-0.6-2.5-1.3-4.1l0.9-0.3
								c0.3,1.3,0.9,2.8,1.3,4.1L-308,596.5z M-310.5,588.7c-0.6-1.3-0.9-2.5-1.6-3.8l0.9-0.3c0.6,1.3,0.9,2.5,1.6,4.1H-310.5z
								 M-313.6,580.8c-0.6-1.3-1.3-2.5-1.9-3.8l0.9-0.3c0.6,1.3,1.3,2.5,1.9,3.8L-313.6,580.8z"/>
						</g>
						<g>
							<path class="st7" d="M-326.5,674.1l-0.9-0.6c0.3-0.6,0.6-1.3,0.9-1.9l0.9,0.6C-325.9,672.8-326.2,673.5-326.5,674.1z"/>
						</g>
					</g>
				</g>
			</g>
		</g>
	</g>
</g>
</svg>
