<?xml version="1.0" encoding="utf-8"?>
<!-- Generator: Adobe Illustrator 19.1.0, SVG Export Plug-In . SVG Version: 6.00 Build 0)  -->
<svg version="1.1" id="Ñëîé_1" xmlns="http://www.w3.org/2000/svg" xmlns:xlink="http://www.w3.org/1999/xlink" x="0px" y="0px"
	 viewBox="0 0 900 900" style="enable-background:new 0 0 900 900;" xml:space="preserve">
<style type="text/css">
	.st0{opacity:0.7;fill-rule:evenodd;clip-rule:evenodd;fill:url(#SVGID_1_);}
	.st1{fill-rule:evenodd;clip-rule:evenodd;fill:#34374D;}
	.st2{fill-rule:evenodd;clip-rule:evenodd;fill:#F1B287;}
	.st3{fill-rule:evenodd;clip-rule:evenodd;fill:#F5BC95;}
	.st4{fill-rule:evenodd;clip-rule:evenodd;fill:#FAC6A3;}
	.st5{fill-rule:evenodd;clip-rule:evenodd;fill:#EDAB7E;}
	.st6{fill-rule:evenodd;clip-rule:evenodd;fill:#7A819D;}
	.st7{fill-rule:evenodd;clip-rule:evenodd;fill:#888CA7;}
	.st8{fill-rule:evenodd;clip-rule:evenodd;fill:#9397B3;}
	.st9{fill-rule:evenodd;clip-rule:evenodd;fill:#E8A476;}
	.st10{fill-rule:evenodd;clip-rule:evenodd;fill:#6C7295;}
	.st11{fill-rule:evenodd;clip-rule:evenodd;fill:#1C94C7;}
	.st12{fill-rule:evenodd;clip-rule:evenodd;fill:#D69366;}
	.st13{fill-rule:evenodd;clip-rule:evenodd;fill:#5F648C;}
	.st14{fill-rule:evenodd;clip-rule:evenodd;fill:#D0D7E8;}
	.st15{fill-rule:evenodd;clip-rule:evenodd;fill:#414D54;}
	.st16{fill-rule:evenodd;clip-rule:evenodd;fill:#156E94;}
	.st17{fill-rule:evenodd;clip-rule:evenodd;fill:#596A74;}
	.st18{fill-rule:evenodd;clip-rule:evenodd;fill:#14508C;}
	.st19{fill-rule:evenodd;clip-rule:evenodd;fill:#1765B3;}
	.st20{fill-rule:evenodd;clip-rule:evenodd;fill:#9C8B78;}
	.st21{fill-rule:evenodd;clip-rule:evenodd;fill:#DBCBB8;}
	.st22{fill-rule:evenodd;clip-rule:evenodd;fill:#A3B0CF;}
	.st23{opacity:0.7;fill-rule:evenodd;clip-rule:evenodd;fill:#EDAB7E;}
	.st24{opacity:0.7;fill-rule:evenodd;clip-rule:evenodd;fill:#6C7295;}
	.st25{fill-rule:evenodd;clip-rule:evenodd;fill:#14759E;}
	.st26{fill-rule:evenodd;clip-rule:evenodd;fill:#F3F5FA;}
	.st27{fill-rule:evenodd;clip-rule:evenodd;fill:#FAFBFD;}
	.st28{fill-rule:evenodd;clip-rule:evenodd;fill:#D8DEED;}
	.st29{fill-rule:evenodd;clip-rule:evenodd;fill:#C7CEDE;}
	.st30{fill-rule:evenodd;clip-rule:evenodd;fill:#00A4EA;}
	.st31{fill-rule:evenodd;clip-rule:evenodd;fill:#23B6F5;}
	.st32{fill-rule:evenodd;clip-rule:evenodd;fill:#E4E8F2;}
	.st33{fill-rule:evenodd;clip-rule:evenodd;fill:#F2F5FA;}
	.st34{fill-rule:evenodd;clip-rule:evenodd;fill:#CAD2E6;}
	.st35{fill-rule:evenodd;clip-rule:evenodd;fill:#1784B3;}
	.st36{fill-rule:evenodd;clip-rule:evenodd;fill:#B9CCD6;}
	.st37{fill-rule:evenodd;clip-rule:evenodd;fill:#A8BBC4;}
	.st38{fill-rule:evenodd;clip-rule:evenodd;fill:#234E68;}
</style>
<g>
	
		<radialGradient id="SVGID_1_" cx="371.3936" cy="1970.5215" r="102.2061" gradientTransform="matrix(0.842 4.360000e-002 -1.100000e-002 0.2106 72.8255 442.4143)" gradientUnits="userSpaceOnUse">
		<stop  offset="0" style="stop-color:#000000"/>
		<stop  offset="0.1194" style="stop-color:#393939"/>
		<stop  offset="0.2442" style="stop-color:#6D6D6D"/>
		<stop  offset="0.3712" style="stop-color:#9A9A9A"/>
		<stop  offset="0.4979" style="stop-color:#BEBEBE"/>
		<stop  offset="0.6242" style="stop-color:#DBDBDB"/>
		<stop  offset="0.7502" style="stop-color:#EFEFEF"/>
		<stop  offset="0.8756" style="stop-color:#FBFBFB"/>
		<stop  offset="1" style="stop-color:#FFFFFF"/>
	</radialGradient>
	<path class="st0" d="M449.9,878.1c-0.6,11.9-39.6,19.5-87.2,17.1c-47.5-2.5-85.6-14.1-84.9-26c0.6-11.9,39.6-19.5,87.2-17.1
		C412.5,854.5,450.5,866.2,449.9,878.1z"/>
	<g>
		<g>
			<path class="st1" d="M482.2,327c0.8,0.8,2.7-2.1,1.9-2.5l-0.6-0.3l-1.5,1.4l0.2,1.2L482.2,327z"/>
			<path class="st1" d="M592.5,262.6c0.1,1.1-3.3,0.7-3.2-0.2l0.1-0.6l2.1-0.3l0.8,0.9L592.5,262.6z"/>
			<path class="st2" d="M441.7,0.3c4.7,34.3,11.5,99.5,15.9,130.5c7.6,53.4,9.6,103.2,11.3,156.9c3.3,23,15.7,35.8,17.9,53.4
				c4.6,36.2,7.6,67,6.5,116.7l93.3,76.8c7.4-114.9,52-200.6,5.2-266.9c-5-77.6,13.2-188.9,25.7-267.4H441.7z"/>
			<path class="st3" d="M542.4,498.2l44.3,36.4c7.4-114.9,52-200.6,5.2-266.9c-5-77.6,13.2-188.9,25.7-267.4h-38.5
				c-8.1,83.1-17.9,167.8-20.5,253.1c27.7,29.8,24.8,131,24.4,208.5L542.4,498.2z"/>
			<path class="st4" d="M550.3,504.7l36.4,29.9c7.4-114.9,52-200.6,5.2-266.9c-5-77.6,13.2-188.9,25.7-267.4H598
				c-12.3,83.5-21,168.2-23.7,254.9c37.3,71.7,14.4,128.4,19.2,207.6L550.3,504.7z"/>
			<path class="st5" d="M441.7,0.3c4.7,34.3,11.5,99.5,15.9,130.5c7.6,53.4,9.6,103.2,11.3,156.9c3.3,23,15.7,35.8,17.9,53.4
				c4.6,36.2,7.6,67,6.5,116.7l30.9,25.4c0.6-70.2,0.3-145.6-25.1-209c-4.7-11.6-3.1-21.6-3.5-47c-1.4-75.5-6-149.9-6.6-227H441.7z"
				/>
			<path class="st6" d="M441.7,0.3c4.7,34.3,11.5,99.5,15.9,130.5c7.6,53.4,9.6,103.2,11.3,156.9c2.3,16,8.8,27.7,13.3,39.3
				c7.3-48.2,43.3-72.8,80.1-70.9c9,0.5,19.6,2.6,30.2,6.4c-3.9-77.3,13-185.6,25.2-262.2H441.7z"/>
			<path class="st7" d="M560.8,256.1l1.5,0.1c9,0.5,19.6,2.6,30.2,6.4c-3.9-77.3,13-185.6,25.2-262.2h-38.5
				C574,49.6,552.5,245.3,560.8,256.1z"/>
			<path class="st8" d="M575.6,257.8c5.4,1.1,11.1,2.7,16.8,4.8c-3.9-77.3,13-185.6,25.2-262.2H598c-12.3,83.5-21,168.2-23.7,254.9
				L575.6,257.8z"/>
			<path class="st9" d="M441.7,0.3c4.7,34.3,11.5,99.5,15.9,130.5c7.6,53.4,9.6,103.2,11.3,156.9c3.3,23,15.7,35.8,17.9,53.4
				c4.6,36.2,7.6,67,6.5,116.7l16.2,13.3c0.2-64.6-2.1-132.3-25.2-189.9c-4.7-11.6-3.1-21.6-3.5-47c-1.5-78.2-11-153.8-16.1-234
				H441.7z"/>
			<path class="st10" d="M441.7,0.3c4.7,34.3,11.5,99.5,15.9,130.5c7.6,53.4,9.6,103.2,11.3,156.9c2.3,16,8.8,27.7,13.3,39.3
				c2.8-18.7,10-33.8,19.8-45.2c-0.9-2.5-1.9-5-2.9-7.5c-4.7-11.6-3.1-21.6-3.5-47c-1.4-75.5-6-149.9-6.6-227H441.7z"/>
			<path class="st11" d="M489.6,443c4.6-20.9,14.5-42.3,48.5-47.2c29.5-4.3,60.5,17,65.3,47L489.6,443z"/>
			<path class="st12" d="M482.4,325.7c0.4,1,1.5,3.7,1.9,4.7c17-59.3,61.2-83.7,107.5-65.8l-0.1-2.3c-10.3-3.6-20.5-5.7-29.3-6.1
				C525.9,254.3,490.2,278.5,482.4,325.7z"/>
			<path class="st10" d="M470.5,191.4c12.4-9.1,28.5-14.5,47.9-17c20.9-2.7,45.3-1.6,59,10.4c11.9,10.4-26.2-6.1-57.5-0.4
				c-26.9,4.9-48.7,14.8-49.1,14.7C467,198.7,464.6,195.7,470.5,191.4z"/>
			<path class="st13" d="M470.7,193.4c12.4-9.1,28.7-13.7,48.2-16.1c20.9-2.7,39.5,1.4,46.4,5.6c4.7,2.9-16.6-6.3-47.9-0.6
				c-26.9,4.9-43.7,15.2-44.1,15.2C469.4,196.9,464.8,197.7,470.7,193.4z"/>
			<path class="st10" d="M473.7,235.2c12.8-9.2,29.3-14.6,49.3-17.1c17.3-2.2,38.5-1.1,52.9,5.3c10,4.5,12.4,9.9-2,6.1
				c-12-3.1-32.2-5.3-49.7-2.3c-30.7,5.3-49.5,15.8-49.9,15.8C470.3,242.5,467.6,239.6,473.7,235.2z"/>
			<path class="st13" d="M441.7,0.3c4.7,34.3,11.5,99.5,15.9,130.5c7.6,53.4,9.6,103.2,11.3,156.9c2.3,16,8.8,27.7,13.3,39.3
				c1.6-10.4,4.5-19.8,8.5-28c-1.9-6-4.1-12-6.4-17.8c-4.7-11.6-3.1-21.6-3.5-47c-1.5-78.2-11-153.8-16.1-234H441.7z"/>
			<path class="st13" d="M476.8,235.5c13.7-6.7,28.3-13,47.7-15.5c20.9-2.7,39.5,0.9,46.4,5.1c4.7,2.9-17.1-6.7-48.3-1
				c-26.9,4.9-45.3,15.9-45.6,15.8C473.1,239.5,463.1,242.2,476.8,235.5z"/>
			<g>
				<path class="st14" d="M480,495.1c-0.5-58.9,26.5-81.9,58.9-86.6c23.9-3.4,57,5.2,69.5,44.4c6.5,20.3,10.3,48.1,9.1,66.2
					c-1.1,18.1-8.5,21.4-4.6,43.9c4,22.6,22.4,58.2,28.5,85.1C653,698.8,653.9,738,617.7,780c-24.3,28.2-70.5,35.2-100.7,18.5
					c-20.9-11.6-31.8-33.9-34.7-52.1c-11.6-74.3,26.2-90.8,16.3-149.9C493.7,566.8,480.3,540.8,480,495.1z"/>
				<path class="st15" d="M498.5,656.3l-2,1.9c0.9,4.4-2.7,12.4-4.4,18.7l73.8,29.3l-77.2,45.8l-0.4,2.8c2.2,6.5,7.8,15.6,13.4,22.5
					l65.8-47.4l60.7,27.3c4.8-7.6,8.2-13.4,10.8-21.1L571,705.6l64.9-51.2l-1.3-16.7l-1.5-2.2l-68.8,50.1L498.5,656.3z"/>
				<polygon class="st16" points="540.6,800.5 540.3,802.4 596.5,792.3 596.8,790.4 570.9,778.7 				"/>
				<path class="st16" d="M509.8,786.6l-0.3,1.9c2.7,2.2,6.7,3,9.7,4.7c2.2,1.2,4.5,2.3,6.8,3.2l40.7-29.3l2.8-2l3.1,1.4l35.5,16
					c2.5-2.2,4.8-4.5,6.9-6.9c1.9-2.3,4.1-3.5,5.9-5.8l0.3-1.9l-52.5-23.6L509.8,786.6z"/>
				<path class="st17" d="M496.5,658.2c-2.7,8.7-5.1,13.7-7,20.9l75.9,29.7l-77.2,45.8c2.5,9.8,6.6,17.4,13,25.3l65.8-47.4
					l60.7,27.3c4.8-7.6,8.1-13.4,10.8-21.1l-68.1-30.5L640,657c-0.7-3.6-1.5-4.3-2.3-8c-0.8-3.7-1.9-7.5-3.1-11.2L564,688.5
					L496.5,658.2z"/>
				<polygon class="st18" points="540.2,798.7 540.3,802.4 596.4,792.3 596.5,788.6 570.5,776.9 				"/>
				<path class="st18" d="M509.5,784.8l0,3.7c2.2,1,13.8,5.2,16.2,6.1l40.7-29.3l2.8-2l3.1,1.4l35.5,16l13.1-10.9l0-3.7l-52.5-23.6
					L509.5,784.8z"/>
				<polygon class="st18" points="615.5,680.5 580.6,705.8 613.2,720.9 617.3,681.2 				"/>
				<path class="st18" d="M638.2,732.5l2.6-68.3l-1.8-0.7l-16.2,11.7c2.4,17.7,2.5,32.8-2.3,49.1L638.2,732.5z"/>
				<path class="st19" d="M617.3,681.1l-34.9,25.3l32.6,15.1C618.8,708.1,619,695.4,617.3,681.1z"/>
				<path class="st19" d="M640,733.1c6.5-21.5,5.5-43.8,0.8-69l-16.2,11.7c2.4,17.7,2.5,32.8-2.3,49.1L640,733.1z"/>
				<path class="st18" d="M516.3,732.6l41.8-23.2l-40.4-14.7l-2,1.3C516.7,702.3,515.8,720,516.3,732.6z"/>
				<path class="st18" d="M490.3,684.8l-1.9,1.3c-4.5,19.8-3.7,41.9,0.4,61.8l19.8-11c-0.9-17.2-0.1-32,1.5-44.9L490.3,684.8z"/>
				<path class="st19" d="M514.4,733.8l41.8-23.2L515.7,696C514.5,707.1,513.8,719.6,514.4,733.8z"/>
				<path class="st19" d="M488.3,686c-5.2,20.6-5.8,42.2-1.5,63.1l19.8-11c-0.9-17.2-0.1-32,1.5-44.9L488.3,686z"/>
				<path class="st19" d="M540.2,802.4c18.9,3.3,39.6-0.5,56.3-10.1l-26-11.7L540.2,802.4z"/>
				<path class="st19" d="M509.5,788.5c2.9,2.5,6.1,4.7,9.4,6.5c2.2,1.2,4.5,2.3,6.8,3.2l40.7-29.3l2.8-2l3.1,1.4l35.5,16
					c2.5-2.1,4.8-4.5,6.9-6.9c2.2-2.6,4.3-5.1,6.2-7.7l-52.5-23.6L509.5,788.5z"/>
				<polygon class="st20" points="573.3,612.1 557.7,621.5 544.4,617.8 543.6,619.7 559.1,627.3 574.7,613.7 				"/>
				<path class="st15" d="M503.8,606.5c0.9,14.4-1,27.4-5.2,41.9l32.1,14.6c0.7-10.5,1.5-20.6,2.7-30.7l2.4-14.7l-0.1-2.2
					L503.8,606.5L503.8,606.5z M631.7,627.7c-4.9-13.8-11-27.5-15.9-41.2l-34.5,20.8l0.3,2.2c3.6,3.7,5,10.3,6.6,15.3
					c3.1,9.6,5.3,19.6,6.7,29.7L631.7,627.7z"/>
				<path class="st21" d="M574.7,613.5l-15.3,9.2l-1.4,0.9l-1.7-0.5l-12.8-3.6c-0.8,5.3-1.5,10.5-2.1,15.7
					c-1.2,10.9-2.1,21.9-2.8,33.4l25.6,11.2l23.6-17.9c-1.3-11.2-3.5-22.1-6.9-32.6C579.1,623.9,577.1,618.7,574.7,613.5z"/>
				<path class="st17" d="M504,608.7c0.9,14.4-1,27.4-5.2,41.9l32.1,14.6c0.7-10.5,1.5-20.6,2.7-30.7c0.6-5.6,1.3-11.3,2.2-17
					L504,608.7L504,608.7z M632,629.9c-4.9-13.8-11-27.5-15.9-41.2l-34.5,20.8c2.7,5.7,4.9,11.5,6.9,17.4c3.1,9.6,5.3,19.6,6.7,29.7
					L632,629.9z"/>
				<path class="st18" d="M590.2,431.6l-0.1-2.7c-1.7-1.6-6.3-2.9-10.3-5.9l-33.4,24l-2.8,2l-3.1-1.4l-35.6-16l-8.5,8l0.1,2.8
					l48.6,21.8L590.2,431.6L590.2,431.6z M567.5,417.2l-25.2,18.2l-26.8-12.1l-0.1-2.7l24.2-5.4c8.9-2,19.9-2.9,27.8-0.7
					L567.5,417.2z"/>
				<path class="st19" d="M590.1,428.8c-3.2-3.3-6.7-6.2-10.5-8.6l-33.4,24l-2.8,2l-3.1-1.4l-35.6-16c-3.2,3.2-6,6.9-8.4,10.8
					l48.6,21.9L590.1,428.8L590.1,428.8z M567.3,414.5l-25.2,18.2l-26.8-12.1c6.7-4,14.7-6.8,24.1-8.2
					C549.4,410.9,558.9,411.7,567.3,414.5z"/>
				<g>
					<path class="st18" d="M584.1,556.5l1.8,1c-2.1,8.1-3.4,27.1,0.9,37.9l-18.2,11.8l-1.9-1l-8.3-33.7L584.1,556.5z"/>
					<path class="st18" d="M518,564.2l-1.9,1.4c4,4.5,9,25.2,6.7,37.2l19.8,8.2l2-1.4l1.7-34.7L518,564.2z"/>
					<path class="st19" d="M586,557.5c-1.2,5.7-2.2,26.4,2.7,38.9l-20.1,10.9l-8.3-33.7L586,557.5z"/>
					<path class="st19" d="M516.1,565.6c2.3,5.3,7.3,25.5,4.8,38.7l21.8,6.8l1.7-34.7L516.1,565.6z"/>
				</g>
				<path class="st15" d="M484.7,512.6l37.6,15.5l0.2-3.9c-0.8-4.4-0.9-9.5-0.7-13.9l-38.2-15.6
					C483.6,500.6,484.2,506.7,484.7,512.6L484.7,512.6z M522.5,502.1L484,486.3c0.3-4.6,0.8-9,1.6-13.4l39.7,12.5l-0.2,3.6
					C523.9,493.2,523,497.5,522.5,502.1L522.5,502.1z M527.6,481.6c1.1-2.6,2.4-5.2,3.8-7.7l0.3-3.7l-41.6-14.9l-2.7,6.1l-0.3,3.6
					L527.6,481.6L527.6,481.6z M485.9,521.3l37.3,15.6c0.8,6.2,1.8,12.4,4,18.9l-0.2,3.8l-36.8-13.2
					C488.3,538.1,486.9,529.7,485.9,521.3L485.9,521.3z M577.2,553l35-21.6c0.5-2.6,0.9-5.5,1.1-8.9c0.3-4,0.3-8.3,0.1-12.7
					l-36.6,19.2l-0.3,3.7C577.1,539.2,577.3,546.1,577.2,553L577.2,553z M612.8,500.8l-37.1,23.1c-0.7-5.9-1.7-11.7-3-17.1l0.3-3.7
					l37.5-19.8c0.8,4.6,2.1,9.2,2.6,13.8L612.8,500.8L612.8,500.8z M608.9,475l0.3-3.8c-0.8-3.8-2.6-5.8-3.6-9.3l-38.9,20.8
					l-0.4,3.6c1.5,3.7,2.9,7.6,4.1,11.8l0.2,0.7L608.9,475L608.9,475z M603.1,454.1L563,479c-1.4-2.7-3-5.2-4.6-7.5l0.3-3.6
					l39.1-24.8c1.3,2.2,3.4,6.2,5.6,7.4L603.1,454.1z"/>
				<path class="st17" d="M483.9,495c0,4.7,0.2,9.3,0.5,13.8l38.1,15.6c-0.5-6.2-0.7-12.1-0.4-17.8L483.9,491
					C483.9,492.4,483.9,493.7,483.9,495L483.9,495z M522.7,498.4l-38.5-15.8c0.3-4.6,0.8-9,1.6-13.4l39.5,16.2
					C524.1,489.6,523.3,493.9,522.7,498.4L522.7,498.4z M527.9,478c1.1-2.6,2.4-5.2,3.8-7.7l-41.3-18.6c-1.2,3.1-2.1,6.4-3,9.7
					L527.9,478L527.9,478z M485.3,517.7l38.2,15.6c0.9,7.2,2.2,14.8,3.8,22.6l-37.8-13.2C487.6,534.4,486.2,526.1,485.3,517.7
					L485.3,517.7z M577.4,549.3l35-21.6c0.5-2.6,0.9-5.5,1.1-8.9c0.3-4,0.3-8.3,0.1-12.7l-36.8,22.9
					C577.4,535.6,577.6,542.4,577.4,549.3L577.4,549.3z M613.1,497.1l-37.2,23.1c-0.6-4.7-1.4-9.4-2.3-13.8
					c-0.2-1.1-0.5-2.2-0.7-3.3l37.8-23.4C611.8,485.4,612.6,491.3,613.1,497.1L613.1,497.1z M609.1,471.3c-1-4.6-2.1-9-3.3-13.1
					l-39.3,24.4c1.5,3.7,2.9,7.6,4.1,11.8l0.2,0.7L609.1,471.3L609.1,471.3z M603.4,450.5l-40.1,24.9c-1.4-2.7-3-5.2-4.6-7.5
					l39.4-28.4C600.1,442.9,601.9,446.5,603.4,450.5z"/>
				<path class="st20" d="M553.2,567l16.3-10.3l-0.1-2.6c-0.2-6.2,0.3-11.7,0-17.8l-17.9,11.1l-18.1-7.9l2.6,18.6l0,2.7L553.2,567
					L553.2,567z M564.5,508.6L551.2,542l-20.7-31l-0.1-2.6l2.4-14.6l14.7,6l12.4-7.7c2.2,3.6,1.9,8.7,4.6,13.8L564.5,508.6
					L564.5,508.6z M556.6,482.2l-0.1-2.6c-1-1.7-3.1-3-4.2-4.5l-3.3,2.4l-2.8,2l-3.1-1.4l-4.1-1.9l-3.8,4.8v2.7l11.5,7.2
					L556.6,482.2z"/>
				<path class="st21" d="M553.1,564.4l8.4-5.2l7.9-5.1c0.3-6.9,0.3-13.7-0.1-20.4l-17.9,11.1l-19.4-7.9c1,6.8,2.3,13.8,3.9,21.2
					L553.1,564.4L553.1,564.4z M564.5,505.9l-13.3,33.5l-20.7-31c-0.1-4.9,1.2-13.1,2.3-17.3l14.7,6l12.4-7.7
					C562.5,493.8,563.9,501,564.5,505.9L564.5,505.9z M556.5,479.5c-1.3-2.6-2.7-5-4.2-7.1l-3.3,2.4l-2.8,2l-3.1-1.4l-4.1-1.8
					c-1.4,2.4-2.7,4.8-3.8,7.4l11.4,7.3L556.5,479.5z"/>
			</g>
		</g>
		<g>
			<path class="st22" d="M339.7,721.3l-1.9-0.3c-0.9-5.8,23.5-10,31.2-11.7l-14.1,11.3L339.7,721.3z"/>
			<path class="st1" d="M425.1,421c0.1,1.1-3.4,0.7-3.2-0.2l0.1-0.6l2-0.3l0.8,0.9L425.1,421z"/>
			<path class="st1" d="M309.2,404.5c-0.1,1.1,3.4,0.7,3.2-0.2l-0.1-0.6l-2-0.3l-0.8,0.9L309.2,404.5z"/>
			<path class="st2" d="M410.1,765.5l-71.5,19.2c0-14.5-0.1-26.9,0-43.6c0.1-15.9,6.8-26.4,6.2-39.2c-2.3-44.1-11.9-77.9-23.3-131.6
				c-8.5-40.1-14.3-81.8-15.5-104.8c-3.6-71.7,32.1-146.8,10.8-230.2c-20.4-79.9-49.3-131.8-65.3-234.9h179.5
				c-1.3,78,1.7,151.5,4.1,229.6c1,31.7,2.6,61.8,0.3,89.7c-2.5,29.3-8.5,37.3-10,55.8c-2.8,35.7-0.6,91.4-1.7,119.6
				c-2.3,59.3-19.9,116-21,169.2c-0.4,19.9,1.4,45,9.2,66.4C416.5,744,414.1,757.1,410.1,765.5z"/>
			<path class="st3" d="M410.1,765.5l-4.6,1.2c-1.4-19.2-4.4-40.1-9.3-64.5c-13.4-66.7,12.3-162.8,10.6-268.7
				c-0.5-28.8-0.7-59.4,4.2-86c1.9-10.6,4.3-22.6,7-38.7c3.9-23.4-7.5-94.6-10.9-132.7C401.6,118,395.7,56.8,394.2,0.3h36.7
				c-1.3,78,1.7,151.5,4.1,229.6c1,31.7,2.6,61.8,0.3,89.7c-2.5,29.3-8.5,37.3-10,55.8c-2.8,35.7-0.6,91.4-1.7,119.6
				c-2.3,59.3-19.9,116-21,169.2c-0.4,19.9,1.4,45,9.2,66.4C416.5,744,414.1,757.1,410.1,765.5z"/>
			<path class="st4" d="M430.9,0.3c-1.3,78,1.7,151.5,4.1,229.6c1,31.7,2.6,61.8,0.3,89.7c-2.5,29.3-8.5,37.3-10,55.8
				c-2.8,35.7-0.6,91.4-1.7,119.6c-2.3,59.3-19.9,116-21,169.2c-0.4,19.9,1.4,45,9.2,66.4c3.6,9.8,3.1,19.6,1,27.5
				c-3.1-16.4-7.1-34.2-11.2-54.7c-13.4-66.7,18.8-163.2,15.8-270c-0.8-28.8-0.7-59.4,4.2-86c1.9-10.6,4.3-22.6,7-38.7
				c1.9-11.2,0.2-33.3-2.4-57.5c-9.3-87.4-13.4-164-15.1-251H430.9z"/>
			<path class="st23" d="M382.7,247.6c8.3,35.3,15.1,46.5,13.1,79.4c-1,15.5-7.3,31.2-10.3,57.7c-3.5,31.3-7,45.4-7.8,88.4
				c-1.6,94.2,4.1,240.5,4.1,285.7l-3.1-0.9c-3-97.9-26.4-209.8-27.2-298.3c-0.3-37.5,8.8-60.4,15.4-99.5c8.3-49.2,6-59.3-1.4-92
				C345.4,179.8,329,89.2,311,0.3h48.3C364.8,82.7,363.6,166.8,382.7,247.6z"/>
			<path class="st5" d="M369.9,776.3l-31.3,8.4c0-14.5-0.1-26.9,0-43.6c0.1-15.9,6.8-26.4,6.2-39.2c-2.3-44.1-11.9-77.9-23.3-131.6
				c-8.5-40.1-14.3-81.8-15.5-104.8c-3.6-71.7,32.1-146.8,10.8-230.2c-20.4-79.9-49.3-131.8-65.3-234.9H301
				c11.5,113.9,53.5,203.8,43.5,306.8c8.4,6.7,20.1,9.7,32.9,13.9c24.2,8,36.2,16,50.7,15.3c-6.9,12.1-35.5-3.6-51.2-9.1
				c-12.9-4.5-22-5.8-31.1-4.6c0.1-0.5-12.5,14.6,4,14.6c38.7,4.8,61.6,15.6,71.6,40.6c-10.2-16.3-27.6-27.1-48-31.7
				c-10.2-2.3-20.9-2.7-30.8-3c-1.7,2.3-3.5,11.6,0.5,10.7c44.7-0.1,59.3,13.8,75.2,37.9c-12.8-13.5-29.8-33.6-78.1-29.7
				c-21.1,73-13.9,136.5,5.5,233.9c6.4,31.9,13.1,60.2,19,79.9c10.1,34,17.6,50.1,15.9,71.1C379.8,756.2,372.9,765.2,369.9,776.3z"
				/>
			<path class="st9" d="M369.9,776.3l-31.3,8.4c0-14.5-0.1-26.9,0-43.6c0.1-15.9,18.6-7.6,18-20.5c-1.5-28.4-17.8-71.2-23.8-99.1
				c-3.4-15.5-7.2-32.1-11.2-51.3c-8.5-40.1-14.3-81.8-15.5-104.8c-3.6-71.7,32.1-146.8,10.8-230.2
				c-20.4-79.9-49.3-131.8-65.3-234.9H301c11.5,113.9,53.5,203.8,43.5,306.8c8.4,6.7,20.1,9.7,32.9,13.9c24.2,8,36.2,16,50.7,15.3
				c-6.9,12.1-35.5-3.6-51.2-9.1c-12.9-4.5-22-5.8-31.1-4.6c0.1-0.5-12.5,14.6,4,14.6c38.7,4.8,61.6,15.6,71.6,40.6
				c-10.2-16.3-27.6-27.1-48-31.7c-10.2-2.3-20.9-2.7-30.8-3c-1.7,2.3-3.5,11.6,0.5,10.7c44.7-0.1,59.3,13.8,75.2,37.9
				c-12.8-13.5-44.6-31.8-92.9-27.9c-17.9,80.4-9.6,134.8,9.9,232.2c17.4,87.1,38,117.5,35.3,150.5
				C369.7,755.8,372.9,765.2,369.9,776.3z"/>
			<path class="st6" d="M309.2,404.5c7.8-53.4,23-109.2,7.6-169.4c-20.4-79.9-49.3-131.8-65.3-234.9h179.5
				c-1.3,78,1.7,151.5,4.1,229.6c1,31.7,2.6,61.8,0.3,89.7c-2.5,29.3-8.5,37.3-10,55.8c-1,13.2-0.1,29.2-0.2,45.5
				C392.3,406.9,346.1,398.8,309.2,404.5z"/>
			<path class="st7" d="M430.9,0.3c-1.3,78,1.7,151.5,4.1,229.6c1,31.7,2.6,61.8,0.3,89.7c-2.5,29.3-8.5,37.3-10,55.8
				c-1,13.2-0.1,29.2-0.2,45.5c-5.8-2.5-12.1-4.8-18.7-6.9c-0.1-22.8,0.6-45.9,4.4-66.6c1.9-10.6,4.3-22.6,7-38.7
				c3.9-23.4-7.5-94.6-10.9-132.7C401.6,118,395.7,56.8,394.2,0.3H430.9z"/>
			<path class="st8" d="M430.9,0.3c-1.3,78,1.7,151.5,4.1,229.6c1,31.7,2.6,61.8,0.3,89.7c-2.5,29.3-8.5,37.3-10,55.8
				c-1,13.2-0.1,29.2-0.2,45.5c-2.6-1.1-5.2-2.2-8-3.2c-0.2-24,0.4-48.5,4.4-70.3c1.9-10.6,4.3-22.6,7-38.7
				c1.9-11.2,0.2-33.3-2.4-57.5c-9.3-87.4-13.4-164-15.1-251H430.9z"/>
			<path class="st10" d="M309.2,404.5c7.8-53.4,23-109.2,7.6-169.4c-20.4-79.9-49.3-131.8-65.3-234.9H301
				c10.8,106.2,48,191.5,44.8,286c-0.6,19,12.6,26,32,34.2c17,7.2,39.4,16.9,54.6,16.2c-6.9,12.1-41.2,0.8-56.9-4.7
				c-12.9-4.5-22-5.8-31.1-4.6c0.1-0.5-10.1,6.3,6.4,6.3c34.2,4.3,60.9,17,72.2,36.9c1.5,2.6-3.1,6.4-1.9,9.3
				c-23-28.8-48.1-32-78.6-33.6c-1.7,2.3-2.6,5.5,1.4,4.6c44.7-0.1,77.4,29.5,74.4,40.8c-12.8-8.7-34.1-27-79.4-25.7
				c-4,13.8-5.7,23.3-7.7,36.7C323.5,402.9,316.2,403.5,309.2,404.5z"/>
			<path class="st24" d="M386.2,245c8.3,35.3,11.6,49.1,9.6,82c-1,15.5-7.3,31.2-10.3,57.7c-1,8.7-2,16.2-2.9,23.2
				c-8.1-1.7-16.3-3-24.6-3.9c2.8-13.3,6.1-27.1,9-43.9c8.3-49.2,6-59.3-1.4-92C345.4,179.8,329,89.2,311,0.3h48.3
				C364.9,82.6,367.1,164.2,386.2,245z"/>
			<path class="st13" d="M428.4,337.2c-5.8,10.1-65.1-12.8-82.7-16.8c-11.7-2.6-21.9-5.6-21.6-8.5c0.6-6.1,11.3-2.2,23.3,1.1
				C368.4,319,410.3,340.2,428.4,337.2L428.4,337.2z M349.6,337.2c-3.2,0-32.5-2.3-28.1,3.5c1.7,2.3,12.6,1.1,27.9,2.2
				c23,1.7,55,8,71.8,34.8C411.2,352.8,388.4,342,349.6,337.2L349.6,337.2z M346,354c38.5,1.5,57.3,15.1,72.2,37.8
				c-11.7-12.4-32-30.3-71.7-30.2c-5.5,0-28.2,1.7-28.2-2C318.4,352.6,338.2,353.7,346,354z"/>
			<path class="st13" d="M309.2,404.5c7.8-53.4,23-109.2,7.6-169.4c-20.4-79.9-49.3-131.8-65.3-234.9h19.8
				c8.3,82.4,40.3,158.9,56,230.2c12.7,57.9,3.4,110.3-8.8,172.9C312.8,403.9,311.5,404.3,309.2,404.5z"/>
			<path class="st12" d="M309.7,407.1l0.4-2.7c36.3-5.4,81.3,2.4,113.8,16.1l0,2.6C391.2,409.4,346,401.6,309.7,407.1z"/>
			<path class="st11" d="M421.3,750.9l1.7-0.6c2.2-4.7-24.4-13-31-11.4l14.1,11.3L421.3,750.9z"/>
			<path class="st25" d="M333.5,749.9l-1.9-0.3c2.7-8.4,23.5-10,31.2-11.7l-14.1,11.3L333.5,749.9z"/>
			<path class="st26" d="M337.7,720.8c0.5,16.4-0.7,24.6,1.7,34.9l48.9-3.9l32.7,6.1c-1.7-13.6-1.3-23.8-5.2-37.5
				c-12.3-2.1-16.3-14.9-33.6-15.1C358.8,705,351,720.4,337.7,720.8z"/>
			<path class="st27" d="M404.4,754.7l16.7,3.1c-1.7-13.6-1.3-23.8-5.2-37.5c-7.5-1.3-11.9-6.6-18.2-10.5
				C400.7,726.2,402.9,741,404.4,754.7z"/>
			<path class="st28" d="M337.7,720.8c0.5,16.4-0.7,24.6,1.7,34.9l34.1-2.8c4.3-17.2,4.2-29.7,0.4-47
				C357,708.7,348.8,720.4,337.7,720.8z"/>
			<path class="st29" d="M338,744.9c0.2,3.6,0.6,7,1.5,10.7l48.9-3.9l32.7,6.1c-0.4-3.7-0.5-6.2-0.8-9.5
				c-8.6-8.3-12.8-17.9-20.4-24.5c-4.9-4.2-29.6-5.7-34.7-2.3C355,728,350.7,741.3,338,744.9z"/>
			<path class="st30" d="M423.1,750.2c-10.6-5.8-14.7-17.7-22.9-24.7c-4.9-4.2-28.7-5.7-33.8-2.3c-10.9,7.1-18.7,24.9-34.2,26.9
				c-1.6,7.4-2.1,18.4-6.4,30.7c-1,13.8-1.2,23.4-5.6,36.7c-3.1,9.4-6.5,15.3-13.3,27.7c-4.4,8.1-7.4,14.3-6.2,23.7
				c15.9,9.9,85.4,9,127.1,11.8c3-11.1-7.9-18.8-7.9-23.6c-0.1-7.1,10.5-5.4,6.5-21.8c-1.3-5.4-4.6-11.4-4.8-22.7
				c-0.2-6.7,3.6-14.5,3.8-25.8C425.7,776.4,424.9,767,423.1,750.2z"/>
			<path class="st31" d="M423.1,750.2c-10.5-5.8-14.6-17.5-22.7-24.5c7.7,46.5,7.6,80.3,1.1,117.1c-2.1,11.7-5.2,23.6-8.5,36.3
				c12.5,0.5,24.5,0.9,34.9,1.6c3-11.1-7.9-18.8-7.9-23.6c-0.1-7.1,10.5-5.4,6.5-21.8c-1.3-5.4-4.6-11.4-4.8-22.7
				c-0.2-6.7,3.6-14.5,3.8-25.8C425.7,776.4,424.9,767,423.1,750.2z"/>
			<path class="st11" d="M376.3,721.3c-3.7,0.2-8.4,0.9-9.9,1.8c-10.9,7.1-13.5,22.4-34.6,26.3c-1.6,7.4-1.7,19.1-5.9,31.3
				c-1,13.8-1.2,23.4-5.6,36.7c-3.1,9.4-6.5,15.3-13.3,27.7c-4.4,8.1-7.4,14.3-6.2,23.7c5.7,3.5,18.2,5.7,33.8,7.2
				C325.6,810.8,385.7,784.1,376.3,721.3z"/>
			<path class="st32" d="M302.6,854c-1.8,4.5-2.6,9.1-1.9,14.9c15.9,9.9,85.4,9,127.1,11.8c3-11.1-7.9-18.8-7.9-23.6
				c-0.1-7.1,10.5-5.4,6.5-21.8c-1-4-2.9-8.2-4-14.6c-1.1-1.3-2.3-2.4-3.5-3.5c-13.9-12.2-50.6-14.8-68.1-12.1
				c-13,2-22.2,9.7-25.9,16.8c-8.2,15.5-5.6,19.7-8,22.8C315.2,846.9,310.7,849.9,302.6,854z"/>
			<path class="st33" d="M393,879.1c12.5,0.5,24.5,0.9,34.9,1.6c3-11.1-7.9-18.8-7.9-23.6c-0.1-7.1,10.5-5.4,6.5-21.8
				c-1-4-2.9-8.2-4-14.6c-1.1-1.3-2.3-2.4-3.5-3.5c-3.3-2.9-8-5.3-13.3-7.1c-0.7,10.9-2.1,21.7-4.1,32.7
				C399.5,854.4,396.4,866.3,393,879.1z"/>
			<path class="st34" d="M302.6,854c-1.8,4.5-2.6,9.1-1.9,14.9c5.7,3.5,18.2,5.7,33.8,7.2c-3.9-28.1,6.4-50.5,16.7-70.9
				c-13.2,1.3-22.8,10-26.5,16.8c-8.2,15.5-5.6,19.7-8,22.8C315.2,846.9,310.7,849.9,302.6,854z"/>
			<path class="st35" d="M396.6,754.9c-40.5-1.6-61.9,0.3-61.9,49.9c13.8-10.3,53-8.2,65.2-0.7c-18-5.8-46.6-7.2-62.8,3
				c-9.7,6.1-13.2,14-15.6,20c-6.9,17-2.1,18-16.2,25c12-7.5,10.2-17.9,14.1-26.8c2.1-4.9,5.1-11.2,12.3-18.5
				C331.6,752.6,355.3,748.5,396.6,754.9z"/>
			<path class="st36" d="M338.3,799c12.1-15.1,14.2-31,23.6-36.4c5.6-3.3,29.7-1.5,35.1,1.1c12,5.8,8.5,24.2,19.8,43
				c-13.7-12.1-25-20.1-36.7-21.3C367.4,783.9,354.4,790.3,338.3,799z"/>
			<path class="st37" d="M338.3,799c12.1-15.1,14.2-31,23.6-36.4c1.7-1,7.1-1.3,11.3-1.4c-3.4,9.6-6.9,17.3-12,26.9
				c-3.1,1.2-7.2,2.9-11.3,4.9C345.8,794.8,341.8,797.1,338.3,799z"/>
			<path class="st38" d="M338.3,799c12.1-15.1,14.2-31,23.6-36.4c5.6-3.3,29.7-1.5,35.1,1.1c5.2,2.5,7.5,7.4,9.4,13.7
				c-2.4-6-5.2-10.8-10-13.1c-5.3-2.5-28.4-4-33.8-0.8c-9,5.3-9.4,18.5-21.1,33.1c15.5-8.3,26.5-13.1,38.8-11.8
				c1.4,0.2,2.9,0.6,4.6,1.3c-1.5-0.4-3.1-0.7-4.6-0.8C367.4,783.9,354.4,790.3,338.3,799z"/>
			<path class="st13" d="M323.5,306.8c-3.7,1.6-4.4,6.8-0.3,8.1l-2.2,22.5c-3.4,0.6-4,1.4-4,3.5c0,1.6,0.1,3.8,5.6,2.7l0.7,11.4
				c-3.3,0.1-5.7,0.7-7.6,1.7c-2.2,1.1-3.4,4.4-2.9,6c0.4,1.7,2.5,3.6,6.9,3.4l7.2-7.6L323.5,306.8z"/>
			<g>
				<path class="st14" d="M416.9,835.9c-0.5-4.3-4.8-7.5-11.3-9.7c-6.6-2.3-15.7-3.8-25.7-4.7c-7.6-0.7-16.9-1-25.5-0.5
					c-8.8,0.6-16.9,2-21.5,5c-4.9,3.1-7.8,7.6-7.1,10.8c0.8,3.1,6.4,3.8,3.3,7.7c-3.1,3.9-18.3,10.3-23.7,15.4
					c-2,1.9-3.7,3.7-4.9,5.5c0,1.1,0.1,2.3,0.3,3.5c14.6,9.2,75.1,9.1,117.2,11.2c2-1.4,3.2-2.7,3.7-3.9c2.6-6.4-2-10.2-6.7-13.6
					c-4.7-3.4-9.4-6.5-7-11.3C410.4,846.6,417.7,842.7,416.9,835.9z"/>
				<path class="st15" d="M414.2,861.6c0.4,0.1,0.9,0.2,1.4,0.3c-0.5,0.8,2.1,2.1,3.4,3.2c-8.2,1-16.6,1.9-25.3,2.9
					c-8.9,1-18.2,2.1-27.7,3.2c10.1,1.2,20,2.5,29.6,3.6c9.4,1.2,18.6,2.3,27.6,3.4c0.1,0.2,0.2,0.3,0.4,0.5c-0.5,0.5-1.3,1-2.4,1.6
					c-10.8-0.6-23.1-1-35.5-1.5l-20.7-3.1l-12.1,1.6c-8.8-0.5-17.1-1.1-24.6-2l5.2-0.7c9.7-1.2,19.2-2.4,28.4-3.6
					c-8.8-1.5-17.8-3-26.9-4.5c-9.3-1.6-18.9-3.2-28.6-4.8c0.5-1.1,1-2.2,1.4-3.3c0.4-0.1,0.9-0.3,1.4-0.4
					c10.2,1.6,20.1,3.2,29.8,4.7c9.5,1.5,18.9,3,28,4.4c8.4-1,16.6-2,24.5-3C399.3,863.4,406.9,862.5,414.2,861.6z"/>
				<path class="st17" d="M415.6,861.9c2,1.5,3.7,2.3,5.2,3.5c-8.4,1-17,2-25.9,3c-9.2,1-18.7,2.1-28.5,3.2
					c10.1,1.2,20,2.5,29.6,3.6c9.4,1.1,18.6,2.3,27.6,3.4c-0.5,0.6-1,1.1-1.7,1.7c-12.1-0.7-26-1.1-40-1.6l-16.5-2.4l-9.5,1.3
					c-8.9-0.5-17.4-1.1-25-1.9l3.2-0.4c9.8-1.2,19.2-2.5,28.4-3.6c-9.4-1.5-19.1-3-28.9-4.5c-10-1.6-20.3-3.2-30.8-4.8
					c0.7-0.7,1.5-0.9,2.3-1.6c0.8-0.7,1.8-1.5,2.9-2.2c10.5,1.6,20.7,3.2,30.7,4.8c9.8,1.5,19.4,3,28.8,4.5c8.6-1.1,17-2.1,25.1-3.1
					C400.4,863.8,408.1,862.8,415.6,861.9z"/>
				<path class="st18" d="M324.6,866.8c10.1,1.5,20,3,29.7,4.5c-9,1.2-18.3,2.4-27.8,3.6c-1.2-2.7-2.3-5.3-3.4-7.9
					C323.5,866.9,324,866.9,324.6,866.8z"/>
				<path class="st18" d="M302.4,869.8l-0.6-6c0.6,0,1.1-0.1,1.7-0.2c4.9,0.8,9.8,1.5,14.7,2.2c-1.9,2.9-2.4,5.5-0.3,8.1
					C311.3,872.9,305.9,871.5,302.4,869.8z"/>
				<path class="st19" d="M322.9,867c10.1,1.5,20,3,29.8,4.5l-27.6,3.6l-0.6-0.1C321.5,872.3,321.4,869.8,322.9,867z"/>
				<path class="st19" d="M300.5,865.2c0.4-0.5,0.8-1,1.3-1.5c4.9,0.7,9.9,1.5,14.7,2.2c-1.8,2.7-2.4,5.2-0.7,7.6
					c-6.7-1.2-11.9-2.8-15-4.7C300.6,867.6,300.5,866.4,300.5,865.2z"/>
				<path class="st18" d="M403.6,875.2c-10.2-1.2-20.7-2.4-31.5-3.6c10.2-1.1,20.1-2.2,29.7-3.2c0.5,0.1,1,0.2,1.4,0.2
					C402.7,869.8,403.7,872.9,403.6,875.2z"/>
				<path class="st18" d="M420.4,866.4c0.4,0.1,0.9,0.1,1.3,0.2c3.5,3.4,3.6,7.2,1.4,10.8c-4.6-0.5-9.2-1-13.9-1.6
					c0.2-3.1-0.7-5.7-2-8C411.6,867.4,416,866.9,420.4,866.4z"/>
				<path class="st19" d="M405.1,875.4c-10.2-1.1-20.6-2.3-31.4-3.5c10.2-1.1,20.1-2.2,29.6-3.2
					C404.4,870.6,405.1,872.8,405.1,875.4z"/>
				<path class="st19" d="M421.7,866.6c4,3.5,5,7.2,2.7,11c-4.6-0.5-9.2-1-13.8-1.6c0.2-3.1-0.7-5.7-2.1-8
					C412.9,867.5,417.4,867.1,421.7,866.6z"/>
				<path class="st20" d="M359.5,853.8c4,0.6,8,1.2,12,1.7c3.3-0.2,6.6-0.4,9.9-0.6c0.2,0.1,0.4,0.2,0.7,0.3
					c-3.8,0.4-7.6,0.9-11.5,1.3c-4-0.8-8.1-1.6-12.1-2.5C358.7,854,359.1,853.9,359.5,853.8z"/>
				<path class="st15" d="M409.5,853.2c-0.3,2.4,1.3,4.6,4.5,7c-7.1,0.9-14.5,1.7-22,2.6c-0.7-1.9-1.4-3.6-2.4-5.4
					c-0.6-0.8-1.3-1.7-1.9-2.5c0-0.1,0-0.3,0.1-0.4C395.1,854.1,402.4,853.7,409.5,853.2L409.5,853.2z M310.6,856.5
					c4.5-2.6,10-5.2,14.3-7.7c9.6,1.4,19.1,2.8,28.3,4.1c-0.1,0.1-0.2,0.3-0.2,0.4c-2.8,0.7-4,1.9-5.2,2.8c-2.5,1.8-4.3,3.6-5.4,5.5
					C332,860,321.4,858.3,310.6,856.5z"/>
				<path class="st21" d="M358.4,854.1c4,0.6,7.9,1.1,11.8,1.7c0.4,0.1,0.7,0.1,1.1,0.2c0.4,0,0.8-0.1,1.2-0.1
					c3.2-0.2,6.3-0.4,9.5-0.6c0.6,0.9,1.2,1.8,1.7,2.8c1,1.9,1.9,3.9,2.6,5.9c-6.3,0.7-12.6,1.5-19.2,2.2c-6.2-1-12.5-2.1-18.9-3.2
					c1-2.1,2.8-4.1,5.4-6.1C355,855.9,356.6,855,358.4,854.1z"/>
				<path class="st17" d="M409.4,853.6c-0.3,2.4,1.3,4.6,4.5,7c-7.1,0.9-14.5,1.7-22,2.7c-0.7-1.9-1.4-3.6-2.4-5.4
					c-0.6-1-1.2-2-1.9-2.9C395,854.5,402.3,854,409.4,853.6L409.4,853.6z M310.3,857c4.5-2.6,10-5.2,14.3-7.7
					c9.7,1.4,19.1,2.8,28.4,4.1c-2.1,1-3.9,2.1-5.5,3.1c-2.5,1.8-4.3,3.6-5.4,5.6C331.8,860.4,321.2,858.7,310.3,857z"/>
				<path class="st18" d="M345.7,822.8c0-0.1,0.1-0.3,0.1-0.4c1.3-0.2,4.8-0.2,7.7-0.5c8.2,1.7,16.2,3.3,24.2,5
					c0.7,0.1,1.3,0.3,2,0.4c0.7,0,1.4-0.1,2.1-0.1c8-0.4,15.8-0.9,23.3-1.3c1.9,0.5,3.7,1,5.6,1.5c0,0.1,0,0.3,0,0.4
					c-5.1,0.3-10.2,0.6-15.4,0.9c-5.3,0.3-10.8,0.6-16.3,1c-5.4-1.1-10.8-2.2-16.3-3.3C357.1,825.1,351.4,824,345.7,822.8
					L345.7,822.8z M362.5,821.4c6.1,1.3,12,2.5,17.9,3.7c6-0.3,12-0.6,17.7-0.9c0-0.1,0-0.3,0-0.4c-5.3-0.6-10.7-1.1-16.2-1.7
					c-6.1-0.6-13.8-1.2-19.4-1.2C362.6,821.1,362.5,821.3,362.5,821.4z"/>
				<path class="st19" d="M345.9,822.4c2.4-0.4,5-0.7,7.8-1c8.2,1.7,16.2,3.3,24.1,5c0.7,0.1,1.3,0.3,1.9,0.4c0.7,0,1.4-0.1,2.1-0.1
					c8-0.4,15.7-0.8,23.3-1.3c2.1,0.6,4,1.2,5.6,1.9c-5,0.3-10.2,0.6-15.4,0.9c-5.3,0.3-10.8,0.6-16.3,0.9
					c-5.3-1.1-10.8-2.2-16.3-3.3C357.2,824.7,351.5,823.5,345.9,822.4L345.9,822.4z M362.6,821c6.1,1.3,12,2.5,17.9,3.7
					c6-0.3,11.9-0.6,17.7-0.9c-4.4-0.8-9.7-1.5-16.1-2.1C375.2,821.2,368.6,820.9,362.6,821z"/>
				<path class="st15" d="M419.7,838.5c-7.8,0.5-15.9,1.1-24.2,1.7c-0.1-0.2-0.2-0.4-0.2-0.6c0.4-0.7,0.4-1.5,0.2-2.2
					c8.3-0.5,16.4-1,24.3-1.6C420,836.7,419.8,837.6,419.7,838.5L419.7,838.5z M394.9,836.1c8.4-0.5,16.6-1,24.5-1.5
					c-0.3-0.7-0.7-1.4-1.3-2c-8.2,0.3-16.7,0.6-25.4,0.9c0.1,0.2,0.1,0.4,0.2,0.6C393.8,834.7,394.5,835.4,394.9,836.1L394.9,836.1z
					 M391.1,832.8c-0.8-0.4-1.7-0.9-2.7-1.3c-0.1-0.2-0.2-0.4-0.3-0.6c9.2-0.4,18.1-0.7,26.8-1.1c0.6,0.3,1.2,0.7,1.8,1
					c0.1,0.2,0.2,0.4,0.3,0.5C408.6,831.8,399.9,832.3,391.1,832.8L391.1,832.8z M419.1,839.9c-7.8,0.6-15.8,1.2-24.1,1.8
					c-0.4,1-1,2-2.4,3c0.1,0.2,0.2,0.4,0.2,0.6c8.3-0.5,16.3-1.1,24.2-1.6C418,842.4,418.7,841.1,419.1,839.9L419.1,839.9z
					 M356.2,843.4c-9.1-1.4-18.4-2.9-27.9-4.5c-0.4-0.5-0.8-1-0.9-1.6c-0.2-0.7-0.2-1.5,0-2.2c9.9,1.4,19.5,2.8,29,4.2
					c0.1,0.2,0.2,0.4,0.2,0.6C356.1,841.1,356,842.2,356.2,843.4L356.2,843.4z M327.8,833.6c10,1.7,19.8,3.3,29.3,4.9
					c0.5-1,1.2-1.9,2.1-2.8c-0.1-0.2-0.2-0.4-0.3-0.6c-9.5-1.4-19.2-2.9-29.2-4.4c-0.7,0.8-1.7,1.5-2.2,2.3
					C327.7,833.2,327.7,833.4,327.8,833.6L327.8,833.6z M331.1,829.3c-0.1-0.2-0.1-0.5-0.2-0.7c0.7-0.6,2.1-0.9,2.9-1.4
					c10.2,1.6,20.1,3.1,29.8,4.6c0.1,0.2,0.2,0.4,0.3,0.6c-1.1,0.6-2.1,1.2-3,1.8c0,0-0.1,0.1-0.1,0.1
					C351.1,832.7,341.2,831,331.1,829.3L331.1,829.3z M335.8,826c-0.1-0.2-0.2-0.4-0.2-0.6c1.7-0.1,3.4-0.7,4.4-1
					c10,1.8,19.8,3.6,29.3,5.3c0.1,0.2,0.2,0.4,0.3,0.6c-1.1,0.3-2.2,0.7-3.2,1.1C356.3,829.6,346.2,827.8,335.8,826z"/>
				<path class="st17" d="M419.7,835.9c0.1,0.7,0.1,1.4,0,2.1c-7.9,0.5-16.1,1.1-24.4,1.7c0.2-1,0.2-1.9,0-2.8
					c8.3-0.5,16.4-1.1,24.3-1.6C419.6,835.5,419.7,835.7,419.7,835.9L419.7,835.9z M394.7,835.5c8.4-0.5,16.6-1,24.5-1.5
					c-0.3-0.7-0.7-1.4-1.3-2c-8.2,0.5-16.5,1-25.2,1.4C393.6,834.1,394.2,834.8,394.7,835.5L394.7,835.5z M390.8,832.2
					c-0.8-0.4-1.7-0.9-2.7-1.3c9.1-0.6,17.9-1.1,26.5-1.6c0.8,0.5,1.5,1,2.1,1.5C408.3,831.2,399.7,831.7,390.8,832.2L390.8,832.2z
					 M419.4,839.3c-8,0.6-16.2,1.1-24.6,1.7c-0.5,1.2-1.2,2.4-2.2,3.6c8.5-0.5,16.7-1,24.7-1.5C418.3,841.8,419,840.6,419.4,839.3
					L419.4,839.3z M355.9,842.8c-9.1-1.5-18.4-2.9-27.9-4.5c-0.4-0.5-0.7-1-0.9-1.6c-0.2-0.7-0.2-1.5,0-2.2
					c10,1.6,19.7,3.2,29.2,4.8C355.9,840.4,355.8,841.6,355.9,842.8L355.9,842.8z M327.6,833c10,1.6,19.7,3.3,29.3,4.9
					c0.4-0.8,1-1.5,1.6-2.3c0.1-0.2,0.3-0.4,0.5-0.5c-9.6-1.6-19.4-3.3-29.5-5C328.7,831,328.1,832,327.6,833L327.6,833z
					 M330.9,828.7c0.8-0.7,1.7-1.4,2.6-2.1c10.3,1.8,20.3,3.6,30.1,5.3c-1.1,0.6-2.1,1.2-3,1.8c0,0-0.1,0.1-0.1,0.1
					C350.9,832.1,341,830.4,330.9,828.7L330.9,828.7z M335.5,825.4c1.2-0.6,2.6-1.1,4.1-1.6c10.1,2,19.9,4,29.6,5.9
					c-1.1,0.3-2.2,0.7-3.2,1.1C356.1,829,345.9,827.2,335.5,825.4z"/>
				<path class="st20" d="M374.3,846.1c-4-0.7-8.1-1.3-12.2-2c0-0.1,0-0.3,0-0.4c0.1-1.1-0.3-2-0.1-3c4.5,0.8,8.9,1.5,13.3,2.2
					c4.3-0.3,8.6-0.7,12.8-1c-0.5,1-1,2-1.5,3c0,0.2,0,0.3,0.1,0.5C382.6,845.6,378.5,845.9,374.3,846.1L374.3,846.1z M365.4,836.2
					c3.4,1.9,6.7,3.9,10.1,5.8c4.8-1.6,9.6-3.1,14.2-4.7c0-0.1,0-0.3,0-0.4c-0.6-0.8-1.2-1.6-1.9-2.4c-3.4,0.2-6.8,0.4-10.2,0.6
					c-3-0.5-6-1-9-1.6c-1.6,0.5-1.3,1.4-3.2,2.2C365.4,835.9,365.4,836,365.4,836.2L365.4,836.2z M370.9,832.1c0-0.1,0-0.3,0-0.4
					c0.7-0.2,2.2-0.4,3-0.6c0.8,0.2,1.6,0.3,2.4,0.5c0.7,0.1,1.3,0.3,2,0.4c0.7,0,1.4-0.1,2.2-0.1c0.9-0.1,1.9-0.1,2.8-0.2
					c0.9,0.3,1.8,0.6,2.7,0.8c0,0.1,0,0.3,0.1,0.4c-2.6,0.3-5.2,0.6-7.9,0.9C375.7,833.2,373.3,832.6,370.9,832.1z"/>
				<path class="st21" d="M374.3,845.7c-2.1-0.3-4.2-0.7-6.2-1c-2-0.3-4-0.7-6-1c-0.3-1.2-0.3-2.3-0.1-3.5c4.5,0.7,8.9,1.5,13.3,2.2
					c4.6-0.3,9.2-0.7,13.7-1c-0.6,1.1-1.4,2.2-2.4,3.4C382.6,845.2,378.5,845.4,374.3,845.7L374.3,845.7z M365.4,835.7
					c3.4,2,6.7,3.9,10.1,5.8c4.8-1.6,9.6-3.1,14.2-4.6c0-0.8-1-2.1-1.8-2.8c-3.4,0.2-6.8,0.4-10.2,0.6c-3-0.5-6-1-9-1.6
					C366.7,833.8,365.8,834.9,365.4,835.7L365.4,835.7z M370.9,831.6c0.9-0.4,1.9-0.7,3-1c0.8,0.1,1.6,0.3,2.4,0.5
					c0.7,0.1,1.3,0.3,2,0.4c0.7,0,1.4-0.1,2.2-0.1c0.9-0.1,1.9-0.1,2.8-0.2c1,0.4,1.9,0.8,2.7,1.3c-2.6,0.3-5.2,0.6-7.8,0.9
					C375.7,832.8,373.3,832.2,370.9,831.6z"/>
			</g>
		</g>
	</g>
</g>
</svg>
