<?xml version="1.0" encoding="utf-8"?>
<!-- Generator: Adobe Illustrator 21.1.0, SVG Export Plug-In . SVG Version: 6.00 Build 0)  -->
<svg version="1.1" id="Layer_1" xmlns="http://www.w3.org/2000/svg" xmlns:xlink="http://www.w3.org/1999/xlink" x="0px" y="0px"
	 viewBox="0 0 720.5 800" style="enable-background:new 0 0 720.5 800;" xml:space="preserve">
<style type="text/css">
	.st0{fill:#6CC8E5;}
	.st1{fill:#0C95CD;}
	.st2{fill:#CE5D5C;}
	.st3{fill:#D35E55;}
	.st4{fill:#E0E0E0;}
</style>
<g>
	<path class="st0" d="M708.5,800H12c-6.6,0-12-5.4-12-12V91.5c0-6.6,5.4-12,12-12h696.5c6.6,0,12,5.4,12,12V788
		C720.5,794.6,715.1,800,708.5,800z"/>
	<circle class="st0" cx="360.3" cy="180" r="180"/>
	<circle class="st1" cx="360.3" cy="182.3" r="146.3"/>
	<g>
		<path d="M392.7,122.4c-1-0.3-2-0.6-2.9-0.8l8.8-33.6c1.3,0.3,2.6,0.7,3.8,1.1L392.7,122.4z M322.6,122l-9.2-33.5
			c1.2-0.3,2.5-0.7,3.8-1l8.5,33.7C324.6,121.5,323.6,121.7,322.6,122z M359.3,117.4c-0.8,0-1.5,0-2.3,0l-0.8,0L356,82.6l0.9,0
			c1.1,0.1,2,0,3,0L359.3,117.4z"/>
		<path d="M424.9,136.3c-0.6-0.5-1.1-1-1.7-1.6l-0.6-0.5l23.3-25.8l0.7,0.6c0.8,0.8,1.5,1.4,2.2,2L424.9,136.3z"/>
		<path d="M297.7,134.3c-0.6,0.5-1.1,1-1.7,1.5l-0.6,0.6L271.7,111l0.7-0.6c0.9-0.7,1.5-1.4,2.2-2L297.7,134.3z"/>
		<path d="M306.6,125.7l-10.2-16.4c1.3-0.8,2.6-1.6,3.9-2.4l9.7,16.7C308.9,124.3,307.7,125,306.6,125.7z"/>
		<path d="M338.7,116l-1.9-19.2c1.5-0.2,3-0.3,4.6-0.4l1.4,19.3C341.3,115.8,340,115.9,338.7,116z"/>
		<path d="M411.5,125.7c-1-0.9-2.1-1.7-3.1-2.5l12-15.1c1.2,1,2.4,1.9,3.6,2.9L411.5,125.7z"/>
		<path d="M381.1,116c-1.3-0.1-2.7-0.2-4-0.2l0.8-19.3c1.5,0.1,3.1,0.2,4.6,0.3L381.1,116z"/>
	</g>
	<circle class="st2" cx="363.3" cy="206.4" r="14.3"/>
	<polygon class="st3" points="358,199.8 464.9,124.2 368.7,213 	"/>
	<path class="st4" d="M565.8,130h-32.6c0,0,0,0,0,0h0.1c5.4,17.1,8.3,35.3,8.3,54.2c0,99.4-80.6,180-180,180s-180-80.6-180-180
		c0-18.6,2.8-36.6,8.1-53.5l0.4,0c0-0.2,0-0.5-0.1-0.7h-35.3c-56,0-101.9,45.8-101.9,101.9v411c0,56,45.8,101.9,101.9,101.9h411
		c56,0,101.9-45.8,101.9-101.9v-411C667.6,175.9,621.8,130,565.8,130z"/>
</g>
</svg>
