<?xml version="1.0" encoding="utf-8"?>
<!-- Generator: Adobe Illustrator 23.0.3, SVG Export Plug-In . SVG Version: 6.00 Build 0)  -->
<svg version="1.1" id="Layer_1" xmlns="http://www.w3.org/2000/svg" xmlns:xlink="http://www.w3.org/1999/xlink" x="0px" y="0px"
	 viewBox="0 0 900.1 873.8" style="enable-background:new 0 0 900.1 873.8;" xml:space="preserve">
<style type="text/css">
	.st0{fill:#F2D730;}
	.st1{fill:#231F20;}
	.st2{fill:#EFEDEE;}
	.st3{fill:#545454;}
	.st4{fill:#E4E4E4;}
	.st5{fill:#FFFFFF;}
	.st6{fill:none;}
	.st7{fill:#F15A29;}
</style>
<g>
	<g>
		<polygon class="st0" points="26.2,631.8 129.8,532 160.1,687.9 		"/>
		<path class="st1" d="M160.5,688.4L25.6,631.9L130,531.4L160.5,688.4z M26.7,631.7l132.9,55.7l-30.1-154.8L26.7,631.7z"/>
	</g>
	<g>
		<g>
			<polygon class="st0" points="108.2,457.9 28.9,548.4 27.8,469 			"/>
			<path class="st1" d="M28.6,549.2l-1.1-80.5l81.5-11.3l-0.5,0.6L28.6,549.2z M28.1,469.3l1,78.4l78.3-89.4L28.1,469.3z"/>
		</g>
		<g>
			<polygon class="st0" points="789.2,457.6 868.6,548.2 869.7,468.8 			"/>
			<path class="st1" d="M868.9,549l-80.4-91.8l81.5,11.3L868.9,549z M790,458l78.3,89.4l1-78.4L790,458z"/>
		</g>
	</g>
	<g id="XMLID_3_">
		<g>
			<path class="st2" d="M747.8,14c80.6,0,143.3,70,134.4,150.1l-65.3,589.4c-7.6,68.5-65.5,120.3-134.4,120.3H226.2
				c-68.9,0-126.8-51.8-134.4-120.3L26.5,164.1C17.6,84,80.3,14,160.9,14h167.8c-7.1,3.3-14.1,6.9-21,10.8
				c-8.9,5-17.6,10.6-26.1,16.6c-2.5,1.8-5.1,3.7-7.5,5.6l353.8-5.1c-15.2-10.9-31.2-20.1-47.7-27.8H747.8z M834.6,195.2
				c6.8-61.4-33.8-116.2-91.1-130L475.6,437.7L213,61.8h-19.5c-71.6,0-127.3,62.2-119.4,133.4l58,523.8
				c6.7,60.9,58.2,106.9,119.4,106.9h405.6c61.2,0,112.7-46.1,119.4-106.9L834.6,195.2z"/>
		</g>
	</g>
	<g>
		<g>
			<path class="st3" d="M834.6,195.2l-58,523.8c-6.7,60.9-58.2,106.9-119.4,106.9H251.5c-61.2,0-112.7-46.1-119.4-106.9l-58-523.8
				C66.2,124,121.9,61.8,193.5,61.8h86.8l29.6,40.5l0.3,0.4l3.7,5l0.6,0.9l48.3,66l75.5,103.1c8.2,11.2,20.8,16.3,33,15.7
				c13.7,0.7,27.6-5.7,35.3-19l58-99.8l65.5-112.7h84.9C786.8,61.8,842.5,124,834.6,195.2z"/>
		</g>
	</g>
	<g>
		<polygon points="314.5,106.5 314.5,108.6 313.9,107.7 310.2,102.7 309.9,102.3 310.9,101.6 		"/>
	</g>
	<g>
		<path class="st2" d="M619.5,13.1H305.6c-36.1,0-58.9,38.9-41.2,70.4l14.9,26.5c0.5-0.4,0.9-0.8,1.4-1.2c0.6,0.8,1.2,1.5,1.8,2.3
			h-2.5l141.5,252c18.1,32.2,64.4,32.2,82.4,0l157-279.6C678.4,52,655.6,13.1,619.5,13.1z M492.5,308.8c-13.1,23.4-46.8,23.4-60,0
			l-55.4-98.7l-58.7-104.6c-4-7.1-5.1-14.6-4.1-21.7c4.3-2.7,8.7-5.3,13.1-7.7c5.6-3.1,11.2-6,17-8.6c0.1,0,0.2-0.1,0.3-0.2
			c2.7-1.3,5.4-2.5,8.2-3.6c8.4-3.6,16.9-6.7,25.5-9.4c0.3-0.1,0.7-0.2,1-0.3c9-2.8,18.1-5.1,27.3-6.9c9.2-1.8,18.5-3.2,27.8-4
			c9.3-0.9,18.7-1.3,28-1.2c9.3,0.1,18.7,0.6,28,1.7c9.3,1,18.5,2.5,27.7,4.5c7.9,1.7,15.7,3.8,23.4,6.2c1.2,0.4,2.5,0.8,3.7,1.2
			c8.9,2.9,17.6,6.3,26.2,10.1c1.3,0.6,2.6,1.1,3.8,1.7c7.2,3.3,14.3,7,21.2,11c4.9,2.8,9.8,5.8,14.6,9c0.3,6-1.1,12.3-4.4,18.2
			l-59.4,105.7L492.5,308.8z"/>
	</g>
	<g>
		<path class="st4" d="M280.6,108.8c0.6,0.8,1.2,1.5,1.8,2.3h-2.5l-0.6-1.1C279.7,109.6,280.1,109.2,280.6,108.8z"/>
	</g>
	<g>
		<path class="st4" d="M606.6,105.5l-59.4,105.7l-54.8,97.6c-13.1,23.4-46.8,23.4-60,0l-55.4-98.7l-58.7-104.6
			c-4-7.1-5.1-14.6-4.1-21.7c4.3-2.7,8.7-5.3,13.1-7.7c5.6-3.1,11.2-6,17-8.6c0.1,0,0.2-0.1,0.3-0.2c2.7-1.3,5.4-2.5,8.2-3.6
			c8.4-3.6,16.9-6.7,25.5-9.4c0.3-0.1,0.7-0.2,1-0.3c9-2.8,18.1-5.1,27.3-6.9c9.2-1.8,18.5-3.2,27.8-4c9.3-0.9,18.7-1.3,28-1.2
			c9.3,0.1,18.7,0.6,28,1.7c9.3,1,18.5,2.5,27.7,4.5c7.9,1.7,15.7,3.8,23.4,6.2c1.2,0.4,2.5,0.8,3.7,1.2c8.9,2.9,17.6,6.3,26.2,10.1
			c1.3,0.6,2.6,1.1,3.8,1.7c7.2,3.3,14.3,7,21.2,11c4.9,2.8,9.8,5.8,14.6,9C611.3,93.3,609.9,99.6,606.6,105.5z"/>
	</g>
	<g>
		<path class="st3" d="M606.6,105.5l-59.4,105.7l-54.8,97.6c-13.1,23.4-46.8,23.4-60,0l-55.4-98.7l-58.7-104.6
			c-4-7.1-5.1-14.6-4.1-21.7c4.3-2.7,8.7-5.3,13.1-7.7c5.6-3.1,11.2-6,17-8.6c0.1,0,0.2-0.1,0.3-0.2c2.7-1.3,5.4-2.5,8.2-3.6
			c8.4-3.6,16.9-6.7,25.5-9.4h163.2c1.2,0.4,2.5,0.8,3.7,1.2c8.9,2.9,17.6,6.3,26.2,10.1c1.3,0.6,2.6,1.1,3.8,1.7
			c7.2,3.3,14.3,7,21.2,11c4.9,2.8,9.8,5.8,14.6,9C611.3,93.3,609.9,99.6,606.6,105.5z"/>
	</g>
	<g>
		<g>
			<g>
				<g>
					<path class="st5" d="M606.6,105.5l-59.4,105.7c-13.4-8.6-27.8-15-42.8-19.2c-13.8-3.9-28.1-5.8-42.4-5.9c0-0.6,0-1.2,0-1.8
						c0-15.6,0.1-31.2,0.1-46.9v-0.7c0-1.6,0-3.2,0-4.8v-0.2c0-13.2,0.1-26.4,0.1-39.6c0,0,0,0,0,0c0-1.7,0-3.4,0-5.1v-0.3
						c0-10.8,0.1-21.6,0.1-32.3c0-4.1,0-8.3,0-12.4c9.3,0.1,18.7,0.6,28,1.7c9.3,1,18.5,2.5,27.7,4.5c7.9,1.7,15.7,3.8,23.4,6.2
						c1.2,0.4,2.5,0.8,3.7,1.2c8.9,2.9,17.6,6.3,26.2,10.1c1.3,0.6,2.6,1.1,3.8,1.7c7.2,3.3,14.3,7,21.2,11c4.9,2.8,9.8,5.8,14.6,9
						C611.3,93.3,609.9,99.6,606.6,105.5z"/>
					<path class="st1" d="M547.4,211.6l-0.3-0.2c-13.2-8.5-27.5-14.9-42.7-19.2c-13.7-3.8-28-5.8-42.3-5.9l-0.3,0l0-2.1l0-15.1
						c0-10.6,0.1-21.2,0.1-31.8l0-5.7c0-13.2,0.1-26.4,0.1-39.6l0-0.4c0-1.6,0-3.1,0-4.7v-0.3l0.1-45l0.3,0c9.4,0.1,18.8,0.7,28,1.7
						c9.2,1,18.6,2.6,27.7,4.5c7.8,1.7,15.7,3.8,23.4,6.2c1.2,0.4,2.5,0.8,3.7,1.2c8.9,2.9,17.7,6.3,26.2,10.1
						c1.3,0.6,2.6,1.2,3.8,1.7c7.2,3.4,14.4,7.1,21.3,11c4.9,2.8,9.8,5.9,14.6,9l0.1,0.1l0,0.2c0.3,6.3-1.3,12.7-4.5,18.4h0
						L547.4,211.6z M462.4,185.8c14.3,0.1,28.4,2.1,42.1,5.9c15.2,4.2,29.5,10.6,42.6,19.1l59.2-105.5c3.1-5.5,4.6-11.7,4.4-17.9
						c-4.7-3.1-9.5-6.1-14.4-8.9c-6.8-3.9-14-7.6-21.2-11c-1.2-0.6-2.5-1.1-3.8-1.7c-8.5-3.8-17.3-7.2-26.2-10.1
						c-1.2-0.4-2.4-0.8-3.7-1.2c-7.7-2.4-15.6-4.5-23.4-6.2c-9.1-2-18.4-3.5-27.6-4.5c-9.1-1-18.4-1.6-27.6-1.7l-0.1,44.8
						c0,1.6,0,3.1,0,4.7l0,0.4c0,13.2-0.1,26.4-0.1,39.6l0,5.7c0,10.6-0.1,21.2-0.1,31.8L462.4,185.8z"/>
				</g>
				<g>
					<polygon class="st1" points="647.1,51.2 647.1,50.9 646.8,50.9 647.1,50.9 647.1,50.6 647.1,50.9 647.4,50.9 					"/>
				</g>
				<g>
					
						<rect x="567.3" y="95.9" transform="matrix(0.451 -0.8925 0.8925 0.451 236.6066 577.0887)" class="st1" width="40.2" height="0.6"/>
				</g>
				<g>
					<polygon class="st1" points="618.1,34.9 618.1,34.9 618.7,34.9 					"/>
				</g>
				<g>
					<path class="st1" d="M565.3,81.9l-0.6-0.2c1.1-2.7,2.1-5.4,3.2-8.1c1.1-2.7,2.2-5.5,3.2-8.2l0.6,0.2c-1.1,2.7-2.2,5.5-3.2,8.2
						C567.4,76.5,566.4,79.2,565.3,81.9z"/>
				</g>
				<g>
					<path class="st1" d="M540.3,73.6l-0.6-0.2c1.7-6,3.5-12.1,5.2-18.1l0.6,0.2C543.8,61.5,542.1,67.6,540.3,73.6z"/>
				</g>
				<g>
					<polygon class="st1" points="557.6,11.6 557.6,11.6 558.2,11.6 					"/>
				</g>
				<g>
					<path class="st1" d="M514.8,67.6l-0.6-0.1c1.2-6.5,2.5-13,3.7-19.5l0.6,0.1C517.3,54.6,516,61.1,514.8,67.6z"/>
				</g>
				<g>
					<path class="st1" d="M488.9,64l-0.6-0.1l0.9-9.8c0.3-3.5,0.7-7.1,1-10.6l0.6,0.1c-0.3,3.5-0.7,7.1-1,10.6L488.9,64z"/>
				</g>
				<g>
					<polygon class="st1" points="494.4,0 494.4,0 495,0 					"/>
				</g>
			</g>
			<g>
				<g>
					<path class="st5" d="M462.5,41.9c0,4.1,0,8.3,0,12.4c0,10.8-0.1,21.6-0.1,32.3v0.3c0,1.7,0,3.4,0,5.1c0,0,0,0,0,0
						c0,13.2-0.1,26.4-0.1,39.6v0.2c0,1.6,0,3.2,0,4.8v0.7c-0.1,15.6-0.1,31.2-0.1,46.9c0,0.6,0,1.2,0,1.8
						c-19.5-0.1-39.1,3.4-57.6,10.4c0,0,0,0,0,0c-9.4,3.6-18.6,8.1-27.3,13.6l-58.7-104.6c-4-7.1-5.1-14.6-4.1-21.7
						c4.3-2.7,8.7-5.3,13.1-7.7c5.6-3.1,11.2-6,17-8.6c0.1,0,0.2-0.1,0.3-0.2c2.7-1.3,5.4-2.5,8.2-3.6c8.4-3.6,16.9-6.7,25.5-9.4
						c0.3-0.1,0.7-0.2,1-0.3c9-2.8,18.1-5.1,27.3-6.9c9.2-1.8,18.5-3.2,27.8-4C443.8,42.2,453.2,41.8,462.5,41.9z"/>
					<path class="st1" d="M377,210.5l-0.2-0.3l-58.7-104.6c-3.8-6.8-5.2-14.4-4.1-21.9l0-0.1l0.1-0.1c4.2-2.7,8.6-5.3,13.1-7.7
						c5.5-3.1,11.2-6,17-8.6l0.1,0c0.1,0,0.1-0.1,0.2-0.1c3-1.4,5.7-2.6,8.2-3.6c8.3-3.5,16.9-6.7,25.6-9.4c0.3-0.1,0.7-0.2,1-0.3
						c8.9-2.7,18.1-5,27.3-6.9c9.1-1.8,18.5-3.2,27.8-4c9.3-0.9,18.7-1.3,28.1-1.2l0.3,0l-0.1,45.4c0,1.6,0,3.1,0,4.7l0,0.4
						c0,13.2-0.1,26.4-0.1,39.6l0,5.7c0,10.6-0.1,21.2-0.1,31.8l-0.1,17.2l-0.3,0c-19.8-0.1-39.1,3.4-57.5,10.4l-0.1,0
						c-9.5,3.6-18.7,8.2-27.3,13.5L377,210.5z M314.6,83.9c-1.1,7.4,0.4,14.8,4.1,21.4l58.6,104.3c8.5-5.3,17.6-9.8,27-13.4l0,0
						l0.1,0c18.2-6.9,37.3-10.4,57-10.4c0.1,0,0.3,0,0.4,0l0.1-16.6c0-10.6,0.1-21.2,0.1-31.8l0-5.7c0-13.2,0.1-26.4,0.1-39.6l0-0.4
						c0-1.6,0-3.1,0-4.7v-0.3l0.1-44.4c-9.2-0.1-18.6,0.3-27.7,1.2c-9.3,0.9-18.7,2.2-27.8,4c-9.2,1.8-18.4,4.1-27.3,6.9
						c-0.3,0.1-0.7,0.2-1,0.3c-8.6,2.7-17.2,5.8-25.5,9.3c-2.5,1-5.1,2.2-8.2,3.6c-0.1,0-0.1,0.1-0.2,0.1l-0.1,0
						c-5.7,2.7-11.4,5.6-16.9,8.6C323.1,78.7,318.8,81.3,314.6,83.9z"/>
				</g>
				<g>
					<path class="st1" d="M436.1,64.1c-0.6-7-1.3-14-1.9-21l0.6-0.1c0.6,7,1.3,14,1.9,21L436.1,64.1z"/>
				</g>
				<g>
					<path class="st1" d="M410.2,67.7c-1.1-5.7-2.1-11.5-3.2-17.2l-0.6-3.3L407,47l0.6,3.3c1.1,5.7,2.1,11.5,3.2,17.2L410.2,67.7z"
						/>
				</g>
				<g>
					
						<rect x="381.8" y="53.6" transform="matrix(0.9623 -0.272 0.272 0.9623 -2.944 106.3485)" class="st1" width="0.6" height="20.4"/>
				</g>
				<g>
					
						<rect x="356.1" y="63" transform="matrix(0.9328 -0.3605 0.3605 0.9328 -2.2832 133.3887)" class="st1" width="0.6" height="19.7"/>
				</g>
				<g>
					
						<rect x="336.6" y="73.8" transform="matrix(0.8947 -0.4467 0.4467 0.8947 -7.0003 160.5311)" class="st1" width="0.6" height="42.7"/>
				</g>
				<g>
					<path class="st6" d="M303.2,91.1"/>
				</g>
			</g>
		</g>
	</g>
	<g>
		<g>
			<g>
				<g>
					<path class="st0" d="M871.7,468.4c9.3,27.3,18.7,54.6,28,81.9c-22.4,7.7-45,14.7-67.7,21.2c-7.9-27.7-15.9-55.4-23.8-83.1
						C829.5,482.3,850.7,475.6,871.7,468.4z"/>
					<path class="st1" d="M831.8,571.8l-24-83.7l0.3-0.1c21.2-6.1,42.6-12.8,63.5-20l0.3-0.1l0.1,0.3l28.1,82.2l-0.3,0.1
						c-22.3,7.6-45.1,14.7-67.7,21.2L831.8,571.8z M808.6,488.6l23.6,82.5c22.4-6.4,45-13.5,67.1-21l-27.8-81.3
						C850.8,475.9,829.7,482.5,808.6,488.6z"/>
				</g>
				<g>
					<path class="st0" d="M865.4,470.5c3.2,9.4,6.3,18.7,9.5,28.1"/>
					
						<rect x="869.9" y="469.7" transform="matrix(0.9478 -0.3189 0.3189 0.9478 -109.1007 302.8164)" class="st1" width="0.6" height="29.6"/>
				</g>
				<g>
					<path class="st0" d="M859.1,472.6c3.1,9.4,6.2,18.8,9.3,28.1"/>
					
						<rect x="863.5" y="471.9" transform="matrix(0.9494 -0.3141 0.3141 0.9494 -109.1593 295.942)" class="st1" width="0.6" height="29.6"/>
				</g>
				<g>
					<path class="st0" d="M852.8,474.7c3.1,9.4,6.1,18.8,9.2,28.2"/>
					
						<rect x="857.1" y="474" transform="matrix(0.951 -0.3093 0.3093 0.951 -109.1408 289.1182)" class="st1" width="0.6" height="29.6"/>
				</g>
				<g>
					<path class="st0" d="M846.4,476.8c3,9.4,6,18.8,9,28.2"/>
					
						<rect x="850.7" y="476.1" transform="matrix(0.9525 -0.3045 0.3045 0.9525 -109.053 282.3788)" class="st1" width="0.6" height="29.6"/>
				</g>
				<g>
					<path class="st0" d="M840.1,478.8c4.1,13,8.1,25.9,12.2,38.9"/>
					
						<rect x="845.9" y="477.9" transform="matrix(0.9541 -0.2996 0.2996 0.9541 -110.3949 276.4106)" class="st1" width="0.6" height="40.7"/>
				</g>
				<g>
					<path class="st0" d="M833.7,480.8c2.9,9.4,5.8,18.9,8.7,28.3"/>
					
						<rect x="837.8" y="480.1" transform="matrix(0.9556 -0.2948 0.2948 0.9556 -108.6492 269.0411)" class="st1" width="0.6" height="29.6"/>
				</g>
				<g>
					<path class="st0" d="M836,511.1c-2.9-9.4-5.7-18.9-8.6-28.3"/>
					
						<rect x="831.4" y="482.1" transform="matrix(0.9571 -0.2899 0.2899 0.9571 -108.3311 262.4313)" class="st1" width="0.6" height="29.6"/>
				</g>
				<g>
					<path class="st0" d="M821,484.6c2.8,9.5,5.6,18.9,8.4,28.4"/>
					
						<rect x="824.9" y="484" transform="matrix(0.9585 -0.2851 0.2851 0.9585 -107.954 255.9309)" class="st1" width="0.6" height="29.6"/>
				</g>
				<g>
					<path class="st0" d="M814.6,486.5c2.8,9.5,5.5,18.9,8.3,28.4"/>
					
						<rect x="818.5" y="485.9" transform="matrix(0.96 -0.2802 0.2802 0.96 -107.4954 249.4486)" class="st1" width="0.6" height="29.6"/>
				</g>
			</g>
			<g>
				<g>
					<path class="st0" d="M808.3,488.4c7.9,27.7,15.9,55.4,23.8,83.1c-22.7,6.5-45.5,12.4-68.5,17.6c-6.5-28-13-56-19.5-84
						C765.6,500,787,494.5,808.3,488.4z"/>
					<path class="st1" d="M763.4,589.4l-19.7-84.6l0.3-0.1c21.4-5,43-10.6,64.2-16.7l0.3-0.1l24,83.7l-0.3,0.1
						c-22.6,6.4-45.6,12.4-68.5,17.6L763.4,589.4z M744.4,505.3l19.4,83.4c22.7-5.2,45.5-11.1,67.9-17.5l-23.6-82.5
						C787.1,494.8,765.7,500.3,744.4,505.3z"/>
				</g>
				<g>
					<path class="st0" d="M801.9,490.2c2.7,9.5,5.3,19,8,28.5"/>
					
						<rect x="805.6" y="489.6" transform="matrix(0.9627 -0.2704 0.2704 0.9627 -106.3879 236.7316)" class="st1" width="0.6" height="29.6"/>
				</g>
				<g>
					<path class="st0" d="M795.5,492c2.6,9.5,5.2,19,7.9,28.5"/>
					
						<rect x="799.1" y="491.4" transform="matrix(0.9641 -0.2655 0.2655 0.9641 -105.7275 230.4498)" class="st1" width="0.6" height="29.6"/>
				</g>
				<g>
					<path class="st0" d="M789.1,493.7c2.6,9.5,5.1,19,7.7,28.6"/>
					
						<rect x="792.6" y="493.2" transform="matrix(0.9654 -0.2607 0.2607 0.9654 -105.0033 224.2404)" class="st1" width="0.6" height="29.6"/>
				</g>
				<g>
					<path class="st0" d="M782.7,495.4c2.5,9.5,5,19.1,7.6,28.6"/>
					
						<rect x="786.1" y="494.9" transform="matrix(0.9667 -0.2558 0.2558 0.9667 -104.2157 218.1017)" class="st1" width="0.6" height="29.6"/>
				</g>
				<g>
					<path class="st0" d="M776.2,497.1c3.4,13.1,6.8,26.2,10.2,39.4"/>
					<polygon class="st1" points="786.2,536.6 775.9,497.2 776.5,497 786.7,536.4 					"/>
				</g>
				<g>
					<path class="st0" d="M769.8,498.8c2.4,9.6,4.8,19.1,7.3,28.7"/>
					
						<rect x="773.2" y="498.3" transform="matrix(0.9693 -0.246 0.246 0.9693 -102.441 205.9976)" class="st1" width="0.6" height="29.6"/>
				</g>
				<g>
					<path class="st0" d="M763.4,500.4c2.4,9.6,4.8,19.1,7.1,28.7"/>
					
						<rect x="766.7" y="500" transform="matrix(0.9705 -0.2411 0.2411 0.9705 -101.466 200.0634)" class="st1" width="0.6" height="29.6"/>
				</g>
				<g>
					<path class="st0" d="M757,502c2.3,9.6,4.7,19.2,7,28.7"/>
					
						<rect x="760.1" y="501.6" transform="matrix(0.9717 -0.2361 0.2361 0.9717 -100.4158 194.1579)" class="st1" width="0.6" height="29.6"/>
				</g>
				<g>
					<path class="st0" d="M750.5,503.5c2.3,9.6,4.6,19.2,6.8,28.8"/>
					
						<rect x="753.6" y="503.1" transform="matrix(0.9729 -0.2312 0.2312 0.9729 -99.3204 188.3608)" class="st1" width="0.6" height="29.6"/>
				</g>
			</g>
			<g>
				<g>
					<path class="st0" d="M744.1,505c6.5,28,13,56,19.5,84c-22.9,5.3-46,10-69.1,14.1c-5.1-28.3-10.2-56.5-15.2-84.8
						C701,514.5,722.6,510,744.1,505z"/>
					<path class="st1" d="M694.3,603.5l-0.1-0.3l-15.3-85.1l0.3-0.1c21.6-3.9,43.4-8.4,64.8-13.3l0.3-0.1l19.7,84.6l-0.3,0.1
						c-22.8,5.3-46.1,10-69.1,14.1L694.3,603.5z M679.6,518.6l15.1,84.2c22.8-4.1,45.8-8.8,68.5-14l-19.4-83.4
						C722.7,510.3,701.1,514.8,679.6,518.6z"/>
				</g>
				<g>
					<path class="st0" d="M737.6,506.5c2.2,9.6,4.4,19.2,6.5,28.8"/>
					
						<rect x="740.6" y="506.2" transform="matrix(0.9752 -0.2214 0.2214 0.9752 -96.9361 176.9288)" class="st1" width="0.6" height="29.6"/>
				</g>
				<g>
					<path class="st0" d="M731.2,508c2.1,9.6,4.3,19.2,6.4,28.8"/>
					
						<rect x="734" y="507.6" transform="matrix(0.9763 -0.2164 0.2164 0.9763 -95.6542 171.3085)" class="st1" width="0.6" height="29.5"/>
				</g>
				<g>
					<path class="st0" d="M724.7,509.4c2.1,9.6,4.2,19.3,6.2,28.9"/>
					
						<rect x="727.5" y="509.1" transform="matrix(0.9774 -0.2115 0.2115 0.9774 -94.3225 165.7741)" class="st1" width="0.6" height="29.5"/>
				</g>
				<g>
					<path class="st0" d="M718.2,510.8c2,9.6,4.1,19.3,6.1,28.9"/>
					
						<rect x="721" y="510.5" transform="matrix(0.9784 -0.2065 0.2065 0.9784 -92.9326 160.303)" class="st1" width="0.6" height="29.5"/>
				</g>
				<g>
					<path class="st0" d="M711.7,512.1c2.7,13.3,5.5,26.5,8.2,39.8"/>
					
						<rect x="715.5" y="511.7" transform="matrix(0.9795 -0.2016 0.2016 0.9795 -92.5553 155.2331)" class="st1" width="0.6" height="40.6"/>
				</g>
				<g>
					<path class="st0" d="M705.3,513.5c1.9,9.7,3.9,19.3,5.8,29"/>
					
						<rect x="707.9" y="513.2" transform="matrix(0.9805 -0.1966 0.1966 0.9805 -89.9891 149.5692)" class="st1" width="0.6" height="29.5"/>
				</g>
				<g>
					<path class="st0" d="M698.8,514.7c1.9,9.7,3.8,19.3,5.7,29"/>
					
						<rect x="701.3" y="514.5" transform="matrix(0.9815 -0.1917 0.1917 0.9815 -88.4385 144.3102)" class="st1" width="0.6" height="29.5"/>
				</g>
				<g>
					<path class="st0" d="M692.3,516c1.8,9.7,3.7,19.3,5.5,29"/>
					
						<rect x="694.7" y="515.7" transform="matrix(0.9824 -0.1867 0.1867 0.9824 -86.8401 139.1299)" class="st1" width="0.6" height="29.5"/>
				</g>
				<g>
					<path class="st0" d="M685.8,517.2c1.8,9.7,3.6,19.4,5.4,29"/>
					
						<rect x="688.2" y="517" transform="matrix(0.9833 -0.1817 0.1817 0.9833 -85.1734 133.9865)" class="st1" width="0.6" height="29.5"/>
				</g>
			</g>
			<g>
				<g>
					<path class="st0" d="M679.3,518.4c5.1,28.3,10.2,56.5,15.2,84.8c-23.1,4.1-46.3,7.6-69.5,10.6c-3.6-28.4-7.3-56.9-10.9-85.3
						C635.9,525.6,657.6,522.3,679.3,518.4z"/>
					<path class="st1" d="M624.7,614.1l-11-85.9l0.3,0c21.7-2.8,43.7-6.2,65.2-10l0.3-0.1l0.1,0.3l15.3,85.1l-0.3,0.1
						c-23,4.1-46.4,7.6-69.6,10.6L624.7,614.1z M614.4,528.7l10.8,84.7c22.9-2.9,46.1-6.4,68.9-10.5l-15.1-84.2
						C657.7,522.6,635.9,525.9,614.4,528.7z"/>
				</g>
				<g>
					<path class="st0" d="M672.8,519.5c1.7,9.7,3.4,19.4,5.1,29.1"/>
					
						<rect x="675" y="519.3" transform="matrix(0.9851 -0.1718 0.1718 0.9851 -81.7207 123.9737)" class="st1" width="0.6" height="29.5"/>
				</g>
				<g>
					<path class="st0" d="M666.3,520.7c1.6,9.7,3.3,19.4,4.9,29.1"/>
					
						<rect x="668.4" y="520.5" transform="matrix(0.986 -0.1669 0.1669 0.986 -79.9288 119.0882)" class="st1" width="0.6" height="29.5"/>
				</g>
				<g>
					<path class="st0" d="M659.8,521.8c1.6,9.7,3.2,19.4,4.8,29.1"/>
					
						<rect x="661.9" y="521.6" transform="matrix(0.9868 -0.1619 0.1619 0.9868 -78.0748 114.2481)" class="st1" width="0.6" height="29.5"/>
				</g>
				<g>
					<path class="st0" d="M653.3,522.8c1.5,9.7,3.1,19.4,4.6,29.1"/>
					
						<rect x="655.3" y="522.6" transform="matrix(0.9876 -0.1569 0.1569 0.9876 -76.1828 109.4955)" class="st1" width="0.6" height="29.5"/>
				</g>
				<g>
					<path class="st0" d="M646.7,523.8c2.1,13.4,4.1,26.7,6.2,40.1"/>
					
						<rect x="649.5" y="523.6" transform="matrix(0.9884 -0.1519 0.1519 0.9884 -75.0665 105.0091)" class="st1" width="0.6" height="40.5"/>
				</g>
				<g>
					<path class="st0" d="M640.2,524.8c1.4,9.7,2.9,19.4,4.3,29.2"/>
					
						<rect x="642.1" y="524.7" transform="matrix(0.9892 -0.1469 0.1469 0.9892 -72.2624 100.2072)" class="st1" width="0.6" height="29.5"/>
				</g>
				<g>
					<path class="st0" d="M633.7,525.8c1.4,9.7,2.8,19.5,4.2,29.2"/>
					
						<rect x="635.5" y="525.6" transform="matrix(0.9899 -0.1419 0.1419 0.9899 -70.2435 95.6847)" class="st1" width="0.6" height="29.5"/>
				</g>
				<g>
					<path class="st0" d="M627.2,526.7c1.3,9.7,2.7,19.5,4,29.2"/>
					
						<rect x="628.9" y="526.5" transform="matrix(0.9906 -0.1369 0.1369 0.9906 -68.1736 91.2222)" class="st1" width="0.6" height="29.5"/>
				</g>
				<g>
					<path class="st0" d="M620.6,527.6c1.3,9.7,2.6,19.5,3.9,29.2"/>
					
						<rect x="622.3" y="527.4" transform="matrix(0.9913 -0.1319 0.1319 0.9913 -66.0755 86.8545)" class="st1" width="0.6" height="29.5"/>
				</g>
			</g>
			<g>
				<g>
					<path class="st0" d="M614.1,528.4c3.6,28.4,7.3,56.9,10.9,85.3c-23.2,2.9-46.5,5.3-69.9,7c-2.2-28.5-4.4-57.1-6.6-85.6
						C570.4,533.5,592.3,531.2,614.1,528.4z"/>
					<path class="st1" d="M554.8,621.1l0-0.3l-6.6-85.9l0.3,0c21.8-1.7,43.8-3.9,65.5-6.7l0.3,0l11,85.9l-0.3,0
						c-23.1,2.9-46.6,5.3-69.9,7L554.8,621.1z M548.9,535.4l6.5,85c23-1.7,46.3-4.1,69.3-7l-10.8-84.7
						C592.3,531.5,570.5,533.7,548.9,535.4z"/>
				</g>
				<g>
					<path class="st0" d="M607.5,529.2c1.2,9.7,2.4,19.5,3.6,29.2"/>
					
						<rect x="609" y="529.1" transform="matrix(0.9925 -0.1219 0.1219 0.9925 -61.7532 78.3331)" class="st1" width="0.6" height="29.5"/>
				</g>
				<g>
					<path class="st0" d="M601,530c1.1,9.8,2.3,19.5,3.4,29.3"/>
					
						<rect x="602.4" y="529.9" transform="matrix(0.9931 -0.1169 0.1169 0.9931 -59.5315 74.1814)" class="st1" width="0.6" height="29.5"/>
				</g>
				<g>
					<path class="st0" d="M594.4,530.8c1.1,9.8,2.2,19.5,3.3,29.3"/>
					
						<rect x="595.8" y="530.7" transform="matrix(0.9937 -0.1119 0.1119 0.9937 -57.2845 70.1218)" class="st1" width="0.6" height="29.5"/>
				</g>
				<g>
					<path class="st0" d="M587.9,531.5c1,9.8,2.1,19.5,3.1,29.3"/>
					
						<rect x="589.2" y="531.4" transform="matrix(0.9943 -0.1069 0.1069 0.9943 -54.9821 66.1119)" class="st1" width="0.6" height="29.4"/>
				</g>
				<g>
					<path class="st0" d="M581.3,532.2c1.4,13.4,2.7,26.8,4.1,40.3"/>
					
						<rect x="583.1" y="532.1" transform="matrix(0.9948 -0.1018 0.1018 0.9948 -53.2125 62.2805)" class="st1" width="0.6" height="40.5"/>
				</g>
				<g>
					<path class="st0" d="M574.8,532.8c1,9.8,1.9,19.5,2.9,29.3"/>
					
						<rect x="575.9" y="532.8" transform="matrix(0.9953 -9.681360e-02 9.681360e-02 0.9953 -50.2988 58.3564)" class="st1" width="0.6" height="29.4"/>
				</g>
				<g>
					<path class="st0" d="M568.2,533.5c0.9,9.8,1.8,19.5,2.7,29.3"/>
					
						<rect x="569.3" y="533.4" transform="matrix(0.9958 -9.180910e-02 9.180910e-02 0.9958 -47.9175 54.6069)" class="st1" width="0.6" height="29.4"/>
				</g>
				<g>
					<path class="st0" d="M561.7,534.1c0.9,9.8,1.7,19.5,2.6,29.3"/>
					
						<rect x="562.6" y="534" transform="matrix(0.9962 -8.678962e-02 8.678962e-02 0.9962 -45.4989 50.9276)" class="st1" width="0.6" height="29.4"/>
				</g>
				<g>
					<path class="st0" d="M555.1,534.6c0.8,9.8,1.6,19.6,2.4,29.3"/>
					
						<rect x="556" y="534.6" transform="matrix(0.9967 -8.176260e-02 8.176260e-02 0.9967 -43.0477 47.3236)" class="st1" width="0.6" height="29.4"/>
				</g>
			</g>
			<g>
				<g>
					<path class="st0" d="M548.5,535.1c2.2,28.5,4.4,57.1,6.6,85.6c-23.3,1.7-46.7,2.9-70.1,3.5c-0.8-28.6-1.5-57.1-2.3-85.7
						C504.7,537.9,526.6,536.8,548.5,535.1z"/>
					<path class="st1" d="M484.8,624.6l0-0.3l-2.3-86l0.3,0c21.8-0.6,43.9-1.7,65.7-3.4l0.3,0l0.5,6.4l6.1,79.8l-0.3,0
						c-23.2,1.7-46.8,2.9-70.1,3.5L484.8,624.6z M483.1,538.8l2.2,85.1c23.1-0.6,46.4-1.7,69.4-3.4l-6.5-85
						C526.7,537.1,504.7,538.2,483.1,538.8z"/>
				</g>
				<g>
					<path class="st0" d="M542,535.6c0.7,9.8,1.4,19.6,2.1,29.3"/>
					
						<rect x="542.7" y="535.6" transform="matrix(0.9974 -7.168921e-02 7.168921e-02 0.9974 -38.0529 40.3445)" class="st1" width="0.6" height="29.4"/>
				</g>
				<g>
					<path class="st0" d="M535.4,536.1c0.7,9.8,1.3,19.6,2,29.3"/>
					
						<rect x="536.1" y="536" transform="matrix(0.9978 -6.663933e-02 6.663933e-02 0.9978 -35.5094 36.968)" class="st1" width="0.6" height="29.4"/>
				</g>
				<g>
					<path class="st0" d="M528.8,536.5c0.6,9.8,1.2,19.6,1.8,29.4"/>
					
						<rect x="529.4" y="536.5" transform="matrix(0.9981 -6.160627e-02 6.160627e-02 0.9981 -32.9497 33.6817)" class="st1" width="0.6" height="29.4"/>
				</g>
				<g>
					<path class="st0" d="M522.3,536.9c0.6,9.8,1.1,19.6,1.7,29.4"/>
					
						<rect x="522.8" y="536.9" transform="matrix(0.9984 -5.657243e-02 5.657243e-02 0.9984 -30.3657 30.4755)" class="st1" width="0.6" height="29.4"/>
				</g>
				<g>
					<path class="st0" d="M515.7,537.2c0.7,13.5,1.4,26.9,2.1,40.4"/>
					
						<rect x="516.4" y="537.2" transform="matrix(0.9987 -5.153810e-02 5.153810e-02 0.9987 -28.0418 27.3716)" class="st1" width="0.6" height="40.4"/>
				</g>
				<g>
					<path class="st0" d="M509.1,537.6c0.5,9.8,0.9,19.6,1.4,29.4"/>
					
						<rect x="509.5" y="537.5" transform="matrix(0.9989 -4.650445e-02 4.650445e-02 0.9989 -25.1304 24.3048)" class="st1" width="0.6" height="29.4"/>
				</g>
				<g>
					<path class="st0" d="M502.5,537.9c0.4,9.8,0.8,19.6,1.2,29.4"/>
					
						<rect x="502.8" y="537.8" transform="matrix(0.9991 -4.144671e-02 4.144671e-02 0.9991 -22.4685 21.3281)" class="st1" width="0.6" height="29.4"/>
				</g>
				<g>
					<path class="st0" d="M495.9,538.1c0.4,9.8,0.7,19.6,1.1,29.4"/>
					
						<rect x="496.2" y="538.1" transform="matrix(0.9993 -3.640592e-02 3.640592e-02 0.9993 -19.7958 18.4414)" class="st1" width="0.6" height="29.4"/>
				</g>
				<g>
					<path class="st0" d="M489.4,538.3c0.3,9.8,0.6,19.6,0.9,29.4"/>
					
						<rect x="489.5" y="538.3" transform="matrix(0.9995 -3.138549e-02 3.138549e-02 0.9995 -17.1153 15.6461)" class="st1" width="0.6" height="29.4"/>
				</g>
			</g>
			<g>
				<g>
					<path class="st0" d="M482.8,538.5c0.8,28.6,1.5,57.1,2.3,85.7c-23.4,0.6-46.8,0.5-70.1-0.1c0.7-28.5,1.4-57.1,2.1-85.6
						C438.9,539.1,460.9,539.1,482.8,538.5z"/>
					<path class="st1" d="M451.3,625c-12.1,0-24.3-0.2-36.4-0.5l-0.3,0l0.1-4.2l2-82l0.3,0c21.8,0.5,44,0.5,65.8-0.1l0.3,0l0,0.3
						l2.3,86l-0.3,0C473.8,624.8,462.6,625,451.3,625z M415.2,623.9c23.1,0.6,46.4,0.6,69.5,0.1l-2.2-85.1
						c-21.6,0.6-43.6,0.6-65.2,0.1L415.2,623.9z"/>
				</g>
				<g>
					<path class="st0" d="M476.2,538.7c0.2,9.8,0.4,19.6,0.6,29.4"/>
					
						<rect x="476.2" y="538.7" transform="matrix(0.9998 -2.128084e-02 2.128084e-02 0.9998 -11.668 10.2662)" class="st1" width="0.6" height="29.4"/>
				</g>
				<g>
					<path class="st0" d="M469.6,538.8c0.2,9.8,0.3,19.6,0.5,29.4"/>
					
						<rect x="469.6" y="538.8" transform="matrix(0.9999 -1.623493e-02 1.623493e-02 0.9999 -8.9238 7.7013)" class="st1" width="0.6" height="29.4"/>
				</g>
				<g>
					<path class="st0" d="M463.1,538.9c0.1,9.8,0.2,19.6,0.3,29.4"/>
					
						<rect x="462.9" y="538.9" transform="matrix(0.9999 -1.119134e-02 1.119134e-02 0.9999 -6.1662 5.2187)" class="st1" width="0.6" height="29.4"/>
				</g>
				<g>
					<path class="st0" d="M456.5,538.9c0.1,9.8,0.1,19.6,0.2,29.4"/>
					
						<rect x="456.3" y="538.9" transform="matrix(1 -6.140775e-03 6.140775e-03 1 -3.3911 2.8141)" class="st1" width="0.6" height="29.4"/>
				</g>
				<g>
					<path class="st0" d="M449.9,539c0,13.5,0,26.9,0,40.4"/>
					
						<rect x="449.6" y="539" transform="matrix(1 -1.095636e-03 1.095636e-03 1 -0.6123 0.4933)" class="st1" width="0.6" height="40.4"/>
				</g>
				<g>
					<path class="st0" d="M443.3,539c0,9.8-0.1,19.6-0.1,29.4"/>
					
						<rect x="428.6" y="553.3" transform="matrix(3.899970e-03 -1 1 3.899970e-03 -112.1076 994.7183)" class="st1" width="29.3" height="0.6"/>
				</g>
				<g>
					<path class="st0" d="M436.7,538.9c-0.1,9.8-0.2,19.6-0.3,29.3"/>
					
						<rect x="421.9" y="553.3" transform="matrix(9.799530e-03 -1 1 9.799530e-03 -121.2441 984.7333)" class="st1" width="29.3" height="0.6"/>
				</g>
				<g>
					<path class="st0" d="M430.1,538.8c-0.1,9.8-0.3,19.6-0.4,29.3"/>
					
						<rect x="415.3" y="553.2" transform="matrix(1.369871e-02 -0.9999 0.9999 1.369871e-02 -129.4052 975.8217)" class="st1" width="29.3" height="0.6"/>
				</g>
				<g>
					<path class="st0" d="M423.6,538.7c-0.2,9.8-0.4,19.6-0.6,29.3"/>
					
						<rect x="408.6" y="553.1" transform="matrix(1.959624e-02 -0.9998 0.9998 1.959624e-02 -138.2976 965.7505)" class="st1" width="29.3" height="0.6"/>
				</g>
			</g>
			<g>
				<g>
					<path class="st0" d="M417,538.6c-0.7,28.5-1.4,57.1-2.1,85.6c-23.4-0.6-46.7-1.8-70.1-3.6c2.1-28.4,4.3-56.8,6.4-85.2
						C373.1,537,395.1,538.1,417,538.6z"/>
					<path class="st1" d="M415.2,624.5l-0.3,0c-23.3-0.6-46.9-1.8-70.1-3.6l-0.3,0L351,535l0.3,0c21.8,1.6,43.9,2.7,65.7,3.3l0.3,0
						l0,0.3L415.2,624.5z M345.2,620.3c23,1.8,46.4,3,69.4,3.6l2.1-85c-21.6-0.5-43.6-1.6-65.2-3.2L345.2,620.3z"/>
				</g>
				<g>
					<path class="st0" d="M410.4,538.4c-0.3,9.8-0.6,19.5-0.9,29.3"/>
					
						<rect x="395.3" y="552.8" transform="matrix(2.928743e-02 -0.9996 0.9996 2.928743e-02 -154.8592 946.6669)" class="st1" width="29.3" height="0.6"/>
				</g>
				<g>
					<path class="st0" d="M403.8,538.2c-0.3,9.8-0.7,19.5-1,29.3"/>
					
						<rect x="388.7" y="552.5" transform="matrix(3.520986e-02 -0.9994 0.9994 3.520986e-02 -163.386 936.4575)" class="st1" width="29.3" height="0.6"/>
				</g>
				<g>
					<path class="st0" d="M397.2,538c-0.4,9.8-0.8,19.5-1.2,29.3"/>
					
						<rect x="382" y="552.3" transform="matrix(3.900613e-02 -0.9992 0.9992 3.900613e-02 -170.9843 927.417)" class="st1" width="29.3" height="0.6"/>
				</g>
				<g>
					<path class="st0" d="M390.7,537.7c-0.4,9.8-0.9,19.5-1.3,29.3"/>
					
						<rect x="375.4" y="552" transform="matrix(4.489962e-02 -0.999 0.999 4.489962e-02 -179.2565 917.1485)" class="st1" width="29.3" height="0.6"/>
				</g>
				<g>
					<path class="st0" d="M384.1,537.4c-0.7,13.4-1.3,26.8-2,40.2"/>
					
						<rect x="363" y="557.2" transform="matrix(4.879067e-02 -0.9988 0.9988 4.879067e-02 -192.4185 912.9316)" class="st1" width="40.3" height="0.6"/>
				</g>
				<g>
					<path class="st0" d="M377.5,537c-0.5,9.8-1.1,19.5-1.6,29.3"/>
					
						<rect x="362.1" y="551.4" transform="matrix(5.472748e-02 -0.9985 0.9985 5.472748e-02 -194.7268 897.6234)" class="st1" width="29.3" height="0.6"/>
				</g>
				<g>
					<path class="st0" d="M370.9,536.7c-0.6,9.7-1.2,19.5-1.7,29.2"/>
					
						<rect x="355.4" y="551" transform="matrix(5.861062e-02 -0.9983 0.9983 5.861062e-02 -201.9445 888.4028)" class="st1" width="29.3" height="0.6"/>
				</g>
				<g>
					<path class="st0" d="M364.4,536.2c-0.6,9.7-1.3,19.5-1.9,29.2"/>
					
						<rect x="348.8" y="550.6" transform="matrix(6.439513e-02 -0.9979 0.9979 6.439513e-02 -209.6913 878.0609)" class="st1" width="29.3" height="0.6"/>
				</g>
				<g>
					<path class="st0" d="M357.8,535.8c-0.7,9.7-1.4,19.5-2,29.2"/>
					
						<rect x="342.1" y="550.1" transform="matrix(7.026677e-02 -0.9975 0.9975 7.026677e-02 -217.3359 867.6367)" class="st1" width="29.3" height="0.6"/>
				</g>
			</g>
			<g>
				<g>
					<path class="st0" d="M351.2,535.3c-2.1,28.4-4.3,56.8-6.4,85.2c-23.3-1.8-46.6-4.2-69.9-7.1c3.6-28.2,7.1-56.5,10.7-84.7
						C307.5,531.5,329.3,533.7,351.2,535.3z"/>
					<path class="st1" d="M345.1,620.9l-0.3,0c-23.2-1.8-46.8-4.2-69.9-7.1l-0.3,0l10.7-85.3l0.3,0c21.7,2.7,43.7,4.9,65.5,6.6
						l0.3,0l0,0.3L345.1,620.9z M275.3,613.2c22.9,2.9,46.2,5.3,69.2,7.1l6.3-84.6c-21.6-1.6-43.5-3.8-65-6.5L275.3,613.2z"/>
				</g>
				<g>
					<path class="st0" d="M344.7,534.8c-0.8,9.7-1.6,19.5-2.3,29.2"/>
					
						<rect x="328.9" y="549.1" transform="matrix(8.007500e-02 -0.9968 0.9968 8.007500e-02 -231.651 847.8148)" class="st1" width="29.3" height="0.6"/>
				</g>
				<g>
					<path class="st0" d="M338.1,534.3c-0.8,9.7-1.7,19.4-2.5,29.2"/>
					
						<rect x="322.2" y="548.6" transform="matrix(8.402933e-02 -0.9965 0.9965 8.402933e-02 -238.3624 838.4116)" class="st1" width="29.3" height="0.6"/>
				</g>
				<g>
					<path class="st0" d="M331.5,533.7c-0.9,9.7-1.8,19.4-2.6,29.2"/>
					
						<rect x="315.6" y="548" transform="matrix(8.988664e-02 -0.996 0.996 8.988664e-02 -245.5133 827.8836)" class="st1" width="29.3" height="0.6"/>
				</g>
				<g>
					<path class="st0" d="M325,533.1c-0.9,9.7-1.9,19.4-2.8,29.1"/>
					
						<rect x="309" y="547.4" transform="matrix(9.572957e-02 -0.9954 0.9954 9.572957e-02 -252.5285 817.3385)" class="st1" width="29.3" height="0.6"/>
				</g>
				<g>
					<path class="st0" d="M318.4,532.4c-1.3,13.3-2.7,26.7-4,40"/>
					
						<rect x="296.3" y="552.2" transform="matrix(9.969182e-02 -0.995 0.995 9.969182e-02 -264.8397 812.2236)" class="st1" width="40.2" height="0.6"/>
				</g>
				<g>
					<path class="st0" d="M311.9,531.8c-1,9.7-2,19.4-3.1,29.1"/>
					
						<rect x="295.7" y="546" transform="matrix(0.1055 -0.9944 0.9944 0.1055 -265.6911 797.2667)" class="st1" width="29.3" height="0.6"/>
				</g>
				<g>
					<path class="st0" d="M305.3,531.1c-1.1,9.7-2.1,19.4-3.2,29.1"/>
					
						<rect x="289.1" y="545.3" transform="matrix(0.1094 -0.994 0.994 0.1094 -271.8441 787.8118)" class="st1" width="29.3" height="0.6"/>
				</g>
				<g>
					<path class="st0" d="M298.8,530.3c-1.1,9.7-2.2,19.4-3.4,29.1"/>
					
						<rect x="282.5" y="544.5" transform="matrix(0.1152 -0.9933 0.9933 0.1152 -278.3709 777.1815)" class="st1" width="29.3" height="0.6"/>
				</g>
				<g>
					<path class="st0" d="M292.2,529.6c-1.2,9.7-2.3,19.4-3.5,29"/>
					
						<rect x="275.8" y="543.8" transform="matrix(0.1191 -0.9929 0.9929 0.1191 -284.3188 767.6857)" class="st1" width="29.2" height="0.6"/>
				</g>
			</g>
			<g>
				<g>
					<path class="st0" d="M285.7,528.7c-3.6,28.2-7.1,56.5-10.7,84.7c-23.2-3-46.4-6.5-69.5-10.7c5-28,10-55.9,14.9-83.9
						C242.1,522.7,263.9,526,285.7,528.7z"/>
					<path class="st1" d="M275.3,613.8l-0.3,0c-23.2-3-46.5-6.6-69.5-10.7l-0.3-0.1l15-84.5l0.3,0.1c21.6,3.8,43.5,7.2,65.2,9.9
						l0.3,0L275.3,613.8z M205.8,602.5c22.8,4.1,45.9,7.7,68.9,10.6l10.6-84.1c-21.5-2.7-43.3-6-64.7-9.8L205.8,602.5z"/>
				</g>
				<g>
					<path class="st0" d="M279.1,527.9c-1.3,9.7-2.5,19.3-3.8,29"/>
					
						<rect x="262.6" y="542.1" transform="matrix(0.1309 -0.9914 0.9914 0.1309 -296.7931 746.2269)" class="st1" width="29.2" height="0.6"/>
				</g>
				<g>
					<path class="st0" d="M272.6,527c-1.3,9.7-2.6,19.3-3.9,29"/>
					
						<rect x="256" y="541.2" transform="matrix(0.1347 -0.9909 0.9909 0.1347 -302.3989 736.7468)" class="st1" width="29.2" height="0.6"/>
				</g>
				<g>
					<path class="st0" d="M266.1,526.1c-1.4,9.6-2.7,19.3-4.1,28.9"/>
					
						<rect x="249.4" y="540.3" transform="matrix(0.1406 -0.9901 0.9901 0.1406 -308.3244 725.9832)" class="st1" width="29.2" height="0.6"/>
				</g>
				<g>
					<path class="st0" d="M259.5,525.2c-1.4,9.6-2.8,19.3-4.2,28.9"/>
					
						<rect x="242.8" y="539.3" transform="matrix(0.1445 -0.9895 0.9895 0.1445 -313.7655 716.3487)" class="st1" width="29.2" height="0.6"/>
				</g>
				<g>
					<path class="st0" d="M253,524.2c-2,13.2-4,26.5-6,39.7"/>
					
						<rect x="229.9" y="543.8" transform="matrix(0.1504 -0.9886 0.9886 0.1504 -325.475 709.4049)" class="st1" width="40.2" height="0.6"/>
				</g>
				<g>
					<path class="st0" d="M246.5,523.2c-1.5,9.6-3,19.2-4.5,28.9"/>
					
						<rect x="229.6" y="537.3" transform="matrix(0.1543 -0.988 0.988 0.1543 -324.6533 695.9836)" class="st1" width="29.2" height="0.6"/>
				</g>
				<g>
					<path class="st0" d="M240,522.2c-1.6,9.6-3.1,19.2-4.7,28.8"/>
					
						<rect x="223" y="536.3" transform="matrix(0.1602 -0.9871 0.9871 0.1602 -330.0864 685.1851)" class="st1" width="29.2" height="0.6"/>
				</g>
				<g>
					<path class="st0" d="M233.4,521.1c-1.6,9.6-3.2,19.2-4.8,28.8"/>
					
						<rect x="216.4" y="535.2" transform="matrix(0.166 -0.9861 0.9861 0.166 -335.3729 674.4377)" class="st1" width="29.2" height="0.6"/>
				</g>
				<g>
					<path class="st0" d="M226.9,520c-1.7,9.6-3.3,19.2-5,28.8"/>
					
						<rect x="209.8" y="534.1" transform="matrix(0.1699 -0.9855 0.9855 0.1699 -340.2835 664.7553)" class="st1" width="29.2" height="0.6"/>
				</g>
			</g>
			<g>
				<g>
					<path class="st0" d="M220.4,518.8c-5,28-10,55.9-14.9,83.9c-23.1-4.2-46.1-8.9-69-14.2c6.4-27.6,12.8-55.3,19.2-82.9
						C177.1,510.6,198.7,515,220.4,518.8z"/>
					<path class="st1" d="M205.7,603.1l-0.3-0.1c-23-4.1-46.3-8.9-69-14.2l-0.3-0.1l19.3-83.5l0.3,0.1c21.4,4.9,43.2,9.4,64.8,13.2
						l0.3,0.1L205.7,603.1z M136.8,588.3c22.6,5.2,45.6,10,68.4,14.1l14.8-83.3c-21.4-3.8-43-8.2-64.2-13.1L136.8,588.3z"/>
				</g>
				<g>
					<path class="st0" d="M213.9,517.7c-1.8,9.6-3.5,19.1-5.3,28.7"/>
					
						<rect x="196.7" y="531.7" transform="matrix(0.1797 -0.9837 0.9837 0.1797 -350.033 644.2924)" class="st1" width="29.2" height="0.6"/>
				</g>
				<g>
					<path class="st0" d="M207.4,516.5c-1.8,9.6-3.6,19.1-5.4,28.7"/>
					
						<rect x="190.1" y="530.5" transform="matrix(0.1855 -0.9826 0.9826 0.1855 -354.845 633.4786)" class="st1" width="29.2" height="0.6"/>
				</g>
				<g>
					<path class="st0" d="M200.9,515.2c-1.9,9.6-3.7,19.1-5.6,28.7"/>
					
						<rect x="183.6" y="529.2" transform="matrix(0.1895 -0.9819 0.9819 0.1895 -359.3419 623.7637)" class="st1" width="29.2" height="0.6"/>
				</g>
				<g>
					<path class="st0" d="M194.4,513.9c-1.9,9.5-3.8,19.1-5.7,28.6"/>
					
						<rect x="177" y="527.9" transform="matrix(0.1954 -0.9807 0.9807 0.1954 -363.9102 612.9535)" class="st1" width="29.2" height="0.6"/>
				</g>
				<g>
					<path class="st0" d="M188,512.6c-2.7,13.1-5.4,26.2-8,39.3"/>
					
						<rect x="163.9" y="532" transform="matrix(0.2012 -0.9795 0.9795 0.2012 -374.4645 605.3657)" class="st1" width="40.1" height="0.6"/>
				</g>
				<g>
					<path class="st0" d="M181.5,511.3c-2,9.5-4,19-6,28.5"/>
					
						<rect x="163.9" y="525.3" transform="matrix(0.2051 -0.9787 0.9787 0.2051 -372.5234 592.4448)" class="st1" width="29.2" height="0.6"/>
				</g>
				<g>
					<path class="st0" d="M175,509.9c-2,9.5-4.1,19-6.1,28.5"/>
					
						<rect x="157.4" y="523.9" transform="matrix(0.211 -0.9775 0.9775 0.211 -376.719 581.6546)" class="st1" width="29.2" height="0.6"/>
				</g>
				<g>
					<path class="st0" d="M168.5,508.5c-2.1,9.5-4.2,19-6.3,28.5"/>
					
						<rect x="150.8" y="522.5" transform="matrix(0.2148 -0.9767 0.9767 0.2148 -380.6847 571.9934)" class="st1" width="29.2" height="0.6"/>
				</g>
				<g>
					<path class="st0" d="M162.1,507.1c-2.1,9.5-4.3,19-6.4,28.4"/>
					
						<rect x="144.3" y="521" transform="matrix(0.2207 -0.9753 0.9753 0.2207 -384.6404 561.2196)" class="st1" width="29.2" height="0.6"/>
				</g>
			</g>
			<g>
				<g>
					<path class="st0" d="M155.6,505.6c-6.4,27.6-12.8,55.3-19.2,82.9c-22.9-5.3-45.7-11.3-68.4-17.8c7.8-27.2,15.6-54.5,23.3-81.7
						C112.7,495.1,134.1,500.6,155.6,505.6z"/>
					<path class="st1" d="M136.7,588.9l-0.3-0.1c-22.9-5.3-45.9-11.3-68.4-17.8l-0.3-0.1l23.5-82.3l0.3,0.1
						c21.2,6,42.8,11.6,64.2,16.5l0.3,0.1l-0.1,0.3L136.7,588.9z M68.4,570.5c22.4,6.4,45.2,12.3,67.8,17.6l19-82.3
						c-21.3-4.9-42.7-10.4-63.7-16.4L68.4,570.5z"/>
				</g>
				<g>
					<path class="st0" d="M149.2,504.1c-2.2,9.5-4.5,18.9-6.7,28.4"/>
					
						<rect x="131.2" y="518" transform="matrix(0.2304 -0.9731 0.9731 0.2304 -392.1213 540.7876)" class="st1" width="29.1" height="0.6"/>
				</g>
				<g>
					<path class="st0" d="M142.7,502.6c-2.3,9.4-4.6,18.9-6.9,28.3"/>
					
						<rect x="124.7" y="516.4" transform="matrix(0.2345 -0.9721 0.9721 0.2345 -395.6865 530.9686)" class="st1" width="29.1" height="0.6"/>
				</g>
				<g>
					<path class="st0" d="M136.3,501c-2.3,9.4-4.7,18.9-7,28.3"/>
					
						<rect x="118.2" y="514.8" transform="matrix(0.2402 -0.9707 0.9707 0.2402 -399.1627 520.2961)" class="st1" width="29.1" height="0.6"/>
				</g>
				<g>
					<path class="st0" d="M122.7,527.6c2.4-9.4,4.8-18.8,7.1-28.2"/>
					
						<rect x="111.7" y="513.2" transform="matrix(0.2442 -0.9697 0.9697 0.2442 -402.5196 510.5661)" class="st1" width="29.1" height="0.6"/>
				</g>
				<g>
					<path class="st0" d="M123.4,497.7c-3.3,12.9-6.7,25.8-10,38.8"/>
					
						<rect x="98.4" y="516.8" transform="matrix(0.2501 -0.9682 0.9682 0.2501 -411.8962 502.4501)" class="st1" width="40" height="0.6"/>
				</g>
				<g>
					<path class="st0" d="M117,496.1c-2.5,9.4-5,18.8-7.4,28.2"/>
					
						<rect x="98.7" y="509.9" transform="matrix(0.2559 -0.9667 0.9667 0.2559 -408.8726 489.1396)" class="st1" width="29.1" height="0.6"/>
				</g>
				<g>
					<path class="st0" d="M110.6,494.4c-2.5,9.4-5,18.7-7.6,28.1"/>
					
						<rect x="92.2" y="508.1" transform="matrix(0.2598 -0.9657 0.9657 0.2598 -411.9177 479.4966)" class="st1" width="29.1" height="0.6"/>
				</g>
				<g>
					<path class="st0" d="M104.2,492.6c-2.6,9.4-5.1,18.7-7.7,28.1"/>
					
						<rect x="85.8" y="506.4" transform="matrix(0.2656 -0.9641 0.9641 0.2656 -414.793 468.7966)" class="st1" width="29.1" height="0.6"/>
				</g>
				<g>
					<path class="st0" d="M97.8,490.9c-2.6,9.3-5.2,18.7-7.9,28"/>
					
						<rect x="79.3" y="504.6" transform="matrix(0.2695 -0.963 0.963 0.2695 -417.6367 459.1797)" class="st1" width="29.1" height="0.6"/>
				</g>
			</g>
			<g>
				<g>
					<path class="st0" d="M91.4,489.1c-7.8,27.2-15.6,54.5-23.3,81.7c-22.7-6.5-45.2-13.6-67.7-21.3c9.2-26.8,18.3-53.5,27.5-80.3
						C48.9,476.4,70.1,483,91.4,489.1z"/>
					<path class="st1" d="M68.3,571.1L68,571c-22.6-6.5-45.4-13.7-67.7-21.3L0,549.6l27.7-80.8l0.3,0.1
						c20.9,7.1,42.3,13.8,63.5,19.9l0.3,0.1l-0.1,0.3L68.3,571.1z M0.8,549.3c22.1,7.6,44.6,14.7,67.1,21.1L91,489.3
						c-21.1-6-42.2-12.6-63-19.7L0.8,549.3z"/>
				</g>
				<g>
					<path class="st0" d="M85,487.2c-2.7,9.3-5.4,18.6-8.1,27.9"/>
					
						<rect x="66.4" y="500.9" transform="matrix(0.2794 -0.9602 0.9602 0.2794 -422.9153 438.8872)" class="st1" width="29.1" height="0.6"/>
				</g>
				<g>
					<path class="st0" d="M78.6,485.3c-2.8,9.3-5.5,18.6-8.3,27.9"/>
					
						<rect x="59.9" y="499" transform="matrix(0.2851 -0.9585 0.9585 0.2851 -425.3329 428.357)" class="st1" width="29.1" height="0.6"/>
				</g>
				<g>
					<path class="st0" d="M72.2,483.4c-2.8,9.3-5.6,18.6-8.4,27.8"/>
					
						<rect x="53.5" y="497.1" transform="matrix(0.2892 -0.9573 0.9573 0.2892 -427.7595 418.679)" class="st1" width="29.1" height="0.6"/>
				</g>
				<g>
					<path class="st0" d="M65.9,481.5c-2.9,9.3-5.7,18.5-8.6,27.8"/>
					
						<rect x="47.1" y="495.1" transform="matrix(0.2949 -0.9555 0.9555 0.2949 -429.9454 408.1903)" class="st1" width="29.1" height="0.6"/>
				</g>
				<g>
					<path class="st0" d="M59.5,479.5c-4,12.7-8,25.4-12,38.1"/>
					
						<rect x="33.5" y="498.3" transform="matrix(0.2989 -0.9543 0.9543 0.2989 -438.2822 400.685)" class="st1" width="40" height="0.6"/>
				</g>
				<g>
					<path class="st0" d="M53.2,477.5c-2.9,9.2-5.9,18.5-8.8,27.7"/>
					
						<rect x="34.2" y="491.1" transform="matrix(0.3048 -0.9524 0.9524 0.3048 -434.1107 388.0356)" class="st1" width="29.1" height="0.6"/>
				</g>
				<g>
					<path class="st0" d="M46.8,475.5c-3,9.2-6,18.4-9,27.7"/>
					
						<rect x="27.8" y="489" transform="matrix(0.3086 -0.9512 0.9512 0.3086 -436.1634 378.5699)" class="st1" width="29.1" height="0.6"/>
				</g>
				<g>
					<path class="st0" d="M40.5,473.4c-3,9.2-6.1,18.4-9.1,27.6"/>
					
						<rect x="21.4" y="486.9" transform="matrix(0.3145 -0.9493 0.9493 0.3145 -437.8687 368.0888)" class="st1" width="29.1" height="0.6"/>
				</g>
				<g>
					<path class="st0" d="M34.2,471.3c-3.1,9.2-6.2,18.4-9.3,27.5"/>
					
						<rect x="15" y="484.8" transform="matrix(0.3183 -0.948 0.948 0.3183 -439.7284 358.6705)" class="st1" width="29.1" height="0.6"/>
				</g>
			</g>
		</g>
		<g>
			<g>
				<g>
					<path d="M33.2,528.2C33.2,528.2,33.2,528.2,33.2,528.2c-1.6,0.2-3.2,0.4-4.7,0.7c0-0.8,0.1-1.6,0.1-2.4
						c1.9-0.3,3.9-0.6,5.8-0.9c0.9,0.3,1.8,0.6,2.7,0.9c-2.3,7.1-4.6,14.3-6.8,21.4c-1-0.3-2-0.7-3.1-1
						C29.2,540.7,31.2,534.5,33.2,528.2z"/>
				</g>
				<g>
					<path d="M38.8,550.6c0.2-0.6,0.4-1.2,0.6-1.8c1.1-0.5,2.1-1,3.2-1.4c7.6-3.4,11.1-5.3,12.1-8.6c0.7-2.2,0.1-4.5-3.3-5.6
						c-2.1-0.6-4.1-0.2-5.5,0.3c-0.1-0.8-0.2-1.6-0.4-2.4c2-0.8,4.5-1,7.2-0.2c5,1.5,6.1,5.3,5.2,8.4c-1.2,4-5.3,6.3-11.5,9.1
						c-0.8,0.3-1.6,0.7-2.4,1c0,0,0,0,0,0.1c3.5,1.1,7,2.2,10.5,3.2c-0.2,0.8-0.5,1.6-0.7,2.4C48.8,553.7,43.8,552.2,38.8,550.6z"/>
				</g>
			</g>
			<g>
				<g>
					<path d="M99.6,547.8C99.6,547.8,99.6,547.8,99.6,547.8c-1.6,0.3-3.1,0.6-4.7,0.9c0-0.8,0-1.6,0-2.4c1.9-0.4,3.9-0.8,5.8-1.2
						c0.9,0.2,1.8,0.5,2.7,0.7c-1.9,7.2-3.8,14.5-5.7,21.7c-1-0.3-2.1-0.5-3.1-0.8C96.3,560.5,97.9,554.1,99.6,547.8z"/>
				</g>
				<g>
					<path d="M107.9,566.7c0.8,0.8,2.7,2.2,4.9,2.7c4.1,1,6-1.1,6.4-2.9c0.7-3.1-1.9-5.1-5-5.9c-0.6-0.2-1.2-0.3-1.8-0.5
						c0.2-0.7,0.4-1.5,0.6-2.2c0.6,0.2,1.2,0.3,1.8,0.5c2.3,0.6,5.5,0.2,6.2-2.4c0.4-1.7-0.4-3.6-3.3-4.3c-1.9-0.5-3.9-0.2-5,0.3
						c-0.1-0.8-0.2-1.6-0.3-2.4c1.4-0.5,4-0.8,6.5-0.1c4.6,1.2,6.1,4.2,5.4,6.9c-0.6,2.3-2.5,3.8-5.6,4.1c0,0,0,0,0,0.1
						c2.8,1.3,4.6,3.9,3.9,6.9c-0.9,3.5-4.6,5.8-10.3,4.4c-2.7-0.7-4.8-2-5.8-3.1C107,568.1,107.4,567.4,107.9,566.7z"/>
				</g>
			</g>
			<g>
				<g>
					<path d="M166.7,563.9C166.7,563.9,166.6,563.9,166.7,563.9c-1.6,0.4-3.1,0.8-4.6,1.2c0-0.8-0.1-1.6-0.1-2.4
						c1.9-0.5,3.8-1,5.7-1.5c0.9,0.2,1.8,0.4,2.7,0.6c-1.5,7.3-3.1,14.7-4.6,22c-1-0.2-2.1-0.4-3.1-0.7
						C164,576.8,165.3,570.3,166.7,563.9z"/>
				</g>
				<g>
					<path d="M184.5,587.7c0.4-2,0.8-4,1.2-6c-3.7-0.7-7.4-1.5-11.1-2.2c0.1-0.7,0.3-1.3,0.4-2c4.5-4,9-8,13.4-12
						c1.1,0.2,2.3,0.5,3.4,0.7c-0.9,4.6-1.8,9.2-2.7,13.8c1.1,0.2,2.2,0.4,3.3,0.6c-0.1,0.8-0.3,1.6-0.4,2.3
						c-1.1-0.2-2.2-0.4-3.3-0.6c-0.4,2-0.8,4-1.2,6C186.5,588.1,185.5,587.9,184.5,587.7z M186.1,579.3c0.5-2.5,1-4.9,1.4-7.4
						c0.2-1.2,0.5-2.3,0.8-3.4c0,0-0.1,0-0.1,0c-1,1.2-1.7,2-2.6,2.9c-2.4,2.1-4.9,4.2-7.3,6.3c0,0,0,0,0,0.1
						C180.9,578.3,183.5,578.8,186.1,579.3z"/>
				</g>
			</g>
			<g>
				<g>
					<path d="M234.3,576.6C234.3,576.6,234.3,576.6,234.3,576.6c-1.6,0.5-3,0.9-4.5,1.4c-0.1-0.8-0.2-1.6-0.2-2.4
						c1.9-0.6,3.7-1.2,5.6-1.8c0.9,0.1,1.8,0.3,2.7,0.4c-1.2,7.4-2.3,14.9-3.5,22.3c-1-0.2-2.1-0.3-3.1-0.5
						C232.2,589.6,233.3,583.1,234.3,576.6z"/>
				</g>
				<g>
					<path d="M260.3,580.2c-3-0.4-6-0.9-9.1-1.3c-0.6,1.9-1.2,3.7-1.8,5.6c0.6,0,1.1,0,2,0.2c1.8,0.3,3.6,0.9,5,2
						c1.7,1.3,3,3.4,2.6,6.2c-0.6,4.4-4.8,7.1-10,6.3c-2.6-0.4-4.8-1.4-5.8-2.3c0.4-0.7,0.8-1.5,1.2-2.2c0.9,0.7,2.8,1.7,5,2
						c3.1,0.5,6-1,6.4-4c0.4-2.9-1.4-5.2-6.2-6c-1.4-0.2-2.4-0.2-3.3-0.3c1-3.5,2.1-7,3.1-10.5c3.8,0.6,7.6,1.1,11.3,1.7
						C260.5,578.5,260.4,579.4,260.3,580.2z"/>
				</g>
			</g>
			<g>
				<g>
					<path d="M302.3,585.8C302.3,585.8,302.3,585.8,302.3,585.8c-1.5,0.5-3,1.1-4.5,1.6c-0.1-0.8-0.2-1.6-0.4-2.4
						c1.8-0.7,3.7-1.4,5.5-2c0.9,0.1,1.8,0.2,2.7,0.3c-0.8,7.5-1.6,15-2.4,22.5c-1.1-0.1-2.1-0.2-3.2-0.3
						C300.9,598.9,301.6,592.3,302.3,585.8z"/>
				</g>
				<g>
					<path d="M327.8,587.6c-0.7-0.1-1.5-0.1-2.4-0.1c-5.1,0.3-8.2,3.6-9.1,7.2c0,0,0.1,0,0.1,0c1.3-1.3,3.4-2.3,6-2
						c4.2,0.4,7,3.5,6.6,7.9c-0.4,4.1-3.7,7.7-8.7,7.2c-5.2-0.5-8.2-4.6-7.6-10.4c0.4-4.4,2.5-7.7,5.1-9.7c2.2-1.6,4.9-2.5,7.9-2.6
						c1-0.1,1.8,0,2.4,0C328,586,327.9,586.8,327.8,587.6z M325.8,600.5c0.3-3.2-1.5-5.3-4.5-5.6c-2-0.2-3.9,0.8-4.9,2.3
						c-0.3,0.3-0.4,0.8-0.5,1.3c-0.3,3.7,1.3,6.6,4.7,7C323.4,605.8,325.5,603.8,325.8,600.5z"/>
				</g>
			</g>
			<g>
				<g>
					<path d="M370.7,591.5C370.6,591.5,370.6,591.5,370.7,591.5c-1.5,0.6-2.9,1.2-4.4,1.9c-0.2-0.8-0.3-1.6-0.5-2.4
						c1.8-0.8,3.6-1.5,5.4-2.3c0.9,0.1,1.8,0.1,2.8,0.2c-0.4,7.5-0.8,15.1-1.2,22.6c-1.1-0.1-2.1-0.1-3.2-0.2
						C369.9,604.7,370.3,598.1,370.7,591.5z"/>
				</g>
				<g>
					<path d="M398.2,590c0,0.7-0.1,1.3-0.1,2c-3.7,6.7-7.5,13.5-11.3,20.2c-1.1-0.1-2.3-0.1-3.4-0.2c3.8-6.5,7.6-13,11.3-19.5
						c0,0,0,0,0-0.1c-3.9-0.2-7.8-0.3-11.7-0.5c0-0.8,0.1-1.7,0.1-2.5C388.1,589.6,393.1,589.8,398.2,590z"/>
				</g>
			</g>
			<g>
				<g>
					<path d="M439.1,593.8C439.1,593.8,439.1,593.8,439.1,593.8c-1.5,0.7-2.9,1.4-4.3,2.1c-0.2-0.8-0.4-1.6-0.6-2.3
						c1.8-0.9,3.5-1.7,5.2-2.6c0.9,0,1.8,0,2.8,0c0,7.6-0.1,15.1-0.1,22.7c-1.1,0-2.1,0-3.2,0C439.1,607,439.1,600.4,439.1,593.8z"
						/>
				</g>
				<g>
					<path d="M450.7,607.9c0-2.9,1.8-4.9,4.8-6.1c0,0,0-0.1,0-0.1c-2.7-1.2-3.8-3.1-3.8-5.1c0-3.6,3.2-6,7.4-6.1c4.6,0,7,2.7,7,5.5
						c0,1.9-0.9,4-3.9,5.3c0,0,0,0.1,0,0.1c3,1.1,4.9,3.1,4.9,5.8c0.1,3.9-3.5,6.6-8.2,6.7C453.8,614.1,450.7,611.2,450.7,607.9z
						 M463.8,607.7c0-2.8-2.1-4.1-5.4-4.9c-2.8,0.8-4.3,2.5-4.3,4.7c-0.1,2.3,1.8,4.3,4.9,4.3C461.9,611.8,463.8,610,463.8,607.7z
						 M454.7,596.4c0,2.3,1.8,3.5,4.6,4.2c2.1-0.7,3.6-2.1,3.6-4.1c0-1.8-1.2-3.7-4.1-3.7C456.2,592.8,454.7,594.5,454.7,596.4z"/>
				</g>
			</g>
			<g>
				<g>
					<path d="M507.6,592.6C507.6,592.7,507.6,592.7,507.6,592.6c-1.4,0.8-2.8,1.5-4.1,2.3c-0.2-0.8-0.5-1.5-0.7-2.3
						c1.7-1,3.4-1.9,5.1-2.9c0.9,0,1.8-0.1,2.8-0.1c0.3,7.6,0.7,15.1,1,22.7c-1.1,0-2.1,0.1-3.2,0.1
						C508.2,605.9,507.9,599.3,507.6,592.6z"/>
				</g>
				<g>
					<path d="M522.3,609.6c0.7,0,1.5-0.1,2.6-0.2c1.9-0.3,3.6-1.2,4.9-2.5c1.5-1.5,2.5-3.5,2.8-6.2c0,0-0.1,0-0.1,0
						c-1.2,1.6-3.1,2.6-5.5,2.8c-4.3,0.2-7.3-2.7-7.5-6.6c-0.2-4.3,2.9-8.2,7.7-8.5c4.9-0.3,8.1,3.3,8.5,9.1c0.3,5-1.2,8.6-3.5,10.9
						c-1.8,1.8-4.3,3-6.9,3.4c-1.2,0.2-2.2,0.3-3,0.3C522.4,611.3,522.4,610.5,522.3,609.6z M522.8,596.5c0.2,2.8,2.1,4.7,4.9,4.6
						c2.2-0.1,3.8-1.2,4.6-2.6c0.2-0.3,0.3-0.6,0.2-1.1c-0.2-3.9-1.9-6.7-5.3-6.5C524.5,590.9,522.6,593.3,522.8,596.5z"/>
				</g>
			</g>
			<g>
				<g>
					<path d="M570.8,608.4c-0.1-0.6-0.1-1.3-0.2-1.9c0.8-0.9,1.6-1.7,2.4-2.6c5.7-6.1,8.1-9.3,7.8-12.7c-0.2-2.3-1.6-4.3-5.2-4
						c-2.2,0.2-3.9,1.4-4.9,2.4c-0.4-0.7-0.8-1.4-1.2-2.1c1.5-1.5,3.8-2.7,6.5-2.9c5.1-0.5,7.6,2.6,7.9,5.9
						c0.4,4.2-2.4,7.9-7.1,12.9c-0.6,0.6-1.2,1.2-1.8,1.8c0,0,0,0,0,0.1c3.6-0.3,7.2-0.7,10.9-1c0.1,0.8,0.2,1.7,0.3,2.5
						C581.1,607.5,575.9,608,570.8,608.4z"/>
				</g>
				<g>
					<path d="M604.6,593.4c0.9,7.7-1.7,12.3-7,12.9c-4.7,0.5-8.4-3.3-9.2-10.8c-0.8-7.6,2.2-12.1,7.1-12.6
						C600.5,582.3,603.8,586.2,604.6,593.4z M591.7,595.1c0.6,5.9,2.9,9,5.9,8.7c3.3-0.4,4.5-4.2,3.9-10c-0.6-5.6-2.5-9-5.9-8.7
						C592.7,585.5,591,589,591.7,595.1z"/>
				</g>
			</g>
			<g>
				<g>
					<path d="M639.9,600.6c-0.1-0.6-0.2-1.2-0.3-1.9c0.7-0.9,1.5-1.8,2.2-2.7c5.4-6.3,7.7-9.7,7.2-13.1c-0.3-2.3-1.8-4.2-5.4-3.7
						c-2.2,0.3-3.8,1.6-4.8,2.6c-0.4-0.7-0.9-1.3-1.3-2c1.5-1.5,3.7-2.8,6.4-3.2c5.1-0.7,7.8,2.3,8.2,5.5c0.6,4.2-2.1,8-6.5,13.3
						c-0.6,0.6-1.1,1.3-1.7,1.9c0,0,0,0,0,0.1c3.6-0.5,7.2-1,10.8-1.6c0.1,0.8,0.3,1.7,0.4,2.5C650.2,599.2,645.1,599.9,639.9,600.6
						z"/>
				</g>
				<g>
					<path d="M662.9,577.1C662.9,577.1,662.9,577.1,662.9,577.1c-1.3,0.9-2.6,1.9-3.9,2.8c-0.3-0.7-0.7-1.5-1-2.2
						c1.6-1.1,3.2-2.3,4.8-3.4c0.9-0.1,1.8-0.3,2.7-0.4c1.2,7.5,2.4,15,3.6,22.5c-1,0.2-2.1,0.3-3.1,0.5
						C665,590.2,664,583.7,662.9,577.1z"/>
				</g>
			</g>
			<g>
				<g>
					<path d="M708.8,589.3c-0.1-0.6-0.2-1.2-0.4-1.9c0.7-0.9,1.4-1.9,2.1-2.8c5-6.6,7.2-10.1,6.5-13.4c-0.5-2.3-2-4.1-5.6-3.4
						c-2.1,0.4-3.7,1.8-4.6,2.9c-0.5-0.6-1-1.3-1.4-1.9c1.4-1.6,3.5-3,6.2-3.6c5.1-1,7.9,1.9,8.5,5.1c0.8,4.1-1.7,8.1-5.8,13.6
						c-0.5,0.7-1.1,1.4-1.6,2c0,0,0,0,0,0.1c3.6-0.7,7.2-1.4,10.7-2.1c0.2,0.8,0.3,1.7,0.5,2.5C719,587.4,713.9,588.4,708.8,589.3z"
						/>
				</g>
				<g>
					<path d="M727.7,585.6c-0.1-0.6-0.3-1.2-0.4-1.9c0.7-0.9,1.4-1.9,2.1-2.8c5-6.7,7-10.2,6.4-13.5c-0.5-2.3-2.1-4.1-5.6-3.4
						c-2.1,0.5-3.7,1.8-4.6,2.9c-0.5-0.6-1-1.3-1.5-1.9c1.4-1.6,3.5-3.1,6.2-3.7c5.1-1.1,7.9,1.8,8.6,4.9c0.9,4.1-1.5,8.1-5.6,13.7
						c-0.5,0.7-1,1.4-1.6,2c0,0,0,0,0,0.1c3.6-0.7,7.1-1.5,10.7-2.3c0.2,0.8,0.4,1.7,0.5,2.5C737.8,583.5,732.8,584.6,727.7,585.6z"
						/>
				</g>
			</g>
			<g>
				<g>
					<path d="M777.1,574.5c-0.2-0.6-0.3-1.2-0.5-1.8c0.7-1,1.3-1.9,2-2.9c4.7-6.9,6.7-10.4,5.9-13.8c-0.6-2.2-2.3-4-5.7-3.2
						c-2.1,0.5-3.6,2-4.5,3.1c-0.5-0.6-1-1.2-1.5-1.9c1.3-1.7,3.4-3.2,6.1-3.9c5-1.3,8,1.5,8.8,4.6c1,4.1-1.2,8.2-5.1,13.9
						c-0.5,0.7-1,1.4-1.5,2.1c0,0,0,0,0,0.1c3.6-0.9,7.1-1.8,10.6-2.7c0.2,0.8,0.4,1.7,0.6,2.5C787.2,572,782.1,573.3,777.1,574.5z"
						/>
				</g>
				<g>
					<path d="M795.7,566.2c1.1,0.3,3.4,0.6,5.6,0c4.1-1.1,4.7-3.9,4.2-5.7c-0.9-3.1-4.2-3.6-7.3-2.8c-0.6,0.2-1.2,0.3-1.8,0.5
						c-0.2-0.7-0.4-1.5-0.6-2.2c0.6-0.2,1.2-0.3,1.8-0.5c2.3-0.6,4.9-2.5,4.2-5.1c-0.5-1.8-2.1-3-5-2.2c-1.9,0.5-3.5,1.7-4.3,2.7
						c-0.5-0.7-0.9-1.3-1.4-2c1-1.2,3.1-2.6,5.7-3.3c4.6-1.2,7.4,0.8,8.1,3.5c0.6,2.3-0.3,4.6-2.9,6.4c0,0,0,0,0,0.1
						c3-0.2,5.9,1.2,6.8,4.3c1,3.5-1.1,7.4-6.8,8.9c-2.7,0.7-5.2,0.5-6.6,0.1C795.5,567.9,795.6,567,795.7,566.2z"/>
				</g>
			</g>
			<g>
				<g>
					<path d="M844.8,556.2c-0.2-0.6-0.4-1.2-0.5-1.8c0.6-1,1.2-2,1.8-3c4.4-7.1,6.2-10.8,5.2-14.1c-0.7-2.2-2.5-3.9-5.9-2.9
						c-2.1,0.6-3.5,2.2-4.4,3.3c-0.5-0.6-1.1-1.2-1.6-1.8c1.2-1.8,3.2-3.4,5.9-4.2c5-1.5,8.1,1,9,4.2c1.3,4-0.8,8.3-4.4,14.2
						c-0.5,0.7-0.9,1.5-1.4,2.2c0,0,0,0,0,0.1c3.5-1.1,7-2.1,10.5-3.2c0.3,0.8,0.5,1.6,0.8,2.5C854.8,553.2,849.8,554.7,844.8,556.2
						z"/>
				</g>
				<g>
					<path d="M873.1,547.4c-0.6-2-1.3-4-1.9-5.9c-3.6,1.2-7.2,2.3-10.8,3.4c-0.2-0.6-0.4-1.3-0.6-1.9c2-5.7,4-11.5,5.9-17.2
						c1.1-0.4,2.2-0.7,3.4-1.1c1.5,4.5,2.9,9,4.4,13.5c1.1-0.4,2.2-0.7,3.3-1.1c0.3,0.8,0.5,1.5,0.8,2.3c-1.1,0.4-2.2,0.7-3.3,1.1
						c0.6,2,1.3,4,1.9,5.9C875.1,546.8,874.1,547.1,873.1,547.4z M870.4,539.2c-0.8-2.4-1.6-4.8-2.3-7.3c-0.4-1.1-0.7-2.3-1-3.5
						c0,0-0.1,0-0.1,0c-0.3,1.5-0.6,2.6-0.9,3.8c-1.1,3.1-2.2,6.1-3.3,9.2c0,0,0,0,0,0.1C865.4,540.8,867.9,540,870.4,539.2z"/>
				</g>
			</g>
		</g>
	</g>
	<g>
		<g>
			<g>
				<g>
					<path class="st0" d="M875.8,353.7c0.5,28.9,1.1,57.8,1.6,86.7c-22.2,0.4-44.3,1.3-66.3,2.7c-1.9-28.8-3.7-57.6-5.6-86.4
						C828.9,355.1,852.3,354.1,875.8,353.7z"/>
					<path class="st1" d="M810.8,443.4l-5.6-87l0.3,0c23.3-1.5,46.9-2.5,70.3-3l0.3,0l0,0.3l1.6,87l-0.3,0
						c-22,0.4-44.3,1.3-66.3,2.7L810.8,443.4z M805.9,357l5.5,85.8c21.8-1.4,43.9-2.3,65.7-2.7l-1.6-86.1
						C852.4,354.4,828.9,355.4,805.9,357z"/>
				</g>
				<g>
					<path class="st0" d="M868.8,353.8c0.2,9.9,0.5,19.8,0.7,29.7"/>
					
						<rect x="868.8" y="353.8" transform="matrix(0.9997 -2.316757e-02 2.316757e-02 0.9997 -8.3079 20.2342)" class="st1" width="0.6" height="29.7"/>
				</g>
				<g>
					<path class="st0" d="M861.7,354c0.3,9.9,0.5,19.8,0.8,29.7"/>
					
						<rect x="861.8" y="354" transform="matrix(0.9996 -2.776525e-02 2.776525e-02 0.9996 -9.9089 24.0798)" class="st1" width="0.6" height="29.7"/>
				</g>
				<g>
					<path class="st0" d="M854.7,354.2c0.3,9.9,0.6,19.8,1,29.7"/>
					
						<rect x="854.9" y="354.2" transform="matrix(0.9995 -3.234559e-02 3.234559e-02 0.9995 -11.4902 27.8542)" class="st1" width="0.6" height="29.7"/>
				</g>
				<g>
					<path class="st0" d="M847.7,354.5c0.4,9.9,0.7,19.8,1.1,29.7"/>
					
						<rect x="847.9" y="354.5" transform="matrix(0.9993 -3.694423e-02 3.694423e-02 0.9993 -13.0649 31.5885)" class="st1" width="0.6" height="29.7"/>
				</g>
				<g>
					<path class="st0" d="M840.6,354.8c0.6,13.6,1.1,27.2,1.7,40.8"/>
					
						<rect x="841.2" y="354.7" transform="matrix(0.9991 -4.152193e-02 4.152193e-02 0.9991 -14.851 35.2632)" class="st1" width="0.6" height="40.8"/>
				</g>
				<g>
					<path class="st0" d="M833.6,355.1c0.5,9.9,0.9,19.8,1.4,29.6"/>
					
						<rect x="834" y="355.1" transform="matrix(0.9989 -4.608975e-02 4.608975e-02 0.9989 -16.1621 38.8451)" class="st1" width="0.6" height="29.7"/>
				</g>
				<g>
					<path class="st0" d="M826.6,355.4c0.5,9.9,1,19.8,1.5,29.6"/>
					
						<rect x="827" y="355.4" transform="matrix(0.9987 -5.069617e-02 5.069617e-02 0.9987 -17.7061 42.4186)" class="st1" width="0.6" height="29.7"/>
				</g>
				<g>
					<path class="st0" d="M819.6,355.8c0.5,9.9,1.1,19.7,1.6,29.6"/>
					
						<rect x="820.1" y="355.8" transform="matrix(0.9985 -5.526149e-02 5.526149e-02 0.9985 -19.2273 45.9018)" class="st1" width="0.6" height="29.7"/>
				</g>
				<g>
					<path class="st0" d="M812.5,356.2c0.6,9.9,1.2,19.7,1.8,29.6"/>
					
						<rect x="813.1" y="356.2" transform="matrix(0.9982 -5.983014e-02 5.983014e-02 0.9982 -20.7413 49.3325)" class="st1" width="0.6" height="29.7"/>
				</g>
			</g>
			<g>
				<g>
					<path class="st0" d="M805.5,356.7c1.9,28.8,3.7,57.6,5.6,86.4c-22,1.4-44,3.3-65.9,5.7c-3.2-28.6-6.3-57.3-9.5-85.9
						C758.9,360.3,782.2,358.2,805.5,356.7z"/>
					<path class="st1" d="M744.9,449.1l-9.6-86.5l0.3,0c23.1-2.6,46.6-4.7,69.9-6.2l0.3,0l5.6,87l-0.3,0
						c-21.9,1.4-44.1,3.3-65.9,5.7L744.9,449.1z M736,363.1l9.4,85.3c21.6-2.4,43.6-4.3,65.3-5.7l-5.5-85.8
						C782.2,358.5,758.9,360.6,736,363.1z"/>
				</g>
				<g>
					<path class="st0" d="M798.5,357.1c0.7,9.9,1.4,19.7,2,29.6"/>
					
						<rect x="799.2" y="357.1" transform="matrix(0.9976 -6.896912e-02 6.896912e-02 0.9976 -23.748 56.03)" class="st1" width="0.6" height="29.6"/>
				</g>
				<g>
					<path class="st0" d="M791.5,357.7c0.7,9.9,1.5,19.7,2.2,29.6"/>
					
						<rect x="792.3" y="357.6" transform="matrix(0.9973 -7.354185e-02 7.354185e-02 0.9973 -25.2433 59.299)" class="st1" width="0.6" height="29.6"/>
				</g>
				<g>
					<path class="st0" d="M784.5,358.2c0.8,9.8,1.5,19.7,2.3,29.5"/>
					
						<rect x="785.4" y="358.1" transform="matrix(0.9969 -7.811406e-02 7.811406e-02 0.9969 -26.7334 62.5128)" class="st1" width="0.6" height="29.6"/>
				</g>
				<g>
					<path class="st0" d="M777.5,358.8c0.8,9.8,1.6,19.7,2.5,29.5"/>
					
						<rect x="778.5" y="358.7" transform="matrix(0.9966 -8.266915e-02 8.266915e-02 0.9966 -28.2141 65.658)" class="st1" width="0.6" height="29.6"/>
				</g>
				<g>
					<path class="st0" d="M770.5,359.4c1.2,13.5,2.4,27.1,3.6,40.6"/>
					
						<rect x="772" y="359.3" transform="matrix(0.9962 -8.724649e-02 8.724649e-02 0.9962 -30.179 68.8302)" class="st1" width="0.6" height="40.7"/>
				</g>
				<g>
					<path class="st0" d="M763.6,360c0.9,9.8,1.8,19.7,2.7,29.5"/>
					
						<rect x="764.6" y="359.9" transform="matrix(0.9958 -9.180354e-02 9.180354e-02 0.9958 -31.1742 71.8051)" class="st1" width="0.6" height="29.6"/>
				</g>
				<g>
					<path class="st0" d="M756.6,360.7c1,9.8,1.9,19.7,2.9,29.5"/>
					
						<rect x="757.7" y="360.6" transform="matrix(0.9953 -9.635938e-02 9.635938e-02 0.9953 -32.648 74.7884)" class="st1" width="0.6" height="29.6"/>
				</g>
				<g>
					<path class="st0" d="M749.6,361.4c1,9.8,2,19.6,3,29.5"/>
					
						<rect x="750.8" y="361.3" transform="matrix(0.9949 -0.1009 0.1009 0.9949 -34.117 77.7068)" class="st1" width="0.6" height="29.6"/>
				</g>
				<g>
					<path class="st0" d="M742.6,362.1c1,9.8,2.1,19.6,3.1,29.4"/>
					
						<rect x="743.9" y="362" transform="matrix(0.9944 -0.1055 0.1055 0.9944 -35.5921 80.5872)" class="st1" width="0.6" height="29.6"/>
				</g>
			</g>
			<g>
				<g>
					<path class="st0" d="M735.7,362.9c3.2,28.6,6.3,57.3,9.5,85.9c-21.9,2.4-43.7,5.3-65.4,8.7c-4.5-28.4-8.9-56.8-13.4-85.2
						C689.4,368.6,712.5,365.5,735.7,362.9z"/>
					<path class="st1" d="M679.5,457.9l0-0.3L666,372l0.3,0c22.9-3.6,46.3-6.8,69.3-9.4l0.3,0l0,0.3l9.5,86.2l-0.3,0
						c-21.8,2.4-43.8,5.3-65.4,8.7L679.5,457.9z M666.7,372.5l13.3,84.6c21.4-3.4,43.3-6.3,64.9-8.7l-9.4-85.3
						C712.5,365.8,689.4,368.9,666.7,372.5z"/>
				</g>
				<g>
					<path class="st0" d="M728.7,363.7c1.1,9.8,2.3,19.6,3.4,29.4"/>
					
						<rect x="730.1" y="363.6" transform="matrix(0.9934 -0.1146 0.1146 0.9934 -38.5413 86.1752)" class="st1" width="0.6" height="29.6"/>
				</g>
				<g>
					<path class="st0" d="M721.8,364.5c1.2,9.8,2.4,19.6,3.5,29.4"/>
					
						<rect x="723.2" y="364.4" transform="matrix(0.9929 -0.1191 0.1191 0.9929 -40.0111 88.8673)" class="st1" width="0.6" height="29.6"/>
				</g>
				<g>
					<path class="st0" d="M714.8,365.4c1.2,9.8,2.4,19.6,3.7,29.4"/>
					
						<rect x="716.3" y="365.2" transform="matrix(0.9923 -0.1236 0.1236 0.9923 -41.491 91.5241)" class="st1" width="0.6" height="29.6"/>
				</g>
				<g>
					<path class="st0" d="M707.9,366.3c1.3,9.8,2.5,19.6,3.8,29.3"/>
					
						<rect x="709.5" y="366.1" transform="matrix(0.9917 -0.1282 0.1282 0.9917 -42.9753 94.1283)" class="st1" width="0.6" height="29.6"/>
				</g>
				<g>
					<path class="st0" d="M700.9,367.2c1.8,13.4,3.6,26.9,5.4,40.3"/>
					
						<rect x="703.3" y="367" transform="matrix(0.9912 -0.1327 0.1327 0.9912 -45.1814 96.8111)" class="st1" width="0.6" height="40.7"/>
				</g>
				<g>
					<path class="st0" d="M694,368.1c1.4,9.8,2.7,19.5,4.1,29.3"/>
					
						<rect x="695.7" y="368" transform="matrix(0.9905 -0.1373 0.1373 0.9905 -45.951 99.1555)" class="st1" width="0.6" height="29.6"/>
				</g>
				<g>
					<path class="st0" d="M687.1,369.1c1.4,9.8,2.8,19.5,4.2,29.3"/>
					
						<rect x="688.9" y="369" transform="matrix(0.9899 -0.1418 0.1418 0.9899 -47.4428 101.5761)" class="st1" width="0.6" height="29.6"/>
				</g>
				<g>
					<path class="st0" d="M680.2,370.1c1.4,9.8,2.9,19.5,4.3,29.3"/>
					
						<rect x="682" y="370" transform="matrix(0.9892 -0.1463 0.1463 0.9892 -48.9492 103.963)" class="st1" width="0.6" height="29.6"/>
				</g>
				<g>
					<path class="st0" d="M673.2,371.2c1.5,9.7,3,19.5,4.5,29.2"/>
					
						<rect x="675.2" y="371" transform="matrix(0.9886 -0.1508 0.1508 0.9886 -50.4584 106.284)" class="st1" width="0.6" height="29.6"/>
				</g>
			</g>
			<g>
				<g>
					<path class="st0" d="M666.3,372.3c4.5,28.4,8.9,56.8,13.4,85.2c-21.7,3.4-43.3,7.3-64.9,11.7c-5.8-28.1-11.5-56.3-17.3-84.4
						C620.4,380.1,643.3,375.9,666.3,372.3z"/>
					<path class="st1" d="M614.7,469.6l-0.1-0.3l-17.3-84.7l0.3-0.1c22.7-4.7,45.8-8.9,68.7-12.5l0.3,0l0,0.3l13.5,85.5l-0.3,0
						c-21.6,3.4-43.4,7.3-64.8,11.7L614.7,469.6z M598,385l17.1,83.8c21.2-4.3,42.9-8.2,64.3-11.6l-13.3-84.6
						C643.4,376.2,620.5,380.4,598,385z"/>
				</g>
				<g>
					<path class="st0" d="M659.4,373.4c1.6,9.7,3.1,19.5,4.7,29.2"/>
					
						<rect x="661.5" y="373.2" transform="matrix(0.9871 -0.1598 0.1598 0.9871 -53.5071 110.7771)" class="st1" width="0.6" height="29.6"/>
				</g>
				<g>
					<path class="st0" d="M652.5,374.5c1.6,9.7,3.2,19.4,4.9,29.2"/>
					
						<rect x="654.7" y="374.3" transform="matrix(0.9864 -0.1644 0.1644 0.9864 -55.0472 112.9474)" class="st1" width="0.6" height="29.6"/>
				</g>
				<g>
					<path class="st0" d="M645.7,375.7c1.7,9.7,3.3,19.4,5,29.1"/>
					
						<rect x="647.8" y="375.5" transform="matrix(0.9856 -0.1689 0.1689 0.9856 -56.5947 115.0564)" class="st1" width="0.6" height="29.5"/>
				</g>
				<g>
					<path class="st0" d="M638.8,376.9c1.7,9.7,3.4,19.4,5.1,29.1"/>
					
						<rect x="641" y="376.7" transform="matrix(0.9849 -0.1734 0.1734 0.9849 -58.1546 117.1151)" class="st1" width="0.6" height="29.5"/>
				</g>
				<g>
					<path class="st0" d="M631.9,378.1c2.4,13.3,4.8,26.6,7.2,40"/>
					
						<rect x="635.2" y="377.8" transform="matrix(0.9841 -0.1778 0.1778 0.9841 -60.674 119.3699)" class="st1" width="0.6" height="40.6"/>
				</g>
				<g>
					<path class="st0" d="M625,379.4c1.8,9.7,3.6,19.4,5.4,29"/>
					
						<rect x="627.4" y="379.2" transform="matrix(0.9832 -0.1824 0.1824 0.9832 -61.3124 121.0774)" class="st1" width="0.6" height="29.5"/>
				</g>
				<g>
					<path class="st0" d="M618.2,380.7c1.8,9.7,3.7,19.3,5.5,29"/>
					
						<rect x="620.6" y="380.5" transform="matrix(0.9824 -0.1868 0.1868 0.9824 -62.9103 122.9774)" class="st1" width="0.6" height="29.5"/>
				</g>
				<g>
					<path class="st0" d="M611.3,382c1.9,9.7,3.8,19.3,5.6,29"/>
					
						<rect x="613.8" y="381.8" transform="matrix(0.9815 -0.1913 0.1913 0.9815 -64.5253 124.8323)" class="st1" width="0.6" height="29.5"/>
				</g>
				<g>
					<path class="st0" d="M604.5,383.4c1.9,9.7,3.9,19.3,5.8,29"/>
					
						<rect x="607.1" y="383.1" transform="matrix(0.9806 -0.1958 0.1958 0.9806 -66.1498 126.622)" class="st1" width="0.6" height="29.5"/>
				</g>
			</g>
			<g>
				<g>
					<path class="st0" d="M597.6,384.8c5.8,28.1,11.5,56.3,17.3,84.4c-21.5,4.4-42.9,9.3-64.2,14.6c-7-27.8-14-55.6-21.1-83.4
						C552.2,394.7,574.8,389.5,597.6,384.8z"/>
					<path class="st1" d="M550.5,484.2l-0.1-0.3l-21.1-83.7l0.3-0.1c22.4-5.7,45.3-11,68-15.7l0.3-0.1l0.1,0.3l17.3,84.7l-0.3,0.1
						c-21.4,4.4-43,9.3-64.2,14.6L550.5,484.2z M530,400.7l20.9,82.8c21-5.3,42.4-10.2,63.6-14.5l-17.1-83.8
						C574.9,389.8,552.3,395,530,400.7z"/>
				</g>
				<g>
					<path class="st0" d="M590.8,386.2c2,9.6,4,19.3,6,28.9"/>
					
						<rect x="593.5" y="385.9" transform="matrix(0.9788 -0.2048 0.2048 0.9788 -69.4618 130.083)" class="st1" width="0.6" height="29.5"/>
				</g>
				<g>
					<path class="st0" d="M584,387.7c2.1,9.6,4.1,19.2,6.2,28.9"/>
					
						<rect x="586.8" y="387.4" transform="matrix(0.9779 -0.2092 0.2092 0.9779 -71.1429 131.7354)" class="st1" width="0.6" height="29.5"/>
				</g>
				<g>
					<path class="st0" d="M577.2,389.2c2.1,9.6,4.2,19.2,6.3,28.8"/>
					
						<rect x="580" y="388.8" transform="matrix(0.9769 -0.2137 0.2137 0.9769 -72.839 133.3301)" class="st1" width="0.6" height="29.5"/>
				</g>
				<g>
					<path class="st0" d="M570.4,390.7c2.1,9.6,4.3,19.2,6.4,28.8"/>
					
						<rect x="573.3" y="390.3" transform="matrix(0.9759 -0.2181 0.2181 0.9759 -74.5554 134.8781)" class="st1" width="0.6" height="29.5"/>
				</g>
				<g>
					<path class="st0" d="M563.5,392.2c3,13.2,6,26.4,9,39.5"/>
					
						<rect x="567.8" y="391.7" transform="matrix(0.9749 -0.2226 0.2226 0.9749 -77.4609 136.7887)" class="st1" width="0.6" height="40.5"/>
				</g>
				<g>
					<path class="st0" d="M556.8,393.8c2.2,9.6,4.5,19.1,6.7,28.7"/>
					
						<rect x="559.8" y="393.4" transform="matrix(0.9739 -0.227 0.227 0.9739 -78.0483 137.8264)" class="st1" width="0.6" height="29.5"/>
				</g>
				<g>
					<path class="st0" d="M550,395.4c2.3,9.6,4.6,19.1,6.8,28.7"/>
					
						<rect x="553.1" y="395" transform="matrix(0.9728 -0.2315 0.2315 0.9728 -79.8322 139.2413)" class="st1" width="0.6" height="29.5"/>
				</g>
				<g>
					<path class="st0" d="M543.2,397.1c2.3,9.5,4.6,19.1,7,28.6"/>
					
						<rect x="546.4" y="396.7" transform="matrix(0.9718 -0.2359 0.2359 0.9718 -81.6342 140.5985)" class="st1" width="0.6" height="29.5"/>
				</g>
				<g>
					<path class="st0" d="M536.4,398.8c2.4,9.5,4.7,19.1,7.1,28.6"/>
					
						<rect x="539.7" y="398.3" transform="matrix(0.9707 -0.2404 0.2404 0.9707 -83.4603 141.9108)" class="st1" width="0.6" height="29.5"/>
				</g>
			</g>
			<g>
				<g>
					<path class="st0" d="M529.7,400.5c7,27.8,14,55.6,21.1,83.4c-21.3,5.4-42.4,11.2-63.4,17.6c-8.3-27.4-16.5-54.8-24.8-82.2
						C484.8,412.4,507.1,406.2,529.7,400.5z"/>
					<path class="st1" d="M487.1,501.8l-25-82.8l0.3-0.1c22.1-6.7,44.7-13,67.1-18.7l0.3-0.1l0.1,0.3l21.1,83.7l-0.3,0.1
						c-21.2,5.3-42.5,11.2-63.4,17.5L487.1,501.8z M462.9,419.4l24.6,81.7c20.7-6.2,41.8-12.1,62.8-17.4l-20.9-82.8
						C507.2,406.5,484.8,412.7,462.9,419.4z"/>
				</g>
				<g>
					<path class="st0" d="M522.9,402.2c2.4,9.5,4.9,19,7.3,28.5"/>
					
						<rect x="526.3" y="401.7" transform="matrix(0.9684 -0.2493 0.2493 0.9684 -87.184 144.3944)" class="st1" width="0.6" height="29.5"/>
				</g>
				<g>
					<path class="st0" d="M516.2,404c2.5,9.5,5,19,7.5,28.5"/>
					
						<rect x="519.6" y="403.5" transform="matrix(0.9673 -0.2537 0.2537 0.9673 -89.0781 145.555)" class="st1" width="0.6" height="29.5"/>
				</g>
				<g>
					<path class="st0" d="M509.4,405.8c2.5,9.5,5.1,19,7.6,28.5"/>
					
						<rect x="512.9" y="405.3" transform="matrix(0.9661 -0.2581 0.2581 0.9661 -91.005 146.6851)" class="st1" width="0.6" height="29.5"/>
				</g>
				<g>
					<path class="st0" d="M502.7,407.6c2.6,9.5,5.2,18.9,7.7,28.4"/>
					
						<rect x="506.3" y="407.1" transform="matrix(0.9649 -0.2625 0.2625 0.9649 -92.9555 147.7632)" class="st1" width="0.6" height="29.5"/>
				</g>
				<g>
					<path class="st0" d="M496,409.4c3.6,13,7.2,26,10.8,39"/>
					
						<rect x="501.1" y="408.7" transform="matrix(0.9637 -0.2669 0.2669 0.9637 -96.2945 149.3732)" class="st1" width="0.6" height="40.5"/>
				</g>
				<g>
					<path class="st0" d="M489.3,411.3c2.7,9.4,5.3,18.9,8,28.3"/>
					
						<rect x="493" y="410.8" transform="matrix(0.9625 -0.2713 0.2713 0.9625 -96.931 149.7675)" class="st1" width="0.6" height="29.4"/>
				</g>
				<g>
					<path class="st0" d="M482.6,413.2c2.7,9.4,5.4,18.9,8.1,28.3"/>
					
						<rect x="486.3" y="412.7" transform="matrix(0.9612 -0.2757 0.2757 0.9612 -98.9706 150.7229)" class="st1" width="0.6" height="29.4"/>
				</g>
				<g>
					<path class="st0" d="M475.9,415.2c2.7,9.4,5.5,18.8,8.2,28.3"/>
					
						<rect x="479.7" y="414.6" transform="matrix(0.96 -0.2801 0.2801 0.96 -101.0347 151.6239)" class="st1" width="0.6" height="29.4"/>
				</g>
				<g>
					<path class="st0" d="M469.2,417.2c2.8,9.4,5.6,18.8,8.4,28.2"/>
					
						<rect x="473.1" y="416.6" transform="matrix(0.9587 -0.2845 0.2845 0.9587 -103.1263 152.4762)" class="st1" width="0.6" height="29.4"/>
				</g>
			</g>
			<g>
				<g>
					<path class="st0" d="M462.5,419.2c8.3,27.4,16.5,54.8,24.8,82.2c-21,6.3-41.8,13.1-62.5,20.4c-9.5-27-19-53.9-28.5-80.9
						C418.2,433.2,440.3,425.9,462.5,419.2z"/>
					<path class="st1" d="M424.7,522.2L396,440.8l0.3-0.1c21.8-7.7,44.1-15.1,66.2-21.8l0.3-0.1l25,82.8l-0.3,0.1
						c-20.9,6.3-41.9,13.2-62.5,20.4L424.7,522.2z M396.7,441.1l28.3,80.3c20.4-7.2,41.2-14,61.9-20.2l-24.6-81.7
						C440.4,426.2,418.3,433.5,396.7,441.1z"/>
				</g>
				<g>
					<path class="st0" d="M455.9,421.2c2.9,9.4,5.8,18.8,8.6,28.1"/>
					
						<rect x="459.9" y="420.6" transform="matrix(0.9561 -0.2932 0.2932 0.9561 -107.3951 154.0382)" class="st1" width="0.6" height="29.4"/>
				</g>
				<g>
					<path class="st0" d="M449.2,423.3c2.9,9.4,5.8,18.7,8.8,28.1"/>
					
						<rect x="453.3" y="422.6" transform="matrix(0.9547 -0.2976 0.2976 0.9547 -109.5927 154.7868)" class="st1" width="0.6" height="29.4"/>
				</g>
				<g>
					<path class="st0" d="M442.6,425.4c3,9.3,5.9,18.7,8.9,28"/>
					
						<rect x="446.7" y="424.7" transform="matrix(0.9533 -0.3019 0.3019 0.9533 -111.8147 155.4771)" class="st1" width="0.6" height="29.4"/>
				</g>
				<g>
					<path class="st0" d="M435.9,427.5c3,9.3,6,18.7,9,28"/>
					
						<rect x="440.1" y="426.8" transform="matrix(0.9519 -0.3063 0.3063 0.9519 -114.0701 156.1262)" class="st1" width="0.6" height="29.4"/>
				</g>
				<g>
					<path class="st0" d="M429.3,429.7c4.2,12.8,8.4,25.6,12.6,38.4"/>
					
						<rect x="435.3" y="428.7" transform="matrix(0.9505 -0.3106 0.3106 0.9505 -117.8962 157.5154)" class="st1" width="0.6" height="40.4"/>
				</g>
				<g>
					<path class="st0" d="M422.7,431.9c3.1,9.3,6.2,18.6,9.3,27.9"/>
					
						<rect x="427" y="431.1" transform="matrix(0.9491 -0.315 0.315 0.9491 -118.6801 157.2953)" class="st1" width="0.6" height="29.4"/>
				</g>
				<g>
					<path class="st0" d="M416.1,434.1c3.1,9.3,6.3,18.6,9.4,27.9"/>
					
						<rect x="420.5" y="433.3" transform="matrix(0.9476 -0.3193 0.3193 0.9476 -121.0412 157.8265)" class="st1" width="0.6" height="29.4"/>
				</g>
				<g>
					<path class="st0" d="M409.5,436.4c3.2,9.3,6.3,18.5,9.5,27.8"/>
					
						<rect x="413.9" y="435.6" transform="matrix(0.9462 -0.3236 0.3236 0.9462 -123.4304 158.3035)" class="st1" width="0.6" height="29.4"/>
				</g>
				<g>
					<path class="st0" d="M402.9,438.6c3.2,9.3,6.4,18.5,9.6,27.8"/>
					
						<rect x="407.4" y="437.8" transform="matrix(0.9447 -0.328 0.328 0.9447 -125.8642 158.7568)" class="st1" width="0.6" height="29.4"/>
				</g>
			</g>
			<g>
				<g>
					<path class="st0" d="M396.3,441c9.5,27,19,53.9,28.5,80.9c-20.7,7.3-41.2,15-61.5,23.3c-10.7-26.5-21.4-52.9-32.1-79.4
						C352.7,457,374.4,448.7,396.3,441z"/>
					<path class="st1" d="M363.2,545.5l-0.1-0.3l-32.2-79.7l0.3-0.1c21.4-8.7,43.3-17.1,65.2-24.8l0.3-0.1l28.7,81.5l-0.3,0.1
						c-20.6,7.3-41.3,15.1-61.5,23.3L363.2,545.5z M331.6,465.9l31.9,78.8c20.1-8.1,40.6-15.9,61-23.1l-28.3-80.3
						C374.5,449,352.8,457.3,331.6,465.9z"/>
				</g>
				<g>
					<path class="st0" d="M389.8,443.3c3.3,9.2,6.6,18.4,9.9,27.7"/>
					
						<rect x="394.4" y="442.4" transform="matrix(0.9416 -0.3366 0.3366 0.9416 -130.8402 159.5409)" class="st1" width="0.6" height="29.4"/>
				</g>
				<g>
					<path class="st0" d="M383.2,445.7c3.3,9.2,6.7,18.4,10,27.6"/>
					
						<rect x="387.9" y="444.8" transform="matrix(0.9401 -0.3409 0.3409 0.9401 -133.3857 159.877)" class="st1" width="0.6" height="29.4"/>
				</g>
				<g>
					<path class="st0" d="M376.7,448.1c3.4,9.2,6.8,18.4,10.1,27.6"/>
					
						<rect x="381.4" y="447.2" transform="matrix(0.9385 -0.3452 0.3452 0.9385 -135.9664 160.1697)" class="st1" width="0.6" height="29.4"/>
				</g>
				<g>
					<path class="st0" d="M370.1,450.5c3.4,9.2,6.8,18.3,10.3,27.5"/>
					
						<rect x="375" y="449.6" transform="matrix(0.9369 -0.3495 0.3495 0.9369 -138.5948 160.4395)" class="st1" width="0.6" height="29.4"/>
				</g>
				<g>
					<path class="st0" d="M363.6,453c4.8,12.6,9.5,25.2,14.3,37.7"/>
					
						<rect x="370.5" y="451.7" transform="matrix(0.9353 -0.3538 0.3538 0.9353 -142.9534 161.6878)" class="st1" width="0.6" height="40.4"/>
				</g>
				<g>
					<path class="st0" d="M357.1,455.5c3.5,9.1,7,18.3,10.5,27.4"/>
					
						<rect x="362.1" y="454.5" transform="matrix(0.9337 -0.358 0.358 0.9337 -143.9619 160.8535)" class="st1" width="0.6" height="29.4"/>
				</g>
				<g>
					<path class="st0" d="M350.6,458c3.5,9.1,7.1,18.2,10.6,27.4"/>
					
						<rect x="355.6" y="457" transform="matrix(0.932 -0.3623 0.3623 0.932 -146.7183 161.0259)" class="st1" width="0.6" height="29.4"/>
				</g>
				<g>
					<path class="st0" d="M344.1,460.5c3.6,9.1,7.2,18.2,10.8,27.3"/>
					
						<rect x="349.2" y="459.5" transform="matrix(0.9304 -0.3666 0.3666 0.9304 -149.5056 161.1461)" class="st1" width="0.6" height="29.3"/>
				</g>
				<g>
					<path class="st0" d="M337.7,463.1c3.6,9.1,7.3,18.2,10.9,27.2"/>
					
						<rect x="342.8" y="462.1" transform="matrix(0.9287 -0.3709 0.3709 0.9287 -152.3386 161.2375)" class="st1" width="0.6" height="29.3"/>
				</g>
			</g>
			<g>
				<g>
					<path class="st0" d="M331.2,465.7c10.7,26.5,21.4,52.9,32.1,79.4c-20.3,8.2-40.5,16.9-60.4,26.1
						c-11.9-25.9-23.8-51.8-35.7-77.7C288.3,483.7,309.7,474.5,331.2,465.7z"/>
					<path class="st1" d="M302.7,571.6l-12-26.2l-23.9-52.1l0.3-0.1c21-9.7,42.5-19,64-27.8l0.3-0.1l32.3,79.9l-0.3,0.1
						c-20.2,8.2-40.6,17-60.4,26.1L302.7,571.6z M267.6,493.6l35.4,77.2c19.7-9,39.8-17.7,59.9-25.8L331,466.1
						C309.8,474.8,288.4,484,267.6,493.6z"/>
				</g>
				<g>
					<path class="st0" d="M324.7,468.4c3.7,9,7.4,18.1,11.1,27.1"/>
					
						<rect x="330" y="467.3" transform="matrix(0.9253 -0.3793 0.3793 0.9253 -158.1368 161.3246)" class="st1" width="0.6" height="29.3"/>
				</g>
				<g>
					<path class="st0" d="M318.3,471.1c3.7,9,7.5,18.1,11.2,27.1"/>
					
						<rect x="323.6" y="469.9" transform="matrix(0.9235 -0.3836 0.3836 0.9235 -161.1018 161.3195)" class="st1" width="0.6" height="29.3"/>
				</g>
				<g>
					<path class="st0" d="M311.9,473.8c3.8,9,7.6,18,11.4,27"/>
					
						<rect x="317.3" y="472.6" transform="matrix(0.9217 -0.3878 0.3878 0.9217 -164.1199 161.2951)" class="st1" width="0.6" height="29.3"/>
				</g>
				<g>
					<path class="st0" d="M305.5,476.5c3.8,9,7.7,18,11.5,27"/>
					
						<rect x="310.9" y="475.3" transform="matrix(0.9199 -0.392 0.392 0.9199 -167.175 161.2274)" class="st1" width="0.6" height="29.3"/>
				</g>
				<g>
					<path class="st0" d="M299.1,479.2c5.3,12.3,10.6,24.7,16,37"/>
					
						<rect x="306.7" y="477.6" transform="matrix(0.9181 -0.3963 0.3963 0.9181 -172.0994 162.4096)" class="st1" width="0.6" height="40.3"/>
				</g>
				<g>
					<path class="st0" d="M292.7,482c3.9,9,7.8,17.9,11.7,26.9"/>
					
						<rect x="298.2" y="480.8" transform="matrix(0.9163 -0.4005 0.4005 0.9163 -173.4307 161.0117)" class="st1" width="0.6" height="29.3"/>
				</g>
				<g>
					<path class="st0" d="M286.3,484.9c4,8.9,7.9,17.9,11.9,26.8"/>
					
						<rect x="291.9" y="483.6" transform="matrix(0.9145 -0.4047 0.4047 0.9145 -176.6326 160.8653)" class="st1" width="0.6" height="29.3"/>
				</g>
				<g>
					<path class="st0" d="M279.9,487.7c4,8.9,8,17.8,12,26.7"/>
					
						<rect x="285.6" y="486.4" transform="matrix(0.9126 -0.4088 0.4088 0.9126 -179.8704 160.6741)" class="st1" width="0.6" height="29.3"/>
				</g>
				<g>
					<path class="st0" d="M273.6,490.6c4,8.9,8.1,17.8,12.1,26.7"/>
					<polygon class="st1" points="285.4,517.4 273.3,490.7 273.8,490.5 285.9,517.1 					"/>
				</g>
			</g>
			<g>
				<g>
					<path class="st0" d="M267.2,493.5c11.9,25.9,23.8,51.8,35.7,77.7c-20,9.2-39.7,18.8-59.3,28.9c-13-25.3-26.1-50.6-39.1-75.9
						C225.2,513.5,246.1,503.2,267.2,493.5z"/>
					<path class="st1" d="M243.5,600.5l-39.4-76.4l0.3-0.1c20.6-10.7,41.7-21,62.7-30.7l0.3-0.1l35.9,78.3l-0.3,0.1
						c-19.9,9.1-39.8,18.8-59.2,28.8L243.5,600.5z M204.9,524.3l38.9,75.3c19.3-9.9,39-19.5,58.7-28.6l-35.4-77.2
						C246.2,503.5,225.3,513.8,204.9,524.3z"/>
				</g>
				<g>
					<path class="st0" d="M260.9,496.4c4.1,8.9,8.2,17.7,12.3,26.6"/>
					
						<rect x="266.7" y="495.1" transform="matrix(0.9069 -0.4214 0.4214 0.9069 -189.9162 159.9933)" class="st1" width="0.6" height="29.3"/>
				</g>
				<g>
					<path class="st0" d="M254.6,499.4c4.2,8.8,8.3,17.7,12.5,26.5"/>
					
						<rect x="260.5" y="498" transform="matrix(0.9049 -0.4255 0.4255 0.9049 -193.3586 159.7071)" class="st1" width="0.6" height="29.3"/>
				</g>
				<g>
					<path class="st0" d="M248.3,502.4c4.2,8.8,8.4,17.6,12.6,26.4"/>
					
						<rect x="254.2" y="501" transform="matrix(0.903 -0.4297 0.4297 0.903 -196.8601 159.4069)" class="st1" width="0.6" height="29.3"/>
				</g>
				<g>
					<path class="st0" d="M242,505.4c4.2,8.8,8.5,17.6,12.7,26.4"/>
					
						<rect x="248" y="504" transform="matrix(0.901 -0.4338 0.4338 0.901 -200.407 159.0755)" class="st1" width="0.6" height="29.3"/>
				</g>
				<g>
					<path class="st0" d="M235.7,508.5c5.9,12.1,11.7,24.1,17.6,36.2"/>
					
						<rect x="244.2" y="506.4" transform="matrix(0.899 -0.438 0.438 0.899 -205.922 160.2706)" class="st1" width="0.6" height="40.2"/>
				</g>
				<g>
					<path class="st0" d="M229.4,511.6c4.3,8.7,8.6,17.5,12.9,26.2"/>
					
						<rect x="235.6" y="510" transform="matrix(0.897 -0.4421 0.4421 0.897 -207.6571 158.3441)" class="st1" width="0.6" height="29.3"/>
				</g>
				<g>
					<path class="st0" d="M223.2,514.7c4.4,8.7,8.7,17.5,13.1,26.2"/>
					
						<rect x="229.4" y="513.1" transform="matrix(0.8949 -0.4462 0.4462 0.8949 -211.3649 157.9498)" class="st1" width="0.6" height="29.3"/>
				</g>
				<g>
					<path class="st0" d="M216.9,517.8c4.4,8.7,8.8,17.4,13.2,26.1"/>
					
						<rect x="223.2" y="516.2" transform="matrix(0.8929 -0.4503 0.4503 0.8929 -215.1261 157.5346)" class="st1" width="0.6" height="29.3"/>
				</g>
				<g>
					<path class="st0" d="M210.7,521c4.4,8.7,8.9,17.4,13.3,26.1"/>
					
						<rect x="217" y="519.4" transform="matrix(0.8908 -0.4544 0.4544 0.8908 -218.935 157.0915)" class="st1" width="0.6" height="29.3"/>
				</g>
			</g>
			<g>
				<g>
					<path class="st0" d="M204.5,524.2c13,25.3,26.1,50.6,39.1,75.9c-19.5,10.1-38.9,20.6-58,31.6c-14.2-24.6-28.4-49.2-42.5-73.9
						C163.3,546.1,183.8,534.9,204.5,524.2z"/>
					<path class="st1" d="M185.5,632.1l-0.2-0.3l-42.7-74.1l0.3-0.2c20.1-11.6,40.8-22.9,61.4-33.6l0.3-0.1l39.4,76.4l-0.3,0.1
						c-19.5,10-39,20.7-58,31.6L185.5,632.1z M143.5,557.9l42.2,73.3c18.8-10.8,38.2-21.4,57.5-31.3l-38.9-75.3
						C183.9,535.2,163.5,546.4,143.5,557.9z"/>
				</g>
				<g>
					<path class="st0" d="M198.3,527.4c4.5,8.6,9,17.3,13.5,25.9"/>
					
						<rect x="204.7" y="525.8" transform="matrix(0.8866 -0.4626 0.4626 0.8866 -226.7264 156.1587)" class="st1" width="0.6" height="29.2"/>
				</g>
				<g>
					<path class="st0" d="M192.1,530.7c4.5,8.6,9.1,17.2,13.6,25.9"/>
					
						<rect x="198.6" y="529" transform="matrix(0.8844 -0.4667 0.4667 0.8844 -230.7073 155.6674)" class="st1" width="0.6" height="29.2"/>
				</g>
				<g>
					<path class="st0" d="M185.9,534c4.6,8.6,9.2,17.2,13.8,25.8"/>
					
						<rect x="192.5" y="532.2" transform="matrix(0.8823 -0.4708 0.4708 0.8823 -234.7372 155.151)" class="st1" width="0.6" height="29.2"/>
				</g>
				<g>
					<path class="st0" d="M179.8,537.3c4.6,8.6,9.3,17.1,13.9,25.7"/>
					
						<rect x="186.4" y="535.5" transform="matrix(0.8801 -0.4748 0.4748 0.8801 -238.8271 154.6218)" class="st1" width="0.6" height="29.2"/>
				</g>
				<g>
					<path class="st0" d="M173.6,540.6c6.4,11.8,12.8,23.5,19.2,35.3"/>
					
						<rect x="182.9" y="538.2" transform="matrix(0.8779 -0.4789 0.4789 0.8779 -244.9586 155.9228)" class="st1" width="0.6" height="40.2"/>
				</g>
				<g>
					<path class="st0" d="M167.5,544c4.7,8.5,9.4,17.1,14.1,25.6"/>
					
						<rect x="174.2" y="542.2" transform="matrix(0.8757 -0.4829 0.4829 0.8757 -247.1875 153.5265)" class="st1" width="0.6" height="29.2"/>
				</g>
				<g>
					<path class="st0" d="M161.4,547.4c4.7,8.5,9.5,17,14.2,25.5"/>
					
						<rect x="168.2" y="545.6" transform="matrix(0.8734 -0.4869 0.4869 0.8734 -251.4426 152.9448)" class="st1" width="0.6" height="29.2"/>
				</g>
				<g>
					<path class="st0" d="M155.3,550.8c4.8,8.5,9.6,17,14.3,25.4"/>
					
						<rect x="162.1" y="549" transform="matrix(0.8712 -0.491 0.491 0.8712 -255.7637 152.3573)" class="st1" width="0.6" height="29.2"/>
				</g>
				<g>
					<path class="st0" d="M149.2,554.3c4.8,8.5,9.6,16.9,14.5,25.4"/>
					
						<rect x="156.1" y="552.4" transform="matrix(0.8689 -0.495 0.495 0.8689 -260.1406 151.754)" class="st1" width="0.6" height="29.2"/>
				</g>
			</g>
			<g>
				<g>
					<path class="st0" d="M143.1,557.8c14.2,24.6,28.4,49.2,42.5,73.9c-19.1,11-38,22.4-56.6,34.3c-15.3-23.9-30.6-47.8-45.8-71.7
						C102.9,581.6,122.9,569.5,143.1,557.8z"/>
					<path class="st1" d="M129,666.4l-46.2-72.2l0.3-0.2c19.6-12.6,39.8-24.8,59.9-36.5l0.3-0.2l0.2,0.3l42.7,74.1l-0.3,0.2
						c-19,11-38.1,22.5-56.6,34.3L129,666.4z M83.6,594.3l45.5,71.2c18.4-11.7,37.2-23.1,56.1-34L143,558.2
						C123,569.7,103.1,581.9,83.6,594.3z"/>
				</g>
				<g>
					<path class="st0" d="M137.1,561.3c4.9,8.4,9.8,16.8,14.7,25.2"/>
					
						<rect x="144.1" y="559.3" transform="matrix(0.8643 -0.503 0.503 0.8643 -269.0806 150.5202)" class="st1" width="0.6" height="29.2"/>
				</g>
				<g>
					<path class="st0" d="M131,564.8c4.9,8.4,9.9,16.8,14.8,25.2"/>
					
						<rect x="138.1" y="562.8" transform="matrix(0.862 -0.507 0.507 0.862 -273.6375 149.884)" class="st1" width="0.6" height="29.2"/>
				</g>
				<g>
					<path class="st0" d="M125,568.4c5,8.4,9.9,16.7,14.9,25.1"/>
					
						<rect x="132.1" y="566.4" transform="matrix(0.8596 -0.5109 0.5109 0.8596 -278.2507 149.2341)" class="st1" width="0.6" height="29.2"/>
				</g>
				<g>
					<path class="st0" d="M119,572c5,8.3,10,16.7,15,25"/>
					
						<rect x="126.2" y="569.9" transform="matrix(0.8572 -0.5149 0.5149 0.8572 -282.9377 148.5875)" class="st1" width="0.6" height="29.2"/>
				</g>
				<g>
					<path class="st0" d="M113,575.7c6.9,11.4,13.9,22.9,20.8,34.3"/>
					
						<rect x="123.1" y="572.7" transform="matrix(0.8548 -0.5189 0.5189 0.8548 -289.6884 150.0728)" class="st1" width="0.6" height="40.1"/>
				</g>
				<g>
					<path class="st0" d="M107,579.3c5.1,8.3,10.2,16.6,15.3,24.9"/>
					
						<rect x="114.3" y="577.2" transform="matrix(0.8524 -0.5228 0.5228 0.8524 -292.4734 147.2492)" class="st1" width="0.6" height="29.2"/>
				</g>
				<g>
					<path class="st0" d="M101,583c5.1,8.3,10.2,16.5,15.4,24.8"/>
					
						<rect x="108.4" y="580.8" transform="matrix(0.85 -0.5268 0.5268 0.85 -297.3419 146.5769)" class="st1" width="0.6" height="29.2"/>
				</g>
				<g>
					<path class="st0" d="M95.1,586.7c5.2,8.2,10.3,16.5,15.5,24.7"/>
					
						<rect x="102.5" y="584.5" transform="matrix(0.8476 -0.5307 0.5307 0.8476 -302.2674 145.8937)" class="st1" width="0.6" height="29.2"/>
				</g>
				<g>
					<path class="st0" d="M89.1,590.5c5.2,8.2,10.4,16.4,15.6,24.6"/>
					
						<rect x="96.6" y="588.2" transform="matrix(0.8451 -0.5346 0.5346 0.8451 -307.2548 145.2046)" class="st1" width="0.6" height="29.2"/>
				</g>
			</g>
			<g>
				<g>
					<path class="st0" d="M83.2,594.3c15.3,23.9,30.6,47.8,45.8,71.7c-18.6,11.9-37,24.2-55.1,37c-16.3-23.1-32.7-46.3-49-69.4
						C44.1,620,63.5,606.9,83.2,594.3z"/>
					<path class="st1" d="M73.9,703.4l-49.4-69.9l0.2-0.2c19.1-13.5,38.7-26.7,58.3-39.3l0.3-0.2l46.2,72.2l-0.3,0.2
						c-18.6,11.8-37.1,24.3-55.1,37L73.9,703.4z M25.3,633.6L74,702.5c17.9-12.6,36.2-24.9,54.6-36.7l-45.5-71.2
						C63.7,607.2,44.2,620.3,25.3,633.6z"/>
				</g>
				<g>
					<path class="st0" d="M77.3,598.1c5.3,8.2,10.5,16.3,15.8,24.5"/>
					
						<rect x="84.9" y="595.7" transform="matrix(0.8401 -0.5424 0.5424 0.8401 -317.4216 143.8166)" class="st1" width="0.6" height="29.2"/>
				</g>
				<g>
					<path class="st0" d="M71.4,601.9c5.3,8.1,10.6,16.3,15.9,24.4"/>
					
						<rect x="79.1" y="599.5" transform="matrix(0.8376 -0.5463 0.5463 0.8376 -322.5976 143.1155)" class="st1" width="0.6" height="29.1"/>
				</g>
				<g>
					<path class="st0" d="M65.6,605.7c5.3,8.1,10.7,16.2,16,24.3"/>
					
						<rect x="73.3" y="603.3" transform="matrix(0.835 -0.5502 0.5502 0.835 -327.8434 142.4176)" class="st1" width="0.6" height="29.1"/>
				</g>
				<g>
					<path class="st0" d="M59.7,609.6c5.4,8.1,10.8,16.2,16.1,24.3"/>
					
						<rect x="67.5" y="607.2" transform="matrix(0.8325 -0.5541 0.5541 0.8325 -333.146 141.712)" class="st1" width="0.6" height="29.1"/>
				</g>
				<g>
					<path class="st0" d="M53.9,613.6c7.4,11.1,14.9,22.2,22.3,33.2"/>
					
						<rect x="64.7" y="610.1" transform="matrix(0.8299 -0.5579 0.5579 0.8299 -340.5292 143.4813)" class="st1" width="0.6" height="40"/>
				</g>
				<g>
					<path class="st0" d="M48,617.5c5.5,8,10.9,16.1,16.4,24.1"/>
					
						<rect x="55.9" y="615" transform="matrix(0.8273 -0.5618 0.5618 0.8273 -343.962 140.3146)" class="st1" width="0.6" height="29.1"/>
				</g>
				<g>
					<path class="st0" d="M42.2,621.5c5.5,8,11,16,16.5,24"/>
					
						<rect x="50.2" y="618.9" transform="matrix(0.8247 -0.5656 0.5656 0.8247 -349.4626 139.6131)" class="st1" width="0.6" height="29.1"/>
				</g>
				<g>
					<path class="st0" d="M36.4,625.5c5.5,8,11.1,16,16.6,23.9"/>
					
						<rect x="44.4" y="622.9" transform="matrix(0.822 -0.5694 0.5694 0.822 -355.0298 138.9147)" class="st1" width="0.6" height="29.1"/>
				</g>
				<g>
					<path class="st0" d="M30.7,629.5c5.6,8,11.1,15.9,16.7,23.9"/>
					
						<rect x="38.7" y="626.9" transform="matrix(0.8194 -0.5733 0.5733 0.8194 -360.665 138.221)" class="st1" width="0.6" height="29.1"/>
				</g>
			</g>
		</g>
		<g>
			<g>
				<g>
					<path d="M84.8,677.9c1.1-0.1,3.3-0.5,5.1-1.7c3.4-2.3,3-5,2-6.6c-1.8-2.6-5-2.1-7.6-0.3c-0.5,0.3-1,0.7-1.5,1
						c-0.4-0.6-0.9-1.3-1.3-1.9c0.5-0.3,1-0.7,1.5-1c1.9-1.3,3.7-3.9,2.2-6.1c-1-1.5-2.9-2.1-5.3-0.5c-1.6,1.1-2.6,2.7-3.1,3.9
						c-0.6-0.5-1.3-0.9-1.9-1.4c0.5-1.4,2-3.5,4.2-4.9c3.9-2.6,7.1-1.6,8.6,0.7c1.3,1.9,1.2,4.4-0.7,6.8c0,0,0,0,0,0.1
						c2.7-1.2,5.8-0.7,7.6,1.9c2,3,1.3,7.2-3.3,10.4c-2.2,1.5-4.5,2.1-5.9,2.2C85.2,679.5,85,678.7,84.8,677.9z"/>
				</g>
				<g>
					<path d="M101.4,670.9c-0.3-0.5-0.7-1-1-1.6c0.3-1.1,0.5-2.2,0.8-3.3c2-7.9,2.7-11.8,0.8-14.6c-1.2-1.9-3.4-3-6.3-1.1
						c-1.8,1.2-2.7,3-3.1,4.4c-0.7-0.4-1.4-0.8-2-1.2c0.6-2,2.1-4.1,4.3-5.6c4.3-2.8,7.9-1.2,9.6,1.5c2.3,3.5,1.4,8-0.2,14.5
						c-0.2,0.8-0.4,1.6-0.6,2.4c0,0,0,0,0,0.1c2.9-1.9,5.9-3.8,8.8-5.8c0.5,0.7,0.9,1.4,1.4,2.1
						C109.7,665.5,105.6,668.2,101.4,670.9z"/>
				</g>
			</g>
			<g>
				<g>
					<path d="M140.9,641.5c1.1,0,3.3-0.4,5.2-1.5c3.5-2.1,3.2-4.9,2.2-6.5c-1.7-2.7-4.9-2.3-7.5-0.7c-0.5,0.3-1,0.6-1.5,0.9
						c-0.4-0.6-0.8-1.3-1.2-1.9c0.5-0.3,1-0.6,1.5-0.9c2-1.2,3.9-3.7,2.5-6c-0.9-1.5-2.8-2.3-5.3-0.7c-1.6,1-2.7,2.6-3.2,3.7
						c-0.6-0.5-1.3-1-1.9-1.4c0.6-1.4,2.2-3.4,4.4-4.7c4-2.4,7.2-1.3,8.6,1.1c1.2,2,1,4.4-1,6.8c0,0,0,0,0,0.1
						c2.8-1,5.8-0.5,7.5,2.2c1.9,3.1,1,7.3-3.8,10.2c-2.2,1.4-4.6,1.9-6,1.9C141.2,643.2,141.1,642.3,140.9,641.5z"/>
				</g>
				<g>
					<path d="M156.6,631.9c1.1,0,3.3-0.3,5.2-1.4c3.5-2.1,3.3-4.9,2.3-6.4c-1.6-2.7-4.9-2.4-7.5-0.8c-0.5,0.3-1,0.6-1.5,0.9
						c-0.4-0.7-0.8-1.3-1.2-2c0.5-0.3,1-0.6,1.5-0.9c2-1.2,3.9-3.7,2.6-6c-0.9-1.6-2.8-2.3-5.3-0.8c-1.6,1-2.8,2.6-3.3,3.7
						c-0.6-0.5-1.2-1-1.9-1.5c0.6-1.4,2.2-3.4,4.4-4.7c4-2.4,7.2-1.2,8.5,1.2c1.2,2,0.9,4.4-1,6.8c0,0,0,0,0,0.1
						c2.8-1,5.8-0.4,7.4,2.3c1.8,3.1,0.9,7.3-3.9,10.1c-2.2,1.3-4.6,1.8-6,1.8C157,633.6,156.8,632.8,156.6,631.9z"/>
				</g>
			</g>
			<g>
				<g>
					<path d="M198.5,607.8c1.1,0.1,3.3-0.2,5.2-1.2c3.5-1.9,3.5-4.7,2.5-6.4c-1.5-2.8-4.8-2.5-7.5-1.1c-0.5,0.3-1,0.6-1.5,0.9
						c-0.4-0.7-0.7-1.3-1.1-2c0.5-0.3,1-0.6,1.5-0.9c2-1.1,4-3.5,2.8-5.9c-0.9-1.6-2.7-2.4-5.3-1c-1.7,0.9-2.9,2.5-3.4,3.6
						c-0.6-0.5-1.2-1-1.8-1.5c0.7-1.4,2.3-3.3,4.6-4.5c4.1-2.2,7.2-0.9,8.5,1.5c1.1,2,0.8,4.5-1.3,6.7c0,0,0,0,0,0.1
						c2.8-0.9,5.8-0.2,7.4,2.6c1.7,3.2,0.7,7.3-4.2,10c-2.3,1.3-4.7,1.7-6,1.6C198.8,609.5,198.6,608.6,198.5,607.8z"/>
				</g>
				<g>
					<path d="M224.2,597.9c-1-1.8-1.9-3.6-2.9-5.4c-3.2,1.7-6.4,3.4-9.6,5.1c-0.3-0.6-0.6-1.2-1-1.8c0.8-5.9,1.6-11.8,2.4-17.7
						c1-0.5,2-1.1,3-1.6c2.2,4.1,4.4,8.3,6.5,12.4c1-0.5,1.9-1,2.9-1.5c0.4,0.7,0.7,1.4,1.1,2.1c-1,0.5-1.9,1-2.9,1.5
						c1,1.8,1.9,3.6,2.9,5.4C225.9,596.9,225.1,597.4,224.2,597.9z M220.2,590.3c-1.2-2.2-2.4-4.4-3.5-6.7c-0.6-1-1.1-2.1-1.6-3.2
						c0,0-0.1,0-0.1,0.1c0,1.5-0.1,2.6-0.2,3.9c-0.5,3.2-1,6.3-1.4,9.5c0,0,0,0,0,0.1C215.7,592.7,217.9,591.5,220.2,590.3z"/>
				</g>
			</g>
			<g>
				<g>
					<path d="M257.4,576.9c1,0.1,3.3,0,5.2-1c3.6-1.8,3.7-4.6,2.8-6.2c-1.4-2.8-4.7-2.8-7.4-1.4c-0.5,0.3-1.1,0.5-1.6,0.8
						c-0.3-0.7-0.7-1.4-1-2.1c0.5-0.3,1.1-0.5,1.6-0.8c2.1-1,4.2-3.3,3-5.7c-0.8-1.6-2.6-2.5-5.2-1.2c-1.7,0.8-3,2.4-3.6,3.4
						c-0.6-0.5-1.2-1.1-1.7-1.6c0.7-1.3,2.5-3.2,4.8-4.3c4.2-2,7.2-0.6,8.4,1.9c1,2.1,0.6,4.5-1.6,6.7c0,0,0,0,0,0.1
						c2.8-0.8,5.8,0.1,7.2,2.9c1.6,3.3,0.3,7.4-4.6,9.8c-2.3,1.1-4.7,1.4-6.1,1.3C257.6,578.5,257.5,577.7,257.4,576.9z"/>
				</g>
				<g>
					<path d="M278.8,548.2c-2.7,1.3-5.4,2.6-8.1,3.8c0.6,1.9,1.1,3.8,1.7,5.6c0.5-0.3,0.9-0.6,1.7-0.9c1.6-0.8,3.4-1.2,5.1-1.1
						c2.1,0.1,4.3,1.3,5.5,3.8c1.9,4,0,8.5-4.5,10.7c-2.3,1.1-4.5,1.4-5.8,1.2c-0.1-0.8-0.2-1.6-0.3-2.4c1.1,0.1,3.1-0.1,5-1
						c2.7-1.3,4.2-4.1,2.9-6.8c-1.3-2.6-4-3.7-8.2-1.6c-1.2,0.6-2.1,1.2-2.8,1.6c-1.1-3.5-2.2-7-3.3-10.4c3.4-1.6,6.8-3.2,10.2-4.8
						C278,546.7,278.4,547.4,278.8,548.2z"/>
				</g>
			</g>
			<g>
				<g>
					<path d="M317.6,548.7c1,0.1,3.3,0.1,5.3-0.8c3.7-1.6,3.9-4.4,3.1-6.1c-1.3-2.9-4.5-3-7.3-1.8c-0.5,0.2-1.1,0.5-1.6,0.7
						c-0.3-0.7-0.6-1.4-0.9-2.1c0.5-0.2,1.1-0.5,1.6-0.7c2.1-0.9,4.3-3.1,3.3-5.6c-0.7-1.7-2.4-2.7-5.1-1.5
						c-1.7,0.8-3.1,2.2-3.7,3.3c-0.6-0.6-1.1-1.1-1.7-1.7c0.8-1.3,2.6-3.1,4.9-4.1c4.3-1.9,7.2-0.2,8.3,2.3c0.9,2.1,0.4,4.5-1.9,6.6
						c0,0,0,0,0,0.1c2.9-0.6,5.8,0.4,7.1,3.3c1.4,3.3,0,7.4-5.1,9.6c-2.4,1-4.8,1.2-6.1,1C317.7,550.4,317.7,549.5,317.6,548.7z"/>
				</g>
				<g>
					<path d="M339.5,520.9c-0.6,0.2-1.4,0.6-2.1,1c-4.3,2.7-5.3,6.9-4.4,10.6c0,0,0.1,0,0.1,0c0.5-1.7,1.8-3.6,4.2-4.6
						c3.8-1.6,7.6,0,9.3,4c1.6,3.8,0.4,8.5-4.1,10.3c-4.6,1.9-9-0.3-11.3-5.7c-1.7-4.1-1.6-8-0.3-10.9c1.1-2.5,3-4.5,5.6-6
						c0.8-0.5,1.5-0.8,2.1-1.1C338.8,519.3,339.2,520.1,339.5,520.9z M343.7,533.3c-1.2-3-3.8-4.1-6.4-2.9c-1.8,0.7-2.9,2.5-3.1,4.3
						c-0.1,0.4,0,0.9,0.2,1.4c1.5,3.4,4.2,5.3,7.2,4C344.1,539,344.9,536.3,343.7,533.3z"/>
				</g>
			</g>
			<g>
				<g>
					<path d="M379,523.3c1,0.2,3.3,0.3,5.3-0.5c3.8-1.4,4-4.2,3.3-6c-1.2-3-4.4-3.2-7.2-2.1c-0.5,0.2-1.1,0.4-1.6,0.6
						c-0.3-0.7-0.6-1.4-0.8-2.1c0.5-0.2,1.1-0.4,1.6-0.6c2.1-0.8,4.5-2.9,3.5-5.4c-0.6-1.7-2.3-2.8-5.1-1.7
						c-1.8,0.7-3.2,2.1-3.8,3.1c-0.5-0.6-1.1-1.2-1.6-1.8c0.8-1.3,2.7-2.9,5.1-3.8c4.3-1.7,7.2,0.1,8.2,2.7c0.8,2.2,0.2,4.6-2.1,6.5
						c0,0,0,0,0,0.1c2.9-0.5,5.8,0.6,6.9,3.6c1.3,3.4-0.3,7.4-5.5,9.4c-2.4,0.9-4.8,1-6.2,0.7C379,525,379,524.2,379,523.3z"/>
				</g>
				<g>
					<path d="M403,493.9c0.2,0.6,0.5,1.3,0.7,1.9c-0.9,7.6-1.7,15.3-2.5,22.9c-1,0.4-2,0.7-3,1.1c0.8-7.4,1.7-14.9,2.6-22.3
						c0,0,0,0,0-0.1c-3.6,1.3-7.2,2.6-10.8,4c-0.3-0.8-0.6-1.6-0.9-2.4C393.8,497.3,398.4,495.6,403,493.9z"/>
				</g>
			</g>
			<g>
				<g>
					<path d="M441.4,500.8c1,0.2,3.3,0.4,5.3-0.3c3.8-1.3,4.2-4,3.6-5.8c-1-3-4.2-3.4-7.1-2.4c-0.6,0.2-1.1,0.4-1.7,0.6
						c-0.2-0.7-0.5-1.5-0.7-2.2c0.6-0.2,1.1-0.4,1.7-0.6c2.2-0.7,4.6-2.7,3.8-5.3c-0.6-1.7-2.2-2.9-5-2c-1.8,0.6-3.2,1.9-4,2.9
						c-0.5-0.6-1-1.2-1.5-1.9c0.9-1.2,2.9-2.8,5.3-3.6c4.4-1.5,7.2,0.4,8.1,3c0.7,2.2,0,4.6-2.4,6.4c0,0,0,0,0,0.1
						c2.9-0.4,5.8,0.9,6.7,3.9c1.1,3.5-0.6,7.4-5.9,9.1c-2.5,0.8-4.9,0.8-6.2,0.4C441.4,502.5,441.4,501.6,441.4,500.8z"/>
				</g>
				<g>
					<path d="M457.1,493.3c-0.9-2.7,0.2-5.2,2.5-7.2c0,0,0-0.1-0.1-0.1c-2.8-0.3-4.5-1.9-5.1-3.7c-1.1-3.4,1.1-6.7,5.1-8
						c4.3-1.4,7.3,0.6,8.2,3.3c0.6,1.8,0.3,4.1-2.1,6.2c0,0,0,0.1,0,0.1c3.1,0.2,5.4,1.6,6.2,4.2c1.2,3.8-1.3,7.3-5.6,8.7
						C461.8,498.2,458.1,496.4,457.1,493.3z M469,489.4c-0.8-2.6-3.1-3.3-6.4-3.2c-2.4,1.6-3.2,3.7-2.6,5.7c0.6,2.2,2.9,3.6,5.7,2.7
						C468.5,493.8,469.7,491.6,469,489.4z M457.3,481.1c0.7,2.2,2.7,2.8,5.5,2.6c1.7-1.2,2.8-3,2.2-5c-0.5-1.7-2.2-3.2-4.9-2.3
						C457.6,477.2,456.7,479.3,457.3,481.1z"/>
				</g>
			</g>
			<g>
				<g>
					<path d="M504.8,481.1c1,0.3,3.2,0.6,5.3,0c3.9-1.1,4.4-3.8,3.9-5.7c-0.9-3.1-4.1-3.6-7-2.8c-0.6,0.2-1.1,0.3-1.7,0.5
						c-0.2-0.7-0.4-1.5-0.6-2.2c0.6-0.2,1.1-0.3,1.7-0.5c2.2-0.6,4.7-2.5,4-5.1c-0.5-1.8-2.1-3-4.9-2.2c-1.8,0.5-3.3,1.8-4.1,2.7
						c-0.5-0.6-0.9-1.3-1.4-1.9c0.9-1.2,3-2.7,5.4-3.4c4.5-1.3,7.2,0.8,7.9,3.4c0.6,2.3-0.2,4.6-2.7,6.3c0,0,0,0,0,0.1
						c2.9-0.2,5.7,1.2,6.6,4.2c1,3.5-1,7.3-6.3,8.8c-2.5,0.7-4.9,0.6-6.2,0.2C504.7,482.8,504.7,482,504.8,481.1z"/>
				</g>
				<g>
					<path d="M523.8,477.3c0.7-0.1,1.4-0.4,2.4-0.8c1.7-0.7,3.2-1.9,4.1-3.4c1.1-1.7,1.7-3.9,1.4-6.6c0,0-0.1,0-0.1,0
						c-0.9,1.8-2.4,3.2-4.7,3.8c-4,1.1-7.4-1.2-8.5-4.9c-1.1-4.2,1-8.6,5.6-9.9c4.7-1.2,8.5,1.7,9.9,7.3c1.3,4.8,0.5,8.7-1.2,11.3
						c-1.3,2.1-3.4,3.8-5.7,4.7c-1.1,0.5-2,0.8-2.7,0.9C524.2,478.9,524,478.1,523.8,477.3z M521.5,464.3c0.7,2.7,3,4.2,5.6,3.5
						c2-0.5,3.4-1.9,3.8-3.5c0.1-0.3,0.1-0.7,0-1.2c-1-3.8-3.2-6.3-6.4-5.4C521.9,458.5,520.7,461.2,521.5,464.3z"/>
				</g>
			</g>
			<g>
				<g>
					<path d="M570.8,467.6c-0.5-2-0.9-4-1.4-6c-3.5,0.8-7,1.7-10.5,2.5c-0.2-0.7-0.3-1.3-0.5-2c2.2-5.5,4.5-11.1,6.8-16.6
						c1.1-0.3,2.2-0.5,3.3-0.8c1.1,4.6,2.1,9.2,3.2,13.8c1.1-0.2,2.1-0.5,3.2-0.7c0.2,0.8,0.4,1.6,0.5,2.4c-1.1,0.2-2.1,0.5-3.2,0.7
						c0.5,2,0.9,4,1.4,6C572.7,467.2,571.8,467.4,570.8,467.6z M568.8,459.2c-0.6-2.5-1.2-4.9-1.7-7.4c-0.3-1.2-0.5-2.3-0.7-3.5
						c0,0-0.1,0-0.1,0c-0.4,1.5-0.7,2.5-1.1,3.7c-1.3,3-2.5,5.9-3.8,8.9c0,0,0,0,0,0.1C563.9,460.4,566.4,459.8,568.8,459.2z"/>
				</g>
				<g>
					<path d="M591.7,450.9c1.6,7.6-0.3,12.4-5.3,13.5c-4.4,1-8.3-2.4-10.1-9.7c-1.7-7.4,0.7-12.3,5.3-13.4
						C586.5,440.3,590.2,443.8,591.7,450.9z M579.4,454c1.3,5.8,3.9,8.6,6.7,8c3.1-0.7,3.8-4.6,2.6-10.3c-1.2-5.5-3.4-8.8-6.7-8
						C579.3,444.3,578.1,448,579.4,454z"/>
				</g>
			</g>
			<g>
				<g>
					<path d="M636.6,453.7c-0.4-2-0.8-4.1-1.1-6.1c-3.5,0.7-7.1,1.3-10.6,2c-0.1-0.7-0.3-1.3-0.4-2c2.5-5.4,5-10.8,7.5-16.3
						c1.1-0.2,2.3-0.4,3.4-0.6c0.9,4.6,1.7,9.3,2.6,13.9c1.1-0.2,2.1-0.4,3.2-0.6c0.1,0.8,0.3,1.6,0.4,2.4c-1.1,0.2-2.1,0.4-3.2,0.6
						c0.4,2,0.8,4.1,1.1,6.1C638.6,453.3,637.6,453.5,636.6,453.7z M635.1,445.2c-0.5-2.5-0.9-5-1.4-7.5c-0.2-1.2-0.4-2.4-0.6-3.5
						c0,0-0.1,0-0.1,0c-0.5,1.4-0.9,2.5-1.3,3.7c-1.4,2.9-2.8,5.8-4.2,8.7c0,0,0,0,0,0.1C630,446.2,632.5,445.7,635.1,445.2z"/>
				</g>
				<g>
					<path d="M648.3,431.3C648.3,431.3,648.3,431.3,648.3,431.3c-1.3,1-2.5,1.9-3.7,2.8c-0.3-0.7-0.7-1.5-1-2.2
						c1.5-1.2,3.1-2.4,4.6-3.5c0.9-0.2,1.8-0.3,2.7-0.5c1.3,7.5,2.6,15,3.9,22.5c-1,0.2-2,0.3-3,0.5
						C650.7,444.4,649.5,437.9,648.3,431.3z"/>
				</g>
			</g>
			<g>
				<g>
					<path d="M701.7,443.1c-0.3-2.1-0.6-4.1-0.9-6.2c-3.6,0.5-7.2,1-10.7,1.5c-0.1-0.7-0.2-1.3-0.3-2c2.7-5.3,5.5-10.6,8.3-15.9
						c1.1-0.2,2.3-0.3,3.4-0.5c0.6,4.7,1.3,9.4,1.9,14.1c1.1-0.1,2.2-0.3,3.2-0.4c0.1,0.8,0.2,1.6,0.3,2.4c-1.1,0.1-2.2,0.3-3.2,0.4
						c0.3,2.1,0.6,4.1,0.9,6.2C703.6,442.8,702.6,442.9,701.7,443.1z M700.5,434.5c-0.4-2.5-0.7-5-1.1-7.6c-0.2-1.2-0.3-2.4-0.4-3.6
						c0,0-0.1,0-0.1,0c-0.5,1.4-1,2.5-1.5,3.6c-1.5,2.8-3.1,5.7-4.6,8.5c0,0,0,0,0,0.1C695.4,435.2,697.9,434.9,700.5,434.5z"/>
				</g>
				<g>
					<path d="M710.2,441.9c-0.1-0.6-0.2-1.3-0.3-1.9c0.7-0.9,1.4-1.8,2.1-2.7c5.2-6.3,7.5-9.5,7.1-13c-0.3-2.3-1.7-4.3-5.2-3.8
						c-2.1,0.3-3.7,1.6-4.7,2.6c-0.4-0.7-0.9-1.4-1.3-2c1.4-1.5,3.6-2.8,6.3-3.2c5-0.7,7.6,2.4,8,5.7c0.5,4.2-2.2,8-6.5,13.2
						c-0.5,0.6-1.1,1.3-1.6,1.9c0,0,0,0,0,0.1c3.5-0.5,6.9-0.9,10.4-1.3c0.1,0.8,0.2,1.7,0.3,2.5C720,440.6,715.1,441.2,710.2,441.9
						z"/>
				</g>
			</g>
			<g>
				<g>
					<path d="M769.7,435.2c-0.2-2.1-0.4-4.1-0.6-6.2c-3.6,0.3-7.2,0.7-10.8,1c-0.1-0.7-0.1-1.4-0.2-2c3-5.2,6-10.4,9-15.5
						c1.1-0.1,2.3-0.2,3.4-0.3c0.4,4.7,0.9,9.4,1.3,14.2c1.1-0.1,2.2-0.2,3.3-0.3c0.1,0.8,0.1,1.6,0.2,2.4c-1.1,0.1-2.2,0.2-3.3,0.3
						c0.2,2.1,0.4,4.1,0.6,6.2C771.7,435,770.7,435.1,769.7,435.2z M768.9,426.5c-0.2-2.5-0.5-5.1-0.7-7.6c-0.1-1.2-0.2-2.4-0.2-3.6
						c0,0-0.1,0-0.1,0c-0.6,1.4-1.1,2.4-1.6,3.5c-1.7,2.8-3.3,5.5-5,8.3c0,0,0,0,0,0.1C763.8,427,766.3,426.8,768.9,426.5z"/>
				</g>
				<g>
					<path d="M778.7,430.8c0.9,0.5,3.1,1.2,5.3,1c4-0.3,5.1-3,4.9-4.8c-0.3-3.2-3.3-4.3-6.4-4.1c-0.6,0-1.2,0.1-1.8,0.1
						c-0.1-0.8-0.1-1.5-0.2-2.3c0.6,0,1.2-0.1,1.8-0.1c2.3-0.2,5.1-1.6,4.9-4.3c-0.1-1.8-1.5-3.3-4.4-3.1c-1.9,0.2-3.6,1.1-4.6,1.9
						c-0.3-0.7-0.7-1.4-1-2.2c1.2-1,3.5-2.1,6-2.3c4.6-0.4,7,2.1,7.2,4.9c0.2,2.4-1.1,4.5-3.9,5.7c0,0,0,0,0,0.1
						c2.9,0.3,5.4,2.3,5.7,5.5c0.3,3.7-2.4,7.1-7.9,7.5c-2.6,0.2-5-0.4-6.2-1C778.3,432.4,778.5,431.6,778.7,430.8z"/>
				</g>
			</g>
			<g>
				<g>
					<path d="M840.2,430.4c-0.1-2.1-0.2-4.2-0.3-6.2c-3.6,0.2-7.3,0.3-10.9,0.5c0-0.7-0.1-1.4-0.1-2c3.2-5,6.5-10.1,9.8-15.1
						c1.2-0.1,2.3-0.1,3.5-0.1c0.2,4.7,0.4,9.5,0.6,14.2c1.1,0,2.2-0.1,3.3-0.1c0,0.8,0.1,1.6,0.1,2.4c-1.1,0-2.2,0.1-3.3,0.1
						c0.1,2.1,0.2,4.2,0.3,6.2C842.2,430.3,841.2,430.3,840.2,430.4z M839.8,421.7c-0.1-2.5-0.2-5.1-0.3-7.6c-0.1-1.2-0.1-2.4,0-3.6
						c0,0-0.1,0-0.1,0c-0.7,1.4-1.2,2.4-1.8,3.5c-1.8,2.7-3.6,5.4-5.4,8.1c0,0,0,0,0,0.1C834.7,421.9,837.3,421.8,839.8,421.7z"/>
				</g>
				<g>
					<path d="M858.6,429.7c-0.1-2.1-0.1-4.2-0.2-6.2c-3.6,0.1-7.3,0.2-10.9,0.4c0-0.7-0.1-1.4-0.1-2c3.3-5,6.6-10,10-15
						c1.2,0,2.3-0.1,3.5-0.1c0.1,4.7,0.3,9.5,0.4,14.2c1.1,0,2.2-0.1,3.3-0.1c0,0.8,0,1.6,0.1,2.4c-1.1,0-2.2,0.1-3.3,0.1
						c0.1,2.1,0.1,4.2,0.2,6.2C860.6,429.6,859.6,429.7,858.6,429.7z M858.4,421c-0.1-2.5-0.2-5.1-0.2-7.6c0-1.2,0-2.4,0-3.6
						c0,0-0.1,0-0.1,0c-0.7,1.4-1.2,2.4-1.9,3.4c-1.8,2.7-3.7,5.3-5.5,8c0,0,0,0,0,0.1C853.2,421.2,855.8,421.1,858.4,421z"/>
				</g>
			</g>
		</g>
	</g>
	<g>
		
			<rect x="390.2" y="112.5" transform="matrix(3.139985e-03 -1 1 3.139985e-03 346.8635 575.9496)" class="st7" width="144.2" height="3"/>
	</g>
</g>
</svg>
