<?xml version="1.0" encoding="utf-8"?>
<!-- Generator: Adobe Illustrator 19.1.0, SVG Export Plug-In . SVG Version: 6.00 Build 0)  -->
<svg version="1.1" id="Capa_1" xmlns="http://www.w3.org/2000/svg" xmlns:xlink="http://www.w3.org/1999/xlink" x="0px" y="0px"
	 viewBox="-453.4 -119.3 800 800" enable-background="new -453.4 -119.3 800 800" xml:space="preserve">
<g>
	<g>
		
			<circle fill="none" stroke="#2D2932" stroke-width="2" stroke-linecap="round" stroke-linejoin="round" stroke-dasharray="0,7.871" cx="-50.581" cy="295.757" r="313.241"/>
	</g>
	<g>
		<path fill="#FAB587" d="M-186.817,436.854c12.308,21.984,72.852,94.07,72.852,94.07l-13.017,182.913H22.03l-5.404-181.048
			c0,0,26.815-41.663,26.815-77.473c0-40.435-1.215-163.682-1.51-212.983c-0.113-19.576-6.198-26.223-14.644-26.52
			c-7.112-0.244-12.605,4.54-13.665,16.209c-3.856,42.604-10.549,84.101-10.549,84.101s-0.847-94.321,0.178-129.469
			c0.406-13.786-3.415-20.211-14.837-21.989c-13.187-2.049-19.46,3.71-20.967,16.625c-6.581,56.34-12.726,134.833-12.726,134.833
			s-1.69-112.914-3.635-156.426c-0.941-21.165-7.322-25.361-19.63-25.204c-11.565,0.153-18.916,4.982-18.916,25.204
			c0,58.026-2.657,156.426-2.657,156.426s-6.311-91.454-9.668-126.301c-1.603-16.606-10.239-20.704-18.695-20.458
			c-8.456,0.246-16.733,4.837-17.614,21.982c-1.756,34.282-7.77,191.071-7.77,191.071s-16.504-30.748-25.373-47.264
			c-8.866-16.521-47.296-17.434-42.68,1.467C-202.913,373.49-199.125,414.88-186.817,436.854z"/>
		<path opacity="0.3" fill="#FFFFFF" d="M-205.009,369.081c11.042-6.897,21.589-6.307,21.589-6.307s-6.302-26.813-13.955-29.89
			c-9.343-3.756-14.542,3.735-14.542,3.735S-205.631,365.335-205.009,369.081z"/>
		<path opacity="0.3" fill="#FFFFFF" d="M-205.009,369.081c7.456-4.714,15.873-5.891,15.873-5.891s-7.322-4.958-17.183-0.622
			C-205.733,364.743-205.311,367.053-205.009,369.081z"/>
		<path opacity="0.3" fill="#FFFFFF" d="M-103.819,203.207c0.161-1.686,0.253-3.425,0.253-5.207c0-15.811-6.555-24.543-14.65-24.543
			c-8.09,0-14.652,8.732-14.652,24.543c0,1.782,0.098,3.521,0.255,5.207c0,0,0.796-0.391,2.4-0.854
			c2.31-0.671,6.294-1.491,11.998-1.491c5.275,0,9.08,0.701,11.445,1.334C-104.796,202.727-103.819,203.207-103.819,203.207z"/>
		<path opacity="0.3" fill="#FFFFFF" d="M-119.828,197.053c-8.092,0-11.989,5.763-10.386,5.3c2.31-0.671,6.294-1.491,11.998-1.491
			c5.275,0,9.08,0.701,11.445,1.334C-104.796,202.727-111.735,197.053-119.828,197.053z"/>
		<path opacity="0.3" fill="#FFFFFF" d="M-53.42,167.754c0.161-1.69,0.261-3.432,0.261-5.207c0-15.816-6.759-24.548-15.092-24.548
			c-8.335,0-15.094,8.732-15.094,24.548c0,1.775,0.098,3.517,0.263,5.207c0,0,0.817-0.397,2.467-0.858
			c2.378-0.671,6.483-1.486,12.363-1.486c5.434,0,9.348,0.696,11.789,1.329C-54.431,167.27-53.42,167.754-53.42,167.754z"/>
		<path opacity="0.3" fill="#FFFFFF" d="M-69.911,161.6c-8.332,0-12.352,5.757-10.702,5.296c2.378-0.671,6.483-1.486,12.363-1.486
			c5.434,0,9.348,0.696,11.789,1.329C-54.431,167.27-61.578,161.6-69.911,161.6z"/>
		<path opacity="0.3" fill="#FFFFFF" d="M-0.379,197.508c0.165-1.695,0.261-3.427,0.261-5.213c0-15.816-6.759-24.541-15.094-24.541
			c-8.331,0-15.092,8.725-15.092,24.541c0,1.786,0.1,3.518,0.261,5.213c0,0,0.82-0.397,2.472-0.858
			c2.38-0.675,6.479-1.486,12.359-1.486c5.436,0,9.35,0.696,11.789,1.325C-1.386,197.019-0.379,197.508-0.379,197.508z"/>
		<path opacity="0.3" fill="#FFFFFF" d="M-16.87,191.354c-8.333,0-12.352,5.757-10.7,5.296c2.38-0.675,6.479-1.486,12.359-1.486
			c5.436,0,9.35,0.696,11.789,1.325C-1.386,197.019-8.538,191.354-16.87,191.354z"/>
		<path opacity="0.3" fill="#FFFFFF" d="M38.179,240.462c0.117-1.219,0.187-2.467,0.187-3.746c0-11.395-4.863-17.68-10.868-17.68
			c-5.997,0-10.872,6.285-10.872,17.68c0,1.278,0.074,2.527,0.193,3.746c0,0,0.588-0.282,1.777-0.618
			c1.718-0.48,4.667-1.068,8.902-1.068c3.911,0,6.736,0.501,8.49,0.956C37.457,240.118,38.179,240.462,38.179,240.462z"/>
		<path opacity="0.3" fill="#FFFFFF" d="M26.302,236.03c-6.001,0-8.895,4.149-7.706,3.814c1.718-0.48,4.667-1.068,8.902-1.068
			c3.911,0,6.736,0.501,8.49,0.956C37.457,240.118,32.307,236.03,26.302,236.03z"/>
		<path fill="#FCC89C" d="M37.947,270.343c0,0-4.542,1.011-10.157,1.011c-5.602,0-10.154-1.011-10.154-1.011
			s4.553-1.007,10.154-1.007C33.405,269.337,37.947,270.343,37.947,270.343z"/>
		<path fill="#FCC89C" d="M37.44,275.614c0,0-4.544,1.011-10.152,1.011s-10.157-1.011-10.157-1.011s4.549-1.013,10.157-1.013
			S37.44,275.614,37.44,275.614z"/>
		<path fill="#FCC89C" d="M-4.083,251.211c0,0-5.457,1.011-12.197,1.011c-6.731,0-12.193-1.011-12.193-1.011
			s5.462-1.011,12.193-1.011C-9.54,250.2-4.083,251.211-4.083,251.211z"/>
		<path fill="#FCC89C" d="M-4.694,256.475c0,0-5.462,1.017-12.193,1.017c-6.736,0-12.195-1.017-12.195-1.017
			s5.459-1.007,12.195-1.007C-10.156,255.468-4.694,256.475-4.694,256.475z"/>
		<path fill="#FCC89C" d="M-55.756,241.473c0,0-5.457,1.011-12.189,1.011c-6.736,0-12.197-1.011-12.197-1.011
			s5.462-1.011,12.197-1.011C-61.213,240.462-55.756,241.473-55.756,241.473z"/>
		<path fill="#FCC89C" d="M-56.367,246.747c0,0-5.455,1.007-12.189,1.007c-6.733,0-12.195-1.007-12.195-1.007
			s5.462-1.011,12.195-1.011C-61.823,245.736-56.367,246.747-56.367,246.747z"/>
		<path fill="#FCC89C" d="M-105.719,257.488c0,0-5.457,1.015-12.191,1.015c-6.731,0-12.193-1.015-12.193-1.015
			s5.462-1.013,12.193-1.013C-111.176,256.475-105.719,257.488-105.719,257.488z"/>
		<path fill="#FCC89C" d="M-106.329,262.76c0,0-5.457,1.009-12.191,1.009c-6.734,0-12.195-1.009-12.195-1.009
			s5.462-1.013,12.195-1.013C-111.786,261.747-106.329,262.76-106.329,262.76z"/>
	</g>
	<g>
		<path fill="#BF4235" d="M-10.734,322.895c-28.743,0-47.301,31.861-47.301,31.861s-18.559-31.861-47.305-31.861
			c-28.746,0-52.049,23.303-52.049,52.046c0,56.984,99.354,115.127,99.354,115.127s99.349-58.143,99.349-115.127
			C41.315,346.198,18.012,322.895-10.734,322.895z"/>
		<path fill="#AA3A2D" d="M38.873,359.16c-2.346,14.159-6.846,27.956-13.616,40.741c-13.739,25.919-36.913,52.565-66.709,59.36
			c-11.189,2.548-25.408,4.444-36.278-0.414c-7.56-3.379-14.622-7.978-21.685-12.259c-2.68-1.627-22.76-14.648-36.354-21.456
			c29.228,36.547,77.734,64.936,77.734,64.936s99.349-58.143,99.349-115.127C41.315,369.442,40.455,364.138,38.873,359.16z"/>
		<path fill="#C04E41" d="M-50.192,348.337c3.841-1.773,7.644-3.678,11.433-5.557c10.341-5.122,19.876-11.662,31.419-13.73
			c9.517-1.707,19.833,0.423,28.811,5.045c-8.861-6.999-20.033-11.199-32.205-11.199c-21.507,0-37.314,17.837-43.905,26.82
			C-53.286,349.526-51.817,349.086-50.192,348.337z"/>
		<path fill="#C04E41" d="M-68.391,341.824c1.446,1.599,2.816,3.087,4.209,4.34c-7.696-9.433-22.212-23.269-41.158-23.269
			c-14.002,0-26.707,5.542-36.065,14.537c1.266-0.35,19.434-7.084,35.965-6.854C-87.82,330.814-71.72,338.129-68.391,341.824z"/>
		<polyline fill="none" stroke="#FFFFFF" stroke-width="0.8626" stroke-miterlimit="10" points="-162.155,397.226 -130.672,397.226 
			-119.624,378.998 -113.99,397.226 -92.004,397.226 -92.004,400.543 -86.483,397.226 -76.816,397.226 -70.739,374.029 
			-68.807,414.902 -59.417,366.847 -58.034,397.226 -52.237,397.226 -47.266,388.39 -43.401,397.226 -35.663,390.872 
			-32.905,397.226 -24.078,390.872 -16.132,409.933 -12.885,397.226 0.788,397.226 11.839,377.342 18.464,409.379 23.437,383.971 
			26.75,397.226 46.082,397.226 		"/>
	</g>
	<circle fill="#3BBEBE" cx="206.349" cy="457.482" r="93.98"/>
	<circle fill="#A583BB" cx="208.399" cy="138.844" r="88.292"/>
	<g>
		<circle fill="#FFFFFF" cx="169.338" cy="459.598" r="9.824"/>
		<path fill="#FFFFFF" d="M211.703,456.637c3.321-0.382,5.402,1.057,5.402,10.411c0,5.906-1.779,6.275-4.561,6.364
			c-9.441,0.306-24.191,0-25.868,0c-3.873,0-6.897-4.353-6.897-11.7c0-8.591,9.449-7.712,9.906-7.712
			C191.488,453.999,207.295,457.15,211.703,456.637z"/>
		<path fill="#FFFFFF" d="M150.67,494.197c0,2.242-1.816,4.06-4.06,4.06l0,0c-2.242,0-4.06-1.818-4.06-4.06v-55.436
			c0-2.242,1.818-4.06,4.06-4.06l0,0c2.244,0,4.06,1.818,4.06,4.06V494.197z"/>
		<path fill="#FFFFFF" d="M273.015,494.197c0,2.242-1.818,4.06-4.058,4.06l0,0c-2.247,0-4.064-1.818-4.064-4.06v-29.574
			c0-2.242,1.818-4.058,4.064-4.058l0,0c2.24,0,4.058,1.816,4.058,4.058V494.197z"/>
		<path fill="#FFFFFF" d="M271.6,479.895c0,2.44-1.926,4.415-4.304,4.415H149.502c-2.378,0-4.304-1.975-4.304-4.415l0,0
			c0-2.436,1.926-4.413,4.304-4.413h117.794C269.674,475.482,271.6,477.459,271.6,479.895L271.6,479.895z"/>
		<path fill="#FFFFFF" d="M175.914,470.095c0,2.002-1.383,3.623-3.088,3.623h-16.419c-1.707,0-3.09-1.62-3.09-3.623l0,0
			c0-1.996,1.382-3.618,3.09-3.618h16.419C174.532,466.477,175.914,468.099,175.914,470.095L175.914,470.095z"/>
		<path fill="#FFFFFF" d="M257.479,460.565c0-6.268-59.137-7.861-59.137-7.861v35.492h59.137
			C257.479,488.196,257.479,466.829,257.479,460.565z"/>
		<g>
			<path fill="#FFFFFF" d="M194.626,469.25c-3.236,0-6.651-0.65-10.161-2.217c-2.406-1.072-3.483-3.89-2.412-6.294
				c1.072-2.404,3.892-3.485,6.296-2.412c11.545,5.151,20.772-5.568,21.158-6.026c1.692-2.009,4.695-2.276,6.71-0.592
				c2.011,1.684,2.291,4.667,0.616,6.689C213.173,462.82,204.811,469.25,194.626,469.25z"/>
		</g>
	</g>
	<g>
		<g>
			<path fill="#FFFFFF" d="M177.277,436.962l3.682-13.786l-7.078,2.438l-0.68-1.971l11.046-3.805l-3.68,13.786l7.479-2.578
				l0.68,1.97L177.277,436.962z"/>
		</g>
		<g>
			<path fill="#FFFFFF" d="M192.681,421.431l6.23-23.348l-11.981,4.13l-1.151-3.338l18.704-6.445l-6.23,23.348l12.662-4.366
				l1.151,3.336L192.681,421.431z"/>
		</g>
		<g>
			<path fill="#FFFFFF" d="M220.911,416.284l7.878-29.516l-15.149,5.22l-1.453-4.217l23.643-8.146l-7.876,29.512l16.011-5.517
				l1.454,4.217L220.911,416.284z"/>
		</g>
	</g>
	<circle fill="#BF4235" cx="-83.109" cy="-8.385" r="99.686"/>
	<g>
		<path fill="#FFFFFF" d="M-19.61-15.174c0,31.289-30.506,92.059-61.827,71.903c-24.785,20.7-61.825-40.614-61.825-71.903
			c0-31.287,12.526-50.656,61.825-41.397C-31.595-66.921-19.61-46.461-19.61-15.174z"/>
		<path fill="#FFFFFF" d="M-80.626-54.618h-2.587c0,0,5.173-14.584,3.92-25.618c-0.516-2.994,5.751-4.901,6.566-3.266
			C-73.003-68.658-80.626-54.618-80.626-54.618z"/>
		<path fill="#FFFFFF" d="M-49.589-78.66c0,0-2.82,9.821-10.418,13.544c-7.596,3.725-17.09-0.055-17.09-0.055
			s2.824-9.821,10.422-13.548C-59.081-82.439-49.589-78.66-49.589-78.66z"/>
		<path fill="#FFFFFF" d="M-78.702-63.914c0,0-8.008-0.31-12.265-5.398c-4.251-5.088-3.151-13.021-3.151-13.021
			s8.005,0.312,12.261,5.398C-77.602-71.847-78.702-63.914-78.702-63.914z"/>
	</g>
	<circle fill="#F6921E" cx="-339.061" cy="415.9" r="91.088"/>
	<g>
		<g>
			<path fill="#FFFFFF" d="M-380.823,457.478c-14.873,0-26.973-12.1-26.973-26.972c0-14.873,12.1-26.975,26.973-26.975
				c14.873,0,26.975,12.102,26.975,26.975C-353.848,445.378-365.95,457.478-380.823,457.478z M-380.823,407.826
				c-12.503,0-22.674,10.174-22.674,22.679c0,12.503,10.171,22.674,22.674,22.674c12.503,0,22.677-10.171,22.677-22.674
				C-358.146,418-368.32,407.826-380.823,407.826z"/>
		</g>
		<g>
			<path fill="#FFFFFF" d="M-380.823,451.867c-11.777,0-21.362-9.583-21.362-21.362c0-11.779,9.585-21.364,21.362-21.364
				c11.781,0,21.364,9.585,21.364,21.364C-359.458,442.284-369.042,451.867-380.823,451.867z M-380.823,410.34
				c-11.116,0-20.165,9.046-20.165,20.165c0,11.116,9.048,20.165,20.165,20.165c11.119,0,20.169-9.048,20.169-20.165
				C-360.654,419.386-369.704,410.34-380.823,410.34z"/>
		</g>
		<g>
			<circle fill="#FFFFFF" cx="-380.822" cy="430.505" r="4.53"/>
		</g>
		<g>
			<path fill="#FFFFFF" d="M-333.737,432.975c0,3.644-2.952,6.593-6.591,6.593c-3.64,0-6.591-2.949-6.591-6.593
				c0-3.637,2.952-6.593,6.591-6.593C-336.688,426.381-333.737,429.337-333.737,432.975z"/>
		</g>
		<g>
			<path fill="#FFFFFF" d="M-292.025,455.091c-14.875,0-26.974-12.1-26.974-26.973c0-14.873,12.099-26.973,26.974-26.973
				c14.875,0,26.975,12.1,26.975,26.973C-265.051,442.991-277.15,455.091-292.025,455.091z M-292.025,405.439
				c-12.505,0-22.677,10.174-22.677,22.679c0,12.503,10.172,22.679,22.677,22.679c12.501,0,22.677-10.176,22.677-22.679
				C-269.348,415.613-279.524,405.439-292.025,405.439z"/>
		</g>
		<g>
			<path fill="#FFFFFF" d="M-292.025,449.48c-11.779,0-21.36-9.583-21.36-21.362c0-11.781,9.581-21.362,21.36-21.362
				c11.775,0,21.362,9.581,21.362,21.362C-270.663,439.897-280.25,449.48-292.025,449.48z M-292.025,407.954
				c-11.116,0-20.167,9.046-20.167,20.165s9.05,20.165,20.167,20.165c11.119,0,20.163-9.046,20.163-20.165
				S-280.907,407.954-292.025,407.954z"/>
		</g>
		<g>
			<circle fill="#FFFFFF" cx="-292.023" cy="428.118" r="4.532"/>
		</g>
		<g>
			
				<rect x="-367.304" y="389.305" transform="matrix(0.7866 0.6175 -0.6175 0.7866 176.3882 314.3507)" fill="#FFFFFF" width="1.431" height="46.116"/>
		</g>
		<g>
			
				<rect x="-383.481" y="400.471" transform="matrix(0.2964 0.9551 -0.9551 0.2964 136.753 616.7545)" fill="#FFFFFF" width="66.572" height="1.431"/>
		</g>
		<g>
			
				<rect x="-327.423" y="365.284" transform="matrix(0.1187 0.9929 -0.9929 0.1187 100.4262 669.0903)" fill="#FFFFFF" width="1.431" height="51.669"/>
		</g>
		<g>
			
				<rect x="-320.712" y="385.681" transform="matrix(0.6989 0.7152 -0.7152 0.6989 199.8578 353.5603)" fill="#FFFFFF" width="1.428" height="56.944"/>
		</g>
		<g>
			
				<rect x="-325.152" y="400.904" transform="matrix(0.2197 0.9756 -0.9756 0.2197 159.2942 604.077)" fill="#FFFFFF" width="54.319" height="1.435"/>
		</g>
		<g>
			
				<rect x="-380.901" y="431.579" transform="matrix(0.9961 0.0881 -0.0881 0.9961 36.6723 33.4368)" fill="#FFFFFF" width="40.651" height="1.433"/>
		</g>
		<g>
			<path fill="#FFFFFF" d="M-347.006,370.255c0,0-1.376,0.35-3.438,0.745c-1.028,0.193-2.23,0.421-3.512,0.614
				c-0.646,0.1-1.308,0.219-1.981,0.289c-0.673,0.081-1.357,0.164-2.041,0.244c-1.368,0.13-2.756,0.684-4.026,0.641
				c-0.635-0.019-1.242-0.151-1.818-0.355c-0.569-0.189-1.113-0.425-1.605-0.694c-0.493-0.257-0.943-0.559-1.34-0.854
				c-0.397-0.285-0.741-0.607-1.021-0.871c-0.285-0.272-0.506-0.51-0.65-0.696c-0.151-0.183-0.229-0.282-0.229-0.282l0.04-0.716
				c0,0,0.087-0.087,0.257-0.253c0.17-0.168,0.414-0.38,0.726-0.618c0.31-0.234,0.684-0.514,1.113-0.752
				c0.429-0.248,0.909-0.497,1.431-0.699c0.52-0.21,1.079-0.386,1.671-0.508c0.593-0.14,1.211-0.202,1.845-0.153
				c1.266,0.104,2.586,0.811,3.928,1.092c0.671,0.157,1.34,0.316,1.998,0.471c0.663,0.147,1.31,0.337,1.934,0.509
				c1.257,0.336,2.425,0.697,3.425,1.002c2.002,0.624,3.332,1.127,3.332,1.127L-347.006,370.255z"/>
		</g>
		<g>
			<path fill="#FFFFFF" d="M-329.893,424.122c0,0-0.635,0.14-1.588,0.295c-0.476,0.074-1.028,0.164-1.618,0.238
				c-0.595,0.091-1.227,0.142-1.856,0.206c-0.631,0.049-1.272,0.263-1.858,0.25c-0.586-0.03-1.125-0.231-1.582-0.446
				c-0.459-0.234-0.837-0.484-1.096-0.72c-0.263-0.223-0.408-0.406-0.408-0.406l0.017-0.295c0,0,0.168-0.161,0.454-0.352
				c0.285-0.206,0.688-0.41,1.17-0.588c0.478-0.161,1.039-0.302,1.62-0.257c0.586,0.057,1.198,0.34,1.818,0.463
				c0.62,0.138,1.24,0.261,1.818,0.418c0.582,0.144,1.121,0.295,1.582,0.425c0.928,0.266,1.541,0.476,1.541,0.476L-329.893,424.122z
				"/>
		</g>
		<g>
			<path fill="#FFFFFF" d="M-338.988,444.095c0,0-0.635,0.14-1.586,0.297c-0.474,0.072-1.028,0.164-1.622,0.238
				c-0.59,0.087-1.223,0.14-1.854,0.204c-0.631,0.051-1.268,0.263-1.858,0.251c-0.586-0.028-1.123-0.232-1.58-0.446
				c-0.457-0.234-0.832-0.484-1.096-0.72c-0.261-0.223-0.408-0.406-0.408-0.406l0.017-0.295c0,0,0.166-0.162,0.452-0.355
				c0.287-0.204,0.69-0.408,1.172-0.584c0.48-0.164,1.038-0.304,1.625-0.259c0.582,0.055,1.193,0.34,1.813,0.463
				c0.618,0.138,1.24,0.261,1.818,0.418c0.582,0.142,1.121,0.297,1.58,0.425c0.928,0.263,1.546,0.476,1.546,0.476L-338.988,444.095z
				"/>
		</g>
		<g>
			<path fill="#FFFFFF" d="M-294.89,385.687c-0.319,0-0.607-0.212-0.692-0.533c-0.102-0.384,0.13-0.775,0.51-0.875
				c4.536-1.187,7.874-4.304,8.918-8.335c0.641-2.461,0.242-4.752-1.043-5.988c-1.017-0.977-2.51-1.2-4.321-0.65
				c-2.14,0.648-4.098,1.172-5.995,1.678c-1.612,0.429-3.128,0.832-4.589,1.274c-1.531,0.459-1.482,1.414-1.022,3.338l0.096,0.421
				c0.089,0.384-0.153,0.769-0.539,0.854c-0.384,0.087-0.769-0.155-0.854-0.542l-0.098-0.397c-0.348-1.45-0.992-4.147,2.005-5.045
				c1.48-0.448,3.011-0.854,4.631-1.287c1.884-0.503,3.833-1.023,5.948-1.665c2.306-0.696,4.338-0.348,5.729,0.985
				c1.656,1.597,2.211,4.425,1.438,7.385c-1.183,4.54-4.897,8.04-9.938,9.358C-294.767,385.682-294.83,385.687-294.89,385.687z"/>
		</g>
		<g>
			<path fill="#FFFFFF" d="M-343.98,444.376c-0.081,0-0.166-0.015-0.251-0.047c-0.374-0.138-0.561-0.55-0.423-0.922l7.515-20.073
				c0.136-0.372,0.548-0.558,0.917-0.418c0.372,0.136,0.559,0.552,0.425,0.922l-7.515,20.071
				C-343.42,444.197-343.689,444.376-343.98,444.376z"/>
		</g>
	</g>
	<g>
		<path fill="#FFFFFF" d="M209.506,138.297h1.792l3.869-6.876l2.699,6.171l4.767-3.916l1.741,4.003l5.457-3.926l4.128,9.891
			l1.363-5.347h8.643l7.989-14.378l3.555,17.164l2.956-15.113l3.083,12.327h5.642c1.544-4.158,2.429-8.373,2.429-12.575
			c0-17.712-14.357-32.071-32.071-32.071c-17.714,0-29.147,19.632-29.147,19.632s-0.013-0.021-0.036-0.06L209.506,138.297z"/>
		<path fill="#FFFFFF" d="M162.993,138.297l7.802-12.873l3.979,12.873h13.852v1.157l1.926-1.157h5.385l5.432-20.744l1.096,23.174
			l5.502-28.145c-2.227-3.483-12.996-18.931-28.714-18.931c-17.712,0-32.071,14.359-32.071,32.071c0,4.202,0.883,8.418,2.427,12.575
			H162.993z"/>
		<path fill="#FFFFFF" d="M259.739,140.609l-0.998-4.009l-3.173,16.198l-4.614-22.316l-5.625,10.127h-8.212l-2.631,10.309
			l-5.666-13.592l-5.423,3.903l-1.663-3.824l-4.763,3.911l-2.064-4.718l-2.257,4.011h-5.358l-0.459-10.184l-5.774,29.54l-1.289-27.2
			l-2.051,7.844h-6.528l-4.88,2.928v-2.928h-13.242l-2.964-9.59l-5.812,9.59h-13.762c12.792,29.671,57.869,56.054,57.869,56.054
			s45.073-26.382,57.867-56.054H259.739z"/>
	</g>
	<circle fill="#8BC53F" cx="-322.146" cy="141.04" r="83.452"/>
	<g>
		<path fill="#FFFFFF" d="M-306.059,96.867c0,16.788-16.886,21.8-16.886,21.8s-16.888-5.011-16.888-21.8s1.841-30.396,16.888-30.396
			C-307.902,66.472-306.059,80.079-306.059,96.867z"/>
		<path fill="#FFFFFF" d="M-311.763,131.206h-22.365c0,0,4.404-6.78,4.064-21.014c-0.34-14.234,15.251-12.2,13.896,0
			C-317.526,122.396-311.763,131.206-311.763,131.206z"/>
		<path fill="#FFFFFF" d="M-298.771,129.344c-1.183-5.763-14.469-6.048-17.149-9.887c-2.676-3.841-12.52-4.294-14.633,0
			c-2.109,4.294-15.508,4.294-17.09,9.887c-1.582,5.593,10.681,46.984,6.126,50.617c-4.553,3.633,43.2,10.216,37.212-0.287
			C-310.293,169.168-297.642,134.861-298.771,129.344z"/>
		<ellipse fill="#FFFFFF" cx="-322.945" cy="191.367" rx="23.893" ry="18.13"/>
		<path fill="#FFFFFF" d="M-302.042,182.593c0,0,23.919,6.442,31.854,9.849c5.536,2.372,5.986,9.377-0.34,12.877
			c-6.326,3.504-42.266,2.465-42.266,2.465L-302.042,182.593z"/>
		<path fill="#FFFFFF" d="M-317.862,204.673c13.306,1.015,31.287-12.49,43.833-10.991c5.98,0.713,10.067,4.442,5.738,10.233
			c-3.882,5.196-49.237,6.759-49.237,6.759s-10.411,3.686-18.039,4.922c-1.595,0.261-4.793-2.663-2.928-3.61
			c3.89-1.979,9.505-3.72,11.584-5.721C-324.759,204.188-320.015,204.509-317.862,204.673z"/>
		<g>
			<path fill="#FFFFFF" d="M-315.371,176.933c-4.546,0.469-5.485-5.056-0.686-5.056c10.545,0,18.02-11.008,23.218-8.184
				c0.338-2.939-7.513-17.663-8.755-21.753c-1.242-4.088-5.876-16.041,1.523-14.856c4.994,0.798,11.01,15.451,13.841,27.393
				c1.363,5.755,1.474,11.246,1.355,13.558c-0.04,0.864-1.223,1.03-1.915,1.697c-0.607,0.582-1.478,1.856-3.173,2.824
				C-299.052,177.753-311.219,176.507-315.371,176.933z"/>
		</g>
		<path fill="#FFFFFF" d="M-318.849,177.496c0,0-2.487-0.336-2.597-2.482c-0.115-2.147-0.454-6.579,0-7.141
			c0.45-0.565,0.34-1.015,0.34-1.015s-0.569-5.767-0.569-8.141c0-2.37,2.039-1.555,2.039,0c0,1.559,1.467,7.148,1.467,7.148
			s1.238,4.064,3.16,4.744c1.926,0.678,3.616,1.13,3.616,1.13l0.765,4.761L-318.849,177.496z"/>
		<path fill="#FFFFFF" d="M-320.597,166.454l3.867,2.544c-0.406-0.896-0.82-4.179-0.82-4.179s-1.467-5.589-1.467-7.145
			c0-1.561-2.039-2.374-2.039,0c0,2.372,0.569,8.135,0.569,8.135S-320.427,166.078-320.597,166.454z"/>
		<path fill="#FFFFFF" d="M-317.528,167.49c0,0-2.763-1.852-3.051-2.412c-0.289-0.561-0.871-1.385-1.478-2.325
			c-0.603-0.932-1.667,0.299-1.176,1.51c0.484,1.215,1.966,4.587,1.563,5.185"/>
		<path fill="#FFFFFF" d="M-342.248,182.593c0,0-23.917,6.442-31.857,9.849c-5.538,2.372-5.988,9.377,0.34,12.877
			c6.326,3.504,42.264,2.465,42.264,2.465L-342.248,182.593z"/>
		<path fill="#FFFFFF" d="M-326.428,204.673c-13.306,1.015-31.294-12.49-43.833-10.991c-5.984,0.713-10.069,4.442-5.742,10.233
			c3.882,5.196,49.239,6.759,49.239,6.759s10.409,3.686,18.037,4.922c1.595,0.261,4.795-2.663,2.93-3.61
			c-3.89-1.979-9.505-3.72-11.581-5.721C-319.531,204.188-324.274,204.509-326.428,204.673z"/>
		<g>
			<path fill="#FFFFFF" d="M-328.921,176.933c4.549,0.469,5.487-5.056,0.684-5.056c-10.545,0-18.02-11.008-23.216-8.184
				c-0.34-2.939,7.515-17.663,8.755-21.753c1.244-4.088,5.876-16.041-1.525-14.856c-4.994,0.798-11.008,15.451-13.839,27.393
				c-1.365,5.755-1.474,11.246-1.357,13.558c0.042,0.864,1.229,1.03,1.922,1.697c0.603,0.582,1.476,1.856,3.17,2.824
				C-345.24,177.753-333.074,176.507-328.921,176.933z"/>
		</g>
		<path fill="#FFFFFF" d="M-325.442,177.496c0,0,2.486-0.336,2.599-2.482c0.11-2.147,0.454-6.579,0-7.141
			c-0.45-0.565-0.34-1.015-0.34-1.015s0.569-5.767,0.569-8.141c0-2.37-2.039-1.555-2.039,0c0,1.559-1.467,7.148-1.467,7.148
			s-1.238,4.064-3.166,4.744c-1.915,0.678-3.612,1.13-3.612,1.13l-0.762,4.761L-325.442,177.496z"/>
		<path fill="#FFFFFF" d="M-323.693,166.454l-3.869,2.544c0.406-0.896,0.82-4.179,0.82-4.179s1.467-5.589,1.467-7.145
			c0-1.561,2.041-2.374,2.041,0c0,2.372-0.571,8.135-0.571,8.135S-323.865,166.078-323.693,166.454z"/>
		<path fill="#FFFFFF" d="M-326.763,167.49c0,0,2.758-1.852,3.051-2.412c0.293-0.561,0.868-1.385,1.476-2.325
			c0.609-0.932,1.669,0.299,1.181,1.51c-0.489,1.215-1.971,4.587-1.567,5.185"/>
	</g>
</g>
</svg>
