<?xml version="1.0" encoding="utf-8"?>
<!-- Generator: Adobe Illustrator 21.1.0, SVG Export Plug-In . SVG Version: 6.00 Build 0)  -->
<svg version="1.1" id="Layer_1" xmlns="http://www.w3.org/2000/svg" xmlns:xlink="http://www.w3.org/1999/xlink" x="0px" y="0px"
	 viewBox="0 0 358.9 800" style="enable-background:new 0 0 358.9 800;" xml:space="preserve">
<style type="text/css">
	.st0{fill:#FFFFFF;}
	.st1{opacity:0.2;fill:#FFFFFF;}
	.st2{opacity:0.1;fill:#FFFFFF;}
	.st3{fill:#273B90;}
	.st4{opacity:0.2;fill:#2B2B2B;}
	.st5{opacity:7.000000e-02;fill:#FFFFFF;}
	.st6{fill:#DAE0EB;}
	.st7{opacity:0.25;fill:#2F5294;}
	.st8{opacity:0.2;fill:#868A93;}
	.st9{opacity:0.2;fill:#B2B6BD;}
	.st10{fill:#1D4480;}
	.st11{fill:#82C9A0;}
	.st12{fill:#4FB87F;}
	.st13{fill:#17B065;}
	.st14{fill:#7FA8D3;}
	.st15{fill:#3772B7;}
	.st16{fill:#4D88C2;}
	.st17{fill:#00AB76;}
</style>
<g>
	<g>
		<g>
			<path class="st0" d="M255.5,14.7C243.7,6.6,222.6,0,208.3,0h-77v0h-90c-3.9,0-7.1,3.2-7.1,7.1c0,3.9,3.2,7.1,7.1,7.1h98.9v0h59.5
				c14.3,0,34.2,8.1,44.4,18.1l58,56.7l22.2-27L255.5,14.7z"/>
			<rect x="41.2" y="14.2" class="st0" width="120.3" height="14"/>
			<rect x="125.2" y="14.2" class="st1" width="36.3" height="14"/>
			<rect x="59.7" y="14.2" class="st2" width="30.6" height="14"/>
		</g>
		<path class="st3" d="M296.3,36.8c-19.5,0-35.4,15.8-35.4,35.4h70.7C331.7,52.7,315.8,36.8,296.3,36.8z"/>
	</g>
	<g>
		<path class="st3" d="M157.9,39.5V28.3h-113v11.2c0,1.4-0.6,3.6-1.3,4.8l-6.5,11.5h128.5l-6.5-11.5
			C158.4,43.1,157.9,40.9,157.9,39.5z"/>
		<path class="st2" d="M80.9,39.5V28.3H54.2v11.2c0,1.4-0.6,3.6-1.3,4.8l-6.5,11.5h26.7l6.5-11.5C80.3,43.1,80.9,40.9,80.9,39.5z"/>
		<path class="st4" d="M159.1,44.3c-0.7-1.2-1.3-3.4-1.3-4.8V28.3h-30.2v11.2c0,1.4,0.6,3.6,1.3,4.8l6.5,11.5h30.2L159.1,44.3z"/>
	</g>
	<g>
		<path class="st3" d="M348.3,77.4v25.9H10.6V56.7c0-7.1,5.8-12.5,12.9-12l15.7,1.2l45.6,3.5L340.6,69
			C344.8,69.3,348.3,73.1,348.3,77.4z"/>
		<path class="st2" d="M347.7,77.2v0.3L10.8,52.2c1.8-4.9,6.5-8,12.1-7.6l15.7,1.2l45.6,3.5L340,68.8
			C344.2,69.2,347.7,72.9,347.7,77.2z"/>
	</g>
	<g>
		<path class="st3" d="M358.8,108.4v59.5H0v-59.5c0-4.3,3.5-7.8,7.8-7.8h343.3C355.4,100.7,358.8,104.1,358.8,108.4z"/>
		<path class="st5" d="M358.8,108.4v0.3H0v-0.3c0-4.3,3.5-7.8,7.8-7.8h343.3C355.4,100.7,358.8,104.1,358.8,108.4z"/>
	</g>
	<path class="st4" d="M268.3,108.4v59.5h90.6v-59.5c0-4.3-3.5-7.8-7.8-7.8l-2.8,0V77.4c0-4.3-3.5-8-7.7-8.4l-82.8-6.3v14.7v23.3
		l2.8,0C264.8,100.7,268.3,104.1,268.3,108.4z"/>
	<g>
		<path class="st6" d="M358.8,167.9l-10.3,18.8h-0.2l-40.5,600.4c-0.5,7.1-6.6,12.9-13.8,12.9h-229c-7.1,0-13.3-5.8-13.8-12.9
			L10.6,186.7h-0.3L0,167.9H358.8z"/>
		<polygon class="st7" points="0,167.9 10.3,186.7 348.5,186.7 358.9,167.9 		"/>
		<path class="st8" d="M307.7,787.1c-0.5,7.1-6.6,12.9-13.8,12.9h-229c-7.1,0-13.3-5.8-13.8-12.9H307.7z"/>
		<path class="st9" d="M258,186.7h-0.2l-40.5,600.4c-0.5,7.1-6.7,12.9-13.8,12.9H294c7.1,0,13.3-5.8,13.8-12.9l40.5-600.4h0.2
			l10.3-18.8h-90.6L258,186.7z"/>
		<g>
			<path class="st10" d="M187.9,540.6h-40.7c-0.9,0-1.7-0.8-1.7-1.7v-7.1c0-0.9,0.8-1.7,1.7-1.7h40.7c0.9,0,1.7,0.8,1.7,1.7v7.1
				C189.6,539.9,188.8,540.6,187.9,540.6z"/>
			<path class="st10" d="M189.6,497.3c0,0.5-0.3,1-0.8,1.2l-16.1,7.2c-3.2,1.4-7.2,2.7-7.2,2.7v0.1c0,0,4.2-0.1,7.8-0.1h15
				c0.7,0,1.3,0.6,1.3,1.3v7.2c0,0.7-0.6,1.3-1.3,1.3h-41.4c-0.7,0-1.3-0.6-1.3-1.3v-8.5c0-0.5,0.3-1,0.8-1.2l14.3-6.5
				c3.1-1.4,7.6-3,7.6-3v-0.1c0,0-4.5,0.1-8.2,0.1h-13.1c-0.7,0-1.3-0.6-1.3-1.3v-7.3c0-0.7,0.6-1.3,1.3-1.3h41.4
				c0.7,0,1.3,0.6,1.3,1.3V497.3z"/>
			<path class="st10" d="M188.3,471.2h-31.4c-0.7,0-1.3,0.6-1.3,1.3v3.9c0,0.7-0.6,1.3-1.3,1.3h-7.5c-0.7,0-1.3-0.6-1.3-1.3v-20.9
				c0-0.7,0.6-1.3,1.3-1.3h7.5c0.7,0,1.3,0.6,1.3,1.3v3.9c0,0.7,0.6,1.3,1.3,1.3h31.4c0.7,0,1.3,0.6,1.3,1.3v7.9
				C189.6,470.6,189,471.2,188.3,471.2z"/>
			<path class="st10" d="M188.2,444.2h-41.4c-0.7,0-1.3-0.6-1.3-1.3V421c0-0.7,0.6-1.3,1.3-1.3h6.9c0.7,0,1.3,0.6,1.3,1.3v11.3
				c0,0.7,0.6,1.3,1.3,1.3h5.7c0.7,0,1.3-0.6,1.3-1.3v-9c0-0.7,0.6-1.3,1.3-1.3h6.5c0.7,0,1.3,0.6,1.3,1.3v9c0,0.7,0.6,1.3,1.3,1.3
				h4.6c0.7,0,1.3-0.6,1.3-1.3V421c0-0.7,0.6-1.3,1.3-1.3h6.9c0.7,0,1.3,0.6,1.3,1.3v21.8C189.6,443.5,189,444.2,188.2,444.2z"/>
			<path class="st10" d="M188.7,391.2l-11.7,3.6c-0.5,0.2-0.9,0.7-0.9,1.2v0.6c0,0.7,0.6,1.3,1.3,1.3h11c0.7,0,1.3,0.6,1.3,1.3v7.9
				c0,0.7-0.6,1.3-1.3,1.3h-41.5c-0.7,0-1.3-0.6-1.3-1.3v-11.8c0-10.1,8.1-14.2,15-14.2c4.9,0,9.4,1.6,12.2,4.9
				c0.4,0.4,0.9,0.5,1.4,0.3l13.6-5.6c0.8-0.3,1.7,0.3,1.7,1.2v8.2C189.6,390.5,189.2,391,188.7,391.2z M166.7,395.9
				c0-3.3-2.6-4.5-5.9-4.5c-3.6,0-5.9,1.3-5.9,4.6v0.6c0,0.7,0.6,1.3,1.3,1.3h9.3c0.7,0,1.3-0.6,1.3-1.3V395.9z"/>
			<path class="st10" d="M189.6,354.5v10.2c0,0.6-0.4,1.1-1,1.3l-41.5,8.2c-0.8,0.2-1.5-0.4-1.5-1.3v-8.2c0-0.6,0.5-1.2,1.1-1.3
				l20.6-2.7c3.8-0.5,11.6-1.2,11.6-1.2v-0.1c0,0-7.9-0.7-11.7-1.1l-20.5-2.5c-0.6-0.1-1.1-0.6-1.1-1.3v-8.3c0-0.8,0.7-1.4,1.5-1.3
				l41.5,8.3C189.1,353.4,189.6,353.9,189.6,354.5z"/>
			<path class="st10" d="M188.4,335.6h-41.7c-0.7,0-1.2-0.5-1.2-1.2v-22.1c0-0.7,0.5-1.2,1.2-1.2h7.2c0.7,0,1.2,0.5,1.2,1.2V324
				c0,0.7,0.5,1.2,1.2,1.2h6c0.7,0,1.2-0.5,1.2-1.2v-9.3c0-0.7,0.5-1.2,1.2-1.2h6.8c0.7,0,1.2,0.5,1.2,1.2v9.3
				c0,0.7,0.5,1.2,1.2,1.2h4.9c0.7,0,1.2-0.5,1.2-1.2v-11.6c0-0.7,0.5-1.2,1.2-1.2h7.2c0.7,0,1.2,0.5,1.2,1.2v22.1
				C189.6,335.1,189,335.6,188.4,335.6z"/>
			<path class="st10" d="M189.6,278.9c0,0.5-0.3,1-0.8,1.3l-16,7.2c-3.2,1.4-7.2,2.7-7.2,2.7v0.1c0,0,4.2-0.1,7.8-0.1h14.9
				c0.8,0,1.4,0.6,1.4,1.4v7.1c0,0.8-0.6,1.4-1.4,1.4h-41.3c-0.8,0-1.4-0.6-1.4-1.4V290c0-0.5,0.3-1,0.8-1.3l14.3-6.5
				c3.1-1.4,7.6-3,7.6-3v-0.1c0,0-4.5,0.1-8.2,0.1h-13c-0.8,0-1.4-0.6-1.4-1.4v-7.1c0-0.8,0.6-1.4,1.4-1.4h41.3
				c0.8,0,1.4,0.6,1.4,1.4V278.9z"/>
			<path class="st10" d="M188.4,252.8h-31.7c-0.6,0-1.2,0.5-1.2,1.2v4.2c0,0.6-0.5,1.2-1.2,1.2h-7.7c-0.6,0-1.2-0.5-1.2-1.2V237
				c0-0.6,0.5-1.2,1.2-1.2h7.7c0.6,0,1.2,0.5,1.2,1.2v4.2c0,0.6,0.5,1.2,1.2,1.2h31.7c0.6,0,1.2,0.5,1.2,1.2v8.2
				C189.6,252.3,189.1,252.8,188.4,252.8z"/>
		</g>
		<g>
			<path class="st11" d="M204.6,660.1l-18-6.6l-36.3,9.9c-3.3,0.9-5.3,4.3-4.4,7.6c0.9,3.3,4.3,5.3,7.6,4.4l54.8-14.9
				c2.8-0.8,4.6-3.3,4.6-6c0,0,0,0,0-0.1c0,0.7-0.1,1.4-0.4,2C211.4,659.6,207.8,661.2,204.6,660.1z"/>
			<path class="st11" d="M160.5,641.3c-0.3-0.7-0.4-1.4-0.4-2.1c0,2.5,1.5,4.9,4.1,5.9l22.4,8.3l18.5-5c3.3-0.9,6.7,1.1,7.6,4.4
				c0.1,0.5,0.2,1,0.2,1.6c0,0,0-0.1,0-0.1c0-2.5-1.6-4.9-4.1-5.8l-24.7-9.1l-15.6,5.8C165.3,646.2,161.7,644.5,160.5,641.3z"/>
			<path class="st12" d="M205.1,648.4l-18.5,5l18,6.6c3.2,1.2,6.8-0.5,8-3.7c0.2-0.7,0.4-1.4,0.4-2c0-0.5-0.1-1-0.2-1.6
				C211.9,649.4,208.4,647.5,205.1,648.4z"/>
			<path class="st13" d="M213,624.2C213,624.2,213,624.2,213,624.2c0,0.2,0,0.4,0,0.6C213,624.6,213,624.4,213,624.2z"/>
			<path class="st11" d="M205.1,630.2l-18.6-5.1l-22.3,8.2c-2.5,0.9-4.1,3.4-4.1,6c0-0.7,0.1-1.4,0.4-2.1c1.2-3.2,4.8-4.9,8-3.7
				l15.6,5.8l24.7-9.1c2.3-0.8,3.7-2.9,4-5.1c0,0.3-0.1,0.5-0.2,0.8C211.9,629.1,208.4,631.1,205.1,630.2z"/>
			<path class="st12" d="M160.5,637.1c-0.3,0.7-0.4,1.4-0.4,2.1c0,0.7,0.1,1.4,0.4,2.1c1.2,3.2,4.8,4.9,8,3.7l15.6-5.8l-15.6-5.8
				C165.3,632.2,161.7,633.9,160.5,637.1z"/>
			<path class="st13" d="M212.9,624.8c0,0,0,0.1,0,0.1C212.9,624.9,212.9,624.9,212.9,624.8z"/>
			<path class="st11" d="M146.1,611.3c-0.3-0.7-0.4-1.4-0.4-2.1c0,2.7,1.8,5.2,4.6,6l36.2,9.9l18.1-6.7c3.2-1.2,6.8,0.5,8,3.7
				c0.3,0.7,0.4,1.4,0.4,2.1c0,0,0,0,0,0c0-2.7-1.8-5.3-4.6-6l-36.2-9.8l-18.1,6.7C150.9,616.2,147.3,614.5,146.1,611.3z"/>
			<path class="st12" d="M204.6,618.4l-18.1,6.7l18.6,5.1c3.3,0.9,6.7-1.1,7.6-4.4c0.1-0.3,0.1-0.5,0.2-0.8c0,0,0-0.1,0-0.1
				c0-0.2,0-0.4,0-0.7c0-0.7-0.1-1.4-0.4-2.1C211.4,618.8,207.8,617.2,204.6,618.4z"/>
			<path class="st14" d="M190.2,599.9l-15.6-5.8l-24.8,9.2c-2.5,0.9-4.1,3.4-4.1,5.9c0-0.6,0.1-1.1,0.2-1.7c0.9-3.3,4.3-5.3,7.6-4.4
				l18.6,5.1l22.3-8.2c2.4-0.9,3.9-3.1,4-5.4c-0.1,0.5-0.2,1-0.4,1.6C197,599.4,193.4,601.1,190.2,599.9z"/>
			<path class="st15" d="M198.6,594.2C198.6,594.2,198.6,594.1,198.6,594.2c0,0,0,0.1,0,0.2C198.5,594.4,198.6,594.3,198.6,594.2z"
				/>
			<path class="st15" d="M198.5,593.6c0,0.1,0,0.1,0,0.2C198.5,593.7,198.5,593.7,198.5,593.6z"/>
			<path class="st16" d="M145.9,607.6c-0.2,0.6-0.2,1.1-0.2,1.7c0,0.7,0.1,1.4,0.4,2.1c1.2,3.2,4.8,4.9,8,3.7l18.1-6.7l-18.6-5.1
				C150.3,602.3,146.8,604.3,145.9,607.6z"/>
			<path class="st14" d="M205.1,557.9l-54.8,14.9c-2.8,0.8-4.6,3.3-4.6,6c0-0.6,0.2-1.3,0.4-1.9c1.2-3.2,4.8-4.9,8-3.7l17.8,6.6
				l36.4-9.9c2.8-0.8,4.6-3.3,4.6-6c0-0.5-0.1-1.1-0.2-1.6C211.9,559,208.4,557,205.1,557.9z"/>
			<path class="st15" d="M198.6,594c0-0.1,0-0.2,0-0.2C198.5,593.9,198.6,594,198.6,594C198.6,594.1,198.6,594.1,198.6,594z"/>
			<path class="st14" d="M145.9,580.5c-0.2-0.6-0.2-1.1-0.2-1.7c-0.1,2.6,1.5,5.2,4.1,6.1l24.8,9.2l15.6-5.8c3.2-1.2,6.8,0.5,8,3.7
				c0.2,0.5,0.3,1,0.4,1.6c-0.2-2.4-1.7-4.5-4-5.4l-22.5-8.3l-18.4,5C150.3,585.8,146.8,583.8,145.9,580.5z"/>
			<path class="st15" d="M198.5,594.5c0,0.1,0,0.1,0,0.2C198.5,594.6,198.5,594.5,198.5,594.5z"/>
			<path class="st16" d="M190.2,588.4l-15.6,5.8l15.6,5.8c3.2,1.2,6.8-0.5,8-3.7c0.2-0.5,0.3-1,0.4-1.6c0-0.1,0-0.1,0-0.2
				c0-0.1,0-0.2,0-0.3c0-0.1,0-0.2,0-0.3c0-0.1,0-0.1,0-0.2c-0.1-0.5-0.2-1-0.4-1.6C197,588.8,193.4,587.2,190.2,588.4z"/>
			<path class="st16" d="M146.1,576.9c-0.2,0.6-0.4,1.3-0.4,1.9c0,0.5,0.1,1.1,0.2,1.7c0.9,3.3,4.3,5.3,7.6,4.4l18.4-5l-17.8-6.6
				C150.9,572.1,147.3,573.7,146.1,576.9z"/>
		</g>
		<g>
			<g>
				<path class="st17" d="M208.7,533.9h-6.1c-0.3,0-0.7,0-0.7,0v0c0,0,0.3,0.2,0.6,0.3l2.9,1.7v0l-2.8,1.7c-0.2,0.1-0.6,0.3-0.6,0.3
					v0c0,0,0.4,0,0.7,0h6.1v1.8h-9.9v-2l2.7-1.5c0.2-0.1,0.6-0.3,0.6-0.3v0c0,0-0.4-0.2-0.6-0.3l-2.6-1.5v-2h9.9V533.9z"/>
				<path class="st17" d="M208.7,529.3h-9.9V524h1.8v3.4h2.5v-2.9h1.8v2.9h2.1V524h1.8V529.3z"/>
				<path class="st17" d="M208.7,521.3h-9.9v-2.6c0-2.7,2.4-3.6,5-3.6c2.6,0,5,0.9,5,3.6V521.3z M206.9,518.7c0-1.3-1.4-1.8-3.2-1.8
					c-1.8,0-3.2,0.5-3.2,1.8v0.7h6.4V518.7z"/>
				<path class="st17" d="M208.7,512.8h-9.9v-1.8h9.9V512.8z"/>
				<path class="st17" d="M206.9,502.2c1.2,0.5,2,1.4,2,2.9c0,2.7-2.5,3.5-5.1,3.5c-2.6,0-5.1-0.8-5.1-3.5c0-1.6,0.9-2.5,2.1-3
					l1,1.6c-0.8,0.2-1.4,0.7-1.4,1.4c0,1.3,1.5,1.6,3.3,1.6c1.8,0,3.3-0.4,3.3-1.6c0-0.7-0.5-1.1-1.2-1.4L206.9,502.2z"/>
				<path class="st17" d="M208.7,496.3l-1.6,0.3v2.3l1.6,0.3v1.9l-9.9-2.3v-2.1l9.9-2.3V496.3z M202.3,497.6
					c-0.3,0.1-0.8,0.1-0.8,0.1v0c0,0,0.6,0.1,0.8,0.1l3.2,0.7v-1.6L202.3,497.6z"/>
				<path class="st17" d="M208.7,492.5h-9.9v-1.8h8.1v-2.9h1.8V492.5z"/>
			</g>
			<g>
				<path class="st17" d="M208.7,473.7v2.1l-4.9,1c-0.5,0.1-1.3,0.2-1.3,0.2v0.1c0,0,0.8,0.1,1.3,0.2l4.9,1v2.1l-9.9,2v-1.9l6.1-1
					c0.5-0.1,1.3-0.2,1.3-0.2v0c0,0-0.8-0.1-1.3-0.2l-6.1-1.1v-2l6.1-1.1c0.5-0.1,1.3-0.2,1.3-0.2v0c0,0-0.8-0.1-1.3-0.2l-6.1-1
					v-1.9L208.7,473.7z"/>
				<path class="st17" d="M208.7,469.9h-9.9v-5.3h1.8v3.4h2.5v-2.9h1.8v2.9h2.1v-3.4h1.8V469.9z"/>
				<path class="st17" d="M208.7,461.9h-9.9v-1.8h9.9V461.9z"/>
				<path class="st17" d="M203.9,451.1c2.9,0,5,0.9,5,3.3c0,2.7-2.5,3.5-5.1,3.5c-2.6,0-5.1-0.8-5.1-3.5c0-1.6,0.9-2.5,2.1-3l1,1.6
					c-0.8,0.2-1.4,0.7-1.4,1.4c0,1.3,1.5,1.6,3.3,1.6c1.8,0,3.3-0.4,3.3-1.6c0-1.1-1.1-1.3-2-1.3v1.2h-1.8v-3.1H203.9z"/>
				<path class="st17" d="M208.7,444.4H205v2.5h3.7v1.8h-9.9v-1.8h4.4v-2.5h-4.4v-1.8h9.9V444.4z"/>
				<path class="st17" d="M208.7,438.7h-8.1v1.7h-1.8v-5.3h1.8v1.7h8.1V438.7z"/>
			</g>
			<g>
				<g>
					<path class="st17" d="M200.9,342.9h-3.3v0.9H197v-2.3h0.5v0.9h3.3V342.9z"/>
					<path class="st17" d="M200.9,338.4h-2.5c-0.2,0-0.4,0-0.4,0v0c0,0,0.2,0.1,0.3,0.2l1.5,0.9v0l-1.5,0.8
						c-0.1,0.1-0.3,0.2-0.3,0.2v0c0,0,0.2,0,0.4,0h2.5v0.5H197v-0.6l1.5-0.8c0.1-0.1,0.3-0.2,0.3-0.2v0c0,0-0.2-0.1-0.3-0.2
						l-1.5-0.8v-0.6h3.9V338.4z"/>
				</g>
				<g>
					<path class="st17" d="M208.7,422.8h-6.1c-0.3,0-0.7,0-0.7,0v0c0,0,0.3,0.2,0.6,0.3l2.9,1.7v0l-2.8,1.7
						c-0.2,0.1-0.6,0.3-0.6,0.3v0c0,0,0.4,0,0.7,0h6.1v1.8h-9.9v-2l2.7-1.5c0.2-0.1,0.6-0.3,0.6-0.3v0c0,0-0.4-0.2-0.6-0.3l-2.6-1.5
						v-2h9.9V422.8z"/>
					<path class="st17" d="M208.7,414.3l-1.6,0.3v2.3l1.6,0.3v1.9l-9.9-2.3v-2.1l9.9-2.3V414.3z M202.3,415.6
						c-0.3,0.1-0.8,0.1-0.8,0.1v0c0,0,0.6,0.1,0.8,0.1l3.2,0.7v-1.6L202.3,415.6z"/>
					<path class="st17" d="M208.7,406.1l-5.6,2.5c-0.3,0.1-0.7,0.2-0.7,0.2v0c0,0,0.4,0,0.7,0h5.5v1.6h-9.9v-1.8l5.4-2.5
						c0.2-0.1,0.7-0.2,0.7-0.2v0c-0.1,0-0.5,0-0.7,0h-5.4v-1.6h9.9V406.1z"/>
					<path class="st17" d="M208.7,397.7l-1.6,0.3v2.3l1.6,0.3v1.9l-9.9-2.3v-2.1l9.9-2.3V397.7z M202.3,399
						c-0.3,0.1-0.8,0.1-0.8,0.1v0c0,0,0.6,0.1,0.8,0.1l3.2,0.7v-1.6L202.3,399z"/>
					<path class="st17" d="M203.9,387.9c2.9,0,5,0.9,5,3.3c0,2.7-2.5,3.5-5.1,3.5c-2.6,0-5.1-0.8-5.1-3.5c0-1.6,0.9-2.5,2.1-3l1,1.6
						c-0.8,0.2-1.4,0.7-1.4,1.4c0,1.3,1.5,1.6,3.3,1.6c1.8,0,3.3-0.4,3.3-1.6c0-1.1-1.1-1.3-2-1.3v1.2h-1.8v-3.1H203.9z"/>
					<path class="st17" d="M208.7,385.6h-9.9v-5.3h1.8v3.4h2.5v-2.9h1.8v2.9h2.1v-3.4h1.8V385.6z"/>
					<path class="st17" d="M208.7,371.7h-6.1c-0.3,0-0.7,0-0.7,0v0c0,0,0.3,0.2,0.6,0.3l2.9,1.7v0l-2.8,1.7
						c-0.2,0.1-0.6,0.3-0.6,0.3v0c0,0,0.4,0,0.7,0h6.1v1.8h-9.9v-2l2.7-1.5c0.2-0.1,0.6-0.3,0.6-0.3v0c0,0-0.4-0.2-0.6-0.3l-2.6-1.5
						v-2h9.9V371.7z"/>
					<path class="st17" d="M208.7,367.1h-9.9v-5.3h1.8v3.4h2.5v-2.9h1.8v2.9h2.1v-3.4h1.8V367.1z"/>
					<path class="st17" d="M208.7,354.7l-5.6,2.5c-0.3,0.1-0.7,0.2-0.7,0.2v0c0,0,0.4,0,0.7,0h5.5v1.6h-9.9v-1.8l5.4-2.5
						c0.2-0.1,0.7-0.2,0.7-0.2v0c-0.1,0-0.5,0-0.7,0h-5.4V353h9.9V354.7z"/>
					<path class="st17" d="M208.7,349.1h-8.1v1.7h-1.8v-5.3h1.8v1.7h8.1V349.1z"/>
				</g>
			</g>
			<g>
				<g>
					<path class="st10" d="M203.6,296.7c3.3,0,5.3,2,5.3,4.8c0,2.8-2.1,4.6-5.1,4.6c-3.1,0-5.2-1.9-5.2-4.7
						C198.6,298.4,200.8,296.7,203.6,296.7 M203.7,304.1c2,0,3.7-1,3.7-2.8c0-1.8-1.6-2.8-3.7-2.8c-1.9,0-3.7,0.9-3.7,2.8
						C200,303.2,201.7,304.1,203.7,304.1"/>
					<path class="st10" d="M198.8,294.2c-0.1-0.7-0.2-1.6-0.2-2.8c0-1.3,0.3-2.3,0.8-2.9c0.5-0.6,1.3-1,2.2-1c0.9,0,1.7,0.3,2.3,0.9
						c0.7,0.7,1.1,1.9,1.1,3.2c0,0.3,0,0.7-0.1,0.9h3.8v1.8H198.8z M203.5,292.4c0.1-0.2,0.1-0.5,0.1-0.9c0-1.4-0.7-2.2-1.8-2.2
						c-1.1,0-1.7,0.8-1.7,2c0,0.5,0,0.9,0.1,1.1H203.5z"/>
					<polygon class="st10" points="200.2,283.2 200.2,286 198.7,286 198.7,278.5 200.2,278.5 200.2,281.4 208.7,281.4 208.7,283.2 
											"/>
					<rect x="198.7" y="273.9" class="st10" width="10" height="1.8"/>
					<polygon class="st10" points="198.7,270 198.7,265 199.3,265 199.3,269.3 203.3,269.3 203.3,265.4 203.9,265.4 203.9,269.3 
						208.7,269.3 208.7,270 					"/>
					<path class="st10" d="M205.2,261.7l3.5,1.2v0.7l-10-3.6v-0.7l10-3.6v0.7l-3.5,1.3V261.7z M204.6,258l-3.3,1.2
						c-0.7,0.2-1.2,0.4-1.8,0.5v0c0.6,0.1,1.1,0.3,1.7,0.5l3.4,1.2V258z"/>
					<path class="st10" d="M207.6,253.9c0.4-0.6,0.7-1.3,0.7-2.2c0-1.5-0.8-2.4-2.1-2.4c-1.1,0-1.8,0.6-2.3,2
						c-0.6,1.6-1.4,2.6-2.8,2.6c-1.5,0-2.5-1.2-2.5-2.9c0-0.9,0.3-1.6,0.5-2l0.6,0.3c-0.2,0.3-0.5,0.9-0.5,1.8c0,1.6,1,2.2,1.8,2.2
						c1.1,0,1.7-0.6,2.2-2.1c0.7-1.6,1.4-2.5,2.9-2.5c1.5,0,2.8,1,2.8,3.2c0,0.9-0.3,1.9-0.7,2.4L207.6,253.9z"/>
					<polygon class="st10" points="199.3,243.7 199.3,246.9 198.7,246.9 198.7,239.7 199.3,239.7 199.3,243 208.7,243 208.7,243.7 
											"/>
					<path class="st10" d="M198.6,237.6c0-0.6,0.5-1,1-1c0.6,0,1,0.5,1,1c0,0.6-0.5,1.1-1,1.1C199,238.6,198.6,238.2,198.6,237.6
						L198.6,237.6z M198.7,237.6c0,0.5,0.4,0.8,0.8,0.8c0.5,0,0.9-0.4,0.9-0.8c0-0.5-0.4-0.8-0.8-0.8S198.7,237.1,198.7,237.6
						L198.7,237.6z M200.2,237.8v0.2h-1.1c0-0.1,0-0.2,0-0.4c0-0.2,0-0.3,0.1-0.3c0-0.1,0.1-0.1,0.2-0.1c0.1,0,0.2,0.1,0.3,0.2h0
						c0-0.1,0.1-0.1,0.3-0.2c0.2,0,0.2-0.1,0.3-0.1v0.2c0,0-0.1,0.1-0.3,0.1c-0.1,0-0.2,0.1-0.2,0.3v0.1H200.2z M199.6,237.8v-0.1
						c0-0.1,0-0.3-0.2-0.3c-0.1,0-0.2,0.1-0.2,0.3c0,0.1,0,0.1,0,0.2H199.6z"/>
				</g>
			</g>
			<g>
				<path class="st10" d="M207.5,329.7l-3.8,0.3c-0.7,0.1-1.4,0.1-1.4,0.1v0c0,0,0.6,0.2,1.3,0.6l3.8,1.8v0.7l-6.2,0.6V333l3.8-0.3
					c0.7,0,1.5-0.1,1.5-0.1v0c0,0-0.8-0.3-1.4-0.6l-3.8-1.8v-0.7l3.8-0.3c0.7-0.1,1.5-0.1,1.5-0.1v0c0,0-0.8-0.3-1.4-0.6l-3.8-1.8
					V326l6.2,3V329.7z"/>
				<path class="st10" d="M207.6,323c0,0,0,0.1,0,0.3c0,0.8-0.4,1.2-1.2,1.2c-0.2,0-0.4,0-0.6-0.1l-3.2-0.7c-0.3-0.1-0.6-0.2-1-0.2
					h-0.3v-0.7c0,0,0,0,0.1,0c0.2,0,0.7,0,1.5,0.2l2.9,0.6c0.2,0,0.3,0.1,0.5,0.1c0.4,0,0.6-0.2,0.6-0.6c0-0.1,0-0.2,0-0.3
					L207.6,323z M200.2,322.9c0,0.3-0.2,0.4-0.4,0.4s-0.5-0.2-0.5-0.4c0-0.2,0.2-0.5,0.5-0.5S200.2,322.6,200.2,322.9z"/>
				<path class="st10" d="M207.5,317.8c0.1,0.2,0.1,0.5,0.1,0.8c0,1-0.6,1.5-1.5,1.5c-0.2,0-0.4,0-0.7-0.1l-3.6-0.8v0.8l-0.6-0.1
					v-0.8l-1.5-0.3v-0.7l1.5,0.3V317l0.6,0.1v1.4l3.7,0.8c0.2,0,0.3,0.1,0.5,0.1c0.6,0,0.9-0.3,0.9-0.8c0-0.2,0-0.4-0.1-0.6
					L207.5,317.8z"/>
				<path class="st10" d="M207.5,315.6l-8.6-1.8V313l2.1,0.4c0.6,0.1,1.1,0.2,1.2,0.3v0c-0.6-0.4-1-0.9-1-1.6c0-1.1,0.7-1.5,1.7-1.5
					c0.3,0,0.7,0.1,1,0.1c0.6,0.1,1.3,0.3,1.9,0.4c0.2,0,0.4,0.1,0.5,0.1c0.4,0,0.6-0.2,0.6-0.7c0-0.1,0-0.1,0-0.2
					c0.2,0.1,0.5,0.1,0.7,0.2c0,1-0.4,1.5-1.2,1.5c-0.9,0-2.5-0.6-3.5-0.6c-0.6,0-1.1,0.2-1.1,0.9c0,1.1,0.9,1.6,2,1.9l3.7,0.8
					V315.6z"/>
			</g>
		</g>
	</g>
	<path class="st2" d="M136.8,800H87c-7.1,0-13.3-5.8-13.8-12.9L32.7,186.7h-0.3l-10.3-18.8v-59.5c0-2,0.7-3.8,2-5.2
		c1.4-1.6,3.5-2.6,5.8-2.6h2.8v-44c0-4.8,2.6-8.8,6.5-10.7l45.6,3.5c-1.5,2-2.3,4.5-2.3,7.2v44h-2.8c-2.3,0-4.4,1-5.8,2.6
		c-1.3,1.4-2,3.2-2,5.2v59.5l10.3,18.8h0.3L123,787.1C123.5,794.2,129.7,800,136.8,800z"/>
</g>
</svg>
