<svg id="Layer_2" data-name="Layer 2" xmlns="http://www.w3.org/2000/svg" viewBox="0 0 965.84 806.43"><defs><style>.cls-1{fill:#414042;}</style></defs><title>sleep [Converted]</title><path class="cls-1" d="M217.67,1009.73V922h777v87.73h87.14V759.59c0-22.42-14.43-40.77-32.06-40.77h-23c-17.63,0-32.06,18.35-32.06,40.77v37.73h-777V548c0-30.48-19.61-55.41-43.57-55.41H159.57c-24,0-43.57,24.93-43.57,55.41v461.75Z" transform="translate(-116 -203.29)"/><path class="cls-1" d="M850.88,617.24H421V769.62H952.65a153.5,153.5,0,0,0,2.1-25.4h0C954.76,674.38,908,617.24,850.88,617.24Z" transform="translate(-116 -203.29)"/><ellipse class="cls-1" cx="215.31" cy="486.01" rx="81.7" ry="79.7"/><polygon class="cls-1" points="351.16 259.9 351.16 243.49 247.43 243.49 241.16 265.37 307.06 265.37 239.16 324.44 239.16 340.07 349.71 340.07 354.42 318.19 283.65 318.19 351.16 259.9"/><polygon class="cls-1" points="542.8 148.28 538.41 120.08 377.89 145.05 374.04 184.16 476.03 168.29 386.75 286.17 390.93 313.01 561.99 286.4 563.42 247.67 453.92 264.71 542.8 148.28"/><polygon class="cls-1" points="808.51 58.81 812.35 21.62 602.7 0 584.91 48.26 718.12 62 567.07 181.71 563.42 217.11 786.85 240.15 801.47 191.57 658.44 176.81 808.51 58.81"/></svg>