<?xml version="1.0" encoding="utf-8"?>
<!-- Generator: Adobe Illustrator 23.0.1, SVG Export Plug-In . SVG Version: 6.00 Build 0)  -->
<svg version="1.1" id="Layer_1" xmlns="http://www.w3.org/2000/svg" xmlns:xlink="http://www.w3.org/1999/xlink" x="0px" y="0px"
	 viewBox="0 0 1270.9 525" style="enable-background:new 0 0 1270.9 525;" xml:space="preserve">
<style type="text/css">
	.st0{fill:#F9A03B;}
	.st1{fill:#EFECE1;}
	.st2{fill:#C8DB4C;}
	.st3{fill:#F16358;}
	.st4{fill:#F16358;stroke:#FFFFFF;stroke-miterlimit:10;}
	.st5{fill:#4DBB80;}
	.st6{fill:#4DBB80;stroke:#4DBB80;stroke-width:0.18;stroke-miterlimit:22.9256;}
	.st7{fill:#4DBB80;stroke:#F9F9FA;stroke-miterlimit:10;}
	.st8{fill:#8F4455;}
	.st9{fill:#F9A03B;stroke:#EFECE1;stroke-width:1.278;stroke-miterlimit:22.9256;}
	.st10{fill:#4DBB80;stroke:#4DBB80;stroke-width:0.1227;stroke-miterlimit:22.9256;}
	.st11{fill:#EFECE1;stroke:#EFECE1;stroke-width:0.1299;stroke-miterlimit:22.9256;}
	.st12{fill:#8F4455;stroke:#8F4455;stroke-width:0.1118;stroke-miterlimit:22.9256;}
	.st13{fill:#8F4455;stroke:#8F4455;stroke-width:0.2934;stroke-miterlimit:22.9256;}
	.st14{fill:#F9A03B;stroke:#FBF9FB;stroke-miterlimit:10;}
</style>
<g>
	<path class="st0" d="M1097.4,346.6c-5.4-1.5-13.6-4.1-22-6.7c1.1-0.9,2.4-1.9,3.4-2.8c-15.7-14.4-17.2-23.2-15.5-44.1
		c1.1-11.4,1.5-21.3-1.5-31.2c20,6,40,12.1,55.7,16.8c15.7,4.7,35.7,10.8,55.7,16.8c-2.2,1.9-4.1,3.9-6,6c4.7-1.3,8.8-0.9,12.1,0.4
		c2.8,1.1,5.2,2.8,6.9,4.9c1.7,2.2,2.8,4.7,3.2,7.1c0.6,3.7-0.2,7.5-2.6,10.3c-6.2,7.3-14.4,8-22.8,8.6c-5.6,0.4-10.8,0.6-15.1,4.1
		c-2.2,1.7-3.4,2.6-6.5,1.3c-5.8,5.6-12.9,8.6-25,10.5c0.4,1.5,0.9,2.8,1.3,4.3C1110.9,350.7,1102.8,348.1,1097.4,346.6
		L1097.4,346.6L1097.4,346.6z M1162.4,308c-3,4.3-4.5,7.5-7.3,12.5c-2.6,4.7-3.9,7.1-6.2,10.5c5.2-2.6,9.5-1.3,15.3-1.9
		c7.5-0.6,15.1-1.3,20.4-7.3c1.7-1.9,2.4-4.7,1.9-7.3c-0.4-1.9-1.3-3.9-2.6-5.6c-1.3-1.7-3.2-3-5.4-3.9
		C1174.6,303.5,1167.3,304.4,1162.4,308L1162.4,308L1162.4,308z"/>
	<path class="st1" d="M1081.7,315.8c4.3-1.9,5.4-4.3,8.8-6.5c10.1-6.2,19.6-7.3,32.1-7.1c4.5,0.6,8.4,0,12.5,0.6
		c1.7,0.2,3.7,1.3,5.8,1.9c2.2-0.4,7.5-2.2,10.1-4.3c0.4,0.2,0.4,0.2,0.6,0.4c-4.3,3-14.4,5.8-19.6,7.5c-13.8,3.4-30.3,9.3-44.3,8.6
		C1085.1,317.1,1083.2,316.7,1081.7,315.8L1081.7,315.8L1081.7,315.8z"/>
	<path class="st1" d="M1082.3,316.7c7.1,2.8,20-0.2,30.6-2.6c9.7-2.6,18.9-4.7,28.2-8.4c-1.1,3-1.9,4.9-4.5,7.3c-3,2.2-6,4.3-9.5,6
		c-3.4,1.9-7.5,3.7-12.1,5.4c-8,2.8-17,3.2-25-0.9C1087.5,322.5,1085.1,319.7,1082.3,316.7L1082.3,316.7z"/>
	<g>
		<path class="st2" d="M698.7,108.6c-4.9-45.3-33.3-88.4-98.9-102.7c15.8-6.5,36.4,2.5,43.2,12.2c12.8-4.5,43.8,11.5,39.9,32
			c9.7,3.9,16.3,14.7,11.3,28.6C701.7,88.4,701.4,99.5,698.7,108.6L698.7,108.6L698.7,108.6z"/>
		<path class="st2" d="M703.1,109.5C728.5,79.7,769,62.9,822.4,84c-8.1-12.2-26.9-15.5-36.7-12c-6.9-9.3-36.7-12.9-43.8,3.7
			c-8.9-1.8-18.7,2.6-21.9,14.9C710.7,93.9,705.6,101.9,703.1,109.5L703.1,109.5L703.1,109.5z"/>
		<path class="st2" d="M701.2,109.1c15.8-43.3,53.9-78.7,121.8-77c-10.5-16.6-38.7-15-45.3,1.6c-16-15.3-51.9-9.2-47,21.7
			c-13.1-4.8-26.8,9.7-18.1,25.3C703.4,88.7,701,99.6,701.2,109.1L701.2,109.1L701.2,109.1z"/>
		<path class="st2" d="M701.3,92.7c4.1-30.3-6.1-63.6-40.4-92.7c14.6,1.4,26.6,16.3,27.8,26.5c11.3,1.6,28.5,26.2,17.4,40.2
			C709.1,79.8,705.4,86.5,701.3,92.7L701.3,92.7L701.3,92.7z"/>
		<path class="st0" d="M646.8,299.5c-16.9-5.4,2.4-204.3,55.2-188.4C752,126.4,667,304,646.8,299.5L646.8,299.5L646.8,299.5z"/>
		<path class="st1" d="M641,272.8l15.1,4.6c0.6,0.1,0.9,0.8,0.8,1.5c-0.1,0.6-0.8,0.9-1.5,0.8l-14.3-4.4
			C641.1,274.4,641.1,273.5,641,272.8L641,272.8L641,272.8z M640.9,266.7c0-0.9,0.1-1.7,0-2.4l9.9,3.1c0.6,0.1,0.9,0.8,0.8,1.5
			c-0.1,0.6-0.8,0.9-1.5,0.8L640.9,266.7L640.9,266.7z M715.4,162c-0.2,0.8-0.3,1.5-0.5,2.3l-25-7.7c-0.6-0.1-0.9-0.8-0.8-1.5
			c0.1-0.6,0.8-0.9,1.5-0.8L715.4,162L715.4,162z M714,170.1c-0.2,0.8-0.3,1.5-0.5,2.3l-18.2-5.6c-0.6-0.1-0.9-0.8-0.8-1.5
			c0.1-0.6,0.8-0.9,1.5-0.8L714,170.1L714,170.1z M697.7,220.4c-0.4,0.8-0.5,1.4-0.9,2.2l-14-4.4c-0.6-0.1-0.9-0.8-0.8-1.5
			c0.1-0.6,0.8-0.9,1.5-0.8L697.7,220.4L697.7,220.4z M684.9,248.8c-0.4,0.8-0.7,1.4-1.1,2.2l-19-5.8c-0.6-0.1-0.9-0.8-0.8-1.5
			c0.1-0.6,0.8-0.9,1.5-0.8L684.9,248.8L684.9,248.8z M668.5,177.6c-0.6-0.1-0.9-0.8-0.8-1.5c0.1-0.6,0.8-0.9,1.5-0.8l20.1,6
			c0.6,0.1,0.9,0.8,0.8,1.5c-0.1,0.6-0.8,0.9-1.5,0.8L668.5,177.6L668.5,177.6z M656.5,187.3c-0.6-0.1-0.9-0.8-0.8-1.5
			c0.1-0.6,0.8-0.9,1.5-0.8l15.5,4.7c0.6,0.1,0.9,0.8,0.8,1.5c-0.1,0.6-0.8,0.9-1.5,0.8L656.5,187.3L656.5,187.3z M665.6,196.3
			c-0.6-0.1-0.9-0.8-0.8-1.5c0.1-0.6,0.8-0.9,1.5-0.8l15.5,4.7c0.6,0.1,0.9,0.8,0.8,1.5c-0.1,0.6-0.8,0.9-1.5,0.8L665.6,196.3
			L665.6,196.3z M663.7,223.2c-0.6-0.1-0.9-0.8-0.8-1.5c0.1-0.6,0.8-0.9,1.5-0.8l22.3,6.9c0.6,0.1,0.9,0.8,0.8,1.5
			c-0.1,0.6-0.8,0.9-1.5,0.8L663.7,223.2L663.7,223.2z M685.5,130.5c-0.6-0.1-0.9-0.8-0.8-1.5c0.1-0.6,0.8-0.9,1.5-0.8l10.8,3.3
			c0.6,0.1,0.9,0.8,0.8,1.5c-0.1,0.6-0.8,0.9-1.5,0.8L685.5,130.5L685.5,130.5z M650.1,246.1c-0.6-0.1-0.9-0.8-0.8-1.5
			c0.1-0.6,0.8-0.9,1.5-0.8l10.8,3.3c0.6,0.1,0.9,0.8,0.8,1.5c-0.1,0.6-0.8,0.9-1.5,0.8L650.1,246.1L650.1,246.1z M657.3,254.1
			c-0.6-0.1-0.9-0.8-0.8-1.5c0.1-0.6,0.8-0.9,1.5-0.8l10.8,3.3c0.6,0.1,0.9,0.8,0.8,1.5c-0.1,0.6-0.8,0.9-1.5,0.8L657.3,254.1
			L657.3,254.1z"/>
	</g>
	<g>
		<path class="st3" d="M579.6,136.5c14,10.1,22,30.8,24.1,44.3c7.7-1.1,15.5-1.9,23.2-3c2.2-19.6,8.2-28,17-40
			c-0.2-3.4-1.7-5.2-4.3-5.8c-10.1,27.3-29.5,41.1-8-3.4l-5.4-3c-4.3,7.5-6.5,16.6-8.8,25c-0.4-9.3,2.2-20.9,4.7-28
			c-1.3-2.6-4.7-3.7-7.5-2.4c-3.4,6.9-4.3,32.1-4.9,36.6l-0.9-36.6c-2.2-0.9-4.7-0.9-6.2,0.2c3.4,15.9-3.7,10.8-5.6,2.2
			c-4.7,0.4-7.3,2.4-7.7,5.8c7.5,6.7,11.2,12.9,12.3,25.4c-3.2-11.8-10.8-18.9-15.9-23C583.1,131.2,580.5,132.7,579.6,136.5
			L579.6,136.5L579.6,136.5z"/>
		<path class="st3" d="M583.3,142.1c0-0.2,0-0.4,0-0.4c-9.5,9.5-27.8-2.8-18.9-11.8c-8.6-4.1-4.1-22.2,10.5-18.1
			c-1.9-14,12.3-18.5,21.3-15.1c-10.8,7.7-4.1,20.4,2.8,25.2c-4.7-3.4-12.3,2.8-11.2,8C579,127.3,574.4,140.6,583.3,142.1
			L583.3,142.1L583.3,142.1z M573.8,115.2c-0.6-0.2-1.5,0.2-1.7,0.9c-0.2,0.6,0.2,1.5,0.9,1.7c0.6,0.2,1.5-0.2,1.7-0.9
			C574.9,116.1,574.4,115.5,573.8,115.2L573.8,115.2L573.8,115.2z M568.6,115.5c-0.6-0.2-1.3,0.2-1.5,0.9s0.2,1.3,0.9,1.5
			s1.3-0.2,1.5-0.9C569.5,116.3,569.3,115.7,568.6,115.5L568.6,115.5L568.6,115.5z M568.6,119.5c-0.6-0.2-1.3,0.2-1.5,0.9
			s0.2,1.3,0.9,1.5s1.3-0.2,1.5-0.9C569.7,120.4,569.3,119.8,568.6,119.5L568.6,119.5L568.6,119.5z M564.8,120.8
			c-0.6-0.2-1.3,0.2-1.5,0.9s0.2,1.3,0.9,1.5s1.3-0.2,1.5-0.9C565.6,121.5,565.4,120.8,564.8,120.8L564.8,120.8L564.8,120.8z
			 M568,128.6c-0.4-0.2-1.1,0.2-1.1,0.6c-0.2,0.4,0.2,1.1,0.6,1.1c0.4,0.2,1.1-0.2,1.1-0.6C568.6,129.2,568.4,128.8,568,128.6
			L568,128.6L568,128.6z M577.5,113.1c-0.6-0.2-1.1,0.2-1.3,0.6c-0.2,0.6,0.2,1.1,0.6,1.3c0.6,0.2,1.1-0.2,1.3-0.6
			C578.3,113.9,578.1,113.3,577.5,113.1L577.5,113.1L577.5,113.1z M583.3,115.2c-0.4-0.2-0.9,0.2-1.1,0.6c-0.2,0.4,0.2,0.9,0.6,1.1
			c0.4,0.2,0.9-0.2,1.1-0.6C583.9,115.7,583.7,115.2,583.3,115.2L583.3,115.2L583.3,115.2z M584.3,121.5c-0.4-0.2-0.9,0.2-1.1,0.6
			c-0.2,0.4,0.2,0.9,0.6,1.1c0.4,0.2,0.9-0.2,1.1-0.6C585,122.1,584.8,121.7,584.3,121.5L584.3,121.5L584.3,121.5z M580.5,101
			c-0.4-0.2-0.9,0.2-1.1,0.6c-0.2,0.4,0.2,0.9,0.6,1.1c0.4,0.2,0.9-0.2,1.1-0.6C581.1,101.7,580.9,101.3,580.5,101L580.5,101
			L580.5,101z"/>
		<path class="st4" d="M623.3,126.2c2.8-3.7,12.3-0.6,8.6,6.2c10.8,2.4,16.6-10.1,7.1-15.9c9.9-11.8-8.2-24.1-17.9-14.4
			c-6.9-20.2-46.5-2.2-21.3,19.8c1.1-3.9,11-3.7,12.1,0.6C615.3,115,627.2,120.8,623.3,126.2L623.3,126.2L623.3,126.2z M608.7,99.3
			c-0.6-0.2-1.5,0.2-1.7,0.9s0.2,1.5,0.9,1.7c0.6,0.2,1.5-0.2,1.7-0.9C609.7,100.2,609.3,99.5,608.7,99.3L608.7,99.3L608.7,99.3z
			 M604.6,98.2c-0.6-0.2-1.5,0.2-1.7,0.9c-0.2,0.6,0.2,1.5,0.9,1.7c0.6,0.2,1.5-0.2,1.7-0.9C605.9,99.3,605.4,98.5,604.6,98.2
			L604.6,98.2L604.6,98.2z M602.8,101.7c-0.6-0.2-1.3,0.2-1.5,0.9c-0.2,0.6,0.2,1.3,0.9,1.5s1.3-0.2,1.5-0.9
			C603.9,102.5,603.5,101.7,602.8,101.7L602.8,101.7L602.8,101.7z M599.4,98.5c-0.6-0.2-1.3,0.2-1.5,0.9s0.2,1.3,0.9,1.5
			c0.6,0.2,1.3-0.2,1.5-0.9C600.3,99.3,600.1,98.7,599.4,98.5L599.4,98.5L599.4,98.5z M599.4,102.5c-0.6-0.2-1.3,0.2-1.5,0.9
			s0.2,1.3,0.9,1.5c0.6,0.2,1.3-0.2,1.5-0.9C600.5,103.4,600.1,102.8,599.4,102.5L599.4,102.5L599.4,102.5z M595.5,103.8
			c-0.6-0.2-1.3,0.2-1.5,0.9s0.2,1.3,0.9,1.5c0.6,0.2,1.3-0.2,1.5-0.9C596.6,104.7,596.2,104,595.5,103.8L595.5,103.8L595.5,103.8z
			 M598.8,111.6c-0.4-0.2-1.1,0.2-1.1,0.6c-0.2,0.4,0.2,1.1,0.6,1.1c0.4,0.2,1.1-0.2,1.1-0.6C599.6,112.2,599.2,111.8,598.8,111.6
			L598.8,111.6L598.8,111.6z M608.2,96.1c-0.6-0.2-1.1,0.2-1.3,0.6s0.2,1.1,0.6,1.3c0.6,0.2,1.1-0.2,1.3-0.6
			C609.1,96.9,608.9,96.3,608.2,96.1L608.2,96.1L608.2,96.1z M614.3,98.2c-0.4-0.2-0.9,0.2-1.1,0.6c-0.2,0.4,0.2,0.9,0.6,1.1
			c0.4,0.2,0.9-0.2,1.1-0.6C614.9,98.9,614.7,98.2,614.3,98.2L614.3,98.2L614.3,98.2z M615.1,104.7c-0.4-0.2-0.9,0.2-1.1,0.4
			c-0.2,0.4,0.2,0.9,0.6,1.1c0.4,0.2,0.9-0.2,1.1-0.6C615.8,105.1,615.5,104.7,615.1,104.7L615.1,104.7L615.1,104.7z"/>
		<path class="st3" d="M641.2,130.9c4.3-0.2,8,6.7,1.9,10.1c24.3,3,19.8-34.4-3.2-24.7C643.5,117.4,647.8,125.4,641.2,130.9
			L641.2,130.9L641.2,130.9z"/>
	</g>
	<g>
		<path class="st0" d="M875.8,296.5c8.5-0.2,16.9-0.4,25.1-0.5c4.2-20.7,11.6-29.2,22.4-40.9c1.8-3.5-1.9-6.2-4-5.8
			c-13.7,28.1-36.2,39.6-8.4-5.5c-0.8-2.4-2.6-3.6-5.5-3.9c-5.4,7.4-8.1,17.4-11.6,26c0.5-9.9,4.6-22.1,8.1-29.4
			c0.3-3.2-6.5-5.6-7.6-3.5c-4.6,6.9-7.1,29.5-8,34.4l1.9-35.1c-0.2-2.5-6.2-2.5-6.7-0.5c2,17.2-5.3,11.2-6.6,1.7
			c-2.3-1.7-8.6,2.4-7.9,4.5C878.1,249.7,880.9,277.2,875.8,296.5L875.8,296.5L875.8,296.5z"/>
		<path class="st0" d="M851.7,229c0.6-0.1,1,0.1,1.3,0.4c0.1,0.6-0.1,1-0.4,1.3c-0.6,0.1-1-0.1-1.3-0.4
			C851,230.1,851.2,229.5,851.7,229L851.7,229L851.7,229z"/>
		<path class="st0" d="M851.8,221.8c0.6-0.1,1,0.1,1.3,0.4c0.1,0.6-0.1,1-0.4,1.3c-0.6,0.1-1-0.1-1.3-0.4
			C851.3,222.5,851.5,221.8,851.8,221.8L851.8,221.8L851.8,221.8z"/>
		<path class="st0" d="M857.4,215.3c0.6-0.1,1.3,0.1,1.7,0.6s-0.1,1.3-0.6,1.7c-0.6,0.1-1.3-0.1-1.7-0.6
			C856.6,216.1,856.8,215.4,857.4,215.3L857.4,215.3L857.4,215.3z"/>
		<path class="st0" d="M862.8,220.1c0.8-0.5,1.9-0.1,2.1,0.8c0.5,0.8,0.1,1.9-0.8,2.1c-0.8,0.5-1.9,0.1-2.1-0.8
			C861.8,221.3,861.9,220.3,862.8,220.1L862.8,220.1L862.8,220.1z"/>
		<path class="st0" d="M858.4,221.7c0.8-0.5,1.9-0.1,2.1,0.8c0.5,0.8,0.1,1.9-0.8,2.1c-0.8,0.5-1.9,0.1-2.1-0.8
			C857.1,223.2,857.6,222.2,858.4,221.7L858.4,221.7L858.4,221.7z"/>
		<path class="st0" d="M852.3,217.9c-0.6-3-0.2-5.6,0.9-7.8c1.1-2.1,3.2-4.1,5.8-5.3s5.3-1.7,8.1-2c3.1,0,6.5,0.9,8.7,2.6
			c-1.4,0.9-2.5,1.8-3.5,2.9c-2.6,2.7-3.4,6.4-3.1,9.5l0,0c0.1,3.4,1.4,6.6,2.9,9.5c0.6,1.1,1.4,2.2,2.3,3.3
			c-0.7-0.2-1.3-0.1-2.2,0.1c-1.2,0.3-2.4,0.5-3.8,1.4c-1.1,0.6-2.2,1.4-2.9,2.5c-1.3,1.5-2.2,3.3-2.1,5.2
			c-10.5,4.1-17.3,3-21.2-0.3c-2.3-2-3.8-4.9-4.1-7.7c-0.3-3.1,0.3-6.1,2-8.6c2.2-3.3,6.1-5.7,11.3-4.6c0.3-0.1,0.6-0.1,0.8-0.5
			L852.3,217.9L852.3,217.9L852.3,217.9z M851.8,209.5c-1.1,2.1-1.5,4.7-1.2,7.8c-5.5-0.7-9.4,1.6-11.8,5.3
			c-1.7,2.6-2.5,6.2-2.2,9.3c0.4,3.4,1.7,6.6,4.7,8.8c4.2,3.5,11.7,4.8,23.1,0.3l0,0c0.3-0.1,0.5-0.4,0.5-0.7
			c-0.3-1.5,0.6-3.3,1.5-4.7c0.8-0.8,1.6-1.6,2.7-2.1c1.1-0.6,2-1,3.3-1c1.5-0.3,3.1,0,4.3,1l0,0c0.4,0.2,0.7,0.2,0.9-0.2
			s0.2-0.7-0.2-0.9c-1.5-1.3-3.2-3.1-4.3-5.4c-1.5-2.8-2.5-5.8-2.8-8.9l0,0c0-3.1,0.6-6.1,2.9-8.8c1-1.2,2.3-2.4,4-3.4
			c0,0,0,0,0.3-0.1c0.2-0.4,0.2-0.7,0.1-1c-2.7-2.3-6.4-3.4-10.2-3.6c-2.8,0-6.2,0.6-8.7,2.1C855.6,204.9,853.2,207,851.8,209.5
			L851.8,209.5L851.8,209.5z"/>
		<path class="st0" d="M891.5,224.6c0.6-0.1,1,0.1,1.3,0.4c0.1,0.6-0.1,1-0.4,1.3c-0.6,0.1-1-0.1-1.3-0.4
			C891,225.3,891.2,224.7,891.5,224.6L891.5,224.6L891.5,224.6z"/>
		<path class="st0" d="M891.5,217c0.6-0.1,1,0.1,1.3,0.4c0.1,0.6-0.1,1-0.4,1.3c-0.6,0.1-1-0.1-1.3-0.4
			C891,217.8,891.2,217.1,891.5,217L891.5,217L891.5,217z"/>
		<path class="st0" d="M898.5,213.1c0.6-0.1,1.3,0.1,1.7,0.6c0.1,0.6-0.1,1.3-0.6,1.7c-0.6,0.1-1.3-0.1-1.7-0.6
			C897.8,214.1,897.9,213.2,898.5,213.1L898.5,213.1L898.5,213.1z"/>
		<path class="st0" d="M915.2,229.5c0.6-0.1,1.3,0.1,1.4,0.7c0.1,0.6-0.1,1.3-0.7,1.4c-0.6,0.1-1.3-0.1-1.4-0.7
			S914.6,229.6,915.2,229.5L915.2,229.5L915.2,229.5z"/>
		<path class="st0" d="M917.6,219.8c0.5-0.4,1.6,0,1.7,0.6c0.4,0.5,0,1.6-0.6,1.7c-0.5,0.4-1.6,0-1.7-0.6
			C916.6,221,916.7,220,917.6,219.8L917.6,219.8L917.6,219.8z"/>
		<path class="st0" d="M912.7,219.3c0.5-0.4,1.6,0,1.7,0.6c0.4,0.5,0,1.6-0.6,1.7c-0.5,0.4-1.6,0-1.7-0.6
			C911.7,220.1,912.1,219.4,912.7,219.3L912.7,219.3L912.7,219.3z"/>
		<path class="st0" d="M912,214.4c0.5-0.4,1.6,0,1.7,0.6c0.4,0.5,0,1.6-0.6,1.7c-0.5,0.4-1.6,0-1.7-0.6
			C911,215.5,911.5,214.8,912,214.4L912,214.4L912,214.4z"/>
		<path class="st0" d="M908.8,218.5c0.5-0.4,1.6,0,1.7,0.6c0.4,0.5,0,1.6-0.6,1.7c-0.5,0.4-1.6,0-1.7-0.6
			C907.8,219.6,908,219,908.8,218.5L908.8,218.5z"/>
		<path class="st0" d="M906.2,214.9c0.8-0.5,1.9-0.1,2.1,0.8c0.5,0.8,0.1,1.9-0.8,2.1c-0.8,0.5-1.9,0.1-2.1-0.8
			C904.8,216.2,905.3,215.4,906.2,214.9L906.2,214.9L906.2,214.9z"/>
		<path class="st0" d="M901.5,216.8c0.8-0.5,1.9-0.1,2.1,0.8c0.5,0.8,0.1,1.9-0.8,2.1c-0.8,0.5-1.9,0.1-2.1-0.8
			C900.5,218,900.6,217,901.5,216.8L901.5,216.8L901.5,216.8z"/>
		<path class="st0" d="M903.6,239.1c1.4-0.9,2.9-1.2,4.2-0.9l0,0c1,0.1,1.7,0.6,2.5,1.4c0.7,0.5,1.2,1.3,1.7,2.2
			c0.6,1.4,0.3,3.1-0.6,4.5c-0.2,0.4-0.2,0.7,0.2,0.9l0,0l0,0c3.4,1.2,6.4,0.6,8.6-0.8c1.4-0.9,2.4-2.1,3.3-3.8
			c0.7-1.4,1.3-3.1,1.2-5c0-2.8-1.3-6-4.2-8.3c3.6-3.9,3.9-8.4,2.2-12.1c-0.7-1.8-1.9-3.1-3.1-4.4c-1.2-1.3-3-2.2-4.7-3.1
			c-3.8-1.7-8.5-1.4-11.9,1.8c-1.5-5.7-5.6-8.9-10.5-9.5c-3.6-0.5-7.9,0.1-11.5,2.1c-3.7,1.7-6.6,4.5-8.4,8.3
			c-2.4,5.2-1.9,12.4,4.7,19.8c0.4,0.2,0.7,0.2,1,0.1c0.3-0.1,0.2-0.4,0.2-0.4l0,0c0-1.6,1.1-2.4,2.8-3.1c0.9-0.2,1.5-0.3,2.4-0.5
			c1,0.1,1.9,0.2,2.6,0.4c2,0.5,3.6,2.1,3.8,4.6c0.1,0.3,0.4,0.5,0.7,0.5c0.3-0.1,0.6-0.1,0.5-0.4l0,0c1.1-2.4,3.1-3.2,5.4-3
			c1,0.1,1.6,0.3,2.4,0.8c0.7,0.5,1.5,1,2.2,1.4c1.2,1.3,2,3.4,1.1,5.4c-0.2,0.4-0.2,0.7,0.2,0.9
			C903.3,239.2,903.6,239.1,903.6,239.1L903.6,239.1L903.6,239.1z M908.3,237.2c-1.3-0.4-2.6-0.4-3.8,0.1c0.2-1.9-0.5-4-1.7-5.3
			c-0.8-0.8-1.5-1.3-2.6-1.7c-1-0.4-2.1-0.8-3-0.6c-1.9-0.2-4.3,0.6-5.5,2.4c-0.7-2.1-2.3-3.3-4.3-4.1c-1-0.4-2-0.5-2.9-0.3
			c-1-0.1-2.2,0.1-3,0.6c-1.4,0.6-2.8,1.5-3.2,2.9c-5.5-6.7-5.8-12.7-3.9-17.5c1.6-3.2,4.4-6,7.9-7.6s7.1-2.4,10.6-1.9
			c4.5,0.6,8.7,3.9,9.9,9.6l0,0l0.1,0.3c0.4,0.2,0.7,0.2,1,0.1c3.4-3.5,7.7-3.8,11.2-2.3c1.4,0.7,2.9,1.6,4.4,2.9
			c1.2,1.3,2.1,2.7,2.8,4.2c1.4,3.5,1.3,7.6-2.7,11.3l0,0l0,0c-0.2,0.4-0.2,0.7,0.2,0.9c3,2.2,4.2,5.1,4.2,8c0,1.6-0.3,2.9-1,4.3
			c-0.7,1.4-1.7,2.6-2.8,3.1c-1.9,1.3-4,1.8-6.7,1.1c0.9-1.8,0.8-3.6,0.5-5.1c-0.3-1.2-1-2-1.8-2.8
			C910.6,238,909.5,237.2,908.3,237.2L908.3,237.2L908.3,237.2z"/>
		<path class="st0" d="M932.3,234.4c0.6-0.1,1,0.1,1.3,0.4c0.1,0.6-0.1,1-0.4,1.3c-0.6,0.1-1-0.1-1.3-0.4
			C931.5,235.2,931.7,234.6,932.3,234.4L932.3,234.4L932.3,234.4z"/>
		<path class="st0" d="M921.6,248.3c1.3,0.1,2.1,0.8,2.9,1.6c0.4,0.5,0.9,1.4,1.1,2.3c0.2,0.9,0.1,1.9-0.1,2.5
			c-0.4,1.3-1.7,2.6-3.4,3.2c-0.3,0.1-0.5,0.4-0.4,1c0.1,0.3,0.4,0.2,0.4,0.5l0,0c8.2,1.8,14.3-1.1,17.4-5.8c2.2-3,3-6.9,2.9-10.4
			c-0.1-3.8-1.2-7.3-3.6-10c-3.3-3.7-8.5-5.8-16.2-3.6c-0.3,0.1-0.5,0.4-0.5,0.7c0.1,0.3,0.1,0.3,0.4,0.5l0,0
			c0.7,0.2,1.5,1.3,2.4,2.3c0.6,1.1,1.1,2.3,1.1,3.9c0.3,1.5,0,3.1-0.3,4.5c-0.5,2-2,3.9-4.6,5.4c-0.3,0.1-0.5,0.7-0.1,1
			C921.2,248.1,921.3,248.4,921.6,248.3L921.6,248.3L921.6,248.3z M925.5,249.1c-0.5-0.8-1.2-1.3-2.3-1.7c1.9-1.3,3.1-3.2,4-5.2
			c0.6-1.7,0.6-3.3,0.5-5.1c-0.3-1.5-0.6-3-1.2-4.5c-0.5-0.8-1-1.7-1.7-2.2c6-1.6,10.5,0.4,13.3,3.5c2.1,2.4,3.1,5.7,3.1,9.1
			c0.1,3.4-0.8,6.8-2.7,9.7c-2.6,4-7.5,6.6-14.3,5.5c1.4-0.9,2.1-2,2.5-3s0.5-2.3,0.3-3.2C926.6,251.1,926.3,249.8,925.5,249.1
			L925.5,249.1L925.5,249.1z"/>
	</g>
	<g>
		<path class="st3" d="M891.5,144.7c6,10.5,6.1,19.1,2.6,28c-4.9,12.4-15.5,20-24.4,22.3c9.4,0.8,28.5-19.5,39.8-23.9
			c9.5-3.4,15.5-1.1,24.7-1.3c16.9-0.6,18.6-18.1,12-28.7c-8.2-13.4-21.2-22.1-36.6-23.9C893.1,115.5,881.4,126.7,891.5,144.7
			L891.5,144.7L891.5,144.7z"/>
		<path class="st3" d="M931.7,125c6.8-20.2,5.8-37.8-5.6-52.3c12.6-1,21,15.3,14.5,22.5c3.3,4.3,3.2,10.8-2.6,15.5
			c0.2,2.1,0.1,3.9-0.6,5.6c1.7-1.7,4-3.3,6.7-4.1c-1.3-9.2,8.1-13.3,13.3-8.5c3.6-15.8,21.8-11.7,26.5-1.4c6.4-6.4,20-2.1,22,8
			c-32.7-8.7-56.7-1.3-71.8,12.6C933.2,123.6,932.3,124.3,931.7,125L931.7,125L931.7,125z"/>
		<path class="st3" d="M932.3,125.4c15.9-7.5,37.9-7.9,62,7.2c-1.9-7.2-10.6-12.1-15.8-12c-1.8-5.6-15.6-12.3-21.7-5.4
			c-3.9-2.3-9.6-1.8-13.1,3.7C938.5,119,934.8,122.2,932.3,125.4L932.3,125.4L932.3,125.4z"/>
		<path class="st3" d="M911.3,101.9c10.5-10.5,27.4,7.5,19.7,22.4C930.1,114.1,919.4,105.1,911.3,101.9L911.3,101.9L911.3,101.9z"/>
		<path class="st0" d="M912,101.5c0.5-0.1,0.8,0.1,1.1,0.3c0.1,0.5-0.1,0.8-0.3,1.1c-0.5,0.1-0.8-0.1-1.1-0.3
			C911.6,102.1,911.8,101.8,912,101.5L912,101.5L912,101.5z"/>
	</g>
	<g>
		<path class="st5" d="M849.1,167.7c0,0.9,0.3,2.1,0.6,3c-2.4,0.6-4.5,1.2-6.8,1.8c-0.3-1.2-0.3-1.2-0.6-2.4
			c-22,1.8-33.2-8-30.3-26.1c6.5-3.6,10.4-2.7,14.5,0.9c0.9,0.9,1.5,1.2,2.7,1.2c3.6,0,7.4-0.6,9.8,5c0.6,1.5,0.6,0.9,1.8,1.5
			c2.4,0.6,4.5,3.6,4.5,8C845.3,164.1,850.6,160.9,849.1,167.7L849.1,167.7L849.1,167.7z"/>
		<path class="st5" d="M832.5,146c-3-5.3,1.5-5.6,3.3-6.8c0.9-0.6,1.5-0.9,1.5-2.4c0.6-5.3,4.2-7.7,9.2-7.1c2.1,0.3,2.1,0.3,3.6-1.2
			c4.5-3.6,7.1-1.5,11,0.9c10.7,13.9,7.1,29.4-8.9,36.8c-0.3,0.3,1.2,3.6,0.9,3.6c-0.6,0.3-2.1,0.6-2.7,0.9c-0.6-1.2-0.9-3-0.3-4.7
			c0.6-2.4-0.9-3.3-2.7-3.6c-1.5-0.3-1.2-3-1.5-4.5c-0.3-2.1-1.5-3.9-4.5-5.3c-1.5-0.9-1.8-0.3-2.1-1.8
			C838.5,146.6,835.2,145.4,832.5,146L832.5,146L832.5,146z"/>
		<path class="st5" d="M860.4,127.9c-3.6-3-8-5-12.8-5.9c-1.5,0.6-2.7,1.2-3.9,2.1c-2.1,1.2-3.9,2.1-5.6,2.4
			c-1.8,0.6-3.3,1.8-3.6,4.2c-0.9,2.7-1.8,5.9-8,6.8c-0.9,0-2.4,0-3.3-0.3c-1.5-0.3-3.3-0.6-5.3,0.9c-0.3,0-0.3,0.3-0.6,0.3
			c-1.2,0.6-3,1.2-4.7,0.9l0,0c-0.6,1.2-0.9,2.7-1.2,4.2c3.3-2.7,8-3.6,12.8-0.9c2.7,1.5,3.3,3.6,6.5,3c-1.2-2.7-1.2-4.5,1.8-5.9
			c1.2-0.6,3.9-1.5,3.6-3.3c-0.3-5,3.9-7.7,9.2-7.4c1.5,0,3.3,0,4.2-1.2C853,125,856.3,125.3,860.4,127.9L860.4,127.9L860.4,127.9z
			 M846.2,121.7c-13.1-1.8-27.6,4.5-32.6,16.6c1.5,0,2.7-0.3,3.9-0.9c0.3,0,0.3-0.3,0.6-0.3c5.3-3.3,12.5,3.6,16-6.8
			c0.9-2.1,1.5-4.2,4.2-4.7c2.4-0.6,3.9-1.5,5.3-2.4C844.4,122.9,845.3,122.3,846.2,121.7L846.2,121.7L846.2,121.7z"/>
		<path class="st5" d="M865.5,134.2c5.9,12.8,1.8,26.1-12.5,32.3c3.6,3.9,11.9,0.9,12.5-3.3c0.3-3,3.9-4.2,7.4-5
			c4.5-1.2,5.3-6.5,3-11.3c-1.2-2.4-3.6-2.7-3.3-5.3C873.5,135.9,868.7,133.6,865.5,134.2L865.5,134.2L865.5,134.2z"/>
		<path class="st5" d="M841.1,170.7c-11.6,1.5-27.6-0.9-30.3-17.2c-3.3,3.3-3,10.7,2.1,13.1c2.1,1.2,2.7,0.9,4.5,2.7
			c4.2,4.7,5.3,5.6,11,4.5c2.1-0.6,3.3-0.3,5,0.3C837.3,175.1,840.8,172.1,841.1,170.7L841.1,170.7L841.1,170.7z"/>
	</g>
	<path class="st5" d="M946,342.3c-0.2,0.4-0.6,0.6-1.1,0.4c-0.4-0.2-0.6-0.6-0.4-1.1c10.8-24.5,22-48.9,33.6-73s23.7-48.2,35.9-72.1
		c0.2-0.4,0.9-0.6,1.3-0.4c0.4,0.2,0.6,0.9,0.4,1.3c-12.3,23.9-24.3,47.8-35.7,71.9C967.9,293.6,956.7,317.9,946,342.3L946,342.3
		L946,342.3z"/>
	<path class="st5" d="M1017.6,161.7l3.7,15.3c0.4,2.2,1.5,7.7-0.4,12.3l-1.5,3.4c-0.2,0.6-0.4,0.6-0.6,0l-3.7-15.9
		c-0.9-3.4-1.1-8,0.4-11.2l1.7-4.1C1017.4,160.9,1017.6,161.1,1017.6,161.7L1017.6,161.7L1017.6,161.7z"/>
	<path class="st5" d="M1045,174l-13.8,7.3c-1.9,1.1-6.9,4.1-9,8.4l-1.5,3.2c-0.2,0.6-0.2,0.9,0.4,0.6l14.2-7.7
		c3.2-1.7,6.7-4.5,8.2-7.7l1.9-4.1C1045.6,173.8,1045.4,173.5,1045,174L1045,174L1045,174z"/>
	<path class="st5" d="M1023,149.7l3.7,15.3c0.4,2.2,1.5,7.7-0.4,12.3l-1.5,3.4c-0.2,0.6-0.4,0.6-0.6,0l-3.7-15.9
		c-0.9-3.4-0.9-8,0.4-11.2l1.7-4.1C1022.8,149,1023,149,1023,149.7L1023,149.7L1023,149.7z"/>
	<path class="st5" d="M1050.4,161.9l-14,7.3c-1.9,1.1-6.9,4.1-9,8.4l-1.5,3.2c-0.2,0.6-0.2,0.9,0.4,0.6l14.2-7.7
		c3.2-1.7,6.7-4.5,8.2-7.7L1050.4,161.9C1051,161.7,1050.8,161.7,1050.4,161.9L1050.4,161.9L1050.4,161.9z"/>
	<path class="st5" d="M1028.6,137.6l3.7,15.3c0.4,2.2,1.5,7.7-0.4,12.3l-1.5,3.4c-0.2,0.6-0.4,0.6-0.6,0l-3.7-15.9
		c-0.9-3.4-1.1-8,0.4-11.2l1.7-4.1C1028.4,137,1028.4,137,1028.6,137.6L1028.6,137.6L1028.6,137.6z"/>
	<path class="st5" d="M1055.7,150.1l-14,7.3c-1.9,1.1-6.9,4.1-9,8.4l-1.5,3.2c-0.2,0.6-0.2,0.9,0.4,0.6l14.2-7.7
		c3.2-1.7,6.7-4.5,8.2-7.7L1055.7,150.1C1056.4,149.7,1056.4,149.7,1055.7,150.1L1055.7,150.1L1055.7,150.1z"/>
	<path class="st5" d="M1034,125.8l3.7,15.3c0.4,2.2,1.5,7.7-0.4,12.3l-1.5,3.4c-0.2,0.6-0.4,0.6-0.6,0l-3.7-15.9
		c-0.9-3.4-0.9-8,0.4-11.2l1.7-4.1C1033.8,124.9,1033.8,125.1,1034,125.8L1034,125.8L1034,125.8z"/>
	<path class="st5" d="M1061.1,138l-14,7.3c-1.9,1.1-6.9,4.1-9,8.4l-1.5,3.2c-0.2,0.6-0.2,0.9,0.4,0.6l14.2-7.7
		c3.2-1.7,6.7-4.5,8.2-7.7L1061.1,138C1061.8,137.8,1061.8,137.8,1061.1,138L1061.1,138L1061.1,138z"/>
	<path class="st5" d="M1039.4,113.7l3.7,15.3c0.4,2.2,1.5,7.7-0.4,12.3l-1.5,3.4c-0.2,0.6-0.4,0.6-0.6,0l-3.7-15.9
		c-0.9-3.4-1.1-8,0.4-11.2l1.7-4.1C1039.2,113.1,1039.2,113.1,1039.4,113.7L1039.4,113.7L1039.4,113.7z"/>
	<path class="st5" d="M1066.5,126l-13.8,7.3c-1.9,1.1-6.9,4.1-9,8.4l-1.5,3.2c-0.2,0.6-0.2,0.9,0.4,0.6l14.2-7.7
		c3.2-1.7,6.7-4.5,8.2-7.7l1.9-4.1C1067.4,125.8,1067.1,125.8,1066.5,126L1066.5,126L1066.5,126z"/>
	<path class="st5" d="M1044.8,101.7l3.7,15.3c0.4,2.2,1.5,7.7-0.4,12.3l-1.5,3.4c-0.2,0.6-0.4,0.6-0.6,0l-3.7-15.9
		c-0.9-3.4-1.1-8,0.4-11.2l1.7-4.1C1044.5,101,1044.8,101.2,1044.8,101.7L1044.8,101.7L1044.8,101.7z"/>
	<path class="st5" d="M1072.1,114.2l-14,7.3c-1.9,1.1-6.9,4.1-9,8.4l-1.5,3.2c-0.2,0.6-0.2,0.9,0.4,0.6l14.2-7.7
		c3.2-1.7,6.7-4.5,8.2-7.7L1072.1,114.2C1072.7,113.7,1072.5,113.7,1072.1,114.2L1072.1,114.2L1072.1,114.2z"/>
	<path class="st5" d="M1050.4,89.8l3.7,15.3c0.4,2.2,1.5,7.7-0.4,12.3l-1.5,3.4c-0.2,0.6-0.4,0.6-0.6,0l-3.7-15.9
		c-0.9-3.4-0.9-8,0.4-11.2l1.7-4.1C1049.9,89.2,1050.1,89.2,1050.4,89.8L1050.4,89.8L1050.4,89.8z"/>
	<path class="st5" d="M1077.5,102.1l-14,7.3c-1.9,1.1-6.9,4.1-9,8.4l-1.5,3.2c-0.2,0.6-0.2,0.9,0.4,0.6l14.2-7.7
		c3.2-1.7,6.7-4.5,8.2-7.7L1077.5,102.1C1078.1,101.9,1078.1,101.9,1077.5,102.1L1077.5,102.1L1077.5,102.1z"/>
	<path class="st5" d="M1061.1,93.9c0.9-2.2,2.6-4.7,4.5-6l2.4-1.5c0.2-0.2,0.2-0.2,0.2,0c0,0,0,0,0.2,0.2l0.4,2.8
		c0.2,2.2-0.4,5.2-1.5,7.3l-3.7,8.2c-0.9,2.2-2.6,4.7-4.5,6l-2.4,1.5c-0.2,0.2-0.2,0.2-0.2,0c0,0,0,0-0.2-0.2l-0.4-2.8
		c-0.2-2.2,0.4-5.2,1.5-7.3L1061.1,93.9L1061.1,93.9z"/>
	<path class="st5" d="M942.8,341.8c-0.2,0.4-0.6,0.9-1.1,0.6s-0.9-0.6-0.6-1.1c3.4-15.1,7.1-30.1,11-45.2s7.7-30.1,11.8-45
		c0.2-0.4,0.6-0.9,1.1-0.6s0.9,0.6,0.6,1.1c-4.1,15.1-8,30.1-11.8,45C949.9,311.7,946.2,326.8,942.8,341.8L942.8,341.8L942.8,341.8z
		"/>
	<path class="st5" d="M958.7,217.7l5.8,14.6c0.9,1.9,2.6,7.5,1.5,12.3l-0.9,3.7c-0.2,0.6-0.4,0.9-0.6,0.2l-6-15.1
		c-1.3-3.2-2.2-7.7-1.3-11.2l1.1-4.3C958.2,217,958.5,217,958.7,217.7L958.7,217.7L958.7,217.7z"/>
	<path class="st5" d="M987.5,225.6l-12.5,9.5c-1.7,1.3-6,4.9-7.5,9.7l-1.1,3.4c-0.2,0.6,0,0.9,0.4,0.4l12.9-9.7
		c2.8-2.2,5.8-5.6,6.9-8.8l1.3-4.3C988.2,225.2,987.9,225.2,987.5,225.6L987.5,225.6L987.5,225.6z"/>
	<path class="st5" d="M962.1,205l5.8,14.6c0.9,1.9,2.6,7.5,1.5,12.3l-0.9,3.7c-0.2,0.6-0.4,0.9-0.6,0.2l-6-15.1
		c-1.3-3.2-2.2-7.7-1.3-11.2l1.1-4.3C961.9,204.3,961.9,204.3,962.1,205L962.1,205L962.1,205z"/>
	<path class="st5" d="M991,212.9l-12.5,9.5c-1.7,1.3-6.2,4.9-7.5,9.7l-1.1,3.4c-0.2,0.6,0,0.9,0.4,0.4l12.9-9.7
		c2.8-2.2,5.8-5.6,6.9-8.8l1.3-4.3C991.6,212.5,991.4,212.5,991,212.9L991,212.9L991,212.9z"/>
	<path class="st5" d="M965.8,192.3l5.8,14.6c0.9,1.9,2.6,7.5,1.5,12.3l-0.9,3.7c-0.2,0.6-0.4,0.9-0.6,0.2l-6-15.1
		c-1.3-3.2-2.2-7.7-1.3-11.2l1.1-4.3C965.3,191.6,965.6,191.6,965.8,192.3L965.8,192.3L965.8,192.3z"/>
	<path class="st5" d="M994.6,200.2l-12.5,9.5c-1.7,1.3-6,4.9-7.5,9.7l-1.1,3.4c-0.2,0.6,0,0.9,0.4,0.4l12.9-9.7
		c2.8-2.2,5.8-5.6,6.9-8.8l1.3-4.3C995,200,995,200,994.6,200.2L994.6,200.2L994.6,200.2z"/>
	<path class="st5" d="M969.2,179.6l5.8,14.6c0.9,1.9,2.6,7.5,1.5,12.3l-0.9,3.7c-0.2,0.6-0.4,0.9-0.6,0.2l-6-15.1
		c-1.3-3.2-2.2-7.7-1.3-11.2l1.1-4.3C969,178.9,969,178.9,969.2,179.6L969.2,179.6L969.2,179.6z"/>
	<path class="st5" d="M998.1,187.5l-12.5,9.5c-1.7,1.3-6,4.9-7.5,9.7l-1.1,3.4c-0.2,0.6,0,0.9,0.4,0.4l12.9-9.7
		c2.8-2.2,5.8-5.6,6.9-8.8l1.3-4.3C998.7,187.3,998.5,187.3,998.1,187.5L998.1,187.5L998.1,187.5z"/>
	<path class="st5" d="M972.9,166.9l5.8,14.6c0.9,1.9,2.6,7.5,1.5,12.3l-0.9,3.7c-0.2,0.6-0.4,0.9-0.6,0.2l-6-15.1
		c-1.3-3.2-2.2-7.7-1.3-11.2l1.1-4.3C972.5,166.2,972.7,166.4,972.9,166.9L972.9,166.9L972.9,166.9z"/>
	<path class="st5" d="M1001.5,175.1l-12.5,9.5c-1.7,1.3-6,4.9-7.5,9.7l-1.1,3.4c-0.2,0.6,0,0.9,0.4,0.4l12.9-9.7
		c2.8-2.2,5.8-5.6,6.9-8.8l1.3-4.3C1002.1,174.6,1002.1,174.6,1001.5,175.1L1001.5,175.1L1001.5,175.1z"/>
	<path class="st5" d="M976.3,154.2l5.8,14.6c0.9,1.9,2.6,7.5,1.5,12.3l-0.9,3.7c-0.2,0.6-0.4,0.9-0.6,0.2l-6-15.1
		c-1.3-3.2-2.2-7.7-1.3-11.2l1.1-4.3C976.1,153.8,976.1,153.8,976.3,154.2L976.3,154.2L976.3,154.2z"/>
	<path class="st5" d="M1005.2,162.4l-12.5,9.5c-1.7,1.3-6,4.9-7.5,9.7l-1.1,3.4c-0.2,0.6,0,0.9,0.4,0.4l12.9-9.7
		c2.8-2.2,5.8-5.6,6.9-8.8l1.3-4.3C1005.8,161.9,1005.6,161.9,1005.2,162.4L1005.2,162.4L1005.2,162.4z"/>
	<path class="st5" d="M980,141.7l5.8,14.6c0.9,1.9,2.6,7.5,1.5,12.3l-0.9,3.7c-0.2,0.6-0.4,0.9-0.6,0.2l-6-15.1
		c-1.3-3.2-2.2-7.7-1.3-11.2l1.1-4.3C979.6,141.1,979.6,141.1,980,141.7L980,141.7L980,141.7z"/>
	<path class="st5" d="M1008.6,149.7l-12.5,9.5c-1.7,1.3-6,4.9-7.5,9.7l-1.1,3.4c-0.2,0.6,0,0.9,0.4,0.4l12.9-9.7
		c2.8-2.2,5.8-5.6,6.9-8.8l1.3-4.3C1009.2,149.2,1009,149.2,1008.6,149.7L1008.6,149.7L1008.6,149.7z"/>
	<path class="st5" d="M991.2,144.1c0.6-2.4,1.9-4.9,3.4-6.7l2.2-1.9c0.2-0.2,0.2-0.2,0.2-0.2s0,0,0.2,0.2l0.9,2.8
		c0.6,2.2,0.2,5.2-0.4,7.5l-2.4,8.6c-0.6,2.4-1.9,4.9-3.4,6.7l-2.2,1.9c-0.2,0.2-0.2,0.2-0.2,0.2s0,0-0.2-0.2l-0.9-2.8
		c-0.6-2.2-0.2-5.2,0.4-7.5L991.2,144.1L991.2,144.1z"/>
	<path class="st5" d="M949.9,309.1c5.4-41.7,56.2-61.1,64.6-90.4C994.6,291.9,969.2,277.5,949.9,309.1L949.9,309.1L949.9,309.1z"/>
	<path class="st6" d="M1018.1,224.3c3.2-7.1,9.7-11.8,17-12.1C1032.7,219,1026.2,223.5,1018.1,224.3L1018.1,224.3L1018.1,224.3z"/>
	<path class="st5" d="M1040.5,194c5.2,2.2,8.4,6.5,8.8,11.8C1044.5,204.1,1041.3,199.6,1040.5,194L1040.5,194L1040.5,194z"/>
	<path class="st5" d="M1031.2,242.6c0.4-5.6,3.7-10.1,8.4-11.8C1039.6,235.5,1036.4,240,1031.2,242.6L1031.2,242.6L1031.2,242.6z"/>
	<path class="st5" d="M1032.1,264.4c5.6-5.6,13.1-7.5,20-5.2C1047.6,264.6,1039.8,266.5,1032.1,264.4L1032.1,264.4L1032.1,264.4z"/>
	<g>
		<path class="st3" d="M240,209.2c-7.7-10.3-20.7-11-27.3-0.4c-8.8,13.8-4.9,39.8,16.1,40c12.3,12.1,31.4-0.6,37.4-14.8
			C273.6,216.9,256,203,240,209.2L240,209.2L240,209.2z M259.2,233.7c5.4-9.9,0.2-18.3-7.1-19.8C258.7,212,270.2,223.8,259.2,233.7
			L259.2,233.7L259.2,233.7z"/>
		<path class="st3" d="M243,201.2c4.9-6.5,11.4-11,20.2-12.3v2.8c-9.5,0.6-18.5,6.9-22.4,15.7l0,0c0,0.2-0.2,0.2-0.2,0.4
			c-11.6-11-14.8-16.8-8.8-29.7C238.1,187.5,246.1,189.4,243,201.2L243,201.2L243,201.2z"/>
	</g>
	<g>
		<path class="st2" d="M217.2,295.5c5.6,13.6,12.3,22.4,24.5,23.2c8,0.6,16.6-4.7,20.9-12.9c3-5.8,4.1-13.8,3-19.4
			c-2.6-14-17-17.2-34.2-15.1c-8.6-3.4-20.2-10.8-27.3-0.9C196.8,280.9,208,289.5,217.2,295.5L217.2,295.5L217.2,295.5z
			 M227.5,274.9c-11-6.7-16.1-5.4-21.3-2.2C207.5,268.4,218.7,263.9,227.5,274.9L227.5,274.9L227.5,274.9z"/>
		<path class="st2" d="M202.4,271.4c-9.3-6.9-12.7-13.3-12.9-25.2l2.8,0.4c-0.4,10.1,2.2,18.3,11,23.5L202.4,271.4L202.4,271.4z"/>
	</g>
	<path class="st7" d="M312.9,210.8c1.1-1.1,2.4-0.9,3.4,0.4c1.1-2.2,2.8-3,4.5-3C318.2,203.9,310.9,205.4,312.9,210.8L312.9,210.8
		L312.9,210.8z M286.6,151.4L286.6,151.4L286.6,151.4c6.9-6.5,6-18.7-1.3-24.1c-3.7,7.1-3.7,14.2-1.1,21.3
		c-4.9-5.2-10.8-8.2-18.3-8.2l0.4,2.2c7.1-0.6,15.1,3.2,19.2,9.5L286.6,151.4L286.6,151.4z M285.3,153.1c15.3-9.3,34.9-4.9,43.9,9.9
		c8.8,14.2,4.3,33.1-9.7,42.6c-3.7-2.4-8.8-0.4-8.2,4.1c-13.8,4.7-29.5-0.4-37.2-13.1C265.1,181.9,270,162.4,285.3,153.1
		L285.3,153.1L285.3,153.1z M303,155.3c0.6-0.4,1.3-0.2,1.5,0.4c0.4,0.6,0.2,1.3-0.4,1.5c-0.6,0.4-1.3,0.2-1.5-0.4
		C302.1,156.3,302.3,155.5,303,155.3L303,155.3L303,155.3z M306,153.5c0.6-0.4,1.3-0.2,1.5,0.4c0.4,0.6,0.2,1.3-0.4,1.5
		c-0.6,0.4-1.3,0.2-1.5-0.4C305.3,154.6,305.3,154,306,153.5L306,153.5L306,153.5z M306.8,157.2c0.4-0.2,1.1-0.2,1.3,0.2
		c0.2,0.4,0.2,1.1-0.2,1.3c-0.4,0.2-1.1,0.2-1.3-0.2C306.2,158.1,306.4,157.4,306.8,157.2L306.8,157.2L306.8,157.2z M310.5,156.1
		c0.4-0.2,1.1-0.2,1.3,0.2s0.2,1.1-0.2,1.3c-0.4,0.2-1.1,0.2-1.3-0.2C309.9,157,310.1,156.5,310.5,156.1L310.5,156.1L310.5,156.1z
		 M309.6,159.8c0.4-0.2,1.1-0.2,1.3,0.2c0.2,0.4,0.2,1.1-0.2,1.3s-1.1,0.2-1.3-0.2C309.2,160.6,309.2,160,309.6,159.8L309.6,159.8
		L309.6,159.8z M313.9,161.9c0.4-0.2,1.1-0.2,1.3,0.2s0.2,1.1-0.2,1.3s-1.1,0.2-1.3-0.2C313.3,162.8,313.5,162.1,313.9,161.9
		L313.9,161.9L313.9,161.9z M315.9,166c0.4-0.2,0.9,0,1.1,0.2c0.2,0.4,0,0.9-0.2,1.1c-0.4,0.2-0.9,0.2-1.1-0.2
		C315.4,166.9,315.4,166.2,315.9,166L315.9,166L315.9,166z M302.5,152.7c0.4-0.2,0.9-0.2,1.1,0.2s0.2,0.9-0.2,1.1
		c-0.4,0.2-0.9,0.2-1.1-0.2C301.9,153.5,302.1,152.9,302.5,152.7L302.5,152.7L302.5,152.7z M297.8,153.5c0.2-0.2,0.6,0,0.9,0.2
		c0.2,0.2,0,0.6-0.2,0.9c-0.2,0.2-0.6,0-0.9-0.2C297.4,154.2,297.6,153.8,297.8,153.5L297.8,153.5L297.8,153.5z"/>
	<polygon class="st3" points="51.6,340.1 37,321.6 34.2,324 48.6,342.1 83.7,422.5 87.8,420.8 	"/>
	<path class="st3" d="M59.4,371.1l47.3-9.9L134,493.3l-47.3,9.9L59.4,371.1L59.4,371.1z M99,484.1l16.4-3.4
		c7.5-1.5,12.1-10.1,10.3-18.7l-20.2-98.1l-43.5,9L82.2,471C83.9,479.6,91.4,485.6,99,484.1L99,484.1L99,484.1z"/>
	<path class="st0" d="M98.5,482.6l16.6-3.4c6.5-1.3,10.3-8.6,8.8-16.1l-12.3-59.6l-40,8.4l12.3,59.6
		C85.4,478.7,92.1,483.9,98.5,482.6L98.5,482.6L98.5,482.6z"/>
	<path class="st8" d="M536.5,49.6c-1.1-14.2,3-14,21.7-19.4c-1.3,9.3-3.7,15.7-7.3,24.3c4.1,3.7,2.2,3,8.6,4.1
		c1.1,3.9,0.4,6.7-2.2,8.4c-4.7-2.2-4.9-3.9-11.6-2.4c-8,9.5-7.5,13.3-20,17.9c2.6-16.1-2.2-21.1,6.9-26c-1.1-0.9-1.5-1.9-1.7-3
		c-0.2-0.9-0.6-1.5-1.1-1.5c0.2-0.2,0.9-0.2,1.5-0.6C532.4,50.2,534.1,49.4,536.5,49.6L536.5,49.6L536.5,49.6z"/>
	<path class="st0" d="M360.2,349.8C360.4,349.8,360.4,349.8,360.2,349.8l26.9,89.7l-25.4-36.2v-0.2l-15.1-42.4
		c-0.2-0.9-1.3-1.3-1.9-0.9c-0.9,0.2-1.3,1.3-0.9,1.9l11.4,31.6l-11.6-16.8c-0.4-0.6-1.5-0.9-2.2-0.4c-0.6,0.4-0.9,1.5-0.4,2.2
		l25.6,36.4L338,398.6c-0.9-0.4-1.7-0.2-2.2,0.6c-0.4,0.9-0.2,1.7,0.6,2.2l34.6,19.4l19.6,27.8c0.4,0.6,1.1,0.9,1.7,0.6
		c0.6,0,1.3-0.4,1.5-1.3l0.2-0.4c0.2-0.2,0.2-0.6,0.2-1.1l0,0l7.7-36.2l0,0l26.3-34.6c0.4-0.6,0.4-1.7-0.2-2.2s-1.7-0.4-2.2,0.2
		L403.9,403l7.1-33.1c0.2-0.9-0.4-1.7-1.3-1.9c-0.9-0.2-1.7,0.4-1.9,1.3l-14.4,66.9l-4.9-48.6l0.2-0.2l18.9-42.8
		c0.4-0.9,0-1.7-0.9-2.2s-1.7,0-2.2,0.9l-16.8,38.1l-3.7-36.6c0-0.9-0.9-1.5-1.7-1.5c-0.9,0-1.5,0.9-1.5,1.7l9,90.2l-19.6-66.1v-0.2
		l2.2-59.6c0-0.9-0.6-1.7-1.5-1.7s-1.7,0.6-1.7,1.5l-1.7,50.4l-11.2-37.9c-0.2-0.9-1.1-1.3-1.9-1.1s-1.3,1.1-1.1,1.9l6.5,22
		l-17-12.9c-0.6-0.4-1.7-0.4-2.2,0.2c-0.4,0.6-0.4,1.7,0.2,2.2L360.2,349.8L360.2,349.8z"/>
	<path class="st0" d="M344.3,331.3c-11.2-7.1-13.1-17-4.7-26.5C350.7,310.6,352.2,320.7,344.3,331.3L344.3,331.3L344.3,331.3z"/>
	<path class="st0" d="M350.5,344.2c-8,10.5-18.1,11.8-26.7,2.6C330.7,336.2,340.6,335.4,350.5,344.2L350.5,344.2L350.5,344.2z"/>
	<path class="st0" d="M332.7,398.6c-12.7-3.7-17.4-12.5-12.3-23.9C332.9,377.1,337.4,386.2,332.7,398.6L332.7,398.6L332.7,398.6z"/>
	<path class="st0" d="M342.8,407.9c-8,10.5-18.1,11.8-26.7,2.6C322.8,399.9,332.9,399.1,342.8,407.9L342.8,407.9L342.8,407.9z"/>
	<path class="st0" d="M372.9,335.2c-0.4-13.3,6.5-20.4,19.2-18.9C393.6,328.7,386.2,335.8,372.9,335.2L372.9,335.2L372.9,335.2z"/>
	<path class="st0" d="M367.1,313.9c-13.1-1.3-19.4-9.3-16.4-21.3C363.4,292.6,369.2,300.7,367.1,313.9L367.1,313.9L367.1,313.9z"/>
	<path class="st0" d="M417.2,379.3c-9.3-9.5-9-19.6,1.3-26.9C428.2,360.8,427.6,370.9,417.2,379.3L417.2,379.3L417.2,379.3z"/>
	<path class="st0" d="M419,392c7.5-11,17.4-12.5,26.7-3.7C439.2,399.1,429.1,400.4,419,392L419,392L419,392z"/>
	<path class="st2" d="M454.9,353.9c-40.7-6.7-66.1-41.3-60.9-69.3c-36.4-3.4-60.9-62-42.4-90.2c-25.4-31.6-11.6-90.4,27.8-96.8
		c3.2-83.1,106.1-89.3,119.4-7.3c39.8,1.7,60.7,58.3,39.4,92.8c21.7,25.6,4.5,86.7-31.2,94.7C515.4,304.8,494.5,342.3,454.9,353.9
		L454.9,353.9L454.9,353.9z"/>
	<path class="st2" d="M462.2,435.9c0,1.3-0.9,2.4-2.2,2.4c-1.3,0-2.4-0.9-2.4-2.2l-10.3-170.2L420,232.1l-41.1-11
		c-0.9-0.2-1.5-1.3-1.3-2.2s1.3-1.5,2.2-1.3l36.6,9.9l-41.1-51.2c-0.6-0.6-0.4-1.9,0.2-2.4c0.6-0.6,1.9-0.4,2.4,0.2l17.4,21.7
		l-4.9-30.8c-0.2-0.9,0.4-1.9,1.5-1.9c0.9-0.2,1.9,0.4,1.9,1.5l6,36.6v0.2l22.2,27.8c0.6,0.2,1.1,0.9,1.1,1.5l23.7,29.5l-5.4-89.3
		l0,0L399.7,107c-0.4-0.9-0.2-1.9,0.4-2.4c0.9-0.4,1.9-0.2,2.4,0.4l17.2,26.5l-9.7-65c-0.2-0.9,0.4-1.9,1.5-1.9
		c0.9-0.2,1.9,0.4,1.9,1.5l10.8,72.3c0,0,0,0,0,0.2l16.4,25.2l-4.7-78.1c0-1.3,0.9-2.4,2.2-2.4c1.3,0,2.4,0.9,2.4,2.2l6.2,101.6
		l22.2-48.2l-3-36.8c0-0.9,0.6-1.7,1.5-1.9c0.9,0,1.7,0.6,1.9,1.5l2.4,30.8l8.4-18.3c0.4-0.9,1.5-1.3,2.4-0.9s1.3,1.5,0.9,2.4
		l-14.8,32.1l29.7-24.1c0.6-0.6,1.9-0.4,2.4,0.2c0.6,0.6,0.4,1.9-0.2,2.4l-34.4,28.4l-18.3,39.6l5.8,94.5l27.1-51c0-0.2,0-0.2,0-0.4
		l3-51.6c0-0.9,0.9-1.7,1.9-1.7c0.9,0,1.7,0.9,1.7,1.9l-2.6,44.5l28.2-52.9c0.4-0.9,1.5-1.1,2.4-0.6c0.9,0.4,1.1,1.5,0.6,2.4
		l-18.3,34.4l30.3-15.3c0.9-0.4,1.9,0,2.4,0.9s0,1.9-0.9,2.4L494.5,219l0,0l-40.7,76.4L462.2,435.9L462.2,435.9z"/>
	<path class="st1" d="M452.5,353.5l-5.4-87.6L420,232.1l-41.1-11c-0.9-0.2-1.5-1.3-1.3-2.2s1.3-1.5,2.2-1.3l36.6,9.9l-41.1-51.2
		c-0.6-0.6-0.4-1.9,0.2-2.4c0.6-0.6,1.9-0.4,2.4,0.2l17.4,21.7l-4.9-30.8c-0.2-0.9,0.4-1.9,1.5-1.9c0.9-0.2,1.9,0.4,1.9,1.5l6,36.6
		v0.2l22.2,27.8c0.6,0.2,1.1,0.9,1.1,1.5l23.7,29.5l-5.4-89.3l0,0L399.7,107c-0.4-0.9-0.2-1.9,0.4-2.4c0.9-0.4,1.9-0.2,2.4,0.4
		l17.2,26.5l-9.7-65c-0.2-0.9,0.4-1.9,1.5-1.9c0.9-0.2,1.9,0.4,1.9,1.5l10.8,72.3c0,0,0,0,0,0.2l16.4,25.2l-4.7-78.1
		c0-1.3,0.9-2.4,2.2-2.4c1.3,0,2.4,0.9,2.4,2.2l6.2,101.6l22.2-48.2l-3-36.8c0-0.9,0.6-1.7,1.5-1.9c0.9,0,1.7,0.6,1.9,1.5l2.4,30.8
		l8.4-18.3c0.4-0.9,1.5-1.3,2.4-0.9s1.3,1.5,0.9,2.4l-14.8,32.1l29.7-24.1c0.6-0.6,1.9-0.4,2.4,0.2c0.6,0.6,0.4,1.9-0.2,2.4
		l-34.4,28.4l-18.3,39.6l5.8,94.5l27.1-51c0-0.2,0-0.2,0-0.4l3-51.6c0-0.9,0.9-1.7,1.9-1.7c0.9,0,1.7,0.9,1.7,1.9l-2.6,44.5
		l28.2-52.9c0.4-0.9,1.5-1.1,2.4-0.6c0.9,0.4,1.1,1.5,0.6,2.4l-18.3,34.4l30.3-15.3c0.9-0.4,1.9,0,2.4,0.9s0,1.9-0.9,2.4L494.5,219
		l0,0l-40.7,76.4l3.4,57.9c-0.6,0.2-1.5,0.4-2.2,0.6C454,353.7,453.2,353.7,452.5,353.5L452.5,353.5L452.5,353.5z"/>
	<path class="st1" d="M522,158.5c0-4.1-0.9-8.2-3-10.8c0.4-1.1,1.3-1.9,2.6-2.8c-1.5,0.6-3,0.9-4.5,0.6c-3.2-2.6-7.7-2.2-13.6,4.1
		c-2.4,3.4-5.4,7.7-6.7,12.7c-1.3,7.1-3,12.7-5.8,18.7c1.3-0.6,2.8-1.1,4.1-1.7c-1.5,4.7-3.2,9.5-4.7,14.2c2.8-3.9,5.4-8.4,8.4-12.3
		c0.9-1.3,2.2-2.2,3-3.4c0.6-0.2,1.3-0.2,1.9-0.4l-0.2,0.4v0.2l0.2,0.2l5.8,5.6l0.4-0.4l-5.6-5.4l0.2-0.6c0.9-0.2,1.7-0.4,2.6-0.6
		l4.5,3.2l0.4-0.6l-4.1-3c1.3-0.4,2.4-0.9,3.2-1.5C517.1,171,521.8,165.8,522,158.5L522,158.5L522,158.5z"/>
	<path class="st0" d="M585.2,208.9c6.5,12.7,9.7,10.4,28.7,5.4c-6-7.4-11.2-11.7-18.9-17.3c1.6-5.4,0.3-3.6,5.4-8.1
		c-1.1-4-2.9-5.9-6.2-5.9c-2.9,4.3-2.4,5.9-8.9,8.1c-11.7-4.1-13.4-7.4-26.5-5.3c10.5,12.5,9,19.2,19.4,18.9
		c-0.3,1.3-0.4,2.6,0.1,3.4c0.2,0.9,0.3,1.5-0.1,1.7c0.2,0.1,0.7-0.3,1.7-0.2C581.4,210.6,583.3,210.3,585.2,208.9L585.2,208.9
		L585.2,208.9z"/>
	<path class="st8" d="M759.4,431.6l-40.7-2.6h-0.4l-0.2-0.2c-3-2.2-5.2-3.9-6.9-5.8c-1.7-1.7-3-3.7-4.1-5.6
		c-4.3-8.4-3.7-15.5-2.8-23.9c0.2-1.5,0.2-3.2,0.4-4.9l0.4-4.7v-1.1h1.1l111.7,7.1h1.1v1.1l-0.2,4.7c0,1.7-0.2,3.2-0.2,4.9
		c-0.2,8.4-0.4,15.5-5.8,23.2c-1.3,1.9-2.8,3.7-4.7,5.2s-4.3,3-7.5,4.7l-0.2,0.2H800L759.4,431.6L759.4,431.6z M719.4,426.6
		l40.2,2.6l40.2,2.6c3-1.7,5.2-3,6.9-4.5s3-2.8,4.3-4.7c4.9-7.1,5.2-14,5.4-22.2c0-1.5,0-3.2,0.2-4.9l0.2-3.7l-109.3-6.9l-0.2,3.7
		c-0.2,1.7-0.2,3.4-0.4,4.9c-0.9,8-1.5,14.8,2.6,22.6c1.1,1.9,2.2,3.4,3.7,5.2C714.6,423,716.6,424.7,719.4,426.6L719.4,426.6
		L719.4,426.6z M713.4,268c1.5-9.7,3.2-19.2,5.4-28.8c2.2-9.7,4.9-19.2,8-28.8c2.8-8.6,8.2-20.2,14-32.9
		c11.8-26,25.8-56.8,24.7-73.8c-0.2-1.5-0.2-2.4-0.4-3.2c-0.4-1.9-0.6-3.2,0-11.6v-1.1h1.1l30.1,1.9h1.1v1.1
		c-0.4,8.4-0.9,9.7-1.5,11.6c-0.2,0.6-0.4,1.5-0.9,3.2c-3.2,16.8,6.7,49.1,15.1,76.4c4.1,13.3,8,25.6,9.7,34.4
		c1.9,9.9,3.4,19.8,4.3,29.7c0.9,9.9,1.5,19.6,1.7,29.3v1.3h-1.3l-110-6.9h-1.3L713.4,268L713.4,268z M720.9,239.6
		c-2.2,9-3.7,18.3-5.2,27.5l107.6,6.9c-0.2-9.3-0.6-18.5-1.7-27.8c-0.9-9.7-2.4-19.6-4.3-29.5c-1.7-8.6-5.4-20.9-9.7-34.2
		c-8.6-27.5-18.7-60-15.3-77.5c0.4-1.7,0.6-2.6,0.9-3.4c0.4-1.5,0.9-2.8,1.3-9.9L766.7,90c-0.4,7.1-0.2,8.4,0.2,9.9
		c0.2,0.9,0.4,1.7,0.4,3.4c1.3,17.6-12.9,48.6-25,74.9c-5.8,12.7-11,24.3-13.8,32.7C725.8,220.5,723,230.1,720.9,239.6L720.9,239.6
		L720.9,239.6z"/>
	<path class="st0" d="M763.9,87.5L763.9,87.5l0.4-5.4c0.2-1.7,1.7-3,3.4-3l9.7,0.6l8.4,0.4l9.7,0.6c1.7,0.2,3.2,1.7,3,3.4l-0.4,5.4
		l0,0c0-1.1-0.9-2.2-1.9-2.2c-1.3,0-2.2,0.9-2.4,1.9c0-1.3-0.9-2.2-1.9-2.4c-1.3,0-2.2,0.9-2.4,1.9c0-1.3-0.9-2.2-1.9-2.4
		c-1.3,0-2.2,0.9-2.4,1.9c0-1.3-0.9-2.2-1.9-2.4c-1.3,0-2.2,0.9-2.4,1.9c0-1.3-0.9-2.2-1.9-2.4c-1.3,0-2.2,0.9-2.4,1.9
		c0-1.3-0.9-2.2-1.9-2.4c-1.3,0-2.2,0.9-2.4,1.9c0-1.3-0.9-2.2-1.9-2.4c-1.3,0-2.2,0.9-2.4,1.9c0-1.3-0.9-2.2-1.9-2.4
		C765,85.3,764.1,86.2,763.9,87.5L763.9,87.5L763.9,87.5z M768.2,87.7v0.2l0,0C768.2,87.9,768.2,87.9,768.2,87.7L768.2,87.7
		L768.2,87.7z M772.5,88.1v0.2l0,0C772.5,88.1,772.5,88.1,772.5,88.1L772.5,88.1L772.5,88.1z M776.8,88.3v0.2l0,0V88.3L776.8,88.3
		L776.8,88.3z M781.1,88.5v0.2l0,0C781.1,88.8,781.1,88.8,781.1,88.5L781.1,88.5L781.1,88.5z M785.4,88.8V89l0,0
		C785.4,89,785.4,89,785.4,88.8L785.4,88.8L785.4,88.8z M789.7,89.2v0.2l0,0V89.2L789.7,89.2L789.7,89.2z M794.1,89.4v0.2l0,0V89.4
		L794.1,89.4L794.1,89.4z"/>
	<polygon class="st0" points="714.2,270 824.6,277.1 817.5,389.2 707.1,382.3 	"/>
	<path class="st9" d="M790.4,288.7c-5.2,28.8-23.7,33.6-25.4,51.6c-2.6,28.2,43.7,31.2,44.5,2.8C810.2,325,792.1,317.9,790.4,288.7
		L790.4,288.7L790.4,288.7z"/>
	<polygon class="st1" points="798.1,375.2 798.1,352.4 784.4,361.4 796.6,350.4 778.6,348.3 797.1,348.3 786.1,335.2 798.6,347 
		801.4,323.3 801.4,323.3 801.4,323.3 801.2,347.2 814.9,336.9 802.4,348.7 820.7,351.1 802.7,350.9 813.4,363.1 800.9,352.6 	"/>
	<polygon class="st5" points="119,257.7 115.5,258.3 113.8,249.9 117.2,249.3 	"/>
	<polygon class="st5" points="98.7,262 69,268.5 67.3,260.1 96.8,253.6 	"/>
	<polygon class="st5" points="48.8,273 52.3,272.1 50.3,263.7 47.1,264.6 	"/>
	<path class="st2" d="M113.4,268.9H113c-1.7,0.4-3.4-0.6-3.9-2.4l-4.7-21.3c-0.4-1.7,0.6-3.4,2.4-3.9h0.4c1.7-0.4,3.4,0.6,3.9,2.4
		l4.7,21.3C116.2,266.9,115.1,268.7,113.4,268.9L113.4,268.9L113.4,268.9z"/>
	<path class="st2" d="M105.6,270.6h-0.4c-1.7,0.4-3.4-0.6-3.9-2.4l-4.7-21.3c-0.4-1.7,0.6-3.4,2.4-3.9h0.4c1.7-0.4,3.4,0.6,3.9,2.4
		l4.7,21.3C108.4,268.7,107.4,270.2,105.6,270.6L105.6,270.6L105.6,270.6z"/>
	<path class="st2" d="M66.9,279h-0.4c-1.7,0.4-3.4-0.6-3.9-2.4l-4.7-21.3c-0.4-1.7,0.6-3.4,2.4-3.9h0.4c1.7-0.4,3.4,0.6,3.9,2.4
		l4.7,21.3C69.7,276.8,68.6,278.6,66.9,279L66.9,279L66.9,279z"/>
	<path class="st2" d="M59.1,280.7h-0.4c-1.7,0.4-3.4-0.6-3.9-2.4L50.1,257c-0.4-1.7,0.6-3.4,2.4-3.9h0.4c1.7-0.4,3.4,0.6,3.9,2.4
		l4.7,21.3C61.9,278.6,60.9,280.3,59.1,280.7L59.1,280.7L59.1,280.7z"/>
	<path class="st0" d="M160.1,283.5c16.4,3.2,29.5,7.7,40,15.9c10.5,8.4,18.1,20.7,22.8,39.6c5.8,23-1.1,42.6-13.1,54.7
		c-4.7,4.9-10.3,8.6-16.4,11c-6,2.4-12.3,3.2-18.3,2.4c-11.6-1.7-22.2-9.5-28.4-25c-3.4-8.8-4.9-19.4-4.1-29.3
		c0.6-7.7,2.6-15.1,6-21.1c3.4-6.2,8.6-11.2,15.1-13.8c4.1-1.7,9-2.4,14.4-1.9c2.4,0.2,4.9,0.9,7.3,1.7c4.1,1.7,8,4.5,10.5,8.4
		c2.8,4.1,4.3,9.3,3.7,15.7c-0.2,3.7-1.3,7.7-3.2,12.3c-3.4,8.2-3.7,14.4-2.4,18.7c0.4,1.7,1.3,3,2.2,3.7c0.9,0.6,1.9,1.1,3,1.1
		c1.5,0,3.2-0.9,4.9-2.4l0,0c4.1-3.9,6-9,6.5-14.6c0.9-7.7-0.6-16.1-2.8-22.8c-1.5-5.4-3.9-10.1-6.5-13.8c-4.7-6.7-11-11-18.1-12.9
		c-7.3-1.9-15.5-1.7-24.1,0.6c-7.3,2.2-14.8,5.8-22.2,11.2l-2.2-3.2c7.7-5.6,15.7-9.5,23.5-11.6c9.3-2.8,18.3-3,26.3-0.9
		c8,2.2,15.1,7.1,20.2,14.4c3,4.1,5.4,9.3,7.1,15.1c2.2,7.1,3.7,16.1,2.8,24.3c-0.6,6.5-3,12.5-7.7,17l0,0c-2.6,2.4-5.2,3.4-7.7,3.4
		c-1.9,0-3.9-0.6-5.4-2.2c-1.5-1.3-2.6-3.2-3.4-5.6c-1.5-4.9-1.3-12.3,2.6-21.3c1.7-4.1,2.6-8,2.8-11.2c0.4-5.6-0.9-9.9-3-13.3
		c-2.2-3.2-5.4-5.6-8.8-7.1c-2.2-0.9-4.3-1.3-6.2-1.5c-4.7-0.4-9,0.2-12.5,1.7c-5.6,2.4-10.1,6.7-13.1,12.1
		c-3.2,5.6-4.9,12.5-5.6,19.6c-0.9,9.5,0.4,19.4,3.9,27.5c5.6,14,15.3,21.1,25.4,22.6c5.4,0.9,11,0,16.4-2.2s10.5-5.4,15.1-9.9
		c11-11.2,17.4-29.5,12.1-51.2c-4.5-18.1-11.6-29.7-21.5-37.4c-9.9-8-22.6-12.1-38.3-15.3L160.1,283.5L160.1,283.5z"/>
	<polygon class="st8" points="136.6,259.6 128,300.7 120,299 128.7,257.9 	"/>
	<path class="st0" d="M155.8,273.4l0.4-2.4c-1.5-1.3-3-3-4.7-4.5c-3.2-3.2-6.5-6.7-9.5-8.4c-2.4-1.3-4.7-1.7-6.9,0.2l-4.3-0.9
		c3.9-5.4,8.4-5.2,13.1-2.6c3.7,2.2,7.1,5.6,10.3,9c1.9,1.9,3.7,3.9,5.4,5.2l0.9,0.6l-0.2,1.1l-0.6,3.4L155.8,273.4L155.8,273.4z
		 M151.3,295.6l-0.4,2.4c-1.9,0.6-4.1,1.5-6,2.4c-4.1,1.7-8.6,3.4-12.1,3.9c-2.8,0.2-4.9-0.4-6.2-2.8l-4.3-0.9
		c1.5,6.7,5.6,8.2,11,7.5c4.1-0.4,8.8-2.4,13.1-4.1c2.4-1.1,4.9-1.9,6.9-2.6l1.1-0.4l0.2-1.1l0.6-3.4L151.3,295.6L151.3,295.6z"/>
	<polygon class="st8" points="160.5,275.6 156.2,295.6 149.7,294.3 154,274 	"/>
	<polygon class="st0" points="151.3,281.4 146.9,286.1 144.1,283.7 148.5,279 	"/>
	<polygon class="st0" points="146.7,284.6 142.9,279.6 145.7,277.3 149.7,282.2 	"/>
	<polygon class="st0" points="150.6,285.9 145.2,284.6 146.1,280.9 151.3,282.2 	"/>
	<polygon class="st8" points="101.3,320.1 125.4,354.7 118.8,359.5 94.7,324.8 	"/>
	<path class="st0" d="M124.8,315.8l-1.5-1.9c-2.2,0.2-4.3,0.2-6.7,0.2c-4.5,0-9.3,0.2-12.7,1.1c-2.6,0.9-4.5,2.4-4.7,5.2l-3.7,2.4
		c-1.3-6.7,1.9-9.7,7.1-11.2c3.9-1.1,9-1.3,13.8-1.3c2.6,0,5.2,0,7.3-0.2l1.1-0.2l0.6,0.9l1.9,3L124.8,315.8L124.8,315.8z
		 M137.7,334.5l1.3,1.9c-0.9,1.9-1.7,3.9-2.6,6c-1.5,4.1-3.2,8.6-5.4,11.4c-1.7,2.2-3.7,3.4-6.5,2.6l-3.4,2.6
		c5.8,3.4,9.7,1.5,13.1-2.8c2.6-3.2,4.3-8,6-12.5c0.9-2.6,1.9-4.9,2.8-6.9l0.4-1.1l-0.6-0.9l-1.9-3L137.7,334.5L137.7,334.5z"/>
	<polygon class="st8" points="129.5,313.9 141.1,330.6 135.8,334.5 123.9,317.5 	"/>
	<polygon class="st0" points="127.4,324.6 127.8,331.1 124.1,331.3 123.7,324.8 	"/>
	<polygon class="st0" points="126.5,330 120.3,329.6 120.7,325.7 126.9,326.3 	"/>
	<polygon class="st0" points="130.2,328.1 125.6,331.1 123.5,328.1 128,325 	"/>
	<path class="st8" d="M256.7,366.4l0.2-0.6c0.6-2.2,3-3.2,4.9-2.6l40.7,13.6c2.2,0.6,3.2,3,2.6,4.9l-0.2,0.6c-0.6,2.2-3,3.2-4.9,2.6
		l-40.7-13.6C257.1,370.7,256.1,368.3,256.7,366.4L256.7,366.4L256.7,366.4z"/>
	<polygon class="st5" points="282.1,353.5 294.1,317.7 304.3,321.2 292.2,356.7 	"/>
	<path class="st8" d="M261.4,351.9l-1.7,5.2c-0.6,2.2,0.4,4.3,2.6,4.9l40.7,13.6c2.2,0.6,4.3-0.4,4.9-2.6l1.7-5.2
		c0.6-2.2-0.4-4.3-2.6-4.9l-40.7-13.6C264.4,348.7,262.1,349.8,261.4,351.9L261.4,351.9L261.4,351.9z"/>
	<polygon class="st5" points="306.6,280.3 305.3,284.4 315.4,287.6 316.7,283.5 	"/>
	<path class="st10" d="M261.2,378l0.2-0.6c0.6-2.2,3-3.2,4.9-2.6l25.6,8.6c2.2,0.6,3.2,3,2.6,4.9l-0.2,0.6c-0.6,2.2-3,3.2-4.9,2.6
		l-25.6-8.6C261.6,382.3,260.6,380.1,261.2,378L261.2,378L261.2,378z"/>
	<path class="st8" d="M281.4,292.1l-0.2,0.6c-0.6,2.2,0.4,4.3,2.6,4.9l40.7,13.6c2.2,0.6,4.3-0.4,4.9-2.6l0.2-0.6
		c0.6-2.2-0.4-4.3-2.6-4.9l-40.7-13.6C284.5,288.9,282.1,290.2,281.4,292.1L281.4,292.1L281.4,292.1z"/>
	<path class="st8" d="M276.7,306.5l1.7-5.2c0.6-2.2,3-3.2,4.9-2.6l40.7,13.6c2.2,0.6,3.2,3,2.6,4.9l-1.7,5.2c-0.6,2.2-3,3.2-4.9,2.6
		l-40.7-13.6C277.1,310.8,275.9,308.5,276.7,306.5L276.7,306.5L276.7,306.5z"/>
	<path class="st5" d="M292,285.5l-0.2,0.6c-0.6,2.2,0.4,4.3,2.6,4.9l25.6,8.6c2.2,0.6,4.3-0.4,4.9-2.6l0.2-0.6
		c0.6-2.2-0.4-4.3-2.6-4.9l-25.6-8.6C295,282.2,292.9,283.3,292,285.5L292,285.5L292,285.5z"/>
	<polygon class="st5" points="270.9,387.5 269.6,391.5 279.7,394.8 281,390.7 	"/>
	<path class="st5" d="M148,460.4c0.2,1.3,3.4,4.5,4.9,7.7c14.2,1.9,29.1,0.9,43-1.9l0.2,4.5c-14.2,2.6-28.4,3.9-42.6,2.2
		c-0.6,1.7-1.9,2.4-1.9,4.1c0,6.7,1.5,9,8.6,8.8c15.3-0.4,30.8-3.2,45.6-7.1c4.1-1.1,9-7.3,13.1-8.6c4.3-0.2,12.3,4.3,16.4,3.9
		c19.4-1.7,68.6-11.8,85.9-31c5.8-6.5,9.5-11.2,4.9-21.1c-2.4-3-3.4,2.6-4.1,7.5c-0.6,5.4-1.3,7.1-4.3,9.3
		C290.3,458,241,464.9,208.9,457C178.8,466.7,158.4,460.4,148,460.4L148,460.4L148,460.4z"/>
	<path class="st8" d="M147.8,457.2c20,3.9,41.3,4.3,60.3-2.4c37.4,5.6,69.3,2.8,99.6-13.3c7.3-3.9,11.2-4.9,12.1-13.6
		c0.2-3.2,1.5-6.2,3.9-9c-0.4-0.6-1.1-1.3-1.7-1.7c-3.2,1.7-4.3,4.7-5.4,8c-1.3,3.9-2.8,8.2-7.7,11.8h-0.2l0,0
		c-26.3,12.7-58.5,18.5-87.2,14.4c-24.3-3.4-46.3-14.4-60-33.4c-1.3-1.7-2.4-5.4-4.7-6.2c-2.6-0.9-5.4-0.6-8-1.7
		C142.2,424.9,142.6,443.2,147.8,457.2L147.8,457.2L147.8,457.2z M318.9,415.6c-5.8-2.4-14.8-2.8-24.3-3c-1.5,0.9-3.2,2.2-4.9,3.2
		c-2.6,1.7-5.4,3.4-6.9,4.5l-0.4,0.2H282c-26.3,1.3-41.3-6-62.2-15.9c-0.2,0.2-0.4,0.6-0.6,0.9c-11,11.8-35.5,16.4-54,13.1
		c13.3,17.4,33.8,26.9,56.4,30.1c28.2,4.1,59.6-1.7,85.4-14.2c4.1-3,5.4-6.7,6.7-10.1C314.8,421,315.9,417.8,318.9,415.6
		L318.9,415.6L318.9,415.6z M289.4,412.4c-6.2,0-12.5,0-17.9-0.4c-17.9-1.9-34.2-13.6-49.5-19.4c-3.2,3.4-1.3,6.2-1.5,9.3l0,0
		c20.4,9.9,35.3,17,60.7,15.9c1.7-1.1,4.1-2.8,6.7-4.3L289.4,412.4L289.4,412.4z"/>
	<path class="st5" d="M249.8,416.9c-17.4,6.5-33.4,18.1-42.8,28.6c-5.6-1.5-11-3.4-15.3-5.8c13.8-10.8,29.9-20.4,47.8-26.3
		L249.8,416.9L249.8,416.9z"/>
	<path class="st5" d="M266,420c-12.3,6.7-22.8,17.6-30.6,29.7c-5.2-0.2-10.8-0.6-15.7-1.3c9.5-14.2,26-25.4,35.9-29.7L266,420
		L266,420z"/>
	<path class="st0" d="M55.9,525c-1.3,0.2-2.4-0.6-2.6-1.7c-0.2-1.3,0.6-2.4,1.7-2.6c48.9-8.8,102.4-20.7,157.5-32.7
		c136.7-30.8,255.2-49.5,373.8-51.9c118.8-2.4,237.6,11.4,374.9,30.3c105,14,203.6,27.1,264.9,29.9c1.3,0,2.2,1.1,2.2,2.4
		s-1.1,2.2-2.4,2.2c-228.5-11-460.7-60.3-676.6-53.4C385.6,452.7,223.3,494,55.9,525L55.9,525z"/>
	<path class="st5" d="M553.5,241.8c-118.8,105.7-57.2,182.5-0.6,182.1C609.8,423,675.5,352.6,553.5,241.8L553.5,241.8L553.5,241.8z"
		/>
	<path class="st1" d="M567.4,330.9L567.4,330.9l-10.3,88L575,381v-0.2l7.3-42c0.2-0.9,0.9-1.3,1.7-1.3c0.9,0.2,1.3,0.9,1.3,1.7
		l-5.4,31.4l8.2-17.4c0.4-0.9,1.3-1.1,1.9-0.6c0.9,0.4,1.1,1.3,0.6,1.9l-17.9,38.3l24.1-19.8c0.6-0.4,1.5-0.4,2.2,0.2
		c0.4,0.6,0.4,1.5-0.2,2.2l-29.1,23.7L556,428.3c-0.2,0.6-0.9,0.9-1.5,0.9s-1.3-0.2-1.7-0.9l-0.2-0.4c-0.2-0.2-0.4-0.6-0.4-0.9l0,0
		L539,394.6l0,0l-30.1-28c-0.6-0.6-0.6-1.5,0-2.2c0.6-0.6,1.5-0.6,2.2,0l25.6,23.7l-12.1-29.9c-0.2-0.9,0-1.7,0.9-1.9s1.7,0,1.9,0.9
		l24.3,60l-3.4-46.3l-0.2-0.2l-24.5-36.8c-0.4-0.6-0.2-1.7,0.4-2.2c0.6-0.4,1.7-0.2,2.2,0.4l22,32.7l-2.6-34.6
		c0-0.9,0.6-1.5,1.5-1.7c0.9,0,1.5,0.6,1.7,1.5l6.2,85.6l7.5-65c0,0,0,0,0-0.2l-11.8-55.3c-0.2-0.9,0.4-1.7,1.1-1.7
		c0.9-0.2,1.7,0.4,1.7,1.1l9.9,46.7l4.3-37c0-0.9,0.9-1.5,1.7-1.3c0.9,0,1.5,0.9,1.3,1.7l-2.6,21.5l13.8-14.8c0.6-0.6,1.5-0.6,2.2,0
		s0.6,1.5,0,2.2L567.4,330.9L567.4,330.9z"/>
	<path class="st8" d="M844,441c-7.3-0.9-11.6-1.7-14.4-4.3c-2.8-2.6-3.4-6.7-3-14c1.5-25.4,3.2-50.8,5.2-76.4
		c1.1-13.8,1.9-27.8,3-41.7v-1.5l1.5,0.2l100.3,9.9l1.5,0.2l-0.2,1.5c-1.7,13.8-3.4,27.5-5.2,41.5c-3.2,25.4-6.2,50.6-9.9,76
		c-1.1,7.1-2.6,11-5.8,13.1c-3.2,1.9-7.7,1.9-15.1,1.3C882.9,445.3,863.3,443.4,844,441L844,441L844,441z M837.5,306.8
		c-0.9,13.3-1.9,26.7-2.8,40.2c-1.9,25.4-2.8,41.5-4.3,67.1c0,8.6,4.1,10.8,15.1,12.1c19.2,2.4,39,4.3,58.1,5.8
		c11.2,0.9,15.5-0.6,17.2-9c3.7-25.2,5.8-41.3,9-66.7c1.7-13.3,3.2-26.7,4.9-40C902.5,313,870,309.8,837.5,306.8L837.5,306.8
		L837.5,306.8z"/>
	<path class="st8" d="M835.8,348.3c-1.7,23.9-2.6,39.8-4.1,64.3c0,8.6,4.1,10.8,15.1,12.1c19.2,2.4,36.4,4.1,55.5,5.6
		c11.2,0.9,15.5-0.6,17.2-9c3.4-24.3,5.6-40.2,8.6-63.9L835.8,348.3L835.8,348.3z"/>
	<polygon class="st11" points="894.5,443.4 895.8,408.5 874.3,421.7 893.7,405.7 866.4,401.4 894.3,402.5 878.4,381.6 896.7,400.6 
		902.3,364.4 902.3,364.6 902.3,364.4 900.6,400.8 922.3,386 902.5,403.2 930.3,407.9 902.7,406.6 918.4,426 899.9,409 	"/>
	<path class="st8" d="M1200.3,371.7c14.6,1.9,27.1,9.3,35.5,20c8.4,10.5,12.7,24.3,11,38.7c-1.7,14.4-9.5,26.5-20.2,34.9
		c-10.8,8.2-24.7,12.3-39.4,10.5c-14.6-1.7-27.1-9.3-35.5-20c-8.4-10.5-12.7-24.3-11-38.7c1.7-14.4,9.5-26.5,20.2-34.9
		C1171.7,374.1,1185.7,370,1200.3,371.7L1200.3,371.7L1200.3,371.7z M1232.2,394.6c-7.7-9.7-19.2-16.6-32.5-18.1
		c-13.3-1.7-26,2.2-35.9,9.5c-9.9,7.5-16.8,18.5-18.3,31.6c-1.7,13.1,2.2,25.6,9.9,35.3s19.2,16.6,32.5,18.1
		c13.3,1.7,26-2.2,35.9-9.5c9.9-7.5,16.8-18.5,18.3-31.6C1243.6,416.7,1239.7,404.2,1232.2,394.6L1232.2,394.6L1232.2,394.6z"/>
	<path class="st8" d="M1199.5,379.1c12.5,1.5,23.2,8,30.6,17.2c7.3,9,11,20.9,9.3,33.1c-1.5,12.3-8,22.8-17.2,29.9
		s-21.3,10.5-33.8,9s-23.2-8-30.6-17.2c-7.3-9-11-20.9-9.3-33.1c1.5-12.3,8-22.8,17.2-29.9C1174.7,381,1186.8,377.6,1199.5,379.1
		L1199.5,379.1L1199.5,379.1z M1228.8,397.1c-6.9-8.8-17.4-15.1-29.7-16.6c-12.3-1.5-23.9,1.9-32.7,8.6c-9,6.9-15.3,17-16.8,28.8
		s2.2,23.2,9,32.1c6.9,8.8,17.4,15.1,29.7,16.6c12.3,1.5,23.9-1.9,32.7-8.6c9-6.9,15.3-17,16.8-28.8
		C1239.3,417.4,1235.9,406,1228.8,397.1L1228.8,397.1L1228.8,397.1z"/>
	<path class="st8" d="M1168.5,375c8-3,15.9-6,23.9-9c-6.9-8-17.2-6.5-28.2-2.4s-19.8,9.9-19.6,20.4
		C1152.6,381,1160.5,378,1168.5,375L1168.5,375L1168.5,375z"/>
	<path class="st8" d="M1159.5,362.5l7.7-3c0.4-0.2,1.1,0.2,1.3,0.6l0,0c0.2,0.6,0,1.3-0.6,1.5l-7.7,3c-0.4,0.2-1.1-0.2-1.3-0.6l0,0
		C1158.6,363.4,1158.8,362.7,1159.5,362.5L1159.5,362.5L1159.5,362.5z"/>
	<path class="st8" d="M1167.6,375.8l2.2-0.9l1.1,3l-2.2,0.9L1167.6,375.8L1167.6,375.8z M1159.7,354.5l1.7-0.6
		c0.4-0.2,1.1,0,1.3,0.6v0.2c0.2,0.4,0,0.9-0.2,1.1l1.7,4.7l-2.2,0.9l-1.7-4.7c-0.4,0-0.9-0.2-0.9-0.6v-0.2
		C1159,355.2,1159.2,354.7,1159.7,354.5L1159.7,354.5L1159.7,354.5z"/>
	<path class="st8" d="M1230.5,382.9c-6.9-4.9-13.8-9.7-20.9-14.6c8.6-6,18.3-2.2,27.8,4.7c9.5,6.7,16.6,14.4,13.8,24.5
		C1244.5,392.6,1237.6,387.7,1230.5,382.9L1230.5,382.9L1230.5,382.9z"/>
	<path class="st8" d="M1242.3,373l-6.7-4.7c-0.4-0.4-1.1-0.2-1.5,0.4l0,0c-0.4,0.4-0.2,1.3,0.2,1.5l6.7,4.7c0.4,0.2,1.1,0.2,1.5-0.4
		l0,0C1243,374.1,1243,373.3,1242.3,373L1242.3,373L1242.3,373z"/>
	<path class="st8" d="M1231.3,383.8l-1.9-1.3l-1.9,2.6l1.9,1.3L1231.3,383.8L1231.3,383.8z M1244,365.1l-1.5-1.1
		c-0.4-0.2-1.1-0.2-1.3,0.2v0.2c-0.2,0.4-0.2,0.9,0,1.1l-2.8,4.1l1.9,1.3l2.8-4.1c0.4,0.2,0.9,0,1.1-0.4v-0.2
		C1244.7,365.9,1244.5,365.5,1244,365.1L1244,365.1L1244,365.1z"/>
	<path class="st8" d="M1168.7,358.8c0.9-0.2,1.7-0.6,2.4-1.7c0.9-1.1,1.5-3,1.9-5.8c0.9-4.3,2.2-6.7,4.3-8.4
		c2.2-1.7,5.2-2.6,9.5-3.4c4.9-1.1,11.4-1.1,17.6-0.2s12.7,2.4,17.2,4.7c3.9,1.9,6.7,3.4,8.4,5.6c1.7,2.2,2.4,4.9,2.2,9.3
		c-0.2,3,0,4.9,0.4,6.2c0.4,1.1,1.1,1.7,1.7,2.2l-1.3,1.9c-1.1-0.6-2.2-1.7-2.8-3.4c-0.6-1.5-0.9-3.9-0.6-7.1c0.2-3.7-0.2-6-1.7-7.7
		s-3.9-3.2-7.5-4.9c-4.3-2.2-10.3-3.7-16.4-4.5c-6-0.9-12.3-0.9-17,0.2c-3.9,0.9-6.7,1.5-8.6,3c-1.7,1.3-2.8,3.4-3.4,7.1
		c-0.6,3.2-1.3,5.4-2.4,6.7c-1.1,1.5-2.2,2.2-3.4,2.6L1168.7,358.8L1168.7,358.8z"/>
	<path class="st8" d="M1213.3,472l8.6,17.4c0.2,0.6,1.1,1.1,1.7,0.9s1.1-1.1,0.9-1.7l-5.6-18.5L1213.3,472L1213.3,472z"/>
	<path class="st8" d="M1162.9,465.6l-12.7,14.6c-0.4,0.6-1.3,0.6-1.9,0.2s-0.6-1.3-0.2-1.9l10.1-16.6L1162.9,465.6L1162.9,465.6z"/>
	<path class="st8" d="M1197.1,394.8c0,0.4-0.2,0.4-0.6,0.4c-1.3-0.2-3-0.4-5.2-0.9c-0.9-0.2-1.7-0.2-3-0.4c-1.5-0.2-2.4-0.2-3-0.2
		c-0.2,0-0.2,0-0.2-0.2l-0.2-0.2c0-0.2,0.2-0.4,0.4-0.4c0,0,0.2,0,0.6,0c0.2,0,0.6,0,1.3,0c0.6,0,1.1-0.2,1.1-0.6
		c0-0.6,0.2-1.3,0.2-2.2c0-1.1,0.2-1.7,0.2-2.4c0-0.4,0.2-1.5,0.4-3.2c0-0.4,0-0.6,0-0.9s-0.2-0.2-0.6-0.2c0,0-0.2,0-0.4,0
		c-0.2,0-0.4,0-0.4,0c-0.6,0-0.9-0.2-0.9-0.4s0.2-0.2,0.2-0.4c0.2,0,0.2-0.2,0.4-0.2c0,0,0.9,0,2.4-0.2c1.7,0,2.8-0.2,3.2-0.2
		s1.3,0,2.4-0.2c0.6,0,1.3,0,1.3,0c0.4,0,0.6,0.2,0.6,0.4c0,0.4-0.4,0.6-1.1,0.6c-0.2,0-0.6,0-0.6,0c-0.2,0-0.4,0.2-0.4,0.6
		c0,1.1-0.2,2.6-0.4,4.7c-0.2,0.9-0.4,2.4-0.9,4.1c0,0.4,0,0.6,0,0.9c0.2,0.2,0.4,0.2,0.6,0.2c0,0,0.2,0,0.6,0.2s0.6,0.2,0.6,0.2
		C1196.9,394.3,1197.3,394.6,1197.1,394.8L1197.1,394.8L1197.1,394.8z M1205.9,383.4c1.7,0.2,3,0.6,3.7,1.3c1.1,0.9,1.3,1.9,1.3,3.4
		c-0.2,1.3-0.6,2.2-1.7,3c-0.6,0.4-1.7,1.1-3.2,1.5l3.9,0.4c0.4,0,0.6,0,1.1-0.4c0,0,0.2-0.2,0.4-0.4c0.2-0.2,0.2-0.2,0.4-0.2
		s0.2,0,0.2,0.2s0,0.2,0,0.4s-0.2,0.6-0.9,1.7c-0.2,0.4-0.6,0.9-1.3,1.5c-0.6,0.6-1.1,1.1-1.3,1.1l-9.5-1.3c-0.2,0-0.2,0-0.4-0.2
		c-0.2-0.2-0.2-0.2-0.2-0.4s0.2-0.2,0.2-0.4c0,0,0.4-0.2,0.6-0.2s0.9-0.4,2.2-1.1c0.9-0.4,1.7-1.3,2.4-2.4c0.6-1.1,1.1-2.2,1.3-3
		c0-0.6,0-1.3-0.4-1.7c-0.2-0.4-0.6-0.6-1.1-0.6c-0.6,0-1.1,0-1.5,0.4s-0.9,0.6-1.1,0.6c-0.4,0-0.6-0.2-0.4-0.6
		c0.2-1.3,1.3-2.2,2.6-2.4C1204,383.4,1204.9,383.2,1205.9,383.4L1205.9,383.4L1205.9,383.4z"/>
	<path class="st8" d="M1227.9,435c-0.6,0-1.3-0.2-2.2-0.6c-1.1-0.4-1.7-0.6-2.2-1.1c-0.2-0.2-0.4-0.4-0.4-0.6s0-0.4,0.2-0.4
		c0,0,0.2,0,0.4,0c0.2,0,0.4,0,0.6,0.2c0.2,0,0.2,0.2,0.4,0.4c0.4,0.2,0.9,0.4,1.5,0.4s1.3-0.2,1.7-0.6c0.4-0.6,0.9-1.3,0.9-1.9
		c0-1.1-0.2-1.7-1.1-2.2c-0.4-0.2-0.9-0.4-1.1-0.4s-0.4-0.2-0.4-0.6c0,0,0.2-0.2,0.9-0.2c0.6-0.2,1.1-0.4,1.5-0.6
		c0.6-0.4,0.9-1.1,1.1-1.7c0-0.6,0-1.1-0.4-1.3s-0.9-0.4-1.5-0.6c-0.2,0-0.6,0-1.1,0.2s-0.6,0.4-0.9,0.2c-0.2,0-0.4-0.2-0.4-0.4
		s0.2-0.4,0.9-0.9c0.4-0.2,0.9-0.4,1.1-0.6c0.4-0.2,1.1-0.2,1.7-0.4c0.6,0,1.3-0.2,1.7,0c1.3,0.2,2.6,0.6,3.2,1.1
		c0.9,0.6,1.3,1.5,1.1,2.4c-0.2,1.3-0.9,2.2-2.2,2.8c0.9,0.2,1.5,0.4,2.2,1.1c0.6,0.6,0.9,1.5,0.9,2.2c-0.2,1.7-1.3,3-3,3.7
		C1231.3,435.2,1229.8,435.4,1227.9,435L1227.9,435L1227.9,435z"/>
	<path class="st8" d="M1189.2,457.2c0.6,0,0.9,1.1,1.1,2.8c0.2,1.3,0.2,2.4,0,3.2c0,0.6-0.4,0.9-0.9,0.9c-0.6,0-0.9-1.1-1.1-2.8
		c-0.2-1.3-0.2-2.6,0-3.2c0-0.2,0.2-0.4,0.2-0.6C1188.9,457.4,1188.9,457.2,1189.2,457.2L1189.2,457.2L1189.2,457.2z M1195.2,460.8
		c0.2-1.3-0.2-2.4-0.9-3.4c-0.9-1.1-1.9-1.5-3.2-1.7c0,0-0.4,0-1.5,0c0,0-0.2,0-0.4,0s-0.4,0-0.4,0s0,0,0-0.2c0-0.9,0.6-1.5,1.3-2.2
		c0.6-0.4,1.5-0.9,2.4-0.9c0.6,0,1.1,0,1.1,0c0.2,0,0.4-0.2,0.4-0.4s-0.2-0.4-0.6-0.4c-2.6-0.4-4.9,0.2-6.9,1.5
		c-1.9,1.3-3.2,3.4-3.4,5.8c-0.2,1.5,0.2,3,1.5,4.1c1.1,1.1,2.4,1.7,3.9,1.9c1.7,0.2,3.2,0,4.5-0.9
		C1194.1,463.6,1195,462.3,1195.2,460.8L1195.2,460.8L1195.2,460.8z"/>
	<path class="st8" d="M1158,420.4c-0.4,0-0.9-1.1-0.9-2.8c0-1.3,0-2.4,0-3.2c0-0.6,0.4-0.9,0.9-0.9s0.9,1.1,1.1,2.8
		c0.2,1.5,0.2,2.6,0,3.2c0,0.2-0.2,0.4-0.2,0.6C1158.4,420.4,1158.2,420.4,1158,420.4L1158,420.4L1158,420.4z M1152.4,416.7
		c-0.2,1.3,0,2.4,0.9,3.4c0.6,1.1,1.7,1.5,3,1.7c0,0,0.4,0,1.3,0c0,0,0.2,0,0.4,0s0.4,0,0.4,0s0,0,0,0.2c-0.2,0.9-0.6,1.5-1.3,2.2
		c-0.6,0.4-1.5,0.9-2.4,0.9c-0.6,0-0.9,0-1.1,0s-0.4,0.2-0.4,0.4s0.2,0.4,0.6,0.4c2.6,0.4,4.7-0.2,6.5-1.5c1.9-1.3,3-3.2,3.4-5.8
		c0.2-1.5-0.2-3-1.3-4.3c-1.1-1.1-2.2-1.7-3.7-1.9c-1.7-0.2-3.2,0-4.3,0.9C1153.4,413.9,1152.6,415.2,1152.4,416.7L1152.4,416.7
		L1152.4,416.7z"/>
	<polygon class="st12" points="1229.6,409.6 1229,407.7 1234.8,405.3 1235.4,407.3 	"/>
	<polygon class="st8" points="1152.8,441.9 1152.1,440 1157.7,437.6 1158.6,439.5 	"/>
	<polygon class="st8" points="1218,393.5 1216.3,392.2 1220.1,387.2 1221.7,388.5 	"/>
	<polygon class="st8" points="1167.4,460 1165.9,458.7 1169.6,453.7 1171.3,455 	"/>
	<polygon class="st8" points="1207.7,459.5 1209.6,458.7 1212.2,464.5 1210.2,465.4 	"/>
	<polygon class="st8" points="1175.4,382.7 1177.3,381.9 1179.7,387.7 1178,388.5 	"/>
	<polygon class="st8" points="1223.8,447.7 1225.1,446.2 1230,449.9 1228.8,451.6 	"/>
	<polygon class="st8" points="1157.5,397.4 1158.6,395.6 1163.8,399.5 1162.5,401.2 	"/>
	<path class="st13" d="M1194.3,419.7c2.2,0.2,3.9,2.4,3.7,4.5c-0.2,2.2-2.4,3.9-4.5,3.7c-2.2-0.2-3.9-2.4-3.7-4.5
		C1190,421,1192,419.3,1194.3,419.7L1194.3,419.7L1194.3,419.7z"/>
	<path class="st12" d="M1199.1,383.6c-2.2,10.8-3.7,19.6-5.2,29.9c-0.4,3.4,0,6.2,0.2,10.1c1.1-3.7,2.4-6.2,2.6-9.7
		C1197.8,403.6,1198.4,394.8,1199.1,383.6L1199.1,383.6L1199.1,383.6z"/>
	<path class="st8" d="M1177.1,447.5c3-7.1,5.8-12.5,9.7-18.5c1.3-1.9,3.9-2.6,6.2-3.9c-0.4,2.8-0.2,5.4-1.5,7.1
		C1187,437.8,1182.7,442.1,1177.1,447.5L1177.1,447.5L1177.1,447.5z"/>
	<path class="st5" d="M1140.3,391.1c0.4-0.4,0.9-0.4,1.3,0s0.4,0.9,0,1.3c-6,7.1-9.9,19.8-9.9,32.7c0.2,11,3.2,22,10.5,29.5
		c0.4,0.4,0.4,0.9,0,1.3s-0.9,0.4-1.3,0c-7.5-8-10.8-19.4-11-30.8C1130,411.6,1134.1,398.4,1140.3,391.1L1140.3,391.1L1140.3,391.1z
		"/>
	<path class="st5" d="M1125.7,403.2c0.2-0.4,0.6-0.6,1.3-0.6c0.4,0.2,0.6,0.6,0.4,1.3c-2.6,6.7-3.7,14.8-3.4,22.8
		c0.4,7.5,1.9,14.8,5.4,21.1c0.2,0.4,0,1.1-0.4,1.3s-1.1,0-1.3-0.4c-3.4-6.5-5.2-14.2-5.4-22
		C1121.8,418.2,1123.1,410.1,1125.7,403.2L1125.7,403.2L1125.7,403.2z"/>
	<path class="st5" d="M1114.7,415c0-0.4,0.6-0.9,1.1-0.6c0.4,0,0.9,0.6,0.6,1.1c-0.9,4.3-1.1,8.8-0.9,13.3c0.2,4.3,1.1,8.4,2.4,12.5
		c0.2,0.4,0,1.1-0.6,1.1c-0.4,0.2-1.1,0-1.1-0.6c-1.3-4.1-2.2-8.4-2.4-12.9C1113.6,424.3,1113.8,419.5,1114.7,415L1114.7,415
		L1114.7,415z"/>
	<path class="st5" d="M1250.3,406c-0.2-0.4,0-1.1,0.4-1.3s1.1,0,1.3,0.4c4.3,8.8,4.9,22.6,1.5,35.3c-3,11-9,21.3-18.3,27.1
		c-0.4,0.2-1.1,0.2-1.3-0.2c-0.2-0.4-0.2-1.1,0.2-1.3c8.8-5.4,14.6-15.3,17.4-26C1255,427.7,1254.6,414.4,1250.3,406L1250.3,406
		L1250.3,406z"/>
	<path class="st5" d="M1261.5,420.6c0-0.4,0.2-0.9,0.9-1.1c0.4,0,0.9,0.2,1.1,0.9c0.9,7.3,0,15.7-2.4,23.7
		c-2.2,7.3-5.8,14.4-10.8,19.8c-0.4,0.4-0.9,0.4-1.3,0s-0.4-0.9,0-1.3c4.7-5.2,8.2-12.1,10.3-19.2
		C1261.2,435.9,1262.1,427.7,1261.5,420.6L1261.5,420.6L1261.5,420.6z"/>
	<path class="st5" d="M1269,434.8c0-0.4,0.4-0.9,1.1-0.9c0.4,0,0.9,0.4,0.9,1.1c-0.2,4.5-1.1,9-2.6,13.6c-1.3,4.3-3.2,8.2-5.6,11.8
		c-0.2,0.4-0.9,0.6-1.3,0.2c-0.4-0.2-0.6-0.9-0.2-1.3c2.4-3.4,4.1-7.3,5.4-11.4C1267.9,443.6,1268.8,439.1,1269,434.8L1269,434.8
		L1269,434.8z"/>
	<path class="st8" d="M669.2,424.9c-10.3,0.4-24.3,0-34.6,0.4c3-7.5,8.4-10.3-6-58.7c1.3-3.7,5.2-5.6,9.3-4.5
		c-0.9,33.4,21.7,56.4,7.5-1.3c2.4-1.5,6-2.2,8.2-1.3c-1.1,21.3,7.1,13.1,7.7,1.5c6.2-0.4,9.5,0.2,10.8,4.5
		C659.3,380.4,656.8,408.1,669.2,424.9L669.2,424.9L669.2,424.9z"/>
	<path class="st8" d="M688.2,340.8c3.2-17.6-22-23.5-31-14c15.5,7.5,9.7,25.8,1.9,33.6c5.4-5.4,17,1.1,16.6,8
		C718.3,382.1,712.1,334.3,688.2,340.8L688.2,340.8L688.2,340.8z"/>
	<path class="st8" d="M628.1,371.3c-35.5,12.3-34.9-40.5-2.4-31.8c5.2-28,59.8-12.7,31.8,21.1c-2.4-4.7-15.1-2.4-15.5,3.4
		C636.1,355,622.1,365.3,628.1,371.3L628.1,371.3L628.1,371.3z M645.6,332.2c-1.1-0.4-2.2,0-2.6,1.1c-0.4,1.1,0,2.2,1.1,2.6
		s2.2,0,2.6-1.1C647.1,333.4,646.4,332.4,645.6,332.2L645.6,332.2z M638.2,331.7c-0.9-0.2-1.7,0-2.2,0.9c-0.2,0.9,0,1.7,0.9,2.2
		c0.9,0.2,1.7,0,2.2-0.9C639.3,333,639.1,332.2,638.2,331.7L638.2,331.7L638.2,331.7z M637.8,337.5c-0.9-0.4-1.7,0-2.2,0.9
		c-0.4,0.9,0,1.7,0.9,2.2s1.7,0,2.2-0.9C639.1,338.8,638.7,338,637.8,337.5L637.8,337.5L637.8,337.5z M632.2,338.6
		c-0.9-0.4-1.7,0-2.2,0.9s0,1.7,0.9,2.2s1.7,0,2.2-0.9C633.3,339.9,632.9,339,632.2,338.6L632.2,338.6L632.2,338.6z M612,350
		c-0.6-0.2-1.5,0-1.7,0.6s0,1.5,0.6,1.7s1.5,0,1.7-0.6C613.1,351.1,612.6,350.4,612,350L612,350L612,350z M650.9,329.6
		c-0.6-0.2-1.5,0-1.9,0.9c-0.2,0.6,0,1.5,0.9,1.9c0.6,0.2,1.5,0,1.9-0.9C652,330.6,651.8,329.8,650.9,329.6L650.9,329.6L650.9,329.6
		z M658.9,333.2c-0.6-0.2-1.3,0-1.5,0.6s0,1.3,0.6,1.5s1.3,0,1.5-0.6C659.8,334.1,659.6,333.4,658.9,333.2L658.9,333.2L658.9,333.2z
		 M613.3,345.5c-0.6-0.2-1.3,0-1.5,0.6s0,1.3,0.6,1.5s1.3,0,1.5-0.6S613.9,345.7,613.3,345.5L613.3,345.5L613.3,345.5z"/>
	<path class="st8" d="M580.6,246.2c-11-0.6-10.3-3.9-12.5-18.7c6.9,1.9,11.6,4.5,17.9,8.2c3.2-2.8,2.6-1.3,4.1-6.2
		c3-0.4,5.2,0.4,6,2.6c-2.2,3.4-3.4,3.4-3,8.6c6.5,7.1,9.3,7.3,11.4,17.2c-11.8-3.7-16.4-0.6-19.2-8c-0.9,0.6-1.7,0.9-2.4,0.9
		s-1.1,0.2-1.3,0.6c-0.2-0.2,0-0.6-0.2-1.3C580.6,249.4,580.2,247.9,580.6,246.2L580.6,246.2L580.6,246.2z"/>
	<path class="st4" d="M1000.9,459.5c-6.2-0.9-12.5-1.7-18.7-2.6c-10.8-1.5-22-1.9-32.5-4.7c-8-2.2-6.7-1.7-6.9-9.9
		c-0.4-12.7,1.5-25.6,2.4-38.3c2.6-45.4-2.4-61.8,50.8-62c3.7,0,7.3,0.4,11.2,0.9c3.7,0.4,7.3,1.1,11,1.9c51.2,14.2,42,28.6,32.7,73
		c-2.6,12.5-4.1,25.4-7.7,37.4c-2.4,7.7-1.1,7.7-9.3,7.7C1022.4,463.4,1011.6,460.8,1000.9,459.5L1000.9,459.5L1000.9,459.5z
		 M1048.8,472.5c-6.9-0.9-61.1-9-68-10.1c-11.8-1.7-24.1-1.9-35.5-5.2c-8.6-2.4-7.3-1.9-7.5-11c-0.4-14.2,1.7-28.6,2.6-42.8
		c3-50.8-2.4-69.1,55.7-69.5c21.7-0.2,52.1,5.4,71.4,12.9c48.6,18.5,46.3,29.5,35.9,79.4c-2.8,14-7.3,27.5-11.4,41.1
		c-2.8,8.8-1.3,8.6-10.3,8.6C1069.7,475.9,1060.7,474,1048.8,472.5L1048.8,472.5L1048.8,472.5z M1000.9,462.6
		c-6.5-0.9-13.1-1.7-19.6-2.6c-11.4-1.5-23-1.9-34-4.9c-8.4-2.2-6.9-1.7-7.3-10.3c-0.4-13.3,1.5-26.9,2.4-40.2
		c2.8-47.8-2.4-64.8,53.4-65c3.9,0,7.7,0.4,11.6,1.1c3.9,0.4,7.7,1.1,11.6,2.2c53.8,14.8,44.1,29.9,34.4,76.8
		c-2.8,13.1-4.3,26.7-8.2,39.4c-2.6,8.2-1.3,8.2-9.7,8.2C1023.7,466.7,1012.3,463.9,1000.9,462.6L1000.9,462.6L1000.9,462.6z
		 M956.3,428.1c-4.1,8.6-3,12.7,3.9,18.3c1.7,1.3,1.7,1.3,2.8-0.4c5.4-7.5,4.9-13.1-2.8-18.7C958.2,425.8,957.6,425.5,956.3,428.1
		L956.3,428.1L956.3,428.1z M1025.2,402.5c-9.3,2.6-11.4,6.2-11,15.1c0.2,2.2,0,2.2,2.2,1.9c9-1.1,12.9-5.2,12.1-14.6
		C1028,402.3,1027.8,401.7,1025.2,402.5L1025.2,402.5L1025.2,402.5z M990.7,379.3c-0.4,9.5,2.4,12.9,11,15.3
		c2.2,0.6,1.9,0.6,2.4-1.5c1.9-9-0.6-14-10.1-15.9C991.4,376.5,990.7,376.7,990.7,379.3L990.7,379.3L990.7,379.3z M1027.3,374.3
		c-6.5,6.5-9.5,10.8-12.7,18.7c-0.9,1.9-0.9,1.9,0.4,0.9c5.8-4.7,9.9-10.3,13.1-18.5C1029,372.8,1029,372.4,1027.3,374.3
		L1027.3,374.3L1027.3,374.3z M968.8,406.2c-4.9-7.7-8.4-11.4-15.5-16.4c-1.7-1.3-1.7-1.3-0.9,0.2c3.4,6.7,8,11.8,15.5,16.8
		C969.9,408.1,970.3,408.3,968.8,406.2L968.8,406.2L968.8,406.2z M1014.2,439.1c-9-1.1-14.2-0.4-22.6,1.9c-1.9,0.6-1.9,0.6-0.4,0.9
		c7.3,1.5,14.2,1.1,22.8-1.5C1016.6,439.5,1016.8,439.3,1014.2,439.1L1014.2,439.1L1014.2,439.1z M980.2,346.4
		c-7.3,5.4-10.8,9.5-15.1,16.8c-1.1,1.7-1.1,1.7,0.4,0.9c6.5-4.1,11-8.8,15.5-16.8C982.1,345.3,982.3,344.8,980.2,346.4L980.2,346.4
		L980.2,346.4z M1018.9,444.1c9.5-0.4,12.9,2.2,15.3,10.8c0.6,2.2,0.6,1.9-1.3,2.4c-8.8,1.9-14-0.6-16.1-9.9
		C1016.1,444.9,1016.4,444.3,1018.9,444.1L1018.9,444.1L1018.9,444.1z M1042.8,362.5c4.7,8,6.2,12.9,7.5,21.3
		c0.2,2.2,0.2,2.2-0.6,0.6c-4.3-6.2-6.9-12.5-7.7-21.3C1041.3,360.8,1041.5,360.3,1042.8,362.5L1042.8,362.5L1042.8,362.5z
		 M1062.6,362.5c1.1,2.8,2.4,3.9,5.4,4.9c0.6,0.2,0.6,0.2,0.6-0.2c-0.6-2.6-2.2-4.1-5.2-4.9C1062.6,361.8,1062.4,361.8,1062.6,362.5
		L1062.6,362.5L1062.6,362.5z M1074,361.4c2.4,1.7,4.1,1.9,7.1,1.3c0.6-0.2,0.6-0.2,0.2-0.6c-1.9-1.7-3.9-2.4-7.1-1.5
		C1073.6,361,1073.4,361,1074,361.4L1074,361.4L1074,361.4z"/>
	<polygon class="st5" points="101.8,293.4 98.3,294.1 96.6,285.7 100,284.8 	"/>
	<polygon class="st5" points="81.5,297.7 51.8,304.2 50.1,295.8 79.6,289.3 	"/>
	<polygon class="st5" points="31.6,308.5 35,307.8 33.1,299.4 29.9,300.1 	"/>
	<path class="st2" d="M96.2,304.6h-0.4c-1.7,0.4-3.4-0.6-3.9-2.4l-4.7-21.3c-0.4-1.7,0.6-3.4,2.4-3.9H90c1.7-0.4,3.4,0.6,3.9,2.4
		l4.7,21.3C99,302.5,97.9,304.2,96.2,304.6L96.2,304.6L96.2,304.6z"/>
	<path class="st2" d="M88.4,306.3H88c-1.7,0.4-3.4-0.6-3.9-2.4l-4.7-21.3c-0.4-1.7,0.6-3.4,2.4-3.9h0.4c1.7-0.4,3.4,0.6,3.9,2.4
		l4.7,21.3C91.2,304.2,90.1,305.9,88.4,306.3L88.4,306.3L88.4,306.3z"/>
	<path class="st2" d="M49.7,314.7h-0.4c-1.7,0.4-3.4-0.6-3.9-2.4L40.6,291c-0.4-1.7,0.6-3.4,2.4-3.9h0.4c1.7-0.4,3.4,0.6,3.9,2.4
		l4.7,21.3C52.5,312.6,51.4,314.3,49.7,314.7L49.7,314.7L49.7,314.7z"/>
	<path class="st2" d="M41.9,316.4h-0.4c-1.7,0.4-3.4-0.6-3.9-2.4l-4.7-21.3c-0.4-1.7,0.6-3.4,2.4-3.9h0.4c1.7-0.4,3.4,0.6,3.9,2.4
		l4.7,21.3C44.7,314.3,43.7,316,41.9,316.4L41.9,316.4L41.9,316.4z"/>
	<path class="st2" d="M323.2,239.2c11,1.5,18.5,4.7,21.5,13.6c1.9,5.8-0.4,12.9-5.4,17.6c-3.7,3.4-9.3,5.6-13.6,5.8
		c-10.8,0.9-15.7-9-17.4-22.2c-4.3-5.6-11.6-12.7-5.8-19.8C308.6,226.9,317,233.6,323.2,239.2L323.2,239.2L323.2,239.2z
		 M310.1,250.4c-6.9-6.9-6.9-10.8-5.6-15.1C301.7,237,300.4,246.3,310.1,250.4L310.1,250.4L310.1,250.4z"/>
	<path class="st2" d="M302.8,232.9c-6.7-5.4-12.1-6.7-20.9-4.7l0.9,1.9c7.3-2.2,13.8-1.7,19.2,3.7L302.8,232.9L302.8,232.9z"/>
	<path class="st14" d="M65.6,511.2c-1.3,0.6-1.7,1.7-1.1,3.4c-2.4,0-3.9,1.3-4.5,2.8C57.2,513.1,61.7,507.3,65.6,511.2L65.6,511.2
		L65.6,511.2z M22.1,463.2L22.1,463.2L22.1,463.2c-8.6,3.9-19.6-1.9-21.5-11c8-0.4,14.4,2.6,20,7.7c-2.6-6.5-3.2-13.1,0-20l1.7,1.3
		c-3.4,6.2-3.2,15.1,0.9,21.5L22.1,463.2L22.1,463.2z M24.1,462.6c-14.6,10.1-18.5,29.9-8.6,44.1c9.5,13.8,28.4,17.4,43,8.4
		c-0.6-4.1,3.2-8.4,6.9-5.8c9.9-10.8,11.6-27.1,3.2-39.4C58.7,455.9,38.7,452.4,24.1,462.6L24.1,462.6L24.1,462.6z M18.9,479.6
		c-0.4,0.4-0.6,1.1-0.2,1.5s1.1,0.6,1.5,0.2s0.6-1.1,0.2-1.5C20.2,479.3,19.3,479.1,18.9,479.6L18.9,479.6L18.9,479.6z M16.1,481.7
		c-0.4,0.4-0.6,1.1-0.2,1.5s1.1,0.6,1.5,0.2c0.4-0.4,0.6-1.1,0.2-1.5C17.4,481.5,16.8,481.3,16.1,481.7L16.1,481.7L16.1,481.7z
		 M19.1,483.9c-0.4,0.2-0.6,0.9-0.2,1.3c0.2,0.4,0.9,0.6,1.3,0.2c0.4-0.2,0.6-0.9,0.2-1.3C20.2,483.7,19.5,483.7,19.1,483.9
		L19.1,483.9L19.1,483.9z M16.8,486.9c-0.4,0.2-0.6,0.9-0.2,1.3c0.2,0.4,0.9,0.6,1.3,0.2c0.4-0.2,0.6-0.9,0.2-1.3
		C17.8,486.7,17.2,486.7,16.8,486.9L16.8,486.9L16.8,486.9z M20.4,487.7c-0.4,0.2-0.6,0.9-0.2,1.3c0.2,0.4,0.9,0.6,1.3,0.2
		c0.4-0.2,0.6-0.9,0.2-1.3C21.3,487.5,20.8,487.3,20.4,487.7L20.4,487.7L20.4,487.7z M20.6,492.5c-0.4,0.2-0.6,0.9-0.2,1.3
		c0.2,0.4,0.9,0.6,1.3,0.2c0.4-0.2,0.6-0.9,0.2-1.3C21.5,492.3,21.1,492,20.6,492.5L20.6,492.5L20.6,492.5z M23.6,495.9
		c-0.4,0.2-0.4,0.6-0.2,1.1s0.6,0.4,1.1,0.2c0.4-0.2,0.4-0.6,0.2-1.1C24.5,495.7,24.1,495.5,23.6,495.9L23.6,495.9L23.6,495.9z
		 M16.8,478.3c-0.4,0.2-0.4,0.9-0.2,1.3c0.2,0.4,0.9,0.4,1.3,0.2c0.4-0.2,0.4-0.9,0.2-1.3C17.6,478.1,17.2,477.8,16.8,478.3
		L16.8,478.3L16.8,478.3z M19.3,474.2c-0.2,0.2-0.4,0.6-0.2,0.9s0.6,0.4,0.9,0.2c0.2-0.2,0.4-0.6,0.2-0.9
		C20.2,474.2,19.8,474,19.3,474.2L19.3,474.2L19.3,474.2z"/>
</g>
</svg>
