<?xml version="1.0" encoding="utf-8"?>
<!-- Generator: Adobe Illustrator 19.1.0, SVG Export Plug-In . SVG Version: 6.00 Build 0)  -->
<svg version="1.1" id="Layer_2" xmlns="http://www.w3.org/2000/svg" xmlns:xlink="http://www.w3.org/1999/xlink" x="0px" y="0px"
	 viewBox="44 -102.8 900 997.7" style="enable-background:new 44 -102.8 900 997.7;" xml:space="preserve">
<style type="text/css">
	.st0{opacity:0.22;fill:#58595B;enable-background:new    ;}
	.st1{fill:none;}
	.st2{fill:#A7A9AC;}
	.st3{fill:#ED1C24;}
	.st4{fill:#9A9C9E;}
	.st5{fill:#F1F2F2;}
	.st6{fill:#00AAAD;}
</style>
<g>
	<path class="st0" d="M732.4,244.6c50.3-35.4,80.3-93,80.3-154.4c0-104-84.4-188.4-188.1-188.4c-8.4,0-16.6,0.5-24.7,1.7
		c-3.6-3.8-9.1-5.5-14.4-3.8l-39.1,12.2c-7.4,2.2-11.7,10.3-9.3,17.7l1,3.4c2.2,7.4,10.3,11.7,17.7,9.3L595-69.9
		c5.3-1.7,8.9-6.2,9.8-11.2c6.5-0.7,13.2-1.2,19.9-1.2c94.9,0,172.1,77.4,172.1,172.5c0,56.5-27.6,109.5-74.1,141.7l-0.7,0.3
		l-0.5,0.5c-14.4,14.6-30.4,28.5-46.8,41.7c-42.6-50.1-82.9-86.7-84.6-88.4l-6,6.7l-15.6-14.6c6.7-10,10.5-21.8,10.5-34.5
		c0-34.3-28-62.3-62.3-62.3c-34.3,0-62.3,28-62.3,62.3s28,62.3,62.3,62.3c15.3,0,29.3-5.5,40.2-14.8l15.6,14.6l-4.5,5
		c0.3,0.3,40,36.2,80.8,84.3c-2.2,1.7-4.5,3.4-6.7,5.1c-9.6,7.4-19.4,15.1-28.8,22.7l-1.2,0.9c-7,5.3-14.2,10.8-21.1,16.5
		c-26.8,21.1-46.3,38.3-63.5,55.6c-4.6,4.5-8.6,8.2-11.5,11l0,0l-0.9,0.9c-2.9-2.9-7.2-6.9-12.2-11.8c-21.8-22-45.5-41.2-63.7-55.6
		c-8.1-6.3-16.1-12.5-22.3-17.3c-9.4-7.6-19.2-15.1-28.7-22.5c-27.3-21.3-55.6-43.1-79.5-67.4l-0.5-0.5l-0.7-0.3
		c-46.3-32.3-74.1-85.3-74.1-141.7c0-95.1,77.2-172.5,172.1-172.5c10.3,0,20.6,1,30.5,2.7c1,5.5,4.8,10.3,10.5,12.4l35.4,12.4
		c8.2,2.9,17.5-1.5,20.4-9.8l0,0c2.9-8.2-1.5-17.5-9.8-20.4l-35.4-12.4c-5.3-1.9-11-0.7-15.3,2.6c-11.8-2.4-23.9-3.4-36.2-3.4
		c-103.6,0-188.1,84.6-188.1,188.4c0,61.4,30,119.1,80.3,154.4c24.5,24.9,53,47,80.7,68.3c9.4,7.4,19.2,14.9,28.5,22.5l0.2,0.2
		c6,4.6,14.1,10.8,22.1,17.2c17.8,14.1,41,33.1,62.3,54.4l0.2,0.2c6.9,6.5,11.8,11.5,14.8,14.2v19.7h-7.9v103.6H358.9
		c-47.7,0-92.5,18.7-126.1,52.5c-32.9,33.3-51,77.2-50.6,123.7c0.3,46.2,18.5,89.6,51.1,122.4c32.6,32.6,76.2,50.8,122.4,51.1
		c0.5,0,0.9,0,1.4,0c46,0,89.4-18,122.4-50.6c33.8-33.6,52.5-78.4,52.5-126.1V578.2h101.4c6.9,0.3,68,2.1,107.1-34.8
		c21.1-19.9,31.7-46.8,31.7-80.1c0-46.3-29.2-105.7-86.8-176.2C701.6,273.5,717.7,259.6,732.4,244.6z M516.7,180.8
		c-20.6,0-37.2-16.6-37.2-37.2s16.6-37.2,37.2-37.2c20.6,0,37.2,16.6,37.2,37.2c0,6.2-1.5,11.8-4.1,17l-8.1-7.6
		c1.2-2.9,1.7-6.2,1.7-9.4c0-14.8-12-26.8-26.8-26.8c-14.8,0-26.8,12-26.8,26.8c0,14.8,12,26.8,26.8,26.8c5.1,0,9.8-1.4,13.9-3.9
		l7.9,7.4C532.4,178.2,525,180.8,516.7,180.8z M516.7,159.7c-8.8,0-16-7.2-16-16c0-8.8,7.2-16,16-16c8.8,0,16,7.2,16,16
		C532.9,152.5,525.7,159.7,516.7,159.7z M498.7,717.9c0,38.8-15.1,75.2-42.7,102.6c-26.8,26.4-61.8,41-99,41c-0.3,0-0.7,0-1,0
		c-37.4-0.3-72.6-15.1-99.2-41.5c-26.4-26.4-41.2-61.8-41.5-99.2c-0.3-37.6,14.2-73.1,41-100c27.3-27.5,63.8-42.7,102.6-42.7h139.9
		L498.7,717.9L498.7,717.9z M739,463.1c0,24-7,42.4-21.3,55.9c-30,28.5-82.5,25.9-83.1,25.9h-0.5H531.8V441.3h-7.9v-19.7
		c2.9-2.9,8.1-7.7,14.8-14.2l0.2-0.2c16.8-17,36-33.6,62.3-54.4c6.9-5.5,14.1-11,20.9-16.3l1.4-1c9.3-7.6,19.2-15.1,28.7-22.5
		c2.4-1.9,4.6-3.6,7-5.5C711.3,371.1,739,425,739,463.1z"/>
	<line class="st1" x1="505.2" y1="43.5" x2="505.2" y2="40.3"/>
	<path class="st2" d="M509.9,204.1c-34.3,0-62.3-28-62.3-62.3s28-62.3,62.3-62.3c34.3,0,62.3,28,62.3,62.3S544.4,204.1,509.9,204.1z
		 M509.9,104.8c-20.6,0-37.2,16.6-37.2,37.2s16.6,37.2,37.2,37.2c20.6,0,37.2-16.6,37.2-37.2S530.5,104.8,509.9,104.8z"/>
	<g>
		<path class="st3" d="M617.8-100.1c-8.4,0-16.6,0.5-24.7,1.7c-3.6-3.8-9.1-5.5-14.4-3.8L539.6-90c-7.4,2.2-11.7,10.3-9.3,17.7
			l1,3.4c2.2,7.4,10.3,11.7,17.7,9.3l39.1-12.2c5.3-1.7,8.9-6.2,9.8-11.2c6.5-0.7,13.2-1.2,19.9-1.2c94.9,0,172.1,77.4,172.1,172.5
			c0,56.5-27.6,109.5-74.1,141.7l-0.7,0.3l-0.5,0.5c-23.9,24.2-52.2,46.2-79.5,67.3c-9.6,7.4-19.4,15.1-28.8,22.7l-1.2,0.9
			c-7,5.3-14.2,10.8-21.1,16.5c-26.8,21.1-46.3,38.3-63.5,55.6c-4.6,4.5-8.6,8.2-11.5,11l0,0l-0.9,0.9c-2.9-2.9-7.2-6.9-12.2-11.8
			c-21.8-22-45.5-41.2-63.7-55.6c-8.1-6.3-16.1-12.5-22.3-17.3c-9.4-7.6-19.2-15.1-28.7-22.5c-27.3-21.3-55.6-43.1-79.5-67.4
			l-0.5-0.5l-0.7-0.3c-46.3-32.3-74.1-85.3-74.1-141.7c0-95.1,77.2-172.5,172.1-172.5c10.3,0,20.6,1,30.5,2.7
			c1,5.5,4.8,10.3,10.5,12.4L475-56.7c8.2,2.9,17.5-1.5,20.4-9.8l0,0c2.9-8.2-1.5-17.5-9.8-20.4l-35.4-12.4
			c-5.3-1.9-11-0.7-15.3,2.6c-11.8-2.4-23.9-3.4-36.2-3.4c-103.6,0-188.1,84.6-188.1,188.4c0,61.4,30,119.1,80.3,154.4
			c24.5,24.9,53,47,80.7,68.3c9.4,7.4,19.2,14.9,28.5,22.5l0.2,0.2c6,4.6,14.1,10.8,22.1,17.2c17.8,14.1,41,33.1,62.3,54.4l0.2,0.2
			c6.9,6.5,11.8,11.5,14.8,14.2v57h17.3v-57c2.9-2.9,8.1-7.7,14.8-14.2l0.2-0.2c16.8-17,36-33.6,62.3-54.4
			c6.9-5.5,14.1-11,20.9-16.3l1.4-1c9.3-7.6,19.2-15.1,28.7-22.5c27.5-21.3,55.9-43.4,80.5-68.3c50.3-35.4,80.3-93,80.3-154.4
			C805.9-15.5,721.6-100.1,617.8-100.1z"/>
	</g>
	<polygon class="st4" points="569.8,207.9 521.5,162.6 533,149.6 581.3,194.9 	"/>
	<path class="st5" d="M509.9,125.9c-8.8,0-16,7.2-16,16c0,8.8,7.2,16,16,16c8.8,0,16-7.2,16-16C526,133.1,518.8,125.9,509.9,125.9z
		 M509.9,168.6c-14.8,0-26.8-12-26.8-26.8s12-26.8,26.8-26.8s26.8,12,26.8,26.8S524.6,168.6,509.9,168.6z M473,141.8
		c0-20.4,16.6-37.1,37.1-37.1s37.1,16.6,37.1,37.1c0,20.4-16.6,37.1-37.1,37.1C489.6,179.1,473,162.4,473,141.8z"/>
	<path class="st6" d="M350.1,892.8c-0.5,0-0.9,0-1.4,0c-46.2-0.3-89.6-18.5-122.4-51.1c-32.6-32.6-50.8-76.2-51.1-122.4
		c-0.3-46.5,17.7-90.4,50.6-123.7c33.6-33.8,78.4-52.5,126.1-52.5h139.9V439.4H525v103.6h102.3h0.5c0.5,0,53,2.6,83.1-25.9
		c14.4-13.6,21.3-31.9,21.3-55.9c0-39.3-29.2-95.1-84.4-161.3c-42.9-51.5-86.1-90.6-86.5-91.1l22.1-24.5
		c1.9,1.7,45.5,41.2,89.7,94.4c61.1,73.3,92,134.7,92,182.4c0,33.3-10.6,60.2-31.7,80.1c-39.1,36.9-100.2,35.2-107.1,34.8H524.8
		v139.9c0,47.7-18.7,92.5-52.5,126.1C439.5,874.9,396.1,892.8,350.1,892.8z M352,576.3c-38.8,0-75.2,15.1-102.6,42.7
		c-26.8,26.9-41.4,62.5-41,100c0.3,37.4,15.1,72.6,41.5,99.2c26.4,26.4,61.8,41.2,99.2,41.5c0.3,0,0.7,0,1,0c37.2,0,72.4-14.6,99-41
		c27.5-27.3,42.7-63.8,42.7-102.6V576.3L352,576.3L352,576.3z"/>
</g>
</svg>
