<?xml version="1.0" encoding="utf-8"?>
<!-- Generator: Adobe Illustrator 23.0.1, SVG Export Plug-In . SVG Version: 6.00 Build 0)  -->
<svg version="1.1" id="Layer_1" xmlns="http://www.w3.org/2000/svg" xmlns:xlink="http://www.w3.org/1999/xlink" x="0px" y="0px"
	 viewBox="0 0 616.4 529.7" style="enable-background:new 0 0 616.4 529.7;" xml:space="preserve">
<style type="text/css">
	.st0{fill:#F0D0B4;}
	.st1{fill:#BCBEC0;}
	.st2{fill:#EC585D;}
</style>
<g>
	<path class="st0" d="M42.2,206.8c0.1,0.7-0.6,1.2-1.3,1c-10-2.6-18.5-3.7-25.2,4.7c-7.5,9.5-8.8,22.9-1.7,34.1
		c5.7,9.1,12.8,17.4,19.5,25.9C49.3,291.9,67.4,309,86,325.8c7.4,6.7,13.7,14.5,20.6,21.8c1.2,1.4,2.6,2.5,4.1,3.7
		c0.4,0.3,1,0.3,1.4,0l0,0c0.4-0.3,0.5-0.9,0.3-1.3c-0.6-1-1.1-2-1.8-2.7C96.2,333,81.7,319,67.7,304.5
		c-12.8-13.3-25.1-27.1-37.4-40.9c-4.6-5.1-9-10.4-12.5-16.3c-4.1-6.8-6.3-14.6-4.4-22.8c2.9-12.9,12-19,24.1-14
		c9.8,4.1,19.5,9.9,27.3,17.1c10.8,9.9,20.2,21.6,29.5,33.1c21.3,26.3,49.1,42.7,80.7,53.5c55.5,19,93.5,55.7,111.5,112.1
		c4.3,13.4,6.1,27.2,5.3,39.9c-0.2,2.7-2.2,5-4.8,5.5c-22.4,4.6-43.9,9.3-65.5,13.3c-12.1,2.3-24.4,3.2-36.6,4.5
		c-1.7,0.2-4.7-1-5.3-2.4c-13.4-29-36.4-48.2-63.7-63.1c-21.2-11.5-42.2-23.7-63.5-35c-19-10-31.2-24.1-34.4-45.9
		c-5-34.1-11.4-67.9-16.1-101.9c-4.1-30.1,1.5-60,3.3-89.9c0.6-9.5,1.5-19.2,3.5-28.5c0.9-4.2,4.4-10.5,7.3-10.8
		c3.9-0.5,9.9,3,12.1,6.6c4.8,7.7,9.8,16.2,10.8,24.8C40.8,164.1,41.1,185.1,42.2,206.8z"/>
	
		<rect x="175.9" y="487.2" transform="matrix(0.982 -0.1891 0.1891 0.982 -90.6365 54.7497)" class="st1" width="131.3" height="30.3"/>
	<path class="st0" d="M572.9,190.7c0,0.7,0.7,1.2,1.4,1c9.8-3.3,18.3-4.9,25.5,3.1c8.1,9,10.2,22.3,3.9,33.9
		c-5.2,9.5-11.6,18.2-17.9,27c-14.4,20.4-31.4,38.6-48.9,56.5c-7,7.2-12.8,15.4-19.2,23c-1.2,1.4-2.5,2.6-3.8,3.9
		c-0.4,0.4-0.9,0.4-1.4,0.1l0,0c-0.4-0.3-0.5-0.8-0.3-1.3c0.5-1,1-2.1,1.7-2.8c13.3-15.2,27-30,40-45.4
		c11.9-14.1,23.3-28.6,34.7-43.2c4.2-5.4,8.3-11,11.5-17c3.7-7.1,5.3-14.9,2.9-23c-3.7-12.7-13.2-18.3-24.9-12.4
		c-9.5,4.7-18.8,11.1-26.1,18.8c-10.2,10.6-18.8,22.8-27.3,34.9c-19.7,27.6-46.2,45.7-77.1,58.5c-54.2,22.5-89.7,61.6-104,119
		c-3.4,13.6-4.4,27.5-2.8,40.2c0.3,2.7,2.5,4.8,5.2,5.2c22.6,3.2,44.4,6.5,66.2,9.2c12.2,1.5,24.6,1.7,36.8,2.1
		c1.7,0.1,4.6-1.3,5.2-2.7c11.5-29.8,33.2-50.4,59.6-67c20.4-12.9,40.6-26.3,61.2-38.9c18.3-11.2,29.7-26,31.5-48.1
		c2.8-34.2,7.1-68.4,9.7-102.7c2.3-30.3-5.3-59.7-9-89.5c-1.2-9.5-2.8-19-5.3-28.3c-1.2-4.1-5.1-10.3-7.9-10.4
		c-3.9-0.2-9.7,3.6-11.7,7.4c-4.3,7.9-8.8,16.8-9.2,25.5C571.7,147.9,572.8,169,572.9,190.7z"/>
	
		<rect x="377.6" y="432.7" transform="matrix(0.1265 -0.992 0.992 0.1265 -151.2564 824.9733)" class="st1" width="30.3" height="131.3"/>
	<g>
		<g>
			<path class="st2" d="M538.4,113.7c-0.1-0.9-0.1-1.7-0.2-2.6c-0.1-1.1-0.1-2.2-0.3-3.3c-0.1-0.6-0.2-1.3-0.3-1.9
				c-7-57-55.5-101.1-114.4-101.1c-63.7-0.1-115.3,51.5-115.3,115.2c0-63.7-51.6-115.3-115.3-115.3C134,4.7,85.5,48.8,78.5,105.7
				c-0.1,0.6-0.2,1.3-0.3,1.9c-0.1,1.1-0.2,2.2-0.3,3.3c-0.1,0.9-0.1,1.7-0.2,2.6c-0.1,2.1-0.2,4.1-0.2,6.3
				c-0.3,144.8,230.5,246.9,230.5,246.9S539,264.7,538.6,119.9C538.6,117.8,538.6,115.7,538.4,113.7z"/>
		</g>
	</g>
</g>
</svg>
