<?xml version="1.0" encoding="utf-8"?>
<!-- Generator: Adobe Illustrator 19.1.0, SVG Export Plug-In . SVG Version: 6.00 Build 0)  -->
<svg version="1.1" id="Ñëîé_1" xmlns="http://www.w3.org/2000/svg" xmlns:xlink="http://www.w3.org/1999/xlink" x="0px" y="0px"
	 viewBox="0 0 800 800" enable-background="new 0 0 800 800" xml:space="preserve">
<g>
	<path fill="#5D3722" d="M403.69,143.305c0,1.195-0.969,2.164-2.164,2.164c-1.195,0-2.164-0.968-2.164-2.164V23.581
		c0-1.195,0.969-2.164,2.164-2.164c1.194,0,2.164,0.968,2.164,2.164V143.305z"/>
	<g>
		<linearGradient id="SVGID_1_" gradientUnits="userSpaceOnUse" x1="395.7275" y1="60.6691" x2="541.9499" y2="60.6691">
			<stop  offset="0" style="stop-color:#E85C4F"/>
			<stop  offset="1" style="stop-color:#CA5045"/>
		</linearGradient>
		<path fill="url(#SVGID_1_)" d="M395.756,30.072c0,0,23.654-14.022,68.445,13.541c28.549,17.569,29.391,16.568,77.749,6.32
			c-3.885,7.951-8.374,13.547-8.706,17.533c-1.256,15.161,18.82,7.026-0.866,16.622c-18.931,9.227-36.543,16.86-72.211,3.683
			c-14.053-5.192-53.592-10.254-59.362,2.807C395.035,103.637,395.756,30.072,395.756,30.072z"/>
		<g>
			<g>
				<g>
					<path fill="#E4D7AA" d="M416.332,42.305c3.02-0.621,4.667,1.431,6.109,5.831c0,0.223,0,0.332,0,0.557
						c0,0.283-0.554,0.431-0.823,0.732c-0.335-0.008-0.579-0.008-0.914-0.003c-0.416-0.292-0.942-1.287-1.509-2.878
						c-0.563-1.59-1.527-2.295-2.843-2.035c-1.317,0.259-2.116,1.576-2.379,4.07c-0.263,2.495,1.595,5.402,4.813,9.027
						c2.366,2.666,3.527,5.653,3.527,8.231c0,4.642-1.854,6.666-5.551,8.395c-3.127,1.462-5.266,1.517-6.509-2.125
						c-0.337-1.28-0.794-1.964-0.794-3.375c0-0.439,0-0.662,0-1.108c0-0.56,0.356-0.838,0.625-1.39
						c0.269-0.192,0.377-0.286,0.648-0.468c0.448-0.199,1.041,3.234,2.679,5.618c0.596,0.867,2.145,0.982,3.355,0.429
						c0.269-0.123,0.401-0.182,0.671-0.299c1.334-0.576,2.357-2.295,2.52-5.277c0.107-1.937-1.931-4.692-4.875-7.512
						c-2.465-2.361-3.579-5.91-3.489-9.655C411.682,45.326,413.312,42.926,416.332,42.305z"/>
					<path fill="#E4D7AA" d="M426.682,42.313c0.135,0.042,0.203,0.063,0.338,0.107c0.335,0.391,0.504,0.591,0.84,0.995
						c-0.785,4.763-1.178,9.494-1.178,12.071c0,0.809-0.003,1.213-0.003,2.023c0,5.906,1.461,9.534,4.375,11.337
						c0.135-0.002,0.203-0.002,0.338-0.004c2.129-2.456,3.192-6.316,3.192-11.983c-0.068-3.669-0.097-5.537-0.165-8.901
						c-0.068-0.488-0.101-0.728-0.169-1.206c0.235-0.463,0.682-0.544,1.342-0.265c0.649,0.275,1.04,0.797,1.173,1.59
						c0.135,3.542,0.204,5.494,0.339,9.316c-0.068,2.444-0.428,3.69-0.496,6.111c0,1.621,1.699,3.868,1.699,6.544
						c0,0.163,0,0.242,0,0.404c0,0.18-0.082,0.271-0.349,0.452c-0.406-0.049-0.441-0.07-0.845-0.112
						c-0.548-0.056-1.089-1.054-1.772-3.231c-0.807,1.022-1.168,1.543-1.975,2.572c-0.639,0.445-1.179,0.674-1.661,0.683
						c-0.471,0.009-0.696,0.015-1.166,0.037c-1.95,0.093-4.42-1.881-5.712-7.051c-0.614-2.46-0.67-5.261-0.67-7.334
						c0-4.738,0.507-10.082,1.516-14.169C426.076,42.298,426.279,42.3,426.682,42.313z"/>
					<path fill="#E4D7AA" d="M447.411,50.171c0.142,0.042,0.214,0.064,0.358,0.107c2.012,0.603,3.499,2.362,3.682,4.641
						c0.04,0.492-0.558,0.723-1.495,0.482c-0.955-0.247-1.465-1.115-1.465-2.467c-0.292-0.249-0.437-0.377-0.724-0.624
						c-0.287-0.085-0.193-0.125-0.477-0.208c-2.368,0.923-3.212,4.21-3.212,9.715c0,0.275,0,0.409,0,0.684
						c0,3.921,1.259,6.711,4.625,8.686c0.361,0.149,0.424,0.223,0.789,0.375c1.045,0.046,2.103-0.136,3.289-0.543
						c0.225,0.065,0.309,0.099,0.537,0.166c0.886,0.259,1.321,0.704,1.32,1.327c-0.001,0.998-1.779,1.252-5.067,0.99
						c-0.22-0.058-0.332-0.087-0.551-0.144c-5.168-1.671-7.75-5.018-7.929-10.6c-0.242-7.551,1.444-11.998,4.561-12.823
						C446.345,50.019,446.697,50.068,447.411,50.171z"/>
					<path fill="#E4D7AA" d="M464.917,55.987c0.159,0.055,0.241,0.083,0.4,0.138c2.241,0.775,3.792,2.541,3.963,4.744
						c0.037,0.472-0.586,0.675-1.597,0.377c-1.031-0.303-1.581-1.188-1.572-2.493c-0.318-0.266-0.48-0.399-0.8-0.666
						c-0.32-0.109-0.48-0.166-0.8-0.276c-2.675,0.64-4.03,3.629-4.088,8.922c-0.003,0.264-0.003,0.395-0.006,0.659
						c-0.041,3.772,1.795,6.778,5.464,8.969c0.393,0.174,0.587,0.261,0.979,0.434c1.128,0.121,2.307,0.003,3.533-0.35
						c0.232,0.071,0.348,0.106,0.58,0.177c0.903,0.274,1.345,0.708,1.34,1.309c-0.01,0.962-1.725,1.234-5.26,0.749
						c-0.235-0.072-0.355-0.109-0.59-0.181c-5.598-2.013-8.836-5.97-9.003-11.253c-0.223-7.069,1.854-11.29,5.457-11.692
						C463.718,55.727,464.115,55.814,464.917,55.987z"/>
					<path fill="#E4D7AA" d="M477.487,60.331c1.707,0.638,2.544,0.941,4.147,1.499c1.952,0.455,2.844,0.636,4.775,1.029
						c0.344,0.396,0.516,0.727,0.513,1.001c-0.001,0.099-0.001,0.149-0.003,0.249c-0.006,0.582-1.558,0.525-4.781-0.365
						c-0.968-0.267-1.465-0.41-2.474-0.709c-0.359-0.158-0.539-0.237-0.904-0.399c-0.158,0.973-0.239,1.46-0.406,2.433
						c-0.02,1.017-0.028,1.524-0.053,2.54c1.906,0.458,2.834,0.668,4.602,1.021c0.461,0.237,0.789,0.528,0.995,0.883
						c-0.007,0.251-0.011,0.377-0.018,0.628c-0.014,0.502-1.361,0.454-4.356-0.389c-0.431-0.121-0.645-0.181-1.083-0.308
						c0.511,3.824,0.58,6.83,0.665,9.051c-0.085,0.64-0.408,0.961-0.408,1.602c0,0.102,0,0.152,0,0.254
						c4.327,0.793,5.116,1.047,8.565,1.665c0.473,0.498,0.817,0.875,0.814,1.14c-0.006,0.663-1.967,0.615-5.708-0.225
						c-1.837-0.413-2.775-0.654-4.749-1.18c-0.511-0.136-0.931-0.423-1.276-0.859c0.08-1.258,0.134-1.886,0.229-3.141
						c-0.428-6.699-0.804-10.13-1.271-10.274c0.001-0.051,0.003-0.075,0.004-0.126c0.155-0.107,0.234-0.161,0.389-0.268
						c-0.068-0.381-0.106-0.57-0.173-0.952c0.013-0.563,0.02-0.843,0.03-1.406C475.608,61.69,476.249,60.232,477.487,60.331z"/>
					<path fill="#E4D7AA" d="M498.024,65.555c3.267,0.289,5.421,1.592,6.555,4.398c0.004,0.147,0.006,0.223,0.01,0.37
						c-0.289,0.21-0.434,0.315-0.724,0.52c-0.369,0.011-0.554,0.012-0.923,0.014c-0.462-0.186-1.023-0.816-1.658-1.898
						c-0.638-1.082-1.662-1.651-3.091-1.781c-1.43-0.13-2.281,0.475-2.564,1.905c-0.283,1.431,1.616,3.803,5.397,6.547
						c2.671,1.938,4.116,3.783,4.168,5.503c0.094,3.098-2.068,4.857-6.329,4.557c-3.603-0.254-6.056-2.078-7.402-5.131
						c-0.362-1.008-0.545-1.515-0.9-2.529c0.003-0.249,0.006-0.372,0.008-0.621c0.296-0.142,0.444-0.213,0.74-0.356
						c0.294,0.055,0.444,0.082,0.74,0.135c0.492,0.146,1.316,2.518,2.978,4.799c0.803,1.102,2.45,1.776,3.84,1.878
						c0.309,0.023,0.461,0.031,0.771,0.049c1.535,0.092,2.719-1.049,2.858-2.835c0.093-1.188-2.155-3.036-5.605-5.769
						c-2.748-2.176-4.012-4.758-3.902-7.014C493.099,66.04,494.757,65.266,498.024,65.555z"/>
					<path fill="#E4D7AA" d="M513.933,63.934c3.167-1.242,5.154-1.282,6.297,0.836c0.01,0.144,0.015,0.216,0.025,0.36
						c-0.255,0.383-0.382,0.571-0.638,0.945c-0.338,0.226-0.509,0.337-0.849,0.548c-0.435,0.075-0.983-0.249-1.623-0.979
						c-0.64-0.73-1.623-0.747-3.002-0.204c-1.38,0.544-2.203,1.483-2.41,3.01c-0.207,1.528,1.867,3.193,5.526,3.986
						c2.543,0.551,3.951,1.517,4.06,3.198c0.196,3.027-1.624,6.126-5.633,7.801c-3.391,1.416-5.901,0.445-7.414-2.114
						c-0.416-0.871-0.627-1.312-1.048-2.201c-0.011-0.245-0.018-0.368-0.03-0.614c0.294-0.23,0.439-0.347,0.731-0.584
						c0.301-0.041,0.455-0.063,0.756-0.11c0.504-0.022,1.592,2.151,3.216,3.643c0.773,0.711,2.441,0.747,3.753,0.204
						c0.292-0.12,0.437-0.182,0.725-0.312c1.435-0.643,2.481-2.284,2.526-4.244c0.027-1.187-2.097-1.81-5.574-3.022
						c-2.736-0.954-4.243-3.119-4.24-5.374C509.09,66.452,510.767,65.175,513.933,63.934z"/>
				</g>
			</g>
		</g>
	</g>
</g>
<g>
	<g>
		<polygon fill="#2B7773" points="799.913,712.353 336.347,712.353 572.154,252.21 		"/>
		<polygon fill="#3AA09A" points="572.154,252.21 664.774,712.353 800.365,712.353 		"/>
		<polygon fill="#225D5A" points="572.156,252.21 335.894,712.353 445.019,712.353 572.156,252.21 534.232,326.07 		"/>
	</g>
	<polygon fill="#C1B290" points="531.102,332.166 551.555,326.765 572.154,252.21 	"/>
	<polygon fill="#E4D2AA" points="551.555,326.765 588.501,333.425 572.154,252.21 	"/>
	<polygon fill="#FFEBBE" points="588.501,333.425 611.431,331.404 572.154,252.21 	"/>
</g>
<g>
	<g>
		<polygon fill="#2B7773" points="725.656,712.353 77.397,712.353 401.526,139.699 		"/>
		<polygon fill="#225D5A" points="401.526,139.699 224.825,712.353 77.695,712.353 		"/>
		<polygon fill="#3AA09A" points="401.526,139.699 550.893,712.353 727.508,712.353 		"/>
	</g>
	<g>
		<polygon fill="#C1B290" points="401.526,139.699 368.169,247.802 330.248,265.629 		"/>
		<polygon fill="#E4D2AA" points="401.526,139.699 368.169,247.802 435.701,270.723 		"/>
		<polygon fill="#FFEBBE" points="401.526,139.699 435.701,270.723 460.93,244.053 		"/>
	</g>
</g>
<g>
	<g>
		<polygon fill="#2B7773" points="499.91,712.353 5.996,712.353 252.953,226.649 		"/>
		<polygon fill="#225D5A" points="252.953,226.649 132.979,712.353 5.572,712.353 		"/>
		<polygon fill="#3AA09A" points="252.953,226.649 334.452,712.353 500.334,712.353 		"/>
	</g>
	<polygon fill="#E4D2AA" points="252.953,226.649 263.663,286.112 263.025,286.674 231.438,313.753 231.01,311.349 	"/>
	<g>
		<polygon fill="#FFEBBE" points="252.953,226.649 263.025,286.674 294.311,307.849 		"/>
		<polygon fill="#C1B290" points="252.953,226.649 231.438,313.753 196.521,337.447 		"/>
	</g>
</g>
<g>
	<path fill="#DDE2F9" d="M302.424,362.153c-2.507-1.144-2.763-5.622-2.715-6.89c0.113-2.938,7.024-1.628,17.621-1.417
		c2.223-3.651,9.715-6.251,18.592-6.111c10.599,0.163,19.158,4.167,19.116,8.939c-0.001,0.107-0.012,0.215-0.021,0.325
		c8.533,1.821,15.623,1.858,15.497,5.146c-0.128,3.343-7.63,8.98-16.48,9.573c0.055,0.203,0.089,0.403,0.082,0.607
		c-0.169,4.422-15.149,6.981-33.458,5.72c-18.308-1.261-31.82-9.069-31.653-13.491C289.11,361.822,293.697,363.003,302.424,362.153z
		"/>
	<path fill="#FFFFFF" d="M303.617,358.952c-2.508-1.144-3.956-2.42-3.908-3.688c0.113-2.938,8.215-4.832,18.813-4.62
		c2.225-3.651,9.716-6.249,18.593-6.111c10.599,0.166,19.157,4.168,19.116,8.941c-0.001,0.108-0.012,0.216-0.021,0.325
		c8.533,1.82,14.43,5.06,14.304,8.348c-0.128,3.343-6.438,5.778-15.287,6.373c0.055,0.2,0.089,0.403,0.082,0.606
		c-0.17,4.422-15.15,6.981-33.458,5.719c-18.308-1.261-33.012-5.866-32.845-10.287C289.11,361.822,294.89,359.8,303.617,358.952z"/>
</g>
<g>
	<path fill="#DDE2F9" d="M574.773,451.748c3.034-1.031,3.344-5.065,3.286-6.208c-0.137-2.647-8.498-1.466-21.32-1.276
		c-2.69-3.289-11.754-5.63-22.495-5.504c-12.823,0.149-23.178,3.755-23.129,8.055c0.001,0.097,0.014,0.194,0.025,0.293
		c-10.324,1.641-18.901,1.675-18.749,4.637c0.155,3.012,9.231,8.09,19.938,8.624c-0.066,0.182-0.107,0.363-0.099,0.547
		c0.204,3.984,18.329,6.288,40.48,5.151c22.151-1.137,38.5-8.171,38.297-12.155C590.882,451.447,585.332,452.511,574.773,451.748z"
		/>
	<path fill="#FFFFFF" d="M573.33,448.863c3.034-1.031,4.786-2.181,4.729-3.323c-0.137-2.647-9.941-4.351-22.762-4.161
		c-2.69-3.289-11.754-5.63-22.495-5.504c-12.823,0.149-23.178,3.755-23.129,8.055c0.001,0.097,0.014,0.194,0.025,0.293
		c-10.324,1.641-17.459,4.56-17.307,7.522c0.155,3.012,7.789,5.205,18.496,5.739c-0.066,0.182-0.107,0.363-0.099,0.547
		c0.204,3.984,18.329,6.288,40.48,5.151c22.151-1.137,39.942-5.287,39.739-9.27C590.882,451.447,583.89,449.626,573.33,448.863z"/>
</g>
<g>
	<g>
		<polygon fill="#2B7773" points="598.12,712.204 204.932,712.204 401.526,364.871 		"/>
		<polygon fill="#225D5A" points="401.375,365.02 330.125,712.353 204.631,712.353 		"/>
		<polygon fill="#3AA09A" points="401.526,364.871 473.833,712.353 598.421,712.353 		"/>
	</g>
	<polygon fill="#C1B290" points="401.526,364.676 383.589,451.725 337.179,478.353 	"/>
	<polygon fill="#E4D2AA" points="383.589,451.725 423.298,469.501 401.526,364.676 	"/>
	<polygon fill="#FFEBBE" points="423.298,469.501 449.081,448.796 401.526,364.676 	"/>
</g>
</svg>
