<?xml version="1.0" encoding="utf-8"?>
<!-- Generator: Adobe Illustrator 23.0.1, SVG Export Plug-In . SVG Version: 6.00 Build 0)  -->
<svg version="1.1" id="Layer_1" xmlns="http://www.w3.org/2000/svg" xmlns:xlink="http://www.w3.org/1999/xlink" x="0px" y="0px"
	 viewBox="0 0 603.9 525" style="enable-background:new 0 0 603.9 525;" xml:space="preserve">
<style type="text/css">
	.st0{fill:#5D3722;}
	.st1{fill:url(#SVGID_1_);}
	.st2{fill:#2B7773;}
	.st3{fill:#3AA09A;}
	.st4{fill:#225D5A;}
	.st5{fill:#C1B290;}
	.st6{fill:#E4D2AA;}
	.st7{fill:#FFEBBE;}
	.st8{fill:#DDE2F9;}
	.st9{fill:#FFFFFF;}
</style>
<g>
	<g>
		<path class="st0" d="M302.5,92.6c0,0.9-0.7,1.6-1.6,1.6s-1.6-0.7-1.6-1.6v-91c0-0.9,0.7-1.6,1.6-1.6c0.9,0,1.6,0.7,1.6,1.6V92.6z"
			/>
		<g>
			
				<linearGradient id="SVGID_1_" gradientUnits="userSpaceOnUse" x1="296.4564" y1="281.5876" x2="407.5627" y2="281.5876" gradientTransform="matrix(1 0 0 -1 0 311.4133)">
				<stop  offset="0" style="stop-color:#E85C4F"/>
				<stop  offset="1" style="stop-color:#CA5045"/>
			</linearGradient>
			<path class="st1" d="M296.5,6.6c0,0,18-10.7,52,10.3c21.7,13.3,22.3,12.6,59.1,4.8c-3,6-6.4,10.3-6.6,13.3
				c-1,11.5,14.3,5.3-0.7,12.6c-14.4,7-27.8,12.8-54.9,2.8c-10.7-3.9-40.7-7.8-45.1,2.1C295.9,62.5,296.5,6.6,296.5,6.6z"/>
		</g>
	</g>
	<g>
		<g>
			<polygon class="st2" points="603.6,525 251.3,525 430.5,175.4 			"/>
			<polygon class="st3" points="430.5,175.4 500.9,525 603.9,525 			"/>
			<polygon class="st4" points="430.5,175.4 251,525 333.9,525 430.5,175.4 401.7,231.5 			"/>
		</g>
		<polygon class="st5" points="399.3,236.1 414.9,232 430.5,175.4 		"/>
		<polygon class="st6" points="414.9,232 442.9,237.1 430.5,175.4 		"/>
		<polygon class="st7" points="442.9,237.1 460.4,235.5 430.5,175.4 		"/>
	</g>
	<g>
		<g>
			<polygon class="st2" points="547.2,525 54.6,525 300.9,89.9 			"/>
			<polygon class="st4" points="300.9,89.9 166.6,525 54.8,525 			"/>
			<polygon class="st3" points="300.9,89.9 414.4,525 548.6,525 			"/>
		</g>
		<g>
			<polygon class="st5" points="300.9,89.9 275.5,172 246.7,185.6 			"/>
			<polygon class="st6" points="300.9,89.9 275.5,172 326.8,189.4 			"/>
			<polygon class="st7" points="300.9,89.9 326.8,189.4 346,169.2 			"/>
		</g>
	</g>
	<g>
		<g>
			<polygon class="st2" points="375.6,525 0.3,525 188,155.9 			"/>
			<polygon class="st4" points="188,155.9 96.8,525 0,525 			"/>
			<polygon class="st3" points="188,155.9 249.9,525 375.9,525 			"/>
		</g>
		<polygon class="st6" points="188,155.9 196.1,201.1 195.6,201.6 171.6,222.1 171.3,220.3 		"/>
		<g>
			<polygon class="st7" points="188,155.9 195.6,201.6 219.4,217.6 			"/>
			<polygon class="st5" points="188,155.9 171.6,222.1 145.1,240.1 			"/>
		</g>
	</g>
	<g>
		<path class="st8" d="M225.6,258.9c-1.9-0.9-2.1-4.3-2.1-5.2c0.1-2.2,5.3-1.2,13.4-1.1c1.7-2.8,7.4-4.7,14.1-4.6
			c8.1,0.1,14.6,3.2,14.5,6.8c0,0.1,0,0.2,0,0.2c6.5,1.4,11.9,1.4,11.8,3.9c-0.1,2.5-5.8,6.8-12.5,7.3c0,0.2,0.1,0.3,0.1,0.5
			c-0.1,3.4-11.5,5.3-25.4,4.3c-13.9-1-24.2-6.9-24.1-10.3C215.4,258.7,218.9,259.6,225.6,258.9z"/>
		<path class="st9" d="M226.5,256.5c-1.9-0.9-3-1.8-3-2.8c0.1-2.2,6.2-3.7,14.3-3.5c1.7-2.8,7.4-4.7,14.1-4.6
			c8.1,0.1,14.6,3.2,14.5,6.8c0,0.1,0,0.2,0,0.2c6.5,1.4,11,3.8,10.9,6.3c-0.1,2.5-4.9,4.4-11.6,4.8c0,0.2,0.1,0.3,0.1,0.5
			c-0.1,3.4-11.5,5.3-25.4,4.3c-13.9-1-25.1-4.5-25-7.8C215.4,258.7,219.8,257.1,226.5,256.5z"/>
	</g>
	<g>
		<path class="st8" d="M432.5,327c2.3-0.8,2.5-3.8,2.5-4.7c-0.1-2-6.5-1.1-16.2-1c-2-2.5-8.9-4.3-17.1-4.2
			c-9.7,0.1-17.6,2.9-17.6,6.1c0,0.1,0,0.1,0,0.2c-7.8,1.2-14.4,1.3-14.2,3.5c0.1,2.3,7,6.1,15.1,6.6c-0.1,0.1-0.1,0.3-0.1,0.4
			c0.2,3,13.9,4.8,30.8,3.9s29.3-6.2,29.1-9.2C444.7,326.8,440.5,327.6,432.5,327z"/>
		<path class="st9" d="M431.4,324.8c2.3-0.8,3.6-1.7,3.6-2.5c-0.1-2-7.6-3.3-17.3-3.2c-2-2.5-8.9-4.3-17.1-4.2
			c-9.7,0.1-17.6,2.9-17.6,6.1c0,0.1,0,0.1,0,0.2c-7.8,1.2-13.3,3.5-13.2,5.7c0.1,2.3,5.9,4,14.1,4.4c-0.1,0.1-0.1,0.3-0.1,0.4
			c0.2,3,13.9,4.8,30.8,3.9c16.8-0.9,30.3-4,30.2-7C444.7,326.8,439.4,325.4,431.4,324.8z"/>
	</g>
	<g>
		<g>
			<polygon class="st2" points="450.2,524.9 151.5,524.9 300.9,261 			"/>
			<polygon class="st4" points="300.7,261.1 246.6,525 151.3,525 			"/>
			<polygon class="st3" points="300.9,261 355.8,525 450.5,525 			"/>
		</g>
		<polygon class="st5" points="300.9,260.8 287.2,327 252,347.2 		"/>
		<polygon class="st6" points="287.2,327 317.4,340.5 300.9,260.8 		"/>
		<polygon class="st7" points="317.4,340.5 337,324.7 300.9,260.8 		"/>
	</g>
</g>
</svg>
