<?xml version="1.0" encoding="utf-8"?>
<!-- Generator: Adobe Illustrator 19.1.0, SVG Export Plug-In . SVG Version: 6.00 Build 0)  -->
<svg version="1.1" id="Layer_1" xmlns="http://www.w3.org/2000/svg" xmlns:xlink="http://www.w3.org/1999/xlink" x="0px" y="0px"
	 viewBox="0 0 900 997.7" style="enable-background:new 0 0 900 997.7;" xml:space="preserve">
<style type="text/css">
	.st0{fill:#BCC0C4;}
	.st1{fill:#FFFFFF;}
	.st2{fill:#E89470;}
	.st3{fill:#3B6D84;}
	.st4{fill:#39667C;}
	.st5{fill:#D3D2D2;}
	.st6{fill:#365D70;}
	.st7{fill:#2A363E;}
	.st8{fill:#FFB58F;}
	.st9{fill:#39657A;}
	.st10{fill:#E9A684;}
	.st11{fill:#BD886D;}
	.st12{fill:#AD7D66;}
	.st13{fill:#9F735F;}
	.st14{fill:#D5987A;}
	.st15{fill:#29343B;}
	.st16{fill:#D39779;}
	.st17{fill:#918F8F;}
	.st18{fill:#2F4652;}
	.st19{fill:#7B7879;}
	.st20{fill:#2C3E48;}
	.st21{fill:#231F20;}
	.st22{fill:#272B2F;}
	.st23{fill:#DFE2E5;}
	.st24{fill:#B9BBBE;}
	.st25{fill:#DFEAF2;}
	.st26{fill:#9B9C9E;}
	.st27{fill:#B9C1C8;}
	.st28{fill:#253E51;}
	.st29{fill:#242E38;}
	.st30{fill:#1D323F;}
	.st31{fill:#FC9E00;}
	.st32{fill:#516574;}
	.st33{fill:#FDB133;}
	.st34{fill:#253847;}
	.st35{clip-path:url(#SVGID_2_);fill:#770F1B;}
	.st36{clip-path:url(#SVGID_4_);fill:#770F1B;}
	.st37{fill:#E01D33;}
	.st38{clip-path:url(#SVGID_6_);fill:#770F1B;}
	.st39{clip-path:url(#SVGID_8_);fill:#770F1B;}
	.st40{fill:#F8C800;}
	.st41{clip-path:url(#SVGID_10_);fill:#F9D333;}
	.st42{fill:#BA1D2F;}
	.st43{fill:#CDA606;}
	.st44{fill:#CEAF2F;}
	.st45{fill:#FCB400;}
	.st46{fill:#2C3D46;}
	.st47{fill:#43191E;}
	.st48{fill:#6B1E27;}
	.st49{fill:#745F14;}
	.st50{fill:#746327;}
	.st51{fill:#490E17;}
	.st52{clip-path:url(#SVGID_12_);fill:#CC0C39;}
	.st53{fill:#FF1872;}
	.st54{fill:#FFFF00;}
	.st55{fill:#FFFF66;}
	.st56{fill:#FFFF0C;}
	.st57{fill:#FFFF5E;}
	.st58{fill:#921C2E;}
	.st59{fill:#FF3A66;}
	.st60{fill:#300C32;}
	.st61{fill:#7699A9;}
	.st62{fill:#7594A4;}
	.st63{fill:#E0E0E0;}
	.st64{fill:#6E7E86;}
	.st65{fill:#A3A1A1;}
	.st66{fill:#6C787F;}
	.st67{fill:#EFB49B;}
	.st68{fill:#677886;}
	.st69{fill:#E9E9E9;}
	.st70{fill:#BFBDBD;}
	.st71{fill:#98A1A6;}
	.st72{fill:#9AA5AB;}
	.st73{fill:#B7BDC1;}
	.st74{fill:#DB5575;}
	.st75{fill:#FF5E9D;}
	.st76{fill:#E6889F;}
	.st77{fill:#FF8FBB;}
	.st78{fill:#9E8F5B;}
	.st79{fill:#9E9268;}
	.st80{fill:#80575D;}
	.st81{fill:#E96171;}
	.st82{fill:#5E515E;}
	.st83{fill:#B3616D;}
	.st84{fill:#6F5570;}
	.st85{fill:#A05760;}
	.st86{fill:#FAD94D;}
	.st87{fill:#FBE071;}
	.st88{fill:#9FB8C3;}
	.st89{fill:#BD8A90;}
	.st90{fill:#FCE483;}
	.st91{fill:#FCE99C;}
	.st92{fill:#A68A8E;}
	.st93{fill:#CA9199;}
	.st94{fill:#9A889B;}
	.st95{fill:#668999;}
	.st96{fill:#5E6E76;}
	.st97{fill:#D95160;}
	.st98{fill:#EAC83D;}
	.st99{fill:#5A6268;}
	.st100{fill:#EFBBA1;}
	.st101{fill:#DFB199;}
	.st102{fill:#B59484;}
	.st103{fill:#904750;}
	.st104{fill:#EBD060;}
	.st105{fill:#CCB141;}
	.st106{fill:#875258;}
	.st107{fill:#8E7F4B;}
	.st108{fill:#8E8258;}
	.st109{fill:#89959A;}
	.st110{fill:#889095;}
	.st111{fill:#A8B0B4;}
	.st112{fill:#A7ADB1;}
	.st113{fill:#BCC1C3;}
</style>
<g>
	<path class="st0" d="M43.8,469.7L76,515.4C76,515.4,33.2,549.8,43.8,469.7z"/>
	<path class="st1" d="M427,153.4C364.6,169,287.6,241,241.5,270v-27.1c0,0-161.2,115.7-128,278.4c33.3,162.7,120.9,179.6,128,188.1
		c3.4,4.1-7.6,1.8-19-0.4c-12.2-2.4-24.9-4.8-21.4,0.4c6.8,10.2,146.2,125.5,146.2,125.5S192.6,729,201.1,747.2
		c8.5,18.1,89.9,95.1,101.8,104.1c11.9,9,87.1,50.4,87.1,50.4c18.8,10.7,67.9,8.6,87,3.1c96-27.6,211.1-65.9,242-168.1
		c-43.7,30.2-60.8,37.4-105.6,65.9c16.8-45.4,51.5-46.4,61.4-94.5c-0.6-0.6-1.1-1.1-1.7-1.7c-13.3,2.1-17.6-0.6-22.7-3.3
		c-4.3-2.2-9.1-4.5-20-4c22.8-1.1,96.1-86.5,107.3-107.4c42-78,37-284.1-67-316.2c2.3,7.7,1.4,17.4,6.7,26.8
		c-38-30.5-79.9-54.5-118.6-83.4c-33.8-25.1-61.4-67.2-107.7-68.3C443.5,150.2,435.4,151.3,427,153.4"/>
	<path class="st2" d="M96.8,445.6c0,0,22.2-71.5,24.3-71c2.1,0.6,41.1-10.7,46.2-14.1s27.7-22.1,27.7-22.1s21.8,17.5-2.9,40.1
		C192,378.6,134.9,443.7,96.8,445.6z"/>
	<path class="st3" d="M652.5,331.6L447,154.6v-2.7l-1.6,1.4l-1.6-1.4v2.7L238.4,331.6c0,0-118.7,128.9,0,261.2l205.5,152v2.4
		l1.6-1.2l1.6,1.2v-2.4l205.5-152C771.2,460.6,652.5,331.6,652.5,331.6"/>
	<polyline class="st4" points="317.7,523.5 309,523.5 304.6,531 309,538.6 317.7,538.6 322.1,531 317.7,523.5 	"/>
	<polyline class="st4" points="295.2,523.5 286.5,523.5 282.1,531 286.5,538.6 295.2,538.6 299.6,531 295.2,523.5 	"/>
	<polyline class="st4" points="306.9,508.2 298.2,508.2 293.8,515.7 298.2,523.3 306.9,523.3 311.3,515.7 306.9,508.2 	"/>
	<polyline class="st4" points="306.9,301.3 298.2,301.3 293.8,308.8 298.2,316.4 306.9,316.4 311.3,308.8 306.9,301.3 	"/>
	<polyline class="st4" points="343.8,285.1 335.1,285.1 330.7,292.6 335.1,300.2 343.8,300.2 348.2,292.6 343.8,285.1 	"/>
	<polyline class="st4" points="330,301.3 321.3,301.3 316.9,308.8 321.3,316.4 330,316.4 334.4,308.8 330,301.3 	"/>
	<polyline class="st4" points="287.7,318.3 279,318.3 274.6,325.9 279,333.5 287.7,333.5 292.1,325.9 287.7,318.3 	"/>
	<polyline class="st4" points="285.9,504.6 277.2,504.6 272.8,512.1 277.2,519.7 285.9,519.7 290.3,512.1 285.9,504.6 	"/>
	<polyline class="st4" points="318.3,285.1 309.6,285.1 305.2,292.6 309.6,300.2 318.3,300.2 322.7,292.6 318.3,285.1 	"/>
	<polyline class="st4" points="266.5,508.2 257.7,508.2 253.4,515.7 257.7,523.3 266.5,523.3 270.8,515.7 266.5,508.2 	"/>
	<polyline class="st4" points="306,541.5 297.3,541.5 292.9,549 297.3,556.6 306,556.6 310.4,549 306,541.5 	"/>
	<polyline class="st4" points="286.2,541.5 277.5,541.5 273.1,549 277.5,556.6 286.2,556.6 290.6,549 286.2,541.5 	"/>
	<polyline class="st4" points="396.9,621.5 388.2,621.5 383.8,629.1 388.2,636.7 396.9,636.7 401.3,629.1 396.9,621.5 	"/>
	<path class="st4" d="M394.3,612.1l3.8,6.5h8.7l2.8-4.8c-1,0.1-2,0.1-3.1,0.1C402.2,614,398.1,613.4,394.3,612.1"/>
	<path class="st4" d="M421.1,627.7c0,1.1-0.1,2.1-0.2,3.2l1-1.7L421.1,627.7 M416.1,621.5h-7.2l-4.4,7.6l4.4,7.6h6.3
		c0.7-3.7,1-7.5,1-11.4C416.2,624,416.1,622.8,416.1,621.5"/>
	<polyline class="st4" points="377.1,621.5 368.4,621.5 364,629.1 368.4,636.7 377.1,636.7 381.5,629.1 377.1,621.5 	"/>
	<path class="st4" d="M360,631.4h-7.2c1.9,3.2,3,6.9,3,10.8c0,1.5-0.2,2.9-0.4,4.3h4.7l4.4-7.6L360,631.4"/>
	<path class="st4" d="M371.8,594.1l3.8,6.6h1C374.8,598.7,373.2,596.5,371.8,594.1 M371.2,593.1L371.2,593.1l0.3,0.6
		C371.4,593.5,371.3,593.3,371.2,593.1"/>
	<polyline class="st4" points="333,541.5 324.3,541.5 319.9,549 324.3,556.6 333,556.6 337.4,549 333,541.5 	"/>
	<polyline class="st4" points="367.2,595.5 358.5,595.5 354.1,603 358.5,610.6 367.2,610.6 371.6,603 367.2,595.5 	"/>
	<polyline class="st4" points="569.6,523.5 560.9,523.5 556.5,531 560.9,538.6 569.6,538.6 574,531 569.6,523.5 	"/>
	<polyline class="st4" points="592.1,523.5 583.4,523.5 579,531 583.4,538.6 592.1,538.6 596.5,531 592.1,523.5 	"/>
	<polyline class="st4" points="620.9,523.5 612.2,523.5 607.8,531 612.2,538.6 620.9,538.6 625.3,531 620.9,523.5 	"/>
	<polyline class="st4" points="580.4,508.2 571.7,508.2 567.3,515.7 571.7,523.3 580.4,523.3 584.8,515.7 580.4,508.2 	"/>
	<polyline class="st4" points="581.3,541.5 572.6,541.5 568.2,549 572.6,556.6 581.3,556.6 585.7,549 581.3,541.5 	"/>
	<polyline class="st4" points="555.2,541.5 546.5,541.5 542.1,549 546.5,556.6 555.2,556.6 559.6,549 555.2,541.5 	"/>
	<polyline class="st4" points="601.1,541.5 592.4,541.5 588,549 592.4,556.6 601.1,556.6 605.5,549 601.1,541.5 	"/>
	<path class="st5" d="M348.1,237.1c0,0-0.1,0-0.1,0.1l-109.6,94.5c0,0-14.2,15.4-27.9,41.1c0,0,0,0,0,0
		c13.7-25.7,27.9-41.1,27.9-41.1L348.1,237.1"/>
	<path class="st6" d="M375.9,217.6c-9.3,6.8-18.7,13.3-27.8,19.4l-109.7,94.6c0,0-14.2,15.4-27.9,41.1c6.3-1.5,12.5-2.4,18.3-2.4
		c1.8,0,3.5,0.1,5.2,0.3C274,316.9,331.3,259.7,375.9,217.6"/>
	<path class="st5" d="M674.9,363.1c1.4,2.3,2.8,4.8,4.2,7.3c0.4,0.8,0.9,1.6,1.3,2.4c6.1,1.5,12.3,3.5,18.4,5.8
		c-4.7-4.3-7.7-8.4-9.5-12.3C684.3,365.6,679.6,364.5,674.9,363.1 M462.4,154.5c-2.6,0,68.7,59.8,137,131.3l11.6,10
		c-1.3-5-2.2-10.3-2.6-15.6L462.4,154.5C462.5,154.6,462.5,154.5,462.4,154.5"/>
	<path class="st6" d="M679.1,370.4c0.4,0.8,0.9,1.6,1.3,2.4l0,0C680,372,679.5,371.2,679.1,370.4"/>
	<path class="st7" d="M247.8,504.8V539l-25.6,8.1c-1.7,5.4-4.1,10.4-7.5,14.7l0,0l0,0l33.1,1.1l0.6-26L247.8,504.8 M252.6,503.3
		l-4.8,1.5v0L252.6,503.3 M253.2,390.5V408l0,0v9.7l-19.1,6.1v29.1c1.6-0.1,3.3-0.2,4.9-0.2c9.6,0,18.1,2.5,24.2,8.7
		c0,0,0.1,0.1,0.1,0.1v19.6l5.7-26.1l-30.6-5.4l4-12.7l15.8,1.7c0,0,4.5-45.8,5-45.8C263.5,392.7,258.4,391.6,253.2,390.5"/>
	<path class="st8" d="M144.6,402.9c0,0-87.8,72.5-101.3,106.4c-13.5,33.9-9,116.7,50.6,88.1c26.9-12.9,47.4-12.8,64.8-12.6
		c21.1,0.2,37.8,0.3,55.9-23c33.1-42.4-20.9-144.4-66.4-151.9L144.6,402.9"/>
	<path class="st8" d="M144.6,402.9c0,0,80.3-53.1,108.6-23.7v38.4l-100.6,31.9C152.6,449.5,131.1,445.9,144.6,402.9"/>
	<path class="st9" d="M253.2,379.1C253.2,379.2,253.2,379.2,253.2,379.1l0,11.4l0,0L253.2,379.1
		C253.2,379.2,253.2,379.2,253.2,379.1"/>
	<path class="st10" d="M228.9,370.3c-1.7,0-3.5,0.1-5.3,0.2v36.5c4.8-0.7,9.4-1,13.9-1c5.6,0,11,0.6,15.8,1.9v-17.5v-11.3
		c0,0,0,0,0,0C247,372.8,238.5,370.3,228.9,370.3"/>
	<path class="st11" d="M144.3,434.5c-1.2,0.6-2.3,1.2-3.2,1.6c0,0,0,0.1,0,0.1C142.2,435.7,143.2,435.1,144.3,434.5 M253.2,417.6
		l-19.1,6.1v0L253.2,417.6 M223.5,407.1c-12.8,1.8-26.4,5.6-38.9,10.1c8.6-2.6,17.2-4.2,25-4.2c5,0,9.6,0.7,13.8,2.2V407.1"/>
	<path class="st12" d="M237.4,406.1c-4.5,0-9.1,0.4-13.9,1v8.1c3.9,1.4,7.4,3.5,10.3,6.5c0.1,0.1,0.1,0.1,0.2,0.2v1.9l19.1-6.1V408
		C248.4,406.6,243,406.1,237.4,406.1"/>
	<path class="st8" d="M125.5,445.6c0,0,80.3-53.1,108.6-23.7v38.4l-100.6,31.9C133.4,492.2,111.9,488.6,125.5,445.6"/>
	<path class="st13" d="M233.9,421.7c0.1,0.1,0.1,0.1,0.2,0.2v1.9v-1.9C234,421.8,233.9,421.7,233.9,421.7"/>
	<path class="st10" d="M209.7,413c-1.7,0-3.5,0.1-5.3,0.2v36.5c1.8-0.2,3.6-0.2,5.3-0.2c6.7,0,12.8,1.2,18,4
		c2.1-0.3,4.3-0.6,6.3-0.8v-29.1v-1.9c-0.1-0.1-0.1-0.1-0.2-0.2C227.8,415.4,219.3,413,209.7,413"/>
	<path class="st10" d="M204.4,449.8c-34.4,2.9-78.9,32.4-78.9,32.4c-0.3,1.1-0.6,2.1-0.9,3.2c3.7,6,8.9,6.9,8.9,6.9l21.2-6.7
		c0-0.1,0.1-0.2,0.1-0.3c0,0,23.6-15.6,49.7-25.2V449.8"/>
	<path class="st14" d="M209.7,449.5c-1.7,0-3.5,0.1-5.3,0.2V460c7.7-2.8,15.7-5.2,23.3-6.4C222.5,450.7,216.4,449.5,209.7,449.5"/>
	<path class="st8" d="M154.7,485.2c0,0,80.3-53.1,108.6-23.7v38.4l-100.6,31.9C162.6,531.8,141.1,528.2,154.7,485.2"/>
	<path class="st15" d="M263.1,461.3c0,0,0.1,0.1,0.1,0.1v19.6v-19.6C263.2,461.4,263.2,461.3,263.1,461.3"/>
	<path class="st10" d="M238.9,452.6c-1.7,0-3.5,0.1-5.3,0.2v34.1c7.7,0.7,14.5,3.4,19.6,8.6v7.5l10.1-3.2v-18.8v-19.6
		c0-0.1-0.1-0.1-0.1-0.1C257,455,248.5,452.6,238.9,452.6"/>
	<path class="st10" d="M253.2,503.1l-5.4,1.7v0L253.2,503.1 M228.8,486.7c-27.6,0-64.1,20.3-78.2,28.9c0.3,2.3,0.9,4.3,1.5,6
		c13.5-8.1,47.3-26.8,72.9-26.8c3,0,5.9,0.3,8.6,0.8v-8.6C232.1,486.8,230.5,486.7,228.8,486.7"/>
	<path class="st14" d="M233.6,486.9v8.6c5.5,1.1,10.4,3.5,14.2,7.5l0,0v1.8l5.4-1.7v-7.5C248.1,490.3,241.3,487.6,233.6,486.9"/>
	<path class="st8" d="M146.3,525.2c0,0,75.1-49.7,101.6-22.2v36l-94.2,29.8C153.7,568.8,133.6,565.5,146.3,525.2"/>
	<path class="st10" d="M225.1,494.7c-1.6,0-3.3,0.1-5,0.2v52.8l27.7-8.8v-36l0,0C242.1,497.1,234.1,494.7,225.1,494.7"/>
	<path class="st2" d="M50.2,593.6l27.1-90.4l55.5-90.2c-24.4,21.1-79,70.2-89.4,96.3C34.6,531.4,33.4,574.3,50.2,593.6z"/>
	<path class="st5" d="M365.5,693.6c-4.5,0.9-9.2,1.4-14.1,1.4c0,0-0.1,0-0.1,0l84.5,63.8l8.1-11.7L365.5,693.6 M288.6,641.1
		c0.8,3,1.7,6,2.9,8.8l52.6,39.7c2.4,0.3,4.8,0.4,7.3,0.4c2.7,0,5.4-0.2,8.1-0.5L288.6,641.1 M196.7,578.3L196.7,578.3l87.7,66.2
		c-0.7-2.4-1.3-4.9-1.7-7.5L196.7,578.3"/>
	<path class="st16" d="M196.7,578.3L196.7,578.3C196.7,578.3,196.7,578.3,196.7,578.3L196.7,578.3"/>
	<path class="st17" d="M448.2,155.6L599.5,286c0,0-0.1-0.1-0.1-0.1L448.2,155.6C448.3,155.6,448.3,155.6,448.2,155.6"/>
	<path class="st18" d="M660.6,357.3c0.5,2.8,0.7,5.6,0.7,8.5c0,1.5-0.1,3-0.2,4.5c0.2,0,0.5,0,0.7,0c3.5,0,7.2,0.3,10.9,0.9
		c-3.1-4.2-6.4-8.5-9.7-12.8C662.2,358.1,661.4,357.7,660.6,357.3 M655.7,354.7c-0.6,4-2,7.8-4.1,11c1.2,1.7,2.3,3.4,3.5,5.1
		c1-0.1,2-0.3,3.1-0.3c0.1-1.5,0.2-3,0.2-4.6c0-3.5-0.4-7-1.1-10.3C656.7,355.2,656.2,354.9,655.7,354.7 M614.9,318.1
		c1.5,1.7,2.9,3.5,4.4,5.2c1-0.3,2.1-0.6,3.2-0.8c-0.7-1.2-1.5-2.4-2.1-3.6C618.5,318.6,616.7,318.3,614.9,318.1 M610.7,313.3
		c0.5,0.6,1,1.1,1.5,1.7c2.1,0.1,4.2,0.3,6.3,0.6c-0.3-0.5-0.5-1.1-0.8-1.6C615.3,313.8,613,313.5,610.7,313.3 M444.9,153.9
		c-0.3,0.5-0.7,1-1,1.5c9.8,8,30.9,25.2,56.9,48.2l111.9,97.9c-0.2-0.8-0.5-1.5-0.7-2.3c-4.1-4.4-8.3-8.8-12.4-13.2L448.2,155.6
		C447.1,155.1,446,154.5,444.9,153.9"/>
	<path class="st19" d="M674.9,363.1c1.4,2.3,2.8,4.8,4.2,7.3C677.7,367.9,676.3,365.4,674.9,363.1L674.9,363.1 M599.4,285.9
		c0,0,0.1,0.1,0.1,0.1l11.5,9.9c0,0,0,0,0,0L599.4,285.9"/>
	<path class="st20" d="M663,358.5c3.3,4.3,6.6,8.5,9.7,12.8c2.5,0.4,5.1,0.9,7.6,1.5c-0.4-0.8-0.8-1.6-1.3-2.4
		c-1.4-2.6-2.8-5-4.2-7.3C670.8,361.8,666.9,360.3,663,358.5 M599.5,286c4.2,4.4,8.3,8.7,12.4,13.2c-0.3-1.1-0.6-2.2-0.9-3.2
		L599.5,286"/>
	<path class="st18" d="M676,561.8L676,561.8l-5.7,0.2l-5.7,16.2c4.2-5.4,8-10.8,11.4-16.2C676.1,561.9,676,561.9,676,561.8"/>
	<path class="st17" d="M652.5,592.9L652.5,592.9L652.5,592.9l-190.1,183c0,0,1.3,8.5,4.9,10.2c3.6,1.7-7.7,8.5-7.7,8.5v95l16.4-78
		l6.8-39C482.7,772.5,662.3,613.9,652.5,592.9"/>
	<path class="st18" d="M652.5,592.8L652.5,592.8L652.5,592.8L652.5,592.8C652.5,592.8,652.5,592.8,652.5,592.8"/>
	<path class="st21" d="M435.8,770.8c4-8.4-10.4,118.7-10.4,118.7S424.5,794.3,435.8,770.8z"/>
	<path class="st5" d="M679.7,566.3l-9.1,12c0,0-61.8,87.3-79.1,145c0,0,68.1-96.7,92.4-112c12.5-7.8,8.7-9.7,2-9.7
		c-6.4,0-15.4,1.7-15.4,1.7s17.4-4.7,30.3-21.9C693.8,578.9,686.8,574.3,679.7,566.3"/>
	<path class="st2" d="M794,445.6c0,0-22.2-71.5-24.3-71c-2.1,0.6-41.1-10.7-46.2-14.1c-5.1-3.4-27.7-22.1-27.7-22.1
		s-21.8,17.5,2.9,40.1C698.8,378.6,755.8,443.7,794,445.6"/>
	<path class="st7" d="M638.4,503.4l4.4,1.4l-0.6,32.1l0.6,26l27.5-0.9l2-5.7c-1.6-2.9-2.9-5.9-3.9-9.2l-25.6-8.1v-34.2L638.4,503.4
		 M637.5,409c-2.4,1.5-5,2.8-7.6,3.9c1.3,12.3,2.6,25.6,2.6,25.6l15.8-1.7l4,12.7l-30.6,5.4l5.7,26.1v-19.6l0,0
		c0.1-0.1,0.2-0.2,0.3-0.3c6.1-6.1,14.5-8.5,24-8.5c1.6,0,3.2,0.1,4.9,0.2v-29.1l-19.1-6.1V409 M637.5,390.5
		c-5.2,1.1-10.3,2.2-10.1,2.2c0.2,0,1.1,7.9,2.1,17.1c2.8-1.2,5.5-2.7,8-4.4V390.5"/>
	<path class="st22" d="M672.3,556.3l-2,5.7l5.7-0.2l0,0l0,0C674.6,560.1,673.4,558.2,672.3,556.3"/>
	<path class="st8" d="M746.1,402.9c0,0,87.8,72.5,101.3,106.4c13.5,33.9,9,116.7-50.6,88.1c-26.9-12.9-47.4-12.8-64.8-12.6
		c-21.1,0.2-37.8,0.3-55.9-23c-33.1-42.4,20.9-144.4,66.4-151.9L746.1,402.9"/>
	<path class="st8" d="M746.1,402.9c0,0-80.3-53.1-108.6-23.7v38.4l100.6,31.9C738.1,449.5,759.6,445.9,746.1,402.9"/>
	<path class="st9" d="M637.6,379.1C637.5,379.2,637.5,379.2,637.6,379.1L637.6,379.1C637.5,379.2,637.5,379.2,637.6,379.1"/>
	<path class="st10" d="M658.1,370.5c-8.1,0.6-15.2,3.2-20.6,8.7c0,0,0,0-0.1,0.1v26.2c2.4-1.7,4.7-3.6,6.8-5.6
		C652,392.1,657,381.9,658.1,370.5 M661.8,370.3c-0.2,0-0.5,0-0.7,0c-1.3,15.3-9.4,28.6-21.3,37.1c4.2-0.9,8.7-1.3,13.4-1.3
		c4.5,0,9.1,0.4,13.9,1v-36.5C665.4,370.4,663.6,370.3,661.8,370.3"/>
	<path class="st11" d="M637.5,417.6l19.1,6.1v0L637.5,417.6 M667.2,407.1v8.1c4.2-1.5,8.9-2.2,13.8-2.2c7.9,0,16.4,1.6,25,4.2
		C693.5,412.7,680,408.9,667.2,407.1"/>
	<path class="st12" d="M653.3,406.1c-4.7,0-9.2,0.4-13.4,1.3c-0.8,0.5-1.6,1.1-2.4,1.6v8.7l19.1,6.1v-1.9l0,0
		c0.1-0.1,0.1-0.1,0.2-0.2c2.9-3,6.4-5.1,10.3-6.5v-8.1C662.4,406.4,657.8,406.1,653.3,406.1"/>
	<path class="st11" d="M746.4,434.5c1.1,0.6,2.2,1.2,3.2,1.8c0,0,0-0.1,0-0.1C748.7,435.7,747.6,435.1,746.4,434.5"/>
	<path class="st8" d="M765.2,445.6c0,0-80.3-53.1-108.6-23.7v38.4l100.6,31.9C757.3,492.2,778.8,488.6,765.2,445.6"/>
	<path class="st13" d="M656.8,421.7c-0.1,0.1-0.1,0.1-0.2,0.2l0,0C656.7,421.8,656.8,421.7,656.8,421.7"/>
	<path class="st10" d="M681,413c-9.6,0-18.1,2.4-24.2,8.7c-0.1,0.1-0.1,0.1-0.2,0.2v30.9c2.1,0.2,4.2,0.4,6.3,0.8
		c5.2-2.8,11.3-4,18-4c1.7,0,3.5,0.1,5.3,0.2v-36.5C684.5,413.1,682.7,413,681,413"/>
	<path class="st10" d="M686.3,449.8V460c26.1,9.6,49.7,25.2,49.7,25.2c0,0.1,0.1,0.2,0.1,0.3l21.2,6.7c0,0,5.2-0.9,8.9-6.9
		c-0.3-1-0.6-2.1-0.9-3.2C765.2,482.1,720.7,452.7,686.3,449.8"/>
	<path class="st14" d="M681,449.5c-6.7,0-12.8,1.2-18,4c7.6,1.2,15.6,3.6,23.3,6.4v-10.2C684.5,449.6,682.7,449.5,681,449.5"/>
	<path class="st8" d="M736,485.2c0,0-80.3-53.1-108.6-23.7v38.4l100.6,31.9C728.1,531.8,749.6,528.2,736,485.2"/>
	<path class="st15" d="M627.8,461.1c-0.1,0.1-0.2,0.2-0.3,0.3l0,0C627.5,461.3,627.6,461.2,627.8,461.1"/>
	<path class="st10" d="M651.8,452.6c-9.5,0-17.9,2.4-24,8.5c-0.1,0.1-0.2,0.2-0.3,0.3v38.4l10.1,3.2v-7.5c5.1-5.3,11.9-7.9,19.6-8.6
		v-34.1C655.3,452.7,653.5,452.6,651.8,452.6"/>
	<polyline class="st9" points="637.5,503.1 637.5,503.1 638.4,503.4 638,503.3 637.5,503.1 	"/>
	<polyline class="st15" points="638,503.3 638.4,503.4 642.9,504.8 642.9,504.8 638,503.3 	"/>
	<path class="st10" d="M637.5,503.1L637.5,503.1l0.5,0.2l4.8,1.5v0L637.5,503.1 M661.9,486.7c-1.6,0-3.2,0.1-4.8,0.2v8.6
		c2.7-0.6,5.6-0.8,8.6-0.8c25.6,0,59.4,18.7,72.9,26.8c0.7-1.7,1.2-3.7,1.5-6C725.9,507,689.4,486.7,661.9,486.7"/>
	<path class="st14" d="M657.1,486.9c-7.7,0.7-14.5,3.4-19.6,8.6v7.5l5.4,1.7V503l0,0l0,0c3.8-4,8.7-6.4,14.2-7.5V486.9"/>
	<path class="st8" d="M744.4,525.2c0,0-75.1-49.7-101.6-22.2v36l94.2,29.8C737,568.8,757.1,565.5,744.4,525.2"/>
	<path class="st10" d="M665.6,494.7c-9,0-17,2.3-22.8,8.3l0,0v36l27.7,8.8V495C668.9,494.8,667.3,494.7,665.6,494.7"/>
	<path class="st5" d="M170.7,584.7C170.7,584.7,170.7,584.7,170.7,584.7l132.2,138.5l-10.2-25.4c0,0,74.6,76.3,79.7,83.1
		c0.2,0.2,0.2,0.3,0.2,0.3c0.3,0-69.8-98.7-69.8-98.7L170.7,584.7"/>
	<polyline class="st16" points="170.7,584.7 170.7,584.7 170.7,584.7 170.7,584.7 	"/>
	<path class="st23" d="M780.6,590.9l44.7,10.2L804,641.8C804,641.8,776.7,616.4,780.6,590.9"/>
	<polyline class="st16" points="788.6,592.8 788.6,592.8 802.7,596 802.7,596 788.6,592.8 	"/>
	<path class="st24" d="M788.6,592.8c1.7,18.6,8.4,36,14.2,48c0.7,0.7,1.1,1.1,1.1,1.1l10.9-20.8c-0.9-0.2-1.8-0.4-2.7-0.6
		c-1.2,0.4-2.4,0.6-3.7,0.6c-5.8,0-10.6-4.1-11.6-9.6c-3.1-4.2-3-8-3-8c3.1-1.9,6-4.4,8.8-7.4L788.6,592.8"/>
	<path class="st25" d="M840.6,469.7c0,0-8.5,110.4-46.7,133.6c0,0-0.8,18,33.1,18.9c0,0,72.4-52.6,46.4-119.1L840.6,469.7"/>
	<path class="st26" d="M796.9,611.4c1,5.5,5.8,9.6,11.6,9.6c1.3,0,2.6-0.2,3.7-0.6C803.9,618.3,799.4,614.7,796.9,611.4"/>
	<path class="st27" d="M808.5,597.4c-6.5,0-11.8,5.3-11.8,11.8c0,0.7,0.1,1.5,0.2,2.2c2.5,3.3,7,6.9,15.3,9c4.7-1.6,8.1-6,8.1-11.2
		C820.3,602.7,815,597.4,808.5,597.4"/>
	<path class="st23" d="M103.8,590.9l-44.7,10.2l21.4,40.7C80.5,641.8,107.8,616.4,103.8,590.9"/>
	<polyline class="st16" points="95.8,592.8 81.7,596 81.7,596 95.8,592.8 95.8,592.8 	"/>
	<path class="st24" d="M95.8,592.8L81.7,596c2.7,3,5.7,5.5,8.8,7.4c0,0,0.2,3.8-3,8c-1,5.5-5.8,9.6-11.6,9.6c-1.3,0-2.6-0.2-3.7-0.6
		c-0.9,0.2-1.8,0.4-2.7,0.6l10.9,20.8c0,0,0.4-0.4,1.1-1.1C87.4,628.7,94.1,611.4,95.8,592.8"/>
	<path class="st25" d="M43.8,469.7c0,0,8.5,110.4,46.7,133.6c0,0,0.8,18-33.1,18.9c0,0-72.4-52.6-46.4-119.1L43.8,469.7"/>
	<path class="st26" d="M87.6,611.4c-2.5,3.3-7,6.9-15.3,9c1.2,0.4,2.4,0.6,3.7,0.6C81.7,621,86.5,616.8,87.6,611.4"/>
	<path class="st27" d="M76,597.4c-6.5,0-11.8,5.3-11.8,11.8c0,5.2,3.4,9.6,8.1,11.2c8.3-2.1,12.8-5.7,15.3-9
		c0.1-0.7,0.2-1.4,0.2-2.2C87.8,602.7,82.5,597.4,76,597.4"/>
	<path class="st28" d="M485.3,190.1c0,0,0.5,2.3,1.6,6.2c7,24.9,39.8,116.6,140.5,118.1L485.3,190.1"/>
	<path class="st5" d="M42.8,275.2c-1.9,0.1-3.8,0.2-5.8,0.3v0C39,275.4,40.9,275.3,42.8,275.2L42.8,275.2"/>
	<path class="st28" d="M270.5,196.3c-49.2,7-98.4-5.7-147.6-13.4C83.9,207.2,45,235.6,6.1,280.3c52.8-13.2,105.6,1.4,158.4,13.6
		c42.4-3.7,84.8-8.5,127.2-30.1c-5.2-21.9-10.4-44.1-15.5-66.6L270.5,196.3"/>
	<path class="st17" d="M260.5,197.4c-5.8,0.5-11.6,0.8-17.4,0.9l0,0C248.9,198.2,254.7,198,260.5,197.4L260.5,197.4"/>
	<path class="st29" d="M260.5,197.4c-5.8,0.5-11.6,0.8-17.4,0.9l16.8,78.7c4.8-1.6,9.7-3.4,14.5-5.4l3.1-6.3L260.5,197.4"/>
	<path class="st28" d="M453.2,124.5l-196.5,57.7l24.2,96.7C280.8,278.8,467.8,173.7,453.2,124.5"/>
	<path class="st30" d="M477.6,124.5c1-6-67.2,0-67.2,0l-12.8,25.9l21.5,27.4h40.4C459.5,177.8,475.9,134.7,477.6,124.5z"/>
	<polyline class="st31" points="301,198.1 290,202.6 275.3,166.6 286.3,162.1 301,198.1 	"/>
	<polyline class="st32" points="279.2,176.1 279,176.1 286.3,194.2 286.5,194.1 279.2,176.1 	"/>
	<polyline class="st33" points="290,171.7 279.2,176.1 286.5,194.1 297.3,189.7 290,171.7 	"/>
	<path class="st5" d="M89.1,278.1L89.1,278.1c17.3,2.5,34.6,6.3,51.9,10.3l0,0C123.7,284.4,106.4,280.6,89.1,278.1 M158.6,189
		c7,1.2,14,2.4,21,3.6l0,0C172.7,191.5,165.7,190.3,158.6,189"/>
	<path class="st34" d="M136.5,185.2l-47.4,92.9c17.3,2.5,34.6,6.3,51.9,10.3l38.7-95.8c-7-1.1-14-2.3-21-3.6
		C151.3,187.7,143.9,186.4,136.5,185.2"/>
	<path class="st5" d="M214.9,197.1L214.9,197.1c6.7,0.6,13.3,1,20,1.1c0,0,0,0,0,0C228.2,198.1,221.5,197.7,214.9,197.1"/>
	<path class="st34" d="M214.9,197.1l-21.1,93.8c13.4-1.6,26.8-3.7,40.2-6.7c0-21.1,0.1-58.1,0.8-86
		C228.2,198.1,221.5,197.7,214.9,197.1"/>
	<g>
		<defs>
			<path id="SVGID_1_" d="M626.4,402.7v18.7c-37.7,87-163.3,183.7-180.6,196.7v-18.7C463.1,586.4,588.7,489.7,626.4,402.7"/>
		</defs>
		<clipPath id="SVGID_2_">
			<use xlink:href="#SVGID_1_"  style="overflow:visible;"/>
		</clipPath>
		<path class="st35" d="M626.4,402.7v18.7c-37.7,87-163.3,183.7-180.6,196.7v-18.7C463.1,586.4,588.7,489.7,626.4,402.7"/>
	</g>
	<g>
		<defs>
			<path id="SVGID_3_" d="M443.8,599.4v18.7c-17.3-13-142.9-109.8-180.6-196.7v-18.7C301,489.7,426.5,586.4,443.8,599.4"/>
		</defs>
		<clipPath id="SVGID_4_">
			<use xlink:href="#SVGID_3_"  style="overflow:visible;"/>
		</clipPath>
		<path class="st36" d="M443.8,599.4v18.7c-17.3-13-142.9-109.8-180.6-196.7v-18.7C301,489.7,426.5,586.4,443.8,599.4"/>
	</g>
	<path class="st37" d="M559.8,319.3l66.6,83.3c-37.7,87-163.3,183.7-180.6,196.7v1.5c0,0-0.4-0.3-1-0.7c-0.6,0.5-1,0.7-1,0.7v-1.5
		c-17.3-13-142.9-109.8-180.6-196.7l66.6-83.3c2.7,0.7,55,13.4,115,13.5C504.8,332.7,557.1,320,559.8,319.3"/>
	<g>
		<defs>
			<path id="SVGID_5_" d="M445.8,600.9v18.7c0,0-0.4-0.3-1-0.7v-18.7C445.5,600.7,445.8,600.9,445.8,600.9"/>
		</defs>
		<clipPath id="SVGID_6_">
			<use xlink:href="#SVGID_5_"  style="overflow:visible;"/>
		</clipPath>
		<path class="st38" d="M445.8,600.9v18.7c0,0-0.4-0.3-1-0.7v-18.7C445.5,600.7,445.8,600.9,445.8,600.9"/>
	</g>
	<g>
		<defs>
			<path id="SVGID_7_" d="M444.8,600.2v18.7c-0.6,0.5-1,0.7-1,0.7v-18.7C443.9,600.9,444.2,600.7,444.8,600.2"/>
		</defs>
		<clipPath id="SVGID_8_">
			<use xlink:href="#SVGID_7_"  style="overflow:visible;"/>
		</clipPath>
		<path class="st39" d="M444.8,600.2v18.7c-0.6,0.5-1,0.7-1,0.7v-18.7C443.9,600.9,444.2,600.7,444.8,600.2"/>
	</g>
	<path class="st40" d="M444.8,584C414.5,560,319.6,481.1,282.9,408.5l52.9-67.3c18.6,3.9,62,11.9,108.9,12c47-0.1,90.4-8.1,109-12
		l53,67.3C570.1,481.1,475.2,560,444.8,584"/>
	<g>
		<defs>
			<path id="SVGID_9_" d="M444.8,584C414.5,560,319.6,481.1,282.9,408.5l52.9-67.3c18.6,3.9,62,11.9,108.9,12
				c47-0.1,90.4-8.1,109-12l53,67.3C570.1,481.1,475.2,560,444.8,584"/>
		</defs>
		<clipPath id="SVGID_10_">
			<use xlink:href="#SVGID_9_"  style="overflow:visible;"/>
		</clipPath>
		<path class="st41" d="M447.8,565.9c-0.2,0.1-0.4,0.2-0.6,0.3c-0.4,0.2-0.8,0.4-1.2,0.5c0.4,2.3,0.6,4.7,0.6,7.2
			c0,3.3-0.4,6.6-1.2,9.7c1.8-1.4,3.8-3,5.9-4.8L447.8,565.9 M383.3,517.4l-6,7.8c4.3,4.2,8.6,8.2,12.8,12c0.4-0.2,0.8-0.4,1.3-0.5
			l4.5-7.7C391.8,525.3,387.6,521.4,383.3,517.4 M363.8,498.1l-7.9,5.9c4.2,4.3,8.3,8.5,12.5,12.5l7.1-6.7
			C371.6,506,367.7,502.1,363.8,498.1 M333.7,480L333.7,480c3.7,4.3,7.5,8.4,11.4,12.6l0,0C341.2,488.5,337.4,484.3,333.7,480
			 M343.8,475.9l-8.6,3.5c3.4,4.7,6.8,9.1,10.1,13.1l8.9-4.6C350.7,483.9,347.2,479.9,343.8,475.9 M313.2,455.3L313.2,455.3
			c3.9,5,7.9,10,12,14.9l0,0C321.1,465.3,317.1,460.3,313.2,455.3 M326.5,453.2l-8.4,1.3c3.2,5,6.6,10.1,9.9,14.9l8.7-2.3
			C333.2,462.5,329.7,457.9,326.5,453.2 M302.4,428.7c2.9,5,6,10.3,9.3,15.6l8.7-0.5c-0.4-0.7-0.8-1.3-1.2-2
			c-3.9-4.8-7.1-9.1-9.4-12.9L302.4,428.7 M294.3,428.4c3.4,5.4,7.1,10.8,10.9,16.2l0,0C301.4,439.3,297.7,433.8,294.3,428.4
			L294.3,428.4 M590.6,392.6l-15,4.2l20.4,14.4l10.2-1.8c0.2-0.3,0.3-0.6,0.5-0.9L596,394.8C594.1,394.4,592.2,393.6,590.6,392.6
			 M304.6,391.5l-13.7,15.9c0.2,0.5,0.5,1,0.7,1.5l18.8,3.3c2.8-4.3,6.7-10,11.1-16.2L304.6,391.5 M559.6,369.5l-13,6.8l15.9,11.3
			l1.5-0.6C561.6,381.5,560.1,375.6,559.6,369.5 M439.4,368.4l0.3,5.7c1.2,0.4,2.4,0.6,3.7,0.6c3.4,0,6.5-1.6,8.5-4.2l0.1-1.4
			C447.8,369,443.6,368.8,439.4,368.4 M433.2,367.8c0.2,0.3,0.4,0.6,0.5,0.9c0.2,0.5,0.5,1,0.9,1.5l-0.5-2.3
			C433.8,367.9,433.5,367.9,433.2,367.8 M327,365.5l-12.1,14.1l14.6,5.9c3.6-4.5,7.3-9,10.9-13L327,365.5 M571.3,363.4l-8.7,4.5
			c0.3,6.3,1.8,12.3,4.3,17.8l16.1-6.7c0-0.2,0-0.4,0-0.6c0-0.1,0-0.2,0-0.3L571.3,363.4 M538.4,362.8c-1.6,0.2-3.2,0.5-4.8,0.7
			l1.5,1.8L538.4,362.8 M340.8,349.5l-1.4,1.6l13.4,10.1c1.6-1.1,3.2-2.1,4.7-2.8l0,0c1.3-1.7,3.3-2.6,5.4-2.6
			c0.5,0,1.1,0.1,1.6,0.2c1,0.2,4.8,1.1,10.7,2.3l-0.9-0.8C359.7,354.1,347.8,350.9,340.8,349.5 M553.8,341.2l5,6.3h0L553.8,341.2"
			/>
	</g>
	<path class="st42" d="M284.6,411.7C284.6,411.7,284.6,411.7,284.6,411.7L284.6,411.7 M284.4,411.4
		C284.4,411.4,284.4,411.4,284.4,411.4C284.4,411.4,284.4,411.4,284.4,411.4 M284.4,411.3C284.4,411.3,284.4,411.3,284.4,411.3
		C284.4,411.3,284.4,411.3,284.4,411.3 M284.3,411.2C284.3,411.2,284.3,411.2,284.3,411.2C284.3,411.2,284.3,411.2,284.3,411.2
		 M284.3,411.1C284.3,411.1,284.3,411.1,284.3,411.1C284.3,411.1,284.3,411.1,284.3,411.1 M284.2,410.9
		C284.2,410.9,284.2,410.9,284.2,410.9C284.2,410.9,284.2,410.9,284.2,410.9 M284.1,410.8C284.2,410.8,284.2,410.9,284.1,410.8
		C284.2,410.8,284.2,410.8,284.1,410.8 M284.1,410.7C284.1,410.7,284.1,410.8,284.1,410.7C284.1,410.8,284.1,410.7,284.1,410.7
		 M284,410.6C284.1,410.6,284.1,410.7,284,410.6C284.1,410.7,284.1,410.6,284,410.6 M284,410.5C284,410.5,284,410.6,284,410.5
		C284,410.6,284,410.5,284,410.5 M283.9,410.4C283.9,410.4,283.9,410.4,283.9,410.4C283.9,410.4,283.9,410.4,283.9,410.4
		 M283.9,410.3C283.9,410.3,283.9,410.3,283.9,410.3C283.9,410.3,283.9,410.3,283.9,410.3 M283.8,410.2
		C283.8,410.2,283.8,410.2,283.8,410.2C283.8,410.2,283.8,410.2,283.8,410.2 M283.8,410.1C283.8,410.1,283.8,410.1,283.8,410.1
		C283.8,410.1,283.8,410.1,283.8,410.1 M283.7,410C283.7,410,283.7,410,283.7,410C283.7,410,283.7,410,283.7,410 M283.6,409.9
		C283.7,409.9,283.7,409.9,283.6,409.9C283.7,409.9,283.7,409.9,283.6,409.9 M283.6,409.8C283.6,409.8,283.6,409.8,283.6,409.8
		C283.6,409.8,283.6,409.8,283.6,409.8 M283.5,409.7C283.6,409.7,283.6,409.7,283.5,409.7C283.6,409.7,283.6,409.7,283.5,409.7
		 M283.5,409.5C283.5,409.6,283.5,409.6,283.5,409.5C283.5,409.6,283.5,409.6,283.5,409.5 M283.4,409.4c0,0,0,0.1,0.1,0.1
		C283.5,409.5,283.4,409.5,283.4,409.4 M283.4,409.3C283.4,409.3,283.4,409.4,283.4,409.3C283.4,409.4,283.4,409.3,283.4,409.3
		 M283.3,409.2C283.3,409.2,283.3,409.3,283.3,409.2C283.3,409.3,283.3,409.2,283.3,409.2 M283.3,409.1
		C283.3,409.1,283.3,409.2,283.3,409.1C283.3,409.2,283.3,409.1,283.3,409.1 M283.2,409C283.2,409,283.2,409.1,283.2,409
		C283.2,409.1,283.2,409,283.2,409 M283.2,408.9c0,0,0,0.1,0.1,0.1C283.2,409,283.2,408.9,283.2,408.9 M283.1,408.8
		C283.1,408.8,283.1,408.8,283.1,408.8C283.1,408.8,283.1,408.8,283.1,408.8 M283,408.7C283.1,408.7,283.1,408.7,283,408.7
		C283.1,408.7,283.1,408.7,283,408.7 M283,408.6C283,408.6,283,408.6,283,408.6C283,408.6,283,408.6,283,408.6 M282.9,408.5
		C282.9,408.5,283,408.5,282.9,408.5C283,408.5,282.9,408.5,282.9,408.5"/>
	<path class="st43" d="M345.3,492.5l-0.3,0.1c1.5,1.6,3.1,3.3,4.6,4.9C348.2,495.9,346.8,494.2,345.3,492.5 M328.1,469.4l-2.9,0.8
		c2.8,3.3,5.6,6.6,8.4,9.8l1.5-0.6C332.8,476.2,330.5,472.8,328.1,469.4 M311.7,444.3l-6.5,0.3c2.6,3.6,5.2,7.1,8,10.7l4.9-0.8
		C316,451.1,313.8,447.7,311.7,444.3 M283.7,407.5l-0.7,0.9l0,0c0,0,0,0.1,0,0.1c0,0,0,0,0,0c0,0,0,0,0,0.1c0,0,0,0,0,0
		c0,0,0,0,0,0.1c0,0,0,0,0,0c0,0,0,0.1,0,0.1c0,0,0,0,0,0c0,0,0,0.1,0.1,0.1c0,0,0,0,0,0c0,0,0,0.1,0,0.1c0,0,0,0,0,0c0,0,0,0,0,0.1
		c0,0,0,0,0,0c0,0,0,0,0,0.1c0,0,0,0,0,0c0,0,0,0.1,0,0.1c0,0,0,0,0,0c0,0,0,0.1,0.1,0.1c0,0,0,0,0,0c0,0,0,0,0,0.1c0,0,0,0,0,0
		c0,0,0,0,0,0.1c0,0,0,0,0,0c0,0,0,0,0,0.1c0,0,0,0,0,0c0,0,0,0,0,0.1c0,0,0,0,0,0c0,0,0,0.1,0.1,0.1c0,0,0,0,0,0c0,0,0,0.1,0,0.1
		c0,0,0,0,0,0c0,0,0,0,0,0.1c0,0,0,0,0,0c0,0,0,0,0,0.1c0,0,0,0,0,0c0,0,0,0,0,0.1c0,0,0,0,0,0c0,0,0,0.1,0,0.1c0,0,0,0,0,0
		c0,0,0,0,0,0.1c0,0,0,0,0,0.1c0,0,0,0,0,0c0,0,0,0,0,0.1c0,0,0,0,0,0c0,0,0,0,0,0.1c0,0,0,0,0,0c0,0.1,0.1,0.1,0.1,0.2c0,0,0,0,0,0
		c0,0,0,0.1,0,0.1c0,0,0,0,0,0c0,0,0,0,0,0.1c0,0,0,0,0,0c0,0,0,0.1,0,0.1c0,0,0,0,0,0c0.1,0.1,0.1,0.2,0.2,0.3l0,0
		c2.9,5.6,6.2,11.1,9.7,16.7l8.1,0.2c-4.1-7.2-7.8-13.9-10.8-19.7L283.7,407.5 M307.9,376.7l-10.2,13l6.9,1.8l10.3-12L307.9,376.7
		 M431.1,352.9l3,15c1.8,0.2,3.5,0.3,5.3,0.5l-0.8-15.3C436.1,353.1,433.6,353,431.1,352.9 M460,352.9c-2.1,0.1-4.3,0.1-6.4,0.2
		l-1.6,16.2c0.3,0,0.5,0,0.8,0c0.1-0.1,0.1-0.3,0.2-0.4c0.9-1.8,2.5-3.2,4.4-3.7L460,352.9 M402.1,351.1l6.8,12L419,364l-4-11.9
		C410.6,351.8,406.3,351.5,402.1,351.1 M489.5,350.9c-4.5,0.4-9.1,0.8-13.9,1.1l-4,11.9c3.8-0.3,7.5-0.7,11-1.1L489.5,350.9
		 M558.8,347.5l-20.4,15.3c8.3-1.3,15.5-2.6,21.5-3.7c0.4-2.7,0.9-5.4,1.7-7.9L558.8,347.5 M362.3,346l12.1,11.4
		c4.7,1.1,9.6,2.2,14.8,3.3c1,0.2,2.1,0.3,3.1,0.5l-9.6-12.2C375.4,348,368.6,347,362.3,346 M332.3,345.7l-12.6,16l7.3,3.8
		l12.4-14.4L332.3,345.7 M532.8,345.1c-6.4,1.1-13.6,2.2-21.4,3.3l-8.9,11.6c9.4-1.6,16.1-3.1,18.8-3.7L532.8,345.1"/>
	<path class="st44" d="M335.2,479.4l-1.5,0.6c3.7,4.2,7.5,8.4,11.4,12.6l0.3-0.1C342,488.4,338.6,484,335.2,479.4 M318.2,454.5
		l-4.9,0.8c3.9,5,7.9,10,12,14.9l2.9-0.8C324.8,464.6,321.4,459.6,318.2,454.5 M294.3,428.4c3.4,5.4,7.1,10.8,10.9,16.2l6.5-0.3
		c-3.3-5.3-6.4-10.6-9.3-15.6L294.3,428.4 M297.7,389.7l-14,17.8l8,1.4c-0.3-0.5-0.5-1-0.7-1.5l13.7-15.9L297.7,389.7 M319.7,361.7
		l-11.8,15l7,2.8l12.1-14.1L319.7,361.7 M453.6,353c-2.9,0.1-5.8,0.1-8.8,0.1c-2.1,0-4.1,0-6.2-0.1l0.8,15.3
		c4.2,0.4,8.4,0.6,12.6,0.8L453.6,353 M415,352.1l4,11.9l8.9,0.8c2.2,0.1,4.1,1.2,5.3,3c0.3,0,0.6,0.1,0.9,0.1l-3-15
		C425.6,352.7,420.3,352.4,415,352.1 M475.7,352c-5.1,0.4-10.4,0.6-15.7,0.8l-2.6,12.2c0.5-0.1,1-0.2,1.5-0.2
		c4.4-0.2,8.6-0.5,12.7-0.9L475.7,352 M382.7,349l9.6,12.2c2.4,0.4,4.8,0.7,7.4,1l9.1,0.8l-6.8-12
		C395.3,350.5,388.9,349.7,382.7,349 M511.4,348.4c-6.9,0.9-14.2,1.8-21.9,2.5l-6.9,11.9c7.4-0.9,14.1-1.9,19.8-2.8L511.4,348.4
		 M335.9,341.2l-3.6,4.6l7.1,5.4l1.4-1.6c7,1.5,18.9,4.6,33.6,8L362.3,346C351.3,344.3,342.2,342.5,335.9,341.2 M553.8,341.2
		c-5.2,1.1-12.4,2.5-21,4l-11.5,11.1c0.5-0.1,0.9-0.2,1.1-0.3c0.5-0.1,1.1-0.2,1.6-0.2c2.1,0,4.1,0.9,5.4,2.6l4.1,5.2
		c1.6-0.2,3.3-0.5,4.8-0.7l20.4-15.3L553.8,341.2"/>
	<path class="st43" d="M564,354.1c-0.4,1.4-0.7,2.9-0.9,4.4c1.3-0.3,2.6-0.5,3.8-0.8L564,354.1"/>
	<path class="st45" d="M458.6,810.6c0,5.5-4.4,9.9-9.9,9.9c-5.5,0-9.9-4.4-9.9-9.9c0-5.5,4.4-9.9,9.9-9.9
		C454.1,800.7,458.6,805.1,458.6,810.6z"/>
	<path class="st1" d="M458.6,810.6h-2.3c0,2.1-0.8,4-2.2,5.3c-1.4,1.4-3.2,2.2-5.3,2.2c-2.1,0-4-0.8-5.3-2.2
		c-1.4-1.4-2.2-3.2-2.2-5.3c0-2.1,0.8-4,2.2-5.3c1.4-1.4,3.2-2.2,5.3-2.2c2.1,0,4,0.8,5.3,2.2c1.4,1.4,2.2,3.2,2.2,5.3H458.6h2.3
		c0-6.7-5.5-12.2-12.2-12.2c-6.7,0-12.2,5.5-12.2,12.2c0,6.7,5.5,12.2,12.2,12.2c6.7,0,12.2-5.5,12.2-12.2H458.6z"/>
	<path class="st5" d="M612.7,741.2l-105.6,79.3C507.1,820.5,594.6,812.2,612.7,741.2"/>
	<path class="st46" d="M617.5,439.4C579,508.7,494.2,580.1,459.3,607.7l0.2,0.8c32.4-13.5,157.9-155.2,157.9-155.2V439.4"/>
	<path class="st47" d="M615.2,424.7c-41.2,71-129,143.2-160.1,167.6l4.2,15.4c34.9-27.6,119.6-99,158.1-168.3v-13.1L615.2,424.7"/>
	<path class="st48" d="M602.7,416.2C566,482,485.7,551.1,451.4,578.8l3.7,13.5c31.1-24.3,118.9-96.6,160.1-167.6l-12-8.5
		C603,416.2,602.8,416.2,602.7,416.2"/>
	<path class="st49" d="M589.6,412.3l-15,2.6l1.5,1.8c1.6,2,1.9,4.7,0.9,7c-1,2.3-2.1,4.6-3.2,6.9l20.4-0.6
		c-3.6,5.6-7.5,11.3-11.6,16.9l-17.7-0.7c-1.8,2.9-3.7,5.8-5.7,8.6l15.7,2.3c-3.8,4.9-7.8,9.8-11.9,14.6l-13.8-3.5
		c-2.1,2.7-4.3,5.4-6.6,8.1l12.3,4.8c-3.5,3.9-7,7.8-10.6,11.6l-11-5.7c-3,3.3-6,6.5-9,9.7l9.5,7.1c-3.9,4-7.8,7.9-11.7,11.8l-8.4-8
		c-2.4,2.3-4.7,4.6-7.1,6.9c-0.3,0.3-0.5,0.6-0.8,0.8l7.1,9.2c-4.6,4.4-9.2,8.7-13.6,12.8l-6.1-10.3c-4,3.6-7.9,7-11.6,10.3
		l4.3,12.2c-5.6,4.9-10.9,9.6-15.9,13.8l-2.8-13.8c-4.8,3.9-8.9,7.2-12.2,9.8l0.8,15.9c-1.6,1.3-3.1,2.5-4.5,3.7l0,0
		C485.7,551.1,566,482,602.7,416.2C598.1,415.5,593.7,414.2,589.6,412.3 M562.6,387.5l-7.4,3.1l7.8,9.7l8-2.2
		c-2.2-2.7-4.1-5.5-5.7-8.6L562.6,387.5 M539.9,371.5l4.7,5.8l2.1-1.1L539.9,371.5"/>
	<path class="st50" d="M455.1,559.3c-1.8,1.4-3.4,2.6-4.6,3.6c-0.6,1.2-1.5,2.3-2.7,3l3.6,12.9c1.4-1.1,2.9-2.4,4.5-3.7L455.1,559.3
		 M481.6,537.4c-5.2,4.5-10.1,8.6-14.4,12.2l2.8,13.8c5-4.2,10.3-8.8,15.9-13.8L481.6,537.4 M505.8,515.5c-1,1.1-2.1,2.1-3.2,3
		c-3.2,3-6.3,5.9-9.4,8.6l6.1,10.3c4.5-4.1,9-8.4,13.6-12.8L505.8,515.5 M524.3,496.9c-3.5,3.7-7.1,7.3-10.6,10.8l8.4,8
		c3.9-3.8,7.8-7.8,11.7-11.8L524.3,496.9 M542.6,476.5c-3,3.6-6.2,7.2-9.3,10.7l11,5.7c3.6-3.8,7.1-7.7,10.6-11.6L542.6,476.5
		 M559.2,455c-3.1,4.5-6.5,8.9-9.9,13.4l13.8,3.5c4.1-4.8,8-9.7,11.9-14.6L559.2,455 M594.3,430.2l-20.4,0.6
		c-2.6,5.2-5.6,10.4-8.9,15.7l17.7,0.7C586.8,441.4,590.6,435.8,594.3,430.2 M571,398.1l-8,2.2l11.7,14.7l15-2.6
		C582.4,409.1,576,404.2,571,398.1 M546.6,376.2l-2.1,1.1l10.6,13.3l7.4-3.1L546.6,376.2"/>
	<path class="st49" d="M596,411.2l-0.7,0.1c0.5,0.2,1.1,0.3,1.6,0.5L596,411.2 M571.6,393.9c0.8,1.1,1.7,2.2,2.6,3.3l1.5-0.4
		L571.6,393.9"/>
	<path class="st50" d="M575.6,396.8l-1.5,0.4c0.8,0.9,1.6,1.7,2.4,2.6c5.2,5.2,11.6,9.2,18.8,11.6l0.7-0.1L575.6,396.8"/>
	<path class="st51" d="M444.2,566.9c-0.2,0-0.5,0-0.7,0c-0.2,0-0.4,0-0.7,0c-1,0-2.1-0.2-3.1-0.7c-1.4-0.7-2.6-1.9-3.2-3.3
		c-17.1-13.1-100.6-79.1-126.6-139c-1-2.3-0.7-5,0.9-7l46.7-58.4c1.3-1.7,3.3-2.6,5.4-2.6c0.5,0,1.1,0.1,1.6,0.2
		c3,0.7,30,7.1,63.3,8.8c2.5,0.1,4.8,1.7,5.9,4c1.7,3.6,5.5,6,9.6,6c4.1,0,7.9-2.4,9.6-6c1.1-2.3,3.3-3.8,5.9-4
		c33.5-1.7,60.6-8.1,63.6-8.8c0.5-0.1,1.1-0.2,1.6-0.2c2.1,0,4.1,0.9,5.4,2.6l46.7,58.4c1.6,2,1.9,4.7,0.9,7
		c-26,60-109.5,125.9-126.6,139c-0.6,1.4-1.8,2.6-3.3,3.4C446.3,566.7,445.2,566.9,444.2,566.9"/>
	<path class="st37" d="M522.5,359.2c-1.6,0.4-29.2,7.1-63.6,8.9c-2.7,5.8-8.6,9.8-15.6,9.8c-6.9,0-12.9-4-15.6-9.8
		c-34.3-1.8-61.7-8.4-63.4-8.8l-45.8,57.3c25.9,59.8,112.2,126.3,124.1,135.3v1c0,0,0.2-0.2,0.7-0.5c0.4,0.3,0.7,0.5,0.7,0.5v-1
		c11.9-8.9,98.2-75.4,124.1-135.3L522.5,359.2"/>
	<g>
		<defs>
			<path id="SVGID_11_" d="M522.5,359.2l45.8,57.3c-25.9,59.8-112.2,126.3-124.1,135.3v1c0,0-0.2-0.2-0.7-0.5
				c-0.4,0.3-0.7,0.5-0.7,0.5v-1c-11.9-8.9-98.2-75.4-124.1-135.3l45.8-57.3c1.9,0.5,37.8,9.2,79,9.3
				C484.7,368.4,520.6,359.6,522.5,359.2"/>
		</defs>
		<clipPath id="SVGID_12_">
			<use xlink:href="#SVGID_11_"  style="overflow:visible;"/>
		</clipPath>
		<path class="st52" d="M465.9,519.1c-3.7,2.6-7.5,5.2-11.5,7.8c2.4,3.4,3.9,7.5,3.9,12c0,0.6,0,1.3-0.1,1.9
			c5.5-4.4,12.2-10,19.5-16.4C473.4,523.5,469.4,521.6,465.9,519.1 M545,387.2c-116.3,1.1-159.6,56.7-175.3,91.4
			c15.2,19.2,32.8,39,49.6,52.1c3.1-7.2,10.3-12.3,18.7-12.3c5.5,0,10.5,2.2,14.2,5.7c2.9-2.6,6.1-5.6,9.6-8.8
			c-5.1-5.4-8.1-12.7-8.1-20.6c0-16.7,13.5-30.2,30.2-30.2c3.4,0,6.7,0.6,9.7,1.6c2.4-1.6,5.2-2.5,8.3-2.5c1.6,0,3.2,0.3,4.7,0.8
			c-0.5-1.5-0.8-3.1-0.8-4.7c0-8.3,6.7-15,15-15c3.8,0,7.3,1.4,10,3.8c5.5-5.8,10.4-11.1,14.3-15.8l6.3,0.9c0,0-4.8,8.8-16.1,22.5
			c0.3,1.1,0.4,2.3,0.4,3.5c0,8.3-6.7,15-15,15c-0.7,0-1.3,0-1.9-0.1c-0.7,0.7-1.4,1.4-2.1,2.2c0.1,0.6,0.1,1.3,0.1,1.9
			c0,3.6-1.3,6.9-3.4,9.5c0.2,0.8,0.3,1.6,0.4,2.4c22.2-22.7,43.6-48.9,54.5-74L545,387.2"/>
	</g>
	<path class="st1" d="M329.1,411.1c0,0,31.5-39.6,41.4-38.7C380.4,373.3,342.6,410.2,329.1,411.1"/>
	<path class="st53" d="M461.7,515.4c-3.5,3.2-6.7,6.2-9.6,8.8c0.8,0.8,1.6,1.7,2.3,2.6c4-2.6,7.8-5.2,11.5-7.8
		C464.4,518,463,516.7,461.7,515.4 M516,473.8c0.3,0.9,0.5,1.8,0.6,2.8c0.7-0.7,1.4-1.4,2.1-2.2C517.8,474.3,516.9,474.1,516,473.8
		 M545,432.7c-4,4.7-8.8,10.1-14.3,15.8c2.2,2,3.8,4.6,4.5,7.6c11.2-13.7,16.1-22.5,16.1-22.5L545,432.7"/>
	<polygon class="st1" points="496.5,374.2 519.8,369.7 543.2,410.2 527.9,408.4 	"/>
	<polygon class="st1" points="532.4,414.7 542.3,415.6 543.7,426.1 533.3,424.6 	"/>
	<path class="st54" d="M310.4,412.2c-3,4.5-4.7,7.4-4.7,7.4c0.5,2.5,1.9,5.6,4.1,9.2l2.4,0.1c-0.8-1.7-1.6-3.4-2.3-5.1
		c-1-2.3-0.7-5,0.9-7l3.1-3.9L310.4,412.2 M329.5,385.4c-2.8,3.6-5.5,7.2-8,10.6l4.9,1.3l8-10L329.5,385.4 M352.8,361.1
		c-3.9,2.7-8.1,6.7-12.4,11.3l4.1,2.1l9.8-12.3L352.8,361.1"/>
	<path class="st55" d="M309.9,428.9c2.3,3.8,5.5,8.2,9.4,12.9c-2.6-4.3-4.9-8.6-7-12.9L309.9,428.9 M321.5,396.1
		c-4.4,6.2-8.3,11.9-11.1,16.2l3.6,0.6l12.4-15.5L321.5,396.1 M340.5,372.4c-3.7,4-7.4,8.4-10.9,13l4.9,2l10.2-12.8L340.5,372.4
		 M357.5,358.4c-1.5,0.7-3.1,1.6-4.7,2.8l1.6,1.2L357.5,358.4L357.5,358.4"/>
	<path class="st56" d="M408.9,363.1l0.1,0.3c3.2,0.3,6.6,0.6,10,0.9L419,364L408.9,363.1"/>
	<path class="st57" d="M419,364l0.1,0.2c2.9,0.2,5.8,0.4,8.8,0.6l0,0L419,364 M399.7,362.2c3,0.4,6.1,0.8,9.3,1.1l-0.1-0.3
		L399.7,362.2"/>
	<path class="st58" d="M357.5,358.4L357.5,358.4l-3.1,3.9l-9.8,12.3l-10.2,12.8l-8,10L314,412.9l-3.1,3.9c-1.6,2-1.9,4.7-0.9,7
		c0.7,1.7,1.5,3.4,2.3,5.1c2.1,4.3,4.4,8.6,7,12.9c21.7,26.8,64.6,66.6,93.5,92.4c1.8,0.3,3.5,0.7,5.2,1.2c0.2-1,0.4-2,0.7-3
		c-14.6-12.3-33.5-29.1-51.4-48.1l0,0c-20-21.2-38.7-45-48.6-67.8l45.8-57.3c1.6,0.4,29.1,7.1,63.4,8.8c0.7,1.5,1.6,2.9,2.7,4.1
		l-2.6-7.3l0,0c-3-0.2-5.9-0.3-8.8-0.6c-3.4-0.3-6.8-0.6-10-0.9c-3.2-0.3-6.3-0.7-9.3-1.1L357.5,358.4"/>
	<path class="st59" d="M364.5,359.2l-45.8,57.3c9.9,22.8,28.6,46.6,48.6,67.8c0.7-1.8,1.5-3.7,2.4-5.7c-23.4-29.5-41-57.7-41-57.7
		l18.3-19.3c-6.9,5.2-13.6,9.1-17.9,9.4c0,0,30.8-38.7,41-38.7c0.1,0,0.2,0,0.3,0c1.6,0.1,2,1.3,1.3,3.1l6.8-7.2l54,9.4l-2.1-5.7
		c-1.1-1.2-2-2.6-2.7-4.1C393.5,366.2,366.1,359.6,364.5,359.2"/>
	<path class="st60" d="M367.2,484.3L367.2,484.3c17.9,19,36.8,35.8,51.4,48.1l0,0C404,520.1,385.1,503.2,367.2,484.3"/>
	<path class="st53" d="M369.6,478.6c-0.9,2-1.7,3.8-2.4,5.7c17.9,19,36.8,35.8,51.4,48.1c0.2-0.6,0.4-1.1,0.6-1.6
		C402.5,517.6,384.8,497.8,369.6,478.6"/>
	<path class="st1" d="M370.2,372.4c-10.3,0-41,38.7-41,38.7c4.3-0.3,11-4.2,17.9-9.4l24.8-26.2c0.7-1.8,0.3-3-1.3-3.1
		C370.4,372.4,370.3,372.4,370.2,372.4"/>
	<path class="st1" d="M792.7,74.5C792.7,74.5,792.7,74.5,792.7,74.5c-30.7,0-58.6,12.5-78.7,32.6c-18.6,18.6-30.6,43.8-32.4,71.7
		c2.8-3.9,5.9-7.6,9.3-10.9c3.7-21.3,14-40.4,28.7-55.1c18.7-18.7,44.5-30.2,73-30.3c28.5,0,54.3,11.6,73,30.3
		c18.7,18.7,30.2,44.5,30.3,73c0,28.5-11.6,54.3-30.3,73c-17.8,17.8-42.1,29.2-69.1,30.2c-0.5,2.7-1.1,5.4-1.8,8.1
		c29.9-0.6,56.9-12.9,76.6-32.6c20.1-20.1,32.6-48,32.6-78.7c0-30.7-12.5-58.6-32.6-78.7C851.3,87,823.4,74.5,792.7,74.5"/>
	<path class="st1" d="M281.7,624.9c0,0.1,0,0.3,0,0.4h0.6L281.7,624.9"/>
	<path class="st61" d="M351.4,555.5c-38.4,0-69.5,31-69.8,69.3l0.6,0.4h1.9h2.5c0-17.9,7.2-34.1,19-45.8c11.7-11.7,27.9-19,45.8-19
		c5.7,0,11.2,0.7,16.5,2.1c0.5-1.6,1-3.2,1.7-4.7C363.8,556.4,357.7,555.5,351.4,555.5"/>
	<path class="st1" d="M367.1,688.1c-2.5,0.6-5,1.1-7.7,1.4l6,4.1c2.3-0.5,4.6-1.1,6.8-1.7L367.1,688.1 M284.3,644.5
		c8.3,29.2,35.1,50.5,66.9,50.6l-7.2-5.4c-15-1.7-28.4-8.5-38.5-18.6c-6-6-10.8-13.2-14.1-21.2L284.3,644.5 M282.2,625.3h-0.6
		c0,4,0.3,7.9,1,11.7l6,4.1c-1-4-1.6-8.2-1.9-12.5L282.2,625.3"/>
	<path class="st61" d="M421,630.8l-3.4,5.8h-2.4c-2.4,13.3-8.8,25.2-18,34.4c-8.2,8.2-18.5,14.2-30.1,17l5.1,3.8
		C398.9,683.6,418.7,659.7,421,630.8 M286.7,625.3h-2.5h-1.9l4.5,3.4C286.7,627.5,286.7,626.4,286.7,625.3 M419.9,611.7
		c-1.6,0.6-3.2,1-4.8,1.4c0.5,2.8,0.9,5.6,1,8.4h1.5l3.5,6.1c0-0.8,0-1.6,0-2.4C421.2,620.7,420.7,616.1,419.9,611.7"/>
	<path class="st62" d="M417.6,621.5h-1.5c0.1,1.2,0.1,2.5,0.1,3.8c0,3.9-0.3,7.7-1,11.4h2.4l3.4-5.8c0.1-1,0.1-2.1,0.2-3.2
		L417.6,621.5"/>
	<path class="st63" d="M359.5,689.5c-2.6,0.3-5.3,0.5-8.1,0.5c-2.5,0-4.9-0.1-7.3-0.4l7.2,5.4c0,0,0.1,0,0.1,0
		c4.8,0,9.5-0.5,14.1-1.4L359.5,689.5 M282.7,637c0.4,2.5,1,5,1.7,7.5l7.2,5.4c-1.2-2.8-2.1-5.8-2.9-8.8L282.7,637"/>
	<path class="st1" d="M681.7,178.8c-0.2,0.3-0.5,0.7-0.7,1c0.2-0.1,0.4-0.1,0.7-0.2C681.6,179.4,681.6,179.1,681.7,178.8
		 M745.4,145.8c-21.2,0-40.3,8.4-54.4,22.1c-0.6,3.4-1,6.8-1.3,10.3c4.4-0.6,8.8-0.9,13.4-0.9c52.5,0,95,42.5,95,95
		c0,3.1-0.1,6.2-0.4,9.2c15.7-14.3,25.6-34.9,25.6-57.8C823.3,180.7,788.4,145.8,745.4,145.8"/>
	<path class="st1" d="M691,167.9c-3.4,3.3-6.6,7-9.3,10.9c0,0.3,0,0.6-0.1,0.9c2.7-0.6,5.4-1.1,8.1-1.5
		C690,174.7,690.4,171.3,691,167.9"/>
	<path class="st1" d="M680.9,179.9c-36,8.6-64,37.6-71.1,74.1c18.8,12.5,37.6,25.1,55.7,38.8c3.6,0.6,6.9,2.1,9.7,4.3
		c-2.8-7.7-2.5-15.3-4.4-21.7c35.6,11,59.6,42.5,74.1,82.2c24.3-11.9,42.7-33.9,49.9-60.5c-0.7,0-1.4,0-2.1,0c0,0,0,0,0,0
		c-6,0-11.8-0.5-17.5-1.4c-9.2,3.8-19.3,5.9-29.8,5.9c-43,0-77.9-34.9-77.9-77.9C667.4,207.4,672.4,192.4,680.9,179.9"/>
	<path class="st1" d="M670.9,275.4c1.9,6.3,1.6,14,4.4,21.7c5.2,4.1,8.6,10.4,8.6,17.5c0,9-5.4,16.8-13.2,20.2
		c3.4,4.1,9.5,11.8,16.3,22.6c-0.4-11.5,8.9-19,8.9-19s22.6,18.7,27.7,22.1c1,0.7,3.5,1.7,6.7,2.9c5.1-1.5,10.1-3.5,14.8-5.8
		C730.5,317.9,706.5,286.4,670.9,275.4 M609.8,254c-1.2,5.9-1.8,12-1.8,18.3c0,2.7,0.1,5.4,0.3,8l32.1,27.7
		c2.8-9,11.2-15.6,21.2-15.6c1.3,0,2.6,0.1,3.8,0.3C647.4,279.1,628.6,266.5,609.8,254"/>
	<path class="st63" d="M670.7,334.8c-2.7,1.2-5.8,1.9-9,1.9c-1.9,0-3.7-0.2-5.5-0.7c4.1,5.1,11.2,14.4,18.7,27
		c4.6,1.4,9.4,2.5,14.3,3.2c-1.5-3.2-2.1-6.1-2.2-8.9C680.2,346.6,674.1,338.9,670.7,334.8 M608.4,280.3c0.4,5.3,1.3,10.5,2.6,15.6
		l29.6,25.5c-0.7-2.1-1.1-4.4-1.1-6.8c0-2.3,0.3-4.5,1-6.6L608.4,280.3"/>
	<path class="st64" d="M660.1,354.8c0.2,0.8,0.3,1.7,0.5,2.5c0.8,0.4,1.6,0.8,2.4,1.2C662.1,357.3,661.1,356,660.1,354.8 M617.7,314
		c0.3,0.5,0.5,1.1,0.8,1.6c3.9,0.6,7.7,1.7,11.2,3.1c-1.3-1.5-2.6-2.9-3.9-4.4C623,314.3,620.3,314.2,617.7,314 M611.9,299.2
		c0.2,0.8,0.5,1.5,0.7,2.3l7.2,6.3C617.2,304.9,614.6,302,611.9,299.2"/>
	<path class="st65" d="M656.2,336c4.1,5.1,11.2,14.4,18.7,27l0,0C667.4,350.4,660.4,341.1,656.2,336C656.2,336,656.2,336,656.2,336
		 M611,295.9C611,295.9,611,295.9,611,295.9l29.6,25.5c0,0,0,0,0,0L611,295.9"/>
	<path class="st66" d="M650.4,333.6c1,1.4,1.9,2.9,2.7,4.4c3.3,5,5.7,10.7,7.1,16.8c1,1.2,1.9,2.4,2.9,3.7c3.8,1.8,7.8,3.3,11.9,4.6
		c-7.5-12.6-14.6-21.9-18.7-27C654.1,335.5,652.2,334.7,650.4,333.6 M611,295.9c0.3,1.1,0.6,2.2,0.9,3.2c2.7,2.9,5.3,5.7,8,8.6
		l7.5,6.6c-0.5,0-1.1,0-1.6,0c1.3,1.4,2.6,2.9,3.9,4.4c4.8,2,9.2,4.6,13.1,7.8c0.2,0.1,0.3,0.2,0.5,0.3c-1.1-1.7-2-3.5-2.6-5.5
		L611,295.9"/>
	<path class="st67" d="M695.8,338.5c0,0-9.3,7.5-8.9,19c0.1,2.7,0.8,5.7,2.2,8.9c4.5,0.7,9.2,1,13.9,1c9.4,0,18.5-1.4,27.1-3.9
		c-3.2-1.2-5.7-2.2-6.7-2.9C718.4,357.1,695.8,338.5,695.8,338.5"/>
	<path class="st68" d="M612.6,301.5c1.4,4.3,3.1,8.5,5,12.5c2.7,0.2,5.4,0.3,8.1,0.4c0.5,0,1.1,0,1.6,0l-7.5-6.6L612.6,301.5"/>
	<path class="st1" d="M797.7,281.5c-3,2.7-6.3,5.3-9.7,7.5c1.6,0.1,3.2,0.1,4.8,0.1c1.3,0,2.6,0,3.9-0.1
		C797.1,286.5,797.4,284,797.7,281.5"/>
	<path class="st64" d="M656,350.9c0,1.3-0.1,2.5-0.3,3.7c0.5,0.3,1,0.6,1.5,0.9C656.9,354,656.5,352.4,656,350.9 M620.3,319
		c0.7,1.2,1.4,2.4,2.1,3.6c1.6-0.3,3.3-0.5,5.1-0.5c0.9,0,1.9,0,2.8,0.1C627.1,320.8,623.8,319.7,620.3,319"/>
	<path class="st1" d="M788,289c-4,2.6-8.3,4.9-12.7,6.7c5.7,0.9,11.5,1.4,17.5,1.4c0,0,0,0,0,0c0.7,0,1.4,0,2.1,0
		c0.7-2.6,1.3-5.3,1.8-8.1c-1.3,0-2.6,0.1-3.9,0.1C791.1,289.1,789.5,289.1,788,289"/>
	<path class="st1" d="M703.1,177.3c-4.5,0-9,0.3-13.4,0.9c-0.2,2.5-0.3,5-0.3,7.6h-4h-4c0-2,0.1-4.1,0.2-6.1
		c-0.2,0.1-0.4,0.1-0.7,0.2c-8.5,12.5-13.5,27.6-13.5,43.8c0,43,34.9,77.9,77.9,77.9c10.6,0,20.6-2.1,29.8-5.9
		c-23.7-3.7-45-15-61.2-31.2c-20.1-20.1-32.6-48-32.6-78.7h4h4c0,28.5,11.6,54.3,30.3,73c17.7,17.7,41.6,28.9,68.3,30.1
		c3.4-2.2,6.7-4.8,9.7-7.5c0.3-3,0.4-6.1,0.4-9.2C798.1,219.8,755.6,177.3,703.1,177.3"/>
	<path class="st1" d="M689.4,185.8h-4h-4c0,30.7,12.5,58.6,32.6,78.7c16.2,16.2,37.5,27.5,61.2,31.2c4.5-1.9,8.7-4.1,12.7-6.7
		c-26.6-1.2-50.6-12.5-68.3-30.1C701,240.1,689.4,214.3,689.4,185.8 M689.7,178.2c-2.7,0.4-5.4,0.9-8.1,1.5c-0.1,2-0.2,4.1-0.2,6.1
		h4h4C689.4,183.2,689.5,180.7,689.7,178.2"/>
	<path class="st1" d="M665.5,292.8c4.1,3.1,8.1,6.2,12.1,9.4c-1-1.7-1.7-3.4-2.3-5.1C672.5,294.9,669.1,293.4,665.5,292.8"/>
	<path class="st1" d="M661.7,292.4c-9.9,0-18.4,6.6-21.2,15.6l27.4,23.6c0,0,1,1.1,2.8,3.2c7.7-3.4,13.2-11.2,13.2-20.2
		c0-7.1-3.4-13.5-8.6-17.5c0.6,1.7,1.4,3.4,2.3,5.1c-4-3.2-8-6.3-12.1-9.4C664.3,292.5,663,292.4,661.7,292.4"/>
	<path class="st69" d="M640.5,308c-0.6,2.1-1,4.3-1,6.6c0,2.4,0.4,4.7,1.1,6.8l11.9,10.2c0,0,1.4,1.5,3.8,4.4
		c1.7,0.4,3.6,0.7,5.5,0.7c3.2,0,6.2-0.7,9-1.9c-1.7-2.1-2.8-3.2-2.8-3.2L640.5,308"/>
	<path class="st70" d="M640.6,321.4C640.6,321.4,640.6,321.4,640.6,321.4l11.9,10.2c0,0,1.4,1.5,3.7,4.4c0,0,0,0,0,0
		c-2.4-2.9-3.8-4.4-3.8-4.4L640.6,321.4"/>
	<path class="st71" d="M640.6,321.4c0.6,1.9,1.5,3.8,2.6,5.5c2.7,1.8,5.1,4.1,7.1,6.7c1.8,1.1,3.8,1.9,5.9,2.4
		c-2.3-2.9-3.7-4.4-3.7-4.4L640.6,321.4"/>
	<path class="st61" d="M619.2,323.3c-11.7,3.5-20.2,14.4-20.2,27.2c0,4,0.8,7.8,2.3,11.2c7.9,0.8,14.1,7.1,14.9,14.9
		c3.4,1.5,7.2,2.3,11.2,2.3c10.1,0,19.1-5.3,24.1-13.3C641.8,351.5,630.9,337.3,619.2,323.3"/>
	<path class="st64" d="M622.4,322.6c-1.1,0.2-2.2,0.5-3.2,0.8c11.6,14,22.6,28.2,32.4,42.4c2.1-3.3,3.5-7,4.1-11
		C642.1,346.8,630.7,335.8,622.4,322.6"/>
	<path class="st72" d="M627.5,322.1c-1.7,0-3.4,0.2-5.1,0.5c8.3,13.2,19.7,24.3,33.2,32.1c0.2-1.2,0.3-2.5,0.3-3.7
		c-0.3-0.8-0.5-1.6-0.8-2.4c-6.5-8-13.2-15.9-20.2-23.9c-1.5-0.9-3.1-1.7-4.7-2.5C629.4,322.2,628.5,322.1,627.5,322.1"/>
	<path class="st71" d="M649.2,332.8c1.4,1.6,2.7,3.4,3.9,5.2c-0.8-1.6-1.7-3-2.7-4.4C650,333.4,649.6,333.1,649.2,332.8
		 M642.8,326.5c0.2,0.2,0.4,0.4,0.7,0.5c0-0.1-0.1-0.1-0.1-0.2C643.1,326.8,642.9,326.7,642.8,326.5 M635,324.7
		c6.9,7.9,13.7,15.9,20.2,23.9c-2.4-6.3-6.1-11.9-10.8-16.6C641.5,329.2,638.4,326.7,635,324.7"/>
	<path class="st73" d="M643.3,326.9c0,0.1,0.1,0.1,0.1,0.2c2.1,1.8,4,3.7,5.8,5.8c0.4,0.3,0.8,0.5,1.2,0.8
		C648.4,331,646,328.7,643.3,326.9"/>
	<path class="st74" d="M535.3,456.1c-4.5,5.4-9.9,11.6-16.5,18.4c0.6,0.1,1.3,0.1,1.9,0.1c8.3,0,15-6.7,15-15
		C535.7,458.4,535.5,457.2,535.3,456.1 M520.7,444.7c-8.3,0-15,6.7-15,15c0,1.6,0.3,3.2,0.8,4.7c2.1,0.7,3.9,1.8,5.5,3.2
		c6.6-6.6,13-13,18.7-19C528.1,446.1,524.6,444.7,520.7,444.7"/>
	<path class="st75" d="M530.7,448.5c-5.7,6-12.1,12.5-18.7,19c1.8,1.7,3.2,3.9,4,6.3c0.9,0.3,1.8,0.5,2.7,0.6
		c6.6-6.7,12-12.9,16.5-18.4C534.5,453.1,532.9,450.5,530.7,448.5"/>
	<path class="st74" d="M516.7,476.6c-1.7,1.7-3.5,3.5-5.4,5.3c0.9,1.9,1.6,4,2.1,6.1c2.1-2.6,3.4-5.9,3.4-9.5
		C516.8,477.9,516.7,477.2,516.7,476.6 M501.8,463.6c-3.1,0-5.9,0.9-8.3,2.5c4.6,1.6,8.8,4.2,12.1,7.7c1.4-1.3,2.7-2.7,4.1-4
		c-1.4-1.6-2.5-3.4-3.2-5.5C505,463.8,503.5,463.6,501.8,463.6"/>
	<path class="st75" d="M509.7,469.8c-1.3,1.3-2.7,2.7-4.1,4c2.3,2.4,4.2,5.1,5.6,8.2c1.9-1.8,3.7-3.6,5.4-5.3
		c-0.1-1-0.3-1.9-0.6-2.8C513.6,473,511.4,471.6,509.7,469.8"/>
	<path class="st76" d="M506.5,464.3c0.7,2.1,1.8,3.9,3.2,5.5c0.8-0.7,1.5-1.5,2.3-2.2C510.4,466.1,508.6,465,506.5,464.3"/>
	<path class="st77" d="M512,467.5c-0.7,0.7-1.5,1.5-2.3,2.2c1.7,1.8,3.9,3.3,6.3,4.1C515.2,471.4,513.8,469.2,512,467.5"/>
	<path class="st74" d="M483.8,464.5c-16.7,0-30.2,13.5-30.2,30.2c0,8,3.1,15.2,8.1,20.6c8.5-7.8,18.5-17.2,28.8-27
		c-2.3-2.6-3.7-6.1-3.7-9.8c0-5.2,2.7-9.8,6.7-12.5C490.5,465,487.2,464.5,483.8,464.5"/>
	<path class="st78" d="M506.6,514.6c-0.3,0.3-0.5,0.5-0.8,0.8l0,0.1C506.1,515.2,506.3,514.9,506.6,514.6"/>
	<path class="st79" d="M505.8,515.4c-1.1,1-2.1,2-3.2,3C503.7,517.5,504.8,516.6,505.8,515.4L505.8,515.4"/>
	<path class="st80" d="M513.8,490.5c-12.4,12.7-25,24.2-36,33.9c2,0.4,4,0.6,6.1,0.6c7.1,0,13.6-2.4,18.7-6.5c1.1-1,2.1-2,3.2-3
		c0.3-0.3,0.5-0.5,0.8-0.8c4.7-5.3,7.5-12.3,7.5-19.9C514.1,493.3,514,491.9,513.8,490.5"/>
	<path class="st81" d="M513.8,490.5c-12.4,12.7-25,24.2-36,33.9l0,0C488.8,514.7,501.4,503.2,513.8,490.5
		C513.8,490.5,513.8,490.5,513.8,490.5"/>
	<path class="st74" d="M513.4,488.1c-2.7,3.3-6.9,5.4-11.5,5.4c-1,0-1.9-0.1-2.9-0.3c-9.5,8.3-20.5,17.1-33.1,25.9
		c3.5,2.6,7.5,4.4,11.9,5.3c11.1-9.6,23.7-21.2,36-33.9C513.7,489.7,513.5,488.8,513.4,488.1"/>
	<path class="st75" d="M490.6,488.3c-10.3,9.8-20.3,19.2-28.8,27c1.3,1.4,2.7,2.6,4.2,3.7c12.6-8.8,23.6-17.5,33.1-25.9
		C495.6,492.6,492.7,490.8,490.6,488.3"/>
	<path class="st76" d="M511.3,481.9c-3.8,3.6-7.9,7.4-12.3,11.3c0.9,0.2,1.9,0.3,2.9,0.3c4.6,0,8.8-2.1,11.5-5.4
		C512.9,485.9,512.2,483.9,511.3,481.9 M493.6,466.1c-4,2.7-6.7,7.3-6.7,12.5c0,3.8,1.4,7.2,3.7,9.8c5-4.8,10.1-9.7,15.1-14.6
		C502.3,470.3,498.2,467.6,493.6,466.1"/>
	<path class="st77" d="M505.7,473.8c-5,4.9-10.1,9.8-15.1,14.6c2.1,2.5,5.1,4.2,8.4,4.9c4.4-3.9,8.5-7.6,12.3-11.3
		C509.8,478.9,507.9,476.1,505.7,473.8"/>
	<path class="st80" d="M458.2,540.7c-6.8,5.5-11.8,9.3-14,11v1c0,0,0,0,0,0v0c0,0-0.2-0.2-0.7-0.5c-0.4,0.3-0.7,0.5-0.7,0.5v0
		c0,0,0,0,0,0v-1c-0.8-0.6-1.9-1.4-3.3-2.5l0.7,2.9c1.3,2,2.4,4.1,3.3,6.3C451.5,556.1,457.4,549.2,458.2,540.7"/>
	<path class="st81" d="M443.5,552.2c-0.4,0.3-0.7,0.5-0.7,0.5v0C442.8,552.7,443,552.6,443.5,552.2
		C443.5,552.2,443.5,552.2,443.5,552.2 M458.2,540.7c-6.8,5.5-11.8,9.3-14,11v1c0,0,0,0,0,0v-1C446.4,550,451.4,546.2,458.2,540.7
		L458.2,540.7"/>
	<path class="st82" d="M443.5,552.2C443.5,552.2,443.5,552.2,443.5,552.2c0.4,0.3,0.7,0.5,0.7,0.5v0
		C444.2,552.7,443.9,552.6,443.5,552.2 M439.5,549.2L439.5,549.2c1.4,1.1,2.5,1.9,3.3,2.5v1c0,0,0,0,0,0v-1
		C442,551.1,440.9,550.3,439.5,549.2"/>
	<path class="st74" d="M438,518.4c-8.4,0-15.6,5.1-18.7,12.3c6.4,5,12.7,9,18.7,11.7l1.6,6.8c1.4,1.1,2.5,1.9,3.3,2.5v1
		c0,0,0.2-0.2,0.7-0.5c0,0,0,0,0,0c0,0,0,0,0,0c0.4,0.3,0.7,0.5,0.7,0.5v-1c2.3-1.7,7.3-5.5,14-11c0.1-0.6,0.1-1.3,0.1-1.9
		c0-4.5-1.4-8.6-3.9-12c-5.2,3.4-10.7,6.8-16.4,10.2c0,0,5.5-4.9,14.2-12.8C448.5,520.6,443.5,518.4,438,518.4"/>
	<path class="st75" d="M452.1,524.2C443.5,532.1,438,537,438,537c5.7-3.4,11.2-6.8,16.4-10.2C453.7,525.9,453,525,452.1,524.2"/>
	<path class="st83" d="M435.2,545.8c1.9,1.9,3.5,4,5,6.3l-0.7-2.9C438.3,548.3,436.9,547.1,435.2,545.8 M418.6,532.4
		c-0.3,1-0.6,2-0.7,3c3.4,1,6.6,2.4,9.5,4.3C424.7,537.5,421.8,535,418.6,532.4"/>
	<path class="st84" d="M435.2,545.8C435.2,545.8,435.2,545.8,435.2,545.8c1.7,1.3,3.1,2.4,4.3,3.4l0,0
		C438.3,548.3,436.9,547.1,435.2,545.8 M418.6,532.4L418.6,532.4c3.2,2.6,6.1,5.1,8.8,7.3c0,0,0,0,0,0
		C424.7,537.5,421.8,535,418.6,532.4"/>
	<path class="st75" d="M419.3,530.7c-0.2,0.5-0.4,1.1-0.6,1.6c3.2,2.6,6.1,5.1,8.8,7.3c2.8,1.7,5.4,3.8,7.8,6.2
		c1.7,1.3,3.1,2.4,4.3,3.4l-1.6-6.8C432,539.8,425.7,535.8,419.3,530.7"/>
	<path class="st61" d="M414,594.5c2.7,5.4,4.6,11.2,5.8,17.2c3.4-1.2,6.6-2.8,9.5-4.8C424.9,603.4,419.7,599.2,414,594.5
		 M370.4,556.2c-0.3,0.6-0.5,1.1-0.8,1.7c1.3,0.4,2.6,0.8,3.9,1.2C372.5,558.2,371.5,557.2,370.4,556.2"/>
	<path class="st85" d="M378.6,545c-3.3,3.2-6.1,7-8.2,11.2c1,1,2.1,1.9,3.1,2.9c17.7,5.9,32.3,18.8,40.5,35.4
		c5.7,4.7,10.9,8.9,15.3,12.4c4.1-2.8,7.7-6.4,10.4-10.6C429.1,588.1,405.5,569.5,378.6,545"/>
	<path class="st81" d="M390.1,537.2c-4.3,1.9-8.2,4.6-11.5,7.8c26.9,24.5,50.5,43.1,61.2,51.3c2.6-3.8,4.5-8.1,5.7-12.7
		c-0.2,0.2-0.4,0.3-0.6,0.5C433.5,575,413.1,558.4,390.1,537.2"/>
	<path class="st86" d="M401.5,534c-3.6,0.4-7,1.3-10.2,2.6l-0.6,1.1c-0.2-0.2-0.4-0.4-0.6-0.6l0,0c23,21.1,43.4,37.8,54.7,46.8
		c0.2-0.2,0.4-0.3,0.6-0.5l0,0c-0.2,0.2-0.4,0.3-0.6,0.5c-3.4-2.7-7.7-6.2-12.7-10.2l1-13.5c-1.2-0.9-2.5-1.9-3.9-3.1
		c-2.3-1.1-4.4-2.6-6.1-4.5l-2.3,11.6c-5.1-4.3-10.6-9.1-16.4-14.2l3.5-10.5C405.9,537.8,403.7,536,401.5,534"/>
	<path class="st87" d="M433.2,560.3l-1,13.5c4.9,4.1,9.2,7.5,12.7,10.2c0.2-0.2,0.4-0.3,0.6-0.5c0.8-3.1,1.2-6.3,1.2-9.7
		c0-2.5-0.2-4.9-0.6-7.2c-0.6,0.2-1.2,0.2-1.8,0.2c-0.2,0-0.5,0-0.7,0c-0.2,0-0.4,0-0.7,0c-1,0-2.1-0.2-3.1-0.7
		c-1.4-0.7-2.6-1.9-3.2-3.3C435.6,562.2,434.5,561.3,433.2,560.3 M407.9,539.6l-3.5,10.5c5.8,5.1,11.3,9.9,16.4,14.2l2.3-11.6
		c-0.4-0.5-0.9-1-1.3-1.5C417.7,547.9,413,544,407.9,539.6 M391.4,536.7c-0.4,0.2-0.8,0.4-1.3,0.5c0.2,0.2,0.4,0.4,0.6,0.6
		L391.4,536.7"/>
	<path class="st80" d="M429.3,557.2c1.4,1.1,2.7,2.2,3.9,3.1c1.3,1,2.4,1.9,3.4,2.6c0.6,1.4,1.8,2.6,3.2,3.3c1,0.5,2,0.7,3.1,0.7
		c0.2,0,0.4,0,0.7,0c0.2,0,0.5,0,0.7,0c0.6,0,1.2-0.1,1.8-0.2c-0.5-2.9-1.4-5.7-2.5-8.3c-0.6,0.2-1.2,0.3-1.8,0.4l0.3,1.2
		c0,0-0.4-0.4-1.2-1c-0.9,0.1-1.9,0.2-2.9,0.2C434.8,559.1,431.9,558.4,429.3,557.2 M406.5,533.7c-1.7,0-3.3,0.1-4.9,0.3
		c2.2,1.9,4.3,3.8,6.4,5.6c5.1,4.4,9.8,8.3,13.9,11.6c-2.7-3.4-4.3-7.8-4.3-12.5c0-0.1,0-0.1,0-0.2c-1.6-1.4-3.2-2.9-4.9-4.4
		C410.7,533.9,408.6,533.7,406.5,533.7"/>
	<path class="st61" d="M371.6,593.7c0.1,0.1,0.2,0.3,0.2,0.4L371.6,593.7 M367.9,562.7c-1,3.6-1.6,7.3-1.6,11.2
		c0,7,1.8,13.5,4.9,19.2l4.4-7.6h8.7l4.4,7.6l-4.4,7.6h-7.7c4.7,5.3,10.8,9.3,17.7,11.5l-0.6-1l4.4-7.6h8.7l4.4,7.6l-1.6,2.8
		c1.9-0.1,3.7-0.4,5.5-0.8c-2.2-11.3-7.2-21.6-14.5-30c-4.5-3.8-9.2-8-14-12.3C380.9,567.2,374.6,564.4,367.9,562.7"/>
	<path class="st62" d="M406.8,603.5h-8.7l-4.4,7.6l0.6,1c3.8,1.2,7.9,1.9,12.2,1.9c1,0,2.1,0,3.1-0.1l1.6-2.8L406.8,603.5"/>
	<path class="st62" d="M384.3,585.6h-8.7l-4.4,7.6c0.1,0.2,0.2,0.4,0.3,0.6l0.2,0.4c1.4,2.3,3,4.5,4.8,6.6h7.7l4.4-7.6L384.3,585.6"
		/>
	<path class="st85" d="M386.5,570.9c4.8,4.3,9.6,8.4,14,12.3c-1.1-1.3-2.2-2.5-3.4-3.6C394,576.3,390.4,573.4,386.5,570.9"/>
	<path class="st83" d="M441.7,558.8c-0.3,0.1-0.6,0.1-0.9,0.2c0.8,0.7,1.2,1,1.2,1L441.7,558.8 M412.7,534.2c1.7,1.5,3.3,3,4.9,4.4
		c0-1.1,0.1-2.2,0.3-3.2C416.2,534.9,414.5,534.5,412.7,534.2"/>
	<path class="st88" d="M400.6,583.2c7.2,8.4,12.3,18.7,14.5,30c1.7-0.4,3.3-0.8,4.8-1.4c-1.2-6.1-3.2-11.9-5.8-17.2
		C409.8,591,405.3,587.2,400.6,583.2 M369.6,557.9c-0.7,1.5-1.2,3.1-1.7,4.7c6.7,1.8,13,4.6,18.6,8.2c-4.2-3.8-8.6-7.7-13-11.8
		C372.2,558.7,370.9,558.3,369.6,557.9"/>
	<path class="st89" d="M373.5,559.1c4.4,4.1,8.8,8,13,11.8c3.9,2.5,7.4,5.4,10.7,8.6c1.2,1.2,2.3,2.4,3.4,3.6
		c4.7,4.1,9.2,7.9,13.5,11.3C405.8,577.9,391.3,565,373.5,559.1"/>
	<path class="st90" d="M423.2,552.3l-0.1,0.4c1.7,1.8,3.8,3.4,6.1,4.5C427.4,555.8,425.4,554.1,423.2,552.3"/>
	<path class="st91" d="M421.9,551.2c0.4,0.5,0.8,1,1.3,1.5l0.1-0.4C422.8,552,422.3,551.6,421.9,551.2"/>
	<path class="st92" d="M440.2,552.1l1.5,6.7c0.6-0.1,1.2-0.3,1.8-0.4C442.6,556.2,441.5,554.1,440.2,552.1 M417.6,538.6
		c0,0.1,0,0.1,0,0.2c0,4.7,1.6,9,4.3,12.5c0.5,0.4,0.9,0.7,1.3,1.1c2.2,1.8,4.2,3.4,6,4.9c2.6,1.2,5.6,1.9,8.7,1.9
		c1,0,1.9-0.1,2.9-0.2C437.8,556.3,429.1,548.8,417.6,538.6"/>
	<path class="st93" d="M417.9,535.4c-0.2,1-0.3,2.1-0.3,3.2c11.5,10.3,20.2,17.7,23.2,20.4c0.3,0,0.6-0.1,0.9-0.2l-1.5-6.7
		c-1.5-2.3-3.1-4.4-5-6.3c-2.2-1.8-4.9-3.8-7.8-6.2C424.5,537.8,421.3,536.4,417.9,535.4"/>
	<path class="st94" d="M427.4,539.6c2.9,2.4,5.5,4.4,7.8,6.2c0,0,0,0,0,0C433,544.1,430.3,542,427.4,539.6
		C427.4,539.6,427.4,539.6,427.4,539.6"/>
	<path class="st77" d="M427.4,539.6c2.9,2.4,5.5,4.4,7.8,6.2C432.9,543.5,430.3,541.4,427.4,539.6"/>
	<path class="st1" d="M314.4,649.1c2.8,8.2,10.4,14.2,19.5,14.4L314.4,649.1"/>
	<path class="st61" d="M334.5,621c-11.7,0-21.3,9.5-21.3,21.3c0,2.4,0.4,4.7,1.1,6.8l19.5,14.4c0.2,0,0.4,0,0.6,0
		c10.3,0,18.8-7.3,20.8-16.9h-4l-4.4-7.6l4.4-7.6h1.5C349.1,625.2,342.3,621,334.5,621"/>
	<path class="st62" d="M352.8,631.4h-1.5l-4.4,7.6l4.4,7.6h4c0.3-1.4,0.4-2.8,0.4-4.3C355.7,638.3,354.7,634.6,352.8,631.4"/>
	<path class="st61" d="M599.6,361.7c-1.9,0-3.6,0.3-5.3,0.9l19.6,24.6c1.5-2.5,2.4-5.5,2.4-8.7c0-0.6,0-1.2-0.1-1.7
		c-6.7-2.9-12-8.2-14.9-14.9C600.8,361.7,600.2,361.7,599.6,361.7"/>
	<path class="st81" d="M594.3,362.6c-6.6,2.2-11.3,8.3-11.5,15.6l0.5,0.7l10.2,12.9l2.4,3.1c1.2,0.3,2.4,0.4,3.6,0.4
		c6.1,0,11.4-3.2,14.3-8.1L594.3,362.6"/>
	<path class="st86" d="M583.4,378.8l-0.5,0.2c0.2,5.7,3.2,10.7,7.7,13.5l3-0.8L583.4,378.8"/>
	<path class="st87" d="M593.6,391.7l-3,0.8c1.6,1,3.4,1.8,5.4,2.2L593.6,391.7 M582.9,378.1c0,0.1,0,0.2,0,0.3c0,0.2,0,0.4,0,0.6
		l0.5-0.2L582.9,378.1"/>
	<path class="st88" d="M601.4,361.8c2.9,6.7,8.2,12,14.9,14.9C615.5,368.8,609.2,362.6,601.4,361.8"/>
	<path class="st95" d="M610.4,314.9c-15.8,0-30,7.2-39.3,18.5l1.9,2.4c1.1-1.4,2.3-2.7,3.5-3.9c8.7-8.7,20.6-14,33.9-14
		c1.5,0,3,0.1,4.5,0.2c-0.9-1.1-1.8-2.1-2.7-3.2C611.6,315,611,314.9,610.4,314.9"/>
	<path class="st96" d="M612.2,315c0.9,1.1,1.8,2.1,2.7,3.2c1.8,0.2,3.7,0.4,5.4,0.8c-0.6-1.1-1.2-2.2-1.8-3.4
		C616.4,315.3,614.3,315,612.2,315"/>
	<path class="st97" d="M571.1,333.5c-4.2,5.1-7.5,11.1-9.5,17.7l2.3,2.9c1.7-6.7,4.8-12.9,9.1-18.2L571.1,333.5"/>
	<polyline class="st98" points="561.7,351.2 561.7,351.2 564,354.1 564,354.1 561.7,351.2 	"/>
	<path class="st95" d="M629.5,409.8c-1,0.4-2.1,0.9-3.1,1.2v3.2c1.2-0.4,2.3-0.8,3.5-1.3C629.8,411.9,629.6,410.8,629.5,409.8"/>
	<path class="st96" d="M657.2,355.5c0.7,3.3,1.1,6.8,1.1,10.3c0,1.6-0.1,3.1-0.2,4.6c1-0.1,2-0.1,3-0.1c0.1-1.5,0.2-3,0.2-4.5
		c0-2.9-0.2-5.8-0.7-8.5C659.5,356.7,658.3,356.1,657.2,355.5"/>
	<path class="st99" d="M637.5,405.4c-2.5,1.7-5.2,3.2-8,4.4c0.1,1,0.2,2.1,0.3,3.1c2.7-1.1,5.2-2.4,7.6-3.9V405.4"/>
	<path class="st100" d="M661.1,370.3c-1,0-2,0.1-3,0.1c0,0,0,0,0,0C659.1,370.4,660.1,370.4,661.1,370.3
		C661.1,370.3,661.1,370.3,661.1,370.3"/>
	<path class="st101" d="M661.1,370.3c-1,0-2,0.1-3,0.1c-1.1,11.4-6.2,21.6-13.8,29.3c-2.1,2.1-4.4,4-6.8,5.6v3.6l0,0v-1
		c0.8-0.2,1.6-0.4,2.4-0.6C651.7,399,659.8,385.6,661.1,370.3"/>
	<path class="st102" d="M639.9,407.4c-0.8,0.2-1.6,0.4-2.4,0.6v1C638.3,408.5,639.1,407.9,639.9,407.4"/>
	<path class="st103" d="M626.4,411c-1.5,0.5-3,1-4.5,1.4c-0.6,1.2-1.2,2.3-1.8,3.5c2.2-0.4,4.3-1,6.3-1.6V411"/>
	<path class="st97" d="M621.9,412.4c-3.7,0.9-7.5,1.4-11.4,1.4c-2.1,0-4.2-0.1-6.2-0.4c-0.5,0.9-0.9,1.7-1.4,2.6l0.4,0.3
		c2.4,0.3,4.8,0.5,7.3,0.5c3.3,0,6.5-0.3,9.7-0.9C620.7,414.7,621.3,413.5,621.9,412.4"/>
	<path class="st98" d="M596.9,411.8l5.8,4.1c0.5-0.9,1-1.7,1.4-2.6C601.7,413,599.3,412.5,596.9,411.8 M566.8,385.7l-2.8,1.2
		c0.4,0.9,0.8,1.7,1.3,2.6l6.3,4.4C569.7,391.3,568.1,388.6,566.8,385.7 M562.5,365.9H561h-1.5c0,1.2,0,2.4,0.1,3.6l2.9-1.5
		C562.5,367.3,562.5,366.6,562.5,365.9 M563.1,358.5c-1,0.2-2,0.4-3.1,0.6c-0.3,2.2-0.4,4.5-0.4,6.8h1.5h1.5
		C562.5,363.3,562.7,360.9,563.1,358.5"/>
	<path class="st104" d="M562.6,367.9l-2.9,1.5c0.4,6.2,2,12,4.4,17.4l2.8-1.2C564.3,380.3,562.8,374.3,562.6,367.9"/>
	<path class="st105" d="M561.7,351.2c-0.8,2.6-1.3,5.2-1.7,7.9c1.1-0.2,2.1-0.4,3.1-0.6c0.2-1.5,0.5-3,0.9-4.4L561.7,351.2"/>
	<path class="st106" d="M602.8,416c0,0.1-0.1,0.1-0.1,0.2c0.2,0,0.3,0.1,0.5,0.1L602.8,416"/>
	<path class="st107" d="M595.3,411.3l-5.7,1c4.1,1.8,8.5,3.1,13,3.8c0-0.1,0.1-0.1,0.1-0.2l-5.8-4.1
		C596.4,411.7,595.8,411.5,595.3,411.3 M565.3,389.4c1.6,3.1,3.5,6,5.7,8.6l3.2-0.9c-0.9-1.1-1.8-2.2-2.6-3.3L565.3,389.4"/>
	<path class="st108" d="M574.2,397.2l-3.2,0.9c5,6.1,11.4,11,18.6,14.3l5.7-1c-7.2-2.4-13.6-6.4-18.8-11.6
		C575.7,398.9,574.9,398.1,574.2,397.2"/>
	<path class="st109" d="M618.5,315.6c0.6,1.1,1.2,2.3,1.8,3.4c3.5,0.7,6.8,1.8,10,3.3c1,0.1,2,0.2,2.9,0.4c-1.2-1.3-2.3-2.6-3.5-4
		C626.1,317.3,622.4,316.2,618.5,315.6"/>
	<path class="st110" d="M629.7,318.7c1.2,1.3,2.3,2.6,3.5,4c3.5,0.7,6.7,2,9.6,3.9C638.9,323.3,634.5,320.7,629.7,318.7"/>
	<path class="st109" d="M655.9,349.6c0,0.3,0,0.6,0,1c0,0.1,0,0.2,0,0.4c0.5,1.5,0.9,3,1.3,4.6c1.1,0.6,2.3,1.2,3.4,1.8
		c-0.1-0.8-0.3-1.7-0.5-2.5C658.8,353.1,657.4,351.3,655.9,349.6"/>
	<path class="st110" d="M653.1,338c1.7,3.5,2.7,7.4,2.9,11.6c1.4,1.7,2.8,3.5,4.2,5.2C658.8,348.7,656.4,343.1,653.1,338"/>
	<path class="st111" d="M655.1,348.6c0.3,0.8,0.6,1.6,0.8,2.4c0-0.1,0-0.2,0-0.4c0-0.3,0-0.6,0-1
		C655.7,349.3,655.4,348.9,655.1,348.6 M630.3,322.2c1.6,0.7,3.2,1.6,4.7,2.5c-0.6-0.7-1.2-1.3-1.8-2
		C632.2,322.5,631.3,322.3,630.3,322.2"/>
	<path class="st112" d="M633.2,322.7c0.6,0.7,1.2,1.3,1.8,2c3.4,2,6.5,4.5,9.3,7.3c4.7,4.7,8.4,10.3,10.8,16.6
		c0.3,0.3,0.6,0.7,0.8,1c-0.1-4.1-1.2-8.1-2.9-11.6c-1.2-1.8-2.5-3.5-3.9-5.2c-2.3-1.5-4.2-3.5-5.8-5.8c-0.2-0.2-0.4-0.4-0.7-0.5
		C639.9,324.7,636.7,323.4,633.2,322.7"/>
	<path class="st113" d="M643.4,327.1c1.5,2.3,3.5,4.2,5.8,5.8C647.4,330.8,645.5,328.9,643.4,327.1"/>
	<polygon class="st1" points="618.7,467.6 567.8,418.3 592.1,484.8 565.7,419.1 560.9,489.8 563.5,419 530.4,481.6 561.6,418 
		505.8,461.7 560.2,416.3 491.5,433.5 559.6,414.1 489.8,402 559.9,411.9 501.2,372.5 561.1,410.1 523.5,350.1 563,408.9 553,338.8 
		565.2,408.5 584.6,340.4 567.3,409.1 612.7,354.8 569,410.5 632.6,379.4 570.1,412.5 640.8,409.9 570.2,414.7 635.9,441.1 
		569.4,416.8 	"/>
</g>
</svg>
