<?xml version="1.0" encoding="utf-8"?>
<!-- Generator: Adobe Illustrator 19.1.0, SVG Export Plug-In . SVG Version: 6.00 Build 0)  -->
<svg version="1.1" id="Layer_1" xmlns="http://www.w3.org/2000/svg" xmlns:xlink="http://www.w3.org/1999/xlink" x="0px" y="0px"
	 viewBox="-165 257 280 280" style="enable-background:new -165 257 280 280;" xml:space="preserve">
<style type="text/css">
	.st0{fill:#545454;}
	.st1{fill:#EEEEEE;}
	.st2{fill:#333333;}
	.st3{fill:#C9C9C9;}
	.st4{fill:#FFFFFF;}
</style>
<g id="background">
</g>
<circle class="st0" cx="-22.9" cy="398.4" r="105.1"/>
<circle class="st1" cx="-22.9" cy="398.4" r="85.5"/>
<circle class="st0" cx="-22.9" cy="398.4" r="66.9"/>
<circle class="st1" cx="-22.9" cy="398.4" r="49.2"/>
<circle class="st0" cx="-22.9" cy="398.4" r="30.1"/>
<circle class="st1" cx="-22.9" cy="398.4" r="12.7"/>
<path class="st2" d="M54.9,469.3L41,455.4c-1.7,1.9-3.7,3.9-5.6,5.6l13.9,13.9C51.2,473.1,53,471.3,54.9,469.3z"/>
<path class="st3" d="M22.2,447.9l13.3,13.3c1.9-1.8,3.8-3.7,5.6-5.6l-13.3-13.3C26,444.2,24.2,446.1,22.2,447.9z"/>
<path class="st2" d="M27.7,442.2l-12.5-12.5c-1.7,2.1-3.5,3.9-5.5,5.7l12.5,12.5C24.2,446.1,26,444.2,27.7,442.2z"/>
<path class="st3" d="M-4,421.8l13.5,13.5c1.9-1.7,3.8-3.7,5.5-5.7L1.5,416C-0.1,418.2-1.9,420.1-4,421.8z"/>
<path class="st2" d="M1.5,416l-12.7-12.7c-1.1,2.6-2.9,4.6-5.2,6l12.5,12.5C-1.9,420.1-0.1,418.2,1.5,416z"/>
<path class="st3" d="M-25.1,395c-0.7,0.7-1.2,1.8-1.2,2.8c0,1,0.4,2.1,1.2,2.8l8.6,8.6c2.3-1.3,4.1-3.4,5.2-6l-8.3-8.3
	C-21,393.6-23.5,393.6-25.1,395z"/>
<path class="st4" d="M91.5,308.7l-20.2-3.8l0,0l-3.8-20.2L50,302.2l2.8,15L-25.1,395c-1.6,1.6-1.6,4,0,5.6c0.7,0.7,1.8,1.2,2.8,1.2
	s2.1-0.4,2.8-1.2L58,323.1l16,2.9L91.5,308.7z"/>
</svg>
