<svg xmlns="http://www.w3.org/2000/svg" width="80" height="80" fill="none" viewBox="0 0 80 80">
    <path fill="#FF674F" d="M40 80c22.091 0 40-17.909 40-40S62.091 0 40 0 0 17.909 0 40s17.909 40 40 40z"/>
    <path fill="#E8614C" d="M31.5 79L27 68.5 40 41l4.5-17 7-11.5 21.564 50.246C67.935 69.856 57.308 79.497 40.5 80c-1.023 0-6 0-9-1z"/>
    <path fill="#E9F4FF" d="M51.787 25.405V14.687H28.349v10.718s-.389 6.058 4.534 8.832c3.16 1.78 6.304 3.888 6.294 5.763h1.296c-.01-1.875 3.378-3.982 6.537-5.763 4.922-2.774 4.777-8.832 4.777-8.832z"/>
    <path fill="#E9F4FF" d="M28.35 54.827v10.486h23.436V54.826s.147-6.174-4.775-8.949c-3.16-1.78-6.546-4.003-6.535-5.878H39.179c.01 1.875-3.136 4.098-6.295 5.878-4.922 2.774-4.535 8.949-4.535 8.949z"/>
    <path fill="#334D5C" d="M53.662 12.266c0 .733-.595 1.328-1.328 1.328H27.802a1.328 1.328 0 0 1 0-2.656h24.532c.733 0 1.328.594 1.328 1.328z"/>
    <path fill="#233540" d="M52.494 14.14c0 .342-.395.547-.878.547h-23.58c-.483 0-.877-.204-.877-.546 0-.342.394-.547.878-.547h23.579c.483 0 .878.205.878.547zM52.494 65.86c0 .34-.395.546-.878.546h-23.58c-.483 0-.877-.205-.877-.547 0-.341.394-.546.878-.546h23.579c.483 0 .878.205.878.546z"/>
    <path fill="#334D5C" d="M53.662 67.734c0 .734-.595 1.329-1.328 1.329H27.802a1.328 1.328 0 0 1 0-2.657h24.532c.733 0 1.328.595 1.328 1.328z"/>
    <path fill="#F7D291" d="M28.492 65.313s5.066-7.072 11.333-7.072c6.268 0 11.336 7.072 11.336 7.072H28.49zM38.582 30.338c-4.006-1.416-7.056-1.898-9.292-1.961.482 1.765 1.538 3.914 3.858 5.222 3.296 1.857 5.74 3.49 6.677 5.1.937-1.609 3.382-3.243 6.678-5.1 1.505-.848 2.477-2.057 3.108-3.285-2.507 1.129-6.164 1.744-11.029.024z"/>
    <path fill="#F7D291" d="M39.559 37.9l.134 20.616c.002.344.535.344.533 0l-.134-20.617c-.002-.344-.536-.344-.533 0z"/>
    <path fill="#F7D291" d="M40.226 58.458L40.106 40h-.533l.12 18.429c.002.343.536.373.533.029z"/>
</svg>
