<?xml version="1.0" encoding="utf-8"?>
<!-- Generator: Adobe Illustrator 19.1.0, SVG Export Plug-In . SVG Version: 6.00 Build 0)  -->
<svg version="1.1" id="Layer_1" xmlns="http://www.w3.org/2000/svg" xmlns:xlink="http://www.w3.org/1999/xlink" x="0px" y="0px"
	 viewBox="0 0 500 500" style="enable-background:new 0 0 500 500;" xml:space="preserve">
<style type="text/css">
	.st0{fill:#FFFFFF;}
	.st1{fill:#F1606C;}
	.st2{clip-path:url(#SVGID_2_);}
	.st3{fill:#8D333C;}
	.st4{fill:#00BFDF;}
	.st5{fill:#FFE56B;}
</style>
<rect class="st0" width="500" height="500"/>
<circle class="st1" cx="250" cy="250" r="160"/>
<g>
	<defs>
		<circle id="SVGID_1_" cx="250" cy="250" r="160"/>
	</defs>
	<clipPath id="SVGID_2_">
		<use xlink:href="#SVGID_1_"  style="overflow:visible;"/>
	</clipPath>
	<g class="st2">
		<path class="st3" d="M426.8,333c-26.6,0-52,11.4-69.9,31.3c-0.3,0.3-0.6,0.7-0.7,0.9c-14.9,17.1-23.2,39-23.2,61.6
			c0,51.7,42.1,93.8,93.8,93.8c51.7,0,93.7-42.1,93.7-93.8S478.5,333,426.8,333z"/>
		<path class="st3" d="M426.1,332.3c-26.6,0-52,11.4-69.9,31.3c-0.3,0.3-0.6,0.7-0.7,0.9c-14.9,17.1-23.2,39-23.2,61.6
			c0,51.7,42.1,93.8,93.8,93.8c51.7,0,93.8-42.1,93.8-93.8S477.8,332.3,426.1,332.3z"/>
		<path class="st3" d="M425.4,331.6c-26.6,0-52,11.4-69.9,31.3c-0.3,0.3-0.6,0.7-0.7,0.9c-14.9,17.1-23.2,39-23.2,61.6
			c0,51.7,42.1,93.8,93.8,93.8c51.7,0,93.8-42.1,93.8-93.8S477.1,331.6,425.4,331.6z"/>
		<path class="st3" d="M424.7,330.9c-26.6,0-52,11.4-69.9,31.3c-0.3,0.3-0.6,0.7-0.7,0.9c-14.9,17.1-23.2,39-23.2,61.6
			c0,51.7,42.1,93.8,93.8,93.8c51.7,0,93.8-42.1,93.8-93.8S476.4,330.9,424.7,330.9z"/>
		<path class="st3" d="M424,330.2c-26.6,0-52,11.4-69.9,31.3c-0.3,0.3-0.6,0.7-0.7,0.9c-14.9,17.1-23.2,39-23.2,61.6
			c0,51.7,42.1,93.7,93.8,93.7c51.7,0,93.7-42.1,93.7-93.7S475.7,330.2,424,330.2z"/>
		<path class="st3" d="M423.3,329.5c-26.6,0-52,11.4-69.9,31.3c-0.3,0.3-0.6,0.7-0.7,0.9c-14.9,17.1-23.2,39-23.2,61.6
			c0,51.7,42.1,93.8,93.7,93.8c51.7,0,93.8-42.1,93.8-93.8S474.9,329.5,423.3,329.5z"/>
		<path class="st3" d="M422.5,328.8c-26.6,0-52,11.4-69.9,31.3c-0.3,0.3-0.6,0.7-0.7,0.9c-14.9,17.1-23.2,39-23.2,61.6
			c0,51.7,42.1,93.8,93.7,93.8c51.7,0,93.8-42.1,93.8-93.8S474.2,328.8,422.5,328.8z"/>
		<path class="st3" d="M421.8,328.1c-26.6,0-52,11.4-69.9,31.3c-0.3,0.3-0.6,0.7-0.7,0.9c-14.9,17.1-23.2,39-23.2,61.6
			c0,51.7,42.1,93.8,93.8,93.8c51.7,0,93.8-42.1,93.8-93.8S473.5,328.1,421.8,328.1z"/>
		<path class="st3" d="M421.1,327.4c-26.6,0-52,11.4-69.9,31.3c-0.3,0.3-0.6,0.7-0.7,0.9c-14.9,17.1-23.2,39-23.2,61.6
			c0,51.7,42.1,93.8,93.8,93.8c51.7,0,93.8-42.1,93.8-93.8S472.8,327.4,421.1,327.4z"/>
		<path class="st3" d="M420.4,326.7c-26.6,0-52,11.4-69.9,31.3c-0.3,0.3-0.6,0.7-0.7,0.9c-14.9,17.1-23.2,39-23.2,61.6
			c0,51.7,42.1,93.8,93.8,93.8c51.7,0,93.8-42.1,93.8-93.8S472.1,326.7,420.4,326.7z"/>
		<path class="st3" d="M419.7,326c-26.6,0-52,11.4-69.9,31.3c-0.3,0.3-0.6,0.7-0.7,0.9c-14.9,17.1-23.2,39-23.2,61.6
			c0,51.7,42.1,93.8,93.8,93.8c51.7,0,93.7-42.1,93.7-93.8S471.4,326,419.7,326z"/>
		<path class="st3" d="M419,325.3c-26.6,0-52,11.4-69.9,31.3c-0.3,0.3-0.6,0.7-0.7,0.9c-14.9,17.1-23.2,39-23.2,61.6
			c0,51.7,42.1,93.8,93.8,93.8c51.7,0,93.7-42.1,93.7-93.8S470.7,325.3,419,325.3z"/>
		<path class="st3" d="M418.3,324.6c-26.6,0-52,11.4-69.9,31.3c-0.3,0.3-0.6,0.7-0.7,0.9c-14.9,17.1-23.2,39-23.2,61.6
			c0,51.7,42.1,93.8,93.8,93.8c51.7,0,93.7-42.1,93.7-93.8S470,324.6,418.3,324.6z"/>
		<path class="st3" d="M417.6,323.9c-26.6,0-52,11.4-69.9,31.3c-0.3,0.3-0.6,0.7-0.7,0.9c-14.9,17.1-23.2,39-23.2,61.6
			c0,51.7,42.1,93.8,93.8,93.8c51.7,0,93.8-42.1,93.8-93.8S469.3,323.9,417.6,323.9z"/>
		<path class="st3" d="M416.9,323.2c-26.6,0-52,11.4-69.9,31.3c-0.3,0.3-0.6,0.7-0.7,0.9c-14.9,17.1-23.2,39-23.2,61.6
			c0,51.7,42.1,93.8,93.8,93.8c51.7,0,93.8-42.1,93.8-93.8S468.6,323.2,416.9,323.2z"/>
		<path class="st3" d="M416.2,322.5c-26.6,0-52,11.4-69.9,31.3c-0.3,0.3-0.6,0.7-0.7,0.9c-14.9,17.1-23.2,39-23.2,61.6
			c0,51.7,42.1,93.8,93.7,93.8c51.7,0,93.8-42.1,93.8-93.8C510,364.5,467.9,322.5,416.2,322.5z"/>
		<path class="st3" d="M415.5,321.8c-26.6,0-52,11.4-69.9,31.3c-0.3,0.3-0.6,0.7-0.7,0.9c-14.9,17.1-23.2,39-23.2,61.6
			c0,51.7,42.1,93.8,93.7,93.8c51.7,0,93.8-42.1,93.8-93.8S467.2,321.8,415.5,321.8z"/>
		<path class="st3" d="M414.8,321.1c-26.6,0-52,11.4-69.9,31.3c-0.3,0.3-0.6,0.7-0.7,0.9c-14.9,17.1-23.2,39-23.2,61.6
			c0,51.7,42.1,93.8,93.8,93.8c51.7,0,93.7-42.1,93.7-93.8S466.5,321.1,414.8,321.1z"/>
		<path class="st3" d="M414.1,320.3c-26.6,0-52,11.4-69.9,31.3c-0.3,0.3-0.6,0.7-0.7,0.9c-14.9,17.1-23.2,39-23.2,61.6
			c0,51.7,42.1,93.8,93.8,93.8c51.7,0,93.8-42.1,93.8-93.8S465.8,320.3,414.1,320.3z"/>
		<path class="st3" d="M413.4,319.6c-26.6,0-52,11.4-69.9,31.3c-0.3,0.3-0.6,0.7-0.7,0.9c-14.9,17.1-23.2,39-23.2,61.6
			c0,51.7,42.1,93.8,93.8,93.8c51.7,0,93.8-42.1,93.8-93.8S465.1,319.6,413.4,319.6z"/>
		<path class="st3" d="M412.7,318.9c-26.6,0-52,11.4-69.9,31.3c-0.3,0.3-0.6,0.7-0.7,0.9c-14.9,17.1-23.2,39-23.2,61.6
			c0,51.7,42.1,93.8,93.8,93.8c51.7,0,93.8-42.1,93.8-93.8S464.4,318.9,412.7,318.9z"/>
		<path class="st3" d="M412,318.2c-26.6,0-52,11.4-69.9,31.3c-0.3,0.3-0.6,0.7-0.7,0.9c-14.9,17.1-23.2,39-23.2,61.6
			c0,51.7,42.1,93.8,93.8,93.8c51.7,0,93.8-42.1,93.8-93.8C505.7,360.3,463.7,318.2,412,318.2z"/>
		<path class="st3" d="M411.3,317.5c-26.6,0-52,11.4-69.9,31.3c-0.3,0.3-0.6,0.7-0.7,0.9c-14.9,17.1-23.2,39-23.2,61.6
			c0,51.7,42.1,93.8,93.8,93.8C463,505,505,463,505,411.3C505,359.6,463,317.5,411.3,317.5z"/>
		<path class="st3" d="M410.6,316.8c-26.6,0-52,11.4-69.9,31.3c-0.3,0.3-0.6,0.7-0.7,0.9c-14.9,17.1-23.2,39-23.2,61.6
			c0,51.7,42.1,93.8,93.8,93.8c51.7,0,93.8-42.1,93.8-93.8C504.3,358.9,462.3,316.8,410.6,316.8z"/>
		<path class="st3" d="M409.9,316.1c-26.6,0-52,11.4-69.9,31.3c-0.3,0.3-0.6,0.7-0.7,0.9c-14.9,17.1-23.2,39-23.2,61.6
			c0,51.7,42.1,93.8,93.8,93.8c51.7,0,93.8-42.1,93.8-93.8C503.6,358.2,461.6,316.1,409.9,316.1z"/>
		<path class="st3" d="M409.2,315.4c-26.6,0-52,11.4-69.9,31.3c-0.3,0.3-0.6,0.7-0.7,0.9c-14.9,17.1-23.2,39-23.2,61.6
			c0,51.7,42.1,93.8,93.8,93.8c51.7,0,93.8-42.1,93.8-93.8C502.9,357.5,460.9,315.4,409.2,315.4z"/>
		<path class="st3" d="M408.5,314.7c-26.6,0-52,11.4-69.9,31.3c-0.3,0.3-0.6,0.7-0.7,0.9c-14.9,17.1-23.2,39-23.2,61.6
			c0,51.7,42.1,93.8,93.8,93.8c51.7,0,93.8-42.1,93.8-93.8S460.2,314.7,408.5,314.7z"/>
		<path class="st3" d="M407.8,314c-26.6,0-52,11.4-69.9,31.3c-0.3,0.3-0.6,0.7-0.7,0.9c-14.9,17.1-23.2,39-23.2,61.6
			c0,51.7,42.1,93.8,93.8,93.8c51.7,0,93.8-42.1,93.8-93.8S459.5,314,407.8,314z"/>
		<path class="st3" d="M407.1,313.3c-26.6,0-52,11.4-69.9,31.3c-0.3,0.3-0.6,0.7-0.7,0.9c-14.9,17.1-23.2,39-23.2,61.6
			c0,51.7,42.1,93.8,93.8,93.8c51.7,0,93.8-42.1,93.8-93.8S458.8,313.3,407.1,313.3z"/>
		<path class="st3" d="M406.4,312.6c-26.6,0-52,11.4-69.9,31.3c-0.3,0.3-0.6,0.7-0.7,0.9c-14.9,17.1-23.2,39-23.2,61.6
			c0,51.7,42.1,93.8,93.8,93.8c51.7,0,93.8-42.1,93.8-93.8S458,312.6,406.4,312.6z"/>
		<path class="st3" d="M405.6,311.9c-26.6,0-52,11.4-69.9,31.3c-0.3,0.3-0.6,0.7-0.7,0.9c-14.9,17.1-23.2,39-23.2,61.6
			c0,51.7,42.1,93.8,93.8,93.8c51.7,0,93.8-42.1,93.8-93.8C499.4,354,457.3,311.9,405.6,311.9z"/>
		<path class="st3" d="M404.9,311.2c-26.6,0-52,11.4-69.9,31.3c-0.3,0.3-0.6,0.7-0.7,0.9c-14.9,17.1-23.2,39-23.2,61.6
			c0,51.7,42.1,93.8,93.8,93.8c51.7,0,93.8-42.1,93.8-93.8S456.6,311.2,404.9,311.2z"/>
		<path class="st3" d="M404.2,310.5c-26.6,0-52,11.4-69.9,31.3c-0.3,0.3-0.6,0.7-0.7,0.9c-14.9,17.1-23.2,39-23.2,61.6
			c0,51.7,42.1,93.8,93.8,93.8c51.7,0,93.8-42.1,93.8-93.8S455.9,310.5,404.2,310.5z"/>
		<path class="st3" d="M403.5,309.8c-26.6,0-52,11.4-69.9,31.3c-0.3,0.3-0.6,0.7-0.7,0.9c-14.9,17.1-23.2,39-23.2,61.6
			c0,51.7,42.1,93.8,93.8,93.8c51.7,0,93.8-42.1,93.8-93.8S455.2,309.8,403.5,309.8z"/>
		<path class="st3" d="M402.8,309.1c-26.6,0-52,11.4-69.9,31.3c-0.3,0.3-0.6,0.7-0.7,0.9c-14.9,17.1-23.2,39-23.2,61.6
			c0,51.7,42.1,93.8,93.8,93.8c51.7,0,93.8-42.1,93.8-93.8S454.5,309.1,402.8,309.1z"/>
		<path class="st3" d="M402.1,308.4c-26.6,0-52,11.4-69.9,31.3c-0.3,0.3-0.6,0.7-0.7,0.9c-14.9,17.1-23.2,39-23.2,61.6
			c0,51.7,42.1,93.8,93.8,93.8c51.7,0,93.8-42.1,93.8-93.8S453.8,308.4,402.1,308.4z"/>
		<path class="st3" d="M401.4,307.7c-26.6,0-52,11.4-69.9,31.3c-0.3,0.3-0.6,0.7-0.7,0.9c-14.9,17.1-23.2,39-23.2,61.6
			c0,51.7,42.1,93.8,93.8,93.8c51.7,0,93.8-42.1,93.8-93.8S453.1,307.7,401.4,307.7z"/>
		<path class="st3" d="M400.7,307c-26.6,0-52,11.4-69.9,31.3c-0.3,0.3-0.6,0.7-0.7,0.9c-14.9,17.1-23.2,39-23.2,61.6
			c0,51.7,42.1,93.8,93.8,93.8c51.7,0,93.8-42.1,93.8-93.8S452.4,307,400.7,307z"/>
		<path class="st3" d="M400,306.3c-26.6,0-52,11.4-69.9,31.3c-0.3,0.3-0.6,0.7-0.7,0.9c-14.9,17.1-23.2,39-23.2,61.6
			c0,51.7,42.1,93.8,93.8,93.8c51.7,0,93.8-42.1,93.8-93.8S451.7,306.3,400,306.3z"/>
		<path class="st3" d="M399.3,305.6c-26.6,0-52,11.4-69.9,31.3c-0.3,0.3-0.6,0.7-0.7,0.9c-14.9,17.1-23.2,39-23.2,61.6
			c0,51.7,42.1,93.8,93.8,93.8c51.7,0,93.8-42.1,93.8-93.8S451,305.6,399.3,305.6z"/>
		<path class="st3" d="M398.6,304.9c-26.6,0-52,11.4-69.9,31.3c-0.3,0.3-0.6,0.7-0.7,0.9c-14.9,17.1-23.2,39-23.2,61.6
			c0,51.7,42.1,93.8,93.8,93.8c51.7,0,93.8-42.1,93.8-93.8S450.3,304.9,398.6,304.9z"/>
		<path class="st3" d="M397.9,304.2c-26.6,0-52,11.4-69.9,31.3c-0.3,0.3-0.6,0.7-0.7,0.9c-14.9,17.1-23.2,39-23.2,61.6
			c0,51.7,42.1,93.8,93.8,93.8c51.7,0,93.8-42.1,93.8-93.8S449.6,304.2,397.9,304.2z"/>
		<path class="st3" d="M397.2,303.4c-26.6,0-52,11.4-69.9,31.3c-0.3,0.3-0.6,0.7-0.7,0.9c-14.9,17.1-23.2,39-23.2,61.6
			c0,51.7,42.1,93.8,93.8,93.8c51.7,0,93.8-42.1,93.8-93.8S448.9,303.4,397.2,303.4z"/>
		<path class="st3" d="M396.5,302.7c-26.6,0-52,11.4-69.9,31.3c-0.3,0.3-0.6,0.7-0.7,0.9c-14.9,17.1-23.2,39-23.2,61.6
			c0,51.7,42.1,93.8,93.8,93.8c51.7,0,93.8-42.1,93.8-93.8S448.2,302.7,396.5,302.7z"/>
		<path class="st3" d="M395.8,302c-26.6,0-52,11.4-69.9,31.3c-0.3,0.3-0.6,0.7-0.7,0.9c-14.9,17.1-23.2,39-23.2,61.6
			c0,51.7,42.1,93.8,93.8,93.8c51.7,0,93.8-42.1,93.8-93.8S447.5,302,395.8,302z"/>
		<path class="st3" d="M395.1,301.3c-26.6,0-52,11.4-69.9,31.3c-0.3,0.3-0.6,0.7-0.7,0.9c-14.9,17.1-23.2,39-23.2,61.6
			c0,51.7,42.1,93.8,93.8,93.8c51.7,0,93.8-42.1,93.8-93.8S446.8,301.3,395.1,301.3z"/>
		<path class="st3" d="M394.4,300.6c-26.6,0-52,11.4-69.9,31.3c-0.3,0.3-0.6,0.7-0.7,0.9c-14.9,17.1-23.2,39-23.2,61.6
			c0,51.7,42.1,93.8,93.7,93.8c51.7,0,93.8-42.1,93.8-93.8S446.1,300.6,394.4,300.6z"/>
		<path class="st3" d="M393.7,299.9c-26.6,0-52,11.4-69.9,31.3c-0.3,0.3-0.6,0.7-0.7,0.9c-14.9,17.1-23.2,39-23.2,61.6
			c0,51.7,42.1,93.8,93.8,93.8c51.7,0,93.8-42.1,93.8-93.8S445.4,299.9,393.7,299.9z"/>
		<path class="st3" d="M393,299.2c-26.6,0-52,11.4-69.9,31.3c-0.3,0.3-0.6,0.7-0.7,0.9c-14.9,17.1-23.2,39-23.2,61.6
			c0,51.7,42.1,93.8,93.8,93.8c51.7,0,93.8-42.1,93.8-93.8S444.7,299.2,393,299.2z"/>
		<path class="st3" d="M392.3,298.5c-26.6,0-52,11.4-69.9,31.3c-0.3,0.3-0.6,0.7-0.7,0.9c-14.9,17.1-23.2,39-23.2,61.6
			c0,51.7,42.1,93.8,93.8,93.8C444,486,486,444,486,392.3S444,298.5,392.3,298.5z"/>
		<path class="st3" d="M391.6,297.8c-26.6,0-52,11.4-69.9,31.3c-0.3,0.3-0.6,0.7-0.7,0.9c-14.9,17.1-23.2,39-23.2,61.6
			c0,51.7,42.1,93.8,93.8,93.8c51.7,0,93.8-42.1,93.8-93.8S443.3,297.8,391.6,297.8z"/>
		<path class="st3" d="M390.9,297.1c-26.6,0-52,11.4-69.9,31.3c-0.3,0.3-0.6,0.7-0.7,0.9c-14.9,17.1-23.2,39-23.2,61.6
			c0,51.7,42.1,93.8,93.8,93.8c51.7,0,93.8-42.1,93.8-93.8S442.6,297.1,390.9,297.1z"/>
		<path class="st3" d="M390.2,296.4c-26.6,0-52,11.4-69.9,31.3c-0.3,0.3-0.6,0.7-0.7,0.9c-14.9,17.1-23.2,39-23.2,61.6
			c0,51.7,42.1,93.8,93.8,93.8c51.7,0,93.8-42.1,93.8-93.8C483.9,338.5,441.8,296.4,390.2,296.4z"/>
		<path class="st3" d="M389.4,295.7c-26.6,0-52,11.4-69.9,31.3c-0.3,0.3-0.6,0.7-0.7,0.9c-14.9,17.1-23.2,39-23.2,61.6
			c0,51.7,42.1,93.8,93.8,93.8c51.7,0,93.8-42.1,93.8-93.8C483.2,337.8,441.1,295.7,389.4,295.7z"/>
		<path class="st3" d="M388.7,295c-26.6,0-52,11.4-69.9,31.3c-0.3,0.3-0.6,0.7-0.7,0.9c-14.9,17.1-23.2,39-23.2,61.6
			c0,51.7,42.1,93.8,93.8,93.8c51.7,0,93.8-42.1,93.8-93.8C482.5,337,440.4,295,388.7,295z"/>
		<path class="st3" d="M388,294.3c-26.6,0-52,11.4-69.9,31.3c-0.3,0.3-0.6,0.7-0.7,0.9c-14.9,17.1-23.2,39-23.2,61.6
			c0,51.7,42.1,93.8,93.8,93.8c51.7,0,93.8-42.1,93.8-93.8C481.8,336.3,439.7,294.3,388,294.3z"/>
		<path class="st3" d="M387.3,293.6c-26.6,0-52,11.4-69.9,31.3c-0.3,0.3-0.6,0.7-0.7,0.9c-14.9,17.1-23.2,39-23.2,61.6
			c0,51.7,42.1,93.8,93.7,93.8c51.7,0,93.8-42.1,93.8-93.8C481.1,335.6,439,293.6,387.3,293.6z"/>
		<path class="st3" d="M386.6,292.9c-26.6,0-52,11.4-69.9,31.3c-0.3,0.3-0.6,0.7-0.7,0.9c-14.9,17.1-23.2,39-23.2,61.6
			c0,51.7,42.1,93.8,93.8,93.8c51.7,0,93.8-42.1,93.8-93.8C480.4,334.9,438.3,292.9,386.6,292.9z"/>
		<path class="st3" d="M385.9,292.2c-26.6,0-52,11.4-69.9,31.3c-0.3,0.3-0.6,0.7-0.7,0.9c-14.9,17.1-23.2,39-23.2,61.6
			c0,51.7,42.1,93.8,93.8,93.8c51.7,0,93.8-42.1,93.8-93.8C479.7,334.2,437.6,292.2,385.9,292.2z"/>
		<path class="st3" d="M385.2,291.5c-26.6,0-52,11.4-69.9,31.3c-0.3,0.3-0.6,0.7-0.7,0.9c-14.9,17.1-23.2,39-23.2,61.6
			c0,51.7,42.1,93.8,93.8,93.8c51.7,0,93.8-42.1,93.8-93.8C479,333.5,436.9,291.5,385.2,291.5z"/>
		<path class="st3" d="M384.5,290.8c-26.6,0-52,11.4-69.9,31.3c-0.3,0.3-0.6,0.7-0.7,0.9c-14.9,17.1-23.2,39-23.2,61.6
			c0,51.7,42.1,93.8,93.8,93.8c51.7,0,93.8-42.1,93.8-93.8C478.3,332.8,436.2,290.8,384.5,290.8z"/>
		<path class="st3" d="M383.8,290.1c-26.6,0-52,11.4-69.9,31.3c-0.3,0.3-0.6,0.7-0.7,0.9c-14.9,17.1-23.2,39-23.2,61.6
			c0,51.7,42.1,93.8,93.8,93.8c51.7,0,93.8-42.1,93.8-93.8C477.6,332.1,435.5,290.1,383.8,290.1z"/>
		<path class="st3" d="M383.1,289.4c-26.6,0-52,11.4-69.9,31.3c-0.3,0.3-0.6,0.7-0.7,0.9c-14.9,17.1-23.2,39-23.2,61.6
			c0,51.7,42.1,93.8,93.8,93.8c51.7,0,93.7-42.1,93.7-93.8S434.8,289.4,383.1,289.4z"/>
		<path class="st3" d="M382.4,288.7c-26.6,0-52,11.4-69.9,31.3c-0.3,0.3-0.6,0.7-0.7,0.9c-14.9,17.1-23.2,39-23.2,61.6
			c0,51.7,42.1,93.8,93.8,93.8c51.7,0,93.7-42.1,93.7-93.8S434.1,288.7,382.4,288.7z"/>
		<path class="st3" d="M381.7,288c-26.6,0-52,11.4-69.9,31.3c-0.3,0.3-0.6,0.7-0.7,0.9c-14.9,17.1-23.2,39-23.2,61.6
			c0,51.7,42.1,93.8,93.8,93.8c51.7,0,93.8-42.1,93.8-93.8S433.4,288,381.7,288z"/>
		<path class="st3" d="M381,287.2c-26.6,0-52,11.4-69.9,31.3c-0.3,0.3-0.6,0.7-0.7,0.9c-14.9,17.1-23.2,39-23.2,61.6
			c0,51.7,42.1,93.8,93.8,93.8c51.7,0,93.8-42.1,93.8-93.8S432.7,287.2,381,287.2z"/>
		<path class="st3" d="M380.3,286.5c-26.6,0-52,11.4-69.9,31.3c-0.3,0.3-0.6,0.7-0.7,0.9c-14.9,17.1-23.2,39-23.2,61.6
			c0,51.7,42.1,93.8,93.8,93.8C432,474,474,432,474,380.3S432,286.5,380.3,286.5z"/>
		<path class="st3" d="M379.6,285.8c-26.6,0-52,11.4-69.9,31.3c-0.3,0.3-0.6,0.7-0.7,0.9c-14.9,17.1-23.2,39-23.2,61.6
			c0,51.7,42.1,93.8,93.8,93.8c51.7,0,93.8-42.1,93.8-93.8S431.3,285.8,379.6,285.8z"/>
		<path class="st3" d="M378.9,285.1c-26.6,0-52,11.4-69.9,31.3c-0.3,0.3-0.6,0.7-0.7,0.9c-14.9,17.1-23.2,39-23.2,61.6
			c0,51.7,42.1,93.8,93.8,93.8c51.7,0,93.8-42.1,93.8-93.8S430.6,285.1,378.9,285.1z"/>
		<path class="st3" d="M378.2,284.4c-26.6,0-52,11.4-69.9,31.3c-0.3,0.3-0.6,0.7-0.7,0.9c-14.9,17.1-23.2,39-23.2,61.6
			c0,51.7,42.1,93.8,93.8,93.8c51.7,0,93.8-42.1,93.8-93.8S429.9,284.4,378.2,284.4z"/>
		<path class="st3" d="M377.5,283.7c-26.6,0-52,11.4-69.9,31.3c-0.3,0.3-0.6,0.7-0.7,0.9c-14.9,17.1-23.2,39-23.2,61.6
			c0,51.7,42.1,93.8,93.8,93.8c51.7,0,93.8-42.1,93.8-93.8S429.2,283.7,377.5,283.7z"/>
		<path class="st3" d="M376.8,283c-26.6,0-52,11.4-69.9,31.3c-0.3,0.3-0.6,0.7-0.7,0.9c-14.9,17.1-23.2,39-23.2,61.6
			c0,51.7,42.1,93.8,93.8,93.8c51.7,0,93.8-42.1,93.8-93.8S428.5,283,376.8,283z"/>
		<path class="st3" d="M376.1,282.3c-26.6,0-52,11.4-69.9,31.3c-0.3,0.3-0.6,0.7-0.7,0.9c-14.9,17.1-23.2,39-23.2,61.6
			c0,51.7,42.1,93.8,93.8,93.8c51.7,0,93.8-42.1,93.8-93.8S427.8,282.3,376.1,282.3z"/>
		<path class="st3" d="M375.4,281.6c-26.6,0-52,11.4-69.9,31.3c-0.3,0.3-0.6,0.7-0.7,0.9c-14.9,17.1-23.2,39-23.2,61.6
			c0,51.7,42.1,93.8,93.8,93.8c51.7,0,93.7-42.1,93.7-93.8S427.1,281.6,375.4,281.6z"/>
		<path class="st3" d="M374.7,280.9c-26.6,0-52,11.4-69.9,31.3c-0.3,0.3-0.6,0.7-0.7,0.9c-14.9,17.1-23.2,39-23.2,61.6
			c0,51.7,42.1,93.8,93.8,93.8c51.7,0,93.8-42.1,93.8-93.8S426.4,280.9,374.7,280.9z"/>
		<path class="st3" d="M374,280.2c-26.6,0-52,11.4-69.9,31.3c-0.3,0.3-0.6,0.7-0.7,0.9c-14.9,17.1-23.2,39-23.2,61.6
			c0,51.7,42.1,93.8,93.8,93.8c51.7,0,93.8-42.1,93.8-93.8S425.6,280.2,374,280.2z"/>
		<path class="st3" d="M373.3,279.5c-26.6,0-52,11.4-69.9,31.3c-0.3,0.3-0.6,0.7-0.7,0.9c-14.9,17.1-23.2,39-23.2,61.6
			c0,51.7,42.1,93.8,93.8,93.8c51.7,0,93.8-42.1,93.8-93.8S424.9,279.5,373.3,279.5z"/>
		<path class="st3" d="M372.5,278.8c-26.6,0-52,11.4-69.9,31.3c-0.3,0.3-0.6,0.7-0.7,0.9c-14.9,17.1-23.2,39-23.2,61.6
			c0,51.7,42.1,93.8,93.8,93.8c51.7,0,93.8-42.1,93.8-93.8S424.2,278.8,372.5,278.8z"/>
		<path class="st3" d="M371.8,278.1c-26.6,0-52,11.4-69.9,31.3c-0.3,0.3-0.6,0.7-0.7,0.9c-14.9,17.1-23.2,39-23.2,61.6
			c0,51.7,42.1,93.8,93.8,93.8c51.7,0,93.8-42.1,93.8-93.8S423.5,278.1,371.8,278.1z"/>
		<path class="st3" d="M371.1,277.4c-26.6,0-52,11.4-69.9,31.3c-0.3,0.3-0.6,0.7-0.7,0.9c-14.9,17.1-23.2,39-23.2,61.6
			c0,51.7,42.1,93.8,93.8,93.8c51.7,0,93.8-42.1,93.8-93.8S422.8,277.4,371.1,277.4z"/>
		<path class="st3" d="M370.4,276.7c-26.6,0-52,11.4-69.9,31.3c-0.3,0.3-0.6,0.7-0.7,0.9c-14.9,17.1-23.2,39-23.2,61.6
			c0,51.7,42.1,93.8,93.8,93.8c51.7,0,93.8-42.1,93.8-93.8S422.1,276.7,370.4,276.7z"/>
		<path class="st3" d="M369.7,276c-26.6,0-52,11.4-69.9,31.3c-0.3,0.3-0.6,0.7-0.7,0.9c-14.9,17.1-23.2,39-23.2,61.6
			c0,51.7,42.1,93.8,93.8,93.8c51.7,0,93.8-42.1,93.8-93.8S421.4,276,369.7,276z"/>
		<path class="st3" d="M369,275.3c-26.6,0-52,11.4-69.9,31.3c-0.3,0.3-0.6,0.7-0.7,0.9c-14.9,17.1-23.2,39-23.2,61.6
			c0,51.7,42.1,93.8,93.8,93.8c51.7,0,93.8-42.1,93.8-93.8S420.7,275.3,369,275.3z"/>
		<path class="st3" d="M368.3,274.6c-26.6,0-52,11.4-69.9,31.3c-0.3,0.3-0.6,0.7-0.7,0.9c-14.9,17.1-23.2,39-23.2,61.6
			c0,51.7,42.1,93.8,93.8,93.8c51.7,0,93.7-42.1,93.7-93.8S420,274.6,368.3,274.6z"/>
		<path class="st3" d="M367.6,273.9c-26.6,0-52,11.4-69.9,31.3c-0.3,0.3-0.6,0.7-0.7,0.9c-14.9,17.1-23.2,39-23.2,61.6
			c0,51.7,42.1,93.8,93.8,93.8c51.7,0,93.7-42.1,93.7-93.8S419.3,273.9,367.6,273.9z"/>
		<path class="st3" d="M366.9,273.2c-26.6,0-52,11.4-69.9,31.3c-0.3,0.3-0.6,0.7-0.7,0.9c-14.9,17.1-23.2,39-23.2,61.6
			c0,51.7,42.1,93.8,93.8,93.8c51.7,0,93.8-42.1,93.8-93.8S418.6,273.2,366.9,273.2z"/>
		<path class="st3" d="M366.2,272.5c-26.6,0-52,11.4-69.9,31.3c-0.3,0.3-0.6,0.7-0.7,0.9c-14.9,17.1-23.2,39-23.2,61.6
			c0,51.7,42.1,93.8,93.8,93.8c51.7,0,93.8-42.1,93.8-93.8S417.9,272.5,366.2,272.5z"/>
		<path class="st3" d="M365.5,271.8c-26.6,0-52,11.4-69.9,31.3c-0.3,0.3-0.6,0.7-0.7,0.9c-14.9,17.1-23.2,39-23.2,61.6
			c0,51.7,42.1,93.8,93.8,93.8c51.7,0,93.8-42.1,93.8-93.8S417.2,271.8,365.5,271.8z"/>
		<path class="st3" d="M364.8,271c-26.6,0-52,11.4-69.9,31.3c-0.3,0.3-0.6,0.7-0.7,0.9c-14.9,17.1-23.2,39-23.2,61.6
			c0,51.7,42.1,93.8,93.8,93.8c51.7,0,93.8-42.1,93.8-93.8S416.5,271,364.8,271z"/>
		<path class="st3" d="M364.1,270.3c-26.6,0-52,11.4-69.9,31.3c-0.3,0.3-0.6,0.7-0.7,0.9c-14.9,17.1-23.2,39-23.2,61.6
			c0,51.7,42.1,93.8,93.8,93.8c51.7,0,93.8-42.1,93.8-93.8C457.8,312.4,415.8,270.3,364.1,270.3z"/>
		<path class="st3" d="M363.4,269.6c-26.6,0-52,11.4-69.9,31.3c-0.3,0.3-0.6,0.7-0.7,0.9c-14.9,17.1-23.2,39-23.2,61.6
			c0,51.7,42.1,93.8,93.8,93.8c51.7,0,93.8-42.1,93.8-93.8C457.1,311.7,415.1,269.6,363.4,269.6z"/>
		<path class="st3" d="M362.7,268.9c-26.6,0-52,11.4-69.9,31.3c-0.3,0.3-0.6,0.7-0.7,0.9c-14.9,17.1-23.2,39-23.2,61.6
			c0,51.7,42.1,93.8,93.8,93.8c51.7,0,93.8-42.1,93.8-93.8C456.4,311,414.4,268.9,362.7,268.9z"/>
		<path class="st3" d="M362,268.2c-26.6,0-52,11.4-69.9,31.3c-0.3,0.3-0.6,0.7-0.7,0.9c-14.9,17.1-23.2,39-23.2,61.6
			c0,51.7,42.1,93.8,93.8,93.8c51.7,0,93.8-42.1,93.8-93.8C455.7,310.3,413.7,268.2,362,268.2z"/>
		<path class="st3" d="M361.3,267.5c-26.6,0-52,11.4-69.9,31.3c-0.3,0.3-0.6,0.7-0.7,0.9c-14.9,17.1-23.2,39-23.2,61.6
			c0,51.7,42.1,93.8,93.8,93.8C413,455,455,413,455,361.3C455,309.6,413,267.5,361.3,267.5z"/>
		<path class="st3" d="M360.6,266.8c-26.6,0-52,11.4-69.9,31.3c-0.3,0.3-0.6,0.7-0.7,0.9c-14.9,17.1-23.2,39-23.2,61.6
			c0,51.7,42.1,93.8,93.8,93.8c51.7,0,93.8-42.1,93.8-93.8S412.3,266.8,360.6,266.8z"/>
		<path class="st3" d="M359.9,266.1c-26.6,0-52,11.4-69.9,31.3c-0.3,0.3-0.6,0.7-0.7,0.9c-14.9,17.1-23.2,39-23.2,61.6
			c0,51.7,42.1,93.8,93.8,93.8c51.7,0,93.8-42.1,93.8-93.8S411.6,266.1,359.9,266.1z"/>
		<path class="st3" d="M359.2,265.4c-26.6,0-52,11.4-69.9,31.3c-0.3,0.3-0.6,0.7-0.7,0.9c-14.9,17.1-23.2,39-23.2,61.6
			c0,51.7,42.1,93.8,93.8,93.8c51.7,0,93.8-42.1,93.8-93.8S410.9,265.4,359.2,265.4z"/>
		<path class="st3" d="M358.5,264.7c-26.6,0-52,11.4-69.9,31.3c-0.3,0.3-0.6,0.7-0.7,0.9c-14.9,17.1-23.2,39-23.2,61.6
			c0,51.7,42.1,93.8,93.8,93.8c51.7,0,93.8-42.1,93.8-93.8C452.2,306.8,410.2,264.7,358.5,264.7z"/>
		<path class="st3" d="M357.8,264c-26.6,0-52,11.4-69.9,31.3c-0.3,0.3-0.6,0.7-0.7,0.9c-14.9,17.1-23.2,39-23.2,61.6
			c0,51.7,42.1,93.8,93.8,93.8c51.7,0,93.8-42.1,93.8-93.8C451.5,306.1,409.5,264,357.8,264z"/>
		<path class="st3" d="M357.1,263.3c-26.6,0-52,11.4-69.9,31.3c-0.3,0.3-0.6,0.7-0.7,0.9c-14.9,17.1-23.2,39-23.2,61.6
			c0,51.7,42.1,93.8,93.8,93.8c51.7,0,93.8-42.1,93.8-93.8S408.7,263.3,357.1,263.3z"/>
		<path class="st3" d="M356.3,262.6c-26.6,0-52,11.4-69.9,31.3c-0.3,0.3-0.6,0.7-0.7,0.9c-14.9,17.1-23.2,39-23.2,61.6
			c0,51.7,42.1,93.8,93.8,93.8c51.7,0,93.8-42.1,93.8-93.8S408,262.6,356.3,262.6z"/>
		<path class="st3" d="M355.6,261.9c-26.6,0-52,11.4-69.9,31.3c-0.3,0.3-0.6,0.7-0.7,0.9c-14.9,17.1-23.2,39-23.2,61.6
			c0,51.7,42.1,93.8,93.7,93.8c51.7,0,93.8-42.1,93.8-93.8S407.3,261.9,355.6,261.9z"/>
		<path class="st3" d="M354.9,261.2c-26.6,0-52,11.4-69.9,31.3c-0.3,0.3-0.6,0.7-0.7,0.9c-14.9,17.1-23.2,39-23.2,61.6
			c0,51.7,42.1,93.8,93.7,93.8c51.7,0,93.8-42.1,93.8-93.8S406.6,261.2,354.9,261.2z"/>
		<path class="st3" d="M354.2,260.5c-26.6,0-52,11.4-69.9,31.3c-0.3,0.3-0.6,0.7-0.7,0.9c-14.9,17.1-23.2,39-23.2,61.6
			c0,51.7,42.1,93.8,93.8,93.8c51.7,0,93.7-42.1,93.7-93.8S405.9,260.5,354.2,260.5z"/>
		<path class="st3" d="M353.5,259.8c-26.6,0-52,11.4-69.9,31.3c-0.3,0.3-0.6,0.7-0.7,0.9c-14.9,17.1-23.2,39-23.2,61.6
			c0,51.7,42.1,93.8,93.8,93.8c51.7,0,93.8-42.1,93.8-93.8S405.2,259.8,353.5,259.8z"/>
		<path class="st3" d="M352.8,259.1c-26.6,0-52,11.4-69.9,31.3c-0.3,0.3-0.6,0.7-0.7,0.9c-14.9,17.1-23.2,39-23.2,61.6
			c0,51.7,42.1,93.8,93.8,93.8c51.7,0,93.8-42.1,93.8-93.8S404.5,259.1,352.8,259.1z"/>
		<path class="st3" d="M352.1,258.4c-26.6,0-52,11.4-69.9,31.3c-0.3,0.3-0.6,0.7-0.7,0.9c-14.9,17.1-23.2,39-23.2,61.6
			c0,51.7,42.1,93.8,93.8,93.8c51.7,0,93.8-42.1,93.8-93.8S403.8,258.4,352.1,258.4z"/>
		<path class="st3" d="M351.4,257.7c-26.6,0-52,11.4-69.9,31.3c-0.3,0.3-0.6,0.7-0.7,0.9c-14.9,17.1-23.2,39-23.2,61.6
			c0,51.7,42.1,93.8,93.8,93.8c51.7,0,93.8-42.1,93.8-93.8S403.1,257.7,351.4,257.7z"/>
		<path class="st3" d="M350.7,257c-26.6,0-52,11.4-69.9,31.3c-0.3,0.3-0.6,0.7-0.7,0.9c-14.9,17.1-23.2,39-23.2,61.6
			c0,51.7,42.1,93.8,93.8,93.8c51.7,0,93.8-42.1,93.8-93.8S402.4,257,350.7,257z"/>
		<path class="st3" d="M350,256.3c-26.6,0-52,11.4-69.9,31.3c-0.3,0.3-0.6,0.7-0.7,0.9c-14.9,17.1-23.2,39-23.2,61.6
			c0,51.7,42.1,93.8,93.8,93.8c51.7,0,93.8-42.1,93.8-93.8S401.7,256.3,350,256.3z"/>
		<path class="st3" d="M349.3,255.6c-26.6,0-52,11.4-69.9,31.3c-0.3,0.3-0.6,0.7-0.7,0.9c-14.9,17.1-23.2,39-23.2,61.6
			c0,51.7,42.1,93.8,93.7,93.8c51.7,0,93.8-42.1,93.8-93.8S401,255.6,349.3,255.6z"/>
		<path class="st3" d="M348.6,254.8c-26.6,0-52,11.4-69.9,31.3c-0.3,0.3-0.6,0.7-0.7,0.9c-14.9,17.1-23.2,39-23.2,61.6
			c0,51.7,42.1,93.8,93.7,93.8c51.7,0,93.8-42.1,93.8-93.8S400.3,254.8,348.6,254.8z"/>
		<path class="st3" d="M347.9,254.1c-26.6,0-52,11.4-69.9,31.3c-0.3,0.3-0.6,0.7-0.7,0.9c-14.9,17.1-23.2,39-23.2,61.6
			c0,51.7,42.1,93.8,93.7,93.8c51.7,0,93.8-42.1,93.8-93.8S399.6,254.1,347.9,254.1z"/>
		<path class="st3" d="M347.2,253.4c-26.6,0-52,11.4-69.9,31.3c-0.3,0.3-0.6,0.7-0.7,0.9c-14.9,17.1-23.2,39-23.2,61.6
			c0,51.7,42.1,93.8,93.8,93.8c51.7,0,93.7-42.1,93.7-93.8S398.9,253.4,347.2,253.4z"/>
		<path class="st3" d="M346.5,252.7c-26.6,0-52,11.4-69.9,31.3c-0.3,0.3-0.6,0.7-0.7,0.9c-14.9,17.1-23.2,39-23.2,61.6
			c0,51.7,42.1,93.8,93.8,93.8c51.7,0,93.7-42.1,93.7-93.8S398.2,252.7,346.5,252.7z"/>
		<path class="st3" d="M345.8,252c-26.6,0-52,11.4-69.9,31.3c-0.3,0.3-0.6,0.7-0.7,0.9c-14.9,17.1-23.2,39-23.2,61.6
			c0,51.7,42.1,93.8,93.8,93.8c51.7,0,93.8-42.1,93.8-93.8S397.5,252,345.8,252z"/>
		<path class="st3" d="M345.1,251.3c-26.6,0-52,11.4-69.9,31.3c-0.3,0.3-0.6,0.7-0.7,0.9c-14.9,17.1-23.2,39-23.2,61.6
			c0,51.7,42.1,93.8,93.8,93.8c51.7,0,93.8-42.1,93.8-93.8S396.8,251.3,345.1,251.3z"/>
		<path class="st3" d="M344.4,250.6c-26.6,0-52,11.4-69.9,31.3c-0.3,0.3-0.6,0.7-0.7,0.9c-14.9,17.1-23.2,39-23.2,61.6
			c0,51.7,42.1,93.8,93.8,93.8c51.7,0,93.8-42.1,93.8-93.8S396.1,250.6,344.4,250.6z"/>
		<path class="st3" d="M343.7,249.9c-26.6,0-52,11.4-69.9,31.3c-0.3,0.3-0.6,0.7-0.7,0.9c-14.9,17.1-23.2,39-23.2,61.6
			c0,51.7,42.1,93.8,93.8,93.8c51.7,0,93.8-42.1,93.8-93.8S395.4,249.9,343.7,249.9z"/>
		<path class="st3" d="M343,249.2c-26.6,0-52,11.4-69.9,31.3c-0.3,0.3-0.6,0.7-0.7,0.9c-14.9,17.1-23.2,39-23.2,61.6
			c0,51.7,42.1,93.8,93.8,93.8c51.7,0,93.8-42.1,93.8-93.8S394.7,249.2,343,249.2z"/>
		<path class="st3" d="M342.3,248.5c-26.6,0-52,11.4-69.9,31.3c-0.3,0.3-0.6,0.7-0.7,0.9c-14.9,17.1-23.2,39-23.2,61.6
			c0,51.7,42.1,93.8,93.7,93.8C394,436,436,394,436,342.3C436,290.6,394,248.5,342.3,248.5z"/>
		<path class="st3" d="M341.6,247.8c-26.6,0-52,11.4-69.9,31.3c-0.3,0.3-0.6,0.7-0.7,0.9c-14.9,17.1-23.2,39-23.2,61.6
			c0,51.7,42.1,93.8,93.7,93.8c51.7,0,93.8-42.1,93.8-93.8C435.3,289.9,393.3,247.8,341.6,247.8z"/>
		<path class="st3" d="M340.9,247.1c-26.6,0-52,11.4-69.9,31.3c-0.3,0.3-0.6,0.7-0.7,0.9c-14.9,17.1-23.2,39-23.2,61.6
			c0,51.7,42.1,93.8,93.7,93.8c51.7,0,93.8-42.1,93.8-93.8C434.6,289.2,392.5,247.1,340.9,247.1z"/>
		<path class="st3" d="M340.1,246.4c-26.6,0-52,11.4-69.9,31.3c-0.3,0.3-0.6,0.7-0.7,0.9c-14.9,17.1-23.2,39-23.2,61.6
			c0,51.7,42.1,93.8,93.7,93.8c51.7,0,93.8-42.1,93.8-93.8C433.9,288.5,391.8,246.4,340.1,246.4z"/>
		<path class="st3" d="M339.4,245.7c-26.6,0-52,11.4-69.9,31.3c-0.3,0.3-0.6,0.7-0.7,0.9c-14.9,17.1-23.2,39-23.2,61.6
			c0,51.7,42.1,93.8,93.8,93.8c51.7,0,93.7-42.1,93.7-93.8S391.1,245.7,339.4,245.7z"/>
		<path class="st3" d="M338.7,245c-26.6,0-52,11.4-69.9,31.3c-0.3,0.3-0.6,0.7-0.7,0.9c-14.9,17.1-23.2,39-23.2,61.6
			c0,51.7,42.1,93.8,93.7,93.8c51.7,0,93.8-42.1,93.8-93.8C432.5,287,390.4,245,338.7,245z"/>
		<path class="st3" d="M338,244.3c-26.6,0-52,11.4-69.9,31.3c-0.3,0.3-0.6,0.7-0.7,0.9c-14.9,17.1-23.2,39-23.2,61.6
			c0,51.7,42.1,93.8,93.8,93.8c51.7,0,93.8-42.1,93.8-93.8C431.8,286.3,389.7,244.3,338,244.3z"/>
		<path class="st3" d="M337.3,243.6c-26.6,0-52,11.4-69.9,31.3c-0.3,0.3-0.6,0.7-0.7,0.9c-14.9,17.1-23.2,39-23.2,61.6
			c0,51.7,42.1,93.8,93.7,93.8c51.7,0,93.8-42.1,93.8-93.8C431.1,285.6,389,243.6,337.3,243.6z"/>
		<path class="st3" d="M336.6,242.9c-26.6,0-52,11.4-69.9,31.3c-0.3,0.3-0.6,0.7-0.7,0.9c-14.9,17.1-23.2,39-23.2,61.6
			c0,51.7,42.1,93.8,93.8,93.8c51.7,0,93.8-42.1,93.8-93.8C430.4,284.9,388.3,242.9,336.6,242.9z"/>
		<path class="st3" d="M335.9,242.2c-26.6,0-52,11.4-69.9,31.3c-0.3,0.3-0.6,0.7-0.7,0.9c-14.9,17.1-23.2,39-23.2,61.6
			c0,51.7,42.1,93.8,93.8,93.8c51.7,0,93.8-42.1,93.8-93.8C429.7,284.2,387.6,242.2,335.9,242.2z"/>
		<path class="st3" d="M335.2,241.5c-26.6,0-52,11.4-69.9,31.3c-0.3,0.3-0.6,0.7-0.7,0.9c-14.9,17.1-23.2,39-23.2,61.6
			c0,51.7,42.1,93.8,93.8,93.8c51.7,0,93.8-42.1,93.8-93.8C429,283.5,386.9,241.5,335.2,241.5z"/>
		<path class="st3" d="M334.5,240.8c-26.6,0-52,11.4-69.9,31.3c-0.3,0.3-0.6,0.7-0.7,0.9c-14.9,17.1-23.2,39-23.2,61.6
			c0,51.7,42.1,93.8,93.7,93.8c51.7,0,93.8-42.1,93.8-93.8S386.2,240.8,334.5,240.8z"/>
		<path class="st3" d="M333.8,240.1c-26.6,0-52,11.4-69.9,31.3c-0.3,0.3-0.6,0.7-0.7,0.9c-14.9,17.1-23.2,39-23.2,61.6
			c0,51.7,42.1,93.8,93.8,93.8c51.7,0,93.8-42.1,93.8-93.8S385.5,240.1,333.8,240.1z"/>
		<path class="st3" d="M333.1,239.4c-26.6,0-52,11.4-69.9,31.3c-0.3,0.3-0.6,0.7-0.7,0.9c-14.9,17.1-23.2,39-23.2,61.6
			c0,51.7,42.1,93.8,93.8,93.8c51.7,0,93.8-42.1,93.8-93.8S384.8,239.4,333.1,239.4z"/>
		<path class="st3" d="M332.4,238.7c-26.6,0-52,11.4-69.9,31.3c-0.3,0.3-0.6,0.7-0.7,0.9c-14.9,17.1-23.2,39-23.2,61.6
			c0,51.7,42.1,93.8,93.8,93.8c51.7,0,93.8-42.1,93.8-93.8S384.1,238.7,332.4,238.7z"/>
		<path class="st3" d="M331.7,237.9c-26.6,0-52,11.4-69.9,31.3c-0.3,0.3-0.6,0.7-0.7,0.9c-14.9,17.1-23.2,39-23.2,61.6
			c0,51.7,42.1,93.8,93.8,93.8c51.7,0,93.8-42.1,93.8-93.8S383.4,237.9,331.7,237.9z"/>
		<path class="st3" d="M331,237.2c-26.6,0-52,11.4-69.9,31.3c-0.3,0.3-0.6,0.7-0.7,0.9c-14.9,17.1-23.2,39-23.2,61.6
			c0,51.7,42.1,93.8,93.7,93.8c51.7,0,93.8-42.1,93.8-93.8S382.7,237.2,331,237.2z"/>
		<path class="st3" d="M330.3,236.5c-26.6,0-52,11.4-69.9,31.3c-0.3,0.3-0.6,0.7-0.7,0.9c-14.9,17.1-23.2,39-23.2,61.6
			c0,51.7,42.1,93.8,93.7,93.8C382,424,424,382,424,330.3S382,236.5,330.3,236.5z"/>
		<path class="st3" d="M329.6,235.8c-26.6,0-52,11.4-69.9,31.3c-0.3,0.3-0.6,0.7-0.7,0.9c-14.9,17.1-23.2,39-23.2,61.6
			c0,51.7,42.1,93.8,93.8,93.8c51.7,0,93.8-42.1,93.8-93.8S381.3,235.8,329.6,235.8z"/>
		<path class="st3" d="M328.9,235.1c-26.6,0-52,11.4-69.9,31.3c-0.3,0.3-0.6,0.7-0.7,0.9c-14.9,17.1-23.2,39-23.2,61.6
			c0,51.7,42.1,93.8,93.7,93.8c51.7,0,93.8-42.1,93.8-93.8S380.6,235.1,328.9,235.1z"/>
		<path class="st3" d="M328.2,234.4c-26.6,0-52,11.4-69.9,31.3c-0.3,0.3-0.6,0.7-0.7,0.9c-14.9,17.1-23.2,39-23.2,61.6
			c0,51.7,42.1,93.8,93.8,93.8c51.7,0,93.8-42.1,93.8-93.8S379.9,234.4,328.2,234.4z"/>
		<path class="st3" d="M327.5,233.7c-26.6,0-52,11.4-69.9,31.3c-0.3,0.3-0.6,0.7-0.7,0.9c-14.9,17.1-23.2,39-23.2,61.6
			c0,51.7,42.1,93.8,93.7,93.8c51.7,0,93.8-42.1,93.8-93.8S379.2,233.7,327.5,233.7z"/>
		<path class="st3" d="M326.8,233c-26.6,0-52,11.4-69.9,31.3c-0.3,0.3-0.6,0.7-0.7,0.9c-14.9,17.1-23.2,39-23.2,61.6
			c0,51.7,42.1,93.8,93.7,93.8c51.7,0,93.8-42.1,93.8-93.8S378.5,233,326.8,233z"/>
		<path class="st3" d="M326.1,232.3c-26.6,0-52,11.4-69.9,31.3c-0.3,0.3-0.6,0.7-0.7,0.9c-14.9,17.1-23.2,39-23.2,61.6
			c0,51.7,42.1,93.8,93.8,93.8c51.7,0,93.8-42.1,93.8-93.8S377.8,232.3,326.1,232.3z"/>
		<path class="st3" d="M325.4,231.6c-26.6,0-52,11.4-69.9,31.3c-0.3,0.3-0.6,0.7-0.7,0.9c-14.9,17.1-23.2,39-23.2,61.6
			c0,51.7,42.1,93.8,93.8,93.8c51.7,0,93.8-42.1,93.8-93.8S377.1,231.6,325.4,231.6z"/>
		<path class="st3" d="M324.7,230.9c-26.6,0-52,11.4-69.9,31.3c-0.3,0.3-0.6,0.7-0.7,0.9c-14.9,17.1-23.2,39-23.2,61.6
			c0,51.7,42.1,93.8,93.8,93.8c51.7,0,93.8-42.1,93.8-93.8S376.3,230.9,324.7,230.9z"/>
		<path class="st3" d="M324,230.2c-26.6,0-52,11.4-69.9,31.3c-0.3,0.3-0.6,0.7-0.7,0.9c-14.9,17.1-23.2,39-23.2,61.6
			c0,51.7,42.1,93.8,93.8,93.8c51.7,0,93.8-42.1,93.8-93.8S375.6,230.2,324,230.2z"/>
		<path class="st3" d="M323.2,229.5c-26.6,0-52,11.4-69.9,31.3c-0.3,0.3-0.6,0.7-0.7,0.9c-14.9,17.1-23.2,39-23.2,61.6
			c0,51.7,42.1,93.8,93.7,93.8c51.7,0,93.8-42.1,93.8-93.8S374.9,229.5,323.2,229.5z"/>
		<path class="st3" d="M322.5,228.8c-26.6,0-52,11.4-69.9,31.3c-0.3,0.3-0.6,0.7-0.7,0.9c-14.9,17.1-23.2,39-23.2,61.6
			c0,51.7,42.1,93.8,93.7,93.8c51.7,0,93.8-42.1,93.8-93.8S374.2,228.8,322.5,228.8z"/>
		<path class="st3" d="M321.8,228.1c-26.6,0-52,11.4-69.9,31.3c-0.3,0.3-0.6,0.7-0.7,0.9c-14.9,17.1-23.2,39-23.2,61.6
			c0,51.7,42.1,93.8,93.7,93.8c51.7,0,93.8-42.1,93.8-93.8S373.5,228.1,321.8,228.1z"/>
		<path class="st3" d="M321.1,227.4c-26.6,0-52,11.4-69.9,31.3c-0.3,0.3-0.6,0.7-0.7,0.9c-14.9,17.1-23.2,39-23.2,61.6
			c0,51.7,42.1,93.8,93.7,93.8c51.7,0,93.8-42.1,93.8-93.8S372.8,227.4,321.1,227.4z"/>
		<path class="st3" d="M320.4,226.7c-26.6,0-52,11.4-69.9,31.3c-0.3,0.3-0.6,0.7-0.7,0.9c-14.9,17.1-23.2,39-23.2,61.6
			c0,51.7,42.1,93.8,93.8,93.8c51.7,0,93.8-42.1,93.8-93.8S372.1,226.7,320.4,226.7z"/>
		<path class="st3" d="M319.7,226c-26.6,0-52,11.4-69.9,31.3c-0.3,0.3-0.6,0.7-0.7,0.9c-14.9,17.1-23.2,39-23.2,61.6
			c0,51.7,42.1,93.8,93.7,93.8c51.7,0,93.8-42.1,93.8-93.8S371.4,226,319.7,226z"/>
		<path class="st3" d="M319,225.3c-26.6,0-52,11.4-69.9,31.3c-0.3,0.3-0.6,0.7-0.7,0.9c-14.9,17.1-23.2,39-23.2,61.6
			c0,51.7,42.1,93.8,93.8,93.8c51.7,0,93.8-42.1,93.8-93.8S370.7,225.3,319,225.3z"/>
		<path class="st3" d="M318.3,224.6c-26.6,0-52,11.4-69.9,31.3c-0.3,0.3-0.6,0.7-0.7,0.9c-14.9,17.1-23.2,39-23.2,61.6
			c0,51.7,42.1,93.8,93.8,93.8c51.7,0,93.8-42.1,93.8-93.8S370,224.6,318.3,224.6z"/>
		<path class="st3" d="M317.6,223.9c-26.6,0-52,11.4-69.9,31.3c-0.3,0.3-0.6,0.7-0.7,0.9c-14.9,17.1-23.2,39-23.2,61.6
			c0,51.7,42.1,93.8,93.8,93.8c51.7,0,93.8-42.1,93.8-93.8S369.3,223.9,317.6,223.9z"/>
		<path class="st3" d="M316.9,223.2c-26.6,0-52,11.4-69.9,31.3c-0.3,0.3-0.6,0.7-0.7,0.9c-14.9,17.1-23.2,39-23.2,61.6
			c0,51.7,42.1,93.8,93.8,93.8c51.7,0,93.8-42.1,93.8-93.8S368.6,223.2,316.9,223.2z"/>
		<path class="st3" d="M316.2,222.5c-26.6,0-52,11.4-69.9,31.3c-0.3,0.3-0.6,0.7-0.7,0.9c-14.9,17.1-23.2,39-23.2,61.6
			c0,51.7,42.1,93.8,93.7,93.8c51.7,0,93.8-42.1,93.8-93.8C410,264.5,367.9,222.5,316.2,222.5z"/>
		<path class="st3" d="M315.5,221.7c-26.6,0-52,11.4-69.9,31.3c-0.3,0.3-0.6,0.7-0.7,0.9c-14.9,17.1-23.2,39-23.2,61.6
			c0,51.7,42.1,93.8,93.7,93.8c51.7,0,93.8-42.1,93.8-93.8C409.2,263.8,367.2,221.7,315.5,221.7z"/>
		<path class="st3" d="M314.8,221c-26.6,0-52,11.4-69.9,31.3c-0.3,0.3-0.6,0.7-0.7,0.9c-14.9,17.1-23.2,39-23.2,61.6
			c0,51.7,42.1,93.8,93.7,93.8c51.7,0,93.8-42.1,93.8-93.8C408.5,263.1,366.5,221,314.8,221z"/>
		<path class="st3" d="M314.1,220.3c-26.6,0-52,11.4-69.9,31.3c-0.3,0.3-0.6,0.7-0.7,0.9c-14.9,17.1-23.2,39-23.2,61.6
			c0,51.7,42.1,93.8,93.7,93.8c51.7,0,93.8-42.1,93.8-93.8C407.8,262.4,365.8,220.3,314.1,220.3z"/>
		<path class="st3" d="M313.4,219.6c-26.6,0-52,11.4-69.9,31.3c-0.3,0.3-0.6,0.7-0.7,0.9c-14.9,17.1-23.2,39-23.2,61.6
			c0,51.7,42.1,93.8,93.8,93.8c51.7,0,93.8-42.1,93.8-93.8C407.1,261.7,365.1,219.6,313.4,219.6z"/>
		<path class="st3" d="M312.7,218.9c-26.6,0-52,11.4-69.9,31.3c-0.3,0.3-0.6,0.7-0.7,0.9c-14.9,17.1-23.2,39-23.2,61.6
			c0,51.7,42.1,93.8,93.8,93.8c51.7,0,93.8-42.1,93.8-93.8C406.4,261,364.4,218.9,312.7,218.9z"/>
		<path class="st3" d="M312,218.2c-26.6,0-52,11.4-69.9,31.3c-0.3,0.3-0.6,0.7-0.7,0.9c-14.9,17.1-23.2,39-23.2,61.6
			c0,51.7,42.1,93.8,93.7,93.8c51.7,0,93.8-42.1,93.8-93.8S363.7,218.2,312,218.2z"/>
		<path class="st3" d="M311.3,217.5c-26.6,0-52,11.4-69.9,31.3c-0.3,0.3-0.6,0.7-0.7,0.9c-14.9,17.1-23.2,39-23.2,61.6
			c0,51.7,42.1,93.8,93.8,93.8C363,405,405,363,405,311.3C405,259.6,363,217.5,311.3,217.5z"/>
		<path class="st3" d="M310.6,216.8c-26.6,0-52,11.4-69.9,31.3c-0.3,0.3-0.6,0.7-0.7,0.9c-14.9,17.1-23.2,39-23.2,61.6
			c0,51.7,42.1,93.8,93.8,93.8c51.7,0,93.8-42.1,93.8-93.8C404.3,258.9,362.3,216.8,310.6,216.8z"/>
		<path class="st3" d="M309.9,216.1c-26.6,0-52,11.4-69.9,31.3c-0.3,0.3-0.6,0.7-0.7,0.9c-14.9,17.1-23.2,39-23.2,61.6
			c0,51.7,42.1,93.8,93.8,93.8c51.7,0,93.8-42.1,93.8-93.8C403.6,258.2,361.6,216.1,309.9,216.1z"/>
		<path class="st3" d="M309.2,215.4c-26.6,0-52,11.4-69.9,31.3c-0.3,0.3-0.6,0.7-0.7,0.9c-14.9,17.1-23.2,39-23.2,61.6
			c0,51.7,42.1,93.8,93.8,93.8c51.7,0,93.8-42.1,93.8-93.8C402.9,257.5,360.9,215.4,309.2,215.4z"/>
		<path class="st3" d="M308.5,214.7c-26.6,0-52,11.4-69.9,31.3c-0.3,0.3-0.6,0.7-0.7,0.9c-14.9,17.1-23.2,39-23.2,61.6
			c0,51.7,42.1,93.8,93.7,93.8c51.7,0,93.8-42.1,93.8-93.8S360.2,214.7,308.5,214.7z"/>
		<path class="st3" d="M307.8,214c-26.6,0-52,11.4-69.9,31.3c-0.3,0.3-0.6,0.7-0.7,0.9c-14.9,17.1-23.2,39-23.2,61.6
			c0,51.7,42.1,93.8,93.7,93.8c51.7,0,93.8-42.1,93.8-93.8S359.4,214,307.8,214z"/>
		<path class="st3" d="M307,213.3c-26.6,0-52,11.4-69.9,31.3c-0.3,0.3-0.6,0.7-0.7,0.9c-14.9,17.1-23.2,39-23.2,61.6
			c0,51.7,42.1,93.8,93.8,93.8c51.7,0,93.7-42.1,93.7-93.8S358.7,213.3,307,213.3z"/>
		<path class="st3" d="M306.3,212.6c-26.6,0-52,11.4-69.9,31.3c-0.3,0.3-0.6,0.7-0.7,0.9c-14.9,17.1-23.2,39-23.2,61.6
			c0,51.7,42.1,93.8,93.8,93.8c51.7,0,93.8-42.1,93.8-93.8S358,212.6,306.3,212.6z"/>
		<path class="st3" d="M305.6,211.9c-26.6,0-52,11.4-69.9,31.3c-0.3,0.3-0.6,0.7-0.7,0.9c-14.9,17.1-23.2,39-23.2,61.6
			c0,51.7,42.1,93.8,93.8,93.8c51.7,0,93.8-42.1,93.8-93.8S357.3,211.9,305.6,211.9z"/>
		<path class="st3" d="M304.9,211.2c-26.6,0-52,11.4-69.9,31.3c-0.3,0.3-0.6,0.7-0.7,0.9c-14.9,17.1-23.2,39-23.2,61.6
			c0,51.7,42.1,93.8,93.8,93.8c51.7,0,93.8-42.1,93.8-93.8S356.6,211.2,304.9,211.2z"/>
		<path class="st3" d="M304.2,210.5c-26.6,0-52,11.4-69.9,31.3c-0.3,0.3-0.6,0.7-0.7,0.9c-14.9,17.1-23.2,39-23.2,61.6
			c0,51.7,42.1,93.8,93.7,93.8c51.7,0,93.8-42.1,93.8-93.8S355.9,210.5,304.2,210.5z"/>
		<path class="st3" d="M303.5,209.8c-26.6,0-52,11.4-69.9,31.3c-0.3,0.3-0.6,0.7-0.7,0.9c-14.9,17.1-23.2,39-23.2,61.6
			c0,51.7,42.1,93.8,93.8,93.8c51.7,0,93.8-42.1,93.8-93.8S355.2,209.8,303.5,209.8z"/>
		<path class="st3" d="M302.8,209.1c-26.6,0-52,11.4-69.9,31.3c-0.3,0.3-0.6,0.7-0.7,0.9c-14.9,17.1-23.2,39-23.2,61.6
			c0,51.7,42.1,93.8,93.8,93.8c51.7,0,93.8-42.1,93.8-93.8S354.5,209.1,302.8,209.1z"/>
		<path class="st3" d="M302.1,208.4c-26.6,0-52,11.4-69.9,31.3c-0.3,0.3-0.6,0.7-0.7,0.9c-14.9,17.1-23.2,39-23.2,61.6
			c0,51.7,42.1,93.8,93.8,93.8c51.7,0,93.8-42.1,93.8-93.8S353.8,208.4,302.1,208.4z"/>
		<path class="st3" d="M301.4,207.7c-26.6,0-52,11.4-69.9,31.3c-0.3,0.3-0.6,0.7-0.7,0.9c-14.9,17.1-23.2,39-23.2,61.6
			c0,51.7,42.1,93.8,93.8,93.8c51.7,0,93.8-42.1,93.8-93.8C395.2,249.7,353.1,207.7,301.4,207.7z"/>
		<path class="st3" d="M300.7,207c-26.6,0-52,11.4-69.9,31.3c-0.3,0.3-0.6,0.7-0.7,0.9c-14.9,17.1-23.2,39-23.2,61.6
			c0,51.7,42.1,93.8,93.7,93.8c51.7,0,93.8-42.1,93.8-93.8C394.5,249,352.4,207,300.7,207z"/>
		<path class="st3" d="M300,206.3c-26.6,0-52,11.4-69.9,31.3c-0.3,0.3-0.6,0.7-0.7,0.9c-14.9,17.1-23.2,39-23.2,61.6
			c0,51.7,42.1,93.8,93.8,93.8c51.7,0,93.7-42.1,93.7-93.8S351.7,206.3,300,206.3z"/>
		<path class="st3" d="M299.3,205.5c-26.6,0-52,11.4-69.9,31.3c-0.3,0.3-0.6,0.7-0.7,0.9c-14.9,17.1-23.2,39-23.2,61.6
			c0,51.7,42.1,93.8,93.8,93.8C351,393,393,351,393,299.3S351,205.5,299.3,205.5z"/>
		<path class="st3" d="M298.6,204.8c-26.6,0-52,11.4-69.9,31.3c-0.3,0.3-0.6,0.7-0.7,0.9c-14.9,17.1-23.2,39-23.2,61.6
			c0,51.7,42.1,93.8,93.8,93.8c51.7,0,93.8-42.1,93.8-93.8S350.3,204.8,298.6,204.8z"/>
		<path class="st3" d="M297.9,204.1c-26.6,0-52,11.4-69.9,31.3c-0.3,0.3-0.6,0.7-0.7,0.9c-14.9,17.1-23.2,39-23.2,61.6
			c0,51.7,42.1,93.8,93.8,93.8c51.7,0,93.8-42.1,93.8-93.8C391.6,246.2,349.6,204.1,297.9,204.1z"/>
		<path class="st3" d="M297.2,203.4c-26.6,0-52,11.4-69.9,31.3c-0.3,0.3-0.6,0.7-0.7,0.9c-14.9,17.1-23.2,39-23.2,61.6
			c0,51.7,42.1,93.8,93.7,93.8c51.7,0,93.8-42.1,93.8-93.8C390.9,245.5,348.9,203.4,297.2,203.4z"/>
		<path class="st3" d="M296.5,202.7c-26.6,0-52,11.4-69.9,31.3c-0.3,0.3-0.6,0.7-0.7,0.9c-14.9,17.1-23.2,39-23.2,61.6
			c0,51.7,42.1,93.8,93.7,93.8c51.7,0,93.8-42.1,93.8-93.8C390.2,244.8,348.2,202.7,296.5,202.7z"/>
		<path class="st3" d="M295.8,202c-26.6,0-52,11.4-69.9,31.3c-0.3,0.3-0.6,0.7-0.7,0.9c-14.9,17.1-23.2,39-23.2,61.6
			c0,51.7,42.1,93.8,93.8,93.8c51.7,0,93.8-42.1,93.8-93.8S347.5,202,295.8,202z"/>
		<path class="st3" d="M295.1,201.3c-26.6,0-52,11.4-69.9,31.3c-0.3,0.3-0.6,0.7-0.7,0.9c-14.9,17.1-23.2,39-23.2,61.6
			c0,51.7,42.1,93.8,93.8,93.8c51.7,0,93.8-42.1,93.8-93.8S346.8,201.3,295.1,201.3z"/>
		<path class="st3" d="M294.4,200.6c-26.6,0-52,11.4-69.9,31.3c-0.3,0.3-0.6,0.7-0.7,0.9c-14.9,17.1-23.2,39-23.2,61.6
			c0,51.7,42.1,93.8,93.8,93.8c51.7,0,93.8-42.1,93.8-93.8C388.1,242.7,346.1,200.6,294.4,200.6z"/>
		<path class="st3" d="M293.7,199.9c-26.6,0-52,11.4-69.9,31.3c-0.3,0.3-0.6,0.7-0.7,0.9c-14.9,17.1-23.2,39-23.2,61.6
			c0,51.7,42.1,93.8,93.8,93.8c51.7,0,93.8-42.1,93.8-93.8C387.4,242,345.4,199.9,293.7,199.9z"/>
		<path class="st3" d="M293,199.2c-26.6,0-52,11.4-69.9,31.3c-0.3,0.3-0.6,0.7-0.7,0.9c-14.9,17.1-23.2,39-23.2,61.6
			c0,51.7,42.1,93.8,93.7,93.8c51.7,0,93.7-42.1,93.7-93.8C386.7,241.3,344.7,199.2,293,199.2z"/>
		<path class="st3" d="M292.3,198.5c-26.6,0-52,11.4-69.9,31.3c-0.3,0.3-0.6,0.7-0.7,0.9c-14.9,17.1-23.2,39-23.2,61.6
			c0,51.7,42.1,93.8,93.8,93.8C344,386,386,344,386,292.3S344,198.5,292.3,198.5z"/>
		<path class="st3" d="M291.6,197.8c-26.6,0-52,11.4-69.9,31.3c-0.3,0.3-0.6,0.7-0.7,0.9c-14.9,17.1-23.2,39-23.2,61.6
			c0,51.7,42.1,93.8,93.8,93.8c51.7,0,93.8-42.1,93.8-93.8S343.2,197.8,291.6,197.8z"/>
		<path class="st3" d="M290.8,197.1c-26.6,0-52,11.4-69.9,31.3c-0.3,0.3-0.6,0.7-0.7,0.9c-14.9,17.1-23.2,39-23.2,61.6
			c0,51.7,42.1,93.8,93.8,93.8c51.7,0,93.8-42.1,93.8-93.8S342.5,197.1,290.8,197.1z"/>
		<path class="st3" d="M290.1,196.4c-26.6,0-52,11.4-69.9,31.3c-0.3,0.3-0.6,0.7-0.7,0.9c-14.9,17.1-23.2,39-23.2,61.6
			c0,51.7,42.1,93.8,93.8,93.8c51.7,0,93.8-42.1,93.8-93.8C383.9,238.4,341.8,196.4,290.1,196.4z"/>
		<path class="st3" d="M289.4,195.7c-26.6,0-52,11.4-69.9,31.3c-0.3,0.3-0.6,0.7-0.7,0.9c-14.9,17.1-23.2,39-23.2,61.6
			c0,51.7,42.1,93.8,93.7,93.8c51.7,0,93.8-42.1,93.8-93.8C383.2,237.7,341.1,195.7,289.4,195.7z"/>
		<path class="st3" d="M288.7,195c-26.6,0-52,11.4-69.9,31.3c-0.3,0.3-0.6,0.7-0.7,0.9c-14.9,17.1-23.2,39-23.2,61.6
			c0,51.7,42.1,93.8,93.7,93.8c51.7,0,93.8-42.1,93.8-93.8C382.5,237,340.4,195,288.7,195z"/>
		<path class="st3" d="M288,194.3c-26.6,0-52,11.4-69.9,31.3c-0.3,0.3-0.6,0.7-0.7,0.9c-14.9,17.1-23.2,39-23.2,61.6
			c0,51.7,42.1,93.8,93.7,93.8c51.7,0,93.8-42.1,93.8-93.8C381.8,236.3,339.7,194.3,288,194.3z"/>
		<path class="st3" d="M287.3,193.6c-26.6,0-52,11.4-69.9,31.3c-0.3,0.3-0.6,0.7-0.7,0.9c-14.9,17.1-23.2,39-23.2,61.6
			c0,51.7,42.1,93.8,93.7,93.8c51.7,0,93.8-42.1,93.8-93.8C381.1,235.6,339,193.6,287.3,193.6z"/>
		<path class="st3" d="M286.6,192.9c-26.6,0-52,11.4-69.9,31.3c-0.3,0.3-0.6,0.7-0.7,0.9c-14.9,17.1-23.2,39-23.2,61.6
			c0,51.7,42.1,93.8,93.8,93.8c51.7,0,93.8-42.1,93.8-93.8C380.4,234.9,338.3,192.9,286.6,192.9z"/>
		<path class="st3" d="M285.9,192.2c-26.6,0-52,11.4-69.9,31.3c-0.3,0.3-0.6,0.7-0.7,0.9c-14.9,17.1-23.2,39-23.2,61.6
			c0,51.7,42.1,93.8,93.7,93.8c51.7,0,93.8-42.1,93.8-93.8C379.7,234.2,337.6,192.2,285.9,192.2z"/>
		<path class="st3" d="M285.2,191.5c-26.6,0-52,11.4-69.9,31.3c-0.3,0.3-0.6,0.7-0.7,0.9c-14.9,17.1-23.2,39-23.2,61.6
			c0,51.7,42.1,93.8,93.7,93.8c51.7,0,93.8-42.1,93.8-93.8C379,233.5,336.9,191.5,285.2,191.5z"/>
		<path class="st3" d="M284.5,190.8c-26.6,0-52,11.4-69.9,31.3c-0.3,0.3-0.6,0.7-0.7,0.9c-14.9,17.1-23.2,39-23.2,61.6
			c0,51.7,42.1,93.8,93.8,93.8c51.7,0,93.8-42.1,93.8-93.8S336.2,190.8,284.5,190.8z"/>
		<path class="st3" d="M283.8,190.1c-26.6,0-52,11.4-69.9,31.3c-0.3,0.3-0.6,0.7-0.7,0.9c-14.9,17.1-23.2,39-23.2,61.6
			c0,51.7,42.1,93.8,93.8,93.8c51.7,0,93.8-42.1,93.8-93.8S335.5,190.1,283.8,190.1z"/>
		<path class="st3" d="M283.1,189.4c-26.6,0-52,11.4-69.9,31.3c-0.3,0.3-0.6,0.7-0.7,0.9c-14.9,17.1-23.2,39-23.2,61.6
			c0,51.7,42.1,93.8,93.8,93.8c51.7,0,93.8-42.1,93.8-93.8C376.9,231.4,334.8,189.4,283.1,189.4z"/>
		<path class="st3" d="M282.4,188.6c-26.6,0-52,11.4-69.9,31.3c-0.3,0.3-0.6,0.7-0.7,0.9c-14.9,17.1-23.2,39-23.2,61.6
			c0,51.7,42.1,93.8,93.8,93.8c51.7,0,93.8-42.1,93.8-93.8C376.1,230.7,334.1,188.6,282.4,188.6z"/>
		<path class="st3" d="M281.7,187.9c-26.6,0-52,11.4-69.9,31.3c-0.3,0.3-0.6,0.7-0.7,0.9c-14.9,17.1-23.2,39-23.2,61.6
			c0,51.7,42.1,93.8,93.7,93.8c51.7,0,93.8-42.1,93.8-93.8C375.4,230,333.4,187.9,281.7,187.9z"/>
		<path class="st3" d="M281,187.2c-26.6,0-52,11.4-69.9,31.3c-0.3,0.3-0.6,0.7-0.7,0.9c-14.9,17.1-23.2,39-23.2,61.6
			c0,51.7,42.1,93.8,93.7,93.8c51.7,0,93.8-42.1,93.8-93.8S332.7,187.2,281,187.2z"/>
		<path class="st3" d="M280.3,186.5c-26.6,0-52,11.4-69.9,31.3c-0.3,0.3-0.6,0.7-0.7,0.9c-14.9,17.1-23.2,39-23.2,61.6
			c0,51.7,42.1,93.8,93.7,93.8C332,374,374,332,374,280.3S332,186.5,280.3,186.5z"/>
		<path class="st3" d="M279.6,185.8c-26.6,0-52,11.4-69.9,31.3c-0.3,0.3-0.6,0.7-0.7,0.9c-14.9,17.1-23.2,39-23.2,61.6
			c0,51.7,42.1,93.8,93.7,93.8c51.7,0,93.8-42.1,93.8-93.8S331.3,185.8,279.6,185.8z"/>
		<path class="st3" d="M278.9,185.1c-26.6,0-52,11.4-69.9,31.3c-0.3,0.3-0.6,0.7-0.7,0.9c-14.9,17.1-23.2,39-23.2,61.6
			c0,51.7,42.1,93.8,93.8,93.8c51.7,0,93.8-42.1,93.8-93.8C372.6,227.2,330.6,185.1,278.9,185.1z"/>
		<path class="st3" d="M278.2,184.4c-26.6,0-52,11.4-69.9,31.3c-0.3,0.3-0.6,0.7-0.7,0.9c-14.9,17.1-23.2,39-23.2,61.6
			c0,51.7,42.1,93.8,93.7,93.8c51.7,0,93.8-42.1,93.8-93.8C371.9,226.5,329.9,184.4,278.2,184.4z"/>
		<path class="st3" d="M277.5,183.7c-26.6,0-52,11.4-69.9,31.3c-0.3,0.3-0.6,0.7-0.7,0.9c-14.9,17.1-23.2,39-23.2,61.6
			c0,51.7,42.1,93.8,93.7,93.8c51.7,0,93.8-42.1,93.8-93.8C371.2,225.8,329.2,183.7,277.5,183.7z"/>
		<path class="st3" d="M276.8,183c-26.6,0-52,11.4-69.9,31.3c-0.3,0.3-0.6,0.7-0.7,0.9c-14.9,17.1-23.2,39-23.2,61.6
			c0,51.7,42.1,93.8,93.8,93.8c51.7,0,93.8-42.1,93.8-93.8S328.5,183,276.8,183z"/>
		<path class="st3" d="M276.1,182.3c-26.6,0-52,11.4-69.9,31.3c-0.3,0.3-0.6,0.7-0.7,0.9c-14.9,17.1-23.2,39-23.2,61.6
			c0,51.7,42.1,93.8,93.8,93.8c51.7,0,93.8-42.1,93.8-93.8S327.8,182.3,276.1,182.3z"/>
		<path class="st3" d="M275.4,181.6c-26.6,0-52,11.4-69.9,31.3c-0.3,0.3-0.6,0.7-0.7,0.9c-14.9,17.1-23.2,39-23.2,61.6
			c0,51.7,42.1,93.8,93.8,93.8c51.7,0,93.8-42.1,93.8-93.8C369.1,223.7,327,181.6,275.4,181.6z"/>
		<path class="st3" d="M274.7,180.9c-26.6,0-52,11.4-69.9,31.3c-0.3,0.3-0.6,0.7-0.7,0.9c-14.9,17.1-23.2,39-23.2,61.6
			c0,51.7,42.1,93.8,93.8,93.8c51.7,0,93.8-42.1,93.8-93.8C368.4,223,326.3,180.9,274.7,180.9z"/>
		<path class="st3" d="M273.9,180.2c-26.6,0-52,11.4-69.9,31.3c-0.3,0.3-0.6,0.7-0.7,0.9c-14.9,17.1-23.2,39-23.2,61.6
			c0,51.7,42.1,93.8,93.7,93.8c51.7,0,93.8-42.1,93.8-93.8C367.7,222.3,325.6,180.2,273.9,180.2z"/>
		<path class="st3" d="M273.2,179.5c-26.6,0-52,11.4-69.9,31.3c-0.3,0.3-0.6,0.7-0.7,0.9c-14.9,17.1-23.2,39-23.2,61.6
			c0,51.7,42.1,93.8,93.7,93.8c51.7,0,93.8-42.1,93.8-93.8S324.9,179.5,273.2,179.5z"/>
		<path class="st3" d="M272.5,178.8c-26.6,0-52,11.4-69.9,31.3c-0.3,0.3-0.6,0.7-0.7,0.9c-14.9,17.1-23.2,39-23.2,61.6
			c0,51.7,42.1,93.8,93.7,93.8c51.7,0,93.8-42.1,93.8-93.8S324.2,178.8,272.5,178.8z"/>
		<path class="st3" d="M271.8,178.1c-26.6,0-52,11.4-69.9,31.3c-0.3,0.3-0.6,0.7-0.7,0.9c-14.9,17.1-23.2,39-23.2,61.6
			c0,51.7,42.1,93.8,93.8,93.8c51.7,0,93.8-42.1,93.8-93.8S323.5,178.1,271.8,178.1z"/>
		<path class="st3" d="M271.1,177.4c-26.6,0-52,11.4-69.9,31.3c-0.3,0.3-0.6,0.7-0.7,0.9c-14.9,17.1-23.2,39-23.2,61.6
			c0,51.7,42.1,93.8,93.8,93.8c51.7,0,93.7-42.1,93.7-93.8C364.9,219.4,322.8,177.4,271.1,177.4z"/>
		<path class="st3" d="M270.4,176.7c-26.6,0-52,11.4-69.9,31.3c-0.3,0.3-0.6,0.7-0.7,0.9c-14.9,17.1-23.2,39-23.2,61.6
			c0,51.7,42.1,93.8,93.7,93.8c51.7,0,93.8-42.1,93.8-93.8C364.2,218.7,322.1,176.7,270.4,176.7z"/>
		<path class="st3" d="M269.7,176c-26.6,0-52,11.4-69.9,31.3c-0.3,0.3-0.6,0.7-0.7,0.9c-14.9,17.1-23.2,39-23.2,61.6
			c0,51.7,42.1,93.8,93.8,93.8c51.7,0,93.8-42.1,93.8-93.8S321.4,176,269.7,176z"/>
		<path class="st3" d="M269,175.3c-26.6,0-52,11.4-69.9,31.3c-0.3,0.3-0.6,0.7-0.7,0.9c-14.9,17.1-23.2,39-23.2,61.6
			c0,51.7,42.1,93.8,93.8,93.8c51.7,0,93.8-42.1,93.8-93.8S320.7,175.3,269,175.3z"/>
		<path class="st3" d="M268.3,174.6c-26.6,0-52,11.4-69.9,31.3c-0.3,0.3-0.6,0.7-0.7,0.9c-14.9,17.1-23.2,39-23.2,61.6
			c0,51.7,42.1,93.8,93.8,93.8c51.7,0,93.8-42.1,93.8-93.8S320,174.6,268.3,174.6z"/>
		<path class="st3" d="M267.6,173.9c-26.6,0-52,11.4-69.9,31.3c-0.3,0.3-0.6,0.7-0.7,0.9c-14.9,17.1-23.2,39-23.2,61.6
			c0,51.7,42.1,93.8,93.8,93.8c51.7,0,93.8-42.1,93.8-93.8C361.4,215.9,319.3,173.9,267.6,173.9z"/>
		<path class="st3" d="M266.9,173.2c-26.6,0-52,11.4-69.9,31.3c-0.3,0.3-0.6,0.7-0.7,0.9c-14.9,17.1-23.2,39-23.2,61.6
			c0,51.7,42.1,93.8,93.7,93.8c51.7,0,93.8-42.1,93.8-93.8C360.7,215.2,318.6,173.2,266.9,173.2z"/>
		<path class="st3" d="M266.2,172.4c-26.6,0-52,11.4-69.9,31.3c-0.3,0.3-0.6,0.7-0.7,0.9c-14.9,17.1-23.2,39-23.2,61.6
			c0,51.7,42.1,93.8,93.7,93.8c51.7,0,93.8-42.1,93.8-93.8C359.9,214.5,317.9,172.4,266.2,172.4z"/>
		<path class="st3" d="M265.5,171.7c-26.6,0-52,11.4-69.9,31.3c-0.3,0.3-0.6,0.7-0.7,0.9c-14.9,17.1-23.2,39-23.2,61.6
			c0,51.7,42.1,93.8,93.7,93.8c51.7,0,93.8-42.1,93.8-93.8C359.2,213.8,317.2,171.7,265.5,171.7z"/>
		<path class="st3" d="M264.8,171c-26.6,0-52,11.4-69.9,31.3c-0.3,0.3-0.6,0.7-0.7,0.9c-14.9,17.1-23.2,39-23.2,61.6
			c0,51.7,42.1,93.8,93.8,93.8c51.7,0,93.8-42.1,93.8-93.8C358.5,213.1,316.5,171,264.8,171z"/>
		<path class="st3" d="M264.1,170.3c-26.6,0-52,11.4-69.9,31.3c-0.3,0.3-0.6,0.7-0.7,0.9c-14.9,17.1-23.2,39-23.2,61.6
			c0,51.7,42.1,93.8,93.8,93.8c51.7,0,93.7-42.1,93.7-93.8C357.8,212.4,315.8,170.3,264.1,170.3z"/>
		<path class="st3" d="M263.4,169.6c-26.6,0-52,11.4-69.9,31.3c-0.3,0.3-0.6,0.7-0.7,0.9c-14.9,17.1-23.2,39-23.2,61.6
			c0,51.7,42.1,93.8,93.8,93.8c51.7,0,93.8-42.1,93.8-93.8C357.1,211.7,315.1,169.6,263.4,169.6z"/>
		<path class="st3" d="M262.7,168.9c-26.6,0-52,11.4-69.9,31.3c-0.3,0.3-0.6,0.7-0.7,0.9c-14.9,17.1-23.2,39-23.2,61.6
			c0,51.7,42.1,93.8,93.7,93.8c51.7,0,93.8-42.1,93.8-93.8C356.4,211,314.4,168.9,262.7,168.9z"/>
		<path class="st3" d="M262,168.2c-26.6,0-52,11.4-69.9,31.3c-0.3,0.3-0.6,0.7-0.7,0.9c-14.9,17.1-23.2,39-23.2,61.6
			c0,51.7,42.1,93.8,93.7,93.8c51.7,0,93.8-42.1,93.8-93.8C355.7,210.3,313.7,168.2,262,168.2z"/>
		<path class="st3" d="M261.3,167.5c-26.6,0-52,11.4-69.9,31.3c-0.3,0.3-0.6,0.7-0.7,0.9c-14.9,17.1-23.2,39-23.2,61.6
			c0,51.7,42.1,93.8,93.7,93.8C313,355,355,313,355,261.3C355,209.6,313,167.5,261.3,167.5z"/>
		<path class="st3" d="M260.6,166.8c-26.6,0-52,11.4-69.9,31.3c-0.3,0.3-0.6,0.7-0.7,0.9c-14.9,17.1-23.2,39-23.2,61.6
			c0,51.7,42.1,93.8,93.7,93.8c51.7,0,93.8-42.1,93.8-93.8C354.3,208.9,312.3,166.8,260.6,166.8z"/>
		<path class="st3" d="M259.9,166.1c-26.6,0-52,11.4-69.9,31.3c-0.3,0.3-0.6,0.7-0.7,0.9c-14.9,17.1-23.2,39-23.2,61.6
			c0,51.7,42.1,93.8,93.8,93.8c51.7,0,93.8-42.1,93.8-93.8C353.6,208.2,311.6,166.1,259.9,166.1z"/>
		<path class="st3" d="M259.2,165.4c-26.6,0-52,11.4-69.9,31.3c-0.3,0.3-0.6,0.7-0.7,0.9c-14.9,17.1-23.2,39-23.2,61.6
			c0,51.7,42.1,93.8,93.7,93.8c51.7,0,93.8-42.1,93.8-93.8C352.9,207.5,310.9,165.4,259.2,165.4z"/>
		<path class="st3" d="M258.5,164.7c-26.6,0-52,11.4-69.9,31.3c-0.3,0.3-0.6,0.7-0.7,0.9c-14.9,17.1-23.2,39-23.2,61.6
			c0,51.7,42.1,93.8,93.8,93.8c51.7,0,93.8-42.1,93.8-93.8S310.1,164.7,258.5,164.7z"/>
		<path class="st3" d="M257.7,164c-26.6,0-52,11.4-69.9,31.3c-0.3,0.3-0.6,0.7-0.7,0.9c-14.9,17.1-23.2,39-23.2,61.6
			c0,51.7,42.1,93.8,93.8,93.8c51.7,0,93.8-42.1,93.8-93.8S309.4,164,257.7,164z"/>
		<path class="st3" d="M257,163.3c-26.6,0-52,11.4-69.9,31.3c-0.3,0.3-0.6,0.7-0.7,0.9c-14.9,17.1-23.2,39-23.2,61.6
			c0,51.7,42.1,93.8,93.8,93.8c51.7,0,93.8-42.1,93.8-93.8S308.7,163.3,257,163.3z"/>
		<path class="st3" d="M256.3,162.6c-26.6,0-52,11.4-69.9,31.3c-0.3,0.3-0.6,0.7-0.7,0.9c-14.9,17.1-23.2,39-23.2,61.6
			c0,51.7,42.1,93.8,93.8,93.8c51.7,0,93.8-42.1,93.8-93.8C350.1,204.6,308,162.6,256.3,162.6z"/>
		<path class="st3" d="M255.6,161.9c-26.6,0-52,11.4-69.9,31.3c-0.3,0.3-0.6,0.7-0.7,0.9c-14.9,17.1-23.2,39-23.2,61.6
			c0,51.7,42.1,93.7,93.7,93.7c51.7,0,93.8-42.1,93.8-93.7C349.4,203.9,307.3,161.9,255.6,161.9z"/>
		<path class="st3" d="M254.9,161.2c-26.6,0-52,11.4-69.9,31.3c-0.3,0.3-0.6,0.7-0.7,0.9c-14.9,17.1-23.2,39-23.2,61.6
			c0,51.7,42.1,93.7,93.7,93.7c51.7,0,93.8-42.1,93.8-93.7C348.7,203.2,306.6,161.2,254.9,161.2z"/>
		<path class="st3" d="M254.2,160.5c-26.6,0-52,11.4-69.9,31.3c-0.3,0.3-0.6,0.7-0.7,0.9c-14.9,17.1-23.2,39-23.2,61.6
			c0,51.7,42.1,93.7,93.8,93.7c51.7,0,93.7-42.1,93.7-93.7S305.9,160.5,254.2,160.5z"/>
		<path class="st3" d="M253.5,159.8c-26.6,0-52,11.4-69.9,31.3c-0.3,0.3-0.6,0.7-0.7,0.9c-14.9,17.1-23.2,39-23.2,61.6
			c0,51.7,42.1,93.8,93.8,93.8c51.7,0,93.7-42.1,93.7-93.8S305.2,159.8,253.5,159.8z"/>
		<path class="st3" d="M252.8,159.1c-26.6,0-52,11.4-69.9,31.3c-0.3,0.3-0.6,0.7-0.7,0.9c-14.9,17.1-23.2,39-23.2,61.6
			c0,51.7,42.1,93.8,93.8,93.8c51.7,0,93.7-42.1,93.7-93.8S304.5,159.1,252.8,159.1z"/>
		<path class="st3" d="M252.1,158.4c-26.6,0-52,11.4-69.9,31.3c-0.3,0.3-0.6,0.7-0.7,0.9c-14.9,17.1-23.2,39-23.2,61.6
			c0,51.7,42.1,93.8,93.8,93.8c51.7,0,93.7-42.1,93.7-93.8C345.9,200.4,303.8,158.4,252.1,158.4z"/>
		<path class="st3" d="M251.4,157.7c-26.6,0-52,11.4-69.9,31.3c-0.3,0.3-0.6,0.7-0.7,0.9c-14.9,17.1-23.2,39-23.2,61.6
			c0,51.7,42.1,93.8,93.7,93.8c51.7,0,93.8-42.1,93.8-93.8C345.2,199.7,303.1,157.7,251.4,157.7z"/>
		<path class="st3" d="M250.7,157c-26.6,0-52,11.4-69.9,31.3c-0.3,0.3-0.6,0.7-0.7,0.9c-14.9,17.1-23.2,39-23.2,61.6
			c0,51.7,42.1,93.8,93.7,93.8c51.7,0,93.8-42.1,93.8-93.8S302.4,157,250.7,157z"/>
		<path class="st3" d="M250,156.3c-26.6,0-52,11.4-69.9,31.3c-0.3,0.3-0.6,0.7-0.7,0.9c-14.9,17.1-23.2,39-23.2,61.6
			c0,51.7,42.1,93.8,93.8,93.8c51.7,0,93.8-42.1,93.8-93.8S301.7,156.3,250,156.3z"/>
	</g>
</g>
<path class="st4" d="M250,156.3c-26.6,0-52,11.4-69.9,31.3c-0.3,0.3-0.6,0.7-0.7,0.9c-14.9,17.1-23.2,39-23.2,61.6
	c0,51.7,42.1,93.8,93.8,93.8c51.7,0,93.8-42.1,93.8-93.8S301.7,156.3,250,156.3z"/>
<g>
	<path class="st5" d="M186,198.5c-0.3-0.3-0.7-0.4-1.1-0.4c-0.4,0-0.8,0.2-1,0.5c-11.6,14.8-17.7,32.6-17.7,51.4
		c0,46.2,37.6,83.8,83.8,83.8c18.8,0,36.5-6.1,51.4-17.7c0.3-0.2,0.5-0.6,0.5-1c0-0.4-0.1-0.8-0.4-1.1L186,198.5z M222.9,297.5
		c-0.1-0.3-0.2-0.6-0.4-0.8c-0.4-0.5-0.8-0.9-1.3-1.2c0.4-1.7,0-3.4-1-4.7c-1.2-1.6-3.2-2.5-5.3-2.2c-0.1-1-0.5-1.9-1-2.7
		c-0.3-0.4-0.7-0.8-1.2-1.1l10.1-7.6c0.1,0,0.2-0.1,0.3-0.2c0.7,0,3.2,1.7,6.1,5.5c2.8,3.7,3.7,6.5,3.6,7.3c0,0,0,0.1,0,0.1
		L222.9,297.5z M205,294.4c-0.5-0.7-0.3-1.7,0.5-2.3c0.4-0.3,0.6-0.9,0.5-1.4c-0.3-1.2,0.2-2.6,1.3-3.4c1.4-1.1,3.5-0.9,4.4,0.3
		c0.5,0.7,0.6,1.6,0.4,2.5c-0.2,0.5,0,1.1,0.4,1.4c0.4,0.4,1,0.4,1.5,0.2c1.4-0.7,3.2-0.3,4,0.8c0.7,0.9,0.7,2.1,0.2,3.2
		c-0.2,0.4-0.2,0.8,0,1.1c0.2,0.4,0.5,0.6,0.8,0.8c0.5,0.2,0.9,0.4,1.2,0.8c0.4,0.5,0.5,1.1,0.4,1.8c-0.1,0.8-0.6,1.5-1.2,2
		c-0.9,0.7-2,0.8-2.9,0.4c-0.7-0.3-1.5,0-1.8,0.7c-0.3,0.6-0.7,1.2-1.2,1.6c-1.5,1.2-3.8,1-4.8-0.4c-0.6-0.7-0.6-1.6-0.5-2.1
		c0-0.4-0.1-0.9-0.4-1.2c-0.3-0.2-0.6-0.4-1-0.4c-0.1,0-0.1,0-0.2,0c-0.8,0.1-1.7-0.2-2.1-0.8c-0.3-0.5-0.5-1-0.4-1.6
		c0.1-0.6,0.5-1.2,1.1-1.7c0.4-0.2,0.5-0.7,0.5-1.2C205.7,295.2,205.4,294.7,205,294.4z M235.3,288.1c-0.9-3-3.4-6.6-3.9-7.2
		c-1.6-2.1-3.3-3.9-4.9-5.1c-0.4-0.3-0.7-0.5-1-0.6l1.5-1.2c0.1,0,0.2-0.1,0.3-0.1c0.7,0,3.2,1.7,6.1,5.5c2.8,3.7,3.7,6.5,3.6,7.3
		c0,0,0,0,0,0.1L235.3,288.1z M239.6,284.9c-0.9-3-3.4-6.6-3.9-7.2c-0.4-0.6-3.2-4.1-5.9-5.8l14.7-11.1l11.6,11.6L239.6,284.9z
		 M221.1,257c-2.6-8.4-2.6-13.2-0.1-18.4c0.1-0.2,0.3-0.5,0.4-0.8l4,4C222.8,246.6,221.7,251.5,221.1,257z M250,331
		c-44.7,0-81-36.3-81-81c0-17.6,5.6-34.3,16.1-48.4l34.2,34.2c-0.4,0.6-0.7,1.1-0.9,1.6c-3.7,7.9-2.2,15.2,2.1,26.6
		c0.1,0.7,0.6,1.2,1.3,1.3c0,0,0.1,0,0.1,0c0,0,0,0,0,0c0,0,0,0,0,0c0.2,0,0.3,0,0.5-0.1c0.6-0.2,1-0.9,0.8-1.6
		c0.5-7.5,1.1-13.9,4.1-19.7l15,15l-33,24.9c-1.3,0-2.7,0.4-3.9,1.2c-1.8,1.3-2.7,3.4-2.5,5.5c-1.2,1.4-1.5,3.4-0.7,5
		c-0.6,0.7-1,1.6-1.2,2.5c-0.3,1.4,0.1,2.7,0.9,3.8c0.8,1,1.9,1.7,3.2,1.8c0.1,0.9,0.5,1.8,1.1,2.5c1.1,1.4,2.8,2.3,4.7,2.3
		c1.4,0,2.9-0.5,4-1.4c0.6-0.4,1.1-1,1.5-1.6c1.5,0.3,3.2-0.1,4.5-1.1c1.2-0.9,2.1-2.3,2.3-3.8l34.6-26.1l40.4,40.4
		C284.3,325.4,267.6,331,250,331z"/>
	<path class="st5" d="M250,166.2c-22.4,0-43.5,8.8-59.4,24.8c-0.5,0.5-0.5,1.4,0,2L307,309.4c0.3,0.3,0.6,0.4,1,0.4
		c0.4,0,0.7-0.1,1-0.4c16-15.9,24.8-37,24.8-59.4C333.8,203.8,296.2,166.2,250,166.2z M229.2,227.6c4.4-6.2,8.2-14.5,2.3-25.4
		c-2.5-4.6-4.3-8.4-5.5-11.4c1.9,2.8,3.7,5,5.3,6.9c2.8,3.5,5.1,6.2,7.1,11.3c3.1,8,0.2,14.8-5.3,22.4L229.2,227.6z M281.4,253.4
		c-1-2.8-3.5-6.2-4.2-7c-1.5-1.9-3.6-4.5-5.6-5.9l34.7-26.2h0c0.5,0,2.6,1.3,5.6,5.1c3.1,3.9,4.5,7.2,4.4,7.8L281.4,253.4z
		 M269.3,242.3c0.8,0.4,3,2.3,5.7,5.8c2.7,3.6,3.9,6.2,4,7.1l-12.7,9.6l-11.6-11.6L269.3,242.3z M308,306.5l-39.7-39.7l12.7-9.6
		c0,0,0,0,0,0l36.8-27.8c2.9-2.2-1.5-8.6-3.5-11.2c-2.4-3.2-6.8-8.2-9.6-6.1L268,239.8c0,0,0,0.1-0.1,0.1c0,0-0.1,0-0.1,0
		l-15.1,11.4L235,233.4c5.4-7.4,9.7-15.7,5.9-25.4c-2.1-5.5-4.6-8.5-7.5-12.1c-2.7-3.3-5.7-7-9.3-13.7c0-0.1-0.1-0.1-0.1-0.1
		c-0.1-0.1-0.1-0.2-0.2-0.2c-0.1-0.1-0.1-0.1-0.2-0.1c-0.1,0-0.2-0.1-0.2-0.1c-0.1,0-0.2,0-0.3-0.1c-0.1,0-0.1,0-0.2,0
		c0,0,0,0-0.1,0c-0.2,0-0.4,0-0.6,0.1c-0.3,0.1-0.4,0.4-0.6,0.6c0,0,0,0.1-0.1,0.1c0,0.1-0.1,0.2-0.1,0.3c0,0.1,0,0.1,0,0.2
		c0,0.1,0,0.1,0,0.2l0,0c-0.1,4.6,2.1,10.5,7.5,20.5c5.1,9.3,2.2,16.4-1.8,22.1L193.6,192c15.2-14.8,35.2-23,56.4-23
		c44.7,0,81,36.3,81,81C331,271.2,322.8,291.2,308,306.5z"/>
	<path class="st5" d="M250,156.3c-26.6,0-52,11.4-69.9,31.3c-0.3,0.3-0.6,0.7-0.7,0.9c-14.9,17.1-23.2,39-23.2,61.6
		c0,51.7,42.1,93.8,93.8,93.8c51.7,0,93.8-42.1,93.8-93.8S301.7,156.3,250,156.3z M250,341c-50.2,0-91-40.8-91-91
		c0-21.9,8-43.2,22.6-59.9c0.1-0.2,0.3-0.4,0.4-0.5c0.1-0.1,0.2-0.2,0.3-0.3c17.3-19.3,42-30.3,67.7-30.3c50.2,0,91,40.8,91,91
		C341,300.2,300.2,341,250,341z"/>
	<path class="st5" d="M285.2,236.1c0.3,0.4,0.7,0.5,1.1,0.5c0.3,0,0.6-0.1,0.8-0.3c0.6-0.5,0.7-1.3,0.3-1.9l-0.5-0.6
		c-0.5-0.6-1.3-0.8-1.9-0.3c-0.6,0.5-0.7,1.3-0.3,1.9L285.2,236.1z"/>
	<path class="st5" d="M298.4,224.7c0.3,0.4,0.7,0.5,1.1,0.5c0.3,0,0.6-0.1,0.8-0.3c0.6-0.5,0.7-1.3,0.3-1.9l-0.7-0.9
		c-0.5-0.6-1.3-0.7-1.9-0.3c-0.6,0.5-0.7,1.3-0.3,1.9L298.4,224.7z"/>
	<path class="st5" d="M298.8,227.3c-0.6,0.5-0.7,1.3-0.3,1.9l0.5,0.6l1.1-0.8l0.9-1.1l-0.3-0.4C300.2,227,299.4,226.8,298.8,227.3z"
		/>
	<path class="st5" d="M305.7,223.3c0.6-0.5,0.7-1.3,0.3-1.9l-0.7-1c-0.5-0.6-1.3-0.7-1.9-0.3c-0.6,0.5-0.7,1.3-0.3,1.9l0.7,1
		c0.3,0.4,0.7,0.6,1.1,0.6C305.2,223.6,305.4,223.5,305.7,223.3z"/>
	<path class="st5" d="M307.3,228.2c-0.5-0.6-1.3-0.7-1.9-0.3c-0.6,0.5-0.7,1.3-0.3,1.9l0.6,0.9c0.3,0.4,0.7,0.6,1.1,0.6
		c0.3,0,0.6-0.1,0.8-0.3c0.6-0.5,0.7-1.3,0.3-1.9L307.3,228.2z"/>
	<path class="st5" d="M284.6,240.4l-0.3-0.4c-0.5-0.6-1.3-0.7-1.9-0.3c-0.6,0.5-0.7,1.3-0.3,1.9l0.3,0.4c0.3,0.4,0.7,0.6,1.1,0.6
		c0.3,0,0.6-0.1,0.8-0.3C284.9,241.9,285.1,241,284.6,240.4z"/>
	<path class="st5" d="M281.9,245.1c-0.5-0.6-1.3-0.7-1.9-0.3c-0.6,0.5-0.7,1.3-0.3,1.9l0.7,1c0.3,0.4,0.7,0.5,1.1,0.5
		c0.3,0,0.6-0.1,0.8-0.3c0.6-0.5,0.7-1.3,0.3-1.9L281.9,245.1z"/>
	<path class="st5" d="M286,245.6c-0.5-0.6-1.3-0.7-1.9-0.3c-0.6,0.5-0.7,1.3-0.3,1.9l0.3,0.4c0.3,0.4,0.7,0.6,1.1,0.6
		c0.3,0,0.6-0.1,0.8-0.3c0.6-0.5,0.7-1.3,0.3-1.9L286,245.6z"/>
	<path class="st5" d="M294.6,238c-0.5-0.6-1.3-0.7-1.9-0.3c-0.6,0.5-0.7,1.3-0.3,1.9l0.7,1c0.3,0.4,0.7,0.6,1.1,0.6
		c0.3,0,0.6-0.1,0.8-0.3c0.6-0.5,0.7-1.3,0.3-1.9L294.6,238z"/>
	<path class="st5" d="M289.4,240.2c-0.5-0.6-1.3-0.7-1.9-0.3c-0.6,0.5-0.7,1.3-0.3,1.9l0.3,0.4c0.3,0.4,0.7,0.6,1.1,0.6
		c0.3,0,0.6-0.1,0.8-0.3c0.6-0.5,0.7-1.3,0.3-1.9L289.4,240.2z"/>
	<path class="st5" d="M310.8,223.2c-0.5-0.6-1.3-0.7-1.9-0.3c-0.6,0.5-0.7,1.3-0.3,1.9l0.6,0.8c0.3,0.4,0.7,0.5,1.1,0.5
		c0.3,0,0.6-0.1,0.8-0.3c0.6-0.5,0.7-1.3,0.3-1.9L310.8,223.2z"/>
	<path class="st5" d="M279.4,239l-0.2-0.3c-0.5-0.6-1.2-0.5-1.8,0c-0.6,0.5-0.6,1.5-0.1,2.1c0.3,0.3,0.6,0.5,1,0.5
		c0.3,0,0.6-0.1,0.9-0.3C279.7,240.6,279.8,239.6,279.4,239z"/>
	<path class="st5" d="M291.9,230.2c0.3,0.4,0.7,0.5,1.1,0.5c0.3,0,0.6-0.1,0.8-0.3c0.6-0.5,0.7-1.3,0.3-1.9l-0.5-0.6
		c-0.5-0.6-1.3-0.7-1.9-0.3c-0.6,0.5-0.7,1.3-0.3,1.9L291.9,230.2z"/>
	<path class="st5" d="M293.5,235.7c0.6-0.5,0.8-1.3,0.3-1.9l-0.2-0.3l-1.2,0.7l1.1-0.8c-0.5-0.6-1.3-0.7-1.9-0.3
		c-0.6,0.5-0.7,1.3-0.3,1.9c0,0,0.3,0.4,0.3,0.4c0.3,0.4,0.7,0.6,1.1,0.6C292.9,235.9,293.2,235.8,293.5,235.7z"/>
	<path class="st5" d="M298.5,233.5c-0.5-0.6-1.3-0.7-1.9-0.2c-0.6,0.5-0.7,1.3-0.2,1.9l0.3,0.4c0.3,0.4,0.7,0.6,1.1,0.6
		c0.3,0,0.6-0.1,0.8-0.3c0.6-0.5,0.7-1.3,0.3-1.9L298.5,233.5z"/>
	<path class="st5" d="M203.3,272.7c0.7-1.2,1.5-2.5,2.4-4.1c4.7-8.3,1.7-15.1-2.7-23.2c-3.7-6.8-5.2-13-5.2-21.6c0-0.1,0-0.1,0-0.2
		c0-0.1,0-0.2-0.1-0.3c0-0.1-0.1-0.1-0.1-0.2c-0.1-0.1-0.1-0.2-0.2-0.2c-0.1-0.1-0.2-0.1-0.3-0.2c-0.1,0-0.1-0.1-0.2-0.1
		c0,0,0,0,0,0c-0.1,0-0.2,0-0.3-0.1c-0.1,0-0.1,0-0.2,0c0,0,0,0,0,0c-0.1,0-0.2,0-0.3,0.1c-0.1,0-0.1,0-0.2,0
		c-0.1,0-0.2,0.1-0.3,0.2c0,0-0.1,0.1-0.1,0.1c-0.1,0.1-0.1,0.2-0.2,0.3c0,0-0.1,0.1-0.1,0.1c0,0,0,0,0,0l0,0
		c-3.5,7.8-6,16.2-1.2,25.2c4.1,7.6,5.4,11.4,1.6,18.7c-4.3,8.3-2.3,12.1,0.1,17l0.3,0.6c0,0,0,0,0.1,0.1c0.1,0.2,0.3,0.4,0.5,0.5
		c0,0,0,0,0,0c0.2,0.1,0.3,0.2,0.5,0.2c0.1,0,0.1,0,0.2,0c0.2,0,0.4,0,0.6-0.1c0.1,0,0.1-0.1,0.2-0.2c0,0,0.1-0.1,0.1-0.1
		c0.2-0.2,0.4-0.5,0.4-0.7c0,0,0,0,0-0.1C199.3,279.2,200.8,276.8,203.3,272.7z M198.1,268.3c4.3-8.4,2.7-13.2-1.7-21.3
		c-2.7-5-3.1-10-1-16.7c0.6,5.9,2.3,11,5.1,16.3c4.1,7.6,6.7,13.4,2.7,20.5c-0.8,1.5-1.6,2.8-2.3,4c-1.8,3.1-3.2,5.4-4.1,8.5
		C195.5,276.6,195.3,273.7,198.1,268.3z"/>
</g>
</svg>
