<?xml version="1.0" encoding="utf-8"?>
<!-- Generator: Adobe Illustrator 21.1.0, SVG Export Plug-In . SVG Version: 6.00 Build 0)  -->
<svg version="1.1" id="Layer_1" xmlns="http://www.w3.org/2000/svg" xmlns:xlink="http://www.w3.org/1999/xlink" x="0px" y="0px"
	 viewBox="0 0 547.9 800" style="enable-background:new 0 0 547.9 800;" xml:space="preserve">
<style type="text/css">
	.st0{fill:#E1AD26;}
</style>
<g>
	<path class="st0" d="M291.7,261.1c0,26.1-35.3,53.7-81.2,53.7v438.6c0,62.3-126.9,62.3-126.9,0V314.7C38.9,314.7,0,291.8,0,257.2
		V15.9c0-21,76.9-21.7,76.9,0.8l0,178.4h33.5l0,0l1.9-179.9c0-20.1,78.8-20.2,78.8,1.3l-1.9,178.6h27.6l0-180.2
		c0-19.9,74.9-20.1,74.9,1.2L291.7,261.1L291.7,261.1z"/>
	<path class="st0" d="M547.9,71.8v682.8c0,61-141.4,60-141.4,0V483.8h-75.3v-412C331.1-23.9,547.9-23.9,547.9,71.8"/>
</g>
</svg>
