<?xml version="1.0" encoding="utf-8"?>
<!-- Generator: Adobe Illustrator 19.1.0, SVG Export Plug-In . SVG Version: 6.00 Build 0)  -->
<svg version="1.1" id="Ñëîé_1" xmlns="http://www.w3.org/2000/svg" xmlns:xlink="http://www.w3.org/1999/xlink" x="0px" y="0px"
	 viewBox="300 -320 1200 1200" style="enable-background:new 300 -320 1200 1200;" xml:space="preserve">
<style type="text/css">
	.st0{fill:#F0D0B4;}
	.st1{fill:#BCBEC0;}
	.st2{fill:#EC585D;}
</style>
<path class="st0" d="M487.8,186.3c0.1,1.1-1,1.9-2,1.6c-15.5-4.1-28.7-5.8-39.1,7.3c-11.7,14.7-13.6,35.5-2.6,52.8
	c8.9,14.1,19.8,27,30.3,40.1c24.3,30.2,52.4,56.7,81.2,82.7c11.5,10.4,21.2,22.5,31.9,33.8c1.9,2.1,4.1,3.9,6.3,5.7
	c0.6,0.5,1.5,0.5,2.1,0l0,0c0.6-0.5,0.8-1.4,0.4-2c-0.9-1.5-1.7-3.1-2.8-4.2c-22.1-22.1-44.6-43.8-66.3-66.3
	c-19.8-20.6-38.9-42-58-63.4c-7.1-7.9-13.9-16.2-19.4-25.3c-6.4-10.6-9.7-22.6-6.8-35.3c4.5-20,18.6-29.5,37.3-21.7
	c15.2,6.4,30.2,15.3,42.3,26.5c16.8,15.4,31.3,33.5,45.7,51.3c33.1,40.8,76.1,66.2,125.1,82.9c86.1,29.4,144.9,86.4,172.8,173.8
	c6.6,20.7,9.4,42.1,8.2,61.9c-0.3,4.2-3.4,7.7-7.5,8.5c-34.7,7.2-68,14.4-101.6,20.6c-18.7,3.5-37.8,5-56.8,6.9
	c-2.7,0.3-7.3-1.6-8.2-3.7c-20.8-45-56.4-74.7-98.8-97.8c-32.9-17.9-65.4-36.7-98.5-54.2c-29.4-15.5-48.4-37.3-53.4-71.2
	c-7.8-52.8-17.7-105.2-25-158c-6.4-46.6,2.3-93,5.1-139.4c0.9-14.8,2.4-29.8,5.4-44.2c1.4-6.5,6.8-16.3,11.3-16.8
	c6-0.7,15.4,4.7,18.8,10.2c7.4,11.9,15.2,25.1,16.8,38.5C485.5,120.1,486,152.7,487.8,186.3z"/>
<rect x="695.1" y="621.1" transform="matrix(-0.982 0.1891 -0.1891 -0.982 1701.3429 1126.9401)" class="st1" width="203.6" height="47"/>
<path class="st0" d="M1310.6,161.4c0,1.1,1.1,1.9,2.1,1.5c15.2-5.1,28.3-7.6,39.5,4.8c12.6,13.9,15.8,34.6,6,52.5
	c-8,14.7-18,28.2-27.7,41.9c-22.3,31.7-48.7,59.9-75.8,87.6c-10.8,11.1-19.8,23.8-29.7,35.7c-1.8,2.2-3.9,4.1-5.9,6.1
	c-0.6,0.6-1.4,0.6-2.1,0.2l0,0c-0.6-0.5-0.8-1.3-0.5-2c0.8-1.5,1.5-3.2,2.6-4.4c20.6-23.5,41.8-46.5,62-70.4
	c18.5-21.8,36.2-44.4,53.8-66.9c6.5-8.3,12.9-17.1,17.8-26.4c5.8-11,8.2-23.1,4.5-35.7c-5.8-19.7-20.5-28.3-38.6-19.3
	c-14.7,7.3-29.2,17.2-40.5,29.1c-15.8,16.5-29.1,35.4-42.4,54.1c-30.5,42.8-71.7,70.9-119.6,90.7C1032.1,375.4,977,436,954.8,525
	c-5.3,21.1-6.8,42.6-4.3,62.3c0.5,4.2,3.9,7.5,8,8c35.1,5,68.8,10.1,102.7,14.2c18.9,2.3,38.1,2.6,57.1,3.2c2.7,0.1,7.1-2,8-4.2
	c17.9-46.2,51.5-78.2,92.4-103.9c31.7-20,62.9-40.8,94.9-60.3c28.3-17.3,46-40.3,48.8-74.5c4.4-53.1,11-106.1,15-159.3
	c3.5-46.9-8.2-92.6-13.9-138.8c-1.8-14.7-4.3-29.5-8.2-43.8c-1.8-6.4-7.9-15.9-12.3-16.1c-6-0.3-15,5.6-18.1,11.4
	c-6.6,12.3-13.6,26-14.3,39.5C1308.7,95.1,1310.3,127.7,1310.6,161.4z"/>
<rect x="1007.9" y="536.6" transform="matrix(-0.1265 0.992 -0.992 -0.1265 1795.062 -303.9628)" class="st1" width="47" height="203.6"/>
<g>
	<g>
		<path class="st2" d="M1257.1,42c-0.1-1.4-0.2-2.7-0.3-4.1c-0.1-1.7-0.2-3.4-0.4-5.1c-0.1-1-0.3-2-0.4-3
			c-10.8-88.3-86-156.7-177.3-156.7C980-127,900-47,900,51.7C900-47,820-127,721.3-127C630.1-127,554.8-58.6,544,29.7
			c-0.1,1-0.3,2-0.4,3c-0.2,1.7-0.3,3.4-0.4,5.1c-0.1,1.4-0.2,2.7-0.3,4.1c-0.2,3.2-0.3,6.4-0.3,9.7
			C542.1,276.1,900,434.4,900,434.4s357.9-158.3,357.4-382.7C1257.4,48.4,1257.3,45.2,1257.1,42z"/>
	</g>
</g>
</svg>
