<svg xmlns="http://www.w3.org/2000/svg" width="393" height="283" fill="none" viewBox="0 0 393 283">
    <path fill="#D47668" d="M77.424 39.414S98.677 75.251 92.082 88.03c-6.594 12.778-28.111 1.425-25.482-22.104 2.629-23.544 10.824-26.51 10.824-26.51z"/>
    <path fill="#F49E81" d="M96.444 47.639s-23.75 34.28-18.007 43.254c5.743 8.974 22.912-16.435 24.969-30.814 2.056-14.379-6.962-12.44-6.962-12.44z"/>
    <path fill="#D84C71" d="M7.835 94.374c.28-.411 40.949-4.347 50.055-7.226 0 .044-.015.073-.015.073 38.26 102.635-3.32 173.927-19.798 175.381-18.756 1.66 3.025-66.577 4.377-71.674 4.64-17.448 6.873-31.298-2.248-46.882-6.712-11.456-1.233 116.779-25.805 113.989-15.554-1.763-17.36-28.038-1.542-72.6 3.73-10.545-23.412-63.111-5.024-91.061z"/>
    <path fill="#0B5458" d="M32.07 131.151c9.987-5.757-16.215-17.331-29.713-22.677-1.16 6.11-1.204 12.69-.587 19.372 6.447 3.261 20.415 9.004 30.3 3.305zM85.193 54.38c-3.921-8.46-7.77-14.966-7.77-14.966s-8.195 2.967-10.824 26.51c-.88 7.888.955 14.409 4.04 19.109 3.113-4.245 12.043-17.302 14.554-30.653z"/>
    <path fill="#C04467" d="M39.81 143.562c-1.703-2.174-8.254-5.155-11.603 4.068-3.833 10.531.602 25.527-1.791 40.993-2.395 15.465.616 10.207-5.67 33.163-5.287 19.314-9.517 28.714-6.873 36.161.176.029.352.073.528.088 24.073 2.761 19.27-120.51 25.41-114.473zM57.86 87.221s0-.03.016-.073c-3.04.97-7.124 2.085-12.073 3.04-.53 14.35-.382 36.454 4.626 48.116 7.8 18.183 15.099 40.595 11.809 50.318-3.29 9.723-15.422 29.346-18.124 45.605-1.66 10.031-4.612 20.503-3.804 27.803 17.639-7.036 54.181-76.551 17.55-174.809z"/>
    <path fill="#283B42" d="M57.259 11.978s3.407-2.526 2.394-5.772C58.64 2.96 54.424-1.24 50.679.346c-1.557.66-2.482 1.542-3.01 2.35-.78 1.16-1.675 2.218-2.747 3.099-.573.47-1.146 1.16-1.498 2.13-.955 2.629-.69 9.062-.69 9.062s12.454-.69 14.525-5.009z"/>
    <path fill="#0F2B37" d="M46.816 3.841c3.129 4.304 9.283 5.67 12.264 6.081-.764 1.263-1.821 2.041-1.821 2.041-2.07 4.319-14.526 5.024-14.526 5.024s-.264-6.433.69-9.062c.353-.97.926-1.66 1.499-2.13.705-.588 1.336-1.249 1.894-1.954z"/>
    <path fill="#6CA295" d="M.771 114.026c-.235-25.218-2.805-62.421 7.887-80.34 6.918-11.603 24.205-11.412 35.103-9.9 8.96 1.25 28.361 6.669 33.325 15.026 4.407 7.402 1.014 14.35-1.307 20.357-2.658 6.888-4.803 12.983-6.638 24.748-2.453 15.7.572 40.522.205 41.344-11.148 11.971-61.922 7.447-68.575-11.235z"/>
    <path fill="#F49E81" d="M45.347 13.139l-8.019 11.808c-.529 1.836 7.946 9.65 11.486 8.137 1.042-.44 1.292-2.262 1.013-4.392l-1.88-11.69-2.6-3.863z"/>
    <path fill="#311E69" d="M48.328 19.351c-1.924-.91-4.538-2.203-4.538-2.203s-.72 3.275 1.44 6.477c1.13 1.69 2.702 2.79 4.332 3.364L48.33 19.35z"/>
    <path fill="#F49E81" d="M49.166 9.57l-4.802 6.315c-1.41 2.203-.823 5.14 1.336 6.61 1.733 1.174 2.967 1.615 5.508 2.159 2.115.455 3.848-1.131 4.773-3.804 1.205-3.467 1.322-6.992 1.278-8.872-.088-4.318-4.656-6.3-8.093-2.408z"/>
    <path fill="#fff" d="M51.633 16.223s1.543.999 4.025 1.528c0 0-.47 1.571-1.601 1.777-1.131.235-2.512-1.249-2.424-3.305z"/>
    <path fill="#D47668" d="M52.765 22.215c-2.115-1.248-5.038 1.601-7.96-3.07-.544-.866-.441-2.467-.339-3.407l-.102.133c-1.41 2.203-.823 5.14 1.336 6.609 1.733 1.175 2.967 1.616 5.508 2.159 1.292.279 2.438-.206 3.349-1.234-.426-.059-1.146-.808-1.792-1.19z"/>
    <path fill="#F49E81" d="M48.359 12.507c.058-.485.19-.955.352-1.425.309-.88.558-2.262-.984-2.07-2.232.278-3.745 4.552-1.689 5.669 1.542.822 2.174-.94 2.32-2.174z"/>
    <path fill="#0C2D32" d="M57.331 18.426c-.102-.015-.205-.044-.308-.073l-.411-.147c-.588-.22-.955-.867-.999-1.792l-.074-1.557c-.014-.367.06-.793.206-1.19.176-.455.426-.866.735-1.145.367-.338.793-.456 1.16-.323l2.173.808c.397.146.647.528.72 1.086.059.456-.03.984-.22 1.513-.69 1.807-1.924 2.952-2.982 2.82zm-.014-5.39c-.118 0-.5.308-.735.94-.102.294-.161.587-.147.837l.074 1.557c.03.514.19.91.426.999l.411.146c.544.206 1.572-.704 2.13-2.232.147-.382.205-.778.161-1.087-.03-.25-.102-.352-.147-.367l-2.173-.793zM51.236 16.15c-.161-.015-.323-.06-.47-.118l-.587-.22c-1.469-.544-2.086-2.556-1.38-4.48.44-1.19 1.527-1.85 2.452-1.498l3.128 1.16c.426.162.75.53.882 1.014.132.44.102.954-.089 1.44-.161.425-.425.792-.749 1.057l-1.321 1.042c-.588.47-1.249.676-1.866.603zm-.426-5.508c-.426-.044-.94.382-1.175 1.013-.543 1.469-.161 2.967.852 3.334l.588.22c.455.162.998.045 1.483-.352l1.322-1.043c.19-.161.352-.396.455-.66.118-.31.133-.632.059-.897-.03-.132-.132-.352-.338-.425l-3.128-1.16c-.03-.016-.074-.03-.118-.03z"/>
    <path fill="#0C2D32" d="M56.185 14.079c-.132-.015-.264-.089-.338-.22-.323-.574-.793-.368-.837-.353-.22.102-.484.014-.587-.206-.103-.22-.015-.485.205-.587.44-.206 1.41-.338 1.998.705.117.22.044.484-.162.602-.088.059-.19.073-.279.059z"/>
    <path fill="#D84C71" d="M112.85 111.661v-16.7H98.31v16.685c0 2.13-1 4.142-2.703 5.42l-1.674 1.263c-1.601 1.204-2.541 3.084-2.541 5.082V134h28.405v-10.589c0-1.998-.94-3.892-2.541-5.082l-1.674-1.263c-1.733-1.278-2.732-3.275-2.732-5.405z"/>
    <path fill="#A2164B" d="M112.851 94.961H98.31v13.909c3.687-.705 10.002-2.071 14.555-3.818v-10.09h-.014z"/>
    <path fill="#3E858C" d="M229.995 85.503h-35.367v45.942h35.367V85.503z"/>
    <path fill="#3E858C" d="M207.407 85.504h-70.734v45.941h70.734V85.504z"/>
    <path fill="#AD263D" d="M148.451 101.585l-.059-9.267h2.82c1.719 0 3.114 2.041 3.114 4.641s-1.381 4.641-3.099 4.641h-2.776v-.015z"/>
    <path fill="#FF6161" d="M148.422 101.585c1.719 0 3.114-2.07 3.114-4.64 0-2.556-1.395-4.642-3.114-4.642-1.718 0-3.113 2.071-3.113 4.641s1.395 4.641 3.113 4.641z"/>
    <path fill="#AD263D" d="M161.274 99.515l-.029-5.14h1.557c.954 0 1.718 1.13 1.718 2.57 0 1.439-.764 2.57-1.718 2.57h-1.528z"/>
    <path fill="#FF6161" d="M161.259 99.515c.954 0 1.718-1.146 1.718-2.57 0-1.425-.778-2.57-1.718-2.57-.955 0-1.719 1.145-1.719 2.57 0 1.424.764 2.57 1.719 2.57z"/>
    <path fill="#AD263D" d="M169.248 99.515l-.029-5.14h1.557c.954 0 1.718 1.13 1.718 2.57 0 1.439-.764 2.57-1.718 2.57h-1.528z"/>
    <path fill="#FF6161" d="M169.234 99.515c.954 0 1.718-1.146 1.718-2.57 0-1.425-.778-2.57-1.718-2.57-.955 0-1.719 1.145-1.719 2.57 0 1.424.764 2.57 1.719 2.57z"/>
    <path fill="#AD263D" d="M177.224 99.515l-.03-5.14h1.557c.955 0 1.719 1.13 1.719 2.57 0 1.439-.764 2.57-1.719 2.57h-1.527z"/>
    <path fill="#FF6161" d="M177.209 99.515c.949 0 1.718-1.151 1.718-2.57 0-1.42-.769-2.57-1.718-2.57-.95 0-1.719 1.15-1.719 2.57 0 1.419.769 2.57 1.719 2.57z"/>
    <path fill="#FF9D47" d="M185.2 99.515l-.03-5.14h1.557c.955 0 1.718 1.13 1.718 2.57 0 1.439-.763 2.57-1.718 2.57H185.2z"/>
    <path fill="#FFDA64" d="M185.185 99.515c.949 0 1.719-1.151 1.719-2.57 0-1.42-.77-2.57-1.719-2.57-.949 0-1.718 1.15-1.718 2.57 0 1.419.769 2.57 1.718 2.57z"/>
    <path fill="#FF9D47" d="M193.175 99.515l-.029-5.14h1.557c.954 0 1.718 1.13 1.718 2.57 0 1.439-.764 2.57-1.718 2.57h-1.528z"/>
    <path fill="#FFDA64" d="M193.16 99.515c.949 0 1.718-1.151 1.718-2.57 0-1.42-.769-2.57-1.718-2.57s-1.718 1.15-1.718 2.57c0 1.419.769 2.57 1.718 2.57z"/>
    <path fill="#AD263D" d="M161.274 111.353l-.029-5.141h1.557c.954 0 1.718 1.131 1.718 2.571 0 1.439-.764 2.57-1.718 2.57h-1.528z"/>
    <path fill="#FF6161" d="M161.259 111.353c.954 0 1.718-1.146 1.718-2.57 0-1.425-.778-2.571-1.718-2.571-.955 0-1.719 1.146-1.719 2.571 0 1.424.764 2.57 1.719 2.57z"/>
    <path fill="#AD263D" d="M169.248 111.353l-.029-5.141h1.557c.954 0 1.718 1.131 1.718 2.571 0 1.439-.764 2.57-1.718 2.57h-1.528z"/>
    <path fill="#FF6161" d="M169.234 111.353c.954 0 1.718-1.146 1.718-2.57 0-1.425-.778-2.571-1.718-2.571-.955 0-1.719 1.146-1.719 2.571 0 1.424.764 2.57 1.719 2.57z"/>
    <path fill="#AD263D" d="M177.224 111.353l-.03-5.141h1.557c.955 0 1.719 1.131 1.719 2.571 0 1.439-.764 2.57-1.719 2.57h-1.527z"/>
    <path fill="#FF6161" d="M177.209 111.353c.949 0 1.718-1.151 1.718-2.57 0-1.42-.769-2.571-1.718-2.571-.95 0-1.719 1.151-1.719 2.571 0 1.419.769 2.57 1.719 2.57z"/>
    <path fill="#AD263D" d="M185.2 111.353l-.03-5.141h1.557c.955 0 1.718 1.131 1.718 2.571 0 1.439-.763 2.57-1.718 2.57H185.2z"/>
    <path fill="#FF6161" d="M185.185 111.353c.949 0 1.719-1.151 1.719-2.57 0-1.42-.77-2.571-1.719-2.571-.949 0-1.718 1.151-1.718 2.571 0 1.419.769 2.57 1.718 2.57z"/>
    <path fill="#AD263D" d="M193.175 111.353l-.029-5.141h1.557c.954 0 1.718 1.131 1.718 2.571 0 1.439-.764 2.57-1.718 2.57h-1.528z"/>
    <path fill="#FF6161" d="M193.16 111.353c.949 0 1.718-1.151 1.718-2.57 0-1.42-.769-2.571-1.718-2.571s-1.718 1.151-1.718 2.571c0 1.419.769 2.57 1.718 2.57z"/>
    <path fill="#516166" d="M204.206 100.689l9.267 29.889h-19.886l-8.798-29.889h19.417z"/>
    <path fill="#28374A" d="M204.206 100.689l5.038 16.274c-2.071-.558-5.126-1.513-7.167-2.614-3.334-1.822-3.334-2.13-5.919-1.513-2.585.602-4.289 2.13-5.787-.455-.367-.632-1.292-.984-2.497-1.146l-3.099-10.531h19.431v-.015z"/>
    <path fill="#28374A" d="M152.462 102.202h86.039c4.303 0 8.504-3.525 9.326-7.828l11.618-59.572c.822-4.303-2.012-7.828-6.33-7.828h-86.039c-4.303 0-8.504 3.525-9.326 7.828l-11.618 59.572c-.822 4.303 2.027 7.828 6.33 7.828z"/>
    <path fill="#506266" d="M148.526 102.203h86.038c4.303 0 8.504-3.525 9.326-7.829l11.618-59.571c.823-4.304-2.012-7.829-6.33-7.829H163.14c-4.304 0-8.504 3.525-9.327 7.829l-11.617 59.571c-.823 4.304 2.012 7.829 6.33 7.829z"/>
    <path fill="#fff" d="M159.644 32.937c.044-.264.337-.5.587-.5H250c.264 0 .455.236.396.5l-10.971 56.517c-.044.264-.338.5-.587.5h-89.769c-.265 0-.456-.236-.397-.5l10.972-56.517z"/>
    <path fill="#D84C71" d="M232.434 83.696s-.763-6.976-7.593-9.106-13.351 3.334-19.578 1.366c-6.228-1.968-12.602-30.036-25.791-30.036-15.481 0-19.578 37.776-19.578 37.776h72.54z"/>
    <path fill="#CD1F4D" d="M163.389 83.696s1.968-15.627 10.781-16.39c8.797-.764 13.057 4.552 18.065 3.04 5.008-1.513 8.504-15.334 17.904-13.058 9.414 2.277 15.48 21.253 15.48 26.408h-62.23z"/>
    <path fill="#D84C71" d="M214.444 42.69h26.29l.47-1.822h-26.29l-.47 1.821zM212.622 49.622h26.29l.485-1.822h-26.29l-.485 1.822z"/>
    <path fill="#28374A" d="M188.285 96.151c-.117 1.44.735 2.688 1.895 2.776 1.16.088 2.188-.999 2.306-2.438.117-1.44-.735-2.688-1.895-2.776-1.16-.088-2.188.999-2.306 2.438z"/>
    <path fill="#69B7CE" d="M145.177 133.56c-.867 0-1.821-.059-2.879-.206-11.383-1.527-24.322-39.141-24.866-40.742-.176-.5.103-1.043.603-1.22.499-.16 1.042.104 1.219.603 3.613 10.589 14.819 38.319 23.308 39.45 7.344.984 8.901-1.924 10.854-5.625.999-1.88 2.027-3.804 3.892-5.332 5.523-4.523 12.646-3.598 12.955-3.554.528.073.881.558.822 1.072-.073.529-.558.896-1.072.823-.059 0-6.609-.838-11.471 3.143-1.571 1.278-2.497 3.04-3.407 4.744-1.821 3.378-3.657 6.844-9.958 6.844z"/>
    <path fill="#166569" d="M75.795 59.169c2.32-5.993 5.698-12.94 1.307-20.342-3.466-5.831-13.938-10.223-23-12.778 1.336 3.32 2.379 7.08 2.335 10.663-.117 9.884-4.23 8.739-4.803 25.732-.573 17.008 4.318 19.96.837 37.056-.367 1.807-28.023 6.668-28.2 8.504-.954 10.031 23.354 9.547 22.355 13.586-1.293 5.228-.837 6.007-1.38 10.281 10.618-.074 20.033-2.247 24.116-6.624.367-.823-2.659-25.644-.206-41.345 1.836-11.75 3.966-17.845 6.639-24.733zM154.003 133.56c-.866 0-1.821-.059-2.878-.205-11.295-1.513-31.358-41.257-32.209-42.946-.235-.47-.045-1.043.425-1.278.47-.235 1.043-.044 1.278.426 5.655 11.265 22.193 40.757 30.741 41.903 7.358.984 8.886-1.924 10.854-5.625.998-1.88 2.027-3.804 3.892-5.332 5.522-4.524 12.646-3.598 12.954-3.554.529.073.881.558.823 1.072-.074.529-.573.896-1.073.822-.058 0-6.609-.837-11.47 3.144-1.572 1.277-2.497 3.04-3.408 4.744-1.792 3.363-3.628 6.829-9.929 6.829z"/>
    <path fill="#FF6161" d="M161.875 133.56c-.866 0-1.821-.059-2.878-.206-11.221-1.498-38.834-41.139-40.009-42.828-.308-.44-.19-1.028.236-1.336.44-.309 1.028-.191 1.336.235 7.843 11.294 30.065 40.86 38.686 42.02 7.344.984 8.886-1.924 10.854-5.625.999-1.88 2.027-3.804 3.892-5.332 5.523-4.523 12.646-3.598 12.955-3.554.528.073.881.558.822 1.072-.073.529-.558.896-1.072.823-.059 0-6.609-.838-11.471 3.143-1.571 1.277-2.497 3.04-3.407 4.744-1.807 3.378-3.643 6.844-9.944 6.844z"/>
    <path fill="#B4C1C7" d="M255.64 129.374H34.228v14.599H255.64v-14.599z"/>
    <path fill="#B4C1C7" d="M40.074 137.173h-5.846v145.536h5.846V137.173zM249.806 282.709h5.845V137.172h-5.845v145.537z"/>
    <path fill="#B4C1C7" d="M250.807 212.666l4.142-5.082-63.038-77.373-4.142 5.082 63.038 77.373zM39.075 212.666l-4.127-5.082 63.038-77.373 4.127 5.082-63.038 77.373z"/>
    <path fill="#A2164B" d="M113.377 60.402s-13.542-2.952-22.384 2.556c-8.841 5.493-15.113 28.082-8.841 34.75 6.286 6.683 25.526 4.7 35.734-2.952 10.222-7.652 10.619-33.179-4.509-34.354z"/>
    <path fill="#B84370" d="M118.166 61.827c.455 7.431-2.189 15.627-7.256 19.416-8.371 6.272-22.824 8.725-31.225 5.728-.323 4.539.367 8.534 2.453 10.751 6.286 6.683 25.526 4.7 35.734-2.952 9.003-6.741 10.384-27.303.294-32.943z"/>
    <path fill="#fff" d="M99.895 68.01c-2.982 1.116-5.699-2.07-4.157-4.861 1.41-2.541 3.305-5.009 5.743-6.316 4.436-2.38 11.221-1.425 14.599 1.469 1.924 1.645 1.102 4.803-1.366 5.375-3.569.823-9.444 2.321-14.82 4.333zM88.542 76.382c-.94 2.174-2.85 3.422-4.274 2.805-1.425-.617-1.806-2.879-.866-5.038.94-2.173 2.849-3.422 4.274-2.805 1.41.617 1.806 2.864.866 5.038zM100.365 81.802c-.94 2.173-2.85 3.422-4.274 2.805-1.425-.617-1.807-2.879-.867-5.038.94-2.174 2.85-3.422 4.274-2.805 1.425.617 1.807 2.879.867 5.038zM115.963 96.078c-6.727 1.586-12.984 2.32-18.932 1.6-.94-.117-1.719-.69-1.748-1.63-.103-3.393-1.366-7.505-8.093-10.017-3.231-1.204-5.728-.705-7.432.147-.47 4.862.177 9.195 2.394 11.544 2.556 2.718 7.256 3.995 12.617 4.054 7.035.059 15.216-1.983 21.194-5.698z"/>
    <path fill="#D84C71" d="M94.3 62.458s-4.421 2.115-5.45 3.628c-1.028 1.528-2.276 3.73-.954 3.217 1.322-.514 2.056-4.054 4.053-3.393 1.983.66 2.585 3.32 3.364 2.937.749-.352-1.895-4.964-1.014-6.389zM99.821 69.39s11.779-1.762 14.805-3.833c3.026-2.056 3.393-2.79 4.641-.734 1.249 2.056 3.54 6.11 3.246 8.093-.294 1.983-9.062.22-13.174-.661-4.142-.881-9.518-2.864-9.518-2.864z"/>
    <path fill="#B84370" d="M91.082 92.744c-1.777-2.394-7.079-4.847-9.62-4.465-.822.132-1.41.455-1.836.866 0 .823.044 1.63.133 2.394.058-.088.088-.176.102-.279.015-.161.133-1.571 1.778-1.836 1.924-.294 6.888 1.836 8.489 3.995.734.984 1.219 4.465 1.498 8.137.396.044.793.088 1.19.103-.25-3.57-.764-7.608-1.734-8.915z"/>
    <path fill="#fff" d="M98.984 80.186c-.382 0-.749-.176-.97-.514-3.025-4.436-.748-12.44-.645-12.778.176-.617.837-.984 1.454-.808.631.176.984.837.807 1.454-.587 2.012-1.66 7.872.338 10.795.367.544.235 1.263-.308 1.63-.22.147-.456.22-.676.22zM86.926 74.296c-.455 0-.896-.279-1.087-.734-.25-.602.044-1.293.632-1.542 4.098-1.704 9.84-7.873 9.9-7.931.44-.485 1.189-.514 1.659-.06.484.442.514 1.19.058 1.66-.25.265-6.139 6.61-10.721 8.52-.132.058-.294.087-.44.087z"/>
    <path fill="#F49E81" d="M14.695 32.408c14.467.94 4.685 44.958 15.627 54.74 8.842 7.902 42.975 4.627 50.084 13.689 7.094 9.062-51.347 21.37-67.62 6.065-18.257-17.184-16.377-75.669 1.909-74.494z"/>
    <path fill="#D47668" d="M80.391 100.836c-7.094-9.062-41.242-5.786-50.084-13.688-5.507-4.935-5.757-18.55-6.506-30.976-4.406 5.758-11.045 15.422-9.929 21.43 1.601 8.562 5.111 13.585 11.97 15.935 6.86 2.35 5.215 2.394 13.939 3.407 8.71 1.014 15.304 2.453 20.063 3.569 3.304.779 10.53 4.994 14.657 7.506 5.141-2.248 7.74-4.833 5.89-7.183z"/>
    <path fill="#F49E81" d="M76.351 102.467s-1.337-2.82-.587-5.067c.734-2.233-.044-5.038-.514-5.552-.47-.514.69-1.557 1.997-.514.94.749 1.997 2.409 1.865 3.628-.132 1.219 5.14-1.63 8.622-1.308 3.48.324.426 1.557.426 1.557s3.216-1.087 3.995.28c.763 1.365-3.614 3.877-3.614 3.877s2.483-1.116 2.439-.147c-.044.999-11.647 8.151-14.629 3.246z"/>
    <path fill="#0B5458" d="M1.579 82.492c5.522-.793 15.877-2.688 16.17-5.67.28-2.834-10.721-3.436-17.433-3.554.279 3.114.69 6.213 1.263 9.224z"/>
    <path fill="#F49E81" d="M104.434 43.703s3.143 1.968 3.54 4.156c.397 2.189-.044 5.39-2.952 5.17-2.908-.22-7.109-2.159-5.464-3.95 1.645-1.792 4.876-5.376 4.876-5.376z"/>
    <path fill="#506266" d="M103.288 58.082l.294 5.023-.661.117.72 2.16h.631l.632-2.292-.676-.059.044-4.861-.984-.088z"/>
    <path fill="#1E1240" d="M104.714 43.982s-2.908-1.366-4.024.881c-1.131 2.247.337 13.278 2.012 14.247 1.439.837 2.012.176 2.497-.661.47-.837 1.909-13.718-.485-14.467z"/>
    <path fill="#F49E81" d="M97.355 46.258s3.128-6.05 5.39-5.977c2.262.073 2.042 3.495 3.76 4.083 1.704.587 1.718 1.748 0 1.895-1.718.146-3.099-2.336-3.54-1.675-.44.661-1.938 4.95-3.848 4.01-1.909-.955-1.762-2.336-1.762-2.336z"/>
    <path fill="#F49E81" d="M98.692 44.878s-4.7 1.674-4.626 4.377c.073 2.702 4.23 5.023 5.904 4.95 1.674-.074 2.115-.72 3.789 0 1.674.719.94-3.041-.734-3.012-1.675.03-2.835-1.116-2.835-1.6.015-.5-.749-5.024-1.498-4.715z"/>
    <path fill="#6DA396" d="M25.196 73.944c-2.379-16.538.676-43.68-10.031-44.385C3.518 28.81-1.945 55.115.683 76.691c4.685 1.35 13.997 2.731 24.513-2.747z"/>
    <path fill="#2B576C" d="M10.084 261.237c.529-1.381.808-2.336.955-3.202.337-1.895 1.365-3.599 2.937-4.715 2.38-1.704 5.699-3.628 6.976-2.35 1.41 1.425-.587 6.492.69 8.431.559.837 11.002 6.535 11.178 7.71.294 1.939-19.858 2.38-23.25.573-1.792-.954-.529-3.76.514-6.447zM38.37 261.237c.53-1.381.808-2.336.955-3.202.338-1.895 1.366-3.599 2.938-4.715 2.379-1.704 5.698-3.628 6.976-2.35 1.41 1.425-.587 6.492.69 8.431.558.837 11.001 6.535 11.177 7.71.294 1.939-19.857 2.38-23.25.573-1.791-.954-.528-3.76.514-6.447z"/>
    <path fill="#1A656E" d="M15.165 29.559c-1.762-.117-3.378.397-4.847 1.41 2.85 4.524 6.11 11.31 4.377 16.582-2.864 8.695-5.258 8.533-3.833 17.83.572 3.687 1.777 8.152 3.025 12.22 3.466-.47 7.3-1.557 11.31-3.657-2.38-16.538.675-43.695-10.032-44.385z"/>
    <path fill="#0A5256" d="M366.941 110.664l-57.256-.371c-2.548-.017-4.62-2.115-4.604-4.664.017-2.549 2.116-4.621 4.664-4.604l57.256.371c2.548.017 4.62 2.116 4.603 4.664-.016 2.549-2.115 4.621-4.663 4.604z"/>
    <path fill="#6CA295" d="M361.59 59.55l-45.273-.293c-10.771-.07-19.641 8.687-19.711 19.458l-.117 17.932c-.026 4.06 3.275 7.404 8.668 6.907l69.677.451c2.727.549 6.07-2.751 6.096-6.81l.116-17.932c.071-10.773-8.685-19.642-19.456-19.712zM370.477 106.979l-63.663-.412c-5.714-.037-10.419 4.608-10.457 10.321l-.054 8.353c-.151 23.221 18.589 63.351 41.811 63.502 23.221.15 42.48-39.733 42.63-62.954l.055-8.353c.037-5.714-4.608-10.42-10.322-10.457z"/>
    <path fill="#0A5256" d="M369.311 85.287c-.02 3.134-2.416 5.748-5.537 6.021-16.896 1.481-34.413 1.415-52.435-.355-3.128-.307-5.506-2.953-5.486-6.096l.021-3.294c.02-3.123 2.404-5.73 5.514-6.019 17.535-1.627 35.068-1.818 52.598.257 3.068.363 5.366 2.99 5.346 6.08l-.021 3.406z"/>
    <path fill="#6EDCC0" d="M320.469 87.178c2.129 0 3.855-1.726 3.855-3.855 0-2.128-1.726-3.854-3.855-3.854s-3.855 1.726-3.855 3.855c0 2.128 1.726 3.854 3.855 3.854zM354.719 87.4c2.129 0 3.855-1.726 3.855-3.855s-1.726-3.855-3.855-3.855-3.855 1.726-3.855 3.855 1.726 3.855 3.855 3.855zM320.549 88.684c-.008-.128.088-.234.212-.24.128-.009.235.087.241.215.008.123-.087.23-.215.237h-.012c-.12 0-.223-.092-.226-.212zm-1.158.12c-.124-.025-.201-.145-.179-.269.025-.123.145-.204.269-.179.123.026.201.142.18.27-.021.106-.117.184-.224.183-.017 0-.03-.004-.046-.005zm2.486-.309c-.036-.12.027-.246.15-.283.12-.04.247.026.284.145.04.12-.027.247-.146.287-.024.008-.049.008-.07.008-.1.001-.186-.058-.218-.157zm-3.814-.13c-.115-.055-.159-.19-.106-.302.05-.116.187-.163.301-.109.115.055.159.19.106.301-.038.087-.12.131-.207.13-.028 0-.061-.004-.094-.02zm5.057-.381c-.069-.108-.036-.248.072-.317.103-.065.244-.03.312.073.066.107.036.247-.072.316-.038.025-.082.032-.123.032-.075 0-.148-.037-.189-.104zm-6.234-.378c-.095-.079-.111-.223-.027-.321.079-.095.223-.106.321-.027.095.08.106.224.027.321-.046.054-.113.082-.178.082-.049 0-.102-.017-.143-.055zm7.306-.426c-.09-.086-.093-.23-.006-.325.086-.09.231-.094.321-.007s.093.231.007.321c-.046.05-.104.07-.166.07-.058 0-.111-.022-.156-.059zm-8.259-.598c-.073-.103-.048-.243.051-.316.103-.074.248-.053.321.05.074.104.048.244-.055.317-.038.03-.087.045-.133.045-.07 0-.14-.033-.184-.096zm9.102-.45c-.111-.063-.147-.2-.089-.31.062-.111.203-.147.309-.089.111.063.151.203.089.31-.042.077-.12.118-.202.117-.033 0-.074-.008-.107-.029zm-9.77-.777c-.045-.115.014-.25.13-.295.116-.045.247.013.296.129.044.115-.015.25-.129.295-.029.008-.058.016-.087.016-.088 0-.173-.055-.21-.145zm10.326-.448c-.124-.03-.197-.153-.164-.276.034-.12.158-.193.277-.164.123.034.197.158.163.277v.004c-.025.1-.12.168-.223.168-.017 0-.037-.005-.053-.009zm-10.667-.91c-.016-.123.075-.239.199-.254.123-.016.239.075.254.199.016.123-.075.239-.199.254h-.029c-.111 0-.21-.083-.225-.199zm10.672-.639v-.008-.016c.001-.124.1-.226.228-.226.124.001.226.104.225.228v.024c-.001.124-.1.226-.228.225-.122 0-.225-.104-.225-.227zm0-.025v.001zm-10.468-.48c-.128-.017-.213-.129-.2-.252.018-.128.134-.213.257-.196.123.014.213.13.196.253-.014.115-.113.2-.228.2-.008 0-.016-.005-.025-.005zm10.313-.793c-.033-.12.043-.247.162-.275.123-.032.247.044.279.163.028.123-.043.246-.167.279-.02.004-.036.003-.058.003-.099-.001-.193-.067-.216-.17zm-10.032-.518c-.115-.047-.172-.178-.125-.298.045-.115.178-.172.298-.126.114.046.172.178.125.298-.037.087-.124.144-.215.142-.025 0-.054-.008-.083-.016zm9.562-.676c-.062-.111-.019-.251.088-.308.112-.061.247-.023.308.089.061.111.024.248-.089.308-.036.02-.074.028-.111.028-.079-.001-.156-.043-.196-.117zm-8.957-.523c-.102-.08-.126-.22-.051-.322.074-.098.219-.122.318-.047.102.074.127.214.051.317-.046.062-.116.095-.186.094-.045 0-.095-.014-.132-.043zm8.201-.52c-.086-.09-.081-.235.01-.32.095-.086.239-.082.325.01.086.09.082.235-.01.32-.045.041-.103.062-.156.062-.063-.002-.124-.022-.169-.072zm-7.321-.496c-.077-.096-.064-.24.032-.322.098-.077.238-.064.321.032.078.098.064.243-.031.32-.046.037-.096.054-.149.053-.063 0-.128-.029-.173-.083zm6.334-.326c-.107-.067-.135-.211-.068-.314.067-.106.211-.138.313-.072.107.071.139.211.073.318-.046.066-.12.102-.195.102-.041 0-.082-.008-.123-.034zm-5.229-.437c-.052-.115-.002-.251.109-.304.116-.053.251-.003.304.113.053.111.002.247-.114.3-.029.017-.062.025-.094.025-.087-.002-.168-.052-.205-.134zm4.071-.114c-.119-.043-.185-.17-.147-.29.038-.118.165-.184.289-.142h-.005c.124.038.189.166.147.286-.03.099-.12.16-.216.159-.023 0-.048-.004-.068-.013zm-2.811-.352c-.025-.123.058-.242.183-.262.123-.024.242.056.267.179.02.123-.059.242-.184.267-.016.004-.029.003-.045.003-.104-.001-.201-.075-.221-.187zm1.548.11c-.124-.01-.221-.117-.212-.245.008-.124.116-.218.244-.212.123.008.218.116.212.244-.009.119-.112.213-.227.212h-.017zM354.781 88.907c-.008-.128.087-.235.212-.241.128-.008.234.087.241.215.008.124-.088.23-.216.238h-.012c-.12-.001-.222-.093-.225-.212zm-1.159.12c-.123-.026-.201-.146-.179-.27.026-.123.146-.204.269-.178.124.025.202.141.18.269-.021.107-.116.184-.223.183-.018 0-.03-.004-.047-.004zm2.487-.31c-.037-.12.026-.246.15-.283.12-.04.247.027.283.146.04.12-.026.247-.145.287-.025.007-.049.007-.07.007-.1 0-.186-.057-.218-.156zm-3.814-.132c-.114-.054-.159-.19-.105-.3.05-.116.186-.164.301-.11.114.055.159.19.105.302-.037.086-.12.13-.206.13-.029 0-.063-.005-.095-.022zm5.056-.378c-.068-.108-.035-.248.073-.317.103-.066.243-.031.312.072.066.108.036.248-.072.317-.038.024-.082.032-.124.032-.074 0-.147-.038-.189-.105zm-6.233-.378c-.094-.08-.11-.224-.026-.322.078-.094.223-.105.321-.026.094.079.105.223.026.32-.045.054-.112.082-.177.082-.05-.001-.104-.017-.144-.054zm7.306-.427c-.09-.087-.093-.231-.007-.326.087-.09.232-.093.322-.006.09.086.093.23.006.32-.045.05-.103.07-.165.07-.058 0-.111-.02-.156-.058zm-8.259-.597c-.074-.103-.048-.244.051-.317.103-.073.248-.052.321.051.073.104.048.244-.056.317-.037.029-.086.044-.132.044-.07 0-.14-.033-.184-.095zm9.102-.453c-.112-.062-.147-.198-.089-.308.062-.112.203-.147.309-.09.111.063.151.203.089.31-.043.077-.12.119-.203.117-.032.002-.073-.007-.106-.028zm-9.77-.775c-.045-.116.014-.251.13-.296.115-.044.246.013.295.129.045.116-.013.251-.129.296-.029.007-.058.015-.086.015-.087.001-.174-.053-.21-.144zm10.325-.448c-.123-.03-.196-.154-.163-.277.033-.119.158-.192.277-.163.123.033.196.158.163.276v.005c-.025.099-.12.168-.223.168-.016 0-.037-.005-.054-.01zm-10.667-.91c-.015-.123.076-.238.199-.254.124-.016.239.076.255.199.015.123-.076.239-.199.254h-.029c-.111 0-.21-.083-.226-.198zm10.674-.638v-.008-.017c.001-.123.1-.226.228-.226.123.002.225.105.224.228v.025c-.001.123-.1.225-.228.224-.123 0-.225-.103-.224-.227zm0-.025v0zm-10.468-.48c-.128-.018-.213-.13-.2-.252.018-.128.133-.214.257-.196.123.013.213.129.195.252-.013.116-.112.201-.228.2-.007 0-.016-.004-.024-.004zm10.311-.795c-.032-.12.044-.247.163-.274.123-.033.246.043.279.162.027.123-.044.247-.167.279-.02.003-.037.003-.058.003-.099 0-.192-.066-.217-.17zm-10.031-.518c-.116-.047-.172-.178-.126-.298.046-.114.178-.172.298-.125.115.045.173.177.126.298-.038.086-.125.143-.216.142-.024.001-.053-.008-.082-.017zm9.561-.675c-.061-.11-.019-.25.089-.307.111-.062.247-.024.308.088.061.112.023.248-.089.308-.037.02-.074.028-.111.028-.078 0-.156-.042-.197-.117zm-8.956-.523c-.103-.079-.126-.219-.051-.321.074-.098.218-.123.317-.048.103.074.127.215.052.318-.046.061-.116.094-.186.093-.046 0-.095-.013-.132-.042zm8.201-.52c-.085-.091-.081-.236.01-.321.096-.086.239-.082.326.01.086.09.081.235-.01.32-.046.042-.103.062-.157.062-.063 0-.124-.021-.169-.071zm-7.321-.496c-.078-.096-.065-.239.031-.321.099-.078.239-.065.321.031.078.099.065.243-.031.321-.045.037-.095.054-.149.052-.061 0-.126-.03-.172-.083zm6.333-.326c-.106-.066-.134-.21-.068-.313.067-.107.212-.139.314-.072.107.07.139.21.072.318-.045.065-.12.102-.194.102-.041-.001-.083-.01-.124-.035zm-5.228-.438c-.052-.115-.002-.25.109-.304.115-.052.251-.002.303.113.054.112.002.247-.113.3-.029.017-.062.025-.095.025-.085-.001-.168-.051-.204-.133zm4.07-.113c-.119-.042-.184-.17-.147-.289.038-.119.166-.184.289-.142h-.004c.123.038.189.165.147.285-.03.1-.12.16-.216.16-.023-.002-.048-.006-.069-.014zm-2.811-.352c-.024-.124.059-.242.184-.262.123-.025.242.055.266.178.02.124-.059.243-.183.267-.017.005-.029.004-.046.004-.102 0-.201-.076-.221-.187zm1.548.109c-.123-.01-.221-.117-.212-.245.009-.123.117-.218.245-.212.123.009.218.117.212.244-.009.12-.112.214-.228.213h-.017z"/>
    <path fill="#88C8B8" d="M302.642 50.185c-.008 1.182-.972 2.133-2.153 2.126-1.182-.008-2.133-.972-2.125-2.153.008-1.182.971-2.133 2.153-2.126 1.181.008 2.133.972 2.125 2.153z"/>
    <path fill="#0A5256" d="M300.388 67.847s5.104.687 7.941-5.964l-1.34-2.808c-.456-.956-1.605-1.355-2.555-.887l-2.942 1.447c-.646.318-1.057.974-1.062 1.694l-.042 6.518z"/>
    <path fill="#88C8B8" d="M300.921 51.164c-.055-.13-.252-.073-.226.066l1.699 9.4c.039.214.183.394.382.48.2.086.429.066.61-.054l.546-.36c.454-.298.631-.878.42-1.378l-3.431-8.154zM375.371 50.657c-.008 1.181.943 2.145 2.125 2.152 1.181.008 2.145-.943 2.153-2.125.008-1.181-.944-2.145-2.125-2.153-1.182-.008-2.145.944-2.153 2.126z"/>
    <path fill="#0A5256" d="M377.396 68.346s-5.113.62-7.863-6.066l1.376-2.79c.468-.95 1.623-1.334 2.566-.854l2.924 1.485c.642.326 1.045.987 1.04 1.707l-.043 6.518z"/>
    <path fill="#88C8B8" d="M377.305 51.727l-1.813 9.337c-.043.222-.196.407-.405.494-.209.087-.448.062-.635-.064l-.507-.344c-.45-.304-.619-.887-.403-1.385l3.538-8.108c.056-.13.251-.069.225.07zM314.971 70.172c-1.16-.007-2.144-.901-2.24-2.08-.103-1.246.826-2.34 2.072-2.444 16.476-1.355 31.526-1.304 46.009.154 1.245.125 2.153 1.236 2.027 2.48-.125 1.246-1.231 2.154-2.481 2.028-14.205-1.43-28.985-1.477-45.184-.145-.068.005-.136.007-.203.007zM337.856 93.59c-9.156-.059-18.38-.572-27.615-1.54-3.386-.355-5.921-3.366-5.898-7.004l.023-3.671c.024-3.61 2.575-6.585 5.935-6.92 19.815-1.978 37.738-1.893 54.793.26 3.3.418 5.772 3.42 5.749 6.987l-.025 3.797c-.023 3.629-2.585 6.605-5.96 6.923-8.887.838-17.91 1.227-27.002 1.168zm1.282-20.125c-9.2-.06-18.754.413-28.795 1.415-3.142.314-5.529 3.108-5.55 6.5l-.023 3.67c-.022 3.418 2.348 6.246 5.516 6.577 18.379 1.925 36.726 2.05 54.532.372 3.156-.298 5.552-3.093 5.573-6.503l.025-3.797c.022-3.35-2.29-6.17-5.375-6.56-8.383-1.058-16.976-1.616-25.903-1.674zM353.102 132.406l-29.657-.192c-2.839-.019-5.134-2.343-5.115-5.182l.054-8.444c.019-2.839 2.343-5.134 5.182-5.115l29.657.192c2.839.019 5.134 2.343 5.115 5.182l-.054 8.444c-.018 2.839-2.342 5.134-5.182 5.115zm-29.538-18.522c-2.612-.017-4.751 2.094-4.767 4.706l-.055 8.444c-.016 2.612 2.094 4.751 4.706 4.767l29.657.193c2.612.016 4.751-2.094 4.767-4.706l.055-8.445c.017-2.612-2.094-4.75-4.706-4.767l-29.657-.192z"/>
    <path fill="#6EDCC0" d="M326.346 118.639c-.053 0-.107-.004-.16-.018-.053-.009-.103-.025-.152-.046-.049-.021-.099-.046-.144-.079-.045-.029-.085-.063-.123-.104-.151-.153-.24-.368-.239-.582.001-.219.093-.428.247-.584.307-.303.859-.299 1.166.008.036.041.069.082.102.128.029.046.053.091.073.141.02.054.037.104.045.157.012.053.015.108.015.161 0 .053-.004.107-.017.16-.009.053-.026.102-.047.152-.021.054-.046.099-.075.144-.033.045-.066.085-.103.122-.038.041-.083.073-.129.102-.045.033-.091.057-.141.078-.049.02-.103.037-.157.045-.05.012-.108.016-.161.015zM344.981 117.937c.003-.454.372-.822.825-.818.457.003.826.375.822.829-.003.453-.375.821-.833.818-.453-.004-.817-.377-.814-.829zm-3.892-.026c.003-.453.375-.821.829-.818.457.003.821.376.818.829-.003.454-.372.822-.829.818-.454-.003-.822-.375-.818-.829zm-3.889-.025c.003-.454.372-.822.829-.819.453.004.821.376.818.83-.004.453-.376.821-.829.818-.457-.003-.821-.376-.818-.829zm-3.893-.025c.003-.453.376-.821.829-.818.457.003.822.376.818.829-.003.454-.372.822-.829.818-.452-.003-.82-.377-.818-.829zm-3.888-.025c.003-.454.372-.822.829-.819.454.004.822.376.818.83-.003.453-.375.821-.829.818-.457-.004-.821-.376-.818-.829zM349.689 118.79c-.218-.001-.428-.088-.579-.246-.041-.038-.073-.079-.102-.125-.029-.045-.057-.091-.078-.14-.02-.053-.036-.103-.044-.157-.013-.053-.016-.106-.016-.161.001-.218.089-.428.247-.579.038-.041.079-.073.124-.102.046-.032.092-.057.145-.078.05-.02.099-.037.152-.044.268-.053.551.036.744.231.151.153.237.363.235.582 0 .054-.004.107-.017.16-.009.054-.026.104-.047.157-.021.049-.046.095-.079.14-.029.046-.062.086-.1.123-.041.042-.083.074-.129.103-.046.032-.091.056-.14.078-.053.02-.103.036-.157.044-.052.011-.105.016-.159.014z"/>
    <path fill="#166569" d="M302.7 119.1l3.459.627c.755.136 1.247.87 1.088 1.62l-7.357 35.202c-.152.719-.849 1.187-1.574 1.056l-1.805-.327L302.7 119.1z"/>
    <path fill="#166569" d="M288.932 164.298l3.645.661c1.471.266 2.885-.693 3.182-2.158l8.492-43.421-10.166-1.842c-.825-.149-1.611.409-1.74 1.237l-5.634 42.387c-.237 1.476.75 2.87 2.221 3.136z"/>
    <path fill="#378370" d="M290.603 149.679l2.646-18.622c.233-1.286 1.465-2.14 2.751-1.906 1.286.233 2.139 1.465 1.906 2.751l-2.645 18.621c-.234 1.286-1.465 2.14-2.751 1.907-1.286-.234-2.14-1.465-1.907-2.751z"/>
    <path fill="#90D0C0" d="M295.461 129.052l1.075.195-3.489 23.28-1.075-.195 3.489-23.28z"/>
    <path fill="#378370" d="M299.97 128.783c5.351 0 9.688-4.338 9.688-9.688 0-5.351-4.337-9.688-9.688-9.688-5.35 0-9.688 4.337-9.688 9.688 0 5.35 4.338 9.688 9.688 9.688z"/>
    <path fill="#90D0C0" d="M307.215 120.594c.828-4.002-1.744-7.918-5.746-8.747-4.002-.829-7.918 1.744-8.747 5.746-.829 4.002 1.743 7.918 5.745 8.747 4.002.829 7.919-1.743 8.748-5.746z" opacity=".9"/>
    <path fill="#166569" d="M314.634 155.473l-.957-2.747c-.386-1.108-1.369-1.779-2.213-1.51l-22.744 6.715 2.669 7.66c.217.621.777.986 1.24.808l21.209-8.368c.828-.313 1.182-1.451.796-2.558z"/>
    <path fill="#378370" d="M294.3 168.955c-3.966 1.382-8.302-.713-9.683-4.679-1.382-3.966.713-8.302 4.679-9.683 3.966-1.382 8.302.713 9.684 4.679 1.381 3.966-.714 8.302-4.68 9.683z"/>
    <path fill="#90D0C0" d="M297.179 163.956c1.206-2.972-.226-6.36-3.198-7.566-2.973-1.206-6.361.225-7.567 3.198-1.206 2.973.226 6.36 3.198 7.566 2.973 1.207 6.361-.225 7.567-3.198z" opacity=".9"/>
    <path fill="#378370" d="M320.282 148.038l2.97-7.252 13.132 4.438-.3 2.043-11.271-3.043-2.272 5.654-2.259-1.84z"/>
    <path fill="url(#prefix__paint0_linear)" d="M349.57 157.692l-.006.009c-.11.159-.329.199-.488.088l-2.634-1.827.406-.585 2.635 1.827c.157.112.197.329.087.488z"/>
    <path fill="#232E50" d="M310.724 129.985l-.784 1.132-2.254-1.564c-.154-.107-.193-.318-.086-.471l.399-.576c.107-.154.318-.193.471-.086l2.254 1.565z"/>
    <path fill="url(#prefix__paint1_linear)" d="M347.745 156.495c-.217.313-.636.411-.969.228l-3.926-2.158 1.371-1.977 3.397 2.92c.289.247.344.674.127.987z"/>
    <path fill="#FC658C" d="M314.515 131.382l-4.538-2.543-1.372 1.977 3.974 3.359 8.711 6.042 21.561 14.347 1.372-1.977-20.996-15.163-8.712-6.042z"/>
    <path fill="#232E50" d="M315.057 131.759l-1.937 2.792-.542-.376 1.936-2.793.543.377z"/>
    <path fill="#232E50" d="M324.662 138.224l-.299.432c-.08.115-.238.144-.353.064l-9.192-6.374c-.116-.08-.145-.238-.065-.354l.299-.432c.08-.116.238-.145.354-.065l9.193 6.376c.115.08.143.238.063.353z"/>
    <path fill="#90D0C0" d="M317.568 158.078l-2.84.977c-.127.043-.265-.023-.309-.151l-3.089-8.979c-.043-.127.023-.264.151-.309l2.84-.977c.127-.043.265.023.309.151l3.089 8.979c.043.127-.025.266-.151.309z"/>
    <path fill="#88C8B8" d="M322.46 155.226l7.03 3.463 6.895-12.025-1.58-1.332-6.424 9.746-5.448-2.729-.473 2.877z"/>
    <path fill="#166569" d="M317.395 147.795c1.503-.772 3.363-.75 4.893.22 2.294 1.458 2.972 4.497 1.516 6.792-.737 1.16-1.881 1.908-3.127 2.174l-3.282-9.186z"/>
    <path fill="#378370" d="M314.3 148.897l-.507-1.472c-.091-.265.065-.56.349-.658l2.729-.939c.285-.098.588.038.68.304l4.037 11.735c.091.265-.064.56-.349.658l-2.728.939c-.285.098-.588-.038-.681-.303l-.463-1.349-3.067-8.915z"/>
    <path fill="url(#prefix__paint2_linear)" d="M374.495 119.099l-3.459.627c-.755.137-1.248.87-1.089 1.621l7.357 35.202c.153.719.85 1.187 1.574 1.056l1.805-.327-6.188-38.179z"/>
    <path fill="#166569" d="M388.261 164.298l-3.645.66c-1.471.267-2.885-.692-3.182-2.157l-8.492-43.422 10.166-1.842c.825-.148 1.611.409 1.74 1.238l5.634 42.386c.238 1.476-.75 2.87-2.221 3.137z"/>
    <path fill="#378370" d="M386.592 149.678l-2.646-18.622c-.233-1.286-1.465-2.139-2.751-1.906-1.286.234-2.139 1.465-1.906 2.751l2.646 18.622c.233 1.286 1.464 2.14 2.75 1.906 1.286-.233 2.14-1.465 1.907-2.751z"/>
    <path fill="#90D0C0" d="M381.732 129.051l-1.075.196 3.489 23.279 1.075-.194-3.489-23.281z"/>
    <path fill="#378370" d="M377.224 128.782c5.351 0 9.688-4.337 9.688-9.687 0-5.351-4.337-9.688-9.688-9.688-5.35 0-9.687 4.337-9.687 9.688 0 5.35 4.337 9.687 9.687 9.687z"/>
    <path fill="#90D0C0" d="M379.532 126.127c3.884-1.274 5.999-5.455 4.725-9.338-1.274-3.884-5.455-5.999-9.338-4.725-3.884 1.274-5.999 5.455-4.725 9.338 1.274 3.884 5.455 5.999 9.338 4.725z" opacity=".9"/>
    <path fill="#378370" d="M385.395 169.379c4.2 0 7.605-3.405 7.605-7.605 0-4.2-3.405-7.605-7.605-7.605-4.2 0-7.605 3.405-7.605 7.605 0 4.2 3.405 7.605 7.605 7.605z"/>
    <path fill="#90D0C0" d="M387.575 167.156c2.972-1.206 4.404-4.593 3.198-7.566s-4.594-4.405-7.566-3.198c-2.973 1.206-4.405 4.594-3.198 7.566 1.206 2.973 4.593 4.405 7.566 3.198z" opacity=".9"/>
    <path fill="#E75D81" d="M344.755 172.931l29.892 3.541c1.649.196 3.162-.935 3.441-2.573l7.341-43.076c.218-1.281-.666-2.488-1.955-2.664l-34.186-4.682c-1.209-.165-2.32.694-2.464 1.907L341.657 169c-.229 1.94 1.158 3.701 3.098 3.931z"/>
    <path fill="#88C8B8" d="M347.114 132.615c-.183-.026-.311-.191-.29-.375l.685-5.787c.168-1.421 1.463-2.453 2.885-2.304l3.839.404c.174.011.32.186.301.373-.02.185-.185.32-.372.301l-3.839-.405c-1.056-.111-2.017.656-2.142 1.711l-.686 5.787c-.022.186-.19.318-.376.296l-.005-.001zM346.791 135.345c-.182-.026-.311-.191-.29-.375l.111-.937c.022-.185.19-.318.376-.295.19.015.317.19.295.375l-.111.937c-.022.186-.19.318-.376.296l-.005-.001z"/>
    <path fill="#B4C1C7" d="M368.334 118.821c-1.024-.84-1.968-.9-2.647-.758-.619.13-1.058.684-1.05 1.316l.036 3.146 3.38.573c0 .002 2.288-2.628.281-4.277zm-1.699 2.4c-.469-.038-.818-.448-.781-.917.038-.469.448-.818.917-.781.469.038.818.448.781.917-.038.469-.448.819-.917.781z"/>
    <path fill="url(#prefix__paint3_linear)" d="M365.055 121.31c-.058-.027-.098-.084-.099-.152l-.006-.501c-.001-.094.074-.17.167-.172.093-.001.17.074.171.167l.006.501c.001.094-.074.17-.167.172-.026.002-.05-.004-.072-.015zm-.012-.981c-.058-.027-.098-.085-.099-.153l-.005-.38c-.008-.644.443-1.207 1.071-1.339.43-.09.863-.073 1.29.05.088.027.141.12.116.21-.026.09-.12.141-.21.116-.373-.108-.752-.123-1.128-.044-.47.099-.806.522-.801 1.005l.005.38c.001.094-.074.17-.167.171-.026-.001-.05-.006-.072-.016z"/>
    <path fill="#B4C1C7" d="M359.865 124.172l.126-1.57c.043-.543.527-.941 1.067-.879l10.795 1.235c.479.055.838.465.828.947l-.03 1.516-12.786-1.249z"/>
    <path fill="url(#prefix__paint4_linear)" d="M363.55 122.775c-.176-.024-.304-.182-.291-.361.015-.187.178-.326.365-.31l.466.036c.183.023.325.178.31.364-.015.187-.178.326-.365.31l-.466-.037-.019-.002z"/>
    <path fill="url(#prefix__paint5_linear)" d="M360.427 123.798c-.062-.029-.103-.095-.098-.167l.051-.635c.021-.261.142-.498.341-.668.199-.17.453-.252.714-.231l1.712.137c.092.008.162.089.155.182-.007.094-.089.162-.182.156l-1.712-.137c-.352-.028-.662.236-.69.588l-.051.635c-.008.093-.089.162-.182.155-.02-.002-.04-.006-.058-.015z"/>
    <path fill="#B4C1C7" d="M356.519 123.327l18.929 1.511c.68.054 1.223.59 1.286 1.27l.009.094c.068.744-.551 1.371-1.296 1.311l-19.421-1.55c-.445-.036-.772-.437-.714-.882l.111-.866c.069-.54.552-.931 1.096-.888z"/>
    <path fill="#88C8B8" d="M371.605 147.655l11.334 1.402-2.373 15.946-11.033-1.479.258-2.708 7.647.149 1.067-9.809-6.9-1.18v-2.321z"/>
    <defs>
        <linearGradient id="prefix__paint0_linear" x1="346.441" x2="349.632" y1="156.615" y2="156.615" gradientUnits="userSpaceOnUse">
            <stop stop-color="#09005D"/>
            <stop offset="1" stop-color="#1A0F91"/>
        </linearGradient>
        <linearGradient id="prefix__paint1_linear" x1="343.495" x2="347.2" y1="152.873" y2="157.461" gradientUnits="userSpaceOnUse">
            <stop stop-color="#FE7062"/>
            <stop offset="1" stop-color="#FF928E"/>
        </linearGradient>
        <linearGradient id="prefix__paint2_linear" x1="369.918" x2="380.683" y1="138.363" y2="138.363" gradientUnits="userSpaceOnUse">
            <stop stop-color="#09005D"/>
            <stop offset="1" stop-color="#1A0F91"/>
        </linearGradient>
        <linearGradient id="prefix__paint3_linear" x1="364.94" x2="367.423" y1="119.863" y2="119.863" gradientUnits="userSpaceOnUse">
            <stop stop-color="#DAE3FE"/>
            <stop offset="1" stop-color="#E9EFFD"/>
        </linearGradient>
        <linearGradient id="prefix__paint4_linear" x1="363.259" x2="364.401" y1="122.458" y2="122.458" gradientUnits="userSpaceOnUse">
            <stop stop-color="#DAE3FE"/>
            <stop offset="1" stop-color="#E9EFFD"/>
        </linearGradient>
        <linearGradient id="prefix__paint5_linear" x1="360.329" x2="363.302" y1="122.954" y2="122.954" gradientUnits="userSpaceOnUse">
            <stop stop-color="#DAE3FE"/>
            <stop offset="1" stop-color="#E9EFFD"/>
        </linearGradient>
    </defs>
</svg>
