<svg xmlns="http://www.w3.org/2000/svg" width="27" height="27" fill="none" viewBox="0 0 27 27">
    <path fill="#6FCF97" fill-rule="evenodd" d="M11.316 19.307a.691.691 0 0 0 .177-.129l9.545-9.545a.693.693 0 0 0 .001-.979l-.49-.49a.693.693 0 0 0-.98 0l-8.566 8.567L7.21 12.94a.691.691 0 0 0-.98-.002l-.49.491c-.269.27-.27.709.002.98l4.77 4.77a.692.692 0 0 0 .804.129zM0 13.5C0 6.044 6.043 0 13.5 0 20.956 0 27 6.043 27 13.5 27 20.956 20.957 27 13.5 27 6.044 27 0 20.957 0 13.5z" clip-rule="evenodd"/>
</svg>
