<svg xmlns="http://www.w3.org/2000/svg" width="60" height="60" fill="none" viewBox="0 0 60 60">
    <circle cx="30" cy="30" r="30" fill="#E6F3F6"/>
    <path fill="#2BA7F1" d="M36.493 25.013c-.212 0-.424.012-.633.037A6.757 6.757 0 0 0 29.317 20a6.767 6.767 0 0 0-6.757 6.95h-.02A4.545 4.545 0 0 0 18 31.488a4.544 4.544 0 0 0 4.54 4.537h4.08a.466.466 0 1 0 0-.931h-4.08a3.61 3.61 0 0 1-3.608-3.606 3.612 3.612 0 0 1 3.608-3.608h.518a.466.466 0 0 0 .463-.515 5.834 5.834 0 0 1 5.796-6.435c2.802 0 5.21 1.991 5.726 4.733a.465.465 0 0 0 .552.37 4.58 4.58 0 0 1 5.474 4.483 4.593 4.593 0 0 1-1.537 3.421 3.599 3.599 0 0 1-2.638 1.157H33.18a.466.466 0 1 0 0 .931h3.714a4.486 4.486 0 0 0 3.314-1.447A5.526 5.526 0 0 0 42 30.519a5.512 5.512 0 0 0-5.507-5.505z"/>
    <path fill="#2BA7F1" d="M35.438 31.621a.466.466 0 0 0 .274-.843l-5.437-3.947c-.019-.014-.04-.02-.06-.03-.017-.01-.032-.02-.05-.026a.459.459 0 0 0-.328 0c-.018.007-.033.016-.05.025-.02.01-.041.017-.06.03l-5.437 3.948a.466.466 0 0 0 .547.754l4.698-3.41V39.18a.466.466 0 1 0 .932 0V28.12l4.697 3.412c.083.06.179.088.274.088z"/>
</svg>
