<?xml version="1.0" encoding="utf-8"?>
<!-- Generator: Adobe Illustrator 21.1.0, SVG Export Plug-In . SVG Version: 6.00 Build 0)  -->
<svg version="1.1" id="Layer_1" xmlns="http://www.w3.org/2000/svg" xmlns:xlink="http://www.w3.org/1999/xlink" x="0px" y="0px"
	 viewBox="0 0 500 500" style="enable-background:new 0 0 500 500;" xml:space="preserve">
<style type="text/css">
	.st0{fill:#47423E;}
	.st1{fill:#BCD631;}
	.st2{fill:#FFE22E;}
	.st3{fill:#FF8E45;}
</style>
<g>
	<g>
		<path class="st0" d="M81.9,275.2c0-0.6,0-1.3-0.3-1.7c-0.1-0.2-0.2-0.5-0.4-0.7c-3.5-3.7-7.1-7.3-10.6-11
			c-1.7-1.8-3.4-3.5-5.2-5.2c-0.8-0.8-1.8-2-2.9-3c-1.2-1.1-1.9-1.3-3.1-0.2c-1.1,1-2.4,2.3-3.3,3.2c-1.7,1.6-3.5,3.2-5.2,4.9
			c-3.4,3.3-6.7,6.8-9.7,10.5c-0.2,0.3-0.6,1.4-0.6,3.3c0.1,5.8-0.1,9.3,0,14.1c0.1,3.6-0.2,7.5,0.4,11.2c0.2,1.5,1.3,1.7,2.6,1.8
			c2.3,0.2,4.6,0.3,6.8,0.4c6.6,0.2,24.8-0.4,27.3-0.9c1.2-0.2,3.2-0.2,3.4-1.7c0.4-2.4,0.2-5.9,0.3-8.4c0.2-4.1,0.2-8.2,0.3-12.3
			C81.9,278,81.9,276.6,81.9,275.2z M51.9,264.6c0.7-0.7,7.4-6.8,9-8.4c0.1,0.1,0.2,0.2,0.3,0.3c0.4,0.4,0.8,0.8,1.1,1.2
			c0.8,0.8,1.5,1.6,2.3,2.4c1.5,1.6,3.1,3.2,4.6,4.8c2.4,2.4,4.7,4.8,7.1,7.2c-0.3,0-28.4-0.8-31.4-0.5
			C47.2,269.2,49.5,266.8,51.9,264.6z M51,299.8c-2.1-0.1-4.3-0.2-6.4-0.3c-0.1,0-0.3,0-0.6-0.1c-0.2-3.3-0.3-6.7-0.3-10
			c-0.1-4.6,0.2-10.2,0-14.9c1.5-0.3,18.8-0.1,22.8,0c2.8,0,5.7,0.3,8.5,0.4c1.1,0,2.3,0,3.5,0.2c0.2,0,0.5,0.1,0.7,0.1
			c0,0.1,0,0.1,0,0.2c0,1,0,1.9,0,2.9c0,2.7-0.1,5.5-0.2,8.2c-0.1,2.8,0,5.5-0.1,8.3c0,1,0,2.8,0,3.8c0,0.1,0,0.2,0,0.3
			C78.8,299,56.7,300,51,299.8z"/>
		<path class="st1" d="M71.7,291.8c-1.8-0.7-3.5-1.5-5.2-2.4c-0.9-3.1-2.6-6.1-5.5-7.7c-3.1-1.7-6.7-2.2-10.2-2.7
			c-0.8-0.1-1.3,0.7-1.3,1.3c-0.5,4.1,1,8.7,5,10.6c2.7,1.3,7.2,2.1,10.1,0.7c2.1,1,4.3,1.8,6.4,2.6
			C72.6,294.8,73.2,292.4,71.7,291.8z M56.7,288.6c-2.6-1.1-4.1-3.7-4.5-6.4c2.3,0.6,4.6,1.2,6.7,2.2c1.4,0.7,2.3,1.7,3,2.8
			c-1.6-0.8-3.2-1.5-4.8-2c-0.6-0.2-1,0.6-0.6,1c1.3,1.4,2.7,2.5,4.3,3.5C59.4,289.4,58,289.1,56.7,288.6z"/>
		<g>
			<path class="st0" d="M31.5,308.2c-0.9,0.1-1.7,0.7-1.7,1.7c-0.1,7.6,0.2,15.2,0.7,22.8c0.1,2.2,3.6,2.2,3.4,0
				c-0.3-4-0.5-8-0.6-12c3.2-0.2,5.9-2.7,5.7-6.2C38.9,310.5,35.3,307.9,31.5,308.2z M33.3,317.3c0-1.9,0-3.7,0-5.6
				c1.1,0.3,2,1,2.3,2.2C36,315.5,35,317.3,33.3,317.3z"/>
			<path class="st0" d="M50.2,329.1c-1.4,0.2-2.9,0.3-4.4,0.3c-0.1-6.4-0.1-12.8-0.2-19.2c0-2.2-3.4-2.2-3.4,0
				c0.1,6.9,0.1,13.9,0.2,20.8c0,1,0.8,1.7,1.7,1.7c2.3,0.1,4.6-0.1,7-0.4C53.3,332.1,52.4,328.8,50.2,329.1z"/>
			<path class="st0" d="M61.4,307.9c-0.4-1.6-3-1.7-3.3,0c-1.5,7.8-2.6,15.6-3.3,23.5c-0.2,2.2,3.2,2.2,3.4,0
				c0.2-1.8,0.3-3.6,0.5-5.3c1,0,1.9,0.1,2.9,0.1c0.3,1.7,0.6,3.5,0.8,5.2c0.3,2.2,3.6,1.2,3.3-0.9
				C64.7,322.8,63.2,315.3,61.4,307.9z M59.2,322.6c0.2-1.8,0.5-3.7,0.8-5.5c0.4,1.8,0.7,3.7,1.1,5.6
				C60.5,322.6,59.8,322.6,59.2,322.6z"/>
			<path class="st0" d="M77.4,309.5c0,4.1-0.1,8.2-0.1,12.3c-1.6-4.5-3.1-9.1-5.4-13.3c-0.8-1.5-3.1-0.8-3.2,0.9
				c-0.1,7.5-0.2,15-0.1,22.5c0,2.2,3.4,2.2,3.4,0c-0.1-4.9,0-9.9,0-14.8c1.8,4.7,3.2,9.5,5.4,14c0.8,1.6,3.2,0.8,3.2-0.9
				c0.1-6.9,0.1-13.8,0.2-20.7C80.8,307.3,77.4,307.3,77.4,309.5z"/>
			<path class="st0" d="M93.1,323.4c-0.1,1,0.1,6.3-1.7,5.6c-1.4-0.6-1.2-5-1.2-6.2c-0.1-2.1-0.1-4.3,0-6.4c0.7,0,1.5,0.1,2.2,0.1
				c2.2,0.1,2.2-3.3,0-3.4c-0.7,0-1.4-0.1-2.1-0.1c0.1-1.5,0.2-3.1,0.3-4.6c0.1-2.2-3.3-2.2-3.4,0c-0.1,1.5-0.2,3-0.3,4.5
				c-0.4,0-0.8,0-1.2,0c-2.2,0-2.2,3.4,0,3.4c0.3,0,0.7,0,1,0c0,1.1-0.1,2.1-0.1,3.2c0,3.2-0.2,7.2,1,10.1c1.1,2.5,4,3.9,6.4,2.2
				c2.5-1.8,2.2-5.6,2.4-8.4C96.6,321.2,93.2,321.2,93.1,323.4z"/>
		</g>
		<g>
			<path class="st0" d="M31.8,347.4c1.5-1.4,2.4-3.4,1.4-5.6c-1.2-2.6-4.3-3.2-6.9-2.6c-0.7,0.2-1.2,0.9-1.3,1.6
				c-0.3,7.7-0.2,15.5,0.3,23.2c0,0.2,0,0.3,0.1,0.4c0,0.7,0.4,1.3,1.2,1.5c5.6,1.3,9.2-4,9.3-9.1C36.1,353.3,34.6,349.7,31.8,347.4
				z M30.1,343.2c0.5,1.1-0.7,2-1.7,2.5c0-1.1,0-2.2,0.1-3.3C29.2,342.5,29.8,342.7,30.1,343.2z M28.8,362.8
				c-0.2-4.5-0.4-9-0.4-13.5c2.6,1.1,4,4,4.2,6.7C32.8,358.5,31.7,362.6,28.8,362.8z"/>
			<path class="st0" d="M50.8,351.7c-0.5-3.9-0.9-7.1-2.1-11.7c-0.5-1.9-3-1.7-3.4,0.3c-1.5,8.2-2.6,16.4-3.4,24.6
				c-0.2,2.2,3.2,2.4,3.4,0.2c0.1-1.5,0.3-3.1,0.5-4.6c0.8-0.1,1.7-0.3,2.5-0.4c0.2,1.6,0.4,3.2,0.6,4.8c0.3,2.2,3.6,1.4,3.3-0.7
				C51.8,360,51.3,355.9,50.8,351.7z M47.9,356.8c-0.6,0.1-1.1,0.2-1.7,0.3c0.3-2.3,0.6-4.7,0.9-7c0.1,0.8,0.2,1.6,0.3,2.5
				C47.6,353.9,47.8,355.3,47.9,356.8C48,356.8,48,356.8,47.9,356.8z"/>
			<path class="st0" d="M62.9,347.5c-0.7-0.9-1.4-2-1-3.2c0.4-1.2,1.7-2.1,2.9-2.3c2.2-0.2,2.2-3.7,0-3.4c-4.8,0.5-8,5.3-5.4,9.8
				c1.3,2.3,3.3,4.1,4.5,6.6c1,2,1.9,7.4-1.9,7c-2.2-0.2-2.2,2.7,0,2.9c2.4,0.3,4.6-1.3,5.6-3.4c1.1-2.3,0.6-4.9-0.3-7.1
				C66.3,351.7,64.5,349.7,62.9,347.5z"/>
			<path class="st0" d="M82.9,341.9c3.6-0.2,3.1-3.3,0.9-3.3c-3,0.1-3.6,0.3-6.1,0.6c-0.7,0.1-1.3,0.8-1.3,1.6
				c0.2,7.3,0.3,14.6,0.2,21.9c0,1,0.8,1.6,1.7,1.7c1.5,0.2,3.1,0.2,4.6,0.1c2.2-0.1,2.2-3.5,0-3.4c-1,0.1-1.9,0-2.9,0
				c0-3.8,0-7.7,0-11.5c0.9,0,1.8,0.1,2.7,0.1c0.9,0,1.7-0.8,1.7-1.7c0-1-0.8-1.7-1.7-1.7c-0.9,0-1.8-0.1-2.7-0.1
				c0-1.4-0.1-4.2-0.1-4.2S81.5,342,82.9,341.9z"/>
			<path class="st0" d="M95,339.2c-1.1-0.2-2.1,0.5-2.2,1.6c-0.4,7.4-0.4,14.8,0.1,22.3c0.1,1,0.8,1.5,1.5,1.6
				c1.6,0.2,5.9-1.7,7.4-4.5c1.4-2.6,1.5-6.2,1.4-9.1C103.2,345.9,100.5,340.3,95,339.2z M96.2,360.8c-0.3-5.8-0.3-11.7-0.1-17.5
				c2.8,1.7,3.8,5.2,3.7,8.5C99.8,354,100.5,359.4,96.2,360.8z"/>
		</g>
		<g>
			<path class="st0" d="M33.1,391.2c-1.1,0-2.2-0.1-3.4-0.1c-0.3,0-0.5,0-0.8,0c0-0.3,0-0.6,0-0.8c0-1.7,0-3.4,0.1-5.2
				c0.1-3.9,0.1-7.9,0.2-11.8c0-2.2-3.4-2.2-3.4,0c-0.1,5.5-0.2,11-0.3,16.5c0,1.2-0.4,3.3,0.7,4.2c0.7,0.6,1.9,0.5,2.7,0.5
				c1.4,0.1,2.8,0.1,4.2,0.2C35.3,394.7,35.3,391.3,33.1,391.2z"/>
			<path class="st0" d="M42.6,391.4c0,0-0.1,0-0.1,0c0-5.7,0.1-11.4,0.1-17.2c2.2,0,2.1-3.4,0-3.4c-1.2,0-2.3-0.1-3.5-0.3
				c-0.9-0.2-1.8,0.2-2.1,1.2c-0.2,0.8,0.3,1.9,1.2,2.1c0.3,0.1,0.7,0.1,1,0.1c0,5.8-0.1,11.7-0.1,17.5c0,0,0,0,0,0
				c-2.2,0-2.2,3.5,0,3.4c1.2,0,2.4,0,3.6-0.1C44.8,394.8,44.8,391.4,42.6,391.4z"/>
			<path class="st0" d="M56,372.4c-0.5,3.6-1,7.1-1.6,10.7c-0.8-3.8-1.6-7.6-2.3-11.4c-0.4-2.1-3.7-1.2-3.3,0.9
				c1.3,6.6,2.7,13.1,4,19.7c0.3,1.6,2.9,1.6,3.3,0c1.4-6.6,2.4-13.3,3.3-19.9C59.7,370.2,56.3,370.2,56,372.4z"/>
			<path class="st0" d="M69.2,370.3c-1.2-0.1-2.5-0.1-3.7-0.2c-0.9,0-1.7,0.8-1.7,1.7c0,1,0.8,1.7,1.7,1.7c0,0,0.1,0,0.1,0
				c0,5.8,0,11.5-0.1,17.3c-0.1,0-0.2,0-0.3,0c-0.9,0-1.7,0.8-1.7,1.7c0,0.9,0.8,1.8,1.7,1.7c1.1-0.1,2.2-0.1,3.3-0.2
				c0.9,0,1.7-0.8,1.7-1.7c0-0.8-0.6-1.5-1.3-1.7c0.1-5.7,0.1-11.4,0.1-17c0.1,0,0.1,0,0.2,0c0.9,0,1.7-0.8,1.7-1.7
				C70.9,371,70.2,370.3,69.2,370.3z"/>
			<path class="st0" d="M83.8,372.6c-0.2,3.7-0.4,7.4-0.6,11.1c-1.3-3.8-2.4-7.6-3.4-11.4c-0.5-1.9-3.2-1.4-3.3,0.5
				c-0.4,6.5-0.3,13-0.3,19.5c0,2.2,3.4,2.2,3.4,0c0-2.9-0.1-5.9,0-8.8c1,3,2.1,5.9,3.2,8.8c0.7,1.8,3.2,1.5,3.3-0.5
				c0.4-6.4,0.9-12.9,1.1-19.3C87.3,370.4,83.9,370.4,83.8,372.6z"/>
			<path class="st0" d="M101.8,382.8c-1.3,0-2.6,0.1-3.8,0.1c-2.2,0-2.2,3.5,0,3.4c0.2,0,0.3,0,0.5,0c-0.1,1.2-0.3,2.4-0.7,3.6
				c-0.3,0.7-0.4,1.1-1.1,0.8c-0.4-0.2-0.7-0.7-0.9-1c-1.3-2-1.2-5-1.2-7.3c-0.1-2.5-0.3-5.8,0.7-8.1c0.6-1.6,1.7-1,2.4,0.1
				c0.7,1,0.9,2.2,0.7,3.4c-0.4,2.1,2.9,3.1,3.3,0.9c0.6-3.5-1.4-9.5-6-8.9c-5,0.7-4.5,8.3-4.5,11.9c0,3.9,0.1,9.6,3.9,11.9
				c4.9,3,6.7-3.7,6.9-7.5C104,386.2,104,382.8,101.8,382.8z"/>
		</g>
	</g>
	<g>
		<g>
			<path class="st0" d="M415.8,320.9c-0.3-5-0.7-10.1-1-15.1c0.7-0.1,1.4-0.2,2-0.3c0.9-0.1,1.7-0.7,1.7-1.7c0-0.8-0.8-1.8-1.7-1.7
				c-0.8,0.1-1.5,0.2-2.3,0.3c-0.1-1.4-0.2-2.9-0.3-4.3c1.1,0,2.2,0,3.2,0.1c2.2,0,2.2-3.4,0-3.4c-1.7,0-3.4-0.1-5.1-0.1
				c-0.9,0-1.8,0.8-1.7,1.7c0.5,8.2,1.1,16.4,1.6,24.6C412.5,323.1,415.9,323.1,415.8,320.9z"/>
			<path class="st0" d="M425.3,320.3c-0.4-4-0.6-8-0.8-12c1.4,4.1,2.7,8.2,3.7,12.3c0.5,2.1,3.8,1.2,3.3-0.9
				c-1.3-5.3-3-10.5-4.9-15.6c2.3-1,4.2-2.8,3.8-5.6c-0.6-4-4.9-4.9-8.3-4.1c-0.7,0.2-1.3,0.9-1.3,1.6c0,8.1,0.4,16.2,1.1,24.3
				C422,322.4,425.4,322.4,425.3,320.3z M426.9,299.3c-0.2,1.2-1.4,1.7-2.6,2c0-1.3,0-2.6,0-3.9
				C425.6,297.4,427.2,297.8,426.9,299.3z"/>
			<path class="st0" d="M440.8,320.3c3.8-0.5,4.5-6.4,4.7-9.4c0.4-4.9,0.4-9.9,0.4-14.8c0-2.2-3.4-2.2-3.4,0c0,3.6-0.1,7.3-0.2,10.9
				c-0.1,1.7-0.1,3.4-0.3,5c-0.1,1.1-0.4,3.8-1.5,4.6c-1.1,0.8-1.4-2.9-1.5-3.6c-0.3-1.9-0.5-3.9-0.7-5.8c-0.3-3.8-0.3-7.5-0.1-11.3
				c0.1-2.2-3.3-2.2-3.4,0c-0.3,5.1-0.2,10.2,0.5,15.3C435.8,314.3,436.1,321,440.8,320.3z"/>
			<path class="st0" d="M453.8,317.3c0.1-6.4,0.3-12.9,0.6-19.3c0.1,0,0.3,0,0.4,0c2.2,0,2.2-3.4,0-3.4c-1.3,0-2.5,0-3.7-0.2
				c-0.9-0.1-1.8,0.2-2.1,1.2c-0.2,0.8,0.3,2,1.2,2.1c0.3,0,0.6,0.1,0.9,0.1c-0.3,6.6-0.5,13.2-0.6,19.7c-0.8-0.1-1.7,0.3-1.9,1.2
				c-0.2,0.8,0.3,1.9,1.2,2.1c1.6,0.3,3.2,0.2,4.8-0.2C456.5,320.1,455.7,317.1,453.8,317.3z"/>
			<path class="st0" d="M467.5,320.6c3.1-1.2,3.2-5.2,3.8-8c0.4-2.1-2.9-3.1-3.3-0.9c-0.1,0.8-0.6,6-1.9,5.7c-0.7-0.2-1-2.3-1.1-2.9
				c-0.2-1.1-0.2-2.3-0.2-3.5c0-2.5,0.2-5.1,0.4-7.6c0.6-0.1,1.2-0.1,1.8-0.2c0.9-0.2,1.4-1.3,1.2-2.1c-0.3-1-1.2-1.4-2.1-1.2
				c-0.2,0-0.3,0-0.5,0.1c0.2-1.3,0.4-2.7,0.6-4c0.3-2.1-2.9-3.1-3.3-0.9c-0.3,1.7-0.5,3.3-0.7,5c-0.1,0-0.2,0-0.3,0
				c-0.2-0.1-0.4-0.1-0.6-0.1c-0.1,0-0.2,0-0.2,0c-0.4,0-0.9,0.2-1.2,0.5c-0.3,0.3-0.5,0.8-0.5,1.2c0,0.4,0.2,0.9,0.5,1.2
				c0.3,0.3,0.6,0.4,1,0.5c0.1,0,0.3,0.1,0.5,0.1c0.2,0,0.3,0,0.5,0c-0.1,0.9-0.2,1.8-0.2,2.7c-0.2,3.5-0.6,7.3,0.5,10.7
				C462.7,319.3,464.7,321.7,467.5,320.6z"/>
		</g>
		<g>
			<path class="st0" d="M416.6,343.6c-0.8,0.1-1.6,0.1-2.5,0.2c-0.4,0-0.9,0-1.3,0.1c0-0.1,0-0.2,0-0.4c-0.1-1.5-0.1-2.9-0.2-4.4
				c-0.1-3.3-0.2-6.7-0.3-10c-0.1-2.2-3.5-2.2-3.4,0c0.2,5.1,0.3,10.2,0.5,15.3c0.1,1.6,0.3,2.9,2.2,2.9c1.6,0,3.3-0.2,4.9-0.3
				C418.8,346.8,418.8,343.4,416.6,343.6z M411.6,343.9C411.4,343.9,411.2,343.8,411.6,343.9L411.6,343.9z"/>
			<path class="st1" d="M431.5,328.1c-2.2-0.5-3.9,0.7-5.2,2.3c-1-1.4-2.2-2.4-4.1-2.6c-3.6-0.4-4.5,3.2-4.2,6.1
				c0.6,5.1,3.9,9.2,7.1,13c0.6,0.7,1.8,0.6,2.4,0c3-3.3,5.5-7.6,6.6-12C434.9,332.2,434.9,328.8,431.5,328.1z M429.2,338.4
				c-0.8,1.6-1.7,3.2-2.8,4.6c-1.3-1.6-2.6-3.2-3.5-5c-0.6-1.1-1-2.2-1.2-3.4c-0.1-0.6-0.6-2.8-0.1-3.3c1.4-1.2,3.1,2.9,3.3,3.5
				c0.3,0.7,0.9,1,1.5,0.9c0.6,0.1,1.2-0.1,1.5-0.9c0.4-1,0.9-2.2,1.7-2.8c0.7-0.6,1.6-0.8,1.7,0.3
				C431.4,334.1,430.1,336.8,429.2,338.4z"/>
			<path class="st0" d="M445.6,329c-0.9,3.5-2,7-3.1,10.5c-0.9-3.6-1.8-7.1-2.7-10.7c-0.5-2.1-3.8-1.2-3.3,0.9
				c1.4,5.5,2.8,11,4.2,16.4c0.4,1.7,2.8,1.6,3.3,0c1.7-5.4,3.5-10.7,4.9-16.2C449.4,327.8,446.1,326.9,445.6,329z"/>
			<path class="st0" d="M458.8,343.1c-0.9-0.1-1.8-0.2-2.7-0.3c0-0.5,0-1,0-1.5c0-1.4,0-2.9,0-4.3c0.1,0,0.2,0,0,0
				c0.1,0,0.2,0,0.3,0c0.4,0,0.8,0,1.2,0.1c0.9,0.1,1.7-0.9,1.7-1.7c0-1-0.8-1.6-1.7-1.7c-0.5-0.1-1-0.1-1.5,0c0-1.2,0-2.4,0-3.5
				c0.8,0,1.6,0,2.3,0c2.2,0,2.2-3.4,0-3.4c-1.3,0-2.7,0-4,0c-0.9,0-1.7,0.8-1.7,1.7c0,4.1-0.1,8.1,0,12.2c0,1.3-0.4,3.5,0.3,4.7
				c0.8,1.4,4.4,1.2,5.8,1.4C460.9,346.8,460.9,343.4,458.8,343.1z"/>
			<path class="st0" d="M474.8,343.3c-1.5-3.1-2.9-6.2-4.4-9.3c0.6-0.2,1.2-0.4,1.7-0.9c1-0.8,1.5-2.1,1.4-3.4
				c-0.2-2.8-3-4.5-5.7-4.2c-3.7,0.5-2.8,5.1-2.8,7.8c0,4,0.1,7.9,0.3,11.9c0.1,2.2,3.5,2.2,3.4,0c-0.1-2.4-0.2-4.8-0.2-7.3
				c1.1,2.3,2.2,4.7,3.3,7C472.8,347,475.8,345.3,474.8,343.3z M469.3,329.1c0.7,0.2,1.2,0.9,0.6,1.5c-0.2,0.2-0.8,0.4-1.4,0.5
				c0-0.3,0-0.5,0-0.8C468.6,329.5,468.2,328.7,469.3,329.1z"/>
		</g>
	</g>
	<g>
		<g>
			<path class="st1" d="M178.7,313.5c0.9-0.1,1.6-0.7,1.6-1.7c0-0.9-0.8-1.8-1.7-1.7c-1.4,0.1-2.7,0.2-4.1,0.1c-2.2,0-2.2,3.4,0,3.4
				c0.3,0,0.5,0,0.8,0c-0.2,2.7-0.8,8.2-3.8,6.6c-2.8-1.4-3.5-6.3-3.7-9c-0.2-3.2-0.2-7,0.7-10c0.4-1.2,1.7-3.5,3.3-2.9
				c1.4,0.5,1.8,3.2,1.9,4.4c0.1,2.2,3.5,2.2,3.4,0c-0.1-2.4-0.8-5.2-2.7-6.8c-1.8-1.6-4.5-1.2-6.3,0.2c-2.1,1.6-3,4.1-3.3,6.6
				c-0.4,2.8-0.6,5.7-0.4,8.6c0.3,4.4,1.8,11.4,6.9,12.6C177.2,325.1,178.3,318,178.7,313.5z"/>
			<path class="st1" d="M188.3,320.7c-0.3-4.6-0.5-9.2-0.6-13.9c0.1,0.3,0.2,0.6,0.3,0.9c0.5,1.3,1,2.7,1.5,4c1,2.8,2,5.6,3,8.4
				c0.7,2.1,4,1.2,3.3-0.9c-1.2-3.4-2.4-6.8-3.7-10.2c-0.6-1.6-1.3-3.3-1.9-4.9c-0.1-0.3-0.2-0.7-0.4-1c2.3-0.7,4.2-2.2,3.9-5
				c-0.4-3.4-5.2-5.6-8.1-3.9c-1.7,1-1.4,3.1-1.4,4.7c0,2.4,0,4.9,0.1,7.3c0.1,4.9,0.3,9.7,0.6,14.6
				C185,322.8,188.4,322.9,188.3,320.7z M187.6,297c0.4,0,0.8,0,1.2,0.1c1.1,0.3,2,1.1,1.1,2.1c-0.5,0.6-1.5,0.8-2.3,0.9
				c0-0.2,0-0.4,0-0.7C187.6,298.8,187.4,297.7,187.6,297C187.6,296.7,187.6,296.7,187.6,297z"/>
			<path class="st1" d="M202.2,301.7c0.1,5.7,0.4,11.3,0.8,17c0.1,0.9,0.7,1.8,1.7,1.7c1.8-0.1,3.6-0.2,5.4-0.3
				c2.2-0.1,2.2-3.5,0-3.4c-1.3,0.1-2.6,0.1-3.8,0.2c-0.2-3.3-0.4-6.6-0.5-9.8c0-1.3-0.1-2.6-0.1-3.9c0.7,0,1.4-0.1,2.2,0
				c0.9,0,1.7-0.8,1.7-1.7c0-1-0.7-1.7-1.7-1.7c-0.7,0-1.5,0-2.2,0c0-0.3,0-0.7,0-1c0-0.5-0.1-1.2-0.1-1.8c0.3,0,0.7,0,1,0
				c0.8,0,1.6-0.1,2.4-0.1c2.2-0.1,2.2-3.5,0-3.4c-1.8,0.1-5.2-0.5-6.3,1.3c-0.5,0.8-0.3,1.9-0.3,2.7
				C202.2,298.8,202.2,300.2,202.2,301.7z M204.9,296.9C204.9,296.9,204.8,297,204.9,296.9C204.6,296.9,204.6,296.9,204.9,296.9z"/>
			<path class="st1" d="M219.8,319.6c1.7,0,3.4,0,5,0c2.2,0,2.2-3.4,0-3.4c-1.1,0-2.2,0-3.3,0c0.1-4.7,0.2-9.4,0.3-14.1
				c0.4,0,0.7-0.1,1.1,0c0.9,0.1,1.8-0.2,2.1-1.2c0.2-0.8-0.3-2-1.2-2.1c-0.6-0.1-1.3-0.1-1.9-0.1c0-0.8,0-1.6,0-2.4
				c1,0,1.9,0,2.9,0.1c2.2,0.2,2.2-3.2,0-3.4c-1.5-0.2-3-0.2-4.6-0.1c-0.9,0.1-1.7,0.7-1.7,1.7c-0.2,7.7-0.3,15.5-0.5,23.2
				C218.1,318.8,218.9,319.6,219.8,319.6z"/>
			<path class="st1" d="M244.3,295.1c0-2.2-3.4-2.2-3.4,0c0,4.7,0.1,9.4,0.1,14.2c-1.5-4.7-2.5-9.6-4.3-14.2
				c-0.7-1.7-3.4-1.6-3.3,0.5c0,7.6,0,15.3,0,22.9c0,2.2,3.4,2.2,3.4,0c0-3.9,0-7.8,0-11.6c1.2,4.2,2.4,8.3,4.6,12.1
				c0.8,1.5,3.2,0.8,3.2-0.9C244.5,310.4,244.4,302.7,244.3,295.1z"/>
		</g>
		<g>
			<path class="st0" d="M179.6,339.8c-0.6,3-1.3,5.9-1.9,8.9c-1-3-2-6-2.8-9.1c-0.6-2.1-3.9-1.2-3.3,0.9c1.3,5,3,9.9,4.9,14.7
				c0.6,1.4,2.9,1.8,3.3,0c1-4.8,2.1-9.6,3.1-14.4C183.3,338.5,180,337.6,179.6,339.8z"/>
			<path class="st0" d="M208.8,340.2c-1.9-1.2-3.6,1.8-1.7,2.9c2.2,1.4,2.2,4.4,1.4,6.6c-0.7,1.8-3.1,5.9-4.9,2.8
				c-1-1.7-1.2-3.9-1.2-6c2.7-4,4.8-8.6,6.1-13.2c0.8-3.1,1.9-8.4-2.5-9.3c-4.3-1-6,4-6.5,7.3c-0.6,4.6-0.7,9.4-0.5,14.1
				c-0.9,1.3-1.9,2.5-3,3.7c-0.9,1-2.1,2.5-3.3,3.1c-1.6,0.8-2.4-1.5-2.6-2.7c-0.5-3.1-0.1-6.5-0.1-9.7c0-2.2-3.4-2.2-3.4,0
				c0,2.3-0.1,4.6-0.1,6.9c0,1.8,0,3.7,0.7,5.4c0.6,1.6,1.9,3.2,3.7,3.6c2,0.5,3.7-0.6,5.1-1.9c1.2-1,2.3-2.2,3.3-3.4
				c0.4,2.4,1.2,4.8,3.3,6c4.1,2.4,7.4-2,8.8-5.3C213.1,347.3,212.6,342.6,208.8,340.2z M202.7,334.2c0.1-1.4,0.2-2.9,0.6-4.2
				c0.2-0.8,1.4-3.7,2.4-2.2c0.7,0.9,0,2.9-0.3,3.9c-0.3,1.3-0.7,2.5-1.1,3.7c-0.5,1.5-1.1,2.9-1.8,4.3
				C202.4,337.9,202.5,336,202.7,334.2z"/>
			<path class="st0" d="M242.4,350.4c-0.5-1.9-2-3-3.6-4.1c-1.4-1-2.8-2.6-1.5-4.1c0.2,0,0.3,0.2,0.4,0.4c0.8,2,4.1,1.1,3.3-0.9
				c-0.9-2.2-2.9-3-4.8-2.7c-0.2,0-0.4,0.1-0.6,0.1c-1.1,0.3-2.2,1.1-3,2.1c-1.3,1.7-2.1,3.8-3.3,5.6c-0.7,1-1.4,2-2.1,3
				c-0.6,0.8-1.4,2-2.4,2.4c-1.9,0.9-3.3-1.1-3.9-2.8c1.6-1.1,2.9-2.5,3.8-4.3c0.8-1.6,1.5-3.9,0.5-5.6c-1.1-1.9-3.6-2-5.2-0.9
				c-1.7,1.2-2.3,3.6-2.6,5.5c-0.2,1.1-0.2,2.2-0.1,3.3c-0.7,0.2-1.4,0.4-2.1,0.4c-2.2,0.1-2.2,3.5,0,3.4c0.9-0.1,1.9-0.2,2.8-0.5
				c0.1,0.2,0.1,0.4,0.2,0.6c1.8,4.1,6.7,5.8,10.1,2.4c1.9-1.9,3.4-4.1,4.8-6.4c0.3-0.6,0.6-1.2,0.9-1.8c0.2,0.6,0.5,1.1,1,1.6
				c1,1.2,2.5,1.7,3.5,2.8c1.4,1.4,0.1,3.7-1.8,2.6c-1.9-1.1-3.6,1.8-1.7,2.9C238.6,357.9,243.5,354.8,242.4,350.4z M221.7,341.8
				c1.1-1.1,0.4,1,0.2,1.5c-0.3,0.8-0.8,1.5-1.3,2.1C220.7,344,221,342.6,221.7,341.8z"/>
			<path class="st0" d="M188.6,335.8c1,0,1.6-0.8,1.7-1.7c0-0.5,0.1-1.1,0.1-1.6c0.1-0.9-0.8-1.7-1.7-1.7c-1,0-1.6,0.8-1.7,1.7
				c0,0.5-0.1,1.1-0.1,1.6C186.8,335,187.7,335.8,188.6,335.8z"/>
		</g>
	</g>
	<g>
		<g>
			<path class="st0" d="M231.4,166.2c-2.1,0-4.3-0.1-6.4-0.1c-0.9,0-1.8,0.8-1.7,1.7c0.7,10.1,1.4,20.2,2.1,30.2
				c0.1,2.2,3.6,2.2,3.4,0c-0.5-6.7-0.9-13.5-1.4-20.2c1-0.1,2-0.1,3-0.2c0.9-0.1,1.7-0.7,1.7-1.7c0-0.9-0.8-1.8-1.7-1.7
				c-1.1,0.1-2.1,0.1-3.2,0.2c-0.1-1.6-0.2-3.3-0.3-4.9c1.5,0,3.1,0.1,4.6,0.1C233.6,169.7,233.6,166.3,231.4,166.2z"/>
			<path class="st0" d="M242.1,175.8c2.3-1.2,4.1-3,3.9-5.9c-0.3-4.2-4.7-4.6-7.9-3.5c-0.7,0.2-1.2,0.9-1.3,1.6
				c-0.5,9.9,0.2,19.8,1.8,29.5c0.4,2.2,3.7,1.2,3.3-0.9c-0.9-5.5-1.5-11.1-1.7-16.7c2.2,5.4,4.2,11,5.9,16.6
				c0.6,2.1,3.9,1.2,3.3-0.9C247.3,188.9,244.9,182.3,242.1,175.8z M242.5,170.8c-0.3,1.2-1.3,1.9-2.5,2.3c0-1.3,0-2.5,0.1-3.8
				C241.4,169.1,242.9,169.1,242.5,170.8z"/>
			<path class="st0" d="M260.7,167.8c0.2,4.5,0.3,9,0.3,13.4c0,2.2-0.1,4.5-0.2,6.7c-0.1,0.8-0.2,5.9-1.8,4.8
				c-1.2-0.7-1.2-4-1.4-5.2c-0.3-2.2-0.6-4.5-0.8-6.7c-0.4-4.4-0.5-8.8-0.3-13.2c0.1-2.2-3.3-2.2-3.4,0c-0.3,5.6,0,11.2,0.6,16.8
				c0.3,2.5,0.5,5.2,1.2,7.7c0.5,1.9,1.6,3.8,3.7,4.2c5.8,1.1,5.6-7.9,5.7-11.4c0.2-5.7,0-11.4-0.2-17.1
				C264,165.6,260.6,165.6,260.7,167.8z"/>
			<path class="st0" d="M274.6,194.1c-0.8-8.5-1.1-17-1.1-25.5c0.1,0,0.2,0,0.3,0c2.2,0,2.2-3.4,0-3.4c-1.4,0-2.9,0-4.3,0
				c-2.2,0-2.2,3.4,0,3.4c0.2,0,0.4,0,0.6,0c-0.1,8.6,0.3,17.2,1.1,25.7c-0.2,0-0.3,0-0.5,0c-2.2-0.1-2.2,3.3,0,3.4
				c1.6,0.1,3.2-0.1,4.8-0.4c0.9-0.2,1.4-1.3,1.2-2.1C276.4,194.4,275.5,194,274.6,194.1z"/>
			<path class="st0" d="M290.1,166.5c-2.7-0.1-5.5-0.1-8.2,0.2c-2.2,0.2-2.2,3.6,0,3.4c0.8-0.1,1.7-0.1,2.5-0.2
				c0.1,8.6,0.1,17.1,0.2,25.7c0,2.2,3.4,2.2,3.4,0c-0.1-8.6-0.1-17.2-0.2-25.8c0.8,0,1.5,0,2.3,0.1
				C292.3,170,292.3,166.6,290.1,166.5z"/>
			<path class="st0" d="M304.6,183.7c-1-2.9-2.3-5.6-3.4-8.4c-0.7-1.9-2.2-6.8,1.1-7.2c2.1-0.3,2.2-3.7,0-3.4c-2.4,0.3-4.2,1.7-5,4
				c-1,2.7-0.2,5.6,0.9,8.1c0.8,1.9,7.6,16.8,2.8,16.6c-2.2-0.1-2.2,3.3,0,3.4C307.8,197,306,187.6,304.6,183.7z"/>
		</g>
		<path class="st2" d="M347.6,191.8c-0.2-1-1-1.7-1.8-1.9c-0.1-0.3-0.4-0.6-0.8-0.8c-7.9-3.8-16.3-10.3-16.9-19.8c0-0.1,0-0.3,0-0.4
			c0.4-3.2,1.6-6.5,1.6-9.8c0-2.7-3.7-2.8-5.7-2.9c-1.3,0-2.8,0-3.6,1.2c-0.6,0.8-0.6,2-0.8,3c-0.6,2.8-1,5.7-1.6,8.5
			c-3.9,9.2-3.6,21.8,4.7,28.6c2.1,1.7,4.7,3,7.4,3.6c4.9,1.2,11.6,0.3,15.2-3.5c0.3-0.3,0.5-0.7,0.5-1.1c0.2-0.1,0.4-0.1,0.5-0.3
			C347.6,195.5,347.9,193.2,347.6,191.8z M342.3,191.5c-0.1,0.3-0.1,0.5-0.2,0.8c-2,0.7-5.1-0.8-6.8-1.6c-2.4-1-4.6-2.4-6-4.6
			c-1.7-2.7-2.4-5.9-2.5-9.1C329.9,183.5,336,188.3,342.3,191.5z M330.4,197.7c-2.1-0.6-4.2-1.6-5.8-3c-6.9-6-6.7-16.5-3.5-24.4
			c0.1-0.1,0.1-0.3,0.2-0.5c0.1-0.2,0.1-0.5,0.1-0.7c0.5-2.2,0.8-4.3,1.3-6.5c0.1-0.4,0.3-3,0.7-3.3c-0.5,0.3,1.1,0.4,1.3,0.4
			c0.5,0,1.1,0.1,1.7,0.2c-0.1,0.4-0.2,1-0.3,1.3c-0.2,1-0.4,1.9-0.5,2.8c-0.3,1.5-0.5,3-0.7,4.5c0,0.1-0.1,0.2-0.1,0.3
			c-2.2,6.5-1.9,14.7,2.5,20.2c2,2.5,4.8,4,7.7,5.2c2.3,0.9,4.9,1.9,7.4,1.6C339.2,198.4,334,198.7,330.4,197.7z"/>
		<g>
			<path class="st0" d="M234.9,210.9c-0.5-1.6-2.8-1.7-3.3,0c-1.6,5.6-2.2,11.5-2.8,17.3c-0.2,2.2,3.2,2.2,3.4,0
				c0.1-0.9,0.2-1.8,0.3-2.7c0.7-0.1,1.5-0.3,2.2-0.3c0.2,0.9,0.4,1.9,0.6,2.8c0.4,2.1,3.7,1.2,3.3-0.9
				C237.5,221.7,236.6,216.2,234.9,210.9z M232.9,222.1c0.1-1.1,0.3-2.3,0.5-3.4c0.2,1.1,0.5,2.2,0.7,3.3
				C233.7,221.9,233.3,222,232.9,222.1z"/>
			<path class="st0" d="M251.4,211.7c-1.5-2.2-4.4-3.1-7-3c-0.5,0-0.9,0.2-1.1,0.5c0,0,0,0-0.1,0.1c0,0,0,0,0,0
				c-0.3,0.3-0.5,0.7-0.5,1.1c-0.1,5.7,0.1,11.3,0.5,17c0.1,0.9,0.7,1.7,1.7,1.7c2.6,0.1,5.1-1.4,6.4-3.7c1.3-2.2,1.4-4.9,1.3-7.5
				C252.6,216,252.6,213.5,251.4,211.7z M246.5,225.4c-0.3-4.4-0.4-8.8-0.4-13.2c1.1,0.2,2.1,0.7,2.6,1.6c0.6,1.1,0.5,2.8,0.5,4.1
				C249.4,220.6,249.2,224.4,246.5,225.4z"/>
			<path class="st0" d="M259.4,208.8c-0.4,0-0.8,0.2-1,0.4c-0.4,0.3-0.7,0.7-0.7,1.3c-0.1,4.4,0,8.9,0.3,13.3c0.1,1.4,0,3.5,1.8,3.9
				c1.5,0.4,3.3-0.6,4.4-1.6C269.7,221.7,267.8,208.4,259.4,208.8z M261.4,223.9c-0.1-0.5-0.1-0.9-0.1-1c-0.1-1.3-0.1-2.6-0.2-4
				c-0.1-2.1-0.1-4.3,0-6.4C264.8,214.2,264.9,222,261.4,223.9z"/>
			<path class="st0" d="M277,208.8c-1.3,0-2.6,0-4,0c-2.2,0-2.2,3.4,0,3.4c0.1,0,0.3,0,0.4,0c0.2,4,0.2,8.1,0,12.1
				c-0.1,0-0.2,0-0.3,0c-2.2,0.1-2.2,3.5,0,3.4c1.3,0,2.6-0.2,3.9-0.4c0.9-0.1,1.4-1.3,1.2-2.1c-0.2-0.7-0.7-1.1-1.3-1.2
				c0.1-4,0.1-7.9,0-11.9c0,0,0.1,0,0.1,0C279.2,212.2,279.2,208.8,277,208.8z"/>
			<path class="st0" d="M289.8,222.4c-0.3,1.4-0.9,3.5-2.5,1.7c-1.2-1.4-1.2-3.6-1.2-5.3c0-1.7,0.1-3.7,0.6-5.3
				c0.2-0.6,0.7-1.7,1.5-1.8c1-0.1,1.1,1,1,1.6c-0.2,2.2,3.2,2.2,3.4,0c0.3-3.2-2.7-5.9-5.8-4.8c-3.7,1.3-4.1,6.3-4.1,9.6
				c-0.1,3.4,0.3,7.8,3.7,9.6c3.6,1.9,6-1.2,6.6-4.4C293.5,221.1,290.2,220.2,289.8,222.4z"/>
			<path class="st0" d="M305.8,208.8c-2.5-0.1-5.1,0-7.6,0.2c-2.2,0.1-2.2,3.6,0,3.4c0.7,0,1.4-0.1,2.1-0.1
				c0.1,4.9,0.1,9.8,0.2,14.7c0,2.2,3.4,2.2,3.4,0c-0.1-4.9-0.1-9.9-0.2-14.8c0.7,0,1.4,0,2.1,0C308,212.3,308,208.9,305.8,208.8z"
				/>
			<path class="st0" d="M319.8,224.5c-1.5,0.1-2.9,0-4.4-0.1c0-1.7,0-3.5,0.1-5.2c1.2,0,2.4,0,3.6,0c2.2,0,2.2-3.4,0-3.4
				c-1.2,0-2.4,0-3.6,0c0-0.6,0-1.2,0-1.8c0-0.6,0-1.1,0-1.7c0-0.2,0-0.4,0-0.6c1.2-0.2,2.5-0.1,3.6-0.2c2.2-0.2,2.2-3.6,0-3.4
				c-1.1,0.1-2.3,0.2-3.4,0.3c-0.8,0.1-1.9,0-2.6,0.5c-1.3,0.8-1,2.9-1,4.2c-0.1,4.3-0.1,8.6-0.2,12.9c0,1,0.8,1.6,1.7,1.7
				c2,0.2,4.1,0.3,6.1,0.2C321.9,227.9,322,224.4,319.8,224.5z"/>
			<path class="st0" d="M334.3,211.7c-1.4-1.7-3.5-2.3-5.5-2.6c-0.4-0.1-0.8,0-1.1,0.2c-0.5,0.2-1,0.7-1,1.4
				c-0.5,5.3-0.8,10.5-0.8,15.8c0,1,0.8,1.7,1.7,1.7c2.4,0.1,4.7-0.3,6.2-2.4c1.4-1.9,1.8-4.6,2-6.9
				C336,216.5,335.9,213.8,334.3,211.7z M332.3,218.4c-0.1,1.5-0.4,3.2-1,4.6c-0.5,1.2-1.2,1.6-2.2,1.8c0-4,0.3-8,0.6-12.1
				c0.6,0.2,1.2,0.4,1.7,0.9C332.6,214.9,332.5,216.9,332.3,218.4z"/>
		</g>
	</g>
	<g>
		<path class="st0" d="M32,471.4c-0.4-7.2-0.9-14.5-1.3-21.7c0.1,0,0.1,0,0.2,0c0.9-0.1,1.7-0.7,1.7-1.7c0-0.9-0.8-1.8-1.7-1.7
			c-1.4,0.1-2.8,0.2-4.2,0.4c-0.9,0.1-1.7,0.7-1.7,1.7c0,0.9,0.8,1.8,1.7,1.7c0.2,0,0.4,0,0.6-0.1c0.4,7.2,0.9,14.4,1.3,21.6
			c-0.1,0-0.2,0-0.3,0c-0.9-0.1-1.7,0.8-1.7,1.7c0,1,0.8,1.6,1.7,1.7c1.4,0.1,2.8,0,4.2-0.2c0.9-0.2,1.4-1.3,1.2-2.1
			C33.4,471.8,32.7,471.4,32,471.4z"/>
		<path class="st1" d="M49.7,448.1c-1.7,0.7-3.1,2.1-4.2,3.8c-1-1.6-2.4-2.9-3.9-3.6c-3.1-1.4-5.9,0.7-6.1,4
			c-0.2,3.5,1.9,6.9,3.5,9.9c1.8,3.4,3.4,7.1,6,10c0.7,0.9,2.1,0.5,2.7-0.3c1.9-3.1,3.8-6.3,5.3-9.6c1.3-3.1,2.9-6.8,2.7-10.2
			C55.5,448.9,52.7,446.8,49.7,448.1z M51.2,457.5c-1.2,3.7-3.1,7.1-5.1,10.4c-0.9-1.4-1.6-2.9-2.4-4.4c-1.2-2.3-2.5-4.5-3.6-6.8
			c-0.4-0.8-2.4-6,0-5.4c1.7,0.5,3.1,2.8,3.5,4.6c0,0.4,0.1,0.7,0.2,0.9c0.3,0.7,1.2,0.9,1.9,0.7c0.5-0.1,1-0.5,1.3-1.1
			c0.6-1.7,2.1-4.7,4-5.1C53.5,450.6,51.6,456.4,51.2,457.5z"/>
		<g>
			<path class="st0" d="M68.1,448.4c-0.8,4.8-1.6,9.7-2.3,14.5c-1.3-5-2.4-10-3.4-15.1c-0.4-2.2-3.7-1.2-3.3,0.9
				c1.5,7.6,3.3,15.2,5.5,22.7c0.4,1.5,3,1.7,3.3,0c1.2-7.4,2.4-14.7,3.6-22.1C71.8,447.1,68.5,446.2,68.1,448.4z"/>
			<path class="st0" d="M80.2,450.4c0.7-0.1,1.5-0.1,2.2-0.2c2.2-0.2,2.2-3.6,0-3.4c-1.3,0.1-2.5,0.2-3.8,0.4
				c-0.8,0.1-1.7,0.1-2.3,0.7c-0.7,0.8-0.6,2-0.7,2.9c-0.1,1.3-0.1,2.7-0.1,4c-0.2,5.4-0.3,10.8-0.3,16.2c0,0.7,0.5,1.5,1.3,1.6
				c2.1,0.5,4.1,0.5,6.2,0.1c2.2-0.4,1.2-3.7-0.9-3.3c-1.1,0.2-2.1,0.2-3.1,0.1c0-3.1,0.1-6.3,0.1-9.4c0-0.9,0-1.7,0.1-2.6
				c0.7,0,1.5,0.1,2.2,0.3c0.9,0.2,1.8-0.3,2.1-1.2c0.2-0.9-0.3-1.9-1.2-2.1c-1-0.2-2-0.4-3-0.4c0-1.2-0.1-2.6,0.1-3.8
				C79.4,450.3,79.9,450.4,80.2,450.4z"/>
			<path class="st0" d="M99,460.6c-1.1,0-2.1-0.1-3.2-0.3c-0.9-0.2-1.8,0.2-2.1,1.2c-0.2,0.8,0.3,1.9,1.2,2.1c0.3,0.1,0.7,0.1,1,0.1
				c0,2.2-0.3,6.1-2.2,6.3c-2.4,0.1-2.7-6.7-2.8-8.1c-0.2-3.1-0.1-6.2,0.6-9.2c0.2-1,0.6-3.3,2-3.4c1.7-0.1,1.6,2.9,1.5,4
				c0,2.2,3.4,2.2,3.4,0c0-2.4-0.2-5-2.3-6.5c-1.7-1.3-4-1-5.6,0.4c-1.8,1.6-2.3,4.2-2.6,6.5c-0.4,2.7-0.6,5.5-0.4,8.3
				c0.3,3.9,0.8,11.5,6.2,11.5c4.4,0,5.5-5.7,5.6-9.4C101.2,463.6,101.1,460.6,99,460.6z"/>
			<path class="st0" d="M114.2,460.6c-1.1-0.1-2.1-0.2-3.2-0.4c-0.9-0.1-1.8,0.2-2.1,1.2c-0.2,0.8,0.3,2,1.2,2.1
				c0.2,0,0.4,0.1,0.7,0.1c-0.2,2.3-0.8,7.8-3.1,5.9c-2-1.7-1.8-5.8-1.9-8.2c-0.1-3,0.2-6.1,1.4-8.9c0.4-1,1.4-3.3,2.8-2.6
				c1.3,0.6,1.1,2.8,1.1,4c0,2.2,3.4,2.2,3.4,0c0-2.3-0.3-4.8-2.1-6.4c-1.7-1.5-4.1-1.5-5.8-0.1c-3.7,3.1-4.3,9.6-4.2,14
				c0.1,4,0.3,10.7,5.3,11.9c5,1.3,6.2-5.3,6.5-9.2c0,0,0,0,0,0c0.9,0.1,1.7-0.8,1.7-1.7C115.9,461.3,115.1,460.6,114.2,460.6z"/>
			<path class="st0" d="M124.3,446.9c-1.1,0-2.2-0.1-3.3-0.1c-0.9,0-1.7,0.8-1.7,1.7c0,0.9,0.7,1.6,1.6,1.7
				c-0.2,6.6-0.5,13.2-0.7,19.8c-0.8,0-1.5,0.4-1.7,1.2c-0.2,0.9,0.3,1.9,1.2,2.1c1,0.2,2,0.4,3.1,0.3c0.9,0,1.7-0.8,1.7-1.7
				c0-0.6-0.3-1.2-0.8-1.5c0.2-6.7,0.5-13.4,0.7-20.1c0,0,0,0,0,0c0.9,0,1.7-0.8,1.7-1.7C126,447.7,125.3,447,124.3,446.9z"/>
			<path class="st0" d="M137.6,469.8c-1.3-0.1-2.6-0.1-3.9-0.2c0-3.2,0-6.4,0-9.6c0-1.2,0-2.5,0-3.7c0.7,0,1.4,0,2,0
				c0.9,0.1,1.7-0.8,1.7-1.7c0-1-0.8-1.6-1.7-1.7c-0.7-0.1-1.4-0.1-2.1,0c-0.1-1-0.1-2.1,0-3.1c0.2,0,0.3,0,0.5,0
				c0.7,0.1,1.4,0.2,2.1,0.4c2.1,0.5,3-2.8,0.9-3.3c-1.6-0.4-4.8-1.3-6.2,0.1c-0.7,0.8-0.6,2-0.6,3c0,1.4,0,2.9,0,4.3
				c0,5.6,0,11.3,0,16.9c0,0.9,0.8,1.7,1.7,1.7c1.9,0,3.7,0,5.6,0.2C139.8,473.4,139.8,470,137.6,469.8z"/>
			<path class="st0" d="M149.5,462.5c-0.7-2.4-2-4.4-3.1-6.5c-1-2-2-5.8,1.2-6.4c2.2-0.4,1.2-3.7-0.9-3.3c-4.9,0.9-5.3,6.6-3.7,10.4
				c1,2.3,2.5,4.3,3.2,6.8c0.4,1.4,1.4,6-1.1,6.3c-2.2,0.3-2.2,3.7,0,3.4C150.4,472.5,150.7,466.6,149.5,462.5z"/>
		</g>
	</g>
	<g>
		<g>
			<path class="st0" d="M297,422.3c-1.1,0-2.3,0-3.4,0c-2.2,0-2.2,3.4,0,3.4c0.3,0,0.6,0,0.9,0c0.1,1.7,0.1,3.4-0.2,5.1
				c-0.1,0.7-0.2,1.6-0.6,2.1c-0.6,0.8-1.6,0.4-2.3-0.1c-2.5-1.7-3-5.5-3.2-8.3c-0.4-4-0.2-8.1,0.6-12c0.3-1.4,0.7-4.2,2.4-4.6
				c2.2-0.5,2.2,3.3,2.1,4.6c0,2.2,3.4,2.2,3.4,0c0-2.7-0.3-5.7-2.8-7.3c-2.2-1.4-4.9-0.6-6.5,1.4c-1.8,2.2-2.2,5.6-2.5,8.3
				c-0.4,3.2-0.5,6.4-0.2,9.6c0.4,4.4,1.6,10.4,6.5,12c6.4,2.1,7-6.6,6.7-11C299.1,424.7,298.8,422.3,297,422.3z"/>
			<path class="st0" d="M307.9,415.9c2.3-0.9,4.1-2.9,4.1-5.7c0-1.8-1-3.4-2.5-4.4c-1.3-0.8-3.8-1.6-5.2-0.6
				c-1.6,1.1-1.2,3.9-1.3,5.5c-0.2,2.7-0.4,5.4-0.5,8.1c-0.2,5.2-0.4,10.4-0.3,15.5c0,2.2,3.4,2.2,3.4,0c0-4.9,0.1-9.9,0.3-14.8
				c1.8,4.7,2.7,9.8,4.7,14.5c0.9,2,3.8,0.3,2.9-1.7C311.2,427,310.3,421.2,307.9,415.9z M308.2,411.6c-0.5,0.8-1.2,1.2-2.1,1.3
				c0.1-1,0.1-1.9,0.2-2.9c0-0.4,0.1-0.9,0.1-1.3c0.1-0.2,0.1-0.3,0.1-0.4c0.4,0.1,0.7,0.2,1,0.3
				C308.6,409.3,308.9,410.5,308.2,411.6z"/>
			<path class="st0" d="M325.1,431.1c-1.3,0-2.6,0-3.8,0c-0.2-5.2-0.2-10.3-0.2-15.5c1-0.1,1.9-0.1,2.9,0c0.9,0.1,1.7-0.8,1.7-1.7
				c0-1-0.8-1.6-1.7-1.7c-1-0.1-1.9-0.1-2.9,0c0-1.3,0-2.5,0-3.8c1,0,2,0,3,0c2.2,0,2.2-3.4,0-3.4c-1.6,0-3.1,0-4.7,0
				c-0.9,0-1.7,0.8-1.7,1.7c-0.2,8.7-0.1,17.4,0.2,26.1c0,0.9,0.8,1.7,1.7,1.7c1.8,0,3.7,0,5.5,0C327.3,434.4,327.3,431,325.1,431.1
				z"/>
			<path class="st0" d="M337.9,430.4c-1.1-0.1-2.2-0.1-3.3-0.2c0-3.6,0-7.2,0-10.8c0-1.5,0-3,0-4.5c0.5,0,1.1,0,1.6,0.1
				c0.9,0.2,1.8-0.2,2.1-1.2c0.2-0.8-0.3-1.9-1.2-2.1c-0.8-0.1-1.7-0.2-2.5-0.2c0-0.4,0-0.8,0-1.2c0-0.7-0.1-1.5,0-2.3
				c0.9-0.2,2.5,0,3.1,0c2.2,0,2.2-3.4,0-3.4c-1.8,0-4.9-0.5-6,1.3c-0.7,1-0.4,2.6-0.4,3.7c0,1.5,0,2.9,0,4.4c0,6,0,11.9,0,17.9
				c0,1,0.8,1.7,1.7,1.7c1.7,0.1,3.3,0.2,5,0.2C340.1,434,340.1,430.5,337.9,430.4z"/>
			<path class="st0" d="M353.6,405.6c-0.2,5.4-0.4,10.8-0.6,16.2c-1.6-5.5-3.1-11-4.4-16.6c-0.5-1.9-3.3-1.4-3.3,0.5
				c-0.4,8.9-0.8,17.7-1.3,26.6c-0.1,2.2,3.3,2.2,3.4,0c0.2-5.1,0.5-10.1,0.7-15.2c1.4,5.2,2.9,10.3,4.6,15.3
				c0.6,1.8,3.3,1.5,3.3-0.5c0.3-8.8,0.6-17.5,0.9-26.3C357.1,403.4,353.7,403.4,353.6,405.6z"/>
		</g>
		<g>
			<path class="st0" d="M289.8,441.5c-1.9-0.2-3.4,0.8-3.7,2.7c-0.4,2.4,0,5,0,7.4c0,5.4,0,10.8,0,16.2c0,2.2,3.4,2.2,3.4,0
				c0-4.9,0-9.8,0-14.8c2.6-0.2,5.4-1.1,6-3.9C296.3,445.6,293.4,441.8,289.8,441.5z M289.5,449.7c0-0.6,0-1.2,0-1.8
				c0-0.8,0.1-1.6,0-2.4c-0.1-0.9-0.1-0.8,0.7-0.4c1,0.4,1.8,1.5,2,2.5C292.5,449.2,290.9,449.6,289.5,449.7z"/>
			<path class="st0" d="M309.4,446.8c-0.4-2.4-1.5-4.5-4.2-4.6c-0.1,0-0.2,0-0.3,0c-0.2-0.1-0.5-0.1-0.7,0c-2.4,0.4-3.9,2.6-4.3,4.9
				c-0.5,2.9-0.4,6-0.4,8.8c0,2.7-0.2,5.7,0.7,8.3c0.7,2.1,2.5,4.3,5,4c5.3-0.7,4.8-8.9,4.8-12.6C310,452.7,309.9,449.8,309.4,446.8
				z M306.4,460.7c-0.1,0.9-0.4,4-1.7,4.1c-2.4,0-1.8-8.2-1.8-9.5c0-1.8,0.1-3.6,0.1-5.3c0.1-1.5,0-3.9,1.8-4.4c0.1,0,0.2,0,0.3,0
				c1.1,0.1,1.2,4.2,1.2,4.9c0.1,1.7,0.2,3.4,0.2,5.2C306.5,457.3,306.6,459.1,306.4,460.7z"/>
			<path class="st0" d="M328.9,442.8c-0.8,5.5-1.7,11-2.7,16.4c-0.8-2.4-1.4-4.9-2-7.4c-0.4-1.7-2.8-1.5-3.3,0
				c-0.7,2.2-1.4,4.3-2.1,6.5c-0.7-5-1.2-9.9-1.7-14.9c-0.2-2.2-3.6-2.2-3.4,0c0.7,7.7,1.7,15.3,2.8,22.9c0.3,1.8,2.8,1.5,3.3,0
				c0.8-2.6,1.7-5.3,2.5-7.9c0.8,2.6,1.6,5.2,2.7,7.7c0.6,1.4,2.9,1.8,3.3,0c1.5-7.4,2.7-14.9,3.8-22.4
				C332.5,441.5,329.2,440.6,328.9,442.8z"/>
			<path class="st0" d="M343.9,443.9c2.2,0.1,2.2-3.3,0-3.4c-1.5-0.1-3,0-4.6,0.1c-0.9,0.1-1.7,0.7-1.7,1.7
				c-0.2,5.7-0.4,11.5-0.5,17.2c0,1.3,0,2.7-0.1,4c0,1-0.3,2.5,0.4,3.4c1.1,1.6,4.5,1.1,6.1,1.2c2.2,0.1,2.2-3.3,0-3.4
				c-1-0.1-2-0.1-3.1-0.2c0-0.5,0-1,0-1c0-2.3,0.1-4.6,0.1-7c0-1.9,0.1-3.8,0.1-5.6c0.6,0.1,1.1,0.1,1.7,0.3
				c0.9,0.2,1.8-0.3,2.1-1.2c0.2-0.8-0.3-1.9-1.2-2.1c-0.8-0.2-1.6-0.3-2.5-0.4c0-1.2,0.1-2.4,0.1-3.6
				C341.9,443.9,342.9,443.9,343.9,443.9z"/>
			<path class="st0" d="M356.7,448.1c2.2-0.7,4-2.4,3.9-5c-0.1-3.5-4.5-5.2-7.4-3.5c-1.7,1-1.4,3.1-1.5,4.8c-0.1,2.5-0.2,5-0.3,7.4
				c-0.2,5-0.4,9.9-0.6,14.9c-0.1,2.2,3.3,2.2,3.4,0c0.2-3.9,0.3-7.9,0.5-11.8c0.8,3.9,1.7,7.8,2.5,11.7c0.5,2.1,3.8,1.2,3.3-0.9
				C359.2,459.8,357.9,454,356.7,448.1z M355.1,442.6c0-0.1,0-0.1,0-0.1c0.3,0,0.7-0.1,1-0.1c0.9,0.2,1.2,1,0.7,1.8
				c-0.4,0.6-1.1,0.8-1.8,0.8c0,0,0,0,0-0.1C355.1,444.3,354.9,443.3,355.1,442.6z"/>
		</g>
		<g>
			<path class="st1" d="M252,432.3c-0.5-0.7-1.5-1.1-2.3-0.6c-2.5,1.5-3.8,4-5.2,6.4c-1.6,2.8-3.1,5.7-3.9,8.8
				c-1.3,5.1-0.5,11.1,3.8,14.6c0.1,0.1,0.2,0.2,0.4,0.2c0,1.3,0,2.7,0,4c0.1,2.2,3.5,2.2,3.4,0c0-1.7,0-3.3,0-5
				c3.7-3,6.2-7.2,6.9-11.9c0.4-2.9,0.1-5.8-0.5-8.7C254.2,437.4,253.6,434.6,252,432.3z M244,447.2c0.7-2.4,1.8-4.7,3.1-6.9
				c0.1-0.2,0.2-0.5,0.4-0.7c-1.3,5.7-2.2,11.5-2.5,17.4C243.2,454.2,243.1,450.5,244,447.2z M251.9,448c-0.4,2.9-1.6,5.6-3.4,7.8
				c0.4-5.6,1.2-11.1,2.6-16.5c0.1,0.3,0.1,0.6,0.2,0.8C251.8,442.7,252.2,445.3,251.9,448z"/>
			<path class="st1" d="M281.5,396.5c-2.6-1.4-5.3-2.7-8.1-3.8c-2.3-0.9-5.6-2.7-8.1-2.1c-2.6,0.6-3.9,3.4-5,5.5
				c-1.6,2.8-3.1,5.7-4.4,8.6c-0.1,0.2-0.1,0.4-0.2,0.6c-0.8,0-1.7-0.1-2.5-0.1c-6.1-0.2-12.2-0.4-18.2,0.2c-1.3,0-3-0.3-4.1,0.5
				c-1.1,0.9-1.4,2.6-1.6,3.9c-0.4,2.4-0.6,5.6,1.8,6.6c0.2,2.3-2,4.2-3.1,6.1c-1.2,2.1-1.5,4.5-1.8,6.9c-0.6,5.6-0.8,11.3-0.8,16.9
				c0,5.5,0.1,10.9,0.6,16.4c0.4,4.1,1.4,8.5,5.4,10.5c2,1,4.1,1.3,6.3,1.5c2.7,0.2,5.4,0.3,8.1,0.3c5.2,0,11-0.2,16-2
				c4.3-1.5,6.1-5.2,6.9-9.4c0.1-0.4,0.1-0.7,0.2-1.1c3.7-0.6,7-2.6,9.2-5.7c2.8-3.9,2.7-9,2.5-13.6c-0.2-4.7-0.3-9.8-2.5-14
				c-2-3.9-5.3-5.7-9.4-5.9c-0.2-0.7-0.5-1.4-0.8-2.1c-0.9-1.7-2.1-3.3-2.8-5.1c0,0,0,0,0,0c2.8-0.9,2.6-5.4,1.9-7.7
				c-0.4-1.2-1.1-1.8-2.1-2.2c1-1.6,2-3.1,3-4.7c0.1,0,0.3,0,0.4-0.1c1.4,0.2,2.9,0.9,4.1,1.3c1.8,0.6,3.6,1.2,5.4,1.8
				c0.6,0.2,1.6-0.1,1.9-0.8c0.7-1.6,1.5-3.2,2.3-4.8c0.1-0.3,0.2-0.5,0.2-0.8C282.5,397.7,282.3,396.9,281.5,396.5z M266.2,393.9
				c0.5-0.1,1,0.1,1.6,0.3c0,0,0,0,0,0.1c-0.5,1.2-0.9,2.5-1.4,3.8c-0.9-0.4-1.8-0.8-2.7-1.3c0.1-0.2,0.2-0.4,0.4-0.6
				C264.6,395.3,265.1,394,266.2,393.9z M232.9,408.7C233,408.6,233,408.6,232.9,408.7L232.9,408.7z M232.3,413.3
				c0.1,0.2,0.1-0.8,0.1-0.9c0-0.8,0.1-1.6,0.2-2.5c0.1-0.3,0.1-0.6,0.2-0.9c0-0.1,0-0.2,0.1-0.3c0.4,0,1,0,1.4,0c0.2,0,0.3,0,0.5,0
				c0.1,0,0.3,0,0.4,0c7.8-0.8,15.9-0.5,23.8,0.1c0.8,0.1,1.7,0.1,2.5,0.2c0.4,0,0.8,0.1,1.1,0.1c0.6,0.1,0.8,0.1,1.1,0.6
				c0.3,0.5,0.1,1.6,0.1,2.2c0,0.1,0.1,0.9,0,1c0,0-0.7,0-0.6,0c-1.3,0.3-2.9-0.1-4.3-0.2c-5.6-0.4-11.2-0.4-16.9-0.1
				c-1.7,0.1-3.3,0.2-5,0.4c-1.4,0.1-3,0.5-4.4,0.3c-0.1,0-0.2,0-0.3,0C232.1,413.3,232,413.3,232.3,413.3z M234.4,416.8
				c0.8-0.1,1.6-0.2,2.4-0.2c2-0.2,4-0.3,5.9-0.4c2.8-0.2,5.7-0.2,8.5-0.2c-0.9,1.9-1.7,3.9-2.2,6c-0.5,0-1,0-1.4,0
				c-2.9,0-5.7,0.1-8.6-0.1c-2-0.1-4-0.5-6-0.8C233.8,419.7,234.4,418.3,234.4,416.8z M254.8,416.4c0.1-0.1,0.1-0.3,0.2-0.4
				c1.1,0,2.2,0.1,3.3,0.2c-0.9,1.8-1.9,3.7-2.8,5.6c0,0,0,0,0,0c-1,0-1.9,0-2.9,0C253.1,420,253.9,418.2,254.8,416.4z M261.7,417
				c0.4,1.3,1.1,2.4,1.8,3.6c0.2,0.4,0.5,0.8,0.7,1.2c-1.6,0-3.2,0-4.8,0.1C260.1,420.2,260.8,418.6,261.7,417z M262.7,468.8
				c-1.6,1.3-4,1.6-6,1.9c-2.6,0.5-5.3,0.7-8,0.8c-2.4,0.1-4.8,0-7.2-0.1c-2.3-0.1-4.8-0.1-7.1-0.8c-4.6-1.3-4.9-6-5.2-10.1
				c-0.4-5-0.5-10-0.5-15c0-5.6,0.2-11.3,0.9-16.8c0.2-1.8,0.7-3.2,1.4-4.6c2.7,0.2,5.3,0.8,7.9,1c2.9,0.2,5.7,0.1,8.6,0.1
				c5.8-0.1,11.7-0.2,17.5-0.2c0.2,0,0.3,0,0.5-0.1c0.2,0.6,0.3,1.1,0.4,1.8c0.6,4.9,0.5,10,0.6,14.9c0.1,5.1,0,10.2-0.4,15.3
				C265.8,460.5,265.8,466.3,262.7,468.8z M269.8,434.7c1.8,1.9,1.6,6.4,1.7,8.6c0.1,1.8,0.2,3.7,0,5.6c-0.1,1.3-0.8,2-1.6,2.4
				c0-1.2,0.1-2.4,0.1-3.7C270,443.3,269.9,439,269.8,434.7z M272.5,427.8c1.4,1,2.4,2.5,3,4c1.4,3.6,1.5,7.7,1.6,11.5
				c0.2,3.6,0.4,7.6-1.4,10.8c-1.4,2.4-3.7,4.2-6.4,4.9c0.2-1.3,0.3-2.7,0.4-4.1c1.9-0.6,3.7-1.5,4.6-3.4c1.2-2.4,0.7-5.7,0.6-8.3
				c-0.2-4.2-0.2-11.3-5.3-12.6c0-0.6-0.1-1.2-0.1-1.8c0-0.7-0.1-1.4-0.2-2C270.5,426.9,271.5,427.2,272.5,427.8z M260.9,405.7
				c-0.6-0.1-1.2-0.1-1.8-0.1c0.9-2,1.9-3.9,3-5.9c0.8,0.4,1.5,0.8,2.3,1.1c-1,1.6-2.1,3.3-3.1,4.9
				C261.1,405.7,261,405.7,260.9,405.7z M269.8,398.5c0.4-1,0.7-2.1,1.1-3.1c0.7,0.3,1.4,0.5,2,0.8c1.8,0.8,3.6,1.6,5.4,2.5
				c-0.4,0.8-0.8,1.5-1.1,2.3c-1.5-0.5-3.1-1.1-4.6-1.6C271.7,399.1,270.8,398.7,269.8,398.5z"/>
		</g>
	</g>
	<g>
		<g>
			<g>
				<path class="st0" d="M327.1,310.1c1.1-1.5,1-3.3,0.9-5.1c0.4-0.3,0.7-0.7,0.7-1.3c0-0.9-0.8-1.8-1.7-1.7c-1,0.1-2,0.2-3,0.3
					c-0.9,0.1-1.7,0.7-1.7,1.7c0,0.9,0.8,1.8,1.7,1.7c0.2,0,0.4,0,0.6-0.1c0.1,1.4,0,3.3-1.6,3c-1.7-0.3-1.7-3-1.7-4.3
					c-0.1-1.7-0.2-3.5,0.1-5.2c0.1-0.8,0.4-1.8,1.2-2c1-0.3,1.3,0.6,1.2,1.4c-0.3,2.2,3.1,2.1,3.4,0c0.5-3.5-3.3-5.9-6.4-4.3
					c-3.6,1.8-3.2,6.9-3,10.2c0.2,3.2,1,7.3,5,7.6C324.4,312.1,326.1,311.4,327.1,310.1z"/>
				<path class="st0" d="M334.6,310.1c1.8,1.1,4.2,0.9,5.6-0.8c1.5-1.8,1.9-4.7,2.2-6.9c0.2-1.8,0.3-3.7,0.1-5.5
					c-0.4-3.5-2.8-5.3-6.3-4.6c-0.1,0-0.3,0.1-0.4,0.1c-2.2,0.7-3.3,2.7-3.7,4.9c-0.4,2.5-1,5.3-0.6,7.8
					C331.9,307.1,332.9,309.1,334.6,310.1z M335.3,299.6c0.2-1.4,0.2-3.6,1.9-4c1.6-0.3,1.9,0.4,2,1.8c0.2,2.4,0,4.9-0.7,7.2
					c-0.3,1.1-0.6,3.3-2.2,2.5c-1.2-0.6-1.4-2.2-1.5-3.3C334.8,302.5,335.1,301,335.3,299.6z"/>
			</g>
			<g>
				<path class="st0" d="M310,317.9c-0.2,2-0.5,3.9-0.8,5.9c0-0.1,0-0.2-0.1-0.3c-0.6-1.8-1.2-3.7-2-5.4c-0.8-2-4.1-1.1-3.3,0.9
					c0.9,2.2,3.5,9.4,4.6,11.8c0.5,1.2,2.5,1,2.9-0.8c0.8-4.1,1.7-8.1,2.1-12.2C313.7,315.7,310.3,315.8,310,317.9z"/>
				<path class="st0" d="M321,327.1c-0.6,0-1.3,0-1.9,0c0-1.1,0-2.3,0-3.4c0.1,0,1.2,0,1.2,0c0.9,0.2,1.9-0.3,2.1-1.2
					c0.2-0.9-0.3-1.9-1.2-2.1c-0.8-0.2-1.3-0.2-2.3-0.1c0-0.5,0-1,0-1.4c0.6,0,1.4-0.1,1.7-0.1c2.6-0.1,2.1-3.1-0.1-3.2
					c-1.2,0-2.9-0.3-4,0.4c-1.1,0.7-0.9,2-0.9,3.2c0,3.2,0,6.5,0,9.7c0,0.9,0.8,1.7,1.7,1.7c1.2,0,2.4,0,3.6,0
					C323.2,330.5,323.2,327.1,321,327.1z"/>
				<path class="st0" d="M333.9,321.5c-0.9,0-1.7,0.1-2.6,0.1c-0.9,0-1.7,0.8-1.7,1.7c0,0.9,0.8,1.8,1.7,1.7c0.1,0,0.1,0,0.2,0
					c0.1,0.8,0,1.6-0.5,2.1c-0.9,0.9-1.4-0.7-1.5-1.5c-0.3-1.2-0.4-2.5-0.4-3.7c0-0.7,0-1.3,0.1-2c0-0.2,0.1-0.5,0.1-0.7
					c0.1-1.4,1.4-1.8,1.8-0.6c0.5,1.5,2.9,1.2,2.8-0.4c-0.3-3.5-3.7-4.6-6.2-2.7c-2.7,2.1-2.2,6.8-1.7,9.7c0.4,2.6,1.9,6.1,5.2,5.5
					c3-0.6,3.8-3.5,3.6-6.2c0.5-0.3,0.9-0.8,0.9-1.4C335.6,322.4,334.9,321.5,333.9,321.5z"/>
				<path class="st0" d="M342.4,315.4c-0.5-1.5-2.8-1.7-3.3,0c-1.1,4.4-2,8.8-2.6,13.4c-0.3,2.2,3.1,2.1,3.4,0
					c0.1-0.4,0.1-0.8,0.2-1.2c0.6,0,1.2,0.1,1.7,0.1c0.1,0.5,0.2,1.1,0.3,1.6c0.4,2.2,3.7,1.2,3.3-0.9
					C344.7,323.9,343.9,319.6,342.4,315.4z M340.5,324.8c0.1-0.4,0.4-1.6,0.5-2c0.1,0.5,0.4,1.5,0.5,2
					C341.2,324.8,340.6,324.8,340.5,324.8z"/>
				<path class="st0" d="M355.3,317.3c-0.2,1.5-0.4,3.1-0.7,4.6c-0.9-2.1-2-4.2-3.1-6.2c-0.7-1.3-2.9-0.8-3.1,0.6
					c-0.7,4.2-0.8,7.6-1,11.8c-0.1,2.2,3.3,1.9,3.4-0.2c0.1-2.2,0.2-5.6,0.2-5.6c0.9,1.9,1.7,3.9,2.5,5.9c0.5,1.3,2,1.4,2.9,0.6
					c1.2-1.1,1.1-3.2,1.3-4.6c0.3-2.1,0.6-4.2,0.9-6.2C358.9,315.8,355.6,315.1,355.3,317.3z"/>
			</g>
		</g>
		<path class="st1" d="M366.4,301c-6.5-12.6-21.5-19.1-35.1-19c-14.9,0.2-31.4,6.2-37,21.2c-2.2,5.7-2.5,12.3-0.9,18.3
			c2,7.8,7.4,14.2,14.4,18.1c1.8,1,3.7,1.8,5.6,2.6c0.2,4.5,1.2,8.5,3.6,12.5c0.6,1.1,2.3,1.1,2.9,0c1.9-3.6,4.7-7.3,7.8-10.1
			c8.9-0.4,18.2-1.5,26.4-5.4c3.7-1.8,6.9-4.3,9.7-7.3C371.3,324,371.1,310.1,366.4,301z M362.5,328.1c-1.7,2.4-4.5,4.9-7.1,6.5
			c-6,3.7-13.2,5.2-20.1,6c-2.8,0.3-5.6,0.5-8.3,0.6c-0.3,0-0.6,0.1-0.9,0.3c-0.1,0.1-0.2,0.1-0.3,0.2c-1.8,1.5-3.3,3.4-4.7,5.2
			c-0.9,1.1-1.7,2.2-2.5,3.4c-1.3-2.9-1.8-5.9-1.8-9.3c0-0.7-0.4-1.2-0.8-1.4c-0.1-0.1-0.3-0.2-0.4-0.2c-7.5-2.7-14.3-7.5-17.6-14.9
			c-2.3-5.4-2.7-11.6-1.3-17.2c3.5-14.1,17.8-20.6,31.2-21.6c5-0.4,9.8-0.2,14.5,1.3c7.3,2.3,14.5,6.2,19,12.5
			C367.2,307.4,368.3,319.6,362.5,328.1z"/>
	</g>
	<g>
		<g>
			<path class="st1" d="M240.1,75.1c3.2,1.3,5.9-1.6,6.8-4.3c0.6-1.8,0.8-3.9,0.7-5.8c0.5-0.2,0.9-0.6,1-1.1
				c0.2-0.8-0.3-1.9-1.2-2.1c-1.2-0.2-2.3-0.3-3.5-0.3c-0.9,0.1-1.7,0.7-1.7,1.7c0,0.9,0.8,1.8,1.7,1.7c0.1,0,0.2,0,0.3,0
				c0,1.1,0,2.3-0.2,3.4c-0.2,1-1.7,5.5-3.1,3c-0.9-1.7-1.1-4-1.2-5.9c-0.2-2.5-0.1-5.1,0.1-7.6c0.1-1.7-0.2-6,1.7-6.8
				c2.6-1.1,2.6,3.9,2.6,5.1c-0.1,2.2,3.4,2.2,3.4,0c0.1-2.4-0.1-5.1-1.8-7c-1.5-1.6-3.9-2.2-5.9-1.1c-2.2,1.3-2.8,3.7-3.1,6
				c-0.3,2.8-0.5,5.7-0.5,8.5c0,2.7,0.2,5.5,0.9,8.1C237.5,72.3,238.3,74.3,240.1,75.1z"/>
			<path class="st1" d="M253.5,73.8c0-3.9,0.1-7.8,0.1-11.7c1.2,4,2.4,8,3.6,12.1c0.6,2.1,3.9,1.2,3.3-0.9
				c-1.7-5.7-3.4-11.4-5.1-17.1c2.3-0.9,4.2-2.8,3.1-5.6c-1.1-2.9-4.5-4.4-7.3-3c-0.5,0.3-0.8,0.9-0.8,1.5
				c-0.1,8.3-0.2,16.6-0.2,24.8C250.1,75.9,253.5,75.9,253.5,73.8z M255.3,51.8c0.1,0.8-0.8,1.2-1.6,1.4c0-1,0-1.9,0-2.9
				C254.5,50.5,255.3,51.2,255.3,51.8z"/>
			<path class="st1" d="M265.1,74.7c1.5-0.1,3.1-0.2,4.6-0.3c2.2-0.1,2.2-3.5,0-3.4c-1,0.1-2,0.1-3,0.2c-0.1-4.2-0.3-8.4-0.3-12.7
				c0.7,0,1.5,0,2.2,0c2.2,0,2.2-3.4,0-3.4c-0.8,0-1.5,0-2.3,0c0-1.8-0.1-3.6-0.1-5.4c0.8,0,1.5,0,2.3,0c2.2,0.1,2.2-3.3,0-3.4
				c-1.4,0-2.7,0-4.1,0.1c-0.9,0.1-1.7,0.7-1.7,1.7c0,8.3,0.2,16.6,0.5,24.9C263.4,73.9,264.2,74.7,265.1,74.7z"/>
			<path class="st1" d="M277.2,74.2c1.8,0.4,3.5,0.4,5.2-0.1c2.1-0.5,1.2-3.8-0.9-3.3c-0.7,0.2-1.4,0.2-2.2,0.2
				c-0.1-4.3-0.2-13-0.2-13s1.3,0,1.9,0c0.9,0.1,1.7-0.8,1.7-1.7c0-1-0.7-1.6-1.7-1.7c-0.7,0-1.9,0-1.9,0s-0.1-3.8-0.1-5.6
				c0.7,0,1.5,0,2.2,0c2.2,0,2.2-3.4,0-3.4c-1.3,0-2.6,0-3.9-0.1c-0.9,0-1.7,0.8-1.7,1.7c0.1,8.4,0.2,16.9,0.4,25.3
				C276,73.3,276.5,74.1,277.2,74.2z"/>
			<path class="st1" d="M294.1,46.5c0,5.5-0.1,11-0.3,16.6c-1.6-5.5-2.9-11-4.2-16.5c-0.4-1.9-3.4-1.5-3.3,0.5
				c0.1,8.6,0.1,17.1,0.2,25.7c0,2.2,3.4,2.2,3.4,0c0-3.8,0-7.5-0.1-11.3c1.1,3.9,2.2,7.8,3.6,11.6c0.7,1.8,3.2,1.5,3.3-0.5
				c0.5-8.6,0.8-17.3,0.8-26C297.5,44.3,294.1,44.3,294.1,46.5z"/>
		</g>
		<g>
			<path class="st0" d="M281.2,89c-1.2,0.1-2.4,0-3.6-0.2c0-0.7,0.1-1.5,0.1-2.2c0-0.1,0-0.2,0-0.2c0.4-1.7,0.3-4.5,2.3-4.9
				c0.1,0,0.4,0,0.6,0c0.1,0.1,0.3,0.1,0.4,0.2c0.6,0.6,0.8,1.4,0.8,2.3c0.1,2.2,3.5,2.2,3.4,0c-0.1-3.4-2.2-6.3-5.8-5.7
				c-4.6,0.8-4.7,6.4-5.5,10.1c-1.5-0.2-3.1-0.3-4.7-0.4c-2.2-0.1-2.2,3.4,0,3.4c1.3,0,2.5,0.1,3.8,0.2c-1.1,3.9-2.8,7.7-5.8,10.6
				c-1.8,1.7-4,2.1-5.4-0.2c-1.5-2.3-1.3-5.7-1.4-8.3c-0.1-2-2.7-2.2-3.3-0.5c-0.9,2.2-1.8,4.3-2.9,6.4c-0.8,1.5-1.8,4.5-3.5,5.1
				c-2.5,1-3.1-5.1-3.3-8.8c1.9-1.7,3.4-3.8,4.3-6.3c0.7-2,1.2-4.8-0.1-6.6c-1.2-1.8-3.7-1.9-5.3-0.5c-1.8,1.5-1.9,4.2-2.1,6.4
				c-0.2,1.9-0.3,3.7-0.3,5.6c-1.4,1.1-2.9,2-4.4,2.8c-1.9,1.1-0.2,4,1.7,2.9c1-0.5,2-1.1,2.9-1.7c0.4,3.8,1.4,10.7,6.7,9.8
				c2.8-0.5,4.2-3,5.4-5.2c0.5-0.9,0.9-1.8,1.4-2.7c0.6,2.6,1.7,4.9,4.2,6.1c4.5,2.2,8.3-2,10.6-5.4c0.7-1,1.3-2,1.8-3.1
				c0.1,3.1,0.3,6.3,0.3,9.4c0.1,2.2,3.5,2.2,3.4,0c-0.1-5-0.5-10.1-0.4-15.1c1.2,0.2,2.4,0.4,3.7,0.2
				C283.3,92.2,283.3,88.8,281.2,89z M248.8,85.3c0.3,0.9-0.1,2.4-0.4,3.2c-0.3,0.8-0.6,1.6-1.1,2.3c0.1-1.5,0.2-3,0.5-4.4
				C248,85.9,248.5,84.4,248.8,85.3z"/>
			<path class="st0" d="M292.3,102.2c-0.3,1.1-1.1,2-2.4,1.7c-1-0.2-1.5-1.2-1.8-2.1c-0.1-0.2-0.1-0.4-0.2-0.6
				c3-1.2,5.8-3.3,6.1-6.4c0.3-2.1-1-4.1-3.1-4.4c-2.1-0.3-3.9,1.1-5,2.7c-1.1,1.6-1.7,3.7-1.7,5.7c-0.6,0.1-1.1,0.2-1.7,0.3
				c-2.2,0.4-1.2,3.6,0.9,3.3c0.4-0.1,0.8-0.1,1.1-0.2c0.3,1.1,0.8,2.1,1.4,2.9c2.8,3.6,8.5,2.4,9.5-2.1
				C296.1,101,292.9,100.1,292.3,102.2z M288.5,95.8c0.2-0.5,1.3-2.3,2.1-2c1.1,0.4-1,2.6-1.4,2.9c-0.4,0.3-0.8,0.6-1.2,0.8
				C288,96.9,288.2,96.3,288.5,95.8z"/>
			<path class="st0" d="M257.7,86c-0.1,0.6-0.1,1.1-0.2,1.7c-0.1,0.9,0.8,1.7,1.7,1.7c1,0,1.6-0.8,1.7-1.7c0.1-0.6,0.1-1.1,0.2-1.7
				c0.1-0.9-0.8-1.7-1.7-1.7C258.4,84.3,257.8,85,257.7,86z"/>
		</g>
	</g>
	<path class="st1" d="M176.3,426.3c-2.9-3-5.7-6.1-8.5-9.2c1.7-7.8,1.6-16.6-4.2-22.7c-2.3-2.4-6.3-4.9-9.2-2.1
		c-2.2,2.1-3.1,5.1-3.2,8.1c-3.2-0.4-6.6,0.5-8.9,2.9c-2.7,3-1.8,6.5,0.6,9.4c5.4,6.4,14.3,7.2,22.1,6.3c2.9,3.2,5.8,6.4,8.8,9.6
		C175.4,430.3,177.8,427.9,176.3,426.3z M162.9,411.6c0.8-1.6,1.3-3.4,1.8-4.9c0.2-0.5,0.3-0.9,0.4-1.4c0.4,2.8,0.3,5.8-0.2,8.7
		C164.3,413.1,163.6,412.4,162.9,411.6z M163.1,399.4c0,0.1,0.1,0.1,0.1,0.2c-0.7,3.1-1.6,6.2-2.8,9.1c-0.7-0.8-1.5-1.7-2.2-2.6
		c0.9-3.5,1.4-7.1,1.5-10.7c0.4,0.3,0.7,0.6,1,0.8C161.6,397.2,162.4,398.2,163.1,399.4z M155.1,397.7c0.2-0.7,0.6-1.7,1.2-2.4
		c0,2.6-0.3,5.1-0.8,7.7c-0.3-0.3-0.5-0.6-0.8-0.9C154.5,400.5,154.6,399,155.1,397.7z M151.9,404c0,0,0.1,0.1,0.1,0.1
		c0.3,0.4,0.7,0.8,1,1.2c-2.8,0.5-5.6,0.7-8.4,0.6C146.2,403.8,149.5,403.4,151.9,404z M144.6,409.4c3.7,0,7.4-0.3,11-1.1
		c0.9,1,1.8,2.1,2.7,3.1c-0.9,0.4-1.9,0.7-2.7,0.9c-1.9,0.6-3.8,1.1-5.8,1.4c-0.6-0.3-1.1-0.6-1.7-1
		C147,412.1,145.4,410.8,144.6,409.4z M156.1,415.7c0.4-0.1,0.8-0.3,1.2-0.4c1-0.3,2.2-0.7,3.3-1.2c0.5,0.6,1.1,1.2,1.6,1.8
		C160.2,416,158.1,416,156.1,415.7z"/>
	<g>
		<g>
			<path class="st0" d="M398.7,173c-0.6,0.2-1.1,0.5-1.4,0.9c-0.6,0.2-1.2,0.7-1.4,1.3c-0.3,0.8-0.1,2,0.3,2.8
				c0.6,1,1.8,1.5,2.9,1.1c0.9-0.3,1.6-1.1,2-1.9c0.4-0.8,0.7-1.8,0.4-2.7C401,173.3,399.9,172.7,398.7,173z"/>
			<path class="st0" d="M409.3,165.9c-0.5,0.6-0.7,1.4-0.5,2.2c0,0,0,0,0,0c0.2,1,1.2,1.7,2.2,1.7c1,0,1.8-0.5,2.4-1.3
				c0.6-0.9,0.9-2.1,0.2-3C412.5,164.1,410.3,164.6,409.3,165.9z"/>
			<path class="st0" d="M444.3,154.9c-0.5-0.3-1.1-0.3-1.6-0.2c-0.5,0-1.1,0.3-1.4,0.8c-0.7,1.1-0.5,2.5,0.3,3.4
				c0.3,0.4,0.9,0.7,1.4,0.8c1.1,0.2,2-0.4,2.4-1.4C445.9,157.2,445.5,155.5,444.3,154.9z"/>
			<path class="st0" d="M462.1,163.5C462,163.4,462,163.4,462.1,163.5c-0.1-0.1-0.2-0.2-0.2-0.2c-0.3-0.2-0.6-0.4-1-0.4
				c-1.3,0-2.3,1.1-2.3,2.3c0,0.9,0.4,2.1,1.2,2.6c1.2,0.7,2.8,0,3-1.4c0.2-0.9,0-1.9-0.5-2.7C462.2,163.6,462.1,163.5,462.1,163.5z
				"/>
			<path class="st0" d="M472.2,187.3c-1-0.7-2.1,0.1-2.5,1c-0.4,1-0.5,2-0.6,3c0,0.7,0.5,1.3,1,1.6c0.6,0.3,1.3,0.1,1.9-0.4
				c0.7-0.6,1.1-1.6,1.2-2.5c0,0,0-0.1,0-0.1C473.6,188.8,473.1,187.9,472.2,187.3z"/>
		</g>
		<path class="st1" d="M413.7,135.4c-4.2-3.9-8,3.8-9.4,6.7c-1.1,2.2-2.1,4.5-2.7,6.9c-1.3-2.2-2.7-4.4-4.3-6.5
			c-1.3-1.8-2.6-4.1-4.5-5.2c-1.8-1-3.8-0.5-4.6,1.4c-0.8,2-0.4,4.6,0,6.6c0.5,2.3,1.5,4.6,2.9,6.5c2.3,3.2,5.6,5.5,9.3,6.5
			c0,3.9,1,7.6,2.8,11.1c2,4.1,5.1,8.4,3.7,13.1c-0.6,2.1,2.7,3,3.3,0.9c1.3-4.6-0.5-9-2.6-13.1c-2.1-3.9-3.6-7.7-3.7-12
			c0.1-0.1,0.2-0.2,0.3-0.3c3.7-2.4,7-5.4,9.1-9.4c1.1-2.2,1.8-4.5,2-7C415.3,139.9,415.3,136.9,413.7,135.4z M391.1,141.3
			c0-0.2,0-0.5,0-0.8c0.1,0,0.2,0.1,0.3,0.1c0.6,0.6,1.1,1.3,1.6,1.9c1.1,1.4,2.1,2.9,3.1,4.3c1.7,2.5,3.2,5.1,4.4,7.8
			c0,0.1,0,0.1,0,0.2C395,152.8,391,147.6,391.1,141.3z M404.1,154c0.2-2.7,0.9-5.3,2-7.8c0.7-1.6,1.5-3.2,2.4-4.8
			c0.4-0.7,2.6-4.8,3.1-2.8C413,144.9,408.8,150.4,404.1,154z"/>
		<path class="st0" d="M474,185.4c-1.6-2.3-4.5-2.1-6.3-0.1c-1.3,1.5-1.8,3.6-2.7,5.4c-0.9,1.8-1.9,3.5-3.1,5.1c0,0-0.1,0.1-0.1,0.1
			c3.1-6.8,4.4-14.4,3.9-21.8c-0.2-3-0.7-6-1.4-8.9c-0.6-2.2-1.1-4.6-3.3-5.6c-1.7-0.8-3.8-0.4-5,1c-1.9,2.1-1,5.4-0.9,7.9
			c0.2,4.1,0,8.8-1.3,13c0.3-2.3,0.3-4.6,0.1-6.8c-0.4-4.8-1.3-9.6-3.9-13.7c-1.9-3-4.8-8.1-8.7-8.7c-2.5-0.4-4.4,1.6-4.7,3.9
			c-0.4,2.7,1.4,5.2,2.3,7.7c1.1,3.2,1.7,6.6,1.8,9.9c-1.5-3.7-3.9-6.9-7.1-9.3c-6.1-4.6-14.8-5.3-21.6-1.7c-2.9,1.6-6,4.1-6.2,7.6
			c-0.1,1.5,0.4,2.9,1.6,3.8c2,1.4,4.3,0.6,6.2-0.5c3.7-2,8.6-3.4,12,0c2.7,2.6,3,6.9,2,10.3c-2.3,8.1-12.3,11.8-19.8,8.3
			c-1.9-0.9-3.6-2.1-4.2-4.2c-0.7-2.1-0.2-4.4,0.5-6.5c0.9-3,4.4-8.6-0.4-10.1c-3.2-1-6.4,1.1-8.7,3.1c-2.7,2.4-4.7,5.6-6,8.9
			c-1.2,3.3-1.7,7-1.4,10.5c0.2,1.7,0.5,3.4,1.1,5.1c0.6,1.7,1.7,3.2,2.3,4.9c0,0.1,0,0.2-0.1,0.3c-0.1,0.3-0.2,0.6-0.3,0.9
			c-0.3,1-0.7,2-1.1,3.1c-1.2,3.3-2.4,6.6-3.5,9.9c-2.7,7.8-5.1,15.9-6.2,24.1c-0.1,1,0.5,1.5,1.3,1.6c0.1,0.1,0.2,0.1,0.4,0.1
			c5.9,1.3,11.6,3.1,17.4,4.6c3.4,0.9,6.8,1.8,10.2,2.6c2.1,0.5,4.4,1.1,6.6,1.2c0.9,0,1.4-0.5,1.6-1.2c0.1-0.1,0.1-0.3,0.1-0.5
			c0.6-6.5,1.5-12.9,2.2-19.4c3.9,0.5,7.8-0.2,11.6-1.3c4-1.1,7.9-2.5,11.8-4.1c7.4-3.2,13.8-7.8,19.4-13.6c5-5.1,9-10.9,11.1-17.8
			C474.7,191.9,475.9,188.2,474,185.4z M391.3,204.1C391.2,203.9,391.3,203.9,391.3,204.1L391.3,204.1z M470.3,194.4
			c-1.9,5.9-5.5,11-9.8,15.4c-4.8,5-10.2,9.1-16.5,12.2c-3.6,1.8-7.4,3.1-11.3,4.3c-4.5,1.4-9.3,2.7-14,1.6
			c-0.8-0.2-1.4,0.1-1.7,0.6c0,0,0,0,0,0c0,0,0,0,0,0.1c-0.2,0.2-0.3,0.5-0.4,0.9c-0.6,6.5-1.5,13-2.2,19.5c-1.4-0.2-3.1-0.7-4.4-1
			c-3.4-0.8-6.9-1.7-10.3-2.6c-5.3-1.4-10.6-3-16-4.3c1.8-11.9,6.6-23.3,10.4-34.6c0.6-1.7,0.7-2.9-0.1-4.7c-0.8-1.6-1.6-3-2.1-4.8
			c-0.5-1.7-0.7-3.5-0.7-5.4c0-3.3,0.9-6.7,2.5-9.6c1.5-2.7,3.9-5.7,6.8-6.9c0.5-0.2,1.6-0.6,2.2-0.3c0.8,0.4,0.2,1.2-0.1,1.9
			c-0.9,2-1.7,4.1-2.1,6.3c-0.8,3.8-0.2,7.7,2.8,10.4c6.1,5.3,15.8,4.6,22,0c5.5-4.2,8-11.8,5.3-18.3c-1.4-3.2-4-5.5-7.4-6.4
			c-4.4-1.1-7.8,0.5-11.7,2.4c-1,0.5-2.3,0.9-2.2-0.6c0.1-0.8,0.6-1.6,1.1-2.2c1.2-1.4,3-2.5,4.7-3.2c3.8-1.5,8-1.6,11.9-0.3
			c8.5,2.8,12.9,12.1,12.1,20.6c-0.2,1.7,1.9,2.1,2.9,1.1c0.3-0.2,0.5-0.5,0.6-0.9c1.4-4.8,1.9-9.9,1.3-14.9c-0.3-2.5-0.8-5-1.6-7.4
			c-0.4-1.1-0.8-2.1-1.2-3.2c-0.4-1-1.3-2.5-1-3.7c0.6-2,3,0.7,3.7,1.6c1.1,1.3,2.1,2.7,3,4.2c2.2,3.3,3.1,7,3.6,11
			c0.7,5.8,0,11.8-2.6,17.1c-0.3,0.7-0.2,1.3,0.1,1.8c0.3,0.7,1,1.1,1.8,0.8c0.3-0.1,0.7-0.3,0.9-0.7c3.9-3.2,6.3-7.8,7.2-12.8
			c0.6-3.1,0.8-6.4,0.7-9.6c0-1.5-0.1-3-0.2-4.6c-0.1-0.7-0.3-2.1,0.4-2.5c2.2-1.5,3.5,9.6,3.6,10.9c0.4,5.2-0.1,10.5-1.6,15.6
			c-1.6,5.5-4.4,10.6-8.3,14.7c-0.3,0.3-0.5,0.6-0.5,1c0,0,0,0.1,0,0.1c0,0.1,0,0.1,0,0.2c0,0.1,0,0.1,0,0.2c0,0,0,0,0,0.1
			c0,0.1,0,0.2,0.1,0.2c0,0,0,0,0,0.1c0,0.1,0.1,0.1,0.1,0.2c0,0.1,0.1,0.1,0.1,0.2c0,0,0,0,0,0.1c0.2,0.3,0.6,0.6,1,0.7
			c0,0,0.1,0,0.1,0c0,0,0.1,0,0.1,0c0.4,0.1,0.8,0,1.1-0.3c5.3-3.1,9.8-7.4,12.7-12.8c0.5-0.9,2.7-7.1,3.8-6.7
			C472.8,187.8,470.7,193.4,470.3,194.4z"/>
	</g>
	<g>
		<g>
			<path class="st0" d="M343.9,28.1c-0.7,0.2-1.3,0.9-1.3,1.6c0.2,11.7,0.6,23.4,1.2,35.1c0.1,2.2,3.5,2.2,3.4,0
				c-0.4-8.3-0.8-16.5-1-24.8c3.4-0.6,6.1-3.7,5.4-7.2C350.9,29.3,347.2,27.3,343.9,28.1z M346.2,36.6c0-1.7-0.1-3.5-0.1-5.2
				c1,0.2,1.9,0.9,2.2,1.9C348.6,34.7,347.5,36.2,346.2,36.6z"/>
			<path class="st0" d="M367.9,59.4c-1.3-0.1-2.6-0.2-3.8-0.4c-0.8-10.1-1.1-20.3-1-30.4c0-2.2-3.4-2.2-3.4,0
				c-0.1,10.6,0.2,21.3,1.1,31.9c0.1,0.7,0.5,1.5,1.3,1.6c1.9,0.4,3.9,0.5,5.9,0.7C370.1,63,370.1,59.6,367.9,59.4z"/>
			<path class="st0" d="M384,26.2c-2.7,11.4-4.8,22.9-6.2,34.5c-0.3,2.2,3.1,2.2,3.4,0c0.4-2.9,0.8-5.8,1.2-8.7c1.3,0,2.7,0,4-0.1
				c0.3,2.6,0.5,5.3,0.8,7.9c0.2,2.2,3.6,2.2,3.4,0c-1.1-11.1-2.1-22.2-3.2-33.2C387.2,24.9,384.5,24.2,384,26.2z M382.9,48.6
				c0.6-3.7,1.3-7.4,2-11.1c0.4,3.7,0.7,7.3,1.1,11C385,48.6,384,48.7,382.9,48.6z"/>
			<path class="st0" d="M409.7,29.2c-0.6,6.2-1,12.3-1.2,18.5c-1.5-6.1-2.8-12.3-3.9-18.6c-0.3-1.9-3.3-1.4-3.4,0.5
				c-0.2,10.1-0.4,20.1-0.3,30.2c0,2.2,3.4,2.2,3.4,0c0-4.8,0-9.6,0.1-14.5c1.1,4.9,2.4,9.7,3.8,14.5c0.5,1.8,3.3,1.5,3.3-0.5
				c0.2-10,0.7-20.1,1.6-30.1C413.3,27,409.9,27,409.7,29.2z"/>
			<path class="st0" d="M431.5,29.3c-2.7-0.3-5.3-0.5-8-0.8c-2.2-0.2-2.2,3.2,0,3.4c0.7,0.1,1.5,0.1,2.2,0.2
				c-0.2,9.4-0.5,18.7-1,28.1c-0.1,2.2,3.3,2.2,3.4,0c0.4-9.2,0.8-18.5,1-27.7c0.8,0.1,1.6,0.2,2.4,0.2
				C433.7,33,433.7,29.5,431.5,29.3z"/>
		</g>
		<g>
			<path class="st0" d="M341.7,78.4c-0.7,0.2-1.3,0.9-1.3,1.6c0.1,5.5,0.3,10.9,0.7,16.4c0.2,2.2,3.6,2.2,3.4,0
				c-0.2-2.2-0.3-4.5-0.4-6.7c2.9-1.2,5.8-3.2,5.1-6.9C348.5,79.3,345,77.5,341.7,78.4z M344,86c-0.1-1.5-0.1-3-0.1-4.4
				c1.1,0.2,2,0.9,2,2.1C345.9,84.9,345,85.6,344,86z"/>
			<path class="st0" d="M362.3,77.7c-0.1,0-0.3,0-0.4,0c-0.1,0-0.3,0-0.4,0.1c-5.6,0.9-5.6,7.4-5,11.9c0.3,2.3,0.8,4.8,2.7,6.4
				c1.8,1.5,4.4,1.3,6.1-0.2c2.9-2.7,2.6-7.6,2.1-11.2C367,81.7,365.8,77.7,362.3,77.7z M364.2,90.2c-0.1,1.2-0.7,4-2.4,3.5
				c-1.4-0.4-1.6-2.7-1.8-3.9c-0.3-2.1-1.3-8.3,2-8.7C364.7,80.9,364.3,88.4,364.2,90.2z"/>
			<path class="st0" d="M391.7,78.1c-0.7,3.4-1.5,6.7-2.4,10.1c-0.7-1.3-1.4-2.7-2.2-4c-0.6-1-2.3-1.2-2.9,0
				c-0.6,1.3-1.2,2.6-1.8,3.9c-1-3.4-2-6.7-2.9-10.1c-0.6-2.1-3.9-1.2-3.3,0.9c1.5,5.1,3,10.2,4.4,15.3c0.5,1.6,2.8,1.6,3.3,0
				c0.5-1.9,1.2-3.7,1.9-5.5c0.9,1.6,1.7,3.2,2.4,4.9c0.6,1.4,2.8,1.8,3.3,0c1.3-4.9,2.5-9.7,3.6-14.7
				C395.4,76.9,392.2,76,391.7,78.1z"/>
			<path class="st0" d="M411.8,90.1c-0.1,1-1.3,1.4-2,0.8c-0.6-0.5-0.8-1.4-1-2.1c-0.2-0.7-0.3-1.4-0.4-2.1c1.5-0.1,3.1-0.1,4.6-0.2
				c0.8,0,1.4-0.5,1.6-1.3c0.9-2.9,0.3-8.5-3.6-8.9c-3.8-0.4-5.9,4-6.2,7.2c-0.3,3.1,0.2,7.8,2.7,10c3.1,2.8,7.3,0.3,7.7-3.4
				C415.5,88,412.1,88,411.8,90.1z M410.1,80c1.2-0.6,1.4,1.7,1.4,3.2c-1.1,0-2.1,0.1-3.2,0.1C408.4,82.1,408.9,80.5,410.1,80z"/>
			<path class="st0" d="M435.4,92.9c-0.8-2.8-1.8-5.6-2.9-8.3c1.4-0.6,2.4-1.6,2.7-3.3c0.5-2.8-1.9-5.1-4.6-5.2
				c-1.1,0-2.8,0.3-3.6,1.2c-0.9,1.1-0.6,2.8-0.6,4.1c0,3.8-0.1,7.6-0.3,11.4c-0.1,2.2,3.3,2.2,3.4,0c0.1-2,0.2-3.9,0.2-5.9
				c0.9,2.2,1.7,4.5,2.3,6.9C432.7,95.9,436,95,435.4,92.9z M431.8,80.6c0,0.9-1.1,1.1-2,1.2c0-0.7-0.1-1.5-0.1-2.2
				C430.6,79.4,431.8,79.5,431.8,80.6z"/>
		</g>
		<path class="st1" d="M473.5,35.2c-0.3-1.2-2-1.7-2.9-0.8c-4.4,4.7-7.8,10.1-10.2,16c-1.1,2.7-2,5.7-2.7,8.7
			c-1.2-4-2.3-7.9-3.5-11.9c-1-3.4-2-7-3.5-10.3c-0.9-2-2.1-4.2-4.3-5c-0.6-0.2-1.2,0-1.7,0.4c-2.6,2.6-3.2,6.5-3.7,10
			c-0.6,3.9-0.4,7.9,1,11.6c2.9,7.3,9.1,12.1,15.1,16.7c0.3,8.4,0.4,16.8,0.3,25.2c0,2.2,3.4,2.2,3.4,0c0.2-7.9,0.1-15.8-0.2-23.7
			c0.1-0.1,8.9-11.1,11.8-17.2c1.3-2.8,2.2-5.8,2.4-8.9C475.2,42.5,474.3,38.8,473.5,35.2z M445.7,53.8c-1.4-3-1.7-6.3-1.4-9.6
			c0.3-2.6,0.6-6,2.1-8.3c1.2,1.2,1.8,3.9,2.3,5.1c1.1,3.1,2,6.3,3,9.4c1.5,5.1,2.9,10.1,4.5,15.2C451.9,62.3,447.9,58.7,445.7,53.8
			z M471.6,46.5c-0.2,3-1.3,5.8-2.7,8.4c-2.4,4.4-5.5,8.4-8.5,12.3c-0.2-9.9,4.3-20.2,10.5-27.8C471.4,41.7,471.7,44.1,471.6,46.5z"
			/>
	</g>
	<g>
		<path class="st1" d="M455.1,384.9c-1.6-3.2-5.7-3.4-8.4-1.5c-2,1.4-3.6,3.7-4.8,6c-1.1-3-2.3-5.9-3.7-8.8
			c-0.7-1.5-1.7-3.2-3.4-3.8c-1.6-0.6-3.3,0-4.3,1.3c-2.3,3.1-1.2,7.8,0.7,10.8c2,3.1,5.1,5.2,8.2,7c-0.6,5.7,0.1,11.4,2,16.8
			c0.7,2.1,4,1.2,3.3-0.9c-1.8-4.9-2.4-10-2-15.2C448.5,396.9,458.5,391.7,455.1,384.9z M446.7,388.1c0.9-1.3,3.8-4.1,5.2-1.9
			c1.1,1.7-0.5,3.7-1.8,4.6c-1.5,1-4.3,2.4-6.4,2.4C444.6,391.4,445.6,389.7,446.7,388.1z M432.8,381.1c0.1-0.5,0.3-1.2,0.8-1.1
			c0.5,0.1,0.8,0.9,1.1,1.3c0.7,1.2,1.3,2.6,1.8,3.9c0.9,2.1,1.8,4.2,2.5,6.4C435.3,389.2,431.6,385.6,432.8,381.1z"/>
		<g>
			<path class="st0" d="M426.2,429.6c0.2,0.2,0.5,0.4,0.8,0.5c2.1,0.6,3.7-2.1,4-3.8c0.1-0.9-0.2-1.8-1.2-2.1
				c-1.2-0.4-2.5,0.1-3.3,1.1c-0.8,0.9-1.7,2.5-1,3.7C425.7,429.2,425.9,429.4,426.2,429.6z"/>
			<path class="st0" d="M433.3,417.7c0,0.2,0,0.4,0.1,0.6c0.2,0.8,0.9,1.5,1.5,1.9c0.7,0.5,1.6,0.8,2.4,0.5c0.3-0.1,0.6-0.3,0.9-0.5
				c0.4-0.2,0.8-0.5,0.9-0.9c0.3-0.7,0.1-1.3-0.4-1.9c-0.1-0.1-0.2-0.2-0.2-0.3c-0.2-0.3-0.4-0.5-0.7-0.6c-1-0.8-2.3-1.5-3.4-0.8
				C433.7,416.2,433.3,416.9,433.3,417.7C433.3,417.7,433.3,417.7,433.3,417.7z"/>
			<path class="st0" d="M444.8,433.2c0.2,0.2,0.5,0.2,0.9,0.2c1.2-0.1,2.3-0.5,3.3-1.3c1-0.9,1.9-2.5,0.7-3.7c-1-1-2.6-0.4-3.7,0.2
				c-1,0.7-1.7,1.5-2.1,2.6C443.6,431.9,444.1,432.8,444.8,433.2z"/>
			<path class="st0" d="M456.3,424.1c0.4,0.7,1,1.3,1.8,1.5c0.3,0.2,0.6,0.3,1,0.3c0.9,0,1.7-0.6,1.9-1.4c0.1-0.5,0.1-1.1,0-1.6
				c-0.1-0.7-0.5-1.3-1-1.8c0,0-0.1-0.1-0.1-0.1c-0.1-0.1-0.1-0.1-0.2-0.2c0,0-0.1-0.1-0.2-0.1c-0.1-0.1-0.2-0.2-0.4-0.3
				c-0.4-0.3-0.9-0.3-1.4-0.1c-0.6,0.1-1.2,0.4-1.6,0.9c-0.6,0.8-0.5,1.7-0.1,2.5C456.1,423.8,456.2,424,456.3,424.1z"/>
			<path class="st0" d="M455.2,439.5c1,1,2.5,0.6,3.2-0.4c0.5-0.7,0.9-1.3,1.2-2.1c0.2-0.5,0-1.3-0.4-1.7c-0.1-0.1-0.1-0.1-0.2-0.2
				c-0.2-0.2-0.4-0.3-0.6-0.3c-0.3-0.1-0.6-0.2-0.9-0.2c-0.6,0-1.2,0.2-1.6,0.6c-0.6,0.5-0.9,1.1-0.9,1.8
				C454.4,437.8,454.4,438.7,455.2,439.5z"/>
			<path class="st0" d="M474,437.3c-0.1-1.1-0.5-2.1-1.1-3.1c-0.5-0.8-1.2-1.5-1-2.4c0.2-0.8,0.7-1.2,0.7-2.1c0-0.8-0.3-1.6-0.6-2.4
				c-0.6-1.6-1.4-3.2-2.2-4.8c-1.8-3.1-4.4-5.6-7.9-6.6c-0.7-0.2-1.7-0.2-2.2-0.8c-0.5-0.6-0.4-1.4-0.5-2.2
				c-0.1-1.8-0.6-3.3-1.8-4.7c-2.2-2.5-5.8-3.2-8.9-2.1c-1.5,0.6-2.8,1.4-4,2.5c-1,0.9-2.2,2.4-3.6,2.7c-1.4,0.3-2.8-0.9-4-1.6
				c-1.2-0.7-2.6-1.3-4-1.3c-3.6,0.1-5.7,4.1-7.2,6.8c-0.6,1-1.1,2.1-1.6,3.2c-0.4,0.8-0.6,1.5-1.5,1.9c-0.9,0.4-1.9,0.4-2.7,1
				c-0.6,0.4-1.2,1-1.6,1.6c-1,1.5-1.4,3.4-1.1,5.2c0.1,1.1,0.5,2.2,0.9,3.3c0.4,0.8,1.5,2.3,1,3.2c-0.1,0.1-0.1,0.3-0.2,0.4
				c-0.8,0.1-1.6,0.4-2.4,0.9c-0.9,0.6-0.9,1.6-0.6,2.3c1.2,10,2.8,19.8,5,29.6c0.2,0.7,0.6,1,1.1,1.2c0.1,0.1,0.2,0.1,0.3,0.2
				c6.8,4.2,15.7,5.3,23.5,5.5c4.2,0.1,8.3-0.4,12.3-1.7c4.1-1.3,7.8-3.3,11.6-5.3c0.2-0.1,0.3-0.2,0.4-0.3c0.6-0.1,1.1-0.4,1.2-1.2
				c1.5-9.2,2.8-18.4,3.7-27.6C475.1,438,474.6,437.5,474,437.3z M423,424.1c1.5-0.4,2.6-1,3.4-2.3c1.8-2.9,2.6-6.5,5.1-8.8
				c2.2-2.1,5,1.2,7.2,1.8c2.8,0.8,5.2-0.7,7.2-2.5c2.2-2,5.2-4.4,8.2-2.2c2.7,1.9,0.9,5.5,3.1,7.7c1,1,2.4,1.2,3.8,1.6
				c1.8,0.5,3.3,1.5,4.5,3c1.1,1.4,2,3.1,2.7,4.7c0.3,0.7,1,1.7,0.9,2.5c0,0.6-0.5,1.2-0.6,1.9c-0.5,2.3,1.4,3.7,2,5.7
				c-1.9,0.9-3.5,2.2-4.8,3.8c-2.9-2.2-7-1.7-9.2,1.2c-1.2-0.8-2.7-1.2-4.2-1.1c-2,0.1-3.8,1-5.3,2.2c0,0,0,0-0.1,0
				c-1.3-1.7-3.2-2.9-5.5-3c-2.1-0.1-4,0.9-5.4,2.4c-1.3-1.6-3-2.9-5.1-3.2c-1.7-0.3-3.4,0.1-4.8,1c-0.8-1.5-1.8-2.9-3.3-3.9
				c-0.2-0.1-0.5-0.3-0.7-0.4c1.1-2.9-1.9-5.5-1.9-8.5C420.4,425.6,421.3,424.6,423,424.1z M427.7,443.5c0.8-0.9,2.1-1.1,3.3-0.7
				c1.7,0.6,2.8,2.1,3.6,3.6c0.8,8.2,1.5,16.4,2.2,24.6c-1.9-0.3-3.9-0.7-5.7-1.2c0-0.1,0-0.1,0-0.2
				C430.3,460.7,429.1,452.1,427.7,443.5z M438,445.7c1.3-2.7,4.8-2.6,6.4-0.4c-0.1,8.8,0,17.6,0.3,26.3c-1.5-0.1-2.9-0.1-4.4-0.3
				C439.6,462.7,438.8,454.2,438,445.7z M447.7,447.2C447.8,447.2,447.8,447.2,447.7,447.2c1.7-1.9,5.5-4.4,7.6-1.7
				c-0.6,8.5-1.1,16.9-1.3,25.4c-2,0.4-3.9,0.6-5.9,0.7C447.7,463.5,447.6,455.3,447.7,447.2z M419.3,438.7c2.5-0.4,4.2,3.5,5,5.4
				c0,0,0,0.1,0.1,0.1c1.4,8,2.4,16.1,3.2,24.2c-1.2-0.5-2.4-1.1-3.5-1.8C422,457.4,420.4,448.1,419.3,438.7z M457.4,469.9
				C457.4,469.9,457.4,469.9,457.4,469.9c0.2-8.3,0.7-16.5,1.3-24.8c0.7-2.5,3.6-3.2,5.3-1.3c-0.8,8.1-1.7,16.3-2.5,24.4
				C460.2,468.9,458.8,469.5,457.4,469.9z M468.1,465c0,0-0.1,0-0.1,0.1c-0.9,0.5-1.9,1-2.8,1.5c0.8-7.4,1.5-14.8,2.3-22.2
				c1-1.7,2.3-3.1,4-4C470.5,448.6,469.4,456.8,468.1,465z"/>
		</g>
	</g>
	<g>
		<g>
			<path class="st0" d="M32.3,185.1c-1.3,0.1-2.6,0.1-3.9,0.1c0.1-3.2,0.1-6.4,0.2-9.5c0-1.2,0-2.3,0.1-3.5c0.8,0,1.6,0,2.4,0
				c2.2,0,2.2-3.4,0-3.4c-0.8,0-1.6,0-2.3,0c0-0.5,0-0.9,0-1.4c0-0.5,0-1.1,0-1.7c1,0.1,2.3,0.4,3.1,0.4c2.2,0.2,2.2-3.2,0-3.4
				c-1.6-0.2-3.5-0.6-5.1-0.3c-0.6,0.1-1,0.7-1.2,1.2c-0.5,1.6-0.2,3.7-0.2,5.4c0,2-0.1,4-0.1,6c-0.1,4-0.2,8-0.2,11.9
				c0,0.9,0.8,1.7,1.7,1.7c1.9,0,3.7-0.1,5.6-0.2C34.5,188.4,34.5,185,32.3,185.1z"/>
			<path class="st0" d="M43.1,163.4c-0.4-1.6-3-1.6-3.3,0c-1.6,7.9-2.7,15.9-3.3,23.9c-0.2,2.2,3.2,2.2,3.4,0
				c0.1-1.4,0.2-2.8,0.4-4.2c0.8,0,1.7,0,2.5,0c0.3,1.4,0.6,2.8,0.9,4.2c0.6,2.1,3.9,1.2,3.3-0.9C45,178.9,44.8,171,43.1,163.4z
				 M40.7,179.7c0.2-1.9,0.5-3.8,0.7-5.6c0.3,1.9,0.5,3.8,0.8,5.6C41.7,179.7,41.2,179.7,40.7,179.7z"/>
			<path class="st0" d="M58.9,179.1c0,1,0,6.8-1.7,6.6c-1.7-0.2-1.2-5.8-1.2-6.9c0-2.4,0.1-4.8,0.2-7.3c0.7,0,1.5-0.1,2.3-0.2
				c0.9-0.1,1.4-1.3,1.2-2.1c-0.3-1-1.2-1.3-2.1-1.2c-0.4,0.1-0.8,0.1-1.2,0.1c0.1-1.7,0.1-3.4,0.2-5.1c0.1-2.2-3.3-2.2-3.4,0
				c0,1.6-0.1,3.3-0.1,4.9c-0.4-0.1-0.7-0.1-1.1-0.2c-2.1-0.5-3.1,2.8-0.9,3.3c0.6,0.1,1.3,0.2,1.9,0.3c0,1.1-0.1,2.2-0.1,3.4
				c-0.1,2-0.1,4-0.1,6c0,1.7,0,3.6,0.6,5.2c1,2.7,4.2,4.1,6.6,2.1c2.4-2,2.5-6.1,2.5-9C62.3,176.9,58.9,176.9,58.9,179.1z"/>
			<path class="st0" d="M84.9,175.9c-1.3,0.1-2.6,0.1-3.8,0c-0.9-0.1-1.7,0.8-1.7,1.7c0,1,0.8,1.6,1.7,1.7c0.3,0,0.6,0,0.9,0
				c0,2,0.2,5.6-1.7,5.5c-2,0-2-5.4-2.1-6.7c-0.2-2.8-0.2-5.6,0-8.4c0.1-0.7-0.1-3.2,1-3.4c1.3-0.3,1.7,3.1,1.6,3.7
				c-0.3,2.1,3,3.1,3.3,0.9c0.5-3.5-2.2-10.3-6.8-7.4c-1.9,1.2-2.2,3.5-2.4,5.6c-0.2,2.8-0.3,5.6-0.1,8.4c0.2,3.6,0.3,10.2,5.1,10.7
				c2.1,0.2,4-1,4.8-2.9c0.9-1.9,0.6-4.1,0.7-6.1c0.7-0.2,1.3-0.8,1.3-1.6C86.6,176.8,85.8,175.8,84.9,175.9z"/>
			<path class="st0" d="M95.2,171.6c2.1-1,3.9-2.6,3-5.1c-1-3.1-4.7-4.2-7.6-3.5c-0.7,0.2-1.2,0.9-1.3,1.6
				c-0.1,7.3-0.2,14.5-0.3,21.8c0,2.2,3.4,2.2,3.4,0c0-3.8,0.1-7.5,0.1-11.3c1.1,3.8,2.3,7.5,3.4,11.3c0.6,2.1,3.9,1.2,3.3-0.9
				C98,180.9,96.6,176.2,95.2,171.6z M94.9,167.3c0.2,0.9-1,1.3-2.1,1.6c0-0.9,0-1.8,0-2.7C93.7,166.3,94.7,166.5,94.9,167.3z"/>
			<path class="st0" d="M111.2,183.6c-1.1,0-2.2,0-3.3,0.1c-0.2-4.1-0.3-8.2-0.4-12.2c0.7,0,1.4,0,2-0.1c0.9,0,1.7-0.8,1.7-1.7
				c0-0.9-0.8-1.7-1.7-1.7c-0.7,0-1.4,0-2.1,0.1c0-0.9,0-1.7,0-2.6c0.8,0,1.5,0,2.3,0c2.2,0.1,2.2-3.3,0-3.4c-1.3-0.1-2.7-0.1-4,0
				c-0.9,0.1-1.7,0.7-1.7,1.7c-0.1,7.2,0,14.4,0.4,21.6c0.1,0.9,0.7,1.7,1.7,1.7c1.6,0,3.3-0.1,4.9-0.1
				C113.4,187,113.4,183.6,111.2,183.6z"/>
			<path class="st0" d="M123.9,184.3c-0.9,0-1.9,0-2.8,0c0-4.2,0-8.4,0-12.6c0.7,0,1.4-0.1,2.1-0.3c0.9-0.2,1.5-1.2,1.2-2.1
				c-0.3-0.9-1.2-1.4-2.1-1.2c-0.2,0-0.3,0.1-0.5,0.1c-0.1,0-0.1,0-0.1,0c0,0-0.1,0-0.1,0c-0.2,0-0.3,0-0.5,0c0-0.8,0-1.6,0-2.4
				c0.7,0,1.3,0.1,2,0.1c2.2,0.2,2.2-3.2,0-3.4c-1.2-0.1-2.4-0.2-3.7-0.1c-0.9,0-1.7,0.8-1.7,1.7c0,7.3,0,14.6,0,21.9
				c0,0.9,0.8,1.7,1.7,1.7c1.5,0,3,0,4.5,0C126.1,187.8,126.1,184.3,123.9,184.3z"/>
			<path class="st0" d="M136.5,163.8c0,3.8-0.1,7.6-0.2,11.4c-1.1-3.9-2.2-7.8-3.3-11.8c-0.5-1.9-3.3-1.4-3.3,0.5
				c-0.3,7.7-0.4,15.3-0.4,23c0,2.2,3.4,2.2,3.4,0c0-3.9,0-7.8,0-11.6c1.1,3.8,2.2,7.6,3.3,11.4c0.5,1.9,3.3,1.5,3.4-0.5
				c0.2-7.4,0.4-14.9,0.4-22.3C139.9,161.6,136.5,161.6,136.5,163.8z"/>
		</g>
		<path class="st3" d="M170.7,167.3c-2.6-1.5-5.7-1.3-8.4-0.3c-0.5,0.2-0.9,0.4-1.4,0.6c0-1.2,0.1-2.4,0.2-3.6
			c2.4,0.5,4.9,0.3,7.2-0.6c2.5-1,5.4-3.1,5.2-6.1c-0.2-3-3.5-4-6-3.7c-2.2,0.3-4,1.4-5.6,2.8c0-0.1,0-0.1,0-0.2
			c0.3-2.2-3.1-2.1-3.4,0c-0.5,3.7-0.8,7.5-1,11.3c-1.3-1-2.9-1.5-4.6-1.4c-3.9,0.4-6.7,3.9-7.5,7.5c-0.5,2.1-0.5,4.3-0.3,6.5
			c0.2,2.3,0.4,4.6,1.4,6.7c1.6,3.4,5.4,5.2,9.1,4.5c0.8-0.1,1.5-0.4,2.1-0.7c1.2-0.6,1.5-0.8,2.7-0.2c1.7,0.8,3.2,1.3,5.1,1.1
			c3.9-0.5,6.2-3.2,7.5-6.7C175,179.3,176.9,170.9,170.7,167.3z M165.9,157.7c0.8-0.4,5.1-1.6,4,0.5c-0.7,1.3-2.9,2.1-4.2,2.5
			c-1.2,0.3-2.4,0.3-3.6,0.1C163.3,159.6,164.5,158.4,165.9,157.7z M171.1,178.4c-0.4,2.6-1,6.4-3,8.3c-0.8,0.8-1.9,1.3-3.1,1.5
			c-1.4,0.2-2.4-0.4-3.6-1c-1.2-0.6-2.3-0.8-3.6-0.4c-1.3,0.4-2.3,1.3-3.7,1.4c-3.3,0.1-5-2.6-5.5-5.5c-0.5-3.5-0.9-8,1.3-11
			c0.9-1.2,2.3-1.9,3.8-2.1c1.7-0.2,3.1,0.7,3.8,2.7c0.5,1.6,1.9,1.4,2.7-0.2c1.8-2.7,4.3-3.2,6.7-3c2,0.2,3.4,2,4.2,3.9
			C171.9,174.4,171.4,176.7,171.1,178.4z"/>
	</g>
	<g>
		<g>
			<path class="st1" d="M39.5,43c-1.7,1-3,2.5-3.9,4.2c-1.3-1.9-2.8-3.7-4.8-4.4c-2.5-0.8-5.6,0.5-5.8,3.3c-0.3,3,2.4,5.4,4.9,6.5
				c0.7,0.3,1.5,0.6,2.3,0.7c0.4,0.1,1.6,0,1.9,0c0.1,0.1,0.1,0.2,0.2,0.3c0,0.2,0.1,0.4,0.1,0.6c0.1,0.4,0.2,0.8,0.2,1.3
				c0.2,1.1,0.4,2.1,0.6,3.2c0.4,2.2,3.7,1.2,3.3-0.9c-0.2-1.2-0.5-2.5-0.7-3.7c2.1-0.3,4.2-1.2,5.9-2.6c2-1.7,3.8-4.5,2.4-7.1
				C44.8,42,41.7,41.8,39.5,43z M31.2,49.5c-1-0.4-2.1-1.1-2.6-2.1c-0.5-1,0-1.6,1.1-1.3c1,0.3,1.7,1.3,2.3,2.1
				c0.4,0.6,0.9,1.2,1.3,1.8C32.6,49.9,31.9,49.8,31.2,49.5z M40.1,49.9c-0.7,0.4-1.5,0.6-2.3,0.8c0.5-1.3,1.2-2.5,2.1-3.5
				c0.6-0.7,3.2-2.6,3.3-0.5C43.3,48,41.1,49.3,40.1,49.9z"/>
			<path class="st1" d="M78.7,35c-1.3,1.9-2.2,3.9-2.9,6.1c-0.9-2.3-2-4.4-3.4-6.4c-1.1-1.5-2.3-3.3-4.3-3.6
				c-1.8-0.3-3.2,0.9-3.7,2.5c-1,3.2,0.3,7.1,2.1,9.8c1.8,2.6,4.3,4.7,7.3,5.7c0.1,3.4,0.2,6.9,0.3,10.3c0.1,2.2,3.5,2.2,3.4,0
				c-0.1-3.5-0.2-7-0.3-10.5c3.1-0.8,5.8-2.6,7.7-5.1c2-2.6,3.9-7,1.8-10C84.5,30.4,80.5,32.3,78.7,35z M67.5,35.9
				c0-0.3-0.1-1.2,0.2-1.4c0.2-0.2,0.7,0.5,1,0.9c0.9,1,1.6,2.2,2.3,3.4c1.1,2,2,4.2,2.5,6.4C70.1,43.4,67.6,39.9,67.5,35.9z
				 M81.5,42.6c-0.9,1-2,1.7-3.2,2.3c0.4-1.7,0.9-3.4,1.6-5c0.5-1.2,1.1-2.4,1.9-3.4c0.8-1,2.2-1.8,2.4,0.1
				C84.4,38.7,82.9,41.2,81.5,42.6z"/>
			<path class="st1" d="M106.6,34.9c-1.3-1-3.4-2.5-5.2-1.9c-1.8,0.6-1.6,2.8-1.7,4.4c-0.1,2.4-0.1,4.7,0.4,7.1
				c0.4,1.9,1.2,3.8,2.7,5.2c1.6,1.5,3.6,2.5,5.5,3.5c0.2,1.6,0.2,3.3,0,4.9c-0.1,0.9,0.9,1.7,1.7,1.7c1,0,1.6-0.8,1.7-1.7
				c0.2-2,0.1-3.9-0.1-5.8c1.9-4,1.3-9.5-1-13.1C109.5,37.5,108.2,36.1,106.6,34.9z M103.8,44.7c-0.5-1.5-0.6-3-0.7-4.5
				c0-0.8,0-1.7,0.1-2.5c0-0.2,0.1-0.6,0.1-0.9c0.3,0.2,0.6,0.3,0.8,0.5c0.6,0.4,1.2,0.9,1.7,1.5c0.9,0.9,1.7,1.9,2.4,3.1
				c0.7,1.3,1.2,2.7,1.3,4.2c-0.6-1.1-1.3-2.1-2-3.1c-0.6-0.7-1.5-1.1-2.3-0.6c-0.7,0.4-0.4,1.3,0,2.1c1,1.9,1.1,2.7,1.8,4.1
				C105.6,47.5,104.4,46.4,103.8,44.7z"/>
			<path class="st1" d="M156.7,26.9c-2,2.2-2.2,5.3-2,8.1c-0.1,0.1-0.2,0.3-0.3,0.4c-0.1-0.6-0.3-1.1-0.6-1.7
				c-0.9-2-2.7-4.1-5.1-2.9c-2.3,1.1-2.6,4.3-2.4,6.5c0.2,2.3,1.2,4.4,2.7,6.1c-0.3,0.5-0.5,1.1-0.8,1.6c-0.3-1.2-0.8-2.4-1.6-3.3
				c-1.5-1.8-4.2-2.2-6-0.6c-4.2,3.6,1.2,11.1,4.8,13.2c-0.2,0.9-0.3,1.8-0.4,2.8c-0.2,2.2,3.2,2.2,3.4,0c0.5-4.2,1.7-8.3,3.6-12
				c1.6,1.2,3.6,1.9,5.6,1.9c2.1,0,4.7-0.9,5.5-3.1c0.8-2.3-0.7-4.6-3-5.2c-1.3-0.4-2.7-0.2-4.1,0.2c0.4-0.5,0.8-1,1.2-1.5
				c0.1-0.1,0.2-0.2,0.3-0.4c2.5-0.8,4.8-1.7,5.9-4.3c0.8-2,0.9-4.9-0.7-6.6C160.8,24.1,158.2,25.2,156.7,26.9z M149.8,34.7
				c0.3-1.1,0.1-0.6,0.5-0.2c0.4,0.4,0.6,1.5,0.8,2c0.2,1.2,0.1,2.3-0.2,3.4c0,0.1-0.1,0.1-0.1,0.2
				C149.8,38.6,149.3,36.6,149.8,34.7z M142.5,44.8c0-0.7,0.1-1.4,1-1.3c0.6,0.1,0.8,0.8,1,1.3c0.7,1.5,0.9,3.3,1.1,4.9
				c0,0.2,0.1,0.4,0.1,0.6C144.1,48.7,142.6,46.7,142.5,44.8z M159.8,42.7c-0.5,0.9-2.6,0.7-3.3,0.6c-0.6-0.1-1.1-0.3-1.6-0.5
				c0.5-0.2,1.1-0.4,1.6-0.6C157,42,160.6,41.1,159.8,42.7z M159.7,32.1c-0.5,0.5-1.1,0.8-1.8,1.1c0-0.7,0.1-1.5,0.3-2.2
				c0.2-0.7,0.5-1.3,1-1.8c0.5-0.5,0.8-1,1.2-0.4C161,29.6,160.3,31.5,159.7,32.1z"/>
			<path class="st1" d="M183.1,38c-0.6-1.5-2-1.1-2.7-0.3c-2.4,2.7-4.8,5.4-7.2,8.2c-1.8,2.1-3.5,4.6-2.5,7.5
				c0.1,0.4,0.4,0.7,0.7,0.9c-0.7,0.9-1.4,1.7-2,2.6c-1.3,1.8,1.7,3.5,2.9,1.7c0.8-1.1,1.6-2,2.4-3c3.6,0.9,7.5-2,9.4-4.9
				C186.5,47,184.6,41.7,183.1,38z M181.4,48.5c-0.5,1.1-1.6,2.3-2.9,3c0.9-1.4,1.2-2.1,1.6-3.3c0.7-2.1-0.8-2.4-1.8-1
				c-1.1,1.4-2.8,2.5-3.7,3.4c-0.3,0.3-0.5,0.5-0.8,0.8c0.1-2,2.4-3.8,3.6-5.2c1.2-1.4,2.4-2.7,3.6-4.1
				C181.8,44.2,182.3,46.7,181.4,48.5z"/>
		</g>
		<g>
			<path class="st0" d="M53.7,60.2c-1.8,11.2-3.5,22.4-5.3,33.7c-1.6-11.5-3.2-23-4.7-34.5c-0.1-0.5-0.7-1.1-1.2-1.2
				c-2.8-0.6-5.5-0.5-8.2,0.3c-1.2,0.4-1.2,0.9-1,2.5c1.3,14.8,3.7,29.5,7.1,43.9c0.2,0.8,0.9,1.2,1.6,1.3c2.2,0.1,4.4-0.1,6.6-0.6
				c1.4-0.4,1.7-1.3,1.8-1.9c2.2-14.1,4.5-28.3,6.7-42.4C57.3,58.9,54,58,53.7,60.2z M43.3,102.7c-3.1-13.6-5.3-27.4-6.6-41.4
				c1.3-0.2,2.5-0.3,3.8-0.1c1.9,13.7,3.8,27.5,5.7,41.2C45.2,102.6,44.3,102.7,43.3,102.7z"/>
			<path class="st0" d="M85.8,101.4c-2.5,0.2-5,0.3-7.5,0.1c0-0.4,0-0.9,0-1.3c0-4.4,0-8.8,0-13.2c0-3.5-0.1-7-0.2-10.5
				c1.9-0.3,3.9-0.3,5.8-0.3c2.2,0,2.2-3.4,0-3.4c-1.9,0-3.9,0-5.9,0.3c-0.1-3.7-0.2-7.3-0.3-11c2.3-0.1,4.7,0.1,6.9,0.3
				c2.2,0.3,2.2-3.2,0-3.4c-3-0.4-6.2-0.4-9.2-0.2c-1.8-0.3-3.6-0.3-5.4-0.1c-0.4,0.1-0.7,0.2-0.9,0.4c-0.5,0.3-0.8,0.7-0.9,1.4
				c-0.2,14.2,0.1,28.3,1,42.4c0.1,0.9,0.7,1.7,1.7,1.7c1.4,0,11.4,0.3,14.7,0C88,104.6,88,101.1,85.8,101.4z M74.3,62.1
				C74.3,62.1,74.3,62.1,74.3,62.1c0.3,7.3,0.4,14.6,0.5,21.9c0,3.8,0.1,17.3,0.1,17.3c-0.3,0-0.6,0-0.6,0c-0.5,0-1.1,0-1.6,0
				c-0.8-13.1-1.1-26.2-0.9-39.3C72.6,61.9,73.4,62,74.3,62.1z"/>
			<path class="st0" d="M121.5,83.9c-1.7,0.1-3.5,0.2-5.2,0.2c-2.2,0.1-2.2,3.5,0,3.4c0.4,0,0.8,0,1.3-0.1c0,4.5-0.4,14-4.9,14.1
				c-3,0-3.4-4.9-3.8-7.4c-0.7-4-0.8-8-0.8-12.1c0-3.7,0.2-7.5,0.4-11.2c0.6-11.5,4.4-9.8,5.3-9.2c2.8,1.9,3.8,5.4,3.8,8.6
				c0,2.2,3.4,2.2,3.4,0c-0.1-6-3.9-13.7-11-13c-10.7,1.1-11.7,14.6-11.9,22.8c-0.1,7.3-0.4,17.5,5.8,22.7c4.5,3.7,11.2,4,14.4-1.3
				c2.4-4.1,2.7-9.4,2.7-14.1c0.2,0,0.3,0,0.5,0C123.7,87.2,123.7,83.8,121.5,83.9z M101.7,86.9c-0.3-4.5-0.2-9.1,0.3-13.6
				c0.4-3.8,1.2-8,4.2-10.6c0.2-0.2,0.4-0.4,0.6-0.5c-0.9,2.6-1.4,5.4-1.7,8.2c-0.4,4.5-0.5,9.1-0.5,13.7c0.1,4.5,0.3,9.1,1.4,13.5
				c0.3,1.2,0.7,2.4,1.3,3.4C102.7,98.3,101.9,91.9,101.7,86.9z"/>
			<path class="st0" d="M153.5,59.2c-0.1-1.2-1.1-1.5-2.2-1.6c-2.7-0.2-5.4-0.3-8.1-0.5c-0.9-0.1-1.6,0.4-1.9,1.8
				c-2,9-3.9,18-5.4,27.1c-0.7,4.4-1.4,8.9-1.9,13.3c-0.2,1.6-0.7,3.6,1,4.5c1.7,1,4.2,1,6.1,1c0.7,0,1.5-0.5,1.6-1.3
				c1-4.4,2.1-8.8,3.1-13.3c2.2,0.1,4.5,0.3,6.7,0.4c0.1,0,0.1,0,0.2,0c0.4,4.1,0.9,8.2,1.3,12.2c0.3,2.2,3.7,2.2,3.4,0
				C155.8,88.5,154.5,73.8,153.5,59.2z M139.8,101.5c-0.5,0-1.1-0.1-1.6-0.2c-0.2,0-0.6-0.2-0.9-0.3c0-0.1,0.7-5.1,0.8-6.2
				c0.6-4,1.2-7.9,1.9-11.9c1.3-7.5,2.8-15,4.5-22.5c1.6,0.1,3.2,0.2,4.8,0.3C146.1,74.4,143,87.9,139.8,101.5z M146.7,87
				c1.4-6,2.8-11.9,4.2-17.9c0.5,6.1,1,12.2,1.6,18.3C150.5,87.3,148.6,87.2,146.7,87z"/>
			<path class="st0" d="M184.7,59.3c-0.2,10.3-0.5,20.7-0.8,31c-2.7-10.4-5.1-21-7.5-31.5c-0.3-1.1-0.6-1.3-1.7-1.4
				c-2.5-0.3-4.4-0.4-6.7-0.4c-1,0-1.8,1-1.8,2.2c0,14.2,0,28.4,0.1,42.7c0,1,0.8,1.7,1.7,1.7c1,0,2,0.1,3.1,0.1
				c0.9,0,2.1,0.3,2.9,0c1.8-0.5,1.6-2.8,1.6-4.2c0.1-4.5,0.2-9,0.3-13.5c0.1-4.3,0.2-8.6,0.3-12.9c2.2,9.6,4.6,19.2,7.4,28.7
				c0.5,1.9,3.3,1.5,3.3-0.5c0.6-14,1-28,1.3-42C188.2,57.2,184.8,57.2,184.7,59.3z M169.7,100.2c0-13.3,0-26.5-0.1-39.8
				c1.1,0,2.2,0.1,3.4,0.2c-0.1,6.6-0.3,13.1-0.4,19.7c-0.1,3.5-0.1,7-0.2,10.4c0,1.8-0.1,3.6-0.1,5.4c0,0.9,0,1.8-0.1,2.7
				c0,0.4,0.1,0.9,0,1.5C171.4,100.3,170.5,100.2,169.7,100.2z"/>
		</g>
	</g>
	<g>
		<path class="st0" d="M153.5,223.3c-0.1-0.7-0.6-1.3-1.6-1.2c-2.3,0.3-4.6,0.4-6.9,0.6c-0.7,0.1-1.5,0.5-1.6,1.3
			c-1.3,5.9-2.6,11.9-3.8,17.8c-0.8-2.7-1.6-5.4-2.4-8.1c-1-3.2-1.8-6.6-3.1-9.6c-0.3-0.7-0.8-1.3-1.6-1.3c-2.3,0.1-4.5,0.1-6.8,0.2
			c-0.5,0-0.9,0.2-1.2,0.5c-0.4,0.4-0.7,0.9-0.5,1.6c1.9,6.7,4,13.4,6,20.1c1.6,5.1,3,10.3,4.9,15.2c0.8,2,2.3,2,4.3,1.8
			c1.8-0.1,5.3,0.1,6.1-2c0.6-1.4,0.8-3,1.1-4.5c0.7-2.9,1.3-5.9,2-8.8c1.7-7.6,3.4-15.3,5.1-22.9
			C153.7,223.9,153.6,223.6,153.5,223.3z M137.4,259C137.4,259,137.4,259.1,137.4,259C137.3,259.1,137.4,259,137.4,259z
			 M138.3,259.7C138.3,259.7,138.3,259.7,138.3,259.7C138.3,259.7,138.3,259.7,138.3,259.7c0-0.1,0-0.1-0.1-0.2
			c0-0.2,0.1-0.4,0.1,0.3C138.3,259.8,138.3,259.8,138.3,259.7z M142.6,257.7c-0.1,0.2-0.2,0.5-0.2,0.8c-0.4,0.1-0.8,0.2-1.1,0.2
			c-1,0.1-2.2,0.1-3.2,0.2c-1.6-4.5-2.9-9-4.3-13.6c-1.9-6.3-3.9-12.7-5.7-19.1c1.1,0,2.3-0.1,3.4-0.1c1,2.7,1.7,5.6,2.6,8.3
			c1.5,5,3,10,4.4,15c0.4,1.5,3,1.7,3.3,0c1.5-7.9,3.2-15.7,4.9-23.5c1.1-0.1,2.2-0.2,3.3-0.3C147.4,236.4,145.2,247.1,142.6,257.7z
			"/>
		<path class="st1" d="M173.1,224.9c-0.2-0.9-1.3-1.5-2.1-1.2c-7.1,2.5-13.4,7.3-16.5,14.2c-1.8,3.9-3.3,10.3,0.4,13.7
			c-1.2,2.2-2.4,4.5-3.6,6.7c-1.1,1.9,1.9,3.6,2.9,1.7c1.3-2.4,2.6-4.8,3.9-7.3c5.4,0.2,9.9-3.2,12.7-7.7
			C174.6,239.1,174.4,231.5,173.1,224.9z M168,243.2c-1.9,3.1-4.6,5.4-8,6c2.7-5,5.4-10,8.4-14.9c1.1-1.9-1.8-3.6-2.9-1.7
			c-3.1,5.2-6,10.5-8.9,15.8c-1.4-2.5-0.1-6.9,1.1-9.3c2.6-5.2,7.1-9.1,12.4-11.4C170.9,232.9,170.8,238.6,168,243.2z"/>
	</g>
</g>
</svg>
