<?xml version="1.0" encoding="utf-8"?>
<!-- Generator: Adobe Illustrator 23.0.1, SVG Export Plug-In . SVG Version: 6.00 Build 0)  -->
<svg version="1.1" id="Layer_1" xmlns="http://www.w3.org/2000/svg" xmlns:xlink="http://www.w3.org/1999/xlink" x="0px" y="0px"
	 viewBox="0 0 470.3 525" style="enable-background:new 0 0 470.3 525;" xml:space="preserve">
<style type="text/css">
	.st0{fill:#F26665;}
	.st1{fill:#FFFFFF;}
	.st2{fill:#1497CB;}
	.st3{fill:#1081AC;}
	.st4{fill:#3C4868;}
	.st5{fill:#E0AC26;}
	.st6{fill:#FFCC40;}
</style>
<g>
	<g>
		<path class="st0" d="M186.7,189.6c14.1-36,49-77.6,90-77.6c53.5,0,96.7,43.3,96.7,96.7c0,62.1-52.7,180.8-186.8,221
			C52.7,389.5,0,270.8,0,208.7C0,155.3,43.3,112,96.7,112C137.7,112,172.6,153.6,186.7,189.6z"/>
		<path class="st1" d="M437.9,265h-153L263,176.2c-0.6-2.6-3-4.4-5.7-4.4c-2.7,0-5,1.8-5.6,4.4L219.2,308L202,233.8
			c-0.2-1.3-0.9-2.6-2-3.5c-1.9-1.6-4.7-1.9-6.8-0.6c-1.5,0.9-2.5,2.5-2.8,4.2l-26.3,113.8l-41.9-181.2c-0.4-1.8-1.7-3.3-3.3-4
			c-1.7-0.7-3.6-0.6-5.2,0.3c-1.4,0.8-2.4,2.2-2.8,3.7L88.3,265h-78c1.4,3,2.4,6.2,3.4,9.5c0.1,0.2,0.2,0.3,0.2,0.5
			c0.3,0.6,0.6,1.1,0.9,1.7H93c2.7,0,5.1-1.9,5.7-4.5l18.1-78.3L158.6,375c0.6,2.6,3,4.5,5.7,4.5s5.1-1.9,5.7-4.5l26.4-114.3
			l17.1,73.7c0.6,2.6,2.9,4.5,5.6,4.5c2.9,0.1,5.1-1.8,5.7-4.4L257.3,202l17.3,70.2c0.6,2.6,3,4.4,5.7,4.4h157.6
			c3.2,0,5.8-2.6,5.8-5.8C443.7,267.6,441.1,265,437.9,265z"/>
	</g>
	<g>
		<path class="st2" d="M341.9,64.4L307,103.7c-13.7,15.4-24.9,44.6-25,65.2c-0.3,67.9-0.7,209.9,0.2,266.8
			c0.3,21.4,1.9,60.7,34.5,78.5c41.1,22.4,28.9-14,59.3-14c30.3,0,18.2,36.4,59.3,14c32.6-17.8,34.2-57.1,34.5-78.5
			c0.9-56.9,0.4-198.9,0.2-266.8c-0.1-20.6-11.3-49.8-25-65.2l-34.9-39.3H376L341.9,64.4L341.9,64.4z"/>
		<polygon class="st3" points="376,44.8 341.9,44.8 341.9,64.4 376,64.4 410.1,64.4 410.1,44.8 		"/>
		<path class="st4" d="M335.4,0c-6.2,0-11.2,5-11.2,11.2v22.4c0,6.2,5,11.2,11.2,11.2H376h40.6c6.2,0,11.2-5,11.2-11.2V11.2
			c0-6.2-5-11.2-11.2-11.2H376H335.4z"/>
		<path class="st4" d="M281.7,302h188.6c0-44.8-0.2-90.1-0.3-122.8H282C281.9,211.9,281.7,257.2,281.7,302z"/>
		<path class="st3" d="M282,421.7c0,4,0.1,7.8,0.1,11.3c27,24.4,59.2,38.6,93.8,38.6s66.9-14.2,93.8-38.6c0.1-3.5,0.1-7.3,0.1-11.3
			c-27,24.5-59.3,38.7-94,38.7C341.3,460.4,309,446.1,282,421.7z"/>
	</g>
	<g>
		<path class="st4" d="M183,408l-21.9-9.7l21.2-47.8c4-9,4.5-17.2,1.4-22c-2.7-4.1-7.8-5-11.7-5H90.7c-3.9,0-9,0.9-11.7,5
			c-3.1,4.8-2.6,13,1.4,22l21.2,47.8L79.7,408l-21.3-47.8c-7.4-16.6-7.2-32.9,0.4-44.7c6.6-10.2,17.9-15.8,31.8-15.8H172
			c13.8,0,25.1,5.6,31.8,15.8c7.7,11.8,7.8,28.1,0.4,44.7L183,408z"/>
		<path class="st4" d="M98.1,521.4h66.6c26.9-12.6,45.6-39.9,45.6-71.5c0-43.6-35.3-78.9-78.9-78.9s-78.9,35.3-78.9,78.9
			C52.5,481.6,71.1,508.8,98.1,521.4z"/>
		<path class="st4" d="M98.1,521.4h66.6c26.9-12.6,45.6-39.9,45.6-71.5c0-43.6-35.3-78.9-78.9-78.9s-78.9,35.3-78.9,78.9
			C52.5,481.6,71.1,508.8,98.1,521.4z"/>
		<path class="st1" d="M73.9,432c0,0,0.2-1,0.5-2.7c0.2-0.8,0.4-1.9,0.8-3c0.3-1.2,0.8-2.5,1.4-3.9c0.3-0.7,0.6-1.4,0.9-2.2
			c0.4-0.7,0.8-1.5,1.1-2.2c0.8-1.6,1.8-3.1,2.8-4.7c1.1-1.5,2.2-3.2,3.5-4.6c1.3-1.5,2.7-2.9,4.1-4.4c1.5-1.3,3-2.7,4.7-3.8
			c1.5-1.3,3.3-2.2,4.9-3.2c1.7-0.9,3.2-1.8,4.9-2.4c0.8-0.3,1.6-0.7,2.3-1c0.8-0.3,1.5-0.5,2.2-0.7c1.4-0.5,2.7-0.8,3.9-1.1
			c1.2-0.3,2.2-0.5,3.1-0.6c1.7-0.2,2.7-0.3,2.7-0.3s-0.9,0.4-2.5,1.1c-0.8,0.3-1.7,0.7-2.8,1.2c-1.1,0.5-2.3,1-3.6,1.7
			c-1.3,0.6-2.7,1.4-4.1,2.2c-1.5,0.8-2.8,1.8-4.4,2.7c-1.4,1-3,2.1-4.4,3.3c-1.5,1.1-2.9,2.4-4.3,3.7c-1.4,1.3-2.8,2.6-4,4
			c-1.3,1.4-2.4,2.8-3.6,4.2c-1,1.5-2.2,2.8-3.1,4.2c-0.9,1.4-1.8,2.7-2.5,3.9c-0.8,1.2-1.4,2.4-2,3.4s-1.1,1.9-1.4,2.7
			C74.3,431.1,73.9,432,73.9,432z"/>
		<path class="st2" d="M131.4,480.9c-17.1,0-31-13.9-31-31s13.9-31,31-31s31,13.9,31,31S148.5,480.9,131.4,480.9z"/>
	</g>
	<g>
		<path class="st5" d="M329.2,525H193.9c-11,0-20.9-8.9-22.1-19.8l-15.5-139.3c-1.2-10.9,6.7-19.8,17.7-19.8h175.1
			c11,0,18.9,8.9,17.7,19.8l-15.5,139.3C350.1,516.1,340.2,525,329.2,525z"/>
		<path class="st6" d="M193.9,515c-6,0-11.6-5-12.2-10.9l-15.5-139.3c-0.3-2.4,0.4-4.7,1.8-6.3c1.4-1.6,3.6-2.5,6-2.5h175.1
			c2.5,0,4.6,0.9,6,2.5s2.1,3.8,1.8,6.3l-15.5,139.3c-0.7,5.9-6.3,10.9-12.2,10.9H193.9z"/>
		<g>
			<path class="st5" d="M316.8,368c0,30.5-24.8,55.3-55.3,55.3s-55.3-24.8-55.3-55.3s24.8-55.3,55.3-55.3
				C292.1,312.7,316.8,337.5,316.8,368z"/>
			<path class="st1" d="M261.5,413.4c-25,0-45.3-20.3-45.3-45.3s20.3-45.3,45.3-45.3s45.3,20.3,45.3,45.3
				C306.9,393,286.5,413.4,261.5,413.4z"/>
			<polygon class="st0" points="267.4,372 261.5,395.9 255.7,372 			"/>
			<path class="st4" d="M261.5,335.9c-1.1,0-2-0.9-2-2v-5.2c0-1.1,0.9-2,2-2s2,0.9,2,2v5.2C263.5,335,262.6,335.9,261.5,335.9z"/>
			<path class="st4" d="M245.5,340.2c-1,0.6-2.2,0.2-2.7-0.7l-2.6-4.5c-0.6-1-0.2-2.2,0.7-2.7c1-0.6,2.2-0.2,2.7,0.7l2.6,4.5
				C246.7,338.4,246.4,339.7,245.5,340.2z"/>
			<path class="st4" d="M233.7,352c-0.6,1-1.8,1.3-2.7,0.7l-4.5-2.6c-1-0.5-1.3-1.8-0.7-2.7c0.5-1,1.8-1.3,2.7-0.7l4.5,2.6
				C233.9,349.8,234.2,351,233.7,352z"/>
			<path class="st4" d="M229.4,368c0,1.1-0.9,2-2,2h-5.2c-1.1,0-2-0.9-2-2s0.9-2,2-2h5.2C228.5,366.1,229.4,366.9,229.4,368z"/>
			<path class="st4" d="M233.7,384.1c0.5,1,0.2,2.2-0.7,2.7l-4.5,2.6c-1,0.6-2.2,0.2-2.7-0.7c-0.5-1-0.2-2.2,0.7-2.7l4.5-2.6
				C231.9,382.8,233.1,383.2,233.7,384.1z"/>
			<path class="st4" d="M245.5,395.9c1,0.6,1.3,1.8,0.7,2.7l-2.6,4.5c-0.6,1-1.8,1.3-2.7,0.7c-1-0.5-1.3-1.8-0.7-2.7l2.6-4.5
				C243.3,395.7,244.5,395.3,245.5,395.9z"/>
			<path class="st4" d="M261.5,400.2c1.1,0,2,0.9,2,2v5.2c0,1.1-0.9,2-2,2s-2-0.9-2-2v-5.2C259.5,401.1,260.4,400.2,261.5,400.2z"/>
			<path class="st4" d="M277.6,395.9c1-0.5,2.2-0.2,2.7,0.7l2.6,4.5c0.6,1,0.2,2.2-0.7,2.7c-1,0.6-2.2,0.2-2.7-0.7l-2.6-4.5
				C276.3,397.6,276.6,396.4,277.6,395.9z"/>
			<path class="st4" d="M289.4,384.1c0.6-1,1.8-1.3,2.7-0.7l4.5,2.6c1,0.6,1.3,1.8,0.7,2.7c-0.5,1-1.8,1.3-2.7,0.7l-4.5-2.6
				C289.1,386.3,288.8,385.1,289.4,384.1z"/>
			<path class="st4" d="M293.7,368c0-1.1,0.9-2,2-2h5.2c1.1,0,2,0.9,2,2s-0.9,2-2,2h-5.2C294.6,370,293.7,369.1,293.7,368z"/>
			<path class="st4" d="M289.4,352c-0.5-1-0.2-2.2,0.7-2.7l4.5-2.6c1-0.5,2.2-0.2,2.7,0.7c0.6,1,0.2,2.2-0.7,2.7l-4.5,2.6
				C291.1,353.3,289.9,352.9,289.4,352z"/>
			<path class="st4" d="M277.6,340.2c-1-0.6-1.3-1.8-0.7-2.7l2.6-4.5c0.6-1,1.8-1.3,2.7-0.7c1,0.5,1.3,1.8,0.7,2.7l-2.6,4.5
				C279.8,340.4,278.5,340.8,277.6,340.2z"/>
			<path class="st4" d="M270,368c0,4.7-3.8,8.5-8.5,8.5s-8.5-3.8-8.5-8.5s3.8-8.5,8.5-8.5S270,363.4,270,368z"/>
		</g>
		<g>
			<rect x="201.1" y="499.2" class="st5" width="120.9" height="5.7"/>
			<rect x="201.1" y="479.9" class="st5" width="120.9" height="5.7"/>
			<rect x="201.1" y="460.6" class="st5" width="120.9" height="5.7"/>
			<rect x="201.1" y="441.3" class="st5" width="120.9" height="5.7"/>
		</g>
	</g>
</g>
</svg>
