<?xml version="1.0" encoding="utf-8"?>
<!-- Generator: Adobe Illustrator 19.1.0, SVG Export Plug-In . SVG Version: 6.00 Build 0)  -->
<svg version="1.1" id="icons" xmlns="http://www.w3.org/2000/svg" xmlns:xlink="http://www.w3.org/1999/xlink" x="0px" y="0px"
	 viewBox="-79 -120 800 800" style="enable-background:new -79 -120 800 800;" xml:space="preserve">
<style type="text/css">
	.st0{fill:#A6A6A6;}
	.st1{fill:#0993CB;}
	.st2{fill:#ECECEC;}
</style>
<g>
	<path class="st0" d="M540.4-24.7H96.1c-11.8,0-21.3,3.4-21.3,19s9.5,19,21.3,19h444.3c11.8,0,21.3-3,21.3-19
		C561.7-21.3,552.2-24.7,540.4-24.7z"/>
	<polygon class="st1" points="512.9,225.1 369.7,362.2 255.7,268.4 89.6,427.8 110.5,449.6 257.3,308.5 371.3,402.3 533.7,246.9 	
		"/>
	<rect x="447.3" y="375.3" class="st1" width="76.2" height="228.6"/>
	<rect x="333" y="438.8" class="st1" width="88.9" height="165.1"/>
	<rect x="206" y="400.7" class="st1" width="88.9" height="203.2"/>
	<path class="st0" d="M561.7,76.9c0-10.4-9.5-19-21.3-19H96.1c-11.8,0-21.3,8.6-21.3,19s9.5,19,21.3,19h444.3
		C552.2,95.9,561.7,87.5,561.7,76.9z"/>
	<rect x="104.4" y="489.6" class="st1" width="88.9" height="114.3"/>
	<path class="st0" d="M96.1,184.8h231.7c11.8,0,21.3-8.6,21.3-19s-9.5-19-21.3-19H96.1c-11.8,0-21.3,8.6-21.3,19
		S84.3,184.8,96.1,184.8z"/>
	<path class="st2" d="M614.3-120H22.2c-11.4,0-19.4,3.8-19.4,15.2v769.1c0,11.4,8,15.7,19.4,15.7h592.4c11.4,0,10.5-4.4,10.5-15.7
		v-769.1C625.1-116.1,625.7-120,614.3-120z M371.3,402.3l-114-93.8L110.5,449.6l-20.8-21.8l166-159.4l114,93.8l143.2-137.1
		l20.8,21.8L371.3,402.3z M523.5,375.3v228.6h-76.2V375.3H523.5z M421.9,440.3v163.5H333v-165h83.7L421.9,440.3z M294.9,400.7v203.2
		H206V400.7H294.9z M193.3,489.6v114.3h-88.9V489.6H193.3z M96.1,95.9c-11.8,0-21.3-8.6-21.3-19s9.5-19,21.3-19h444.3
		c11.8,0,21.3,8.6,21.3,19c0,10.7-9.5,19-21.3,19H96.1z M96.1,146.7h231.7c11.8,0,21.3,8.6,21.3,19s-9.5,19-21.3,19H96.1
		c-11.8,0-21.3-8.6-21.3-19S84.3,146.7,96.1,146.7z M540.4,13.3H96.1c-11.8,0-21.3-3.4-21.3-19s9.5-19,21.3-19h444.3
		c11.8,0,21.3,3.4,21.3,19C561.7,10.3,552.2,13.3,540.4,13.3z"/>
</g>
</svg>
