<?xml version="1.0" encoding="utf-8"?>
<!-- Generator: Adobe Illustrator 19.1.0, SVG Export Plug-In . SVG Version: 6.00 Build 0)  -->
<svg version="1.1" id="icons" xmlns="http://www.w3.org/2000/svg" xmlns:xlink="http://www.w3.org/1999/xlink" x="0px" y="0px"
	 viewBox="-79 -120 800 800" enable-background="new -79 -120 800 800" xml:space="preserve">
<g>
	<path fill="#231F20" d="M-29.9,451.45c1.1,0.8,2.4,1.3,4,1.9c1.6,0.5,3.5,0.8,5.4,0.8c2.4,0,4.6-0.5,5.9-1.3c1.6-0.8,2.7-2.1,3.5-4
		s1.3-4,1.6-6.4c0.3-2.7,0.3-5.4,0.3-8.8v-25h4.8v24.9c0,3.7-0.3,7.2-0.5,10.2c-0.3,2.9-1.1,5.6-2.1,7.8s-2.7,3.7-4.8,5.1
		c-2.1,1.1-5.1,1.9-8.6,1.9c-4.3,0-7.8-1.1-10.7-2.9L-29.9,451.45z"/>
	<path fill="#231F20" d="M21.2,458.45c-2.7,0-5.1-0.5-7.2-1.6s-4-2.4-5.6-4s-2.9-3.7-3.7-5.9c-0.8-2.1-1.3-4.6-1.3-7.2
		c0-2.4,0.5-4.8,1.3-7.2c0.8-2.1,2.1-4.3,3.7-5.9s3.5-2.9,5.6-4s4.6-1.6,7.2-1.6c2.7,0,5.1,0.5,7.2,1.6s4,2.4,5.6,4s2.9,3.7,3.7,5.9
		c0.8,2.1,1.3,4.6,1.3,7.2c0,2.4-0.5,4.8-1.3,7.2c-0.8,2.1-2.1,4.3-3.7,5.9s-3.5,2.9-5.6,4C26,457.85,23.6,458.45,21.2,458.45z
		 M8.1,439.95c0,2.1,0.3,4,1.1,5.6c0.5,1.6,1.6,3.2,2.7,4.6c1.1,1.3,2.7,2.4,4.3,3.2c1.6,0.8,3.2,1.1,5.1,1.1s3.5-0.3,5.1-1.1
		c1.6-0.8,2.9-1.9,4.3-3.2c1.1-1.3,2.1-2.9,2.9-4.6c0.8-1.9,1.1-3.7,1.1-5.6s-0.3-3.7-1.1-5.6s-1.6-3.2-2.9-4.6
		c-1.1-1.3-2.7-2.4-4.3-3.2c-1.6-0.8-3.2-1.1-5.1-1.1s-3.5,0.3-5.1,1.1s-2.9,1.9-4.3,3.2c-1.1,1.3-2.1,2.9-2.7,4.6
		C8.4,435.95,8.1,437.75,8.1,439.95z"/>
	<path fill="#231F20" d="M77.2,457.65h-4.8v-20.1c0-4-0.8-7.2-2.1-9.1c-1.3-2.1-3.5-2.9-6.2-2.9c-1.3,0-2.7,0.3-4,0.8
		s-2.7,1.3-3.7,2.1c-1.1,0.8-2.1,2.1-2.9,3.2c-0.8,1.3-1.6,2.7-1.9,4v22.2h-4.8v-50.6h4.8v22.8c1.6-2.7,3.5-4.8,6.2-6.4
		c2.4-1.6,5.4-2.4,8.3-2.4c2.1,0,3.7,0.3,5.4,1.1c1.6,0.8,2.7,1.9,3.5,3.2s1.6,2.9,1.9,4.8c0.5,1.9,0.5,4,0.5,6.4
		C77.2,436.75,77.2,457.65,77.2,457.65z"/>
	<path fill="#231F20" d="M117.4,457.65h-4.8v-20.1c0-4.3-0.5-7.5-1.9-9.4c-1.3-1.9-3.2-2.9-5.9-2.9c-1.3,0-2.7,0.3-4.3,0.8
		c-1.3,0.5-2.7,1.3-3.7,2.1c-1.1,0.8-2.1,2.1-3.2,3.2c-0.8,1.3-1.6,2.7-2.1,4v22.3h-4.8v-36.2H91v8.3c0.8-1.3,1.6-2.4,2.7-3.5
		s2.4-2.1,3.7-2.7c1.3-0.8,2.7-1.3,4.3-1.9c1.6-0.5,2.9-0.5,4.6-0.5c2.1,0,3.7,0.3,5.1,1.1c1.3,0.8,2.4,1.9,3.2,3.2
		c0.8,1.3,1.3,2.9,1.9,4.8c0.3,1.9,0.5,4,0.5,6.4v21L117.4,457.65L117.4,457.65z"/>
	<path fill="#231F20" d="M146,457.65v-49h16.6c4,0,7.5,0.5,10.4,1.9s5.4,2.9,7.5,5.4c1.9,2.1,3.5,4.8,4.3,7.8
		c1.1,2.9,1.3,6.2,1.3,9.6c0,3.7-0.5,7.2-1.6,10.2c-1.1,2.9-2.7,5.6-4.8,7.8s-4.6,3.7-7.5,5.1c-2.9,1.3-6.2,1.9-9.6,1.9H146V457.65
		L146,457.65z M181.4,432.95c0-2.9-0.5-5.6-1.3-8s-2.1-4.6-3.7-6.4c-1.6-1.9-3.5-3.2-5.9-4.3s-5.1-1.6-8-1.6h-11.8v40.7h11.8
		c2.9,0,5.6-0.5,8-1.6s4.3-2.4,5.9-4.3s2.7-4,3.5-6.4C180.8,438.55,181.4,435.95,181.4,432.95z"/>
	<path fill="#231F20" d="M210,458.45c-2.7,0-5.1-0.5-7.2-1.6s-4-2.4-5.6-4s-2.9-3.7-3.7-5.9c-0.8-2.1-1.3-4.6-1.3-7.2
		c0-2.4,0.5-4.8,1.3-7.2c0.8-2.1,2.1-4.3,3.7-5.9s3.5-2.9,5.6-4s4.6-1.6,7.2-1.6c2.7,0,5.1,0.5,7.2,1.6s4,2.4,5.6,4s2.9,3.7,3.7,5.9
		c0.8,2.1,1.3,4.6,1.3,7.2c0,2.4-0.5,4.8-1.3,7.2c-0.8,2.1-2.1,4.3-3.7,5.9s-3.5,2.9-5.6,4C215.1,457.85,212.7,458.45,210,458.45z
		 M196.9,439.95c0,2.1,0.3,4,1.1,5.6c0.5,1.6,1.6,3.2,2.7,4.6c1.1,1.3,2.7,2.4,4.3,3.2c1.6,0.8,3.2,1.1,5.1,1.1s3.5-0.3,5.1-1.1
		c1.6-0.8,2.9-1.9,4.3-3.2c1.1-1.3,2.1-2.9,2.9-4.6c0.8-1.9,1.1-3.7,1.1-5.6s-0.3-3.7-1.1-5.6s-1.6-3.2-2.9-4.6
		c-1.1-1.3-2.7-2.4-4.3-3.2c-1.6-0.8-3.2-1.1-5.1-1.1s-3.5,0.3-5.1,1.1s-2.9,1.9-4.3,3.2c-1.1,1.3-2.1,2.9-2.7,4.6
		C197.4,435.95,196.9,437.75,196.9,439.95z"/>
	<path fill="#231F20" d="M251.5,458.45c-2.7,0-5.1-0.5-7.2-1.6c-2.1-1.1-4-2.4-5.6-4s-2.9-3.7-3.7-5.9c-0.8-2.1-1.3-4.8-1.3-7.2
		c0-2.4,0.5-4.8,1.3-7.2c0.8-2.1,2.1-4.3,3.7-5.9c1.6-1.6,3.5-2.9,5.6-4s4.6-1.6,7.2-1.6c2.7,0,5.1,0.5,7.2,1.6s4,2.4,5.6,4
		s2.7,3.7,3.7,5.9c0.8,2.1,1.3,4.6,1.3,7c0,0.3,0,0.8,0,1.1s0,0.5,0,0.8h-30.6c0.3,1.9,0.5,3.7,1.3,5.4c0.8,1.6,1.6,2.9,2.9,4.3
		c1.1,1.1,2.4,2.1,4,2.7c1.6,0.5,3.2,1.1,4.8,1.1c1.1,0,2.4-0.3,3.5-0.5s2.1-0.8,3.2-1.3s1.9-1.3,2.7-2.1s1.3-1.6,1.9-2.7l4,1.1
		c-0.5,1.3-1.3,2.7-2.4,3.7c-1.1,1.1-2.1,2.1-3.5,2.9c-1.3,0.8-2.9,1.3-4.6,1.9C255,458.15,253.2,458.45,251.5,458.45z
		 M264.9,437.75c-0.3-1.9-0.5-3.7-1.3-5.4c-0.8-1.6-1.6-2.9-2.9-4c-1.1-1.1-2.7-2.1-4-2.7c-1.6-0.5-3.2-1.1-5.1-1.1
		s-3.5,0.3-5.1,1.1c-1.6,0.5-2.9,1.6-4,2.7s-2.1,2.4-2.9,4.3c-0.8,1.6-1.1,3.5-1.3,5.4h26.8v-0.3H264.9z"/>
</g>
<g>
	<path fill="#231F20" d="M-0.5,513.55v-20.1l-9.1,15.5h-1.3l-9.1-15.5v20.1h-2.4v-24.6h2.4l9.6,16.9l9.6-16.9h2.4v24.6H-0.5z"/>
	<path fill="#231F20" d="M12.4,513.85c-0.8,0-1.9-0.3-2.4-0.5c-0.8-0.3-1.3-0.8-1.9-1.1c-0.5-0.5-1.1-1.1-1.3-1.9
		c-0.3-0.8-0.5-1.3-0.5-2.1s0.3-1.6,0.5-2.1c0.3-0.8,0.8-1.3,1.6-1.9c0.8-0.5,1.3-0.8,2.4-1.1s1.9-0.3,3.2-0.3c0.8,0,1.9,0,2.7,0.3
		c1.1,0.3,1.9,0.3,2.4,0.8v-1.6c0-1.6-0.5-2.9-1.3-3.7s-2.1-1.3-3.7-1.3c-1.1,0-1.9,0.3-2.9,0.5c-1.1,0.3-1.9,0.8-2.9,1.6l-0.8-1.6
		c1.1-0.8,2.4-1.3,3.5-1.9c1.1-0.3,2.1-0.5,3.5-0.5c2.1,0,4,0.5,5.4,1.9c1.3,1.3,1.9,2.9,1.9,5.4v8c0,0.5,0.3,1.1,0.8,1.1v2.1
		c-0.3,0-0.3,0-0.5,0s-0.3,0-0.5,0c-0.5,0-0.8-0.3-1.3-0.5c-0.3-0.3-0.5-0.8-0.5-1.3v-1.5c-0.8,1.1-1.9,1.9-3.2,2.4
		C15.1,513.55,13.7,513.85,12.4,513.85z M12.9,511.95c1.1,0,2.1-0.3,3.2-0.8s1.9-1.1,2.4-1.9c0.3-0.3,0.3-0.5,0.5-0.8
		c0-0.3,0.3-0.5,0.3-0.8v-2.9c-0.8-0.3-1.6-0.5-2.4-0.8s-1.6-0.3-2.4-0.3c-1.6,0-2.9,0.3-4,1.1s-1.6,1.6-1.6,2.9
		c0,0.5,0,1.1,0.3,1.3c0.3,0.5,0.5,0.8,0.8,1.3c0.3,0.3,0.8,0.8,1.3,0.8C11.6,511.95,12.4,511.95,12.9,511.95z"/>
	<path fill="#231F20" d="M26.8,488.15h2.4v21.2c0,0.8,0.3,1.1,0.5,1.6c0.3,0.3,0.8,0.5,1.6,0.5c0.3,0,0.5,0,0.8,0s0.8-0.3,1.1-0.3
		l0.5,1.9c-0.5,0.3-1.1,0.3-1.6,0.5c-0.5,0-1.1,0.3-1.6,0.3c-1.1,0-1.9-0.3-2.7-0.8c-0.5-0.5-0.8-1.6-0.8-2.7v-22.2H26.8z"/>
	<path fill="#231F20" d="M43.7,513.85c-1.3,0-2.4-0.3-3.7-0.8c-1.1-0.5-2.1-1.1-2.9-2.1c-0.8-0.8-1.3-1.9-1.9-2.9s-0.8-2.4-0.8-3.7
		s0.3-2.4,0.8-3.5s1.1-2.1,1.9-2.9s1.9-1.6,2.9-2.1c1.1-0.5,2.4-0.8,3.7-0.8s2.4,0.3,3.7,0.8c1.1,0.5,2.1,1.1,2.9,2.1
		c0.8,0.8,1.3,1.9,1.9,2.9s0.5,2.4,0.5,3.5c0,0.3,0,0.3,0,0.5c0,0.3,0,0.3,0,0.3H37.2c0,1.1,0.3,1.9,0.8,2.7
		c0.3,0.8,0.8,1.6,1.3,2.1s1.3,1.1,2.1,1.3c0.8,0.3,1.6,0.5,2.4,0.5c0.5,0,1.1,0,1.9-0.3c0.5-0.3,1.1-0.3,1.6-0.5
		c0.5-0.3,0.8-0.5,1.3-1.1c0.3-0.5,0.8-0.8,0.8-1.3l2.1,0.5c-0.3,0.8-0.8,1.3-1.1,1.9c-0.5,0.5-1.1,1.1-1.9,1.3
		c-0.8,0.5-1.3,0.8-2.1,0.8C45.3,513.55,44.5,513.85,43.7,513.85z M50.4,503.45c0-1.1-0.3-1.9-0.8-2.7c-0.3-0.8-0.8-1.6-1.3-2.1
		s-1.3-1.1-2.1-1.3c-0.8-0.3-1.6-0.5-2.4-0.5s-1.6,0.3-2.4,0.5c-0.8,0.3-1.3,0.8-2.1,1.3s-1.1,1.3-1.3,2.1c-0.3,0.8-0.5,1.6-0.5,2.7
		H50.4z"/>
	<path fill="#231F20" d="M55.5,514.15c0.3,0,0.3,0,0.5-0.3c0.3,0,0.3-0.3,0.3-0.5v-3.2h2.1v3.5c0,0.3,0,0.8-0.3,1.1
		s-0.3,0.5-0.5,0.8c-0.3,0.3-0.5,0.3-0.8,0.3s-0.5,0-1.1,0v-1.6L55.5,514.15L55.5,514.15z"/>
	<path fill="#231F20" d="M81.7,517.85v-6.2H70.2v-2.1l12.3-15.8h1.6v15.8H87v2.1h-2.9v6.2H81.7z M72.6,509.55H82v-12.1L72.6,509.55z
		"/>
	<path fill="#231F20" d="M100.5,517.85v-6.2H89v-2.1l12.3-15.8h1.6v15.8h2.9v2.1h-2.9v6.2H100.5z M91.7,509.55h9.4v-12.1
		L91.7,509.55z"/>
	<path fill="#231F20" d="M118.7,518.95h0.3h0.3c0.3,0,0.5,0,0.8,0s0.5,0,0.5-0.3l0.3-0.3c0-0.3,0.3-0.5,0.5-0.8
		c0.3-0.3,0.5-0.8,0.8-1.6s0.8-1.6,1.1-2.7l-7.8-17.9h2.4l6.7,15.8l6.2-15.8h2.1l-9.4,23.3c-0.3,0.8-0.8,1.6-1.3,1.9
		c-0.5,0.5-1.3,0.5-2.4,0.5c-0.5,0-0.8,0-1.1,0C118.7,521.05,118.7,518.95,118.7,518.95z"/>
	<path fill="#231F20" d="M144.2,513.85c-1.3,0-2.4-0.3-3.7-0.8c-1.1-0.5-2.1-1.1-2.9-2.1c-0.8-0.8-1.3-1.9-1.9-2.9
		c-0.5-1.1-0.8-2.4-0.8-3.7s0.3-2.4,0.8-3.5s1.1-2.1,1.9-2.9c0.8-0.8,1.9-1.6,2.9-2.1c1.1-0.5,2.4-0.8,3.7-0.8s2.4,0.3,3.7,0.8
		c1.1,0.5,2.1,1.1,2.9,2.1c0.8,0.8,1.3,1.9,1.9,2.9c0.5,1.1,0.5,2.4,0.5,3.5c0,0.3,0,0.3,0,0.5c0,0.3,0,0.3,0,0.3h-15.5
		c0,1.1,0.3,1.9,0.8,2.7c0.3,0.8,0.8,1.6,1.3,2.1s1.3,1.1,2.1,1.3c0.8,0.3,1.6,0.5,2.4,0.5c0.5,0,1.1,0,1.9-0.3
		c0.5-0.3,1.1-0.3,1.6-0.5c0.5-0.3,0.8-0.5,1.3-1.1c0.5-0.5,0.8-0.8,0.8-1.3l2.1,0.5c-0.3,0.8-0.8,1.3-1.1,1.9
		c-0.5,0.5-1.1,1.1-1.9,1.3c-0.8,0.5-1.3,0.8-2.1,0.8C146,513.55,145.2,513.85,144.2,513.85z M150.8,503.45c0-1.1-0.3-1.9-0.8-2.7
		c-0.3-0.8-0.8-1.6-1.3-2.1s-1.3-1.1-2.1-1.3c-0.8-0.3-1.6-0.5-2.4-0.5s-1.6,0.3-2.4,0.5c-0.8,0.3-1.3,0.8-2.1,1.3
		c-0.5,0.5-1.1,1.3-1.3,2.1c-0.3,0.8-0.5,1.6-0.5,2.7H150.8z"/>
	<path fill="#231F20" d="M161.6,513.85c-0.8,0-1.9-0.3-2.4-0.5c-0.8-0.3-1.3-0.8-1.9-1.1c-0.5-0.3-1.1-1.1-1.3-1.9
		c-0.3-0.8-0.5-1.3-0.5-2.1s0.3-1.6,0.5-2.1c0.3-0.8,0.8-1.3,1.6-1.9c0.8-0.5,1.3-0.8,2.4-1.1c0.8-0.3,1.9-0.3,3.2-0.3
		c0.8,0,1.9,0,2.7,0.3c1.1,0.3,1.9,0.3,2.4,0.8v-1.6c0-1.6-0.5-2.9-1.3-3.7s-2.1-1.3-3.7-1.3c-1.1,0-1.9,0.3-2.9,0.5
		c-1.1,0.3-1.9,0.8-2.9,1.6l-0.8-1.6c1.1-0.8,2.4-1.3,3.5-1.9c1.1-0.3,2.1-0.5,3.5-0.5c2.1,0,4,0.5,5.4,1.9c1.3,1.3,1.9,2.9,1.9,5.4
		v8c0,0.5,0.3,1.1,0.8,1.1v2.1c-0.3,0-0.3,0-0.5,0c-0.3,0-0.3,0-0.5,0c-0.5,0-0.8-0.3-1.3-0.5c-0.3-0.3-0.5-0.8-0.5-1.3v-1.5
		c-0.8,1.1-1.9,1.9-3.2,2.4C164,513.55,162.9,513.85,161.6,513.85z M162.1,511.95c1.1,0,2.1-0.3,3.2-0.8s1.9-1.1,2.4-1.9
		c0.3-0.3,0.3-0.5,0.5-0.8c0-0.3,0.3-0.5,0.3-0.8v-2.9c-0.8-0.3-1.6-0.5-2.4-0.8s-1.6-0.3-2.4-0.3c-1.6,0-2.9,0.3-4,1.1
		s-1.6,1.6-1.6,2.9c0,0.5,0,1.1,0.3,1.3c0.3,0.3,0.5,0.8,0.8,1.3c0.3,0.3,0.8,0.8,1.3,0.8C160.8,511.95,161.3,511.95,162.1,511.95z"
		/>
	<path fill="#231F20" d="M184.6,497.55c-1.6,0-2.9,0.5-4.3,1.3c-1.1,0.8-2.1,1.9-2.4,3.5v11.2h-2.4v-17.9h2.1v4.3
		c0.5-1.3,1.3-2.4,2.4-3.2s2.1-1.3,3.2-1.3c0.3,0,0.5,0,0.5,0c0.3,0,0.3,0,0.5,0v2.1H184.6L184.6,497.55z"/>
	<path fill="#231F20" d="M193.7,513.85c-1.3,0-2.7-0.3-4-0.8s-2.4-1.1-3.5-2.1l1.1-1.6c1.1,0.8,2.1,1.3,3.2,1.9
		c1.1,0.5,2.1,0.5,3.5,0.5s2.7-0.3,3.5-0.8s1.3-1.3,1.3-2.4c0-0.5,0-0.8-0.3-1.3c-0.3-0.3-0.5-0.5-1.1-0.8c-0.5-0.3-1.1-0.5-1.6-0.8
		s-1.3-0.3-2.4-0.5c-1.1-0.3-1.9-0.5-2.7-0.8s-1.3-0.5-1.9-0.8c-0.5-0.3-0.8-0.8-1.1-1.1c-0.3-0.5-0.3-1.1-0.3-1.9s0.3-1.6,0.5-2.4
		s0.8-1.3,1.3-1.6c0.5-0.5,1.3-0.8,2.1-1.1c0.8-0.3,1.6-0.3,2.7-0.3c1.3,0,2.7,0.3,3.7,0.8c1.1,0.5,2.1,1.1,2.7,1.9l-1.1,1.3
		c-0.8-0.8-1.6-1.3-2.4-1.6c-1.1-0.3-1.9-0.5-2.9-0.5c-0.5,0-1.1,0-1.6,0.3c-0.5,0-1.1,0.3-1.3,0.5c-0.5,0.3-0.8,0.5-1.1,1.1
		c-0.3,0.5-0.3,0.8-0.3,1.6c0,0.5,0,0.8,0.3,1.1s0.5,0.5,0.8,0.8s0.8,0.5,1.3,0.5c0.5,0.3,1.3,0.3,2.1,0.5c1.1,0.3,2.1,0.5,2.9,0.8
		s1.6,0.5,2.1,1.1c0.5,0.3,1.1,0.8,1.3,1.3c0.3,0.5,0.5,1.1,0.5,1.9c0,1.6-0.5,2.9-1.9,4C198.3,513.55,195.8,513.85,193.7,513.85z"
		/>
	<path fill="#231F20" d="M221.3,513.85c-1.3,0-2.4-0.3-3.7-0.8c-1.1-0.5-2.1-1.1-2.9-2.1c-0.8-0.8-1.3-1.9-1.9-2.9
		c-0.5-1.1-0.5-2.4-0.5-3.5c0-1.3,0.3-2.4,0.8-3.5s1.1-2.1,1.9-2.9c0.8-0.8,1.9-1.6,2.9-2.1c1.1-0.5,2.4-0.8,3.5-0.8
		c1.3,0,2.4,0.3,3.5,0.8s2.1,1.1,2.9,2.1c0.8,0.8,1.3,1.9,1.9,2.9c0.5,1.1,0.8,2.4,0.8,3.5c0,1.3-0.3,2.4-0.8,3.5s-1.1,2.1-1.9,2.9
		c-0.8,0.8-1.9,1.6-2.9,2.1S222.4,513.85,221.3,513.85z M214.6,504.45c0,1.1,0.3,1.9,0.5,2.9c0.3,0.8,0.8,1.6,1.3,2.4
		c0.5,0.5,1.3,1.1,2.1,1.6c0.8,0.3,1.6,0.5,2.7,0.5c0.8,0,1.9-0.3,2.7-0.5c0.8-0.3,1.6-0.8,2.1-1.6c0.5-0.5,1.1-1.3,1.3-2.4
		c0.3-0.8,0.5-1.9,0.5-2.9c0-1.1-0.3-1.9-0.5-2.9c-0.3-0.8-0.8-1.6-1.3-2.4c-0.5-0.5-1.3-1.1-2.1-1.6c-0.8-0.3-1.6-0.5-2.4-0.5
		s-1.9,0.3-2.7,0.5c-0.8,0.3-1.6,0.8-2.1,1.6s-1.1,1.3-1.3,2.4C214.9,502.65,214.6,503.45,214.6,504.45z"/>
	<path fill="#231F20" d="M234.1,488.15h2.4v21.2c0,0.8,0.3,1.1,0.5,1.6c0.3,0.3,0.8,0.5,1.6,0.5c0.3,0,0.5,0,0.8,0s0.5-0.3,1.1-0.3
		l0.5,1.9c-0.5,0.3-1.1,0.3-1.6,0.5c-0.5,0-1.1,0.3-1.6,0.3c-1.1,0-1.9-0.3-2.7-0.8c-0.5-0.5-0.8-1.6-0.8-2.7v-22.2H234.1z"/>
	<path fill="#231F20" d="M250.5,513.85c-1.3,0-2.4-0.3-3.5-0.8s-1.9-1.3-2.7-2.1s-1.3-1.9-1.9-2.9c-0.5-1.1-0.5-2.4-0.5-3.5
		c0-1.3,0.3-2.4,0.5-3.7c0.5-1.1,1.1-2.1,1.6-2.9c0.8-0.8,1.6-1.6,2.7-2.1c1.1-0.5,2.1-0.8,3.2-0.8c1.6,0,2.9,0.3,4,1.1
		s2.1,1.9,2.7,2.9v-11h2.4v22.2c0,0.5,0.3,1.1,0.8,1.1v2.1c-0.3,0-0.8,0-0.8,0c-0.5,0-1.1-0.3-1.3-0.5c-0.3-0.3-0.5-0.8-0.5-1.1
		v-1.9c-0.8,1.1-1.6,2.1-2.9,2.7C252.9,513.05,251.8,513.85,250.5,513.85z M251,511.75c0.5,0,1.3,0,1.9-0.3c0.5-0.3,1.3-0.5,1.9-1.1
		c0.5-0.5,1.1-0.8,1.3-1.3c0.5-0.5,0.8-1.1,0.8-1.9v-5.6c-0.3-0.5-0.5-1.3-1.1-1.9c-0.5-0.5-1.1-1.1-1.6-1.3
		c-0.5-0.5-1.1-0.8-1.9-1.1c-0.5-0.3-1.3-0.3-1.9-0.3c-1.1,0-1.9,0.3-2.7,0.5c-0.8,0.5-1.6,1.1-2.1,1.6c-0.5,0.8-1.1,1.3-1.3,2.4
		c-0.3,0.8-0.5,1.9-0.5,2.7c0,1.1,0.3,1.9,0.5,2.7c0.3,0.8,0.8,1.6,1.3,2.4s1.3,1.1,2.1,1.6C249.1,511.45,250.2,511.75,251,511.75z"
		/>
</g>
<g>
	<path fill="#231F20" d="M447.3,411.55h2.9l4.3,11l4.3-11h2.9l-5.4,13.1l5.9,13.9l11-27.1h3.2l-12.7,30.9H461l-6.4-15.3l-6.4,15.3
		h-2.7l-12.9-31.1h3.2l11.2,27.1l5.9-13.9L447.3,411.55z"/>
	<path fill="#231F20" d="M490.2,442.65c-1.6,0-3.2-0.3-4.6-0.8c-1.3-0.5-2.7-1.3-3.5-2.7c-1.1-1.1-1.9-2.4-2.4-3.7
		c-0.5-1.3-0.8-2.9-0.8-4.6c0-1.6,0.3-2.9,0.8-4.6c0.5-1.3,1.3-2.7,2.4-3.7s2.1-1.9,3.5-2.4c1.3-0.5,2.9-0.8,4.6-0.8
		c1.6,0,3.2,0.3,4.6,0.8c1.3,0.5,2.4,1.3,3.5,2.4s1.9,2.4,2.4,3.7c0.5,1.3,0.8,2.9,0.8,4.3c0,0.3,0,0.5,0,0.8s0,0.3,0,0.5h-19.3
		c0,1.3,0.3,2.4,0.8,3.5s1.1,1.9,1.9,2.7c0.8,0.8,1.6,1.3,2.7,1.9c1.1,0.5,1.9,0.5,3.2,0.5c0.8,0,1.6,0,2.1-0.3
		c0.8-0.3,1.3-0.5,1.9-0.8c0.5-0.3,1.1-0.8,1.6-1.3s0.8-1.1,1.1-1.6l2.7,0.8c-0.3,0.8-0.8,1.6-1.3,2.1c-0.5,0.8-1.3,1.3-2.1,1.9
		c-0.8,0.5-1.9,0.8-2.7,1.1C492.3,442.35,491.3,442.65,490.2,442.65z M498.5,429.75c0-1.3-0.3-2.4-0.8-3.2c-0.5-1.1-1.1-1.9-1.9-2.7
		c-0.8-0.8-1.6-1.3-2.7-1.6c-1.1-0.5-2.1-0.5-3.2-0.5s-2.1,0.3-3.2,0.5c-1.1,0.5-1.9,1.1-2.7,1.6c-0.8,0.8-1.3,1.6-1.9,2.7
		c-0.5,1.1-0.8,2.1-0.8,3.2H498.5z"/>
	<path fill="#231F20" d="M505.7,410.45h3v26.5c0,0.8,0.3,1.6,0.8,1.9c0.5,0.5,1.1,0.8,1.9,0.8c0.3,0,0.8,0,1.1,0
		c0.5,0,0.8-0.3,1.3-0.3l0.5,2.4c-0.5,0.3-1.3,0.5-1.9,0.5c-0.6,0-1.6,0.3-2.1,0.3c-1.3,0-2.4-0.3-3.2-1.1c-0.8-0.8-1.1-1.9-1.1-3.2
		v-27.9h-0.3L505.7,410.45L505.7,410.45z"/>
	<path fill="#231F20" d="M517.2,410.45h2.9v26.5c0,0.8,0.3,1.6,0.8,1.9c0.5,0.5,1.1,0.8,1.9,0.8c0.3,0,0.8,0,1.1,0
		c0.5,0,0.8-0.3,1.3-0.3l0.5,2.4c-0.5,0.3-1.3,0.5-2.1,0.5s-1.6,0.3-2.1,0.3c-1.3,0-2.4-0.3-3.2-1.1c-0.8-0.8-1.1-1.9-1.1-3.2
		C517.2,438.35,517.2,410.45,517.2,410.45z"/>
	<path fill="#231F20" d="M547.5,442.05h-2.9v-12.6c0-2.7-0.3-4.6-1.1-5.9s-1.9-1.9-3.7-1.9c-0.8,0-1.6,0.3-2.7,0.5
		c-0.8,0.3-1.6,0.8-2.4,1.3s-1.3,1.3-1.9,2.1c-0.5,0.8-1.1,1.6-1.3,2.7v13.7h-2.9v-22.5h2.7v5.1c0.5-0.8,1.1-1.6,1.6-2.1
		c0.8-0.8,1.3-1.3,2.1-1.9c0.8-0.5,1.6-0.8,2.7-1.1c0.8-0.3,1.9-0.3,2.9-0.3c1.3,0,2.4,0.3,3.2,0.8s1.6,1.1,2.1,1.9s0.8,1.9,1.1,2.9
		c0.3,1.3,0.3,2.7,0.3,4v13.1h0.2L547.5,442.05L547.5,442.05z"/>
	<path fill="#231F20" d="M563.3,442.65c-1.6,0-3.2-0.3-4.6-0.8c-1.3-0.5-2.7-1.3-3.5-2.7c-1.1-1.1-1.9-2.4-2.4-3.7
		c-0.5-1.3-0.8-2.9-0.8-4.6c0-1.6,0.3-2.9,0.8-4.6c0.5-1.3,1.3-2.7,2.4-3.7c1.1-1.1,2.1-1.9,3.5-2.4c1.3-0.5,2.9-0.8,4.6-0.8
		c1.7,0,3.2,0.3,4.6,0.8c1.3,0.5,2.4,1.3,3.5,2.4s1.9,2.4,2.4,3.7c0.5,1.3,0.8,2.9,0.8,4.3c0,0.3,0,0.5,0,0.8s0,0.3,0,0.5h-19.3
		c0,1.3,0.3,2.4,0.8,3.5s1.1,1.9,1.9,2.7c0.8,0.8,1.6,1.3,2.7,1.9c1.1,0.5,1.9,0.5,3.2,0.5c0.8,0,1.6,0,2.1-0.3
		c0.8-0.3,1.3-0.5,1.9-0.8c0.5-0.3,1.1-0.8,1.6-1.3s0.8-1.1,1.1-1.6l2.7,0.8c-0.3,0.8-0.8,1.6-1.3,2.1c-0.5,0.8-1.3,1.3-2.1,1.9
		c-0.8,0.5-1.9,0.8-2.7,1.1C565.4,442.35,564.4,442.65,563.3,442.65z M571.6,429.75c0-1.3-0.3-2.4-0.8-3.2c-0.5-1.1-1.1-1.9-1.9-2.7
		c-0.8-0.8-1.6-1.3-2.7-1.6c-1.1-0.5-2.1-0.5-3.2-0.5c-1.1,0-2.1,0.3-3.2,0.5c-1.1,0.5-1.9,1.1-2.7,1.6c-0.8,0.8-1.3,1.6-1.9,2.7
		c-0.5,1.1-0.8,2.1-0.8,3.2H571.6z"/>
	<path fill="#231F20" d="M586.3,442.65c-1.9,0-3.5-0.3-5.1-0.8s-3.2-1.3-4.3-2.4l1.3-1.9c1.3,1.1,2.7,1.9,3.7,2.4
		c1.3,0.5,2.7,0.8,4.3,0.8c1.9,0,3.2-0.3,4.3-1.1c1.1-0.8,1.6-1.9,1.6-3.2c0-0.5-0.3-1.1-0.5-1.6c-0.3-0.5-0.8-0.8-1.3-1.1
		c-0.5-0.3-1.3-0.5-2.1-0.8s-1.9-0.5-2.9-0.8c-1.3-0.3-2.4-0.5-3.5-1.1c-1.1-0.3-1.6-0.8-2.4-1.1c-0.5-0.5-1.1-0.8-1.3-1.6
		c-0.3-0.5-0.5-1.3-0.5-2.1c0-1.1,0.3-2.1,0.5-2.9c0.5-0.8,1.1-1.6,1.9-2.1s1.6-1.1,2.7-1.3c1.1-0.3,2.1-0.5,3.2-0.5
		c1.6,0,3.2,0.3,4.8,0.8c1.3,0.5,2.7,1.3,3.5,2.1l-1.3,1.6c-0.8-0.8-1.9-1.6-2.9-1.9c-1.1-0.5-2.4-0.5-3.7-0.5c-0.8,0-1.6,0-2.1,0.3
		s-1.3,0.5-1.9,0.8c-0.5,0.3-0.8,0.8-1.1,1.3s-0.5,1.1-0.5,1.9c0,0.5,0,1.1,0.3,1.3c0.3,0.3,0.5,0.8,1.1,1.1
		c0.5,0.3,1.1,0.5,1.9,0.8s1.6,0.5,2.7,0.8c1.3,0.3,2.7,0.8,3.7,1.1c1.1,0.3,2.1,0.8,2.7,1.3c0.8,0.5,1.3,1.1,1.6,1.6
		s0.5,1.3,0.5,2.4c0,2.1-0.8,3.7-2.4,4.8C591.2,441.85,589,442.65,586.3,442.65z"/>
	<path fill="#231F20" d="M607.5,442.65c-1.9,0-3.5-0.3-5.1-0.8s-3.2-1.3-4.3-2.4l1.3-1.9c1.3,1.1,2.7,1.9,3.7,2.4
		c1.3,0.5,2.7,0.8,4.3,0.8c1.9,0,3.2-0.3,4.3-1.1c1.1-0.8,1.6-1.9,1.6-3.2c0-0.5-0.3-1.1-0.5-1.6c-0.3-0.5-0.8-0.8-1.3-1.1
		c-0.5-0.3-1.3-0.5-2.1-0.8s-1.9-0.5-2.9-0.8c-1.3-0.3-2.4-0.5-3.5-1.1c-1.1-0.3-1.6-0.8-2.4-1.1c-0.5-0.5-1.1-0.8-1.3-1.6
		c-0.3-0.5-0.5-1.3-0.5-2.1c0-1.1,0.3-2.1,0.5-2.9c0.5-0.8,1.1-1.6,1.9-2.1s1.6-1.1,2.7-1.3c1.1-0.3,2.1-0.5,3.2-0.5
		c1.6,0,3.2,0.3,4.8,0.8c1.3,0.5,2.7,1.3,3.5,2.1l-1.3,1.6c-0.8-0.8-1.9-1.6-2.9-1.9c-1.1-0.5-2.4-0.5-3.7-0.5c-0.8,0-1.6,0-2.1,0.3
		s-1.3,0.5-1.9,0.8c-0.5,0.3-0.8,0.8-1.1,1.3s-0.5,1.1-0.5,1.9c0,0.5,0,1.1,0.3,1.3c0.3,0.3,0.5,0.8,1.1,1.1
		c0.5,0.3,1.1,0.5,1.9,0.8s1.6,0.5,2.7,0.8c1.3,0.3,2.7,0.8,3.7,1.1c1.1,0.3,1.9,0.8,2.7,1.3s1.3,1.1,1.6,1.6s0.5,1.3,0.5,2.4
		c0,2.1-0.8,3.7-2.4,4.8C612.3,441.85,610.2,442.65,607.5,442.65z"/>
	<path fill="#231F20" d="M491.5,474.45c-0.8-1.1-2.1-1.9-3.5-2.4c-1.3-0.5-3.2-0.8-4.8-0.8c-2.7,0-4.8,0.5-5.9,1.6
		c-1.3,1.1-1.9,2.4-1.9,4.3c0,0.8,0.3,1.6,0.5,2.1c0.3,0.5,0.8,1.1,1.6,1.6c0.8,0.5,1.6,0.8,2.7,1.1c1.1,0.3,2.4,0.5,3.7,1.1
		c1.6,0.3,3.2,0.8,4.3,1.1c1.3,0.5,2.4,1.1,3.2,1.6c0.8,0.5,1.6,1.3,2.1,2.4s0.8,2.1,0.8,3.5c0,1.3-0.3,2.7-0.8,3.7
		c-0.5,1.1-1.3,1.9-2.4,2.7s-2.1,1.1-3.5,1.6c-1.3,0.3-2.9,0.5-4.3,0.5c-4.8,0-8.8-1.6-12.3-4.6l1.3-2.4c1.1,1.1,2.7,2.1,4.6,2.9
		s4,1.3,6.4,1.3s4.3-0.5,5.6-1.3c1.3-0.8,2.1-2.1,2.1-4c0-1.1-0.3-1.9-0.5-2.4c-0.3-0.5-1.1-1.3-1.9-1.6c-0.8-0.5-1.9-0.8-2.9-1.3
		c-1.1-0.3-2.4-0.8-4-1.1c-1.6-0.3-2.9-0.8-4.3-1.1c-1.3-0.5-2.1-0.8-2.9-1.6c-0.8-0.5-1.3-1.3-1.9-2.1c-0.5-0.8-0.5-1.9-0.5-3.2
		c0-1.3,0.3-2.7,0.8-3.7s1.3-2.1,2.1-2.7c1.1-0.8,2.1-1.3,3.5-1.6c1.3-0.3,2.9-0.5,4.6-0.5c2.1,0,3.7,0.3,5.4,0.8
		c1.6,0.5,2.9,1.6,4.3,2.7L491.5,474.45z"/>
	<path fill="#231F20" d="M497.9,488.15c0-1.6,0.3-3.2,0.8-4.6c0.5-1.3,1.3-2.7,2.4-3.7s2.1-1.9,3.5-2.4c1.3-0.5,2.9-0.8,4.6-0.8
		c2.1,0,4,0.5,5.6,1.3c1.6,1.1,2.7,2.1,3.5,4l-2.9,0.8c-0.5-1.1-1.6-2.1-2.7-2.7c-1.1-0.5-2.4-1.1-3.7-1.1c-1.1,0-2.1,0.3-3.2,0.8
		s-1.9,1.1-2.7,1.9c-0.8,0.8-1.3,1.6-1.6,2.9c-0.5,1.1-0.5,2.4-0.5,3.5c0,1.3,0.3,2.4,0.5,3.5c0.5,1.1,1.1,2.1,1.9,2.9
		s1.6,1.3,2.7,1.9c1.1,0.5,2.1,0.8,3.2,0.8c0.8,0,1.3,0,2.1-0.3s1.3-0.5,1.9-0.8c0.5-0.3,1.1-0.8,1.6-1.3s0.8-1.1,0.8-1.3l2.9,0.8
		c-0.3,0.8-0.8,1.6-1.3,2.1c-0.5,0.8-1.3,1.3-2.1,1.9c-0.8,0.5-1.6,0.8-2.7,1.1c-1.1,0.3-2.1,0.5-3.2,0.5c-1.6,0-3.2-0.3-4.6-0.8
		s-2.7-1.3-3.5-2.7c-1.1-1.1-1.9-2.4-2.4-3.7C498.2,491.35,497.9,489.75,497.9,488.15z"/>
	<path fill="#231F20" d="M532.5,499.95c-1.6,0-3.2-0.3-4.6-0.8c-1.3-0.5-2.7-1.3-3.5-2.4c-1.1-1.1-1.9-2.4-2.4-3.7
		c-0.5-1.3-0.8-2.9-0.8-4.6c0-1.6,0.3-3.2,0.8-4.6s1.3-2.7,2.4-3.7c1.1-1.1,2.1-1.9,3.5-2.7c1.3-0.5,2.9-1.1,4.6-1.1
		c1.6,0,3.2,0.3,4.6,1.1c1.3,0.5,2.7,1.6,3.5,2.7c1.1,1.1,1.9,2.4,2.4,3.7s0.8,2.9,0.8,4.6c0,1.6-0.3,2.9-0.8,4.6
		c-0.5,1.3-1.3,2.7-2.4,3.7c-1.1,1-2.1,1.9-3.5,2.4C535.7,499.65,534.1,499.95,532.5,499.95z M524.5,488.45c0,1.3,0.3,2.4,0.5,3.5
		c0.5,1.1,1.1,2.1,1.6,2.9c0.8,0.8,1.6,1.3,2.7,1.9c1.1,0.5,2.1,0.8,3.2,0.8c1.1,0,2.1-0.3,3.2-0.8s1.9-1.1,2.7-1.9s1.3-1.9,1.9-2.9
		c0.5-1.1,0.5-2.1,0.5-3.5s-0.3-2.4-0.5-3.5c-0.5-1.1-1.1-2.1-1.9-2.9s-1.6-1.3-2.7-1.9c-1.1-0.5-2.1-0.8-3.2-0.8
		c-1.1,0-2.1,0.3-3.2,0.8c-1.1,0.5-1.9,1.1-2.7,1.9s-1.3,1.9-1.9,2.9C524.5,486.05,524.5,487.05,524.5,488.45z"/>
	<path fill="#231F20" d="M559.8,479.55c-1.9,0-3.7,0.5-5.1,1.6c-1.3,1.1-2.4,2.4-3.2,4.3v13.9h-2.9v-22.5h2.7v5.4
		c0.8-1.6,1.9-2.9,2.9-4c1.3-1.1,2.7-1.6,4-1.6c0.3,0,0.5,0,0.8,0s0.5,0,0.5,0v2.9L559.8,479.55L559.8,479.55z"/>
	<path fill="#231F20" d="M573.5,499.95c-1.6,0-3.2-0.3-4.6-0.8s-2.7-1.3-3.5-2.7c-1.1-1.1-1.9-2.4-2.4-3.7c-0.5-1.3-0.8-2.9-0.8-4.6
		c0-1.6,0.3-2.9,0.8-4.6c0.5-1.3,1.3-2.7,2.4-3.7c1.1-1.1,2.1-1.9,3.5-2.4c1.3-0.5,2.9-0.8,4.6-0.8c1.6,0,3.2,0.3,4.6,0.8
		c1.3,0.5,2.4,1.3,3.5,2.4s1.6,2.4,2.4,3.7c0.5,1.3,0.8,2.9,0.8,4.3c0,0.3,0,0.5,0,0.8s0,0.3,0,0.5h-19.4c0,1.3,0.3,2.4,0.8,3.5
		s1.1,1.9,1.9,2.7c0.8,0.8,1.6,1.3,2.7,1.9c1.1,0.5,1.9,0.5,3.2,0.5c0.8,0,1.6,0,2.1-0.3c0.8-0.3,1.3-0.5,1.9-0.8
		c0.5-0.3,1.1-0.8,1.6-1.3s0.8-1.1,1.1-1.6l2.7,0.8c-0.3,0.8-0.8,1.6-1.3,2.1c-0.5,0.8-1.3,1.3-2.1,1.9c-0.8,0.5-1.9,0.8-2.7,1.1
		C575.6,499.95,574.5,499.95,573.5,499.95z M581.8,487.05c0-1.3-0.3-2.4-0.8-3.2c-0.5-1.1-1.1-1.9-1.9-2.7c-0.8-0.8-1.6-1.3-2.7-1.6
		c-1.1-0.5-2.1-0.5-3.2-0.5s-2.1,0.3-3.2,0.5c-1.1,0.5-1.9,1.1-2.7,1.6c-0.8,0.8-1.3,1.6-1.9,2.7c-0.5,1.1-0.8,2.1-0.8,3.2H581.8z"
		/>
</g>
<g>
	<g>
		<circle id="SVGID_1_" fill="#11BA77" cx="119" cy="210.95" r="150"/>
	</g>
	<g>
		<g>
			<g>
				<defs>
					<circle id="SVGID_2_" cx="119" cy="210.95" r="150"/>
				</defs>
				<clipPath id="SVGID_3_">
					<use xlink:href="#SVGID_2_"  overflow="visible"/>
				</clipPath>
				<g clip-path="url(#SVGID_3_)">
					<path fill="#DBD9C7" d="M157.3,261.25c0,15-17.4,27.3-38.6,27.3l0,0c-21.4,0-38.6-12.3-38.6-27.3v-23c0-15,17.4-27.3,38.6-27.3
						l0,0c21.4,0,38.6,12.3,38.6,27.3V261.25z"/>
					<path fill="#BFBDAD" d="M157.3,280.85c0,20.9-9.4,38-20.9,38l0,0c-11.5,0-20.9-17.1-20.9-38v-32.1c0-20.9,9.4-38,20.9-38l0,0
						c11.5,0,20.9,16.9,20.9,38V280.85z"/>
					<polygon fill="#D0EAF9" points="78.5,255.15 17.2,273.05 -3.2,336.25 125.1,375.15 123.8,306.85 117.9,287.25 97.8,269.85 
											"/>
					<polygon fill="#A6D9E8" points="124.6,306.85 115.2,287.85 97.3,272.25 67.8,295.55 73.2,257.05 79.1,243.85 117.9,285.45 
											"/>
					<polygon fill="#D0EAF9" points="159.1,255.15 220.5,273.05 240.8,336.25 112.5,375.15 113.9,306.85 119.8,287.25 147.4,271.45 
											"/>
					<g>
						<path fill="#DBD9C7" d="M83.4,206.35c0,3.2-2.7,5.9-5.9,5.9l0,0c-3.2,0-5.9-2.7-5.9-5.9v-15.8c0-3.2,2.7-5.9,5.9-5.9l0,0
							c3.2,0,5.9,2.7,5.9,5.9V206.35z"/>
						<path fill="#DBD9C7" d="M164.5,206.35c0,3.2-2.7,5.9-5.9,5.9l0,0c-3.2,0-5.9-2.7-5.9-5.9v-15.8c0-3.2,2.7-5.9,5.9-5.9l0,0
							c3.2,0,5.9,2.7,5.9,5.9V206.35z"/>
						<path fill="#F1EEDB" d="M158.1,186.55c-2.4-23.6-0.8-36.4-0.8-36.4s-19.6-9.6-34-8.8c-1.6,0-3.2,0.5-5.1,1.3
							c-1.9-0.8-3.5-1.3-5.1-1.3c-14.7-0.8-34,8.8-34,8.8s1.6,12.9-0.8,36.4c-2.4,23.6-7.2,43.9,0,51.2s20.4,23.6,38.8,24.4
							c0.3,0,0.8,0,1.1,0s0.8,0,1.1,0c18.7-0.8,31.6-17.1,38.8-24.4C165.6,230.25,160.5,209.85,158.1,186.55z"/>
						<path fill="#DBD9C7" d="M157.3,149.85c0,0-19.6-9.6-34-8.8c-1.1,0-2.4,0.5-3.7,0.8v120c18.5-1.1,31.3-17.1,38.6-24.4
							c7.2-7.2,2.4-27.6,0-51.2C155.7,163.05,157.3,149.85,157.3,149.85z"/>
						<polygon fill="#0E303F" points="158.1,189.25 160.5,161.15 154.6,130.05 123.5,125.25 125.1,142.65 145.8,159.25 						"/>
						<polygon fill="#2C5871" points="78,184.45 65.7,140.55 125.1,111.35 125.1,142.15 111.2,173.15 111.2,152.85 98.6,183.35 
							105.6,154.45 90.6,185.75 82,165.65 						"/>
						<g>
							<path fill="#2C5871" d="M123.3,245.45l-6.4,0.3l-1.1,8.3c0,0-15.8-4.3-20.9-20.1l-3.5,2.9c0,7.5,0.3,22,8.3,24.4
								c19.8,6.2,24.4,2.9,24.4,2.9l1.9-4.3L123.3,245.45z"/>
							<path fill="#2C5871" d="M116.6,245.45l6.4,0.3l1.1,8.3c0,0,15.8-4.3,20.9-20.1l3.5,2.9c0,7.5-0.3,22-8.3,24.4
								c-19.8,6.2-22.2,2.9-22.2,2.9l-4-4.3L116.6,245.45z"/>
						</g>
						
							<rect x="92.686" y="223.443" transform="matrix(-0.9786 0.2056 -0.2056 -0.9786 253.2903 424.5661)" fill="#2C5871" width="23.799" height="4"/>
						
							<rect x="121.994" y="223.56" transform="matrix(-0.9786 -0.2058 0.2058 -0.9786 218.5015 473.8476)" fill="#2C5871" width="23.8" height="4"/>
					</g>
					<path fill="#FFFFFF" d="M124.9,368.95v-84.6l-5.1,2.9l-5.9,19.6l-1.3,68.3l12.3-3.7C124.9,370.55,124.9,369.75,124.9,368.95z"
						/>
					<polygon fill="#A6D9E8" points="113.3,308.15 122.5,287.85 140.4,276.55 157.8,290.45 161.8,255.95 159.7,244.65 119.8,285.45 
											"/>
				</g>
			</g>
		</g>
	</g>
</g>
<g>
	<g>
		<path fill="#24B476" d="M515,194.35h-27.5v-4.6h35.6l-26,51.4h-5.6L515,194.35z"/>
		<path fill="#24B476" d="M527.7,231.85c0-1.9,0.3-3.5,0.5-5.4c0.3-1.6,0.8-3.5,1.9-5.1c0.8-1.6,2.1-3.2,3.7-4.6
			c1.6-1.3,3.5-2.9,6.2-4.3c1.3-0.8,2.7-1.3,4.3-2.1s2.9-1.6,4.3-2.4c1.3-0.8,2.4-1.9,3.2-2.9c0.8-1.1,1.3-2.4,1.3-3.7
			c0-0.8-0.3-1.9-0.5-2.7c-0.5-0.8-1.1-1.6-1.9-2.4c-0.8-0.8-1.9-1.3-2.9-1.6c-1.1-0.5-2.7-0.5-4-0.5c-1.6,0-2.9,0.3-4.3,0.8
			c-1.3,0.5-2.4,1.1-3.5,1.6s-1.9,1.3-2.4,1.9c-0.5,0.8-1.1,1.3-1.6,1.6l-3.2-3.5c0.3-0.3,0.8-0.8,1.6-1.6s1.9-1.6,3.2-2.4
			c1.3-0.8,2.9-1.3,4.8-2.1c1.9-0.5,3.7-0.8,6.2-0.8c2.1,0,4,0.3,5.9,0.8c1.6,0.5,3.2,1.3,4.3,2.4c1.1,1.1,2.1,2.4,2.7,3.7
			c0.5,1.3,1.1,2.9,1.1,4.3c0,2.1-0.5,3.7-1.3,5.4c-1.1,1.3-2.1,2.7-3.5,3.7c-1.3,1.1-2.7,1.9-4.3,2.7c-1.3,0.8-2.7,1.3-3.5,1.6
			c-2.1,1.1-4,1.9-5.4,2.9c-1.3,0.8-2.7,1.9-3.5,2.9c-0.8,1.1-1.6,2.1-2.1,3.2c-0.5,1.1-0.8,2.4-1.1,4h25.4v4.6L527.7,231.85
			L527.7,231.85z"/>
	</g>
	<g>
		<path fill="#FFFFFF" d="M523.1,339.75c-71.5,0-129.4-57.9-129.4-129.4c0-16.3,2.9-32.1,8.6-46.6c18.7-48.5,65.6-82.8,120.8-82.8
			v-14.1c-62.9,0-116.5,40.4-135.8,97c-5.1,14.7-7.8,30.3-7.8,46.6c0,79.3,64.3,143.6,143.6,143.6c43.7,0,82.8-19.6,109.3-50.4
			l-10.4-9.6C598.1,322.05,562.8,339.75,523.1,339.75z"/>
		<path fill="#24B476" d="M659.2,163.55c-19.3-56.5-72.8-97-135.8-97v14.2c54.9,0,102,34.3,120.8,82.8c5.6,14.5,8.6,30.3,8.6,46.6
			c0,31.9-11.5,61.1-30.5,83.6l10.4,9.6c21.4-25.2,34.5-57.6,34.5-93.5C666.9,194.05,664,178.25,659.2,163.55z"/>
		<path fill="#24B476" d="M471.7,344.05c55.7,21.4,121.1,6.4,161.8-41.8l-11-9.1c-35.4,42-91.9,56-141.1,39.4
			c-14.7-5.1-28.7-12.9-41.2-23.3c-24.5-20.6-39.5-48.2-44.6-77.4l-14.2,1.6c5.4,32.7,22,63.5,49.3,86.5
			C443.3,330.65,457.2,338.65,471.7,344.05z"/>
	</g>
</g>
</svg>
