<?xml version="1.0" encoding="utf-8"?>
<!-- Generator: Adobe Illustrator 23.0.3, SVG Export Plug-In . SVG Version: 6.00 Build 0)  -->
<svg version="1.1" id="Layer_1" xmlns="http://www.w3.org/2000/svg" xmlns:xlink="http://www.w3.org/1999/xlink" x="0px" y="0px"
	 viewBox="0 0 900 472.6" style="enable-background:new 0 0 900 472.6;" xml:space="preserve">
<style type="text/css">
	.st0{fill:#C4030B;}
	.st1{fill:#C96E04;}
	.st2{fill:#AC0A1A;}
	.st3{fill:#CABF14;}
	.st4{fill:#0B713A;}
	.st5{fill:url(#SVGID_1_);}
	.st6{fill:url(#SVGID_2_);}
	.st7{fill:url(#SVGID_3_);}
	.st8{fill:url(#SVGID_4_);}
	.st9{fill:url(#SVGID_5_);}
	.st10{fill:url(#SVGID_6_);}
	.st11{fill:url(#SVGID_7_);}
</style>
<g>
	<g>
		<path class="st0" d="M787.1,200.5l24.8-18.1C757.6,108.7,681.2,52.6,592.4,23L583,52.3C665.4,79.8,736.4,132.3,787.1,200.5z"/>
		<path class="st1" d="M449.8,30.8c44.1,0,86.3,6.6,126.2,19.3l9.4-29.3C542.5,7.2,496.9,0,449.8,0c-47.4,0-92.7,7.2-135.6,20.8
			l9.4,29.3C363.5,37.5,405.8,30.8,449.8,30.8z"/>
		<path class="st2" d="M869.2,446.6H900c-0.9-96.3-31.7-185.1-83.6-257.8l-24.8,18.1C839.6,274.2,868.3,356.9,869.2,446.6z"/>
		<path class="st3" d="M316.7,52.3L307.3,23c-88.5,29.6-164.8,86-219.5,159.4l24.8,18.1C163.3,132.3,234.3,79.8,316.7,52.3z"/>
		<path class="st4" d="M108.4,206.6l-24.8-18.1C31.4,261.3,0.6,350.3,0,446.3h30.8C31.4,356.9,60.1,274.2,108.4,206.6z"/>
		
			<linearGradient id="SVGID_1_" gradientUnits="userSpaceOnUse" x1="596.9857" y1="151.2706" x2="719.921" y2="290.755" gradientTransform="matrix(1 0 0 -1 0 377.8898)">
			<stop  offset="0" style="stop-color:#F14950"/>
			<stop  offset="1" style="stop-color:#ED1C24"/>
		</linearGradient>
		<path class="st5" d="M760.2,220.1l26.9-19.3C736.4,132.6,665.4,80.1,583,52.6l-9.4,29.3C649.1,107.5,714,156.4,760.2,220.1z"/>
		
			<linearGradient id="SVGID_2_" gradientUnits="userSpaceOnUse" x1="701.8208" y1="3.5069" x2="874.4031" y2="67.339" gradientTransform="matrix(1 0 0 -1 0 377.8898)">
			<stop  offset="0" style="stop-color:#CB4B57"/>
			<stop  offset="1" style="stop-color:#BE1E2D"/>
		</linearGradient>
		<path class="st6" d="M869.2,446.6c-0.9-89.4-29.6-172.1-77.9-239.7l-26.9,19.6c43.5,62.5,69.1,138.6,69.1,220.4h35.6L869.2,446.6
			L869.2,446.6z"/>
		
			<linearGradient id="SVGID_3_" gradientUnits="userSpaceOnUse" x1="300.051" y1="137.6219" x2="186.5728" y2="288.926" gradientTransform="matrix(1 0 0 -1 0 377.8898)">
			<stop  offset="0" style="stop-color:#FAF15B"/>
			<stop  offset="1" style="stop-color:#F9ED32"/>
		</linearGradient>
		<path class="st7" d="M325.8,80.4l-9.1-28.1c-82.4,27.5-153.4,80-204.1,148.2l23.9,17.5C183.6,154.3,249.4,105.7,325.8,80.4z"/>
		
			<linearGradient id="SVGID_4_" gradientUnits="userSpaceOnUse" x1="451.3474" y1="189.9348" x2="448.9834" y2="376.7048" gradientTransform="matrix(1 0 0 -1 0 377.8898)">
			<stop  offset="0" style="stop-color:#F9A94B"/>
			<stop  offset="1" style="stop-color:#F7941E"/>
		</linearGradient>
		<path class="st8" d="M566.4,79.2l9.4-29.3c-39.9-12.7-82.1-19.3-126.2-19.3c-44.1,0-86.3,6.6-126.2,19.3l9.1,28.1
			c36.2-11.2,74.9-17.5,115-17.5C489.1,60.7,528.9,67.1,566.4,79.2z"/>
		
			<linearGradient id="SVGID_5_" gradientUnits="userSpaceOnUse" x1="202.1664" y1="4.1404" x2="22.4924" y2="67.9722" gradientTransform="matrix(1 0 0 -1 0 377.8898)">
			<stop  offset="0" style="stop-color:#33A969"/>
			<stop  offset="1" style="stop-color:#009444"/>
		</linearGradient>
		<path class="st9" d="M108.4,206.6c-48.3,67.6-77,150.4-77.9,240h31.4c0-82.7,26.3-159.7,70.6-222.5L108.4,206.6z"/>
		<g>
			
				<linearGradient id="SVGID_6_" gradientUnits="userSpaceOnUse" x1="417.4946" y1="490.9815" x2="267.3889" y2="814.3568" gradientTransform="matrix(1 5.000000e-04 5.000000e-04 -1 100.5232 931.6812)">
				<stop  offset="0" style="stop-color:#414042"/>
				<stop  offset="1" style="stop-color:#58595B"/>
			</linearGradient>
			<path class="st10" d="M424.2,446.9c0,14.2,11.5,25.7,25.7,25.7l0.3-393.1C450.2,79.8,424.2,432.7,424.2,446.9z"/>
			
				<linearGradient id="SVGID_7_" gradientUnits="userSpaceOnUse" x1="425.2016" y1="491.9221" x2="274.2034" y2="817.2199" gradientTransform="matrix(1 5.000000e-04 5.000000e-04 -1 100.5232 931.6812)">
				<stop  offset="0" style="stop-color:#58595B"/>
				<stop  offset="1" style="stop-color:#231F20"/>
			</linearGradient>
			<path class="st11" d="M450.2,79.8l-0.3,392.8c14.2,0,25.7-11.5,25.7-25.7C475.5,432.7,450.2,79.8,450.2,79.8z"/>
		</g>
	</g>
</g>
</svg>
