<?xml version="1.0" encoding="utf-8"?>
<!-- Generator: Adobe Illustrator 19.1.0, SVG Export Plug-In . SVG Version: 6.00 Build 0)  -->
<svg version="1.1" id="Ñëîé_1" xmlns="http://www.w3.org/2000/svg" xmlns:xlink="http://www.w3.org/1999/xlink" x="0px" y="0px"
	 viewBox="0 0 800 800" enable-background="new 0 0 800 800" xml:space="preserve">
<g>
	<rect x="638.842" y="357.999" fill="#00A79D" width="20" height="88"/>
	<g>
		<path fill="#00A79D" d="M670.529,105.109C507.926-44.062,254.279-33.132,105.108,129.47
			C-44.063,292.074-33.131,545.722,129.47,694.89c162.604,149.168,416.251,138.244,565.42-24.363
			C844.061,507.925,833.135,254.278,670.529,105.109z M661.955,574.507L538.069,459.999H392.521l202.594,186.715
			c-119.182,94.041-292.798,91-408.199-14.867C71.514,525.976,53.125,353.041,136.566,226.21L260.89,339.999h145.55L202.755,153.62
			c119.237-95.766,294.243-93.058,410.329,13.439C729.174,273.557,747.109,447.474,661.955,574.507z"/>
		<rect x="132.842" y="357.999" fill="#00A79D" width="140" height="88"/>
		<rect x="288.842" y="357.999" fill="#00A79D" width="332" height="88"/>
		<path fill="#00A79D" d="M615.207,235.855c-4.471-7.827-29.07-114.047-87.211-53.669c-58.142,60.378,44.725,60.378,42.488,65.968
			c-2.236,5.591-34.662,65.969,14.535,52.551c49.195-13.417,58.141,32.426,58.141,32.426
			C678.939,220.201,619.68,243.682,615.207,235.855z"/>
	</g>
</g>
</svg>
