<?xml version="1.0" encoding="utf-8"?>
<!-- Generator: Adobe Illustrator 19.1.0, SVG Export Plug-In . SVG Version: 6.00 Build 0)  -->
<svg version="1.1" id="Layer_1" xmlns="http://www.w3.org/2000/svg" xmlns:xlink="http://www.w3.org/1999/xlink" x="0px" y="0px"
	 viewBox="0 0 900 900" style="enable-background:new 0 0 900 900;" xml:space="preserve">
<style type="text/css">
	.st0{fill:#838093;}
	.st1{fill-rule:evenodd;clip-rule:evenodd;fill:#FFFFFF;}
	.st2{fill-rule:evenodd;clip-rule:evenodd;fill:#EDDEC3;}
	.st3{fill-rule:evenodd;clip-rule:evenodd;fill:#B76629;}
	.st4{fill-rule:evenodd;clip-rule:evenodd;fill:#2D2D2D;}
	.st5{opacity:0.3;fill-rule:evenodd;clip-rule:evenodd;}
	.st6{fill-rule:evenodd;clip-rule:evenodd;fill:#FCD5A9;}
	.st7{fill-rule:evenodd;clip-rule:evenodd;fill:#282828;}
	.st8{fill-rule:evenodd;clip-rule:evenodd;fill:#F2B28F;}
	.st9{fill-rule:evenodd;clip-rule:evenodd;fill:#D98F68;}
	.st10{fill-rule:evenodd;clip-rule:evenodd;fill:#398B9E;}
	.st11{fill-rule:evenodd;clip-rule:evenodd;fill:#B7A483;}
	.st12{fill-rule:evenodd;clip-rule:evenodd;fill:#999999;}
	.st13{fill-rule:evenodd;clip-rule:evenodd;fill:#7C4319;}
</style>
<g>
	<path class="st0" d="M166.7,712.8l-25.6-0.1c0,0,43.5,33.8,81.3,29.4l-0.2,25.1L205.6,789l-3.6,1l-13.4,4c0,0,82,56.3,158.1,8
		c0,0-8.5,37.7,50.5,60.4c0,0,49.8,15.3,55.1,36.6c0,0,22.9-33.1,60.8-40c0,0,51.2-17.2,50.5-59.9c0,0,102.6,56.7,162.3,0.2
		l-27.5-9.3L673,772.1l1.9-21.6c0,0,63.9,6.7,99.4-38.1L166.7,712.8z"/>
	<g>
		<path class="st1" d="M805.8,360.7c1.8,0,3.2,1.4,3.2,3.2c0,1.8-1.4,3.2-3.2,3.2h-56.2c-1.8,0-3.2-1.4-3.2-3.2
			c0-1.8,1.4-3.2,3.2-3.2H805.8L805.8,360.7z M169.8,360.7c1.8,0,3.2,1.4,3.2,3.2c0,1.8-1.4,3.2-3.2,3.2H94.5
			c-1.8,0-3.2-1.4-3.2-3.2c0-1.8,1.4-3.2,3.2-3.2H169.8L169.8,360.7z M242.7,152c1.2,1.2,1.2,3.3,0,4.5c-1.2,1.2-3.3,1.2-4.5,0
			l-41.8-41.8c-1.2-1.2-1.2-3.3,0-4.5c1.2-1.2,3.3-1.2,4.5,0L242.7,152L242.7,152z M759.7,539c1.5,0.9,2,2.8,1.2,4.4
			c-0.9,1.5-2.8,2-4.4,1.2L698.4,511c-1.5-0.9-2-2.8-1.2-4.4c0.9-1.5,2.8-2,4.4-1.2L759.7,539L759.7,539z M199.7,215.7
			c1.5,0.9,2.1,2.8,1.2,4.3c-0.9,1.5-2.8,2.1-4.3,1.2l-56-32.3c-1.5-0.9-2.1-2.8-1.2-4.3c0.9-1.5,2.8-2.1,4.3-1.2L199.7,215.7
			L199.7,215.7z M794.5,452.9c1.7,0.5,2.7,2.2,2.3,3.9c-0.5,1.7-2.2,2.7-3.9,2.3l-59.4-15.9c-1.7-0.5-2.7-2.2-2.3-3.9
			c0.5-1.7,2.2-2.7,3.9-2.3L794.5,452.9L794.5,452.9z M175.2,287c1.7,0.5,2.7,2.2,2.3,3.9c-0.5,1.7-2.2,2.7-3.9,2.3L105.8,275
			c-1.7-0.5-2.7-2.2-2.3-3.9c0.5-1.7,2.2-2.7,3.9-2.3L175.2,287L175.2,287z M792.8,268.8c1.7-0.5,3.5,0.6,3.9,2.3
			c0.5,1.7-0.6,3.5-2.3,3.9l-49.6,13.3c-1.7,0.5-3.5-0.6-3.9-2.3c-0.5-1.7,0.6-3.5,2.3-3.9L792.8,268.8L792.8,268.8z M182.8,432.3
			c1.7-0.5,3.5,0.6,3.9,2.3c0.5,1.7-0.6,3.5-2.3,3.9l-77,20.6c-1.7,0.5-3.5-0.6-3.9-2.3c-0.5-1.7,0.6-3.5,2.3-3.9L182.8,432.3
			L182.8,432.3z M756.6,183.4c1.5-0.9,3.5-0.4,4.3,1.2c0.9,1.5,0.4,3.5-1.2,4.3l-41.2,23.8c-1.5,0.9-3.5,0.4-4.3-1.2
			c-0.9-1.5-0.4-3.5,1.2-4.3L756.6,183.4L756.6,183.4z M212.6,497.4c1.5-0.9,3.5-0.4,4.3,1.2c0.9,1.5,0.4,3.5-1.2,4.3l-72,41.6
			c-1.5,0.9-3.5,0.4-4.3-1.2c-0.9-1.5-0.4-3.5,1.2-4.3L212.6,497.4L212.6,497.4z M699.4,110.2c1.2-1.2,3.3-1.2,4.5,0
			c1.2,1.2,1.2,3.3,0,4.5l-31.8,31.8c-1.2,1.2-3.3,1.2-4.5,0c-1.2-1.2-1.2-3.3,0-4.5L699.4,110.2L699.4,110.2z M625.2,54.3
			c0.9-1.5,2.8-2,4.4-1.2c1.5,0.9,2,2.8,1.2,4.4l-21.9,37.9c-0.9,1.5-2.8,2-4.4,1.2c-1.5-0.9-2-2.8-1.2-4.4L625.2,54.3L625.2,54.3z
			 M539.1,19.6c0.5-1.7,2.2-2.7,3.9-2.3c1.7,0.5,2.7,2.2,2.3,3.9L533.8,64c-0.5,1.7-2.2,2.7-3.9,2.3c-1.7-0.5-2.7-2.2-2.3-3.9
			L539.1,19.6L539.1,19.6z M446.9,8.3c0-1.8,1.4-3.2,3.2-3.2c1.8,0,3.2,1.4,3.2,3.2v46.2c0,1.8-1.4,3.2-3.2,3.2
			c-1.8,0-3.2-1.4-3.2-3.2V8.3L446.9,8.3z M374,67.4c0.5,1.7-0.6,3.5-2.3,3.9c-1.7,0.5-3.5-0.6-3.9-2.3L355,21.2
			c-0.5-1.7,0.6-3.5,2.3-3.9c1.7-0.5,3.5,0.6,3.9,2.3L374,67.4L374,67.4z M302,101.1c0.9,1.5,0.4,3.5-1.2,4.3
			c-1.5,0.9-3.5,0.4-4.3-1.2l-27-46.7c-0.9-1.5-0.4-3.5,1.2-4.3c1.5-0.9,3.5-0.4,4.3,1.2L302,101.1z"/>
		<path class="st1" d="M390.8,719.6c0,0-42.2,110.7-188.8,70.4c0,0,16.6-20.5,20.5-48s45.4-84.5,117.1-83.2L390.8,719.6L390.8,719.6
			z M509.5,719.6c0,0,42.2,110.7,188.8,70.4c0,0-16.6-20.5-20.5-48s-45.4-84.5-117.1-83.2L509.5,719.6z"/>
		<path class="st1" d="M511.6,671c30.7,59,66.1,141-16.6,175.3c-33.9,14.1-44.9,29.4-44.9,29.4s-11-15.4-44.9-29.4
			C322.5,812,357.9,730,388.6,671l61.5-0.6L511.6,671z"/>
		<path class="st2" d="M313,685.3c-5.1,14.3-22.7,36.2-81.8,40c-1.1,0.1-2.3,0.1-3.4,0.2c-2.3,4.8-3.9,9.3-4.8,13.3
			c9,1.4,19,1.9,29.9,1.2c61.6-4,78.1-27.6,82.4-41.8C327.5,694.6,319.9,690.3,313,685.3L313,685.3z M354.5,767.4
			c-4.8,4-10.2,8-16.3,11.6c-1-30.9,11.2-63.8,24.7-92.4l11.4,13.5C364.4,722.1,356.2,745.4,354.5,767.4L354.5,767.4z M537.3,686.6
			c2.6,5.4,5,10.9,7.4,16.5c9.7,23.2,18.2,50,17.4,75.9c-6-3.6-11.4-7.6-16.3-11.6c-1.7-21.9-9.9-45.3-19.9-67.3L537.3,686.6
			L537.3,686.6z M587.2,685.3c5.1,14.3,22.7,36.2,81.8,40c1.1,0.1,2.3,0.1,3.4,0.2c2.3,4.8,3.9,9.3,4.8,13.3c-9,1.4-19,1.9-29.9,1.2
			c-61.6-4-78.1-27.6-82.4-41.8C572.8,694.6,580.4,690.3,587.2,685.3z"/>
		<g>
			<path class="st1" d="M315,672.9l-43.5-48c0,0-57.6-12.8-94.1,10.9c-36.5,23.7-57.6,21.8-57.6,21.8s22.4,73.6,111.3,67.8
				C320.2,719.6,315,672.9,315,672.9z"/>
			<path class="st1" d="M585.2,672.9l43.5-48c0,0,57.6-12.8,94.1,10.9c36.5,23.7,57.6,21.8,57.6,21.8s-22.4,73.6-111.3,67.8
				C580.1,719.6,585.2,672.9,585.2,672.9z"/>
			<path class="st3" d="M474.9,681.7c0,0,47-2.1,60.4,7.2c7.4,5.1,27,25,20.1,33.5c-11,13.6-45.9,22.2-61.5,15.9
				c-16-6.4-17-8.6-28.9-11l-5.4-1.8c0,0-5.3-29.1,9.4-43.8H474.9z"/>
			<path class="st4" d="M450.1,720.1H436c0,0-101.8-1.6-141.2-52.2c0,0-8.2-11.4-0.9-28.3l53.9-31h102.3h102.3l53.9,31
				c7.3,16.9-0.9,28.3-0.9,28.3c-39.4,50.6-141.2,52.2-141.2,52.2H450.1z"/>
			<path class="st5" d="M450.1,677.2c2.4-0.2,5.7-0.6,9.6-1.3c13.3-2.5,33.7-8.9,51.5-25.2c23-21.1,45-13.1,45-13.1
				c-11.4-10.5-24.1-7.3-34.1-0.4c-7.1,5-17,10-17,10c1.6-2.7,2.2-6.9,2.2-6.9c-19.5,17.1-57.3,19.4-57.3,19.4s-37.8-2.2-57.3-19.4
				c0,0,0.6,4.2,2.2,6.9c0,0-9.8-5-17-10c-9.9-6.9-22.7-10.1-34.1,0.4c0,0,21.9-8,45,13.1c17.8,16.3,38.3,22.7,51.5,25.2
				C444.4,676.6,447.7,677,450.1,677.2L450.1,677.2z M603.5,639.2c1.1,1.3,2.4,2.4,4,3.4c5.2,15.2-2,25.3-2,25.3
				c-3.3,4.3-7.1,8.2-11.2,11.8c8.6-11.9,7.1-29.1-13.2-35.1c-20.3-6.1-26.2-24.8-26.2-24.8C572.3,631.7,589.9,637,603.5,639.2
				L603.5,639.2z M296.8,639.2c13.7-2.3,31.2-7.6,48.6-19.5c0,0-5.9,18.7-26.2,24.8c-20.3,6.1-21.7,23.3-13.2,35.1
				c-4.1-3.6-7.9-7.5-11.2-11.8c0,0-7.2-10.1-2-25.3C294.4,641.6,295.7,640.5,296.8,639.2z"/>
			<path class="st1" d="M503.7,436.5l40.6,21.3c0,0,18.4,18.4,17.6,52.3c0,0-2.1,26.8,3.4,44.1c0,0,11.7,5.3,11.8,19.5
				c-22.6,8.7-28.8,34.5-22.3,46.1c0,0-13.3,5.9-24.6,1.6c0,0-1.8,9.4-20.3,9.1c-18.6-0.3-28.2,6.1-37.3,11c-17.9,9.8-27.1,9.8-45,0
				c-9.1-5-18.7-11.4-37.3-11c-18.6,0.3-20.3-9.1-20.3-9.1c-11.4,4.3-24.6-1.6-24.6-1.6c6.5-11.6,0.4-37.4-22.3-46.1
				c0.2-14.2,11.8-19.5,11.8-19.5c5.4-17.3,3.4-44.1,3.4-44.1c-0.8-33.9,17.6-52.3,17.6-52.3l40.6-21.3l53.1,14l0.5-0.1l0.5,0.1
				L503.7,436.5z"/>
			<path class="st1" d="M569.4,577.7c-9.8,6.7-15.2,17-16.6,26.4c-4.4-0.2-8-1.9-9.2-6.4C543.6,597.7,553.3,582,569.4,577.7
				L569.4,577.7z"/>
			<path class="st1" d="M407.2,420.8l-4.9,5.1l-5.2,10.6c0,0-5.9,23.5,17,43.2c4.5,4.5,6.6,2.3,7.5-0.1c3-8.3,11-24.5,28.6-24.5h0
				c17.6,0,25.6,16.2,28.6,24.5c0.9,2.4,3,4.7,7.5,0.1c23-19.7,17-43.2,17-43.2l-5.2-10.6l-4.9-5.1H407.2z"/>
			<path class="st6" d="M333.7,274.4c11.7,0,21.2,7.9,21.2,17.6l0,0.1h95.8h95.8l0-0.1c0-9.7,9.5-17.6,21.2-17.6
				c8.5,0,15.8,4.1,19.2,10.1c7.8,13.7,3.9,58.1-22.1,64.5c-11.6,2.8-20.7-2.4-20.6-11.8h-93.5h-93.5c0.1,9.3-9,14.6-20.6,11.8
				c-26-6.3-29.9-50.7-22.1-64.5C317.9,278.5,325.2,274.4,333.7,274.4z"/>
			<path class="st6" d="M450.1,130.2c64.4,0,116.6,37.4,116.6,87.5c0,39.5-5,104.4-13.1,141.6c0,0-10.7,37.9-55.7,66.7
				c0,0-12.2,24.7-47.8,24.7c-35.6,0-47.8-24.7-47.8-24.7c-45.1-28.8-55.7-66.7-55.7-66.7c-8.8-40.7-12-99.1-12-141.6
				C334.6,167.6,385.7,130.2,450.1,130.2z"/>
			<path class="st7" d="M450.1,192.2c19.7-15.2,53.4-11.8,77.2-11.8c0,0,13.6,25.9,2.4,55.7c0,0,10.9,16.3,22.4,22.7
				c0,0-0.2,29.1-1.3,44.5h11.1c3.1-30.1,4.8-62.3,4.8-85.6c0-13.3-3.7-25.8-10.4-36.9c12.8-15.6,14.1-36.8-0.5-51.6
				c0.3,20.7-21.9,21.1-21.9,21.1c14.9-36.5-16.1-48.5-16.1-48.5c7,13.1-1.9,30.4-18.1,32.2c-10.2,1.1-22.4-1.7-31.5-2.7
				c-7.2-0.8-13.6-1-18.1-1c-63.9,0.4-115.5,37.7-115.5,87.5c0,23.3,0.9,55.6,3.9,85.6h11.1c-0.9-15.5-0.4-44.5-0.4-44.5
				c11.5-6.4,22.4-22.7,22.4-22.7c-11.2-29.9,2.4-55.7,2.4-55.7C399.1,180.4,430.4,176.9,450.1,192.2z"/>
			<path class="st8" d="M332.6,334.3c-8.3-14.9-2.6-27.7,0.4-32.8c4.6,6.9,6.5,14.3,7.2,17.9c-0.5-4.4-1-8.8-1.4-13.2c0,0,0,0,0,0
				c-0.3-3-0.6-5.9-0.9-8.9c-8.6-9.8-20-8.6-20-8.6c4.2,1.8,7.6,4.3,10.4,7.1c-1.7,2.2-4.8,7.4-4.7,17
				C323.8,326.3,332.6,334.3,332.6,334.3L332.6,334.3z M342.5,337c0.7,4.3,1.4,8.5,2.1,12.6c-2.5,0.2-5.2,0-8-0.7
				c-8.6-2.1-14.7-8.3-18.9-16.2c4.3,4.2,9.5,6.7,15.2,6.7C336.4,339.5,339.6,338.6,342.5,337z"/>
			<path class="st8" d="M567.7,334.3c8.3-14.9,2.6-27.7-0.4-32.8c-4.6,6.9-6.5,14.3-7.2,17.9c0.5-4.4,1-8.8,1.4-13.2c0,0,0,0,0,0
				c0.3-3,0.6-5.9,0.9-8.9c8.6-9.8,20-8.6,20-8.6c-4.2,1.8-7.6,4.3-10.4,7.1c1.7,2.2,4.8,7.4,4.7,17
				C576.5,326.3,567.7,334.3,567.7,334.3L567.7,334.3z M583.5,332.9c-4.3,4.2-11.7,6.6-16.2,6.6c-4.5,0-6.6-0.9-9.6-2.5
				c-0.7,4.3-1.4,8.5-2.1,12.5c2.7,0.4,5.8,0.2,9.1-0.6C573.2,346.9,579.4,340.7,583.5,332.9z"/>
			<path class="st7" d="M460.7,273.6l7.8,7.2c14.7-17.3,45.6-11.1,55.5,4.3c0,0,8.6-5.6,6.9-15.3c-8.2-6.9-20-10.9-34.2-10.9
				C482.7,258.8,469.4,264.6,460.7,273.6z"/>
			<path class="st7" d="M439.6,273.6l-7.8,7.2c-14.7-17.3-45.6-11.1-55.5,4.3c0,0-8.6-5.6-6.9-15.3c8.2-6.9,20-10.9,34.2-10.9
				C417.6,258.8,430.9,264.6,439.6,273.6z"/>
			<path class="st9" d="M472.8,336.8c0,0-7.1,5.3-22.7,5.3c-15.6,0-22.7-5.3-22.7-5.3c0.8,12.8,22.7,21.9,22.7,21.9
				S472,349.6,472.8,336.8z"/>
			<path class="st2" d="M450.1,338.8c0,0,6.7-2.1,8.3-3.7c5.6-5.8-22.2-5.8-16.7,0C443.4,336.8,450.1,338.8,450.1,338.8z"/>
			<path class="st2" d="M450.1,450.6c-35.6,0-47.8-24.7-47.8-24.7l-5.2,10.6c0,0,0,0.1,0,0.2c1.7,1.2,3.5,2.4,5.3,3.5
				c0,0,8.4,14.8,31.5,20.6c4.2-3.4,9.5-5.8,16.3-5.8c6.8,0,12.1,2.4,16.3,5.8c23.2-5.8,31.5-20.6,31.5-20.6
				c1.8-1.2,3.6-2.3,5.3-3.5c0-0.1,0-0.2,0-0.2l-5.2-10.6C498,425.9,485.8,450.6,450.1,450.6z"/>
			<path class="st2" d="M503.2,436.5l3.6,1.9c0.6,4.2,0.3,9.1-0.3,12.9c-2.1,12.3-8.7,22.6-18.1,30.7c-2.5,2.5-6.2,4.8-9.6,2.6
				c-0.6-0.4-1.2-0.9-1.6-1.5c0.2,0.3-8.8,0.3-15.1,6.4c5.1-5.3,8.6-10.7,11-15.1c-4.6-8.9-12-16.2-22.9-16.2
				c-10.9,0-18.3,7.3-22.9,16.2c2.4,4.4,6,9.8,11,15.1c-6.3-6.1-15.3-6.1-15-6.4l0,0c-0.5,0.6-1,1.1-1.7,1.5
				c-3.5,2.1-7.1-0.1-9.6-2.6c-9.4-8.1-16.1-18.4-18.1-30.7c-0.6-3.8-0.9-8.7-0.3-12.9l3.6-1.9c0,0-5.9,23.5,17,43.1
				c4.5,4.5,6.6,2.3,7.5-0.1c3-8.3,11-24.5,28.6-24.5h0c17.6,0,25.6,16.2,28.6,24.5c0.9,2.4,3,4.7,7.5,0.1
				C509.1,460,503.2,436.5,503.2,436.5z"/>
			<path class="st10" d="M450.1,458.3c-10.9,0-18.3,7.3-22.9,16.2c2.4,4.4,6,9.8,11,15.1c0,0,4.8-5.5,11.9-5.5
				c7,0,11.9,5.5,11.9,5.5c5.1-5.3,8.6-10.7,11-15.1C468.5,465.6,461.1,458.3,450.1,458.3z"/>
			<path class="st8" d="M472.8,336.8c-0.8,12.8-22.7,21.9-22.7,21.9c0,7.7,0,15.3,0,23c7.8,7.8,6.2,17.2,0,23.4
				c5.9,0,11.2-1.1,16.1-3c-5.6,9.9-22.3,10.5-32.1,8.5c12.2,13.8,16,4.9,16,28.1v6.5c12.3,0,24.2-3.2,33.9-11
				c3.1-2.5,7.4-7,9.2-10.6l0.7-1.3l1.3-0.8c17.1-10.9,32.2-25.2,43.1-42.4c3.1-4.9,5.9-10,8.2-15.4c0.8-1.8,1.6-3.8,2.1-5.7
				c6.4-29.7,8.4-66.1-17.6-88.3c1.7,9.7-6.9,15.3-6.9,15.3c-9.9-15.4-40.8-21.6-55.5-4.3l-7.8-7.2c-6.3,6.5-10.6,14.8-10.6,23.7
				C450.1,313.9,459.7,328.2,472.8,336.8z"/>
			<path class="st11" d="M418.3,442.2c-11.5-7.1-16-16.2-16-16.2l-2,4.1c0.7,0.4,1.3,0.9,2,1.3c0,0,1.8,3.7,6.1,8.2
				c20.3,21.4,63.2,21.4,83.5,0c4.3-4.5,6.1-8.2,6.1-8.2c0.7-0.4,1.4-0.9,2-1.3l-2-4.1c0,0-4.5,9.1-16,16.2
				c-7.4,4.6-17.8,8.4-31.8,8.4C436.1,450.6,425.8,446.8,418.3,442.2z"/>
			<path class="st7" d="M381.2,299.8c0-2.3,3.2-2.3,3.2,0c0,17.2,39.7,17.2,39.7,0c0-2.3,3.2-2.3,3.2,0
				C427.3,323.6,381.2,323.6,381.2,299.8L381.2,299.8z M474,299.8c0-2.3,3.2-2.3,3.2,0c0,17.2,39.7,17.2,39.7,0c0-2.3,3.2-2.3,3.2,0
				C520.1,323.6,474,323.6,474,299.8z"/>
			<path class="st9" d="M394.1,363c10.3,9.9,33.1,14.9,56,14.9c22.9,0,45.7-5,56-14.9c-0.2-0.5-0.3-0.9-0.5-1.3
				c-0.4-1-1.2-3.5,0.6-3.6c1.2,0,2.5,0.7,3,5c0.5,4.3-1.9,10-1.9,10c0.2-2.4,0-4.7-0.3-6.6c-13.3,11.3-41.3,16.5-56.9,16.5
				c-15.7,0-43.6-5.2-56.9-16.5c-0.4,1.9-0.6,4.2-0.3,6.6c0,0-2.4-5.7-1.9-10s1.8-5,3-5c1.9,0.1,1,2.6,0.6,3.6
				C394.4,362,394.3,362.5,394.1,363z"/>
			<path class="st9" d="M430.3,398.3c6.5,9.5,33.2,9.5,39.7,0C464,402.2,436.3,402.2,430.3,398.3z"/>
			<path class="st2" d="M554.5,597.3c-2.9,8.5-2.6,17,0.4,22.4c0,0-13.3,5.9-24.6,1.6c0,0-1.2-15.3-6-28.8
				c-4.8-13.4-2.2-76.1,1-89.5c0,0,10.6-11.1,12.8-19.5c0,0,2.7,9.5-6.3,25.1c0,0-3.2,33.9,6.7,56.6c4.7-3.5,11.5-7.3,19.6-8
				c0,0-10.5,5.3-17.5,12.9c-2.1,2.6-3.2,10.2,2.1,6.3c12.3-9,21.3-7.9,21.3-7.9c-8,2.1-13.3,7.8-17.2,11.6
				c-6.7,6.5-4.8,16.1,7.5,5.8c4.1-3.4,9.3-6.7,15.3-8.3C561.9,582.8,557,590,554.5,597.3z"/>
			<path class="st10" d="M450.7,484.1c7,0,11.9,5.5,11.9,5.5l16.7,148.8c0,0-14.4,17.5-29.2,29c-14.8-11.5-29.2-29-29.2-29
				l16.7-148.8c0,0,4.8-5.5,11.9-5.5c0.2,0,0.4,0,0.5,0C450.3,484.1,450.5,484.1,450.7,484.1z"/>
			<path class="st11" d="M523.2,519.2c-2,23.8-2.6,63.1,1.1,73.4c4.8,13.4,6,28.8,6,28.8c11.4,4.3,24.6-1.6,24.6-1.6
				c-36-6.7-27.7-50.1-27.7-50.1C524.9,560.5,523.2,519.2,523.2,519.2z"/>
			<path class="st1" d="M330.9,577.7c9.8,6.7,15.2,17,16.6,26.4c4.4-0.2,8-1.9,9.2-6.4C356.7,597.7,347,582,330.9,577.7L330.9,577.7
				z"/>
			<path class="st2" d="M345.8,597.3c2.9,8.5,2.6,17-0.4,22.4c0,0,13.3,5.9,24.6,1.6c0,0,1.2-15.3,6-28.8c4.8-13.4,2.2-76.1-1-89.5
				c0,0-10.6-11.1-12.8-19.5c0,0-2.7,9.5,6.3,25.1c0,0,3.2,33.9-6.7,56.6c-4.7-3.5-11.5-7.3-19.6-8c0,0,10.5,5.3,17.5,12.9
				c2.1,2.6,3.2,10.2-2.1,6.3c-12.3-9-21.3-7.9-21.3-7.9c8,2.1,13.3,7.8,17.2,11.6c6.7,6.5,4.8,16.1-7.5,5.8
				c-4.1-3.4-9.3-6.7-15.3-8.3C338.4,582.8,343.3,590,345.8,597.3z"/>
			<path class="st11" d="M377.1,519.2c2,23.8,2.6,63.1-1.1,73.4c-4.8,13.4-6,28.8-6,28.8c-11.4,4.3-24.6-1.6-24.6-1.6
				c36-6.7,27.7-50.1,27.7-50.1C375.3,560.5,377.1,519.2,377.1,519.2z"/>
			<path class="st6" d="M577.2,573.7c-12,4.6-19.4,14.1-22.7,23.7c-2.9,8.5-2.6,17,0.4,22.4c37.1,25.3,74.5,20.7,74.5,20.7v-16
				C617.2,601.2,577.2,573.7,577.2,573.7z"/>
			<path class="st6" d="M632.6,594.2c2.1-1.2,3.3-3.4,3.3-5.7c0.6,2.2,2.4,4,4.8,4.5c0.3,0.1,0.7,0.2,1.3,0.4
				c4.4,1.4,7.9,5.1,7.4,9.9c-1.8,16.9-31.2,7.2-19.7-6.8C630.5,595.6,631.5,594.8,632.6,594.2L632.6,594.2z M622.7,647.2
				c6,0.8,11.6,4.2,11.6,4.2v0c1.6,1.9,3.3,3.5,5,5c5.1,4.3,10.9,7.1,16.4,9c3.1,1,6.4-0.6,7.4-3.7c1-3.1-0.6-6.4-3.7-7.4
				c-4.3-1.4-8.7-3.6-12.5-6.8c-2.8-2.4,0-2.5,5.2-1.3c9.6,2.2,19.1,1.2,25.9-0.3c3.4-0.7,5.6-4.1,4.9-7.6c-0.7-3.4-4.1-5.6-7.6-4.9
				c-4.5,1-10.5,1.7-16.7,0.9c-2.1,0.2-3.9-1.3,0-2.8c2-0.5,4-1.1,5.9-1.9c10.6-4.1,18.6-11.6,23-16.4c2.4-2.6,2.2-6.7-0.5-9
				c-2.6-2.4-6.7-2.2-9,0.5c-3.5,3.9-9.9,9.9-18.2,13.1c-0.3,0.1-0.6,0.2-0.9,0.3c4.3-6.6,5.3-14.8,2.5-22.3
				c-2.6-7-8.3-12.4-15.4-14.7c-0.8-0.2-1.6-0.5-2.6-0.7c-3.5-0.7-6.8,1.5-7.5,5c-0.1,0.5-0.1,0.9-0.1,1.4c-0.1-0.4-0.3-0.9-0.5-1.3
				c-1.7-3.1-5.6-4.2-8.7-2.5c-13.4,7.4-23.4,22.1-26,37C597.6,636.8,603.2,644.5,622.7,647.2z"/>
			<path class="st8" d="M630.9,609.6c-1.5-1.1-2.8-2.5-3.4-4.1l0,0c0,0,3.8,13.6-9.6,22.4C617.9,627.9,632.6,624.6,630.9,609.6
				L630.9,609.6L630.9,609.6z M639.8,615.9c-5.4,15.2-5.8,27.2-5.8,27.2C629.8,627.1,639.8,615.9,639.8,615.9z"/>
			<path class="st8" d="M554.5,597.3c-0.8,2.3-1.3,4.5-1.7,6.7c-0.4,3-0.5,5.8-0.2,8.5l0,0c0.3,1,0.8,2,1.3,2.9
				c16.8,11.4,33.6,16.8,47,19.2l0,0c-1.4-3.9-1.4-8.7-0.4-14.6c1.2-7.2,4.2-14.2,8.3-20.5l0-0.1c-11.1,3.9-15.6,20.6-15.6,20.6
				c-9.1,2.7-29.4-7.2-30.6-17.4c-1.1-10.2,5.9-24.4,5.9-24.4C561.5,583.3,556.9,590.3,554.5,597.3z"/>
			<path class="st6" d="M323.1,573.7c12,4.6,19.4,14.1,22.7,23.7c2.9,8.5,2.6,17-0.4,22.4c-37.1,25.3-74.5,20.7-74.5,20.7v-16
				C283,601.2,323.1,573.7,323.1,573.7z"/>
			<path class="st6" d="M267.6,594.2c-2.1-1.2-3.3-3.4-3.3-5.7c-0.6,2.2-2.4,4-4.8,4.5c-0.3,0.1-0.7,0.2-1.3,0.4
				c-4.4,1.4-7.9,5.1-7.4,9.9c1.8,16.9,31.2,7.2,19.7-6.8C269.8,595.6,268.8,594.8,267.6,594.2L267.6,594.2z M277.6,647.2
				c-6,0.8-11.6,4.2-11.6,4.2v0c-1.6,1.9-3.3,3.5-5,5c-5.1,4.3-10.9,7.1-16.4,9c-3.1,1-6.4-0.6-7.4-3.7c-1-3.1,0.6-6.4,3.7-7.4
				c4.3-1.4,8.7-3.6,12.5-6.8c2.8-2.4,0-2.5-5.2-1.3c-9.6,2.2-19.1,1.2-25.9-0.3c-3.4-0.7-5.6-4.1-4.9-7.6c0.7-3.4,4.1-5.6,7.6-4.9
				c4.5,1,10.5,1.7,16.7,0.9c2.1,0.2,3.9-1.3,0-2.8c-2-0.5-4-1.1-5.9-1.9c-10.6-4.1-18.6-11.6-23-16.4c-2.4-2.6-2.2-6.7,0.5-9
				c2.6-2.4,6.7-2.2,9,0.5c3.5,3.9,9.9,9.9,18.2,13.1c0.3,0.1,0.6,0.2,0.9,0.3c-4.3-6.6-5.3-14.8-2.5-22.3c2.6-7,8.3-12.4,15.4-14.7
				c0.8-0.2,1.6-0.5,2.6-0.7c3.5-0.7,6.8,1.5,7.5,5c0.1,0.5,0.1,0.9,0.1,1.4c0.1-0.4,0.3-0.9,0.5-1.3c1.7-3.1,5.6-4.2,8.7-2.5
				c13.4,7.4,23.4,22.1,26,37C302.6,636.8,297,644.5,277.6,647.2z"/>
			<path class="st8" d="M269.4,609.6c1.5-1.1,2.8-2.5,3.4-4.1l0,0c0,0-3.8,13.6,9.6,22.4C282.3,627.9,267.7,624.6,269.4,609.6
				L269.4,609.6L269.4,609.6z M260.4,615.9c5.4,15.2,5.8,27.2,5.8,27.2C270.5,627.1,260.4,615.9,260.4,615.9z"/>
			<path class="st8" d="M345.8,597.3c0.8,2.3,1.3,4.5,1.7,6.7c0.4,3,0.5,5.8,0.2,8.5l0,0c-0.3,1-0.8,2-1.3,2.9
				c-16.8,11.4-33.6,16.8-47,19.2l0,0c1.4-3.9,1.4-8.7,0.4-14.6c-1.2-7.2-4.2-14.2-8.3-20.5l0-0.1c11.1,3.9,15.6,20.6,15.6,20.6
				c9.1,2.7,29.4-7.2,30.6-17.4c1.1-10.2-5.9-24.4-5.9-24.4C338.7,583.3,343.4,590.3,345.8,597.3z"/>
			<path class="st12" d="M451.2,727.5c-4.8-1.4-6,1.4-11.4,2.5s-10.9,2.4-13.4-2.7l5.4-1.8c0,0,5.3-29.1-9.4-43.8h-5.9
				c0,0-1.3-3.7-1.3-6.7c0-3,8.2-4,14.6-3.5c6.4,0.5,9.5-2.4,14.7-3.8c19.1-5.4,24.6,33.7,19.9,53.6
				C462.8,727.5,456,728.9,451.2,727.5z"/>
			<path class="st3" d="M416.4,681.7c0,0-47-2.1-60.4,7.2c-7.4,5.1-27,25-20.1,33.5c11,13.6,45.9,22.2,61.5,15.9
				c16-6.4,17-8.6,28.9-11l5.4-1.8c0,0,5.3-29.1-9.4-43.8H416.4z"/>
			<path class="st13" d="M465,727.3c5.2,1.1,8.4,2.1,11.6,3.4c16.5-1.2,49.2-5,79.5-16.8c-1-3.1-3.1-6.5-5.5-9.7
				c-39.8,14.5-82.5,15.8-86.1,15.9c-0.1,0.4-0.2,0.7-0.2,1.1c-0.5,2.2-1.6,3.8-3.1,4.9L465,727.3L465,727.3z M397.4,723.6
				c-15,6-47.7-1.7-60.1-14.3c-2.9,5.1-4,9.9-1.4,13.1c11,13.6,45.9,22.2,61.5,15.9c16-6.4,17-8.6,28.9-11l5.4-1.8
				c0,0,0.4-2.1,0.7-5.6c0.2-2.5,0.3-5.7,0.2-9.2h-0.9l-5.4,1.8c-7.6,1.5-10.7,3-16.1,5.5C407.1,719.5,403.3,721.3,397.4,723.6z"/>
			<path class="st8" d="M414.7,687.6c0,0,8.2,13.9,6.8,29.6l-3.2-0.3c1.3-14.6-6.4-27.7-6.4-27.7L414.7,687.6L414.7,687.6z
				 M394.8,692.6c0,0,8.2,13.9,6.8,29.6l-3.2-0.3c1.3-14.6-6.4-27.7-6.4-27.7L394.8,692.6L394.8,692.6z M404.7,690.1l-2.8,1.6
				c0,0,7.7,13.1,6.4,27.7l3.2,0.3C412.9,704,404.7,690.1,404.7,690.1z"/>
		</g>
	</g>
</g>
</svg>
