<svg width="564" height="296" viewBox="0 0 564 296" fill="none" xmlns="http://www.w3.org/2000/svg">
<path d="M46.747 295.853C46.747 295.853 -18.8611 225.365 35.6521 149.052C84.0204 81.3421 140.411 85.9692 181.785 113.447C199.406 125.15 250.211 114.89 293.452 45.9915C352.422 -47.9671 556.83 9.02005 519.56 153.575C501.524 223.531 574.451 226.073 537.291 296L46.747 295.851V295.853Z" fill="#E6F3F6"/>
<path d="M0.639849 295H563.36C563.713 295 564 295.191 564 295.427V295.573C564 295.809 563.713 296 563.36 296H0.639849C0.2869 296 0 295.809 0 295.573V295.427C0 295.191 0.2869 295 0.639849 295Z" fill="#E4E4E4"/>
<path d="M485.747 233.779C485.747 236.639 483.406 238.976 480.547 238.976H199.262C196.402 238.976 194.061 236.639 194.061 233.779L191.721 72.1151C191.721 69.2548 195.088 63.6782 201.259 64.0936L476.161 56.979C479.752 56.8871 483.223 58.2693 485.763 60.802C488.303 63.3346 489.698 66.8021 489.61 70.3854L485.747 233.775V233.779Z" fill="#3C3C3B"/>
<path d="M480.614 228.793C480.614 231.502 478.401 233.715 475.693 233.715H206.048C203.34 233.715 201.127 231.502 201.127 228.793L198.918 82.0341C199.178 73.2017 206.919 70.0299 211.612 70.2177L475.086 63.147C477.606 63.079 480.047 64.0498 481.832 65.8314C483.618 67.6131 484.592 70.0499 484.528 72.5746L480.61 228.793H480.614Z" fill="#D2E6F4"/>
<path d="M204.043 158.814C203.792 158.814 203.584 158.61 203.58 158.355L203.404 146.454C203.404 146.199 203.604 145.987 203.864 145.983C204.111 145.971 204.331 146.183 204.335 146.442L204.511 158.343C204.511 158.598 204.311 158.81 204.051 158.814H204.043Z" fill="url(#paint0_linear_512_2269)"/>
<path d="M203.615 129.649C203.363 129.649 203.156 129.445 203.152 129.189L202.48 83.605C202.492 80.5411 203.439 78.0923 205.288 76.3186C208.648 73.0988 213.904 73.2586 214.124 73.2706L298.256 71.0136C298.512 70.9896 298.728 71.2093 298.732 71.465C298.74 71.7206 298.536 71.9364 298.28 71.9404L214.12 74.1974C213.88 74.1894 209.007 74.0376 205.928 76.9897C204.266 78.5796 203.419 80.8047 203.407 83.601L204.078 129.177C204.078 129.433 203.878 129.645 203.619 129.649H203.611H203.615Z" fill="url(#paint1_linear_512_2269)"/>
<path d="M220.233 200.187C220.473 189.905 220.385 98.8366 219.794 90.9749C219.203 83.1093 231.453 81.6352 250.255 80.7484C269.06 79.8615 427.715 76.3581 431.797 76.0266C440.98 75.2836 442.881 89.0095 441.962 118.806C441.271 141.193 440.129 178.073 439.602 195.03C439.446 200.08 435.32 204.086 430.267 204.102C392.089 204.206 245.761 204.626 236.019 204.917C224.811 205.253 220.137 204.262 220.233 200.187Z" fill="url(#paint2_linear_512_2269)"/>
<path d="M362 114.112V174.148C362 176.322 360.237 178.085 358.063 178.085H298.095C295.921 178.085 294.158 176.322 294.158 174.148V114.112C294.158 111.938 295.92 110.175 298.095 110.175H358.063C360.236 110.175 362 111.937 362 114.112Z" fill="#85C8FF"/>
<path d="M335.292 138.414C336.073 137.633 337.339 137.633 338.12 138.414L340.586 140.88C341.367 141.661 341.367 142.927 340.586 143.708L318.709 165.585C317.928 166.366 316.662 166.366 315.881 165.585L313.415 163.119C312.634 162.338 312.634 161.072 313.415 160.291L335.292 138.414Z" fill="#649AD0"/>
<path d="M340.585 160.586C341.366 161.367 341.366 162.633 340.585 163.414L338.119 165.88C337.338 166.661 336.072 166.661 335.291 165.88L313.414 144.003C312.633 143.222 312.633 141.956 313.414 141.175L315.88 138.709C316.661 137.928 317.927 137.928 318.708 138.709L340.585 160.586Z" fill="#649AD0"/>
<path d="M362 114.148V127.017H294.159V114.148C294.159 111.973 295.922 110.209 298.098 110.209H358.062C360.237 110.209 362.001 111.972 362.001 114.148H362Z" fill="#336699"/>
<path opacity="0.1" d="M337.769 110.209C334.62 117.483 328.999 123.439 321.966 127.017H294.159V114.148C294.159 111.973 295.922 110.209 298.098 110.209H337.769Z" fill="white"/>
<g opacity="0.1">
<path d="M314.289 110.209V116.014C314.289 116.696 314.012 117.314 313.566 117.761C313.119 118.208 312.5 118.485 311.818 118.485C310.454 118.485 309.348 117.379 309.348 116.014V110.209H314.29H314.289Z" fill="black"/>
<path d="M348.724 110.209V116.014C348.724 116.696 348.448 117.314 348.001 117.761C347.554 118.208 346.937 118.485 346.254 118.485C344.888 118.485 343.782 117.379 343.782 116.014V110.209H348.725H348.724Z" fill="black"/>
</g>
<path d="M313.373 107.307C313.373 105.942 312.267 104.836 310.902 104.836C309.537 104.836 308.431 105.942 308.431 107.307V115.096C308.431 116.461 309.537 117.567 310.902 117.567C312.267 117.567 313.373 116.461 313.373 115.096V107.307Z" fill="#85C8FF"/>
<path d="M347.807 107.307C347.807 105.942 346.701 104.836 345.336 104.836C343.972 104.836 342.865 105.942 342.865 107.307V115.096C342.865 116.461 343.972 117.567 345.336 117.567C346.701 117.567 347.807 116.461 347.807 115.096V107.307Z" fill="#85C8FF"/>
<path opacity="0.1" d="M362 127.017H294.158V128.872H362V127.017Z" fill="black"/>
<path d="M501.462 252.399H184.045C180.139 252.399 176.943 249.203 176.943 245.296C176.943 241.389 180.139 238.193 184.045 238.193H501.462C505.369 238.193 508.564 241.389 508.564 245.296C508.564 249.203 505.369 252.399 501.462 252.399Z" fill="#3C3C3B"/>
<path d="M258.672 280.047C258.672 280.047 237.51 303.38 219.835 293.517C205.631 285.592 225.811 287.661 242.93 283.918C244.273 283.622 243.921 281.617 242.559 281.797C229.166 283.574 208.731 285.024 205.18 278.042C199.82 267.5 205.016 270.919 221.325 272.441C237.634 273.963 240.778 269.936 230.129 267.428C219.484 264.919 202.548 270.468 198.605 265.306C194.659 260.149 192.506 249.907 190.932 245.504C189.359 241.102 211.232 234.491 217.147 240.275C223.059 246.056 227.864 258.963 234.882 261.32C241.9 263.677 234.351 252.26 229.697 246.367C225.044 240.475 223.199 236.097 232.497 237.503C241.796 238.909 246.713 250.258 247.692 258.731C248.67 267.204 251.946 271.942 251.798 267.751C251.65 263.561 250.128 250.706 247.156 246.843C244.185 242.98 265.399 247.694 258.676 280.055L258.672 280.047Z" fill="#14787F"/>
<path opacity="0.53" d="M256.951 280.271C256.86 280.307 256.748 280.291 256.668 280.219C238.506 264.328 208.041 252.775 207.733 252.659C207.59 252.603 207.518 252.444 207.57 252.3C207.622 252.156 207.785 252.084 207.929 252.136C208.237 252.252 238.793 263.837 257.035 279.796C257.151 279.896 257.163 280.071 257.063 280.187C257.031 280.223 256.995 280.247 256.951 280.263V280.271Z" fill="white"/>
<path d="M271.448 294.947C271.448 294.947 232.803 296.221 226.396 272.213C221.248 252.918 236.662 272.48 254.588 284.373C255.994 285.308 257.464 283.282 256.142 282.232C243.136 271.941 224.395 255.163 227.523 246.067C232.24 232.337 233.666 239.839 246.252 255.519C258.842 271.198 265.077 270.527 258.195 258.998C251.313 247.469 231.952 237.279 233.131 229.393C234.309 221.507 241.495 210.857 244.031 205.708C246.572 200.559 271.081 214.197 271.037 224.352C270.993 234.506 263.719 249.762 267.638 257.964C271.556 266.165 275.171 249.754 276.389 240.618C277.607 231.482 279.892 226.113 286.595 235.513C293.301 244.913 287.493 258.942 280.863 267.044C274.232 275.145 272.854 282.08 276.421 278.369C279.988 274.658 290.022 262.334 290.889 256.414C291.755 250.493 305.724 273.228 271.452 294.943L271.448 294.947Z" fill="#2A92A0"/>
<path opacity="0.53" d="M269.779 293.62C269.667 293.568 269.587 293.461 269.583 293.329C268.074 263.736 252.232 227.008 252.072 226.64C251.996 226.469 252.072 226.265 252.248 226.189C252.42 226.113 252.624 226.193 252.695 226.365C252.855 226.732 268.749 263.572 270.262 293.293C270.27 293.481 270.127 293.64 269.939 293.652C269.879 293.652 269.827 293.644 269.775 293.62H269.779Z" fill="white"/>
<path d="M504.871 287.894H336.654V254.222H504.867C501.269 254.222 501.269 287.894 504.867 287.894H504.871Z" fill="#BDD0FB"/>
<path d="M336.653 279.468V264.06C336.653 258.628 339.976 254.225 344.079 254.225H509.599C509.819 254.225 509.999 254.046 509.999 253.826V247.011C509.999 246.791 509.819 246.611 509.599 246.611H333.27C329.26 246.611 322.889 252.919 322.889 260.701V282.221C322.889 289.559 329.072 295.507 332.855 295.507H509.599C509.819 295.507 509.999 295.327 509.999 295.108V288.293C509.999 288.073 509.819 287.893 509.599 287.893H343.016C339.505 287.893 336.657 284.122 336.657 279.468H336.653Z" fill="#7D97F4"/>
<path d="M499.043 261.533H341.319C341.1 261.533 340.92 261.354 340.92 261.134C340.92 260.914 341.1 260.734 341.319 260.734H499.043C499.263 260.734 499.443 260.914 499.443 261.134C499.443 261.354 499.263 261.533 499.043 261.533Z" fill="url(#paint3_linear_512_2269)"/>
<path d="M499.043 266.529H341.319C341.1 266.529 340.92 266.35 340.92 266.13C340.92 265.91 341.1 265.731 341.319 265.731H499.043C499.263 265.731 499.443 265.91 499.443 266.13C499.443 266.35 499.263 266.529 499.043 266.529Z" fill="url(#paint4_linear_512_2269)"/>
<path d="M499.043 271.528H341.319C341.1 271.528 340.92 271.348 340.92 271.128C340.92 270.908 341.1 270.729 341.319 270.729H499.043C499.263 270.729 499.443 270.908 499.443 271.128C499.443 271.348 499.263 271.528 499.043 271.528Z" fill="url(#paint5_linear_512_2269)"/>
<path d="M499.043 276.525H341.319C341.1 276.525 340.92 276.345 340.92 276.125C340.92 275.905 341.1 275.726 341.319 275.726H499.043C499.263 275.726 499.443 275.905 499.443 276.125C499.443 276.345 499.263 276.525 499.043 276.525Z" fill="url(#paint6_linear_512_2269)"/>
<path d="M499.043 281.523H341.319C341.1 281.523 340.92 281.343 340.92 281.123C340.92 280.903 341.1 280.724 341.319 280.724H499.043C499.263 280.724 499.443 280.903 499.443 281.123C499.443 281.343 499.263 281.523 499.043 281.523Z" fill="url(#paint7_linear_512_2269)"/>
<path d="M378.882 246.841L503.997 246.841C506.968 246.841 509.377 244.432 509.377 241.46V219.421C509.377 216.449 506.968 214.04 503.997 214.04H378.882C375.911 214.04 373.502 216.449 373.502 219.421V241.46C373.502 244.432 375.911 246.841 378.882 246.841Z" fill="#4F52FF"/>
<path d="M494.022 217.807H478.061V243.07H494.022V217.807Z" fill="#7D97F4"/>
<path d="M475.712 217.807H469.725V243.07H475.712V217.807Z" fill="#7D97F4"/>
<path d="M469.481 214.248C469.461 214.248 469.438 214.248 469.418 214.248L441.457 214.216C440.766 214.216 440.207 213.652 440.207 212.961C440.207 212.27 440.77 211.699 441.461 211.711L469.422 211.743C470.113 211.743 470.672 212.306 470.672 212.997C470.672 213.668 470.145 214.212 469.481 214.248Z" fill="url(#paint8_linear_512_2269)"/>
<path d="M416.321 188.857H439.604C441.321 188.857 442.883 189.847 443.618 191.401L454.383 214.227H425.448C424.342 214.227 423.347 213.552 422.94 212.521L414.591 191.397C414.108 190.175 415.007 188.853 416.321 188.853V188.857Z" fill="url(#paint9_linear_512_2269)"/>
<path d="M432.723 200.562C433.227 202.128 432.855 203.654 431.892 203.961C430.93 204.273 429.736 203.254 429.232 201.684C428.729 200.118 429.1 198.592 430.063 198.285C431.026 197.973 432.22 198.992 432.723 200.562Z" fill="#7D97F4"/>
<path d="M69.7176 222.939C69.2948 212.556 68.3859 203.524 67.2963 197.226C65.5605 187.186 63.9969 181.409 63.9781 181.347C63.7496 180.464 60.4451 176.892 53.0993 177.003C45.7536 177.113 46.4493 181.797 46.4493 181.797C46.4493 181.956 46.4697 182.103 46.5021 182.213C46.5738 182.456 53.3159 206.907 53.0243 238.476C53.0209 238.92 52.9697 239.685 53.0021 240.197C53.0021 240.198 70.0263 240.637 70.0314 240.197C70.6248 237.438 70.3349 229.792 69.7176 222.939Z" fill="#B7D3F3"/>
<path d="M71.8549 238.321C71.8498 238.761 71.6179 239.112 71.3348 239.112H71.328C71.045 239.105 70.8199 238.754 70.8165 238.321H56.2273C56.2222 238.761 55.9903 239.112 55.7072 239.112H55.7004C55.4122 239.105 55.1837 238.742 55.1872 238.297C55.2724 229.26 54.7558 220.821 53.9765 213.373C52.0378 194.799 48.4519 182.386 48.4007 182.213C48.3683 182.103 48.3478 181.956 48.3478 181.797C48.3478 181.797 47.6504 177.112 54.9962 177.003C62.3436 176.892 65.6482 180.466 65.8767 181.349C65.8903 181.395 66.7753 184.665 67.9518 190.546C68.3423 192.494 68.7618 194.729 69.1949 197.226C70.2828 203.524 71.1933 212.556 71.6162 222.939C72.2334 229.794 72.45 235.566 71.8566 238.323L71.8549 238.321Z" fill="#D2E3FC"/>
<path d="M54.1057 239.113H111.306C111.306 239.113 109.975 233.723 76.8472 234.525C53.4049 235.092 54.1057 239.113 54.1057 239.113Z" fill="#C5DCF8"/>
<path d="M49.4512 295.418C56.0842 261.844 54.3773 241.241 54.3688 240.982C54.3517 240.465 55.3049 239.994 55.8182 239.979C56.3365 239.971 58.6265 239.827 58.8908 240.269C59.2387 240.849 60.5738 266.233 50.6891 295.418H49.4512Z" fill="#B7D3F3"/>
<path d="M102.859 295.418C96.2262 261.844 97.933 241.241 97.9416 240.982C97.9586 240.465 97.0054 239.994 96.4922 239.979C95.9738 239.971 93.6838 239.827 93.4195 240.269C93.0717 240.849 91.7366 266.233 101.621 295.418H102.859Z" fill="#B7D3F3"/>
<path d="M113.441 295.418C106.81 261.844 108.515 241.241 108.524 240.982C108.541 240.465 107.587 239.994 107.074 239.979C106.556 239.971 104.266 239.827 104.002 240.269C103.654 240.849 102.319 266.233 112.203 295.418H113.441Z" fill="#B7D3F3"/>
<path d="M60.1074 295.418C66.7404 261.844 65.0336 241.241 65.025 240.982C65.008 240.465 65.9612 239.994 66.4744 239.979C66.9928 239.971 69.2828 239.827 69.5471 240.269C69.8949 240.849 71.2301 266.233 61.3454 295.418H60.1074Z" fill="#B7D3F3"/>
<path d="M111.341 237.721H54.1402C53.4932 237.721 52.9688 238.245 52.9688 238.892V239.663C52.9688 240.31 53.4932 240.834 54.1402 240.834H111.341C111.988 240.834 112.512 240.31 112.512 239.663V238.892C112.512 238.245 111.988 237.721 111.341 237.721Z" fill="#B7D3F3"/>
<path d="M109.936 206.921H83.3789C83.3789 205.751 84.327 204.805 85.4967 204.805H109.936V206.921Z" fill="#3C3C3B"/>
<path d="M109.859 177.998H150.919L141.07 206.921H99.7441L109.859 177.998Z" fill="#3C3C3B"/>
<path d="M151.526 177.998L141.676 206.921H100.352L110.466 177.998H151.526Z" fill="#6B6B6B"/>
<path d="M129.387 192.193C129.131 193.297 128.029 194.194 126.924 194.194C125.82 194.194 125.131 193.299 125.385 192.193C125.641 191.088 126.742 190.192 127.847 190.192C128.952 190.192 129.641 191.088 129.387 192.193Z" fill="#D6D6D6"/>
<path d="M151.525 177.998L141.674 206.921H114.307C132.436 200.733 137.261 181.867 138.071 177.998H151.525Z" fill="#3C3C3B"/>
<path d="M32.3264 295.418C32.8464 295.418 33.2898 295.053 33.3784 294.555L38.5348 265.326L45.9521 223.287L48.0256 211.532L42.7431 211.382L41.8257 218.206L35.3888 266.161L31.5727 294.588C31.5147 295.029 31.866 295.42 32.3229 295.42L32.3264 295.418Z" fill="#9C4F5F"/>
<path d="M41.8262 218.205C45.2484 219.716 45.9526 223.286 45.9526 223.286L48.0261 211.531L42.7435 211.381L41.8262 218.205Z" fill="#81152B"/>
<path d="M163.734 295.418C163.214 295.418 162.771 295.053 162.682 294.555L157.526 265.326L150.109 223.287L148.035 211.532L153.318 211.382L154.235 218.206L160.672 266.161L164.488 294.588C164.546 295.029 164.195 295.42 163.736 295.42L163.734 295.418Z" fill="#9C4F5F"/>
<path d="M154.233 218.205C150.811 219.716 150.107 223.286 150.107 223.286L148.033 211.531L153.316 211.381L154.233 218.205Z" fill="#81152B"/>
<path d="M164.096 216.147L28.7996 216.147C27.0211 216.147 25.5769 214.702 25.5769 212.924V210.138C25.5769 208.359 27.0211 206.915 28.7996 206.915L164.096 206.915C165.874 206.915 167.318 208.359 167.318 210.138V212.924C167.318 214.702 165.874 216.147 164.096 216.147Z" fill="#9C4F5F"/>
<defs>
<linearGradient id="paint0_linear_512_2269" x1="203.404" y1="152.399" x2="204.511" y2="152.399" gradientUnits="userSpaceOnUse">
<stop stop-color="white"/>
<stop offset="1" stop-color="white"/>
</linearGradient>
<linearGradient id="paint1_linear_512_2269" x1="202.48" y1="100.331" x2="298.736" y2="100.331" gradientUnits="userSpaceOnUse">
<stop stop-color="white"/>
<stop offset="1" stop-color="white"/>
</linearGradient>
<linearGradient id="paint2_linear_512_2269" x1="219.774" y1="140.49" x2="442.174" y2="140.49" gradientUnits="userSpaceOnUse">
<stop stop-color="white"/>
<stop offset="1" stop-color="white"/>
</linearGradient>
<linearGradient id="paint3_linear_512_2269" x1="340.92" y1="261.134" x2="499.443" y2="261.134" gradientUnits="userSpaceOnUse">
<stop stop-color="#DAE3FE"/>
<stop offset="1" stop-color="#E9EFFD"/>
</linearGradient>
<linearGradient id="paint4_linear_512_2269" x1="340.92" y1="266.13" x2="499.443" y2="266.13" gradientUnits="userSpaceOnUse">
<stop stop-color="#DAE3FE"/>
<stop offset="1" stop-color="#E9EFFD"/>
</linearGradient>
<linearGradient id="paint5_linear_512_2269" x1="340.92" y1="271.128" x2="499.443" y2="271.128" gradientUnits="userSpaceOnUse">
<stop stop-color="#DAE3FE"/>
<stop offset="1" stop-color="#E9EFFD"/>
</linearGradient>
<linearGradient id="paint6_linear_512_2269" x1="340.92" y1="276.125" x2="499.443" y2="276.125" gradientUnits="userSpaceOnUse">
<stop stop-color="#DAE3FE"/>
<stop offset="1" stop-color="#E9EFFD"/>
</linearGradient>
<linearGradient id="paint7_linear_512_2269" x1="340.92" y1="281.123" x2="499.443" y2="281.123" gradientUnits="userSpaceOnUse">
<stop stop-color="#DAE3FE"/>
<stop offset="1" stop-color="#E9EFFD"/>
</linearGradient>
<linearGradient id="paint8_linear_512_2269" x1="474.253" y1="206.766" x2="452.057" y2="214.045" gradientUnits="userSpaceOnUse">
<stop stop-color="#09005D"/>
<stop offset="1" stop-color="#1A0F91"/>
</linearGradient>
<linearGradient id="paint9_linear_512_2269" x1="415.754" y1="203.19" x2="618.362" y2="186.144" gradientUnits="userSpaceOnUse">
<stop stop-color="#09005D"/>
<stop offset="1" stop-color="#1A0F91"/>
</linearGradient>
</defs>
</svg>
