<svg width="314" height="306" viewBox="0 0 314 306" fill="none" xmlns="http://www.w3.org/2000/svg">
<path d="M273.01 262.471C265.031 270.699 257.889 275.534 252.421 279.186C199.101 314.792 138.15 304.529 119.306 301.02C88.9018 295.36 63.238 291.37 41.1885 271.446C-8.91548 226.175 -6.47596 131.733 31.8095 73.2309C36.347 66.2944 74.5762 9.62016 135.658 1.63645C137.152 1.44127 138.266 1.32866 139.242 1.22732C148.693 0.225133 207.249 -5.0523 254.992 34.9526C261.826 40.6804 272.827 51.0101 283.024 66.7636C320.318 124.369 320.435 213.582 273.007 262.475L273.01 262.471Z" fill="#DAE3FE"/>
<path d="M290.212 220.851C290.212 223.539 288.013 225.735 285.325 225.735H21.0278C18.3405 225.735 16.1412 223.539 16.1412 220.851L13.9419 68.9507C13.9419 66.2632 17.1058 61.0233 22.9043 61.4136L281.204 54.7287C284.578 54.6423 287.84 55.941 290.227 58.3208C292.614 60.7005 293.924 63.9585 293.841 67.3254L290.212 220.848V220.851Z" fill="#3C3C3B"/>
<path d="M285.389 216.167C285.389 218.712 283.31 220.791 280.765 220.791H27.4044C24.8598 220.791 22.7805 218.712 22.7805 216.167L20.7051 78.2706C20.949 69.9716 28.2226 66.9913 32.6325 67.1677L280.195 60.524C282.563 60.4602 284.856 61.3723 286.534 63.0463C288.212 64.7204 289.127 67.01 289.067 69.3823L285.385 216.167H285.389Z" fill="#D2E6F4"/>
<path d="M25.5175 150.413C25.281 150.413 25.0859 150.221 25.0821 149.981L24.917 138.799C24.917 138.559 25.1046 138.36 25.3486 138.356C25.5813 138.345 25.7877 138.544 25.7915 138.788L25.9566 149.97C25.9566 150.21 25.7689 150.409 25.525 150.413H25.5175Z" fill="url(#paint0_linear_512_913)"/>
<path d="M25.1147 123.009C24.8783 123.009 24.6831 122.817 24.6794 122.577L24.0488 79.7456C24.0601 76.8667 24.9496 74.5658 26.6873 72.8992C29.8436 69.8739 34.7827 70.0241 34.9891 70.0353L114.041 67.9146C114.281 67.8921 114.484 68.0985 114.487 68.3387C114.495 68.579 114.304 68.7817 114.063 68.7854L34.9854 70.9061C34.7602 70.8986 30.1814 70.756 27.2878 73.5298C25.7265 75.0237 24.9308 77.1144 24.9195 79.7419L25.5501 122.566C25.5501 122.806 25.3624 123.005 25.1185 123.009H25.111H25.1147Z" fill="url(#paint1_linear_512_913)"/>
<path d="M40.7312 189.289C40.9564 179.628 40.8738 94.0592 40.3183 86.6723C39.7629 79.2817 51.2736 77.8966 68.9395 77.0633C86.6092 76.2301 235.683 72.9382 239.518 72.6267C248.147 71.9285 249.933 84.8256 249.07 112.823C248.421 133.858 247.347 168.51 246.852 184.444C246.706 189.188 242.829 192.953 238.081 192.968C202.209 193.065 64.7173 193.46 55.5634 193.734C45.0322 194.049 40.6411 193.118 40.7312 189.289Z" fill="url(#paint2_linear_512_913)"/>
<path d="M304.98 238.346H6.73162C3.06108 238.346 0.0585938 235.344 0.0585938 231.673C0.0585938 228.002 3.06108 224.999 6.73162 224.999H304.98C308.65 224.999 311.653 228.002 311.653 231.673C311.653 235.344 308.65 238.346 304.98 238.346Z" fill="#3C3C3B"/>
<path d="M151.002 10.5251C152.218 9.33151 153.884 8.6784 155.588 8.71219L273.721 11.0469C277.174 11.1144 280.037 13.9333 280.037 17.3903V32.7609C280.037 36.2442 277.136 39.0781 273.653 39.1043L172.811 39.8663C168.623 42.7265 159.157 49.7831 155.265 52.707C155.018 52.8947 154.665 52.8985 154.41 52.7258C154.154 52.5494 154.034 52.2303 154.121 51.9301L157.573 39.9827L155.535 39.9977C153.847 40.0089 152.176 39.3483 150.975 38.1584C149.774 36.9686 149.058 35.3471 149.058 33.6542V15.0556C149.058 13.3515 149.786 11.7187 151.002 10.5251Z" fill="#2BA7F1"/>
<path d="M274.408 19.7736C274.408 19.4621 274.157 19.2106 273.845 19.2106H190.902C190.59 19.2106 190.339 19.4621 190.339 19.7736C190.339 20.0851 190.59 20.3366 190.902 20.3366H273.845C274.157 20.3366 274.408 20.0851 274.408 19.7736Z" fill="url(#paint3_linear_512_913)"/>
<path d="M241.005 30.6588C241.005 30.3472 240.754 30.0958 240.442 30.0958H157.499C157.187 30.0958 156.936 30.3472 156.936 30.6588C156.936 30.9703 157.187 31.2218 157.499 31.2218H240.442C240.754 31.2218 241.005 30.9703 241.005 30.6588Z" fill="url(#paint4_linear_512_913)"/>
<path d="M183.958 19.7736C183.958 19.4621 183.707 19.2106 183.395 19.2106H156.748C156.437 19.2106 156.185 19.4621 156.185 19.7736C156.185 20.0851 156.437 20.3366 156.748 20.3366H183.395C183.707 20.3366 183.958 20.0851 183.958 19.7736Z" fill="url(#paint5_linear_512_913)"/>
<path d="M205.726 25.4038C205.726 25.0923 205.474 24.8408 205.163 24.8408H178.516C178.204 24.8408 177.953 25.0923 177.953 25.4038C177.953 25.7154 178.204 25.9669 178.516 25.9669H205.163C205.474 25.9669 205.726 25.7154 205.726 25.4038Z" fill="url(#paint6_linear_512_913)"/>
<path d="M274.407 25.4038C274.407 25.0923 274.156 24.8408 273.844 24.8408H212.669C212.357 24.8408 212.106 25.0923 212.106 25.4038C212.106 25.7154 212.357 25.9669 212.669 25.9669H273.844C274.156 25.9669 274.407 25.7154 274.407 25.4038Z" fill="url(#paint7_linear_512_913)"/>
<path d="M173.449 25.4038C173.449 25.0923 173.198 24.8408 172.886 24.8408H156.373C156.061 24.8408 155.81 25.0923 155.81 25.4038C155.81 25.7154 156.061 25.9669 156.373 25.9669H172.886C173.198 25.9669 173.449 25.7154 173.449 25.4038Z" fill="url(#paint8_linear_512_913)"/>
<path d="M275.158 31.4095C275.158 31.098 274.906 30.8465 274.595 30.8465H258.081C257.77 30.8465 257.518 31.098 257.518 31.4095C257.518 31.721 257.77 31.9725 258.081 31.9725H274.595C274.906 31.9725 275.158 31.721 275.158 31.4095Z" fill="url(#paint9_linear_512_913)"/>
<path d="M76.8518 266.207C76.8518 266.207 56.9678 288.131 40.3603 278.864C27.0143 271.417 45.975 273.361 62.0608 269.844C63.3219 269.566 62.9916 267.682 61.7118 267.851C49.1276 269.521 29.9267 270.884 26.5902 264.323C21.5535 254.417 26.4363 257.63 41.7603 259.06C57.0842 260.49 60.0379 256.707 50.0321 254.35C40.0301 251.992 24.1169 257.206 20.4126 252.357C16.7045 247.511 14.6816 237.887 13.2029 233.75C11.7241 229.614 32.2761 223.402 37.8345 228.837C43.3891 234.268 47.9041 246.396 54.4983 248.611C61.0925 250.825 53.9991 240.098 49.6268 234.561C45.2544 229.025 43.5205 224.911 52.2577 226.232C60.9949 227.553 65.615 238.217 66.5345 246.178C67.454 254.139 70.5316 258.591 70.3927 254.654C70.2538 250.716 68.8239 238.637 66.0316 235.008C63.2393 231.378 83.172 235.807 76.8556 266.215L76.8518 266.207Z" fill="#14787F"/>
<path opacity="0.53" d="M75.2341 266.417C75.1478 266.451 75.0427 266.436 74.9676 266.368C57.9023 251.437 29.2773 240.582 28.9883 240.473C28.8532 240.42 28.7856 240.27 28.8344 240.135C28.8832 240 29.0371 239.932 29.1722 239.981C29.4612 240.09 58.1725 250.975 75.3129 265.97C75.4218 266.064 75.433 266.229 75.3392 266.338C75.3092 266.372 75.2754 266.394 75.2341 266.409V266.417Z" fill="white"/>
<path d="M88.8575 280.207C88.8575 280.207 52.5461 281.404 46.5262 258.845C41.6884 240.716 56.1716 259.097 73.0156 270.271C74.3367 271.149 75.7178 269.246 74.4756 268.259C62.2554 258.59 44.6459 242.825 47.5845 234.279C52.017 221.378 53.3568 228.427 65.1829 243.16C77.0127 257.892 82.8713 257.262 76.4046 246.429C69.938 235.596 51.7467 226.021 52.8539 218.612C53.9611 211.202 60.7129 201.195 63.0961 196.357C65.4831 191.519 88.5122 204.333 88.4709 213.875C88.4296 223.416 81.5952 237.751 85.277 245.457C88.9588 253.163 92.3554 237.743 93.5001 229.159C94.6448 220.575 96.7915 215.53 103.089 224.362C109.391 233.194 103.934 246.376 97.7035 253.988C91.4734 261.601 90.1786 268.117 93.5301 264.63C96.8816 261.143 106.309 249.563 107.124 244C107.938 238.438 121.063 259.799 88.8612 280.203L88.8575 280.207Z" fill="#2A92A0"/>
<path opacity="0.53" d="M87.2884 278.96C87.1833 278.911 87.1082 278.81 87.1045 278.686C85.6858 250.88 70.801 216.371 70.6508 216.025C70.5795 215.864 70.6508 215.672 70.816 215.601C70.9774 215.53 71.1688 215.605 71.2363 215.766C71.3865 216.112 86.3201 250.726 87.7425 278.653C87.75 278.829 87.6149 278.979 87.4385 278.99C87.3822 278.99 87.3334 278.983 87.2846 278.96H87.2884Z" fill="white"/>
<mask id="mask0_512_913" style="mask-type:alpha" maskUnits="userSpaceOnUse" x="40" y="25" width="233" height="169">
<path d="M40.7308 189.289C40.956 179.627 40.8734 94.0585 40.3179 86.6716C39.7625 79.281 91.7736 26.1206 109.439 25.2873C127.109 24.454 264.665 68.305 268.501 67.9935C277.129 67.2954 269.364 85.3174 268.501 113.315C267.851 134.349 247.347 168.509 246.851 184.443C246.705 189.187 242.828 192.952 238.08 192.967C202.208 193.065 64.7169 193.459 55.5631 193.733C45.0318 194.048 40.6407 193.117 40.7308 189.289Z" fill="url(#paint10_linear_512_913)"/>
</mask>
<g mask="url(#mask0_512_913)">
<path d="M79.1711 169.82C75.8045 173.416 70.8429 176.524 67.3525 178.461C72.5656 184.906 79.6177 191.354 88.9517 197.671L91.6239 203.669L100.185 193.407C100.185 193.407 84.8233 185.761 79.1673 169.82H79.1711Z" fill="#E0A683"/>
<path d="M134.09 191.267C134.09 191.267 151.099 255.91 150.792 337.256C150.788 338.739 149.745 340.019 148.292 340.326C146.153 340.777 143.011 341.31 140.407 341.239C139.018 341.201 137.855 340.169 137.622 338.799C135.239 324.813 121.551 246.02 113.756 233.228C113.756 233.228 108.625 303.403 110.266 339.812C110.307 340.717 109.643 341.501 108.742 341.606C107.376 341.764 105.191 341.884 102.41 341.588C101.356 341.475 100.504 340.679 100.354 339.628C98.6535 327.79 88.8766 257.333 89.2932 206.574C89.3157 203.71 96.8632 191.267 96.8632 191.267H134.087H134.09Z" fill="url(#paint11_linear_512_913)"/>
<path d="M157.742 113.034C154.984 109.573 152.563 105.865 150.54 102.044C147.714 96.706 150.311 105.501 149.541 99.4724C128.385 84.2031 96.5288 91.9316 84.2074 93.4855C80.1653 93.996 76.4722 95.9854 73.8075 99.067C63.25 111.288 40.0784 144.747 67.3522 178.461C70.8426 176.524 75.8004 173.416 79.1707 169.821C76.1532 161.315 75.9055 150.445 82.2295 137.113C82.4472 138.171 82.7136 139.215 83.0364 140.243C91.7511 167.858 92.2165 190.836 92.1978 196.133C92.1978 196.853 92.6256 197.499 93.2937 197.765C104.763 202.364 126.843 199.627 134.255 198.52C135.614 198.317 136.529 197.052 136.342 195.69C132.705 169.333 151.373 125.972 156.305 115.113C156.657 114.333 157.149 113.627 157.742 113.026V113.034Z" fill="#2B93A1"/>
<path d="M104.035 71.2869L101.824 93.8755C101.824 93.8755 114.529 97.7041 123.773 91.1805L117.276 70.6526L104.035 71.2869Z" fill="#E0A683"/>
<path d="M118.779 45.542C119.086 45.831 131.686 70.5779 131.686 70.5779L117.405 77.4731L101.98 55.7928C101.98 55.7928 113.663 40.7225 118.782 45.542H118.779Z" fill="#E0A683"/>
<path d="M108.296 56.3935C108.041 57.0541 108.104 57.7898 108.468 58.3941L115.592 70.2702C115.701 70.4503 115.828 70.6117 115.982 70.7581C116.83 71.5464 119.731 73.8435 121.972 70.7168C123.882 68.0518 125.676 65.6308 127.598 64.6324C128.72 64.0506 130.101 64.516 130.672 65.6458C131.846 67.973 134.117 72.7137 135.547 77.2104C135.904 78.3365 135.322 79.5488 134.226 79.9917C131.336 81.1628 125.62 83.2836 120.546 83.9817C119.713 84.0981 118.887 83.7453 118.392 83.0659C116.211 80.0781 110.06 71.7228 107.962 69.6321C106.01 67.6878 102.411 68.4234 100.79 68.8889C100.174 69.0653 99.5172 68.979 98.9693 68.6487C97.3254 67.6577 94.4543 65.1879 97.0777 61.0103C97.7307 59.9705 97.3967 58.5855 96.3721 57.9136C94.5368 56.705 92.5402 54.4379 94.4393 50.7632C96.3608 47.0435 99.7949 46.7094 102.133 46.9947C103.169 47.1223 104.22 46.578 104.614 45.6134C104.79 45.1855 105.139 44.8176 105.789 44.6863C107.016 44.4385 107.819 43.3162 107.579 42.0888C107.166 39.9831 107.478 37.2506 110.837 35.4038C116.999 32.0144 122.396 37.5358 123.77 42.1977C125.143 46.8595 118.253 50.1514 113.918 50.7031C110.735 51.1085 108.99 54.5805 108.288 56.3972L108.296 56.3935Z" fill="#263238"/>
<path d="M110.637 73.986C110.637 73.986 107.897 65.9685 104.388 66.2613C100.879 66.5541 98.1206 70.0486 102.467 73.9785C107.875 78.8656 110.633 73.986 110.633 73.986H110.637Z" fill="#E0A683"/>
<path d="M81.0734 135.048C76.4496 122.395 78.1272 107.114 78.146 106.96L79.4183 107.107C79.4033 107.257 77.7594 122.245 82.2782 134.605L81.0734 135.044V135.048Z" fill="#167A88"/>
<path d="M200.688 120.14C176.762 123.732 161.164 108.631 149.545 99.4727C134.202 87.3789 122.263 93.2644 122.263 93.2644L138.627 124.497C163.063 147.54 188.115 142.42 203.908 134.955C204.152 128.923 202.538 123.874 200.688 120.143V120.14Z" fill="#2B93A1"/>
<path d="M234.316 105.862L226.382 110.133C216.864 115.929 208.352 118.992 200.688 120.14C202.538 123.871 204.148 128.92 203.908 134.952C213.962 130.2 220.264 124.494 220.264 124.494C238.238 113.774 234.316 105.866 234.316 105.866V105.862Z" fill="#E0A683"/>
<path d="M257.694 117.042C257.184 115.338 255.923 113.96 254.272 113.296L238.167 106.821C238.167 106.821 237.923 104.757 241.571 103.353C245.215 101.949 244.363 97.8651 244.363 97.8651C244.363 97.8651 239.383 100.136 232.091 103.739C227.921 105.8 225.583 109.441 224.341 112.177L228.488 117.631C238.415 120.611 248.454 121.182 258.584 120L257.694 117.042Z" fill="#E0A683"/>
</g>
<path d="M308.183 271.7H150.125V240.062H308.179C304.798 240.062 304.798 271.7 308.179 271.7H308.183Z" fill="#BDD0FB"/>
<path d="M150.125 263.784V249.307C150.125 244.202 153.247 240.066 157.102 240.066H312.627C312.833 240.066 313.002 239.897 313.002 239.69V233.287C313.002 233.08 312.833 232.911 312.627 232.911H146.946C143.178 232.911 137.191 238.838 137.191 246.15V266.37C137.191 273.265 143.001 278.854 146.555 278.854H312.627C312.833 278.854 313.002 278.685 313.002 278.479V272.076C313.002 271.869 312.833 271.7 312.627 271.7H156.103C152.804 271.7 150.128 268.157 150.128 263.784H150.125Z" fill="#7D97F4"/>
<path d="M302.706 246.932H154.507C154.301 246.932 154.132 246.763 154.132 246.556C154.132 246.35 154.301 246.181 154.507 246.181H302.706C302.913 246.181 303.082 246.35 303.082 246.556C303.082 246.763 302.913 246.932 302.706 246.932Z" fill="url(#paint12_linear_512_913)"/>
<path d="M302.706 251.627H154.507C154.301 251.627 154.132 251.458 154.132 251.251C154.132 251.045 154.301 250.876 154.507 250.876H302.706C302.913 250.876 303.082 251.045 303.082 251.251C303.082 251.458 302.913 251.627 302.706 251.627Z" fill="url(#paint13_linear_512_913)"/>
<path d="M302.706 256.322H154.507C154.301 256.322 154.132 256.153 154.132 255.947C154.132 255.741 154.301 255.572 154.507 255.572H302.706C302.913 255.572 303.082 255.741 303.082 255.947C303.082 256.153 302.913 256.322 302.706 256.322Z" fill="url(#paint14_linear_512_913)"/>
<path d="M302.706 261.018H154.507C154.301 261.018 154.132 260.849 154.132 260.643C154.132 260.436 154.301 260.267 154.507 260.267H302.706C302.913 260.267 303.082 260.436 303.082 260.643C303.082 260.849 302.913 261.018 302.706 261.018Z" fill="url(#paint15_linear_512_913)"/>
<path d="M302.706 265.714H154.507C154.301 265.714 154.132 265.545 154.132 265.338C154.132 265.132 154.301 264.963 154.507 264.963H302.706C302.913 264.963 303.082 265.132 303.082 265.338C303.082 265.545 302.913 265.714 302.706 265.714Z" fill="url(#paint16_linear_512_913)"/>
<path d="M189.802 233.127L307.361 233.127C310.153 233.127 312.416 230.863 312.416 228.071V207.363C312.416 204.57 310.153 202.307 307.361 202.307H189.802C187.01 202.307 184.747 204.57 184.747 207.363V228.071C184.747 230.863 187.01 233.127 189.802 233.127Z" fill="#4F52FF"/>
<path d="M297.989 205.846H282.992V229.583H297.989V205.846Z" fill="#7D97F4"/>
<path d="M280.785 205.846H275.159V229.583H280.785V205.846Z" fill="#7D97F4"/>
<path d="M229.058 235.432C229.107 235.413 254.868 190.292 258.351 186.043C258.937 185.33 259.845 184.966 260.761 185.075L267.952 185.93L276.4 204.21L262.326 196.012C263.718 205.644 245.639 219.96 239.439 225.185C238.809 225.714 238.76 226.664 239.327 227.26L241.804 229.85C237.739 233.972 233.051 236.614 227.756 237.838L229.062 235.432H229.058Z" fill="#F9BC97"/>
<path d="M240.367 228.454C240.367 228.454 241.947 228.964 242.48 230.372C242.735 231.044 242.461 231.81 241.875 232.226C239.275 234.092 230.691 240.109 226.732 241.287C226.409 241.385 226.097 241.088 226.172 240.758C226.375 239.838 227.032 237.999 229.152 235.312L228.961 235.694C228.721 236.182 229.25 236.689 229.723 236.419C232.373 234.925 237.766 231.652 240.367 228.45V228.454Z" fill="url(#paint17_linear_512_913)"/>
<path d="M239.094 246.508C239.139 246.482 243.001 237.165 243.046 237.139C246.589 215.56 255.236 197.078 257.788 192.213C258.216 191.395 259.03 190.855 259.95 190.776L267.167 190.16L279.14 206.349L263.699 201.169C267.013 210.32 252.204 227.999 247.189 234.369C246.679 235.015 246.822 235.957 247.497 236.422L250.447 238.46C247.302 243.317 243.245 246.857 238.31 249.128L239.101 246.504L239.094 246.508Z" fill="#F9BC97"/>
<path d="M234.281 225.013C235.883 227.784 238.355 228.159 242.19 226.212C242.296 222.182 261.202 210.888 262.312 196.897C264.065 198.679 287.014 210.756 299.133 207.536C311.253 204.317 302.251 190.309 300.573 188.032L284.26 185.559C282.282 185.259 271.826 184.179 264.486 182.561C257.145 180.942 254.988 185.166 253.055 187.908C251.509 190.101 239.894 213.558 234.281 225.013Z" fill="#1D1D1B"/>
<path d="M241.5 234.5C243.5 237 246 237 249.5 234.5C249 230.5 266 216.5 265 202.5C267 204 291.5 212.5 303 207.5C314.5 202.5 303.5 190 301.5 188H285C283 188 272.5 188.5 265 188C257.5 187.5 256 192 254.5 195C253.3 197.4 245.333 222.334 241.5 234.5Z" fill="#535251"/>
<path d="M248.755 237.384C248.755 237.384 250.406 237.564 251.213 238.833C251.6 239.441 251.484 240.244 250.996 240.773C248.826 243.127 241.639 250.754 237.999 252.713C237.702 252.875 237.338 252.649 237.342 252.311C237.353 251.369 237.627 249.436 239.155 246.373L239.046 246.79C238.907 247.316 239.53 247.702 239.939 247.346C242.228 245.345 246.852 241.047 248.751 237.388L248.755 237.384Z" fill="url(#paint18_linear_512_913)"/>
<path d="M274.911 132.352C274.911 132.352 279.456 126.974 284.29 133.572C285.164 134.77 288.527 133.783 289.762 136.282C290.4 137.574 291.773 138.309 293.188 138.047C296.716 137.397 302.481 137.341 305.326 142.87C307.499 147.089 305.821 149.559 303.648 150.966C302.053 151.998 301.483 154.1 302.447 155.737C303.374 157.31 303.547 159.434 301.156 161.998C295.804 167.737 285.206 158.357 285.206 158.357L276.791 138.471L274.907 132.352H274.911Z" fill="#3C3C3B"/>
<path d="M283.288 185.464C283.288 185.464 275.688 178.224 271.946 173.431C269.923 170.841 269.289 167.429 270.223 164.276C271.931 158.522 274.967 152.557 275.245 151.63C275.669 150.208 284.192 150.268 284.192 150.268C284.192 150.268 300.965 161.153 307.552 179.594L300.151 181.899C300.151 181.899 295.771 174.549 291.443 169.88C291.443 169.88 298.931 179.77 299.194 183.82L283.284 185.464H283.288Z" fill="#F77C7C"/>
<path d="M268.805 188.321L274.517 182.105L281.115 183.881C281.115 183.881 288.805 185.071 293.208 183.881L297.61 182.691L307.556 179.594L309.117 184.008C309.515 185.131 309.117 186.373 308.145 187.064C307.286 187.676 306.276 188.347 305.634 188.629C304.325 189.203 275.459 188.809 275.459 188.809L268.805 188.321Z" fill="#F9BC97"/>
<path d="M278.334 140.021L284.061 150.673C283.682 153.001 277.827 153.064 276.923 151.676C276.829 151.533 276.776 151.372 276.742 151.206L273.316 144.09C273.169 143.395 275.072 141.057 275.699 140.723L277.977 139.511C278.855 139.045 275.196 139.008 278.338 140.021H278.334Z" fill="#F9BC97"/>
<path d="M266.741 137.521C266.741 137.521 266.095 141.12 268.922 145.696C271.751 150.271 274.566 150.065 275.996 148.432C277.426 146.799 279.141 144.082 278.361 139.518C277.58 134.953 267.713 132.93 266.737 137.521H266.741Z" fill="#F9BC97"/>
<path d="M274.941 140.013C274.941 140.013 270.362 133.996 266.845 139.24L266.905 141.053C266.905 141.053 262.334 140.839 262.83 136.624C263.325 132.409 267.059 129.53 272.235 130.971C277.41 132.412 280.435 134.053 281.017 137.645C281.603 141.237 278.668 140.651 278.668 140.651C278.668 140.651 277.545 138.17 276.194 138.001C274.839 137.832 275.331 139.792 275.331 139.792L274.945 140.013H274.941Z" fill="#3C3C3B"/>
<path d="M275.992 139.856C275.992 139.856 273.62 136.778 275.778 136.136C277.936 135.498 277.857 139.154 277.715 140.513L275.988 139.852L275.992 139.856Z" fill="#F9BC97"/>
<path d="M287.713 190.784C287.694 190.784 287.672 190.784 287.653 190.784L261.381 190.754C260.732 190.754 260.206 190.225 260.206 189.575C260.206 188.926 260.735 188.389 261.385 188.401L287.657 188.431C288.306 188.431 288.831 188.96 288.831 189.609C288.831 190.24 288.336 190.75 287.713 190.784Z" fill="url(#paint19_linear_512_913)"/>
<path d="M237.762 166.927H259.639C261.253 166.927 262.72 167.857 263.411 169.318L273.526 190.765H246.338C245.299 190.765 244.364 190.131 243.981 189.162L236.137 169.314C235.683 168.165 236.527 166.923 237.762 166.923V166.927Z" fill="url(#paint20_linear_512_913)"/>
<path d="M253.176 177.924C253.649 179.396 253.3 180.83 252.395 181.119C251.491 181.411 250.368 180.454 249.895 178.979C249.423 177.508 249.772 176.074 250.676 175.785C251.581 175.492 252.703 176.449 253.176 177.924Z" fill="#7D97F4"/>
<defs>
<linearGradient id="paint0_linear_512_913" x1="24.917" y1="144.384" x2="25.9566" y2="144.384" gradientUnits="userSpaceOnUse">
<stop stop-color="white"/>
<stop offset="1" stop-color="white"/>
</linearGradient>
<linearGradient id="paint1_linear_512_913" x1="24.0488" y1="95.4616" x2="114.491" y2="95.4616" gradientUnits="userSpaceOnUse">
<stop stop-color="white"/>
<stop offset="1" stop-color="white"/>
</linearGradient>
<linearGradient id="paint2_linear_512_913" x1="40.2996" y1="133.197" x2="249.269" y2="133.197" gradientUnits="userSpaceOnUse">
<stop stop-color="white"/>
<stop offset="1" stop-color="white"/>
</linearGradient>
<linearGradient id="paint3_linear_512_913" x1="190.339" y1="19.7736" x2="274.408" y2="19.7736" gradientUnits="userSpaceOnUse">
<stop stop-color="#DAE3FE"/>
<stop offset="1" stop-color="#E9EFFD"/>
</linearGradient>
<linearGradient id="paint4_linear_512_913" x1="156.936" y1="30.6588" x2="241.005" y2="30.6588" gradientUnits="userSpaceOnUse">
<stop stop-color="#DAE3FE"/>
<stop offset="1" stop-color="#E9EFFD"/>
</linearGradient>
<linearGradient id="paint5_linear_512_913" x1="156.185" y1="19.7736" x2="183.958" y2="19.7736" gradientUnits="userSpaceOnUse">
<stop stop-color="#DAE3FE"/>
<stop offset="1" stop-color="#E9EFFD"/>
</linearGradient>
<linearGradient id="paint6_linear_512_913" x1="177.953" y1="25.4038" x2="205.726" y2="25.4038" gradientUnits="userSpaceOnUse">
<stop stop-color="#DAE3FE"/>
<stop offset="1" stop-color="#E9EFFD"/>
</linearGradient>
<linearGradient id="paint7_linear_512_913" x1="212.106" y1="25.4038" x2="274.407" y2="25.4038" gradientUnits="userSpaceOnUse">
<stop stop-color="#DAE3FE"/>
<stop offset="1" stop-color="#E9EFFD"/>
</linearGradient>
<linearGradient id="paint8_linear_512_913" x1="155.81" y1="25.4038" x2="173.449" y2="25.4038" gradientUnits="userSpaceOnUse">
<stop stop-color="#DAE3FE"/>
<stop offset="1" stop-color="#E9EFFD"/>
</linearGradient>
<linearGradient id="paint9_linear_512_913" x1="257.518" y1="31.4095" x2="275.158" y2="31.4095" gradientUnits="userSpaceOnUse">
<stop stop-color="#DAE3FE"/>
<stop offset="1" stop-color="#E9EFFD"/>
</linearGradient>
<linearGradient id="paint10_linear_512_913" x1="40.2986" y1="133.195" x2="249.268" y2="133.195" gradientUnits="userSpaceOnUse">
<stop stop-color="white"/>
<stop offset="1" stop-color="white"/>
</linearGradient>
<linearGradient id="paint11_linear_512_913" x1="201.399" y1="144.337" x2="50.9626" y2="377.749" gradientUnits="userSpaceOnUse">
<stop stop-color="#09005D"/>
<stop offset="1" stop-color="#1A0F91"/>
</linearGradient>
<linearGradient id="paint12_linear_512_913" x1="154.132" y1="246.556" x2="303.082" y2="246.556" gradientUnits="userSpaceOnUse">
<stop stop-color="#DAE3FE"/>
<stop offset="1" stop-color="#E9EFFD"/>
</linearGradient>
<linearGradient id="paint13_linear_512_913" x1="154.132" y1="251.251" x2="303.082" y2="251.251" gradientUnits="userSpaceOnUse">
<stop stop-color="#DAE3FE"/>
<stop offset="1" stop-color="#E9EFFD"/>
</linearGradient>
<linearGradient id="paint14_linear_512_913" x1="154.132" y1="255.947" x2="303.082" y2="255.947" gradientUnits="userSpaceOnUse">
<stop stop-color="#DAE3FE"/>
<stop offset="1" stop-color="#E9EFFD"/>
</linearGradient>
<linearGradient id="paint15_linear_512_913" x1="154.132" y1="260.643" x2="303.082" y2="260.643" gradientUnits="userSpaceOnUse">
<stop stop-color="#DAE3FE"/>
<stop offset="1" stop-color="#E9EFFD"/>
</linearGradient>
<linearGradient id="paint16_linear_512_913" x1="154.132" y1="265.338" x2="303.082" y2="265.338" gradientUnits="userSpaceOnUse">
<stop stop-color="#DAE3FE"/>
<stop offset="1" stop-color="#E9EFFD"/>
</linearGradient>
<linearGradient id="paint17_linear_512_913" x1="218.141" y1="189.241" x2="255.525" y2="296.435" gradientUnits="userSpaceOnUse">
<stop stop-color="#09005D"/>
<stop offset="1" stop-color="#1A0F91"/>
</linearGradient>
<linearGradient id="paint18_linear_512_913" x1="223.943" y1="187.218" x2="261.328" y2="294.412" gradientUnits="userSpaceOnUse">
<stop stop-color="#09005D"/>
<stop offset="1" stop-color="#1A0F91"/>
</linearGradient>
<linearGradient id="paint19_linear_512_913" x1="292.196" y1="183.754" x2="271.34" y2="190.594" gradientUnits="userSpaceOnUse">
<stop stop-color="#09005D"/>
<stop offset="1" stop-color="#1A0F91"/>
</linearGradient>
<linearGradient id="paint20_linear_512_913" x1="237.229" y1="180.394" x2="427.602" y2="164.378" gradientUnits="userSpaceOnUse">
<stop stop-color="#09005D"/>
<stop offset="1" stop-color="#1A0F91"/>
</linearGradient>
</defs>
</svg>
