<svg width="18" height="18" viewBox="0 0 18 18" fill="none" xmlns="http://www.w3.org/2000/svg">
<path d="M1 9C1 4.58172 4.58075 1 9 1C13.4183 1 17 4.58075 17 9C17 13.4183 13.4192 17 9 17C4.58172 17 1 13.4192 1 9Z" stroke="#7ED60F" stroke-width="1.5"/>
<path d="M7.79633 12.1317C7.76675 12.1613 7.73352 12.185 7.69811 12.2029C7.55439 12.2761 7.37411 12.2526 7.25307 12.1315L4.61245 9.49091C4.46254 9.34101 4.46273 9.09778 4.61173 8.94878L4.88327 8.67724C5.03278 8.52773 5.27488 8.52744 5.4254 8.67796L7.52478 10.7773L12.267 6.03512C12.4168 5.88531 12.66 5.88558 12.809 6.03457L13.0805 6.30612C13.23 6.45562 13.2295 6.6985 13.08 6.84807L7.79633 12.1317Z" fill="#7ED60F" stroke="#7ED60F" stroke-width="0.467059"/>
</svg>
