<svg width="81" height="81" viewBox="0 0 81 81" fill="none" xmlns="http://www.w3.org/2000/svg">
<circle cx="40.8281" cy="40.6865" r="40" fill="#55C483"/>
<path d="M35.439 80.3283L20.1826 61.0235L34.418 51.0495L62.0468 34.3334L78.5499 54.0153C72.5773 70.533 58.5369 79.3064 43.6461 80.6167C40.3638 80.9055 36.4454 80.4094 35.439 80.3283Z" fill="#47B876"/>
<path d="M61.8065 59.9384C61.8065 60.4628 61.6316 60.8999 61.282 61.2495C60.9324 61.5117 60.5828 61.6865 60.0583 61.6865H21.5983C21.1613 61.6865 20.7242 61.5116 20.3745 61.2495C20.0248 60.8998 19.8501 60.4628 19.8501 59.9384V34.3275H61.8065V59.9384Z" fill="#FFD15C"/>
<path d="M61.282 61.2495C60.9324 61.5117 60.5828 61.6865 60.0583 61.6865H21.5983C21.1613 61.6865 20.7242 61.5117 20.3745 61.2495L40.8282 43.6803L61.282 61.2495Z" fill="#F8B64C"/>
<path d="M61.8065 34.3275L55.8626 38.6105L41.9646 48.5752C41.2653 49.0996 40.3038 49.0996 39.6046 48.5752L25.7939 38.6105L19.8501 34.3275L25.7939 30.0444L38.7305 20.7791L39.692 20.0798C40.3912 19.5554 41.3527 19.5554 42.052 20.0798L43.0135 20.7791L49.2196 25.2369L52.2789 27.4221L55.8626 30.0444L61.8065 34.3275Z" fill="#40596B"/>
<path d="M55.8627 26.1985V38.6105L41.9646 48.5752C41.2654 49.0996 40.3038 49.0996 39.6046 48.5752L25.7939 38.6105V22.5273C25.7939 21.5657 26.5806 20.7791 27.5421 20.7791H50.3559L55.8627 26.1985Z" fill="#F2F2F2"/>
<path d="M50.4434 24.7999C50.4434 25.5866 51.0553 26.1985 51.842 26.1985H55.8627L50.4434 20.7791L50.4434 24.7999Z" fill="#CDD6E0"/>
<path d="M45.9853 38.3483H47.3838C46.9468 39.3098 46.2475 40.0091 45.286 40.5335C44.2371 41.1454 42.926 41.4076 41.3526 41.4076C39.8667 41.4076 38.5555 41.1454 37.5066 40.6209C36.4576 40.0965 35.5836 39.3972 35.0591 38.3483C34.5347 37.3868 34.2725 36.2505 34.2725 35.1142C34.2725 33.8031 34.5347 32.6668 35.1466 31.5304C35.7584 30.3941 36.5451 29.6074 37.594 29.083C38.6429 28.5586 39.8666 28.2963 41.1778 28.2963C42.3141 28.2963 43.363 28.5586 44.2371 28.9956C45.1112 29.4326 45.8104 30.0445 46.2475 30.9186C46.6845 31.7053 46.9468 32.6668 46.9468 33.6283C46.9468 34.7646 46.5971 35.8135 45.8978 36.775C45.0237 37.9987 43.8874 38.5232 42.4889 38.5232C42.1392 38.5232 41.7896 38.4358 41.6148 38.3483C41.44 38.1735 41.2651 37.9987 41.2651 37.7365C40.7407 38.2609 40.1288 38.5232 39.4295 38.5232C38.6428 38.5232 38.031 38.2609 37.5939 37.7365C37.0695 37.2121 36.8072 36.5127 36.8072 35.6386C36.8072 34.5897 37.0695 33.6282 37.6813 32.6667C38.3806 31.6178 39.3421 31.0933 40.4784 31.0933C41.2651 31.0933 41.877 31.443 42.314 32.0549L42.4889 31.2682H44.3245L43.2756 36.1631C43.1881 36.5127 43.1881 36.6875 43.1881 36.7749C43.1881 36.8623 43.1881 36.9497 43.2756 37.0372C43.363 37.1246 43.363 37.1246 43.4504 37.1246C43.6252 37.1246 43.9748 36.9497 44.3245 36.6876C44.7615 36.3379 45.1986 35.9009 45.4608 35.2891C45.7231 34.6772 45.8978 34.0653 45.8978 33.4535C45.8978 32.3171 45.4608 31.3556 44.6741 30.6563C43.8874 29.8697 42.751 29.52 41.2651 29.52C40.0414 29.52 38.9925 29.7822 38.1184 30.3067C37.2443 30.8311 36.6325 31.5304 36.1954 32.4045C35.7583 33.2786 35.5836 34.2401 35.5836 35.2891C35.5836 36.2506 35.8458 37.1247 36.2828 37.9113C36.8072 38.698 37.4192 39.3098 38.2933 39.6595C39.1673 40.0092 40.1289 40.1839 41.2652 40.1839C42.3141 40.1839 43.2756 40.0091 44.0623 39.7469C44.849 39.3972 45.4608 38.9602 45.9853 38.3483ZM38.5555 35.5512C38.5555 36.1631 38.6429 36.5127 38.9052 36.8623C39.1674 37.1246 39.4296 37.2993 39.7793 37.2993C40.0415 37.2993 40.3037 37.2119 40.4785 37.1245C40.6534 37.0371 40.8282 36.8622 41.0029 36.6875C41.2652 36.4252 41.44 35.9882 41.6148 35.4637C41.7896 34.9393 41.877 34.4148 41.877 33.9778C41.877 33.4534 41.7896 33.1037 41.5274 32.754C41.2651 32.4918 41.0029 32.317 40.6533 32.317C40.3036 32.317 39.8666 32.4919 39.6043 32.754C39.2547 33.0163 38.9925 33.4533 38.8177 34.0651C38.6429 34.5897 38.5555 35.1141 38.5555 35.5512Z" fill="#FF7058"/>
</svg>
