<svg width="81" height="81" viewBox="0 0 81 81" fill="none" xmlns="http://www.w3.org/2000/svg">
<path d="M40.8833 80.2432C62.9747 80.2432 80.8833 62.3346 80.8833 40.2432C80.8833 18.1518 62.9747 0.243225 40.8833 0.243225C18.7919 0.243225 0.883301 18.1518 0.883301 40.2432C0.883301 62.3346 18.7919 80.2432 40.8833 80.2432Z" fill="#53D0EF"/>
<path d="M14.4517 40.2432L43.2125 80.1765C64.2199 78.9702 80.8831 61.5527 80.8831 40.2432C80.8831 38.2449 80.2738 50.6042 79.9908 48.6846L70.218 36.4182L22.6224 42.5644L14.4517 40.2432Z" fill="#4CC5E3"/>
<path d="M51.1618 40.4823L40.3442 40.4822L40.3441 36.2121L69.381 36.2122C69.9504 36.2122 70.4486 36.4257 70.8756 36.8527C71.7296 37.7067 71.7296 38.9878 70.8756 39.8418C70.4486 40.2688 69.9504 40.4823 69.381 40.4823L66.5342 40.4823C65.3955 40.4823 64.5415 41.3364 64.5415 42.4751L64.5415 43.8984C64.5415 44.4678 64.328 44.966 63.9009 45.393C63.0469 46.247 61.7659 46.247 60.9119 45.393C60.4849 44.9659 60.2713 44.4678 60.2713 43.8984L60.2714 41.9057L57.4246 41.9057L57.4246 46.7452C57.4246 47.3146 57.2111 47.8128 56.7841 48.2398C55.93 49.0939 54.649 49.0938 53.795 48.2398C53.368 47.8128 53.1545 47.3146 53.1545 46.7452L53.1545 42.4751C53.1545 41.3363 52.3005 40.4823 51.1618 40.4823Z" fill="#F6B545"/>
<path d="M66.5339 40.48C65.3952 40.48 64.5411 41.334 64.5411 42.4727L64.5412 43.8961C64.5412 44.4655 64.3276 44.9636 63.9006 45.3907C63.0466 46.2447 61.7656 46.2446 60.9116 45.3906C60.4845 44.9636 60.271 44.4655 60.271 43.8961L60.2711 41.9034L57.4243 41.9034L57.4243 46.7429C57.4243 47.3123 57.2108 47.8105 56.7838 48.2375C55.9297 49.0915 54.6487 49.0915 53.7947 48.2375C53.3677 47.8105 53.1542 47.3123 53.1542 46.7429L53.1542 42.4728C53.1542 41.3341 52.3001 40.48 51.1614 40.48L66.5339 40.48Z" fill="#F6B545"/>
<path d="M40.3429 38.3436L40.3429 36.2085L40.77 36.2085C41.3394 36.2085 41.7663 36.6354 41.7663 37.2048L41.7663 37.3472C41.7663 37.9166 42.1933 38.3436 42.7627 38.3436L71.5149 38.3437C71.515 38.913 71.3014 39.4112 70.8745 39.8382C70.4475 40.2652 69.9493 40.4787 69.3799 40.4787L41.624 40.4787L40.3429 40.4787L40.3429 38.3436Z" fill="#F6B545"/>
<path d="M62.4054 46.0321C61.836 46.0321 61.3379 45.8186 60.9108 45.3916C60.4838 44.9646 60.2703 44.4664 60.2703 43.897L60.2703 43.3276L60.2704 41.9043L61.409 41.9043C61.9785 41.9043 62.4054 42.3313 62.4054 42.9007L62.4054 46.0321Z" fill="#F19920"/>
<path d="M55.2891 48.8793C54.7197 48.8793 54.2216 48.6658 53.7945 48.2388C53.3675 47.8117 53.154 47.3136 53.154 46.7442L53.154 43.8974L53.154 42.474C53.154 42.3317 53.154 42.047 53.0117 41.9047L54.2927 41.9047C54.8621 41.9047 55.2891 42.3317 55.2891 42.9011L55.2891 48.8793Z" fill="#F19920"/>
<path d="M15.435 44.0406C12.3036 40.9092 12.3036 35.785 15.435 32.6536C17.4989 30.5897 20.3457 29.878 22.9789 30.5185C23.3347 29.451 23.8329 28.5258 24.6869 27.6718C27.4625 24.8962 31.875 24.8962 34.6506 27.6718C36.2164 29.2375 36.8569 31.3014 36.6433 33.3653L37.9244 33.3653C38.4938 33.3654 39.2054 33.6501 39.6324 34.0771C40.0595 34.5041 40.3441 35.2158 40.3442 35.7851L40.3442 40.9093C40.3442 41.621 40.0595 42.1903 39.6325 42.6173C39.2055 43.0444 38.4938 43.329 37.9244 43.3291L36.6434 43.3291C36.8569 45.3929 36.2164 47.4569 34.6507 49.0226C31.8751 51.7982 27.4626 51.7982 24.687 49.0226C23.8329 48.1685 23.3348 47.2433 22.9789 46.1758C20.3457 46.8162 17.4989 46.1045 15.435 44.0406ZM23.2636 40.4822C24.4735 39.2723 24.4735 37.4219 23.2636 36.212C22.0537 35.0022 20.2034 35.0021 18.9935 36.212C17.7836 37.4219 17.7836 39.2723 18.9935 40.4822C20.2034 41.692 22.0537 41.6921 23.2636 40.4822Z" fill="#F6B545"/>
<path d="M34.6519 39.0564C34.3672 38.7717 34.1537 38.5583 33.7978 38.3447C34.1537 38.1312 34.3672 37.9178 34.6519 37.6331C35.8618 36.4232 36.5022 34.9287 36.6446 33.3629L37.9257 33.363C37.9969 33.4341 37.9969 33.4341 38.068 33.5053C37.9257 34.5016 37.2852 35.8538 36.5023 36.9213C36.0753 37.4907 36.5023 38.3447 37.214 38.3447L39.3492 38.3448C39.9186 38.3448 40.3455 38.7717 40.3455 39.3411L40.3455 40.9068C40.3455 41.6185 40.0608 42.1879 39.6338 42.6149C39.2068 43.0419 38.4951 43.3265 37.9258 43.3266L36.6447 43.3266C36.5023 41.7608 35.8617 40.2662 34.6519 39.0564Z" fill="#F6B545"/>
<path d="M15.436 44.0366C13.6568 42.2573 12.8739 39.9087 13.1586 37.6314C13.3009 39.4818 14.0126 41.1898 15.436 42.6132C17.4998 44.677 20.3466 45.3887 22.9799 44.7482C23.3357 45.8158 23.905 46.8121 24.6879 47.595C27.4635 50.3706 31.876 50.3706 34.6516 47.595C35.8615 46.3851 36.502 44.8906 36.6443 43.3249C36.8579 45.3888 36.2174 47.4527 34.6517 49.0184C31.8761 51.794 27.4636 51.794 24.688 49.0184C23.8339 48.1643 23.3358 47.2392 22.9799 46.1716C20.3467 46.8121 17.4999 46.1004 15.436 44.0366Z" fill="#F6B545"/>
<path d="M20.7721 34.2904C21.0567 34.2904 21.2703 34.2192 21.4837 34.2904C23.0495 34.4327 24.2594 35.6426 24.117 37.2083C24.117 37.3507 24.117 37.493 24.0458 37.5642C23.9035 36.8524 23.3341 36.1408 22.4089 35.6426C21.5549 35.2156 20.5585 35.2156 19.7045 35.6426C18.9216 36.1408 18.3523 36.8524 18.1388 37.6353C18.1388 37.4929 18.0676 37.4218 18.0676 37.2795C17.9965 35.7849 19.2775 34.5038 20.7721 34.2904Z" fill="#F19920"/>
</svg>
